<?xml version="1.0" encoding="UTF-8" standalone="no"?>
<!DOCTYPE svg PUBLIC "-//W3C//DTD SVG 1.1//EN"
 "http://www.w3.org/Graphics/SVG/1.1/DTD/svg11.dtd">
<!-- Generated by graphviz version 2.38.0 (20140413.2041)
 -->
<!-- Title: mom_sum_output::create_depth_list Pages: 1 -->
<svg width="545pt" height="78pt"
 viewBox="0.00 0.00 545.00 77.50" xmlns="http://www.w3.org/2000/svg" xmlns:xlink="http://www.w3.org/1999/xlink">
<g id="graph0" class="graph" transform="scale(1 1) rotate(0) translate(4 73.5)">
<title>mom_sum_output::create_depth_list</title>
<polygon fill="white" stroke="none" points="-4,4 -4,-73.5 541,-73.5 541,4 -4,4"/>
<!-- Node6 -->
<g id="node1" class="node"><title>Node6</title>
<polygon fill="#bfbfbf" stroke="black" points="0,-17 0,-47 108,-47 108,-17 0,-17"/>
<text text-anchor="start" x="8" y="-35" font-family="Helvetica,sans-Serif" font-size="10.00">mom_sum_output::create</text>
<text text-anchor="middle" x="54" y="-24" font-family="Helvetica,sans-Serif" font-size="10.00">_depth_list</text>
</g>
<!-- Node7 -->
<g id="node2" class="node"><title>Node7</title>
<g id="a_node2"><a xlink:href="../../d6/d28/namespacemom__sum__output.html#a6be0bb6885b7df65618f4039d493f5c7" target="_top" xlink:title="mom_sum_output::depth\l_list_setup">
<polygon fill="white" stroke="black" points="144,-17 144,-47 250,-47 250,-17 144,-17"/>
<text text-anchor="start" x="152" y="-35" font-family="Helvetica,sans-Serif" font-size="10.00">mom_sum_output::depth</text>
<text text-anchor="middle" x="197" y="-24" font-family="Helvetica,sans-Serif" font-size="10.00">_list_setup</text>
</a>
</g>
</g>
<!-- Node6&#45;&gt;Node7 -->
<g id="edge1" class="edge"><title>Node6&#45;&gt;Node7</title>
<path fill="none" stroke="midnightblue" d="M118.447,-32C126.842,-32 135.371,-32 143.553,-32"/>
<polygon fill="midnightblue" stroke="midnightblue" points="118.306,-28.5001 108.306,-32 118.306,-35.5001 118.306,-28.5001"/>
</g>
<!-- Node8 -->
<g id="node3" class="node"><title>Node8</title>
<g id="a_node3"><a xlink:href="../../d6/d28/namespacemom__sum__output.html#ab1d2eb6c53a3cdd079ff60f82691fccb" target="_top" xlink:title="mom_sum_output::mom\l_sum_output_init">
<polygon fill="white" stroke="black" points="286,-17 286,-47 390,-47 390,-17 286,-17"/>
<text text-anchor="start" x="294" y="-35" font-family="Helvetica,sans-Serif" font-size="10.00">mom_sum_output::mom</text>
<text text-anchor="middle" x="338" y="-24" font-family="Helvetica,sans-Serif" font-size="10.00">_sum_output_init</text>
</a>
</g>
</g>
<!-- Node7&#45;&gt;Node8 -->
<g id="edge2" class="edge"><title>Node7&#45;&gt;Node8</title>
<path fill="none" stroke="midnightblue" d="M260.168,-32C268.785,-32 277.555,-32 285.938,-32"/>
<polygon fill="midnightblue" stroke="midnightblue" points="260.154,-28.5001 250.154,-32 260.154,-35.5001 260.154,-28.5001"/>
</g>
<!-- Node9 -->
<g id="node4" class="node"><title>Node9</title>
<g id="a_node4"><a xlink:href="../../d5/dd4/namespaceocean__model__mod.html#aced9c77abd80a4a509c7cc317af707a7" target="_top" xlink:title="ocean_model_mod::ocean\l_model_init">
<polygon fill="white" stroke="black" points="426,-39 426,-69 537,-69 537,-39 426,-39"/>
<text text-anchor="start" x="434" y="-57" font-family="Helvetica,sans-Serif" font-size="10.00">ocean_model_mod::ocean</text>
<text text-anchor="middle" x="481.5" y="-46" font-family="Helvetica,sans-Serif" font-size="10.00">_model_init</text>
</a>
</g>
</g>
<!-- Node8&#45;&gt;Node9 -->
<g id="edge3" class="edge"><title>Node8&#45;&gt;Node9</title>
<path fill="none" stroke="midnightblue" d="M399.986,-41.482C408.523,-42.8092 417.253,-44.1665 425.666,-45.4745"/>
<polygon fill="midnightblue" stroke="midnightblue" points="400.504,-38.0205 390.085,-39.9425 399.428,-44.9374 400.504,-38.0205"/>
</g>
<!-- Node10 -->
<g id="node5" class="node"><title>Node10</title>
<g id="a_node5"><a xlink:href="../../de/dbc/MOM__driver_8F90.html#a08fffeb2d8e8acbf9ed4609be6d258c6" target="_top" xlink:title="mom_main">
<polygon fill="white" stroke="black" points="453.5,-0.5 453.5,-19.5 509.5,-19.5 509.5,-0.5 453.5,-0.5"/>
<text text-anchor="middle" x="481.5" y="-7.5" font-family="Helvetica,sans-Serif" font-size="10.00">mom_main</text>
</a>
</g>
</g>
<!-- Node8&#45;&gt;Node10 -->
<g id="edge4" class="edge"><title>Node8&#45;&gt;Node10</title>
<path fill="none" stroke="midnightblue" d="M400.004,-22.5153C418.622,-19.6206 438.159,-16.5831 453.322,-14.2255"/>
<polygon fill="midnightblue" stroke="midnightblue" points="399.428,-19.0626 390.085,-24.0575 400.504,-25.9795 399.428,-19.0626"/>
</g>
</g>
</svg>
