<?xml version="1.0" encoding="UTF-8" standalone="no"?>
<!DOCTYPE svg PUBLIC "-//W3C//DTD SVG 1.1//EN"
 "http://www.w3.org/Graphics/SVG/1.1/DTD/svg11.dtd">
<!-- Generated by graphviz version 2.38.0 (20140413.2041)
 -->
<!-- Title: mom_sum_output::depth_list_setup Pages: 1 -->
<svg width="516pt" height="214pt"
 viewBox="0.00 0.00 516.00 214.00" xmlns="http://www.w3.org/2000/svg" xmlns:xlink="http://www.w3.org/1999/xlink">
<g id="graph0" class="graph" transform="scale(1 1) rotate(0) translate(4 210)">
<title>mom_sum_output::depth_list_setup</title>
<polygon fill="white" stroke="none" points="-4,4 -4,-210 512,-210 512,4 -4,4"/>
<!-- Node11 -->
<g id="node1" class="node"><title>Node11</title>
<polygon fill="#bfbfbf" stroke="black" points="0,-93.5 0,-123.5 106,-123.5 106,-93.5 0,-93.5"/>
<text text-anchor="start" x="8" y="-111.5" font-family="Helvetica,sans-Serif" font-size="10.00">mom_sum_output::depth</text>
<text text-anchor="middle" x="53" y="-100.5" font-family="Helvetica,sans-Serif" font-size="10.00">_list_setup</text>
</g>
<!-- Node12 -->
<g id="node2" class="node"><title>Node12</title>
<g id="a_node2"><a xlink:href="../../d6/d28/namespacemom__sum__output.html#a1db5001777c2171a7f3f16122b4bacd1" target="_top" xlink:title="create_depth_list makes an ordered list of depths, along with the cross sectional areas at each depth...">
<polygon fill="white" stroke="black" points="142,-175.5 142,-205.5 250,-205.5 250,-175.5 142,-175.5"/>
<text text-anchor="start" x="150" y="-193.5" font-family="Helvetica,sans-Serif" font-size="10.00">mom_sum_output::create</text>
<text text-anchor="middle" x="196" y="-182.5" font-family="Helvetica,sans-Serif" font-size="10.00">_depth_list</text>
</a>
</g>
</g>
<!-- Node11&#45;&gt;Node12 -->
<g id="edge1" class="edge"><title>Node11&#45;&gt;Node12</title>
<path fill="none" stroke="midnightblue" d="M79.3425,-123.644C96.8859,-134.086 120.802,-148.239 142,-160.5 147.586,-163.731 153.521,-167.126 159.321,-170.424"/>
<polygon fill="midnightblue" stroke="midnightblue" points="157.829,-173.602 168.254,-175.489 161.281,-167.512 157.829,-173.602"/>
</g>
<!-- Node13 -->
<g id="node3" class="node"><title>Node13</title>
<g id="a_node3"><a xlink:href="../../d0/de6/namespacemom__error__handler.html#ad5f00a53059c72fe2332d1436c80ca71" target="_top" xlink:title="mom_error_handler::\lis_root_pe">
<polygon fill="white" stroke="black" points="415,-49.5 415,-79.5 508,-79.5 508,-49.5 415,-49.5"/>
<text text-anchor="start" x="423" y="-67.5" font-family="Helvetica,sans-Serif" font-size="10.00">mom_error_handler::</text>
<text text-anchor="middle" x="461.5" y="-56.5" font-family="Helvetica,sans-Serif" font-size="10.00">is_root_pe</text>
</a>
</g>
</g>
<!-- Node11&#45;&gt;Node13 -->
<g id="edge2" class="edge"><title>Node11&#45;&gt;Node13</title>
<path fill="none" stroke="midnightblue" d="M106.113,-109.88C117.913,-110.138 130.387,-110.368 142,-110.5 189.997,-111.045 202.171,-114.549 250,-110.5 307.954,-105.594 322.339,-101.626 379,-88.5 387.457,-86.5409 396.332,-84.2141 404.987,-81.7923"/>
<polygon fill="midnightblue" stroke="midnightblue" points="405.981,-85.1487 414.631,-79.0322 404.054,-78.4189 405.981,-85.1487"/>
</g>
<!-- Node14 -->
<g id="node4" class="node"><title>Node14</title>
<g id="a_node4"><a xlink:href="../../d0/de6/namespacemom__error__handler.html#a460cfb79a06c29fc249952c2a3710d67" target="_top" xlink:title="mom_error_handler::\lmom_error">
<polygon fill="white" stroke="black" points="286,-49.5 286,-79.5 379,-79.5 379,-49.5 286,-49.5"/>
<text text-anchor="start" x="294" y="-67.5" font-family="Helvetica,sans-Serif" font-size="10.00">mom_error_handler::</text>
<text text-anchor="middle" x="332.5" y="-56.5" font-family="Helvetica,sans-Serif" font-size="10.00">mom_error</text>
</a>
</g>
</g>
<!-- Node11&#45;&gt;Node14 -->
<g id="edge3" class="edge"><title>Node11&#45;&gt;Node14</title>
<path fill="none" stroke="midnightblue" d="M106.383,-105.791C146.084,-103.102 201.838,-97.9643 250,-88.5 258.518,-86.8262 267.426,-84.6536 276.096,-82.3"/>
<polygon fill="midnightblue" stroke="midnightblue" points="277.072,-85.6614 285.749,-79.5827 275.175,-78.9233 277.072,-85.6614"/>
</g>
<!-- Node15 -->
<g id="node5" class="node"><title>Node15</title>
<g id="a_node5"><a xlink:href="../../d6/d28/namespacemom__sum__output.html#a451f9101467634477df735d1699b538c" target="_top" xlink:title="mom_sum_output::read\l_depth_list">
<polygon fill="white" stroke="black" points="145,-49.5 145,-79.5 247,-79.5 247,-49.5 145,-49.5"/>
<text text-anchor="start" x="153" y="-67.5" font-family="Helvetica,sans-Serif" font-size="10.00">mom_sum_output::read</text>
<text text-anchor="middle" x="196" y="-56.5" font-family="Helvetica,sans-Serif" font-size="10.00">_depth_list</text>
</a>
</g>
</g>
<!-- Node11&#45;&gt;Node15 -->
<g id="edge5" class="edge"><title>Node11&#45;&gt;Node15</title>
<path fill="none" stroke="midnightblue" d="M102.13,-93.4808C113.349,-89.9798 125.411,-86.2158 137.006,-82.5973"/>
<polygon fill="midnightblue" stroke="midnightblue" points="138.105,-85.921 146.608,-79.6009 136.02,-79.2388 138.105,-85.921"/>
</g>
<!-- Node16 -->
<g id="node6" class="node"><title>Node16</title>
<g id="a_node6"><a xlink:href="../../d6/d28/namespacemom__sum__output.html#a0dc24305437100a7d073a489ff531ec1" target="_top" xlink:title="mom_sum_output::write\l_depth_list">
<polygon fill="white" stroke="black" points="144.5,-0.5 144.5,-30.5 247.5,-30.5 247.5,-0.5 144.5,-0.5"/>
<text text-anchor="start" x="152.5" y="-18.5" font-family="Helvetica,sans-Serif" font-size="10.00">mom_sum_output::write</text>
<text text-anchor="middle" x="196" y="-7.5" font-family="Helvetica,sans-Serif" font-size="10.00">_depth_list</text>
</a>
</g>
</g>
<!-- Node11&#45;&gt;Node16 -->
<g id="edge7" class="edge"><title>Node11&#45;&gt;Node16</title>
<path fill="none" stroke="midnightblue" d="M70.6382,-93.4626C87.7041,-78.5324 115.439,-55.6057 142,-39.5 144.47,-38.0025 147.049,-36.5401 149.682,-35.1237"/>
<polygon fill="midnightblue" stroke="midnightblue" points="151.44,-38.1562 158.764,-30.5006 148.265,-31.9179 151.44,-38.1562"/>
</g>
<!-- Node14&#45;&gt;Node13 -->
<g id="edge4" class="edge"><title>Node14&#45;&gt;Node13</title>
<path fill="none" stroke="midnightblue" d="M379.35,-64.5C387.533,-64.5 396.141,-64.5 404.568,-64.5"/>
<polygon fill="midnightblue" stroke="midnightblue" points="404.717,-68.0001 414.717,-64.5 404.717,-61.0001 404.717,-68.0001"/>
</g>
<!-- Node15&#45;&gt;Node14 -->
<g id="edge6" class="edge"><title>Node15&#45;&gt;Node14</title>
<path fill="none" stroke="midnightblue" d="M247.083,-64.5C256.407,-64.5 266.203,-64.5 275.687,-64.5"/>
<polygon fill="midnightblue" stroke="midnightblue" points="275.818,-68.0001 285.818,-64.5 275.818,-61.0001 275.818,-68.0001"/>
</g>
<!-- Node16&#45;&gt;Node13 -->
<g id="edge8" class="edge"><title>Node16&#45;&gt;Node13</title>
<path fill="none" stroke="midnightblue" d="M247.602,-19.8907C284.339,-23.6304 335.091,-29.9401 379,-39.5 387.921,-41.4422 397.275,-43.9001 406.335,-46.5122"/>
<polygon fill="midnightblue" stroke="midnightblue" points="405.434,-49.8957 416.017,-49.3902 407.428,-43.1858 405.434,-49.8957"/>
</g>
<!-- Node16&#45;&gt;Node14 -->
<g id="edge9" class="edge"><title>Node16&#45;&gt;Node14</title>
<path fill="none" stroke="midnightblue" d="M238.452,-30.6014C251.747,-35.4451 266.628,-40.8664 280.523,-45.9285"/>
<polygon fill="midnightblue" stroke="midnightblue" points="279.359,-49.2295 289.953,-49.3641 281.756,-42.6524 279.359,-49.2295"/>
</g>
</g>
</svg>
