<?xml version="1.0" encoding="UTF-8" standalone="no"?>
<!DOCTYPE svg PUBLIC "-//W3C//DTD SVG 1.1//EN"
 "http://www.w3.org/Graphics/SVG/1.1/DTD/svg11.dtd">
<!-- Generated by graphviz version 2.38.0 (20140413.2041)
 -->
<!-- Title: mom_sum_output::depth_list_setup Pages: 1 -->
<svg width="401pt" height="78pt"
 viewBox="0.00 0.00 401.00 77.50" xmlns="http://www.w3.org/2000/svg" xmlns:xlink="http://www.w3.org/1999/xlink">
<g id="graph0" class="graph" transform="scale(1 1) rotate(0) translate(4 73.5)">
<title>mom_sum_output::depth_list_setup</title>
<polygon fill="white" stroke="none" points="-4,4 -4,-73.5 397,-73.5 397,4 -4,4"/>
<!-- Node17 -->
<g id="node1" class="node"><title>Node17</title>
<polygon fill="#bfbfbf" stroke="black" points="0,-17 0,-47 106,-47 106,-17 0,-17"/>
<text text-anchor="start" x="8" y="-35" font-family="Helvetica,sans-Serif" font-size="10.00">mom_sum_output::depth</text>
<text text-anchor="middle" x="53" y="-24" font-family="Helvetica,sans-Serif" font-size="10.00">_list_setup</text>
</g>
<!-- Node18 -->
<g id="node2" class="node"><title>Node18</title>
<g id="a_node2"><a xlink:href="../../d6/d28/namespacemom__sum__output.html#ab1d2eb6c53a3cdd079ff60f82691fccb" target="_top" xlink:title="mom_sum_output::mom\l_sum_output_init">
<polygon fill="white" stroke="black" points="142,-17 142,-47 246,-47 246,-17 142,-17"/>
<text text-anchor="start" x="150" y="-35" font-family="Helvetica,sans-Serif" font-size="10.00">mom_sum_output::mom</text>
<text text-anchor="middle" x="194" y="-24" font-family="Helvetica,sans-Serif" font-size="10.00">_sum_output_init</text>
</a>
</g>
</g>
<!-- Node17&#45;&gt;Node18 -->
<g id="edge1" class="edge"><title>Node17&#45;&gt;Node18</title>
<path fill="none" stroke="midnightblue" d="M116.168,-32C124.785,-32 133.555,-32 141.938,-32"/>
<polygon fill="midnightblue" stroke="midnightblue" points="116.154,-28.5001 106.154,-32 116.154,-35.5001 116.154,-28.5001"/>
</g>
<!-- Node19 -->
<g id="node3" class="node"><title>Node19</title>
<g id="a_node3"><a xlink:href="../../d5/dd4/namespaceocean__model__mod.html#aced9c77abd80a4a509c7cc317af707a7" target="_top" xlink:title="ocean_model_mod::ocean\l_model_init">
<polygon fill="white" stroke="black" points="282,-39 282,-69 393,-69 393,-39 282,-39"/>
<text text-anchor="start" x="290" y="-57" font-family="Helvetica,sans-Serif" font-size="10.00">ocean_model_mod::ocean</text>
<text text-anchor="middle" x="337.5" y="-46" font-family="Helvetica,sans-Serif" font-size="10.00">_model_init</text>
</a>
</g>
</g>
<!-- Node18&#45;&gt;Node19 -->
<g id="edge2" class="edge"><title>Node18&#45;&gt;Node19</title>
<path fill="none" stroke="midnightblue" d="M255.986,-41.482C264.523,-42.8092 273.253,-44.1665 281.666,-45.4745"/>
<polygon fill="midnightblue" stroke="midnightblue" points="256.504,-38.0205 246.085,-39.9425 255.428,-44.9374 256.504,-38.0205"/>
</g>
<!-- Node20 -->
<g id="node4" class="node"><title>Node20</title>
<g id="a_node4"><a xlink:href="../../de/dbc/MOM__driver_8F90.html#a08fffeb2d8e8acbf9ed4609be6d258c6" target="_top" xlink:title="mom_main">
<polygon fill="white" stroke="black" points="309.5,-0.5 309.5,-19.5 365.5,-19.5 365.5,-0.5 309.5,-0.5"/>
<text text-anchor="middle" x="337.5" y="-7.5" font-family="Helvetica,sans-Serif" font-size="10.00">mom_main</text>
</a>
</g>
</g>
<!-- Node18&#45;&gt;Node20 -->
<g id="edge3" class="edge"><title>Node18&#45;&gt;Node20</title>
<path fill="none" stroke="midnightblue" d="M256.004,-22.5153C274.622,-19.6206 294.159,-16.5831 309.322,-14.2255"/>
<polygon fill="midnightblue" stroke="midnightblue" points="255.428,-19.0626 246.085,-24.0575 256.504,-25.9795 255.428,-19.0626"/>
</g>
</g>
</svg>
