<?xml version="1.0" encoding="UTF-8" standalone="no"?>
<!DOCTYPE svg PUBLIC "-//W3C//DTD SVG 1.1//EN"
 "http://www.w3.org/Graphics/SVG/1.1/DTD/svg11.dtd">
<!-- Generated by graphviz version 2.38.0 (20140413.2041)
 -->
<!-- Title: mom_sum_output::write_energy Pages: 1 -->
<svg width="951pt" height="456pt"
 viewBox="0.00 0.00 951.00 455.94" xmlns="http://www.w3.org/2000/svg" xmlns:xlink="http://www.w3.org/1999/xlink">
<g id="graph0" class="graph" transform="scale(1 1) rotate(0) translate(4 451.94)">
<title>mom_sum_output::write_energy</title>
<polygon fill="white" stroke="none" points="-4,4 -4,-451.94 947,-451.94 947,4 -4,4"/>
<!-- Node50 -->
<g id="node1" class="node"><title>Node50</title>
<polygon fill="#bfbfbf" stroke="black" points="0,-99 0,-129 103,-129 103,-99 0,-99"/>
<text text-anchor="start" x="8" y="-117" font-family="Helvetica,sans-Serif" font-size="10.00">mom_sum_output::write</text>
<text text-anchor="middle" x="51.5" y="-106" font-family="Helvetica,sans-Serif" font-size="10.00">_energy</text>
</g>
<!-- Node51 -->
<g id="node2" class="node"><title>Node51</title>
<g id="a_node2"><a xlink:href="../../d1/d99/namespacemom__tracer__flow__control.html#afd8526344e928c8c9505c921bf37447f" target="_top" xlink:title="mom_tracer_flow_control\l::call_tracer_stocks">
<polygon fill="white" stroke="black" points="139,-301 139,-331 246,-331 246,-301 139,-301"/>
<text text-anchor="start" x="147" y="-319" font-family="Helvetica,sans-Serif" font-size="10.00">mom_tracer_flow_control</text>
<text text-anchor="middle" x="192.5" y="-308" font-family="Helvetica,sans-Serif" font-size="10.00">::call_tracer_stocks</text>
</a>
</g>
</g>
<!-- Node50&#45;&gt;Node51 -->
<g id="edge1" class="edge"><title>Node50&#45;&gt;Node51</title>
<path fill="none" stroke="midnightblue" d="M62.9476,-129.183C87.0053,-164.144 146.455,-250.539 175.293,-292.448"/>
<polygon fill="midnightblue" stroke="midnightblue" points="172.569,-294.663 181.121,-300.917 178.335,-290.694 172.569,-294.663"/>
</g>
<!-- Node52 -->
<g id="node3" class="node"><title>Node52</title>
<g id="a_node3"><a xlink:href="../../d0/de6/namespacemom__error__handler.html#a460cfb79a06c29fc249952c2a3710d67" target="_top" xlink:title="mom_error_handler::\lmom_error">
<polygon fill="white" stroke="black" points="721,-175 721,-205 814,-205 814,-175 721,-175"/>
<text text-anchor="start" x="729" y="-193" font-family="Helvetica,sans-Serif" font-size="10.00">mom_error_handler::</text>
<text text-anchor="middle" x="767.5" y="-182" font-family="Helvetica,sans-Serif" font-size="10.00">mom_error</text>
</a>
</g>
</g>
<!-- Node50&#45;&gt;Node52 -->
<g id="edge18" class="edge"><title>Node50&#45;&gt;Node52</title>
<path fill="none" stroke="midnightblue" d="M103.041,-114C160.103,-114 255.72,-114 338,-114 338,-114 338,-114 486.5,-114 575.125,-114 601.835,-102.372 685,-133 706.327,-140.854 727.268,-155.7 742.582,-168.272"/>
<polygon fill="midnightblue" stroke="midnightblue" points="740.586,-171.168 750.478,-174.964 745.112,-165.828 740.586,-171.168"/>
</g>
<!-- Node53 -->
<g id="node4" class="node"><title>Node53</title>
<g id="a_node4"><a xlink:href="../../d0/de6/namespacemom__error__handler.html#ad5f00a53059c72fe2332d1436c80ca71" target="_top" xlink:title="mom_error_handler::\lis_root_pe">
<polygon fill="white" stroke="black" points="850,-80 850,-110 943,-110 943,-80 850,-80"/>
<text text-anchor="start" x="858" y="-98" font-family="Helvetica,sans-Serif" font-size="10.00">mom_error_handler::</text>
<text text-anchor="middle" x="896.5" y="-87" font-family="Helvetica,sans-Serif" font-size="10.00">is_root_pe</text>
</a>
</g>
</g>
<!-- Node50&#45;&gt;Node53 -->
<g id="edge17" class="edge"><title>Node50&#45;&gt;Node53</title>
<path fill="none" stroke="midnightblue" d="M71.7649,-98.8225C88.6636,-86.1342 114.324,-68.3408 139,-57 222.595,-18.5801 245.999,-0 338,-0 338,-0 338,-0 631,-0 718.78,-0 813.811,-46.9171 862.551,-74.8089"/>
<polygon fill="midnightblue" stroke="midnightblue" points="860.98,-77.9439 871.383,-79.947 864.5,-71.8932 860.98,-77.9439"/>
</g>
<!-- Node61 -->
<g id="node12" class="node"><title>Node61</title>
<g id="a_node12"><a xlink:href="../../d7/d0a/namespacemom__coms.html#a4aaf51b372bcaf7b46939145577eff92" target="_top" xlink:title="mom_coms::efp_to_real">
<polygon fill="white" stroke="black" points="141,-66.5 141,-85.5 244,-85.5 244,-66.5 141,-66.5"/>
<text text-anchor="middle" x="192.5" y="-73.5" font-family="Helvetica,sans-Serif" font-size="10.00">mom_coms::efp_to_real</text>
</a>
</g>
</g>
<!-- Node50&#45;&gt;Node61 -->
<g id="edge14" class="edge"><title>Node50&#45;&gt;Node61</title>
<path fill="none" stroke="midnightblue" d="M103.075,-100.174C117.317,-96.2802 132.706,-92.0731 146.592,-88.277"/>
<polygon fill="midnightblue" stroke="midnightblue" points="147.676,-91.6091 156.399,-85.5959 145.83,-84.8569 147.676,-91.6091"/>
</g>
<!-- Node64 -->
<g id="node15" class="node"><title>Node64</title>
<g id="a_node15"><a xlink:href="../../d7/d0a/namespacemom__coms.html#ac8f1b5be23b128cd8bb956ebda917edb" target="_top" xlink:title="mom_coms::real_to_efp">
<polygon fill="white" stroke="black" points="434,-142.5 434,-161.5 537,-161.5 537,-142.5 434,-142.5"/>
<text text-anchor="middle" x="485.5" y="-149.5" font-family="Helvetica,sans-Serif" font-size="10.00">mom_coms::real_to_efp</text>
</a>
</g>
</g>
<!-- Node50&#45;&gt;Node64 -->
<g id="edge19" class="edge"><title>Node50&#45;&gt;Node64</title>
<path fill="none" stroke="midnightblue" d="M103.163,-122.992C114.901,-124.855 127.363,-126.657 139,-128 238.283,-139.459 354.293,-146.155 423.454,-149.443"/>
<polygon fill="midnightblue" stroke="midnightblue" points="423.574,-152.952 433.726,-149.922 423.9,-145.96 423.574,-152.952"/>
</g>
<!-- Node51&#45;&gt;Node52 -->
<g id="edge2" class="edge"><title>Node51&#45;&gt;Node52</title>
<path fill="none" stroke="midnightblue" d="M207.875,-300.907C224.188,-284.83 252.395,-260.071 282,-248 358.564,-216.783 600.066,-199.45 710.456,-192.978"/>
<polygon fill="midnightblue" stroke="midnightblue" points="710.938,-196.456 720.719,-192.385 710.534,-189.468 710.938,-196.456"/>
</g>
<!-- Node54 -->
<g id="node5" class="node"><title>Node54</title>
<g id="a_node5"><a xlink:href="../../d1/d99/namespacemom__tracer__flow__control.html#ad43ea30fa52fcb930db39037f5d7e6b9" target="_top" xlink:title="mom_tracer_flow_control\l::store_stocks">
<polygon fill="white" stroke="black" points="432,-369 432,-399 539,-399 539,-369 432,-369"/>
<text text-anchor="start" x="440" y="-387" font-family="Helvetica,sans-Serif" font-size="10.00">mom_tracer_flow_control</text>
<text text-anchor="middle" x="485.5" y="-376" font-family="Helvetica,sans-Serif" font-size="10.00">::store_stocks</text>
</a>
</g>
</g>
<!-- Node51&#45;&gt;Node54 -->
<g id="edge4" class="edge"><title>Node51&#45;&gt;Node54</title>
<path fill="none" stroke="midnightblue" d="M199.436,-331.147C210.812,-357.781 238.482,-412.241 282,-434 327.318,-456.659 346.999,-446.885 396,-434 417.6,-428.32 439.474,-416.035 456.071,-405.065"/>
<polygon fill="midnightblue" stroke="midnightblue" points="458.434,-407.689 464.713,-399.156 454.483,-401.911 458.434,-407.689"/>
</g>
<!-- Node55 -->
<g id="node6" class="node"><title>Node55</title>
<g id="a_node6"><a xlink:href="../../d6/dcd/namespaceideal__age__example.html#a2300d82e30802a3127f4a63277d37776" target="_top" xlink:title="ideal_age_example::\lideal_age_stock">
<polygon fill="white" stroke="black" points="294,-257 294,-287 384,-287 384,-257 294,-257"/>
<text text-anchor="start" x="302" y="-275" font-family="Helvetica,sans-Serif" font-size="10.00">ideal_age_example::</text>
<text text-anchor="middle" x="339" y="-264" font-family="Helvetica,sans-Serif" font-size="10.00">ideal_age_stock</text>
</a>
</g>
</g>
<!-- Node51&#45;&gt;Node55 -->
<g id="edge6" class="edge"><title>Node51&#45;&gt;Node55</title>
<path fill="none" stroke="midnightblue" d="M242.825,-300.981C256.114,-296.934 270.558,-292.536 284.084,-288.417"/>
<polygon fill="midnightblue" stroke="midnightblue" points="285.195,-291.738 293.742,-285.477 283.156,-285.041 285.195,-291.738"/>
</g>
<!-- Node58 -->
<g id="node9" class="node"><title>Node58</title>
<g id="a_node9"><a xlink:href="../../de/def/namespaceregional__dyes.html#a0641ff9c663bcfacdd597a79f63d15e0" target="_top" xlink:title="regional_dyes::dye\l_stock">
<polygon fill="white" stroke="black" points="297.5,-345 297.5,-375 380.5,-375 380.5,-345 297.5,-345"/>
<text text-anchor="start" x="305.5" y="-363" font-family="Helvetica,sans-Serif" font-size="10.00">regional_dyes::dye</text>
<text text-anchor="middle" x="339" y="-352" font-family="Helvetica,sans-Serif" font-size="10.00">_stock</text>
</a>
</g>
</g>
<!-- Node51&#45;&gt;Node58 -->
<g id="edge10" class="edge"><title>Node51&#45;&gt;Node58</title>
<path fill="none" stroke="midnightblue" d="M242.825,-331.019C257.173,-335.388 272.868,-340.167 287.3,-344.562"/>
<polygon fill="midnightblue" stroke="midnightblue" points="286.471,-347.968 297.057,-347.533 288.51,-341.272 286.471,-347.968"/>
</g>
<!-- Node59 -->
<g id="node10" class="node"><title>Node59</title>
<g id="a_node10"><a xlink:href="../../de/d98/namespaceoil__tracer.html#ac8964b16549dba8fc850e4af15af8029" target="_top" xlink:title="oil_tracer::oil_stock">
<polygon fill="white" stroke="black" points="297,-306.5 297,-325.5 381,-325.5 381,-306.5 297,-306.5"/>
<text text-anchor="middle" x="339" y="-313.5" font-family="Helvetica,sans-Serif" font-size="10.00">oil_tracer::oil_stock</text>
</a>
</g>
</g>
<!-- Node51&#45;&gt;Node59 -->
<g id="edge11" class="edge"><title>Node51&#45;&gt;Node59</title>
<path fill="none" stroke="midnightblue" d="M246.077,-316C259.193,-316 273.247,-316 286.32,-316"/>
<polygon fill="midnightblue" stroke="midnightblue" points="286.557,-319.5 296.557,-316 286.557,-312.5 286.557,-319.5"/>
</g>
<!-- Node60 -->
<g id="node11" class="node"><title>Node60</title>
<g id="a_node11"><a xlink:href="../../d6/dd2/namespacemom__ocmip2__cfc.html#ac3c9967ff09b37934eb5ef51535e7ee3" target="_top" xlink:title="mom_ocmip2_cfc::ocmip2\l_cfc_stock">
<polygon fill="white" stroke="black" points="284.5,-394 284.5,-424 393.5,-424 393.5,-394 284.5,-394"/>
<text text-anchor="start" x="292.5" y="-412" font-family="Helvetica,sans-Serif" font-size="10.00">mom_ocmip2_cfc::ocmip2</text>
<text text-anchor="middle" x="339" y="-401" font-family="Helvetica,sans-Serif" font-size="10.00">_cfc_stock</text>
</a>
</g>
</g>
<!-- Node51&#45;&gt;Node60 -->
<g id="edge12" class="edge"><title>Node51&#45;&gt;Node60</title>
<path fill="none" stroke="midnightblue" d="M210.179,-331.144C227.3,-346.156 255.161,-369.146 282,-385 284.603,-386.537 287.322,-388.031 290.1,-389.47"/>
<polygon fill="midnightblue" stroke="midnightblue" points="288.578,-392.622 299.098,-393.875 291.656,-386.335 288.578,-392.622"/>
</g>
<!-- Node52&#45;&gt;Node53 -->
<g id="edge3" class="edge"><title>Node52&#45;&gt;Node53</title>
<path fill="none" stroke="midnightblue" d="M788.624,-174.947C809.678,-159.197 842.921,-134.331 866.741,-116.513"/>
<polygon fill="midnightblue" stroke="midnightblue" points="869.139,-119.09 875.05,-110.297 864.946,-113.484 869.139,-119.09"/>
</g>
<!-- Node54&#45;&gt;Node52 -->
<g id="edge5" class="edge"><title>Node54&#45;&gt;Node52</title>
<path fill="none" stroke="midnightblue" d="M530.551,-368.948C572.912,-353.098 637.359,-325.263 685,-288 711.995,-266.886 736.156,-235.451 751.032,-213.911"/>
<polygon fill="midnightblue" stroke="midnightblue" points="754.122,-215.589 756.82,-205.344 748.322,-211.67 754.122,-215.589"/>
</g>
<!-- Node56 -->
<g id="node7" class="node"><title>Node56</title>
<g id="a_node7"><a xlink:href="../../d5/d89/namespacemom__io.html#a23e82d1d89d9bb1c9bdf802ce80d4508" target="_top" xlink:title="This routine queries vardesc. ">
<polygon fill="white" stroke="black" points="434.5,-262.5 434.5,-281.5 536.5,-281.5 536.5,-262.5 434.5,-262.5"/>
<text text-anchor="middle" x="485.5" y="-269.5" font-family="Helvetica,sans-Serif" font-size="10.00">mom_io::query_vardesc</text>
</a>
</g>
</g>
<!-- Node55&#45;&gt;Node56 -->
<g id="edge7" class="edge"><title>Node55&#45;&gt;Node56</title>
<path fill="none" stroke="midnightblue" d="M384.14,-272C396.772,-272 410.763,-272 424.188,-272"/>
<polygon fill="midnightblue" stroke="midnightblue" points="424.313,-275.5 434.313,-272 424.313,-268.5 424.313,-275.5"/>
</g>
<!-- Node57 -->
<g id="node8" class="node"><title>Node57</title>
<g id="a_node8"><a xlink:href="../../d5/d89/namespacemom__io.html#ac4bc408e8b38dbd669842753f26ebf88" target="_top" xlink:title="Copies a string. ">
<polygon fill="white" stroke="black" points="575,-259.5 575,-278.5 685,-278.5 685,-259.5 575,-259.5"/>
<text text-anchor="middle" x="630" y="-266.5" font-family="Helvetica,sans-Serif" font-size="10.00">mom_io::safe_string_copy</text>
</a>
</g>
</g>
<!-- Node56&#45;&gt;Node57 -->
<g id="edge8" class="edge"><title>Node56&#45;&gt;Node57</title>
<path fill="none" stroke="midnightblue" d="M536.74,-270.942C545.802,-270.752 555.363,-270.55 564.759,-270.352"/>
<polygon fill="midnightblue" stroke="midnightblue" points="564.934,-273.85 574.859,-270.14 564.787,-266.851 564.934,-273.85"/>
</g>
<!-- Node57&#45;&gt;Node52 -->
<g id="edge9" class="edge"><title>Node57&#45;&gt;Node52</title>
<path fill="none" stroke="midnightblue" d="M651.264,-259.489C661.509,-254.524 674.058,-248.204 685,-242 702.087,-232.312 720.584,-220.614 735.631,-210.769"/>
<polygon fill="midnightblue" stroke="midnightblue" points="737.632,-213.642 744.055,-205.216 733.779,-207.798 737.632,-213.642"/>
</g>
<!-- Node60&#45;&gt;Node56 -->
<g id="edge13" class="edge"><title>Node60&#45;&gt;Node56</title>
<path fill="none" stroke="midnightblue" d="M381.701,-393.957C386.741,-391.335 391.64,-388.353 396,-385 430.7,-358.311 459.452,-315.036 474.079,-290.509"/>
<polygon fill="midnightblue" stroke="midnightblue" points="477.133,-292.219 479.137,-281.815 471.083,-288.698 477.133,-292.219"/>
</g>
<!-- Node62 -->
<g id="node13" class="node"><title>Node62</title>
<g id="a_node13"><a xlink:href="../../d7/d0a/namespacemom__coms.html#a24ac5b7cc37b1498f23b61eea03fb8c3" target="_top" xlink:title="mom_coms::ints_to_real">
<polygon fill="white" stroke="black" points="287,-28.5 287,-47.5 391,-47.5 391,-28.5 287,-28.5"/>
<text text-anchor="middle" x="339" y="-35.5" font-family="Helvetica,sans-Serif" font-size="10.00">mom_coms::ints_to_real</text>
</a>
</g>
</g>
<!-- Node61&#45;&gt;Node62 -->
<g id="edge15" class="edge"><title>Node61&#45;&gt;Node62</title>
<path fill="none" stroke="midnightblue" d="M229.963,-66.411C248.774,-61.4642 271.915,-55.3789 291.947,-50.1108"/>
<polygon fill="midnightblue" stroke="midnightblue" points="293.018,-53.4483 301.799,-47.5201 291.237,-46.6785 293.018,-53.4483"/>
</g>
<!-- Node63 -->
<g id="node14" class="node"><title>Node63</title>
<g id="a_node14"><a xlink:href="../../d7/d0a/namespacemom__coms.html#ab8feff19e782af36bb7ccccd5ba9eddc" target="_top" xlink:title="mom_coms::regularize_ints">
<polygon fill="white" stroke="black" points="282,-66.5 282,-85.5 396,-85.5 396,-66.5 282,-66.5"/>
<text text-anchor="middle" x="339" y="-73.5" font-family="Helvetica,sans-Serif" font-size="10.00">mom_coms::regularize_ints</text>
</a>
</g>
</g>
<!-- Node61&#45;&gt;Node63 -->
<g id="edge16" class="edge"><title>Node61&#45;&gt;Node63</title>
<path fill="none" stroke="midnightblue" d="M244.039,-76C253.004,-76 262.461,-76 271.783,-76"/>
<polygon fill="midnightblue" stroke="midnightblue" points="271.816,-79.5001 281.816,-76 271.816,-72.5001 271.816,-79.5001"/>
</g>
<!-- Node64&#45;&gt;Node52 -->
<g id="edge20" class="edge"><title>Node64&#45;&gt;Node52</title>
<path fill="none" stroke="midnightblue" d="M526.413,-161.567C541.559,-164.934 559.008,-168.498 575,-171 620.257,-178.08 671.968,-183.027 710.238,-186.094"/>
<polygon fill="midnightblue" stroke="midnightblue" points="710.416,-189.618 720.659,-186.909 710.962,-182.64 710.416,-189.618"/>
</g>
<!-- Node65 -->
<g id="node16" class="node"><title>Node65</title>
<g id="a_node16"><a xlink:href="../../d7/d0a/namespacemom__coms.html#a0cc261620495abf3313937726883b95e" target="_top" xlink:title="mom_coms::real_to_ints">
<polygon fill="white" stroke="black" points="578,-142.5 578,-161.5 682,-161.5 682,-142.5 578,-142.5"/>
<text text-anchor="middle" x="630" y="-149.5" font-family="Helvetica,sans-Serif" font-size="10.00">mom_coms::real_to_ints</text>
</a>
</g>
</g>
<!-- Node64&#45;&gt;Node65 -->
<g id="edge21" class="edge"><title>Node64&#45;&gt;Node65</title>
<path fill="none" stroke="midnightblue" d="M537.141,-152C546.981,-152 557.394,-152 567.538,-152"/>
<polygon fill="midnightblue" stroke="midnightblue" points="567.561,-155.5 577.561,-152 567.56,-148.5 567.561,-155.5"/>
</g>
<!-- Node65&#45;&gt;Node52 -->
<g id="edge22" class="edge"><title>Node65&#45;&gt;Node52</title>
<path fill="none" stroke="midnightblue" d="M665.192,-161.589C679.02,-165.467 695.342,-170.044 710.799,-174.379"/>
<polygon fill="midnightblue" stroke="midnightblue" points="710.223,-177.853 720.797,-177.183 712.114,-171.113 710.223,-177.853"/>
</g>
</g>
</svg>
