<?xml version="1.0" encoding="UTF-8" standalone="no"?>
<!DOCTYPE svg PUBLIC "-//W3C//DTD SVG 1.1//EN"
 "http://www.w3.org/Graphics/SVG/1.1/DTD/svg11.dtd">
<!-- Generated by graphviz version 2.38.0 (20140413.2041)
 -->
<!-- Title: mom_sum_output::mom_sum_output_init Pages: 1 -->
<svg width="656pt" height="270pt"
 viewBox="0.00 0.00 656.00 270.47" xmlns="http://www.w3.org/2000/svg" xmlns:xlink="http://www.w3.org/1999/xlink">
<g id="graph0" class="graph" transform="scale(1 1) rotate(0) translate(4 266.471)">
<title>mom_sum_output::mom_sum_output_init</title>
<polygon fill="white" stroke="none" points="-4,4 -4,-266.471 652,-266.471 652,4 -4,4"/>
<!-- Node23 -->
<g id="node1" class="node"><title>Node23</title>
<polygon fill="#bfbfbf" stroke="black" points="0,-137.5 0,-167.5 104,-167.5 104,-137.5 0,-137.5"/>
<text text-anchor="start" x="8" y="-155.5" font-family="Helvetica,sans-Serif" font-size="10.00">mom_sum_output::mom</text>
<text text-anchor="middle" x="52" y="-144.5" font-family="Helvetica,sans-Serif" font-size="10.00">_sum_output_init</text>
</g>
<!-- Node24 -->
<g id="node2" class="node"><title>Node24</title>
<g id="a_node2"><a xlink:href="../../d6/d28/namespacemom__sum__output.html#a6be0bb6885b7df65618f4039d493f5c7" target="_top" xlink:title="mom_sum_output::depth\l_list_setup">
<polygon fill="white" stroke="black" points="140,-137.5 140,-167.5 246,-167.5 246,-137.5 140,-137.5"/>
<text text-anchor="start" x="148" y="-155.5" font-family="Helvetica,sans-Serif" font-size="10.00">mom_sum_output::depth</text>
<text text-anchor="middle" x="193" y="-144.5" font-family="Helvetica,sans-Serif" font-size="10.00">_list_setup</text>
</a>
</g>
</g>
<!-- Node23&#45;&gt;Node24 -->
<g id="edge1" class="edge"><title>Node23&#45;&gt;Node24</title>
<path fill="none" stroke="midnightblue" d="M104.364,-152.5C112.611,-152.5 121.224,-152.5 129.694,-152.5"/>
<polygon fill="midnightblue" stroke="midnightblue" points="129.919,-156 139.919,-152.5 129.919,-149 129.919,-156"/>
</g>
<!-- Node27 -->
<g id="node5" class="node"><title>Node27</title>
<g id="a_node5"><a xlink:href="../../d0/de6/namespacemom__error__handler.html#a460cfb79a06c29fc249952c2a3710d67" target="_top" xlink:title="mom_error_handler::\lmom_error">
<polygon fill="white" stroke="black" points="426,-137.5 426,-167.5 519,-167.5 519,-137.5 426,-137.5"/>
<text text-anchor="start" x="434" y="-155.5" font-family="Helvetica,sans-Serif" font-size="10.00">mom_error_handler::</text>
<text text-anchor="middle" x="472.5" y="-144.5" font-family="Helvetica,sans-Serif" font-size="10.00">mom_error</text>
</a>
</g>
</g>
<!-- Node23&#45;&gt;Node27 -->
<g id="edge13" class="edge"><title>Node23&#45;&gt;Node27</title>
<path fill="none" stroke="midnightblue" d="M73.1285,-167.527C126.599,-205.481 275.898,-298.588 390,-246.5 421.258,-232.231 445.139,-199.397 458.741,-176.582"/>
<polygon fill="midnightblue" stroke="midnightblue" points="461.84,-178.214 463.771,-167.796 455.765,-174.736 461.84,-178.214"/>
</g>
<!-- Node30 -->
<g id="node8" class="node"><title>Node30</title>
<g id="a_node8"><a xlink:href="../../d9/def/namespacemom__file__parser.html#a17c0ef1bb1912f02faa0aaa1e0f64210" target="_top" xlink:title="mom_file_parser::log\l_version">
<polygon fill="white" stroke="black" points="426.5,-0.5 426.5,-30.5 518.5,-30.5 518.5,-0.5 426.5,-0.5"/>
<text text-anchor="start" x="434.5" y="-18.5" font-family="Helvetica,sans-Serif" font-size="10.00">mom_file_parser::log</text>
<text text-anchor="middle" x="472.5" y="-7.5" font-family="Helvetica,sans-Serif" font-size="10.00">_version</text>
</a>
</g>
</g>
<!-- Node23&#45;&gt;Node30 -->
<g id="edge11" class="edge"><title>Node23&#45;&gt;Node30</title>
<path fill="none" stroke="midnightblue" d="M83.0027,-137.34C126.066,-116.121 208.34,-77.5819 282,-54.5 326.428,-40.578 378.302,-30.2984 416.532,-23.7985"/>
<polygon fill="midnightblue" stroke="midnightblue" points="417.151,-27.2437 426.439,-22.1466 416,-20.339 417.151,-27.2437"/>
</g>
<!-- Node25 -->
<g id="node3" class="node"><title>Node25</title>
<g id="a_node3"><a xlink:href="../../d6/d28/namespacemom__sum__output.html#a1db5001777c2171a7f3f16122b4bacd1" target="_top" xlink:title="create_depth_list makes an ordered list of depths, along with the cross sectional areas at each depth...">
<polygon fill="white" stroke="black" points="282,-186.5 282,-216.5 390,-216.5 390,-186.5 282,-186.5"/>
<text text-anchor="start" x="290" y="-204.5" font-family="Helvetica,sans-Serif" font-size="10.00">mom_sum_output::create</text>
<text text-anchor="middle" x="336" y="-193.5" font-family="Helvetica,sans-Serif" font-size="10.00">_depth_list</text>
</a>
</g>
</g>
<!-- Node24&#45;&gt;Node25 -->
<g id="edge2" class="edge"><title>Node24&#45;&gt;Node25</title>
<path fill="none" stroke="midnightblue" d="M237.455,-167.601C251.527,-172.492 267.293,-177.971 281.979,-183.074"/>
<polygon fill="midnightblue" stroke="midnightblue" points="280.851,-186.387 291.446,-186.364 283.149,-179.775 280.851,-186.387"/>
</g>
<!-- Node26 -->
<g id="node4" class="node"><title>Node26</title>
<g id="a_node4"><a xlink:href="../../d0/de6/namespacemom__error__handler.html#ad5f00a53059c72fe2332d1436c80ca71" target="_top" xlink:title="mom_error_handler::\lis_root_pe">
<polygon fill="white" stroke="black" points="555,-64.5 555,-94.5 648,-94.5 648,-64.5 555,-64.5"/>
<text text-anchor="start" x="563" y="-82.5" font-family="Helvetica,sans-Serif" font-size="10.00">mom_error_handler::</text>
<text text-anchor="middle" x="601.5" y="-71.5" font-family="Helvetica,sans-Serif" font-size="10.00">is_root_pe</text>
</a>
</g>
</g>
<!-- Node24&#45;&gt;Node26 -->
<g id="edge3" class="edge"><title>Node24&#45;&gt;Node26</title>
<path fill="none" stroke="midnightblue" d="M206.056,-137.31C221.44,-119.281 249.931,-90.1916 282,-78.5 369.406,-46.6341 479.495,-57.0862 544.697,-67.9957"/>
<polygon fill="midnightblue" stroke="midnightblue" points="544.315,-71.4816 554.766,-69.7441 545.512,-64.5848 544.315,-71.4816"/>
</g>
<!-- Node24&#45;&gt;Node27 -->
<g id="edge4" class="edge"><title>Node24&#45;&gt;Node27</title>
<path fill="none" stroke="midnightblue" d="M206.056,-167.69C221.44,-185.719 249.931,-214.808 282,-226.5 327.097,-242.941 345.224,-243.795 390,-226.5 416.199,-216.381 439.175,-193.495 453.996,-175.834"/>
<polygon fill="midnightblue" stroke="midnightblue" points="457.035,-177.641 460.594,-167.662 451.589,-173.243 457.035,-177.641"/>
</g>
<!-- Node28 -->
<g id="node6" class="node"><title>Node28</title>
<g id="a_node6"><a xlink:href="../../d6/d28/namespacemom__sum__output.html#a451f9101467634477df735d1699b538c" target="_top" xlink:title="mom_sum_output::read\l_depth_list">
<polygon fill="white" stroke="black" points="285,-137.5 285,-167.5 387,-167.5 387,-137.5 285,-137.5"/>
<text text-anchor="start" x="293" y="-155.5" font-family="Helvetica,sans-Serif" font-size="10.00">mom_sum_output::read</text>
<text text-anchor="middle" x="336" y="-144.5" font-family="Helvetica,sans-Serif" font-size="10.00">_depth_list</text>
</a>
</g>
</g>
<!-- Node24&#45;&gt;Node28 -->
<g id="edge6" class="edge"><title>Node24&#45;&gt;Node28</title>
<path fill="none" stroke="midnightblue" d="M246.103,-152.5C255.436,-152.5 265.231,-152.5 274.77,-152.5"/>
<polygon fill="midnightblue" stroke="midnightblue" points="274.986,-156 284.986,-152.5 274.986,-149 274.986,-156"/>
</g>
<!-- Node29 -->
<g id="node7" class="node"><title>Node29</title>
<g id="a_node7"><a xlink:href="../../d6/d28/namespacemom__sum__output.html#a0dc24305437100a7d073a489ff531ec1" target="_top" xlink:title="mom_sum_output::write\l_depth_list">
<polygon fill="white" stroke="black" points="284.5,-88.5 284.5,-118.5 387.5,-118.5 387.5,-88.5 284.5,-88.5"/>
<text text-anchor="start" x="292.5" y="-106.5" font-family="Helvetica,sans-Serif" font-size="10.00">mom_sum_output::write</text>
<text text-anchor="middle" x="336" y="-95.5" font-family="Helvetica,sans-Serif" font-size="10.00">_depth_list</text>
</a>
</g>
</g>
<!-- Node24&#45;&gt;Node29 -->
<g id="edge8" class="edge"><title>Node24&#45;&gt;Node29</title>
<path fill="none" stroke="midnightblue" d="M237.455,-137.399C251.527,-132.508 267.293,-127.029 281.979,-121.926"/>
<polygon fill="midnightblue" stroke="midnightblue" points="283.149,-125.225 291.446,-118.636 280.851,-118.613 283.149,-125.225"/>
</g>
<!-- Node27&#45;&gt;Node26 -->
<g id="edge5" class="edge"><title>Node27&#45;&gt;Node26</title>
<path fill="none" stroke="midnightblue" d="M499.814,-137.374C518.801,-126.461 544.636,-111.611 565.382,-99.6859"/>
<polygon fill="midnightblue" stroke="midnightblue" points="567.294,-102.624 574.219,-94.6063 563.805,-96.5553 567.294,-102.624"/>
</g>
<!-- Node28&#45;&gt;Node27 -->
<g id="edge7" class="edge"><title>Node28&#45;&gt;Node27</title>
<path fill="none" stroke="midnightblue" d="M387.083,-152.5C396.407,-152.5 406.203,-152.5 415.687,-152.5"/>
<polygon fill="midnightblue" stroke="midnightblue" points="415.818,-156 425.818,-152.5 415.818,-149 415.818,-156"/>
</g>
<!-- Node29&#45;&gt;Node26 -->
<g id="edge9" class="edge"><title>Node29&#45;&gt;Node26</title>
<path fill="none" stroke="midnightblue" d="M387.805,-98.8726C432.714,-94.7822 498.108,-88.826 544.511,-84.5996"/>
<polygon fill="midnightblue" stroke="midnightblue" points="545.055,-88.0646 554.696,-83.6719 544.42,-81.0935 545.055,-88.0646"/>
</g>
<!-- Node29&#45;&gt;Node27 -->
<g id="edge10" class="edge"><title>Node29&#45;&gt;Node27</title>
<path fill="none" stroke="midnightblue" d="M378.452,-118.601C391.747,-123.445 406.628,-128.866 420.523,-133.928"/>
<polygon fill="midnightblue" stroke="midnightblue" points="419.359,-137.23 429.953,-137.364 421.756,-130.652 419.359,-137.23"/>
</g>
<!-- Node30&#45;&gt;Node26 -->
<g id="edge12" class="edge"><title>Node30&#45;&gt;Node26</title>
<path fill="none" stroke="midnightblue" d="M503.276,-30.5052C520.586,-39.2285 542.607,-50.3256 561.312,-59.7519"/>
<polygon fill="midnightblue" stroke="midnightblue" points="559.965,-62.9924 570.471,-64.3671 563.116,-56.7412 559.965,-62.9924"/>
</g>
</g>
</svg>
