<?xml version="1.0" encoding="UTF-8" standalone="no"?>
<!DOCTYPE svg PUBLIC "-//W3C//DTD SVG 1.1//EN"
 "http://www.w3.org/Graphics/SVG/1.1/DTD/svg11.dtd">
<!-- Generated by graphviz version 2.38.0 (20140413.2041)
 -->
<!-- Title: mom_grid::allocate_metrics Pages: 1 -->
<svg width="464pt" height="116pt"
 viewBox="0.00 0.00 464.00 115.50" xmlns="http://www.w3.org/2000/svg" xmlns:xlink="http://www.w3.org/1999/xlink">
<g id="graph0" class="graph" transform="scale(1 1) rotate(0) translate(4 111.5)">
<title>mom_grid::allocate_metrics</title>
<polygon fill="white" stroke="none" points="-4,4 -4,-111.5 460,-111.5 460,4 -4,4"/>
<!-- Node12 -->
<g id="node1" class="node"><title>Node12</title>
<polygon fill="#bfbfbf" stroke="black" points="0,-44.5 0,-74.5 84,-74.5 84,-44.5 0,-44.5"/>
<text text-anchor="start" x="8" y="-62.5" font-family="Helvetica,sans-Serif" font-size="10.00">mom_grid::allocate</text>
<text text-anchor="middle" x="42" y="-51.5" font-family="Helvetica,sans-Serif" font-size="10.00">_metrics</text>
</g>
<!-- Node13 -->
<g id="node2" class="node"><title>Node13</title>
<g id="a_node2"><a xlink:href="../../dc/d7f/namespacemom__grid.html#a457baf772f460da97155d6ffdd54c848" target="_top" xlink:title="MOM_grid_init initializes the ocean grid array sizes and grid memory. ">
<polygon fill="white" stroke="black" points="120,-50 120,-69 227,-69 227,-50 120,-50"/>
<text text-anchor="middle" x="173.5" y="-57" font-family="Helvetica,sans-Serif" font-size="10.00">mom_grid::mom_grid_init</text>
</a>
</g>
</g>
<!-- Node12&#45;&gt;Node13 -->
<g id="edge1" class="edge"><title>Node12&#45;&gt;Node13</title>
<path fill="none" stroke="midnightblue" d="M94.5967,-59.5C102.861,-59.5 111.425,-59.5 119.717,-59.5"/>
<polygon fill="midnightblue" stroke="midnightblue" points="94.3307,-56.0001 84.3307,-59.5 94.3306,-63.0001 94.3307,-56.0001"/>
</g>
<!-- Node14 -->
<g id="node3" class="node"><title>Node14</title>
<g id="a_node3"><a xlink:href="../../d6/d48/MOM__sum__driver_8F90.html#a08fffeb2d8e8acbf9ed4609be6d258c6" target="_top" xlink:title="mom_main">
<polygon fill="white" stroke="black" points="285.5,-88 285.5,-107 341.5,-107 341.5,-88 285.5,-88"/>
<text text-anchor="middle" x="313.5" y="-95" font-family="Helvetica,sans-Serif" font-size="10.00">mom_main</text>
</a>
</g>
</g>
<!-- Node13&#45;&gt;Node14 -->
<g id="edge2" class="edge"><title>Node13&#45;&gt;Node14</title>
<path fill="none" stroke="midnightblue" d="M219.013,-71.7572C240.754,-77.7439 266.222,-84.7568 285.081,-89.9498"/>
<polygon fill="midnightblue" stroke="midnightblue" points="219.894,-68.3695 209.323,-69.089 218.035,-75.1183 219.894,-68.3695"/>
</g>
<!-- Node15 -->
<g id="node4" class="node"><title>Node15</title>
<g id="a_node4"><a xlink:href="../../da/d01/namespacemom.html#afebdc0103ad9cbe0ed4a54e522dc4104" target="_top" xlink:title="This subroutine initializes MOM. ">
<polygon fill="white" stroke="black" points="269,-50 269,-69 358,-69 358,-50 269,-50"/>
<text text-anchor="middle" x="313.5" y="-57" font-family="Helvetica,sans-Serif" font-size="10.00">mom::initialize_mom</text>
</a>
</g>
</g>
<!-- Node13&#45;&gt;Node15 -->
<g id="edge3" class="edge"><title>Node13&#45;&gt;Node15</title>
<path fill="none" stroke="midnightblue" d="M237.156,-59.5C247.779,-59.5 258.605,-59.5 268.614,-59.5"/>
<polygon fill="midnightblue" stroke="midnightblue" points="237.066,-56.0001 227.066,-59.5 237.066,-63.0001 237.066,-56.0001"/>
</g>
<!-- Node17 -->
<g id="node6" class="node"><title>Node17</title>
<g id="a_node6"><a xlink:href="../../df/da2/namespacemom__ice__shelf.html#ae315e8464ef8a20062e3bccb61886755" target="_top" xlink:title="mom_ice_shelf::initialize\l_ice_shelf">
<polygon fill="white" stroke="black" points="263,-0.5 263,-30.5 364,-30.5 364,-0.5 263,-0.5"/>
<text text-anchor="start" x="271" y="-18.5" font-family="Helvetica,sans-Serif" font-size="10.00">mom_ice_shelf::initialize</text>
<text text-anchor="middle" x="313.5" y="-7.5" font-family="Helvetica,sans-Serif" font-size="10.00">_ice_shelf</text>
</a>
</g>
</g>
<!-- Node13&#45;&gt;Node17 -->
<g id="edge5" class="edge"><title>Node13&#45;&gt;Node17</title>
<path fill="none" stroke="midnightblue" d="M214.016,-46.9008C229.992,-41.8069 248.566,-35.8849 265.25,-30.5654"/>
<polygon fill="midnightblue" stroke="midnightblue" points="212.908,-43.5802 204.444,-49.9527 215.035,-50.2495 212.908,-43.5802"/>
</g>
<!-- Node16 -->
<g id="node5" class="node"><title>Node16</title>
<g id="a_node5"><a xlink:href="../../de/dbc/MOM__driver_8F90.html#a08fffeb2d8e8acbf9ed4609be6d258c6" target="_top" xlink:title="mom_main">
<polygon fill="white" stroke="black" points="400,-47 400,-66 456,-66 456,-47 400,-47"/>
<text text-anchor="middle" x="428" y="-54" font-family="Helvetica,sans-Serif" font-size="10.00">mom_main</text>
</a>
</g>
</g>
<!-- Node15&#45;&gt;Node16 -->
<g id="edge4" class="edge"><title>Node15&#45;&gt;Node16</title>
<path fill="none" stroke="midnightblue" d="M368.585,-58.0577C379.382,-57.7698 390.286,-57.479 399.702,-57.228"/>
<polygon fill="midnightblue" stroke="midnightblue" points="368.221,-54.5661 358.318,-58.3315 368.407,-61.5636 368.221,-54.5661"/>
</g>
<!-- Node17&#45;&gt;Node16 -->
<g id="edge7" class="edge"><title>Node17&#45;&gt;Node16</title>
<path fill="none" stroke="midnightblue" d="M365.438,-34.064C377.661,-38.5186 390.222,-43.0963 400.783,-46.9455"/>
<polygon fill="midnightblue" stroke="midnightblue" points="366.346,-30.6699 355.752,-30.5341 363.949,-37.2467 366.346,-30.6699"/>
</g>
<!-- Node18 -->
<g id="node7" class="node"><title>Node18</title>
<g id="a_node7"><a xlink:href="../../d5/d6d/ice__shelf__driver_8F90.html#aec5bef92f0dad343f545cd8d62e378d8" target="_top" xlink:title="shelf_main">
<polygon fill="white" stroke="black" points="400.5,-6 400.5,-25 455.5,-25 455.5,-6 400.5,-6"/>
<text text-anchor="middle" x="428" y="-13" font-family="Helvetica,sans-Serif" font-size="10.00">shelf_main</text>
</a>
</g>
</g>
<!-- Node17&#45;&gt;Node18 -->
<g id="edge6" class="edge"><title>Node17&#45;&gt;Node18</title>
<path fill="none" stroke="midnightblue" d="M374.455,-15.5C383.56,-15.5 392.534,-15.5 400.419,-15.5"/>
<polygon fill="midnightblue" stroke="midnightblue" points="374.172,-12.0001 364.172,-15.5 374.172,-19.0001 374.172,-12.0001"/>
</g>
</g>
</svg>
