<?xml version="1.0" encoding="UTF-8" standalone="no"?>
<!DOCTYPE svg PUBLIC "-//W3C//DTD SVG 1.1//EN"
 "http://www.w3.org/Graphics/SVG/1.1/DTD/svg11.dtd">
<!-- Generated by graphviz version 2.38.0 (20140413.2041)
 -->
<!-- Title: regrid_solvers::solve_tridiagonal_system Pages: 1 -->
<svg width="1248pt" height="268pt"
 viewBox="0.00 0.00 1248.00 268.00" xmlns="http://www.w3.org/2000/svg" xmlns:xlink="http://www.w3.org/1999/xlink">
<g id="graph0" class="graph" transform="scale(1 1) rotate(0) translate(4 264)">
<title>regrid_solvers::solve_tridiagonal_system</title>
<polygon fill="white" stroke="none" points="-4,4 -4,-264 1244,-264 1244,4 -4,4"/>
<!-- Node26 -->
<g id="node1" class="node"><title>Node26</title>
<polygon fill="#bfbfbf" stroke="black" points="0,-73.5 0,-103.5 89,-103.5 89,-73.5 0,-73.5"/>
<text text-anchor="start" x="8" y="-91.5" font-family="Helvetica,sans-Serif" font-size="10.00">regrid_solvers::solve</text>
<text text-anchor="middle" x="44.5" y="-80.5" font-family="Helvetica,sans-Serif" font-size="10.00">_tridiagonal_system</text>
</g>
<!-- Node27 -->
<g id="node2" class="node"><title>Node27</title>
<g id="a_node2"><a xlink:href="../../da/d9a/namespaceregrid__edge__slopes.html#a378dcb603968664e58d65e8ed892ec69" target="_top" xlink:title="regrid_edge_slopes\l::edge_slopes_implicit_h3">
<polygon fill="white" stroke="black" points="125,-147.5 125,-177.5 232,-177.5 232,-147.5 125,-147.5"/>
<text text-anchor="start" x="133" y="-165.5" font-family="Helvetica,sans-Serif" font-size="10.00">regrid_edge_slopes</text>
<text text-anchor="middle" x="178.5" y="-154.5" font-family="Helvetica,sans-Serif" font-size="10.00">::edge_slopes_implicit_h3</text>
</a>
</g>
</g>
<!-- Node26&#45;&gt;Node27 -->
<g id="edge1" class="edge"><title>Node26&#45;&gt;Node27</title>
<path fill="none" stroke="midnightblue" d="M76.9688,-108.98C91.3929,-118.084 108.843,-128.707 125,-137.5 131.207,-140.878 137.945,-144.278 144.459,-147.435"/>
<polygon fill="midnightblue" stroke="midnightblue" points="78.733,-105.954 68.4174,-103.538 74.9745,-111.86 78.733,-105.954"/>
</g>
<!-- Node43 -->
<g id="node18" class="node"><title>Node43</title>
<g id="a_node18"><a xlink:href="../../da/d9a/namespaceregrid__edge__slopes.html#a32fc906bf14cfb859703b4a1a7c46a9c" target="_top" xlink:title="regrid_edge_slopes\l::edge_slopes_implicit_h5">
<polygon fill="white" stroke="black" points="125,-98.5 125,-128.5 232,-128.5 232,-98.5 125,-98.5"/>
<text text-anchor="start" x="133" y="-116.5" font-family="Helvetica,sans-Serif" font-size="10.00">regrid_edge_slopes</text>
<text text-anchor="middle" x="178.5" y="-105.5" font-family="Helvetica,sans-Serif" font-size="10.00">::edge_slopes_implicit_h5</text>
</a>
</g>
</g>
<!-- Node26&#45;&gt;Node43 -->
<g id="edge18" class="edge"><title>Node26&#45;&gt;Node43</title>
<path fill="none" stroke="midnightblue" d="M98.9236,-98.6181C107.447,-100.232 116.26,-101.902 124.767,-103.513"/>
<polygon fill="midnightblue" stroke="midnightblue" points="99.5642,-95.1773 89.0876,-96.7552 98.2616,-102.055 99.5642,-95.1773"/>
</g>
<!-- Node44 -->
<g id="node19" class="node"><title>Node44</title>
<g id="a_node19"><a xlink:href="../../df/d50/namespaceregrid__edge__values.html#a2c2460b31b6de501eed3cb7db07a4be5" target="_top" xlink:title="regrid_edge_values\l::edge_values_implicit_h4">
<polygon fill="white" stroke="black" points="125,-0.5 125,-30.5 232,-30.5 232,-0.5 125,-0.5"/>
<text text-anchor="start" x="133" y="-18.5" font-family="Helvetica,sans-Serif" font-size="10.00">regrid_edge_values</text>
<text text-anchor="middle" x="178.5" y="-7.5" font-family="Helvetica,sans-Serif" font-size="10.00">::edge_values_implicit_h4</text>
</a>
</g>
</g>
<!-- Node26&#45;&gt;Node44 -->
<g id="edge20" class="edge"><title>Node26&#45;&gt;Node44</title>
<path fill="none" stroke="midnightblue" d="M76.9053,-67.9022C91.3169,-58.7748 108.775,-48.166 125,-39.5 130.746,-36.431 136.959,-33.3732 143.031,-30.5189"/>
<polygon fill="midnightblue" stroke="midnightblue" points="74.9037,-65.0277 68.3639,-73.3633 78.6745,-70.9253 74.9037,-65.0277"/>
</g>
<!-- Node46 -->
<g id="node21" class="node"><title>Node46</title>
<g id="a_node21"><a xlink:href="../../df/d50/namespaceregrid__edge__values.html#a6c14843c556353d86f2efb4c7c74c9f5" target="_top" xlink:title="regrid_edge_values\l::edge_values_implicit_h6">
<polygon fill="white" stroke="black" points="125,-49.5 125,-79.5 232,-79.5 232,-49.5 125,-49.5"/>
<text text-anchor="start" x="133" y="-67.5" font-family="Helvetica,sans-Serif" font-size="10.00">regrid_edge_values</text>
<text text-anchor="middle" x="178.5" y="-56.5" font-family="Helvetica,sans-Serif" font-size="10.00">::edge_values_implicit_h6</text>
</a>
</g>
</g>
<!-- Node26&#45;&gt;Node46 -->
<g id="edge23" class="edge"><title>Node26&#45;&gt;Node46</title>
<path fill="none" stroke="midnightblue" d="M99.2016,-78.7361C107.638,-77.2022 116.353,-75.6177 124.767,-74.0878"/>
<polygon fill="midnightblue" stroke="midnightblue" points="98.3001,-75.3425 89.0876,-80.575 99.5524,-82.2296 98.3001,-75.3425"/>
</g>
<!-- Node28 -->
<g id="node3" class="node"><title>Node28</title>
<g id="a_node3"><a xlink:href="../../d6/d75/namespacemom__remapping.html#a07d7276310f329f56560a1290bcb8b0a" target="_top" xlink:title="Creates polynomial reconstructions of u0 on the source grid h0. ">
<polygon fill="white" stroke="black" points="289,-73.5 289,-103.5 387,-103.5 387,-73.5 289,-73.5"/>
<text text-anchor="start" x="297" y="-91.5" font-family="Helvetica,sans-Serif" font-size="10.00">mom_remapping::build</text>
<text text-anchor="middle" x="338" y="-80.5" font-family="Helvetica,sans-Serif" font-size="10.00">_reconstructions_1d</text>
</a>
</g>
</g>
<!-- Node27&#45;&gt;Node28 -->
<g id="edge2" class="edge"><title>Node27&#45;&gt;Node28</title>
<path fill="none" stroke="midnightblue" d="M221.086,-142.961C247.382,-130.606 280.853,-114.88 305.06,-103.507"/>
<polygon fill="midnightblue" stroke="midnightblue" points="219.315,-139.926 211.753,-147.346 222.292,-146.262 219.315,-139.926"/>
</g>
<!-- Node29 -->
<g id="node4" class="node"><title>Node29</title>
<g id="a_node4"><a xlink:href="../../d6/d75/namespacemom__remapping.html#a6d1533ffa647f3305aba055e2685b095" target="_top" xlink:title="Remaps column of values u0 on grid h0 to grid h1 assuming the top edge is aligned. ">
<polygon fill="white" stroke="black" points="444,-120.5 444,-150.5 564,-150.5 564,-120.5 444,-120.5"/>
<text text-anchor="start" x="452" y="-138.5" font-family="Helvetica,sans-Serif" font-size="10.00">mom_remapping::remapping</text>
<text text-anchor="middle" x="504" y="-127.5" font-family="Helvetica,sans-Serif" font-size="10.00">_core_h</text>
</a>
</g>
</g>
<!-- Node28&#45;&gt;Node29 -->
<g id="edge3" class="edge"><title>Node28&#45;&gt;Node29</title>
<path fill="none" stroke="midnightblue" d="M397.315,-105.212C414.641,-110.178 433.51,-115.585 450.447,-120.439"/>
<polygon fill="midnightblue" stroke="midnightblue" points="397.896,-101.738 387.318,-102.347 395.967,-108.467 397.896,-101.738"/>
</g>
<!-- Node40 -->
<g id="node15" class="node"><title>Node40</title>
<g id="a_node15"><a xlink:href="../../d6/d75/namespacemom__remapping.html#a8b967872b8db2ac7d538991f7f255e56" target="_top" xlink:title="Remaps column of values u0 on grid h0 to implied grid h1 where the interfaces of h1 differ from those...">
<polygon fill="white" stroke="black" points="444,-49.5 444,-79.5 564,-79.5 564,-49.5 444,-49.5"/>
<text text-anchor="start" x="452" y="-67.5" font-family="Helvetica,sans-Serif" font-size="10.00">mom_remapping::remapping</text>
<text text-anchor="middle" x="504" y="-56.5" font-family="Helvetica,sans-Serif" font-size="10.00">_core_w</text>
</a>
</g>
</g>
<!-- Node28&#45;&gt;Node40 -->
<g id="edge14" class="edge"><title>Node28&#45;&gt;Node40</title>
<path fill="none" stroke="midnightblue" d="M397.551,-79.9315C412.639,-77.7235 428.884,-75.3463 443.995,-73.1349"/>
<polygon fill="midnightblue" stroke="midnightblue" points="396.706,-76.5178 387.318,-81.429 397.72,-83.4441 396.706,-76.5178"/>
</g>
<!-- Node30 -->
<g id="node5" class="node"><title>Node30</title>
<g id="a_node5"><a xlink:href="../../de/dd7/namespacemom__ale__sponge.html#a8f6e6db99f860b048a58e97e58c101a6" target="_top" xlink:title="This subroutine applies damping to the layers thicknesses, temp, salt and a variety of tracers for ev...">
<polygon fill="white" stroke="black" points="622.5,-204.5 622.5,-234.5 726.5,-234.5 726.5,-204.5 622.5,-204.5"/>
<text text-anchor="start" x="630.5" y="-222.5" font-family="Helvetica,sans-Serif" font-size="10.00">mom_ale_sponge::apply</text>
<text text-anchor="middle" x="674.5" y="-211.5" font-family="Helvetica,sans-Serif" font-size="10.00">_ale_sponge</text>
</a>
</g>
</g>
<!-- Node29&#45;&gt;Node30 -->
<g id="edge4" class="edge"><title>Node29&#45;&gt;Node30</title>
<path fill="none" stroke="midnightblue" d="M544.132,-155.008C574.381,-170.087 615.636,-190.654 643.353,-204.471"/>
<polygon fill="midnightblue" stroke="midnightblue" points="545.636,-151.847 535.124,-150.518 542.512,-158.111 545.636,-151.847"/>
</g>
<!-- Node32 -->
<g id="node7" class="node"><title>Node32</title>
<g id="a_node7"><a xlink:href="../../d6/d62/namespacemom__state__initialization.html#a71ee3c056ca59c1c3529a4ec22e09fe3" target="_top" xlink:title="Adjust the layer thicknesses by cutting away the top at the depth where the hydrostatic pressure matc...">
<polygon fill="white" stroke="black" points="624,-131.5 624,-161.5 725,-161.5 725,-131.5 624,-131.5"/>
<text text-anchor="start" x="632" y="-149.5" font-family="Helvetica,sans-Serif" font-size="10.00">mom_state_initialization</text>
<text text-anchor="middle" x="674.5" y="-138.5" font-family="Helvetica,sans-Serif" font-size="10.00">::cut_off_column_top</text>
</a>
</g>
</g>
<!-- Node29&#45;&gt;Node32 -->
<g id="edge6" class="edge"><title>Node29&#45;&gt;Node32</title>
<path fill="none" stroke="midnightblue" d="M574.57,-140.042C591.092,-141.12 608.391,-142.25 623.819,-143.257"/>
<polygon fill="midnightblue" stroke="midnightblue" points="574.614,-136.537 564.407,-139.378 574.158,-143.522 574.614,-136.537"/>
</g>
<!-- Node38 -->
<g id="node13" class="node"><title>Node38</title>
<g id="a_node13"><a xlink:href="../../d9/d06/namespacemom__diag__mediator.html#ab5e628e0b8acd96234fab33d0fae2161" target="_top" xlink:title="Remap diagnostic field to z&#45;star vertical grid. ">
<polygon fill="white" stroke="black" points="627,-82.5 627,-112.5 722,-112.5 722,-82.5 627,-82.5"/>
<text text-anchor="start" x="635" y="-100.5" font-family="Helvetica,sans-Serif" font-size="10.00">mom_diag_mediator::</text>
<text text-anchor="middle" x="674.5" y="-89.5" font-family="Helvetica,sans-Serif" font-size="10.00">remap_diag_to_z</text>
</a>
</g>
</g>
<!-- Node29&#45;&gt;Node38 -->
<g id="edge12" class="edge"><title>Node29&#45;&gt;Node38</title>
<path fill="none" stroke="midnightblue" d="M574.629,-119.797C592.204,-115.834 610.655,-111.673 626.794,-108.033"/>
<polygon fill="midnightblue" stroke="midnightblue" points="573.392,-116.488 564.407,-122.103 574.932,-123.317 573.392,-116.488"/>
</g>
<!-- Node31 -->
<g id="node6" class="node"><title>Node31</title>
<g id="a_node6"><a xlink:href="../../d8/df3/namespacemom__diabatic__driver.html#a61e57d3902367aa46aa3c2d949ee900f" target="_top" xlink:title="This subroutine imposes the diapycnal mass fluxes and the accompanying diapycnal advection of momentu...">
<polygon fill="white" stroke="black" points="790,-229.5 790,-259.5 881,-259.5 881,-229.5 790,-229.5"/>
<text text-anchor="start" x="798" y="-247.5" font-family="Helvetica,sans-Serif" font-size="10.00">mom_diabatic_driver</text>
<text text-anchor="middle" x="835.5" y="-236.5" font-family="Helvetica,sans-Serif" font-size="10.00">::diabatic</text>
</a>
</g>
</g>
<!-- Node30&#45;&gt;Node31 -->
<g id="edge5" class="edge"><title>Node30&#45;&gt;Node31</title>
<path fill="none" stroke="midnightblue" d="M736.894,-229.153C754.529,-231.926 773.42,-234.896 789.839,-237.478"/>
<polygon fill="midnightblue" stroke="midnightblue" points="737.106,-225.644 726.684,-227.548 736.019,-232.559 737.106,-225.644"/>
</g>
<!-- Node33 -->
<g id="node8" class="node"><title>Node33</title>
<g id="a_node8"><a xlink:href="../../d6/d62/namespacemom__state__initialization.html#a5c77bf2b0ea9d28e28b661a2a42d3f88" target="_top" xlink:title="Run simple unit tests. ">
<polygon fill="white" stroke="black" points="785,-180.5 785,-210.5 886,-210.5 886,-180.5 785,-180.5"/>
<text text-anchor="start" x="793" y="-198.5" font-family="Helvetica,sans-Serif" font-size="10.00">mom_state_initialization</text>
<text text-anchor="middle" x="835.5" y="-187.5" font-family="Helvetica,sans-Serif" font-size="10.00">::mom_state_init_tests</text>
</a>
</g>
</g>
<!-- Node32&#45;&gt;Node33 -->
<g id="edge7" class="edge"><title>Node32&#45;&gt;Node33</title>
<path fill="none" stroke="midnightblue" d="M734.275,-164.613C751.178,-169.822 769.426,-175.446 785.659,-180.448"/>
<polygon fill="midnightblue" stroke="midnightblue" points="735.09,-161.202 724.503,-161.601 733.028,-167.891 735.09,-161.202"/>
</g>
<!-- Node34 -->
<g id="node9" class="node"><title>Node34</title>
<g id="a_node9"><a xlink:href="../../d6/d62/namespacemom__state__initialization.html#acc1029776c1bdda2862ed0f95c8dc640" target="_top" xlink:title="Adjust the layer thicknesses by cutting away the top of each model column at the depth where the hydr...">
<polygon fill="white" stroke="black" points="785,-131.5 785,-161.5 886,-161.5 886,-131.5 785,-131.5"/>
<text text-anchor="start" x="793" y="-149.5" font-family="Helvetica,sans-Serif" font-size="10.00">mom_state_initialization</text>
<text text-anchor="middle" x="835.5" y="-138.5" font-family="Helvetica,sans-Serif" font-size="10.00">::trim_for_ice</text>
</a>
</g>
</g>
<!-- Node32&#45;&gt;Node34 -->
<g id="edge8" class="edge"><title>Node32&#45;&gt;Node34</title>
<path fill="none" stroke="midnightblue" d="M735.807,-146.5C751.979,-146.5 769.279,-146.5 784.805,-146.5"/>
<polygon fill="midnightblue" stroke="midnightblue" points="735.372,-143 725.372,-146.5 735.372,-150 735.372,-143"/>
</g>
<!-- Node35 -->
<g id="node10" class="node"><title>Node35</title>
<g id="a_node10"><a xlink:href="../../d6/d62/namespacemom__state__initialization.html#af4e854627c6572332ba3fd895f169321" target="_top" xlink:title="mom_state_initialization\l::mom_initialize_state">
<polygon fill="white" stroke="black" points="922,-118.5 922,-148.5 1023,-148.5 1023,-118.5 922,-118.5"/>
<text text-anchor="start" x="930" y="-136.5" font-family="Helvetica,sans-Serif" font-size="10.00">mom_state_initialization</text>
<text text-anchor="middle" x="972.5" y="-125.5" font-family="Helvetica,sans-Serif" font-size="10.00">::mom_initialize_state</text>
</a>
</g>
</g>
<!-- Node34&#45;&gt;Node35 -->
<g id="edge9" class="edge"><title>Node34&#45;&gt;Node35</title>
<path fill="none" stroke="midnightblue" d="M896.207,-140.75C904.67,-139.935 913.299,-139.105 921.552,-138.31"/>
<polygon fill="midnightblue" stroke="midnightblue" points="895.621,-137.291 886.002,-141.733 896.292,-144.258 895.621,-137.291"/>
</g>
<!-- Node36 -->
<g id="node11" class="node"><title>Node36</title>
<g id="a_node11"><a xlink:href="../../da/d01/namespacemom.html#afebdc0103ad9cbe0ed4a54e522dc4104" target="_top" xlink:title="This subroutine initializes MOM. ">
<polygon fill="white" stroke="black" points="1059,-96 1059,-115 1148,-115 1148,-96 1059,-96"/>
<text text-anchor="middle" x="1103.5" y="-103" font-family="Helvetica,sans-Serif" font-size="10.00">mom::initialize_mom</text>
</a>
</g>
</g>
<!-- Node35&#45;&gt;Node36 -->
<g id="edge10" class="edge"><title>Node35&#45;&gt;Node36</title>
<path fill="none" stroke="midnightblue" d="M1032.81,-120.628C1041.56,-118.726 1050.45,-116.797 1058.82,-114.982"/>
<polygon fill="midnightblue" stroke="midnightblue" points="1032.04,-117.213 1023.01,-122.755 1033.52,-124.054 1032.04,-117.213"/>
</g>
<!-- Node37 -->
<g id="node12" class="node"><title>Node37</title>
<g id="a_node12"><a xlink:href="../../de/dbc/MOM__driver_8F90.html#a08fffeb2d8e8acbf9ed4609be6d258c6" target="_top" xlink:title="mom_main">
<polygon fill="white" stroke="black" points="1184,-96 1184,-115 1240,-115 1240,-96 1184,-96"/>
<text text-anchor="middle" x="1212" y="-103" font-family="Helvetica,sans-Serif" font-size="10.00">mom_main</text>
</a>
</g>
</g>
<!-- Node36&#45;&gt;Node37 -->
<g id="edge11" class="edge"><title>Node36&#45;&gt;Node37</title>
<path fill="none" stroke="midnightblue" d="M1158.41,-105.5C1167.21,-105.5 1175.98,-105.5 1183.77,-105.5"/>
<polygon fill="midnightblue" stroke="midnightblue" points="1158.12,-102 1148.12,-105.5 1158.12,-109 1158.12,-102"/>
</g>
<!-- Node39 -->
<g id="node14" class="node"><title>Node39</title>
<g id="a_node14"><a xlink:href="../../d9/d06/namespacemom__diag__mediator.html#adb1030a0216c52dd0d25bd67a5b31868" target="_top" xlink:title="mom_diag_mediator::\lpost_data_3d">
<polygon fill="white" stroke="black" points="788,-82.5 788,-112.5 883,-112.5 883,-82.5 788,-82.5"/>
<text text-anchor="start" x="796" y="-100.5" font-family="Helvetica,sans-Serif" font-size="10.00">mom_diag_mediator::</text>
<text text-anchor="middle" x="835.5" y="-89.5" font-family="Helvetica,sans-Serif" font-size="10.00">post_data_3d</text>
</a>
</g>
</g>
<!-- Node38&#45;&gt;Node39 -->
<g id="edge13" class="edge"><title>Node38&#45;&gt;Node39</title>
<path fill="none" stroke="midnightblue" d="M732.538,-97.5C750.732,-97.5 770.635,-97.5 787.99,-97.5"/>
<polygon fill="midnightblue" stroke="midnightblue" points="732.345,-94.0001 722.345,-97.5 732.345,-101 732.345,-94.0001"/>
</g>
<!-- Node41 -->
<g id="node16" class="node"><title>Node41</title>
<g id="a_node16"><a xlink:href="../../d6/d75/namespacemom__remapping.html#aad5ec4e3f91e936e34113503d05deeeb" target="_top" xlink:title="Runs unit tests on remapping functions. Should only be called from a single/root thread Returns True ...">
<polygon fill="white" stroke="black" points="600,-44 600,-63 749,-63 749,-44 600,-44"/>
<text text-anchor="middle" x="674.5" y="-51" font-family="Helvetica,sans-Serif" font-size="10.00">mom_remapping::remappingunittests</text>
</a>
</g>
</g>
<!-- Node40&#45;&gt;Node41 -->
<g id="edge15" class="edge"><title>Node40&#45;&gt;Node41</title>
<path fill="none" stroke="midnightblue" d="M574.495,-59.9633C582.866,-59.4168 591.437,-58.8572 599.864,-58.3071"/>
<polygon fill="midnightblue" stroke="midnightblue" points="574.158,-56.4777 564.407,-60.6218 574.614,-63.4629 574.158,-56.4777"/>
</g>
<!-- Node42 -->
<g id="node17" class="node"><title>Node42</title>
<g id="a_node17"><a xlink:href="../../da/d01/namespacemom.html#a6cfc2cd88d60f051fe90e68c2f16b46b" target="_top" xlink:title="This s/r calls unit tests for other modules. These are NOT normally invoked and so we provide the mod...">
<polygon fill="white" stroke="black" points="938.5,-68 938.5,-87 1006.5,-87 1006.5,-68 938.5,-68"/>
<text text-anchor="middle" x="972.5" y="-75" font-family="Helvetica,sans-Serif" font-size="10.00">mom::unittests</text>
</a>
</g>
</g>
<!-- Node41&#45;&gt;Node42 -->
<g id="edge16" class="edge"><title>Node41&#45;&gt;Node42</title>
<path fill="none" stroke="midnightblue" d="M759.185,-60.2853C818.641,-65.106 895.289,-71.3207 938.339,-74.8112"/>
<polygon fill="midnightblue" stroke="midnightblue" points="759.299,-56.7831 749.049,-59.4634 758.733,-63.7602 759.299,-56.7831"/>
</g>
<!-- Node42&#45;&gt;Node36 -->
<g id="edge17" class="edge"><title>Node42&#45;&gt;Node36</title>
<path fill="none" stroke="midnightblue" d="M1016.73,-86.8831C1030.23,-89.8145 1045.14,-93.05 1058.69,-95.99"/>
<polygon fill="midnightblue" stroke="midnightblue" points="1017.24,-83.4116 1006.72,-84.7107 1015.75,-90.2523 1017.24,-83.4116"/>
</g>
<!-- Node43&#45;&gt;Node28 -->
<g id="edge19" class="edge"><title>Node43&#45;&gt;Node28</title>
<path fill="none" stroke="midnightblue" d="M242.386,-103.518C257.834,-101.066 274.131,-98.4792 288.765,-96.1564"/>
<polygon fill="midnightblue" stroke="midnightblue" points="241.711,-100.081 232.383,-105.106 242.808,-106.995 241.711,-100.081"/>
</g>
<!-- Node44&#45;&gt;Node28 -->
<g id="edge21" class="edge"><title>Node44&#45;&gt;Node28</title>
<path fill="none" stroke="midnightblue" d="M221.734,-34.7721C225.209,-36.3682 228.665,-37.9596 232,-39.5 256.472,-50.8034 284.093,-63.6989 304.862,-73.4228"/>
<polygon fill="midnightblue" stroke="midnightblue" points="223.114,-31.5544 212.565,-30.5676 220.196,-37.9173 223.114,-31.5544"/>
</g>
<!-- Node45 -->
<g id="node20" class="node"><title>Node45</title>
<g id="a_node20"><a xlink:href="../../d7/d73/namespacemom__ale.html#aea1b73dedf1ae5f3db9fa0a6aa6ebaa0" target="_top" xlink:title="Use ppm reconstruction for pressure gradient (determine edge values) By using a PPM (limited piecewis...">
<polygon fill="white" stroke="black" points="268,-6 268,-25 408,-25 408,-6 268,-6"/>
<text text-anchor="middle" x="338" y="-13" font-family="Helvetica,sans-Serif" font-size="10.00">mom_ale::pressure_gradient_ppm</text>
</a>
</g>
</g>
<!-- Node44&#45;&gt;Node45 -->
<g id="edge22" class="edge"><title>Node44&#45;&gt;Node45</title>
<path fill="none" stroke="midnightblue" d="M242.401,-15.5C250.736,-15.5 259.318,-15.5 267.753,-15.5"/>
<polygon fill="midnightblue" stroke="midnightblue" points="242.383,-12.0001 232.383,-15.5 242.383,-19.0001 242.383,-12.0001"/>
</g>
<!-- Node46&#45;&gt;Node28 -->
<g id="edge24" class="edge"><title>Node46&#45;&gt;Node28</title>
<path fill="none" stroke="midnightblue" d="M242.386,-74.0826C257.834,-76.4365 274.131,-78.9199 288.765,-81.1499"/>
<polygon fill="midnightblue" stroke="midnightblue" points="242.797,-70.6049 232.383,-72.5584 241.742,-77.525 242.797,-70.6049"/>
</g>
</g>
</svg>
