<?xml version="1.0" encoding="UTF-8" standalone="no"?>
<!DOCTYPE svg PUBLIC "-//W3C//DTD SVG 1.1//EN"
 "http://www.w3.org/Graphics/SVG/1.1/DTD/svg11.dtd">
<!-- Generated by graphviz version 2.38.0 (20140413.2041)
 -->
<!-- Title: regrid_solvers::solve_linear_system Pages: 1 -->
<!--zoomable 293 -->
<svg id="main" version="1.1" xmlns="http://www.w3.org/2000/svg" xmlns:xlink="http://www.w3.org/1999/xlink" xml:space="preserve" onload="init(evt)">
<style type="text/css"><![CDATA[
.edge:hover path { stroke: red; }
.edge:hover polygon { stroke: red; fill: red; }
]]></style>
<script type="text/javascript"><![CDATA[
var edges = document.getElementsByTagName('g');
if (edges && edges.length) {
  for (var i=0;i<edges.length;i++) {
    if (edges[i].id.substr(0,4)=='edge') {
      edges[i].setAttribute('class','edge');
    }
  }
}
]]></script>
        <defs>
                <circle id="rim" cx="0" cy="0" r="7"/>
                <circle id="rim2" cx="0" cy="0" r="3.5"/>
                <g id="zoomPlus">
                        <use xlink:href="#rim" fill="#404040">
                                <set attributeName="fill" to="#808080" begin="zoomplus.mouseover" end="zoomplus.mouseout"/>
                        </use>
                        <path d="M-4,0h8M0,-4v8" fill="none" stroke="white" stroke-width="1.5" pointer-events="none"/>
                </g>
                <g id="zoomMin">
                        <use xlink:href="#rim" fill="#404040">
                                <set attributeName="fill" to="#808080" begin="zoomminus.mouseover" end="zoomminus.mouseout"/>
                        </use>
                        <path d="M-4,0h8" fill="none" stroke="white" stroke-width="1.5" pointer-events="none"/>
                </g>
                <g id="dirArrow">
                        <path fill="none" stroke="white" stroke-width="1.5" d="M0,-3.0v7 M-2.5,-0.5L0,-3.0L2.5,-0.5"/>
                </g>
               <g id="resetDef">
                       <use xlink:href="#rim2" fill="#404040">
                               <set attributeName="fill" to="#808080" begin="reset.mouseover" end="reset.mouseout"/>
                       </use>
               </g>
        </defs>

<script type="text/javascript">
var viewWidth = 1248;
var viewHeight = 293;
var sectionId = 'dynsection-1';
</script>
<script xlink:href="../../svgpan.js"/>
<svg id="graph" class="graph">
<g id="viewport">
<title>regrid_solvers::solve_linear_system</title>
<polygon fill="white" stroke="none" points="-4,4 -4,-289 1244,-289 1244,4 -4,4"/>
<!-- Node3 -->
<g id="node1" class="node"><title>Node3</title>
<polygon fill="#bfbfbf" stroke="black" points="0,-98.5 0,-128.5 89,-128.5 89,-98.5 0,-98.5"/>
<text text-anchor="start" x="8" y="-116.5" font-family="Helvetica,sans-Serif" font-size="10.00">regrid_solvers::solve</text>
<text text-anchor="middle" x="44.5" y="-105.5" font-family="Helvetica,sans-Serif" font-size="10.00">_linear_system</text>
</g>
<!-- Node4 -->
<g id="node2" class="node"><title>Node4</title>
<g id="a_node2"><a xlink:href="../../da/d9a/namespaceregrid__edge__slopes.html#a378dcb603968664e58d65e8ed892ec69" target="_top" xlink:title="regrid_edge_slopes\l::edge_slopes_implicit_h3">
<polygon fill="white" stroke="black" points="125,-196.5 125,-226.5 232,-226.5 232,-196.5 125,-196.5"/>
<text text-anchor="start" x="133" y="-214.5" font-family="Helvetica,sans-Serif" font-size="10.00">regrid_edge_slopes</text>
<text text-anchor="middle" x="178.5" y="-203.5" font-family="Helvetica,sans-Serif" font-size="10.00">::edge_slopes_implicit_h3</text>
</a>
</g>
</g>
<!-- Node3&#45;&gt;Node4 -->
<g id="edge1" class="edge"><title>Node3&#45;&gt;Node4</title>
<path fill="none" stroke="midnightblue" d="M66.6736,-136.242C81.888,-151.718 103.44,-171.951 125,-186.5 130.272,-190.058 136.129,-193.378 141.963,-196.363"/>
<polygon fill="midnightblue" stroke="midnightblue" points="68.7936,-133.399 59.3287,-128.638 63.7588,-138.263 68.7936,-133.399"/>
</g>
<!-- Node20 -->
<g id="node18" class="node"><title>Node20</title>
<g id="a_node18"><a xlink:href="../../da/d9a/namespaceregrid__edge__slopes.html#a32fc906bf14cfb859703b4a1a7c46a9c" target="_top" xlink:title="regrid_edge_slopes\l::edge_slopes_implicit_h5">
<polygon fill="white" stroke="black" points="125,-147.5 125,-177.5 232,-177.5 232,-147.5 125,-147.5"/>
<text text-anchor="start" x="133" y="-165.5" font-family="Helvetica,sans-Serif" font-size="10.00">regrid_edge_slopes</text>
<text text-anchor="middle" x="178.5" y="-154.5" font-family="Helvetica,sans-Serif" font-size="10.00">::edge_slopes_implicit_h5</text>
</a>
</g>
</g>
<!-- Node3&#45;&gt;Node20 -->
<g id="edge18" class="edge"><title>Node3&#45;&gt;Node20</title>
<path fill="none" stroke="midnightblue" d="M95.8259,-132.182C109.345,-137.2 123.796,-142.564 136.726,-147.364"/>
<polygon fill="midnightblue" stroke="midnightblue" points="96.7744,-128.8 86.1814,-128.601 94.3383,-135.363 96.7744,-128.8"/>
</g>
<!-- Node21 -->
<g id="node19" class="node"><title>Node21</title>
<g id="a_node19"><a xlink:href="../../df/d50/namespaceregrid__edge__values.html#ae035eeac02b037af753339993eeb2a00" target="_top" xlink:title="regrid_edge_values\l::edge_values_explicit_h4">
<polygon fill="white" stroke="black" points="125,-98.5 125,-128.5 232,-128.5 232,-98.5 125,-98.5"/>
<text text-anchor="start" x="133" y="-116.5" font-family="Helvetica,sans-Serif" font-size="10.00">regrid_edge_values</text>
<text text-anchor="middle" x="178.5" y="-105.5" font-family="Helvetica,sans-Serif" font-size="10.00">::edge_values_explicit_h4</text>
</a>
</g>
</g>
<!-- Node3&#45;&gt;Node21 -->
<g id="edge20" class="edge"><title>Node3&#45;&gt;Node21</title>
<path fill="none" stroke="midnightblue" d="M99.2016,-113.5C107.638,-113.5 116.353,-113.5 124.767,-113.5"/>
<polygon fill="midnightblue" stroke="midnightblue" points="99.0876,-110 89.0876,-113.5 99.0875,-117 99.0876,-110"/>
</g>
<!-- Node22 -->
<g id="node20" class="node"><title>Node22</title>
<g id="a_node20"><a xlink:href="../../df/d50/namespaceregrid__edge__values.html#a2c2460b31b6de501eed3cb7db07a4be5" target="_top" xlink:title="regrid_edge_values\l::edge_values_implicit_h4">
<polygon fill="white" stroke="black" points="125,-0.5 125,-30.5 232,-30.5 232,-0.5 125,-0.5"/>
<text text-anchor="start" x="133" y="-18.5" font-family="Helvetica,sans-Serif" font-size="10.00">regrid_edge_values</text>
<text text-anchor="middle" x="178.5" y="-7.5" font-family="Helvetica,sans-Serif" font-size="10.00">::edge_values_implicit_h4</text>
</a>
</g>
</g>
<!-- Node3&#45;&gt;Node22 -->
<g id="edge21" class="edge"><title>Node3&#45;&gt;Node22</title>
<path fill="none" stroke="midnightblue" d="M65.8536,-91.0402C81.0429,-75.2034 102.905,-54.2673 125,-39.5 129.833,-36.27 135.17,-33.2717 140.536,-30.5659"/>
<polygon fill="midnightblue" stroke="midnightblue" points="63.2713,-88.6771 58.9613,-98.3557 68.3662,-93.4773 63.2713,-88.6771"/>
</g>
<!-- Node24 -->
<g id="node22" class="node"><title>Node24</title>
<g id="a_node22"><a xlink:href="../../df/d50/namespaceregrid__edge__values.html#a6c14843c556353d86f2efb4c7c74c9f5" target="_top" xlink:title="regrid_edge_values\l::edge_values_implicit_h6">
<polygon fill="white" stroke="black" points="125,-49.5 125,-79.5 232,-79.5 232,-49.5 125,-49.5"/>
<text text-anchor="start" x="133" y="-67.5" font-family="Helvetica,sans-Serif" font-size="10.00">regrid_edge_values</text>
<text text-anchor="middle" x="178.5" y="-56.5" font-family="Helvetica,sans-Serif" font-size="10.00">::edge_values_implicit_h6</text>
</a>
</g>
</g>
<!-- Node3&#45;&gt;Node24 -->
<g id="edge24" class="edge"><title>Node3&#45;&gt;Node24</title>
<path fill="none" stroke="midnightblue" d="M95.8259,-94.8184C109.345,-89.7999 123.796,-84.4357 136.726,-79.6359"/>
<polygon fill="midnightblue" stroke="midnightblue" points="94.3383,-91.6372 86.1814,-98.3986 96.7744,-98.1996 94.3383,-91.6372"/>
</g>
<!-- Node5 -->
<g id="node3" class="node"><title>Node5</title>
<g id="a_node3"><a xlink:href="../../d6/d75/namespacemom__remapping.html#a07d7276310f329f56560a1290bcb8b0a" target="_top" xlink:title="Creates polynomial reconstructions of u0 on the source grid h0. ">
<polygon fill="white" stroke="black" points="289,-98.5 289,-128.5 387,-128.5 387,-98.5 289,-98.5"/>
<text text-anchor="start" x="297" y="-116.5" font-family="Helvetica,sans-Serif" font-size="10.00">mom_remapping::build</text>
<text text-anchor="middle" x="338" y="-105.5" font-family="Helvetica,sans-Serif" font-size="10.00">_reconstructions_1d</text>
</a>
</g>
</g>
<!-- Node4&#45;&gt;Node5 -->
<g id="edge2" class="edge"><title>Node4&#45;&gt;Node5</title>
<path fill="none" stroke="midnightblue" d="M222.179,-191.905C225.537,-190.143 228.846,-188.331 232,-186.5 262.914,-168.554 296.474,-144.308 317.124,-128.783"/>
<polygon fill="midnightblue" stroke="midnightblue" points="220.587,-188.788 213.25,-196.431 223.752,-195.032 220.587,-188.788"/>
</g>
<!-- Node6 -->
<g id="node4" class="node"><title>Node6</title>
<g id="a_node4"><a xlink:href="../../d6/d75/namespacemom__remapping.html#a6d1533ffa647f3305aba055e2685b095" target="_top" xlink:title="Remaps column of values u0 on grid h0 to grid h1 assuming the top edge is aligned. ">
<polygon fill="white" stroke="black" points="444,-145.5 444,-175.5 564,-175.5 564,-145.5 444,-145.5"/>
<text text-anchor="start" x="452" y="-163.5" font-family="Helvetica,sans-Serif" font-size="10.00">mom_remapping::remapping</text>
<text text-anchor="middle" x="504" y="-152.5" font-family="Helvetica,sans-Serif" font-size="10.00">_core_h</text>
</a>
</g>
</g>
<!-- Node5&#45;&gt;Node6 -->
<g id="edge3" class="edge"><title>Node5&#45;&gt;Node6</title>
<path fill="none" stroke="midnightblue" d="M397.315,-130.212C414.641,-135.178 433.51,-140.585 450.447,-145.439"/>
<polygon fill="midnightblue" stroke="midnightblue" points="397.896,-126.738 387.318,-127.347 395.967,-133.467 397.896,-126.738"/>
</g>
<!-- Node17 -->
<g id="node15" class="node"><title>Node17</title>
<g id="a_node15"><a xlink:href="../../d6/d75/namespacemom__remapping.html#a8b967872b8db2ac7d538991f7f255e56" target="_top" xlink:title="Remaps column of values u0 on grid h0 to implied grid h1 where the interfaces of h1 differ from those...">
<polygon fill="white" stroke="black" points="444,-74.5 444,-104.5 564,-104.5 564,-74.5 444,-74.5"/>
<text text-anchor="start" x="452" y="-92.5" font-family="Helvetica,sans-Serif" font-size="10.00">mom_remapping::remapping</text>
<text text-anchor="middle" x="504" y="-81.5" font-family="Helvetica,sans-Serif" font-size="10.00">_core_w</text>
</a>
</g>
</g>
<!-- Node5&#45;&gt;Node17 -->
<g id="edge14" class="edge"><title>Node5&#45;&gt;Node17</title>
<path fill="none" stroke="midnightblue" d="M397.551,-104.932C412.639,-102.724 428.884,-100.346 443.995,-98.1349"/>
<polygon fill="midnightblue" stroke="midnightblue" points="396.706,-101.518 387.318,-106.429 397.72,-108.444 396.706,-101.518"/>
</g>
<!-- Node7 -->
<g id="node5" class="node"><title>Node7</title>
<g id="a_node5"><a xlink:href="../../de/dd7/namespacemom__ale__sponge.html#a8f6e6db99f860b048a58e97e58c101a6" target="_top" xlink:title="This subroutine applies damping to the layers thicknesses, temp, salt and a variety of tracers for ev...">
<polygon fill="white" stroke="black" points="622.5,-229.5 622.5,-259.5 726.5,-259.5 726.5,-229.5 622.5,-229.5"/>
<text text-anchor="start" x="630.5" y="-247.5" font-family="Helvetica,sans-Serif" font-size="10.00">mom_ale_sponge::apply</text>
<text text-anchor="middle" x="674.5" y="-236.5" font-family="Helvetica,sans-Serif" font-size="10.00">_ale_sponge</text>
</a>
</g>
</g>
<!-- Node6&#45;&gt;Node7 -->
<g id="edge4" class="edge"><title>Node6&#45;&gt;Node7</title>
<path fill="none" stroke="midnightblue" d="M544.132,-180.008C574.381,-195.087 615.636,-215.654 643.353,-229.471"/>
<polygon fill="midnightblue" stroke="midnightblue" points="545.636,-176.847 535.124,-175.518 542.512,-183.111 545.636,-176.847"/>
</g>
<!-- Node9 -->
<g id="node7" class="node"><title>Node9</title>
<g id="a_node7"><a xlink:href="../../d6/d62/namespacemom__state__initialization.html#a71ee3c056ca59c1c3529a4ec22e09fe3" target="_top" xlink:title="Adjust the layer thicknesses by cutting away the top at the depth where the hydrostatic pressure matc...">
<polygon fill="white" stroke="black" points="624,-156.5 624,-186.5 725,-186.5 725,-156.5 624,-156.5"/>
<text text-anchor="start" x="632" y="-174.5" font-family="Helvetica,sans-Serif" font-size="10.00">mom_state_initialization</text>
<text text-anchor="middle" x="674.5" y="-163.5" font-family="Helvetica,sans-Serif" font-size="10.00">::cut_off_column_top</text>
</a>
</g>
</g>
<!-- Node6&#45;&gt;Node9 -->
<g id="edge6" class="edge"><title>Node6&#45;&gt;Node9</title>
<path fill="none" stroke="midnightblue" d="M574.57,-165.042C591.092,-166.12 608.391,-167.25 623.819,-168.257"/>
<polygon fill="midnightblue" stroke="midnightblue" points="574.614,-161.537 564.407,-164.378 574.158,-168.522 574.614,-161.537"/>
</g>
<!-- Node15 -->
<g id="node13" class="node"><title>Node15</title>
<g id="a_node13"><a xlink:href="../../d9/d06/namespacemom__diag__mediator.html#ab5e628e0b8acd96234fab33d0fae2161" target="_top" xlink:title="Remap diagnostic field to z&#45;star vertical grid. ">
<polygon fill="white" stroke="black" points="627,-107.5 627,-137.5 722,-137.5 722,-107.5 627,-107.5"/>
<text text-anchor="start" x="635" y="-125.5" font-family="Helvetica,sans-Serif" font-size="10.00">mom_diag_mediator::</text>
<text text-anchor="middle" x="674.5" y="-114.5" font-family="Helvetica,sans-Serif" font-size="10.00">remap_diag_to_z</text>
</a>
</g>
</g>
<!-- Node6&#45;&gt;Node15 -->
<g id="edge12" class="edge"><title>Node6&#45;&gt;Node15</title>
<path fill="none" stroke="midnightblue" d="M574.629,-144.797C592.204,-140.834 610.655,-136.673 626.794,-133.033"/>
<polygon fill="midnightblue" stroke="midnightblue" points="573.392,-141.488 564.407,-147.103 574.932,-148.317 573.392,-141.488"/>
</g>
<!-- Node8 -->
<g id="node6" class="node"><title>Node8</title>
<g id="a_node6"><a xlink:href="../../d8/df3/namespacemom__diabatic__driver.html#a61e57d3902367aa46aa3c2d949ee900f" target="_top" xlink:title="This subroutine imposes the diapycnal mass fluxes and the accompanying diapycnal advection of momentu...">
<polygon fill="white" stroke="black" points="790,-254.5 790,-284.5 881,-284.5 881,-254.5 790,-254.5"/>
<text text-anchor="start" x="798" y="-272.5" font-family="Helvetica,sans-Serif" font-size="10.00">mom_diabatic_driver</text>
<text text-anchor="middle" x="835.5" y="-261.5" font-family="Helvetica,sans-Serif" font-size="10.00">::diabatic</text>
</a>
</g>
</g>
<!-- Node7&#45;&gt;Node8 -->
<g id="edge5" class="edge"><title>Node7&#45;&gt;Node8</title>
<path fill="none" stroke="midnightblue" d="M736.894,-254.153C754.529,-256.926 773.42,-259.896 789.839,-262.478"/>
<polygon fill="midnightblue" stroke="midnightblue" points="737.106,-250.644 726.684,-252.548 736.019,-257.559 737.106,-250.644"/>
</g>
<!-- Node10 -->
<g id="node8" class="node"><title>Node10</title>
<g id="a_node8"><a xlink:href="../../d6/d62/namespacemom__state__initialization.html#a5c77bf2b0ea9d28e28b661a2a42d3f88" target="_top" xlink:title="Run simple unit tests. ">
<polygon fill="white" stroke="black" points="785,-205.5 785,-235.5 886,-235.5 886,-205.5 785,-205.5"/>
<text text-anchor="start" x="793" y="-223.5" font-family="Helvetica,sans-Serif" font-size="10.00">mom_state_initialization</text>
<text text-anchor="middle" x="835.5" y="-212.5" font-family="Helvetica,sans-Serif" font-size="10.00">::mom_state_init_tests</text>
</a>
</g>
</g>
<!-- Node9&#45;&gt;Node10 -->
<g id="edge7" class="edge"><title>Node9&#45;&gt;Node10</title>
<path fill="none" stroke="midnightblue" d="M734.275,-189.613C751.178,-194.822 769.426,-200.446 785.659,-205.448"/>
<polygon fill="midnightblue" stroke="midnightblue" points="735.09,-186.202 724.503,-186.601 733.028,-192.891 735.09,-186.202"/>
</g>
<!-- Node11 -->
<g id="node9" class="node"><title>Node11</title>
<g id="a_node9"><a xlink:href="../../d6/d62/namespacemom__state__initialization.html#acc1029776c1bdda2862ed0f95c8dc640" target="_top" xlink:title="Adjust the layer thicknesses by cutting away the top of each model column at the depth where the hydr...">
<polygon fill="white" stroke="black" points="785,-156.5 785,-186.5 886,-186.5 886,-156.5 785,-156.5"/>
<text text-anchor="start" x="793" y="-174.5" font-family="Helvetica,sans-Serif" font-size="10.00">mom_state_initialization</text>
<text text-anchor="middle" x="835.5" y="-163.5" font-family="Helvetica,sans-Serif" font-size="10.00">::trim_for_ice</text>
</a>
</g>
</g>
<!-- Node9&#45;&gt;Node11 -->
<g id="edge8" class="edge"><title>Node9&#45;&gt;Node11</title>
<path fill="none" stroke="midnightblue" d="M735.807,-171.5C751.979,-171.5 769.279,-171.5 784.805,-171.5"/>
<polygon fill="midnightblue" stroke="midnightblue" points="735.372,-168 725.372,-171.5 735.372,-175 735.372,-168"/>
</g>
<!-- Node12 -->
<g id="node10" class="node"><title>Node12</title>
<g id="a_node10"><a xlink:href="../../d6/d62/namespacemom__state__initialization.html#af4e854627c6572332ba3fd895f169321" target="_top" xlink:title="mom_state_initialization\l::mom_initialize_state">
<polygon fill="white" stroke="black" points="922,-143.5 922,-173.5 1023,-173.5 1023,-143.5 922,-143.5"/>
<text text-anchor="start" x="930" y="-161.5" font-family="Helvetica,sans-Serif" font-size="10.00">mom_state_initialization</text>
<text text-anchor="middle" x="972.5" y="-150.5" font-family="Helvetica,sans-Serif" font-size="10.00">::mom_initialize_state</text>
</a>
</g>
</g>
<!-- Node11&#45;&gt;Node12 -->
<g id="edge9" class="edge"><title>Node11&#45;&gt;Node12</title>
<path fill="none" stroke="midnightblue" d="M896.207,-165.75C904.67,-164.935 913.299,-164.105 921.552,-163.31"/>
<polygon fill="midnightblue" stroke="midnightblue" points="895.621,-162.291 886.002,-166.733 896.292,-169.258 895.621,-162.291"/>
</g>
<!-- Node13 -->
<g id="node11" class="node"><title>Node13</title>
<g id="a_node11"><a xlink:href="../../da/d01/namespacemom.html#afebdc0103ad9cbe0ed4a54e522dc4104" target="_top" xlink:title="This subroutine initializes MOM. ">
<polygon fill="white" stroke="black" points="1059,-121 1059,-140 1148,-140 1148,-121 1059,-121"/>
<text text-anchor="middle" x="1103.5" y="-128" font-family="Helvetica,sans-Serif" font-size="10.00">mom::initialize_mom</text>
</a>
</g>
</g>
<!-- Node12&#45;&gt;Node13 -->
<g id="edge10" class="edge"><title>Node12&#45;&gt;Node13</title>
<path fill="none" stroke="midnightblue" d="M1032.81,-145.628C1041.56,-143.726 1050.45,-141.797 1058.82,-139.982"/>
<polygon fill="midnightblue" stroke="midnightblue" points="1032.04,-142.213 1023.01,-147.755 1033.52,-149.054 1032.04,-142.213"/>
</g>
<!-- Node14 -->
<g id="node12" class="node"><title>Node14</title>
<g id="a_node12"><a xlink:href="../../de/dbc/MOM__driver_8F90.html#a08fffeb2d8e8acbf9ed4609be6d258c6" target="_top" xlink:title="mom_main">
<polygon fill="white" stroke="black" points="1184,-121 1184,-140 1240,-140 1240,-121 1184,-121"/>
<text text-anchor="middle" x="1212" y="-128" font-family="Helvetica,sans-Serif" font-size="10.00">mom_main</text>
</a>
</g>
</g>
<!-- Node13&#45;&gt;Node14 -->
<g id="edge11" class="edge"><title>Node13&#45;&gt;Node14</title>
<path fill="none" stroke="midnightblue" d="M1158.41,-130.5C1167.21,-130.5 1175.98,-130.5 1183.77,-130.5"/>
<polygon fill="midnightblue" stroke="midnightblue" points="1158.12,-127 1148.12,-130.5 1158.12,-134 1158.12,-127"/>
</g>
<!-- Node16 -->
<g id="node14" class="node"><title>Node16</title>
<g id="a_node14"><a xlink:href="../../d9/d06/namespacemom__diag__mediator.html#adb1030a0216c52dd0d25bd67a5b31868" target="_top" xlink:title="mom_diag_mediator::\lpost_data_3d">
<polygon fill="white" stroke="black" points="788,-107.5 788,-137.5 883,-137.5 883,-107.5 788,-107.5"/>
<text text-anchor="start" x="796" y="-125.5" font-family="Helvetica,sans-Serif" font-size="10.00">mom_diag_mediator::</text>
<text text-anchor="middle" x="835.5" y="-114.5" font-family="Helvetica,sans-Serif" font-size="10.00">post_data_3d</text>
</a>
</g>
</g>
<!-- Node15&#45;&gt;Node16 -->
<g id="edge13" class="edge"><title>Node15&#45;&gt;Node16</title>
<path fill="none" stroke="midnightblue" d="M732.538,-122.5C750.732,-122.5 770.635,-122.5 787.99,-122.5"/>
<polygon fill="midnightblue" stroke="midnightblue" points="732.345,-119 722.345,-122.5 732.345,-126 732.345,-119"/>
</g>
<!-- Node18 -->
<g id="node16" class="node"><title>Node18</title>
<g id="a_node16"><a xlink:href="../../d6/d75/namespacemom__remapping.html#aad5ec4e3f91e936e34113503d05deeeb" target="_top" xlink:title="Runs unit tests on remapping functions. Should only be called from a single/root thread Returns True ...">
<polygon fill="white" stroke="black" points="600,-69 600,-88 749,-88 749,-69 600,-69"/>
<text text-anchor="middle" x="674.5" y="-76" font-family="Helvetica,sans-Serif" font-size="10.00">mom_remapping::remappingunittests</text>
</a>
</g>
</g>
<!-- Node17&#45;&gt;Node18 -->
<g id="edge15" class="edge"><title>Node17&#45;&gt;Node18</title>
<path fill="none" stroke="midnightblue" d="M574.495,-84.9633C582.866,-84.4168 591.437,-83.8572 599.864,-83.3071"/>
<polygon fill="midnightblue" stroke="midnightblue" points="574.158,-81.4777 564.407,-85.6218 574.614,-88.4629 574.158,-81.4777"/>
</g>
<!-- Node19 -->
<g id="node17" class="node"><title>Node19</title>
<g id="a_node17"><a xlink:href="../../da/d01/namespacemom.html#a6cfc2cd88d60f051fe90e68c2f16b46b" target="_top" xlink:title="This s/r calls unit tests for other modules. These are NOT normally invoked and so we provide the mod...">
<polygon fill="white" stroke="black" points="938.5,-93 938.5,-112 1006.5,-112 1006.5,-93 938.5,-93"/>
<text text-anchor="middle" x="972.5" y="-100" font-family="Helvetica,sans-Serif" font-size="10.00">mom::unittests</text>
</a>
</g>
</g>
<!-- Node18&#45;&gt;Node19 -->
<g id="edge16" class="edge"><title>Node18&#45;&gt;Node19</title>
<path fill="none" stroke="midnightblue" d="M759.185,-85.2853C818.641,-90.106 895.289,-96.3207 938.339,-99.8112"/>
<polygon fill="midnightblue" stroke="midnightblue" points="759.299,-81.7831 749.049,-84.4634 758.733,-88.7602 759.299,-81.7831"/>
</g>
<!-- Node19&#45;&gt;Node13 -->
<g id="edge17" class="edge"><title>Node19&#45;&gt;Node13</title>
<path fill="none" stroke="midnightblue" d="M1016.73,-111.883C1030.23,-114.814 1045.14,-118.05 1058.69,-120.99"/>
<polygon fill="midnightblue" stroke="midnightblue" points="1017.24,-108.412 1006.72,-109.711 1015.75,-115.252 1017.24,-108.412"/>
</g>
<!-- Node20&#45;&gt;Node5 -->
<g id="edge19" class="edge"><title>Node20&#45;&gt;Node5</title>
<path fill="none" stroke="midnightblue" d="M237.766,-144.373C254.592,-139.138 272.758,-133.487 288.891,-128.467"/>
<polygon fill="midnightblue" stroke="midnightblue" points="236.549,-141.086 228.04,-147.399 238.629,-147.77 236.549,-141.086"/>
</g>
<!-- Node22&#45;&gt;Node5 -->
<g id="edge22" class="edge"><title>Node22&#45;&gt;Node5</title>
<path fill="none" stroke="midnightblue" d="M224.17,-35.2225C226.846,-36.6188 229.474,-38.0494 232,-39.5 263.522,-57.6047 297.471,-82.6546 317.977,-98.4656"/>
<polygon fill="midnightblue" stroke="midnightblue" points="225.481,-31.9651 214.971,-30.6272 222.352,-38.2272 225.481,-31.9651"/>
</g>
<!-- Node23 -->
<g id="node21" class="node"><title>Node23</title>
<g id="a_node21"><a xlink:href="../../d7/d73/namespacemom__ale.html#aea1b73dedf1ae5f3db9fa0a6aa6ebaa0" target="_top" xlink:title="Use ppm reconstruction for pressure gradient (determine edge values) By using a PPM (limited piecewis...">
<polygon fill="white" stroke="black" points="268,-6 268,-25 408,-25 408,-6 268,-6"/>
<text text-anchor="middle" x="338" y="-13" font-family="Helvetica,sans-Serif" font-size="10.00">mom_ale::pressure_gradient_ppm</text>
</a>
</g>
</g>
<!-- Node22&#45;&gt;Node23 -->
<g id="edge23" class="edge"><title>Node22&#45;&gt;Node23</title>
<path fill="none" stroke="midnightblue" d="M242.401,-15.5C250.736,-15.5 259.318,-15.5 267.753,-15.5"/>
<polygon fill="midnightblue" stroke="midnightblue" points="242.383,-12.0001 232.383,-15.5 242.383,-19.0001 242.383,-12.0001"/>
</g>
<!-- Node24&#45;&gt;Node5 -->
<g id="edge25" class="edge"><title>Node24&#45;&gt;Node5</title>
<path fill="none" stroke="midnightblue" d="M237.766,-82.6273C254.592,-87.8618 272.758,-93.5134 288.891,-98.5327"/>
<polygon fill="midnightblue" stroke="midnightblue" points="238.629,-79.2302 228.04,-79.6014 236.549,-85.9142 238.629,-79.2302"/>
</g>
</g>
</svg>
        <g id="navigator" transform="translate(0 0)" fill="#404254">
                <rect fill="#f2f5e9" fill-opacity="0.5" stroke="#606060" stroke-width=".5" x="0" y="0" width="60" height="60"/>
                <use id="zoomplus" xlink:href="#zoomPlus" x="17" y="9" onmousedown="handleZoom(evt,'in')"/>
                <use id="zoomminus" xlink:href="#zoomMin" x="42" y="9" onmousedown="handleZoom(evt,'out')"/>
                <use id="reset" xlink:href="#resetDef" x="30" y="36" onmousedown="handleReset()"/>
                <g id="arrowUp" xlink:href="#dirArrow" transform="translate(30 24)" onmousedown="handlePan(0,-1)">
                  <use xlink:href="#rim" fill="#404040">
                        <set attributeName="fill" to="#808080" begin="arrowUp.mouseover" end="arrowUp.mouseout"/>
                  </use>
                  <path fill="none" stroke="white" stroke-width="1.5" d="M0,-3.0v7 M-2.5,-0.5L0,-3.0L2.5,-0.5"/>
                </g>
                <g id="arrowRight" xlink:href="#dirArrow" transform="rotate(90) translate(36 -43)" onmousedown="handlePan(1,0)">
                  <use xlink:href="#rim" fill="#404040">
                        <set attributeName="fill" to="#808080" begin="arrowRight.mouseover" end="arrowRight.mouseout"/>
                  </use>
                  <path fill="none" stroke="white" stroke-width="1.5" d="M0,-3.0v7 M-2.5,-0.5L0,-3.0L2.5,-0.5"/>
                </g>
                <g id="arrowDown" xlink:href="#dirArrow" transform="rotate(180) translate(-30 -48)" onmousedown="handlePan(0,1)">
                  <use xlink:href="#rim" fill="#404040">
                        <set attributeName="fill" to="#808080" begin="arrowDown.mouseover" end="arrowDown.mouseout"/>
                  </use>
                  <path fill="none" stroke="white" stroke-width="1.5" d="M0,-3.0v7 M-2.5,-0.5L0,-3.0L2.5,-0.5"/>
                </g>
                <g id="arrowLeft" xlink:href="#dirArrow" transform="rotate(270) translate(-36 17)" onmousedown="handlePan(-1,0)">
                  <use xlink:href="#rim" fill="#404040">
                        <set attributeName="fill" to="#808080" begin="arrowLeft.mouseover" end="arrowLeft.mouseout"/>
                  </use>
                  <path fill="none" stroke="white" stroke-width="1.5" d="M0,-3.0v7 M-2.5,-0.5L0,-3.0L2.5,-0.5"/>
                </g>
        </g>
        <svg viewBox="0 0 15 15" width="100%" height="30px" preserveAspectRatio="xMaxYMin meet">
         <g id="arrow_out" transform="scale(0.3 0.3)">
          <a xlink:href="namespaceregrid__solvers_a8130a338b59de62b00f68da4204568ad_icgraph_org.svg" target="_base">
           <rect id="button" ry="5" rx="5" y="6" x="6" height="38" width="38"
                fill="#f2f5e9" fill-opacity="0.5" stroke="#606060" stroke-width="1.0"/>
           <path id="arrow"
             d="M 11.500037,31.436501 C 11.940474,20.09759 22.043105,11.32322 32.158766,21.979434 L 37.068811,17.246167 C 37.068811,17.246167 37.088388,32 37.088388,32 L 22.160133,31.978069 C 22.160133,31.978069 26.997745,27.140456 26.997745,27.140456 C 18.528582,18.264221 13.291696,25.230495 11.500037,31.436501 z"
             style="fill:#404040;"/>
          </a>
         </g>
        </svg>
</svg>
