<?xml version="1.0" encoding="UTF-8" standalone="no"?>
<!DOCTYPE svg PUBLIC "-//W3C//DTD SVG 1.1//EN"
 "http://www.w3.org/Graphics/SVG/1.1/DTD/svg11.dtd">
<!-- Generated by graphviz version 2.38.0 (20140413.2041)
 -->
<!-- Title: mom_kpp::kpp_init Pages: 1 -->
<svg width="1070pt" height="896pt"
 viewBox="0.00 0.00 1070.00 896.47" xmlns="http://www.w3.org/2000/svg" xmlns:xlink="http://www.w3.org/1999/xlink">
<g id="graph0" class="graph" transform="scale(1 1) rotate(0) translate(4 892.469)">
<title>mom_kpp::kpp_init</title>
<polygon fill="white" stroke="none" points="-4,4 -4,-892.469 1066,-892.469 1066,4 -4,4"/>
<!-- Node5 -->
<g id="node1" class="node"><title>Node5</title>
<polygon fill="#bfbfbf" stroke="black" points="0,-624.578 0,-643.578 83,-643.578 83,-624.578 0,-624.578"/>
<text text-anchor="middle" x="41.5" y="-631.578" font-family="Helvetica,sans-Serif" font-size="10.00">mom_kpp::kpp_init</text>
</g>
<!-- Node6 -->
<g id="node2" class="node"><title>Node6</title>
<g id="a_node2"><a xlink:href="../../d9/def/namespacemom__file__parser.html#a0d01b9a66f5ac12b657c00f1295351bb" target="_top" xlink:title="mom_file_parser::closeparameterblock">
<polygon fill="white" stroke="black" points="119,-792.578 119,-811.578 274,-811.578 274,-792.578 119,-792.578"/>
<text text-anchor="middle" x="196.5" y="-799.578" font-family="Helvetica,sans-Serif" font-size="10.00">mom_file_parser::closeparameterblock</text>
</a>
</g>
</g>
<!-- Node5&#45;&gt;Node6 -->
<g id="edge1" class="edge"><title>Node5&#45;&gt;Node6</title>
<path fill="none" stroke="midnightblue" d="M51.1643,-643.592C75.9783,-670.838 147.581,-749.461 179.645,-784.668"/>
<polygon fill="midnightblue" stroke="midnightblue" points="177.229,-787.213 186.55,-792.25 182.404,-782.5 177.229,-787.213"/>
</g>
<!-- Node11 -->
<g id="node7" class="node"><title>Node11</title>
<g id="a_node7"><a xlink:href="../../d0/de6/namespacemom__error__handler.html#a460cfb79a06c29fc249952c2a3710d67" target="_top" xlink:title="mom_error_handler::\lmom_error">
<polygon fill="white" stroke="black" points="822.5,-585.078 822.5,-615.078 915.5,-615.078 915.5,-585.078 822.5,-585.078"/>
<text text-anchor="start" x="830.5" y="-603.078" font-family="Helvetica,sans-Serif" font-size="10.00">mom_error_handler::</text>
<text text-anchor="middle" x="869" y="-592.078" font-family="Helvetica,sans-Serif" font-size="10.00">mom_error</text>
</a>
</g>
</g>
<!-- Node5&#45;&gt;Node11 -->
<g id="edge13" class="edge"><title>Node5&#45;&gt;Node11</title>
<path fill="none" stroke="midnightblue" d="M83.0558,-627.238C145.55,-617.31 269.246,-600.078 375,-600.078 375,-600.078 375,-600.078 558,-600.078 646.779,-600.078 749.859,-600.078 811.949,-600.078"/>
<polygon fill="midnightblue" stroke="midnightblue" points="812.303,-603.578 822.303,-600.078 812.303,-596.578 812.303,-603.578"/>
</g>
<!-- Node14 -->
<g id="node10" class="node"><title>Node14</title>
<g id="a_node10"><a xlink:href="../../d9/def/namespacemom__file__parser.html#a363628fcd8540de780ebeacf24012229" target="_top" xlink:title="mom_file_parser::openparameterblock">
<polygon fill="white" stroke="black" points="119,-659.578 119,-678.578 274,-678.578 274,-659.578 119,-659.578"/>
<text text-anchor="middle" x="196.5" y="-666.578" font-family="Helvetica,sans-Serif" font-size="10.00">mom_file_parser::openparameterblock</text>
</a>
</g>
</g>
<!-- Node5&#45;&gt;Node14 -->
<g id="edge14" class="edge"><title>Node5&#45;&gt;Node14</title>
<path fill="none" stroke="midnightblue" d="M83.0995,-643.365C101.806,-647.645 124.216,-652.771 144.087,-657.317"/>
<polygon fill="midnightblue" stroke="midnightblue" points="143.382,-660.746 153.911,-659.564 144.943,-653.922 143.382,-660.746"/>
</g>
<!-- Node17 -->
<g id="node13" class="node"><title>Node17</title>
<g id="a_node13"><a xlink:href="../../d9/d06/namespacemom__diag__mediator.html#a3fd333aff691a76b05dd8d5bdc315bbb" target="_top" xlink:title="mom_diag_mediator::\lregister_diag_field">
<polygon fill="white" stroke="black" points="328.5,-293.078 328.5,-323.078 423.5,-323.078 423.5,-293.078 328.5,-293.078"/>
<text text-anchor="start" x="336.5" y="-311.078" font-family="Helvetica,sans-Serif" font-size="10.00">mom_diag_mediator::</text>
<text text-anchor="middle" x="376" y="-300.078" font-family="Helvetica,sans-Serif" font-size="10.00">register_diag_field</text>
</a>
</g>
</g>
<!-- Node5&#45;&gt;Node17 -->
<g id="edge21" class="edge"><title>Node5&#45;&gt;Node17</title>
<path fill="none" stroke="midnightblue" d="M52.4511,-624.321C97.9302,-579.731 286.606,-394.744 352.314,-330.32"/>
<polygon fill="midnightblue" stroke="midnightblue" points="355.01,-332.579 359.7,-323.079 350.109,-327.58 355.01,-332.579"/>
</g>
<!-- Node7 -->
<g id="node3" class="node"><title>Node7</title>
<g id="a_node3"><a xlink:href="../../d5/d38/namespacemom__document.html#a058916aee316efa7a6484b3bb1d3f3df" target="_top" xlink:title="mom_document::doc_closeblock">
<polygon fill="white" stroke="black" points="310,-735.578 310,-754.578 442,-754.578 442,-735.578 310,-735.578"/>
<text text-anchor="middle" x="376" y="-742.578" font-family="Helvetica,sans-Serif" font-size="10.00">mom_document::doc_closeblock</text>
</a>
</g>
</g>
<!-- Node6&#45;&gt;Node7 -->
<g id="edge2" class="edge"><title>Node6&#45;&gt;Node7</title>
<path fill="none" stroke="midnightblue" d="M227.21,-792.537C256.903,-783.002 302.734,-768.284 335.483,-757.768"/>
<polygon fill="midnightblue" stroke="midnightblue" points="336.743,-761.039 345.194,-754.65 334.602,-754.375 336.743,-761.039"/>
</g>
<!-- Node8 -->
<g id="node4" class="node"><title>Node8</title>
<g id="a_node4"><a xlink:href="../../d0/de6/namespacemom__error__handler.html#ad5f00a53059c72fe2332d1436c80ca71" target="_top" xlink:title="mom_error_handler::\lis_root_pe">
<polygon fill="white" stroke="black" points="969,-749.078 969,-779.078 1062,-779.078 1062,-749.078 969,-749.078"/>
<text text-anchor="start" x="977" y="-767.078" font-family="Helvetica,sans-Serif" font-size="10.00">mom_error_handler::</text>
<text text-anchor="middle" x="1015.5" y="-756.078" font-family="Helvetica,sans-Serif" font-size="10.00">is_root_pe</text>
</a>
</g>
</g>
<!-- Node6&#45;&gt;Node8 -->
<g id="edge10" class="edge"><title>Node6&#45;&gt;Node8</title>
<path fill="none" stroke="midnightblue" d="M252.887,-811.618C323.158,-822.874 448.192,-840.078 556,-840.078 556,-840.078 556,-840.078 721.5,-840.078 816.103,-840.078 843.827,-847.667 933,-816.078 952.838,-809.05 972.795,-796.432 987.995,-785.385"/>
<polygon fill="midnightblue" stroke="midnightblue" points="990.456,-787.915 996.358,-779.117 986.257,-782.314 990.456,-787.915"/>
</g>
<!-- Node13 -->
<g id="node9" class="node"><title>Node13</title>
<g id="a_node9"><a xlink:href="../../d9/def/namespacemom__file__parser.html#a73b11b969d303b1fc0ba5235c812fd05" target="_top" xlink:title="mom_file_parser::popblocklevel">
<polygon fill="white" stroke="black" points="805,-868.578 805,-887.578 933,-887.578 933,-868.578 805,-868.578"/>
<text text-anchor="middle" x="869" y="-875.578" font-family="Helvetica,sans-Serif" font-size="10.00">mom_file_parser::popblocklevel</text>
</a>
</g>
</g>
<!-- Node6&#45;&gt;Node13 -->
<g id="edge11" class="edge"><title>Node6&#45;&gt;Node13</title>
<path fill="none" stroke="midnightblue" d="M213.171,-811.735C234.272,-824.161 273.407,-845.201 310,-854.078 479.794,-895.266 687.008,-890.363 794.847,-883.847"/>
<polygon fill="midnightblue" stroke="midnightblue" points="795.207,-887.331 804.968,-883.212 794.769,-880.345 795.207,-887.331"/>
</g>
<!-- Node7&#45;&gt;Node8 -->
<g id="edge3" class="edge"><title>Node7&#45;&gt;Node8</title>
<path fill="none" stroke="midnightblue" d="M442.228,-747.022C567.755,-750.763 840.901,-758.904 958.646,-762.413"/>
<polygon fill="midnightblue" stroke="midnightblue" points="958.774,-765.918 968.874,-762.718 958.983,-758.922 958.774,-765.918"/>
</g>
<!-- Node9 -->
<g id="node5" class="node"><title>Node9</title>
<g id="a_node5"><a xlink:href="../../d5/d38/namespacemom__document.html#aab976b6c6c9c01833438d217fca228a4" target="_top" xlink:title="mom_document::open\l_doc_file">
<polygon fill="white" stroke="black" points="508.5,-629.078 508.5,-659.078 605.5,-659.078 605.5,-629.078 508.5,-629.078"/>
<text text-anchor="start" x="516.5" y="-647.078" font-family="Helvetica,sans-Serif" font-size="10.00">mom_document::open</text>
<text text-anchor="middle" x="557" y="-636.078" font-family="Helvetica,sans-Serif" font-size="10.00">_doc_file</text>
</a>
</g>
</g>
<!-- Node7&#45;&gt;Node9 -->
<g id="edge4" class="edge"><title>Node7&#45;&gt;Node9</title>
<path fill="none" stroke="midnightblue" d="M393.84,-735.576C422.684,-719.301 482.135,-685.756 520.481,-664.119"/>
<polygon fill="midnightblue" stroke="midnightblue" points="522.281,-667.123 529.27,-659.16 518.841,-661.026 522.281,-667.123"/>
</g>
<!-- Node12 -->
<g id="node8" class="node"><title>Node12</title>
<g id="a_node8"><a xlink:href="../../d5/d38/namespacemom__document.html#a22d84550b1affd1037328c5117496a65" target="_top" xlink:title="mom_document::writemessageanddesc">
<polygon fill="white" stroke="black" points="478,-716.578 478,-735.578 636,-735.578 636,-716.578 478,-716.578"/>
<text text-anchor="middle" x="557" y="-723.578" font-family="Helvetica,sans-Serif" font-size="10.00">mom_document::writemessageanddesc</text>
</a>
</g>
</g>
<!-- Node7&#45;&gt;Node12 -->
<g id="edge9" class="edge"><title>Node7&#45;&gt;Node12</title>
<path fill="none" stroke="midnightblue" d="M442.129,-738.165C450.464,-737.28 459.103,-736.363 467.728,-735.448"/>
<polygon fill="midnightblue" stroke="midnightblue" points="468.251,-738.912 477.826,-734.376 467.512,-731.951 468.251,-738.912"/>
</g>
<!-- Node10 -->
<g id="node6" class="node"><title>Node10</title>
<g id="a_node6"><a xlink:href="../../d5/d38/namespacemom__document.html#a5f2661445a72a7d0f774677e91366db5" target="_top" xlink:title="mom_document::find\l_unused_unit_number">
<polygon fill="white" stroke="black" points="672,-629.078 672,-659.078 769,-659.078 769,-629.078 672,-629.078"/>
<text text-anchor="start" x="680" y="-647.078" font-family="Helvetica,sans-Serif" font-size="10.00">mom_document::find</text>
<text text-anchor="middle" x="720.5" y="-636.078" font-family="Helvetica,sans-Serif" font-size="10.00">_unused_unit_number</text>
</a>
</g>
</g>
<!-- Node9&#45;&gt;Node10 -->
<g id="edge5" class="edge"><title>Node9&#45;&gt;Node10</title>
<path fill="none" stroke="midnightblue" d="M605.582,-644.078C623.246,-644.078 643.472,-644.078 661.933,-644.078"/>
<polygon fill="midnightblue" stroke="midnightblue" points="661.979,-647.578 671.979,-644.078 661.979,-640.578 661.979,-647.578"/>
</g>
<!-- Node9&#45;&gt;Node11 -->
<g id="edge8" class="edge"><title>Node9&#45;&gt;Node11</title>
<path fill="none" stroke="midnightblue" d="M601.401,-659.168C644.751,-671.902 712.838,-685.508 769,-668.078 797.97,-659.087 825.984,-638.356 844.773,-622.131"/>
<polygon fill="midnightblue" stroke="midnightblue" points="847.334,-624.538 852.482,-615.277 842.683,-619.306 847.334,-624.538"/>
</g>
<!-- Node10&#45;&gt;Node11 -->
<g id="edge6" class="edge"><title>Node10&#45;&gt;Node11</title>
<path fill="none" stroke="midnightblue" d="M769.064,-629.792C782.913,-625.633 798.163,-621.053 812.457,-616.76"/>
<polygon fill="midnightblue" stroke="midnightblue" points="813.6,-620.071 822.171,-613.842 811.587,-613.367 813.6,-620.071"/>
</g>
<!-- Node11&#45;&gt;Node8 -->
<g id="edge7" class="edge"><title>Node11&#45;&gt;Node8</title>
<path fill="none" stroke="midnightblue" d="M883.335,-615.213C908.82,-644.137 964.564,-707.404 994.519,-741.4"/>
<polygon fill="midnightblue" stroke="midnightblue" points="991.96,-743.79 1001.2,-748.98 997.212,-739.163 991.96,-743.79"/>
</g>
<!-- Node13&#45;&gt;Node8 -->
<g id="edge12" class="edge"><title>Node13&#45;&gt;Node8</title>
<path fill="none" stroke="midnightblue" d="M903.818,-868.509C913.704,-864.857 924.206,-860.087 933,-854.078 959.531,-835.948 983.364,-807.497 998.305,-787.445"/>
<polygon fill="midnightblue" stroke="midnightblue" points="1001.28,-789.302 1004.33,-779.156 995.621,-785.185 1001.28,-789.302"/>
</g>
<!-- Node14&#45;&gt;Node8 -->
<g id="edge19" class="edge"><title>Node14&#45;&gt;Node8</title>
<path fill="none" stroke="midnightblue" d="M205.628,-678.866C222.679,-698.658 264.4,-743.316 310,-764.078 410.685,-809.921 445.37,-802.078 556,-802.078 556,-802.078 556,-802.078 721.5,-802.078 804.608,-802.078 899.882,-786.857 958.633,-775.681"/>
<polygon fill="midnightblue" stroke="midnightblue" points="959.655,-779.048 968.81,-773.716 958.328,-772.175 959.655,-779.048"/>
</g>
<!-- Node15 -->
<g id="node11" class="node"><title>Node15</title>
<g id="a_node11"><a xlink:href="../../d5/d38/namespacemom__document.html#ada55c6a65638e04d2b550f419aafa929" target="_top" xlink:title="mom_document::doc_openblock">
<polygon fill="white" stroke="black" points="310,-678.578 310,-697.578 442,-697.578 442,-678.578 310,-678.578"/>
<text text-anchor="middle" x="376" y="-685.578" font-family="Helvetica,sans-Serif" font-size="10.00">mom_document::doc_openblock</text>
</a>
</g>
</g>
<!-- Node14&#45;&gt;Node15 -->
<g id="edge15" class="edge"><title>Node14&#45;&gt;Node15</title>
<path fill="none" stroke="midnightblue" d="M274.064,-677.273C282.536,-678.18 291.158,-679.103 299.615,-680.009"/>
<polygon fill="midnightblue" stroke="midnightblue" points="299.512,-683.517 309.827,-681.102 300.257,-676.557 299.512,-683.517"/>
</g>
<!-- Node16 -->
<g id="node12" class="node"><title>Node16</title>
<g id="a_node12"><a xlink:href="../../d9/def/namespacemom__file__parser.html#a58777b0faf747d59a793b4e238919dc6" target="_top" xlink:title="mom_file_parser::pushblocklevel">
<polygon fill="white" stroke="black" points="310,-640.578 310,-659.578 442,-659.578 442,-640.578 310,-640.578"/>
<text text-anchor="middle" x="376" y="-647.578" font-family="Helvetica,sans-Serif" font-size="10.00">mom_file_parser::pushblocklevel</text>
</a>
</g>
</g>
<!-- Node14&#45;&gt;Node16 -->
<g id="edge20" class="edge"><title>Node14&#45;&gt;Node16</title>
<path fill="none" stroke="midnightblue" d="M274.064,-660.882C282.536,-659.975 291.158,-659.052 299.615,-658.147"/>
<polygon fill="midnightblue" stroke="midnightblue" points="300.257,-661.599 309.827,-657.054 299.512,-654.638 300.257,-661.599"/>
</g>
<!-- Node15&#45;&gt;Node8 -->
<g id="edge16" class="edge"><title>Node15&#45;&gt;Node8</title>
<path fill="none" stroke="midnightblue" d="M442.055,-691.473C494.512,-694.542 570.134,-699.713 636,-707.078 751.269,-719.966 885.303,-741.777 958.931,-754.352"/>
<polygon fill="midnightblue" stroke="midnightblue" points="958.464,-757.822 968.912,-756.063 959.647,-750.923 958.464,-757.822"/>
</g>
<!-- Node15&#45;&gt;Node9 -->
<g id="edge17" class="edge"><title>Node15&#45;&gt;Node9</title>
<path fill="none" stroke="midnightblue" d="M415.84,-678.531C440.017,-672.588 471.546,-664.837 498.577,-658.193"/>
<polygon fill="midnightblue" stroke="midnightblue" points="499.435,-661.586 508.31,-655.8 497.764,-654.789 499.435,-661.586"/>
</g>
<!-- Node15&#45;&gt;Node12 -->
<g id="edge18" class="edge"><title>Node15&#45;&gt;Node12</title>
<path fill="none" stroke="midnightblue" d="M422.169,-697.667C446.216,-702.772 475.974,-709.089 501.319,-714.47"/>
<polygon fill="midnightblue" stroke="midnightblue" points="500.647,-717.905 511.156,-716.558 502.1,-711.057 500.647,-717.905"/>
</g>
<!-- Node17&#45;&gt;Node8 -->
<g id="edge31" class="edge"><title>Node17&#45;&gt;Node8</title>
<path fill="none" stroke="midnightblue" d="M376.875,-292.867C377.4,-243.722 386.503,-88.6495 478,-24.0779 535.374,16.412 569.288,-2.15412 636,-24.0779 944.44,-125.441 1003.08,-620.226 1012.76,-738.599"/>
<polygon fill="midnightblue" stroke="midnightblue" points="1009.29,-739.153 1013.55,-748.854 1016.27,-738.614 1009.29,-739.153"/>
</g>
<!-- Node17&#45;&gt;Node11 -->
<g id="edge36" class="edge"><title>Node17&#45;&gt;Node11</title>
<path fill="none" stroke="midnightblue" d="M423.719,-311.166C488.076,-316.054 600.126,-327.028 636,-346.078 740.776,-401.716 822.633,-523.935 854.057,-575.914"/>
<polygon fill="midnightblue" stroke="midnightblue" points="851.207,-577.97 859.331,-584.771 857.221,-574.388 851.207,-577.97"/>
</g>
<!-- Node18 -->
<g id="node14" class="node"><title>Node18</title>
<g id="a_node14"><a xlink:href="../../d9/d06/namespacemom__diag__mediator.html#a1b0bed2113a0c268eafd1bafbb48bd4f" target="_top" xlink:title="mom_diag_mediator::\lalloc_diag_with_id">
<polygon fill="white" stroke="black" points="509.5,-503.078 509.5,-533.078 604.5,-533.078 604.5,-503.078 509.5,-503.078"/>
<text text-anchor="start" x="517.5" y="-521.078" font-family="Helvetica,sans-Serif" font-size="10.00">mom_diag_mediator::</text>
<text text-anchor="middle" x="557" y="-510.078" font-family="Helvetica,sans-Serif" font-size="10.00">alloc_diag_with_id</text>
</a>
</g>
</g>
<!-- Node17&#45;&gt;Node18 -->
<g id="edge22" class="edge"><title>Node17&#45;&gt;Node18</title>
<path fill="none" stroke="midnightblue" d="M381.055,-323.275C391.226,-358.464 421.162,-446.108 478,-493.078 484.39,-498.359 491.915,-502.531 499.726,-505.825"/>
<polygon fill="midnightblue" stroke="midnightblue" points="498.747,-509.196 509.339,-509.424 501.201,-502.64 498.747,-509.196"/>
</g>
<!-- Node19 -->
<g id="node15" class="node"><title>Node19</title>
<g id="a_node15"><a xlink:href="../../d9/d06/namespacemom__diag__mediator.html#a6e11afe7a97bf8e3333d33b0aebd6f6e" target="_top" xlink:title="mom_diag_mediator::\lassert">
<polygon fill="white" stroke="black" points="673,-268.078 673,-298.078 768,-298.078 768,-268.078 673,-268.078"/>
<text text-anchor="start" x="681" y="-286.078" font-family="Helvetica,sans-Serif" font-size="10.00">mom_diag_mediator::</text>
<text text-anchor="middle" x="720.5" y="-275.078" font-family="Helvetica,sans-Serif" font-size="10.00">assert</text>
</a>
</g>
</g>
<!-- Node17&#45;&gt;Node19 -->
<g id="edge23" class="edge"><title>Node17&#45;&gt;Node19</title>
<path fill="none" stroke="midnightblue" d="M423.548,-304.68C485.615,-300.15 595.414,-292.135 662.409,-287.245"/>
<polygon fill="midnightblue" stroke="midnightblue" points="663.061,-290.707 672.78,-286.488 662.552,-283.725 663.061,-290.707"/>
</g>
<!-- Node20 -->
<g id="node16" class="node"><title>Node20</title>
<g id="a_node16"><a xlink:href="../../d9/d06/namespacemom__diag__mediator.html#a93abbf0b9659019bed9a2129ab292752" target="_top" xlink:title="Attaches &quot;cell_methods&quot; attribute to a variable based on defaults for axes_grp or optional arguments...">
<polygon fill="white" stroke="black" points="673,-541.078 673,-571.078 768,-571.078 768,-541.078 673,-541.078"/>
<text text-anchor="start" x="681" y="-559.078" font-family="Helvetica,sans-Serif" font-size="10.00">mom_diag_mediator::</text>
<text text-anchor="middle" x="720.5" y="-548.078" font-family="Helvetica,sans-Serif" font-size="10.00">attach_cell_methods</text>
</a>
</g>
</g>
<!-- Node17&#45;&gt;Node20 -->
<g id="edge25" class="edge"><title>Node17&#45;&gt;Node20</title>
<path fill="none" stroke="midnightblue" d="M378.269,-323.174C382.769,-366.056 402.052,-488.927 478,-542.078 531.709,-579.666 609.707,-576.621 662.405,-568.519"/>
<polygon fill="midnightblue" stroke="midnightblue" points="663.295,-571.92 672.593,-566.842 662.157,-565.013 663.295,-571.92"/>
</g>
<!-- Node21 -->
<g id="node17" class="node"><title>Node21</title>
<g id="a_node17"><a xlink:href="../../d9/d06/namespacemom__diag__mediator.html#a3f7442639213320f7429e2288a79fda2" target="_top" xlink:title="mom_diag_mediator::\lget_new_diag_id">
<polygon fill="white" stroke="black" points="509.5,-230.078 509.5,-260.078 604.5,-260.078 604.5,-230.078 509.5,-230.078"/>
<text text-anchor="start" x="517.5" y="-248.078" font-family="Helvetica,sans-Serif" font-size="10.00">mom_diag_mediator::</text>
<text text-anchor="middle" x="557" y="-237.078" font-family="Helvetica,sans-Serif" font-size="10.00">get_new_diag_id</text>
</a>
</g>
</g>
<!-- Node17&#45;&gt;Node21 -->
<g id="edge27" class="edge"><title>Node17&#45;&gt;Node21</title>
<path fill="none" stroke="midnightblue" d="M419.875,-292.988C445.023,-284.137 476.984,-272.888 503.617,-263.514"/>
<polygon fill="midnightblue" stroke="midnightblue" points="504.894,-266.775 513.165,-260.154 502.57,-260.172 504.894,-266.775"/>
</g>
<!-- Node22 -->
<g id="node18" class="node"><title>Node22</title>
<g id="a_node18"><a xlink:href="../../d9/d06/namespacemom__diag__mediator.html#a4b739f107cebe1ece8d29056c1144bff" target="_top" xlink:title="mom_diag_mediator::\lis_b_axes">
<polygon fill="white" stroke="black" points="509.5,-454.078 509.5,-484.078 604.5,-484.078 604.5,-454.078 509.5,-454.078"/>
<text text-anchor="start" x="517.5" y="-472.078" font-family="Helvetica,sans-Serif" font-size="10.00">mom_diag_mediator::</text>
<text text-anchor="middle" x="557" y="-461.078" font-family="Helvetica,sans-Serif" font-size="10.00">is_b_axes</text>
</a>
</g>
</g>
<!-- Node17&#45;&gt;Node22 -->
<g id="edge29" class="edge"><title>Node17&#45;&gt;Node22</title>
<path fill="none" stroke="midnightblue" d="M384.171,-323.167C398.227,-351.148 432.078,-411.218 478,-444.078 484.577,-448.784 492.082,-452.633 499.777,-455.774"/>
<polygon fill="midnightblue" stroke="midnightblue" points="498.616,-459.076 509.209,-459.263 501.045,-452.511 498.616,-459.076"/>
</g>
<!-- Node23 -->
<g id="node19" class="node"><title>Node23</title>
<g id="a_node19"><a xlink:href="../../d9/d06/namespacemom__diag__mediator.html#a84370fa96e03622edbfd5e343bcd9718" target="_top" xlink:title="mom_diag_mediator::\lis_layer_axes">
<polygon fill="white" stroke="black" points="509.5,-405.078 509.5,-435.078 604.5,-435.078 604.5,-405.078 509.5,-405.078"/>
<text text-anchor="start" x="517.5" y="-423.078" font-family="Helvetica,sans-Serif" font-size="10.00">mom_diag_mediator::</text>
<text text-anchor="middle" x="557" y="-412.078" font-family="Helvetica,sans-Serif" font-size="10.00">is_layer_axes</text>
</a>
</g>
</g>
<!-- Node17&#45;&gt;Node23 -->
<g id="edge30" class="edge"><title>Node17&#45;&gt;Node23</title>
<path fill="none" stroke="midnightblue" d="M390.636,-323.081C408.834,-342.278 442.868,-375.398 478,-395.078 484.804,-398.889 492.273,-402.215 499.809,-405.088"/>
<polygon fill="midnightblue" stroke="midnightblue" points="498.751,-408.427 509.346,-408.488 501.102,-401.833 498.751,-408.427"/>
</g>
<!-- Node24 -->
<g id="node20" class="node"><title>Node24</title>
<g id="a_node20"><a xlink:href="../../d9/d06/namespacemom__diag__mediator.html#a27fa63c9ff62b660bf457adbb8645bdf" target="_top" xlink:title="mom_diag_mediator::\lis_u_axes">
<polygon fill="white" stroke="black" points="509.5,-356.078 509.5,-386.078 604.5,-386.078 604.5,-356.078 509.5,-356.078"/>
<text text-anchor="start" x="517.5" y="-374.078" font-family="Helvetica,sans-Serif" font-size="10.00">mom_diag_mediator::</text>
<text text-anchor="middle" x="557" y="-363.078" font-family="Helvetica,sans-Serif" font-size="10.00">is_u_axes</text>
</a>
</g>
</g>
<!-- Node17&#45;&gt;Node24 -->
<g id="edge32" class="edge"><title>Node17&#45;&gt;Node24</title>
<path fill="none" stroke="midnightblue" d="M419.875,-323.168C445.023,-332.019 476.984,-343.268 503.617,-352.641"/>
<polygon fill="midnightblue" stroke="midnightblue" points="502.57,-355.983 513.165,-356.002 504.894,-349.38 502.57,-355.983"/>
</g>
<!-- Node25 -->
<g id="node21" class="node"><title>Node25</title>
<g id="a_node21"><a xlink:href="../../d9/d06/namespacemom__diag__mediator.html#a9a30d653d812713d6fcff94f6f1fc3e6" target="_top" xlink:title="mom_diag_mediator::\lis_v_axes">
<polygon fill="white" stroke="black" points="509.5,-181.078 509.5,-211.078 604.5,-211.078 604.5,-181.078 509.5,-181.078"/>
<text text-anchor="start" x="517.5" y="-199.078" font-family="Helvetica,sans-Serif" font-size="10.00">mom_diag_mediator::</text>
<text text-anchor="middle" x="557" y="-188.078" font-family="Helvetica,sans-Serif" font-size="10.00">is_v_axes</text>
</a>
</g>
</g>
<!-- Node17&#45;&gt;Node25 -->
<g id="edge33" class="edge"><title>Node17&#45;&gt;Node25</title>
<path fill="none" stroke="midnightblue" d="M390.564,-292.83C408.685,-273.333 442.636,-239.748 478,-220.078 484.791,-216.301 492.252,-213.041 499.784,-210.249"/>
<polygon fill="midnightblue" stroke="midnightblue" points="501.006,-213.53 509.318,-206.96 498.723,-206.913 501.006,-213.53"/>
</g>
<!-- Node26 -->
<g id="node22" class="node"><title>Node26</title>
<g id="a_node22"><a xlink:href="../../d9/d06/namespacemom__diag__mediator.html#a65fe8d329cf5dbfd08c98874a7a64407" target="_top" xlink:title="Log a diagnostic to the available diagnostics file. ">
<polygon fill="white" stroke="black" points="509.5,-132.078 509.5,-162.078 604.5,-162.078 604.5,-132.078 509.5,-132.078"/>
<text text-anchor="start" x="517.5" y="-150.078" font-family="Helvetica,sans-Serif" font-size="10.00">mom_diag_mediator::</text>
<text text-anchor="middle" x="557" y="-139.078" font-family="Helvetica,sans-Serif" font-size="10.00">log_available_diag</text>
</a>
</g>
</g>
<!-- Node17&#45;&gt;Node26 -->
<g id="edge34" class="edge"><title>Node17&#45;&gt;Node26</title>
<path fill="none" stroke="midnightblue" d="M384.105,-292.827C398.051,-264.554 431.726,-203.905 478,-171.078 484.572,-166.415 492.074,-162.64 499.768,-159.588"/>
<polygon fill="midnightblue" stroke="midnightblue" points="500.964,-162.877 509.199,-156.212 498.605,-156.287 500.964,-162.877"/>
</g>
<!-- Node28 -->
<g id="node24" class="node"><title>Node28</title>
<g id="a_node24"><a xlink:href="../../d9/d06/namespacemom__diag__mediator.html#a085f313357879a914af6450f2ab8ec79" target="_top" xlink:title="mom_diag_mediator::\lset_diag_mask">
<polygon fill="white" stroke="black" points="509.5,-83.0779 509.5,-113.078 604.5,-113.078 604.5,-83.0779 509.5,-83.0779"/>
<text text-anchor="start" x="517.5" y="-101.078" font-family="Helvetica,sans-Serif" font-size="10.00">mom_diag_mediator::</text>
<text text-anchor="middle" x="557" y="-90.0779" font-family="Helvetica,sans-Serif" font-size="10.00">set_diag_mask</text>
</a>
</g>
</g>
<!-- Node17&#45;&gt;Node28 -->
<g id="edge37" class="edge"><title>Node17&#45;&gt;Node28</title>
<path fill="none" stroke="midnightblue" d="M380.919,-293.017C390.884,-257.719 420.561,-169.091 478,-122.078 484.392,-116.846 491.917,-112.753 499.729,-109.551"/>
<polygon fill="midnightblue" stroke="midnightblue" points="501.131,-112.765 509.342,-106.07 498.747,-106.183 501.131,-112.765"/>
</g>
<!-- Node29 -->
<g id="node25" class="node"><title>Node29</title>
<g id="a_node25"><a xlink:href="../../d9/d06/namespacemom__diag__mediator.html#a5d1e1aa53cdd6bb335a6f841eded4f46" target="_top" xlink:title="mom_diag_mediator::\lset_diag_remap_axes">
<polygon fill="white" stroke="black" points="509.5,-34.0779 509.5,-64.0779 604.5,-64.0779 604.5,-34.0779 509.5,-34.0779"/>
<text text-anchor="start" x="517.5" y="-52.0779" font-family="Helvetica,sans-Serif" font-size="10.00">mom_diag_mediator::</text>
<text text-anchor="middle" x="557" y="-41.0779" font-family="Helvetica,sans-Serif" font-size="10.00">set_diag_remap_axes</text>
</a>
</g>
</g>
<!-- Node17&#45;&gt;Node29 -->
<g id="edge38" class="edge"><title>Node17&#45;&gt;Node29</title>
<path fill="none" stroke="midnightblue" d="M379.072,-292.9C385.552,-251.357 409.275,-134.791 478,-73.0779 484.289,-67.4307 491.882,-63.1122 499.831,-59.8098"/>
<polygon fill="midnightblue" stroke="midnightblue" points="501.065,-63.0855 509.268,-56.381 498.674,-56.5063 501.065,-63.0855"/>
</g>
<!-- Node19&#45;&gt;Node11 -->
<g id="edge24" class="edge"><title>Node19&#45;&gt;Node11</title>
<path fill="none" stroke="midnightblue" d="M752.101,-298.097C758.342,-302.262 764.398,-307.267 769,-313.078 833.749,-394.835 857.55,-521.665 865.02,-575.049"/>
<polygon fill="midnightblue" stroke="midnightblue" points="861.555,-575.545 866.34,-584.998 868.494,-574.625 861.555,-575.545"/>
</g>
<!-- Node20&#45;&gt;Node11 -->
<g id="edge26" class="edge"><title>Node20&#45;&gt;Node11</title>
<path fill="none" stroke="midnightblue" d="M768.256,-570.121C782.34,-574.351 797.934,-579.034 812.526,-583.417"/>
<polygon fill="midnightblue" stroke="midnightblue" points="811.854,-586.869 822.438,-586.394 813.867,-580.165 811.854,-586.869"/>
</g>
<!-- Node21&#45;&gt;Node19 -->
<g id="edge28" class="edge"><title>Node21&#45;&gt;Node19</title>
<path fill="none" stroke="midnightblue" d="M604.712,-256.069C622.958,-260.362 644.042,-265.323 663.123,-269.813"/>
<polygon fill="midnightblue" stroke="midnightblue" points="662.357,-273.228 672.892,-272.111 663.96,-266.414 662.357,-273.228"/>
</g>
<!-- Node27 -->
<g id="node23" class="node"><title>Node27</title>
<g id="a_node23"><a xlink:href="../../d9/d06/namespacemom__diag__mediator.html#ae002ca447acba252bf7bdc042e75a01e" target="_top" xlink:title="mom_diag_mediator::\ldescribe_option">
<polygon fill="white" stroke="black" points="673,-132.078 673,-162.078 768,-162.078 768,-132.078 673,-132.078"/>
<text text-anchor="start" x="681" y="-150.078" font-family="Helvetica,sans-Serif" font-size="10.00">mom_diag_mediator::</text>
<text text-anchor="middle" x="720.5" y="-139.078" font-family="Helvetica,sans-Serif" font-size="10.00">describe_option</text>
</a>
</g>
</g>
<!-- Node26&#45;&gt;Node27 -->
<g id="edge35" class="edge"><title>Node26&#45;&gt;Node27</title>
<path fill="none" stroke="midnightblue" d="M604.712,-147.078C622.875,-147.078 643.849,-147.078 662.86,-147.078"/>
<polygon fill="midnightblue" stroke="midnightblue" points="662.893,-150.578 672.892,-147.078 662.892,-143.578 662.893,-150.578"/>
</g>
</g>
</svg>
