<?xml version="1.0" encoding="UTF-8" standalone="no"?>
<!DOCTYPE svg PUBLIC "-//W3C//DTD SVG 1.1//EN"
 "http://www.w3.org/Graphics/SVG/1.1/DTD/svg11.dtd">
<!-- Generated by graphviz version 2.38.0 (20140413.2041)
 -->
<!-- Title: mom_dynamics_unsplit_rk2::mom_dyn_unsplit_rk2_cs Pages: 1 -->
<svg width="315pt" height="832pt"
 viewBox="0.00 0.00 315.00 831.54" xmlns="http://www.w3.org/2000/svg" xmlns:xlink="http://www.w3.org/1999/xlink">
<g id="graph0" class="graph" transform="scale(1 1) rotate(0) translate(4 827.542)">
<title>mom_dynamics_unsplit_rk2::mom_dyn_unsplit_rk2_cs</title>
<polygon fill="white" stroke="none" points="-4,4 -4,-827.542 311,-827.542 311,4 -4,4"/>
<!-- Node1 -->
<g id="node1" class="node"><title>Node1</title>
<polygon fill="#bfbfbf" stroke="black" points="208,-445.042 208,-486.042 307,-486.042 307,-445.042 208,-445.042"/>
<text text-anchor="start" x="216" y="-474.042" font-family="Helvetica,sans-Serif" font-size="10.00">mom_dynamics_unsplit</text>
<text text-anchor="start" x="216" y="-463.042" font-family="Helvetica,sans-Serif" font-size="10.00">_rk2::mom_dyn_unsplit</text>
<text text-anchor="middle" x="257.5" y="-452.042" font-family="Helvetica,sans-Serif" font-size="10.00">_rk2_cs</text>
</g>
<!-- Node2 -->
<g id="node2" class="node"><title>Node2</title>
<polygon fill="white" stroke="#bfbfbf" points="3.5,-801.042 3.5,-820.042 92.5,-820.042 92.5,-801.042 3.5,-801.042"/>
<text text-anchor="middle" x="48" y="-808.042" font-family="Helvetica,sans-Serif" font-size="10.00">type(ale_cs), pointer</text>
</g>
<!-- Node2&#45;&gt;Node1 -->
<g id="edge1" class="edge"><title>Node2&#45;&gt;Node1</title>
<path fill="none" stroke="#9a32cd" stroke-dasharray="5,2" d="M102.775,-814.23C132.252,-813.255 167.305,-806.717 190,-784.542 232.993,-742.534 250.431,-550.465 255.116,-486.405"/>
<polygon fill="#9a32cd" stroke="#9a32cd" points="102.565,-810.732 92.6106,-814.36 102.654,-817.732 102.565,-810.732"/>
<text text-anchor="middle" x="152" y="-815.542" font-family="Helvetica,sans-Serif" font-size="10.00"> ale_csp</text>
</g>
<!-- Node3 -->
<g id="node3" class="node"><title>Node3</title>
<polygon fill="white" stroke="#bfbfbf" points="29,-760.042 29,-779.042 67,-779.042 67,-760.042 29,-760.042"/>
<text text-anchor="middle" x="48" y="-767.042" font-family="Helvetica,sans-Serif" font-size="10.00">logical</text>
</g>
<!-- Node3&#45;&gt;Node1 -->
<g id="edge2" class="edge"><title>Node3&#45;&gt;Node1</title>
<path fill="none" stroke="#9a32cd" stroke-dasharray="5,2" d="M77.0409,-765.824C113.484,-760.431 174.322,-749.326 190,-733.542 225.219,-698.084 247.181,-542.61 254.119,-486.135"/>
<polygon fill="#9a32cd" stroke="#9a32cd" points="76.4339,-762.375 67.029,-767.253 77.4232,-769.305 76.4339,-762.375"/>
<text text-anchor="middle" x="152" y="-772.542" font-family="Helvetica,sans-Serif" font-size="10.00"> debug</text>
<text text-anchor="middle" x="152" y="-761.542" font-family="Helvetica,sans-Serif" font-size="10.00">module_is_initialized</text>
</g>
<!-- Node4 -->
<g id="node4" class="node"><title>Node4</title>
<polygon fill="white" stroke="#bfbfbf" points="0,-710.542 0,-740.542 96,-740.542 96,-710.542 0,-710.542"/>
<text text-anchor="start" x="8" y="-728.542" font-family="Helvetica,sans-Serif" font-size="10.00">type(ocean_obc_type)</text>
<text text-anchor="middle" x="48" y="-717.542" font-family="Helvetica,sans-Serif" font-size="10.00">, pointer</text>
</g>
<!-- Node4&#45;&gt;Node1 -->
<g id="edge3" class="edge"><title>Node4&#45;&gt;Node1</title>
<path fill="none" stroke="#9a32cd" stroke-dasharray="5,2" d="M106.21,-721.131C134.778,-716.09 167.875,-705.522 190,-683.542 245.301,-628.604 254.87,-529.124 256.344,-486.188"/>
<polygon fill="#9a32cd" stroke="#9a32cd" points="105.651,-717.676 96.3192,-722.693 106.743,-724.59 105.651,-717.676"/>
<text text-anchor="middle" x="152" y="-721.542" font-family="Helvetica,sans-Serif" font-size="10.00"> obc</text>
</g>
<!-- Node5 -->
<g id="node5" class="node"><title>Node5</title>
<polygon fill="white" stroke="#bfbfbf" points="2.5,-661.542 2.5,-691.542 93.5,-691.542 93.5,-661.542 2.5,-661.542"/>
<text text-anchor="start" x="10.5" y="-679.542" font-family="Helvetica,sans-Serif" font-size="10.00">type(open_boundary</text>
<text text-anchor="middle" x="48" y="-668.542" font-family="Helvetica,sans-Serif" font-size="10.00">_cs), pointer</text>
</g>
<!-- Node5&#45;&gt;Node1 -->
<g id="edge4" class="edge"><title>Node5&#45;&gt;Node1</title>
<path fill="none" stroke="#9a32cd" stroke-dasharray="5,2" d="M103.652,-670.852C132.433,-665.288 166.524,-654.287 190,-632.542 233.041,-592.672 248.73,-521.297 254.027,-486.192"/>
<polygon fill="#9a32cd" stroke="#9a32cd" points="102.961,-667.42 93.7198,-672.602 104.175,-674.313 102.961,-667.42"/>
<text text-anchor="middle" x="152" y="-671.542" font-family="Helvetica,sans-Serif" font-size="10.00"> open_boundary_csp</text>
</g>
<!-- Node6 -->
<g id="node6" class="node"><title>Node6</title>
<polygon fill="white" stroke="#bfbfbf" points="8,-612.542 8,-642.542 88,-642.542 88,-612.542 8,-612.542"/>
<text text-anchor="start" x="16" y="-630.542" font-family="Helvetica,sans-Serif" font-size="10.00">type(set_visc_cs),</text>
<text text-anchor="middle" x="48" y="-619.542" font-family="Helvetica,sans-Serif" font-size="10.00"> pointer</text>
</g>
<!-- Node6&#45;&gt;Node1 -->
<g id="edge5" class="edge"><title>Node6&#45;&gt;Node1</title>
<path fill="none" stroke="#9a32cd" stroke-dasharray="5,2" d="M98.2719,-620.58C127.496,-614.38 163.821,-602.833 190,-581.542 221.156,-556.202 240.572,-512.136 249.887,-486.225"/>
<polygon fill="#9a32cd" stroke="#9a32cd" points="97.392,-617.186 88.2595,-622.557 98.7482,-624.054 97.392,-617.186"/>
<text text-anchor="middle" x="152" y="-620.542" font-family="Helvetica,sans-Serif" font-size="10.00"> set_visc_csp</text>
</g>
<!-- Node7 -->
<g id="node7" class="node"><title>Node7</title>
<polygon fill="white" stroke="#bfbfbf" points="9,-563.542 9,-593.542 87,-593.542 87,-563.542 9,-563.542"/>
<text text-anchor="start" x="17" y="-581.542" font-family="Helvetica,sans-Serif" font-size="10.00">type(vertvisc_cs),</text>
<text text-anchor="middle" x="48" y="-570.542" font-family="Helvetica,sans-Serif" font-size="10.00"> pointer</text>
</g>
<!-- Node7&#45;&gt;Node1 -->
<g id="edge6" class="edge"><title>Node7&#45;&gt;Node1</title>
<path fill="none" stroke="#9a32cd" stroke-dasharray="5,2" d="M97.2589,-570.261C125.763,-563.852 161.691,-553.035 190,-535.542 210.819,-522.677 229.521,-501.718 241.749,-486.082"/>
<polygon fill="#9a32cd" stroke="#9a32cd" points="96.1692,-566.914 87.1212,-572.427 97.6319,-573.76 96.1692,-566.914"/>
<text text-anchor="middle" x="152" y="-569.542" font-family="Helvetica,sans-Serif" font-size="10.00"> vertvisc_csp</text>
</g>
<!-- Node8 -->
<g id="node8" class="node"><title>Node8</title>
<polygon fill="white" stroke="#bfbfbf" points="13.5,-525.042 13.5,-544.042 82.5,-544.042 82.5,-525.042 13.5,-525.042"/>
<text text-anchor="middle" x="48" y="-532.042" font-family="Helvetica,sans-Serif" font-size="10.00">cont_diag_ptrs</text>
</g>
<!-- Node8&#45;&gt;Node1 -->
<g id="edge7" class="edge"><title>Node8&#45;&gt;Node1</title>
<path fill="none" stroke="#9a32cd" stroke-dasharray="5,2" d="M92.5568,-525.39C120.764,-518.91 158.058,-509.294 190,-497.542 198.898,-494.268 208.208,-490.213 216.949,-486.102"/>
<polygon fill="#9a32cd" stroke="#9a32cd" points="91.5879,-522.021 82.6023,-527.634 93.1272,-528.849 91.5879,-522.021"/>
<text text-anchor="middle" x="152" y="-523.542" font-family="Helvetica,sans-Serif" font-size="10.00"> cdp</text>
</g>
<!-- Node9 -->
<g id="node9" class="node"><title>Node9</title>
<polygon fill="white" stroke="#bfbfbf" points="7.5,-475.542 7.5,-505.542 88.5,-505.542 88.5,-475.542 7.5,-475.542"/>
<text text-anchor="start" x="15.5" y="-493.542" font-family="Helvetica,sans-Serif" font-size="10.00">type(hor_visc_cs),</text>
<text text-anchor="middle" x="48" y="-482.542" font-family="Helvetica,sans-Serif" font-size="10.00"> pointer</text>
</g>
<!-- Node9&#45;&gt;Node1 -->
<g id="edge8" class="edge"><title>Node9&#45;&gt;Node1</title>
<path fill="none" stroke="#9a32cd" stroke-dasharray="5,2" d="M98.4518,-484.584C131.601,-480.59 175.049,-475.355 207.999,-471.385"/>
<polygon fill="#9a32cd" stroke="#9a32cd" points="98.0271,-481.109 88.5176,-485.781 98.8645,-488.059 98.0271,-481.109"/>
<text text-anchor="middle" x="152" y="-485.542" font-family="Helvetica,sans-Serif" font-size="10.00"> hor_visc_csp</text>
</g>
<!-- Node10 -->
<g id="node10" class="node"><title>Node10</title>
<polygon fill="white" stroke="#bfbfbf" points="6.5,-426.542 6.5,-456.542 89.5,-456.542 89.5,-426.542 6.5,-426.542"/>
<text text-anchor="start" x="14.5" y="-444.542" font-family="Helvetica,sans-Serif" font-size="10.00">type(continuity_cs)</text>
<text text-anchor="middle" x="48" y="-433.542" font-family="Helvetica,sans-Serif" font-size="10.00">, pointer</text>
</g>
<!-- Node10&#45;&gt;Node1 -->
<g id="edge9" class="edge"><title>Node10&#45;&gt;Node1</title>
<path fill="none" stroke="#9a32cd" stroke-dasharray="5,2" d="M99.6735,-447.208C126.524,-450.232 160.057,-454.042 190,-457.542 195.775,-458.217 201.831,-458.933 207.837,-459.649"/>
<polygon fill="#9a32cd" stroke="#9a32cd" points="100.06,-443.73 89.7316,-446.09 99.2778,-450.686 100.06,-443.73"/>
<text text-anchor="middle" x="152" y="-460.542" font-family="Helvetica,sans-Serif" font-size="10.00"> continuity_csp</text>
</g>
<!-- Node11 -->
<g id="node11" class="node"><title>Node11</title>
<polygon fill="white" stroke="#bfbfbf" points="5,-377.542 5,-407.542 91,-407.542 91,-377.542 5,-377.542"/>
<text text-anchor="start" x="13" y="-395.542" font-family="Helvetica,sans-Serif" font-size="10.00">type(coriolisadv_cs)</text>
<text text-anchor="middle" x="48" y="-384.542" font-family="Helvetica,sans-Serif" font-size="10.00">, pointer</text>
</g>
<!-- Node11&#45;&gt;Node1 -->
<g id="edge10" class="edge"><title>Node11&#45;&gt;Node1</title>
<path fill="none" stroke="#9a32cd" stroke-dasharray="5,2" d="M101.148,-406.104C128.006,-413.583 161.098,-423.568 190,-434.542 198.098,-437.616 206.586,-441.245 214.685,-444.916"/>
<polygon fill="#9a32cd" stroke="#9a32cd" points="101.751,-402.64 91.1807,-403.363 99.895,-409.389 101.751,-402.64"/>
<text text-anchor="middle" x="152" y="-437.542" font-family="Helvetica,sans-Serif" font-size="10.00"> coriolisadv_csp</text>
</g>
<!-- Node12 -->
<g id="node12" class="node"><title>Node12</title>
<polygon fill="white" stroke="#bfbfbf" points="24.5,-339.042 24.5,-358.042 71.5,-358.042 71.5,-339.042 24.5,-339.042"/>
<text text-anchor="middle" x="48" y="-346.042" font-family="Helvetica,sans-Serif" font-size="10.00">diag_ctrl</text>
</g>
<!-- Node12&#45;&gt;Node1 -->
<g id="edge11" class="edge"><title>Node12&#45;&gt;Node1</title>
<path fill="none" stroke="#9a32cd" stroke-dasharray="5,2" d="M81.6101,-354.997C111.5,-361.952 156.125,-375.021 190,-396.542 210.221,-409.389 228.735,-429.615 241.063,-444.854"/>
<polygon fill="#9a32cd" stroke="#9a32cd" points="82.2157,-351.546 71.6939,-352.788 80.6936,-358.379 82.2157,-351.546"/>
<text text-anchor="middle" x="152" y="-399.542" font-family="Helvetica,sans-Serif" font-size="10.00"> diag</text>
</g>
<!-- Node13 -->
<g id="node13" class="node"><title>Node13</title>
<polygon fill="white" stroke="#bfbfbf" points="9.5,-289.542 9.5,-319.542 86.5,-319.542 86.5,-289.542 9.5,-289.542"/>
<text text-anchor="start" x="17.5" y="-307.542" font-family="Helvetica,sans-Serif" font-size="10.00">type(tidal_forcing</text>
<text text-anchor="middle" x="48" y="-296.542" font-family="Helvetica,sans-Serif" font-size="10.00">_cs), pointer</text>
</g>
<!-- Node13&#45;&gt;Node1 -->
<g id="edge12" class="edge"><title>Node13&#45;&gt;Node1</title>
<path fill="none" stroke="#9a32cd" stroke-dasharray="5,2" d="M96.7724,-310.811C126.24,-316.708 163.361,-328.017 190,-349.542 221.237,-374.781 240.624,-418.883 249.912,-444.827"/>
<polygon fill="#9a32cd" stroke="#9a32cd" points="97.1689,-307.325 86.6984,-308.943 95.8927,-314.208 97.1689,-307.325"/>
<text text-anchor="middle" x="152" y="-352.542" font-family="Helvetica,sans-Serif" font-size="10.00"> tides_csp</text>
</g>
<!-- Node14 -->
<g id="node14" class="node"><title>Node14</title>
<polygon fill="white" stroke="#bfbfbf" points="6,-240.542 6,-270.542 90,-270.542 90,-240.542 6,-240.542"/>
<text text-anchor="start" x="14" y="-258.542" font-family="Helvetica,sans-Serif" font-size="10.00">type(pressureforce</text>
<text text-anchor="middle" x="48" y="-247.542" font-family="Helvetica,sans-Serif" font-size="10.00">_cs), pointer</text>
</g>
<!-- Node14&#45;&gt;Node1 -->
<g id="edge13" class="edge"><title>Node14&#45;&gt;Node1</title>
<path fill="none" stroke="#9a32cd" stroke-dasharray="5,2" d="M100.256,-261.034C129.704,-266.615 165.575,-277.865 190,-300.542 232.438,-339.943 248.384,-410.14 253.88,-444.886"/>
<polygon fill="#9a32cd" stroke="#9a32cd" points="100.587,-257.54 90.1375,-259.288 99.3963,-264.438 100.587,-257.54"/>
<text text-anchor="middle" x="152" y="-303.542" font-family="Helvetica,sans-Serif" font-size="10.00"> pressureforce_csp</text>
</g>
<!-- Node15 -->
<g id="node15" class="node"><title>Node15</title>
<polygon fill="white" stroke="#bfbfbf" points="27.5,-187.042 27.5,-206.042 68.5,-206.042 68.5,-187.042 27.5,-187.042"/>
<text text-anchor="middle" x="48" y="-194.042" font-family="Helvetica,sans-Serif" font-size="10.00">integer</text>
</g>
<!-- Node15&#45;&gt;Node1 -->
<g id="edge14" class="edge"><title>Node15&#45;&gt;Node1</title>
<path fill="none" stroke="#9a32cd" stroke-dasharray="5,2" d="M78.5777,-186.274C109.716,-177.508 158.501,-169.837 190,-194.542 229.835,-225.783 248.95,-386.64 254.627,-444.651"/>
<polygon fill="#9a32cd" stroke="#9a32cd" points="77.3058,-183.002 68.7449,-189.244 79.3298,-189.703 77.3058,-183.002"/>
<text text-anchor="middle" x="152" y="-252.542" font-family="Helvetica,sans-Serif" font-size="10.00"> id_vh</text>
<text text-anchor="middle" x="152" y="-241.542" font-family="Helvetica,sans-Serif" font-size="10.00">id_cau</text>
<text text-anchor="middle" x="152" y="-230.542" font-family="Helvetica,sans-Serif" font-size="10.00">id_uh</text>
<text text-anchor="middle" x="152" y="-219.542" font-family="Helvetica,sans-Serif" font-size="10.00">id_cav</text>
<text text-anchor="middle" x="152" y="-208.542" font-family="Helvetica,sans-Serif" font-size="10.00">id_pfu</text>
<text text-anchor="middle" x="152" y="-197.542" font-family="Helvetica,sans-Serif" font-size="10.00">id_pfv</text>
</g>
<!-- Node16 -->
<g id="node16" class="node"><title>Node16</title>
<polygon fill="white" stroke="#bfbfbf" points="33,-43.0417 33,-62.0417 63,-62.0417 63,-43.0417 33,-43.0417"/>
<text text-anchor="middle" x="48" y="-50.0417" font-family="Helvetica,sans-Serif" font-size="10.00">real</text>
</g>
<!-- Node16&#45;&gt;Node1 -->
<g id="edge15" class="edge"><title>Node16&#45;&gt;Node1</title>
<path fill="none" stroke="#9a32cd" stroke-dasharray="5,2" d="M72.9493,-44.3152C103.882,-35.3627 157.587,-25.7424 190,-53.5417 250.084,-105.074 256.047,-368.776 256.505,-444.927"/>
<polygon fill="#9a32cd" stroke="#9a32cd" points="71.5444,-41.0864 63.03,-47.3915 73.618,-47.7722 71.5444,-41.0864"/>
<text text-anchor="middle" x="152" y="-166.542" font-family="Helvetica,sans-Serif" font-size="10.00"> cau</text>
<text text-anchor="middle" x="152" y="-155.542" font-family="Helvetica,sans-Serif" font-size="10.00">cav</text>
<text text-anchor="middle" x="152" y="-144.542" font-family="Helvetica,sans-Serif" font-size="10.00">begw</text>
<text text-anchor="middle" x="152" y="-133.542" font-family="Helvetica,sans-Serif" font-size="10.00">be</text>
<text text-anchor="middle" x="152" y="-122.542" font-family="Helvetica,sans-Serif" font-size="10.00">pfu</text>
<text text-anchor="middle" x="152" y="-111.542" font-family="Helvetica,sans-Serif" font-size="10.00">pfv</text>
<text text-anchor="middle" x="152" y="-100.542" font-family="Helvetica,sans-Serif" font-size="10.00">diffu</text>
<text text-anchor="middle" x="152" y="-89.5417" font-family="Helvetica,sans-Serif" font-size="10.00">diffv</text>
<text text-anchor="middle" x="152" y="-78.5417" font-family="Helvetica,sans-Serif" font-size="10.00">taux_bot</text>
<text text-anchor="middle" x="152" y="-67.5417" font-family="Helvetica,sans-Serif" font-size="10.00">tauy_bot</text>
<text text-anchor="middle" x="152" y="-56.5417" font-family="Helvetica,sans-Serif" font-size="10.00">...</text>
</g>
<!-- Node17 -->
<g id="node17" class="node"><title>Node17</title>
<polygon fill="white" stroke="#bfbfbf" points="12,-5.0417 12,-24.0417 84,-24.0417 84,-5.0417 12,-5.0417"/>
<text text-anchor="middle" x="48" y="-12.0417" font-family="Helvetica,sans-Serif" font-size="10.00">accel_diag_ptrs</text>
</g>
<!-- Node17&#45;&gt;Node1 -->
<g id="edge16" class="edge"><title>Node17&#45;&gt;Node1</title>
<path fill="none" stroke="#9a32cd" stroke-dasharray="5,2" d="M93.2107,-3.10624C124.118,2.03405 164.304,2.56959 190,-20.5417 253.887,-78.0027 257.08,-365.346 256.715,-445.026"/>
<polygon fill="#9a32cd" stroke="#9a32cd" points="92.3028,0.284609 83.1191,-4.99849 93.5929,-6.59549 92.3028,0.284609"/>
<text text-anchor="middle" x="152" y="-23.5417" font-family="Helvetica,sans-Serif" font-size="10.00"> adp</text>
</g>
</g>
</svg>
