<?xml version="1.0" encoding="UTF-8" standalone="no"?>
<!DOCTYPE svg PUBLIC "-//W3C//DTD SVG 1.1//EN"
 "http://www.w3.org/Graphics/SVG/1.1/DTD/svg11.dtd">
<!-- Generated by graphviz version 2.38.0 (20140413.2041)
 -->
<!-- Title: mom_tracer_flow_control::call_tracer_stocks Pages: 1 -->
<!--zoomable 241 -->
<svg id="main" version="1.1" xmlns="http://www.w3.org/2000/svg" xmlns:xlink="http://www.w3.org/1999/xlink" xml:space="preserve" onload="init(evt)">
<style type="text/css"><![CDATA[
.edge:hover path { stroke: red; }
.edge:hover polygon { stroke: red; fill: red; }
]]></style>
<script type="text/javascript"><![CDATA[
var edges = document.getElementsByTagName('g');
if (edges && edges.length) {
  for (var i=0;i<edges.length;i++) {
    if (edges[i].id.substr(0,4)=='edge') {
      edges[i].setAttribute('class','edge');
    }
  }
}
]]></script>
        <defs>
                <circle id="rim" cx="0" cy="0" r="7"/>
                <circle id="rim2" cx="0" cy="0" r="3.5"/>
                <g id="zoomPlus">
                        <use xlink:href="#rim" fill="#404040">
                                <set attributeName="fill" to="#808080" begin="zoomplus.mouseover" end="zoomplus.mouseout"/>
                        </use>
                        <path d="M-4,0h8M0,-4v8" fill="none" stroke="white" stroke-width="1.5" pointer-events="none"/>
                </g>
                <g id="zoomMin">
                        <use xlink:href="#rim" fill="#404040">
                                <set attributeName="fill" to="#808080" begin="zoomminus.mouseover" end="zoomminus.mouseout"/>
                        </use>
                        <path d="M-4,0h8" fill="none" stroke="white" stroke-width="1.5" pointer-events="none"/>
                </g>
                <g id="dirArrow">
                        <path fill="none" stroke="white" stroke-width="1.5" d="M0,-3.0v7 M-2.5,-0.5L0,-3.0L2.5,-0.5"/>
                </g>
               <g id="resetDef">
                       <use xlink:href="#rim2" fill="#404040">
                               <set attributeName="fill" to="#808080" begin="reset.mouseover" end="reset.mouseout"/>
                       </use>
               </g>
        </defs>

<script type="text/javascript">
var viewWidth = 807;
var viewHeight = 241;
var sectionId = 'dynsection-4';
</script>
<script xlink:href="../../svgpan.js"/>
<svg id="graph" class="graph">
<g id="viewport">
<title>mom_tracer_flow_control::call_tracer_stocks</title>
<polygon fill="white" stroke="none" points="-4,4 -4,-237 803,-237 803,4 -4,4"/>
<!-- Node17 -->
<g id="node1" class="node"><title>Node17</title>
<polygon fill="#bfbfbf" stroke="black" points="0,-82.5 0,-112.5 107,-112.5 107,-82.5 0,-82.5"/>
<text text-anchor="start" x="8" y="-100.5" font-family="Helvetica,sans-Serif" font-size="10.00">mom_tracer_flow_control</text>
<text text-anchor="middle" x="53.5" y="-89.5" font-family="Helvetica,sans-Serif" font-size="10.00">::call_tracer_stocks</text>
</g>
<!-- Node18 -->
<g id="node2" class="node"><title>Node18</title>
<g id="a_node2"><a xlink:href="../../de/def/namespaceregional__dyes.html#a0641ff9c663bcfacdd597a79f63d15e0" target="_top" xlink:title="regional_dyes::dye\l_stock">
<polygon fill="white" stroke="black" points="156,-202.5 156,-232.5 239,-232.5 239,-202.5 156,-202.5"/>
<text text-anchor="start" x="164" y="-220.5" font-family="Helvetica,sans-Serif" font-size="10.00">regional_dyes::dye</text>
<text text-anchor="middle" x="197.5" y="-209.5" font-family="Helvetica,sans-Serif" font-size="10.00">_stock</text>
</a>
</g>
</g>
<!-- Node17&#45;&gt;Node18 -->
<g id="edge1" class="edge"><title>Node17&#45;&gt;Node18</title>
<path fill="none" stroke="midnightblue" d="M65.2785,-112.588C80.5946,-133.142 110.435,-170.061 143,-193.5 144.846,-194.829 146.778,-196.108 148.765,-197.337"/>
<polygon fill="midnightblue" stroke="midnightblue" points="147.321,-200.54 157.752,-202.396 150.755,-194.441 147.321,-200.54"/>
</g>
<!-- Node19 -->
<g id="node3" class="node"><title>Node19</title>
<g id="a_node3"><a xlink:href="../../d6/dcd/namespaceideal__age__example.html#a2300d82e30802a3127f4a63277d37776" target="_top" xlink:title="ideal_age_example::\lideal_age_stock">
<polygon fill="white" stroke="black" points="152.5,-153.5 152.5,-183.5 242.5,-183.5 242.5,-153.5 152.5,-153.5"/>
<text text-anchor="start" x="160.5" y="-171.5" font-family="Helvetica,sans-Serif" font-size="10.00">ideal_age_example::</text>
<text text-anchor="middle" x="197.5" y="-160.5" font-family="Helvetica,sans-Serif" font-size="10.00">ideal_age_stock</text>
</a>
</g>
</g>
<!-- Node17&#45;&gt;Node19 -->
<g id="edge2" class="edge"><title>Node17&#45;&gt;Node19</title>
<path fill="none" stroke="midnightblue" d="M81.7643,-112.583C99.1402,-122.044 122.216,-134.333 143,-144.5 146.159,-146.045 149.44,-147.611 152.752,-149.162"/>
<polygon fill="midnightblue" stroke="midnightblue" points="151.547,-152.461 162.094,-153.472 154.48,-146.105 151.547,-152.461"/>
</g>
<!-- Node22 -->
<g id="node6" class="node"><title>Node22</title>
<g id="a_node6"><a xlink:href="../../d0/de6/namespacemom__error__handler.html#a460cfb79a06c29fc249952c2a3710d67" target="_top" xlink:title="mom_error_handler::\lmom_error">
<polygon fill="white" stroke="black" points="577,-60.5 577,-90.5 670,-90.5 670,-60.5 577,-60.5"/>
<text text-anchor="start" x="585" y="-78.5" font-family="Helvetica,sans-Serif" font-size="10.00">mom_error_handler::</text>
<text text-anchor="middle" x="623.5" y="-67.5" font-family="Helvetica,sans-Serif" font-size="10.00">mom_error</text>
</a>
</g>
</g>
<!-- Node17&#45;&gt;Node22 -->
<g id="edge7" class="edge"><title>Node17&#45;&gt;Node22</title>
<path fill="none" stroke="midnightblue" d="M107.172,-95.4599C214.275,-91.3115 456.588,-81.9262 566.46,-77.6705"/>
<polygon fill="midnightblue" stroke="midnightblue" points="566.814,-81.1596 576.671,-77.2751 566.543,-74.1648 566.814,-81.1596"/>
</g>
<!-- Node24 -->
<g id="node8" class="node"><title>Node24</title>
<g id="a_node8"><a xlink:href="../../d6/dd2/namespacemom__ocmip2__cfc.html#ac3c9967ff09b37934eb5ef51535e7ee3" target="_top" xlink:title="mom_ocmip2_cfc::ocmip2\l_cfc_stock">
<polygon fill="white" stroke="black" points="143,-104.5 143,-134.5 252,-134.5 252,-104.5 143,-104.5"/>
<text text-anchor="start" x="151" y="-122.5" font-family="Helvetica,sans-Serif" font-size="10.00">mom_ocmip2_cfc::ocmip2</text>
<text text-anchor="middle" x="197.5" y="-111.5" font-family="Helvetica,sans-Serif" font-size="10.00">_cfc_stock</text>
</a>
</g>
</g>
<!-- Node17&#45;&gt;Node24 -->
<g id="edge8" class="edge"><title>Node17&#45;&gt;Node24</title>
<path fill="none" stroke="midnightblue" d="M107.376,-105.692C115.56,-106.96 124.089,-108.281 132.487,-109.582"/>
<polygon fill="midnightblue" stroke="midnightblue" points="132.214,-113.082 142.632,-111.154 133.286,-106.164 132.214,-113.082"/>
</g>
<!-- Node25 -->
<g id="node9" class="node"><title>Node25</title>
<g id="a_node9"><a xlink:href="../../de/d98/namespaceoil__tracer.html#ac8964b16549dba8fc850e4af15af8029" target="_top" xlink:title="oil_tracer::oil_stock">
<polygon fill="white" stroke="black" points="155.5,-28 155.5,-47 239.5,-47 239.5,-28 155.5,-28"/>
<text text-anchor="middle" x="197.5" y="-35" font-family="Helvetica,sans-Serif" font-size="10.00">oil_tracer::oil_stock</text>
</a>
</g>
</g>
<!-- Node17&#45;&gt;Node25 -->
<g id="edge10" class="edge"><title>Node17&#45;&gt;Node25</title>
<path fill="none" stroke="midnightblue" d="M90.3326,-82.3595C113.235,-72.6824 142.669,-60.2457 164.733,-50.9226"/>
<polygon fill="midnightblue" stroke="midnightblue" points="166.15,-54.1234 174,-47.0072 163.426,-47.6754 166.15,-54.1234"/>
</g>
<!-- Node26 -->
<g id="node10" class="node"><title>Node26</title>
<g id="a_node10"><a xlink:href="../../d1/d99/namespacemom__tracer__flow__control.html#ad43ea30fa52fcb930db39037f5d7e6b9" target="_top" xlink:title="mom_tracer_flow_control\l::store_stocks">
<polygon fill="white" stroke="black" points="288,-0.5 288,-30.5 395,-30.5 395,-0.5 288,-0.5"/>
<text text-anchor="start" x="296" y="-18.5" font-family="Helvetica,sans-Serif" font-size="10.00">mom_tracer_flow_control</text>
<text text-anchor="middle" x="341.5" y="-7.5" font-family="Helvetica,sans-Serif" font-size="10.00">::store_stocks</text>
</a>
</g>
</g>
<!-- Node17&#45;&gt;Node26 -->
<g id="edge11" class="edge"><title>Node17&#45;&gt;Node26</title>
<path fill="none" stroke="midnightblue" d="M65.6473,-82.3853C80.7275,-63.3399 109.614,-31.5246 143,-18.5 185.761,-1.81792 237.797,-1.76006 277.72,-5.50295"/>
<polygon fill="midnightblue" stroke="midnightblue" points="277.548,-9.00384 287.857,-6.55834 278.273,-2.04147 277.548,-9.00384"/>
</g>
<!-- Node20 -->
<g id="node4" class="node"><title>Node20</title>
<g id="a_node4"><a xlink:href="../../d5/d89/namespacemom__io.html#a23e82d1d89d9bb1c9bdf802ce80d4508" target="_top" xlink:title="This routine queries vardesc. ">
<polygon fill="white" stroke="black" points="290.5,-110 290.5,-129 392.5,-129 392.5,-110 290.5,-110"/>
<text text-anchor="middle" x="341.5" y="-117" font-family="Helvetica,sans-Serif" font-size="10.00">mom_io::query_vardesc</text>
</a>
</g>
</g>
<!-- Node19&#45;&gt;Node20 -->
<g id="edge3" class="edge"><title>Node19&#45;&gt;Node20</title>
<path fill="none" stroke="midnightblue" d="M242.263,-153.399C261.743,-146.677 284.446,-138.843 303.117,-132.4"/>
<polygon fill="midnightblue" stroke="midnightblue" points="304.44,-135.646 312.751,-129.075 302.156,-129.029 304.44,-135.646"/>
</g>
<!-- Node21 -->
<g id="node5" class="node"><title>Node21</title>
<g id="a_node5"><a xlink:href="../../d5/d89/namespacemom__io.html#ac4bc408e8b38dbd669842753f26ebf88" target="_top" xlink:title="Copies a string. ">
<polygon fill="white" stroke="black" points="431,-107 431,-126 541,-126 541,-107 431,-107"/>
<text text-anchor="middle" x="486" y="-114" font-family="Helvetica,sans-Serif" font-size="10.00">mom_io::safe_string_copy</text>
</a>
</g>
</g>
<!-- Node20&#45;&gt;Node21 -->
<g id="edge4" class="edge"><title>Node20&#45;&gt;Node21</title>
<path fill="none" stroke="midnightblue" d="M392.74,-118.442C401.802,-118.252 411.363,-118.05 420.759,-117.852"/>
<polygon fill="midnightblue" stroke="midnightblue" points="420.934,-121.35 430.859,-117.64 420.787,-114.351 420.934,-121.35"/>
</g>
<!-- Node21&#45;&gt;Node22 -->
<g id="edge5" class="edge"><title>Node21&#45;&gt;Node22</title>
<path fill="none" stroke="midnightblue" d="M518.427,-106.991C532.935,-102.601 550.599,-97.256 567.225,-92.2254"/>
<polygon fill="midnightblue" stroke="midnightblue" points="568.304,-95.5555 576.862,-89.3093 566.277,-88.8555 568.304,-95.5555"/>
</g>
<!-- Node23 -->
<g id="node7" class="node"><title>Node23</title>
<g id="a_node7"><a xlink:href="../../d0/de6/namespacemom__error__handler.html#ad5f00a53059c72fe2332d1436c80ca71" target="_top" xlink:title="mom_error_handler::\lis_root_pe">
<polygon fill="white" stroke="black" points="706,-60.5 706,-90.5 799,-90.5 799,-60.5 706,-60.5"/>
<text text-anchor="start" x="714" y="-78.5" font-family="Helvetica,sans-Serif" font-size="10.00">mom_error_handler::</text>
<text text-anchor="middle" x="752.5" y="-67.5" font-family="Helvetica,sans-Serif" font-size="10.00">is_root_pe</text>
</a>
</g>
</g>
<!-- Node22&#45;&gt;Node23 -->
<g id="edge6" class="edge"><title>Node22&#45;&gt;Node23</title>
<path fill="none" stroke="midnightblue" d="M670.35,-75.5C678.533,-75.5 687.141,-75.5 695.568,-75.5"/>
<polygon fill="midnightblue" stroke="midnightblue" points="695.717,-79.0001 705.717,-75.5 695.717,-72.0001 695.717,-79.0001"/>
</g>
<!-- Node24&#45;&gt;Node20 -->
<g id="edge9" class="edge"><title>Node24&#45;&gt;Node20</title>
<path fill="none" stroke="midnightblue" d="M252.184,-119.5C261.412,-119.5 271.056,-119.5 280.439,-119.5"/>
<polygon fill="midnightblue" stroke="midnightblue" points="280.486,-123 290.486,-119.5 280.486,-116 280.486,-123"/>
</g>
<!-- Node26&#45;&gt;Node22 -->
<g id="edge12" class="edge"><title>Node26&#45;&gt;Node22</title>
<path fill="none" stroke="midnightblue" d="M395.166,-26.7855C444.074,-37.2658 516.658,-52.8195 566.582,-63.5176"/>
<polygon fill="midnightblue" stroke="midnightblue" points="566.051,-66.9832 576.563,-65.6563 567.518,-60.1386 566.051,-66.9832"/>
</g>
</g>
</svg>
        <g id="navigator" transform="translate(0 0)" fill="#404254">
                <rect fill="#f2f5e9" fill-opacity="0.5" stroke="#606060" stroke-width=".5" x="0" y="0" width="60" height="60"/>
                <use id="zoomplus" xlink:href="#zoomPlus" x="17" y="9" onmousedown="handleZoom(evt,'in')"/>
                <use id="zoomminus" xlink:href="#zoomMin" x="42" y="9" onmousedown="handleZoom(evt,'out')"/>
                <use id="reset" xlink:href="#resetDef" x="30" y="36" onmousedown="handleReset()"/>
                <g id="arrowUp" xlink:href="#dirArrow" transform="translate(30 24)" onmousedown="handlePan(0,-1)">
                  <use xlink:href="#rim" fill="#404040">
                        <set attributeName="fill" to="#808080" begin="arrowUp.mouseover" end="arrowUp.mouseout"/>
                  </use>
                  <path fill="none" stroke="white" stroke-width="1.5" d="M0,-3.0v7 M-2.5,-0.5L0,-3.0L2.5,-0.5"/>
                </g>
                <g id="arrowRight" xlink:href="#dirArrow" transform="rotate(90) translate(36 -43)" onmousedown="handlePan(1,0)">
                  <use xlink:href="#rim" fill="#404040">
                        <set attributeName="fill" to="#808080" begin="arrowRight.mouseover" end="arrowRight.mouseout"/>
                  </use>
                  <path fill="none" stroke="white" stroke-width="1.5" d="M0,-3.0v7 M-2.5,-0.5L0,-3.0L2.5,-0.5"/>
                </g>
                <g id="arrowDown" xlink:href="#dirArrow" transform="rotate(180) translate(-30 -48)" onmousedown="handlePan(0,1)">
                  <use xlink:href="#rim" fill="#404040">
                        <set attributeName="fill" to="#808080" begin="arrowDown.mouseover" end="arrowDown.mouseout"/>
                  </use>
                  <path fill="none" stroke="white" stroke-width="1.5" d="M0,-3.0v7 M-2.5,-0.5L0,-3.0L2.5,-0.5"/>
                </g>
                <g id="arrowLeft" xlink:href="#dirArrow" transform="rotate(270) translate(-36 17)" onmousedown="handlePan(-1,0)">
                  <use xlink:href="#rim" fill="#404040">
                        <set attributeName="fill" to="#808080" begin="arrowLeft.mouseover" end="arrowLeft.mouseout"/>
                  </use>
                  <path fill="none" stroke="white" stroke-width="1.5" d="M0,-3.0v7 M-2.5,-0.5L0,-3.0L2.5,-0.5"/>
                </g>
        </g>
        <svg viewBox="0 0 15 15" width="100%" height="30px" preserveAspectRatio="xMaxYMin meet">
         <g id="arrow_out" transform="scale(0.3 0.3)">
          <a xlink:href="namespacemom__tracer__flow__control_afd8526344e928c8c9505c921bf37447f_cgraph_org.svg" target="_base">
           <rect id="button" ry="5" rx="5" y="6" x="6" height="38" width="38"
                fill="#f2f5e9" fill-opacity="0.5" stroke="#606060" stroke-width="1.0"/>
           <path id="arrow"
             d="M 11.500037,31.436501 C 11.940474,20.09759 22.043105,11.32322 32.158766,21.979434 L 37.068811,17.246167 C 37.068811,17.246167 37.088388,32 37.088388,32 L 22.160133,31.978069 C 22.160133,31.978069 26.997745,27.140456 26.997745,27.140456 C 18.528582,18.264221 13.291696,25.230495 11.500037,31.436501 z"
             style="fill:#404040;"/>
          </a>
         </g>
        </svg>
</svg>
