<?xml version="1.0" encoding="UTF-8" standalone="no"?>
<!DOCTYPE svg PUBLIC "-//W3C//DTD SVG 1.1//EN"
 "http://www.w3.org/Graphics/SVG/1.1/DTD/svg11.dtd">
<!-- Generated by graphviz version 2.38.0 (20140413.2041)
 -->
<!-- Title: mom_tracer_flow_control::store_stocks Pages: 1 -->
<svg width="489pt" height="39pt"
 viewBox="0.00 0.00 489.00 39.00" xmlns="http://www.w3.org/2000/svg" xmlns:xlink="http://www.w3.org/1999/xlink">
<g id="graph0" class="graph" transform="scale(1 1) rotate(0) translate(4 35)">
<title>mom_tracer_flow_control::store_stocks</title>
<polygon fill="white" stroke="none" points="-4,4 -4,-35 485,-35 485,4 -4,4"/>
<!-- Node47 -->
<g id="node1" class="node"><title>Node47</title>
<polygon fill="#bfbfbf" stroke="black" points="0,-0.5 0,-30.5 107,-30.5 107,-0.5 0,-0.5"/>
<text text-anchor="start" x="8" y="-18.5" font-family="Helvetica,sans-Serif" font-size="10.00">mom_tracer_flow_control</text>
<text text-anchor="middle" x="53.5" y="-7.5" font-family="Helvetica,sans-Serif" font-size="10.00">::store_stocks</text>
</g>
<!-- Node48 -->
<g id="node2" class="node"><title>Node48</title>
<g id="a_node2"><a xlink:href="../../d1/d99/namespacemom__tracer__flow__control.html#afd8526344e928c8c9505c921bf37447f" target="_top" xlink:title="mom_tracer_flow_control\l::call_tracer_stocks">
<polygon fill="white" stroke="black" points="143,-0.5 143,-30.5 250,-30.5 250,-0.5 143,-0.5"/>
<text text-anchor="start" x="151" y="-18.5" font-family="Helvetica,sans-Serif" font-size="10.00">mom_tracer_flow_control</text>
<text text-anchor="middle" x="196.5" y="-7.5" font-family="Helvetica,sans-Serif" font-size="10.00">::call_tracer_stocks</text>
</a>
</g>
</g>
<!-- Node47&#45;&gt;Node48 -->
<g id="edge1" class="edge"><title>Node47&#45;&gt;Node48</title>
<path fill="none" stroke="midnightblue" d="M117.05,-15.5C125.7,-15.5 134.51,-15.5 142.953,-15.5"/>
<polygon fill="midnightblue" stroke="midnightblue" points="117.003,-12.0001 107.003,-15.5 117.003,-19.0001 117.003,-12.0001"/>
</g>
<!-- Node49 -->
<g id="node3" class="node"><title>Node49</title>
<g id="a_node3"><a xlink:href="../../d6/d28/namespacemom__sum__output.html#aef94e597f85f3ee439b2ddc2b46a043a" target="_top" xlink:title="mom_sum_output::write\l_energy">
<polygon fill="white" stroke="black" points="286,-0.5 286,-30.5 389,-30.5 389,-0.5 286,-0.5"/>
<text text-anchor="start" x="294" y="-18.5" font-family="Helvetica,sans-Serif" font-size="10.00">mom_sum_output::write</text>
<text text-anchor="middle" x="337.5" y="-7.5" font-family="Helvetica,sans-Serif" font-size="10.00">_energy</text>
</a>
</g>
</g>
<!-- Node48&#45;&gt;Node49 -->
<g id="edge2" class="edge"><title>Node48&#45;&gt;Node49</title>
<path fill="none" stroke="midnightblue" d="M260.32,-15.5C268.822,-15.5 277.459,-15.5 285.715,-15.5"/>
<polygon fill="midnightblue" stroke="midnightblue" points="260.05,-12.0001 250.05,-15.5 260.05,-19.0001 260.05,-12.0001"/>
</g>
<!-- Node50 -->
<g id="node4" class="node"><title>Node50</title>
<g id="a_node4"><a xlink:href="../../de/dbc/MOM__driver_8F90.html#a08fffeb2d8e8acbf9ed4609be6d258c6" target="_top" xlink:title="mom_main">
<polygon fill="white" stroke="black" points="425,-6 425,-25 481,-25 481,-6 425,-6"/>
<text text-anchor="middle" x="453" y="-13" font-family="Helvetica,sans-Serif" font-size="10.00">mom_main</text>
</a>
</g>
</g>
<!-- Node49&#45;&gt;Node50 -->
<g id="edge3" class="edge"><title>Node49&#45;&gt;Node50</title>
<path fill="none" stroke="midnightblue" d="M399.382,-15.5C408.325,-15.5 417.131,-15.5 424.904,-15.5"/>
<polygon fill="midnightblue" stroke="midnightblue" points="399.275,-12.0001 389.275,-15.5 399.274,-19.0001 399.275,-12.0001"/>
</g>
</g>
</svg>
