<?xml version="1.0" encoding="UTF-8" standalone="no"?>
<!DOCTYPE svg PUBLIC "-//W3C//DTD SVG 1.1//EN"
 "http://www.w3.org/Graphics/SVG/1.1/DTD/svg11.dtd">
<!-- Generated by graphviz version 2.38.0 (20140413.2041)
 -->
<!-- Title: mom_tracer_flow_control::tracer_flow_control_end Pages: 1 -->
<svg width="282pt" height="313pt"
 viewBox="0.00 0.00 282.00 313.00" xmlns="http://www.w3.org/2000/svg" xmlns:xlink="http://www.w3.org/1999/xlink">
<g id="graph0" class="graph" transform="scale(1 1) rotate(0) translate(4 309)">
<title>mom_tracer_flow_control::tracer_flow_control_end</title>
<polygon fill="white" stroke="none" points="-4,4 -4,-309 278,-309 278,4 -4,4"/>
<!-- Node51 -->
<g id="node1" class="node"><title>Node51</title>
<polygon fill="#bfbfbf" stroke="black" points="0,-137.5 0,-167.5 107,-167.5 107,-137.5 0,-137.5"/>
<text text-anchor="start" x="8" y="-155.5" font-family="Helvetica,sans-Serif" font-size="10.00">mom_tracer_flow_control</text>
<text text-anchor="middle" x="53.5" y="-144.5" font-family="Helvetica,sans-Serif" font-size="10.00">::tracer_flow_control_end</text>
</g>
<!-- Node52 -->
<g id="node2" class="node"><title>Node52</title>
<g id="a_node2"><a xlink:href="../../d8/dc2/namespaceadvection__test__tracer.html#aba7ee03a503e5f5518cc364c223ba693" target="_top" xlink:title="advection_test_tracer\l::advection_test_tracer_end">
<polygon fill="white" stroke="black" points="150.5,-274.5 150.5,-304.5 266.5,-304.5 266.5,-274.5 150.5,-274.5"/>
<text text-anchor="start" x="158.5" y="-292.5" font-family="Helvetica,sans-Serif" font-size="10.00">advection_test_tracer</text>
<text text-anchor="middle" x="208.5" y="-281.5" font-family="Helvetica,sans-Serif" font-size="10.00">::advection_test_tracer_end</text>
</a>
</g>
</g>
<!-- Node51&#45;&gt;Node52 -->
<g id="edge1" class="edge"><title>Node51&#45;&gt;Node52</title>
<path fill="none" stroke="midnightblue" d="M62.858,-167.668C76.645,-191.407 106.314,-237.418 143,-264.5 145.48,-266.331 148.112,-268.046 150.839,-269.651"/>
<polygon fill="midnightblue" stroke="midnightblue" points="149.334,-272.814 159.809,-274.402 152.611,-266.628 149.334,-272.814"/>
</g>
<!-- Node53 -->
<g id="node3" class="node"><title>Node53</title>
<g id="a_node3"><a xlink:href="../../d2/d4c/namespacedome__tracer.html#a6604ab13177c5fb4a0dd8b43a17b4649" target="_top" xlink:title="dome_tracer::dome_tracer_end">
<polygon fill="white" stroke="black" points="143,-236 143,-255 274,-255 274,-236 143,-236"/>
<text text-anchor="middle" x="208.5" y="-243" font-family="Helvetica,sans-Serif" font-size="10.00">dome_tracer::dome_tracer_end</text>
</a>
</g>
</g>
<!-- Node51&#45;&gt;Node53 -->
<g id="edge2" class="edge"><title>Node51&#45;&gt;Node53</title>
<path fill="none" stroke="midnightblue" d="M68.7553,-167.69C85.1783,-184.354 113.688,-210.811 143,-226.5 147.217,-228.757 151.735,-230.778 156.352,-232.581"/>
<polygon fill="midnightblue" stroke="midnightblue" points="155.305,-235.923 165.899,-235.981 157.653,-229.329 155.305,-235.923"/>
</g>
<!-- Node54 -->
<g id="node4" class="node"><title>Node54</title>
<g id="a_node4"><a xlink:href="../../d6/dcd/namespaceideal__age__example.html#aa60b31c0f0a31db75ba3522f52c8d648" target="_top" xlink:title="ideal_age_example::\lideal_age_example_end">
<polygon fill="white" stroke="black" points="156.5,-186.5 156.5,-216.5 260.5,-216.5 260.5,-186.5 156.5,-186.5"/>
<text text-anchor="start" x="164.5" y="-204.5" font-family="Helvetica,sans-Serif" font-size="10.00">ideal_age_example::</text>
<text text-anchor="middle" x="208.5" y="-193.5" font-family="Helvetica,sans-Serif" font-size="10.00">ideal_age_example_end</text>
</a>
</g>
</g>
<!-- Node51&#45;&gt;Node54 -->
<g id="edge3" class="edge"><title>Node51&#45;&gt;Node54</title>
<path fill="none" stroke="midnightblue" d="M101.653,-167.601C117.141,-172.562 134.52,-178.127 150.649,-183.293"/>
<polygon fill="midnightblue" stroke="midnightblue" points="149.911,-186.732 160.502,-186.448 152.046,-180.065 149.911,-186.732"/>
</g>
<!-- Node55 -->
<g id="node5" class="node"><title>Node55</title>
<g id="a_node5"><a xlink:href="../../d6/dd2/namespacemom__ocmip2__cfc.html#a225d2a7eacb485040fcac7f9b6766ee1" target="_top" xlink:title="mom_ocmip2_cfc::ocmip2\l_cfc_end">
<polygon fill="white" stroke="black" points="154,-137.5 154,-167.5 263,-167.5 263,-137.5 154,-137.5"/>
<text text-anchor="start" x="162" y="-155.5" font-family="Helvetica,sans-Serif" font-size="10.00">mom_ocmip2_cfc::ocmip2</text>
<text text-anchor="middle" x="208.5" y="-144.5" font-family="Helvetica,sans-Serif" font-size="10.00">_cfc_end</text>
</a>
</g>
</g>
<!-- Node51&#45;&gt;Node55 -->
<g id="edge4" class="edge"><title>Node51&#45;&gt;Node55</title>
<path fill="none" stroke="midnightblue" d="M107.154,-152.5C118.972,-152.5 131.634,-152.5 143.846,-152.5"/>
<polygon fill="midnightblue" stroke="midnightblue" points="143.97,-156 153.97,-152.5 143.97,-149 143.97,-156"/>
</g>
<!-- Node56 -->
<g id="node6" class="node"><title>Node56</title>
<g id="a_node6"><a xlink:href="../../de/d98/namespaceoil__tracer.html#a428f70692e0f8a537b73e24ada1e5357" target="_top" xlink:title="oil_tracer::oil_tracer_end">
<polygon fill="white" stroke="black" points="156,-99 156,-118 261,-118 261,-99 156,-99"/>
<text text-anchor="middle" x="208.5" y="-106" font-family="Helvetica,sans-Serif" font-size="10.00">oil_tracer::oil_tracer_end</text>
</a>
</g>
</g>
<!-- Node51&#45;&gt;Node56 -->
<g id="edge5" class="edge"><title>Node51&#45;&gt;Node56</title>
<path fill="none" stroke="midnightblue" d="M106.726,-137.481C125.571,-132.061 146.608,-126.011 164.567,-120.847"/>
<polygon fill="midnightblue" stroke="midnightblue" points="165.551,-124.206 174.194,-118.078 163.616,-117.478 165.551,-124.206"/>
</g>
<!-- Node57 -->
<g id="node7" class="node"><title>Node57</title>
<g id="a_node7"><a xlink:href="../../de/def/namespaceregional__dyes.html#a6cd17eb6c648ec6c2a7a43de383846be" target="_top" xlink:title="regional_dyes::regional\l_dyes_end">
<polygon fill="white" stroke="black" points="159,-49.5 159,-79.5 258,-79.5 258,-49.5 159,-49.5"/>
<text text-anchor="start" x="167" y="-67.5" font-family="Helvetica,sans-Serif" font-size="10.00">regional_dyes::regional</text>
<text text-anchor="middle" x="208.5" y="-56.5" font-family="Helvetica,sans-Serif" font-size="10.00">_dyes_end</text>
</a>
</g>
</g>
<!-- Node51&#45;&gt;Node57 -->
<g id="edge6" class="edge"><title>Node51&#45;&gt;Node57</title>
<path fill="none" stroke="midnightblue" d="M72.9393,-137.294C90.2499,-123.537 117.265,-103.366 143,-89.5 146.747,-87.4813 150.692,-85.5424 154.709,-83.6999"/>
<polygon fill="midnightblue" stroke="midnightblue" points="156.385,-86.7877 164.154,-79.5836 153.588,-80.3707 156.385,-86.7877"/>
</g>
<!-- Node58 -->
<g id="node8" class="node"><title>Node58</title>
<g id="a_node8"><a xlink:href="../../df/db5/namespaceuser__tracer__example.html#a800285abb2c731b52159ebcc476b9174" target="_top" xlink:title="user_tracer_example\l::user_tracer_example_end">
<polygon fill="white" stroke="black" points="151,-0.5 151,-30.5 266,-30.5 266,-0.5 151,-0.5"/>
<text text-anchor="start" x="159" y="-18.5" font-family="Helvetica,sans-Serif" font-size="10.00">user_tracer_example</text>
<text text-anchor="middle" x="208.5" y="-7.5" font-family="Helvetica,sans-Serif" font-size="10.00">::user_tracer_example_end</text>
</a>
</g>
</g>
<!-- Node51&#45;&gt;Node58 -->
<g id="edge7" class="edge"><title>Node51&#45;&gt;Node58</title>
<path fill="none" stroke="midnightblue" d="M62.858,-137.332C76.645,-113.593 106.314,-67.5822 143,-40.5 145.48,-38.6689 148.112,-36.9536 150.839,-35.3494"/>
<polygon fill="midnightblue" stroke="midnightblue" points="152.611,-38.3718 159.809,-30.5978 149.334,-32.1862 152.611,-38.3718"/>
</g>
</g>
</svg>
