<?xml version="1.0" encoding="UTF-8" standalone="no"?>
<!DOCTYPE svg PUBLIC "-//W3C//DTD SVG 1.1//EN"
 "http://www.w3.org/Graphics/SVG/1.1/DTD/svg11.dtd">
<!-- Generated by graphviz version 2.38.0 (20140413.2041)
 -->
<!-- Title: mom_tracer_flow_control::call_tracer_column_fns Pages: 1 -->
<svg width="447pt" height="88pt"
 viewBox="0.00 0.00 447.00 88.00" xmlns="http://www.w3.org/2000/svg" xmlns:xlink="http://www.w3.org/1999/xlink">
<g id="graph0" class="graph" transform="scale(1 1) rotate(0) translate(4 84)">
<title>mom_tracer_flow_control::call_tracer_column_fns</title>
<polygon fill="white" stroke="none" points="-4,4 -4,-84 443,-84 443,4 -4,4"/>
<!-- Node3 -->
<g id="node1" class="node"><title>Node3</title>
<polygon fill="#bfbfbf" stroke="black" points="0,-24.5 0,-54.5 107,-54.5 107,-24.5 0,-24.5"/>
<text text-anchor="start" x="8" y="-42.5" font-family="Helvetica,sans-Serif" font-size="10.00">mom_tracer_flow_control</text>
<text text-anchor="middle" x="53.5" y="-31.5" font-family="Helvetica,sans-Serif" font-size="10.00">::call_tracer_column_fns</text>
</g>
<!-- Node4 -->
<g id="node2" class="node"><title>Node4</title>
<g id="a_node2"><a xlink:href="../../d8/df3/namespacemom__diabatic__driver.html#a1524abcabaf6ccb0be7da294b0968984" target="_top" xlink:title="Routine called for adiabatic physics. ">
<polygon fill="white" stroke="black" points="143,-49.5 143,-79.5 234,-79.5 234,-49.5 143,-49.5"/>
<text text-anchor="start" x="151" y="-67.5" font-family="Helvetica,sans-Serif" font-size="10.00">mom_diabatic_driver</text>
<text text-anchor="middle" x="188.5" y="-56.5" font-family="Helvetica,sans-Serif" font-size="10.00">::adiabatic</text>
</a>
</g>
</g>
<!-- Node3&#45;&gt;Node4 -->
<g id="edge1" class="edge"><title>Node3&#45;&gt;Node4</title>
<path fill="none" stroke="midnightblue" d="M117.1,-51.2668C125.711,-52.8856 134.411,-54.5208 142.617,-56.0634"/>
<polygon fill="midnightblue" stroke="midnightblue" points="117.54,-47.7883 107.065,-49.3807 116.246,-54.6678 117.54,-47.7883"/>
</g>
<!-- Node7 -->
<g id="node5" class="node"><title>Node7</title>
<g id="a_node5"><a xlink:href="../../d8/df3/namespacemom__diabatic__driver.html#a61e57d3902367aa46aa3c2d949ee900f" target="_top" xlink:title="This subroutine imposes the diapycnal mass fluxes and the accompanying diapycnal advection of momentu...">
<polygon fill="white" stroke="black" points="143,-0.5 143,-30.5 234,-30.5 234,-0.5 143,-0.5"/>
<text text-anchor="start" x="151" y="-18.5" font-family="Helvetica,sans-Serif" font-size="10.00">mom_diabatic_driver</text>
<text text-anchor="middle" x="188.5" y="-7.5" font-family="Helvetica,sans-Serif" font-size="10.00">::diabatic</text>
</a>
</g>
</g>
<!-- Node3&#45;&gt;Node7 -->
<g id="edge4" class="edge"><title>Node3&#45;&gt;Node7</title>
<path fill="none" stroke="midnightblue" d="M117.1,-28.2038C125.711,-26.6498 134.411,-25.08 142.617,-23.5992"/>
<polygon fill="midnightblue" stroke="midnightblue" points="116.285,-24.7943 107.065,-30.0146 117.528,-31.683 116.285,-24.7943"/>
</g>
<!-- Node5 -->
<g id="node3" class="node"><title>Node5</title>
<g id="a_node3"><a xlink:href="../../da/d01/namespacemom.html#a4c8332b095c6d295084089aa6b3b678a" target="_top" xlink:title="This subroutine orchestrates the time stepping of MOM. The adiabatic dynamics are stepped by calls to...">
<polygon fill="white" stroke="black" points="270,-55 270,-74 347,-74 347,-55 270,-55"/>
<text text-anchor="middle" x="308.5" y="-62" font-family="Helvetica,sans-Serif" font-size="10.00">mom::step_mom</text>
</a>
</g>
</g>
<!-- Node4&#45;&gt;Node5 -->
<g id="edge2" class="edge"><title>Node4&#45;&gt;Node5</title>
<path fill="none" stroke="midnightblue" d="M244.17,-64.5C252.827,-64.5 261.608,-64.5 269.763,-64.5"/>
<polygon fill="midnightblue" stroke="midnightblue" points="244.111,-61.0001 234.111,-64.5 244.111,-68.0001 244.111,-61.0001"/>
</g>
<!-- Node6 -->
<g id="node4" class="node"><title>Node6</title>
<g id="a_node4"><a xlink:href="../../de/dbc/MOM__driver_8F90.html#a08fffeb2d8e8acbf9ed4609be6d258c6" target="_top" xlink:title="mom_main">
<polygon fill="white" stroke="black" points="383,-55 383,-74 439,-74 439,-55 383,-55"/>
<text text-anchor="middle" x="411" y="-62" font-family="Helvetica,sans-Serif" font-size="10.00">mom_main</text>
</a>
</g>
</g>
<!-- Node5&#45;&gt;Node6 -->
<g id="edge3" class="edge"><title>Node5&#45;&gt;Node6</title>
<path fill="none" stroke="midnightblue" d="M357.342,-64.5C366.067,-64.5 374.888,-64.5 382.751,-64.5"/>
<polygon fill="midnightblue" stroke="midnightblue" points="357.208,-61.0001 347.208,-64.5 357.208,-68.0001 357.208,-61.0001"/>
</g>
</g>
</svg>
