<?xml version="1.0" encoding="UTF-8" standalone="no"?>
<!DOCTYPE svg PUBLIC "-//W3C//DTD SVG 1.1//EN"
 "http://www.w3.org/Graphics/SVG/1.1/DTD/svg11.dtd">
<!-- Generated by graphviz version 2.38.0 (20140413.2041)
 -->
<!-- Title: mom_tracer_hor_diff::tracer_hor_diff_cs Pages: 1 -->
<svg width="501pt" height="205pt"
 viewBox="0.00 0.00 501.00 205.00" xmlns="http://www.w3.org/2000/svg" xmlns:xlink="http://www.w3.org/1999/xlink">
<g id="graph0" class="graph" transform="scale(1 1) rotate(0) translate(4 201)">
<title>mom_tracer_hor_diff::tracer_hor_diff_cs</title>
<polygon fill="white" stroke="none" points="-4,4 -4,-201 497,-201 497,4 -4,4"/>
<!-- Node1 -->
<g id="node1" class="node"><title>Node1</title>
<polygon fill="#bfbfbf" stroke="black" points="172,-0.5 172,-30.5 264,-30.5 264,-0.5 172,-0.5"/>
<text text-anchor="start" x="180" y="-18.5" font-family="Helvetica,sans-Serif" font-size="10.00">mom_tracer_hor_diff</text>
<text text-anchor="middle" x="218" y="-7.5" font-family="Helvetica,sans-Serif" font-size="10.00">::tracer_hor_diff_cs</text>
</g>
<!-- Node2 -->
<g id="node2" class="node"><title>Node2</title>
<polygon fill="white" stroke="#bfbfbf" points="0,-172 0,-191 38,-191 38,-172 0,-172"/>
<text text-anchor="middle" x="19" y="-179" font-family="Helvetica,sans-Serif" font-size="10.00">logical</text>
</g>
<!-- Node2&#45;&gt;Node1 -->
<g id="edge1" class="edge"><title>Node2&#45;&gt;Node1</title>
<path fill="none" stroke="#9a32cd" stroke-dasharray="5,2" d="M14.9145,-161.872C9.89154,-133.513 5.23143,-79.5869 34,-49 52.3354,-29.5058 123.473,-21.6396 171.73,-18.5106"/>
<polygon fill="#9a32cd" stroke="#9a32cd" points="11.4842,-162.568 16.8566,-171.699 18.3514,-161.21 11.4842,-162.568"/>
<text text-anchor="middle" x="72" y="-123.5" font-family="Helvetica,sans-Serif" font-size="10.00"> diffuse_ml_interior</text>
<text text-anchor="middle" x="72" y="-112.5" font-family="Helvetica,sans-Serif" font-size="10.00">first_call</text>
<text text-anchor="middle" x="72" y="-101.5" font-family="Helvetica,sans-Serif" font-size="10.00">show_call_tree</text>
<text text-anchor="middle" x="72" y="-90.5" font-family="Helvetica,sans-Serif" font-size="10.00">check_diffusive_cfl</text>
<text text-anchor="middle" x="72" y="-79.5" font-family="Helvetica,sans-Serif" font-size="10.00">debug</text>
<text text-anchor="middle" x="72" y="-68.5" font-family="Helvetica,sans-Serif" font-size="10.00">use_neutral_diffusion</text>
</g>
<!-- Node3 -->
<g id="node3" class="node"><title>Node3</title>
<polygon fill="white" stroke="#bfbfbf" points="67,-172 67,-191 145,-191 145,-172 67,-172"/>
<text text-anchor="middle" x="106" y="-179" font-family="Helvetica,sans-Serif" font-size="10.00">group_pass_type</text>
</g>
<!-- Node3&#45;&gt;Node1 -->
<g id="edge2" class="edge"><title>Node3&#45;&gt;Node1</title>
<path fill="none" stroke="#9a32cd" stroke-dasharray="5,2" d="M109.939,-161.944C116.57,-134.486 132.249,-82.6641 162,-49 168.551,-41.5878 177.215,-35.4311 185.766,-30.5427"/>
<polygon fill="#9a32cd" stroke="#9a32cd" points="106.504,-161.267 107.7,-171.794 113.329,-162.818 106.504,-161.267"/>
<text text-anchor="middle" x="175" y="-96" font-family="Helvetica,sans-Serif" font-size="10.00"> pass_t</text>
</g>
<!-- Node4 -->
<g id="node4" class="node"><title>Node4</title>
<polygon fill="white" stroke="#bfbfbf" points="163.5,-172 163.5,-191 210.5,-191 210.5,-172 163.5,-172"/>
<text text-anchor="middle" x="187" y="-179" font-family="Helvetica,sans-Serif" font-size="10.00">diag_ctrl</text>
</g>
<!-- Node4&#45;&gt;Node1 -->
<g id="edge3" class="edge"><title>Node4&#45;&gt;Node1</title>
<path fill="none" stroke="#9a32cd" stroke-dasharray="5,2" d="M189.519,-161.671C193.093,-136.035 200.189,-88.784 209,-49 210.342,-42.9408 212.116,-36.3274 213.733,-30.6575"/>
<polygon fill="#9a32cd" stroke="#9a32cd" points="186.018,-161.442 188.132,-171.824 192.954,-162.39 186.018,-161.442"/>
<text text-anchor="middle" x="218" y="-96" font-family="Helvetica,sans-Serif" font-size="10.00"> diag</text>
</g>
<!-- Node5 -->
<g id="node5" class="node"><title>Node5</title>
<polygon fill="white" stroke="#bfbfbf" points="228.5,-172 228.5,-191 269.5,-191 269.5,-172 228.5,-172"/>
<text text-anchor="middle" x="249" y="-179" font-family="Helvetica,sans-Serif" font-size="10.00">integer</text>
</g>
<!-- Node5&#45;&gt;Node1 -->
<g id="edge4" class="edge"><title>Node5&#45;&gt;Node1</title>
<path fill="none" stroke="#9a32cd" stroke-dasharray="5,2" d="M246.481,-161.671C242.907,-136.035 235.811,-88.784 227,-49 225.658,-42.9408 223.884,-36.3274 222.267,-30.6575"/>
<polygon fill="#9a32cd" stroke="#9a32cd" points="243.046,-162.39 247.868,-171.824 249.982,-161.442 243.046,-162.39"/>
<text text-anchor="middle" x="262" y="-112.5" font-family="Helvetica,sans-Serif" font-size="10.00"> id_cfl</text>
<text text-anchor="middle" x="262" y="-101.5" font-family="Helvetica,sans-Serif" font-size="10.00">id_khtr_h</text>
<text text-anchor="middle" x="262" y="-90.5" font-family="Helvetica,sans-Serif" font-size="10.00">id_khtr_u</text>
<text text-anchor="middle" x="262" y="-79.5" font-family="Helvetica,sans-Serif" font-size="10.00">id_khtr_v</text>
</g>
<!-- Node6 -->
<g id="node6" class="node"><title>Node6</title>
<polygon fill="white" stroke="#bfbfbf" points="287.5,-166.5 287.5,-196.5 380.5,-196.5 380.5,-166.5 287.5,-166.5"/>
<text text-anchor="start" x="295.5" y="-184.5" font-family="Helvetica,sans-Serif" font-size="10.00">type(neutral_diffusion</text>
<text text-anchor="middle" x="334" y="-173.5" font-family="Helvetica,sans-Serif" font-size="10.00">_cs), pointer</text>
</g>
<!-- Node6&#45;&gt;Node1 -->
<g id="edge5" class="edge"><title>Node6&#45;&gt;Node1</title>
<path fill="none" stroke="#9a32cd" stroke-dasharray="5,2" d="M325.752,-156.506C313.348,-120.88 290.539,-57.281 283,-49 276.035,-41.35 266.863,-35.2663 257.612,-30.5303"/>
<polygon fill="#9a32cd" stroke="#9a32cd" points="322.515,-157.856 329.096,-166.159 329.129,-155.564 322.515,-157.856"/>
<text text-anchor="middle" x="362" y="-96" font-family="Helvetica,sans-Serif" font-size="10.00"> neutral_diffusion_csp</text>
</g>
<!-- Node7 -->
<g id="node7" class="node"><title>Node7</title>
<polygon fill="white" stroke="#bfbfbf" points="409,-172 409,-191 439,-191 439,-172 409,-172"/>
<text text-anchor="middle" x="424" y="-179" font-family="Helvetica,sans-Serif" font-size="10.00">real</text>
</g>
<!-- Node7&#45;&gt;Node1 -->
<g id="edge6" class="edge"><title>Node7&#45;&gt;Node1</title>
<path fill="none" stroke="#9a32cd" stroke-dasharray="5,2" d="M426.937,-161.772C430.25,-133.245 431.786,-79.0571 402,-49 383.162,-29.9908 312.17,-21.9845 264.08,-18.6944"/>
<polygon fill="#9a32cd" stroke="#9a32cd" points="423.43,-161.59 425.544,-171.971 430.365,-162.537 423.43,-161.59"/>
<text text-anchor="middle" x="460.5" y="-140" font-family="Helvetica,sans-Serif" font-size="10.00"> khtr_slope_cff</text>
<text text-anchor="middle" x="460.5" y="-129" font-family="Helvetica,sans-Serif" font-size="10.00">ml_khtr_scale</text>
<text text-anchor="middle" x="460.5" y="-118" font-family="Helvetica,sans-Serif" font-size="10.00">khtr_passivity_min</text>
<text text-anchor="middle" x="460.5" y="-107" font-family="Helvetica,sans-Serif" font-size="10.00">khtr_max</text>
<text text-anchor="middle" x="460.5" y="-96" font-family="Helvetica,sans-Serif" font-size="10.00">khtr_min</text>
<text text-anchor="middle" x="460.5" y="-85" font-family="Helvetica,sans-Serif" font-size="10.00">khtr</text>
<text text-anchor="start" x="428" y="-74" font-family="Helvetica,sans-Serif" font-size="10.00">khtr_passivity</text>
<text text-anchor="middle" x="460.5" y="-63" font-family="Helvetica,sans-Serif" font-size="10.00">_coeff</text>
<text text-anchor="middle" x="460.5" y="-52" font-family="Helvetica,sans-Serif" font-size="10.00">dt</text>
</g>
</g>
</svg>
