<?xml version="1.0" encoding="UTF-8" standalone="no"?>
<!DOCTYPE svg PUBLIC "-//W3C//DTD SVG 1.1//EN"
 "http://www.w3.org/Graphics/SVG/1.1/DTD/svg11.dtd">
<!-- Generated by graphviz version 2.38.0 (20140413.2041)
 -->
<!-- Title: dome_initialization::dome_initialize_sponges Pages: 1 -->
<svg width="506pt" height="132pt"
 viewBox="0.00 0.00 506.00 132.00" xmlns="http://www.w3.org/2000/svg" xmlns:xlink="http://www.w3.org/1999/xlink">
<g id="graph0" class="graph" transform="scale(1 1) rotate(0) translate(4 128)">
<title>dome_initialization::dome_initialize_sponges</title>
<polygon fill="white" stroke="none" points="-4,4 -4,-128 502,-128 502,4 -4,4"/>
<!-- Node0 -->
<g id="node1" class="node"><title>Node0</title>
<polygon fill="#bfbfbf" stroke="black" points="0,-44.5 0,-74.5 107,-74.5 107,-44.5 0,-44.5"/>
<text text-anchor="start" x="8" y="-62.5" font-family="Helvetica,sans-Serif" font-size="10.00">dome_initialization</text>
<text text-anchor="middle" x="53.5" y="-51.5" font-family="Helvetica,sans-Serif" font-size="10.00">::dome_initialize_sponges</text>
</g>
<!-- Node1 -->
<g id="node2" class="node"><title>Node1</title>
<g id="a_node2"><a xlink:href="../../d8/da8/namespacemom__sponge.html#a61184539a8e8e9d27dd9071c509b68bf" target="_top" xlink:title="mom_sponge::initialize\l_sponge">
<polygon fill="white" stroke="black" points="143,-88.5 143,-118.5 240,-118.5 240,-88.5 143,-88.5"/>
<text text-anchor="start" x="151" y="-106.5" font-family="Helvetica,sans-Serif" font-size="10.00">mom_sponge::initialize</text>
<text text-anchor="middle" x="191.5" y="-95.5" font-family="Helvetica,sans-Serif" font-size="10.00">_sponge</text>
</a>
</g>
</g>
<!-- Node0&#45;&gt;Node1 -->
<g id="edge1" class="edge"><title>Node0&#45;&gt;Node1</title>
<path fill="none" stroke="midnightblue" d="M100.923,-74.5192C111.636,-77.9852 123.146,-81.7089 134.227,-85.2941"/>
<polygon fill="midnightblue" stroke="midnightblue" points="133.233,-88.6508 143.824,-88.3991 135.387,-81.9907 133.233,-88.6508"/>
</g>
<!-- Node2 -->
<g id="node3" class="node"><title>Node2</title>
<g id="a_node3"><a xlink:href="../../d0/de6/namespacemom__error__handler.html#a460cfb79a06c29fc249952c2a3710d67" target="_top" xlink:title="mom_error_handler::\lmom_error">
<polygon fill="white" stroke="black" points="276,-44.5 276,-74.5 369,-74.5 369,-44.5 276,-44.5"/>
<text text-anchor="start" x="284" y="-62.5" font-family="Helvetica,sans-Serif" font-size="10.00">mom_error_handler::</text>
<text text-anchor="middle" x="322.5" y="-51.5" font-family="Helvetica,sans-Serif" font-size="10.00">mom_error</text>
</a>
</g>
</g>
<!-- Node0&#45;&gt;Node2 -->
<g id="edge6" class="edge"><title>Node0&#45;&gt;Node2</title>
<path fill="none" stroke="midnightblue" d="M107.251,-59.5C153.029,-59.5 219.098,-59.5 265.739,-59.5"/>
<polygon fill="midnightblue" stroke="midnightblue" points="265.971,-63.0001 275.971,-59.5 265.971,-56.0001 265.971,-63.0001"/>
</g>
<!-- Node5 -->
<g id="node6" class="node"><title>Node5</title>
<g id="a_node6"><a xlink:href="../../d8/da8/namespacemom__sponge.html#af3da4a8b352c4130919d7bfedf1a5a3e" target="_top" xlink:title="mom_sponge::set_up\l_sponge_field">
<polygon fill="white" stroke="black" points="144.5,-0.5 144.5,-30.5 238.5,-30.5 238.5,-0.5 144.5,-0.5"/>
<text text-anchor="start" x="152.5" y="-18.5" font-family="Helvetica,sans-Serif" font-size="10.00">mom_sponge::set_up</text>
<text text-anchor="middle" x="191.5" y="-7.5" font-family="Helvetica,sans-Serif" font-size="10.00">_sponge_field</text>
</a>
</g>
</g>
<!-- Node0&#45;&gt;Node5 -->
<g id="edge7" class="edge"><title>Node0&#45;&gt;Node5</title>
<path fill="none" stroke="midnightblue" d="M100.923,-44.4808C111.755,-40.9763 123.402,-37.2083 134.596,-33.5864"/>
<polygon fill="midnightblue" stroke="midnightblue" points="135.849,-36.8599 144.286,-30.4516 133.694,-30.1998 135.849,-36.8599"/>
</g>
<!-- Node1&#45;&gt;Node2 -->
<g id="edge2" class="edge"><title>Node1&#45;&gt;Node2</title>
<path fill="none" stroke="midnightblue" d="M236.534,-88.4808C246.49,-85.0849 257.172,-81.4414 267.486,-77.9233"/>
<polygon fill="midnightblue" stroke="midnightblue" points="268.892,-81.1418 277.227,-74.6009 266.632,-74.5166 268.892,-81.1418"/>
</g>
<!-- Node4 -->
<g id="node5" class="node"><title>Node4</title>
<g id="a_node5"><a xlink:href="../../d9/def/namespacemom__file__parser.html#a17c0ef1bb1912f02faa0aaa1e0f64210" target="_top" xlink:title="mom_file_parser::log\l_version">
<polygon fill="white" stroke="black" points="276.5,-93.5 276.5,-123.5 368.5,-123.5 368.5,-93.5 276.5,-93.5"/>
<text text-anchor="start" x="284.5" y="-111.5" font-family="Helvetica,sans-Serif" font-size="10.00">mom_file_parser::log</text>
<text text-anchor="middle" x="322.5" y="-100.5" font-family="Helvetica,sans-Serif" font-size="10.00">_version</text>
</a>
</g>
</g>
<!-- Node1&#45;&gt;Node4 -->
<g id="edge4" class="edge"><title>Node1&#45;&gt;Node4</title>
<path fill="none" stroke="midnightblue" d="M240.168,-105.348C248.628,-105.676 257.504,-106.02 266.155,-106.355"/>
<polygon fill="midnightblue" stroke="midnightblue" points="266.042,-109.853 276.17,-106.743 266.313,-102.858 266.042,-109.853"/>
</g>
<!-- Node3 -->
<g id="node4" class="node"><title>Node3</title>
<g id="a_node4"><a xlink:href="../../d0/de6/namespacemom__error__handler.html#ad5f00a53059c72fe2332d1436c80ca71" target="_top" xlink:title="mom_error_handler::\lis_root_pe">
<polygon fill="white" stroke="black" points="405,-44.5 405,-74.5 498,-74.5 498,-44.5 405,-44.5"/>
<text text-anchor="start" x="413" y="-62.5" font-family="Helvetica,sans-Serif" font-size="10.00">mom_error_handler::</text>
<text text-anchor="middle" x="451.5" y="-51.5" font-family="Helvetica,sans-Serif" font-size="10.00">is_root_pe</text>
</a>
</g>
</g>
<!-- Node2&#45;&gt;Node3 -->
<g id="edge3" class="edge"><title>Node2&#45;&gt;Node3</title>
<path fill="none" stroke="midnightblue" d="M369.35,-59.5C377.533,-59.5 386.141,-59.5 394.568,-59.5"/>
<polygon fill="midnightblue" stroke="midnightblue" points="394.717,-63.0001 404.717,-59.5 394.717,-56.0001 394.717,-63.0001"/>
</g>
<!-- Node4&#45;&gt;Node3 -->
<g id="edge5" class="edge"><title>Node4&#45;&gt;Node3</title>
<path fill="none" stroke="midnightblue" d="M362.64,-93.3986C374.953,-88.6481 388.706,-83.3419 401.608,-78.364"/>
<polygon fill="midnightblue" stroke="midnightblue" points="403.2,-81.501 411.27,-74.6359 400.681,-74.9702 403.2,-81.501"/>
</g>
<!-- Node5&#45;&gt;Node2 -->
<g id="edge8" class="edge"><title>Node5&#45;&gt;Node2</title>
<path fill="none" stroke="midnightblue" d="M236.534,-30.5192C246.49,-33.9151 257.172,-37.5586 267.486,-41.0767"/>
<polygon fill="midnightblue" stroke="midnightblue" points="266.632,-44.4834 277.227,-44.3991 268.892,-37.8582 266.632,-44.4834"/>
</g>
<!-- Node5&#45;&gt;Node3 -->
<g id="edge9" class="edge"><title>Node5&#45;&gt;Node3</title>
<path fill="none" stroke="midnightblue" d="M238.582,-18.051C274.414,-20.613 325.224,-25.5152 369,-34.5 378.254,-36.3993 387.959,-38.9056 397.316,-41.5982"/>
<polygon fill="midnightblue" stroke="midnightblue" points="396.325,-44.9547 406.908,-44.4539 398.322,-38.2457 396.325,-44.9547"/>
</g>
</g>
</svg>
