<?xml version="1.0" encoding="UTF-8" standalone="no"?>
<!DOCTYPE svg PUBLIC "-//W3C//DTD SVG 1.1//EN"
 "http://www.w3.org/Graphics/SVG/1.1/DTD/svg11.dtd">
<!-- Generated by graphviz version 2.38.0 (20140413.2041)
 -->
<!-- Title: mom_spatial_means::global_i_mean Pages: 1 -->
<svg width="385pt" height="39pt"
 viewBox="0.00 0.00 385.00 39.00" xmlns="http://www.w3.org/2000/svg" xmlns:xlink="http://www.w3.org/1999/xlink">
<g id="graph0" class="graph" transform="scale(1 1) rotate(0) translate(4 35)">
<title>mom_spatial_means::global_i_mean</title>
<polygon fill="white" stroke="none" points="-4,4 -4,-35 381,-35 381,4 -4,4"/>
<!-- Node20 -->
<g id="node1" class="node"><title>Node20</title>
<polygon fill="#bfbfbf" stroke="black" points="0,-0.5 0,-30.5 95,-30.5 95,-0.5 0,-0.5"/>
<text text-anchor="start" x="8" y="-18.5" font-family="Helvetica,sans-Serif" font-size="10.00">mom_spatial_means::</text>
<text text-anchor="middle" x="47.5" y="-7.5" font-family="Helvetica,sans-Serif" font-size="10.00">global_i_mean</text>
</g>
<!-- Node21 -->
<g id="node2" class="node"><title>Node21</title>
<g id="a_node2"><a xlink:href="../../d8/da8/namespacemom__sponge.html#afc5fe4db356e9e93696c909cd2c4d7ba" target="_top" xlink:title="mom_sponge::apply_sponge">
<polygon fill="white" stroke="black" points="131,-6 131,-25 250,-25 250,-6 131,-6"/>
<text text-anchor="middle" x="190.5" y="-13" font-family="Helvetica,sans-Serif" font-size="10.00">mom_sponge::apply_sponge</text>
</a>
</g>
</g>
<!-- Node20&#45;&gt;Node21 -->
<g id="edge1" class="edge"><title>Node20&#45;&gt;Node21</title>
<path fill="none" stroke="midnightblue" d="M105.213,-15.5C113.677,-15.5 122.417,-15.5 130.919,-15.5"/>
<polygon fill="midnightblue" stroke="midnightblue" points="105.059,-12.0001 95.0594,-15.5 105.059,-19.0001 105.059,-12.0001"/>
</g>
<!-- Node22 -->
<g id="node3" class="node"><title>Node22</title>
<g id="a_node3"><a xlink:href="../../d8/df3/namespacemom__diabatic__driver.html#a61e57d3902367aa46aa3c2d949ee900f" target="_top" xlink:title="This subroutine imposes the diapycnal mass fluxes and the accompanying diapycnal advection of momentu...">
<polygon fill="white" stroke="black" points="286,-0.5 286,-30.5 377,-30.5 377,-0.5 286,-0.5"/>
<text text-anchor="start" x="294" y="-18.5" font-family="Helvetica,sans-Serif" font-size="10.00">mom_diabatic_driver</text>
<text text-anchor="middle" x="331.5" y="-7.5" font-family="Helvetica,sans-Serif" font-size="10.00">::diabatic</text>
</a>
</g>
</g>
<!-- Node21&#45;&gt;Node22 -->
<g id="edge2" class="edge"><title>Node21&#45;&gt;Node22</title>
<path fill="none" stroke="midnightblue" d="M260.26,-15.5C268.996,-15.5 277.748,-15.5 285.962,-15.5"/>
<polygon fill="midnightblue" stroke="midnightblue" points="260.046,-12.0001 250.046,-15.5 260.046,-19.0001 260.046,-12.0001"/>
</g>
</g>
</svg>
