<?xml version="1.0" encoding="UTF-8" standalone="no"?>
<!DOCTYPE svg PUBLIC "-//W3C//DTD SVG 1.1//EN"
 "http://www.w3.org/Graphics/SVG/1.1/DTD/svg11.dtd">
<!-- Generated by graphviz version 2.38.0 (20140413.2041)
 -->
<!-- Title: mom_tracer_z_init::read_z_edges Pages: 1 -->
<svg width="493pt" height="148pt"
 viewBox="0.00 0.00 493.00 147.50" xmlns="http://www.w3.org/2000/svg" xmlns:xlink="http://www.w3.org/1999/xlink">
<g id="graph0" class="graph" transform="scale(1 1) rotate(0) translate(4 143.5)">
<title>mom_tracer_z_init::read_z_edges</title>
<polygon fill="white" stroke="none" points="-4,4 -4,-143.5 489,-143.5 489,4 -4,4"/>
<!-- Node4 -->
<g id="node1" class="node"><title>Node4</title>
<polygon fill="#bfbfbf" stroke="black" points="0,-49.5 0,-79.5 87,-79.5 87,-49.5 0,-49.5"/>
<text text-anchor="start" x="8" y="-67.5" font-family="Helvetica,sans-Serif" font-size="10.00">mom_tracer_z_init::</text>
<text text-anchor="middle" x="43.5" y="-56.5" font-family="Helvetica,sans-Serif" font-size="10.00">read_z_edges</text>
</g>
<!-- Node5 -->
<g id="node2" class="node"><title>Node5</title>
<g id="a_node2"><a xlink:href="../../dd/df5/namespacemom__tracer__z__init.html#a153c8859a6918fc350976a4a7c279c79" target="_top" xlink:title="mom_tracer_z_init::\ltracer_z_init">
<polygon fill="white" stroke="black" points="123,-49.5 123,-79.5 210,-79.5 210,-49.5 123,-49.5"/>
<text text-anchor="start" x="131" y="-67.5" font-family="Helvetica,sans-Serif" font-size="10.00">mom_tracer_z_init::</text>
<text text-anchor="middle" x="166.5" y="-56.5" font-family="Helvetica,sans-Serif" font-size="10.00">tracer_z_init</text>
</a>
</g>
</g>
<!-- Node4&#45;&gt;Node5 -->
<g id="edge1" class="edge"><title>Node4&#45;&gt;Node5</title>
<path fill="none" stroke="midnightblue" d="M97.3841,-64.5C105.887,-64.5 114.593,-64.5 122.817,-64.5"/>
<polygon fill="midnightblue" stroke="midnightblue" points="97.1601,-61.0001 87.1601,-64.5 97.16,-68.0001 97.1601,-61.0001"/>
</g>
<!-- Node6 -->
<g id="node3" class="node"><title>Node6</title>
<g id="a_node3"><a xlink:href="../../d6/dcd/namespaceideal__age__example.html#abec4db7c44f7a6d5c891a6d8a17a99b3" target="_top" xlink:title="ideal_age_example::\linitialize_ideal_age\l_tracer">
<polygon fill="white" stroke="black" points="247.5,-98 247.5,-139 337.5,-139 337.5,-98 247.5,-98"/>
<text text-anchor="start" x="255.5" y="-127" font-family="Helvetica,sans-Serif" font-size="10.00">ideal_age_example::</text>
<text text-anchor="start" x="255.5" y="-116" font-family="Helvetica,sans-Serif" font-size="10.00">initialize_ideal_age</text>
<text text-anchor="middle" x="292.5" y="-105" font-family="Helvetica,sans-Serif" font-size="10.00">_tracer</text>
</a>
</g>
</g>
<!-- Node5&#45;&gt;Node6 -->
<g id="edge2" class="edge"><title>Node5&#45;&gt;Node6</title>
<path fill="none" stroke="midnightblue" d="M211.556,-83.6857C223.19,-88.7522 235.747,-94.2203 247.384,-99.2882"/>
<polygon fill="midnightblue" stroke="midnightblue" points="212.607,-80.3258 202.041,-79.542 209.812,-86.7437 212.607,-80.3258"/>
</g>
<!-- Node7 -->
<g id="node4" class="node"><title>Node7</title>
<g id="a_node4"><a xlink:href="../../d6/dd2/namespacemom__ocmip2__cfc.html#a403331f12c4b16682f42f284bf57f330" target="_top" xlink:title="mom_ocmip2_cfc::init\l_tracer_cfc">
<polygon fill="white" stroke="black" points="246,-49.5 246,-79.5 339,-79.5 339,-49.5 246,-49.5"/>
<text text-anchor="start" x="254" y="-67.5" font-family="Helvetica,sans-Serif" font-size="10.00">mom_ocmip2_cfc::init</text>
<text text-anchor="middle" x="292.5" y="-56.5" font-family="Helvetica,sans-Serif" font-size="10.00">_tracer_cfc</text>
</a>
</g>
</g>
<!-- Node5&#45;&gt;Node7 -->
<g id="edge3" class="edge"><title>Node5&#45;&gt;Node7</title>
<path fill="none" stroke="midnightblue" d="M220.34,-64.5C228.805,-64.5 237.503,-64.5 245.784,-64.5"/>
<polygon fill="midnightblue" stroke="midnightblue" points="220.174,-61.0001 210.174,-64.5 220.174,-68.0001 220.174,-61.0001"/>
</g>
<!-- Node9 -->
<g id="node6" class="node"><title>Node9</title>
<g id="a_node6"><a xlink:href="../../de/d98/namespaceoil__tracer.html#a2bb5dd516d506706c1e67e1206e389b5" target="_top" xlink:title="oil_tracer::initialize\l_oil_tracer">
<polygon fill="white" stroke="black" points="252,-0.5 252,-30.5 333,-30.5 333,-0.5 252,-0.5"/>
<text text-anchor="start" x="260" y="-18.5" font-family="Helvetica,sans-Serif" font-size="10.00">oil_tracer::initialize</text>
<text text-anchor="middle" x="292.5" y="-7.5" font-family="Helvetica,sans-Serif" font-size="10.00">_oil_tracer</text>
</a>
</g>
</g>
<!-- Node5&#45;&gt;Node9 -->
<g id="edge5" class="edge"><title>Node5&#45;&gt;Node9</title>
<path fill="none" stroke="midnightblue" d="M215.146,-45.6722C227.739,-40.6958 241.168,-35.3891 253.197,-30.6359"/>
<polygon fill="midnightblue" stroke="midnightblue" points="213.73,-42.4683 205.716,-49.3986 216.302,-48.9785 213.73,-42.4683"/>
</g>
<!-- Node8 -->
<g id="node5" class="node"><title>Node8</title>
<g id="a_node5"><a xlink:href="../../d6/dd2/namespacemom__ocmip2__cfc.html#a0c916b2f0835bd79002803f246d2ef49" target="_top" xlink:title="mom_ocmip2_cfc::initialize\l_ocmip2_cfc">
<polygon fill="white" stroke="black" points="375,-49.5 375,-79.5 485,-79.5 485,-49.5 375,-49.5"/>
<text text-anchor="start" x="383" y="-67.5" font-family="Helvetica,sans-Serif" font-size="10.00">mom_ocmip2_cfc::initialize</text>
<text text-anchor="middle" x="430" y="-56.5" font-family="Helvetica,sans-Serif" font-size="10.00">_ocmip2_cfc</text>
</a>
</g>
</g>
<!-- Node7&#45;&gt;Node8 -->
<g id="edge4" class="edge"><title>Node7&#45;&gt;Node8</title>
<path fill="none" stroke="midnightblue" d="M349.423,-64.5C357.791,-64.5 366.408,-64.5 374.741,-64.5"/>
<polygon fill="midnightblue" stroke="midnightblue" points="349.374,-61.0001 339.374,-64.5 349.374,-68.0001 349.374,-61.0001"/>
</g>
</g>
</svg>
