<?xml version="1.0" encoding="UTF-8" standalone="no"?>
<!DOCTYPE svg PUBLIC "-//W3C//DTD SVG 1.1//EN"
 "http://www.w3.org/Graphics/SVG/1.1/DTD/svg11.dtd">
<!-- Generated by graphviz version 2.38.0 (20140413.2041)
 -->
<!-- Title: mom_tracer_z_init::tracer_z_init Pages: 1 -->
<svg width="480pt" height="181pt"
 viewBox="0.00 0.00 480.00 181.00" xmlns="http://www.w3.org/2000/svg" xmlns:xlink="http://www.w3.org/1999/xlink">
<g id="graph0" class="graph" transform="scale(1 1) rotate(0) translate(4 177)">
<title>mom_tracer_z_init::tracer_z_init</title>
<polygon fill="white" stroke="none" points="-4,4 -4,-177 476,-177 476,4 -4,4"/>
<!-- Node10 -->
<g id="node1" class="node"><title>Node10</title>
<polygon fill="#bfbfbf" stroke="black" points="0,-71.5 0,-101.5 87,-101.5 87,-71.5 0,-71.5"/>
<text text-anchor="start" x="8" y="-89.5" font-family="Helvetica,sans-Serif" font-size="10.00">mom_tracer_z_init::</text>
<text text-anchor="middle" x="43.5" y="-78.5" font-family="Helvetica,sans-Serif" font-size="10.00">tracer_z_init</text>
</g>
<!-- Node11 -->
<g id="node2" class="node"><title>Node11</title>
<g id="a_node2"><a xlink:href="../../d0/dbf/namespacemom__diag__to__z.html#a55f6203cfb483bb62c543f689ab30741" target="_top" xlink:title="mom_diag_to_z::find\l_limited_slope">
<polygon fill="white" stroke="black" points="123,-142.5 123,-172.5 214,-172.5 214,-142.5 123,-142.5"/>
<text text-anchor="start" x="131" y="-160.5" font-family="Helvetica,sans-Serif" font-size="10.00">mom_diag_to_z::find</text>
<text text-anchor="middle" x="168.5" y="-149.5" font-family="Helvetica,sans-Serif" font-size="10.00">_limited_slope</text>
</a>
</g>
</g>
<!-- Node10&#45;&gt;Node11 -->
<g id="edge1" class="edge"><title>Node10&#45;&gt;Node11</title>
<path fill="none" stroke="midnightblue" d="M69.0818,-101.604C84.4722,-110.963 104.773,-123.135 123,-133.5 125.351,-134.837 127.781,-136.2 130.236,-137.563"/>
<polygon fill="midnightblue" stroke="midnightblue" points="128.696,-140.71 139.146,-142.454 132.064,-134.574 128.696,-140.71"/>
</g>
<!-- Node12 -->
<g id="node3" class="node"><title>Node12</title>
<g id="a_node3"><a xlink:href="../../d0/dbf/namespacemom__diag__to__z.html#a7bb6af99ccb5eb1daf7473663ca19aea" target="_top" xlink:title="mom_diag_to_z::find\l_overlap">
<polygon fill="white" stroke="black" points="123,-93.5 123,-123.5 214,-123.5 214,-93.5 123,-93.5"/>
<text text-anchor="start" x="131" y="-111.5" font-family="Helvetica,sans-Serif" font-size="10.00">mom_diag_to_z::find</text>
<text text-anchor="middle" x="168.5" y="-100.5" font-family="Helvetica,sans-Serif" font-size="10.00">_overlap</text>
</a>
</g>
</g>
<!-- Node10&#45;&gt;Node12 -->
<g id="edge2" class="edge"><title>Node10&#45;&gt;Node12</title>
<path fill="none" stroke="midnightblue" d="M87.1742,-94.1328C95.4528,-95.6135 104.235,-97.1843 112.837,-98.7228"/>
<polygon fill="midnightblue" stroke="midnightblue" points="112.35,-102.191 122.81,-100.507 113.583,-95.3006 112.35,-102.191"/>
</g>
<!-- Node13 -->
<g id="node4" class="node"><title>Node13</title>
<g id="a_node4"><a xlink:href="../../d0/de6/namespacemom__error__handler.html#a460cfb79a06c29fc249952c2a3710d67" target="_top" xlink:title="mom_error_handler::\lmom_error">
<polygon fill="white" stroke="black" points="250,-49.5 250,-79.5 343,-79.5 343,-49.5 250,-49.5"/>
<text text-anchor="start" x="258" y="-67.5" font-family="Helvetica,sans-Serif" font-size="10.00">mom_error_handler::</text>
<text text-anchor="middle" x="296.5" y="-56.5" font-family="Helvetica,sans-Serif" font-size="10.00">mom_error</text>
</a>
</g>
</g>
<!-- Node10&#45;&gt;Node13 -->
<g id="edge3" class="edge"><title>Node10&#45;&gt;Node13</title>
<path fill="none" stroke="midnightblue" d="M87.0787,-82.768C129.079,-79.0867 193.506,-73.4397 239.607,-69.399"/>
<polygon fill="midnightblue" stroke="midnightblue" points="240.078,-72.8712 249.734,-68.5114 239.467,-65.898 240.078,-72.8712"/>
</g>
<!-- Node15 -->
<g id="node6" class="node"><title>Node15</title>
<g id="a_node6"><a xlink:href="../../dd/df5/namespacemom__tracer__z__init.html#a00e2eb419a924624bf8ae6d84e64ef47" target="_top" xlink:title="mom_tracer_z_init::\lread_z_edges">
<polygon fill="white" stroke="black" points="125,-5.5 125,-35.5 212,-35.5 212,-5.5 125,-5.5"/>
<text text-anchor="start" x="133" y="-23.5" font-family="Helvetica,sans-Serif" font-size="10.00">mom_tracer_z_init::</text>
<text text-anchor="middle" x="168.5" y="-12.5" font-family="Helvetica,sans-Serif" font-size="10.00">read_z_edges</text>
</a>
</g>
</g>
<!-- Node10&#45;&gt;Node15 -->
<g id="edge5" class="edge"><title>Node10&#45;&gt;Node15</title>
<path fill="none" stroke="midnightblue" d="M72.7187,-71.3583C89.8289,-62.1772 111.857,-50.357 130.371,-40.423"/>
<polygon fill="midnightblue" stroke="midnightblue" points="132.256,-43.3836 139.413,-35.5713 128.946,-37.2154 132.256,-43.3836"/>
</g>
<!-- Node14 -->
<g id="node5" class="node"><title>Node14</title>
<g id="a_node5"><a xlink:href="../../d0/de6/namespacemom__error__handler.html#ad5f00a53059c72fe2332d1436c80ca71" target="_top" xlink:title="mom_error_handler::\lis_root_pe">
<polygon fill="white" stroke="black" points="379,-24.5 379,-54.5 472,-54.5 472,-24.5 379,-24.5"/>
<text text-anchor="start" x="387" y="-42.5" font-family="Helvetica,sans-Serif" font-size="10.00">mom_error_handler::</text>
<text text-anchor="middle" x="425.5" y="-31.5" font-family="Helvetica,sans-Serif" font-size="10.00">is_root_pe</text>
</a>
</g>
</g>
<!-- Node13&#45;&gt;Node14 -->
<g id="edge4" class="edge"><title>Node13&#45;&gt;Node14</title>
<path fill="none" stroke="midnightblue" d="M343.35,-55.4744C351.623,-53.8459 360.33,-52.1319 368.846,-50.4556"/>
<polygon fill="midnightblue" stroke="midnightblue" points="369.582,-53.8779 378.717,-48.5123 368.23,-47.0097 369.582,-53.8779"/>
</g>
<!-- Node15&#45;&gt;Node13 -->
<g id="edge6" class="edge"><title>Node15&#45;&gt;Node13</title>
<path fill="none" stroke="midnightblue" d="M212.158,-35.3964C222.005,-38.8349 232.594,-42.5328 242.812,-46.1009"/>
<polygon fill="midnightblue" stroke="midnightblue" points="241.863,-49.4767 252.457,-49.4692 244.17,-42.868 241.863,-49.4767"/>
</g>
<!-- Node16 -->
<g id="node7" class="node"><title>Node16</title>
<g id="a_node7"><a xlink:href="../../d0/de6/namespacemom__error__handler.html#a1c462df7b61f1296407b4af51dfeceab" target="_top" xlink:title="mom_error_handler::\lmom_mesg">
<polygon fill="white" stroke="black" points="250,-0.5 250,-30.5 343,-30.5 343,-0.5 250,-0.5"/>
<text text-anchor="start" x="258" y="-18.5" font-family="Helvetica,sans-Serif" font-size="10.00">mom_error_handler::</text>
<text text-anchor="middle" x="296.5" y="-7.5" font-family="Helvetica,sans-Serif" font-size="10.00">mom_mesg</text>
</a>
</g>
</g>
<!-- Node15&#45;&gt;Node16 -->
<g id="edge7" class="edge"><title>Node15&#45;&gt;Node16</title>
<path fill="none" stroke="midnightblue" d="M212.158,-18.8072C220.976,-18.4573 230.39,-18.0837 239.599,-17.7183"/>
<polygon fill="midnightblue" stroke="midnightblue" points="240.013,-21.2047 249.866,-17.3109 239.735,-14.2102 240.013,-21.2047"/>
</g>
<!-- Node16&#45;&gt;Node14 -->
<g id="edge8" class="edge"><title>Node16&#45;&gt;Node14</title>
<path fill="none" stroke="midnightblue" d="M343.35,-24.1646C351.623,-25.7279 360.33,-27.3734 368.846,-28.9827"/>
<polygon fill="midnightblue" stroke="midnightblue" points="368.241,-32.4303 378.717,-30.8482 369.541,-25.5521 368.241,-32.4303"/>
</g>
</g>
</svg>
