<?xml version="1.0" encoding="UTF-8" standalone="no"?>
<!DOCTYPE svg PUBLIC "-//W3C//DTD SVG 1.1//EN"
 "http://www.w3.org/Graphics/SVG/1.1/DTD/svg11.dtd">
<!-- Generated by graphviz version 2.38.0 (20140413.2041)
 -->
<!-- Title: isomip_initialization::isomip_initialize_topography Pages: 1 -->
<svg width="386pt" height="88pt"
 viewBox="0.00 0.00 386.00 88.00" xmlns="http://www.w3.org/2000/svg" xmlns:xlink="http://www.w3.org/1999/xlink">
<g id="graph0" class="graph" transform="scale(1 1) rotate(0) translate(4 84)">
<title>isomip_initialization::isomip_initialize_topography</title>
<polygon fill="white" stroke="none" points="-4,4 -4,-84 382,-84 382,4 -4,4"/>
<!-- Node14 -->
<g id="node1" class="node"><title>Node14</title>
<polygon fill="#bfbfbf" stroke="black" points="0,-24.5 0,-54.5 120,-54.5 120,-24.5 0,-24.5"/>
<text text-anchor="start" x="8" y="-42.5" font-family="Helvetica,sans-Serif" font-size="10.00">isomip_initialization</text>
<text text-anchor="middle" x="60" y="-31.5" font-family="Helvetica,sans-Serif" font-size="10.00">::isomip_initialize_topography</text>
</g>
<!-- Node15 -->
<g id="node2" class="node"><title>Node15</title>
<g id="a_node2"><a xlink:href="../../d9/def/namespacemom__file__parser.html#a17c0ef1bb1912f02faa0aaa1e0f64210" target="_top" xlink:title="mom_file_parser::log\l_version">
<polygon fill="white" stroke="black" points="156.5,-49.5 156.5,-79.5 248.5,-79.5 248.5,-49.5 156.5,-49.5"/>
<text text-anchor="start" x="164.5" y="-67.5" font-family="Helvetica,sans-Serif" font-size="10.00">mom_file_parser::log</text>
<text text-anchor="middle" x="202.5" y="-56.5" font-family="Helvetica,sans-Serif" font-size="10.00">_version</text>
</a>
</g>
</g>
<!-- Node14&#45;&gt;Node15 -->
<g id="edge1" class="edge"><title>Node14&#45;&gt;Node15</title>
<path fill="none" stroke="midnightblue" d="M120.177,-50.0298C128.91,-51.5836 137.876,-53.179 146.519,-54.7168"/>
<polygon fill="midnightblue" stroke="midnightblue" points="146.023,-58.1836 156.482,-56.4896 147.25,-51.2918 146.023,-58.1836"/>
</g>
<!-- Node17 -->
<g id="node4" class="node"><title>Node17</title>
<g id="a_node4"><a xlink:href="../../d0/de6/namespacemom__error__handler.html#a1c462df7b61f1296407b4af51dfeceab" target="_top" xlink:title="mom_error_handler::\lmom_mesg">
<polygon fill="white" stroke="black" points="156,-0.5 156,-30.5 249,-30.5 249,-0.5 156,-0.5"/>
<text text-anchor="start" x="164" y="-18.5" font-family="Helvetica,sans-Serif" font-size="10.00">mom_error_handler::</text>
<text text-anchor="middle" x="202.5" y="-7.5" font-family="Helvetica,sans-Serif" font-size="10.00">mom_mesg</text>
</a>
</g>
</g>
<!-- Node14&#45;&gt;Node17 -->
<g id="edge3" class="edge"><title>Node14&#45;&gt;Node17</title>
<path fill="none" stroke="midnightblue" d="M120.177,-29.3914C128.602,-27.9524 137.244,-26.4762 145.602,-25.0484"/>
<polygon fill="midnightblue" stroke="midnightblue" points="146.356,-28.4703 155.624,-23.3364 145.178,-21.5703 146.356,-28.4703"/>
</g>
<!-- Node16 -->
<g id="node3" class="node"><title>Node16</title>
<g id="a_node3"><a xlink:href="../../d0/de6/namespacemom__error__handler.html#ad5f00a53059c72fe2332d1436c80ca71" target="_top" xlink:title="mom_error_handler::\lis_root_pe">
<polygon fill="white" stroke="black" points="285,-24.5 285,-54.5 378,-54.5 378,-24.5 285,-24.5"/>
<text text-anchor="start" x="293" y="-42.5" font-family="Helvetica,sans-Serif" font-size="10.00">mom_error_handler::</text>
<text text-anchor="middle" x="331.5" y="-31.5" font-family="Helvetica,sans-Serif" font-size="10.00">is_root_pe</text>
</a>
</g>
</g>
<!-- Node15&#45;&gt;Node16 -->
<g id="edge2" class="edge"><title>Node15&#45;&gt;Node16</title>
<path fill="none" stroke="midnightblue" d="M248.633,-55.6155C257.037,-53.9612 265.911,-52.2144 274.592,-50.5055"/>
<polygon fill="midnightblue" stroke="midnightblue" points="275.52,-53.8901 284.656,-48.5245 274.168,-47.0219 275.52,-53.8901"/>
</g>
<!-- Node17&#45;&gt;Node16 -->
<g id="edge4" class="edge"><title>Node17&#45;&gt;Node16</title>
<path fill="none" stroke="midnightblue" d="M249.35,-24.1646C257.623,-25.7279 266.33,-27.3734 274.846,-28.9827"/>
<polygon fill="midnightblue" stroke="midnightblue" points="274.241,-32.4303 284.717,-30.8482 275.541,-25.5521 274.241,-32.4303"/>
</g>
</g>
</svg>
