<?xml version="1.0" encoding="UTF-8" standalone="no"?>
<!DOCTYPE svg PUBLIC "-//W3C//DTD SVG 1.1//EN"
 "http://www.w3.org/Graphics/SVG/1.1/DTD/svg11.dtd">
<!-- Generated by graphviz version 2.38.0 (20140413.2041)
 -->
<!-- Title: oil_tracer::register_oil_tracer Pages: 1 -->
<svg width="785pt" height="254pt"
 viewBox="0.00 0.00 785.00 253.84" xmlns="http://www.w3.org/2000/svg" xmlns:xlink="http://www.w3.org/1999/xlink">
<g id="graph0" class="graph" transform="scale(1 1) rotate(0) translate(4 249.838)">
<title>oil_tracer::register_oil_tracer</title>
<polygon fill="white" stroke="none" points="-4,4 -4,-249.838 781,-249.838 781,4 -4,4"/>
<!-- Node25 -->
<g id="node1" class="node"><title>Node25</title>
<polygon fill="#bfbfbf" stroke="black" points="0,-114.338 0,-144.338 81,-144.338 81,-114.338 0,-114.338"/>
<text text-anchor="start" x="8" y="-132.338" font-family="Helvetica,sans-Serif" font-size="10.00">oil_tracer::register</text>
<text text-anchor="middle" x="40.5" y="-121.338" font-family="Helvetica,sans-Serif" font-size="10.00">_oil_tracer</text>
</g>
<!-- Node26 -->
<g id="node2" class="node"><title>Node26</title>
<g id="a_node2"><a xlink:href="../../db/d45/namespaceatmos__ocean__fluxes__mod.html#a413981652ffe0bccccdf5ff5c4c1d526" target="_top" xlink:title="atmos_ocean_fluxes\l_mod::aof_set_coupler_flux">
<polygon fill="white" stroke="black" points="117,-215.338 117,-245.338 232,-245.338 232,-215.338 117,-215.338"/>
<text text-anchor="start" x="125" y="-233.338" font-family="Helvetica,sans-Serif" font-size="10.00">atmos_ocean_fluxes</text>
<text text-anchor="middle" x="174.5" y="-222.338" font-family="Helvetica,sans-Serif" font-size="10.00">_mod::aof_set_coupler_flux</text>
</a>
</g>
</g>
<!-- Node25&#45;&gt;Node26 -->
<g id="edge1" class="edge"><title>Node25&#45;&gt;Node26</title>
<path fill="none" stroke="midnightblue" d="M55.2441,-144.446C69.6569,-159.739 93.4466,-183.473 117,-200.338 121.859,-203.817 127.172,-207.159 132.533,-210.268"/>
<polygon fill="midnightblue" stroke="midnightblue" points="131.088,-213.469 141.529,-215.263 134.486,-207.349 131.088,-213.469"/>
</g>
<!-- Node27 -->
<g id="node3" class="node"><title>Node27</title>
<g id="a_node3"><a xlink:href="../../d9/def/namespacemom__file__parser.html#a17c0ef1bb1912f02faa0aaa1e0f64210" target="_top" xlink:title="mom_file_parser::log\l_version">
<polygon fill="white" stroke="black" points="274.5,-196.338 274.5,-226.338 366.5,-226.338 366.5,-196.338 274.5,-196.338"/>
<text text-anchor="start" x="282.5" y="-214.338" font-family="Helvetica,sans-Serif" font-size="10.00">mom_file_parser::log</text>
<text text-anchor="middle" x="320.5" y="-203.338" font-family="Helvetica,sans-Serif" font-size="10.00">_version</text>
</a>
</g>
</g>
<!-- Node25&#45;&gt;Node27 -->
<g id="edge2" class="edge"><title>Node25&#45;&gt;Node27</title>
<path fill="none" stroke="midnightblue" d="M72.6087,-144.396C86.0501,-150.518 102.087,-157.317 117,-162.338 165.929,-178.81 223.246,-192.146 264.388,-200.723"/>
<polygon fill="midnightblue" stroke="midnightblue" points="263.721,-204.159 274.221,-202.746 265.132,-197.302 263.721,-204.159"/>
</g>
<!-- Node29 -->
<g id="node5" class="node"><title>Node29</title>
<g id="a_node5"><a xlink:href="../../d0/de6/namespacemom__error__handler.html#a460cfb79a06c29fc249952c2a3710d67" target="_top" xlink:title="mom_error_handler::\lmom_error">
<polygon fill="white" stroke="black" points="555,-66.3376 555,-96.3376 648,-96.3376 648,-66.3376 555,-66.3376"/>
<text text-anchor="start" x="563" y="-84.3376" font-family="Helvetica,sans-Serif" font-size="10.00">mom_error_handler::</text>
<text text-anchor="middle" x="601.5" y="-73.3376" font-family="Helvetica,sans-Serif" font-size="10.00">mom_error</text>
</a>
</g>
</g>
<!-- Node25&#45;&gt;Node29 -->
<g id="edge4" class="edge"><title>Node25&#45;&gt;Node29</title>
<path fill="none" stroke="midnightblue" d="M66.1122,-114.252C80.4522,-106.164 99.1727,-96.769 117,-91.3376 266.061,-45.9239 453.119,-61.103 544.731,-72.8865"/>
<polygon fill="midnightblue" stroke="midnightblue" points="544.518,-76.3887 554.89,-74.2301 545.435,-69.4491 544.518,-76.3887"/>
</g>
<!-- Node30 -->
<g id="node6" class="node"><title>Node30</title>
<g id="a_node6"><a xlink:href="../../d5/d89/namespacemom__io.html#a23e82d1d89d9bb1c9bdf802ce80d4508" target="_top" xlink:title="This routine queries vardesc. ">
<polygon fill="white" stroke="black" points="269.5,-157.838 269.5,-176.838 371.5,-176.838 371.5,-157.838 269.5,-157.838"/>
<text text-anchor="middle" x="320.5" y="-164.838" font-family="Helvetica,sans-Serif" font-size="10.00">mom_io::query_vardesc</text>
</a>
</g>
</g>
<!-- Node25&#45;&gt;Node30 -->
<g id="edge6" class="edge"><title>Node25&#45;&gt;Node30</title>
<path fill="none" stroke="midnightblue" d="M81.0354,-134.742C127.509,-141.094 205.132,-151.705 259.144,-159.088"/>
<polygon fill="midnightblue" stroke="midnightblue" points="258.896,-162.586 269.278,-160.473 259.844,-155.651 258.896,-162.586"/>
</g>
<!-- Node32 -->
<g id="node8" class="node"><title>Node32</title>
<g id="a_node8"><a xlink:href="../../d5/d89/namespacemom__io.html#ae7dd72cf77d5179d387ba16153af1b80" target="_top" xlink:title="Returns a directory name that is terminated with a &quot;/&quot; or &quot;./&quot; if the argument is an empty string...">
<polygon fill="white" stroke="black" points="426.5,-5.83765 426.5,-24.8376 501.5,-24.8376 501.5,-5.83765 426.5,-5.83765"/>
<text text-anchor="middle" x="464" y="-12.8376" font-family="Helvetica,sans-Serif" font-size="10.00">mom_io::slasher</text>
</a>
</g>
</g>
<!-- Node25&#45;&gt;Node32 -->
<g id="edge9" class="edge"><title>Node25&#45;&gt;Node32</title>
<path fill="none" stroke="midnightblue" d="M49.0531,-114.305C60.5178,-93.3051 84.4686,-55.9043 117,-39.3376 214.098,10.1094 346.811,1.6427 416.27,-7.56942"/>
<polygon fill="midnightblue" stroke="midnightblue" points="416.067,-11.0748 426.454,-8.98628 417.032,-4.14155 416.067,-11.0748"/>
</g>
<!-- Node33 -->
<g id="node9" class="node"><title>Node33</title>
<g id="a_node9"><a xlink:href="../../d5/d89/namespacemom__io.html#a39c3ccc06bb1a6e446af2ee9010eba16" target="_top" xlink:title="Returns a vardesc type whose elements have been filled with the provided fields. The argument name is...">
<polygon fill="white" stroke="black" points="133.5,-100.838 133.5,-119.838 215.5,-119.838 215.5,-100.838 133.5,-100.838"/>
<text text-anchor="middle" x="174.5" y="-107.838" font-family="Helvetica,sans-Serif" font-size="10.00">mom_io::var_desc</text>
</a>
</g>
</g>
<!-- Node25&#45;&gt;Node33 -->
<g id="edge11" class="edge"><title>Node25&#45;&gt;Node33</title>
<path fill="none" stroke="midnightblue" d="M81.1044,-123.637C94.4259,-121.72 109.465,-119.555 123.481,-117.537"/>
<polygon fill="midnightblue" stroke="midnightblue" points="124.068,-120.989 133.467,-116.1 123.071,-114.06 124.068,-120.989"/>
</g>
<!-- Node28 -->
<g id="node4" class="node"><title>Node28</title>
<g id="a_node4"><a xlink:href="../../d0/de6/namespacemom__error__handler.html#ad5f00a53059c72fe2332d1436c80ca71" target="_top" xlink:title="mom_error_handler::\lis_root_pe">
<polygon fill="white" stroke="black" points="684,-129.338 684,-159.338 777,-159.338 777,-129.338 684,-129.338"/>
<text text-anchor="start" x="692" y="-147.338" font-family="Helvetica,sans-Serif" font-size="10.00">mom_error_handler::</text>
<text text-anchor="middle" x="730.5" y="-136.338" font-family="Helvetica,sans-Serif" font-size="10.00">is_root_pe</text>
</a>
</g>
</g>
<!-- Node27&#45;&gt;Node28 -->
<g id="edge3" class="edge"><title>Node27&#45;&gt;Node28</title>
<path fill="none" stroke="midnightblue" d="M366.722,-203.911C441.832,-191.577 592.094,-166.902 673.683,-153.504"/>
<polygon fill="midnightblue" stroke="midnightblue" points="674.463,-156.923 683.763,-151.848 673.328,-150.015 674.463,-156.923"/>
</g>
<!-- Node29&#45;&gt;Node28 -->
<g id="edge5" class="edge"><title>Node29&#45;&gt;Node28</title>
<path fill="none" stroke="midnightblue" d="M632.92,-96.4277C649.995,-104.898 671.498,-115.565 689.877,-124.682"/>
<polygon fill="midnightblue" stroke="midnightblue" points="688.375,-127.844 698.888,-129.152 691.485,-121.573 688.375,-127.844"/>
</g>
<!-- Node31 -->
<g id="node7" class="node"><title>Node31</title>
<g id="a_node7"><a xlink:href="../../d5/d89/namespacemom__io.html#ac4bc408e8b38dbd669842753f26ebf88" target="_top" xlink:title="Copies a string. ">
<polygon fill="white" stroke="black" points="409,-100.838 409,-119.838 519,-119.838 519,-100.838 409,-100.838"/>
<text text-anchor="middle" x="464" y="-107.838" font-family="Helvetica,sans-Serif" font-size="10.00">mom_io::safe_string_copy</text>
</a>
</g>
</g>
<!-- Node30&#45;&gt;Node31 -->
<g id="edge7" class="edge"><title>Node30&#45;&gt;Node31</title>
<path fill="none" stroke="midnightblue" d="M345.184,-157.797C368.345,-148.467 403.822,-134.176 429.795,-123.713"/>
<polygon fill="midnightblue" stroke="midnightblue" points="431.271,-126.892 439.239,-119.909 428.655,-120.399 431.271,-126.892"/>
</g>
<!-- Node31&#45;&gt;Node29 -->
<g id="edge8" class="edge"><title>Node31&#45;&gt;Node29</title>
<path fill="none" stroke="midnightblue" d="M509.743,-100.762C520.952,-98.3627 533.114,-95.7597 544.784,-93.262"/>
<polygon fill="midnightblue" stroke="midnightblue" points="545.831,-96.6174 554.877,-91.102 544.366,-89.7724 545.831,-96.6174"/>
</g>
<!-- Node32&#45;&gt;Node29 -->
<g id="edge10" class="edge"><title>Node32&#45;&gt;Node29</title>
<path fill="none" stroke="midnightblue" d="M487.201,-24.861C497.008,-29.1558 508.639,-34.3705 519,-39.3376 533.461,-46.2703 549.163,-54.2514 562.889,-61.3819"/>
<polygon fill="midnightblue" stroke="midnightblue" points="561.552,-64.6323 572.037,-66.1592 564.793,-58.4275 561.552,-64.6323"/>
</g>
<!-- Node33&#45;&gt;Node31 -->
<g id="edge14" class="edge"><title>Node33&#45;&gt;Node31</title>
<path fill="none" stroke="midnightblue" d="M215.778,-110.338C263.206,-110.338 342.602,-110.338 398.601,-110.338"/>
<polygon fill="midnightblue" stroke="midnightblue" points="398.772,-113.838 408.772,-110.338 398.772,-106.838 398.772,-113.838"/>
</g>
<!-- Node34 -->
<g id="node10" class="node"><title>Node34</title>
<g id="a_node10"><a xlink:href="../../d5/d89/namespacemom__io.html#af96b29cb8410d557e8e452b81586223b" target="_top" xlink:title="This routine modifies the named elements of a vardesc type. All arguments are optional, except the vardesc type to be modified. ">
<polygon fill="white" stroke="black" points="268,-81.8376 268,-100.838 373,-100.838 373,-81.8376 268,-81.8376"/>
<text text-anchor="middle" x="320.5" y="-88.8376" font-family="Helvetica,sans-Serif" font-size="10.00">mom_io::modify_vardesc</text>
</a>
</g>
</g>
<!-- Node33&#45;&gt;Node34 -->
<g id="edge12" class="edge"><title>Node33&#45;&gt;Node34</title>
<path fill="none" stroke="midnightblue" d="M215.612,-105.045C228.603,-103.331 243.33,-101.388 257.527,-99.5146"/>
<polygon fill="midnightblue" stroke="midnightblue" points="258.282,-102.945 267.738,-98.1673 257.366,-96.0056 258.282,-102.945"/>
</g>
<!-- Node34&#45;&gt;Node31 -->
<g id="edge13" class="edge"><title>Node34&#45;&gt;Node31</title>
<path fill="none" stroke="midnightblue" d="M373.386,-98.3047C381.663,-99.4161 390.311,-100.577 398.832,-101.721"/>
<polygon fill="midnightblue" stroke="midnightblue" points="398.368,-105.19 408.744,-103.052 399.299,-98.2527 398.368,-105.19"/>
</g>
</g>
</svg>
