<?xml version="1.0" encoding="UTF-8" standalone="no"?>
<!DOCTYPE svg PUBLIC "-//W3C//DTD SVG 1.1//EN"
 "http://www.w3.org/Graphics/SVG/1.1/DTD/svg11.dtd">
<!-- Generated by graphviz version 2.38.0 (20140413.2041)
 -->
<!-- Title: mom_diagnostics::diagnostics_cs Pages: 1 -->
<svg width="511pt" height="216pt"
 viewBox="0.00 0.00 511.00 216.00" xmlns="http://www.w3.org/2000/svg" xmlns:xlink="http://www.w3.org/1999/xlink">
<g id="graph0" class="graph" transform="scale(1 1) rotate(0) translate(4 212)">
<title>mom_diagnostics::diagnostics_cs</title>
<polygon fill="white" stroke="none" points="-4,4 -4,-212 507,-212 507,4 -4,4"/>
<!-- Node1 -->
<g id="node1" class="node"><title>Node1</title>
<polygon fill="#bfbfbf" stroke="black" points="191,-0.5 191,-19.5 325,-19.5 325,-0.5 191,-0.5"/>
<text text-anchor="middle" x="258" y="-7.5" font-family="Helvetica,sans-Serif" font-size="10.00">mom_diagnostics::diagnostics_cs</text>
</g>
<!-- Node2 -->
<g id="node2" class="node"><title>Node2</title>
<polygon fill="white" stroke="#bfbfbf" points="0,-183 0,-202 30,-202 30,-183 0,-183"/>
<text text-anchor="middle" x="15" y="-190" font-family="Helvetica,sans-Serif" font-size="10.00">p3d</text>
</g>
<!-- Node2&#45;&gt;Node1 -->
<g id="edge1" class="edge"><title>Node2&#45;&gt;Node1</title>
<path fill="none" stroke="#9a32cd" stroke-dasharray="5,2" d="M11.5935,-173.077C6.77656,-140.68 2.24848,-73.5787 39,-38 60.1246,-17.5495 134.654,-11.9163 190.948,-10.6838"/>
<polygon fill="#9a32cd" stroke="#9a32cd" points="8.14744,-173.691 13.2422,-182.98 15.0524,-172.541 8.14744,-173.691"/>
<text text-anchor="middle" x="54.5" y="-107" font-family="Helvetica,sans-Serif" font-size="10.00"> var_ptr</text>
<text text-anchor="middle" x="54.5" y="-96" font-family="Helvetica,sans-Serif" font-size="10.00">deriv</text>
<text text-anchor="middle" x="54.5" y="-85" font-family="Helvetica,sans-Serif" font-size="10.00">prev_val</text>
</g>
<!-- Node3 -->
<g id="node3" class="node"><title>Node3</title>
<polygon fill="white" stroke="#bfbfbf" points="49,-183 49,-202 87,-202 87,-183 49,-183"/>
<text text-anchor="middle" x="68" y="-190" font-family="Helvetica,sans-Serif" font-size="10.00">logical</text>
</g>
<!-- Node3&#45;&gt;Node1 -->
<g id="edge2" class="edge"><title>Node3&#45;&gt;Node1</title>
<path fill="none" stroke="#9a32cd" stroke-dasharray="5,2" d="M70.3164,-172.96C75.4134,-140.379 90.7242,-72.9974 133,-38 142.534,-30.1071 167.476,-23.9677 192.595,-19.5517"/>
<polygon fill="#9a32cd" stroke="#9a32cd" points="66.8422,-172.532 68.9121,-182.922 73.7737,-173.509 66.8422,-172.532"/>
<text text-anchor="middle" x="141" y="-96" font-family="Helvetica,sans-Serif" font-size="10.00"> split</text>
</g>
<!-- Node4 -->
<g id="node4" class="node"><title>Node4</title>
<polygon fill="white" stroke="#bfbfbf" points="105.5,-177.5 105.5,-207.5 200.5,-207.5 200.5,-177.5 105.5,-177.5"/>
<text text-anchor="start" x="113.5" y="-195.5" font-family="Helvetica,sans-Serif" font-size="10.00">type(wave_speed_cs)</text>
<text text-anchor="middle" x="153" y="-184.5" font-family="Helvetica,sans-Serif" font-size="10.00">, pointer</text>
</g>
<!-- Node4&#45;&gt;Node1 -->
<g id="edge3" class="edge"><title>Node4&#45;&gt;Node1</title>
<path fill="none" stroke="#9a32cd" stroke-dasharray="5,2" d="M152.311,-167.134C152.687,-133.993 158.202,-74.6459 190,-38 197.409,-29.4614 207.885,-23.5964 218.4,-19.5781"/>
<polygon fill="#9a32cd" stroke="#9a32cd" points="148.812,-167.311 152.35,-177.298 155.812,-167.284 148.812,-167.311"/>
<text text-anchor="middle" x="222" y="-96" font-family="Helvetica,sans-Serif" font-size="10.00"> wave_speed_csp</text>
</g>
<!-- Node5 -->
<g id="node5" class="node"><title>Node5</title>
<polygon fill="white" stroke="#bfbfbf" points="219,-183 219,-202 297,-202 297,-183 219,-183"/>
<text text-anchor="middle" x="258" y="-190" font-family="Helvetica,sans-Serif" font-size="10.00">group_pass_type</text>
</g>
<!-- Node5&#45;&gt;Node1 -->
<g id="edge4" class="edge"><title>Node5&#45;&gt;Node1</title>
<path fill="none" stroke="#9a32cd" stroke-dasharray="5,2" d="M258,-172.428C258,-133.702 258,-47.1919 258,-19.6185"/>
<polygon fill="#9a32cd" stroke="#9a32cd" points="254.5,-172.794 258,-182.794 261.5,-172.794 254.5,-172.794"/>
<text text-anchor="middle" x="280.5" y="-96" font-family="Helvetica,sans-Serif" font-size="10.00"> pass_ke_uv</text>
</g>
<!-- Node6 -->
<g id="node6" class="node"><title>Node6</title>
<polygon fill="white" stroke="#bfbfbf" points="315.5,-183 315.5,-202 362.5,-202 362.5,-183 315.5,-183"/>
<text text-anchor="middle" x="339" y="-190" font-family="Helvetica,sans-Serif" font-size="10.00">diag_ctrl</text>
</g>
<!-- Node6&#45;&gt;Node1 -->
<g id="edge5" class="edge"><title>Node6&#45;&gt;Node1</title>
<path fill="none" stroke="#9a32cd" stroke-dasharray="5,2" d="M339.878,-172.586C340.355,-141.444 337.124,-78.7691 307,-38 300.939,-29.7976 291.607,-23.7816 282.707,-19.5383"/>
<polygon fill="#9a32cd" stroke="#9a32cd" points="336.371,-172.763 339.562,-182.866 343.368,-172.978 336.371,-172.763"/>
<text text-anchor="middle" x="349" y="-96" font-family="Helvetica,sans-Serif" font-size="10.00"> diag</text>
</g>
<!-- Node7 -->
<g id="node7" class="node"><title>Node7</title>
<polygon fill="white" stroke="#bfbfbf" points="380.5,-183 380.5,-202 421.5,-202 421.5,-183 380.5,-183"/>
<text text-anchor="middle" x="401" y="-190" font-family="Helvetica,sans-Serif" font-size="10.00">integer</text>
</g>
<!-- Node7&#45;&gt;Node1 -->
<g id="edge6" class="edge"><title>Node7&#45;&gt;Node1</title>
<path fill="none" stroke="#9a32cd" stroke-dasharray="5,2" d="M396.814,-172.94C387.77,-133.154 366.83,-42.8554 362,-38 352.001,-27.9492 338.773,-21.4865 325.115,-17.3671"/>
<polygon fill="#9a32cd" stroke="#9a32cd" points="393.404,-173.729 399.026,-182.709 400.231,-172.183 393.404,-173.729"/>
<text text-anchor="middle" x="416" y="-151" font-family="Helvetica,sans-Serif" font-size="10.00"> id_cfl_cg1_y</text>
<text text-anchor="middle" x="416" y="-140" font-family="Helvetica,sans-Serif" font-size="10.00">id_cfl_cg1</text>
<text text-anchor="middle" x="416" y="-129" font-family="Helvetica,sans-Serif" font-size="10.00">id_ke_visc</text>
<text text-anchor="middle" x="416" y="-118" font-family="Helvetica,sans-Serif" font-size="10.00">id_e</text>
<text text-anchor="middle" x="416" y="-107" font-family="Helvetica,sans-Serif" font-size="10.00">id_masscello</text>
<text text-anchor="middle" x="416" y="-96" font-family="Helvetica,sans-Serif" font-size="10.00">id_h_rlay</text>
<text text-anchor="middle" x="416" y="-85" font-family="Helvetica,sans-Serif" font-size="10.00">id_col_ht</text>
<text text-anchor="middle" x="416" y="-74" font-family="Helvetica,sans-Serif" font-size="10.00">id_masso</text>
<text text-anchor="middle" x="416" y="-63" font-family="Helvetica,sans-Serif" font-size="10.00">id_pe_to_ke</text>
<text text-anchor="middle" x="416" y="-52" font-family="Helvetica,sans-Serif" font-size="10.00">id_dh_dt</text>
<text text-anchor="middle" x="416" y="-41" font-family="Helvetica,sans-Serif" font-size="10.00">...</text>
</g>
<!-- Node8 -->
<g id="node8" class="node"><title>Node8</title>
<polygon fill="white" stroke="#bfbfbf" points="447,-183 447,-202 477,-202 477,-183 447,-183"/>
<text text-anchor="middle" x="462" y="-190" font-family="Helvetica,sans-Serif" font-size="10.00">real</text>
</g>
<!-- Node8&#45;&gt;Node1 -->
<g id="edge7" class="edge"><title>Node8&#45;&gt;Node1</title>
<path fill="none" stroke="#9a32cd" stroke-dasharray="5,2" d="M465.664,-172.742C470.791,-140.367 475.842,-74.0189 440,-38 424.059,-21.9803 370.136,-15.421 325.09,-12.7581"/>
<polygon fill="#9a32cd" stroke="#9a32cd" points="462.203,-172.215 463.914,-182.671 469.096,-173.43 462.203,-172.215"/>
<text text-anchor="middle" x="486" y="-151" font-family="Helvetica,sans-Serif" font-size="10.00"> dke_dt</text>
<text text-anchor="middle" x="486" y="-140" font-family="Helvetica,sans-Serif" font-size="10.00">e_d</text>
<text text-anchor="middle" x="486" y="-129" font-family="Helvetica,sans-Serif" font-size="10.00">dh_dt</text>
<text text-anchor="middle" x="486" y="-118" font-family="Helvetica,sans-Serif" font-size="10.00">cfl_cg1_x</text>
<text text-anchor="middle" x="486" y="-107" font-family="Helvetica,sans-Serif" font-size="10.00">cfl_cg1_y</text>
<text text-anchor="middle" x="486" y="-96" font-family="Helvetica,sans-Serif" font-size="10.00">cfl_cg1</text>
<text text-anchor="middle" x="486" y="-85" font-family="Helvetica,sans-Serif" font-size="10.00">dv_dt</text>
<text text-anchor="middle" x="486" y="-74" font-family="Helvetica,sans-Serif" font-size="10.00">du_dt</text>
<text text-anchor="middle" x="486" y="-63" font-family="Helvetica,sans-Serif" font-size="10.00">ke</text>
<text text-anchor="middle" x="486" y="-52" font-family="Helvetica,sans-Serif" font-size="10.00">cg1</text>
<text text-anchor="middle" x="486" y="-41" font-family="Helvetica,sans-Serif" font-size="10.00">...</text>
</g>
</g>
</svg>
