<?xml version="1.0" encoding="UTF-8" standalone="no"?>
<!DOCTYPE svg PUBLIC "-//W3C//DTD SVG 1.1//EN"
 "http://www.w3.org/Graphics/SVG/1.1/DTD/svg11.dtd">
<!-- Generated by graphviz version 2.38.0 (20140413.2041)
 -->
<!-- Title: mom_diag_to_z::diag_to_z_cs Pages: 1 -->
<svg width="325pt" height="194pt"
 viewBox="0.00 0.00 325.00 194.00" xmlns="http://www.w3.org/2000/svg" xmlns:xlink="http://www.w3.org/1999/xlink">
<g id="graph0" class="graph" transform="scale(1 1) rotate(0) translate(4 190)">
<title>mom_diag_to_z::diag_to_z_cs</title>
<polygon fill="white" stroke="none" points="-4,4 -4,-190 321,-190 321,4 -4,4"/>
<!-- Node1 -->
<g id="node1" class="node"><title>Node1</title>
<polygon fill="#bfbfbf" stroke="black" points="93.5,-0.5 93.5,-30.5 186.5,-30.5 186.5,-0.5 93.5,-0.5"/>
<text text-anchor="start" x="101.5" y="-18.5" font-family="Helvetica,sans-Serif" font-size="10.00">mom_diag_to_z::diag</text>
<text text-anchor="middle" x="140" y="-7.5" font-family="Helvetica,sans-Serif" font-size="10.00">_to_z_cs</text>
</g>
<!-- Node2 -->
<g id="node2" class="node"><title>Node2</title>
<polygon fill="white" stroke="#bfbfbf" points="0,-166.5 0,-185.5 30,-185.5 30,-166.5 0,-166.5"/>
<text text-anchor="middle" x="15" y="-173.5" font-family="Helvetica,sans-Serif" font-size="10.00">p3d</text>
</g>
<!-- Node2&#45;&gt;Node1 -->
<g id="edge1" class="edge"><title>Node2&#45;&gt;Node1</title>
<path fill="none" stroke="#9a32cd" stroke-dasharray="5,2" d="M13.2598,-156.327C11.8089,-129.253 13.3065,-79.056 40,-49 53.5162,-33.7812 74.2286,-25.6542 93.3047,-21.3283"/>
<polygon fill="#9a32cd" stroke="#9a32cd" points="9.77554,-156.672 13.9973,-166.389 16.7568,-156.16 9.77554,-156.672"/>
<text text-anchor="middle" x="56" y="-101.5" font-family="Helvetica,sans-Serif" font-size="10.00"> tr_z</text>
<text text-anchor="middle" x="56" y="-90.5" font-family="Helvetica,sans-Serif" font-size="10.00">tr_model</text>
</g>
<!-- Node3 -->
<g id="node3" class="node"><title>Node3</title>
<polygon fill="white" stroke="#bfbfbf" points="48,-166.5 48,-185.5 98,-185.5 98,-166.5 48,-166.5"/>
<text text-anchor="middle" x="73" y="-173.5" font-family="Helvetica,sans-Serif" font-size="10.00">axes_grp</text>
</g>
<!-- Node3&#45;&gt;Node1 -->
<g id="edge2" class="edge"><title>Node3&#45;&gt;Node1</title>
<path fill="none" stroke="#9a32cd" stroke-dasharray="5,2" d="M74.4413,-156.182C77.1283,-130.387 84.6243,-83.3362 105,-49 109.062,-42.1542 115,-35.8724 120.835,-30.6944"/>
<polygon fill="#9a32cd" stroke="#9a32cd" points="70.9308,-156.142 73.5162,-166.417 77.9024,-156.773 70.9308,-156.142"/>
<text text-anchor="middle" x="120.5" y="-140" font-family="Helvetica,sans-Serif" font-size="10.00"> axesz</text>
<text text-anchor="middle" x="120.5" y="-129" font-family="Helvetica,sans-Serif" font-size="10.00">axescvz</text>
<text text-anchor="middle" x="120.5" y="-118" font-family="Helvetica,sans-Serif" font-size="10.00">axescuz</text>
<text text-anchor="middle" x="120.5" y="-107" font-family="Helvetica,sans-Serif" font-size="10.00">axestz</text>
<text text-anchor="middle" x="120.5" y="-96" font-family="Helvetica,sans-Serif" font-size="10.00">axesbzi</text>
<text text-anchor="middle" x="120.5" y="-85" font-family="Helvetica,sans-Serif" font-size="10.00">axesbz</text>
<text text-anchor="middle" x="120.5" y="-74" font-family="Helvetica,sans-Serif" font-size="10.00">axestzi</text>
<text text-anchor="middle" x="120.5" y="-63" font-family="Helvetica,sans-Serif" font-size="10.00">axescuzi</text>
<text text-anchor="middle" x="120.5" y="-52" font-family="Helvetica,sans-Serif" font-size="10.00">axescvzi</text>
</g>
<!-- Node4 -->
<g id="node4" class="node"><title>Node4</title>
<polygon fill="white" stroke="#bfbfbf" points="116.5,-166.5 116.5,-185.5 163.5,-185.5 163.5,-166.5 116.5,-166.5"/>
<text text-anchor="middle" x="140" y="-173.5" font-family="Helvetica,sans-Serif" font-size="10.00">diag_ctrl</text>
</g>
<!-- Node4&#45;&gt;Node1 -->
<g id="edge3" class="edge"><title>Node4&#45;&gt;Node1</title>
<path fill="none" stroke="#9a32cd" stroke-dasharray="5,2" d="M140,-156.263C140,-124.174 140,-59.3923 140,-30.714"/>
<polygon fill="#9a32cd" stroke="#9a32cd" points="136.5,-156.478 140,-166.478 143.5,-156.478 136.5,-156.478"/>
<text text-anchor="middle" x="149" y="-96" font-family="Helvetica,sans-Serif" font-size="10.00"> diag</text>
</g>
<!-- Node5 -->
<g id="node5" class="node"><title>Node5</title>
<polygon fill="white" stroke="#bfbfbf" points="181.5,-166.5 181.5,-185.5 222.5,-185.5 222.5,-166.5 181.5,-166.5"/>
<text text-anchor="middle" x="202" y="-173.5" font-family="Helvetica,sans-Serif" font-size="10.00">integer</text>
</g>
<!-- Node5&#45;&gt;Node1 -->
<g id="edge4" class="edge"><title>Node5&#45;&gt;Node1</title>
<path fill="none" stroke="#9a32cd" stroke-dasharray="5,2" d="M196.554,-156.85C186.77,-124.398 166.788,-58.8811 162,-49 158.91,-42.6232 154.7,-36.0637 150.789,-30.5225"/>
<polygon fill="#9a32cd" stroke="#9a32cd" points="193.212,-157.892 199.445,-166.46 199.916,-155.876 193.212,-157.892"/>
<text text-anchor="middle" x="218" y="-140" font-family="Helvetica,sans-Serif" font-size="10.00"> id_vh_z</text>
<text text-anchor="middle" x="218" y="-129" font-family="Helvetica,sans-Serif" font-size="10.00">id_uh_z</text>
<text text-anchor="middle" x="218" y="-118" font-family="Helvetica,sans-Serif" font-size="10.00">id_u_z</text>
<text text-anchor="middle" x="218" y="-107" font-family="Helvetica,sans-Serif" font-size="10.00">id_v_z</text>
<text text-anchor="middle" x="218" y="-96" font-family="Helvetica,sans-Serif" font-size="10.00">axesz_out</text>
<text text-anchor="middle" x="218" y="-85" font-family="Helvetica,sans-Serif" font-size="10.00">id_tr</text>
<text text-anchor="middle" x="218" y="-74" font-family="Helvetica,sans-Serif" font-size="10.00">nk_zspace</text>
<text text-anchor="middle" x="218" y="-63" font-family="Helvetica,sans-Serif" font-size="10.00">num_tr_used</text>
<text text-anchor="middle" x="218" y="-52" font-family="Helvetica,sans-Serif" font-size="10.00">id_tr_xyave</text>
</g>
<!-- Node6 -->
<g id="node6" class="node"><title>Node6</title>
<polygon fill="white" stroke="#bfbfbf" points="249,-166.5 249,-185.5 279,-185.5 279,-166.5 249,-166.5"/>
<text text-anchor="middle" x="264" y="-173.5" font-family="Helvetica,sans-Serif" font-size="10.00">real</text>
</g>
<!-- Node6&#45;&gt;Node1 -->
<g id="edge5" class="edge"><title>Node6&#45;&gt;Node1</title>
<path fill="none" stroke="#9a32cd" stroke-dasharray="5,2" d="M266.275,-156.353C268.483,-129.311 268.32,-79.1552 242,-49 228.129,-33.1077 206.507,-24.9189 186.735,-20.7267"/>
<polygon fill="#9a32cd" stroke="#9a32cd" points="262.783,-156.099 265.253,-166.402 269.747,-156.808 262.783,-156.099"/>
<text text-anchor="middle" x="292" y="-140" font-family="Helvetica,sans-Serif" font-size="10.00"> missing_vel</text>
<text text-anchor="middle" x="292" y="-129" font-family="Helvetica,sans-Serif" font-size="10.00">z_int</text>
<text text-anchor="middle" x="292" y="-118" font-family="Helvetica,sans-Serif" font-size="10.00">missing_trans</text>
<text text-anchor="middle" x="292" y="-107" font-family="Helvetica,sans-Serif" font-size="10.00">u_z</text>
<text text-anchor="middle" x="292" y="-96" font-family="Helvetica,sans-Serif" font-size="10.00">v_z</text>
<text text-anchor="middle" x="292" y="-85" font-family="Helvetica,sans-Serif" font-size="10.00">missing_tr</text>
<text text-anchor="middle" x="292" y="-74" font-family="Helvetica,sans-Serif" font-size="10.00">missing_value</text>
<text text-anchor="middle" x="292" y="-63" font-family="Helvetica,sans-Serif" font-size="10.00">vh_z</text>
<text text-anchor="middle" x="292" y="-52" font-family="Helvetica,sans-Serif" font-size="10.00">uh_z</text>
</g>
</g>
</svg>
