<?xml version="1.0" encoding="UTF-8" standalone="no"?>
<!DOCTYPE svg PUBLIC "-//W3C//DTD SVG 1.1//EN"
 "http://www.w3.org/Graphics/SVG/1.1/DTD/svg11.dtd">
<!-- Generated by graphviz version 2.38.0 (20140413.2041)
 -->
<!-- Title: mom_tracer_advect::advect_tracer Pages: 1 -->
<svg width="394pt" height="176pt"
 viewBox="0.00 0.00 394.00 176.00" xmlns="http://www.w3.org/2000/svg" xmlns:xlink="http://www.w3.org/1999/xlink">
<g id="graph0" class="graph" transform="scale(1 1) rotate(0) translate(4 172)">
<title>mom_tracer_advect::advect_tracer</title>
<polygon fill="white" stroke="none" points="-4,4 -4,-172 390,-172 390,4 -4,4"/>
<!-- Node0 -->
<g id="node1" class="node"><title>Node0</title>
<polygon fill="#bfbfbf" stroke="black" points="0,-66.5 0,-96.5 92,-96.5 92,-66.5 0,-66.5"/>
<text text-anchor="start" x="8" y="-84.5" font-family="Helvetica,sans-Serif" font-size="10.00">mom_tracer_advect::</text>
<text text-anchor="middle" x="46" y="-73.5" font-family="Helvetica,sans-Serif" font-size="10.00">advect_tracer</text>
</g>
<!-- Node1 -->
<g id="node2" class="node"><title>Node1</title>
<g id="a_node2"><a xlink:href="../../d9/d29/namespacemom__tracer__advect.html#acee9d1be282582be406b3d2c8f1e598c" target="_top" xlink:title="This subroutine does 1&#45;d flux&#45;form advection in the zonal direction using a monotonic piecewise linea...">
<polygon fill="white" stroke="black" points="146.5,-137.5 146.5,-167.5 238.5,-167.5 238.5,-137.5 146.5,-137.5"/>
<text text-anchor="start" x="154.5" y="-155.5" font-family="Helvetica,sans-Serif" font-size="10.00">mom_tracer_advect::</text>
<text text-anchor="middle" x="192.5" y="-144.5" font-family="Helvetica,sans-Serif" font-size="10.00">advect_x</text>
</a>
</g>
</g>
<!-- Node0&#45;&gt;Node1 -->
<g id="edge1" class="edge"><title>Node0&#45;&gt;Node1</title>
<path fill="none" stroke="midnightblue" d="M70.5432,-96.5446C86.4162,-106.339 108.028,-119.011 128,-128.5 131.609,-130.215 135.376,-131.897 139.196,-133.524"/>
<polygon fill="midnightblue" stroke="midnightblue" points="138.16,-136.882 148.74,-137.444 140.82,-130.407 138.16,-136.882"/>
</g>
<!-- Node2 -->
<g id="node3" class="node"><title>Node2</title>
<g id="a_node3"><a xlink:href="../../d9/d29/namespacemom__tracer__advect.html#a8a574d23a0375a8099ceaf9f9c2db333" target="_top" xlink:title="This subroutine does 1&#45;d flux&#45;form advection using a monotonic piecewise linear scheme. ">
<polygon fill="white" stroke="black" points="146.5,-88.5 146.5,-118.5 238.5,-118.5 238.5,-88.5 146.5,-88.5"/>
<text text-anchor="start" x="154.5" y="-106.5" font-family="Helvetica,sans-Serif" font-size="10.00">mom_tracer_advect::</text>
<text text-anchor="middle" x="192.5" y="-95.5" font-family="Helvetica,sans-Serif" font-size="10.00">advect_y</text>
</a>
</g>
</g>
<!-- Node0&#45;&gt;Node2 -->
<g id="edge2" class="edge"><title>Node0&#45;&gt;Node2</title>
<path fill="none" stroke="midnightblue" d="M92.3242,-88.4006C106.312,-90.5302 121.871,-92.899 136.44,-95.1172"/>
<polygon fill="midnightblue" stroke="midnightblue" points="135.924,-98.5788 146.337,-96.6239 136.977,-91.6586 135.924,-98.5788"/>
</g>
<!-- Node3 -->
<g id="node4" class="node"><title>Node3</title>
<g id="a_node4"><a xlink:href="../../d1/d95/namespacemom__domains.html#ac90ecdd1f8397352dfa996ae7198b0ef" target="_top" xlink:title="mom_domains::do_group_pass">
<polygon fill="white" stroke="black" points="128,-50 128,-69 257,-69 257,-50 128,-50"/>
<text text-anchor="middle" x="192.5" y="-57" font-family="Helvetica,sans-Serif" font-size="10.00">mom_domains::do_group_pass</text>
</a>
</g>
</g>
<!-- Node0&#45;&gt;Node3 -->
<g id="edge3" class="edge"><title>Node0&#45;&gt;Node3</title>
<path fill="none" stroke="midnightblue" d="M92.3242,-74.5994C100.743,-73.3176 109.732,-71.9492 118.731,-70.5791"/>
<polygon fill="midnightblue" stroke="midnightblue" points="119.506,-74.0014 128.865,-69.0361 118.453,-67.0812 119.506,-74.0014"/>
</g>
<!-- Node4 -->
<g id="node5" class="node"><title>Node4</title>
<g id="a_node5"><a xlink:href="../../d0/de6/namespacemom__error__handler.html#a460cfb79a06c29fc249952c2a3710d67" target="_top" xlink:title="mom_error_handler::\lmom_error">
<polygon fill="white" stroke="black" points="146,-0.5 146,-30.5 239,-30.5 239,-0.5 146,-0.5"/>
<text text-anchor="start" x="154" y="-18.5" font-family="Helvetica,sans-Serif" font-size="10.00">mom_error_handler::</text>
<text text-anchor="middle" x="192.5" y="-7.5" font-family="Helvetica,sans-Serif" font-size="10.00">mom_error</text>
</a>
</g>
</g>
<!-- Node0&#45;&gt;Node4 -->
<g id="edge4" class="edge"><title>Node0&#45;&gt;Node4</title>
<path fill="none" stroke="midnightblue" d="M75.1757,-66.4216C90.6077,-58.3712 110.169,-48.5018 128,-40.5 132.611,-38.4308 137.448,-36.3571 142.309,-34.3378"/>
<polygon fill="midnightblue" stroke="midnightblue" points="143.692,-37.5537 151.63,-30.5372 141.049,-31.0718 143.692,-37.5537"/>
</g>
<!-- Node5 -->
<g id="node6" class="node"><title>Node5</title>
<g id="a_node6"><a xlink:href="../../d0/de6/namespacemom__error__handler.html#ad5f00a53059c72fe2332d1436c80ca71" target="_top" xlink:title="mom_error_handler::\lis_root_pe">
<polygon fill="white" stroke="black" points="293,-0.5 293,-30.5 386,-30.5 386,-0.5 293,-0.5"/>
<text text-anchor="start" x="301" y="-18.5" font-family="Helvetica,sans-Serif" font-size="10.00">mom_error_handler::</text>
<text text-anchor="middle" x="339.5" y="-7.5" font-family="Helvetica,sans-Serif" font-size="10.00">is_root_pe</text>
</a>
</g>
</g>
<!-- Node4&#45;&gt;Node5 -->
<g id="edge5" class="edge"><title>Node4&#45;&gt;Node5</title>
<path fill="none" stroke="midnightblue" d="M239.379,-15.5C253.132,-15.5 268.37,-15.5 282.69,-15.5"/>
<polygon fill="midnightblue" stroke="midnightblue" points="282.92,-19.0001 292.92,-15.5 282.92,-12.0001 282.92,-19.0001"/>
</g>
</g>
</svg>
