<?xml version="1.0" encoding="UTF-8" standalone="no"?>
<!DOCTYPE svg PUBLIC "-//W3C//DTD SVG 1.1//EN"
 "http://www.w3.org/Graphics/SVG/1.1/DTD/svg11.dtd">
<!-- Generated by graphviz version 2.38.0 (20140413.2041)
 -->
<!-- Title: shelf_triangular_festuff::ice_shelf_cs Pages: 1 -->
<svg width="336pt" height="666pt"
 viewBox="0.00 0.00 336.00 666.09" xmlns="http://www.w3.org/2000/svg" xmlns:xlink="http://www.w3.org/1999/xlink">
<g id="graph0" class="graph" transform="scale(1 1) rotate(0) translate(4 662.087)">
<title>shelf_triangular_festuff::ice_shelf_cs</title>
<polygon fill="white" stroke="none" points="-4,4 -4,-662.087 332,-662.087 332,4 -4,4"/>
<!-- Node1 -->
<g id="node1" class="node"><title>Node1</title>
<polygon fill="#bfbfbf" stroke="black" points="230,-388.087 230,-418.087 328,-418.087 328,-388.087 230,-388.087"/>
<text text-anchor="start" x="238" y="-406.087" font-family="Helvetica,sans-Serif" font-size="10.00">shelf_triangular_festuff</text>
<text text-anchor="middle" x="279" y="-395.087" font-family="Helvetica,sans-Serif" font-size="10.00">::ice_shelf_cs</text>
</g>
<!-- Node2 -->
<g id="node2" class="node"><title>Node2</title>
<polygon fill="white" stroke="#bfbfbf" points="30.5,-579.587 30.5,-598.587 68.5,-598.587 68.5,-579.587 30.5,-579.587"/>
<text text-anchor="middle" x="49.5" y="-586.587" font-family="Helvetica,sans-Serif" font-size="10.00">logical</text>
</g>
<!-- Node2&#45;&gt;Node1 -->
<g id="edge1" class="edge"><title>Node2&#45;&gt;Node1</title>
<path fill="none" stroke="#9a32cd" stroke-dasharray="5,2" d="M78.768,-592.311C113.832,-594.722 173.659,-593.437 212,-563.087 258.649,-526.16 272.619,-450.642 276.555,-418.318"/>
<polygon fill="#9a32cd" stroke="#9a32cd" points="78.9891,-588.817 68.7322,-591.472 78.4058,-595.793 78.9891,-588.817"/>
<text text-anchor="middle" x="164.5" y="-650.087" font-family="Helvetica,sans-Serif" font-size="10.00"> override_shelf_movement</text>
<text text-anchor="middle" x="164.5" y="-639.087" font-family="Helvetica,sans-Serif" font-size="10.00">shelf_mass_is_dynamic</text>
<text text-anchor="middle" x="164.5" y="-628.087" font-family="Helvetica,sans-Serif" font-size="10.00">threeeq</text>
<text text-anchor="middle" x="164.5" y="-617.087" font-family="Helvetica,sans-Serif" font-size="10.00">write_output_to_file</text>
<text text-anchor="middle" x="164.5" y="-606.087" font-family="Helvetica,sans-Serif" font-size="10.00">isthermo</text>
<text text-anchor="middle" x="164.5" y="-595.087" font-family="Helvetica,sans-Serif" font-size="10.00">isshelf</text>
</g>
<!-- Node3 -->
<g id="node3" class="node"><title>Node3</title>
<polygon fill="white" stroke="#bfbfbf" points="24,-541.587 24,-560.587 75,-560.587 75,-541.587 24,-541.587"/>
<text text-anchor="middle" x="49.5" y="-548.587" font-family="Helvetica,sans-Serif" font-size="10.00">time_type</text>
</g>
<!-- Node3&#45;&gt;Node1 -->
<g id="edge2" class="edge"><title>Node3&#45;&gt;Node1</title>
<path fill="none" stroke="#9a32cd" stroke-dasharray="5,2" d="M85.3626,-551.409C120.473,-550.054 174.65,-543.193 212,-516.087 246.2,-491.266 265.544,-442.861 273.566,-418.246"/>
<polygon fill="#9a32cd" stroke="#9a32cd" points="85.0259,-547.917 75.1181,-551.67 85.2038,-554.914 85.0259,-547.917"/>
<text text-anchor="middle" x="164.5" y="-551.087" font-family="Helvetica,sans-Serif" font-size="10.00"> time</text>
</g>
<!-- Node4 -->
<g id="node4" class="node"><title>Node4</title>
<polygon fill="white" stroke="#bfbfbf" points="0,-503.587 0,-522.587 99,-522.587 99,-503.587 0,-503.587"/>
<text text-anchor="middle" x="49.5" y="-510.587" font-family="Helvetica,sans-Serif" font-size="10.00">type(eos_type), pointer</text>
</g>
<!-- Node4&#45;&gt;Node1 -->
<g id="edge3" class="edge"><title>Node4&#45;&gt;Node1</title>
<path fill="none" stroke="#9a32cd" stroke-dasharray="5,2" d="M109.372,-504.111C141.286,-497.466 180.519,-486.311 212,-468.087 234.269,-455.195 254.483,-433.028 266.512,-418.215"/>
<polygon fill="#9a32cd" stroke="#9a32cd" points="108.414,-500.733 99.287,-506.113 109.777,-507.599 108.414,-500.733"/>
<text text-anchor="middle" x="164.5" y="-504.087" font-family="Helvetica,sans-Serif" font-size="10.00"> eqn_of_state</text>
</g>
<!-- Node5 -->
<g id="node5" class="node"><title>Node5</title>
<polygon fill="white" stroke="#bfbfbf" points="2,-454.087 2,-484.087 97,-484.087 97,-454.087 2,-454.087"/>
<text text-anchor="start" x="10" y="-472.087" font-family="Helvetica,sans-Serif" font-size="10.00">type(mom_restart_cs)</text>
<text text-anchor="middle" x="49.5" y="-461.087" font-family="Helvetica,sans-Serif" font-size="10.00">, pointer</text>
</g>
<!-- Node5&#45;&gt;Node1 -->
<g id="edge4" class="edge"><title>Node5&#45;&gt;Node1</title>
<path fill="none" stroke="#9a32cd" stroke-dasharray="5,2" d="M107.087,-457.006C138.309,-449.858 177.611,-440.066 212,-429.087 221.972,-425.903 232.598,-421.967 242.345,-418.13"/>
<polygon fill="#9a32cd" stroke="#9a32cd" points="106.231,-453.611 97.25,-459.232 107.776,-460.439 106.231,-453.611"/>
<text text-anchor="middle" x="164.5" y="-456.087" font-family="Helvetica,sans-Serif" font-size="10.00"> restart_csp</text>
</g>
<!-- Node6 -->
<g id="node6" class="node"><title>Node6</title>
<polygon fill="white" stroke="#bfbfbf" points="6.5,-405.087 6.5,-435.087 92.5,-435.087 92.5,-405.087 6.5,-405.087"/>
<text text-anchor="start" x="14.5" y="-423.087" font-family="Helvetica,sans-Serif" font-size="10.00">type(user_ice_shelf</text>
<text text-anchor="middle" x="49.5" y="-412.087" font-family="Helvetica,sans-Serif" font-size="10.00">_cs), pointer</text>
</g>
<!-- Node6&#45;&gt;Node1 -->
<g id="edge5" class="edge"><title>Node6&#45;&gt;Node1</title>
<path fill="none" stroke="#9a32cd" stroke-dasharray="5,2" d="M103.154,-416.152C141.319,-413.301 192.531,-409.474 229.66,-406.699"/>
<polygon fill="#9a32cd" stroke="#9a32cd" points="102.469,-412.694 92.7578,-416.929 102.991,-419.674 102.469,-412.694"/>
<text text-anchor="middle" x="164.5" y="-417.087" font-family="Helvetica,sans-Serif" font-size="10.00"> user_cs</text>
</g>
<!-- Node7 -->
<g id="node7" class="node"><title>Node7</title>
<polygon fill="white" stroke="#bfbfbf" points="26,-366.587 26,-385.587 73,-385.587 73,-366.587 26,-366.587"/>
<text text-anchor="middle" x="49.5" y="-373.587" font-family="Helvetica,sans-Serif" font-size="10.00">diag_ctrl</text>
</g>
<!-- Node7&#45;&gt;Node1 -->
<g id="edge6" class="edge"><title>Node7&#45;&gt;Node1</title>
<path fill="none" stroke="#9a32cd" stroke-dasharray="5,2" d="M83.3237,-379.101C115.991,-382.204 167.531,-387.381 212,-393.087 217.747,-393.825 223.767,-394.655 229.734,-395.515"/>
<polygon fill="#9a32cd" stroke="#9a32cd" points="83.2902,-375.582 73.0063,-378.13 82.6345,-382.551 83.2902,-375.582"/>
<text text-anchor="middle" x="164.5" y="-396.087" font-family="Helvetica,sans-Serif" font-size="10.00"> diag</text>
</g>
<!-- Node8 -->
<g id="node8" class="node"><title>Node8</title>
<polygon fill="white" stroke="#bfbfbf" points="7,-328.587 7,-347.587 92,-347.587 92,-328.587 7,-328.587"/>
<text text-anchor="middle" x="49.5" y="-335.587" font-family="Helvetica,sans-Serif" font-size="10.00">character(len=128)</text>
</g>
<!-- Node8&#45;&gt;Node1 -->
<g id="edge7" class="edge"><title>Node8&#45;&gt;Node1</title>
<path fill="none" stroke="#9a32cd" stroke-dasharray="5,2" d="M102.36,-343.1C134.58,-347.259 176.48,-354.582 212,-367.087 226.897,-372.332 242.456,-380.661 254.724,-387.987"/>
<polygon fill="#9a32cd" stroke="#9a32cd" points="102.612,-339.605 92.2595,-341.859 101.758,-346.553 102.612,-339.605"/>
<text text-anchor="middle" x="164.5" y="-370.087" font-family="Helvetica,sans-Serif" font-size="10.00"> restart_output_dir</text>
</g>
<!-- Node9 -->
<g id="node9" class="node"><title>Node9</title>
<polygon fill="white" stroke="#bfbfbf" points="29,-198.587 29,-217.587 70,-217.587 70,-198.587 29,-198.587"/>
<text text-anchor="middle" x="49.5" y="-205.587" font-family="Helvetica,sans-Serif" font-size="10.00">integer</text>
</g>
<!-- Node9&#45;&gt;Node1 -->
<g id="edge8" class="edge"><title>Node9&#45;&gt;Node1</title>
<path fill="none" stroke="#9a32cd" stroke-dasharray="5,2" d="M80.3902,-201.63C115.603,-195.846 174.098,-192.177 212,-221.087 266.116,-262.364 275.915,-352.218 277.648,-387.971"/>
<polygon fill="#9a32cd" stroke="#9a32cd" points="79.4771,-198.238 70.2579,-203.459 80.7207,-205.126 79.4771,-198.238"/>
<text text-anchor="middle" x="164.5" y="-334.087" font-family="Helvetica,sans-Serif" font-size="10.00"> id_bathym</text>
<text text-anchor="middle" x="164.5" y="-323.087" font-family="Helvetica,sans-Serif" font-size="10.00">id_exch_vel_s</text>
<text text-anchor="middle" x="164.5" y="-312.087" font-family="Helvetica,sans-Serif" font-size="10.00">id_melt</text>
<text text-anchor="middle" x="164.5" y="-301.087" font-family="Helvetica,sans-Serif" font-size="10.00">id_exch_vel_t</text>
<text text-anchor="middle" x="164.5" y="-290.087" font-family="Helvetica,sans-Serif" font-size="10.00">cg_max_iterations</text>
<text text-anchor="middle" x="164.5" y="-279.087" font-family="Helvetica,sans-Serif" font-size="10.00">id_tfl_shelf</text>
<text text-anchor="middle" x="164.5" y="-268.087" font-family="Helvetica,sans-Serif" font-size="10.00">id_col_thick</text>
<text text-anchor="middle" x="164.5" y="-257.087" font-family="Helvetica,sans-Serif" font-size="10.00">id_h_shelf</text>
<text text-anchor="middle" x="164.5" y="-246.087" font-family="Helvetica,sans-Serif" font-size="10.00">id_u_shelf</text>
<text text-anchor="middle" x="164.5" y="-235.087" font-family="Helvetica,sans-Serif" font-size="10.00">id_surf_elev</text>
<text text-anchor="middle" x="164.5" y="-224.087" font-family="Helvetica,sans-Serif" font-size="10.00">...</text>
</g>
<!-- Node10 -->
<g id="node10" class="node"><title>Node10</title>
<polygon fill="white" stroke="#bfbfbf" points="34.5,-43.587 34.5,-62.587 64.5,-62.587 64.5,-43.587 34.5,-43.587"/>
<text text-anchor="middle" x="49.5" y="-50.587" font-family="Helvetica,sans-Serif" font-size="10.00">real</text>
</g>
<!-- Node10&#45;&gt;Node1 -->
<g id="edge9" class="edge"><title>Node10&#45;&gt;Node1</title>
<path fill="none" stroke="#9a32cd" stroke-dasharray="5,2" d="M74.482,-46.2544C109.301,-37.9359 173.847,-28.7833 212,-62.087 262.084,-105.805 274.855,-327.195 277.434,-387.756"/>
<polygon fill="#9a32cd" stroke="#9a32cd" points="73.5118,-42.8898 64.6927,-48.7613 75.2484,-49.671 73.5118,-42.8898"/>
<text text-anchor="middle" x="164.5" y="-186.087" font-family="Helvetica,sans-Serif" font-size="10.00"> input_thickness</text>
<text text-anchor="middle" x="164.5" y="-175.087" font-family="Helvetica,sans-Serif" font-size="10.00">gamma_t</text>
<text text-anchor="middle" x="164.5" y="-164.087" font-family="Helvetica,sans-Serif" font-size="10.00">a_glen_isothermal</text>
<text text-anchor="middle" x="164.5" y="-153.087" font-family="Helvetica,sans-Serif" font-size="10.00">temp_ice</text>
<text text-anchor="start" x="131.5" y="-142.087" font-family="Helvetica,sans-Serif" font-size="10.00">thresh_float_col</text>
<text text-anchor="middle" x="164.5" y="-131.087" font-family="Helvetica,sans-Serif" font-size="10.00">_depth</text>
<text text-anchor="middle" x="164.5" y="-120.087" font-family="Helvetica,sans-Serif" font-size="10.00">kv_molec</text>
<text text-anchor="middle" x="164.5" y="-109.087" font-family="Helvetica,sans-Serif" font-size="10.00">ustar_bg</text>
<text text-anchor="middle" x="164.5" y="-98.087" font-family="Helvetica,sans-Serif" font-size="10.00">area_shelf_h</text>
<text text-anchor="middle" x="164.5" y="-87.087" font-family="Helvetica,sans-Serif" font-size="10.00">n_basal_friction</text>
<text text-anchor="middle" x="164.5" y="-76.087" font-family="Helvetica,sans-Serif" font-size="10.00">kd_molec_temp</text>
<text text-anchor="middle" x="164.5" y="-65.087" font-family="Helvetica,sans-Serif" font-size="10.00">...</text>
</g>
<!-- Node11 -->
<g id="node11" class="node"><title>Node11</title>
<polygon fill="white" stroke="#bfbfbf" points="11.5,-5.587 11.5,-24.587 87.5,-24.587 87.5,-5.587 11.5,-5.587"/>
<text text-anchor="middle" x="49.5" y="-12.587" font-family="Helvetica,sans-Serif" font-size="10.00">ocean_grid_type</text>
</g>
<!-- Node11&#45;&gt;Node1 -->
<g id="edge10" class="edge"><title>Node11&#45;&gt;Node1</title>
<path fill="none" stroke="#9a32cd" stroke-dasharray="5,2" d="M96.6354,-3.66917C132.491,2.24489 181.159,3.34803 212,-24.087 267.515,-73.4723 276.386,-323.311 277.757,-387.852"/>
<polygon fill="#9a32cd" stroke="#9a32cd" points="95.6278,-0.295358 86.4212,-5.53836 96.8879,-7.18101 95.6278,-0.295358"/>
<text text-anchor="middle" x="164.5" y="-27.087" font-family="Helvetica,sans-Serif" font-size="10.00"> grid</text>
</g>
</g>
</svg>
