<?xml version="1.0" encoding="UTF-8" standalone="no"?>
<!DOCTYPE svg PUBLIC "-//W3C//DTD SVG 1.1//EN"
 "http://www.w3.org/Graphics/SVG/1.1/DTD/svg11.dtd">
<!-- Generated by graphviz version 2.38.0 (20140413.2041)
 -->
<!-- Title: mom_coord_initialization::set_coord_from_ts_range Pages: 1 -->
<svg width="478pt" height="39pt"
 viewBox="0.00 0.00 478.00 39.00" xmlns="http://www.w3.org/2000/svg" xmlns:xlink="http://www.w3.org/1999/xlink">
<g id="graph0" class="graph" transform="scale(1 1) rotate(0) translate(4 35)">
<title>mom_coord_initialization::set_coord_from_ts_range</title>
<polygon fill="white" stroke="none" points="-4,4 -4,-35 474,-35 474,4 -4,4"/>
<!-- Node63 -->
<g id="node1" class="node"><title>Node63</title>
<polygon fill="#bfbfbf" stroke="black" points="0,-0.5 0,-30.5 113,-30.5 113,-0.5 0,-0.5"/>
<text text-anchor="start" x="8" y="-18.5" font-family="Helvetica,sans-Serif" font-size="10.00">mom_coord_initialization</text>
<text text-anchor="middle" x="56.5" y="-7.5" font-family="Helvetica,sans-Serif" font-size="10.00">::set_coord_from_ts_range</text>
</g>
<!-- Node64 -->
<g id="node2" class="node"><title>Node64</title>
<g id="a_node2"><a xlink:href="../../de/d88/namespacemom__coord__initialization.html#a6e2f4c11bc99476ea9c64a9aceac3b81" target="_top" xlink:title="MOM_initialize_coord sets up time&#45;invariant quantities related to MOM6&#39;s vertical coordinate...">
<polygon fill="white" stroke="black" points="149,-0.5 149,-30.5 253,-30.5 253,-0.5 149,-0.5"/>
<text text-anchor="start" x="157" y="-18.5" font-family="Helvetica,sans-Serif" font-size="10.00">mom_coord_initialization</text>
<text text-anchor="middle" x="201" y="-7.5" font-family="Helvetica,sans-Serif" font-size="10.00">::mom_initialize_coord</text>
</a>
</g>
</g>
<!-- Node63&#45;&gt;Node64 -->
<g id="edge1" class="edge"><title>Node63&#45;&gt;Node64</title>
<path fill="none" stroke="midnightblue" d="M123.005,-15.5C131.595,-15.5 140.297,-15.5 148.608,-15.5"/>
<polygon fill="midnightblue" stroke="midnightblue" points="123.002,-12.0001 113.002,-15.5 123.002,-19.0001 123.002,-12.0001"/>
</g>
<!-- Node65 -->
<g id="node3" class="node"><title>Node65</title>
<g id="a_node3"><a xlink:href="../../da/d01/namespacemom.html#afebdc0103ad9cbe0ed4a54e522dc4104" target="_top" xlink:title="This subroutine initializes MOM. ">
<polygon fill="white" stroke="black" points="289,-6 289,-25 378,-25 378,-6 289,-6"/>
<text text-anchor="middle" x="333.5" y="-13" font-family="Helvetica,sans-Serif" font-size="10.00">mom::initialize_mom</text>
</a>
</g>
</g>
<!-- Node64&#45;&gt;Node65 -->
<g id="edge2" class="edge"><title>Node64&#45;&gt;Node65</title>
<path fill="none" stroke="midnightblue" d="M263.478,-15.5C271.969,-15.5 280.545,-15.5 288.628,-15.5"/>
<polygon fill="midnightblue" stroke="midnightblue" points="263.203,-12.0001 253.203,-15.5 263.202,-19.0001 263.203,-12.0001"/>
</g>
<!-- Node66 -->
<g id="node4" class="node"><title>Node66</title>
<g id="a_node4"><a xlink:href="../../de/dbc/MOM__driver_8F90.html#a08fffeb2d8e8acbf9ed4609be6d258c6" target="_top" xlink:title="mom_main">
<polygon fill="white" stroke="black" points="414,-6 414,-25 470,-25 470,-6 414,-6"/>
<text text-anchor="middle" x="442" y="-13" font-family="Helvetica,sans-Serif" font-size="10.00">mom_main</text>
</a>
</g>
</g>
<!-- Node65&#45;&gt;Node66 -->
<g id="edge3" class="edge"><title>Node65&#45;&gt;Node66</title>
<path fill="none" stroke="midnightblue" d="M388.407,-15.5C397.206,-15.5 405.981,-15.5 413.771,-15.5"/>
<polygon fill="midnightblue" stroke="midnightblue" points="388.125,-12.0001 378.125,-15.5 388.125,-19.0001 388.125,-12.0001"/>
</g>
</g>
</svg>
