<?xml version="1.0" encoding="UTF-8" standalone="no"?>
<!DOCTYPE svg PUBLIC "-//W3C//DTD SVG 1.1//EN"
 "http://www.w3.org/Graphics/SVG/1.1/DTD/svg11.dtd">
<!-- Generated by graphviz version 2.38.0 (20140413.2041)
 -->
<!-- Title: mom_coord_initialization::set_coord_from_file Pages: 1 -->
<svg width="499pt" height="127pt"
 viewBox="0.00 0.00 499.00 127.00" xmlns="http://www.w3.org/2000/svg" xmlns:xlink="http://www.w3.org/1999/xlink">
<g id="graph0" class="graph" transform="scale(1 1) rotate(0) translate(4 123)">
<title>mom_coord_initialization::set_coord_from_file</title>
<polygon fill="white" stroke="none" points="-4,4 -4,-123 495,-123 495,4 -4,4"/>
<!-- Node23 -->
<g id="node1" class="node"><title>Node23</title>
<polygon fill="#bfbfbf" stroke="black" points="0,-44.5 0,-74.5 104,-74.5 104,-44.5 0,-44.5"/>
<text text-anchor="start" x="8" y="-62.5" font-family="Helvetica,sans-Serif" font-size="10.00">mom_coord_initialization</text>
<text text-anchor="middle" x="52" y="-51.5" font-family="Helvetica,sans-Serif" font-size="10.00">::set_coord_from_file</text>
</g>
<!-- Node24 -->
<g id="node2" class="node"><title>Node24</title>
<g id="a_node2"><a xlink:href="../../d0/de6/namespacemom__error__handler.html#a9cda07a87815f0e5594066162b4345c3" target="_top" xlink:title="Writes a message about entering a subroutine if call tree reporting is active. ">
<polygon fill="white" stroke="black" points="269,-88.5 269,-118.5 362,-118.5 362,-88.5 269,-88.5"/>
<text text-anchor="start" x="277" y="-106.5" font-family="Helvetica,sans-Serif" font-size="10.00">mom_error_handler::</text>
<text text-anchor="middle" x="315.5" y="-95.5" font-family="Helvetica,sans-Serif" font-size="10.00">calltree_enter</text>
</a>
</g>
</g>
<!-- Node23&#45;&gt;Node24 -->
<g id="edge1" class="edge"><title>Node23&#45;&gt;Node24</title>
<path fill="none" stroke="midnightblue" d="M102.373,-74.5482C114.584,-77.8735 127.695,-81.1125 140,-83.5 179.201,-91.1059 223.958,-96.1638 258.329,-99.2902"/>
<polygon fill="midnightblue" stroke="midnightblue" points="258.376,-102.808 268.645,-100.199 258.99,-95.8349 258.376,-102.808"/>
</g>
<!-- Node26 -->
<g id="node4" class="node"><title>Node26</title>
<g id="a_node4"><a xlink:href="../../d0/de6/namespacemom__error__handler.html#a88ea67781e2ed9b73ab7eac8ea5e8578" target="_top" xlink:title="Writes a message about leaving a subroutine if call tree reporting is active. ">
<polygon fill="white" stroke="black" points="140,-44.5 140,-74.5 233,-74.5 233,-44.5 140,-44.5"/>
<text text-anchor="start" x="148" y="-62.5" font-family="Helvetica,sans-Serif" font-size="10.00">mom_error_handler::</text>
<text text-anchor="middle" x="186.5" y="-51.5" font-family="Helvetica,sans-Serif" font-size="10.00">calltree_leave</text>
</a>
</g>
</g>
<!-- Node23&#45;&gt;Node26 -->
<g id="edge3" class="edge"><title>Node23&#45;&gt;Node26</title>
<path fill="none" stroke="midnightblue" d="M104.228,-59.5C112.512,-59.5 121.126,-59.5 129.515,-59.5"/>
<polygon fill="midnightblue" stroke="midnightblue" points="129.599,-63.0001 139.599,-59.5 129.599,-56.0001 129.599,-63.0001"/>
</g>
<!-- Node27 -->
<g id="node5" class="node"><title>Node27</title>
<g id="a_node5"><a xlink:href="../../d5/d89/namespacemom__io.html#ae7dd72cf77d5179d387ba16153af1b80" target="_top" xlink:title="Returns a directory name that is terminated with a &quot;/&quot; or &quot;./&quot; if the argument is an empty string...">
<polygon fill="white" stroke="black" points="149,-6 149,-25 224,-25 224,-6 149,-6"/>
<text text-anchor="middle" x="186.5" y="-13" font-family="Helvetica,sans-Serif" font-size="10.00">mom_io::slasher</text>
</a>
</g>
</g>
<!-- Node23&#45;&gt;Node27 -->
<g id="edge5" class="edge"><title>Node23&#45;&gt;Node27</title>
<path fill="none" stroke="midnightblue" d="M98.2284,-44.4808C114.095,-39.2119 131.756,-33.347 147.017,-28.2792"/>
<polygon fill="midnightblue" stroke="midnightblue" points="148.269,-31.5515 156.656,-25.0783 146.063,-24.9082 148.269,-31.5515"/>
</g>
<!-- Node25 -->
<g id="node3" class="node"><title>Node25</title>
<g id="a_node3"><a xlink:href="../../d0/de6/namespacemom__error__handler.html#ad5f00a53059c72fe2332d1436c80ca71" target="_top" xlink:title="mom_error_handler::\lis_root_pe">
<polygon fill="white" stroke="black" points="398,-44.5 398,-74.5 491,-74.5 491,-44.5 398,-44.5"/>
<text text-anchor="start" x="406" y="-62.5" font-family="Helvetica,sans-Serif" font-size="10.00">mom_error_handler::</text>
<text text-anchor="middle" x="444.5" y="-51.5" font-family="Helvetica,sans-Serif" font-size="10.00">is_root_pe</text>
</a>
</g>
</g>
<!-- Node24&#45;&gt;Node25 -->
<g id="edge2" class="edge"><title>Node24&#45;&gt;Node25</title>
<path fill="none" stroke="midnightblue" d="M359.851,-88.4808C369.653,-85.0849 380.169,-81.4414 390.324,-77.9233"/>
<polygon fill="midnightblue" stroke="midnightblue" points="391.61,-81.1818 399.913,-74.6009 389.318,-74.5675 391.61,-81.1818"/>
</g>
<!-- Node26&#45;&gt;Node25 -->
<g id="edge4" class="edge"><title>Node26&#45;&gt;Node25</title>
<path fill="none" stroke="midnightblue" d="M233.268,-59.5C276.455,-59.5 341.3,-59.5 387.542,-59.5"/>
<polygon fill="midnightblue" stroke="midnightblue" points="387.698,-63.0001 397.698,-59.5 387.698,-56.0001 387.698,-63.0001"/>
</g>
<!-- Node28 -->
<g id="node6" class="node"><title>Node28</title>
<g id="a_node6"><a xlink:href="../../d0/de6/namespacemom__error__handler.html#a460cfb79a06c29fc249952c2a3710d67" target="_top" xlink:title="mom_error_handler::\lmom_error">
<polygon fill="white" stroke="black" points="269,-0.5 269,-30.5 362,-30.5 362,-0.5 269,-0.5"/>
<text text-anchor="start" x="277" y="-18.5" font-family="Helvetica,sans-Serif" font-size="10.00">mom_error_handler::</text>
<text text-anchor="middle" x="315.5" y="-7.5" font-family="Helvetica,sans-Serif" font-size="10.00">mom_error</text>
</a>
</g>
</g>
<!-- Node27&#45;&gt;Node28 -->
<g id="edge6" class="edge"><title>Node27&#45;&gt;Node28</title>
<path fill="none" stroke="midnightblue" d="M224.234,-15.5C234.999,-15.5 247.021,-15.5 258.691,-15.5"/>
<polygon fill="midnightblue" stroke="midnightblue" points="258.816,-19.0001 268.815,-15.5 258.815,-12.0001 258.816,-19.0001"/>
</g>
<!-- Node28&#45;&gt;Node25 -->
<g id="edge7" class="edge"><title>Node28&#45;&gt;Node25</title>
<path fill="none" stroke="midnightblue" d="M359.851,-30.5192C369.653,-33.9151 380.169,-37.5586 390.324,-41.0767"/>
<polygon fill="midnightblue" stroke="midnightblue" points="389.318,-44.4325 399.913,-44.3991 391.61,-37.8182 389.318,-44.4325"/>
</g>
</g>
</svg>
