<?xml version="1.0" encoding="UTF-8" standalone="no"?>
<!DOCTYPE svg PUBLIC "-//W3C//DTD SVG 1.1//EN"
 "http://www.w3.org/Graphics/SVG/1.1/DTD/svg11.dtd">
<!-- Generated by graphviz version 2.38.0 (20140413.2041)
 -->
<!-- Title: scm_idealized_hurricane::scm_idealized_hurricane_wind_forcing Pages: 1 -->
<svg width="346pt" height="50pt"
 viewBox="0.00 0.00 346.00 50.00" xmlns="http://www.w3.org/2000/svg" xmlns:xlink="http://www.w3.org/1999/xlink">
<g id="graph0" class="graph" transform="scale(1 1) rotate(0) translate(4 46)">
<title>scm_idealized_hurricane::scm_idealized_hurricane_wind_forcing</title>
<polygon fill="white" stroke="none" points="-4,4 -4,-46 342,-46 342,4 -4,4"/>
<!-- Node7 -->
<g id="node1" class="node"><title>Node7</title>
<polygon fill="#bfbfbf" stroke="black" points="0,-0.5 0,-41.5 109,-41.5 109,-0.5 0,-0.5"/>
<text text-anchor="start" x="8" y="-29.5" font-family="Helvetica,sans-Serif" font-size="10.00">scm_idealized_hurricane</text>
<text text-anchor="start" x="8" y="-18.5" font-family="Helvetica,sans-Serif" font-size="10.00">::scm_idealized_hurricane</text>
<text text-anchor="middle" x="54.5" y="-7.5" font-family="Helvetica,sans-Serif" font-size="10.00">_wind_forcing</text>
</g>
<!-- Node8 -->
<g id="node2" class="node"><title>Node8</title>
<g id="a_node2"><a xlink:href="../../dd/dc3/namespacemom__forcing__type.html#a765fdabc0bc35293aba97b957d579919" target="_top" xlink:title="Conditionally allocate fields within the forcing type. ">
<polygon fill="white" stroke="black" points="145,-6 145,-36 259,-36 259,-6 145,-6"/>
<text text-anchor="start" x="153" y="-24" font-family="Helvetica,sans-Serif" font-size="10.00">mom_forcing_type::allocate</text>
<text text-anchor="middle" x="202" y="-13" font-family="Helvetica,sans-Serif" font-size="10.00">_forcing_type</text>
</a>
</g>
</g>
<!-- Node7&#45;&gt;Node8 -->
<g id="edge1" class="edge"><title>Node7&#45;&gt;Node8</title>
<path fill="none" stroke="midnightblue" d="M109.265,-21C117.438,-21 125.954,-21 134.36,-21"/>
<polygon fill="midnightblue" stroke="midnightblue" points="134.53,-24.5001 144.53,-21 134.529,-17.5001 134.53,-24.5001"/>
</g>
<!-- Node9 -->
<g id="node3" class="node"><title>Node9</title>
<g id="a_node3"><a xlink:href="../../d5/ded/MOM__forcing__type_8F90.html#aede7c3d8c91ec3e8a8a3b68824a5e9e8" target="_top" xlink:title="myalloc">
<polygon fill="white" stroke="black" points="295,-11.5 295,-30.5 338,-30.5 338,-11.5 295,-11.5"/>
<text text-anchor="middle" x="316.5" y="-18.5" font-family="Helvetica,sans-Serif" font-size="10.00">myalloc</text>
</a>
</g>
</g>
<!-- Node8&#45;&gt;Node9 -->
<g id="edge2" class="edge"><title>Node8&#45;&gt;Node9</title>
<path fill="none" stroke="midnightblue" d="M259.25,-21C268.012,-21 276.773,-21 284.685,-21"/>
<polygon fill="midnightblue" stroke="midnightblue" points="284.866,-24.5001 294.866,-21 284.866,-17.5001 284.866,-24.5001"/>
</g>
</g>
</svg>
