<?xml version="1.0" encoding="UTF-8" standalone="no"?>
<!DOCTYPE svg PUBLIC "-//W3C//DTD SVG 1.1//EN"
 "http://www.w3.org/Graphics/SVG/1.1/DTD/svg11.dtd">
<!-- Generated by graphviz version 2.38.0 (20140413.2041)
 -->
<!-- Title: mom_verticalgrid::verticalgridinit Pages: 1 -->
<svg width="396pt" height="88pt"
 viewBox="0.00 0.00 396.00 88.00" xmlns="http://www.w3.org/2000/svg" xmlns:xlink="http://www.w3.org/1999/xlink">
<g id="graph0" class="graph" transform="scale(1 1) rotate(0) translate(4 84)">
<title>mom_verticalgrid::verticalgridinit</title>
<polygon fill="white" stroke="none" points="-4,4 -4,-84 392,-84 392,4 -4,4"/>
<!-- Node34 -->
<g id="node1" class="node"><title>Node34</title>
<polygon fill="#bfbfbf" stroke="black" points="0,-30 0,-49 130,-49 130,-30 0,-30"/>
<text text-anchor="middle" x="65" y="-37" font-family="Helvetica,sans-Serif" font-size="10.00">mom_verticalgrid::verticalgridinit</text>
</g>
<!-- Node35 -->
<g id="node2" class="node"><title>Node35</title>
<g id="a_node2"><a xlink:href="../../d9/def/namespacemom__file__parser.html#a17c0ef1bb1912f02faa0aaa1e0f64210" target="_top" xlink:title="mom_file_parser::log\l_version">
<polygon fill="white" stroke="black" points="166.5,-49.5 166.5,-79.5 258.5,-79.5 258.5,-49.5 166.5,-49.5"/>
<text text-anchor="start" x="174.5" y="-67.5" font-family="Helvetica,sans-Serif" font-size="10.00">mom_file_parser::log</text>
<text text-anchor="middle" x="212.5" y="-56.5" font-family="Helvetica,sans-Serif" font-size="10.00">_version</text>
</a>
</g>
</g>
<!-- Node34&#45;&gt;Node35 -->
<g id="edge1" class="edge"><title>Node34&#45;&gt;Node35</title>
<path fill="none" stroke="midnightblue" d="M121.422,-49.0227C132.736,-50.9667 144.643,-53.0126 155.961,-54.9572"/>
<polygon fill="midnightblue" stroke="midnightblue" points="155.706,-58.4647 166.155,-56.7087 156.892,-51.5658 155.706,-58.4647"/>
</g>
<!-- Node37 -->
<g id="node4" class="node"><title>Node37</title>
<g id="a_node4"><a xlink:href="../../d0/de6/namespacemom__error__handler.html#a460cfb79a06c29fc249952c2a3710d67" target="_top" xlink:title="mom_error_handler::\lmom_error">
<polygon fill="white" stroke="black" points="166,-0.5 166,-30.5 259,-30.5 259,-0.5 166,-0.5"/>
<text text-anchor="start" x="174" y="-18.5" font-family="Helvetica,sans-Serif" font-size="10.00">mom_error_handler::</text>
<text text-anchor="middle" x="212.5" y="-7.5" font-family="Helvetica,sans-Serif" font-size="10.00">mom_error</text>
</a>
</g>
</g>
<!-- Node34&#45;&gt;Node37 -->
<g id="edge3" class="edge"><title>Node34&#45;&gt;Node37</title>
<path fill="none" stroke="midnightblue" d="M123.924,-29.9456C134.493,-28.2021 145.499,-26.3867 155.997,-24.6552"/>
<polygon fill="midnightblue" stroke="midnightblue" points="156.578,-28.1068 165.875,-23.0258 155.438,-21.2001 156.578,-28.1068"/>
</g>
<!-- Node36 -->
<g id="node3" class="node"><title>Node36</title>
<g id="a_node3"><a xlink:href="../../d0/de6/namespacemom__error__handler.html#ad5f00a53059c72fe2332d1436c80ca71" target="_top" xlink:title="mom_error_handler::\lis_root_pe">
<polygon fill="white" stroke="black" points="295,-24.5 295,-54.5 388,-54.5 388,-24.5 295,-24.5"/>
<text text-anchor="start" x="303" y="-42.5" font-family="Helvetica,sans-Serif" font-size="10.00">mom_error_handler::</text>
<text text-anchor="middle" x="341.5" y="-31.5" font-family="Helvetica,sans-Serif" font-size="10.00">is_root_pe</text>
</a>
</g>
</g>
<!-- Node35&#45;&gt;Node36 -->
<g id="edge2" class="edge"><title>Node35&#45;&gt;Node36</title>
<path fill="none" stroke="midnightblue" d="M258.633,-55.6155C267.037,-53.9612 275.911,-52.2144 284.592,-50.5055"/>
<polygon fill="midnightblue" stroke="midnightblue" points="285.52,-53.8901 294.656,-48.5245 284.168,-47.0219 285.52,-53.8901"/>
</g>
<!-- Node37&#45;&gt;Node36 -->
<g id="edge4" class="edge"><title>Node37&#45;&gt;Node36</title>
<path fill="none" stroke="midnightblue" d="M259.35,-24.1646C267.623,-25.7279 276.33,-27.3734 284.846,-28.9827"/>
<polygon fill="midnightblue" stroke="midnightblue" points="284.241,-32.4303 294.717,-30.8482 285.541,-25.5521 284.241,-32.4303"/>
</g>
</g>
</svg>
