<?xml version="1.0" encoding="UTF-8" standalone="no"?>
<!DOCTYPE svg PUBLIC "-//W3C//DTD SVG 1.1//EN"
 "http://www.w3.org/Graphics/SVG/1.1/DTD/svg11.dtd">
<!-- Generated by graphviz version 2.38.0 (20140413.2041)
 -->
<!-- Title: mom_verticalgrid::get_flux_units Pages: 1 -->
<!--zoomable 534 -->
<svg id="main" version="1.1" xmlns="http://www.w3.org/2000/svg" xmlns:xlink="http://www.w3.org/1999/xlink" xml:space="preserve" onload="init(evt)">
<style type="text/css"><![CDATA[
.edge:hover path { stroke: red; }
.edge:hover polygon { stroke: red; fill: red; }
]]></style>
<script type="text/javascript"><![CDATA[
var edges = document.getElementsByTagName('g');
if (edges && edges.length) {
  for (var i=0;i<edges.length;i++) {
    if (edges[i].id.substr(0,4)=='edge') {
      edges[i].setAttribute('class','edge');
    }
  }
}
]]></script>
        <defs>
                <circle id="rim" cx="0" cy="0" r="7"/>
                <circle id="rim2" cx="0" cy="0" r="3.5"/>
                <g id="zoomPlus">
                        <use xlink:href="#rim" fill="#404040">
                                <set attributeName="fill" to="#808080" begin="zoomplus.mouseover" end="zoomplus.mouseout"/>
                        </use>
                        <path d="M-4,0h8M0,-4v8" fill="none" stroke="white" stroke-width="1.5" pointer-events="none"/>
                </g>
                <g id="zoomMin">
                        <use xlink:href="#rim" fill="#404040">
                                <set attributeName="fill" to="#808080" begin="zoomminus.mouseover" end="zoomminus.mouseout"/>
                        </use>
                        <path d="M-4,0h8" fill="none" stroke="white" stroke-width="1.5" pointer-events="none"/>
                </g>
                <g id="dirArrow">
                        <path fill="none" stroke="white" stroke-width="1.5" d="M0,-3.0v7 M-2.5,-0.5L0,-3.0L2.5,-0.5"/>
                </g>
               <g id="resetDef">
                       <use xlink:href="#rim2" fill="#404040">
                               <set attributeName="fill" to="#808080" begin="reset.mouseover" end="reset.mouseout"/>
                       </use>
               </g>
        </defs>

<script type="text/javascript">
var viewWidth = 454;
var viewHeight = 534;
var sectionId = 'dynsection-0';
</script>
<script xlink:href="../../svgpan.js"/>
<svg id="graph" class="graph">
<g id="viewport">
<title>mom_verticalgrid::get_flux_units</title>
<polygon fill="white" stroke="none" points="-4,4 -4,-530 450,-530 450,4 -4,4"/>
<!-- Node1 -->
<g id="node1" class="node"><title>Node1</title>
<polygon fill="#bfbfbf" stroke="black" points="0,-248 0,-278 93,-278 93,-248 0,-248"/>
<text text-anchor="start" x="8" y="-266" font-family="Helvetica,sans-Serif" font-size="10.00">mom_verticalgrid::get</text>
<text text-anchor="middle" x="46.5" y="-255" font-family="Helvetica,sans-Serif" font-size="10.00">_flux_units</text>
</g>
<!-- Node2 -->
<g id="node2" class="node"><title>Node2</title>
<g id="a_node2"><a xlink:href="../../db/dd4/namespacemom__dynamics__legacy__split.html#aef55fe2e12672940edbd2dc5d7e72fd7" target="_top" xlink:title="mom_dynamics_legacy\l_split::initialize_dyn\l_legacy_split">
<polygon fill="white" stroke="black" points="129.5,-484.5 129.5,-525.5 228.5,-525.5 228.5,-484.5 129.5,-484.5"/>
<text text-anchor="start" x="137.5" y="-513.5" font-family="Helvetica,sans-Serif" font-size="10.00">mom_dynamics_legacy</text>
<text text-anchor="start" x="137.5" y="-502.5" font-family="Helvetica,sans-Serif" font-size="10.00">_split::initialize_dyn</text>
<text text-anchor="middle" x="179" y="-491.5" font-family="Helvetica,sans-Serif" font-size="10.00">_legacy_split</text>
</a>
</g>
</g>
<!-- Node1&#45;&gt;Node2 -->
<g id="edge1" class="edge"><title>Node1&#45;&gt;Node2</title>
<path fill="none" stroke="midnightblue" d="M51.7011,-288.096C59.928,-330.713 81.6566,-418.128 129,-475 131.808,-478.373 135.098,-481.473 138.622,-484.294"/>
<polygon fill="midnightblue" stroke="midnightblue" points="55.102,-287.238 49.8517,-278.035 48.2174,-288.503 55.102,-287.238"/>
</g>
<!-- Node3 -->
<g id="node3" class="node"><title>Node3</title>
<g id="a_node3"><a xlink:href="../../d1/dc3/namespacemom__dynamics__split__rk2.html#a3bae09afc9136333ab281704dc9d9415" target="_top" xlink:title="This subroutine initializes all of the variables that are used by this dynamic core, including diagnostics and the cpu clocks. ">
<polygon fill="white" stroke="black" points="134,-424.5 134,-465.5 224,-465.5 224,-424.5 134,-424.5"/>
<text text-anchor="start" x="142" y="-453.5" font-family="Helvetica,sans-Serif" font-size="10.00">mom_dynamics_split</text>
<text text-anchor="start" x="142" y="-442.5" font-family="Helvetica,sans-Serif" font-size="10.00">_rk2::initialize_dyn</text>
<text text-anchor="middle" x="179" y="-431.5" font-family="Helvetica,sans-Serif" font-size="10.00">_split_rk2</text>
</a>
</g>
</g>
<!-- Node1&#45;&gt;Node3 -->
<g id="edge2" class="edge"><title>Node1&#45;&gt;Node3</title>
<path fill="none" stroke="midnightblue" d="M55.8721,-287.795C67.868,-320.376 92.593,-377.919 129,-416 131.869,-419.001 135.116,-421.798 138.539,-424.377"/>
<polygon fill="midnightblue" stroke="midnightblue" points="59.0866,-286.389 52.4259,-278.15 52.4947,-288.744 59.0866,-286.389"/>
</g>
<!-- Node4 -->
<g id="node4" class="node"><title>Node4</title>
<g id="a_node4"><a xlink:href="../../d7/d44/namespacemom__dynamics__unsplit.html#ac557a7a55605cba7a17074f6375107f6" target="_top" xlink:title="mom_dynamics_unsplit\l::initialize_dyn_unsplit">
<polygon fill="white" stroke="black" points="129.5,-376 129.5,-406 228.5,-406 228.5,-376 129.5,-376"/>
<text text-anchor="start" x="137.5" y="-394" font-family="Helvetica,sans-Serif" font-size="10.00">mom_dynamics_unsplit</text>
<text text-anchor="middle" x="179" y="-383" font-family="Helvetica,sans-Serif" font-size="10.00">::initialize_dyn_unsplit</text>
</a>
</g>
</g>
<!-- Node1&#45;&gt;Node4 -->
<g id="edge3" class="edge"><title>Node1&#45;&gt;Node4</title>
<path fill="none" stroke="midnightblue" d="M61.7478,-286.936C76.3287,-309.831 100.799,-344.159 129,-367 133.049,-370.279 137.619,-373.257 142.301,-375.912"/>
<polygon fill="midnightblue" stroke="midnightblue" points="64.5561,-284.825 56.3003,-278.184 58.6132,-288.524 64.5561,-284.825"/>
</g>
<!-- Node5 -->
<g id="node5" class="node"><title>Node5</title>
<g id="a_node5"><a xlink:href="../../d7/da4/namespacemom__dynamics__unsplit__rk2.html#a7be251effa3bf4a236ea3feda6fc6d91" target="_top" xlink:title="mom_dynamics_unsplit\l_rk2::initialize_dyn\l_unsplit_rk2">
<polygon fill="white" stroke="black" points="129.5,-316.5 129.5,-357.5 228.5,-357.5 228.5,-316.5 129.5,-316.5"/>
<text text-anchor="start" x="137.5" y="-345.5" font-family="Helvetica,sans-Serif" font-size="10.00">mom_dynamics_unsplit</text>
<text text-anchor="start" x="137.5" y="-334.5" font-family="Helvetica,sans-Serif" font-size="10.00">_rk2::initialize_dyn</text>
<text text-anchor="middle" x="179" y="-323.5" font-family="Helvetica,sans-Serif" font-size="10.00">_unsplit_rk2</text>
</a>
</g>
</g>
<!-- Node1&#45;&gt;Node5 -->
<g id="edge4" class="edge"><title>Node1&#45;&gt;Node5</title>
<path fill="none" stroke="midnightblue" d="M83.2848,-283.292C101.354,-293.538 123.239,-305.948 141.418,-316.256"/>
<polygon fill="midnightblue" stroke="midnightblue" points="84.6488,-280.042 74.2235,-278.154 81.1959,-286.131 84.6488,-280.042"/>
</g>
<!-- Node6 -->
<g id="node6" class="node"><title>Node6</title>
<g id="a_node6"><a xlink:href="../../da/d01/namespacemom.html#a353e4f34478972f6c4115a9446e04c09" target="_top" xlink:title="Register the diagnostics. ">
<polygon fill="white" stroke="black" points="134.5,-278.5 134.5,-297.5 223.5,-297.5 223.5,-278.5 134.5,-278.5"/>
<text text-anchor="middle" x="179" y="-285.5" font-family="Helvetica,sans-Serif" font-size="10.00">mom::register_diags</text>
</a>
</g>
</g>
<!-- Node1&#45;&gt;Node6 -->
<g id="edge5" class="edge"><title>Node1&#45;&gt;Node6</title>
<path fill="none" stroke="midnightblue" d="M103.039,-273.64C113.508,-275.645 124.318,-277.716 134.358,-279.64"/>
<polygon fill="midnightblue" stroke="midnightblue" points="103.623,-270.188 93.1426,-271.744 102.305,-277.063 103.623,-270.188"/>
</g>
<!-- Node9 -->
<g id="node9" class="node"><title>Node9</title>
<g id="a_node9"><a xlink:href="../../db/dd4/namespacemom__dynamics__legacy__split.html#a6bbc5bdfa5c9906b19339c12dc971551" target="_top" xlink:title="mom_dynamics_legacy\l_split::register_restarts\l_dyn_legacy_split">
<polygon fill="white" stroke="black" points="129.5,-218.5 129.5,-259.5 228.5,-259.5 228.5,-218.5 129.5,-218.5"/>
<text text-anchor="start" x="137.5" y="-247.5" font-family="Helvetica,sans-Serif" font-size="10.00">mom_dynamics_legacy</text>
<text text-anchor="start" x="137.5" y="-236.5" font-family="Helvetica,sans-Serif" font-size="10.00">_split::register_restarts</text>
<text text-anchor="middle" x="179" y="-225.5" font-family="Helvetica,sans-Serif" font-size="10.00">_dyn_legacy_split</text>
</a>
</g>
</g>
<!-- Node1&#45;&gt;Node9 -->
<g id="edge8" class="edge"><title>Node1&#45;&gt;Node9</title>
<path fill="none" stroke="midnightblue" d="M103.249,-252.747C111.982,-251.141 120.946,-249.493 129.499,-247.92"/>
<polygon fill="midnightblue" stroke="midnightblue" points="102.345,-249.355 93.1426,-254.606 103.611,-256.239 102.345,-249.355"/>
</g>
<!-- Node10 -->
<g id="node10" class="node"><title>Node10</title>
<g id="a_node10"><a xlink:href="../../d1/dc3/namespacemom__dynamics__split__rk2.html#a9f889b82fd5ed29a854da99d3c929366" target="_top" xlink:title="This subroutine sets up any auxiliary restart variables that are specific to the unsplit time steppin...">
<polygon fill="white" stroke="black" points="131.5,-158.5 131.5,-199.5 226.5,-199.5 226.5,-158.5 131.5,-158.5"/>
<text text-anchor="start" x="139.5" y="-187.5" font-family="Helvetica,sans-Serif" font-size="10.00">mom_dynamics_split</text>
<text text-anchor="start" x="139.5" y="-176.5" font-family="Helvetica,sans-Serif" font-size="10.00">_rk2::register_restarts</text>
<text text-anchor="middle" x="179" y="-165.5" font-family="Helvetica,sans-Serif" font-size="10.00">_dyn_split_rk2</text>
</a>
</g>
</g>
<!-- Node1&#45;&gt;Node10 -->
<g id="edge9" class="edge"><title>Node1&#45;&gt;Node10</title>
<path fill="none" stroke="midnightblue" d="M78.3416,-242.19C93.5151,-232.048 112.128,-219.75 129,-209 133.795,-205.945 138.884,-202.763 143.898,-199.662"/>
<polygon fill="midnightblue" stroke="midnightblue" points="76.203,-239.41 69.8442,-247.884 80.0998,-245.225 76.203,-239.41"/>
</g>
<!-- Node11 -->
<g id="node11" class="node"><title>Node11</title>
<g id="a_node11"><a xlink:href="../../d7/d44/namespacemom__dynamics__unsplit.html#a5a650785f745fd9cf42e1e014dd2d89a" target="_top" xlink:title="mom_dynamics_unsplit\l::register_restarts_dyn\l_unsplit">
<polygon fill="white" stroke="black" points="129.5,-98.5 129.5,-139.5 228.5,-139.5 228.5,-98.5 129.5,-98.5"/>
<text text-anchor="start" x="137.5" y="-127.5" font-family="Helvetica,sans-Serif" font-size="10.00">mom_dynamics_unsplit</text>
<text text-anchor="start" x="137.5" y="-116.5" font-family="Helvetica,sans-Serif" font-size="10.00">::register_restarts_dyn</text>
<text text-anchor="middle" x="179" y="-105.5" font-family="Helvetica,sans-Serif" font-size="10.00">_unsplit</text>
</a>
</g>
</g>
<!-- Node1&#45;&gt;Node11 -->
<g id="edge10" class="edge"><title>Node1&#45;&gt;Node11</title>
<path fill="none" stroke="midnightblue" d="M60.6563,-239.164C75.0971,-214.504 100.107,-175.903 129,-149 132.577,-145.669 136.58,-142.515 140.715,-139.59"/>
<polygon fill="midnightblue" stroke="midnightblue" points="57.5966,-237.463 55.6531,-247.879 63.6673,-240.949 57.5966,-237.463"/>
</g>
<!-- Node12 -->
<g id="node12" class="node"><title>Node12</title>
<g id="a_node12"><a xlink:href="../../d7/da4/namespacemom__dynamics__unsplit__rk2.html#a6e670b5eaefad5b2f16b3e00c2788dfb" target="_top" xlink:title="mom_dynamics_unsplit\l_rk2::register_restarts\l_dyn_unsplit_rk2">
<polygon fill="white" stroke="black" points="129.5,-38.5 129.5,-79.5 228.5,-79.5 228.5,-38.5 129.5,-38.5"/>
<text text-anchor="start" x="137.5" y="-67.5" font-family="Helvetica,sans-Serif" font-size="10.00">mom_dynamics_unsplit</text>
<text text-anchor="start" x="137.5" y="-56.5" font-family="Helvetica,sans-Serif" font-size="10.00">_rk2::register_restarts</text>
<text text-anchor="middle" x="179" y="-45.5" font-family="Helvetica,sans-Serif" font-size="10.00">_dyn_unsplit_rk2</text>
</a>
</g>
</g>
<!-- Node1&#45;&gt;Node12 -->
<g id="edge11" class="edge"><title>Node1&#45;&gt;Node12</title>
<path fill="none" stroke="midnightblue" d="M54.1623,-238.06C64.8838,-201.755 88.9235,-133.807 129,-89 132.059,-85.58 135.601,-82.4205 139.353,-79.5382"/>
<polygon fill="midnightblue" stroke="midnightblue" points="50.7518,-237.257 51.3741,-247.833 57.4833,-239.177 50.7518,-237.257"/>
</g>
<!-- Node13 -->
<g id="node13" class="node"><title>Node13</title>
<g id="a_node13"><a xlink:href="../../da/d01/namespacemom.html#aab33a9c6ab1106414d95ecdd17da5a06" target="_top" xlink:title="Set the fields that are needed for bitwise identical restarting the time stepping scheme...">
<polygon fill="white" stroke="black" points="129,-0.5 129,-19.5 229,-19.5 229,-0.5 129,-0.5"/>
<text text-anchor="middle" x="179" y="-7.5" font-family="Helvetica,sans-Serif" font-size="10.00">mom::set_restart_fields</text>
</a>
</g>
</g>
<!-- Node1&#45;&gt;Node13 -->
<g id="edge12" class="edge"><title>Node1&#45;&gt;Node13</title>
<path fill="none" stroke="midnightblue" d="M49.4678,-237.65C54.4484,-190.436 71.59,-88.4407 129,-29 132.676,-25.1936 137.202,-22.1366 142.004,-19.685"/>
<polygon fill="midnightblue" stroke="midnightblue" points="45.9557,-237.612 48.49,-247.899 52.924,-238.277 45.9557,-237.612"/>
</g>
<!-- Node7 -->
<g id="node7" class="node"><title>Node7</title>
<g id="a_node7"><a xlink:href="../../da/d01/namespacemom.html#afebdc0103ad9cbe0ed4a54e522dc4104" target="_top" xlink:title="This subroutine initializes MOM. ">
<polygon fill="white" stroke="black" points="265,-139.5 265,-158.5 354,-158.5 354,-139.5 265,-139.5"/>
<text text-anchor="middle" x="309.5" y="-146.5" font-family="Helvetica,sans-Serif" font-size="10.00">mom::initialize_mom</text>
</a>
</g>
</g>
<!-- Node6&#45;&gt;Node7 -->
<g id="edge6" class="edge"><title>Node6&#45;&gt;Node7</title>
<path fill="none" stroke="midnightblue" d="M221.814,-273.937C224.346,-272.439 226.768,-270.797 229,-269 268.322,-237.345 295.087,-180.931 304.629,-158.54"/>
<polygon fill="midnightblue" stroke="midnightblue" points="220.213,-270.824 212.901,-278.491 223.399,-277.058 220.213,-270.824"/>
</g>
<!-- Node8 -->
<g id="node8" class="node"><title>Node8</title>
<g id="a_node8"><a xlink:href="../../de/dbc/MOM__driver_8F90.html#a08fffeb2d8e8acbf9ed4609be6d258c6" target="_top" xlink:title="mom_main">
<polygon fill="white" stroke="black" points="390,-139.5 390,-158.5 446,-158.5 446,-139.5 390,-139.5"/>
<text text-anchor="middle" x="418" y="-146.5" font-family="Helvetica,sans-Serif" font-size="10.00">mom_main</text>
</a>
</g>
</g>
<!-- Node7&#45;&gt;Node8 -->
<g id="edge7" class="edge"><title>Node7&#45;&gt;Node8</title>
<path fill="none" stroke="midnightblue" d="M364.407,-149C373.206,-149 381.981,-149 389.771,-149"/>
<polygon fill="midnightblue" stroke="midnightblue" points="364.125,-145.5 354.125,-149 364.125,-152.5 364.125,-145.5"/>
</g>
<!-- Node13&#45;&gt;Node7 -->
<g id="edge13" class="edge"><title>Node13&#45;&gt;Node7</title>
<path fill="none" stroke="midnightblue" d="M221.814,-24.0631C224.346,-25.5611 226.768,-27.2031 229,-29 268.322,-60.6554 295.087,-117.069 304.629,-139.46"/>
<polygon fill="midnightblue" stroke="midnightblue" points="223.399,-20.9422 212.901,-19.5086 220.213,-27.1756 223.399,-20.9422"/>
</g>
</g>
</svg>
        <g id="navigator" transform="translate(0 0)" fill="#404254">
                <rect fill="#f2f5e9" fill-opacity="0.5" stroke="#606060" stroke-width=".5" x="0" y="0" width="60" height="60"/>
                <use id="zoomplus" xlink:href="#zoomPlus" x="17" y="9" onmousedown="handleZoom(evt,'in')"/>
                <use id="zoomminus" xlink:href="#zoomMin" x="42" y="9" onmousedown="handleZoom(evt,'out')"/>
                <use id="reset" xlink:href="#resetDef" x="30" y="36" onmousedown="handleReset()"/>
                <g id="arrowUp" xlink:href="#dirArrow" transform="translate(30 24)" onmousedown="handlePan(0,-1)">
                  <use xlink:href="#rim" fill="#404040">
                        <set attributeName="fill" to="#808080" begin="arrowUp.mouseover" end="arrowUp.mouseout"/>
                  </use>
                  <path fill="none" stroke="white" stroke-width="1.5" d="M0,-3.0v7 M-2.5,-0.5L0,-3.0L2.5,-0.5"/>
                </g>
                <g id="arrowRight" xlink:href="#dirArrow" transform="rotate(90) translate(36 -43)" onmousedown="handlePan(1,0)">
                  <use xlink:href="#rim" fill="#404040">
                        <set attributeName="fill" to="#808080" begin="arrowRight.mouseover" end="arrowRight.mouseout"/>
                  </use>
                  <path fill="none" stroke="white" stroke-width="1.5" d="M0,-3.0v7 M-2.5,-0.5L0,-3.0L2.5,-0.5"/>
                </g>
                <g id="arrowDown" xlink:href="#dirArrow" transform="rotate(180) translate(-30 -48)" onmousedown="handlePan(0,1)">
                  <use xlink:href="#rim" fill="#404040">
                        <set attributeName="fill" to="#808080" begin="arrowDown.mouseover" end="arrowDown.mouseout"/>
                  </use>
                  <path fill="none" stroke="white" stroke-width="1.5" d="M0,-3.0v7 M-2.5,-0.5L0,-3.0L2.5,-0.5"/>
                </g>
                <g id="arrowLeft" xlink:href="#dirArrow" transform="rotate(270) translate(-36 17)" onmousedown="handlePan(-1,0)">
                  <use xlink:href="#rim" fill="#404040">
                        <set attributeName="fill" to="#808080" begin="arrowLeft.mouseover" end="arrowLeft.mouseout"/>
                  </use>
                  <path fill="none" stroke="white" stroke-width="1.5" d="M0,-3.0v7 M-2.5,-0.5L0,-3.0L2.5,-0.5"/>
                </g>
        </g>
        <svg viewBox="0 0 15 15" width="100%" height="30px" preserveAspectRatio="xMaxYMin meet">
         <g id="arrow_out" transform="scale(0.3 0.3)">
          <a xlink:href="namespacemom__verticalgrid_af027c312e660a932b3f430f4c7a9675d_icgraph_org.svg" target="_base">
           <rect id="button" ry="5" rx="5" y="6" x="6" height="38" width="38"
                fill="#f2f5e9" fill-opacity="0.5" stroke="#606060" stroke-width="1.0"/>
           <path id="arrow"
             d="M 11.500037,31.436501 C 11.940474,20.09759 22.043105,11.32322 32.158766,21.979434 L 37.068811,17.246167 C 37.068811,17.246167 37.088388,32 37.088388,32 L 22.160133,31.978069 C 22.160133,31.978069 26.997745,27.140456 26.997745,27.140456 C 18.528582,18.264221 13.291696,25.230495 11.500037,31.436501 z"
             style="fill:#404040;"/>
          </a>
         </g>
        </svg>
</svg>
