<?xml version="1.0" encoding="UTF-8" standalone="no"?>
<!DOCTYPE svg PUBLIC "-//W3C//DTD SVG 1.1//EN"
 "http://www.w3.org/Graphics/SVG/1.1/DTD/svg11.dtd">
<!-- Generated by graphviz version 2.38.0 (20140413.2041)
 -->
<!-- Title: mom_shortwave_abs::optics_type Pages: 1 -->
<svg width="153pt" height="139pt"
 viewBox="0.00 0.00 153.00 139.00" xmlns="http://www.w3.org/2000/svg" xmlns:xlink="http://www.w3.org/1999/xlink">
<g id="graph0" class="graph" transform="scale(1 1) rotate(0) translate(4 135)">
<title>mom_shortwave_abs::optics_type</title>
<polygon fill="white" stroke="none" points="-4,4 -4,-135 149,-135 149,4 -4,4"/>
<!-- Node1 -->
<g id="node1" class="node"><title>Node1</title>
<polygon fill="#bfbfbf" stroke="black" points="19,-0.5 19,-30.5 117,-30.5 117,-0.5 19,-0.5"/>
<text text-anchor="start" x="27" y="-18.5" font-family="Helvetica,sans-Serif" font-size="10.00">mom_shortwave_abs::</text>
<text text-anchor="middle" x="68" y="-7.5" font-family="Helvetica,sans-Serif" font-size="10.00">optics_type</text>
</g>
<!-- Node2 -->
<g id="node2" class="node"><title>Node2</title>
<polygon fill="white" stroke="#bfbfbf" points="0,-111.5 0,-130.5 30,-130.5 30,-111.5 0,-111.5"/>
<text text-anchor="middle" x="15" y="-118.5" font-family="Helvetica,sans-Serif" font-size="10.00">real</text>
</g>
<!-- Node2&#45;&gt;Node1 -->
<g id="edge1" class="edge"><title>Node2&#45;&gt;Node1</title>
<path fill="none" stroke="#9a32cd" stroke-dasharray="5,2" d="M10.6125,-101.306C8.11174,-86.2045 7.03007,-64.9186 16,-49 20.2855,-41.3946 27.1609,-35.3269 34.5272,-30.5922"/>
<polygon fill="#9a32cd" stroke="#9a32cd" points="7.25177,-102.347 12.6586,-111.458 14.1138,-100.964 7.25177,-102.347"/>
<text text-anchor="middle" x="57.5" y="-85" font-family="Helvetica,sans-Serif" font-size="10.00"> sw_pen_band</text>
<text text-anchor="middle" x="57.5" y="-74" font-family="Helvetica,sans-Serif" font-size="10.00">opacity_band</text>
<text text-anchor="middle" x="57.5" y="-63" font-family="Helvetica,sans-Serif" font-size="10.00">min_wavelength_band</text>
<text text-anchor="middle" x="57.5" y="-52" font-family="Helvetica,sans-Serif" font-size="10.00">max_wavelength_band</text>
</g>
<!-- Node3 -->
<g id="node3" class="node"><title>Node3</title>
<polygon fill="white" stroke="#bfbfbf" points="100.5,-111.5 100.5,-130.5 141.5,-130.5 141.5,-111.5 100.5,-111.5"/>
<text text-anchor="middle" x="121" y="-118.5" font-family="Helvetica,sans-Serif" font-size="10.00">integer</text>
</g>
<!-- Node3&#45;&gt;Node1 -->
<g id="edge2" class="edge"><title>Node3&#45;&gt;Node1</title>
<path fill="none" stroke="#9a32cd" stroke-dasharray="5,2" d="M117.632,-101.128C114.406,-86.2321 108.584,-65.3147 99,-49 95.0505,-42.2767 89.4563,-35.8469 84.105,-30.5071"/>
<polygon fill="#9a32cd" stroke="#9a32cd" points="114.244,-102.035 119.612,-111.169 121.111,-100.681 114.244,-102.035"/>
<text text-anchor="middle" x="130.5" y="-68.5" font-family="Helvetica,sans-Serif" font-size="10.00"> nbands</text>
</g>
</g>
</svg>
