<?xml version="1.0" encoding="UTF-8" standalone="no"?>
<!DOCTYPE svg PUBLIC "-//W3C//DTD SVG 1.1//EN"
 "http://www.w3.org/Graphics/SVG/1.1/DTD/svg11.dtd">
<!-- Generated by graphviz version 2.38.0 (20140413.2041)
 -->
<!-- Title: mom_document::mesghasbeendocumented Pages: 1 -->
<svg width="439pt" height="39pt"
 viewBox="0.00 0.00 439.00 39.00" xmlns="http://www.w3.org/2000/svg" xmlns:xlink="http://www.w3.org/1999/xlink">
<g id="graph0" class="graph" transform="scale(1 1) rotate(0) translate(4 35)">
<title>mom_document::mesghasbeendocumented</title>
<polygon fill="white" stroke="none" points="-4,4 -4,-35 435,-35 435,4 -4,4"/>
<!-- Node186 -->
<g id="node1" class="node"><title>Node186</title>
<polygon fill="#bfbfbf" stroke="black" points="0,-6 0,-25 173,-25 173,-6 0,-6"/>
<text text-anchor="middle" x="86.5" y="-13" font-family="Helvetica,sans-Serif" font-size="10.00">mom_document::mesghasbeendocumented</text>
</g>
<!-- Node187 -->
<g id="node2" class="node"><title>Node187</title>
<g id="a_node2"><a xlink:href="../../d0/de6/namespacemom__error__handler.html#a460cfb79a06c29fc249952c2a3710d67" target="_top" xlink:title="mom_error_handler::\lmom_error">
<polygon fill="white" stroke="black" points="209,-0.5 209,-30.5 302,-30.5 302,-0.5 209,-0.5"/>
<text text-anchor="start" x="217" y="-18.5" font-family="Helvetica,sans-Serif" font-size="10.00">mom_error_handler::</text>
<text text-anchor="middle" x="255.5" y="-7.5" font-family="Helvetica,sans-Serif" font-size="10.00">mom_error</text>
</a>
</g>
</g>
<!-- Node186&#45;&gt;Node187 -->
<g id="edge1" class="edge"><title>Node186&#45;&gt;Node187</title>
<path fill="none" stroke="midnightblue" d="M173.446,-15.5C181.987,-15.5 190.495,-15.5 198.61,-15.5"/>
<polygon fill="midnightblue" stroke="midnightblue" points="198.653,-19.0001 208.653,-15.5 198.653,-12.0001 198.653,-19.0001"/>
</g>
<!-- Node188 -->
<g id="node3" class="node"><title>Node188</title>
<g id="a_node3"><a xlink:href="../../d0/de6/namespacemom__error__handler.html#ad5f00a53059c72fe2332d1436c80ca71" target="_top" xlink:title="mom_error_handler::\lis_root_pe">
<polygon fill="white" stroke="black" points="338,-0.5 338,-30.5 431,-30.5 431,-0.5 338,-0.5"/>
<text text-anchor="start" x="346" y="-18.5" font-family="Helvetica,sans-Serif" font-size="10.00">mom_error_handler::</text>
<text text-anchor="middle" x="384.5" y="-7.5" font-family="Helvetica,sans-Serif" font-size="10.00">is_root_pe</text>
</a>
</g>
</g>
<!-- Node187&#45;&gt;Node188 -->
<g id="edge2" class="edge"><title>Node187&#45;&gt;Node188</title>
<path fill="none" stroke="midnightblue" d="M302.35,-15.5C310.533,-15.5 319.141,-15.5 327.568,-15.5"/>
<polygon fill="midnightblue" stroke="midnightblue" points="327.717,-19.0001 337.717,-15.5 327.717,-12.0001 327.717,-19.0001"/>
</g>
</g>
</svg>
