<?xml version="1.0" encoding="UTF-8" standalone="no"?>
<!DOCTYPE svg PUBLIC "-//W3C//DTD SVG 1.1//EN"
 "http://www.w3.org/Graphics/SVG/1.1/DTD/svg11.dtd">
<!-- Generated by graphviz version 2.38.0 (20140413.2041)
 -->
<!-- Title: mom_document::writemessageanddesc Pages: 1 -->
<svg width="1216pt" height="523pt"
 viewBox="0.00 0.00 1216.00 522.50" xmlns="http://www.w3.org/2000/svg" xmlns:xlink="http://www.w3.org/1999/xlink">
<g id="graph0" class="graph" transform="scale(1 1) rotate(0) translate(4 518.5)">
<title>mom_document::writemessageanddesc</title>
<polygon fill="white" stroke="none" points="-4,4 -4,-518.5 1212,-518.5 1212,4 -4,4"/>
<!-- Node249 -->
<g id="node1" class="node"><title>Node249</title>
<polygon fill="#bfbfbf" stroke="black" points="0,-243.5 0,-262.5 158,-262.5 158,-243.5 0,-243.5"/>
<text text-anchor="middle" x="79" y="-250.5" font-family="Helvetica,sans-Serif" font-size="10.00">mom_document::writemessageanddesc</text>
</g>
<!-- Node250 -->
<g id="node2" class="node"><title>Node250</title>
<g id="a_node2"><a xlink:href="../../d5/d38/namespacemom__document.html#a058916aee316efa7a6484b3bb1d3f3df" target="_top" xlink:title="mom_document::doc_closeblock">
<polygon fill="white" stroke="black" points="199,-464.5 199,-483.5 331,-483.5 331,-464.5 199,-464.5"/>
<text text-anchor="middle" x="265" y="-471.5" font-family="Helvetica,sans-Serif" font-size="10.00">mom_document::doc_closeblock</text>
</a>
</g>
</g>
<!-- Node249&#45;&gt;Node250 -->
<g id="edge1" class="edge"><title>Node249&#45;&gt;Node250</title>
<path fill="none" stroke="midnightblue" d="M85.4068,-272.517C97.6471,-312.985 131.398,-406.312 194,-455 198.97,-458.865 204.669,-461.946 210.622,-464.4"/>
<polygon fill="midnightblue" stroke="midnightblue" points="88.7321,-271.418 82.5768,-262.794 82.011,-273.374 88.7321,-271.418"/>
</g>
<!-- Node259 -->
<g id="node11" class="node"><title>Node259</title>
<g id="a_node11"><a xlink:href="../../d5/d38/namespacemom__document.html#a29ab772c411aedcc137942020c1ee042" target="_top" xlink:title="mom_document::doc_module">
<polygon fill="white" stroke="black" points="204,-388.5 204,-407.5 326,-407.5 326,-388.5 204,-388.5"/>
<text text-anchor="middle" x="265" y="-395.5" font-family="Helvetica,sans-Serif" font-size="10.00">mom_document::doc_module</text>
</a>
</g>
</g>
<!-- Node249&#45;&gt;Node259 -->
<g id="edge10" class="edge"><title>Node249&#45;&gt;Node259</title>
<path fill="none" stroke="midnightblue" d="M91.4515,-271.241C109.719,-298.81 148.112,-350.853 194,-379 200.333,-382.885 207.465,-385.988 214.692,-388.464"/>
<polygon fill="midnightblue" stroke="midnightblue" points="94.223,-269.082 85.8504,-262.589 88.347,-272.886 94.223,-269.082"/>
</g>
<!-- Node260 -->
<g id="node12" class="node"><title>Node260</title>
<g id="a_node12"><a xlink:href="../../d5/d38/namespacemom__document.html#ada55c6a65638e04d2b550f419aafa929" target="_top" xlink:title="mom_document::doc_openblock">
<polygon fill="white" stroke="black" points="199,-426.5 199,-445.5 331,-445.5 331,-426.5 199,-426.5"/>
<text text-anchor="middle" x="265" y="-433.5" font-family="Helvetica,sans-Serif" font-size="10.00">mom_document::doc_openblock</text>
</a>
</g>
</g>
<!-- Node249&#45;&gt;Node260 -->
<g id="edge11" class="edge"><title>Node249&#45;&gt;Node260</title>
<path fill="none" stroke="midnightblue" d="M87.7958,-271.85C102.971,-306.16 139.813,-378.788 194,-417 199.557,-420.919 205.885,-424.03 212.41,-426.499"/>
<polygon fill="midnightblue" stroke="midnightblue" points="90.9481,-270.32 83.7865,-262.512 84.516,-273.082 90.9481,-270.32"/>
</g>
<!-- Node262 -->
<g id="node14" class="node"><title>Node262</title>
<g id="a_node14"><a xlink:href="../../d5/d38/namespacemom__document.html#aeef6510f5e76c23d9a9a9c587f62d4d9" target="_top" xlink:title="mom_document::doc_param_char">
<polygon fill="white" stroke="black" points="195,-350.5 195,-369.5 335,-369.5 335,-350.5 195,-350.5"/>
<text text-anchor="middle" x="265" y="-357.5" font-family="Helvetica,sans-Serif" font-size="10.00">mom_document::doc_param_char</text>
</a>
</g>
</g>
<!-- Node249&#45;&gt;Node262 -->
<g id="edge16" class="edge"><title>Node249&#45;&gt;Node262</title>
<path fill="none" stroke="midnightblue" d="M97.252,-269.892C118.377,-289.676 156.049,-322.14 194,-341 201.668,-344.811 210.202,-347.938 218.6,-350.475"/>
<polygon fill="midnightblue" stroke="midnightblue" points="99.406,-267.109 89.7521,-262.744 94.5768,-272.177 99.406,-267.109"/>
</g>
<!-- Node263 -->
<g id="node15" class="node"><title>Node263</title>
<g id="a_node15"><a xlink:href="../../d5/d38/namespacemom__document.html#a14995c64ee277f19aa10b957431aa4c1" target="_top" xlink:title="mom_document::doc_param_int">
<polygon fill="white" stroke="black" points="199,-312.5 199,-331.5 331,-331.5 331,-312.5 199,-312.5"/>
<text text-anchor="middle" x="265" y="-319.5" font-family="Helvetica,sans-Serif" font-size="10.00">mom_document::doc_param_int</text>
</a>
</g>
</g>
<!-- Node249&#45;&gt;Node263 -->
<g id="edge17" class="edge"><title>Node249&#45;&gt;Node263</title>
<path fill="none" stroke="midnightblue" d="M108.516,-266.919C131.294,-277.69 164.219,-292.493 194,-303 203.856,-306.478 214.68,-309.697 224.807,-312.461"/>
<polygon fill="midnightblue" stroke="midnightblue" points="109.947,-263.723 99.4144,-262.574 106.931,-270.04 109.947,-263.723"/>
</g>
<!-- Node264 -->
<g id="node16" class="node"><title>Node264</title>
<g id="a_node16"><a xlink:href="../../d5/d38/namespacemom__document.html#a3ce71018037d66ba8f51d860bedbdcbb" target="_top" xlink:title="mom_document::doc_param\l_int_array">
<polygon fill="white" stroke="black" points="205.5,-263 205.5,-293 324.5,-293 324.5,-263 205.5,-263"/>
<text text-anchor="start" x="213.5" y="-281" font-family="Helvetica,sans-Serif" font-size="10.00">mom_document::doc_param</text>
<text text-anchor="middle" x="265" y="-270" font-family="Helvetica,sans-Serif" font-size="10.00">_int_array</text>
</a>
</g>
</g>
<!-- Node249&#45;&gt;Node264 -->
<g id="edge18" class="edge"><title>Node249&#45;&gt;Node264</title>
<path fill="none" stroke="midnightblue" d="M160.042,-263.875C175.317,-265.951 191.039,-268.087 205.485,-270.05"/>
<polygon fill="midnightblue" stroke="midnightblue" points="160.468,-260.401 150.087,-262.523 159.525,-267.337 160.468,-260.401"/>
</g>
<!-- Node265 -->
<g id="node17" class="node"><title>Node265</title>
<g id="a_node17"><a xlink:href="../../d5/d38/namespacemom__document.html#ae29b615a7c566d9da64ade24864805b2" target="_top" xlink:title="mom_document::doc_param\l_logical">
<polygon fill="white" stroke="black" points="205.5,-214 205.5,-244 324.5,-244 324.5,-214 205.5,-214"/>
<text text-anchor="start" x="213.5" y="-232" font-family="Helvetica,sans-Serif" font-size="10.00">mom_document::doc_param</text>
<text text-anchor="middle" x="265" y="-221" font-family="Helvetica,sans-Serif" font-size="10.00">_logical</text>
</a>
</g>
</g>
<!-- Node249&#45;&gt;Node265 -->
<g id="edge19" class="edge"><title>Node249&#45;&gt;Node265</title>
<path fill="none" stroke="midnightblue" d="M163.245,-242.142C177.429,-240.292 191.894,-238.405 205.273,-236.66"/>
<polygon fill="midnightblue" stroke="midnightblue" points="162.449,-238.716 152.986,-243.48 163.355,-245.657 162.449,-238.716"/>
</g>
<!-- Node266 -->
<g id="node18" class="node"><title>Node266</title>
<g id="a_node18"><a xlink:href="../../d5/d38/namespacemom__document.html#a9792937a5eb8f9a2a58c7b816520470d" target="_top" xlink:title="mom_document::doc_param\l_logical_array">
<polygon fill="white" stroke="black" points="205.5,-165 205.5,-195 324.5,-195 324.5,-165 205.5,-165"/>
<text text-anchor="start" x="213.5" y="-183" font-family="Helvetica,sans-Serif" font-size="10.00">mom_document::doc_param</text>
<text text-anchor="middle" x="265" y="-172" font-family="Helvetica,sans-Serif" font-size="10.00">_logical_array</text>
</a>
</g>
</g>
<!-- Node249&#45;&gt;Node266 -->
<g id="edge20" class="edge"><title>Node249&#45;&gt;Node266</title>
<path fill="none" stroke="midnightblue" d="M110.898,-239.443C133.724,-229.561 165.628,-216.03 194,-205 202.54,-201.68 211.727,-198.279 220.546,-195.097"/>
<polygon fill="midnightblue" stroke="midnightblue" points="109.485,-236.241 101.708,-243.436 112.274,-242.661 109.485,-236.241"/>
</g>
<!-- Node267 -->
<g id="node19" class="node"><title>Node267</title>
<g id="a_node19"><a xlink:href="../../d5/d38/namespacemom__document.html#ab6438889d6e98b10d8c42d5ff6b00ef8" target="_top" xlink:title="mom_document::doc_param_none">
<polygon fill="white" stroke="black" points="194,-126.5 194,-145.5 336,-145.5 336,-126.5 194,-126.5"/>
<text text-anchor="middle" x="265" y="-133.5" font-family="Helvetica,sans-Serif" font-size="10.00">mom_document::doc_param_none</text>
</a>
</g>
</g>
<!-- Node249&#45;&gt;Node267 -->
<g id="edge21" class="edge"><title>Node249&#45;&gt;Node267</title>
<path fill="none" stroke="midnightblue" d="M95.3988,-236.014C115.888,-214.4 154.186,-177.321 194,-156 201.911,-151.764 210.818,-148.339 219.56,-145.601"/>
<polygon fill="midnightblue" stroke="midnightblue" points="92.7044,-233.771 88.4518,-243.475 97.8277,-238.541 92.7044,-233.771"/>
</g>
<!-- Node268 -->
<g id="node20" class="node"><title>Node268</title>
<g id="a_node20"><a xlink:href="../../d5/d38/namespacemom__document.html#aae79ba23b83e7e2be3dcc46f50ee0f69" target="_top" xlink:title="mom_document::doc_param_real">
<polygon fill="white" stroke="black" points="196.5,-88.5 196.5,-107.5 333.5,-107.5 333.5,-88.5 196.5,-88.5"/>
<text text-anchor="middle" x="265" y="-95.5" font-family="Helvetica,sans-Serif" font-size="10.00">mom_document::doc_param_real</text>
</a>
</g>
</g>
<!-- Node249&#45;&gt;Node268 -->
<g id="edge22" class="edge"><title>Node249&#45;&gt;Node268</title>
<path fill="none" stroke="midnightblue" d="M90.341,-234.544C107.801,-205.109 145.967,-147.727 194,-117 200.046,-113.132 206.871,-110.045 213.826,-107.582"/>
<polygon fill="midnightblue" stroke="midnightblue" points="87.2092,-232.968 85.2292,-243.377 93.2677,-236.475 87.2092,-232.968"/>
</g>
<!-- Node269 -->
<g id="node21" class="node"><title>Node269</title>
<g id="a_node21"><a xlink:href="../../d5/d38/namespacemom__document.html#a09ce71cb5106c9abb604c07b98e62863" target="_top" xlink:title="mom_document::doc_param\l_real_array">
<polygon fill="white" stroke="black" points="205.5,-39 205.5,-69 324.5,-69 324.5,-39 205.5,-39"/>
<text text-anchor="start" x="213.5" y="-57" font-family="Helvetica,sans-Serif" font-size="10.00">mom_document::doc_param</text>
<text text-anchor="middle" x="265" y="-46" font-family="Helvetica,sans-Serif" font-size="10.00">_real_array</text>
</a>
</g>
</g>
<!-- Node249&#45;&gt;Node269 -->
<g id="edge23" class="edge"><title>Node249&#45;&gt;Node269</title>
<path fill="none" stroke="midnightblue" d="M87.5869,-233.878C102.617,-198.355 139.505,-121.9 194,-79 198.867,-75.1685 204.37,-71.8949 210.099,-69.1047"/>
<polygon fill="midnightblue" stroke="midnightblue" points="84.3485,-232.551 83.7789,-243.13 90.8217,-235.215 84.3485,-232.551"/>
</g>
<!-- Node270 -->
<g id="node22" class="node"><title>Node270</title>
<g id="a_node22"><a xlink:href="../../d5/d38/namespacemom__document.html#a88e4bef8326a973afec58f1cb66fdd0c" target="_top" xlink:title="mom_document::doc_param_time">
<polygon fill="white" stroke="black" points="195.5,-0.5 195.5,-19.5 334.5,-19.5 334.5,-0.5 195.5,-0.5"/>
<text text-anchor="middle" x="265" y="-7.5" font-family="Helvetica,sans-Serif" font-size="10.00">mom_document::doc_param_time</text>
</a>
</g>
</g>
<!-- Node249&#45;&gt;Node270 -->
<g id="edge24" class="edge"><title>Node249&#45;&gt;Node270</title>
<path fill="none" stroke="midnightblue" d="M84.3975,-233.34C95.1552,-189.879 126.962,-85.1334 194,-30 199.271,-25.6647 205.434,-22.2685 211.876,-19.6081"/>
<polygon fill="midnightblue" stroke="midnightblue" points="80.9557,-232.686 82.0573,-243.223 87.7673,-234.299 80.9557,-232.686"/>
</g>
<!-- Node251 -->
<g id="node3" class="node"><title>Node251</title>
<g id="a_node3"><a xlink:href="../../d9/def/namespacemom__file__parser.html#a0d01b9a66f5ac12b657c00f1295351bb" target="_top" xlink:title="mom_file_parser::closeparameterblock">
<polygon fill="white" stroke="black" points="372,-464.5 372,-483.5 527,-483.5 527,-464.5 372,-464.5"/>
<text text-anchor="middle" x="449.5" y="-471.5" font-family="Helvetica,sans-Serif" font-size="10.00">mom_file_parser::closeparameterblock</text>
</a>
</g>
</g>
<!-- Node250&#45;&gt;Node251 -->
<g id="edge2" class="edge"><title>Node250&#45;&gt;Node251</title>
<path fill="none" stroke="midnightblue" d="M341.148,-474C351.293,-474 361.712,-474 371.882,-474"/>
<polygon fill="midnightblue" stroke="midnightblue" points="341.114,-470.5 331.114,-474 341.114,-477.5 341.114,-470.5"/>
</g>
<!-- Node252 -->
<g id="node4" class="node"><title>Node252</title>
<g id="a_node4"><a xlink:href="../../d6/d07/namespacemom__diffconvection.html#ac36d9d7fd69e4422e7de01242094ff34" target="_top" xlink:title="mom_diffconvection\l::diffconvection_init">
<polygon fill="white" stroke="black" points="577.5,-484 577.5,-514 664.5,-514 664.5,-484 577.5,-484"/>
<text text-anchor="start" x="585.5" y="-502" font-family="Helvetica,sans-Serif" font-size="10.00">mom_diffconvection</text>
<text text-anchor="middle" x="621" y="-491" font-family="Helvetica,sans-Serif" font-size="10.00">::diffconvection_init</text>
</a>
</g>
</g>
<!-- Node251&#45;&gt;Node252 -->
<g id="edge3" class="edge"><title>Node251&#45;&gt;Node252</title>
<path fill="none" stroke="midnightblue" d="M525.448,-485.054C543.241,-487.679 561.617,-490.389 577.384,-492.715"/>
<polygon fill="midnightblue" stroke="midnightblue" points="525.468,-481.519 515.064,-483.523 524.446,-488.445 525.468,-481.519"/>
</g>
<!-- Node253 -->
<g id="node5" class="node"><title>Node253</title>
<g id="a_node5"><a xlink:href="../../d5/d08/namespacemom__kpp.html#a9c834424b6e067e280928db3700ec77e" target="_top" xlink:title="Initialize the CVmix KPP module and set up diagnostics Returns True if KPP is to be used...">
<polygon fill="white" stroke="black" points="579.5,-445.5 579.5,-464.5 662.5,-464.5 662.5,-445.5 579.5,-445.5"/>
<text text-anchor="middle" x="621" y="-452.5" font-family="Helvetica,sans-Serif" font-size="10.00">mom_kpp::kpp_init</text>
</a>
</g>
</g>
<!-- Node251&#45;&gt;Node253 -->
<g id="edge4" class="edge"><title>Node251&#45;&gt;Node253</title>
<path fill="none" stroke="midnightblue" d="M537.395,-464.26C551.966,-462.626 566.453,-461.002 579.131,-459.581"/>
<polygon fill="midnightblue" stroke="midnightblue" points="536.863,-460.797 527.315,-465.389 537.643,-467.754 536.863,-460.797"/>
</g>
<!-- Node254 -->
<g id="node6" class="node"><title>Node254</title>
<g id="a_node6"><a xlink:href="../../d8/d50/namespacebaroclinic__zone__initialization.html#a72863008aadad2118278f5e0978fd99b" target="_top" xlink:title="Reads the parameters unique to this module. ">
<polygon fill="white" stroke="black" points="563,-396 563,-426 679,-426 679,-396 563,-396"/>
<text text-anchor="start" x="571" y="-414" font-family="Helvetica,sans-Serif" font-size="10.00">baroclinic_zone_initialization</text>
<text text-anchor="middle" x="621" y="-403" font-family="Helvetica,sans-Serif" font-size="10.00">::bcz_params</text>
</a>
</g>
</g>
<!-- Node251&#45;&gt;Node254 -->
<g id="edge5" class="edge"><title>Node251&#45;&gt;Node254</title>
<path fill="none" stroke="midnightblue" d="M506.807,-461.676C513.687,-459.685 520.557,-457.458 527,-455 543.903,-448.55 546.705,-443.861 563,-436 569.91,-432.667 577.372,-429.259 584.547,-426.075"/>
<polygon fill="midnightblue" stroke="midnightblue" points="505.489,-458.408 496.768,-464.424 507.338,-465.16 505.489,-458.408"/>
</g>
<!-- Node255 -->
<g id="node7" class="node"><title>Node255</title>
<g id="a_node7"><a xlink:href="../../d8/d50/namespacebaroclinic__zone__initialization.html#a2f99c7b0ea7981ef7b2c342fbc8c00c1" target="_top" xlink:title="Initialization of temperature and salinity with the baroclinic zone initial conditions. ">
<polygon fill="white" stroke="black" points="715,-390.5 715,-431.5 854,-431.5 854,-390.5 715,-390.5"/>
<text text-anchor="start" x="723" y="-419.5" font-family="Helvetica,sans-Serif" font-size="10.00">baroclinic_zone_initialization</text>
<text text-anchor="start" x="723" y="-408.5" font-family="Helvetica,sans-Serif" font-size="10.00">::baroclinic_zone_init_temperature</text>
<text text-anchor="middle" x="784.5" y="-397.5" font-family="Helvetica,sans-Serif" font-size="10.00">_salinity</text>
</a>
</g>
</g>
<!-- Node254&#45;&gt;Node255 -->
<g id="edge6" class="edge"><title>Node254&#45;&gt;Node255</title>
<path fill="none" stroke="midnightblue" d="M689.527,-411C697.935,-411 706.54,-411 714.964,-411"/>
<polygon fill="midnightblue" stroke="midnightblue" points="689.394,-407.5 679.394,-411 689.394,-414.5 689.394,-407.5"/>
</g>
<!-- Node256 -->
<g id="node8" class="node"><title>Node256</title>
<g id="a_node8"><a xlink:href="../../d6/d62/namespacemom__state__initialization.html#af4e854627c6572332ba3fd895f169321" target="_top" xlink:title="mom_state_initialization\l::mom_initialize_state">
<polygon fill="white" stroke="black" points="890,-396 890,-426 991,-426 991,-396 890,-396"/>
<text text-anchor="start" x="898" y="-414" font-family="Helvetica,sans-Serif" font-size="10.00">mom_state_initialization</text>
<text text-anchor="middle" x="940.5" y="-403" font-family="Helvetica,sans-Serif" font-size="10.00">::mom_initialize_state</text>
</a>
</g>
</g>
<!-- Node255&#45;&gt;Node256 -->
<g id="edge7" class="edge"><title>Node255&#45;&gt;Node256</title>
<path fill="none" stroke="midnightblue" d="M864.429,-411C872.988,-411 881.515,-411 889.587,-411"/>
<polygon fill="midnightblue" stroke="midnightblue" points="864.392,-407.5 854.392,-411 864.392,-414.5 864.392,-407.5"/>
</g>
<!-- Node257 -->
<g id="node9" class="node"><title>Node257</title>
<g id="a_node9"><a xlink:href="../../da/d01/namespacemom.html#afebdc0103ad9cbe0ed4a54e522dc4104" target="_top" xlink:title="This subroutine initializes MOM. ">
<polygon fill="white" stroke="black" points="1027,-401.5 1027,-420.5 1116,-420.5 1116,-401.5 1027,-401.5"/>
<text text-anchor="middle" x="1071.5" y="-408.5" font-family="Helvetica,sans-Serif" font-size="10.00">mom::initialize_mom</text>
</a>
</g>
</g>
<!-- Node256&#45;&gt;Node257 -->
<g id="edge8" class="edge"><title>Node256&#45;&gt;Node257</title>
<path fill="none" stroke="midnightblue" d="M1001.09,-411C1009.75,-411 1018.54,-411 1026.82,-411"/>
<polygon fill="midnightblue" stroke="midnightblue" points="1001.01,-407.5 991.006,-411 1001.01,-414.5 1001.01,-407.5"/>
</g>
<!-- Node258 -->
<g id="node10" class="node"><title>Node258</title>
<g id="a_node10"><a xlink:href="../../de/dbc/MOM__driver_8F90.html#a08fffeb2d8e8acbf9ed4609be6d258c6" target="_top" xlink:title="mom_main">
<polygon fill="white" stroke="black" points="1152,-401.5 1152,-420.5 1208,-420.5 1208,-401.5 1152,-401.5"/>
<text text-anchor="middle" x="1180" y="-408.5" font-family="Helvetica,sans-Serif" font-size="10.00">mom_main</text>
</a>
</g>
</g>
<!-- Node257&#45;&gt;Node258 -->
<g id="edge9" class="edge"><title>Node257&#45;&gt;Node258</title>
<path fill="none" stroke="midnightblue" d="M1126.41,-411C1135.21,-411 1143.98,-411 1151.77,-411"/>
<polygon fill="midnightblue" stroke="midnightblue" points="1126.12,-407.5 1116.12,-411 1126.12,-414.5 1126.12,-407.5"/>
</g>
<!-- Node261 -->
<g id="node13" class="node"><title>Node261</title>
<g id="a_node13"><a xlink:href="../../d9/def/namespacemom__file__parser.html#a363628fcd8540de780ebeacf24012229" target="_top" xlink:title="mom_file_parser::openparameterblock">
<polygon fill="white" stroke="black" points="372,-426.5 372,-445.5 527,-445.5 527,-426.5 372,-426.5"/>
<text text-anchor="middle" x="449.5" y="-433.5" font-family="Helvetica,sans-Serif" font-size="10.00">mom_file_parser::openparameterblock</text>
</a>
</g>
</g>
<!-- Node260&#45;&gt;Node261 -->
<g id="edge12" class="edge"><title>Node260&#45;&gt;Node261</title>
<path fill="none" stroke="midnightblue" d="M341.148,-436C351.293,-436 361.712,-436 371.882,-436"/>
<polygon fill="midnightblue" stroke="midnightblue" points="341.114,-432.5 331.114,-436 341.114,-439.5 341.114,-432.5"/>
</g>
<!-- Node261&#45;&gt;Node252 -->
<g id="edge13" class="edge"><title>Node261&#45;&gt;Node252</title>
<path fill="none" stroke="midnightblue" d="M506.807,-448.324C513.687,-450.315 520.557,-452.542 527,-455 543.903,-461.45 546.705,-466.139 563,-474 569.91,-477.333 577.372,-480.741 584.547,-483.925"/>
<polygon fill="midnightblue" stroke="midnightblue" points="507.338,-444.84 496.768,-445.576 505.489,-451.592 507.338,-444.84"/>
</g>
<!-- Node261&#45;&gt;Node253 -->
<g id="edge14" class="edge"><title>Node261&#45;&gt;Node253</title>
<path fill="none" stroke="midnightblue" d="M537.395,-445.74C551.966,-447.374 566.453,-448.998 579.131,-450.419"/>
<polygon fill="midnightblue" stroke="midnightblue" points="537.643,-442.246 527.315,-444.611 536.863,-449.203 537.643,-442.246"/>
</g>
<!-- Node261&#45;&gt;Node254 -->
<g id="edge15" class="edge"><title>Node261&#45;&gt;Node254</title>
<path fill="none" stroke="midnightblue" d="M525.12,-424.994C537.767,-423.129 550.72,-421.218 562.829,-419.432"/>
<polygon fill="midnightblue" stroke="midnightblue" points="524.446,-421.555 515.064,-426.477 525.468,-428.481 524.446,-421.555"/>
</g>
</g>
</svg>
