<?xml version="1.0" encoding="UTF-8" standalone="no"?>
<!DOCTYPE svg PUBLIC "-//W3C//DTD SVG 1.1//EN"
 "http://www.w3.org/Graphics/SVG/1.1/DTD/svg11.dtd">
<!-- Generated by graphviz version 2.38.0 (20140413.2041)
 -->
<!-- Title: mom_document::testformattedfloatisreal Pages: 1 -->
<svg width="624pt" height="116pt"
 viewBox="0.00 0.00 624.00 115.50" xmlns="http://www.w3.org/2000/svg" xmlns:xlink="http://www.w3.org/1999/xlink">
<g id="graph0" class="graph" transform="scale(1 1) rotate(0) translate(4 111.5)">
<title>mom_document::testformattedfloatisreal</title>
<polygon fill="white" stroke="none" points="-4,4 -4,-111.5 620,-111.5 620,4 -4,4"/>
<!-- Node240 -->
<g id="node1" class="node"><title>Node240</title>
<polygon fill="#bfbfbf" stroke="black" points="0,-50 0,-69 160,-69 160,-50 0,-50"/>
<text text-anchor="middle" x="80" y="-57" font-family="Helvetica,sans-Serif" font-size="10.00">mom_document::testformattedfloatisreal</text>
</g>
<!-- Node241 -->
<g id="node2" class="node"><title>Node241</title>
<g id="a_node2"><a xlink:href="../../d5/d38/namespacemom__document.html#a966b8926bf40ee436654a0048b2bf42a" target="_top" xlink:title="mom_document::real\l_string">
<polygon fill="white" stroke="black" points="196,-44.5 196,-74.5 288,-74.5 288,-44.5 196,-44.5"/>
<text text-anchor="start" x="204" y="-62.5" font-family="Helvetica,sans-Serif" font-size="10.00">mom_document::real</text>
<text text-anchor="middle" x="242" y="-51.5" font-family="Helvetica,sans-Serif" font-size="10.00">_string</text>
</a>
</g>
</g>
<!-- Node240&#45;&gt;Node241 -->
<g id="edge1" class="edge"><title>Node240&#45;&gt;Node241</title>
<path fill="none" stroke="midnightblue" d="M170.121,-59.5C178.993,-59.5 187.714,-59.5 195.839,-59.5"/>
<polygon fill="midnightblue" stroke="midnightblue" points="170.063,-56.0001 160.063,-59.5 170.062,-63.0001 170.063,-56.0001"/>
</g>
<!-- Node242 -->
<g id="node3" class="node"><title>Node242</title>
<g id="a_node3"><a xlink:href="../../d5/d38/namespacemom__document.html#aae79ba23b83e7e2be3dcc46f50ee0f69" target="_top" xlink:title="mom_document::doc_param_real">
<polygon fill="white" stroke="black" points="324,-88 324,-107 461,-107 461,-88 324,-88"/>
<text text-anchor="middle" x="392.5" y="-95" font-family="Helvetica,sans-Serif" font-size="10.00">mom_document::doc_param_real</text>
</a>
</g>
</g>
<!-- Node241&#45;&gt;Node242 -->
<g id="edge2" class="edge"><title>Node241&#45;&gt;Node242</title>
<path fill="none" stroke="midnightblue" d="M298.176,-73.6191C316.739,-78.3694 337.009,-83.5563 353.901,-87.8788"/>
<polygon fill="midnightblue" stroke="midnightblue" points="298.917,-70.1961 288.362,-71.1077 297.182,-76.9776 298.917,-70.1961"/>
</g>
<!-- Node243 -->
<g id="node4" class="node"><title>Node243</title>
<g id="a_node4"><a xlink:href="../../d5/d38/namespacemom__document.html#a09ce71cb5106c9abb604c07b98e62863" target="_top" xlink:title="mom_document::doc_param\l_real_array">
<polygon fill="white" stroke="black" points="497,-22.5 497,-52.5 616,-52.5 616,-22.5 497,-22.5"/>
<text text-anchor="start" x="505" y="-40.5" font-family="Helvetica,sans-Serif" font-size="10.00">mom_document::doc_param</text>
<text text-anchor="middle" x="556.5" y="-29.5" font-family="Helvetica,sans-Serif" font-size="10.00">_real_array</text>
</a>
</g>
</g>
<!-- Node241&#45;&gt;Node243 -->
<g id="edge3" class="edge"><title>Node241&#45;&gt;Node243</title>
<path fill="none" stroke="midnightblue" d="M298.156,-55.617C353.927,-51.6908 439.808,-45.6448 496.81,-41.6318"/>
<polygon fill="midnightblue" stroke="midnightblue" points="297.836,-52.1308 288.106,-56.3245 298.328,-59.1135 297.836,-52.1308"/>
</g>
<!-- Node244 -->
<g id="node5" class="node"><title>Node244</title>
<g id="a_node5"><a xlink:href="../../d5/d38/namespacemom__document.html#a436486f7289eafc7b4e8ba65812f3459" target="_top" xlink:title="mom_document::real\l_array_string">
<polygon fill="white" stroke="black" points="346.5,-0.5 346.5,-30.5 438.5,-30.5 438.5,-0.5 346.5,-0.5"/>
<text text-anchor="start" x="354.5" y="-18.5" font-family="Helvetica,sans-Serif" font-size="10.00">mom_document::real</text>
<text text-anchor="middle" x="392.5" y="-7.5" font-family="Helvetica,sans-Serif" font-size="10.00">_array_string</text>
</a>
</g>
</g>
<!-- Node241&#45;&gt;Node244 -->
<g id="edge4" class="edge"><title>Node241&#45;&gt;Node244</title>
<path fill="none" stroke="midnightblue" d="M298.082,-43.1794C314.001,-38.4626 331.182,-33.3719 346.416,-28.8582"/>
<polygon fill="midnightblue" stroke="midnightblue" points="296.955,-39.8627 288.362,-46.0595 298.944,-46.5743 296.955,-39.8627"/>
</g>
<!-- Node244&#45;&gt;Node243 -->
<g id="edge5" class="edge"><title>Node244&#45;&gt;Node243</title>
<path fill="none" stroke="midnightblue" d="M448.628,-22.9865C464.202,-25.1015 481.203,-27.4102 496.97,-29.5514"/>
<polygon fill="midnightblue" stroke="midnightblue" points="449.006,-19.5058 438.626,-21.6282 448.064,-26.4422 449.006,-19.5058"/>
</g>
</g>
</svg>
