<?xml version="1.0" encoding="UTF-8" standalone="no"?>
<!DOCTYPE svg PUBLIC "-//W3C//DTD SVG 1.1//EN"
 "http://www.w3.org/Graphics/SVG/1.1/DTD/svg11.dtd">
<!-- Generated by graphviz version 2.38.0 (20140413.2041)
 -->
<!-- Title: mom_document::find_unused_unit_number Pages: 1 -->
<svg width="1288pt" height="569pt"
 viewBox="0.00 0.00 1288.00 569.00" xmlns="http://www.w3.org/2000/svg" xmlns:xlink="http://www.w3.org/1999/xlink">
<g id="graph0" class="graph" transform="scale(1 1) rotate(0) translate(4 565)">
<title>mom_document::find_unused_unit_number</title>
<polygon fill="white" stroke="none" points="-4,4 -4,-565 1284,-565 1284,4 -4,4"/>
<!-- Node153 -->
<g id="node1" class="node"><title>Node153</title>
<polygon fill="#bfbfbf" stroke="black" points="0,-245 0,-275 97,-275 97,-245 0,-245"/>
<text text-anchor="start" x="8" y="-263" font-family="Helvetica,sans-Serif" font-size="10.00">mom_document::find</text>
<text text-anchor="middle" x="48.5" y="-252" font-family="Helvetica,sans-Serif" font-size="10.00">_unused_unit_number</text>
</g>
<!-- Node154 -->
<g id="node2" class="node"><title>Node154</title>
<g id="a_node2"><a xlink:href="../../d5/d38/namespacemom__document.html#aab976b6c6c9c01833438d217fca228a4" target="_top" xlink:title="mom_document::open\l_doc_file">
<polygon fill="white" stroke="black" points="133,-245 133,-275 230,-275 230,-245 133,-245"/>
<text text-anchor="start" x="141" y="-263" font-family="Helvetica,sans-Serif" font-size="10.00">mom_document::open</text>
<text text-anchor="middle" x="181.5" y="-252" font-family="Helvetica,sans-Serif" font-size="10.00">_doc_file</text>
</a>
</g>
</g>
<!-- Node153&#45;&gt;Node154 -->
<g id="edge1" class="edge"><title>Node153&#45;&gt;Node154</title>
<path fill="none" stroke="midnightblue" d="M107.351,-260C115.803,-260 124.428,-260 132.651,-260"/>
<polygon fill="midnightblue" stroke="midnightblue" points="107.165,-256.5 97.1646,-260 107.165,-263.5 107.165,-256.5"/>
</g>
<!-- Node155 -->
<g id="node3" class="node"><title>Node155</title>
<g id="a_node3"><a xlink:href="../../d5/d38/namespacemom__document.html#ab6438889d6e98b10d8c42d5ff6b00ef8" target="_top" xlink:title="mom_document::doc_param_none">
<polygon fill="white" stroke="black" points="266,-541.5 266,-560.5 408,-560.5 408,-541.5 266,-541.5"/>
<text text-anchor="middle" x="337" y="-548.5" font-family="Helvetica,sans-Serif" font-size="10.00">mom_document::doc_param_none</text>
</a>
</g>
</g>
<!-- Node154&#45;&gt;Node155 -->
<g id="edge2" class="edge"><title>Node154&#45;&gt;Node155</title>
<path fill="none" stroke="midnightblue" d="M182.606,-285.528C184.266,-339.159 195.909,-464.171 266,-532 269.982,-535.853 274.662,-538.943 279.684,-541.418"/>
<polygon fill="midnightblue" stroke="midnightblue" points="186.099,-285.136 182.386,-275.213 179.101,-285.286 186.099,-285.136"/>
</g>
<!-- Node156 -->
<g id="node4" class="node"><title>Node156</title>
<g id="a_node4"><a xlink:href="../../d5/d38/namespacemom__document.html#ae29b615a7c566d9da64ade24864805b2" target="_top" xlink:title="mom_document::doc_param\l_logical">
<polygon fill="white" stroke="black" points="277.5,-492 277.5,-522 396.5,-522 396.5,-492 277.5,-492"/>
<text text-anchor="start" x="285.5" y="-510" font-family="Helvetica,sans-Serif" font-size="10.00">mom_document::doc_param</text>
<text text-anchor="middle" x="337" y="-499" font-family="Helvetica,sans-Serif" font-size="10.00">_logical</text>
</a>
</g>
</g>
<!-- Node154&#45;&gt;Node156 -->
<g id="edge3" class="edge"><title>Node154&#45;&gt;Node156</title>
<path fill="none" stroke="midnightblue" d="M184.951,-285.058C190.739,-330.736 209.34,-427.903 266,-483 269.5,-486.403 273.503,-489.325 277.783,-491.833"/>
<polygon fill="midnightblue" stroke="midnightblue" points="188.427,-284.641 183.794,-275.113 181.474,-285.451 188.427,-284.641"/>
</g>
<!-- Node157 -->
<g id="node5" class="node"><title>Node157</title>
<g id="a_node5"><a xlink:href="../../d5/d38/namespacemom__document.html#a9792937a5eb8f9a2a58c7b816520470d" target="_top" xlink:title="mom_document::doc_param\l_logical_array">
<polygon fill="white" stroke="black" points="277.5,-443 277.5,-473 396.5,-473 396.5,-443 277.5,-443"/>
<text text-anchor="start" x="285.5" y="-461" font-family="Helvetica,sans-Serif" font-size="10.00">mom_document::doc_param</text>
<text text-anchor="middle" x="337" y="-450" font-family="Helvetica,sans-Serif" font-size="10.00">_logical_array</text>
</a>
</g>
</g>
<!-- Node154&#45;&gt;Node157 -->
<g id="edge4" class="edge"><title>Node154&#45;&gt;Node157</title>
<path fill="none" stroke="midnightblue" d="M188.148,-285.1C197.804,-322.433 220.959,-392.524 266,-433 270.319,-436.882 275.283,-440.171 280.531,-442.956"/>
<polygon fill="midnightblue" stroke="midnightblue" points="191.466,-283.935 185.675,-275.062 184.669,-285.609 191.466,-283.935"/>
</g>
<!-- Node158 -->
<g id="node6" class="node"><title>Node158</title>
<g id="a_node6"><a xlink:href="../../d5/d38/namespacemom__document.html#a14995c64ee277f19aa10b957431aa4c1" target="_top" xlink:title="mom_document::doc_param_int">
<polygon fill="white" stroke="black" points="271,-404.5 271,-423.5 403,-423.5 403,-404.5 271,-404.5"/>
<text text-anchor="middle" x="337" y="-411.5" font-family="Helvetica,sans-Serif" font-size="10.00">mom_document::doc_param_int</text>
</a>
</g>
</g>
<!-- Node154&#45;&gt;Node158 -->
<g id="edge5" class="edge"><title>Node154&#45;&gt;Node158</title>
<path fill="none" stroke="midnightblue" d="M191.194,-284.645C203.231,-315.16 227.897,-366.574 266,-395 271.248,-398.916 277.253,-402.024 283.49,-404.493"/>
<polygon fill="midnightblue" stroke="midnightblue" points="194.415,-283.269 187.595,-275.161 187.871,-285.753 194.415,-283.269"/>
</g>
<!-- Node159 -->
<g id="node7" class="node"><title>Node159</title>
<g id="a_node7"><a xlink:href="../../d5/d38/namespacemom__document.html#a3ce71018037d66ba8f51d860bedbdcbb" target="_top" xlink:title="mom_document::doc_param\l_int_array">
<polygon fill="white" stroke="black" points="277.5,-355 277.5,-385 396.5,-385 396.5,-355 277.5,-355"/>
<text text-anchor="start" x="285.5" y="-373" font-family="Helvetica,sans-Serif" font-size="10.00">mom_document::doc_param</text>
<text text-anchor="middle" x="337" y="-362" font-family="Helvetica,sans-Serif" font-size="10.00">_int_array</text>
</a>
</g>
</g>
<!-- Node154&#45;&gt;Node159 -->
<g id="edge6" class="edge"><title>Node154&#45;&gt;Node159</title>
<path fill="none" stroke="midnightblue" d="M200.198,-283.122C215.736,-302.04 239.884,-328.31 266,-345 271.872,-348.753 278.381,-352.034 284.998,-354.877"/>
<polygon fill="midnightblue" stroke="midnightblue" points="202.876,-280.867 193.887,-275.26 197.418,-285.25 202.876,-280.867"/>
</g>
<!-- Node160 -->
<g id="node8" class="node"><title>Node160</title>
<g id="a_node8"><a xlink:href="../../d5/d38/namespacemom__document.html#aae79ba23b83e7e2be3dcc46f50ee0f69" target="_top" xlink:title="mom_document::doc_param_real">
<polygon fill="white" stroke="black" points="268.5,-316.5 268.5,-335.5 405.5,-335.5 405.5,-316.5 268.5,-316.5"/>
<text text-anchor="middle" x="337" y="-323.5" font-family="Helvetica,sans-Serif" font-size="10.00">mom_document::doc_param_real</text>
</a>
</g>
</g>
<!-- Node154&#45;&gt;Node160 -->
<g id="edge7" class="edge"><title>Node154&#45;&gt;Node160</title>
<path fill="none" stroke="midnightblue" d="M214.763,-280.637C229.883,-289.654 248.408,-299.792 266,-307 274.856,-310.628 284.623,-313.777 293.98,-316.411"/>
<polygon fill="midnightblue" stroke="midnightblue" points="216.19,-277.409 205.827,-275.204 212.554,-283.39 216.19,-277.409"/>
</g>
<!-- Node161 -->
<g id="node9" class="node"><title>Node161</title>
<g id="a_node9"><a xlink:href="../../d5/d38/namespacemom__document.html#a09ce71cb5106c9abb604c07b98e62863" target="_top" xlink:title="mom_document::doc_param\l_real_array">
<polygon fill="white" stroke="black" points="277.5,-267 277.5,-297 396.5,-297 396.5,-267 277.5,-267"/>
<text text-anchor="start" x="285.5" y="-285" font-family="Helvetica,sans-Serif" font-size="10.00">mom_document::doc_param</text>
<text text-anchor="middle" x="337" y="-274" font-family="Helvetica,sans-Serif" font-size="10.00">_real_array</text>
</a>
</g>
</g>
<!-- Node154&#45;&gt;Node161 -->
<g id="edge8" class="edge"><title>Node154&#45;&gt;Node161</title>
<path fill="none" stroke="midnightblue" d="M240.264,-268.279C252.438,-270.024 265.292,-271.866 277.493,-273.615"/>
<polygon fill="midnightblue" stroke="midnightblue" points="240.622,-264.795 230.227,-266.84 239.629,-271.724 240.622,-264.795"/>
</g>
<!-- Node162 -->
<g id="node10" class="node"><title>Node162</title>
<g id="a_node10"><a xlink:href="../../d5/d38/namespacemom__document.html#aeef6510f5e76c23d9a9a9c587f62d4d9" target="_top" xlink:title="mom_document::doc_param_char">
<polygon fill="white" stroke="black" points="267,-228.5 267,-247.5 407,-247.5 407,-228.5 267,-228.5"/>
<text text-anchor="middle" x="337" y="-235.5" font-family="Helvetica,sans-Serif" font-size="10.00">mom_document::doc_param_char</text>
</a>
</g>
</g>
<!-- Node154&#45;&gt;Node162 -->
<g id="edge9" class="edge"><title>Node154&#45;&gt;Node162</title>
<path fill="none" stroke="midnightblue" d="M240.41,-251.7C249.973,-250.33 259.952,-248.899 269.701,-247.502"/>
<polygon fill="midnightblue" stroke="midnightblue" points="239.629,-248.276 230.227,-253.16 240.622,-255.205 239.629,-248.276"/>
</g>
<!-- Node163 -->
<g id="node11" class="node"><title>Node163</title>
<g id="a_node11"><a xlink:href="../../d5/d38/namespacemom__document.html#ada55c6a65638e04d2b550f419aafa929" target="_top" xlink:title="mom_document::doc_openblock">
<polygon fill="white" stroke="black" points="271,-190.5 271,-209.5 403,-209.5 403,-190.5 271,-190.5"/>
<text text-anchor="middle" x="337" y="-197.5" font-family="Helvetica,sans-Serif" font-size="10.00">mom_document::doc_openblock</text>
</a>
</g>
</g>
<!-- Node154&#45;&gt;Node163 -->
<g id="edge10" class="edge"><title>Node154&#45;&gt;Node163</title>
<path fill="none" stroke="midnightblue" d="M218.822,-240.281C233.236,-232.958 250.134,-224.985 266,-219 275.426,-215.444 285.796,-212.255 295.601,-209.551"/>
<polygon fill="midnightblue" stroke="midnightblue" points="217.021,-237.272 209.744,-244.972 220.235,-243.491 217.021,-237.272"/>
</g>
<!-- Node172 -->
<g id="node20" class="node"><title>Node172</title>
<g id="a_node20"><a xlink:href="../../d5/d38/namespacemom__document.html#a058916aee316efa7a6484b3bb1d3f3df" target="_top" xlink:title="mom_document::doc_closeblock">
<polygon fill="white" stroke="black" points="271,-152.5 271,-171.5 403,-171.5 403,-152.5 271,-152.5"/>
<text text-anchor="middle" x="337" y="-159.5" font-family="Helvetica,sans-Serif" font-size="10.00">mom_document::doc_closeblock</text>
</a>
</g>
</g>
<!-- Node154&#45;&gt;Node172 -->
<g id="edge19" class="edge"><title>Node154&#45;&gt;Node172</title>
<path fill="none" stroke="midnightblue" d="M200.975,-237.191C216.546,-219.411 240.344,-195.398 266,-181 272.809,-177.179 280.425,-174.095 288.059,-171.614"/>
<polygon fill="midnightblue" stroke="midnightblue" points="198.254,-234.987 194.422,-244.865 203.577,-239.533 198.254,-234.987"/>
</g>
<!-- Node174 -->
<g id="node22" class="node"><title>Node174</title>
<g id="a_node22"><a xlink:href="../../d5/d38/namespacemom__document.html#a88e4bef8326a973afec58f1cb66fdd0c" target="_top" xlink:title="mom_document::doc_param_time">
<polygon fill="white" stroke="black" points="267.5,-114.5 267.5,-133.5 406.5,-133.5 406.5,-114.5 267.5,-114.5"/>
<text text-anchor="middle" x="337" y="-121.5" font-family="Helvetica,sans-Serif" font-size="10.00">mom_document::doc_param_time</text>
</a>
</g>
</g>
<!-- Node154&#45;&gt;Node174 -->
<g id="edge24" class="edge"><title>Node154&#45;&gt;Node174</title>
<path fill="none" stroke="midnightblue" d="M193.465,-235.823C206.819,-209.111 231.886,-166.741 266,-143 271.581,-139.116 277.923,-136.025 284.455,-133.565"/>
<polygon fill="midnightblue" stroke="midnightblue" points="190.282,-234.366 189.08,-244.892 196.584,-237.413 190.282,-234.366"/>
</g>
<!-- Node175 -->
<g id="node23" class="node"><title>Node175</title>
<g id="a_node23"><a xlink:href="../../d5/d38/namespacemom__document.html#a29ab772c411aedcc137942020c1ee042" target="_top" xlink:title="mom_document::doc_module">
<polygon fill="white" stroke="black" points="276,-76.5 276,-95.5 398,-95.5 398,-76.5 276,-76.5"/>
<text text-anchor="middle" x="337" y="-83.5" font-family="Helvetica,sans-Serif" font-size="10.00">mom_document::doc_module</text>
</a>
</g>
</g>
<!-- Node154&#45;&gt;Node175 -->
<g id="edge25" class="edge"><title>Node154&#45;&gt;Node175</title>
<path fill="none" stroke="midnightblue" d="M189.229,-234.802C199.761,-200.287 223.473,-138.751 266,-105 270.932,-101.086 276.607,-97.976 282.548,-95.5054"/>
<polygon fill="midnightblue" stroke="midnightblue" points="185.815,-234.005 186.377,-244.585 192.536,-235.964 185.815,-234.005"/>
</g>
<!-- Node176 -->
<g id="node24" class="node"><title>Node176</title>
<g id="a_node24"><a xlink:href="../../d5/d38/namespacemom__document.html#ab7020ae92729a51ce8915cd1f080bb14" target="_top" xlink:title="mom_document::doc_subroutine">
<polygon fill="white" stroke="black" points="270,-38.5 270,-57.5 404,-57.5 404,-38.5 270,-38.5"/>
<text text-anchor="middle" x="337" y="-45.5" font-family="Helvetica,sans-Serif" font-size="10.00">mom_document::doc_subroutine</text>
</a>
</g>
</g>
<!-- Node154&#45;&gt;Node176 -->
<g id="edge26" class="edge"><title>Node154&#45;&gt;Node176</title>
<path fill="none" stroke="midnightblue" d="M186.259,-234.804C193.772,-193.501 214.574,-111.539 266,-67 270.474,-63.1253 275.664,-60.0329 281.158,-57.5662"/>
<polygon fill="midnightblue" stroke="midnightblue" points="182.778,-234.402 184.551,-244.847 189.679,-235.576 182.778,-234.402"/>
</g>
<!-- Node177 -->
<g id="node25" class="node"><title>Node177</title>
<g id="a_node25"><a xlink:href="../../d5/d38/namespacemom__document.html#a69dd076650308c992b1e19967804902a" target="_top" xlink:title="mom_document::doc_function">
<polygon fill="white" stroke="black" points="275,-0.5 275,-19.5 399,-19.5 399,-0.5 275,-0.5"/>
<text text-anchor="middle" x="337" y="-7.5" font-family="Helvetica,sans-Serif" font-size="10.00">mom_document::doc_function</text>
</a>
</g>
</g>
<!-- Node154&#45;&gt;Node177 -->
<g id="edge27" class="edge"><title>Node154&#45;&gt;Node177</title>
<path fill="none" stroke="midnightblue" d="M184.22,-234.683C188.836,-187.215 205.627,-84.6249 266,-29 270.167,-25.1603 275.033,-22.0834 280.222,-19.6198"/>
<polygon fill="midnightblue" stroke="midnightblue" points="180.727,-234.459 183.348,-244.724 187.7,-235.064 180.727,-234.459"/>
</g>
<!-- Node164 -->
<g id="node12" class="node"><title>Node164</title>
<g id="a_node12"><a xlink:href="../../d9/def/namespacemom__file__parser.html#a363628fcd8540de780ebeacf24012229" target="_top" xlink:title="mom_file_parser::openparameterblock">
<polygon fill="white" stroke="black" points="444,-190.5 444,-209.5 599,-209.5 599,-190.5 444,-190.5"/>
<text text-anchor="middle" x="521.5" y="-197.5" font-family="Helvetica,sans-Serif" font-size="10.00">mom_file_parser::openparameterblock</text>
</a>
</g>
</g>
<!-- Node163&#45;&gt;Node164 -->
<g id="edge11" class="edge"><title>Node163&#45;&gt;Node164</title>
<path fill="none" stroke="midnightblue" d="M413.148,-200C423.293,-200 433.712,-200 443.882,-200"/>
<polygon fill="midnightblue" stroke="midnightblue" points="413.114,-196.5 403.114,-200 413.114,-203.5 413.114,-196.5"/>
</g>
<!-- Node165 -->
<g id="node13" class="node"><title>Node165</title>
<g id="a_node13"><a xlink:href="../../d6/d07/namespacemom__diffconvection.html#ac36d9d7fd69e4422e7de01242094ff34" target="_top" xlink:title="mom_diffconvection\l::diffconvection_init">
<polygon fill="white" stroke="black" points="649.5,-210 649.5,-240 736.5,-240 736.5,-210 649.5,-210"/>
<text text-anchor="start" x="657.5" y="-228" font-family="Helvetica,sans-Serif" font-size="10.00">mom_diffconvection</text>
<text text-anchor="middle" x="693" y="-217" font-family="Helvetica,sans-Serif" font-size="10.00">::diffconvection_init</text>
</a>
</g>
</g>
<!-- Node164&#45;&gt;Node165 -->
<g id="edge12" class="edge"><title>Node164&#45;&gt;Node165</title>
<path fill="none" stroke="midnightblue" d="M597.448,-211.054C615.241,-213.679 633.617,-216.389 649.384,-218.715"/>
<polygon fill="midnightblue" stroke="midnightblue" points="597.468,-207.519 587.064,-209.523 596.446,-214.445 597.468,-207.519"/>
</g>
<!-- Node166 -->
<g id="node14" class="node"><title>Node166</title>
<g id="a_node14"><a xlink:href="../../d5/d08/namespacemom__kpp.html#a9c834424b6e067e280928db3700ec77e" target="_top" xlink:title="Initialize the CVmix KPP module and set up diagnostics Returns True if KPP is to be used...">
<polygon fill="white" stroke="black" points="651.5,-171.5 651.5,-190.5 734.5,-190.5 734.5,-171.5 651.5,-171.5"/>
<text text-anchor="middle" x="693" y="-178.5" font-family="Helvetica,sans-Serif" font-size="10.00">mom_kpp::kpp_init</text>
</a>
</g>
</g>
<!-- Node164&#45;&gt;Node166 -->
<g id="edge13" class="edge"><title>Node164&#45;&gt;Node166</title>
<path fill="none" stroke="midnightblue" d="M609.395,-190.26C623.966,-188.626 638.453,-187.002 651.131,-185.581"/>
<polygon fill="midnightblue" stroke="midnightblue" points="608.863,-186.797 599.315,-191.389 609.643,-193.754 608.863,-186.797"/>
</g>
<!-- Node167 -->
<g id="node15" class="node"><title>Node167</title>
<g id="a_node15"><a xlink:href="../../d8/d50/namespacebaroclinic__zone__initialization.html#a72863008aadad2118278f5e0978fd99b" target="_top" xlink:title="Reads the parameters unique to this module. ">
<polygon fill="white" stroke="black" points="635,-122 635,-152 751,-152 751,-122 635,-122"/>
<text text-anchor="start" x="643" y="-140" font-family="Helvetica,sans-Serif" font-size="10.00">baroclinic_zone_initialization</text>
<text text-anchor="middle" x="693" y="-129" font-family="Helvetica,sans-Serif" font-size="10.00">::bcz_params</text>
</a>
</g>
</g>
<!-- Node164&#45;&gt;Node167 -->
<g id="edge14" class="edge"><title>Node164&#45;&gt;Node167</title>
<path fill="none" stroke="midnightblue" d="M578.807,-187.676C585.687,-185.685 592.557,-183.458 599,-181 615.903,-174.55 618.705,-169.861 635,-162 641.91,-158.667 649.372,-155.259 656.547,-152.075"/>
<polygon fill="midnightblue" stroke="midnightblue" points="577.489,-184.408 568.768,-190.424 579.338,-191.16 577.489,-184.408"/>
</g>
<!-- Node168 -->
<g id="node16" class="node"><title>Node168</title>
<g id="a_node16"><a xlink:href="../../d8/d50/namespacebaroclinic__zone__initialization.html#a2f99c7b0ea7981ef7b2c342fbc8c00c1" target="_top" xlink:title="Initialization of temperature and salinity with the baroclinic zone initial conditions. ">
<polygon fill="white" stroke="black" points="787,-116.5 787,-157.5 926,-157.5 926,-116.5 787,-116.5"/>
<text text-anchor="start" x="795" y="-145.5" font-family="Helvetica,sans-Serif" font-size="10.00">baroclinic_zone_initialization</text>
<text text-anchor="start" x="795" y="-134.5" font-family="Helvetica,sans-Serif" font-size="10.00">::baroclinic_zone_init_temperature</text>
<text text-anchor="middle" x="856.5" y="-123.5" font-family="Helvetica,sans-Serif" font-size="10.00">_salinity</text>
</a>
</g>
</g>
<!-- Node167&#45;&gt;Node168 -->
<g id="edge15" class="edge"><title>Node167&#45;&gt;Node168</title>
<path fill="none" stroke="midnightblue" d="M761.527,-137C769.935,-137 778.54,-137 786.964,-137"/>
<polygon fill="midnightblue" stroke="midnightblue" points="761.394,-133.5 751.394,-137 761.394,-140.5 761.394,-133.5"/>
</g>
<!-- Node169 -->
<g id="node17" class="node"><title>Node169</title>
<g id="a_node17"><a xlink:href="../../d6/d62/namespacemom__state__initialization.html#af4e854627c6572332ba3fd895f169321" target="_top" xlink:title="mom_state_initialization\l::mom_initialize_state">
<polygon fill="white" stroke="black" points="962,-122 962,-152 1063,-152 1063,-122 962,-122"/>
<text text-anchor="start" x="970" y="-140" font-family="Helvetica,sans-Serif" font-size="10.00">mom_state_initialization</text>
<text text-anchor="middle" x="1012.5" y="-129" font-family="Helvetica,sans-Serif" font-size="10.00">::mom_initialize_state</text>
</a>
</g>
</g>
<!-- Node168&#45;&gt;Node169 -->
<g id="edge16" class="edge"><title>Node168&#45;&gt;Node169</title>
<path fill="none" stroke="midnightblue" d="M936.429,-137C944.988,-137 953.515,-137 961.587,-137"/>
<polygon fill="midnightblue" stroke="midnightblue" points="936.392,-133.5 926.392,-137 936.392,-140.5 936.392,-133.5"/>
</g>
<!-- Node170 -->
<g id="node18" class="node"><title>Node170</title>
<g id="a_node18"><a xlink:href="../../da/d01/namespacemom.html#afebdc0103ad9cbe0ed4a54e522dc4104" target="_top" xlink:title="This subroutine initializes MOM. ">
<polygon fill="white" stroke="black" points="1099,-127.5 1099,-146.5 1188,-146.5 1188,-127.5 1099,-127.5"/>
<text text-anchor="middle" x="1143.5" y="-134.5" font-family="Helvetica,sans-Serif" font-size="10.00">mom::initialize_mom</text>
</a>
</g>
</g>
<!-- Node169&#45;&gt;Node170 -->
<g id="edge17" class="edge"><title>Node169&#45;&gt;Node170</title>
<path fill="none" stroke="midnightblue" d="M1073.09,-137C1081.75,-137 1090.54,-137 1098.82,-137"/>
<polygon fill="midnightblue" stroke="midnightblue" points="1073.01,-133.5 1063.01,-137 1073.01,-140.5 1073.01,-133.5"/>
</g>
<!-- Node171 -->
<g id="node19" class="node"><title>Node171</title>
<g id="a_node19"><a xlink:href="../../de/dbc/MOM__driver_8F90.html#a08fffeb2d8e8acbf9ed4609be6d258c6" target="_top" xlink:title="mom_main">
<polygon fill="white" stroke="black" points="1224,-127.5 1224,-146.5 1280,-146.5 1280,-127.5 1224,-127.5"/>
<text text-anchor="middle" x="1252" y="-134.5" font-family="Helvetica,sans-Serif" font-size="10.00">mom_main</text>
</a>
</g>
</g>
<!-- Node170&#45;&gt;Node171 -->
<g id="edge18" class="edge"><title>Node170&#45;&gt;Node171</title>
<path fill="none" stroke="midnightblue" d="M1198.41,-137C1207.21,-137 1215.98,-137 1223.77,-137"/>
<polygon fill="midnightblue" stroke="midnightblue" points="1198.12,-133.5 1188.12,-137 1198.12,-140.5 1198.12,-133.5"/>
</g>
<!-- Node173 -->
<g id="node21" class="node"><title>Node173</title>
<g id="a_node21"><a xlink:href="../../d9/def/namespacemom__file__parser.html#a0d01b9a66f5ac12b657c00f1295351bb" target="_top" xlink:title="mom_file_parser::closeparameterblock">
<polygon fill="white" stroke="black" points="444,-152.5 444,-171.5 599,-171.5 599,-152.5 444,-152.5"/>
<text text-anchor="middle" x="521.5" y="-159.5" font-family="Helvetica,sans-Serif" font-size="10.00">mom_file_parser::closeparameterblock</text>
</a>
</g>
</g>
<!-- Node172&#45;&gt;Node173 -->
<g id="edge20" class="edge"><title>Node172&#45;&gt;Node173</title>
<path fill="none" stroke="midnightblue" d="M413.148,-162C423.293,-162 433.712,-162 443.882,-162"/>
<polygon fill="midnightblue" stroke="midnightblue" points="413.114,-158.5 403.114,-162 413.114,-165.5 413.114,-158.5"/>
</g>
<!-- Node173&#45;&gt;Node165 -->
<g id="edge21" class="edge"><title>Node173&#45;&gt;Node165</title>
<path fill="none" stroke="midnightblue" d="M578.807,-174.324C585.687,-176.315 592.557,-178.542 599,-181 615.903,-187.45 618.705,-192.139 635,-200 641.91,-203.333 649.372,-206.741 656.547,-209.925"/>
<polygon fill="midnightblue" stroke="midnightblue" points="579.338,-170.84 568.768,-171.576 577.489,-177.592 579.338,-170.84"/>
</g>
<!-- Node173&#45;&gt;Node166 -->
<g id="edge22" class="edge"><title>Node173&#45;&gt;Node166</title>
<path fill="none" stroke="midnightblue" d="M609.395,-171.74C623.966,-173.374 638.453,-174.998 651.131,-176.419"/>
<polygon fill="midnightblue" stroke="midnightblue" points="609.643,-168.246 599.315,-170.611 608.863,-175.203 609.643,-168.246"/>
</g>
<!-- Node173&#45;&gt;Node167 -->
<g id="edge23" class="edge"><title>Node173&#45;&gt;Node167</title>
<path fill="none" stroke="midnightblue" d="M597.12,-150.994C609.767,-149.129 622.72,-147.218 634.829,-145.432"/>
<polygon fill="midnightblue" stroke="midnightblue" points="596.446,-147.555 587.064,-152.477 597.468,-154.481 596.446,-147.555"/>
</g>
</g>
</svg>
