<?xml version="1.0" encoding="UTF-8" standalone="no"?>
<!DOCTYPE svg PUBLIC "-//W3C//DTD SVG 1.1//EN"
 "http://www.w3.org/Graphics/SVG/1.1/DTD/svg11.dtd">
<!-- Generated by graphviz version 2.38.0 (20140413.2041)
 -->
<!-- Title: mom_document::testformattedfloatisreal Pages: 1 -->
<!--zoomable 116 -->
<svg id="main" version="1.1" xmlns="http://www.w3.org/2000/svg" xmlns:xlink="http://www.w3.org/1999/xlink" xml:space="preserve" onload="init(evt)">
<style type="text/css"><![CDATA[
.edge:hover path { stroke: red; }
.edge:hover polygon { stroke: red; fill: red; }
]]></style>
<script type="text/javascript"><![CDATA[
var edges = document.getElementsByTagName('g');
if (edges && edges.length) {
  for (var i=0;i<edges.length;i++) {
    if (edges[i].id.substr(0,4)=='edge') {
      edges[i].setAttribute('class','edge');
    }
  }
}
]]></script>
        <defs>
                <circle id="rim" cx="0" cy="0" r="7"/>
                <circle id="rim2" cx="0" cy="0" r="3.5"/>
                <g id="zoomPlus">
                        <use xlink:href="#rim" fill="#404040">
                                <set attributeName="fill" to="#808080" begin="zoomplus.mouseover" end="zoomplus.mouseout"/>
                        </use>
                        <path d="M-4,0h8M0,-4v8" fill="none" stroke="white" stroke-width="1.5" pointer-events="none"/>
                </g>
                <g id="zoomMin">
                        <use xlink:href="#rim" fill="#404040">
                                <set attributeName="fill" to="#808080" begin="zoomminus.mouseover" end="zoomminus.mouseout"/>
                        </use>
                        <path d="M-4,0h8" fill="none" stroke="white" stroke-width="1.5" pointer-events="none"/>
                </g>
                <g id="dirArrow">
                        <path fill="none" stroke="white" stroke-width="1.5" d="M0,-3.0v7 M-2.5,-0.5L0,-3.0L2.5,-0.5"/>
                </g>
               <g id="resetDef">
                       <use xlink:href="#rim2" fill="#404040">
                               <set attributeName="fill" to="#808080" begin="reset.mouseover" end="reset.mouseout"/>
                       </use>
               </g>
        </defs>

<script type="text/javascript">
var viewWidth = 624;
var viewHeight = 116;
var sectionId = 'dynsection-28';
</script>
<script xlink:href="../../svgpan.js"/>
<svg id="graph" class="graph">
<g id="viewport">
<title>mom_document::testformattedfloatisreal</title>
<polygon fill="white" stroke="none" points="-4,4 -4,-111.5 620,-111.5 620,4 -4,4"/>
<!-- Node240 -->
<g id="node1" class="node"><title>Node240</title>
<polygon fill="#bfbfbf" stroke="black" points="0,-50 0,-69 160,-69 160,-50 0,-50"/>
<text text-anchor="middle" x="80" y="-57" font-family="Helvetica,sans-Serif" font-size="10.00">mom_document::testformattedfloatisreal</text>
</g>
<!-- Node241 -->
<g id="node2" class="node"><title>Node241</title>
<g id="a_node2"><a xlink:href="../../d5/d38/namespacemom__document.html#a966b8926bf40ee436654a0048b2bf42a" target="_top" xlink:title="mom_document::real\l_string">
<polygon fill="white" stroke="black" points="196,-44.5 196,-74.5 288,-74.5 288,-44.5 196,-44.5"/>
<text text-anchor="start" x="204" y="-62.5" font-family="Helvetica,sans-Serif" font-size="10.00">mom_document::real</text>
<text text-anchor="middle" x="242" y="-51.5" font-family="Helvetica,sans-Serif" font-size="10.00">_string</text>
</a>
</g>
</g>
<!-- Node240&#45;&gt;Node241 -->
<g id="edge1" class="edge"><title>Node240&#45;&gt;Node241</title>
<path fill="none" stroke="midnightblue" d="M170.121,-59.5C178.993,-59.5 187.714,-59.5 195.839,-59.5"/>
<polygon fill="midnightblue" stroke="midnightblue" points="170.063,-56.0001 160.063,-59.5 170.062,-63.0001 170.063,-56.0001"/>
</g>
<!-- Node242 -->
<g id="node3" class="node"><title>Node242</title>
<g id="a_node3"><a xlink:href="../../d5/d38/namespacemom__document.html#aae79ba23b83e7e2be3dcc46f50ee0f69" target="_top" xlink:title="mom_document::doc_param_real">
<polygon fill="white" stroke="black" points="324,-88 324,-107 461,-107 461,-88 324,-88"/>
<text text-anchor="middle" x="392.5" y="-95" font-family="Helvetica,sans-Serif" font-size="10.00">mom_document::doc_param_real</text>
</a>
</g>
</g>
<!-- Node241&#45;&gt;Node242 -->
<g id="edge2" class="edge"><title>Node241&#45;&gt;Node242</title>
<path fill="none" stroke="midnightblue" d="M298.176,-73.6191C316.739,-78.3694 337.009,-83.5563 353.901,-87.8788"/>
<polygon fill="midnightblue" stroke="midnightblue" points="298.917,-70.1961 288.362,-71.1077 297.182,-76.9776 298.917,-70.1961"/>
</g>
<!-- Node243 -->
<g id="node4" class="node"><title>Node243</title>
<g id="a_node4"><a xlink:href="../../d5/d38/namespacemom__document.html#a09ce71cb5106c9abb604c07b98e62863" target="_top" xlink:title="mom_document::doc_param\l_real_array">
<polygon fill="white" stroke="black" points="497,-22.5 497,-52.5 616,-52.5 616,-22.5 497,-22.5"/>
<text text-anchor="start" x="505" y="-40.5" font-family="Helvetica,sans-Serif" font-size="10.00">mom_document::doc_param</text>
<text text-anchor="middle" x="556.5" y="-29.5" font-family="Helvetica,sans-Serif" font-size="10.00">_real_array</text>
</a>
</g>
</g>
<!-- Node241&#45;&gt;Node243 -->
<g id="edge3" class="edge"><title>Node241&#45;&gt;Node243</title>
<path fill="none" stroke="midnightblue" d="M298.156,-55.617C353.927,-51.6908 439.808,-45.6448 496.81,-41.6318"/>
<polygon fill="midnightblue" stroke="midnightblue" points="297.836,-52.1308 288.106,-56.3245 298.328,-59.1135 297.836,-52.1308"/>
</g>
<!-- Node244 -->
<g id="node5" class="node"><title>Node244</title>
<g id="a_node5"><a xlink:href="../../d5/d38/namespacemom__document.html#a436486f7289eafc7b4e8ba65812f3459" target="_top" xlink:title="mom_document::real\l_array_string">
<polygon fill="white" stroke="black" points="346.5,-0.5 346.5,-30.5 438.5,-30.5 438.5,-0.5 346.5,-0.5"/>
<text text-anchor="start" x="354.5" y="-18.5" font-family="Helvetica,sans-Serif" font-size="10.00">mom_document::real</text>
<text text-anchor="middle" x="392.5" y="-7.5" font-family="Helvetica,sans-Serif" font-size="10.00">_array_string</text>
</a>
</g>
</g>
<!-- Node241&#45;&gt;Node244 -->
<g id="edge4" class="edge"><title>Node241&#45;&gt;Node244</title>
<path fill="none" stroke="midnightblue" d="M298.082,-43.1794C314.001,-38.4626 331.182,-33.3719 346.416,-28.8582"/>
<polygon fill="midnightblue" stroke="midnightblue" points="296.955,-39.8627 288.362,-46.0595 298.944,-46.5743 296.955,-39.8627"/>
</g>
<!-- Node244&#45;&gt;Node243 -->
<g id="edge5" class="edge"><title>Node244&#45;&gt;Node243</title>
<path fill="none" stroke="midnightblue" d="M448.628,-22.9865C464.202,-25.1015 481.203,-27.4102 496.97,-29.5514"/>
<polygon fill="midnightblue" stroke="midnightblue" points="449.006,-19.5058 438.626,-21.6282 448.064,-26.4422 449.006,-19.5058"/>
</g>
</g>
</svg>
        <g id="navigator" transform="translate(0 0)" fill="#404254">
                <rect fill="#f2f5e9" fill-opacity="0.5" stroke="#606060" stroke-width=".5" x="0" y="0" width="60" height="60"/>
                <use id="zoomplus" xlink:href="#zoomPlus" x="17" y="9" onmousedown="handleZoom(evt,'in')"/>
                <use id="zoomminus" xlink:href="#zoomMin" x="42" y="9" onmousedown="handleZoom(evt,'out')"/>
                <use id="reset" xlink:href="#resetDef" x="30" y="36" onmousedown="handleReset()"/>
                <g id="arrowUp" xlink:href="#dirArrow" transform="translate(30 24)" onmousedown="handlePan(0,-1)">
                  <use xlink:href="#rim" fill="#404040">
                        <set attributeName="fill" to="#808080" begin="arrowUp.mouseover" end="arrowUp.mouseout"/>
                  </use>
                  <path fill="none" stroke="white" stroke-width="1.5" d="M0,-3.0v7 M-2.5,-0.5L0,-3.0L2.5,-0.5"/>
                </g>
                <g id="arrowRight" xlink:href="#dirArrow" transform="rotate(90) translate(36 -43)" onmousedown="handlePan(1,0)">
                  <use xlink:href="#rim" fill="#404040">
                        <set attributeName="fill" to="#808080" begin="arrowRight.mouseover" end="arrowRight.mouseout"/>
                  </use>
                  <path fill="none" stroke="white" stroke-width="1.5" d="M0,-3.0v7 M-2.5,-0.5L0,-3.0L2.5,-0.5"/>
                </g>
                <g id="arrowDown" xlink:href="#dirArrow" transform="rotate(180) translate(-30 -48)" onmousedown="handlePan(0,1)">
                  <use xlink:href="#rim" fill="#404040">
                        <set attributeName="fill" to="#808080" begin="arrowDown.mouseover" end="arrowDown.mouseout"/>
                  </use>
                  <path fill="none" stroke="white" stroke-width="1.5" d="M0,-3.0v7 M-2.5,-0.5L0,-3.0L2.5,-0.5"/>
                </g>
                <g id="arrowLeft" xlink:href="#dirArrow" transform="rotate(270) translate(-36 17)" onmousedown="handlePan(-1,0)">
                  <use xlink:href="#rim" fill="#404040">
                        <set attributeName="fill" to="#808080" begin="arrowLeft.mouseover" end="arrowLeft.mouseout"/>
                  </use>
                  <path fill="none" stroke="white" stroke-width="1.5" d="M0,-3.0v7 M-2.5,-0.5L0,-3.0L2.5,-0.5"/>
                </g>
        </g>
        <svg viewBox="0 0 15 15" width="100%" height="30px" preserveAspectRatio="xMaxYMin meet">
         <g id="arrow_out" transform="scale(0.3 0.3)">
          <a xlink:href="namespacemom__document_acbd7bf94c8e359a48ace95fe1f3d3bb4_icgraph_org.svg" target="_base">
           <rect id="button" ry="5" rx="5" y="6" x="6" height="38" width="38"
                fill="#f2f5e9" fill-opacity="0.5" stroke="#606060" stroke-width="1.0"/>
           <path id="arrow"
             d="M 11.500037,31.436501 C 11.940474,20.09759 22.043105,11.32322 32.158766,21.979434 L 37.068811,17.246167 C 37.068811,17.246167 37.088388,32 37.088388,32 L 22.160133,31.978069 C 22.160133,31.978069 26.997745,27.140456 26.997745,27.140456 C 18.528582,18.264221 13.291696,25.230495 11.500037,31.436501 z"
             style="fill:#404040;"/>
          </a>
         </g>
        </svg>
</svg>
