<?xml version="1.0" encoding="UTF-8" standalone="no"?>
<!DOCTYPE svg PUBLIC "-//W3C//DTD SVG 1.1//EN"
 "http://www.w3.org/Graphics/SVG/1.1/DTD/svg11.dtd">
<!-- Generated by graphviz version 2.38.0 (20140413.2041)
 -->
<!-- Title: mom_document::doc_param_int Pages: 1 -->
<!--zoomable 242 -->
<svg id="main" version="1.1" xmlns="http://www.w3.org/2000/svg" xmlns:xlink="http://www.w3.org/1999/xlink" xml:space="preserve" onload="init(evt)">
<style type="text/css"><![CDATA[
.edge:hover path { stroke: red; }
.edge:hover polygon { stroke: red; fill: red; }
]]></style>
<script type="text/javascript"><![CDATA[
var edges = document.getElementsByTagName('g');
if (edges && edges.length) {
  for (var i=0;i<edges.length;i++) {
    if (edges[i].id.substr(0,4)=='edge') {
      edges[i].setAttribute('class','edge');
    }
  }
}
]]></script>
        <defs>
                <circle id="rim" cx="0" cy="0" r="7"/>
                <circle id="rim2" cx="0" cy="0" r="3.5"/>
                <g id="zoomPlus">
                        <use xlink:href="#rim" fill="#404040">
                                <set attributeName="fill" to="#808080" begin="zoomplus.mouseover" end="zoomplus.mouseout"/>
                        </use>
                        <path d="M-4,0h8M0,-4v8" fill="none" stroke="white" stroke-width="1.5" pointer-events="none"/>
                </g>
                <g id="zoomMin">
                        <use xlink:href="#rim" fill="#404040">
                                <set attributeName="fill" to="#808080" begin="zoomminus.mouseover" end="zoomminus.mouseout"/>
                        </use>
                        <path d="M-4,0h8" fill="none" stroke="white" stroke-width="1.5" pointer-events="none"/>
                </g>
                <g id="dirArrow">
                        <path fill="none" stroke="white" stroke-width="1.5" d="M0,-3.0v7 M-2.5,-0.5L0,-3.0L2.5,-0.5"/>
                </g>
               <g id="resetDef">
                       <use xlink:href="#rim2" fill="#404040">
                               <set attributeName="fill" to="#808080" begin="reset.mouseover" end="reset.mouseout"/>
                       </use>
               </g>
        </defs>

<script type="text/javascript">
var viewWidth = 801;
var viewHeight = 242;
var sectionId = 'dynsection-8';
</script>
<script xlink:href="../../svgpan.js"/>
<svg id="graph" class="graph">
<g id="viewport">
<title>mom_document::doc_param_int</title>
<polygon fill="white" stroke="none" points="-4,4 -4,-237.5 797,-237.5 797,4 -4,4"/>
<!-- Node65 -->
<g id="node1" class="node"><title>Node65</title>
<polygon fill="#bfbfbf" stroke="black" points="0,-107.5 0,-126.5 132,-126.5 132,-107.5 0,-107.5"/>
<text text-anchor="middle" x="66" y="-114.5" font-family="Helvetica,sans-Serif" font-size="10.00">mom_document::doc_param_int</text>
</g>
<!-- Node66 -->
<g id="node2" class="node"><title>Node66</title>
<g id="a_node2"><a xlink:href="../../d5/d38/namespacemom__document.html#aadc9c21a3f71a85107454b8080d6ec5c" target="_top" xlink:title="mom_document::define\l_string">
<polygon fill="white" stroke="black" points="196.5,-203 196.5,-233 297.5,-233 297.5,-203 196.5,-203"/>
<text text-anchor="start" x="204.5" y="-221" font-family="Helvetica,sans-Serif" font-size="10.00">mom_document::define</text>
<text text-anchor="middle" x="247" y="-210" font-family="Helvetica,sans-Serif" font-size="10.00">_string</text>
</a>
</g>
</g>
<!-- Node65&#45;&gt;Node66 -->
<g id="edge1" class="edge"><title>Node65&#45;&gt;Node66</title>
<path fill="none" stroke="midnightblue" d="M77.3942,-126.731C94.8592,-142.619 131.751,-174.238 168,-193 173.939,-196.074 180.329,-198.863 186.803,-201.367"/>
<polygon fill="midnightblue" stroke="midnightblue" points="185.712,-204.694 196.306,-204.832 188.11,-198.118 185.712,-204.694"/>
</g>
<!-- Node67 -->
<g id="node3" class="node"><title>Node67</title>
<g id="a_node3"><a xlink:href="../../d5/d38/namespacemom__document.html#a546c1393f07adc49a43fe5f6af171730" target="_top" xlink:title="mom_document::int_string">
<polygon fill="white" stroke="black" points="191.5,-164.5 191.5,-183.5 302.5,-183.5 302.5,-164.5 191.5,-164.5"/>
<text text-anchor="middle" x="247" y="-171.5" font-family="Helvetica,sans-Serif" font-size="10.00">mom_document::int_string</text>
</a>
</g>
</g>
<!-- Node65&#45;&gt;Node67 -->
<g id="edge2" class="edge"><title>Node65&#45;&gt;Node67</title>
<path fill="none" stroke="midnightblue" d="M95.6906,-126.52C115.883,-133.185 143.559,-142.248 168,-150 179.922,-153.782 192.898,-157.809 204.782,-161.463"/>
<polygon fill="midnightblue" stroke="midnightblue" points="203.875,-164.846 214.461,-164.431 205.927,-158.153 203.875,-164.846"/>
</g>
<!-- Node68 -->
<g id="node4" class="node"><title>Node68</title>
<g id="a_node4"><a xlink:href="../../d0/de6/namespacemom__error__handler.html#ad5f00a53059c72fe2332d1436c80ca71" target="_top" xlink:title="mom_error_handler::\lis_root_pe">
<polygon fill="white" stroke="black" points="700,-99 700,-129 793,-129 793,-99 700,-99"/>
<text text-anchor="start" x="708" y="-117" font-family="Helvetica,sans-Serif" font-size="10.00">mom_error_handler::</text>
<text text-anchor="middle" x="746.5" y="-106" font-family="Helvetica,sans-Serif" font-size="10.00">is_root_pe</text>
</a>
</g>
</g>
<!-- Node65&#45;&gt;Node68 -->
<g id="edge3" class="edge"><title>Node65&#45;&gt;Node68</title>
<path fill="none" stroke="midnightblue" d="M132.18,-120.701C144.092,-121.242 156.416,-121.713 168,-122 359.399,-126.735 586.556,-119.956 689.65,-116.205"/>
<polygon fill="midnightblue" stroke="midnightblue" points="689.962,-119.696 699.827,-115.83 689.704,-112.7 689.962,-119.696"/>
</g>
<!-- Node69 -->
<g id="node5" class="node"><title>Node69</title>
<g id="a_node5"><a xlink:href="../../d5/d38/namespacemom__document.html#aa23ed2e58e74e88a71de374685ee11ec" target="_top" xlink:title="mom_document::mesghasbeendocumented">
<polygon fill="white" stroke="black" points="362,-88.5 362,-107.5 535,-107.5 535,-88.5 362,-88.5"/>
<text text-anchor="middle" x="448.5" y="-95.5" font-family="Helvetica,sans-Serif" font-size="10.00">mom_document::mesghasbeendocumented</text>
</a>
</g>
</g>
<!-- Node65&#45;&gt;Node69 -->
<g id="edge4" class="edge"><title>Node65&#45;&gt;Node69</title>
<path fill="none" stroke="midnightblue" d="M132.41,-113.734C192.739,-110.721 283.053,-106.212 351.545,-102.791"/>
<polygon fill="midnightblue" stroke="midnightblue" points="352.1,-106.268 361.913,-102.274 351.751,-99.2769 352.1,-106.268"/>
</g>
<!-- Node71 -->
<g id="node7" class="node"><title>Node71</title>
<g id="a_node7"><a xlink:href="../../d5/d38/namespacemom__document.html#aab976b6c6c9c01833438d217fca228a4" target="_top" xlink:title="mom_document::open\l_doc_file">
<polygon fill="white" stroke="black" points="198.5,-39 198.5,-69 295.5,-69 295.5,-39 198.5,-39"/>
<text text-anchor="start" x="206.5" y="-57" font-family="Helvetica,sans-Serif" font-size="10.00">mom_document::open</text>
<text text-anchor="middle" x="247" y="-46" font-family="Helvetica,sans-Serif" font-size="10.00">_doc_file</text>
</a>
</g>
</g>
<!-- Node65&#45;&gt;Node71 -->
<g id="edge7" class="edge"><title>Node65&#45;&gt;Node71</title>
<path fill="none" stroke="midnightblue" d="M94.1862,-107.432C120.422,-98.198 160.839,-83.9729 193.376,-72.5213"/>
<polygon fill="midnightblue" stroke="midnightblue" points="194.925,-75.6865 203.196,-69.065 192.601,-69.0835 194.925,-75.6865"/>
</g>
<!-- Node73 -->
<g id="node9" class="node"><title>Node73</title>
<g id="a_node9"><a xlink:href="../../d5/d38/namespacemom__document.html#a22d84550b1affd1037328c5117496a65" target="_top" xlink:title="mom_document::writemessageanddesc">
<polygon fill="white" stroke="black" points="168,-0.5 168,-19.5 326,-19.5 326,-0.5 168,-0.5"/>
<text text-anchor="middle" x="247" y="-7.5" font-family="Helvetica,sans-Serif" font-size="10.00">mom_document::writemessageanddesc</text>
</a>
</g>
</g>
<!-- Node65&#45;&gt;Node73 -->
<g id="edge11" class="edge"><title>Node65&#45;&gt;Node73</title>
<path fill="none" stroke="midnightblue" d="M75.098,-107.385C90.9765,-89.1761 128.142,-49.6408 168,-29 172.525,-26.6566 177.349,-24.595 182.293,-22.7826"/>
<polygon fill="midnightblue" stroke="midnightblue" points="183.514,-26.0652 191.904,-19.5955 181.311,-19.421 183.514,-26.0652"/>
</g>
<!-- Node70 -->
<g id="node6" class="node"><title>Node70</title>
<g id="a_node6"><a xlink:href="../../d0/de6/namespacemom__error__handler.html#a460cfb79a06c29fc249952c2a3710d67" target="_top" xlink:title="mom_error_handler::\lmom_error">
<polygon fill="white" stroke="black" points="571,-61 571,-91 664,-91 664,-61 571,-61"/>
<text text-anchor="start" x="579" y="-79" font-family="Helvetica,sans-Serif" font-size="10.00">mom_error_handler::</text>
<text text-anchor="middle" x="617.5" y="-68" font-family="Helvetica,sans-Serif" font-size="10.00">mom_error</text>
</a>
</g>
</g>
<!-- Node69&#45;&gt;Node70 -->
<g id="edge5" class="edge"><title>Node69&#45;&gt;Node70</title>
<path fill="none" stroke="midnightblue" d="M521.777,-88.4784C534.725,-86.7728 548.039,-85.0189 560.443,-83.3847"/>
<polygon fill="midnightblue" stroke="midnightblue" points="561.164,-86.8201 570.621,-82.0439 560.25,-79.88 561.164,-86.8201"/>
</g>
<!-- Node70&#45;&gt;Node68 -->
<g id="edge6" class="edge"><title>Node70&#45;&gt;Node68</title>
<path fill="none" stroke="midnightblue" d="M664.35,-89.7189C672.713,-92.2211 681.519,-94.8561 690.123,-97.4306"/>
<polygon fill="midnightblue" stroke="midnightblue" points="689.134,-100.788 699.717,-100.301 691.14,-94.0815 689.134,-100.788"/>
</g>
<!-- Node71&#45;&gt;Node70 -->
<g id="edge10" class="edge"><title>Node71&#45;&gt;Node70</title>
<path fill="none" stroke="midnightblue" d="M295.797,-56.8536C363.824,-60.9149 488.309,-68.3468 560.548,-72.6596"/>
<polygon fill="midnightblue" stroke="midnightblue" points="560.623,-76.1702 570.814,-73.2725 561.04,-69.1826 560.623,-76.1702"/>
</g>
<!-- Node72 -->
<g id="node8" class="node"><title>Node72</title>
<g id="a_node8"><a xlink:href="../../d5/d38/namespacemom__document.html#a5f2661445a72a7d0f774677e91366db5" target="_top" xlink:title="mom_document::find\l_unused_unit_number">
<polygon fill="white" stroke="black" points="400,-1 400,-31 497,-31 497,-1 400,-1"/>
<text text-anchor="start" x="408" y="-19" font-family="Helvetica,sans-Serif" font-size="10.00">mom_document::find</text>
<text text-anchor="middle" x="448.5" y="-8" font-family="Helvetica,sans-Serif" font-size="10.00">_unused_unit_number</text>
</a>
</g>
</g>
<!-- Node71&#45;&gt;Node72 -->
<g id="edge8" class="edge"><title>Node71&#45;&gt;Node72</title>
<path fill="none" stroke="midnightblue" d="M295.532,-44.9463C323.903,-39.5423 360.123,-32.6432 390.086,-26.936"/>
<polygon fill="midnightblue" stroke="midnightblue" points="390.819,-30.3595 399.987,-25.0501 389.509,-23.4831 390.819,-30.3595"/>
</g>
<!-- Node72&#45;&gt;Node70 -->
<g id="edge9" class="edge"><title>Node72&#45;&gt;Node70</title>
<path fill="none" stroke="midnightblue" d="M493.042,-31.1337C506.508,-35.8529 521.381,-41.1043 535,-46 545.211,-49.6706 556.123,-53.6484 566.533,-57.4705"/>
<polygon fill="midnightblue" stroke="midnightblue" points="565.325,-60.7554 575.918,-60.9236 567.742,-54.1859 565.325,-60.7554"/>
</g>
</g>
</svg>
        <g id="navigator" transform="translate(0 0)" fill="#404254">
                <rect fill="#f2f5e9" fill-opacity="0.5" stroke="#606060" stroke-width=".5" x="0" y="0" width="60" height="60"/>
                <use id="zoomplus" xlink:href="#zoomPlus" x="17" y="9" onmousedown="handleZoom(evt,'in')"/>
                <use id="zoomminus" xlink:href="#zoomMin" x="42" y="9" onmousedown="handleZoom(evt,'out')"/>
                <use id="reset" xlink:href="#resetDef" x="30" y="36" onmousedown="handleReset()"/>
                <g id="arrowUp" xlink:href="#dirArrow" transform="translate(30 24)" onmousedown="handlePan(0,-1)">
                  <use xlink:href="#rim" fill="#404040">
                        <set attributeName="fill" to="#808080" begin="arrowUp.mouseover" end="arrowUp.mouseout"/>
                  </use>
                  <path fill="none" stroke="white" stroke-width="1.5" d="M0,-3.0v7 M-2.5,-0.5L0,-3.0L2.5,-0.5"/>
                </g>
                <g id="arrowRight" xlink:href="#dirArrow" transform="rotate(90) translate(36 -43)" onmousedown="handlePan(1,0)">
                  <use xlink:href="#rim" fill="#404040">
                        <set attributeName="fill" to="#808080" begin="arrowRight.mouseover" end="arrowRight.mouseout"/>
                  </use>
                  <path fill="none" stroke="white" stroke-width="1.5" d="M0,-3.0v7 M-2.5,-0.5L0,-3.0L2.5,-0.5"/>
                </g>
                <g id="arrowDown" xlink:href="#dirArrow" transform="rotate(180) translate(-30 -48)" onmousedown="handlePan(0,1)">
                  <use xlink:href="#rim" fill="#404040">
                        <set attributeName="fill" to="#808080" begin="arrowDown.mouseover" end="arrowDown.mouseout"/>
                  </use>
                  <path fill="none" stroke="white" stroke-width="1.5" d="M0,-3.0v7 M-2.5,-0.5L0,-3.0L2.5,-0.5"/>
                </g>
                <g id="arrowLeft" xlink:href="#dirArrow" transform="rotate(270) translate(-36 17)" onmousedown="handlePan(-1,0)">
                  <use xlink:href="#rim" fill="#404040">
                        <set attributeName="fill" to="#808080" begin="arrowLeft.mouseover" end="arrowLeft.mouseout"/>
                  </use>
                  <path fill="none" stroke="white" stroke-width="1.5" d="M0,-3.0v7 M-2.5,-0.5L0,-3.0L2.5,-0.5"/>
                </g>
        </g>
        <svg viewBox="0 0 15 15" width="100%" height="30px" preserveAspectRatio="xMaxYMin meet">
         <g id="arrow_out" transform="scale(0.3 0.3)">
          <a xlink:href="namespacemom__document_a14995c64ee277f19aa10b957431aa4c1_cgraph_org.svg" target="_base">
           <rect id="button" ry="5" rx="5" y="6" x="6" height="38" width="38"
                fill="#f2f5e9" fill-opacity="0.5" stroke="#606060" stroke-width="1.0"/>
           <path id="arrow"
             d="M 11.500037,31.436501 C 11.940474,20.09759 22.043105,11.32322 32.158766,21.979434 L 37.068811,17.246167 C 37.068811,17.246167 37.088388,32 37.088388,32 L 22.160133,31.978069 C 22.160133,31.978069 26.997745,27.140456 26.997745,27.140456 C 18.528582,18.264221 13.291696,25.230495 11.500037,31.436501 z"
             style="fill:#404040;"/>
          </a>
         </g>
        </svg>
</svg>
