<?xml version="1.0" encoding="UTF-8" standalone="no"?>
<!DOCTYPE svg PUBLIC "-//W3C//DTD SVG 1.1//EN"
 "http://www.w3.org/Graphics/SVG/1.1/DTD/svg11.dtd">
<!-- Generated by graphviz version 2.38.0 (20140413.2041)
 -->
<!-- Title: mom_document::doc_param_logical_array Pages: 1 -->
<svg width="788pt" height="204pt"
 viewBox="0.00 0.00 788.00 203.50" xmlns="http://www.w3.org/2000/svg" xmlns:xlink="http://www.w3.org/1999/xlink">
<g id="graph0" class="graph" transform="scale(1 1) rotate(0) translate(4 199.5)">
<title>mom_document::doc_param_logical_array</title>
<polygon fill="white" stroke="none" points="-4,4 -4,-199.5 784,-199.5 784,4 -4,4"/>
<!-- Node95 -->
<g id="node1" class="node"><title>Node95</title>
<polygon fill="#bfbfbf" stroke="black" points="0,-83 0,-113 119,-113 119,-83 0,-83"/>
<text text-anchor="start" x="8" y="-101" font-family="Helvetica,sans-Serif" font-size="10.00">mom_document::doc_param</text>
<text text-anchor="middle" x="59.5" y="-90" font-family="Helvetica,sans-Serif" font-size="10.00">_logical_array</text>
</g>
<!-- Node96 -->
<g id="node2" class="node"><title>Node96</title>
<g id="a_node2"><a xlink:href="../../d5/d38/namespacemom__document.html#aadc9c21a3f71a85107454b8080d6ec5c" target="_top" xlink:title="mom_document::define\l_string">
<polygon fill="white" stroke="black" points="183.5,-165 183.5,-195 284.5,-195 284.5,-165 183.5,-165"/>
<text text-anchor="start" x="191.5" y="-183" font-family="Helvetica,sans-Serif" font-size="10.00">mom_document::define</text>
<text text-anchor="middle" x="234" y="-172" font-family="Helvetica,sans-Serif" font-size="10.00">_string</text>
</a>
</g>
</g>
<!-- Node95&#45;&gt;Node96 -->
<g id="edge1" class="edge"><title>Node95&#45;&gt;Node96</title>
<path fill="none" stroke="midnightblue" d="M85.6837,-113.083C104.448,-124.018 130.887,-138.792 155,-150 163.406,-153.907 172.475,-157.733 181.351,-161.274"/>
<polygon fill="midnightblue" stroke="midnightblue" points="180.28,-164.613 190.868,-164.996 182.829,-158.094 180.28,-164.613"/>
</g>
<!-- Node97 -->
<g id="node3" class="node"><title>Node97</title>
<g id="a_node3"><a xlink:href="../../d0/de6/namespacemom__error__handler.html#ad5f00a53059c72fe2332d1436c80ca71" target="_top" xlink:title="mom_error_handler::\lis_root_pe">
<polygon fill="white" stroke="black" points="687,-99 687,-129 780,-129 780,-99 687,-99"/>
<text text-anchor="start" x="695" y="-117" font-family="Helvetica,sans-Serif" font-size="10.00">mom_error_handler::</text>
<text text-anchor="middle" x="733.5" y="-106" font-family="Helvetica,sans-Serif" font-size="10.00">is_root_pe</text>
</a>
</g>
</g>
<!-- Node95&#45;&gt;Node97 -->
<g id="edge2" class="edge"><title>Node95&#45;&gt;Node97</title>
<path fill="none" stroke="midnightblue" d="M119.098,-107.81C130.951,-109.476 143.351,-110.991 155,-112 345.726,-128.524 573.214,-121.511 676.52,-116.88"/>
<polygon fill="midnightblue" stroke="midnightblue" points="676.888,-120.367 686.717,-116.412 676.568,-113.374 676.888,-120.367"/>
</g>
<!-- Node98 -->
<g id="node4" class="node"><title>Node98</title>
<g id="a_node4"><a xlink:href="../../d5/d38/namespacemom__document.html#aa23ed2e58e74e88a71de374685ee11ec" target="_top" xlink:title="mom_document::mesghasbeendocumented">
<polygon fill="white" stroke="black" points="349,-88.5 349,-107.5 522,-107.5 522,-88.5 349,-88.5"/>
<text text-anchor="middle" x="435.5" y="-95.5" font-family="Helvetica,sans-Serif" font-size="10.00">mom_document::mesghasbeendocumented</text>
</a>
</g>
</g>
<!-- Node95&#45;&gt;Node98 -->
<g id="edge3" class="edge"><title>Node95&#45;&gt;Node98</title>
<path fill="none" stroke="midnightblue" d="M119.349,-98C178.169,-98 269.583,-98 338.84,-98"/>
<polygon fill="midnightblue" stroke="midnightblue" points="338.891,-101.5 348.891,-98 338.891,-94.5001 338.891,-101.5"/>
</g>
<!-- Node100 -->
<g id="node6" class="node"><title>Node100</title>
<g id="a_node6"><a xlink:href="../../d5/d38/namespacemom__document.html#aab976b6c6c9c01833438d217fca228a4" target="_top" xlink:title="mom_document::open\l_doc_file">
<polygon fill="white" stroke="black" points="185.5,-39 185.5,-69 282.5,-69 282.5,-39 185.5,-39"/>
<text text-anchor="start" x="193.5" y="-57" font-family="Helvetica,sans-Serif" font-size="10.00">mom_document::open</text>
<text text-anchor="middle" x="234" y="-46" font-family="Helvetica,sans-Serif" font-size="10.00">_doc_file</text>
</a>
</g>
</g>
<!-- Node95&#45;&gt;Node100 -->
<g id="edge6" class="edge"><title>Node95&#45;&gt;Node100</title>
<path fill="none" stroke="midnightblue" d="M119.382,-82.9808C137.5,-78.3595 157.414,-73.2799 175.441,-68.6816"/>
<polygon fill="midnightblue" stroke="midnightblue" points="176.414,-72.0456 185.239,-66.1825 174.684,-65.2628 176.414,-72.0456"/>
</g>
<!-- Node102 -->
<g id="node8" class="node"><title>Node102</title>
<g id="a_node8"><a xlink:href="../../d5/d38/namespacemom__document.html#a22d84550b1affd1037328c5117496a65" target="_top" xlink:title="mom_document::writemessageanddesc">
<polygon fill="white" stroke="black" points="155,-0.5 155,-19.5 313,-19.5 313,-0.5 155,-0.5"/>
<text text-anchor="middle" x="234" y="-7.5" font-family="Helvetica,sans-Serif" font-size="10.00">mom_document::writemessageanddesc</text>
</a>
</g>
</g>
<!-- Node95&#45;&gt;Node102 -->
<g id="edge10" class="edge"><title>Node95&#45;&gt;Node102</title>
<path fill="none" stroke="midnightblue" d="M76.9632,-82.82C94.8693,-67.1075 124.969,-42.948 155,-29 160.264,-26.5553 165.879,-24.4031 171.592,-22.5131"/>
<polygon fill="midnightblue" stroke="midnightblue" points="172.705,-25.833 181.253,-19.5744 170.668,-19.1359 172.705,-25.833"/>
</g>
<!-- Node99 -->
<g id="node5" class="node"><title>Node99</title>
<g id="a_node5"><a xlink:href="../../d0/de6/namespacemom__error__handler.html#a460cfb79a06c29fc249952c2a3710d67" target="_top" xlink:title="mom_error_handler::\lmom_error">
<polygon fill="white" stroke="black" points="558,-61 558,-91 651,-91 651,-61 558,-61"/>
<text text-anchor="start" x="566" y="-79" font-family="Helvetica,sans-Serif" font-size="10.00">mom_error_handler::</text>
<text text-anchor="middle" x="604.5" y="-68" font-family="Helvetica,sans-Serif" font-size="10.00">mom_error</text>
</a>
</g>
</g>
<!-- Node98&#45;&gt;Node99 -->
<g id="edge4" class="edge"><title>Node98&#45;&gt;Node99</title>
<path fill="none" stroke="midnightblue" d="M508.777,-88.4784C521.725,-86.7728 535.039,-85.0189 547.443,-83.3847"/>
<polygon fill="midnightblue" stroke="midnightblue" points="548.164,-86.8201 557.621,-82.0439 547.25,-79.88 548.164,-86.8201"/>
</g>
<!-- Node99&#45;&gt;Node97 -->
<g id="edge5" class="edge"><title>Node99&#45;&gt;Node97</title>
<path fill="none" stroke="midnightblue" d="M651.35,-89.7189C659.713,-92.2211 668.519,-94.8561 677.123,-97.4306"/>
<polygon fill="midnightblue" stroke="midnightblue" points="676.134,-100.788 686.717,-100.301 678.14,-94.0815 676.134,-100.788"/>
</g>
<!-- Node100&#45;&gt;Node99 -->
<g id="edge9" class="edge"><title>Node100&#45;&gt;Node99</title>
<path fill="none" stroke="midnightblue" d="M282.797,-56.8536C350.824,-60.9149 475.309,-68.3468 547.548,-72.6596"/>
<polygon fill="midnightblue" stroke="midnightblue" points="547.623,-76.1702 557.814,-73.2725 548.04,-69.1826 547.623,-76.1702"/>
</g>
<!-- Node101 -->
<g id="node7" class="node"><title>Node101</title>
<g id="a_node7"><a xlink:href="../../d5/d38/namespacemom__document.html#a5f2661445a72a7d0f774677e91366db5" target="_top" xlink:title="mom_document::find\l_unused_unit_number">
<polygon fill="white" stroke="black" points="387,-1 387,-31 484,-31 484,-1 387,-1"/>
<text text-anchor="start" x="395" y="-19" font-family="Helvetica,sans-Serif" font-size="10.00">mom_document::find</text>
<text text-anchor="middle" x="435.5" y="-8" font-family="Helvetica,sans-Serif" font-size="10.00">_unused_unit_number</text>
</a>
</g>
</g>
<!-- Node100&#45;&gt;Node101 -->
<g id="edge7" class="edge"><title>Node100&#45;&gt;Node101</title>
<path fill="none" stroke="midnightblue" d="M282.532,-44.9463C310.903,-39.5423 347.123,-32.6432 377.086,-26.936"/>
<polygon fill="midnightblue" stroke="midnightblue" points="377.819,-30.3595 386.987,-25.0501 376.509,-23.4831 377.819,-30.3595"/>
</g>
<!-- Node101&#45;&gt;Node99 -->
<g id="edge8" class="edge"><title>Node101&#45;&gt;Node99</title>
<path fill="none" stroke="midnightblue" d="M480.042,-31.1337C493.508,-35.8529 508.381,-41.1043 522,-46 532.211,-49.6706 543.123,-53.6484 553.533,-57.4705"/>
<polygon fill="midnightblue" stroke="midnightblue" points="552.325,-60.7554 562.918,-60.9236 554.742,-54.1859 552.325,-60.7554"/>
</g>
</g>
</svg>
