<?xml version="1.0" encoding="UTF-8" standalone="no"?>
<!DOCTYPE svg PUBLIC "-//W3C//DTD SVG 1.1//EN"
 "http://www.w3.org/Graphics/SVG/1.1/DTD/svg11.dtd">
<!-- Generated by graphviz version 2.38.0 (20140413.2041)
 -->
<!-- Title: mom_document::real_array_string Pages: 1 -->
<svg width="443pt" height="78pt"
 viewBox="0.00 0.00 443.00 77.50" xmlns="http://www.w3.org/2000/svg" xmlns:xlink="http://www.w3.org/1999/xlink">
<g id="graph0" class="graph" transform="scale(1 1) rotate(0) translate(4 73.5)">
<title>mom_document::real_array_string</title>
<polygon fill="white" stroke="none" points="-4,4 -4,-73.5 439,-73.5 439,4 -4,4"/>
<!-- Node227 -->
<g id="node1" class="node"><title>Node227</title>
<polygon fill="#bfbfbf" stroke="black" points="0,-22.5 0,-52.5 92,-52.5 92,-22.5 0,-22.5"/>
<text text-anchor="start" x="8" y="-40.5" font-family="Helvetica,sans-Serif" font-size="10.00">mom_document::real</text>
<text text-anchor="middle" x="46" y="-29.5" font-family="Helvetica,sans-Serif" font-size="10.00">_array_string</text>
</g>
<!-- Node228 -->
<g id="node2" class="node"><title>Node228</title>
<g id="a_node2"><a xlink:href="../../d5/d38/namespacemom__document.html#a546c1393f07adc49a43fe5f6af171730" target="_top" xlink:title="mom_document::int_string">
<polygon fill="white" stroke="black" points="128,-50 128,-69 239,-69 239,-50 128,-50"/>
<text text-anchor="middle" x="183.5" y="-57" font-family="Helvetica,sans-Serif" font-size="10.00">mom_document::int_string</text>
</a>
</g>
</g>
<!-- Node227&#45;&gt;Node228 -->
<g id="edge1" class="edge"><title>Node227&#45;&gt;Node228</title>
<path fill="none" stroke="midnightblue" d="M92.1195,-44.8257C100.309,-46.1553 108.997,-47.5659 117.622,-48.9664"/>
<polygon fill="midnightblue" stroke="midnightblue" points="117.254,-52.4524 127.686,-50.6003 118.376,-45.5428 117.254,-52.4524"/>
</g>
<!-- Node229 -->
<g id="node3" class="node"><title>Node229</title>
<g id="a_node3"><a xlink:href="../../d5/d38/namespacemom__document.html#a966b8926bf40ee436654a0048b2bf42a" target="_top" xlink:title="mom_document::real\l_string">
<polygon fill="white" stroke="black" points="137.5,-0.5 137.5,-30.5 229.5,-30.5 229.5,-0.5 137.5,-0.5"/>
<text text-anchor="start" x="145.5" y="-18.5" font-family="Helvetica,sans-Serif" font-size="10.00">mom_document::real</text>
<text text-anchor="middle" x="183.5" y="-7.5" font-family="Helvetica,sans-Serif" font-size="10.00">_string</text>
</a>
</g>
</g>
<!-- Node227&#45;&gt;Node229 -->
<g id="edge2" class="edge"><title>Node227&#45;&gt;Node229</title>
<path fill="none" stroke="midnightblue" d="M92.1195,-30.1743C103.314,-28.3568 115.439,-26.3881 127.064,-24.5006"/>
<polygon fill="midnightblue" stroke="midnightblue" points="127.806,-27.9262 137.115,-22.8687 126.684,-21.0167 127.806,-27.9262"/>
</g>
<!-- Node230 -->
<g id="node4" class="node"><title>Node230</title>
<g id="a_node4"><a xlink:href="../../d5/d38/namespacemom__document.html#acbd7bf94c8e359a48ace95fe1f3d3bb4" target="_top" xlink:title="mom_document::testformattedfloatisreal">
<polygon fill="white" stroke="black" points="275,-6 275,-25 435,-25 435,-6 275,-6"/>
<text text-anchor="middle" x="355" y="-13" font-family="Helvetica,sans-Serif" font-size="10.00">mom_document::testformattedfloatisreal</text>
</a>
</g>
</g>
<!-- Node229&#45;&gt;Node230 -->
<g id="edge3" class="edge"><title>Node229&#45;&gt;Node230</title>
<path fill="none" stroke="midnightblue" d="M229.923,-15.5C240.725,-15.5 252.623,-15.5 264.644,-15.5"/>
<polygon fill="midnightblue" stroke="midnightblue" points="264.75,-19.0001 274.75,-15.5 264.75,-12.0001 264.75,-19.0001"/>
</g>
</g>
</svg>
