<?xml version="1.0" encoding="UTF-8" standalone="no"?>
<!DOCTYPE svg PUBLIC "-//W3C//DTD SVG 1.1//EN"
 "http://www.w3.org/Graphics/SVG/1.1/DTD/svg11.dtd">
<!-- Generated by graphviz version 2.38.0 (20140413.2041)
 -->
<!-- Title: mom_document::mesghasbeendocumented Pages: 1 -->
<svg width="359pt" height="378pt"
 viewBox="0.00 0.00 359.00 378.00" xmlns="http://www.w3.org/2000/svg" xmlns:xlink="http://www.w3.org/1999/xlink">
<g id="graph0" class="graph" transform="scale(1 1) rotate(0) translate(4 374)">
<title>mom_document::mesghasbeendocumented</title>
<polygon fill="white" stroke="none" points="-4,4 -4,-374 355,-374 355,4 -4,4"/>
<!-- Node189 -->
<g id="node1" class="node"><title>Node189</title>
<polygon fill="#bfbfbf" stroke="black" points="0,-170.5 0,-189.5 173,-189.5 173,-170.5 0,-170.5"/>
<text text-anchor="middle" x="86.5" y="-177.5" font-family="Helvetica,sans-Serif" font-size="10.00">mom_document::mesghasbeendocumented</text>
</g>
<!-- Node190 -->
<g id="node2" class="node"><title>Node190</title>
<g id="a_node2"><a xlink:href="../../d5/d38/namespacemom__document.html#aeef6510f5e76c23d9a9a9c587f62d4d9" target="_top" xlink:title="mom_document::doc_param_char">
<polygon fill="white" stroke="black" points="210,-350.5 210,-369.5 350,-369.5 350,-350.5 210,-350.5"/>
<text text-anchor="middle" x="280" y="-357.5" font-family="Helvetica,sans-Serif" font-size="10.00">mom_document::doc_param_char</text>
</a>
</g>
</g>
<!-- Node189&#45;&gt;Node190 -->
<g id="edge1" class="edge"><title>Node189&#45;&gt;Node190</title>
<path fill="none" stroke="midnightblue" d="M96.4899,-198.986C113.524,-232.862 153.798,-303.664 209,-341 214.737,-344.88 221.24,-347.97 227.915,-350.43"/>
<polygon fill="midnightblue" stroke="midnightblue" points="99.5011,-197.177 91.9589,-189.736 93.2148,-200.256 99.5011,-197.177"/>
</g>
<!-- Node191 -->
<g id="node3" class="node"><title>Node191</title>
<g id="a_node3"><a xlink:href="../../d5/d38/namespacemom__document.html#a14995c64ee277f19aa10b957431aa4c1" target="_top" xlink:title="mom_document::doc_param_int">
<polygon fill="white" stroke="black" points="214,-312.5 214,-331.5 346,-331.5 346,-312.5 214,-312.5"/>
<text text-anchor="middle" x="280" y="-319.5" font-family="Helvetica,sans-Serif" font-size="10.00">mom_document::doc_param_int</text>
</a>
</g>
</g>
<!-- Node189&#45;&gt;Node191 -->
<g id="edge2" class="edge"><title>Node189&#45;&gt;Node191</title>
<path fill="none" stroke="midnightblue" d="M100.134,-197.819C120.139,-224.7 161.72,-275.406 209,-303 215.634,-306.872 223.081,-309.977 230.577,-312.462"/>
<polygon fill="midnightblue" stroke="midnightblue" points="102.921,-195.7 94.2,-189.684 97.2656,-199.825 102.921,-195.7"/>
</g>
<!-- Node192 -->
<g id="node4" class="node"><title>Node192</title>
<g id="a_node4"><a xlink:href="../../d5/d38/namespacemom__document.html#a3ce71018037d66ba8f51d860bedbdcbb" target="_top" xlink:title="mom_document::doc_param\l_int_array">
<polygon fill="white" stroke="black" points="220.5,-263 220.5,-293 339.5,-293 339.5,-263 220.5,-263"/>
<text text-anchor="start" x="228.5" y="-281" font-family="Helvetica,sans-Serif" font-size="10.00">mom_document::doc_param</text>
<text text-anchor="middle" x="280" y="-270" font-family="Helvetica,sans-Serif" font-size="10.00">_int_array</text>
</a>
</g>
</g>
<!-- Node189&#45;&gt;Node192 -->
<g id="edge3" class="edge"><title>Node189&#45;&gt;Node192</title>
<path fill="none" stroke="midnightblue" d="M109.456,-195.386C133.187,-211.527 172.519,-236.884 209,-254 215.862,-257.219 223.279,-260.23 230.631,-262.956"/>
<polygon fill="midnightblue" stroke="midnightblue" points="111.387,-192.467 101.163,-189.687 107.423,-198.236 111.387,-192.467"/>
</g>
<!-- Node193 -->
<g id="node5" class="node"><title>Node193</title>
<g id="a_node5"><a xlink:href="../../d5/d38/namespacemom__document.html#ae29b615a7c566d9da64ade24864805b2" target="_top" xlink:title="mom_document::doc_param\l_logical">
<polygon fill="white" stroke="black" points="220.5,-214 220.5,-244 339.5,-244 339.5,-214 220.5,-214"/>
<text text-anchor="start" x="228.5" y="-232" font-family="Helvetica,sans-Serif" font-size="10.00">mom_document::doc_param</text>
<text text-anchor="middle" x="280" y="-221" font-family="Helvetica,sans-Serif" font-size="10.00">_logical</text>
</a>
</g>
</g>
<!-- Node189&#45;&gt;Node193 -->
<g id="edge4" class="edge"><title>Node189&#45;&gt;Node193</title>
<path fill="none" stroke="midnightblue" d="M134.796,-192.102C160.614,-198.708 192.814,-206.947 220.233,-213.963"/>
<polygon fill="midnightblue" stroke="midnightblue" points="135.433,-188.652 124.878,-189.564 133.698,-195.434 135.433,-188.652"/>
</g>
<!-- Node194 -->
<g id="node6" class="node"><title>Node194</title>
<g id="a_node6"><a xlink:href="../../d5/d38/namespacemom__document.html#a9792937a5eb8f9a2a58c7b816520470d" target="_top" xlink:title="mom_document::doc_param\l_logical_array">
<polygon fill="white" stroke="black" points="220.5,-165 220.5,-195 339.5,-195 339.5,-165 220.5,-165"/>
<text text-anchor="start" x="228.5" y="-183" font-family="Helvetica,sans-Serif" font-size="10.00">mom_document::doc_param</text>
<text text-anchor="middle" x="280" y="-172" font-family="Helvetica,sans-Serif" font-size="10.00">_logical_array</text>
</a>
</g>
</g>
<!-- Node189&#45;&gt;Node194 -->
<g id="edge5" class="edge"><title>Node189&#45;&gt;Node194</title>
<path fill="none" stroke="midnightblue" d="M183.285,-180C195.92,-180 208.554,-180 220.308,-180"/>
<polygon fill="midnightblue" stroke="midnightblue" points="183.168,-176.5 173.168,-180 183.168,-183.5 183.168,-176.5"/>
</g>
<!-- Node195 -->
<g id="node7" class="node"><title>Node195</title>
<g id="a_node7"><a xlink:href="../../d5/d38/namespacemom__document.html#ab6438889d6e98b10d8c42d5ff6b00ef8" target="_top" xlink:title="mom_document::doc_param_none">
<polygon fill="white" stroke="black" points="209,-126.5 209,-145.5 351,-145.5 351,-126.5 209,-126.5"/>
<text text-anchor="middle" x="280" y="-133.5" font-family="Helvetica,sans-Serif" font-size="10.00">mom_document::doc_param_none</text>
</a>
</g>
</g>
<!-- Node189&#45;&gt;Node195 -->
<g id="edge6" class="edge"><title>Node189&#45;&gt;Node195</title>
<path fill="none" stroke="midnightblue" d="M139.19,-168.124C170.037,-161.036 208.688,-152.155 237.528,-145.529"/>
<polygon fill="midnightblue" stroke="midnightblue" points="138.015,-164.802 129.053,-170.453 139.582,-171.624 138.015,-164.802"/>
</g>
<!-- Node196 -->
<g id="node8" class="node"><title>Node196</title>
<g id="a_node8"><a xlink:href="../../d5/d38/namespacemom__document.html#aae79ba23b83e7e2be3dcc46f50ee0f69" target="_top" xlink:title="mom_document::doc_param_real">
<polygon fill="white" stroke="black" points="211.5,-88.5 211.5,-107.5 348.5,-107.5 348.5,-88.5 211.5,-88.5"/>
<text text-anchor="middle" x="280" y="-95.5" font-family="Helvetica,sans-Serif" font-size="10.00">mom_document::doc_param_real</text>
</a>
</g>
</g>
<!-- Node189&#45;&gt;Node196 -->
<g id="edge7" class="edge"><title>Node189&#45;&gt;Node196</title>
<path fill="none" stroke="midnightblue" d="M112.299,-165.138C136.352,-151.211 174.212,-130.561 209,-117 218.269,-113.387 228.483,-110.194 238.177,-107.507"/>
<polygon fill="midnightblue" stroke="midnightblue" points="110.351,-162.223 103.49,-170.296 113.888,-168.264 110.351,-162.223"/>
</g>
<!-- Node197 -->
<g id="node9" class="node"><title>Node197</title>
<g id="a_node9"><a xlink:href="../../d5/d38/namespacemom__document.html#a09ce71cb5106c9abb604c07b98e62863" target="_top" xlink:title="mom_document::doc_param\l_real_array">
<polygon fill="white" stroke="black" points="220.5,-39 220.5,-69 339.5,-69 339.5,-39 220.5,-39"/>
<text text-anchor="start" x="228.5" y="-57" font-family="Helvetica,sans-Serif" font-size="10.00">mom_document::doc_param</text>
<text text-anchor="middle" x="280" y="-46" font-family="Helvetica,sans-Serif" font-size="10.00">_real_array</text>
</a>
</g>
</g>
<!-- Node189&#45;&gt;Node197 -->
<g id="edge8" class="edge"><title>Node189&#45;&gt;Node197</title>
<path fill="none" stroke="midnightblue" d="M103.936,-163.041C126.043,-141.053 167.405,-102.72 209,-79 215.502,-75.2922 222.651,-71.9813 229.819,-69.0777"/>
<polygon fill="midnightblue" stroke="midnightblue" points="101.251,-160.779 96.6977,-170.345 106.223,-165.706 101.251,-160.779"/>
</g>
<!-- Node198 -->
<g id="node10" class="node"><title>Node198</title>
<g id="a_node10"><a xlink:href="../../d5/d38/namespacemom__document.html#a88e4bef8326a973afec58f1cb66fdd0c" target="_top" xlink:title="mom_document::doc_param_time">
<polygon fill="white" stroke="black" points="210.5,-0.5 210.5,-19.5 349.5,-19.5 349.5,-0.5 210.5,-0.5"/>
<text text-anchor="middle" x="280" y="-7.5" font-family="Helvetica,sans-Serif" font-size="10.00">mom_document::doc_param_time</text>
</a>
</g>
</g>
<!-- Node189&#45;&gt;Node198 -->
<g id="edge9" class="edge"><title>Node189&#45;&gt;Node198</title>
<path fill="none" stroke="midnightblue" d="M97.6289,-161.067C115.689,-129.14 156.53,-64.6882 209,-30 215.537,-25.6784 223.013,-22.277 230.591,-19.6036"/>
<polygon fill="midnightblue" stroke="midnightblue" points="94.3496,-159.766 92.5798,-170.212 100.478,-163.149 94.3496,-159.766"/>
</g>
</g>
</svg>
