<?xml version="1.0" encoding="UTF-8" standalone="no"?>
<!DOCTYPE svg PUBLIC "-//W3C//DTD SVG 1.1//EN"
 "http://www.w3.org/Graphics/SVG/1.1/DTD/svg11.dtd">
<!-- Generated by graphviz version 2.38.0 (20140413.2041)
 -->
<!-- Title: mom_tracer_flow_control::tracer_flow_control_cs Pages: 1 -->
<!--zoomable 469 -->
<svg id="main" version="1.1" xmlns="http://www.w3.org/2000/svg" xmlns:xlink="http://www.w3.org/1999/xlink" xml:space="preserve" onload="init(evt)">
<style type="text/css"><![CDATA[
.edge:hover path { stroke: red; }
.edge:hover polygon { stroke: red; fill: red; }
]]></style>
<script type="text/javascript"><![CDATA[
var edges = document.getElementsByTagName('g');
if (edges && edges.length) {
  for (var i=0;i<edges.length;i++) {
    if (edges[i].id.substr(0,4)=='edge') {
      edges[i].setAttribute('class','edge');
    }
  }
}
]]></script>
        <defs>
                <circle id="rim" cx="0" cy="0" r="7"/>
                <circle id="rim2" cx="0" cy="0" r="3.5"/>
                <g id="zoomPlus">
                        <use xlink:href="#rim" fill="#404040">
                                <set attributeName="fill" to="#808080" begin="zoomplus.mouseover" end="zoomplus.mouseout"/>
                        </use>
                        <path d="M-4,0h8M0,-4v8" fill="none" stroke="white" stroke-width="1.5" pointer-events="none"/>
                </g>
                <g id="zoomMin">
                        <use xlink:href="#rim" fill="#404040">
                                <set attributeName="fill" to="#808080" begin="zoomminus.mouseover" end="zoomminus.mouseout"/>
                        </use>
                        <path d="M-4,0h8" fill="none" stroke="white" stroke-width="1.5" pointer-events="none"/>
                </g>
                <g id="dirArrow">
                        <path fill="none" stroke="white" stroke-width="1.5" d="M0,-3.0v7 M-2.5,-0.5L0,-3.0L2.5,-0.5"/>
                </g>
               <g id="resetDef">
                       <use xlink:href="#rim2" fill="#404040">
                               <set attributeName="fill" to="#808080" begin="reset.mouseover" end="reset.mouseout"/>
                       </use>
               </g>
        </defs>

<script type="text/javascript">
var viewWidth = 357;
var viewHeight = 469;
var sectionId = 'dynsection-0';
</script>
<script xlink:href="../../svgpan.js"/>
<svg id="graph" class="graph">
<g id="viewport">
<title>mom_tracer_flow_control::tracer_flow_control_cs</title>
<polygon fill="white" stroke="none" points="-4,4 -4,-464.5 353,-464.5 353,4 -4,4"/>
<!-- Node1 -->
<g id="node1" class="node"><title>Node1</title>
<polygon fill="#bfbfbf" stroke="black" points="242,-171.5 242,-201.5 349,-201.5 349,-171.5 242,-171.5"/>
<text text-anchor="start" x="250" y="-189.5" font-family="Helvetica,sans-Serif" font-size="10.00">mom_tracer_flow_control</text>
<text text-anchor="middle" x="295.5" y="-178.5" font-family="Helvetica,sans-Serif" font-size="10.00">::tracer_flow_control_cs</text>
</g>
<!-- Node2 -->
<g id="node2" class="node"><title>Node2</title>
<polygon fill="white" stroke="#bfbfbf" points="7.5,-428.5 7.5,-458.5 102.5,-458.5 102.5,-428.5 7.5,-428.5"/>
<text text-anchor="start" x="15.5" y="-446.5" font-family="Helvetica,sans-Serif" font-size="10.00">type(ideal_age_tracer</text>
<text text-anchor="middle" x="55" y="-435.5" font-family="Helvetica,sans-Serif" font-size="10.00">_cs), pointer</text>
</g>
<!-- Node2&#45;&gt;Node1 -->
<g id="edge1" class="edge"><title>Node2&#45;&gt;Node1</title>
<path fill="none" stroke="#9a32cd" stroke-dasharray="5,2" d="M113.127,-449.854C148.951,-450.644 193.888,-445.353 224,-419.5 290.857,-362.1 295.575,-243.642 295.024,-201.66"/>
<polygon fill="#9a32cd" stroke="#9a32cd" points="112.935,-446.344 102.808,-449.456 112.666,-453.339 112.935,-446.344"/>
<text text-anchor="middle" x="176" y="-452.5" font-family="Helvetica,sans-Serif" font-size="10.00"> ideal_age_tracer_csp</text>
</g>
<!-- Node3 -->
<g id="node3" class="node"><title>Node3</title>
<polygon fill="white" stroke="#bfbfbf" points="36,-295 36,-314 74,-314 74,-295 36,-295"/>
<text text-anchor="middle" x="55" y="-302" font-family="Helvetica,sans-Serif" font-size="10.00">logical</text>
</g>
<!-- Node3&#45;&gt;Node1 -->
<g id="edge2" class="edge"><title>Node3&#45;&gt;Node1</title>
<path fill="none" stroke="#9a32cd" stroke-dasharray="5,2" d="M84.1275,-301.887C119.035,-297.618 179.401,-286.805 224,-260.5 249.524,-245.446 271.749,-218.542 284.117,-201.655"/>
<polygon fill="#9a32cd" stroke="#9a32cd" points="83.7017,-298.412 74.157,-303.011 84.4863,-305.368 83.7017,-298.412"/>
<text text-anchor="middle" x="176" y="-407.5" font-family="Helvetica,sans-Serif" font-size="10.00"> use_ocmip2_cfc</text>
<text text-anchor="middle" x="176" y="-396.5" font-family="Helvetica,sans-Serif" font-size="10.00">use_oil</text>
<text text-anchor="middle" x="176" y="-385.5" font-family="Helvetica,sans-Serif" font-size="10.00">use_regional_dyes</text>
<text text-anchor="start" x="141.5" y="-374.5" font-family="Helvetica,sans-Serif" font-size="10.00">use_user_tracer</text>
<text text-anchor="middle" x="176" y="-363.5" font-family="Helvetica,sans-Serif" font-size="10.00">_example</text>
<text text-anchor="start" x="141.5" y="-352.5" font-family="Helvetica,sans-Serif" font-size="10.00">use_advection_test</text>
<text text-anchor="middle" x="176" y="-341.5" font-family="Helvetica,sans-Serif" font-size="10.00">_tracer</text>
<text text-anchor="start" x="141.5" y="-330.5" font-family="Helvetica,sans-Serif" font-size="10.00">use_mom_generic</text>
<text text-anchor="middle" x="176" y="-319.5" font-family="Helvetica,sans-Serif" font-size="10.00">_tracer</text>
<text text-anchor="middle" x="176" y="-308.5" font-family="Helvetica,sans-Serif" font-size="10.00">use_dome_tracer</text>
<text text-anchor="middle" x="176" y="-297.5" font-family="Helvetica,sans-Serif" font-size="10.00">use_ideal_age</text>
</g>
<!-- Node4 -->
<g id="node4" class="node"><title>Node4</title>
<polygon fill="white" stroke="#bfbfbf" points="13.5,-245.5 13.5,-275.5 96.5,-275.5 96.5,-245.5 13.5,-245.5"/>
<text text-anchor="start" x="21.5" y="-263.5" font-family="Helvetica,sans-Serif" font-size="10.00">type(oil_tracer_cs)</text>
<text text-anchor="middle" x="55" y="-252.5" font-family="Helvetica,sans-Serif" font-size="10.00">, pointer</text>
</g>
<!-- Node4&#45;&gt;Node1 -->
<g id="edge3" class="edge"><title>Node4&#45;&gt;Node1</title>
<path fill="none" stroke="#9a32cd" stroke-dasharray="5,2" d="M106.733,-250.331C140.433,-242.965 185.41,-231.957 224,-218.5 237.58,-213.764 252.124,-207.397 264.454,-201.589"/>
<polygon fill="#9a32cd" stroke="#9a32cd" points="105.696,-246.974 96.6554,-252.498 107.168,-253.817 105.696,-246.974"/>
<text text-anchor="middle" x="176" y="-248.5" font-family="Helvetica,sans-Serif" font-size="10.00"> oil_tracer_csp</text>
</g>
<!-- Node5 -->
<g id="node5" class="node"><title>Node5</title>
<polygon fill="white" stroke="#bfbfbf" points="0,-196.5 0,-226.5 110,-226.5 110,-196.5 0,-196.5"/>
<text text-anchor="start" x="8" y="-214.5" font-family="Helvetica,sans-Serif" font-size="10.00">type(user_tracer_example</text>
<text text-anchor="middle" x="55" y="-203.5" font-family="Helvetica,sans-Serif" font-size="10.00">_cs), pointer</text>
</g>
<!-- Node5&#45;&gt;Node1 -->
<g id="edge4" class="edge"><title>Node5&#45;&gt;Node1</title>
<path fill="none" stroke="#9a32cd" stroke-dasharray="5,2" d="M120.088,-204.782C158.19,-200.788 205.93,-195.784 241.826,-192.021"/>
<polygon fill="#9a32cd" stroke="#9a32cd" points="119.7,-201.304 110.119,-205.827 120.43,-208.265 119.7,-201.304"/>
<text text-anchor="middle" x="176" y="-206.5" font-family="Helvetica,sans-Serif" font-size="10.00"> user_tracer_example_csp</text>
</g>
<!-- Node6 -->
<g id="node6" class="node"><title>Node6</title>
<polygon fill="white" stroke="#bfbfbf" points="10.5,-147.5 10.5,-177.5 99.5,-177.5 99.5,-147.5 10.5,-147.5"/>
<text text-anchor="start" x="18.5" y="-165.5" font-family="Helvetica,sans-Serif" font-size="10.00">type(ocmip2_cfc_cs)</text>
<text text-anchor="middle" x="55" y="-154.5" font-family="Helvetica,sans-Serif" font-size="10.00">, pointer</text>
</g>
<!-- Node6&#45;&gt;Node1 -->
<g id="edge5" class="edge"><title>Node6&#45;&gt;Node1</title>
<path fill="none" stroke="#9a32cd" stroke-dasharray="5,2" d="M109.864,-167.381C142.834,-170.43 185.873,-174.521 224,-178.5 229.758,-179.101 235.778,-179.751 241.77,-180.411"/>
<polygon fill="#9a32cd" stroke="#9a32cd" points="109.812,-163.861 99.5325,-166.429 109.169,-170.832 109.812,-163.861"/>
<text text-anchor="middle" x="176" y="-181.5" font-family="Helvetica,sans-Serif" font-size="10.00"> ocmip2_cfc_csp</text>
</g>
<!-- Node7 -->
<g id="node7" class="node"><title>Node7</title>
<polygon fill="white" stroke="#bfbfbf" points="12,-98.5 12,-128.5 98,-128.5 98,-98.5 12,-98.5"/>
<text text-anchor="start" x="20" y="-116.5" font-family="Helvetica,sans-Serif" font-size="10.00">type(advection_test</text>
<text text-anchor="middle" x="55" y="-105.5" font-family="Helvetica,sans-Serif" font-size="10.00">_tracer_cs), pointer</text>
</g>
<!-- Node7&#45;&gt;Node1 -->
<g id="edge6" class="edge"><title>Node7&#45;&gt;Node1</title>
<path fill="none" stroke="#9a32cd" stroke-dasharray="5,2" d="M108.097,-123.587C141.646,-130.722 185.941,-141.347 224,-154.5 237.593,-159.198 252.14,-165.559 264.468,-171.372"/>
<polygon fill="#9a32cd" stroke="#9a32cd" points="108.554,-120.107 98.0493,-121.485 107.121,-126.958 108.554,-120.107"/>
<text text-anchor="middle" x="176" y="-157.5" font-family="Helvetica,sans-Serif" font-size="10.00"> advection_test_tracer_csp</text>
</g>
<!-- Node8 -->
<g id="node8" class="node"><title>Node8</title>
<polygon fill="white" stroke="#bfbfbf" points="11,-49.5 11,-79.5 99,-79.5 99,-49.5 11,-49.5"/>
<text text-anchor="start" x="19" y="-67.5" font-family="Helvetica,sans-Serif" font-size="10.00">type(dye_tracer_cs)</text>
<text text-anchor="middle" x="55" y="-56.5" font-family="Helvetica,sans-Serif" font-size="10.00">, pointer</text>
</g>
<!-- Node8&#45;&gt;Node1 -->
<g id="edge7" class="edge"><title>Node8&#45;&gt;Node1</title>
<path fill="none" stroke="#9a32cd" stroke-dasharray="5,2" d="M109.116,-72.6855C143.684,-79.7162 188.731,-92.1999 224,-113.5 249.036,-128.62 271.247,-154.826 283.769,-171.383"/>
<polygon fill="#9a32cd" stroke="#9a32cd" points="109.689,-69.2314 99.2047,-70.7596 108.353,-76.1029 109.689,-69.2314"/>
<text text-anchor="middle" x="176" y="-116.5" font-family="Helvetica,sans-Serif" font-size="10.00"> dye_tracer_csp</text>
</g>
<!-- Node9 -->
<g id="node9" class="node"><title>Node9</title>
<polygon fill="white" stroke="#bfbfbf" points="7.5,-0.5 7.5,-30.5 102.5,-30.5 102.5,-0.5 7.5,-0.5"/>
<text text-anchor="start" x="15.5" y="-18.5" font-family="Helvetica,sans-Serif" font-size="10.00">type(dome_tracer_cs)</text>
<text text-anchor="middle" x="55" y="-7.5" font-family="Helvetica,sans-Serif" font-size="10.00">, pointer</text>
</g>
<!-- Node9&#45;&gt;Node1 -->
<g id="edge8" class="edge"><title>Node9&#45;&gt;Node1</title>
<path fill="none" stroke="#9a32cd" stroke-dasharray="5,2" d="M112.815,-20.8248C147.907,-26.582 192.155,-38.5638 224,-63.5 260.432,-92.0282 281.376,-144.99 289.931,-171.114"/>
<polygon fill="#9a32cd" stroke="#9a32cd" points="113.123,-17.3316 102.712,-19.2953 112.075,-24.2527 113.123,-17.3316"/>
<text text-anchor="middle" x="176" y="-66.5" font-family="Helvetica,sans-Serif" font-size="10.00"> dome_tracer_csp</text>
</g>
</g>
</svg>
        <g id="navigator" transform="translate(0 0)" fill="#404254">
                <rect fill="#f2f5e9" fill-opacity="0.5" stroke="#606060" stroke-width=".5" x="0" y="0" width="60" height="60"/>
                <use id="zoomplus" xlink:href="#zoomPlus" x="17" y="9" onmousedown="handleZoom(evt,'in')"/>
                <use id="zoomminus" xlink:href="#zoomMin" x="42" y="9" onmousedown="handleZoom(evt,'out')"/>
                <use id="reset" xlink:href="#resetDef" x="30" y="36" onmousedown="handleReset()"/>
                <g id="arrowUp" xlink:href="#dirArrow" transform="translate(30 24)" onmousedown="handlePan(0,-1)">
                  <use xlink:href="#rim" fill="#404040">
                        <set attributeName="fill" to="#808080" begin="arrowUp.mouseover" end="arrowUp.mouseout"/>
                  </use>
                  <path fill="none" stroke="white" stroke-width="1.5" d="M0,-3.0v7 M-2.5,-0.5L0,-3.0L2.5,-0.5"/>
                </g>
                <g id="arrowRight" xlink:href="#dirArrow" transform="rotate(90) translate(36 -43)" onmousedown="handlePan(1,0)">
                  <use xlink:href="#rim" fill="#404040">
                        <set attributeName="fill" to="#808080" begin="arrowRight.mouseover" end="arrowRight.mouseout"/>
                  </use>
                  <path fill="none" stroke="white" stroke-width="1.5" d="M0,-3.0v7 M-2.5,-0.5L0,-3.0L2.5,-0.5"/>
                </g>
                <g id="arrowDown" xlink:href="#dirArrow" transform="rotate(180) translate(-30 -48)" onmousedown="handlePan(0,1)">
                  <use xlink:href="#rim" fill="#404040">
                        <set attributeName="fill" to="#808080" begin="arrowDown.mouseover" end="arrowDown.mouseout"/>
                  </use>
                  <path fill="none" stroke="white" stroke-width="1.5" d="M0,-3.0v7 M-2.5,-0.5L0,-3.0L2.5,-0.5"/>
                </g>
                <g id="arrowLeft" xlink:href="#dirArrow" transform="rotate(270) translate(-36 17)" onmousedown="handlePan(-1,0)">
                  <use xlink:href="#rim" fill="#404040">
                        <set attributeName="fill" to="#808080" begin="arrowLeft.mouseover" end="arrowLeft.mouseout"/>
                  </use>
                  <path fill="none" stroke="white" stroke-width="1.5" d="M0,-3.0v7 M-2.5,-0.5L0,-3.0L2.5,-0.5"/>
                </g>
        </g>
        <svg viewBox="0 0 15 15" width="100%" height="30px" preserveAspectRatio="xMaxYMin meet">
         <g id="arrow_out" transform="scale(0.3 0.3)">
          <a xlink:href="structmom__tracer__flow__control_1_1tracer__flow__control__cs__coll__graph_org.svg" target="_base">
           <rect id="button" ry="5" rx="5" y="6" x="6" height="38" width="38"
                fill="#f2f5e9" fill-opacity="0.5" stroke="#606060" stroke-width="1.0"/>
           <path id="arrow"
             d="M 11.500037,31.436501 C 11.940474,20.09759 22.043105,11.32322 32.158766,21.979434 L 37.068811,17.246167 C 37.068811,17.246167 37.088388,32 37.088388,32 L 22.160133,31.978069 C 22.160133,31.978069 26.997745,27.140456 26.997745,27.140456 C 18.528582,18.264221 13.291696,25.230495 11.500037,31.436501 z"
             style="fill:#404040;"/>
          </a>
         </g>
        </svg>
</svg>
