<?xml version="1.0" encoding="UTF-8" standalone="no"?>
<!DOCTYPE svg PUBLIC "-//W3C//DTD SVG 1.1//EN"
 "http://www.w3.org/Graphics/SVG/1.1/DTD/svg11.dtd">
<!-- Generated by graphviz version 2.38.0 (20140413.2041)
 -->
<!-- Title: regrid_edge_values::check_discontinuous_edge_values Pages: 1 -->
<svg width="1360pt" height="263pt"
 viewBox="0.00 0.00 1360.00 262.50" xmlns="http://www.w3.org/2000/svg" xmlns:xlink="http://www.w3.org/1999/xlink">
<g id="graph0" class="graph" transform="scale(1 1) rotate(0) translate(4 258.5)">
<title>regrid_edge_values::check_discontinuous_edge_values</title>
<polygon fill="white" stroke="none" points="-4,4 -4,-258.5 1356,-258.5 1356,4 -4,4"/>
<!-- Node31 -->
<g id="node1" class="node"><title>Node31</title>
<polygon fill="#bfbfbf" stroke="black" points="0,-49.5 0,-90.5 94,-90.5 94,-49.5 0,-49.5"/>
<text text-anchor="start" x="8" y="-78.5" font-family="Helvetica,sans-Serif" font-size="10.00">regrid_edge_values</text>
<text text-anchor="start" x="8" y="-67.5" font-family="Helvetica,sans-Serif" font-size="10.00">::check_discontinuous</text>
<text text-anchor="middle" x="47" y="-56.5" font-family="Helvetica,sans-Serif" font-size="10.00">_edge_values</text>
</g>
<!-- Node32 -->
<g id="node2" class="node"><title>Node32</title>
<g id="a_node2"><a xlink:href="../../d1/de6/namespaceppm__functions.html#a89920c90b84f0b241c5a6d65fe2870b9" target="_top" xlink:title="Adjusts edge values using the standard PPM limiter (Colella &amp; Woodward, JCP 1984) after first checkin...">
<polygon fill="white" stroke="black" points="130,-31 130,-61 219,-61 219,-31 130,-31"/>
<text text-anchor="start" x="138" y="-49" font-family="Helvetica,sans-Serif" font-size="10.00">ppm_functions::ppm</text>
<text text-anchor="middle" x="174.5" y="-38" font-family="Helvetica,sans-Serif" font-size="10.00">_limiter_standard</text>
</a>
</g>
</g>
<!-- Node31&#45;&gt;Node32 -->
<g id="edge1" class="edge"><title>Node31&#45;&gt;Node32</title>
<path fill="none" stroke="midnightblue" d="M104.095,-59.2726C112.781,-57.6117 121.638,-55.9179 129.991,-54.3204"/>
<polygon fill="midnightblue" stroke="midnightblue" points="103.184,-55.8835 94.0189,-61.1996 104.498,-62.7589 103.184,-55.8835"/>
</g>
<!-- Node50 -->
<g id="node20" class="node"><title>Node50</title>
<g id="a_node20"><a xlink:href="../../dc/d94/namespacepqm__functions.html#a0ce0d64922453de1312adec7b8746544" target="_top" xlink:title="pqm_functions::pqm\l_limiter">
<polygon fill="white" stroke="black" points="130,-80 130,-110 219,-110 219,-80 130,-80"/>
<text text-anchor="start" x="138" y="-98" font-family="Helvetica,sans-Serif" font-size="10.00">pqm_functions::pqm</text>
<text text-anchor="middle" x="174.5" y="-87" font-family="Helvetica,sans-Serif" font-size="10.00">_limiter</text>
</a>
</g>
</g>
<!-- Node31&#45;&gt;Node50 -->
<g id="edge21" class="edge"><title>Node31&#45;&gt;Node50</title>
<path fill="none" stroke="midnightblue" d="M104.095,-81.1743C112.781,-82.9045 121.638,-84.6689 129.991,-86.3329"/>
<polygon fill="midnightblue" stroke="midnightblue" points="104.51,-77.6883 94.0189,-79.1671 103.142,-84.5534 104.51,-77.6883"/>
</g>
<!-- Node33 -->
<g id="node3" class="node"><title>Node33</title>
<g id="a_node3"><a xlink:href="../../d1/de6/namespaceppm__functions.html#a97e2144c7499aacd90858788f1312432" target="_top" xlink:title="Builds quadratic polynomials coefficients from cell mean and edge values. ">
<polygon fill="white" stroke="black" points="255,-31 255,-61 344,-61 344,-31 255,-31"/>
<text text-anchor="start" x="263" y="-49" font-family="Helvetica,sans-Serif" font-size="10.00">ppm_functions::ppm</text>
<text text-anchor="middle" x="299.5" y="-38" font-family="Helvetica,sans-Serif" font-size="10.00">_reconstruction</text>
</a>
</g>
</g>
<!-- Node32&#45;&gt;Node33 -->
<g id="edge2" class="edge"><title>Node32&#45;&gt;Node33</title>
<path fill="none" stroke="midnightblue" d="M229.458,-46C237.975,-46 246.687,-46 254.929,-46"/>
<polygon fill="midnightblue" stroke="midnightblue" points="229.212,-42.5001 219.212,-46 229.211,-49.5001 229.212,-42.5001"/>
</g>
<!-- Node34 -->
<g id="node4" class="node"><title>Node34</title>
<g id="a_node4"><a xlink:href="../../d6/d75/namespacemom__remapping.html#a07d7276310f329f56560a1290bcb8b0a" target="_top" xlink:title="Creates polynomial reconstructions of u0 on the source grid h0. ">
<polygon fill="white" stroke="black" points="401,-78 401,-108 499,-108 499,-78 401,-78"/>
<text text-anchor="start" x="409" y="-96" font-family="Helvetica,sans-Serif" font-size="10.00">mom_remapping::build</text>
<text text-anchor="middle" x="450" y="-85" font-family="Helvetica,sans-Serif" font-size="10.00">_reconstructions_1d</text>
</a>
</g>
</g>
<!-- Node33&#45;&gt;Node34 -->
<g id="edge3" class="edge"><title>Node33&#45;&gt;Node34</title>
<path fill="none" stroke="midnightblue" d="M354.185,-62.9911C369.63,-67.8796 386.365,-73.176 401.414,-77.939"/>
<polygon fill="midnightblue" stroke="midnightblue" points="354.842,-59.528 344.252,-59.8473 352.729,-66.2017 354.842,-59.528"/>
</g>
<!-- Node47 -->
<g id="node17" class="node"><title>Node47</title>
<g id="a_node17"><a xlink:href="../../d6/d75/namespacemom__remapping.html#aad5ec4e3f91e936e34113503d05deeeb" target="_top" xlink:title="Runs unit tests on remapping functions. Should only be called from a single/root thread Returns True ...">
<polygon fill="white" stroke="black" points="712,-38.5 712,-57.5 861,-57.5 861,-38.5 712,-38.5"/>
<text text-anchor="middle" x="786.5" y="-45.5" font-family="Helvetica,sans-Serif" font-size="10.00">mom_remapping::remappingunittests</text>
</a>
</g>
</g>
<!-- Node33&#45;&gt;Node47 -->
<g id="edge20" class="edge"><title>Node33&#45;&gt;Node47</title>
<path fill="none" stroke="midnightblue" d="M354.591,-46.2231C441.708,-46.5823 613.251,-47.2897 711.585,-47.6952"/>
<polygon fill="midnightblue" stroke="midnightblue" points="354.41,-42.7224 344.396,-46.181 354.381,-49.7223 354.41,-42.7224"/>
</g>
<!-- Node49 -->
<g id="node19" class="node"><title>Node49</title>
<g id="a_node19"><a xlink:href="../../d7/d73/namespacemom__ale.html#aea1b73dedf1ae5f3db9fa0a6aa6ebaa0" target="_top" xlink:title="Use ppm reconstruction for pressure gradient (determine edge values) By using a PPM (limited piecewis...">
<polygon fill="white" stroke="black" points="380,-0.5 380,-19.5 520,-19.5 520,-0.5 380,-0.5"/>
<text text-anchor="middle" x="450" y="-7.5" font-family="Helvetica,sans-Serif" font-size="10.00">mom_ale::pressure_gradient_ppm</text>
</a>
</g>
</g>
<!-- Node33&#45;&gt;Node49 -->
<g id="edge19" class="edge"><title>Node33&#45;&gt;Node49</title>
<path fill="none" stroke="midnightblue" d="M354.206,-32.9804C372.515,-28.5419 392.633,-23.6648 409.607,-19.5499"/>
<polygon fill="midnightblue" stroke="midnightblue" points="353.146,-29.636 344.252,-35.3935 354.795,-36.4389 353.146,-29.636"/>
</g>
<!-- Node35 -->
<g id="node5" class="node"><title>Node35</title>
<g id="a_node5"><a xlink:href="../../d6/d75/namespacemom__remapping.html#a6d1533ffa647f3305aba055e2685b095" target="_top" xlink:title="Remaps column of values u0 on grid h0 to grid h1 assuming the top edge is aligned. ">
<polygon fill="white" stroke="black" points="556,-126 556,-156 676,-156 676,-126 556,-126"/>
<text text-anchor="start" x="564" y="-144" font-family="Helvetica,sans-Serif" font-size="10.00">mom_remapping::remapping</text>
<text text-anchor="middle" x="616" y="-133" font-family="Helvetica,sans-Serif" font-size="10.00">_core_h</text>
</a>
</g>
</g>
<!-- Node34&#45;&gt;Node35 -->
<g id="edge4" class="edge"><title>Node34&#45;&gt;Node35</title>
<path fill="none" stroke="midnightblue" d="M509.015,-109.98C526.817,-115.19 546.274,-120.885 563.601,-125.957"/>
<polygon fill="midnightblue" stroke="midnightblue" points="509.899,-106.592 499.318,-107.142 507.933,-113.31 509.899,-106.592"/>
</g>
<!-- Node46 -->
<g id="node16" class="node"><title>Node46</title>
<g id="a_node16"><a xlink:href="../../d6/d75/namespacemom__remapping.html#a8b967872b8db2ac7d538991f7f255e56" target="_top" xlink:title="Remaps column of values u0 on grid h0 to implied grid h1 where the interfaces of h1 differ from those...">
<polygon fill="white" stroke="black" points="556,-77 556,-107 676,-107 676,-77 556,-77"/>
<text text-anchor="start" x="564" y="-95" font-family="Helvetica,sans-Serif" font-size="10.00">mom_remapping::remapping</text>
<text text-anchor="middle" x="616" y="-84" font-family="Helvetica,sans-Serif" font-size="10.00">_core_w</text>
</a>
</g>
</g>
<!-- Node34&#45;&gt;Node46 -->
<g id="edge15" class="edge"><title>Node34&#45;&gt;Node46</title>
<path fill="none" stroke="midnightblue" d="M509.551,-92.643C524.639,-92.551 540.884,-92.4519 555.995,-92.3598"/>
<polygon fill="midnightblue" stroke="midnightblue" points="509.297,-89.1444 499.318,-92.7054 509.34,-96.1442 509.297,-89.1444"/>
</g>
<!-- Node36 -->
<g id="node6" class="node"><title>Node36</title>
<g id="a_node6"><a xlink:href="../../de/dd7/namespacemom__ale__sponge.html#a8f6e6db99f860b048a58e97e58c101a6" target="_top" xlink:title="This subroutine applies damping to the layers thicknesses, temp, salt and a variety of tracers for ev...">
<polygon fill="white" stroke="black" points="734.5,-199 734.5,-229 838.5,-229 838.5,-199 734.5,-199"/>
<text text-anchor="start" x="742.5" y="-217" font-family="Helvetica,sans-Serif" font-size="10.00">mom_ale_sponge::apply</text>
<text text-anchor="middle" x="786.5" y="-206" font-family="Helvetica,sans-Serif" font-size="10.00">_ale_sponge</text>
</a>
</g>
</g>
<!-- Node35&#45;&gt;Node36 -->
<g id="edge5" class="edge"><title>Node35&#45;&gt;Node36</title>
<path fill="none" stroke="midnightblue" d="M661.435,-160.251C689.325,-172.334 724.774,-187.691 750.631,-198.894"/>
<polygon fill="midnightblue" stroke="midnightblue" points="662.481,-156.889 651.913,-156.126 659.698,-163.313 662.481,-156.889"/>
</g>
<!-- Node38 -->
<g id="node8" class="node"><title>Node38</title>
<g id="a_node8"><a xlink:href="../../d6/d62/namespacemom__state__initialization.html#a71ee3c056ca59c1c3529a4ec22e09fe3" target="_top" xlink:title="Adjust the layer thicknesses by cutting away the top at the depth where the hydrostatic pressure matc...">
<polygon fill="white" stroke="black" points="736,-126 736,-156 837,-156 837,-126 736,-126"/>
<text text-anchor="start" x="744" y="-144" font-family="Helvetica,sans-Serif" font-size="10.00">mom_state_initialization</text>
<text text-anchor="middle" x="786.5" y="-133" font-family="Helvetica,sans-Serif" font-size="10.00">::cut_off_column_top</text>
</a>
</g>
</g>
<!-- Node35&#45;&gt;Node38 -->
<g id="edge7" class="edge"><title>Node35&#45;&gt;Node38</title>
<path fill="none" stroke="midnightblue" d="M686.57,-141C703.092,-141 720.391,-141 735.819,-141"/>
<polygon fill="midnightblue" stroke="midnightblue" points="686.407,-137.5 676.407,-141 686.407,-144.5 686.407,-137.5"/>
</g>
<!-- Node44 -->
<g id="node14" class="node"><title>Node44</title>
<g id="a_node14"><a xlink:href="../../d9/d06/namespacemom__diag__mediator.html#ab5e628e0b8acd96234fab33d0fae2161" target="_top" xlink:title="Remap diagnostic field to z&#45;star vertical grid. ">
<polygon fill="white" stroke="black" points="739,-77 739,-107 834,-107 834,-77 739,-77"/>
<text text-anchor="start" x="747" y="-95" font-family="Helvetica,sans-Serif" font-size="10.00">mom_diag_mediator::</text>
<text text-anchor="middle" x="786.5" y="-84" font-family="Helvetica,sans-Serif" font-size="10.00">remap_diag_to_z</text>
</a>
</g>
</g>
<!-- Node35&#45;&gt;Node44 -->
<g id="edge13" class="edge"><title>Node35&#45;&gt;Node44</title>
<path fill="none" stroke="midnightblue" d="M678.544,-123.103C698.472,-117.308 720.231,-110.98 738.889,-105.554"/>
<polygon fill="midnightblue" stroke="midnightblue" points="677.555,-119.745 668.93,-125.899 679.51,-126.467 677.555,-119.745"/>
</g>
<!-- Node37 -->
<g id="node7" class="node"><title>Node37</title>
<g id="a_node7"><a xlink:href="../../d8/df3/namespacemom__diabatic__driver.html#a61e57d3902367aa46aa3c2d949ee900f" target="_top" xlink:title="This subroutine imposes the diapycnal mass fluxes and the accompanying diapycnal advection of momentu...">
<polygon fill="white" stroke="black" points="902,-224 902,-254 993,-254 993,-224 902,-224"/>
<text text-anchor="start" x="910" y="-242" font-family="Helvetica,sans-Serif" font-size="10.00">mom_diabatic_driver</text>
<text text-anchor="middle" x="947.5" y="-231" font-family="Helvetica,sans-Serif" font-size="10.00">::diabatic</text>
</a>
</g>
</g>
<!-- Node36&#45;&gt;Node37 -->
<g id="edge6" class="edge"><title>Node36&#45;&gt;Node37</title>
<path fill="none" stroke="midnightblue" d="M848.894,-223.653C866.529,-226.426 885.42,-229.396 901.839,-231.978"/>
<polygon fill="midnightblue" stroke="midnightblue" points="849.106,-220.144 838.684,-222.048 848.019,-227.059 849.106,-220.144"/>
</g>
<!-- Node39 -->
<g id="node9" class="node"><title>Node39</title>
<g id="a_node9"><a xlink:href="../../d6/d62/namespacemom__state__initialization.html#a5c77bf2b0ea9d28e28b661a2a42d3f88" target="_top" xlink:title="Run simple unit tests. ">
<polygon fill="white" stroke="black" points="897,-175 897,-205 998,-205 998,-175 897,-175"/>
<text text-anchor="start" x="905" y="-193" font-family="Helvetica,sans-Serif" font-size="10.00">mom_state_initialization</text>
<text text-anchor="middle" x="947.5" y="-182" font-family="Helvetica,sans-Serif" font-size="10.00">::mom_state_init_tests</text>
</a>
</g>
</g>
<!-- Node38&#45;&gt;Node39 -->
<g id="edge8" class="edge"><title>Node38&#45;&gt;Node39</title>
<path fill="none" stroke="midnightblue" d="M846.275,-159.113C863.178,-164.322 881.426,-169.946 897.659,-174.948"/>
<polygon fill="midnightblue" stroke="midnightblue" points="847.09,-155.702 836.503,-156.101 845.028,-162.391 847.09,-155.702"/>
</g>
<!-- Node40 -->
<g id="node10" class="node"><title>Node40</title>
<g id="a_node10"><a xlink:href="../../d6/d62/namespacemom__state__initialization.html#acc1029776c1bdda2862ed0f95c8dc640" target="_top" xlink:title="Adjust the layer thicknesses by cutting away the top of each model column at the depth where the hydr...">
<polygon fill="white" stroke="black" points="897,-126 897,-156 998,-156 998,-126 897,-126"/>
<text text-anchor="start" x="905" y="-144" font-family="Helvetica,sans-Serif" font-size="10.00">mom_state_initialization</text>
<text text-anchor="middle" x="947.5" y="-133" font-family="Helvetica,sans-Serif" font-size="10.00">::trim_for_ice</text>
</a>
</g>
</g>
<!-- Node38&#45;&gt;Node40 -->
<g id="edge9" class="edge"><title>Node38&#45;&gt;Node40</title>
<path fill="none" stroke="midnightblue" d="M847.807,-141C863.979,-141 881.279,-141 896.805,-141"/>
<polygon fill="midnightblue" stroke="midnightblue" points="847.372,-137.5 837.372,-141 847.372,-144.5 847.372,-137.5"/>
</g>
<!-- Node41 -->
<g id="node11" class="node"><title>Node41</title>
<g id="a_node11"><a xlink:href="../../d6/d62/namespacemom__state__initialization.html#af4e854627c6572332ba3fd895f169321" target="_top" xlink:title="mom_state_initialization\l::mom_initialize_state">
<polygon fill="white" stroke="black" points="1034,-113 1034,-143 1135,-143 1135,-113 1034,-113"/>
<text text-anchor="start" x="1042" y="-131" font-family="Helvetica,sans-Serif" font-size="10.00">mom_state_initialization</text>
<text text-anchor="middle" x="1084.5" y="-120" font-family="Helvetica,sans-Serif" font-size="10.00">::mom_initialize_state</text>
</a>
</g>
</g>
<!-- Node40&#45;&gt;Node41 -->
<g id="edge10" class="edge"><title>Node40&#45;&gt;Node41</title>
<path fill="none" stroke="midnightblue" d="M1008.21,-135.25C1016.67,-134.435 1025.3,-133.605 1033.55,-132.81"/>
<polygon fill="midnightblue" stroke="midnightblue" points="1007.62,-131.791 998.002,-136.233 1008.29,-138.758 1007.62,-131.791"/>
</g>
<!-- Node42 -->
<g id="node12" class="node"><title>Node42</title>
<g id="a_node12"><a xlink:href="../../da/d01/namespacemom.html#afebdc0103ad9cbe0ed4a54e522dc4104" target="_top" xlink:title="This subroutine initializes MOM. ">
<polygon fill="white" stroke="black" points="1171,-90.5 1171,-109.5 1260,-109.5 1260,-90.5 1171,-90.5"/>
<text text-anchor="middle" x="1215.5" y="-97.5" font-family="Helvetica,sans-Serif" font-size="10.00">mom::initialize_mom</text>
</a>
</g>
</g>
<!-- Node41&#45;&gt;Node42 -->
<g id="edge11" class="edge"><title>Node41&#45;&gt;Node42</title>
<path fill="none" stroke="midnightblue" d="M1144.81,-115.128C1153.56,-113.226 1162.45,-111.297 1170.82,-109.482"/>
<polygon fill="midnightblue" stroke="midnightblue" points="1144.04,-111.713 1135.01,-117.255 1145.52,-118.554 1144.04,-111.713"/>
</g>
<!-- Node43 -->
<g id="node13" class="node"><title>Node43</title>
<g id="a_node13"><a xlink:href="../../de/dbc/MOM__driver_8F90.html#a08fffeb2d8e8acbf9ed4609be6d258c6" target="_top" xlink:title="mom_main">
<polygon fill="white" stroke="black" points="1296,-90.5 1296,-109.5 1352,-109.5 1352,-90.5 1296,-90.5"/>
<text text-anchor="middle" x="1324" y="-97.5" font-family="Helvetica,sans-Serif" font-size="10.00">mom_main</text>
</a>
</g>
</g>
<!-- Node42&#45;&gt;Node43 -->
<g id="edge12" class="edge"><title>Node42&#45;&gt;Node43</title>
<path fill="none" stroke="midnightblue" d="M1270.41,-100C1279.21,-100 1287.98,-100 1295.77,-100"/>
<polygon fill="midnightblue" stroke="midnightblue" points="1270.12,-96.5001 1260.12,-100 1270.12,-103.5 1270.12,-96.5001"/>
</g>
<!-- Node45 -->
<g id="node15" class="node"><title>Node45</title>
<g id="a_node15"><a xlink:href="../../d9/d06/namespacemom__diag__mediator.html#adb1030a0216c52dd0d25bd67a5b31868" target="_top" xlink:title="mom_diag_mediator::\lpost_data_3d">
<polygon fill="white" stroke="black" points="900,-77 900,-107 995,-107 995,-77 900,-77"/>
<text text-anchor="start" x="908" y="-95" font-family="Helvetica,sans-Serif" font-size="10.00">mom_diag_mediator::</text>
<text text-anchor="middle" x="947.5" y="-84" font-family="Helvetica,sans-Serif" font-size="10.00">post_data_3d</text>
</a>
</g>
</g>
<!-- Node44&#45;&gt;Node45 -->
<g id="edge14" class="edge"><title>Node44&#45;&gt;Node45</title>
<path fill="none" stroke="midnightblue" d="M844.538,-92C862.732,-92 882.635,-92 899.99,-92"/>
<polygon fill="midnightblue" stroke="midnightblue" points="844.345,-88.5001 834.345,-92 844.345,-95.5001 844.345,-88.5001"/>
</g>
<!-- Node46&#45;&gt;Node47 -->
<g id="edge16" class="edge"><title>Node46&#45;&gt;Node47</title>
<path fill="none" stroke="midnightblue" d="M683.793,-74.3838C693.26,-71.8982 702.875,-69.38 712,-67 723.86,-63.9064 736.804,-60.5531 748.478,-57.5369"/>
<polygon fill="midnightblue" stroke="midnightblue" points="682.789,-71.0287 674.007,-76.9551 684.568,-77.7989 682.789,-71.0287"/>
</g>
<!-- Node48 -->
<g id="node18" class="node"><title>Node48</title>
<g id="a_node18"><a xlink:href="../../da/d01/namespacemom.html#a6cfc2cd88d60f051fe90e68c2f16b46b" target="_top" xlink:title="This s/r calls unit tests for other modules. These are NOT normally invoked and so we provide the mod...">
<polygon fill="white" stroke="black" points="1050.5,-62.5 1050.5,-81.5 1118.5,-81.5 1118.5,-62.5 1050.5,-62.5"/>
<text text-anchor="middle" x="1084.5" y="-69.5" font-family="Helvetica,sans-Serif" font-size="10.00">mom::unittests</text>
</a>
</g>
</g>
<!-- Node47&#45;&gt;Node48 -->
<g id="edge17" class="edge"><title>Node47&#45;&gt;Node48</title>
<path fill="none" stroke="midnightblue" d="M871.185,-54.7853C930.641,-59.606 1007.29,-65.8207 1050.34,-69.3112"/>
<polygon fill="midnightblue" stroke="midnightblue" points="871.299,-51.2831 861.049,-53.9634 870.733,-58.2602 871.299,-51.2831"/>
</g>
<!-- Node48&#45;&gt;Node42 -->
<g id="edge18" class="edge"><title>Node48&#45;&gt;Node42</title>
<path fill="none" stroke="midnightblue" d="M1128.73,-81.3831C1142.23,-84.3145 1157.14,-87.55 1170.69,-90.49"/>
<polygon fill="midnightblue" stroke="midnightblue" points="1129.24,-77.9116 1118.72,-79.2107 1127.75,-84.7523 1129.24,-77.9116"/>
</g>
<!-- Node51 -->
<g id="node21" class="node"><title>Node51</title>
<g id="a_node21"><a xlink:href="../../dc/d94/namespacepqm__functions.html#ada7e1a8d9d70b5b78b5e2dfddb5ffa43" target="_top" xlink:title="pqm_functions::pqm\l_reconstruction">
<polygon fill="white" stroke="black" points="255,-80 255,-110 344,-110 344,-80 255,-80"/>
<text text-anchor="start" x="263" y="-98" font-family="Helvetica,sans-Serif" font-size="10.00">pqm_functions::pqm</text>
<text text-anchor="middle" x="299.5" y="-87" font-family="Helvetica,sans-Serif" font-size="10.00">_reconstruction</text>
</a>
</g>
</g>
<!-- Node50&#45;&gt;Node51 -->
<g id="edge22" class="edge"><title>Node50&#45;&gt;Node51</title>
<path fill="none" stroke="midnightblue" d="M229.458,-95C237.975,-95 246.687,-95 254.929,-95"/>
<polygon fill="midnightblue" stroke="midnightblue" points="229.212,-91.5001 219.212,-95 229.211,-98.5001 229.212,-91.5001"/>
</g>
<!-- Node51&#45;&gt;Node34 -->
<g id="edge23" class="edge"><title>Node51&#45;&gt;Node34</title>
<path fill="none" stroke="midnightblue" d="M354.525,-94.2724C369.696,-94.0681 386.087,-93.8473 400.889,-93.648"/>
<polygon fill="midnightblue" stroke="midnightblue" points="354.204,-90.7763 344.252,-94.4108 354.298,-97.7757 354.204,-90.7763"/>
</g>
</g>
</svg>
