<?xml version="1.0" encoding="UTF-8" standalone="no"?>
<!DOCTYPE svg PUBLIC "-//W3C//DTD SVG 1.1//EN"
 "http://www.w3.org/Graphics/SVG/1.1/DTD/svg11.dtd">
<!-- Generated by graphviz version 2.38.0 (20140413.2041)
 -->
<!-- Title: mom_diabatic_driver::diabatic_cs Pages: 1 -->
<svg width="340pt" height="1399pt"
 viewBox="0.00 0.00 340.00 1399.32" xmlns="http://www.w3.org/2000/svg" xmlns:xlink="http://www.w3.org/1999/xlink">
<g id="graph0" class="graph" transform="scale(1 1) rotate(0) translate(4 1395.32)">
<title>mom_diabatic_driver::diabatic_cs</title>
<polygon fill="white" stroke="none" points="-4,4 -4,-1395.32 336,-1395.32 336,4 -4,4"/>
<!-- Node1 -->
<g id="node1" class="node"><title>Node1</title>
<polygon fill="#bfbfbf" stroke="black" points="241,-686.322 241,-716.322 332,-716.322 332,-686.322 241,-686.322"/>
<text text-anchor="start" x="249" y="-704.322" font-family="Helvetica,sans-Serif" font-size="10.00">mom_diabatic_driver</text>
<text text-anchor="middle" x="286.5" y="-693.322" font-family="Helvetica,sans-Serif" font-size="10.00">::diabatic_cs</text>
</g>
<!-- Node2 -->
<g id="node2" class="node"><title>Node2</title>
<polygon fill="white" stroke="#bfbfbf" points="33.5,-1230.82 33.5,-1249.82 71.5,-1249.82 71.5,-1230.82 33.5,-1230.82"/>
<text text-anchor="middle" x="52.5" y="-1237.82" font-family="Helvetica,sans-Serif" font-size="10.00">logical</text>
</g>
<!-- Node2&#45;&gt;Node1 -->
<g id="edge1" class="edge"><title>Node2&#45;&gt;Node1</title>
<path fill="none" stroke="#9a32cd" stroke-dasharray="5,2" d="M82.0104,-1245.69C119.912,-1251.01 186.358,-1253.7 223,-1216.32 259.056,-1179.54 280.579,-797.295 284.752,-716.335"/>
<polygon fill="#9a32cd" stroke="#9a32cd" points="82.0978,-1242.16 71.677,-1244.07 81.0161,-1249.08 82.0978,-1242.16"/>
<text text-anchor="middle" x="173" y="-1383.32" font-family="Helvetica,sans-Serif" font-size="10.00"> massless_match_targets</text>
<text text-anchor="middle" x="173" y="-1372.32" font-family="Helvetica,sans-Serif" font-size="10.00">aggregate_fw_forcing</text>
<text text-anchor="middle" x="173" y="-1361.32" font-family="Helvetica,sans-Serif" font-size="10.00">use_sponge</text>
<text text-anchor="start" x="123" y="-1350.32" font-family="Helvetica,sans-Serif" font-size="10.00">boundary_forcing_tendency</text>
<text text-anchor="middle" x="173" y="-1339.32" font-family="Helvetica,sans-Serif" font-size="10.00">_diag</text>
<text text-anchor="middle" x="173" y="-1328.32" font-family="Helvetica,sans-Serif" font-size="10.00">bulkmixedlayer</text>
<text text-anchor="middle" x="173" y="-1317.32" font-family="Helvetica,sans-Serif" font-size="10.00">frazil_tendency_diag</text>
<text text-anchor="middle" x="173" y="-1306.32" font-family="Helvetica,sans-Serif" font-size="10.00">usekpp</text>
<text text-anchor="start" x="123" y="-1295.32" font-family="Helvetica,sans-Serif" font-size="10.00">int_tide_source</text>
<text text-anchor="middle" x="173" y="-1284.32" font-family="Helvetica,sans-Serif" font-size="10.00">_test</text>
<text text-anchor="middle" x="173" y="-1273.32" font-family="Helvetica,sans-Serif" font-size="10.00">kppispassive</text>
<text text-anchor="middle" x="173" y="-1262.32" font-family="Helvetica,sans-Serif" font-size="10.00">usealealgorithm</text>
<text text-anchor="middle" x="173" y="-1251.32" font-family="Helvetica,sans-Serif" font-size="10.00">...</text>
</g>
<!-- Node3 -->
<g id="node3" class="node"><title>Node3</title>
<polygon fill="white" stroke="#bfbfbf" points="11,-1181.32 11,-1211.32 94,-1211.32 94,-1181.32 11,-1181.32"/>
<text text-anchor="start" x="19" y="-1199.32" font-family="Helvetica,sans-Serif" font-size="10.00">type(energetic_pbl</text>
<text text-anchor="middle" x="52.5" y="-1188.32" font-family="Helvetica,sans-Serif" font-size="10.00">_cs), pointer</text>
</g>
<!-- Node3&#45;&gt;Node1 -->
<g id="edge2" class="edge"><title>Node3&#45;&gt;Node1</title>
<path fill="none" stroke="#9a32cd" stroke-dasharray="5,2" d="M104.611,-1202.27C142.645,-1203.64 192.973,-1198.45 223,-1167.32 286.892,-1101.08 286.719,-789.961 285.771,-716.768"/>
<polygon fill="#9a32cd" stroke="#9a32cd" points="104.406,-1198.75 94.2366,-1201.73 104.04,-1205.75 104.406,-1198.75"/>
<text text-anchor="middle" x="173" y="-1204.32" font-family="Helvetica,sans-Serif" font-size="10.00"> energetic_pbl_csp</text>
</g>
<!-- Node4 -->
<g id="node4" class="node"><title>Node4</title>
<polygon fill="white" stroke="#bfbfbf" points="11,-1132.32 11,-1162.32 94,-1162.32 94,-1132.32 11,-1132.32"/>
<text text-anchor="start" x="19" y="-1150.32" font-family="Helvetica,sans-Serif" font-size="10.00">type(diffconvection</text>
<text text-anchor="middle" x="52.5" y="-1139.32" font-family="Helvetica,sans-Serif" font-size="10.00">_cs), pointer</text>
</g>
<!-- Node4&#45;&gt;Node1 -->
<g id="edge3" class="edge"><title>Node4&#45;&gt;Node1</title>
<path fill="none" stroke="#9a32cd" stroke-dasharray="5,2" d="M104.476,-1153.14C142.437,-1154.43 192.733,-1149.22 223,-1118.32 280.372,-1059.75 285.195,-784.413 285.504,-716.494"/>
<polygon fill="#9a32cd" stroke="#9a32cd" points="104.286,-1149.62 94.1226,-1152.62 103.934,-1156.62 104.286,-1149.62"/>
<text text-anchor="middle" x="173" y="-1155.32" font-family="Helvetica,sans-Serif" font-size="10.00"> conv_csp</text>
</g>
<!-- Node5 -->
<g id="node5" class="node"><title>Node5</title>
<polygon fill="white" stroke="#bfbfbf" points="1,-1083.32 1,-1113.32 104,-1113.32 104,-1083.32 1,-1083.32"/>
<text text-anchor="start" x="9" y="-1101.32" font-family="Helvetica,sans-Serif" font-size="10.00">type(tracer_flow_control</text>
<text text-anchor="middle" x="52.5" y="-1090.32" font-family="Helvetica,sans-Serif" font-size="10.00">_cs), pointer</text>
</g>
<!-- Node5&#45;&gt;Node1 -->
<g id="edge4" class="edge"><title>Node5&#45;&gt;Node1</title>
<path fill="none" stroke="#9a32cd" stroke-dasharray="5,2" d="M114.233,-1104.13C150.595,-1104.1 195.037,-1097.32 223,-1069.32 273.833,-1018.43 283.503,-779.061 285.175,-716.378"/>
<polygon fill="#9a32cd" stroke="#9a32cd" points="114.266,-1100.63 104.212,-1103.97 114.155,-1107.63 114.266,-1100.63"/>
<text text-anchor="middle" x="173" y="-1106.32" font-family="Helvetica,sans-Serif" font-size="10.00"> tracer_flow_csp</text>
</g>
<!-- Node6 -->
<g id="node6" class="node"><title>Node6</title>
<polygon fill="white" stroke="#bfbfbf" points="5,-1034.32 5,-1064.32 100,-1064.32 100,-1034.32 5,-1034.32"/>
<text text-anchor="start" x="13" y="-1052.32" font-family="Helvetica,sans-Serif" font-size="10.00">type(regularize_layers</text>
<text text-anchor="middle" x="52.5" y="-1041.32" font-family="Helvetica,sans-Serif" font-size="10.00">_cs), pointer</text>
</g>
<!-- Node6&#45;&gt;Node1 -->
<g id="edge5" class="edge"><title>Node6&#45;&gt;Node1</title>
<path fill="none" stroke="#9a32cd" stroke-dasharray="5,2" d="M110.237,-1055.25C147.132,-1055.82 193.665,-1049.81 223,-1021.32 267.565,-978.038 281.656,-773.724 284.768,-716.342"/>
<polygon fill="#9a32cd" stroke="#9a32cd" points="110.215,-1051.75 100.109,-1054.93 109.993,-1058.74 110.215,-1051.75"/>
<text text-anchor="middle" x="173" y="-1057.32" font-family="Helvetica,sans-Serif" font-size="10.00"> regularize_layers_csp</text>
</g>
<!-- Node7 -->
<g id="node7" class="node"><title>Node7</title>
<polygon fill="white" stroke="#bfbfbf" points="12,-985.322 12,-1015.32 93,-1015.32 93,-985.322 12,-985.322"/>
<text text-anchor="start" x="20" y="-1003.32" font-family="Helvetica,sans-Serif" font-size="10.00">type(set_diffusivity</text>
<text text-anchor="middle" x="52.5" y="-992.322" font-family="Helvetica,sans-Serif" font-size="10.00">_cs), pointer</text>
</g>
<!-- Node7&#45;&gt;Node1 -->
<g id="edge6" class="edge"><title>Node7&#45;&gt;Node1</title>
<path fill="none" stroke="#9a32cd" stroke-dasharray="5,2" d="M103.398,-1006.12C141.011,-1007.59 191.355,-1002.89 223,-973.322 261.237,-937.597 279.444,-768.517 284.2,-716.552"/>
<polygon fill="#9a32cd" stroke="#9a32cd" points="103.329,-1002.61 93.1528,-1005.56 102.947,-1009.6 103.329,-1002.61"/>
<text text-anchor="middle" x="173" y="-1009.32" font-family="Helvetica,sans-Serif" font-size="10.00"> set_diff_csp</text>
</g>
<!-- Node8 -->
<g id="node8" class="node"><title>Node8</title>
<polygon fill="white" stroke="#bfbfbf" points="7.5,-936.322 7.5,-966.322 97.5,-966.322 97.5,-936.322 7.5,-936.322"/>
<text text-anchor="start" x="15.5" y="-954.322" font-family="Helvetica,sans-Serif" font-size="10.00">type(geothermal_cs)</text>
<text text-anchor="middle" x="52.5" y="-943.322" font-family="Helvetica,sans-Serif" font-size="10.00">, pointer</text>
</g>
<!-- Node8&#45;&gt;Node1 -->
<g id="edge7" class="edge"><title>Node8&#45;&gt;Node1</title>
<path fill="none" stroke="#9a32cd" stroke-dasharray="5,2" d="M107.591,-957.938C144.391,-959.347 191.876,-954.665 223,-927.322 255.418,-898.841 277.006,-762.543 283.469,-716.531"/>
<polygon fill="#9a32cd" stroke="#9a32cd" points="107.692,-954.439 97.5175,-957.394 107.314,-961.429 107.692,-954.439"/>
<text text-anchor="middle" x="173" y="-961.322" font-family="Helvetica,sans-Serif" font-size="10.00"> geothermal_csp</text>
</g>
<!-- Node9 -->
<g id="node9" class="node"><title>Node9</title>
<polygon fill="white" stroke="#bfbfbf" points="27,-897.822 27,-916.822 78,-916.822 78,-897.822 27,-897.822"/>
<text text-anchor="middle" x="52.5" y="-904.822" font-family="Helvetica,sans-Serif" font-size="10.00">time_type</text>
</g>
<!-- Node9&#45;&gt;Node1 -->
<g id="edge8" class="edge"><title>Node9&#45;&gt;Node1</title>
<path fill="none" stroke="#9a32cd" stroke-dasharray="5,2" d="M88.3239,-904.789C131.881,-900.951 203.163,-892.244 223,-875.322 271.961,-833.554 282.567,-750.479 284.865,-716.421"/>
<polygon fill="#9a32cd" stroke="#9a32cd" points="87.8322,-901.318 78.1595,-905.641 88.4169,-908.294 87.8322,-901.318"/>
<text text-anchor="middle" x="173" y="-915.322" font-family="Helvetica,sans-Serif" font-size="10.00"> time_max_source</text>
<text text-anchor="middle" x="173" y="-904.322" font-family="Helvetica,sans-Serif" font-size="10.00">time_end</text>
</g>
<!-- Node10 -->
<g id="node10" class="node"><title>Node10</title>
<polygon fill="white" stroke="#bfbfbf" points="9.5,-848.322 9.5,-878.322 95.5,-878.322 95.5,-848.322 9.5,-848.322"/>
<text text-anchor="start" x="17.5" y="-866.322" font-family="Helvetica,sans-Serif" font-size="10.00">type(diag_to_z_cs),</text>
<text text-anchor="middle" x="52.5" y="-855.322" font-family="Helvetica,sans-Serif" font-size="10.00"> pointer</text>
</g>
<!-- Node10&#45;&gt;Node1 -->
<g id="edge9" class="edge"><title>Node10&#45;&gt;Node1</title>
<path fill="none" stroke="#9a32cd" stroke-dasharray="5,2" d="M106.068,-862.185C142.307,-858.902 189.748,-849.372 223,-823.322 258.219,-795.73 275.417,-742.868 282.068,-716.732"/>
<polygon fill="#9a32cd" stroke="#9a32cd" points="105.39,-858.727 95.6885,-862.985 105.928,-865.706 105.39,-858.727"/>
<text text-anchor="middle" x="173" y="-863.322" font-family="Helvetica,sans-Serif" font-size="10.00"> diag_to_z_csp</text>
</g>
<!-- Node11 -->
<g id="node11" class="node"><title>Node11</title>
<polygon fill="white" stroke="#bfbfbf" points="7,-799.322 7,-829.322 98,-829.322 98,-799.322 7,-799.322"/>
<text text-anchor="start" x="15" y="-817.322" font-family="Helvetica,sans-Serif" font-size="10.00">type(ale_sponge_cs)</text>
<text text-anchor="middle" x="52.5" y="-806.322" font-family="Helvetica,sans-Serif" font-size="10.00">, pointer</text>
</g>
<!-- Node11&#45;&gt;Node1 -->
<g id="edge10" class="edge"><title>Node11&#45;&gt;Node1</title>
<path fill="none" stroke="#9a32cd" stroke-dasharray="5,2" d="M108.174,-810.164C143.112,-805.479 188.22,-795.514 223,-774.322 246.793,-759.824 266.141,-733.176 276.718,-716.399"/>
<polygon fill="#9a32cd" stroke="#9a32cd" points="107.64,-806.703 98.1448,-811.403 108.499,-813.651 107.64,-806.703"/>
<text text-anchor="middle" x="173" y="-811.322" font-family="Helvetica,sans-Serif" font-size="10.00"> ale_sponge_csp</text>
</g>
<!-- Node12 -->
<g id="node12" class="node"><title>Node12</title>
<polygon fill="white" stroke="#bfbfbf" points="11,-760.822 11,-779.822 94,-779.822 94,-760.822 11,-760.822"/>
<text text-anchor="middle" x="52.5" y="-767.822" font-family="Helvetica,sans-Serif" font-size="10.00">int_tide_input_type</text>
</g>
<!-- Node12&#45;&gt;Node1 -->
<g id="edge11" class="edge"><title>Node12&#45;&gt;Node1</title>
<path fill="none" stroke="#9a32cd" stroke-dasharray="5,2" d="M104.262,-762.772C138.446,-756.836 184.198,-747.225 223,-733.322 235.509,-728.84 248.696,-722.373 259.716,-716.424"/>
<polygon fill="#9a32cd" stroke="#9a32cd" points="103.323,-759.381 94.0446,-764.497 104.488,-766.283 103.323,-759.381"/>
<text text-anchor="middle" x="173" y="-762.322" font-family="Helvetica,sans-Serif" font-size="10.00"> int_tide_input</text>
</g>
<!-- Node13 -->
<g id="node13" class="node"><title>Node13</title>
<polygon fill="white" stroke="#bfbfbf" points="11.5,-711.322 11.5,-741.322 93.5,-741.322 93.5,-711.322 11.5,-711.322"/>
<text text-anchor="start" x="19.5" y="-729.322" font-family="Helvetica,sans-Serif" font-size="10.00">type(int_tide_input</text>
<text text-anchor="middle" x="52.5" y="-718.322" font-family="Helvetica,sans-Serif" font-size="10.00">_cs), pointer</text>
</g>
<!-- Node13&#45;&gt;Node1 -->
<g id="edge12" class="edge"><title>Node13&#45;&gt;Node1</title>
<path fill="none" stroke="#9a32cd" stroke-dasharray="5,2" d="M103.643,-720.918C144.419,-716.524 201.432,-710.381 240.697,-706.149"/>
<polygon fill="#9a32cd" stroke="#9a32cd" points="103.214,-717.444 93.6465,-721.995 103.964,-724.404 103.214,-717.444"/>
<text text-anchor="middle" x="173" y="-721.322" font-family="Helvetica,sans-Serif" font-size="10.00"> int_tide_input_csp</text>
</g>
<!-- Node14 -->
<g id="node14" class="node"><title>Node14</title>
<polygon fill="white" stroke="#bfbfbf" points="5.5,-662.322 5.5,-692.322 99.5,-692.322 99.5,-662.322 5.5,-662.322"/>
<text text-anchor="start" x="13.5" y="-680.322" font-family="Helvetica,sans-Serif" font-size="10.00">type(diabatic_aux_cs)</text>
<text text-anchor="middle" x="52.5" y="-669.322" font-family="Helvetica,sans-Serif" font-size="10.00">, pointer</text>
</g>
<!-- Node14&#45;&gt;Node1 -->
<g id="edge13" class="edge"><title>Node14&#45;&gt;Node1</title>
<path fill="none" stroke="#9a32cd" stroke-dasharray="5,2" d="M109.946,-682.177C142.935,-685.133 185.359,-689.137 223,-693.322 228.762,-693.962 234.818,-694.68 240.797,-695.417"/>
<polygon fill="#9a32cd" stroke="#9a32cd" points="109.855,-678.655 99.5843,-681.255 109.235,-685.628 109.855,-678.655"/>
<text text-anchor="middle" x="173" y="-696.322" font-family="Helvetica,sans-Serif" font-size="10.00"> diabatic_aux_csp</text>
</g>
<!-- Node15 -->
<g id="node15" class="node"><title>Node15</title>
<polygon fill="white" stroke="#bfbfbf" points="9,-613.322 9,-643.322 96,-643.322 96,-613.322 9,-613.322"/>
<text text-anchor="start" x="17" y="-631.322" font-family="Helvetica,sans-Serif" font-size="10.00">type(bulkmixedlayer</text>
<text text-anchor="middle" x="52.5" y="-620.322" font-family="Helvetica,sans-Serif" font-size="10.00">_cs), pointer</text>
</g>
<!-- Node15&#45;&gt;Node1 -->
<g id="edge14" class="edge"><title>Node15&#45;&gt;Node1</title>
<path fill="none" stroke="#9a32cd" stroke-dasharray="5,2" d="M106.285,-637.747C140.223,-644.618 184.928,-655.197 223,-669.322 235.343,-673.901 248.396,-680.312 259.362,-686.194"/>
<polygon fill="#9a32cd" stroke="#9a32cd" points="106.607,-634.243 96.1177,-635.734 105.247,-641.11 106.607,-634.243"/>
<text text-anchor="middle" x="173" y="-672.322" font-family="Helvetica,sans-Serif" font-size="10.00"> bulkmixedlayer_csp</text>
</g>
<!-- Node16 -->
<g id="node16" class="node"><title>Node16</title>
<polygon fill="white" stroke="#bfbfbf" points="13.5,-574.822 13.5,-593.822 91.5,-593.822 91.5,-574.822 13.5,-574.822"/>
<text text-anchor="middle" x="52.5" y="-581.822" font-family="Helvetica,sans-Serif" font-size="10.00">group_pass_type</text>
</g>
<!-- Node16&#45;&gt;Node1 -->
<g id="edge15" class="edge"><title>Node16&#45;&gt;Node1</title>
<path fill="none" stroke="#9a32cd" stroke-dasharray="5,2" d="M101.986,-588.614C137.69,-593.596 186.22,-604.317 223,-627.322 246.809,-642.214 266.152,-669.167 276.723,-686.108"/>
<polygon fill="#9a32cd" stroke="#9a32cd" points="102.177,-585.109 91.8108,-587.3 101.28,-592.052 102.177,-585.109"/>
<text text-anchor="middle" x="173" y="-630.322" font-family="Helvetica,sans-Serif" font-size="10.00"> pass_hold_eb_ea</text>
</g>
<!-- Node17 -->
<g id="node17" class="node"><title>Node17</title>
<polygon fill="white" stroke="#bfbfbf" points="29,-536.822 29,-555.822 76,-555.822 76,-536.822 29,-536.822"/>
<text text-anchor="middle" x="52.5" y="-543.822" font-family="Helvetica,sans-Serif" font-size="10.00">diag_ctrl</text>
</g>
<!-- Node17&#45;&gt;Node1 -->
<g id="edge16" class="edge"><title>Node17&#45;&gt;Node1</title>
<path fill="none" stroke="#9a32cd" stroke-dasharray="5,2" d="M86.2005,-544.353C123.043,-543.835 182.992,-548.307 223,-578.322 259.213,-605.489 276.022,-659.584 282.339,-686.039"/>
<polygon fill="#9a32cd" stroke="#9a32cd" points="85.9072,-540.86 76.0069,-544.633 86.0991,-547.857 85.9072,-540.86"/>
<text text-anchor="middle" x="173" y="-581.322" font-family="Helvetica,sans-Serif" font-size="10.00"> diag</text>
</g>
<!-- Node18 -->
<g id="node18" class="node"><title>Node18</title>
<polygon fill="white" stroke="#bfbfbf" points="6.5,-498.822 6.5,-517.822 98.5,-517.822 98.5,-498.822 6.5,-498.822"/>
<text text-anchor="middle" x="52.5" y="-505.822" font-family="Helvetica,sans-Serif" font-size="10.00">type(kpp_cs), pointer</text>
</g>
<!-- Node18&#45;&gt;Node1 -->
<g id="edge17" class="edge"><title>Node18&#45;&gt;Node1</title>
<path fill="none" stroke="#9a32cd" stroke-dasharray="5,2" d="M109.142,-502.085C145.289,-501.083 191.39,-505.933 223,-531.322 272.033,-570.704 282.599,-652.311 284.875,-686.13"/>
<polygon fill="#9a32cd" stroke="#9a32cd" points="108.59,-498.605 98.7524,-502.539 108.896,-505.599 108.59,-498.605"/>
<text text-anchor="middle" x="173" y="-534.322" font-family="Helvetica,sans-Serif" font-size="10.00"> kpp_csp</text>
</g>
<!-- Node19 -->
<g id="node19" class="node"><title>Node19</title>
<polygon fill="white" stroke="#bfbfbf" points="0.5,-460.822 0.5,-479.822 104.5,-479.822 104.5,-460.822 0.5,-460.822"/>
<text text-anchor="middle" x="52.5" y="-467.822" font-family="Helvetica,sans-Serif" font-size="10.00">type(opacity_cs), pointer</text>
</g>
<!-- Node19&#45;&gt;Node1 -->
<g id="edge18" class="edge"><title>Node19&#45;&gt;Node1</title>
<path fill="none" stroke="#9a32cd" stroke-dasharray="5,2" d="M115.021,-460.752C150.383,-458.77 193.498,-462.808 223,-487.322 284.474,-538.4 287.44,-646.318 286.289,-686.142"/>
<polygon fill="#9a32cd" stroke="#9a32cd" points="114.513,-457.279 104.796,-461.501 115.025,-464.261 114.513,-457.279"/>
<text text-anchor="middle" x="173" y="-490.322" font-family="Helvetica,sans-Serif" font-size="10.00"> opacity_csp</text>
</g>
<!-- Node20 -->
<g id="node20" class="node"><title>Node20</title>
<polygon fill="white" stroke="#bfbfbf" points="0,-422.822 0,-441.822 105,-441.822 105,-422.822 0,-422.822"/>
<text text-anchor="middle" x="52.5" y="-429.822" font-family="Helvetica,sans-Serif" font-size="10.00">type(sponge_cs), pointer</text>
</g>
<!-- Node20&#45;&gt;Node1 -->
<g id="edge19" class="edge"><title>Node20&#45;&gt;Node1</title>
<path fill="none" stroke="#9a32cd" stroke-dasharray="5,2" d="M115.476,-429.685C157.086,-429.266 207.1,-431.822 223,-445.322 260.491,-477.153 279.092,-636.084 284.089,-686.175"/>
<polygon fill="#9a32cd" stroke="#9a32cd" points="115.322,-426.187 105.378,-429.845 115.432,-433.186 115.322,-426.187"/>
<text text-anchor="middle" x="173" y="-448.322" font-family="Helvetica,sans-Serif" font-size="10.00"> sponge_csp</text>
</g>
<!-- Node21 -->
<g id="node21" class="node"><title>Node21</title>
<polygon fill="white" stroke="#bfbfbf" points="6.5,-373.322 6.5,-403.322 98.5,-403.322 98.5,-373.322 6.5,-373.322"/>
<text text-anchor="start" x="14.5" y="-391.322" font-family="Helvetica,sans-Serif" font-size="10.00">type(entrain_diffusive</text>
<text text-anchor="middle" x="52.5" y="-380.322" font-family="Helvetica,sans-Serif" font-size="10.00">_cs), pointer</text>
</g>
<!-- Node21&#45;&gt;Node1 -->
<g id="edge20" class="edge"><title>Node21&#45;&gt;Node1</title>
<path fill="none" stroke="#9a32cd" stroke-dasharray="5,2" d="M108.678,-390.511C151.71,-393.388 206.805,-400.027 223,-415.322 263.092,-453.184 280.123,-632.355 284.382,-686.067"/>
<polygon fill="#9a32cd" stroke="#9a32cd" points="108.784,-387.011 98.5873,-389.889 108.353,-393.998 108.784,-387.011"/>
<text text-anchor="middle" x="173" y="-418.322" font-family="Helvetica,sans-Serif" font-size="10.00"> entrain_diffusive_csp</text>
</g>
<!-- Node22 -->
<g id="node22" class="node"><title>Node22</title>
<polygon fill="white" stroke="#bfbfbf" points="37.5,-254.822 37.5,-273.822 67.5,-273.822 67.5,-254.822 37.5,-254.822"/>
<text text-anchor="middle" x="52.5" y="-261.822" font-family="Helvetica,sans-Serif" font-size="10.00">real</text>
</g>
<!-- Node22&#45;&gt;Node1 -->
<g id="edge21" class="edge"><title>Node22&#45;&gt;Node1</title>
<path fill="none" stroke="#9a32cd" stroke-dasharray="5,2" d="M77.7116,-256.053C114.08,-245.327 182.819,-231.885 223,-267.322 287.23,-323.967 286.835,-616.295 285.798,-686.263"/>
<polygon fill="#9a32cd" stroke="#9a32cd" points="76.4497,-252.78 67.9464,-259.1 78.5351,-259.462 76.4497,-252.78"/>
<text text-anchor="middle" x="173" y="-380.322" font-family="Helvetica,sans-Serif" font-size="10.00"> kpp_salt_flux</text>
<text text-anchor="middle" x="173" y="-369.322" font-family="Helvetica,sans-Serif" font-size="10.00">ppt2mks</text>
<text text-anchor="middle" x="173" y="-358.322" font-family="Helvetica,sans-Serif" font-size="10.00">kpp_nltheat</text>
<text text-anchor="middle" x="173" y="-347.322" font-family="Helvetica,sans-Serif" font-size="10.00">mlddensitydifference</text>
<text text-anchor="middle" x="173" y="-336.322" font-family="Helvetica,sans-Serif" font-size="10.00">kpp_buoy_flux</text>
<text text-anchor="middle" x="173" y="-325.322" font-family="Helvetica,sans-Serif" font-size="10.00">frazil_heat_diag</text>
<text text-anchor="middle" x="173" y="-314.322" font-family="Helvetica,sans-Serif" font-size="10.00">kpp_nltscalar</text>
<text text-anchor="middle" x="173" y="-303.322" font-family="Helvetica,sans-Serif" font-size="10.00">kd_min_tr</text>
<text text-anchor="middle" x="173" y="-292.322" font-family="Helvetica,sans-Serif" font-size="10.00">kd_bbl_tr</text>
<text text-anchor="middle" x="173" y="-281.322" font-family="Helvetica,sans-Serif" font-size="10.00">ml_mix_first</text>
<text text-anchor="middle" x="173" y="-270.322" font-family="Helvetica,sans-Serif" font-size="10.00">...</text>
</g>
<!-- Node23 -->
<g id="node23" class="node"><title>Node23</title>
<polygon fill="white" stroke="#bfbfbf" points="32,-90.8216 32,-109.822 73,-109.822 73,-90.8216 32,-90.8216"/>
<text text-anchor="middle" x="52.5" y="-97.8216" font-family="Helvetica,sans-Serif" font-size="10.00">integer</text>
</g>
<!-- Node23&#45;&gt;Node1 -->
<g id="edge22" class="edge"><title>Node23&#45;&gt;Node1</title>
<path fill="none" stroke="#9a32cd" stroke-dasharray="5,2" d="M83.0383,-89.2146C120.576,-77.2278 185.042,-64.0949 223,-98.3216 268.091,-138.98 282.674,-596.257 285.112,-686.067"/>
<polygon fill="#9a32cd" stroke="#9a32cd" points="81.569,-86.0162 73.2091,-92.5248 83.8032,-92.6501 81.569,-86.0162"/>
<text text-anchor="start" x="135" y="-233.322" font-family="Helvetica,sans-Serif" font-size="10.00"> id_diabatic_diff_heat</text>
<text text-anchor="middle" x="173" y="-222.322" font-family="Helvetica,sans-Serif" font-size="10.00">_tend</text>
<text text-anchor="middle" x="173" y="-211.322" font-family="Helvetica,sans-Serif" font-size="10.00">id_tdif_z</text>
<text text-anchor="start" x="135" y="-200.322" font-family="Helvetica,sans-Serif" font-size="10.00">id_boundary_forcing</text>
<text text-anchor="middle" x="173" y="-189.322" font-family="Helvetica,sans-Serif" font-size="10.00">_heat_tend</text>
<text text-anchor="middle" x="173" y="-178.322" font-family="Helvetica,sans-Serif" font-size="10.00">id_tadv</text>
<text text-anchor="middle" x="173" y="-167.322" font-family="Helvetica,sans-Serif" font-size="10.00">id_sdif_z</text>
<text text-anchor="middle" x="173" y="-156.322" font-family="Helvetica,sans-Serif" font-size="10.00">id_kd_epbl</text>
<text text-anchor="middle" x="173" y="-145.322" font-family="Helvetica,sans-Serif" font-size="10.00">id_kd_heat</text>
<text text-anchor="middle" x="173" y="-134.322" font-family="Helvetica,sans-Serif" font-size="10.00">id_brine_lay</text>
<text text-anchor="middle" x="173" y="-123.322" font-family="Helvetica,sans-Serif" font-size="10.00">id_sadv</text>
<text text-anchor="middle" x="173" y="-112.322" font-family="Helvetica,sans-Serif" font-size="10.00">id_dudt_dia</text>
<text text-anchor="middle" x="173" y="-101.322" font-family="Helvetica,sans-Serif" font-size="10.00">...</text>
</g>
<!-- Node24 -->
<g id="node24" class="node"><title>Node24</title>
<polygon fill="white" stroke="#bfbfbf" points="24.5,-52.8216 24.5,-71.8216 80.5,-71.8216 80.5,-52.8216 24.5,-52.8216"/>
<text text-anchor="middle" x="52.5" y="-59.8216" font-family="Helvetica,sans-Serif" font-size="10.00">optics_type</text>
</g>
<!-- Node24&#45;&gt;Node1 -->
<g id="edge23" class="edge"><title>Node24&#45;&gt;Node1</title>
<path fill="none" stroke="#9a32cd" stroke-dasharray="5,2" d="M89.0486,-49.9122C127.18,-39.1055 187.083,-29.7465 223,-62.3216 270.785,-105.661 283.256,-593.161 285.205,-686.075"/>
<polygon fill="#9a32cd" stroke="#9a32cd" points="87.9514,-46.5872 79.3803,-52.815 89.9644,-53.2915 87.9514,-46.5872"/>
<text text-anchor="middle" x="173" y="-65.3216" font-family="Helvetica,sans-Serif" font-size="10.00"> optics</text>
</g>
<!-- Node25 -->
<g id="node25" class="node"><title>Node25</title>
<polygon fill="white" stroke="#bfbfbf" points="14,-3.32156 14,-33.3216 91,-33.3216 91,-3.32156 14,-3.32156"/>
<text text-anchor="start" x="22" y="-21.3216" font-family="Helvetica,sans-Serif" font-size="10.00">type(int_tide_cs),</text>
<text text-anchor="middle" x="52.5" y="-10.3216" font-family="Helvetica,sans-Serif" font-size="10.00"> pointer</text>
</g>
<!-- Node25&#45;&gt;Node1 -->
<g id="edge24" class="edge"><title>Node25&#45;&gt;Node1</title>
<path fill="none" stroke="#9a32cd" stroke-dasharray="5,2" d="M101.131,-5.08108C139.191,2.33048 191.251,4.85028 223,-25.3216 272.606,-72.4638 283.645,-590.457 285.267,-686.164"/>
<polygon fill="#9a32cd" stroke="#9a32cd" points="100.345,-1.66971 91.2873,-7.16536 101.795,-8.51787 100.345,-1.66971"/>
<text text-anchor="middle" x="173" y="-28.3216" font-family="Helvetica,sans-Serif" font-size="10.00"> int_tide_csp</text>
</g>
</g>
</svg>
