<?xml version="1.0" encoding="UTF-8" standalone="no"?>
<!DOCTYPE svg PUBLIC "-//W3C//DTD SVG 1.1//EN"
 "http://www.w3.org/Graphics/SVG/1.1/DTD/svg11.dtd">
<!-- Generated by graphviz version 2.38.0 (20140413.2041)
 -->
<!-- Title: cvmix_tidal::cvmix_coeffs_tidal_low Pages: 1 -->
<svg width="211pt" height="39pt"
 viewBox="0.00 0.00 211.00 39.00" xmlns="http://www.w3.org/2000/svg" xmlns:xlink="http://www.w3.org/1999/xlink">
<g id="graph0" class="graph" transform="scale(1 1) rotate(0) translate(4 35)">
<title>cvmix_tidal::cvmix_coeffs_tidal_low</title>
<polygon fill="white" stroke="none" points="-4,4 -4,-35 207,-35 207,4 -4,4"/>
<!-- Node0 -->
<g id="node1" class="node"><title>Node0</title>
<polygon fill="#bfbfbf" stroke="black" points="0,-0.5 0,-30.5 79,-30.5 79,-0.5 0,-0.5"/>
<text text-anchor="start" x="8" y="-18.5" font-family="Helvetica,sans-Serif" font-size="10.00">cvmix_tidal::cvmix</text>
<text text-anchor="middle" x="39.5" y="-7.5" font-family="Helvetica,sans-Serif" font-size="10.00">_coeffs_tidal_low</text>
</g>
<!-- Node1 -->
<g id="node2" class="node"><title>Node1</title>
<g id="a_node2"><a xlink:href="../../d4/d77/namespacecvmix__tidal.html#a18b4b00015dfd924aaf62825fdd0647c" target="_top" xlink:title="cvmix_tidal::cvmix\l_compute_vert_dep">
<polygon fill="white" stroke="black" points="115,-0.5 115,-30.5 203,-30.5 203,-0.5 115,-0.5"/>
<text text-anchor="start" x="123" y="-18.5" font-family="Helvetica,sans-Serif" font-size="10.00">cvmix_tidal::cvmix</text>
<text text-anchor="middle" x="159" y="-7.5" font-family="Helvetica,sans-Serif" font-size="10.00">_compute_vert_dep</text>
</a>
</g>
</g>
<!-- Node0&#45;&gt;Node1 -->
<g id="edge1" class="edge"><title>Node0&#45;&gt;Node1</title>
<path fill="none" stroke="midnightblue" d="M79.2995,-15.5C87.3785,-15.5 96.0286,-15.5 104.53,-15.5"/>
<polygon fill="midnightblue" stroke="midnightblue" points="104.778,-19.0001 114.778,-15.5 104.778,-12.0001 104.778,-19.0001"/>
</g>
</g>
</svg>
