<?xml version="1.0" encoding="UTF-8" standalone="no"?>
<!DOCTYPE svg PUBLIC "-//W3C//DTD SVG 1.1//EN"
 "http://www.w3.org/Graphics/SVG/1.1/DTD/svg11.dtd">
<!-- Generated by graphviz version 2.38.0 (20140413.2041)
 -->
<!-- Title: cvmix_tidal::cvmix_compute_vert_dep Pages: 1 -->
<svg width="211pt" height="39pt"
 viewBox="0.00 0.00 211.00 39.00" xmlns="http://www.w3.org/2000/svg" xmlns:xlink="http://www.w3.org/1999/xlink">
<g id="graph0" class="graph" transform="scale(1 1) rotate(0) translate(4 35)">
<title>cvmix_tidal::cvmix_compute_vert_dep</title>
<polygon fill="white" stroke="none" points="-4,4 -4,-35 207,-35 207,4 -4,4"/>
<!-- Node7 -->
<g id="node1" class="node"><title>Node7</title>
<polygon fill="#bfbfbf" stroke="black" points="0,-0.5 0,-30.5 88,-30.5 88,-0.5 0,-0.5"/>
<text text-anchor="start" x="8" y="-18.5" font-family="Helvetica,sans-Serif" font-size="10.00">cvmix_tidal::cvmix</text>
<text text-anchor="middle" x="44" y="-7.5" font-family="Helvetica,sans-Serif" font-size="10.00">_compute_vert_dep</text>
</g>
<!-- Node8 -->
<g id="node2" class="node"><title>Node8</title>
<g id="a_node2"><a xlink:href="../../d4/d77/namespacecvmix__tidal.html#a30cbacfc099505f54c312aea82ef85ea" target="_top" xlink:title="cvmix_tidal::cvmix\l_coeffs_tidal_low">
<polygon fill="white" stroke="black" points="124,-0.5 124,-30.5 203,-30.5 203,-0.5 124,-0.5"/>
<text text-anchor="start" x="132" y="-18.5" font-family="Helvetica,sans-Serif" font-size="10.00">cvmix_tidal::cvmix</text>
<text text-anchor="middle" x="163.5" y="-7.5" font-family="Helvetica,sans-Serif" font-size="10.00">_coeffs_tidal_low</text>
</a>
</g>
</g>
<!-- Node7&#45;&gt;Node8 -->
<g id="edge1" class="edge"><title>Node7&#45;&gt;Node8</title>
<path fill="none" stroke="midnightblue" d="M98.0879,-15.5C106.711,-15.5 115.499,-15.5 123.698,-15.5"/>
<polygon fill="midnightblue" stroke="midnightblue" points="98.0855,-12.0001 88.0855,-15.5 98.0854,-19.0001 98.0855,-12.0001"/>
</g>
</g>
</svg>
