<?xml version="1.0" encoding="UTF-8" standalone="no"?>
<!DOCTYPE svg PUBLIC "-//W3C//DTD SVG 1.1//EN"
 "http://www.w3.org/Graphics/SVG/1.1/DTD/svg11.dtd">
<!-- Generated by graphviz version 2.38.0 (20140413.2041)
 -->
<!-- Title: mom_kappa_shear::calculate_kappa_shear Pages: 1 -->
<svg width="568pt" height="210pt"
 viewBox="0.00 0.00 568.00 210.00" xmlns="http://www.w3.org/2000/svg" xmlns:xlink="http://www.w3.org/1999/xlink">
<g id="graph0" class="graph" transform="scale(1 1) rotate(0) translate(4 206)">
<title>mom_kappa_shear::calculate_kappa_shear</title>
<polygon fill="white" stroke="none" points="-4,4 -4,-206 564,-206 564,4 -4,4"/>
<!-- Node0 -->
<g id="node1" class="node"><title>Node0</title>
<polygon fill="#bfbfbf" stroke="black" points="0,-49.5 0,-79.5 121,-79.5 121,-49.5 0,-49.5"/>
<text text-anchor="start" x="8" y="-67.5" font-family="Helvetica,sans-Serif" font-size="10.00">mom_kappa_shear::calculate</text>
<text text-anchor="middle" x="60.5" y="-56.5" font-family="Helvetica,sans-Serif" font-size="10.00">_kappa_shear</text>
</g>
<!-- Node1 -->
<g id="node2" class="node"><title>Node1</title>
<g id="a_node2"><a xlink:href="../../d1/d01/namespacemom__eos.html#a204529f8434a0322314e6ce2a9762436" target="_top" xlink:title="Calls the appropriate subroutine to calculate density derivatives for 1&#45;D array inputs. ">
<polygon fill="white" stroke="black" points="174,-98.5 174,-128.5 261,-128.5 261,-98.5 174,-98.5"/>
<text text-anchor="start" x="182" y="-116.5" font-family="Helvetica,sans-Serif" font-size="10.00">mom_eos::calculate</text>
<text text-anchor="middle" x="217.5" y="-105.5" font-family="Helvetica,sans-Serif" font-size="10.00">_density_derivs</text>
</a>
</g>
</g>
<!-- Node0&#45;&gt;Node1 -->
<g id="edge1" class="edge"><title>Node0&#45;&gt;Node1</title>
<path fill="none" stroke="midnightblue" d="M109.27,-79.6014C126.682,-85.1059 146.454,-91.3564 164.236,-96.9779"/>
<polygon fill="midnightblue" stroke="midnightblue" points="163.293,-100.35 173.883,-100.027 165.403,-93.6759 163.293,-100.35"/>
</g>
<!-- Node7 -->
<g id="node8" class="node"><title>Node7</title>
<g id="a_node8"><a xlink:href="../../d8/d95/namespacemom__kappa__shear.html#a4d43a516e89feda04c134210558a7d0a" target="_top" xlink:title="mom_kappa_shear::calculate\l_projected_state">
<polygon fill="white" stroke="black" points="157,-49.5 157,-79.5 278,-79.5 278,-49.5 157,-49.5"/>
<text text-anchor="start" x="165" y="-67.5" font-family="Helvetica,sans-Serif" font-size="10.00">mom_kappa_shear::calculate</text>
<text text-anchor="middle" x="217.5" y="-56.5" font-family="Helvetica,sans-Serif" font-size="10.00">_projected_state</text>
</a>
</g>
</g>
<!-- Node0&#45;&gt;Node7 -->
<g id="edge7" class="edge"><title>Node0&#45;&gt;Node7</title>
<path fill="none" stroke="midnightblue" d="M121.427,-64.5C129.724,-64.5 138.305,-64.5 146.762,-64.5"/>
<polygon fill="midnightblue" stroke="midnightblue" points="146.988,-68.0001 156.988,-64.5 146.988,-61.0001 146.988,-68.0001"/>
</g>
<!-- Node8 -->
<g id="node9" class="node"><title>Node8</title>
<g id="a_node9"><a xlink:href="../../d8/d95/namespacemom__kappa__shear.html#a69c584e62c72ad2b84a2338b6de82083" target="_top" xlink:title="mom_kappa_shear::find\l_kappa_tke">
<polygon fill="white" stroke="black" points="166,-0.5 166,-30.5 269,-30.5 269,-0.5 166,-0.5"/>
<text text-anchor="start" x="174" y="-18.5" font-family="Helvetica,sans-Serif" font-size="10.00">mom_kappa_shear::find</text>
<text text-anchor="middle" x="217.5" y="-7.5" font-family="Helvetica,sans-Serif" font-size="10.00">_kappa_tke</text>
</a>
</g>
</g>
<!-- Node0&#45;&gt;Node8 -->
<g id="edge8" class="edge"><title>Node0&#45;&gt;Node8</title>
<path fill="none" stroke="midnightblue" d="M109.27,-49.3986C124.96,-44.4385 142.566,-38.8726 158.906,-33.7071"/>
<polygon fill="midnightblue" stroke="midnightblue" points="160.408,-36.9031 168.888,-30.5516 158.298,-30.2287 160.408,-36.9031"/>
</g>
<!-- Node2 -->
<g id="node3" class="node"><title>Node2</title>
<g id="a_node3"><a xlink:href="../../d5/de6/namespacemom__eos__linear.html#a73d8a625582247379092adf1aeeb55e0" target="_top" xlink:title="mom_eos_linear::calculate\l_density_derivs_linear">
<polygon fill="white" stroke="black" points="317,-171.5 317,-201.5 428,-201.5 428,-171.5 317,-171.5"/>
<text text-anchor="start" x="325" y="-189.5" font-family="Helvetica,sans-Serif" font-size="10.00">mom_eos_linear::calculate</text>
<text text-anchor="middle" x="372.5" y="-178.5" font-family="Helvetica,sans-Serif" font-size="10.00">_density_derivs_linear</text>
</a>
</g>
</g>
<!-- Node1&#45;&gt;Node2 -->
<g id="edge2" class="edge"><title>Node1&#45;&gt;Node2</title>
<path fill="none" stroke="midnightblue" d="M246.627,-128.67C265.498,-138.664 291.014,-151.826 314,-162.5 317.541,-164.144 321.227,-165.802 324.946,-167.437"/>
<polygon fill="midnightblue" stroke="midnightblue" points="323.627,-170.68 334.196,-171.432 326.403,-164.254 323.627,-170.68"/>
</g>
<!-- Node3 -->
<g id="node4" class="node"><title>Node3</title>
<g id="a_node4"><a xlink:href="../../dd/d6b/namespacemom__eos__unesco.html#af8666837abadea54c016bf59838f96cc" target="_top" xlink:title="mom_eos_unesco::calculate\l_density_derivs_unesco">
<polygon fill="white" stroke="black" points="314,-122.5 314,-152.5 431,-152.5 431,-122.5 314,-122.5"/>
<text text-anchor="start" x="322" y="-140.5" font-family="Helvetica,sans-Serif" font-size="10.00">mom_eos_unesco::calculate</text>
<text text-anchor="middle" x="372.5" y="-129.5" font-family="Helvetica,sans-Serif" font-size="10.00">_density_derivs_unesco</text>
</a>
</g>
</g>
<!-- Node1&#45;&gt;Node3 -->
<g id="edge3" class="edge"><title>Node1&#45;&gt;Node3</title>
<path fill="none" stroke="midnightblue" d="M261.119,-120.185C274.41,-122.27 289.41,-124.623 303.971,-126.907"/>
<polygon fill="midnightblue" stroke="midnightblue" points="303.534,-130.381 313.955,-128.473 304.619,-123.466 303.534,-130.381"/>
</g>
<!-- Node4 -->
<g id="node5" class="node"><title>Node4</title>
<g id="a_node5"><a xlink:href="../../de/d76/namespacemom__eos__wright.html#ad7748e85ddacb33ad90ec3a9017e6e72" target="_top" xlink:title="mom_eos_wright::calculate\l_density_derivs_wright">
<polygon fill="white" stroke="black" points="316,-73.5 316,-103.5 429,-103.5 429,-73.5 316,-73.5"/>
<text text-anchor="start" x="324" y="-91.5" font-family="Helvetica,sans-Serif" font-size="10.00">mom_eos_wright::calculate</text>
<text text-anchor="middle" x="372.5" y="-80.5" font-family="Helvetica,sans-Serif" font-size="10.00">_density_derivs_wright</text>
</a>
</g>
</g>
<!-- Node1&#45;&gt;Node4 -->
<g id="edge4" class="edge"><title>Node1&#45;&gt;Node4</title>
<path fill="none" stroke="midnightblue" d="M261.119,-106.536C275.045,-104.261 290.849,-101.678 306.057,-99.1933"/>
<polygon fill="midnightblue" stroke="midnightblue" points="306.634,-102.645 315.939,-97.5786 305.505,-95.7371 306.634,-102.645"/>
</g>
<!-- Node5 -->
<g id="node6" class="node"><title>Node5</title>
<g id="a_node6"><a xlink:href="../../d0/de6/namespacemom__error__handler.html#a460cfb79a06c29fc249952c2a3710d67" target="_top" xlink:title="mom_error_handler::\lmom_error">
<polygon fill="white" stroke="black" points="326,-24.5 326,-54.5 419,-54.5 419,-24.5 326,-24.5"/>
<text text-anchor="start" x="334" y="-42.5" font-family="Helvetica,sans-Serif" font-size="10.00">mom_error_handler::</text>
<text text-anchor="middle" x="372.5" y="-31.5" font-family="Helvetica,sans-Serif" font-size="10.00">mom_error</text>
</a>
</g>
</g>
<!-- Node1&#45;&gt;Node5 -->
<g id="edge5" class="edge"><title>Node1&#45;&gt;Node5</title>
<path fill="none" stroke="midnightblue" d="M259.386,-98.422C265.727,-95.6814 272.12,-92.6758 278,-89.5 295.14,-80.2432 296.986,-73.985 314,-64.5 317.432,-62.5869 321.039,-60.7164 324.703,-58.9143"/>
<polygon fill="midnightblue" stroke="midnightblue" points="326.315,-62.024 333.865,-54.5909 323.327,-55.6935 326.315,-62.024"/>
</g>
<!-- Node6 -->
<g id="node7" class="node"><title>Node6</title>
<g id="a_node7"><a xlink:href="../../d0/de6/namespacemom__error__handler.html#ad5f00a53059c72fe2332d1436c80ca71" target="_top" xlink:title="mom_error_handler::\lis_root_pe">
<polygon fill="white" stroke="black" points="467,-24.5 467,-54.5 560,-54.5 560,-24.5 467,-24.5"/>
<text text-anchor="start" x="475" y="-42.5" font-family="Helvetica,sans-Serif" font-size="10.00">mom_error_handler::</text>
<text text-anchor="middle" x="513.5" y="-31.5" font-family="Helvetica,sans-Serif" font-size="10.00">is_root_pe</text>
</a>
</g>
</g>
<!-- Node5&#45;&gt;Node6 -->
<g id="edge6" class="edge"><title>Node5&#45;&gt;Node6</title>
<path fill="none" stroke="midnightblue" d="M419.014,-39.5C431.014,-39.5 444.102,-39.5 456.581,-39.5"/>
<polygon fill="midnightblue" stroke="midnightblue" points="456.884,-43.0001 466.884,-39.5 456.884,-36.0001 456.884,-43.0001"/>
</g>
</g>
</svg>
