<?xml version="1.0" encoding="UTF-8" standalone="no"?>
<!DOCTYPE svg PUBLIC "-//W3C//DTD SVG 1.1//EN"
 "http://www.w3.org/Graphics/SVG/1.1/DTD/svg11.dtd">
<!-- Generated by graphviz version 2.38.0 (20140413.2041)
 -->
<!-- Title: mom_kappa_shear::calculate_projected_state Pages: 1 -->
<svg width="408pt" height="39pt"
 viewBox="0.00 0.00 408.00 39.00" xmlns="http://www.w3.org/2000/svg" xmlns:xlink="http://www.w3.org/1999/xlink">
<g id="graph0" class="graph" transform="scale(1 1) rotate(0) translate(4 35)">
<title>mom_kappa_shear::calculate_projected_state</title>
<polygon fill="white" stroke="none" points="-4,4 -4,-35 404,-35 404,4 -4,4"/>
<!-- Node12 -->
<g id="node1" class="node"><title>Node12</title>
<polygon fill="#bfbfbf" stroke="black" points="0,-0.5 0,-30.5 121,-30.5 121,-0.5 0,-0.5"/>
<text text-anchor="start" x="8" y="-18.5" font-family="Helvetica,sans-Serif" font-size="10.00">mom_kappa_shear::calculate</text>
<text text-anchor="middle" x="60.5" y="-7.5" font-family="Helvetica,sans-Serif" font-size="10.00">_projected_state</text>
</g>
<!-- Node13 -->
<g id="node2" class="node"><title>Node13</title>
<g id="a_node2"><a xlink:href="../../d8/d95/namespacemom__kappa__shear.html#a84a0a23b1cb6df3e8613fdd7853cb495" target="_top" xlink:title="mom_kappa_shear::calculate\l_kappa_shear">
<polygon fill="white" stroke="black" points="157,-0.5 157,-30.5 278,-30.5 278,-0.5 157,-0.5"/>
<text text-anchor="start" x="165" y="-18.5" font-family="Helvetica,sans-Serif" font-size="10.00">mom_kappa_shear::calculate</text>
<text text-anchor="middle" x="217.5" y="-7.5" font-family="Helvetica,sans-Serif" font-size="10.00">_kappa_shear</text>
</a>
</g>
</g>
<!-- Node12&#45;&gt;Node13 -->
<g id="edge1" class="edge"><title>Node12&#45;&gt;Node13</title>
<path fill="none" stroke="midnightblue" d="M131.661,-15.5C140.122,-15.5 148.7,-15.5 156.988,-15.5"/>
<polygon fill="midnightblue" stroke="midnightblue" points="131.427,-12.0001 121.427,-15.5 131.427,-19.0001 131.427,-12.0001"/>
</g>
<!-- Node14 -->
<g id="node3" class="node"><title>Node14</title>
<g id="a_node3"><a xlink:href="../../d3/d4b/namespacemom__set__diffusivity.html#a8b1f646393f0ec717ca690e4f04d96e8" target="_top" xlink:title="mom_set_diffusivity\l::set_diffusivity">
<polygon fill="white" stroke="black" points="314,-0.5 314,-30.5 400,-30.5 400,-0.5 314,-0.5"/>
<text text-anchor="start" x="322" y="-18.5" font-family="Helvetica,sans-Serif" font-size="10.00">mom_set_diffusivity</text>
<text text-anchor="middle" x="357" y="-7.5" font-family="Helvetica,sans-Serif" font-size="10.00">::set_diffusivity</text>
</a>
</g>
</g>
<!-- Node13&#45;&gt;Node14 -->
<g id="edge2" class="edge"><title>Node13&#45;&gt;Node14</title>
<path fill="none" stroke="midnightblue" d="M288.233,-15.5C296.963,-15.5 305.671,-15.5 313.795,-15.5"/>
<polygon fill="midnightblue" stroke="midnightblue" points="288.01,-12.0001 278.01,-15.5 288.01,-19.0001 288.01,-12.0001"/>
</g>
</g>
</svg>
