<?xml version="1.0" encoding="UTF-8" standalone="no"?>
<!DOCTYPE svg PUBLIC "-//W3C//DTD SVG 1.1//EN"
 "http://www.w3.org/Graphics/SVG/1.1/DTD/svg11.dtd">
<!-- Generated by graphviz version 2.38.0 (20140413.2041)
 -->
<!-- Title: mom_variables::ocean_obc_type Pages: 1 -->
<svg width="236pt" height="227pt"
 viewBox="0.00 0.00 236.00 227.00" xmlns="http://www.w3.org/2000/svg" xmlns:xlink="http://www.w3.org/1999/xlink">
<g id="graph0" class="graph" transform="scale(1 1) rotate(0) translate(4 223)">
<title>mom_variables::ocean_obc_type</title>
<polygon fill="white" stroke="none" points="-4,4 -4,-223 232,-223 232,4 -4,4"/>
<!-- Node1 -->
<g id="node1" class="node"><title>Node1</title>
<polygon fill="#bfbfbf" stroke="black" points="67.5,-0.5 67.5,-30.5 164.5,-30.5 164.5,-0.5 67.5,-0.5"/>
<text text-anchor="start" x="75.5" y="-18.5" font-family="Helvetica,sans-Serif" font-size="10.00">mom_variables::ocean</text>
<text text-anchor="middle" x="116" y="-7.5" font-family="Helvetica,sans-Serif" font-size="10.00">_obc_type</text>
</g>
<!-- Node2 -->
<g id="node2" class="node"><title>Node2</title>
<polygon fill="white" stroke="#bfbfbf" points="0,-199.5 0,-218.5 38,-218.5 38,-199.5 0,-199.5"/>
<text text-anchor="middle" x="19" y="-206.5" font-family="Helvetica,sans-Serif" font-size="10.00">logical</text>
</g>
<!-- Node2&#45;&gt;Node1 -->
<g id="edge1" class="edge"><title>Node2&#45;&gt;Node1</title>
<path fill="none" stroke="#9a32cd" stroke-dasharray="5,2" d="M15.6309,-189.088C11.0019,-156.841 6.48841,-90.67 38,-49 45.3443,-39.2881 56.1255,-32.4574 67.3429,-27.6606"/>
<polygon fill="#9a32cd" stroke="#9a32cd" points="12.2336,-190.007 17.2751,-199.325 19.145,-188.897 12.2336,-190.007"/>
<text text-anchor="start" x="38" y="-173" font-family="Helvetica,sans-Serif" font-size="10.00"> apply_obc_v_flather</text>
<text text-anchor="middle" x="75" y="-162" font-family="Helvetica,sans-Serif" font-size="10.00">_south</text>
<text text-anchor="middle" x="75" y="-151" font-family="Helvetica,sans-Serif" font-size="10.00">obc_mask_u</text>
<text text-anchor="start" x="38" y="-140" font-family="Helvetica,sans-Serif" font-size="10.00">apply_obc_v_flather</text>
<text text-anchor="middle" x="75" y="-129" font-family="Helvetica,sans-Serif" font-size="10.00">_north</text>
<text text-anchor="start" x="38" y="-118" font-family="Helvetica,sans-Serif" font-size="10.00">apply_obc_u_flather</text>
<text text-anchor="middle" x="75" y="-107" font-family="Helvetica,sans-Serif" font-size="10.00">_east</text>
<text text-anchor="middle" x="75" y="-96" font-family="Helvetica,sans-Serif" font-size="10.00">obc_mask_v</text>
<text text-anchor="middle" x="75" y="-85" font-family="Helvetica,sans-Serif" font-size="10.00">apply_obc_u</text>
<text text-anchor="middle" x="75" y="-74" font-family="Helvetica,sans-Serif" font-size="10.00">apply_obc_v</text>
<text text-anchor="start" x="38" y="-63" font-family="Helvetica,sans-Serif" font-size="10.00">apply_obc_u_flather</text>
<text text-anchor="middle" x="75" y="-52" font-family="Helvetica,sans-Serif" font-size="10.00">_west</text>
</g>
<!-- Node3 -->
<g id="node3" class="node"><title>Node3</title>
<polygon fill="white" stroke="#bfbfbf" points="101,-199.5 101,-218.5 131,-218.5 131,-199.5 101,-199.5"/>
<text text-anchor="middle" x="116" y="-206.5" font-family="Helvetica,sans-Serif" font-size="10.00">real</text>
</g>
<!-- Node3&#45;&gt;Node1 -->
<g id="edge2" class="edge"><title>Node3&#45;&gt;Node1</title>
<path fill="none" stroke="#9a32cd" stroke-dasharray="5,2" d="M116,-189.005C116,-150.637 116,-64.662 116,-30.6957"/>
<polygon fill="#9a32cd" stroke="#9a32cd" points="112.5,-189.274 116,-199.274 119.5,-189.274 112.5,-189.274"/>
<text text-anchor="middle" x="138" y="-167.5" font-family="Helvetica,sans-Serif" font-size="10.00"> rx_old_u</text>
<text text-anchor="middle" x="138" y="-156.5" font-family="Helvetica,sans-Serif" font-size="10.00">eta_outer_u</text>
<text text-anchor="middle" x="138" y="-145.5" font-family="Helvetica,sans-Serif" font-size="10.00">vbt_outer</text>
<text text-anchor="middle" x="138" y="-134.5" font-family="Helvetica,sans-Serif" font-size="10.00">ry_old_v</text>
<text text-anchor="middle" x="138" y="-123.5" font-family="Helvetica,sans-Serif" font-size="10.00">vh</text>
<text text-anchor="middle" x="138" y="-112.5" font-family="Helvetica,sans-Serif" font-size="10.00">eta_outer_v</text>
<text text-anchor="middle" x="138" y="-101.5" font-family="Helvetica,sans-Serif" font-size="10.00">uh</text>
<text text-anchor="middle" x="138" y="-90.5" font-family="Helvetica,sans-Serif" font-size="10.00">rx_old_h</text>
<text text-anchor="middle" x="138" y="-79.5" font-family="Helvetica,sans-Serif" font-size="10.00">ry_old_h</text>
<text text-anchor="middle" x="138" y="-68.5" font-family="Helvetica,sans-Serif" font-size="10.00">ubt_outer</text>
<text text-anchor="middle" x="138" y="-57.5" font-family="Helvetica,sans-Serif" font-size="10.00">...</text>
</g>
<!-- Node4 -->
<g id="node4" class="node"><title>Node4</title>
<polygon fill="white" stroke="#bfbfbf" points="162.5,-199.5 162.5,-218.5 203.5,-218.5 203.5,-199.5 162.5,-199.5"/>
<text text-anchor="middle" x="183" y="-206.5" font-family="Helvetica,sans-Serif" font-size="10.00">integer</text>
</g>
<!-- Node4&#45;&gt;Node1 -->
<g id="edge3" class="edge"><title>Node4&#45;&gt;Node1</title>
<path fill="none" stroke="#9a32cd" stroke-dasharray="5,2" d="M184.919,-189.323C187.215,-157.935 187.86,-93.6664 161,-49 156.63,-41.7323 149.947,-35.6208 143.057,-30.7294"/>
<polygon fill="#9a32cd" stroke="#9a32cd" points="181.43,-189.035 184.045,-199.302 188.404,-189.645 181.43,-189.035"/>
<text text-anchor="middle" x="206.5" y="-118" font-family="Helvetica,sans-Serif" font-size="10.00"> obc_kind_u</text>
<text text-anchor="middle" x="206.5" y="-107" font-family="Helvetica,sans-Serif" font-size="10.00">obc_kind_v</text>
</g>
</g>
</svg>
