<?xml version="1.0" encoding="UTF-8" standalone="no"?>
<!DOCTYPE svg PUBLIC "-//W3C//DTD SVG 1.1//EN"
 "http://www.w3.org/Graphics/SVG/1.1/DTD/svg11.dtd">
<!-- Generated by graphviz version 2.38.0 (20140413.2041)
 -->
<!-- Title: ideal_age_example::ideal_age_tracer_cs Pages: 1 -->
<!--zoomable 501 -->
<svg id="main" version="1.1" xmlns="http://www.w3.org/2000/svg" xmlns:xlink="http://www.w3.org/1999/xlink" xml:space="preserve" onload="init(evt)">
<style type="text/css"><![CDATA[
.edge:hover path { stroke: red; }
.edge:hover polygon { stroke: red; fill: red; }
]]></style>
<script type="text/javascript"><![CDATA[
var edges = document.getElementsByTagName('g');
if (edges && edges.length) {
  for (var i=0;i<edges.length;i++) {
    if (edges[i].id.substr(0,4)=='edge') {
      edges[i].setAttribute('class','edge');
    }
  }
}
]]></script>
        <defs>
                <circle id="rim" cx="0" cy="0" r="7"/>
                <circle id="rim2" cx="0" cy="0" r="3.5"/>
                <g id="zoomPlus">
                        <use xlink:href="#rim" fill="#404040">
                                <set attributeName="fill" to="#808080" begin="zoomplus.mouseover" end="zoomplus.mouseout"/>
                        </use>
                        <path d="M-4,0h8M0,-4v8" fill="none" stroke="white" stroke-width="1.5" pointer-events="none"/>
                </g>
                <g id="zoomMin">
                        <use xlink:href="#rim" fill="#404040">
                                <set attributeName="fill" to="#808080" begin="zoomminus.mouseover" end="zoomminus.mouseout"/>
                        </use>
                        <path d="M-4,0h8" fill="none" stroke="white" stroke-width="1.5" pointer-events="none"/>
                </g>
                <g id="dirArrow">
                        <path fill="none" stroke="white" stroke-width="1.5" d="M0,-3.0v7 M-2.5,-0.5L0,-3.0L2.5,-0.5"/>
                </g>
               <g id="resetDef">
                       <use xlink:href="#rim2" fill="#404040">
                               <set attributeName="fill" to="#808080" begin="reset.mouseover" end="reset.mouseout"/>
                       </use>
               </g>
        </defs>

<script type="text/javascript">
var viewWidth = 378;
var viewHeight = 501;
var sectionId = 'dynsection-0';
</script>
<script xlink:href="../../svgpan.js"/>
<svg id="graph" class="graph">
<g id="viewport">
<title>ideal_age_example::ideal_age_tracer_cs</title>
<polygon fill="white" stroke="none" points="-4,4 -4,-497 374,-497 374,4 -4,4"/>
<!-- Node1 -->
<g id="node1" class="node"><title>Node1</title>
<polygon fill="#bfbfbf" stroke="black" points="280,-187 280,-217 370,-217 370,-187 280,-187"/>
<text text-anchor="start" x="288" y="-205" font-family="Helvetica,sans-Serif" font-size="10.00">ideal_age_example::</text>
<text text-anchor="middle" x="325" y="-194" font-family="Helvetica,sans-Serif" font-size="10.00">ideal_age_tracer_cs</text>
</g>
<!-- Node2 -->
<g id="node2" class="node"><title>Node2</title>
<polygon fill="white" stroke="#bfbfbf" points="106,-445.5 106,-464.5 144,-464.5 144,-445.5 106,-445.5"/>
<text text-anchor="middle" x="125" y="-452.5" font-family="Helvetica,sans-Serif" font-size="10.00">logical</text>
</g>
<!-- Node2&#45;&gt;Node1 -->
<g id="edge1" class="edge"><title>Node2&#45;&gt;Node1</title>
<path fill="none" stroke="#9a32cd" stroke-dasharray="5,2" d="M154.447,-450.096C185.305,-443.295 233.911,-428.017 262,-396 309.104,-342.309 320.474,-252.561 323.175,-217.087"/>
<polygon fill="#9a32cd" stroke="#9a32cd" points="153.432,-446.731 144.335,-452.162 154.833,-453.59 153.432,-446.731"/>
<text text-anchor="middle" x="228.5" y="-485" font-family="Helvetica,sans-Serif" font-size="10.00"> tracer_ages</text>
<text text-anchor="middle" x="228.5" y="-474" font-family="Helvetica,sans-Serif" font-size="10.00">z_ic_file</text>
<text text-anchor="middle" x="228.5" y="-463" font-family="Helvetica,sans-Serif" font-size="10.00">coupled_tracers</text>
<text text-anchor="middle" x="228.5" y="-452" font-family="Helvetica,sans-Serif" font-size="10.00">tracers_may_reinit</text>
<text text-anchor="middle" x="228.5" y="-441" font-family="Helvetica,sans-Serif" font-size="10.00">mask_tracers</text>
</g>
<!-- Node3 -->
<g id="node3" class="node"><title>Node3</title>
<polygon fill="white" stroke="#bfbfbf" points="99.5,-407.5 99.5,-426.5 150.5,-426.5 150.5,-407.5 99.5,-407.5"/>
<text text-anchor="middle" x="125" y="-414.5" font-family="Helvetica,sans-Serif" font-size="10.00">time_type</text>
</g>
<!-- Node3&#45;&gt;Node1 -->
<g id="edge2" class="edge"><title>Node3&#45;&gt;Node1</title>
<path fill="none" stroke="#9a32cd" stroke-dasharray="5,2" d="M158.271,-403.178C164.619,-400.082 171.128,-396.63 177,-393 217.916,-367.706 231.624,-363.299 262,-326 290.118,-291.474 309.975,-242.092 318.827,-217.356"/>
<polygon fill="#9a32cd" stroke="#9a32cd" points="156.747,-400.027 149.177,-407.44 159.717,-406.366 156.747,-400.027"/>
<text text-anchor="middle" x="228.5" y="-384" font-family="Helvetica,sans-Serif" font-size="10.00"> time</text>
</g>
<!-- Node4 -->
<g id="node4" class="node"><title>Node4</title>
<g id="a_node4"><a xlink:href="../../d7/d80/structideal__age__example_1_1p3d.html" target="_top" xlink:title="ideal_age_example::p3d">
<polygon fill="white" stroke="black" points="73,-256.5 73,-275.5 177,-275.5 177,-256.5 73,-256.5"/>
<text text-anchor="middle" x="125" y="-263.5" font-family="Helvetica,sans-Serif" font-size="10.00">ideal_age_example::p3d</text>
</a>
</g>
</g>
<!-- Node4&#45;&gt;Node1 -->
<g id="edge3" class="edge"><title>Node4&#45;&gt;Node1</title>
<path fill="none" stroke="#9a32cd" stroke-dasharray="5,2" d="M181.666,-254.143C206.566,-248.211 236.085,-240.304 262,-231 272.96,-227.065 284.615,-221.893 294.826,-217.007"/>
<polygon fill="#9a32cd" stroke="#9a32cd" points="180.601,-250.797 171.659,-256.48 182.193,-257.614 180.601,-250.797"/>
<text text-anchor="middle" x="228.5" y="-287" font-family="Helvetica,sans-Serif" font-size="10.00"> tr_adx</text>
<text text-anchor="middle" x="228.5" y="-276" font-family="Helvetica,sans-Serif" font-size="10.00">tr_dfx</text>
<text text-anchor="middle" x="228.5" y="-265" font-family="Helvetica,sans-Serif" font-size="10.00">tr_ady</text>
<text text-anchor="middle" x="228.5" y="-254" font-family="Helvetica,sans-Serif" font-size="10.00">tr_dfy</text>
</g>
<!-- Node5 -->
<g id="node5" class="node"><title>Node5</title>
<polygon fill="white" stroke="#bfbfbf" points="0,-284.5 0,-303.5 30,-303.5 30,-284.5 0,-284.5"/>
<text text-anchor="middle" x="15" y="-291.5" font-family="Helvetica,sans-Serif" font-size="10.00">real</text>
</g>
<!-- Node5&#45;&gt;Node1 -->
<g id="edge10" class="edge"><title>Node5&#45;&gt;Node1</title>
<path fill="none" stroke="#9a32cd" stroke-dasharray="5,2" d="M39.8976,-301.681C86.0841,-315.032 189.439,-337.516 262,-298 293.712,-280.73 311.67,-239.494 319.403,-217.098"/>
<polygon fill="#9a32cd" stroke="#9a32cd" points="40.771,-298.289 30.1867,-298.761 38.7553,-304.993 40.771,-298.289"/>
<text text-anchor="middle" x="125" y="-390" font-family="Helvetica,sans-Serif" font-size="10.00"> tr_aux</text>
<text text-anchor="middle" x="125" y="-379" font-family="Helvetica,sans-Serif" font-size="10.00">land_val</text>
<text text-anchor="middle" x="125" y="-368" font-family="Helvetica,sans-Serif" font-size="10.00">ic_val</text>
<text text-anchor="middle" x="125" y="-357" font-family="Helvetica,sans-Serif" font-size="10.00">young_val</text>
<text text-anchor="middle" x="125" y="-346" font-family="Helvetica,sans-Serif" font-size="10.00">tr</text>
<text text-anchor="start" x="105" y="-335" font-family="Helvetica,sans-Serif" font-size="10.00">sfc_growth</text>
<text text-anchor="middle" x="125" y="-324" font-family="Helvetica,sans-Serif" font-size="10.00">_rate</text>
</g>
<!-- Node5&#45;&gt;Node4 -->
<g id="edge4" class="edge"><title>Node5&#45;&gt;Node4</title>
<path fill="none" stroke="#9a32cd" stroke-dasharray="5,2" d="M39.8589,-287.814C53.7199,-284.221 71.4789,-279.617 87.1063,-275.565"/>
<polygon fill="#9a32cd" stroke="#9a32cd" points="38.9207,-284.442 30.1191,-290.339 40.6775,-291.218 38.9207,-284.442"/>
<text text-anchor="middle" x="51.5" y="-288" font-family="Helvetica,sans-Serif" font-size="10.00"> p</text>
</g>
<!-- Node6 -->
<g id="node6" class="node"><title>Node6</title>
<polygon fill="white" stroke="#bfbfbf" points="81,-215.5 81,-234.5 169,-234.5 169,-215.5 81,-215.5"/>
<text text-anchor="middle" x="125" y="-222.5" font-family="Helvetica,sans-Serif" font-size="10.00">tracer_registry_type</text>
</g>
<!-- Node6&#45;&gt;Node1 -->
<g id="edge5" class="edge"><title>Node6&#45;&gt;Node1</title>
<path fill="none" stroke="#9a32cd" stroke-dasharray="5,2" d="M179.788,-218.752C211.215,-215.101 250.383,-210.551 279.965,-207.115"/>
<polygon fill="#9a32cd" stroke="#9a32cd" points="178.981,-215.322 169.452,-219.953 179.789,-222.275 178.981,-215.322"/>
<text text-anchor="middle" x="228.5" y="-220" font-family="Helvetica,sans-Serif" font-size="10.00"> tr_reg</text>
</g>
<!-- Node7 -->
<g id="node7" class="node"><title>Node7</title>
<polygon fill="white" stroke="#bfbfbf" points="82.5,-177.5 82.5,-196.5 167.5,-196.5 167.5,-177.5 82.5,-177.5"/>
<text text-anchor="middle" x="125" y="-184.5" font-family="Helvetica,sans-Serif" font-size="10.00">character(len=200)</text>
</g>
<!-- Node7&#45;&gt;Node1 -->
<g id="edge6" class="edge"><title>Node7&#45;&gt;Node1</title>
<path fill="none" stroke="#9a32cd" stroke-dasharray="5,2" d="M177.719,-183.388C203.194,-182.429 234.31,-182.485 262,-186 267.845,-186.742 273.927,-187.863 279.898,-189.173"/>
<polygon fill="#9a32cd" stroke="#9a32cd" points="177.372,-179.899 167.535,-183.835 177.679,-186.893 177.372,-179.899"/>
<text text-anchor="middle" x="228.5" y="-189" font-family="Helvetica,sans-Serif" font-size="10.00"> ic_file</text>
</g>
<!-- Node8 -->
<g id="node8" class="node"><title>Node8</title>
<polygon fill="white" stroke="#bfbfbf" points="103,-139.5 103,-158.5 147,-158.5 147,-139.5 103,-139.5"/>
<text text-anchor="middle" x="125" y="-146.5" font-family="Helvetica,sans-Serif" font-size="10.00">vardesc</text>
</g>
<!-- Node8&#45;&gt;Node1 -->
<g id="edge7" class="edge"><title>Node8&#45;&gt;Node1</title>
<path fill="none" stroke="#9a32cd" stroke-dasharray="5,2" d="M157.297,-150.162C185.342,-151.951 227.287,-156.489 262,-168 275.75,-172.56 289.996,-180.14 301.361,-186.987"/>
<polygon fill="#9a32cd" stroke="#9a32cd" points="157.452,-146.666 147.273,-149.603 157.062,-153.655 157.452,-146.666"/>
<text text-anchor="middle" x="228.5" y="-171" font-family="Helvetica,sans-Serif" font-size="10.00"> tr_desc</text>
</g>
<!-- Node9 -->
<g id="node9" class="node"><title>Node9</title>
<polygon fill="white" stroke="#bfbfbf" points="77.5,-90 77.5,-120 172.5,-120 172.5,-90 77.5,-90"/>
<text text-anchor="start" x="85.5" y="-108" font-family="Helvetica,sans-Serif" font-size="10.00">type(mom_restart_cs)</text>
<text text-anchor="middle" x="125" y="-97" font-family="Helvetica,sans-Serif" font-size="10.00">, pointer</text>
</g>
<!-- Node9&#45;&gt;Node1 -->
<g id="edge8" class="edge"><title>Node9&#45;&gt;Node1</title>
<path fill="none" stroke="#9a32cd" stroke-dasharray="5,2" d="M182.66,-112.029C208.139,-116.939 237.843,-125.194 262,-139 283.184,-151.107 301.971,-172.477 313.166,-186.934"/>
<polygon fill="#9a32cd" stroke="#9a32cd" points="183.222,-108.574 172.76,-110.246 181.981,-115.463 183.222,-108.574"/>
<text text-anchor="middle" x="228.5" y="-142" font-family="Helvetica,sans-Serif" font-size="10.00"> restart_csp</text>
</g>
<!-- Node10 -->
<g id="node10" class="node"><title>Node10</title>
<polygon fill="white" stroke="#bfbfbf" points="101.5,-51.5 101.5,-70.5 148.5,-70.5 148.5,-51.5 101.5,-51.5"/>
<text text-anchor="middle" x="125" y="-58.5" font-family="Helvetica,sans-Serif" font-size="10.00">diag_ctrl</text>
</g>
<!-- Node10&#45;&gt;Node1 -->
<g id="edge9" class="edge"><title>Node10&#45;&gt;Node1</title>
<path fill="none" stroke="#9a32cd" stroke-dasharray="5,2" d="M158.93,-63.9787C188.505,-68.1047 231.798,-77.8895 262,-101 291.576,-123.631 310.323,-164.749 318.769,-186.9"/>
<polygon fill="#9a32cd" stroke="#9a32cd" points="159.061,-60.4679 148.704,-62.7004 158.192,-67.4138 159.061,-60.4679"/>
<text text-anchor="middle" x="228.5" y="-104" font-family="Helvetica,sans-Serif" font-size="10.00"> diag</text>
</g>
<!-- Node11 -->
<g id="node11" class="node"><title>Node11</title>
<polygon fill="white" stroke="#bfbfbf" points="104.5,-0.5 104.5,-19.5 145.5,-19.5 145.5,-0.5 104.5,-0.5"/>
<text text-anchor="middle" x="125" y="-7.5" font-family="Helvetica,sans-Serif" font-size="10.00">integer</text>
</g>
<!-- Node11&#45;&gt;Node1 -->
<g id="edge11" class="edge"><title>Node11&#45;&gt;Node1</title>
<path fill="none" stroke="#9a32cd" stroke-dasharray="5,2" d="M155.944,-7.50722C186.125,-6.65483 232.365,-10.1119 262,-35 309.247,-74.679 320.508,-153.934 323.177,-186.985"/>
<polygon fill="#9a32cd" stroke="#9a32cd" points="155.439,-4.0267 145.611,-7.98453 155.762,-11.0192 155.439,-4.0267"/>
<text text-anchor="middle" x="228.5" y="-60" font-family="Helvetica,sans-Serif" font-size="10.00"> ntr</text>
<text text-anchor="middle" x="228.5" y="-49" font-family="Helvetica,sans-Serif" font-size="10.00">nkml</text>
<text text-anchor="middle" x="228.5" y="-38" font-family="Helvetica,sans-Serif" font-size="10.00">ind_tr</text>
</g>
</g>
</svg>
        <g id="navigator" transform="translate(0 0)" fill="#404254">
                <rect fill="#f2f5e9" fill-opacity="0.5" stroke="#606060" stroke-width=".5" x="0" y="0" width="60" height="60"/>
                <use id="zoomplus" xlink:href="#zoomPlus" x="17" y="9" onmousedown="handleZoom(evt,'in')"/>
                <use id="zoomminus" xlink:href="#zoomMin" x="42" y="9" onmousedown="handleZoom(evt,'out')"/>
                <use id="reset" xlink:href="#resetDef" x="30" y="36" onmousedown="handleReset()"/>
                <g id="arrowUp" xlink:href="#dirArrow" transform="translate(30 24)" onmousedown="handlePan(0,-1)">
                  <use xlink:href="#rim" fill="#404040">
                        <set attributeName="fill" to="#808080" begin="arrowUp.mouseover" end="arrowUp.mouseout"/>
                  </use>
                  <path fill="none" stroke="white" stroke-width="1.5" d="M0,-3.0v7 M-2.5,-0.5L0,-3.0L2.5,-0.5"/>
                </g>
                <g id="arrowRight" xlink:href="#dirArrow" transform="rotate(90) translate(36 -43)" onmousedown="handlePan(1,0)">
                  <use xlink:href="#rim" fill="#404040">
                        <set attributeName="fill" to="#808080" begin="arrowRight.mouseover" end="arrowRight.mouseout"/>
                  </use>
                  <path fill="none" stroke="white" stroke-width="1.5" d="M0,-3.0v7 M-2.5,-0.5L0,-3.0L2.5,-0.5"/>
                </g>
                <g id="arrowDown" xlink:href="#dirArrow" transform="rotate(180) translate(-30 -48)" onmousedown="handlePan(0,1)">
                  <use xlink:href="#rim" fill="#404040">
                        <set attributeName="fill" to="#808080" begin="arrowDown.mouseover" end="arrowDown.mouseout"/>
                  </use>
                  <path fill="none" stroke="white" stroke-width="1.5" d="M0,-3.0v7 M-2.5,-0.5L0,-3.0L2.5,-0.5"/>
                </g>
                <g id="arrowLeft" xlink:href="#dirArrow" transform="rotate(270) translate(-36 17)" onmousedown="handlePan(-1,0)">
                  <use xlink:href="#rim" fill="#404040">
                        <set attributeName="fill" to="#808080" begin="arrowLeft.mouseover" end="arrowLeft.mouseout"/>
                  </use>
                  <path fill="none" stroke="white" stroke-width="1.5" d="M0,-3.0v7 M-2.5,-0.5L0,-3.0L2.5,-0.5"/>
                </g>
        </g>
        <svg viewBox="0 0 15 15" width="100%" height="30px" preserveAspectRatio="xMaxYMin meet">
         <g id="arrow_out" transform="scale(0.3 0.3)">
          <a xlink:href="structideal__age__example_1_1ideal__age__tracer__cs__coll__graph_org.svg" target="_base">
           <rect id="button" ry="5" rx="5" y="6" x="6" height="38" width="38"
                fill="#f2f5e9" fill-opacity="0.5" stroke="#606060" stroke-width="1.0"/>
           <path id="arrow"
             d="M 11.500037,31.436501 C 11.940474,20.09759 22.043105,11.32322 32.158766,21.979434 L 37.068811,17.246167 C 37.068811,17.246167 37.088388,32 37.088388,32 L 22.160133,31.978069 C 22.160133,31.978069 26.997745,27.140456 26.997745,27.140456 C 18.528582,18.264221 13.291696,25.230495 11.500037,31.436501 z"
             style="fill:#404040;"/>
          </a>
         </g>
        </svg>
</svg>
