<?xml version="1.0" encoding="UTF-8" standalone="no"?>
<!DOCTYPE svg PUBLIC "-//W3C//DTD SVG 1.1//EN"
 "http://www.w3.org/Graphics/SVG/1.1/DTD/svg11.dtd">
<!-- Generated by graphviz version 2.38.0 (20140413.2041)
 -->
<!-- Title: mom_hor_visc::hor_visc_cs Pages: 1 -->
<svg width="306pt" height="205pt"
 viewBox="0.00 0.00 306.00 205.00" xmlns="http://www.w3.org/2000/svg" xmlns:xlink="http://www.w3.org/1999/xlink">
<g id="graph0" class="graph" transform="scale(1 1) rotate(0) translate(4 201)">
<title>mom_hor_visc::hor_visc_cs</title>
<polygon fill="white" stroke="none" points="-4,4 -4,-201 302,-201 302,4 -4,4"/>
<!-- Node1 -->
<g id="node1" class="node"><title>Node1</title>
<polygon fill="#bfbfbf" stroke="black" points="72,-0.5 72,-19.5 186,-19.5 186,-0.5 72,-0.5"/>
<text text-anchor="middle" x="129" y="-7.5" font-family="Helvetica,sans-Serif" font-size="10.00">mom_hor_visc::hor_visc_cs</text>
</g>
<!-- Node2 -->
<g id="node2" class="node"><title>Node2</title>
<polygon fill="white" stroke="#bfbfbf" points="0,-177.5 0,-196.5 38,-196.5 38,-177.5 0,-177.5"/>
<text text-anchor="middle" x="19" y="-184.5" font-family="Helvetica,sans-Serif" font-size="10.00">logical</text>
</g>
<!-- Node2&#45;&gt;Node1 -->
<g id="edge1" class="edge"><title>Node2&#45;&gt;Node1</title>
<path fill="none" stroke="#9a32cd" stroke-dasharray="5,2" d="M14.6884,-167.226C8.80302,-136.423 2.20603,-74.8977 33,-38 42.7622,-26.3028 57.1567,-19.4569 71.8452,-15.5094"/>
<polygon fill="#9a32cd" stroke="#9a32cd" points="11.3473,-168.346 16.8298,-177.412 18.1975,-166.906 11.3473,-168.346"/>
<text text-anchor="middle" x="64" y="-151" font-family="Helvetica,sans-Serif" font-size="10.00"> bound_ah</text>
<text text-anchor="middle" x="64" y="-140" font-family="Helvetica,sans-Serif" font-size="10.00">better_bound_kh</text>
<text text-anchor="middle" x="64" y="-129" font-family="Helvetica,sans-Serif" font-size="10.00">better_bound_ah</text>
<text text-anchor="middle" x="64" y="-118" font-family="Helvetica,sans-Serif" font-size="10.00">biharmonic</text>
<text text-anchor="middle" x="64" y="-107" font-family="Helvetica,sans-Serif" font-size="10.00">smagorinsky_kh</text>
<text text-anchor="middle" x="64" y="-96" font-family="Helvetica,sans-Serif" font-size="10.00">bound_kh</text>
<text text-anchor="middle" x="64" y="-85" font-family="Helvetica,sans-Serif" font-size="10.00">no_slip</text>
<text text-anchor="middle" x="64" y="-74" font-family="Helvetica,sans-Serif" font-size="10.00">laplacian</text>
<text text-anchor="middle" x="64" y="-63" font-family="Helvetica,sans-Serif" font-size="10.00">smagorinsky_ah</text>
<text text-anchor="middle" x="64" y="-52" font-family="Helvetica,sans-Serif" font-size="10.00">bound_coriolis</text>
<text text-anchor="middle" x="64" y="-41" font-family="Helvetica,sans-Serif" font-size="10.00">...</text>
</g>
<!-- Node3 -->
<g id="node3" class="node"><title>Node3</title>
<polygon fill="white" stroke="#bfbfbf" points="74.5,-177.5 74.5,-196.5 121.5,-196.5 121.5,-177.5 74.5,-177.5"/>
<text text-anchor="middle" x="98" y="-184.5" font-family="Helvetica,sans-Serif" font-size="10.00">diag_ctrl</text>
</g>
<!-- Node3&#45;&gt;Node1 -->
<g id="edge2" class="edge"><title>Node3&#45;&gt;Node1</title>
<path fill="none" stroke="#9a32cd" stroke-dasharray="5,2" d="M97.9948,-167.304C98.4624,-138.79 101.258,-83.0029 115,-38 116.974,-31.536 120.474,-24.786 123.48,-19.652"/>
<polygon fill="#9a32cd" stroke="#9a32cd" points="94.4939,-167.408 97.9116,-177.437 101.494,-167.466 94.4939,-167.408"/>
<text text-anchor="middle" x="124" y="-96" font-family="Helvetica,sans-Serif" font-size="10.00"> diag</text>
</g>
<!-- Node4 -->
<g id="node4" class="node"><title>Node4</title>
<polygon fill="white" stroke="#bfbfbf" points="139.5,-177.5 139.5,-196.5 180.5,-196.5 180.5,-177.5 139.5,-177.5"/>
<text text-anchor="middle" x="160" y="-184.5" font-family="Helvetica,sans-Serif" font-size="10.00">integer</text>
</g>
<!-- Node4&#45;&gt;Node1 -->
<g id="edge3" class="edge"><title>Node4&#45;&gt;Node1</title>
<path fill="none" stroke="#9a32cd" stroke-dasharray="5,2" d="M156.626,-166.951C149.955,-129.297 135.316,-46.6537 130.54,-19.6932"/>
<polygon fill="#9a32cd" stroke="#9a32cd" points="153.229,-167.845 158.42,-177.081 160.122,-166.624 153.229,-167.845"/>
<text text-anchor="middle" x="181.5" y="-134.5" font-family="Helvetica,sans-Serif" font-size="10.00"> id_frictwork</text>
<text text-anchor="middle" x="181.5" y="-123.5" font-family="Helvetica,sans-Serif" font-size="10.00">id_ah_q</text>
<text text-anchor="middle" x="181.5" y="-112.5" font-family="Helvetica,sans-Serif" font-size="10.00">id_frictworkintz</text>
<text text-anchor="middle" x="181.5" y="-101.5" font-family="Helvetica,sans-Serif" font-size="10.00">id_ah_h</text>
<text text-anchor="middle" x="181.5" y="-90.5" font-family="Helvetica,sans-Serif" font-size="10.00">id_kh_q</text>
<text text-anchor="middle" x="181.5" y="-79.5" font-family="Helvetica,sans-Serif" font-size="10.00">id_kh_h</text>
<text text-anchor="middle" x="181.5" y="-68.5" font-family="Helvetica,sans-Serif" font-size="10.00">id_diffu</text>
<text text-anchor="middle" x="181.5" y="-57.5" font-family="Helvetica,sans-Serif" font-size="10.00">id_diffv</text>
</g>
<!-- Node5 -->
<g id="node5" class="node"><title>Node5</title>
<polygon fill="white" stroke="#bfbfbf" points="216,-177.5 216,-196.5 246,-196.5 246,-177.5 216,-177.5"/>
<text text-anchor="middle" x="231" y="-184.5" font-family="Helvetica,sans-Serif" font-size="10.00">real</text>
</g>
<!-- Node5&#45;&gt;Node1 -->
<g id="edge4" class="edge"><title>Node5&#45;&gt;Node1</title>
<path fill="none" stroke="#9a32cd" stroke-dasharray="5,2" d="M233.905,-167.273C237.558,-136.537 240.03,-75.1075 209,-38 201.854,-29.4537 191.899,-23.6022 181.435,-19.5985"/>
<polygon fill="#9a32cd" stroke="#9a32cd" points="230.402,-167.053 232.514,-177.435 237.338,-168.002 230.402,-167.053"/>
<text text-anchor="middle" x="266.5" y="-151" font-family="Helvetica,sans-Serif" font-size="10.00"> biharm_const_xx</text>
<text text-anchor="middle" x="266.5" y="-140" font-family="Helvetica,sans-Serif" font-size="10.00">kh_bg_xy</text>
<text text-anchor="middle" x="266.5" y="-129" font-family="Helvetica,sans-Serif" font-size="10.00">biharm_const_xy</text>
<text text-anchor="middle" x="266.5" y="-118" font-family="Helvetica,sans-Serif" font-size="10.00">laplac_const_xx</text>
<text text-anchor="middle" x="266.5" y="-107" font-family="Helvetica,sans-Serif" font-size="10.00">laplac_const_xy</text>
<text text-anchor="middle" x="266.5" y="-96" font-family="Helvetica,sans-Serif" font-size="10.00">dx_dyt</text>
<text text-anchor="middle" x="266.5" y="-85" font-family="Helvetica,sans-Serif" font-size="10.00">dy_dxt</text>
<text text-anchor="middle" x="266.5" y="-74" font-family="Helvetica,sans-Serif" font-size="10.00">idx2dycu</text>
<text text-anchor="middle" x="266.5" y="-63" font-family="Helvetica,sans-Serif" font-size="10.00">dx2h</text>
<text text-anchor="middle" x="266.5" y="-52" font-family="Helvetica,sans-Serif" font-size="10.00">idx2dycv</text>
<text text-anchor="middle" x="266.5" y="-41" font-family="Helvetica,sans-Serif" font-size="10.00">...</text>
</g>
</g>
</svg>
