<?xml version="1.0" encoding="UTF-8" standalone="no"?>
<!DOCTYPE svg PUBLIC "-//W3C//DTD SVG 1.1//EN"
 "http://www.w3.org/Graphics/SVG/1.1/DTD/svg11.dtd">
<!-- Generated by graphviz version 2.38.0 (20140413.2041)
 -->
<!-- Title: dome_tracer::dome_tracer_cs Pages: 1 -->
<svg width="388pt" height="423pt"
 viewBox="0.00 0.00 388.00 423.00" xmlns="http://www.w3.org/2000/svg" xmlns:xlink="http://www.w3.org/1999/xlink">
<g id="graph0" class="graph" transform="scale(1 1) rotate(0) translate(4 419)">
<title>dome_tracer::dome_tracer_cs</title>
<polygon fill="white" stroke="none" points="-4,4 -4,-419 384,-419 384,4 -4,4"/>
<!-- Node1 -->
<g id="node1" class="node"><title>Node1</title>
<polygon fill="#bfbfbf" stroke="black" points="255,-218.5 255,-237.5 380,-237.5 380,-218.5 255,-218.5"/>
<text text-anchor="middle" x="317.5" y="-225.5" font-family="Helvetica,sans-Serif" font-size="10.00">dome_tracer::dome_tracer_cs</text>
</g>
<!-- Node2 -->
<g id="node2" class="node"><title>Node2</title>
<polygon fill="white" stroke="#bfbfbf" points="98,-384.5 98,-403.5 136,-403.5 136,-384.5 98,-384.5"/>
<text text-anchor="middle" x="117" y="-391.5" font-family="Helvetica,sans-Serif" font-size="10.00">logical</text>
</g>
<!-- Node2&#45;&gt;Node1 -->
<g id="edge1" class="edge"><title>Node2&#45;&gt;Node1</title>
<path fill="none" stroke="#9a32cd" stroke-dasharray="5,2" d="M146.278,-390.327C172.158,-385.758 210.366,-375.846 237,-355 278.787,-322.294 304.459,-261.067 313.165,-237.543"/>
<polygon fill="#9a32cd" stroke="#9a32cd" points="145.662,-386.881 136.346,-391.926 146.775,-393.792 145.662,-386.881"/>
<text text-anchor="middle" x="208" y="-407" font-family="Helvetica,sans-Serif" font-size="10.00"> use_sponge</text>
<text text-anchor="middle" x="208" y="-396" font-family="Helvetica,sans-Serif" font-size="10.00">coupled_tracers</text>
<text text-anchor="middle" x="208" y="-385" font-family="Helvetica,sans-Serif" font-size="10.00">mask_tracers</text>
</g>
<!-- Node3 -->
<g id="node3" class="node"><title>Node3</title>
<polygon fill="white" stroke="#bfbfbf" points="91.5,-346.5 91.5,-365.5 142.5,-365.5 142.5,-346.5 91.5,-346.5"/>
<text text-anchor="middle" x="117" y="-353.5" font-family="Helvetica,sans-Serif" font-size="10.00">time_type</text>
</g>
<!-- Node3&#45;&gt;Node1 -->
<g id="edge2" class="edge"><title>Node3&#45;&gt;Node1</title>
<path fill="none" stroke="#9a32cd" stroke-dasharray="5,2" d="M152.609,-348.918C177.523,-342.71 211.155,-331.974 237,-315 269.836,-293.435 298.137,-255.28 310.235,-237.55"/>
<polygon fill="#9a32cd" stroke="#9a32cd" points="151.775,-345.519 142.851,-351.231 153.389,-352.33 151.775,-345.519"/>
<text text-anchor="middle" x="208" y="-343" font-family="Helvetica,sans-Serif" font-size="10.00"> time</text>
</g>
<!-- Node4 -->
<g id="node4" class="node"><title>Node4</title>
<polygon fill="white" stroke="#bfbfbf" points="73,-308.5 73,-327.5 161,-327.5 161,-308.5 73,-308.5"/>
<text text-anchor="middle" x="117" y="-315.5" font-family="Helvetica,sans-Serif" font-size="10.00">tracer_registry_type</text>
</g>
<!-- Node4&#45;&gt;Node1 -->
<g id="edge3" class="edge"><title>Node4&#45;&gt;Node1</title>
<path fill="none" stroke="#9a32cd" stroke-dasharray="5,2" d="M163.19,-305.578C185.847,-298.662 213.412,-289.187 237,-278 261.75,-266.262 288.253,-248.397 303.55,-237.502"/>
<polygon fill="#9a32cd" stroke="#9a32cd" points="162.062,-302.262 153.482,-308.477 164.066,-308.969 162.062,-302.262"/>
<text text-anchor="middle" x="208" y="-303" font-family="Helvetica,sans-Serif" font-size="10.00"> tr_reg</text>
</g>
<!-- Node5 -->
<g id="node5" class="node"><title>Node5</title>
<polygon fill="white" stroke="#bfbfbf" points="74.5,-270.5 74.5,-289.5 159.5,-289.5 159.5,-270.5 74.5,-270.5"/>
<text text-anchor="middle" x="117" y="-277.5" font-family="Helvetica,sans-Serif" font-size="10.00">character(len=200)</text>
</g>
<!-- Node5&#45;&gt;Node1 -->
<g id="edge4" class="edge"><title>Node5&#45;&gt;Node1</title>
<path fill="none" stroke="#9a32cd" stroke-dasharray="5,2" d="M164.451,-267.832C199.691,-258.6 247.458,-246.086 279.987,-237.565"/>
<polygon fill="#9a32cd" stroke="#9a32cd" points="163.195,-264.542 154.408,-270.462 164.969,-271.314 163.195,-264.542"/>
<text text-anchor="middle" x="208" y="-266" font-family="Helvetica,sans-Serif" font-size="10.00"> tracer_ic_file</text>
</g>
<!-- Node6 -->
<g id="node6" class="node"><title>Node6</title>
<g id="a_node6"><a xlink:href="../../de/deb/structdome__tracer_1_1p3d.html" target="_top" xlink:title="dome_tracer::p3d">
<polygon fill="white" stroke="black" points="77,-163.5 77,-182.5 157,-182.5 157,-163.5 77,-163.5"/>
<text text-anchor="middle" x="117" y="-170.5" font-family="Helvetica,sans-Serif" font-size="10.00">dome_tracer::p3d</text>
</a>
</g>
</g>
<!-- Node6&#45;&gt;Node1 -->
<g id="edge5" class="edge"><title>Node6&#45;&gt;Node1</title>
<path fill="none" stroke="#9a32cd" stroke-dasharray="5,2" d="M167.326,-164.444C189.165,-162.5 214.864,-162.784 237,-170 266.238,-179.532 293.664,-204.334 307.371,-218.22"/>
<polygon fill="#9a32cd" stroke="#9a32cd" points="166.842,-160.976 157.27,-165.517 167.585,-167.936 166.842,-160.976"/>
<text text-anchor="middle" x="208" y="-206" font-family="Helvetica,sans-Serif" font-size="10.00"> tr_adx</text>
<text text-anchor="middle" x="208" y="-195" font-family="Helvetica,sans-Serif" font-size="10.00">tr_dfx</text>
<text text-anchor="middle" x="208" y="-184" font-family="Helvetica,sans-Serif" font-size="10.00">tr_ady</text>
<text text-anchor="middle" x="208" y="-173" font-family="Helvetica,sans-Serif" font-size="10.00">tr_dfy</text>
</g>
<!-- Node7 -->
<g id="node7" class="node"><title>Node7</title>
<polygon fill="white" stroke="#bfbfbf" points="0,-191.5 0,-210.5 30,-210.5 30,-191.5 0,-191.5"/>
<text text-anchor="middle" x="15" y="-198.5" font-family="Helvetica,sans-Serif" font-size="10.00">real</text>
</g>
<!-- Node7&#45;&gt;Node1 -->
<g id="edge10" class="edge"><title>Node7&#45;&gt;Node1</title>
<path fill="none" stroke="#9a32cd" stroke-dasharray="5,2" d="M40.036,-204.107C42.7211,-204.423 45.4178,-204.728 48,-205 118.839,-212.459 200.387,-219.181 254.85,-223.404"/>
<polygon fill="#9a32cd" stroke="#9a32cd" points="40.3585,-200.62 30.0054,-202.87 39.5021,-207.568 40.3585,-200.62"/>
<text text-anchor="middle" x="117" y="-240" font-family="Helvetica,sans-Serif" font-size="10.00"> tr_aux</text>
<text text-anchor="middle" x="117" y="-229" font-family="Helvetica,sans-Serif" font-size="10.00">land_val</text>
<text text-anchor="middle" x="117" y="-218" font-family="Helvetica,sans-Serif" font-size="10.00">tr</text>
</g>
<!-- Node7&#45;&gt;Node6 -->
<g id="edge6" class="edge"><title>Node7&#45;&gt;Node6</title>
<path fill="none" stroke="#9a32cd" stroke-dasharray="5,2" d="M40.0347,-194.27C52.5583,-190.764 68.0897,-186.415 81.8392,-182.565"/>
<polygon fill="#9a32cd" stroke="#9a32cd" points="39.0135,-190.922 30.3276,-196.988 40.9009,-197.662 39.0135,-190.922"/>
<text text-anchor="middle" x="51.5" y="-194" font-family="Helvetica,sans-Serif" font-size="10.00"> p</text>
</g>
<!-- Node8 -->
<g id="node8" class="node"><title>Node8</title>
<polygon fill="white" stroke="#bfbfbf" points="95,-125.5 95,-144.5 139,-144.5 139,-125.5 95,-125.5"/>
<text text-anchor="middle" x="117" y="-132.5" font-family="Helvetica,sans-Serif" font-size="10.00">vardesc</text>
</g>
<!-- Node8&#45;&gt;Node1 -->
<g id="edge7" class="edge"><title>Node8&#45;&gt;Node1</title>
<path fill="none" stroke="#9a32cd" stroke-dasharray="5,2" d="M149.378,-132.856C174.322,-132.429 209.473,-134.748 237,-148 270.697,-164.223 298.366,-200.77 310.244,-218.284"/>
<polygon fill="#9a32cd" stroke="#9a32cd" points="149.246,-129.358 139.365,-133.184 149.474,-136.355 149.246,-129.358"/>
<text text-anchor="middle" x="208" y="-151" font-family="Helvetica,sans-Serif" font-size="10.00"> tr_desc</text>
</g>
<!-- Node9 -->
<g id="node9" class="node"><title>Node9</title>
<polygon fill="white" stroke="#bfbfbf" points="93.5,-87.5 93.5,-106.5 140.5,-106.5 140.5,-87.5 93.5,-87.5"/>
<text text-anchor="middle" x="117" y="-94.5" font-family="Helvetica,sans-Serif" font-size="10.00">diag_ctrl</text>
</g>
<!-- Node9&#45;&gt;Node1 -->
<g id="edge8" class="edge"><title>Node9&#45;&gt;Node1</title>
<path fill="none" stroke="#9a32cd" stroke-dasharray="5,2" d="M151.048,-96.3047C176.351,-97.2386 211.18,-101.818 237,-118 277.131,-143.151 303.253,-196.619 312.625,-218.432"/>
<polygon fill="#9a32cd" stroke="#9a32cd" points="150.908,-92.8013 140.841,-96.1044 150.77,-99.8 150.908,-92.8013"/>
<text text-anchor="middle" x="208" y="-121" font-family="Helvetica,sans-Serif" font-size="10.00"> diag</text>
</g>
<!-- Node10 -->
<g id="node10" class="node"><title>Node10</title>
<polygon fill="white" stroke="#bfbfbf" points="96.5,-0.5 96.5,-19.5 137.5,-19.5 137.5,-0.5 96.5,-0.5"/>
<text text-anchor="middle" x="117" y="-7.5" font-family="Helvetica,sans-Serif" font-size="10.00">integer</text>
</g>
<!-- Node10&#45;&gt;Node1 -->
<g id="edge9" class="edge"><title>Node10&#45;&gt;Node1</title>
<path fill="none" stroke="#9a32cd" stroke-dasharray="5,2" d="M147.749,-7.35783C174.004,-6.64972 211.899,-9.79545 237,-30 299.039,-79.9382 312.946,-185.653 315.81,-218.233"/>
<polygon fill="#9a32cd" stroke="#9a32cd" points="147.448,-3.86805 137.624,-7.83545 147.778,-10.8603 147.448,-3.86805"/>
<text text-anchor="middle" x="208" y="-88" font-family="Helvetica,sans-Serif" font-size="10.00"> id_tracer</text>
<text text-anchor="middle" x="208" y="-77" font-family="Helvetica,sans-Serif" font-size="10.00">id_tr_dfx</text>
<text text-anchor="middle" x="208" y="-66" font-family="Helvetica,sans-Serif" font-size="10.00">id_tr_dfy</text>
<text text-anchor="middle" x="208" y="-55" font-family="Helvetica,sans-Serif" font-size="10.00">id_tr_adx</text>
<text text-anchor="middle" x="208" y="-44" font-family="Helvetica,sans-Serif" font-size="10.00">ind_tr</text>
<text text-anchor="middle" x="208" y="-33" font-family="Helvetica,sans-Serif" font-size="10.00">id_tr_ady</text>
</g>
</g>
</svg>
