<?xml version="1.0" encoding="UTF-8" standalone="no"?>
<!DOCTYPE svg PUBLIC "-//W3C//DTD SVG 1.1//EN"
 "http://www.w3.org/Graphics/SVG/1.1/DTD/svg11.dtd">
<!-- Generated by graphviz version 2.38.0 (20140413.2041)
 -->
<!-- Title: mom_pressureforce_afv::pressureforce_afv_bouss Pages: 1 -->
<svg width="259pt" height="39pt"
 viewBox="0.00 0.00 259.00 39.00" xmlns="http://www.w3.org/2000/svg" xmlns:xlink="http://www.w3.org/1999/xlink">
<g id="graph0" class="graph" transform="scale(1 1) rotate(0) translate(4 35)">
<title>mom_pressureforce_afv::pressureforce_afv_bouss</title>
<polygon fill="white" stroke="none" points="-4,4 -4,-35 255,-35 255,4 -4,4"/>
<!-- Node14 -->
<g id="node1" class="node"><title>Node14</title>
<polygon fill="#bfbfbf" stroke="black" points="0,-0.5 0,-30.5 111,-30.5 111,-0.5 0,-0.5"/>
<text text-anchor="start" x="8" y="-18.5" font-family="Helvetica,sans-Serif" font-size="10.00">mom_pressureforce_afv</text>
<text text-anchor="middle" x="55.5" y="-7.5" font-family="Helvetica,sans-Serif" font-size="10.00">::pressureforce_afv_bouss</text>
</g>
<!-- Node15 -->
<g id="node2" class="node"><title>Node15</title>
<g id="a_node2"><a xlink:href="../../d3/d77/namespacemom__pressureforce__afv.html#aa3fa5f17809b17fc1c065fb5ba6a11dc" target="_top" xlink:title="mom_pressureforce_afv\l::pressureforce_afv">
<polygon fill="white" stroke="black" points="147,-0.5 147,-30.5 251,-30.5 251,-0.5 147,-0.5"/>
<text text-anchor="start" x="155" y="-18.5" font-family="Helvetica,sans-Serif" font-size="10.00">mom_pressureforce_afv</text>
<text text-anchor="middle" x="199" y="-7.5" font-family="Helvetica,sans-Serif" font-size="10.00">::pressureforce_afv</text>
</a>
</g>
</g>
<!-- Node14&#45;&gt;Node15 -->
<g id="edge1" class="edge"><title>Node14&#45;&gt;Node15</title>
<path fill="none" stroke="midnightblue" d="M121.445,-15.5C129.91,-15.5 138.486,-15.5 146.685,-15.5"/>
<polygon fill="midnightblue" stroke="midnightblue" points="121.208,-12.0001 111.208,-15.5 121.208,-19.0001 121.208,-12.0001"/>
</g>
</g>
</svg>
