<?xml version="1.0" encoding="UTF-8" standalone="no"?>
<!DOCTYPE svg PUBLIC "-//W3C//DTD SVG 1.1//EN"
 "http://www.w3.org/Graphics/SVG/1.1/DTD/svg11.dtd">
<!-- Generated by graphviz version 2.38.0 (20140413.2041)
 -->
<!-- Title: mom_hor_visc::hor_visc_init Pages: 1 -->
<svg width="259pt" height="218pt"
 viewBox="0.00 0.00 259.00 218.00" xmlns="http://www.w3.org/2000/svg" xmlns:xlink="http://www.w3.org/1999/xlink">
<g id="graph0" class="graph" transform="scale(1 1) rotate(0) translate(4 214)">
<title>mom_hor_visc::hor_visc_init</title>
<polygon fill="white" stroke="none" points="-4,4 -4,-214 255,-214 255,4 -4,4"/>
<!-- Node6 -->
<g id="node1" class="node"><title>Node6</title>
<polygon fill="#bfbfbf" stroke="black" points="0,-92.5 0,-111.5 116,-111.5 116,-92.5 0,-92.5"/>
<text text-anchor="middle" x="58" y="-99.5" font-family="Helvetica,sans-Serif" font-size="10.00">mom_hor_visc::hor_visc_init</text>
</g>
<!-- Node7 -->
<g id="node2" class="node"><title>Node7</title>
<g id="a_node2"><a xlink:href="../../db/dd4/namespacemom__dynamics__legacy__split.html#aef55fe2e12672940edbd2dc5d7e72fd7" target="_top" xlink:title="mom_dynamics_legacy\l_split::initialize_dyn\l_legacy_split">
<polygon fill="white" stroke="black" points="152,-168.5 152,-209.5 251,-209.5 251,-168.5 152,-168.5"/>
<text text-anchor="start" x="160" y="-197.5" font-family="Helvetica,sans-Serif" font-size="10.00">mom_dynamics_legacy</text>
<text text-anchor="start" x="160" y="-186.5" font-family="Helvetica,sans-Serif" font-size="10.00">_split::initialize_dyn</text>
<text text-anchor="middle" x="201.5" y="-175.5" font-family="Helvetica,sans-Serif" font-size="10.00">_legacy_split</text>
</a>
</g>
</g>
<!-- Node6&#45;&gt;Node7 -->
<g id="edge1" class="edge"><title>Node6&#45;&gt;Node7</title>
<path fill="none" stroke="midnightblue" d="M83.2029,-116.881C106.299,-131.081 141.293,-152.597 167.051,-168.434"/>
<polygon fill="midnightblue" stroke="midnightblue" points="85.0355,-113.899 74.6836,-111.643 81.3691,-119.862 85.0355,-113.899"/>
</g>
<!-- Node8 -->
<g id="node3" class="node"><title>Node8</title>
<g id="a_node3"><a xlink:href="../../d1/dc3/namespacemom__dynamics__split__rk2.html#a3bae09afc9136333ab281704dc9d9415" target="_top" xlink:title="This subroutine initializes all of the variables that are used by this dynamic core, including diagnostics and the cpu clocks. ">
<polygon fill="white" stroke="black" points="156.5,-108.5 156.5,-149.5 246.5,-149.5 246.5,-108.5 156.5,-108.5"/>
<text text-anchor="start" x="164.5" y="-137.5" font-family="Helvetica,sans-Serif" font-size="10.00">mom_dynamics_split</text>
<text text-anchor="start" x="164.5" y="-126.5" font-family="Helvetica,sans-Serif" font-size="10.00">_rk2::initialize_dyn</text>
<text text-anchor="middle" x="201.5" y="-115.5" font-family="Helvetica,sans-Serif" font-size="10.00">_split_rk2</text>
</a>
</g>
</g>
<!-- Node6&#45;&gt;Node8 -->
<g id="edge2" class="edge"><title>Node6&#45;&gt;Node8</title>
<path fill="none" stroke="midnightblue" d="M118.819,-113.414C131.367,-115.809 144.385,-118.293 156.242,-120.555"/>
<polygon fill="midnightblue" stroke="midnightblue" points="119.366,-109.956 108.888,-111.519 118.054,-116.832 119.366,-109.956"/>
</g>
<!-- Node9 -->
<g id="node4" class="node"><title>Node9</title>
<g id="a_node4"><a xlink:href="../../d7/d44/namespacemom__dynamics__unsplit.html#ac557a7a55605cba7a17074f6375107f6" target="_top" xlink:title="mom_dynamics_unsplit\l::initialize_dyn_unsplit">
<polygon fill="white" stroke="black" points="152,-60 152,-90 251,-90 251,-60 152,-60"/>
<text text-anchor="start" x="160" y="-78" font-family="Helvetica,sans-Serif" font-size="10.00">mom_dynamics_unsplit</text>
<text text-anchor="middle" x="201.5" y="-67" font-family="Helvetica,sans-Serif" font-size="10.00">::initialize_dyn_unsplit</text>
</a>
</g>
</g>
<!-- Node6&#45;&gt;Node9 -->
<g id="edge3" class="edge"><title>Node6&#45;&gt;Node9</title>
<path fill="none" stroke="midnightblue" d="M118.784,-90.5924C129.704,-88.5089 140.98,-86.3572 151.539,-84.3424"/>
<polygon fill="midnightblue" stroke="midnightblue" points="118.054,-87.1684 108.888,-92.4808 119.366,-94.0444 118.054,-87.1684"/>
</g>
<!-- Node10 -->
<g id="node5" class="node"><title>Node10</title>
<g id="a_node5"><a xlink:href="../../d7/da4/namespacemom__dynamics__unsplit__rk2.html#a7be251effa3bf4a236ea3feda6fc6d91" target="_top" xlink:title="mom_dynamics_unsplit\l_rk2::initialize_dyn\l_unsplit_rk2">
<polygon fill="white" stroke="black" points="152,-0.5 152,-41.5 251,-41.5 251,-0.5 152,-0.5"/>
<text text-anchor="start" x="160" y="-29.5" font-family="Helvetica,sans-Serif" font-size="10.00">mom_dynamics_unsplit</text>
<text text-anchor="start" x="160" y="-18.5" font-family="Helvetica,sans-Serif" font-size="10.00">_rk2::initialize_dyn</text>
<text text-anchor="middle" x="201.5" y="-7.5" font-family="Helvetica,sans-Serif" font-size="10.00">_unsplit_rk2</text>
</a>
</g>
</g>
<!-- Node6&#45;&gt;Node10 -->
<g id="edge4" class="edge"><title>Node6&#45;&gt;Node10</title>
<path fill="none" stroke="midnightblue" d="M84.6734,-87.3035C106.994,-74.5262 139.573,-55.8769 164.498,-41.6091"/>
<polygon fill="midnightblue" stroke="midnightblue" points="82.7274,-84.3846 75.7876,-92.3902 86.2051,-90.4596 82.7274,-84.3846"/>
</g>
</g>
</svg>
