<?xml version="1.0" encoding="UTF-8" standalone="no"?>
<!DOCTYPE svg PUBLIC "-//W3C//DTD SVG 1.1//EN"
 "http://www.w3.org/Graphics/SVG/1.1/DTD/svg11.dtd">
<!-- Generated by graphviz version 2.38.0 (20140413.2041)
 -->
<!-- Title: mom_set_diffusivity::set_diffusivity_cs Pages: 1 -->
<!--zoomable 758 -->
<svg id="main" version="1.1" xmlns="http://www.w3.org/2000/svg" xmlns:xlink="http://www.w3.org/1999/xlink" xml:space="preserve" onload="init(evt)">
<style type="text/css"><![CDATA[
.edge:hover path { stroke: red; }
.edge:hover polygon { stroke: red; fill: red; }
]]></style>
<script type="text/javascript"><![CDATA[
var edges = document.getElementsByTagName('g');
if (edges && edges.length) {
  for (var i=0;i<edges.length;i++) {
    if (edges[i].id.substr(0,4)=='edge') {
      edges[i].setAttribute('class','edge');
    }
  }
}
]]></script>
        <defs>
                <circle id="rim" cx="0" cy="0" r="7"/>
                <circle id="rim2" cx="0" cy="0" r="3.5"/>
                <g id="zoomPlus">
                        <use xlink:href="#rim" fill="#404040">
                                <set attributeName="fill" to="#808080" begin="zoomplus.mouseover" end="zoomplus.mouseout"/>
                        </use>
                        <path d="M-4,0h8M0,-4v8" fill="none" stroke="white" stroke-width="1.5" pointer-events="none"/>
                </g>
                <g id="zoomMin">
                        <use xlink:href="#rim" fill="#404040">
                                <set attributeName="fill" to="#808080" begin="zoomminus.mouseover" end="zoomminus.mouseout"/>
                        </use>
                        <path d="M-4,0h8" fill="none" stroke="white" stroke-width="1.5" pointer-events="none"/>
                </g>
                <g id="dirArrow">
                        <path fill="none" stroke="white" stroke-width="1.5" d="M0,-3.0v7 M-2.5,-0.5L0,-3.0L2.5,-0.5"/>
                </g>
               <g id="resetDef">
                       <use xlink:href="#rim2" fill="#404040">
                               <set attributeName="fill" to="#808080" begin="reset.mouseover" end="reset.mouseout"/>
                       </use>
               </g>
        </defs>

<script type="text/javascript">
var viewWidth = 315;
var viewHeight = 758;
var sectionId = 'dynsection-0';
</script>
<script xlink:href="../../svgpan.js"/>
<svg id="graph" class="graph">
<g id="viewport">
<title>mom_set_diffusivity::set_diffusivity_cs</title>
<polygon fill="white" stroke="none" points="-4,4 -4,-753.5 311,-753.5 311,4 -4,4"/>
<!-- Node1 -->
<g id="node1" class="node"><title>Node1</title>
<polygon fill="#bfbfbf" stroke="black" points="221,-432.5 221,-462.5 307,-462.5 307,-432.5 221,-432.5"/>
<text text-anchor="start" x="229" y="-450.5" font-family="Helvetica,sans-Serif" font-size="10.00">mom_set_diffusivity</text>
<text text-anchor="middle" x="264" y="-439.5" font-family="Helvetica,sans-Serif" font-size="10.00">::set_diffusivity_cs</text>
</g>
<!-- Node2 -->
<g id="node2" class="node"><title>Node2</title>
<polygon fill="white" stroke="#bfbfbf" points="29,-610 29,-629 67,-629 67,-610 29,-610"/>
<text text-anchor="middle" x="48" y="-617" font-family="Helvetica,sans-Serif" font-size="10.00">logical</text>
</g>
<!-- Node2&#45;&gt;Node1 -->
<g id="edge1" class="edge"><title>Node2&#45;&gt;Node1</title>
<path fill="none" stroke="#9a32cd" stroke-dasharray="5,2" d="M77.5099,-620.813C111.184,-620.844 167.143,-615.925 203,-586.5 242.214,-554.319 256.403,-491.657 261.012,-462.764"/>
<polygon fill="#9a32cd" stroke="#9a32cd" points="77.4674,-617.312 67.4135,-620.654 77.3572,-624.311 77.4674,-617.312"/>
<text text-anchor="middle" x="158.5" y="-741.5" font-family="Helvetica,sans-Serif" font-size="10.00"> use_lotw_bbl_diffusivity</text>
<text text-anchor="start" x="114" y="-730.5" font-family="Helvetica,sans-Serif" font-size="10.00">henyey_igw_background</text>
<text text-anchor="middle" x="158.5" y="-719.5" font-family="Helvetica,sans-Serif" font-size="10.00">_new</text>
<text text-anchor="middle" x="158.5" y="-708.5" font-family="Helvetica,sans-Serif" font-size="10.00">double_diffusion</text>
<text text-anchor="middle" x="158.5" y="-697.5" font-family="Helvetica,sans-Serif" font-size="10.00">int_tide_dissipation</text>
<text text-anchor="middle" x="158.5" y="-686.5" font-family="Helvetica,sans-Serif" font-size="10.00">ml_use_omega</text>
<text text-anchor="middle" x="158.5" y="-675.5" font-family="Helvetica,sans-Serif" font-size="10.00">bulkmixedlayer</text>
<text text-anchor="middle" x="158.5" y="-664.5" font-family="Helvetica,sans-Serif" font-size="10.00">ml_radiation</text>
<text text-anchor="middle" x="158.5" y="-653.5" font-family="Helvetica,sans-Serif" font-size="10.00">simple_tke_to_kd</text>
<text text-anchor="middle" x="158.5" y="-642.5" font-family="Helvetica,sans-Serif" font-size="10.00">lee_wave_dissipation</text>
<text text-anchor="middle" x="158.5" y="-631.5" font-family="Helvetica,sans-Serif" font-size="10.00">lotw_bbl_use_omega</text>
<text text-anchor="middle" x="158.5" y="-620.5" font-family="Helvetica,sans-Serif" font-size="10.00">...</text>
</g>
<!-- Node3 -->
<g id="node3" class="node"><title>Node3</title>
<polygon fill="white" stroke="#bfbfbf" points="5.5,-572 5.5,-591 90.5,-591 90.5,-572 5.5,-572"/>
<text text-anchor="middle" x="48" y="-579" font-family="Helvetica,sans-Serif" font-size="10.00">character(len=200)</text>
</g>
<!-- Node3&#45;&gt;Node1 -->
<g id="edge2" class="edge"><title>Node3&#45;&gt;Node1</title>
<path fill="none" stroke="#9a32cd" stroke-dasharray="5,2" d="M100.705,-575.465C132.631,-569.663 173.065,-558.37 203,-536.5 229.332,-517.262 247.701,-482.736 256.689,-462.814"/>
<polygon fill="#9a32cd" stroke="#9a32cd" points="99.9398,-572.045 90.663,-577.163 101.106,-578.947 99.9398,-572.045"/>
<text text-anchor="middle" x="158.5" y="-574.5" font-family="Helvetica,sans-Serif" font-size="10.00"> inputdir</text>
</g>
<!-- Node4 -->
<g id="node4" class="node"><title>Node4</title>
<polygon fill="white" stroke="#bfbfbf" points="5,-522.5 5,-552.5 91,-552.5 91,-522.5 5,-522.5"/>
<text text-anchor="start" x="13" y="-540.5" font-family="Helvetica,sans-Serif" font-size="10.00">type(diag_to_z_cs),</text>
<text text-anchor="middle" x="48" y="-529.5" font-family="Helvetica,sans-Serif" font-size="10.00"> pointer</text>
</g>
<!-- Node4&#45;&gt;Node1 -->
<g id="edge3" class="edge"><title>Node4&#45;&gt;Node1</title>
<path fill="none" stroke="#9a32cd" stroke-dasharray="5,2" d="M101.282,-526.058C131.866,-518.273 170.691,-506.468 203,-490.5 218.28,-482.948 233.878,-471.637 245.339,-462.511"/>
<polygon fill="#9a32cd" stroke="#9a32cd" points="100.112,-522.742 91.2477,-528.545 101.796,-529.537 100.112,-522.742"/>
<text text-anchor="middle" x="158.5" y="-524.5" font-family="Helvetica,sans-Serif" font-size="10.00"> diag_to_z_csp</text>
</g>
<!-- Node5 -->
<g id="node5" class="node"><title>Node5</title>
<polygon fill="white" stroke="#bfbfbf" points="0,-473.5 0,-503.5 96,-503.5 96,-473.5 0,-473.5"/>
<text text-anchor="start" x="8" y="-491.5" font-family="Helvetica,sans-Serif" font-size="10.00">type(user_change_diff</text>
<text text-anchor="middle" x="48" y="-480.5" font-family="Helvetica,sans-Serif" font-size="10.00">_cs), pointer</text>
</g>
<!-- Node5&#45;&gt;Node1 -->
<g id="edge4" class="edge"><title>Node5&#45;&gt;Node1</title>
<path fill="none" stroke="#9a32cd" stroke-dasharray="5,2" d="M106.171,-477.893C135.19,-472.468 170.987,-465.715 203,-459.5 208.736,-458.386 214.776,-457.197 220.726,-456.017"/>
<polygon fill="#9a32cd" stroke="#9a32cd" points="105.394,-474.477 96.2064,-479.753 106.679,-481.358 105.394,-474.477"/>
<text text-anchor="middle" x="158.5" y="-478.5" font-family="Helvetica,sans-Serif" font-size="10.00"> user_change_diff_csp</text>
</g>
<!-- Node6 -->
<g id="node6" class="node"><title>Node6</title>
<polygon fill="white" stroke="#bfbfbf" points="0,-424.5 0,-454.5 96,-454.5 96,-424.5 0,-424.5"/>
<text text-anchor="start" x="8" y="-442.5" font-family="Helvetica,sans-Serif" font-size="10.00">type(kappa_shear_cs)</text>
<text text-anchor="middle" x="48" y="-431.5" font-family="Helvetica,sans-Serif" font-size="10.00">, pointer</text>
</g>
<!-- Node6&#45;&gt;Node1 -->
<g id="edge5" class="edge"><title>Node6&#45;&gt;Node1</title>
<path fill="none" stroke="#9a32cd" stroke-dasharray="5,2" d="M106.604,-441.653C142.662,-443.001 188.307,-444.708 220.963,-445.929"/>
<polygon fill="#9a32cd" stroke="#9a32cd" points="106.352,-438.142 96.2281,-441.266 106.09,-445.137 106.352,-438.142"/>
<text text-anchor="middle" x="158.5" y="-447.5" font-family="Helvetica,sans-Serif" font-size="10.00"> kappashear_csp</text>
</g>
<!-- Node7 -->
<g id="node7" class="node"><title>Node7</title>
<polygon fill="white" stroke="#bfbfbf" points="24.5,-386 24.5,-405 71.5,-405 71.5,-386 24.5,-386"/>
<text text-anchor="middle" x="48" y="-393" font-family="Helvetica,sans-Serif" font-size="10.00">diag_ctrl</text>
</g>
<!-- Node7&#45;&gt;Node1 -->
<g id="edge6" class="edge"><title>Node7&#45;&gt;Node1</title>
<path fill="none" stroke="#9a32cd" stroke-dasharray="5,2" d="M81.6177,-400.719C113.001,-406.056 161.647,-415.159 203,-426.5 209.386,-428.251 216.074,-430.335 222.573,-432.5"/>
<polygon fill="#9a32cd" stroke="#9a32cd" points="82.1124,-397.253 71.6721,-399.056 80.9578,-404.157 82.1124,-397.253"/>
<text text-anchor="middle" x="158.5" y="-429.5" font-family="Helvetica,sans-Serif" font-size="10.00"> diag</text>
</g>
<!-- Node8 -->
<g id="node8" class="node"><title>Node8</title>
<polygon fill="white" stroke="#bfbfbf" points="27.5,-238 27.5,-257 68.5,-257 68.5,-238 27.5,-238"/>
<text text-anchor="middle" x="48" y="-245" font-family="Helvetica,sans-Serif" font-size="10.00">integer</text>
</g>
<!-- Node8&#45;&gt;Node1 -->
<g id="edge7" class="edge"><title>Node8&#45;&gt;Node1</title>
<path fill="none" stroke="#9a32cd" stroke-dasharray="5,2" d="M78.9336,-240.8C112.801,-235.076 167.811,-231.632 203,-259.5 257.657,-302.786 263.332,-396.051 263.361,-432.484"/>
<polygon fill="#9a32cd" stroke="#9a32cd" points="77.9217,-237.429 68.7326,-242.702 79.2047,-244.31 77.9217,-237.429"/>
<text text-anchor="start" x="117.5" y="-394.5" font-family="Helvetica,sans-Serif" font-size="10.00"> id_polzin_decay_scale</text>
<text text-anchor="middle" x="158.5" y="-383.5" font-family="Helvetica,sans-Serif" font-size="10.00">_scaled</text>
<text text-anchor="middle" x="158.5" y="-372.5" font-family="Helvetica,sans-Serif" font-size="10.00">id_kd_user</text>
<text text-anchor="middle" x="158.5" y="-361.5" font-family="Helvetica,sans-Serif" font-size="10.00">id_kd_lowmode</text>
<text text-anchor="start" x="117.5" y="-350.5" font-family="Helvetica,sans-Serif" font-size="10.00">id_polzin_decay</text>
<text text-anchor="middle" x="158.5" y="-339.5" font-family="Helvetica,sans-Serif" font-size="10.00">_scale</text>
<text text-anchor="middle" x="158.5" y="-328.5" font-family="Helvetica,sans-Serif" font-size="10.00">id_kt_extra_z</text>
<text text-anchor="middle" x="158.5" y="-317.5" font-family="Helvetica,sans-Serif" font-size="10.00">id_maxtke</text>
<text text-anchor="middle" x="158.5" y="-306.5" font-family="Helvetica,sans-Serif" font-size="10.00">id_nb</text>
<text text-anchor="middle" x="158.5" y="-295.5" font-family="Helvetica,sans-Serif" font-size="10.00">id_kd_niku_work</text>
<text text-anchor="middle" x="158.5" y="-284.5" font-family="Helvetica,sans-Serif" font-size="10.00">id_tke_to_kd</text>
<text text-anchor="middle" x="158.5" y="-273.5" font-family="Helvetica,sans-Serif" font-size="10.00">id_ks_extra_z</text>
<text text-anchor="middle" x="158.5" y="-262.5" font-family="Helvetica,sans-Serif" font-size="10.00">...</text>
</g>
<!-- Node9 -->
<g id="node9" class="node"><title>Node9</title>
<polygon fill="white" stroke="#bfbfbf" points="33,-50 33,-69 63,-69 63,-50 33,-50"/>
<text text-anchor="middle" x="48" y="-57" font-family="Helvetica,sans-Serif" font-size="10.00">real</text>
</g>
<!-- Node9&#45;&gt;Node1 -->
<g id="edge8" class="edge"><title>Node9&#45;&gt;Node1</title>
<path fill="none" stroke="#9a32cd" stroke-dasharray="5,2" d="M72.9624,-52.6724C106.565,-44.7065 167.539,-36.3745 203,-68.5 257.925,-118.258 262.699,-367.821 263.008,-432.285"/>
<polygon fill="#9a32cd" stroke="#9a32cd" points="71.905,-49.33 63.0811,-55.1941 73.636,-56.1126 71.905,-49.33"/>
<text text-anchor="middle" x="158.5" y="-225.5" font-family="Helvetica,sans-Serif" font-size="10.00"> kappa_itides</text>
<text text-anchor="middle" x="158.5" y="-214.5" font-family="Helvetica,sans-Serif" font-size="10.00">gamma_itides</text>
<text text-anchor="middle" x="158.5" y="-203.5" font-family="Helvetica,sans-Serif" font-size="10.00">cdrag</text>
<text text-anchor="start" x="124" y="-192.5" font-family="Helvetica,sans-Serif" font-size="10.00">polzin_decay_scale</text>
<text text-anchor="middle" x="158.5" y="-181.5" font-family="Helvetica,sans-Serif" font-size="10.00">_factor</text>
<text text-anchor="middle" x="158.5" y="-170.5" font-family="Helvetica,sans-Serif" font-size="10.00">mu_itides</text>
<text text-anchor="start" x="124" y="-159.5" font-family="Helvetica,sans-Serif" font-size="10.00">max_rrho_salt</text>
<text text-anchor="middle" x="158.5" y="-148.5" font-family="Helvetica,sans-Serif" font-size="10.00">_fingers</text>
<text text-anchor="start" x="124" y="-137.5" font-family="Helvetica,sans-Serif" font-size="10.00">bryan_lewis_width</text>
<text text-anchor="middle" x="158.5" y="-126.5" font-family="Helvetica,sans-Serif" font-size="10.00">_trans</text>
<text text-anchor="start" x="124" y="-115.5" font-family="Helvetica,sans-Serif" font-size="10.00">bryan_lewis_depth</text>
<text text-anchor="middle" x="158.5" y="-104.5" font-family="Helvetica,sans-Serif" font-size="10.00">_cent</text>
<text text-anchor="middle" x="158.5" y="-93.5" font-family="Helvetica,sans-Serif" font-size="10.00">hmix</text>
<text text-anchor="middle" x="158.5" y="-82.5" font-family="Helvetica,sans-Serif" font-size="10.00">ml_rad_coeff</text>
<text text-anchor="middle" x="158.5" y="-71.5" font-family="Helvetica,sans-Serif" font-size="10.00">...</text>
</g>
<!-- Node10 -->
<g id="node10" class="node"><title>Node10</title>
<polygon fill="white" stroke="#bfbfbf" points="9.5,-0.5 9.5,-30.5 86.5,-30.5 86.5,-0.5 9.5,-0.5"/>
<text text-anchor="start" x="17.5" y="-18.5" font-family="Helvetica,sans-Serif" font-size="10.00">type(int_tide_cs),</text>
<text text-anchor="middle" x="48" y="-7.5" font-family="Helvetica,sans-Serif" font-size="10.00"> pointer</text>
</g>
<!-- Node10&#45;&gt;Node1 -->
<g id="edge9" class="edge"><title>Node10&#45;&gt;Node1</title>
<path fill="none" stroke="#9a32cd" stroke-dasharray="5,2" d="M96.8059,-6.12184C130.875,-2.41209 175.362,-4.10006 203,-30.5 262.236,-87.0832 263.747,-363.911 263.199,-432.234"/>
<polygon fill="#9a32cd" stroke="#9a32cd" points="96.0735,-2.68685 86.5972,-7.42505 96.9599,-9.6305 96.0735,-2.68685"/>
<text text-anchor="middle" x="158.5" y="-33.5" font-family="Helvetica,sans-Serif" font-size="10.00"> int_tide_csp</text>
</g>
</g>
</svg>
        <g id="navigator" transform="translate(0 0)" fill="#404254">
                <rect fill="#f2f5e9" fill-opacity="0.5" stroke="#606060" stroke-width=".5" x="0" y="0" width="60" height="60"/>
                <use id="zoomplus" xlink:href="#zoomPlus" x="17" y="9" onmousedown="handleZoom(evt,'in')"/>
                <use id="zoomminus" xlink:href="#zoomMin" x="42" y="9" onmousedown="handleZoom(evt,'out')"/>
                <use id="reset" xlink:href="#resetDef" x="30" y="36" onmousedown="handleReset()"/>
                <g id="arrowUp" xlink:href="#dirArrow" transform="translate(30 24)" onmousedown="handlePan(0,-1)">
                  <use xlink:href="#rim" fill="#404040">
                        <set attributeName="fill" to="#808080" begin="arrowUp.mouseover" end="arrowUp.mouseout"/>
                  </use>
                  <path fill="none" stroke="white" stroke-width="1.5" d="M0,-3.0v7 M-2.5,-0.5L0,-3.0L2.5,-0.5"/>
                </g>
                <g id="arrowRight" xlink:href="#dirArrow" transform="rotate(90) translate(36 -43)" onmousedown="handlePan(1,0)">
                  <use xlink:href="#rim" fill="#404040">
                        <set attributeName="fill" to="#808080" begin="arrowRight.mouseover" end="arrowRight.mouseout"/>
                  </use>
                  <path fill="none" stroke="white" stroke-width="1.5" d="M0,-3.0v7 M-2.5,-0.5L0,-3.0L2.5,-0.5"/>
                </g>
                <g id="arrowDown" xlink:href="#dirArrow" transform="rotate(180) translate(-30 -48)" onmousedown="handlePan(0,1)">
                  <use xlink:href="#rim" fill="#404040">
                        <set attributeName="fill" to="#808080" begin="arrowDown.mouseover" end="arrowDown.mouseout"/>
                  </use>
                  <path fill="none" stroke="white" stroke-width="1.5" d="M0,-3.0v7 M-2.5,-0.5L0,-3.0L2.5,-0.5"/>
                </g>
                <g id="arrowLeft" xlink:href="#dirArrow" transform="rotate(270) translate(-36 17)" onmousedown="handlePan(-1,0)">
                  <use xlink:href="#rim" fill="#404040">
                        <set attributeName="fill" to="#808080" begin="arrowLeft.mouseover" end="arrowLeft.mouseout"/>
                  </use>
                  <path fill="none" stroke="white" stroke-width="1.5" d="M0,-3.0v7 M-2.5,-0.5L0,-3.0L2.5,-0.5"/>
                </g>
        </g>
        <svg viewBox="0 0 15 15" width="100%" height="30px" preserveAspectRatio="xMaxYMin meet">
         <g id="arrow_out" transform="scale(0.3 0.3)">
          <a xlink:href="structmom__set__diffusivity_1_1set__diffusivity__cs__coll__graph_org.svg" target="_base">
           <rect id="button" ry="5" rx="5" y="6" x="6" height="38" width="38"
                fill="#f2f5e9" fill-opacity="0.5" stroke="#606060" stroke-width="1.0"/>
           <path id="arrow"
             d="M 11.500037,31.436501 C 11.940474,20.09759 22.043105,11.32322 32.158766,21.979434 L 37.068811,17.246167 C 37.068811,17.246167 37.088388,32 37.088388,32 L 22.160133,31.978069 C 22.160133,31.978069 26.997745,27.140456 26.997745,27.140456 C 18.528582,18.264221 13.291696,25.230495 11.500037,31.436501 z"
             style="fill:#404040;"/>
          </a>
         </g>
        </svg>
</svg>
