<?xml version="1.0" encoding="UTF-8" standalone="no"?>
<!DOCTYPE svg PUBLIC "-//W3C//DTD SVG 1.1//EN"
 "http://www.w3.org/Graphics/SVG/1.1/DTD/svg11.dtd">
<!-- Generated by graphviz version 2.38.0 (20140413.2041)
 -->
<!-- Title: mom_ocmip2_co2calc_mod::ta_iter_1 Pages: 1 -->
<svg width="390pt" height="39pt"
 viewBox="0.00 0.00 390.00 39.00" xmlns="http://www.w3.org/2000/svg" xmlns:xlink="http://www.w3.org/1999/xlink">
<g id="graph0" class="graph" transform="scale(1 1) rotate(0) translate(4 35)">
<title>mom_ocmip2_co2calc_mod::ta_iter_1</title>
<polygon fill="white" stroke="none" points="-4,4 -4,-35 386,-35 386,4 -4,4"/>
<!-- Node9 -->
<g id="node1" class="node"><title>Node9</title>
<polygon fill="#bfbfbf" stroke="black" points="0,-0.5 0,-30.5 95,-30.5 95,-0.5 0,-0.5"/>
<text text-anchor="start" x="8" y="-18.5" font-family="Helvetica,sans-Serif" font-size="10.00">mom_ocmip2_co2calc</text>
<text text-anchor="middle" x="47.5" y="-7.5" font-family="Helvetica,sans-Serif" font-size="10.00">_mod::ta_iter_1</text>
</g>
<!-- Node10 -->
<g id="node2" class="node"><title>Node10</title>
<g id="a_node2"><a xlink:href="../../db/d68/namespacemom__ocmip2__co2calc__mod.html#af2f24440252eb01429ba0b951f3d3369" target="_top" xlink:title="mom_ocmip2_co2calc\l_mod::drtsafe">
<polygon fill="white" stroke="black" points="131,-0.5 131,-30.5 226,-30.5 226,-0.5 131,-0.5"/>
<text text-anchor="start" x="139" y="-18.5" font-family="Helvetica,sans-Serif" font-size="10.00">mom_ocmip2_co2calc</text>
<text text-anchor="middle" x="178.5" y="-7.5" font-family="Helvetica,sans-Serif" font-size="10.00">_mod::drtsafe</text>
</a>
</g>
</g>
<!-- Node9&#45;&gt;Node10 -->
<g id="edge1" class="edge"><title>Node9&#45;&gt;Node10</title>
<path fill="none" stroke="midnightblue" d="M105.101,-15.5C113.752,-15.5 122.596,-15.5 130.996,-15.5"/>
<polygon fill="midnightblue" stroke="midnightblue" points="105.072,-12.0001 95.072,-15.5 105.072,-19.0001 105.072,-12.0001"/>
</g>
<!-- Node11 -->
<g id="node3" class="node"><title>Node11</title>
<g id="a_node3"><a xlink:href="../../db/d68/namespacemom__ocmip2__co2calc__mod.html#a33244d2860fc6ef59fd35d3008f260a4" target="_top" xlink:title="mom_ocmip2_co2calc\l_mod::mom_ocmip2_co2calc">
<polygon fill="white" stroke="black" points="262,-0.5 262,-30.5 382,-30.5 382,-0.5 262,-0.5"/>
<text text-anchor="start" x="270" y="-18.5" font-family="Helvetica,sans-Serif" font-size="10.00">mom_ocmip2_co2calc</text>
<text text-anchor="middle" x="322" y="-7.5" font-family="Helvetica,sans-Serif" font-size="10.00">_mod::mom_ocmip2_co2calc</text>
</a>
</g>
</g>
<!-- Node10&#45;&gt;Node11 -->
<g id="edge2" class="edge"><title>Node10&#45;&gt;Node11</title>
<path fill="none" stroke="midnightblue" d="M236.341,-15.5C244.775,-15.5 253.483,-15.5 261.96,-15.5"/>
<polygon fill="midnightblue" stroke="midnightblue" points="236.225,-12.0001 226.225,-15.5 236.225,-19.0001 236.225,-12.0001"/>
</g>
</g>
</svg>
