<?xml version="1.0" encoding="UTF-8" standalone="no"?>
<!DOCTYPE svg PUBLIC "-//W3C//DTD SVG 1.1//EN"
 "http://www.w3.org/Graphics/SVG/1.1/DTD/svg11.dtd">
<!-- Generated by graphviz version 2.38.0 (20140413.2041)
 -->
<!-- Title: mom_checksums::is_nan_0d Pages: 1 -->
<svg width="282pt" height="104pt"
 viewBox="0.00 0.00 282.00 104.00" xmlns="http://www.w3.org/2000/svg" xmlns:xlink="http://www.w3.org/1999/xlink">
<g id="graph0" class="graph" transform="scale(1 1) rotate(0) translate(4 100)">
<title>mom_checksums::is_nan_0d</title>
<polygon fill="white" stroke="none" points="-4,4 -4,-100 278,-100 278,4 -4,4"/>
<!-- Node143 -->
<g id="node1" class="node"><title>Node143</title>
<polygon fill="#bfbfbf" stroke="black" points="0,-38.5 0,-57.5 119,-57.5 119,-38.5 0,-38.5"/>
<text text-anchor="middle" x="59.5" y="-45.5" font-family="Helvetica,sans-Serif" font-size="10.00">mom_checksums::is_nan_0d</text>
</g>
<!-- Node144 -->
<g id="node2" class="node"><title>Node144</title>
<g id="a_node2"><a xlink:href="../../d2/d84/namespacemom__checksums.html#a2ae26d49eb294b8b0e6872cc1642eb4b" target="_top" xlink:title="This function returns .true. if any element of x is a NaN, and .false. otherwise. ...">
<polygon fill="white" stroke="black" points="155,-76.5 155,-95.5 274,-95.5 274,-76.5 155,-76.5"/>
<text text-anchor="middle" x="214.5" y="-83.5" font-family="Helvetica,sans-Serif" font-size="10.00">mom_checksums::is_nan_1d</text>
</a>
</g>
</g>
<!-- Node143&#45;&gt;Node144 -->
<g id="edge1" class="edge"><title>Node143&#45;&gt;Node144</title>
<path fill="none" stroke="midnightblue" d="M108.977,-60.04C130.352,-65.3488 155.113,-71.4988 175.169,-76.4799"/>
<polygon fill="midnightblue" stroke="midnightblue" points="109.657,-56.6027 99.1084,-57.589 107.97,-63.3963 109.657,-56.6027"/>
</g>
<!-- Node145 -->
<g id="node3" class="node"><title>Node145</title>
<g id="a_node3"><a xlink:href="../../d2/d84/namespacemom__checksums.html#ae5399b160c30b9e0d9a806af7e322f8e" target="_top" xlink:title="This function returns .true. if any element of x is a NaN, and .false. otherwise. ...">
<polygon fill="white" stroke="black" points="155,-38.5 155,-57.5 274,-57.5 274,-38.5 155,-38.5"/>
<text text-anchor="middle" x="214.5" y="-45.5" font-family="Helvetica,sans-Serif" font-size="10.00">mom_checksums::is_nan_2d</text>
</a>
</g>
</g>
<!-- Node143&#45;&gt;Node145 -->
<g id="edge2" class="edge"><title>Node143&#45;&gt;Node145</title>
<path fill="none" stroke="midnightblue" d="M129.493,-48C137.993,-48 146.617,-48 154.941,-48"/>
<polygon fill="midnightblue" stroke="midnightblue" points="129.216,-44.5001 119.216,-48 129.216,-51.5001 129.216,-44.5001"/>
</g>
<!-- Node146 -->
<g id="node4" class="node"><title>Node146</title>
<g id="a_node4"><a xlink:href="../../d2/d84/namespacemom__checksums.html#a1cfab80ba102a9eb5b77d6c5db2a298a" target="_top" xlink:title="This function returns .true. if any element of x is a NaN, and .false. otherwise. ...">
<polygon fill="white" stroke="black" points="155,-0.5 155,-19.5 274,-19.5 274,-0.5 155,-0.5"/>
<text text-anchor="middle" x="214.5" y="-7.5" font-family="Helvetica,sans-Serif" font-size="10.00">mom_checksums::is_nan_3d</text>
</a>
</g>
</g>
<!-- Node143&#45;&gt;Node146 -->
<g id="edge3" class="edge"><title>Node143&#45;&gt;Node146</title>
<path fill="none" stroke="midnightblue" d="M108.977,-35.96C130.352,-30.6512 155.113,-24.5012 175.169,-19.5201"/>
<polygon fill="midnightblue" stroke="midnightblue" points="107.97,-32.6037 99.1084,-38.411 109.657,-39.3973 107.97,-32.6037"/>
</g>
</g>
</svg>
