<?xml version="1.0" encoding="UTF-8" standalone="no"?>
<!DOCTYPE svg PUBLIC "-//W3C//DTD SVG 1.1//EN"
 "http://www.w3.org/Graphics/SVG/1.1/DTD/svg11.dtd">
<!-- Generated by graphviz version 2.38.0 (20140413.2041)
 -->
<!-- Title: mom_checksums::chksum_error Pages: 1 -->
<svg width="432pt" height="382pt"
 viewBox="0.00 0.00 432.00 382.00" xmlns="http://www.w3.org/2000/svg" xmlns:xlink="http://www.w3.org/1999/xlink">
<g id="graph0" class="graph" transform="scale(1 1) rotate(0) translate(4 378)">
<title>mom_checksums::chksum_error</title>
<polygon fill="white" stroke="none" points="-4,4 -4,-378 428,-378 428,4 -4,4"/>
<!-- Node13 -->
<g id="node1" class="node"><title>Node13</title>
<polygon fill="#bfbfbf" stroke="black" points="0,-171.5 0,-201.5 110,-201.5 110,-171.5 0,-171.5"/>
<text text-anchor="start" x="8" y="-189.5" font-family="Helvetica,sans-Serif" font-size="10.00">mom_checksums::chksum</text>
<text text-anchor="middle" x="55" y="-178.5" font-family="Helvetica,sans-Serif" font-size="10.00">_error</text>
</g>
<!-- Node14 -->
<g id="node2" class="node"><title>Node14</title>
<g id="a_node2"><a xlink:href="../../d2/d84/namespacemom__checksums.html#a639927d039b3be2d24c370c48d3f02a3" target="_top" xlink:title="chksum_h_2d performs checksums on a 2d array staggered at tracer points. ">
<polygon fill="white" stroke="black" points="146,-341 146,-360 278,-360 278,-341 146,-341"/>
<text text-anchor="middle" x="212" y="-348" font-family="Helvetica,sans-Serif" font-size="10.00">mom_checksums::chksum_h_2d</text>
</a>
</g>
</g>
<!-- Node13&#45;&gt;Node14 -->
<g id="edge1" class="edge"><title>Node13&#45;&gt;Node14</title>
<path fill="none" stroke="midnightblue" d="M67.0804,-211.143C81.5007,-240.802 109.261,-290.478 146,-321.5 155.913,-329.871 168.63,-336.253 180.182,-340.871"/>
<polygon fill="midnightblue" stroke="midnightblue" points="70.1505,-209.448 62.7077,-201.907 63.8238,-212.443 70.1505,-209.448"/>
</g>
<!-- Node16 -->
<g id="node4" class="node"><title>Node16</title>
<g id="a_node4"><a xlink:href="../../d2/d84/namespacemom__checksums.html#adb8f16de2eff70b3f4424ed60d29c797" target="_top" xlink:title="chksum_h_3d performs checksums on a 3d array staggered at tracer points. ">
<polygon fill="white" stroke="black" points="146,-293 146,-312 278,-312 278,-293 146,-293"/>
<text text-anchor="middle" x="212" y="-300" font-family="Helvetica,sans-Serif" font-size="10.00">mom_checksums::chksum_h_3d</text>
</a>
</g>
</g>
<!-- Node13&#45;&gt;Node16 -->
<g id="edge3" class="edge"><title>Node13&#45;&gt;Node16</title>
<path fill="none" stroke="midnightblue" d="M75.4478,-209.321C92.5556,-228.343 118.897,-255.193 146,-273.5 157.674,-281.385 171.84,-287.998 183.964,-292.908"/>
<polygon fill="midnightblue" stroke="midnightblue" points="77.9519,-206.869 68.7059,-201.696 72.7077,-211.506 77.9519,-206.869"/>
</g>
<!-- Node18 -->
<g id="node6" class="node"><title>Node18</title>
<g id="a_node6"><a xlink:href="../../d2/d84/namespacemom__checksums.html#aad05531c61fbe5bb94f4f9c822e5a6c2" target="_top" xlink:title="chksum_q_2d performs checksums on a 2d array staggered at corner points. ">
<polygon fill="white" stroke="black" points="146,-245 146,-264 278,-264 278,-245 146,-245"/>
<text text-anchor="middle" x="212" y="-252" font-family="Helvetica,sans-Serif" font-size="10.00">mom_checksums::chksum_q_2d</text>
</a>
</g>
</g>
<!-- Node13&#45;&gt;Node18 -->
<g id="edge5" class="edge"><title>Node13&#45;&gt;Node18</title>
<path fill="none" stroke="midnightblue" d="M97.5261,-205.771C112.726,-212.731 130.095,-220.576 146,-227.5 159.669,-233.45 175.072,-239.861 187.452,-244.942"/>
<polygon fill="midnightblue" stroke="midnightblue" points="98.923,-202.561 88.3749,-201.568 96.0013,-208.922 98.923,-202.561"/>
</g>
<!-- Node20 -->
<g id="node8" class="node"><title>Node20</title>
<g id="a_node8"><a xlink:href="../../d2/d84/namespacemom__checksums.html#a8347da05f09475bc8a85482a131e4f8f" target="_top" xlink:title="chksum_q_3d performs checksums on a 3d array staggered at corner points. ">
<polygon fill="white" stroke="black" points="146,-199 146,-218 278,-218 278,-199 146,-199"/>
<text text-anchor="middle" x="212" y="-206" font-family="Helvetica,sans-Serif" font-size="10.00">mom_checksums::chksum_q_3d</text>
</a>
</g>
</g>
<!-- Node13&#45;&gt;Node20 -->
<g id="edge7" class="edge"><title>Node13&#45;&gt;Node20</title>
<path fill="none" stroke="midnightblue" d="M120.366,-195.636C128.802,-196.833 137.45,-198.061 145.898,-199.26"/>
<polygon fill="midnightblue" stroke="midnightblue" points="120.604,-192.135 110.211,-194.195 119.62,-199.065 120.604,-192.135"/>
</g>
<!-- Node22 -->
<g id="node10" class="node"><title>Node22</title>
<g id="a_node10"><a xlink:href="../../d2/d84/namespacemom__checksums.html#acab3f86710e3dd1eb3cb96427b14586f" target="_top" xlink:title="chksum_u_2d performs checksums on a 2d array staggered at C&#45;grid u points. ">
<polygon fill="white" stroke="black" points="146,-156 146,-175 278,-175 278,-156 146,-156"/>
<text text-anchor="middle" x="212" y="-163" font-family="Helvetica,sans-Serif" font-size="10.00">mom_checksums::chksum_u_2d</text>
</a>
</g>
</g>
<!-- Node13&#45;&gt;Node22 -->
<g id="edge9" class="edge"><title>Node13&#45;&gt;Node22</title>
<path fill="none" stroke="midnightblue" d="M120.366,-177.779C128.802,-176.637 137.45,-175.465 145.898,-174.32"/>
<polygon fill="midnightblue" stroke="midnightblue" points="119.651,-174.344 110.211,-179.155 120.591,-181.281 119.651,-174.344"/>
</g>
<!-- Node24 -->
<g id="node12" class="node"><title>Node24</title>
<g id="a_node12"><a xlink:href="../../d2/d84/namespacemom__checksums.html#a7575c4a70d43a779a3183a6839692e7a" target="_top" xlink:title="chksum_u_3d performs checksums on a 3d array staggered at C&#45;grid u points. ">
<polygon fill="white" stroke="black" points="146,-114 146,-133 278,-133 278,-114 146,-114"/>
<text text-anchor="middle" x="212" y="-121" font-family="Helvetica,sans-Serif" font-size="10.00">mom_checksums::chksum_u_3d</text>
</a>
</g>
</g>
<!-- Node13&#45;&gt;Node24 -->
<g id="edge11" class="edge"><title>Node13&#45;&gt;Node24</title>
<path fill="none" stroke="midnightblue" d="M97.3691,-167.302C112.553,-160.471 129.952,-152.894 146,-146.5 157.787,-141.803 170.957,-137.053 182.344,-133.098"/>
<polygon fill="midnightblue" stroke="midnightblue" points="95.8974,-164.126 88.2331,-171.441 98.7863,-170.502 95.8974,-164.126"/>
</g>
<!-- Node26 -->
<g id="node14" class="node"><title>Node26</title>
<g id="a_node14"><a xlink:href="../../d2/d84/namespacemom__checksums.html#adf00fae09b5585f11fbe9d7a5f32a472" target="_top" xlink:title="chksum_v_2d performs checksums on a 2d array staggered at C&#45;grid v points. ">
<polygon fill="white" stroke="black" points="146.5,-68 146.5,-87 277.5,-87 277.5,-68 146.5,-68"/>
<text text-anchor="middle" x="212" y="-75" font-family="Helvetica,sans-Serif" font-size="10.00">mom_checksums::chksum_v_2d</text>
</a>
</g>
</g>
<!-- Node13&#45;&gt;Node26 -->
<g id="edge13" class="edge"><title>Node13&#45;&gt;Node26</title>
<path fill="none" stroke="midnightblue" d="M76.645,-163.783C93.8471,-145.875 119.703,-121.219 146,-104.5 157.137,-97.4195 170.446,-91.5077 182.112,-87.0388"/>
<polygon fill="midnightblue" stroke="midnightblue" points="73.6967,-161.807 69.3797,-171.483 78.7882,-166.611 73.6967,-161.807"/>
</g>
<!-- Node28 -->
<g id="node16" class="node"><title>Node28</title>
<g id="a_node16"><a xlink:href="../../d2/d84/namespacemom__checksums.html#a69a33182089ef67ba50e177c39b94c4c" target="_top" xlink:title="chksum_v_3d performs checksums on a 3d array staggered at C&#45;grid v points. ">
<polygon fill="white" stroke="black" points="146.5,-14 146.5,-33 277.5,-33 277.5,-14 146.5,-14"/>
<text text-anchor="middle" x="212" y="-21" font-family="Helvetica,sans-Serif" font-size="10.00">mom_checksums::chksum_v_3d</text>
</a>
</g>
</g>
<!-- Node13&#45;&gt;Node28 -->
<g id="edge15" class="edge"><title>Node13&#45;&gt;Node28</title>
<path fill="none" stroke="midnightblue" d="M68.4468,-162.349C83.7176,-134.548 111.834,-88.828 146,-58.5 158.077,-47.7794 174.012,-39.1332 187.082,-33.1165"/>
<polygon fill="midnightblue" stroke="midnightblue" points="65.2439,-160.915 63.5922,-171.381 71.4096,-164.229 65.2439,-160.915"/>
</g>
<!-- Node15 -->
<g id="node3" class="node"><title>Node15</title>
<g id="a_node3"><a xlink:href="../../d2/d84/namespacemom__checksums.html#a69072e3d8746a55d46c383a9a4242707" target="_top" xlink:title="chksum_h_2d_G performs checksums on a 2d array staggered at tracer points. ">
<polygon fill="white" stroke="black" points="314,-343.5 314,-373.5 424,-373.5 424,-343.5 314,-343.5"/>
<text text-anchor="start" x="322" y="-361.5" font-family="Helvetica,sans-Serif" font-size="10.00">mom_checksums::chksum</text>
<text text-anchor="middle" x="369" y="-350.5" font-family="Helvetica,sans-Serif" font-size="10.00">_h_2d_g</text>
</a>
</g>
</g>
<!-- Node14&#45;&gt;Node15 -->
<g id="edge2" class="edge"><title>Node14&#45;&gt;Node15</title>
<path fill="none" stroke="midnightblue" d="M288.542,-354.399C296.986,-354.835 305.461,-355.272 313.566,-355.69"/>
<polygon fill="midnightblue" stroke="midnightblue" points="288.452,-350.89 278.285,-353.87 288.091,-357.88 288.452,-350.89"/>
</g>
<!-- Node17 -->
<g id="node5" class="node"><title>Node17</title>
<g id="a_node5"><a xlink:href="../../d2/d84/namespacemom__checksums.html#ae0a534f4bf05489c040f855b95ae8327" target="_top" xlink:title="chksum_h_3d performs checksums on a 3d array staggered at tracer points. ">
<polygon fill="white" stroke="black" points="314,-294.5 314,-324.5 424,-324.5 424,-294.5 314,-294.5"/>
<text text-anchor="start" x="322" y="-312.5" font-family="Helvetica,sans-Serif" font-size="10.00">mom_checksums::chksum</text>
<text text-anchor="middle" x="369" y="-301.5" font-family="Helvetica,sans-Serif" font-size="10.00">_h_3d_g</text>
</a>
</g>
</g>
<!-- Node16&#45;&gt;Node17 -->
<g id="edge4" class="edge"><title>Node16&#45;&gt;Node17</title>
<path fill="none" stroke="midnightblue" d="M288.542,-305.912C296.986,-306.293 305.461,-306.676 313.566,-307.042"/>
<polygon fill="midnightblue" stroke="midnightblue" points="288.432,-302.403 278.285,-305.448 288.117,-309.396 288.432,-302.403"/>
</g>
<!-- Node19 -->
<g id="node7" class="node"><title>Node19</title>
<g id="a_node7"><a xlink:href="../../d2/d84/namespacemom__checksums.html#afe4a592afd135ad13c2454eaeb399b66" target="_top" xlink:title="chksum_q_2d_G performs checksums on a 2d array staggered at corner points. ">
<polygon fill="white" stroke="black" points="314,-245.5 314,-275.5 424,-275.5 424,-245.5 314,-245.5"/>
<text text-anchor="start" x="322" y="-263.5" font-family="Helvetica,sans-Serif" font-size="10.00">mom_checksums::chksum</text>
<text text-anchor="middle" x="369" y="-252.5" font-family="Helvetica,sans-Serif" font-size="10.00">_q_2d_g</text>
</a>
</g>
</g>
<!-- Node18&#45;&gt;Node19 -->
<g id="edge6" class="edge"><title>Node18&#45;&gt;Node19</title>
<path fill="none" stroke="midnightblue" d="M288.542,-257.424C296.986,-257.751 305.461,-258.079 313.566,-258.393"/>
<polygon fill="midnightblue" stroke="midnightblue" points="288.413,-253.917 278.285,-257.027 288.142,-260.911 288.413,-253.917"/>
</g>
<!-- Node21 -->
<g id="node9" class="node"><title>Node21</title>
<g id="a_node9"><a xlink:href="../../d2/d84/namespacemom__checksums.html#aa407d03d13f85ea034b6e87cf6f74611" target="_top" xlink:title="chksum_q_3d_G performs checksums on a 3d array staggered at corner points. ">
<polygon fill="white" stroke="black" points="314,-196.5 314,-226.5 424,-226.5 424,-196.5 314,-196.5"/>
<text text-anchor="start" x="322" y="-214.5" font-family="Helvetica,sans-Serif" font-size="10.00">mom_checksums::chksum</text>
<text text-anchor="middle" x="369" y="-203.5" font-family="Helvetica,sans-Serif" font-size="10.00">_q_3d_g</text>
</a>
</g>
</g>
<!-- Node20&#45;&gt;Node21 -->
<g id="edge8" class="edge"><title>Node20&#45;&gt;Node21</title>
<path fill="none" stroke="midnightblue" d="M288.542,-209.962C296.986,-210.126 305.461,-210.29 313.566,-210.446"/>
<polygon fill="midnightblue" stroke="midnightblue" points="288.351,-206.458 278.285,-209.764 288.215,-213.457 288.351,-206.458"/>
</g>
<!-- Node23 -->
<g id="node11" class="node"><title>Node23</title>
<g id="a_node11"><a xlink:href="../../d2/d84/namespacemom__checksums.html#ace9e013d3dec841628979c5e05ba3bb1" target="_top" xlink:title="chksum_u_2d_G performs checksums on a 2d array staggered at C&#45;grid u points. ">
<polygon fill="white" stroke="black" points="314,-147.5 314,-177.5 424,-177.5 424,-147.5 314,-147.5"/>
<text text-anchor="start" x="322" y="-165.5" font-family="Helvetica,sans-Serif" font-size="10.00">mom_checksums::chksum</text>
<text text-anchor="middle" x="369" y="-154.5" font-family="Helvetica,sans-Serif" font-size="10.00">_u_2d_g</text>
</a>
</g>
</g>
<!-- Node22&#45;&gt;Node23 -->
<g id="edge10" class="edge"><title>Node22&#45;&gt;Node23</title>
<path fill="none" stroke="midnightblue" d="M288.542,-164.038C296.986,-163.874 305.461,-163.71 313.566,-163.554"/>
<polygon fill="midnightblue" stroke="midnightblue" points="288.215,-160.543 278.285,-164.236 288.351,-167.542 288.215,-160.543"/>
</g>
<!-- Node25 -->
<g id="node13" class="node"><title>Node25</title>
<g id="a_node13"><a xlink:href="../../d2/d84/namespacemom__checksums.html#ab48264714ba9de4d74c8070983a284b8" target="_top" xlink:title="chksum_u_3d_G performs checksums on a 3d array staggered at C&#45;grid u points. ">
<polygon fill="white" stroke="black" points="314,-98.5 314,-128.5 424,-128.5 424,-98.5 314,-98.5"/>
<text text-anchor="start" x="322" y="-116.5" font-family="Helvetica,sans-Serif" font-size="10.00">mom_checksums::chksum</text>
<text text-anchor="middle" x="369" y="-105.5" font-family="Helvetica,sans-Serif" font-size="10.00">_u_3d_g</text>
</a>
</g>
</g>
<!-- Node24&#45;&gt;Node25 -->
<g id="edge12" class="edge"><title>Node24&#45;&gt;Node25</title>
<path fill="none" stroke="midnightblue" d="M288.542,-118.626C296.986,-118.082 305.461,-117.535 313.566,-117.012"/>
<polygon fill="midnightblue" stroke="midnightblue" points="288.039,-115.151 278.285,-119.288 288.489,-122.137 288.039,-115.151"/>
</g>
<!-- Node27 -->
<g id="node15" class="node"><title>Node27</title>
<g id="a_node15"><a xlink:href="../../d2/d84/namespacemom__checksums.html#ae8ef94bb756b96cd50156a13daefeb19" target="_top" xlink:title="chksum_v_2d_G performs checksums on a 2d array staggered at C&#45;grid v points. ">
<polygon fill="white" stroke="black" points="314,-49.5 314,-79.5 424,-79.5 424,-49.5 314,-49.5"/>
<text text-anchor="start" x="322" y="-67.5" font-family="Helvetica,sans-Serif" font-size="10.00">mom_checksums::chksum</text>
<text text-anchor="middle" x="369" y="-56.5" font-family="Helvetica,sans-Serif" font-size="10.00">_v_2d_g</text>
</a>
</g>
</g>
<!-- Node26&#45;&gt;Node27 -->
<g id="edge14" class="edge"><title>Node26&#45;&gt;Node27</title>
<path fill="none" stroke="midnightblue" d="M287.987,-71.2108C296.673,-70.4823 305.401,-69.7502 313.734,-69.0513"/>
<polygon fill="midnightblue" stroke="midnightblue" points="287.508,-67.7385 277.836,-72.0622 288.093,-74.714 287.508,-67.7385"/>
</g>
<!-- Node29 -->
<g id="node17" class="node"><title>Node29</title>
<g id="a_node17"><a xlink:href="../../d2/d84/namespacemom__checksums.html#a5e47def72b44ddfddabb1adf967a9e89" target="_top" xlink:title="chksum_v_3d_G performs checksums on a 3d array staggered at C&#45;grid v points. ">
<polygon fill="white" stroke="black" points="314,-0.5 314,-30.5 424,-30.5 424,-0.5 314,-0.5"/>
<text text-anchor="start" x="322" y="-18.5" font-family="Helvetica,sans-Serif" font-size="10.00">mom_checksums::chksum</text>
<text text-anchor="middle" x="369" y="-7.5" font-family="Helvetica,sans-Serif" font-size="10.00">_v_3d_g</text>
</a>
</g>
</g>
<!-- Node28&#45;&gt;Node29 -->
<g id="edge16" class="edge"><title>Node28&#45;&gt;Node29</title>
<path fill="none" stroke="midnightblue" d="M287.987,-19.6297C296.673,-19.1814 305.401,-18.7309 313.734,-18.3008"/>
<polygon fill="midnightblue" stroke="midnightblue" points="287.642,-16.1427 277.836,-20.1536 288.003,-23.1334 287.642,-16.1427"/>
</g>
</g>
</svg>
