<?xml version="1.0" encoding="UTF-8" standalone="no"?>
<!DOCTYPE svg PUBLIC "-//W3C//DTD SVG 1.1//EN"
 "http://www.w3.org/Graphics/SVG/1.1/DTD/svg11.dtd">
<!-- Generated by graphviz version 2.38.0 (20140413.2041)
 -->
<!-- Title: mom_checksums::chksum_h_2d Pages: 1 -->
<svg width="415pt" height="154pt"
 viewBox="0.00 0.00 415.00 153.50" xmlns="http://www.w3.org/2000/svg" xmlns:xlink="http://www.w3.org/1999/xlink">
<g id="graph0" class="graph" transform="scale(1 1) rotate(0) translate(4 149.5)">
<title>mom_checksums::chksum_h_2d</title>
<polygon fill="white" stroke="none" points="-4,4 -4,-149.5 411,-149.5 411,4 -4,4"/>
<!-- Node30 -->
<g id="node1" class="node"><title>Node30</title>
<polygon fill="#bfbfbf" stroke="black" points="0,-57.5 0,-76.5 132,-76.5 132,-57.5 0,-57.5"/>
<text text-anchor="middle" x="66" y="-64.5" font-family="Helvetica,sans-Serif" font-size="10.00">mom_checksums::chksum_h_2d</text>
</g>
<!-- Node31 -->
<g id="node2" class="node"><title>Node31</title>
<g id="a_node2"><a xlink:href="../../d2/d84/namespacemom__checksums.html#a6400a8423305b77e4aed5d1cb4c24520" target="_top" xlink:title="mom_checksums::chksum\l_error">
<polygon fill="white" stroke="black" points="168,-115 168,-145 278,-145 278,-115 168,-115"/>
<text text-anchor="start" x="176" y="-133" font-family="Helvetica,sans-Serif" font-size="10.00">mom_checksums::chksum</text>
<text text-anchor="middle" x="223" y="-122" font-family="Helvetica,sans-Serif" font-size="10.00">_error</text>
</a>
</g>
</g>
<!-- Node30&#45;&gt;Node31 -->
<g id="edge1" class="edge"><title>Node30&#45;&gt;Node31</title>
<path fill="none" stroke="midnightblue" d="M90.5412,-76.5683C112.965,-85.6826 147.354,-99.66 175.335,-111.033"/>
<polygon fill="midnightblue" stroke="midnightblue" points="174.353,-114.412 184.935,-114.935 176.989,-107.927 174.353,-114.412"/>
</g>
<!-- Node32 -->
<g id="node3" class="node"><title>Node32</title>
<g id="a_node3"><a xlink:href="../../d0/de6/namespacemom__error__handler.html#ad5f00a53059c72fe2332d1436c80ca71" target="_top" xlink:title="mom_error_handler::\lis_root_pe">
<polygon fill="white" stroke="black" points="314,-33 314,-63 407,-63 407,-33 314,-33"/>
<text text-anchor="start" x="322" y="-51" font-family="Helvetica,sans-Serif" font-size="10.00">mom_error_handler::</text>
<text text-anchor="middle" x="360.5" y="-40" font-family="Helvetica,sans-Serif" font-size="10.00">is_root_pe</text>
</a>
</g>
</g>
<!-- Node30&#45;&gt;Node32 -->
<g id="edge2" class="edge"><title>Node30&#45;&gt;Node32</title>
<path fill="none" stroke="midnightblue" d="M132.331,-70.8387C174.124,-72.348 229.417,-72.5882 278,-67 286.403,-66.0335 295.199,-64.5239 303.775,-62.7683"/>
<polygon fill="midnightblue" stroke="midnightblue" points="304.675,-66.1545 313.704,-60.6121 303.189,-59.3139 304.675,-66.1545"/>
</g>
<!-- Node33 -->
<g id="node4" class="node"><title>Node33</title>
<g id="a_node4"><a xlink:href="../../d8/d48/MOM__checksums_8F90.html#a5a04c2e73a1777726a6d2a533911540e" target="_top" xlink:title="subchk">
<polygon fill="white" stroke="black" points="202.5,-38.5 202.5,-57.5 243.5,-57.5 243.5,-38.5 202.5,-38.5"/>
<text text-anchor="middle" x="223" y="-45.5" font-family="Helvetica,sans-Serif" font-size="10.00">subchk</text>
</a>
</g>
</g>
<!-- Node30&#45;&gt;Node33 -->
<g id="edge3" class="edge"><title>Node30&#45;&gt;Node33</title>
<path fill="none" stroke="midnightblue" d="M132.285,-58.9974C153.053,-56.4516 175.021,-53.7587 192.021,-51.6749"/>
<polygon fill="midnightblue" stroke="midnightblue" points="192.912,-55.0919 202.412,-50.4011 192.061,-48.1439 192.912,-55.0919"/>
</g>
<!-- Node34 -->
<g id="node5" class="node"><title>Node34</title>
<g id="a_node5"><a xlink:href="../../d8/d48/MOM__checksums_8F90.html#a685f6e54ff8cc7aed965d24213f895f1" target="_top" xlink:title="substats">
<polygon fill="white" stroke="black" points="200,-0.5 200,-19.5 246,-19.5 246,-0.5 200,-0.5"/>
<text text-anchor="middle" x="223" y="-7.5" font-family="Helvetica,sans-Serif" font-size="10.00">substats</text>
</a>
</g>
</g>
<!-- Node30&#45;&gt;Node34 -->
<g id="edge4" class="edge"><title>Node30&#45;&gt;Node34</title>
<path fill="none" stroke="midnightblue" d="M91.8487,-57.4807C112.259,-49.7028 141.945,-38.4839 168,-29 175.191,-26.3825 182.941,-23.6207 190.264,-21.0381"/>
<polygon fill="midnightblue" stroke="midnightblue" points="191.616,-24.273 199.892,-17.658 189.297,-17.6682 191.616,-24.273"/>
</g>
<!-- Node34&#45;&gt;Node32 -->
<g id="edge5" class="edge"><title>Node34&#45;&gt;Node32</title>
<path fill="none" stroke="midnightblue" d="M246.072,-16.1899C261.797,-20.5998 283.666,-26.733 304.01,-32.4384"/>
<polygon fill="midnightblue" stroke="midnightblue" points="303.268,-35.865 313.841,-35.1954 305.158,-29.125 303.268,-35.865"/>
</g>
</g>
</svg>
