<?xml version="1.0" encoding="UTF-8" standalone="no"?>
<!DOCTYPE svg PUBLIC "-//W3C//DTD SVG 1.1//EN"
 "http://www.w3.org/Graphics/SVG/1.1/DTD/svg11.dtd">
<!-- Generated by graphviz version 2.38.0 (20140413.2041)
 -->
<!-- Title: mom_eos_wright::calculate_density_array_wright Pages: 1 -->
<svg width="548pt" height="132pt"
 viewBox="0.00 0.00 548.00 132.00" xmlns="http://www.w3.org/2000/svg" xmlns:xlink="http://www.w3.org/1999/xlink">
<g id="graph0" class="graph" transform="scale(1 1) rotate(0) translate(4 128)">
<title>mom_eos_wright::calculate_density_array_wright</title>
<polygon fill="white" stroke="none" points="-4,4 -4,-128 544,-128 544,4 -4,4"/>
<!-- Node7 -->
<g id="node1" class="node"><title>Node7</title>
<polygon fill="#bfbfbf" stroke="black" points="0,-24.5 0,-54.5 113,-54.5 113,-24.5 0,-24.5"/>
<text text-anchor="start" x="8" y="-42.5" font-family="Helvetica,sans-Serif" font-size="10.00">mom_eos_wright::calculate</text>
<text text-anchor="middle" x="56.5" y="-31.5" font-family="Helvetica,sans-Serif" font-size="10.00">_density_array_wright</text>
</g>
<!-- Node8 -->
<g id="node2" class="node"><title>Node8</title>
<g id="a_node2"><a xlink:href="../../d1/d01/namespacemom__eos.html#a4fe43b1b2cd799d87411aa66e1d10ab5" target="_top" xlink:title="Calls the appropriate subroutine to calculate the density of sea water for 1&#45;D array inputs...">
<polygon fill="white" stroke="black" points="162,-49.5 162,-79.5 249,-79.5 249,-49.5 162,-49.5"/>
<text text-anchor="start" x="170" y="-67.5" font-family="Helvetica,sans-Serif" font-size="10.00">mom_eos::calculate</text>
<text text-anchor="middle" x="205.5" y="-56.5" font-family="Helvetica,sans-Serif" font-size="10.00">_density_array</text>
</a>
</g>
</g>
<!-- Node7&#45;&gt;Node8 -->
<g id="edge1" class="edge"><title>Node7&#45;&gt;Node8</title>
<path fill="none" stroke="midnightblue" d="M123.007,-50.6407C136.121,-52.8709 149.578,-55.1595 161.682,-57.2181"/>
<polygon fill="midnightblue" stroke="midnightblue" points="123.52,-47.1777 113.074,-48.9514 122.346,-54.0786 123.52,-47.1777"/>
</g>
<!-- Node12 -->
<g id="node6" class="node"><title>Node12</title>
<g id="a_node6"><a xlink:href="../../de/d76/namespacemom__eos__wright.html#a0f71fa2d25ad389061fc26be0466a811" target="_top" xlink:title="mom_eos_wright::calculate\l_density_scalar_wright">
<polygon fill="white" stroke="black" points="149,-0.5 149,-30.5 262,-30.5 262,-0.5 149,-0.5"/>
<text text-anchor="start" x="157" y="-18.5" font-family="Helvetica,sans-Serif" font-size="10.00">mom_eos_wright::calculate</text>
<text text-anchor="middle" x="205.5" y="-7.5" font-family="Helvetica,sans-Serif" font-size="10.00">_density_scalar_wright</text>
</a>
</g>
</g>
<!-- Node7&#45;&gt;Node12 -->
<g id="edge5" class="edge"><title>Node7&#45;&gt;Node12</title>
<path fill="none" stroke="midnightblue" d="M123.078,-28.7935C131.681,-27.3889 140.43,-25.9604 148.847,-24.5862"/>
<polygon fill="midnightblue" stroke="midnightblue" points="122.38,-25.361 113.074,-30.4266 123.508,-32.2695 122.38,-25.361"/>
</g>
<!-- Node9 -->
<g id="node3" class="node"><title>Node9</title>
<g id="a_node3"><a xlink:href="../../d1/d01/namespacemom__eos.html#a82d46c07f4f9c7ad5930fa2508c3e280" target="_top" xlink:title="Returns change in anomalous pressure change from top to non&#45;dimensional position pos between z_t and ...">
<polygon fill="white" stroke="black" points="298,-99 298,-118 410,-118 410,-99 298,-99"/>
<text text-anchor="middle" x="354" y="-106" font-family="Helvetica,sans-Serif" font-size="10.00">mom_eos::frac_dp_at_pos</text>
</a>
</g>
</g>
<!-- Node8&#45;&gt;Node9 -->
<g id="edge2" class="edge"><title>Node8&#45;&gt;Node9</title>
<path fill="none" stroke="midnightblue" d="M258.933,-80.2478C279.725,-86.4926 302.958,-93.4704 321.133,-98.9289"/>
<polygon fill="midnightblue" stroke="midnightblue" points="259.852,-76.8694 249.268,-77.3449 257.838,-83.5735 259.852,-76.8694"/>
</g>
<!-- Node11 -->
<g id="node5" class="node"><title>Node11</title>
<g id="a_node5"><a xlink:href="../../d1/d01/namespacemom__eos.html#a635b77946d77cad1ae90344832724a18" target="_top" xlink:title="mom_eos::int_density\l_dz_generic_plm">
<polygon fill="white" stroke="black" points="307,-49.5 307,-79.5 401,-79.5 401,-49.5 307,-49.5"/>
<text text-anchor="start" x="315" y="-67.5" font-family="Helvetica,sans-Serif" font-size="10.00">mom_eos::int_density</text>
<text text-anchor="middle" x="354" y="-56.5" font-family="Helvetica,sans-Serif" font-size="10.00">_dz_generic_plm</text>
</a>
</g>
</g>
<!-- Node8&#45;&gt;Node11 -->
<g id="edge4" class="edge"><title>Node8&#45;&gt;Node11</title>
<path fill="none" stroke="midnightblue" d="M259.269,-64.5C274.833,-64.5 291.739,-64.5 306.852,-64.5"/>
<polygon fill="midnightblue" stroke="midnightblue" points="259.268,-61.0001 249.268,-64.5 259.268,-68.0001 259.268,-61.0001"/>
</g>
<!-- Node10 -->
<g id="node4" class="node"><title>Node10</title>
<g id="a_node4"><a xlink:href="../../d1/d01/namespacemom__eos.html#a98a25c2517647778ccc6d46bbccc15e9" target="_top" xlink:title="Find the depth at which the reconstructed pressure matches P_tgt. ">
<polygon fill="white" stroke="black" points="446,-93.5 446,-123.5 540,-123.5 540,-93.5 446,-93.5"/>
<text text-anchor="start" x="454" y="-111.5" font-family="Helvetica,sans-Serif" font-size="10.00">mom_eos::find_depth</text>
<text text-anchor="middle" x="493" y="-100.5" font-family="Helvetica,sans-Serif" font-size="10.00">_of_pressure_in_cell</text>
</a>
</g>
</g>
<!-- Node9&#45;&gt;Node10 -->
<g id="edge3" class="edge"><title>Node9&#45;&gt;Node10</title>
<path fill="none" stroke="midnightblue" d="M420.603,-108.5C429.079,-108.5 437.614,-108.5 445.688,-108.5"/>
<polygon fill="midnightblue" stroke="midnightblue" points="420.328,-105 410.328,-108.5 420.328,-112 420.328,-105"/>
</g>
<!-- Node13 -->
<g id="node7" class="node"><title>Node13</title>
<g id="a_node7"><a xlink:href="../../d1/d01/namespacemom__eos.html#aeb230837022ecddda93120c58c67dbc4" target="_top" xlink:title="Calls the appropriate subroutine to calculate density of sea water for scalar inputs. ">
<polygon fill="white" stroke="black" points="310.5,-0.5 310.5,-30.5 397.5,-30.5 397.5,-0.5 310.5,-0.5"/>
<text text-anchor="start" x="318.5" y="-18.5" font-family="Helvetica,sans-Serif" font-size="10.00">mom_eos::calculate</text>
<text text-anchor="middle" x="354" y="-7.5" font-family="Helvetica,sans-Serif" font-size="10.00">_density_scalar</text>
</a>
</g>
</g>
<!-- Node12&#45;&gt;Node13 -->
<g id="edge6" class="edge"><title>Node12&#45;&gt;Node13</title>
<path fill="none" stroke="midnightblue" d="M272.457,-15.5C285.235,-15.5 298.312,-15.5 310.112,-15.5"/>
<polygon fill="midnightblue" stroke="midnightblue" points="272.303,-12.0001 262.303,-15.5 272.303,-19.0001 272.303,-12.0001"/>
</g>
</g>
</svg>
