<?xml version="1.0" encoding="UTF-8" standalone="no"?>
<!DOCTYPE svg PUBLIC "-//W3C//DTD SVG 1.1//EN"
 "http://www.w3.org/Graphics/SVG/1.1/DTD/svg11.dtd">
<!-- Generated by graphviz version 2.38.0 (20140413.2041)
 -->
<!-- Title: mom_diag_mediator::diag_type Pages: 1 -->
<!--zoomable 484 -->
<svg id="main" version="1.1" xmlns="http://www.w3.org/2000/svg" xmlns:xlink="http://www.w3.org/1999/xlink" xml:space="preserve" onload="init(evt)">
<style type="text/css"><![CDATA[
.edge:hover path { stroke: red; }
.edge:hover polygon { stroke: red; fill: red; }
]]></style>
<script type="text/javascript"><![CDATA[
var edges = document.getElementsByTagName('g');
if (edges && edges.length) {
  for (var i=0;i<edges.length;i++) {
    if (edges[i].id.substr(0,4)=='edge') {
      edges[i].setAttribute('class','edge');
    }
  }
}
]]></script>
        <defs>
                <circle id="rim" cx="0" cy="0" r="7"/>
                <circle id="rim2" cx="0" cy="0" r="3.5"/>
                <g id="zoomPlus">
                        <use xlink:href="#rim" fill="#404040">
                                <set attributeName="fill" to="#808080" begin="zoomplus.mouseover" end="zoomplus.mouseout"/>
                        </use>
                        <path d="M-4,0h8M0,-4v8" fill="none" stroke="white" stroke-width="1.5" pointer-events="none"/>
                </g>
                <g id="zoomMin">
                        <use xlink:href="#rim" fill="#404040">
                                <set attributeName="fill" to="#808080" begin="zoomminus.mouseover" end="zoomminus.mouseout"/>
                        </use>
                        <path d="M-4,0h8" fill="none" stroke="white" stroke-width="1.5" pointer-events="none"/>
                </g>
                <g id="dirArrow">
                        <path fill="none" stroke="white" stroke-width="1.5" d="M0,-3.0v7 M-2.5,-0.5L0,-3.0L2.5,-0.5"/>
                </g>
               <g id="resetDef">
                       <use xlink:href="#rim2" fill="#404040">
                               <set attributeName="fill" to="#808080" begin="reset.mouseover" end="reset.mouseout"/>
                       </use>
               </g>
        </defs>

<script type="text/javascript">
var viewWidth = 1076;
var viewHeight = 484;
var sectionId = 'dynsection-0';
</script>
<script xlink:href="../../svgpan.js"/>
<svg id="graph" class="graph">
<g id="viewport">
<title>mom_diag_mediator::diag_type</title>
<polygon fill="white" stroke="none" points="-4,4 -4,-480 1071.5,-480 1071.5,4 -4,4"/>
<!-- Node1 -->
<g id="node1" class="node"><title>Node1</title>
<polygon fill="#bfbfbf" stroke="black" points="633,-322.5 633,-352.5 728,-352.5 728,-322.5 633,-322.5"/>
<text text-anchor="start" x="641" y="-340.5" font-family="Helvetica,sans-Serif" font-size="10.00">mom_diag_mediator::</text>
<text text-anchor="middle" x="680.5" y="-329.5" font-family="Helvetica,sans-Serif" font-size="10.00">diag_type</text>
</g>
<!-- Node1&#45;&gt;Node1 -->
<g id="edge2" class="edge"><title>Node1&#45;&gt;Node1</title>
<path fill="none" stroke="#9a32cd" stroke-dasharray="5,2" d="M718.793,-353.933C733.645,-354.68 746,-349.202 746,-337.5 746,-323.234 727.639,-318.219 708.777,-322.454"/>
<polygon fill="#9a32cd" stroke="#9a32cd" points="719.162,-350.451 708.777,-352.546 718.202,-357.384 719.162,-350.451"/>
<text text-anchor="middle" x="755" y="-335" font-family="Helvetica,sans-Serif" font-size="10.00"> next</text>
</g>
<!-- Node4 -->
<g id="node4" class="node"><title>Node4</title>
<g id="a_node4"><a xlink:href="../../de/d92/structmom__diag__mediator_1_1diag__ctrl.html" target="_top" xlink:title="mom_diag_mediator::\ldiag_ctrl">
<polygon fill="white" stroke="black" points="418,-188.5 418,-218.5 513,-218.5 513,-188.5 418,-188.5"/>
<text text-anchor="start" x="426" y="-206.5" font-family="Helvetica,sans-Serif" font-size="10.00">mom_diag_mediator::</text>
<text text-anchor="middle" x="465.5" y="-195.5" font-family="Helvetica,sans-Serif" font-size="10.00">diag_ctrl</text>
</a>
</g>
</g>
<!-- Node1&#45;&gt;Node4 -->
<g id="edge7" class="edge"><title>Node1&#45;&gt;Node4</title>
<path fill="none" stroke="#9a32cd" stroke-dasharray="5,2" d="M660.368,-315.041C648.701,-303.168 633.409,-288.529 618.5,-277 591.666,-256.25 584.004,-251.837 553.5,-237 539.294,-230.09 523.219,-223.75 508.731,-218.541"/>
<polygon fill="#9a32cd" stroke="#9a32cd" points="658.003,-317.63 667.471,-322.383 663.034,-312.762 658.003,-317.63"/>
<text text-anchor="middle" x="605.5" y="-245.5" font-family="Helvetica,sans-Serif" font-size="10.00"> diags</text>
</g>
<!-- Node2 -->
<g id="node2" class="node"><title>Node2</title>
<polygon fill="white" stroke="#bfbfbf" points="584.5,-456.5 584.5,-475.5 622.5,-475.5 622.5,-456.5 584.5,-456.5"/>
<text text-anchor="middle" x="603.5" y="-463.5" font-family="Helvetica,sans-Serif" font-size="10.00">logical</text>
</g>
<!-- Node2&#45;&gt;Node1 -->
<g id="edge1" class="edge"><title>Node2&#45;&gt;Node1</title>
<path fill="none" stroke="#9a32cd" stroke-dasharray="5,2" d="M615.255,-447.659C617.364,-444.466 619.52,-441.147 621.5,-438 640.324,-408.083 661.151,-372.273 672.331,-352.813"/>
<polygon fill="#9a32cd" stroke="#9a32cd" points="612.274,-445.821 609.62,-456.078 618.091,-449.715 612.274,-445.821"/>
<text text-anchor="middle" x="647.5" y="-424.5" font-family="Helvetica,sans-Serif" font-size="10.00"> in_use</text>
</g>
<!-- Node2&#45;&gt;Node4 -->
<g id="edge5" class="edge"><title>Node2&#45;&gt;Node4</title>
<path fill="none" stroke="#9a32cd" stroke-dasharray="5,2" d="M575.105,-454.765C567.11,-450.656 559.083,-445.156 553.5,-438 508.082,-379.781 542.086,-344.653 512.5,-277 503.004,-255.285 487.326,-232.758 476.715,-218.693"/>
<polygon fill="#9a32cd" stroke="#9a32cd" points="573.774,-458.005 584.325,-458.967 576.677,-451.636 573.774,-458.005"/>
<text text-anchor="middle" x="570" y="-373.5" font-family="Helvetica,sans-Serif" font-size="10.00"> ave_enabled</text>
<text text-anchor="start" x="532.5" y="-362.5" font-family="Helvetica,sans-Serif" font-size="10.00">do_z_remapping_on</text>
<text text-anchor="middle" x="570" y="-351.5" font-family="Helvetica,sans-Serif" font-size="10.00">_t</text>
<text text-anchor="start" x="532.5" y="-340.5" font-family="Helvetica,sans-Serif" font-size="10.00">do_z_remapping</text>
<text text-anchor="middle" x="570" y="-329.5" font-family="Helvetica,sans-Serif" font-size="10.00">_on_u</text>
<text text-anchor="start" x="532.5" y="-318.5" font-family="Helvetica,sans-Serif" font-size="10.00">do_z_remapping</text>
<text text-anchor="middle" x="570" y="-307.5" font-family="Helvetica,sans-Serif" font-size="10.00">_on_v</text>
<text text-anchor="middle" x="570" y="-296.5" font-family="Helvetica,sans-Serif" font-size="10.00">remapping_initialized</text>
</g>
<!-- Node3 -->
<g id="node3" class="node"><title>Node3</title>
<g id="a_node3"><a xlink:href="../../d3/d46/structmom__diag__mediator_1_1axes__grp.html" target="_top" xlink:title="A group of 1D axes that comprise a 1D/2D/3D mesh. ">
<polygon fill="white" stroke="black" points="780,-0.5 780,-30.5 875,-30.5 875,-0.5 780,-0.5"/>
<text text-anchor="start" x="788" y="-18.5" font-family="Helvetica,sans-Serif" font-size="10.00">mom_diag_mediator::</text>
<text text-anchor="middle" x="827.5" y="-7.5" font-family="Helvetica,sans-Serif" font-size="10.00">axes_grp</text>
</a>
</g>
</g>
<!-- Node3&#45;&gt;Node1 -->
<g id="edge3" class="edge"><title>Node3&#45;&gt;Node1</title>
<path fill="none" stroke="#9a32cd" stroke-dasharray="5,2" d="M821.114,-40.6564C812.623,-71.3839 796.353,-125.77 776.5,-170 749.993,-229.056 708.53,-294.223 690.001,-322.324"/>
<polygon fill="#9a32cd" stroke="#9a32cd" points="824.54,-41.3978 823.786,-30.8298 817.785,-39.561 824.54,-41.3978"/>
<text text-anchor="middle" x="791" y="-201" font-family="Helvetica,sans-Serif" font-size="10.00"> remap_axes</text>
</g>
<!-- Node3&#45;&gt;Node4 -->
<g id="edge11" class="edge"><title>Node3&#45;&gt;Node4</title>
<path fill="none" stroke="#9a32cd" stroke-dasharray="5,2" d="M770.651,-33.2778C761.354,-37.5146 752.244,-42.702 744.5,-49 694.674,-89.524 719.336,-134.978 665.5,-170 641.025,-185.921 564.197,-194.86 513.202,-199.177"/>
<polygon fill="#9a32cd" stroke="#9a32cd" points="772.111,-36.4608 779.966,-29.3519 769.392,-30.0103 772.111,-36.4608"/>
<text text-anchor="middle" x="760.5" y="-162" font-family="Helvetica,sans-Serif" font-size="10.00"> axescvzl</text>
<text text-anchor="middle" x="760.5" y="-151" font-family="Helvetica,sans-Serif" font-size="10.00">axeszi</text>
<text text-anchor="middle" x="760.5" y="-140" font-family="Helvetica,sans-Serif" font-size="10.00">axescui</text>
<text text-anchor="middle" x="760.5" y="-129" font-family="Helvetica,sans-Serif" font-size="10.00">axest1</text>
<text text-anchor="middle" x="760.5" y="-118" font-family="Helvetica,sans-Serif" font-size="10.00">axesb1</text>
<text text-anchor="middle" x="760.5" y="-107" font-family="Helvetica,sans-Serif" font-size="10.00">axeszl</text>
<text text-anchor="middle" x="760.5" y="-96" font-family="Helvetica,sans-Serif" font-size="10.00">axescvi</text>
<text text-anchor="middle" x="760.5" y="-85" font-family="Helvetica,sans-Serif" font-size="10.00">axescul</text>
<text text-anchor="middle" x="760.5" y="-74" font-family="Helvetica,sans-Serif" font-size="10.00">axesti</text>
<text text-anchor="middle" x="760.5" y="-63" font-family="Helvetica,sans-Serif" font-size="10.00">axescvl</text>
<text text-anchor="middle" x="760.5" y="-52" font-family="Helvetica,sans-Serif" font-size="10.00">...</text>
</g>
<!-- Node4&#45;&gt;Node3 -->
<g id="edge4" class="edge"><title>Node4&#45;&gt;Node3</title>
<path fill="none" stroke="#9a32cd" stroke-dasharray="5,2" d="M482.902,-180.166C510.988,-145.851 569.846,-80.8004 635.5,-49 681.292,-26.8203 739.6,-19.4866 779.883,-17.2088"/>
<polygon fill="#9a32cd" stroke="#9a32cd" points="479.986,-178.206 476.439,-188.19 485.438,-182.598 479.986,-178.206"/>
<text text-anchor="middle" x="650.5" y="-107" font-family="Helvetica,sans-Serif" font-size="10.00"> diag_cs</text>
</g>
<!-- Node5 -->
<g id="node5" class="node"><title>Node5</title>
<polygon fill="white" stroke="#bfbfbf" points="0,-328 0,-347 67,-347 67,-328 0,-328"/>
<text text-anchor="middle" x="33.5" y="-335" font-family="Helvetica,sans-Serif" font-size="10.00">remapping_cs</text>
</g>
<!-- Node5&#45;&gt;Node4 -->
<g id="edge6" class="edge"><title>Node5&#45;&gt;Node4</title>
<path fill="none" stroke="#9a32cd" stroke-dasharray="5,2" d="M41.8763,-318.946C54.3331,-295.167 80.2295,-253.764 116.5,-237 168.838,-212.809 334.925,-206.624 417.68,-205.043"/>
<polygon fill="#9a32cd" stroke="#9a32cd" points="38.7227,-317.427 37.3694,-327.935 44.9802,-320.565 38.7227,-317.427"/>
<text text-anchor="middle" x="135.5" y="-245.5" font-family="Helvetica,sans-Serif" font-size="10.00"> remap_cs</text>
</g>
<!-- Node6 -->
<g id="node6" class="node"><title>Node6</title>
<polygon fill="white" stroke="#bfbfbf" points="85,-328 85,-347 136,-347 136,-328 85,-328"/>
<text text-anchor="middle" x="110.5" y="-335" font-family="Helvetica,sans-Serif" font-size="10.00">time_type</text>
</g>
<!-- Node6&#45;&gt;Node4 -->
<g id="edge8" class="edge"><title>Node6&#45;&gt;Node4</title>
<path fill="none" stroke="#9a32cd" stroke-dasharray="5,2" d="M118.157,-318.511C129.493,-294.549 153.269,-253.287 188.5,-237 228.166,-218.663 349.603,-210.027 417.782,-206.528"/>
<polygon fill="#9a32cd" stroke="#9a32cd" points="114.855,-317.32 113.945,-327.876 121.239,-320.192 114.855,-317.32"/>
<text text-anchor="middle" x="206.5" y="-245.5" font-family="Helvetica,sans-Serif" font-size="10.00"> time_end</text>
</g>
<!-- Node7 -->
<g id="node7" class="node"><title>Node7</title>
<polygon fill="white" stroke="#bfbfbf" points="154.5,-328 154.5,-347 240.5,-347 240.5,-328 154.5,-328"/>
<text text-anchor="middle" x="197.5" y="-335" font-family="Helvetica,sans-Serif" font-size="10.00">type(regridding_cs)</text>
</g>
<!-- Node7&#45;&gt;Node4 -->
<g id="edge9" class="edge"><title>Node7&#45;&gt;Node4</title>
<path fill="none" stroke="#9a32cd" stroke-dasharray="5,2" d="M201.724,-317.971C207.991,-295.013 222.084,-256.543 249.5,-237 275.748,-218.29 362.387,-210.097 417.635,-206.704"/>
<polygon fill="#9a32cd" stroke="#9a32cd" points="198.286,-317.294 199.252,-327.844 205.076,-318.994 198.286,-317.294"/>
<text text-anchor="middle" x="267.5" y="-245.5" font-family="Helvetica,sans-Serif" font-size="10.00"> regrid_cs</text>
</g>
<!-- Node8 -->
<g id="node8" class="node"><title>Node8</title>
<polygon fill="white" stroke="#bfbfbf" points="258.5,-328 258.5,-347 334.5,-347 334.5,-328 258.5,-328"/>
<text text-anchor="middle" x="296.5" y="-335" font-family="Helvetica,sans-Serif" font-size="10.00">character(len=6)</text>
</g>
<!-- Node8&#45;&gt;Node4 -->
<g id="edge10" class="edge"><title>Node8&#45;&gt;Node4</title>
<path fill="none" stroke="#9a32cd" stroke-dasharray="5,2" d="M290.874,-318.033C285.417,-296.029 280.461,-259.43 299.5,-237 314.513,-219.313 374.227,-211.078 417.746,-207.366"/>
<polygon fill="#9a32cd" stroke="#9a32cd" points="287.535,-319.09 293.57,-327.798 294.283,-317.227 287.535,-319.09"/>
<text text-anchor="middle" x="328" y="-245.5" font-family="Helvetica,sans-Serif" font-size="10.00"> z_remap_suffix</text>
</g>
<!-- Node9 -->
<g id="node9" class="node"><title>Node9</title>
<polygon fill="white" stroke="#bfbfbf" points="427.5,-328 427.5,-347 503.5,-347 503.5,-328 427.5,-328"/>
<text text-anchor="middle" x="465.5" y="-335" font-family="Helvetica,sans-Serif" font-size="10.00">ocean_grid_type</text>
</g>
<!-- Node9&#45;&gt;Node4 -->
<g id="edge12" class="edge"><title>Node9&#45;&gt;Node4</title>
<path fill="none" stroke="#9a32cd" stroke-dasharray="5,2" d="M465.5,-317.531C465.5,-290.812 465.5,-242.691 465.5,-218.783"/>
<polygon fill="#9a32cd" stroke="#9a32cd" points="462,-317.839 465.5,-327.839 469,-317.839 462,-317.839"/>
<text text-anchor="middle" x="469" y="-245.5" font-family="Helvetica,sans-Serif" font-size="10.00"> g</text>
</g>
<!-- Node10 -->
<g id="node10" class="node"><title>Node10</title>
<polygon fill="white" stroke="#bfbfbf" points="457.5,-456.5 457.5,-475.5 487.5,-475.5 487.5,-456.5 457.5,-456.5"/>
<text text-anchor="middle" x="472.5" y="-463.5" font-family="Helvetica,sans-Serif" font-size="10.00">real</text>
</g>
<!-- Node10&#45;&gt;Node1 -->
<g id="edge18" class="edge"><title>Node10&#45;&gt;Node1</title>
<path fill="none" stroke="#9a32cd" stroke-dasharray="5,2" d="M496.846,-454.996C532.65,-440.087 597.53,-412.27 618.5,-398 637.741,-384.906 656.555,-365.676 668.317,-352.65"/>
<polygon fill="#9a32cd" stroke="#9a32cd" points="495.477,-451.774 487.579,-458.836 498.157,-458.241 495.477,-451.774"/>
<text text-anchor="middle" x="601" y="-430" font-family="Helvetica,sans-Serif" font-size="10.00"> mask3d</text>
<text text-anchor="middle" x="601" y="-419" font-family="Helvetica,sans-Serif" font-size="10.00">mask2d</text>
</g>
<!-- Node10&#45;&gt;Node4 -->
<g id="edge13" class="edge"><title>Node10&#45;&gt;Node4</title>
<path fill="none" stroke="#9a32cd" stroke-dasharray="5,2" d="M448.207,-455.299C425.762,-444.868 393.8,-425.927 379.5,-398 354.989,-350.133 356.829,-325.765 379.5,-277 391.602,-250.969 418.162,-230.928 438.586,-218.581"/>
<polygon fill="#9a32cd" stroke="#9a32cd" points="446.895,-458.546 457.457,-459.373 449.716,-452.14 446.895,-458.546"/>
<text text-anchor="middle" x="399" y="-390" font-family="Helvetica,sans-Serif" font-size="10.00"> h</text>
<text text-anchor="middle" x="399" y="-379" font-family="Helvetica,sans-Serif" font-size="10.00">mask3dtl</text>
<text text-anchor="middle" x="399" y="-368" font-family="Helvetica,sans-Serif" font-size="10.00">time_int</text>
<text text-anchor="middle" x="399" y="-357" font-family="Helvetica,sans-Serif" font-size="10.00">mask3dcvi</text>
<text text-anchor="middle" x="399" y="-346" font-family="Helvetica,sans-Serif" font-size="10.00">mask3dcui</text>
<text text-anchor="middle" x="399" y="-335" font-family="Helvetica,sans-Serif" font-size="10.00">mask3dbui</text>
<text text-anchor="middle" x="399" y="-324" font-family="Helvetica,sans-Serif" font-size="10.00">mask2dt</text>
<text text-anchor="middle" x="399" y="-313" font-family="Helvetica,sans-Serif" font-size="10.00">zi_remap</text>
<text text-anchor="middle" x="399" y="-302" font-family="Helvetica,sans-Serif" font-size="10.00">mask3dcvl</text>
<text text-anchor="middle" x="399" y="-291" font-family="Helvetica,sans-Serif" font-size="10.00">mask3dcul</text>
<text text-anchor="middle" x="399" y="-280" font-family="Helvetica,sans-Serif" font-size="10.00">...</text>
</g>
<!-- Node11 -->
<g id="node11" class="node"><title>Node11</title>
<polygon fill="white" stroke="#bfbfbf" points="780,-456.5 780,-475.5 821,-475.5 821,-456.5 780,-456.5"/>
<text text-anchor="middle" x="800.5" y="-463.5" font-family="Helvetica,sans-Serif" font-size="10.00">integer</text>
</g>
<!-- Node11&#45;&gt;Node1 -->
<g id="edge19" class="edge"><title>Node11&#45;&gt;Node1</title>
<path fill="none" stroke="#9a32cd" stroke-dasharray="5,2" d="M770.343,-455.588C760.078,-451.361 749.049,-445.582 740.5,-438 713.033,-413.64 694.295,-373.627 685.757,-352.529"/>
<polygon fill="#9a32cd" stroke="#9a32cd" points="769.254,-458.918 779.846,-459.174 771.726,-452.369 769.254,-458.918"/>
<text text-anchor="middle" x="763.5" y="-424.5" font-family="Helvetica,sans-Serif" font-size="10.00"> fms_diag_id</text>
</g>
<!-- Node11&#45;&gt;Node3 -->
<g id="edge16" class="edge"><title>Node11&#45;&gt;Node3</title>
<path fill="none" stroke="#9a32cd" stroke-dasharray="5,2" d="M816.316,-449.112C827.723,-436.462 842.182,-417.669 848.5,-398 892.525,-260.955 846.825,-82.1284 831.879,-30.8227"/>
<polygon fill="#9a32cd" stroke="#9a32cd" points="813.681,-446.804 809.376,-456.485 818.779,-451.602 813.681,-446.804"/>
<text text-anchor="middle" x="882" y="-251" font-family="Helvetica,sans-Serif" font-size="10.00"> handles</text>
<text text-anchor="middle" x="882" y="-240" font-family="Helvetica,sans-Serif" font-size="10.00">rank</text>
</g>
<!-- Node11&#45;&gt;Node4 -->
<g id="edge14" class="edge"><title>Node11&#45;&gt;Node4</title>
<path fill="none" stroke="#9a32cd" stroke-dasharray="5,2" d="M803.94,-446.144C809.585,-408.803 816.29,-324.924 773.5,-277 739.291,-238.687 590.715,-217.662 513.109,-209.111"/>
<polygon fill="#9a32cd" stroke="#9a32cd" points="800.464,-445.709 802.278,-456.147 807.369,-446.856 800.464,-445.709"/>
<text text-anchor="middle" x="826" y="-390" font-family="Helvetica,sans-Serif" font-size="10.00"> ied</text>
<text text-anchor="middle" x="826" y="-379" font-family="Helvetica,sans-Serif" font-size="10.00">jed</text>
<text text-anchor="middle" x="826" y="-368" font-family="Helvetica,sans-Serif" font-size="10.00">doc_unit</text>
<text text-anchor="middle" x="826" y="-357" font-family="Helvetica,sans-Serif" font-size="10.00">isd</text>
<text text-anchor="middle" x="826" y="-346" font-family="Helvetica,sans-Serif" font-size="10.00">jsd</text>
<text text-anchor="middle" x="826" y="-335" font-family="Helvetica,sans-Serif" font-size="10.00">js</text>
<text text-anchor="middle" x="826" y="-324" font-family="Helvetica,sans-Serif" font-size="10.00">is</text>
<text text-anchor="middle" x="826" y="-313" font-family="Helvetica,sans-Serif" font-size="10.00">je</text>
<text text-anchor="middle" x="826" y="-302" font-family="Helvetica,sans-Serif" font-size="10.00">ie</text>
<text text-anchor="middle" x="826" y="-291" font-family="Helvetica,sans-Serif" font-size="10.00">nz_remap</text>
<text text-anchor="middle" x="826" y="-280" font-family="Helvetica,sans-Serif" font-size="10.00">...</text>
</g>
<!-- Node12 -->
<g id="node12" class="node"><title>Node12</title>
<polygon fill="white" stroke="#bfbfbf" points="893.5,-194 893.5,-213 969.5,-213 969.5,-194 893.5,-194"/>
<text text-anchor="middle" x="931.5" y="-201" font-family="Helvetica,sans-Serif" font-size="10.00">character(len=9)</text>
</g>
<!-- Node12&#45;&gt;Node3 -->
<g id="edge15" class="edge"><title>Node12&#45;&gt;Node3</title>
<path fill="none" stroke="#9a32cd" stroke-dasharray="5,2" d="M929.262,-183.657C924.739,-152.617 912.012,-90.0867 879.5,-49 873.687,-41.6534 865.725,-35.5172 857.78,-30.6275"/>
<polygon fill="#9a32cd" stroke="#9a32cd" points="925.836,-184.447 930.618,-193.901 932.775,-183.528 925.836,-184.447"/>
<text text-anchor="middle" x="953.5" y="-118" font-family="Helvetica,sans-Serif" font-size="10.00"> v_cell_method</text>
<text text-anchor="middle" x="953.5" y="-107" font-family="Helvetica,sans-Serif" font-size="10.00">y_cell_method</text>
<text text-anchor="middle" x="953.5" y="-96" font-family="Helvetica,sans-Serif" font-size="10.00">x_cell_method</text>
</g>
<!-- Node13 -->
<g id="node13" class="node"><title>Node13</title>
<polygon fill="white" stroke="#bfbfbf" points="987.5,-194 987.5,-213 1067.5,-213 1067.5,-194 987.5,-194"/>
<text text-anchor="middle" x="1027.5" y="-201" font-family="Helvetica,sans-Serif" font-size="10.00">character(len=15)</text>
</g>
<!-- Node13&#45;&gt;Node3 -->
<g id="edge17" class="edge"><title>Node13&#45;&gt;Node3</title>
<path fill="none" stroke="#9a32cd" stroke-dasharray="5,2" d="M1028.06,-183.236C1027.89,-150.588 1022.52,-84.4845 984.5,-49 968.882,-34.424 915.547,-25.6431 875.341,-20.9481"/>
<polygon fill="#9a32cd" stroke="#9a32cd" points="1024.56,-183.591 1027.94,-193.632 1031.56,-183.674 1024.56,-183.591"/>
<text text-anchor="middle" x="1032" y="-107" font-family="Helvetica,sans-Serif" font-size="10.00"> id</text>
</g>
</g>
</svg>
        <g id="navigator" transform="translate(0 0)" fill="#404254">
                <rect fill="#f2f5e9" fill-opacity="0.5" stroke="#606060" stroke-width=".5" x="0" y="0" width="60" height="60"/>
                <use id="zoomplus" xlink:href="#zoomPlus" x="17" y="9" onmousedown="handleZoom(evt,'in')"/>
                <use id="zoomminus" xlink:href="#zoomMin" x="42" y="9" onmousedown="handleZoom(evt,'out')"/>
                <use id="reset" xlink:href="#resetDef" x="30" y="36" onmousedown="handleReset()"/>
                <g id="arrowUp" xlink:href="#dirArrow" transform="translate(30 24)" onmousedown="handlePan(0,-1)">
                  <use xlink:href="#rim" fill="#404040">
                        <set attributeName="fill" to="#808080" begin="arrowUp.mouseover" end="arrowUp.mouseout"/>
                  </use>
                  <path fill="none" stroke="white" stroke-width="1.5" d="M0,-3.0v7 M-2.5,-0.5L0,-3.0L2.5,-0.5"/>
                </g>
                <g id="arrowRight" xlink:href="#dirArrow" transform="rotate(90) translate(36 -43)" onmousedown="handlePan(1,0)">
                  <use xlink:href="#rim" fill="#404040">
                        <set attributeName="fill" to="#808080" begin="arrowRight.mouseover" end="arrowRight.mouseout"/>
                  </use>
                  <path fill="none" stroke="white" stroke-width="1.5" d="M0,-3.0v7 M-2.5,-0.5L0,-3.0L2.5,-0.5"/>
                </g>
                <g id="arrowDown" xlink:href="#dirArrow" transform="rotate(180) translate(-30 -48)" onmousedown="handlePan(0,1)">
                  <use xlink:href="#rim" fill="#404040">
                        <set attributeName="fill" to="#808080" begin="arrowDown.mouseover" end="arrowDown.mouseout"/>
                  </use>
                  <path fill="none" stroke="white" stroke-width="1.5" d="M0,-3.0v7 M-2.5,-0.5L0,-3.0L2.5,-0.5"/>
                </g>
                <g id="arrowLeft" xlink:href="#dirArrow" transform="rotate(270) translate(-36 17)" onmousedown="handlePan(-1,0)">
                  <use xlink:href="#rim" fill="#404040">
                        <set attributeName="fill" to="#808080" begin="arrowLeft.mouseover" end="arrowLeft.mouseout"/>
                  </use>
                  <path fill="none" stroke="white" stroke-width="1.5" d="M0,-3.0v7 M-2.5,-0.5L0,-3.0L2.5,-0.5"/>
                </g>
        </g>
        <svg viewBox="0 0 15 15" width="100%" height="30px" preserveAspectRatio="xMaxYMin meet">
         <g id="arrow_out" transform="scale(0.3 0.3)">
          <a xlink:href="structmom__diag__mediator_1_1diag__type__coll__graph_org.svg" target="_base">
           <rect id="button" ry="5" rx="5" y="6" x="6" height="38" width="38"
                fill="#f2f5e9" fill-opacity="0.5" stroke="#606060" stroke-width="1.0"/>
           <path id="arrow"
             d="M 11.500037,31.436501 C 11.940474,20.09759 22.043105,11.32322 32.158766,21.979434 L 37.068811,17.246167 C 37.068811,17.246167 37.088388,32 37.088388,32 L 22.160133,31.978069 C 22.160133,31.978069 26.997745,27.140456 26.997745,27.140456 C 18.528582,18.264221 13.291696,25.230495 11.500037,31.436501 z"
             style="fill:#404040;"/>
          </a>
         </g>
        </svg>
</svg>
