<?xml version="1.0" encoding="UTF-8" standalone="no"?>
<!DOCTYPE svg PUBLIC "-//W3C//DTD SVG 1.1//EN"
 "http://www.w3.org/Graphics/SVG/1.1/DTD/svg11.dtd">
<!-- Generated by graphviz version 2.38.0 (20140413.2041)
 -->
<!-- Title: plm_functions::plm_reconstruction Pages: 1 -->
<svg width="1096pt" height="263pt"
 viewBox="0.00 0.00 1096.00 262.50" xmlns="http://www.w3.org/2000/svg" xmlns:xlink="http://www.w3.org/1999/xlink">
<g id="graph0" class="graph" transform="scale(1 1) rotate(0) translate(4 258.5)">
<title>plm_functions::plm_reconstruction</title>
<polygon fill="white" stroke="none" points="-4,4 -4,-258.5 1092,-258.5 1092,4 -4,4"/>
<!-- Node19 -->
<g id="node1" class="node"><title>Node19</title>
<polygon fill="#bfbfbf" stroke="black" points="0,-33 0,-63 83,-63 83,-33 0,-33"/>
<text text-anchor="start" x="8" y="-51" font-family="Helvetica,sans-Serif" font-size="10.00">plm_functions::plm</text>
<text text-anchor="middle" x="41.5" y="-40" font-family="Helvetica,sans-Serif" font-size="10.00">_reconstruction</text>
</g>
<!-- Node20 -->
<g id="node2" class="node"><title>Node20</title>
<g id="a_node2"><a xlink:href="../../d6/d75/namespacemom__remapping.html#a07d7276310f329f56560a1290bcb8b0a" target="_top" xlink:title="Creates polynomial reconstructions of u0 on the source grid h0. ">
<polygon fill="white" stroke="black" points="138.5,-77 138.5,-107 236.5,-107 236.5,-77 138.5,-77"/>
<text text-anchor="start" x="146.5" y="-95" font-family="Helvetica,sans-Serif" font-size="10.00">mom_remapping::build</text>
<text text-anchor="middle" x="187.5" y="-84" font-family="Helvetica,sans-Serif" font-size="10.00">_reconstructions_1d</text>
</a>
</g>
</g>
<!-- Node19&#45;&gt;Node20 -->
<g id="edge1" class="edge"><title>Node19&#45;&gt;Node20</title>
<path fill="none" stroke="midnightblue" d="M93.2876,-63.5184C107.945,-67.9972 123.891,-72.8694 138.381,-77.297"/>
<polygon fill="midnightblue" stroke="midnightblue" points="93.9657,-60.066 83.3794,-60.4909 91.9202,-66.7604 93.9657,-60.066"/>
</g>
<!-- Node33 -->
<g id="node15" class="node"><title>Node33</title>
<g id="a_node15"><a xlink:href="../../d6/d75/namespacemom__remapping.html#aad5ec4e3f91e936e34113503d05deeeb" target="_top" xlink:title="Runs unit tests on remapping functions. Should only be called from a single/root thread Returns True ...">
<polygon fill="white" stroke="black" points="448,-38.5 448,-57.5 597,-57.5 597,-38.5 448,-38.5"/>
<text text-anchor="middle" x="522.5" y="-45.5" font-family="Helvetica,sans-Serif" font-size="10.00">mom_remapping::remappingunittests</text>
</a>
</g>
</g>
<!-- Node19&#45;&gt;Node33 -->
<g id="edge18" class="edge"><title>Node19&#45;&gt;Node33</title>
<path fill="none" stroke="midnightblue" d="M93.5271,-48C178.632,-48 349.866,-48 447.98,-48"/>
<polygon fill="midnightblue" stroke="midnightblue" points="93.3393,-44.5001 83.3393,-48 93.3392,-51.5001 93.3393,-44.5001"/>
</g>
<!-- Node35 -->
<g id="node17" class="node"><title>Node35</title>
<g id="a_node17"><a xlink:href="../../d7/d73/namespacemom__ale.html#aabdfc467d534b505fcee9f63d7eb3f77" target="_top" xlink:title="Use plm reconstruction for pressure gradient (determine edge values) By using a PLM (limited piecewis...">
<polygon fill="white" stroke="black" points="119,-0.5 119,-19.5 256,-19.5 256,-0.5 119,-0.5"/>
<text text-anchor="middle" x="187.5" y="-7.5" font-family="Helvetica,sans-Serif" font-size="10.00">mom_ale::pressure_gradient_plm</text>
</a>
</g>
</g>
<!-- Node19&#45;&gt;Node35 -->
<g id="edge17" class="edge"><title>Node19&#45;&gt;Node35</title>
<path fill="none" stroke="midnightblue" d="M93.3061,-34.5928C112.163,-29.6168 133.148,-24.0789 150.424,-19.5201"/>
<polygon fill="midnightblue" stroke="midnightblue" points="92.1554,-31.2766 83.3794,-37.2124 93.9415,-38.0449 92.1554,-31.2766"/>
</g>
<!-- Node21 -->
<g id="node3" class="node"><title>Node21</title>
<g id="a_node3"><a xlink:href="../../d6/d75/namespacemom__remapping.html#a6d1533ffa647f3305aba055e2685b095" target="_top" xlink:title="Remaps column of values u0 on grid h0 to grid h1 assuming the top edge is aligned. ">
<polygon fill="white" stroke="black" points="292,-126 292,-156 412,-156 412,-126 292,-126"/>
<text text-anchor="start" x="300" y="-144" font-family="Helvetica,sans-Serif" font-size="10.00">mom_remapping::remapping</text>
<text text-anchor="middle" x="352" y="-133" font-family="Helvetica,sans-Serif" font-size="10.00">_core_h</text>
</a>
</g>
</g>
<!-- Node20&#45;&gt;Node21 -->
<g id="edge2" class="edge"><title>Node20&#45;&gt;Node21</title>
<path fill="none" stroke="midnightblue" d="M246.549,-109.504C264.416,-114.892 283.918,-120.772 301.181,-125.978"/>
<polygon fill="midnightblue" stroke="midnightblue" points="247.4,-106.105 236.815,-106.569 245.379,-112.807 247.4,-106.105"/>
</g>
<!-- Node32 -->
<g id="node14" class="node"><title>Node32</title>
<g id="a_node14"><a xlink:href="../../d6/d75/namespacemom__remapping.html#a8b967872b8db2ac7d538991f7f255e56" target="_top" xlink:title="Remaps column of values u0 on grid h0 to implied grid h1 where the interfaces of h1 differ from those...">
<polygon fill="white" stroke="black" points="292,-77 292,-107 412,-107 412,-77 292,-77"/>
<text text-anchor="start" x="300" y="-95" font-family="Helvetica,sans-Serif" font-size="10.00">mom_remapping::remapping</text>
<text text-anchor="middle" x="352" y="-84" font-family="Helvetica,sans-Serif" font-size="10.00">_core_w</text>
</a>
</g>
</g>
<!-- Node20&#45;&gt;Node32 -->
<g id="edge13" class="edge"><title>Node20&#45;&gt;Node32</title>
<path fill="none" stroke="midnightblue" d="M247.202,-92C261.761,-92 277.369,-92 291.945,-92"/>
<polygon fill="midnightblue" stroke="midnightblue" points="246.815,-88.5001 236.815,-92 246.815,-95.5001 246.815,-88.5001"/>
</g>
<!-- Node22 -->
<g id="node4" class="node"><title>Node22</title>
<g id="a_node4"><a xlink:href="../../de/dd7/namespacemom__ale__sponge.html#a8f6e6db99f860b048a58e97e58c101a6" target="_top" xlink:title="This subroutine applies damping to the layers thicknesses, temp, salt and a variety of tracers for ev...">
<polygon fill="white" stroke="black" points="470.5,-199 470.5,-229 574.5,-229 574.5,-199 470.5,-199"/>
<text text-anchor="start" x="478.5" y="-217" font-family="Helvetica,sans-Serif" font-size="10.00">mom_ale_sponge::apply</text>
<text text-anchor="middle" x="522.5" y="-206" font-family="Helvetica,sans-Serif" font-size="10.00">_ale_sponge</text>
</a>
</g>
</g>
<!-- Node21&#45;&gt;Node22 -->
<g id="edge3" class="edge"><title>Node21&#45;&gt;Node22</title>
<path fill="none" stroke="midnightblue" d="M397.435,-160.251C425.325,-172.334 460.774,-187.691 486.631,-198.894"/>
<polygon fill="midnightblue" stroke="midnightblue" points="398.481,-156.889 387.913,-156.126 395.698,-163.313 398.481,-156.889"/>
</g>
<!-- Node24 -->
<g id="node6" class="node"><title>Node24</title>
<g id="a_node6"><a xlink:href="../../d6/d62/namespacemom__state__initialization.html#a71ee3c056ca59c1c3529a4ec22e09fe3" target="_top" xlink:title="Adjust the layer thicknesses by cutting away the top at the depth where the hydrostatic pressure matc...">
<polygon fill="white" stroke="black" points="472,-126 472,-156 573,-156 573,-126 472,-126"/>
<text text-anchor="start" x="480" y="-144" font-family="Helvetica,sans-Serif" font-size="10.00">mom_state_initialization</text>
<text text-anchor="middle" x="522.5" y="-133" font-family="Helvetica,sans-Serif" font-size="10.00">::cut_off_column_top</text>
</a>
</g>
</g>
<!-- Node21&#45;&gt;Node24 -->
<g id="edge5" class="edge"><title>Node21&#45;&gt;Node24</title>
<path fill="none" stroke="midnightblue" d="M422.57,-141C439.092,-141 456.391,-141 471.819,-141"/>
<polygon fill="midnightblue" stroke="midnightblue" points="422.407,-137.5 412.407,-141 422.407,-144.5 422.407,-137.5"/>
</g>
<!-- Node30 -->
<g id="node12" class="node"><title>Node30</title>
<g id="a_node12"><a xlink:href="../../d9/d06/namespacemom__diag__mediator.html#ab5e628e0b8acd96234fab33d0fae2161" target="_top" xlink:title="Remap diagnostic field to z&#45;star vertical grid. ">
<polygon fill="white" stroke="black" points="475,-77 475,-107 570,-107 570,-77 475,-77"/>
<text text-anchor="start" x="483" y="-95" font-family="Helvetica,sans-Serif" font-size="10.00">mom_diag_mediator::</text>
<text text-anchor="middle" x="522.5" y="-84" font-family="Helvetica,sans-Serif" font-size="10.00">remap_diag_to_z</text>
</a>
</g>
</g>
<!-- Node21&#45;&gt;Node30 -->
<g id="edge11" class="edge"><title>Node21&#45;&gt;Node30</title>
<path fill="none" stroke="midnightblue" d="M414.544,-123.103C434.472,-117.308 456.231,-110.98 474.889,-105.554"/>
<polygon fill="midnightblue" stroke="midnightblue" points="413.555,-119.745 404.93,-125.899 415.51,-126.467 413.555,-119.745"/>
</g>
<!-- Node23 -->
<g id="node5" class="node"><title>Node23</title>
<g id="a_node5"><a xlink:href="../../d8/df3/namespacemom__diabatic__driver.html#a61e57d3902367aa46aa3c2d949ee900f" target="_top" xlink:title="This subroutine imposes the diapycnal mass fluxes and the accompanying diapycnal advection of momentu...">
<polygon fill="white" stroke="black" points="638,-224 638,-254 729,-254 729,-224 638,-224"/>
<text text-anchor="start" x="646" y="-242" font-family="Helvetica,sans-Serif" font-size="10.00">mom_diabatic_driver</text>
<text text-anchor="middle" x="683.5" y="-231" font-family="Helvetica,sans-Serif" font-size="10.00">::diabatic</text>
</a>
</g>
</g>
<!-- Node22&#45;&gt;Node23 -->
<g id="edge4" class="edge"><title>Node22&#45;&gt;Node23</title>
<path fill="none" stroke="midnightblue" d="M584.894,-223.653C602.529,-226.426 621.42,-229.396 637.839,-231.978"/>
<polygon fill="midnightblue" stroke="midnightblue" points="585.106,-220.144 574.684,-222.048 584.019,-227.059 585.106,-220.144"/>
</g>
<!-- Node25 -->
<g id="node7" class="node"><title>Node25</title>
<g id="a_node7"><a xlink:href="../../d6/d62/namespacemom__state__initialization.html#a5c77bf2b0ea9d28e28b661a2a42d3f88" target="_top" xlink:title="Run simple unit tests. ">
<polygon fill="white" stroke="black" points="633,-175 633,-205 734,-205 734,-175 633,-175"/>
<text text-anchor="start" x="641" y="-193" font-family="Helvetica,sans-Serif" font-size="10.00">mom_state_initialization</text>
<text text-anchor="middle" x="683.5" y="-182" font-family="Helvetica,sans-Serif" font-size="10.00">::mom_state_init_tests</text>
</a>
</g>
</g>
<!-- Node24&#45;&gt;Node25 -->
<g id="edge6" class="edge"><title>Node24&#45;&gt;Node25</title>
<path fill="none" stroke="midnightblue" d="M582.275,-159.113C599.178,-164.322 617.426,-169.946 633.659,-174.948"/>
<polygon fill="midnightblue" stroke="midnightblue" points="583.09,-155.702 572.503,-156.101 581.028,-162.391 583.09,-155.702"/>
</g>
<!-- Node26 -->
<g id="node8" class="node"><title>Node26</title>
<g id="a_node8"><a xlink:href="../../d6/d62/namespacemom__state__initialization.html#acc1029776c1bdda2862ed0f95c8dc640" target="_top" xlink:title="Adjust the layer thicknesses by cutting away the top of each model column at the depth where the hydr...">
<polygon fill="white" stroke="black" points="633,-126 633,-156 734,-156 734,-126 633,-126"/>
<text text-anchor="start" x="641" y="-144" font-family="Helvetica,sans-Serif" font-size="10.00">mom_state_initialization</text>
<text text-anchor="middle" x="683.5" y="-133" font-family="Helvetica,sans-Serif" font-size="10.00">::trim_for_ice</text>
</a>
</g>
</g>
<!-- Node24&#45;&gt;Node26 -->
<g id="edge7" class="edge"><title>Node24&#45;&gt;Node26</title>
<path fill="none" stroke="midnightblue" d="M583.807,-141C599.979,-141 617.279,-141 632.805,-141"/>
<polygon fill="midnightblue" stroke="midnightblue" points="583.372,-137.5 573.372,-141 583.372,-144.5 583.372,-137.5"/>
</g>
<!-- Node27 -->
<g id="node9" class="node"><title>Node27</title>
<g id="a_node9"><a xlink:href="../../d6/d62/namespacemom__state__initialization.html#af4e854627c6572332ba3fd895f169321" target="_top" xlink:title="mom_state_initialization\l::mom_initialize_state">
<polygon fill="white" stroke="black" points="770,-113 770,-143 871,-143 871,-113 770,-113"/>
<text text-anchor="start" x="778" y="-131" font-family="Helvetica,sans-Serif" font-size="10.00">mom_state_initialization</text>
<text text-anchor="middle" x="820.5" y="-120" font-family="Helvetica,sans-Serif" font-size="10.00">::mom_initialize_state</text>
</a>
</g>
</g>
<!-- Node26&#45;&gt;Node27 -->
<g id="edge8" class="edge"><title>Node26&#45;&gt;Node27</title>
<path fill="none" stroke="midnightblue" d="M744.207,-135.25C752.67,-134.435 761.299,-133.605 769.552,-132.81"/>
<polygon fill="midnightblue" stroke="midnightblue" points="743.621,-131.791 734.002,-136.233 744.292,-138.758 743.621,-131.791"/>
</g>
<!-- Node28 -->
<g id="node10" class="node"><title>Node28</title>
<g id="a_node10"><a xlink:href="../../da/d01/namespacemom.html#afebdc0103ad9cbe0ed4a54e522dc4104" target="_top" xlink:title="This subroutine initializes MOM. ">
<polygon fill="white" stroke="black" points="907,-90.5 907,-109.5 996,-109.5 996,-90.5 907,-90.5"/>
<text text-anchor="middle" x="951.5" y="-97.5" font-family="Helvetica,sans-Serif" font-size="10.00">mom::initialize_mom</text>
</a>
</g>
</g>
<!-- Node27&#45;&gt;Node28 -->
<g id="edge9" class="edge"><title>Node27&#45;&gt;Node28</title>
<path fill="none" stroke="midnightblue" d="M880.805,-115.128C889.564,-113.226 898.451,-111.297 906.815,-109.482"/>
<polygon fill="midnightblue" stroke="midnightblue" points="880.036,-111.713 871.006,-117.255 881.521,-118.554 880.036,-111.713"/>
</g>
<!-- Node29 -->
<g id="node11" class="node"><title>Node29</title>
<g id="a_node11"><a xlink:href="../../de/dbc/MOM__driver_8F90.html#a08fffeb2d8e8acbf9ed4609be6d258c6" target="_top" xlink:title="mom_main">
<polygon fill="white" stroke="black" points="1032,-90.5 1032,-109.5 1088,-109.5 1088,-90.5 1032,-90.5"/>
<text text-anchor="middle" x="1060" y="-97.5" font-family="Helvetica,sans-Serif" font-size="10.00">mom_main</text>
</a>
</g>
</g>
<!-- Node28&#45;&gt;Node29 -->
<g id="edge10" class="edge"><title>Node28&#45;&gt;Node29</title>
<path fill="none" stroke="midnightblue" d="M1006.41,-100C1015.21,-100 1023.98,-100 1031.77,-100"/>
<polygon fill="midnightblue" stroke="midnightblue" points="1006.12,-96.5001 996.125,-100 1006.12,-103.5 1006.12,-96.5001"/>
</g>
<!-- Node31 -->
<g id="node13" class="node"><title>Node31</title>
<g id="a_node13"><a xlink:href="../../d9/d06/namespacemom__diag__mediator.html#adb1030a0216c52dd0d25bd67a5b31868" target="_top" xlink:title="mom_diag_mediator::\lpost_data_3d">
<polygon fill="white" stroke="black" points="636,-77 636,-107 731,-107 731,-77 636,-77"/>
<text text-anchor="start" x="644" y="-95" font-family="Helvetica,sans-Serif" font-size="10.00">mom_diag_mediator::</text>
<text text-anchor="middle" x="683.5" y="-84" font-family="Helvetica,sans-Serif" font-size="10.00">post_data_3d</text>
</a>
</g>
</g>
<!-- Node30&#45;&gt;Node31 -->
<g id="edge12" class="edge"><title>Node30&#45;&gt;Node31</title>
<path fill="none" stroke="midnightblue" d="M580.538,-92C598.732,-92 618.635,-92 635.99,-92"/>
<polygon fill="midnightblue" stroke="midnightblue" points="580.345,-88.5001 570.345,-92 580.345,-95.5001 580.345,-88.5001"/>
</g>
<!-- Node32&#45;&gt;Node33 -->
<g id="edge14" class="edge"><title>Node32&#45;&gt;Node33</title>
<path fill="none" stroke="midnightblue" d="M419.793,-74.3838C429.26,-71.8982 438.875,-69.38 448,-67 459.86,-63.9064 472.804,-60.5531 484.478,-57.5369"/>
<polygon fill="midnightblue" stroke="midnightblue" points="418.789,-71.0287 410.007,-76.9551 420.568,-77.7989 418.789,-71.0287"/>
</g>
<!-- Node34 -->
<g id="node16" class="node"><title>Node34</title>
<g id="a_node16"><a xlink:href="../../da/d01/namespacemom.html#a6cfc2cd88d60f051fe90e68c2f16b46b" target="_top" xlink:title="This s/r calls unit tests for other modules. These are NOT normally invoked and so we provide the mod...">
<polygon fill="white" stroke="black" points="786.5,-62.5 786.5,-81.5 854.5,-81.5 854.5,-62.5 786.5,-62.5"/>
<text text-anchor="middle" x="820.5" y="-69.5" font-family="Helvetica,sans-Serif" font-size="10.00">mom::unittests</text>
</a>
</g>
</g>
<!-- Node33&#45;&gt;Node34 -->
<g id="edge15" class="edge"><title>Node33&#45;&gt;Node34</title>
<path fill="none" stroke="midnightblue" d="M607.185,-54.7853C666.641,-59.606 743.289,-65.8207 786.339,-69.3112"/>
<polygon fill="midnightblue" stroke="midnightblue" points="607.299,-51.2831 597.049,-53.9634 606.733,-58.2602 607.299,-51.2831"/>
</g>
<!-- Node34&#45;&gt;Node28 -->
<g id="edge16" class="edge"><title>Node34&#45;&gt;Node28</title>
<path fill="none" stroke="midnightblue" d="M864.729,-81.3831C878.235,-84.3145 893.141,-87.55 906.686,-90.49"/>
<polygon fill="midnightblue" stroke="midnightblue" points="865.236,-77.9116 854.721,-79.2107 863.751,-84.7523 865.236,-77.9116"/>
</g>
</g>
</svg>
