<?xml version="1.0" encoding="UTF-8" standalone="no"?>
<!DOCTYPE svg PUBLIC "-//W3C//DTD SVG 1.1//EN"
 "http://www.w3.org/Graphics/SVG/1.1/DTD/svg11.dtd">
<!-- Generated by graphviz version 2.38.0 (20140413.2041)
 -->
<!-- Title: mom_checksum_packages::mom_state_stats Pages: 1 -->
<svg width="379pt" height="61pt"
 viewBox="0.00 0.00 379.00 61.00" xmlns="http://www.w3.org/2000/svg" xmlns:xlink="http://www.w3.org/1999/xlink">
<g id="graph0" class="graph" transform="scale(1 1) rotate(0) translate(4 57)">
<title>mom_checksum_packages::mom_state_stats</title>
<polygon fill="white" stroke="none" points="-4,4 -4,-57 375,-57 375,4 -4,4"/>
<!-- Node10 -->
<g id="node1" class="node"><title>Node10</title>
<polygon fill="#bfbfbf" stroke="black" points="0,-22.5 0,-52.5 113,-52.5 113,-22.5 0,-22.5"/>
<text text-anchor="start" x="8" y="-40.5" font-family="Helvetica,sans-Serif" font-size="10.00">mom_checksum_packages</text>
<text text-anchor="middle" x="56.5" y="-29.5" font-family="Helvetica,sans-Serif" font-size="10.00">::mom_state_stats</text>
</g>
<!-- Node11 -->
<g id="node2" class="node"><title>Node11</title>
<g id="a_node2"><a xlink:href="../../d0/de6/namespacemom__error__handler.html#ad5f00a53059c72fe2332d1436c80ca71" target="_top" xlink:title="mom_error_handler::\lis_root_pe">
<polygon fill="white" stroke="black" points="278,-22.5 278,-52.5 371,-52.5 371,-22.5 278,-22.5"/>
<text text-anchor="start" x="286" y="-40.5" font-family="Helvetica,sans-Serif" font-size="10.00">mom_error_handler::</text>
<text text-anchor="middle" x="324.5" y="-29.5" font-family="Helvetica,sans-Serif" font-size="10.00">is_root_pe</text>
</a>
</g>
</g>
<!-- Node10&#45;&gt;Node11 -->
<g id="edge1" class="edge"><title>Node10&#45;&gt;Node11</title>
<path fill="none" stroke="midnightblue" d="M113.138,-39.6158C124.974,-39.9842 137.399,-40.3099 149,-40.5 190.328,-41.1773 200.674,-41.2603 242,-40.5 250.343,-40.3465 259.165,-40.1047 267.802,-39.8233"/>
<polygon fill="midnightblue" stroke="midnightblue" points="267.944,-43.3206 277.817,-39.4778 267.702,-36.3248 267.944,-43.3206"/>
</g>
<!-- Node12 -->
<g id="node3" class="node"><title>Node12</title>
<g id="a_node3"><a xlink:href="../../d0/de6/namespacemom__error__handler.html#a1c462df7b61f1296407b4af51dfeceab" target="_top" xlink:title="mom_error_handler::\lmom_mesg">
<polygon fill="white" stroke="black" points="149,-0.5 149,-30.5 242,-30.5 242,-0.5 149,-0.5"/>
<text text-anchor="start" x="157" y="-18.5" font-family="Helvetica,sans-Serif" font-size="10.00">mom_error_handler::</text>
<text text-anchor="middle" x="195.5" y="-7.5" font-family="Helvetica,sans-Serif" font-size="10.00">mom_mesg</text>
</a>
</g>
</g>
<!-- Node10&#45;&gt;Node12 -->
<g id="edge2" class="edge"><title>Node10&#45;&gt;Node12</title>
<path fill="none" stroke="midnightblue" d="M113.223,-28.5518C121.65,-27.1986 130.344,-25.8024 138.771,-24.4492"/>
<polygon fill="midnightblue" stroke="midnightblue" points="139.562,-27.867 148.881,-22.8257 138.453,-20.9556 139.562,-27.867"/>
</g>
<!-- Node12&#45;&gt;Node11 -->
<g id="edge3" class="edge"><title>Node12&#45;&gt;Node11</title>
<path fill="none" stroke="midnightblue" d="M242.35,-23.4425C250.623,-24.8756 259.33,-26.3839 267.846,-27.8591"/>
<polygon fill="midnightblue" stroke="midnightblue" points="267.267,-31.3108 277.717,-29.5692 268.462,-24.4136 267.267,-31.3108"/>
</g>
</g>
</svg>
