<?xml version="1.0" encoding="UTF-8" standalone="no"?>
<!DOCTYPE svg PUBLIC "-//W3C//DTD SVG 1.1//EN"
 "http://www.w3.org/Graphics/SVG/1.1/DTD/svg11.dtd">
<!-- Generated by graphviz version 2.38.0 (20140413.2041)
 -->
<!-- Title: mom_forcing_type::forcing_singlepointprint Pages: 1 -->
<svg width="460pt" height="39pt"
 viewBox="0.00 0.00 460.00 39.00" xmlns="http://www.w3.org/2000/svg" xmlns:xlink="http://www.w3.org/1999/xlink">
<g id="graph0" class="graph" transform="scale(1 1) rotate(0) translate(4 35)">
<title>mom_forcing_type::forcing_singlepointprint</title>
<polygon fill="white" stroke="none" points="-4,4 -4,-35 456,-35 456,4 -4,4"/>
<!-- Node73 -->
<g id="node1" class="node"><title>Node73</title>
<polygon fill="#bfbfbf" stroke="black" points="0,-0.5 0,-30.5 111,-30.5 111,-0.5 0,-0.5"/>
<text text-anchor="start" x="8" y="-18.5" font-family="Helvetica,sans-Serif" font-size="10.00">mom_forcing_type::forcing</text>
<text text-anchor="middle" x="55.5" y="-7.5" font-family="Helvetica,sans-Serif" font-size="10.00">_singlepointprint</text>
</g>
<!-- Node74 -->
<g id="node2" class="node"><title>Node74</title>
<g id="a_node2"><a xlink:href="../../d7/d3b/namespacemom__diabatic__aux.html#a1e6934e7993df27e75e5cee7a1d8cf65" target="_top" xlink:title="Update the thickness, temperature, and salinity due to thermodynamic boundary forcing (contained in f...">
<polygon fill="white" stroke="black" points="147,-6 147,-25 325,-25 325,-6 147,-6"/>
<text text-anchor="middle" x="236" y="-13" font-family="Helvetica,sans-Serif" font-size="10.00">mom_diabatic_aux::applyboundaryfluxesinout</text>
</a>
</g>
</g>
<!-- Node73&#45;&gt;Node74 -->
<g id="edge1" class="edge"><title>Node73&#45;&gt;Node74</title>
<path fill="none" stroke="midnightblue" d="M121.096,-15.5C129.499,-15.5 138.218,-15.5 146.923,-15.5"/>
<polygon fill="midnightblue" stroke="midnightblue" points="121.026,-12.0001 111.026,-15.5 121.026,-19.0001 121.026,-12.0001"/>
</g>
<!-- Node75 -->
<g id="node3" class="node"><title>Node75</title>
<g id="a_node3"><a xlink:href="../../d8/df3/namespacemom__diabatic__driver.html#a61e57d3902367aa46aa3c2d949ee900f" target="_top" xlink:title="This subroutine imposes the diapycnal mass fluxes and the accompanying diapycnal advection of momentu...">
<polygon fill="white" stroke="black" points="361,-0.5 361,-30.5 452,-30.5 452,-0.5 361,-0.5"/>
<text text-anchor="start" x="369" y="-18.5" font-family="Helvetica,sans-Serif" font-size="10.00">mom_diabatic_driver</text>
<text text-anchor="middle" x="406.5" y="-7.5" font-family="Helvetica,sans-Serif" font-size="10.00">::diabatic</text>
</a>
</g>
</g>
<!-- Node74&#45;&gt;Node75 -->
<g id="edge2" class="edge"><title>Node74&#45;&gt;Node75</title>
<path fill="none" stroke="midnightblue" d="M335.211,-15.5C344.019,-15.5 352.618,-15.5 360.608,-15.5"/>
<polygon fill="midnightblue" stroke="midnightblue" points="335.198,-12.0001 325.198,-15.5 335.198,-19.0001 335.198,-12.0001"/>
</g>
</g>
</svg>
