<?xml version="1.0" encoding="UTF-8" standalone="no"?>
<!DOCTYPE svg PUBLIC "-//W3C//DTD SVG 1.1//EN"
 "http://www.w3.org/Graphics/SVG/1.1/DTD/svg11.dtd">
<!-- Generated by graphviz version 2.38.0 (20140413.2041)
 -->
<!-- Title: mom_forcing_type::mech_forcing_diags Pages: 1 -->
<svg width="261pt" height="39pt"
 viewBox="0.00 0.00 261.00 39.00" xmlns="http://www.w3.org/2000/svg" xmlns:xlink="http://www.w3.org/1999/xlink">
<g id="graph0" class="graph" transform="scale(1 1) rotate(0) translate(4 35)">
<title>mom_forcing_type::mech_forcing_diags</title>
<polygon fill="white" stroke="none" points="-4,4 -4,-35 257,-35 257,4 -4,4"/>
<!-- Node76 -->
<g id="node1" class="node"><title>Node76</title>
<polygon fill="#bfbfbf" stroke="black" points="0,-0.5 0,-30.5 107,-30.5 107,-0.5 0,-0.5"/>
<text text-anchor="start" x="8" y="-18.5" font-family="Helvetica,sans-Serif" font-size="10.00">mom_forcing_type::mech</text>
<text text-anchor="middle" x="53.5" y="-7.5" font-family="Helvetica,sans-Serif" font-size="10.00">_forcing_diags</text>
</g>
<!-- Node77 -->
<g id="node2" class="node"><title>Node77</title>
<g id="a_node2"><a xlink:href="../../d9/d06/namespacemom__diag__mediator.html#a0be5d1cbc6c6f8f63950ce7d9bc6455a" target="_top" xlink:title="mom_diag_mediator::\lquery_averaging_enabled">
<polygon fill="white" stroke="black" points="143,-0.5 143,-30.5 253,-30.5 253,-0.5 143,-0.5"/>
<text text-anchor="start" x="151" y="-18.5" font-family="Helvetica,sans-Serif" font-size="10.00">mom_diag_mediator::</text>
<text text-anchor="middle" x="198" y="-7.5" font-family="Helvetica,sans-Serif" font-size="10.00">query_averaging_enabled</text>
</a>
</g>
</g>
<!-- Node76&#45;&gt;Node77 -->
<g id="edge1" class="edge"><title>Node76&#45;&gt;Node77</title>
<path fill="none" stroke="midnightblue" d="M107.157,-15.5C115.386,-15.5 123.971,-15.5 132.43,-15.5"/>
<polygon fill="midnightblue" stroke="midnightblue" points="132.652,-19.0001 142.652,-15.5 132.652,-12.0001 132.652,-19.0001"/>
</g>
</g>
</svg>
