<?xml version="1.0" encoding="UTF-8" standalone="no"?>
<!DOCTYPE svg PUBLIC "-//W3C//DTD SVG 1.1//EN"
 "http://www.w3.org/Graphics/SVG/1.1/DTD/svg11.dtd">
<!-- Generated by graphviz version 2.38.0 (20140413.2041)
 -->
<!-- Title: mom_forcing_type::forcing_diagnostics Pages: 1 -->
<svg width="265pt" height="137pt"
 viewBox="0.00 0.00 265.00 137.00" xmlns="http://www.w3.org/2000/svg" xmlns:xlink="http://www.w3.org/1999/xlink">
<g id="graph0" class="graph" transform="scale(1 1) rotate(0) translate(4 133)">
<title>mom_forcing_type::forcing_diagnostics</title>
<polygon fill="white" stroke="none" points="-4,4 -4,-133 261,-133 261,4 -4,4"/>
<!-- Node64 -->
<g id="node1" class="node"><title>Node64</title>
<polygon fill="#bfbfbf" stroke="black" points="0,-49.5 0,-79.5 111,-79.5 111,-49.5 0,-49.5"/>
<text text-anchor="start" x="8" y="-67.5" font-family="Helvetica,sans-Serif" font-size="10.00">mom_forcing_type::forcing</text>
<text text-anchor="middle" x="55.5" y="-56.5" font-family="Helvetica,sans-Serif" font-size="10.00">_diagnostics</text>
</g>
<!-- Node65 -->
<g id="node2" class="node"><title>Node65</title>
<g id="a_node2"><a xlink:href="../../d9/d8a/namespacemom__spatial__means.html#aee0e9ccdac32367f6ae1064f49e41771" target="_top" xlink:title="mom_spatial_means::\lglobal_area_integral">
<polygon fill="white" stroke="black" points="154.5,-98.5 154.5,-128.5 249.5,-128.5 249.5,-98.5 154.5,-98.5"/>
<text text-anchor="start" x="162.5" y="-116.5" font-family="Helvetica,sans-Serif" font-size="10.00">mom_spatial_means::</text>
<text text-anchor="middle" x="202" y="-105.5" font-family="Helvetica,sans-Serif" font-size="10.00">global_area_integral</text>
</a>
</g>
</g>
<!-- Node64&#45;&gt;Node65 -->
<g id="edge1" class="edge"><title>Node64&#45;&gt;Node65</title>
<path fill="none" stroke="midnightblue" d="M101.034,-79.6014C115.455,-84.4917 131.613,-89.9707 146.663,-95.0744"/>
<polygon fill="midnightblue" stroke="midnightblue" points="145.77,-98.4672 156.364,-98.3641 148.018,-91.838 145.77,-98.4672"/>
</g>
<!-- Node66 -->
<g id="node3" class="node"><title>Node66</title>
<g id="a_node3"><a xlink:href="../../d9/d8a/namespacemom__spatial__means.html#aa49abab62973a263d6f5a1c776f62a11" target="_top" xlink:title="mom_spatial_means::\lglobal_area_mean">
<polygon fill="white" stroke="black" points="154.5,-49.5 154.5,-79.5 249.5,-79.5 249.5,-49.5 154.5,-49.5"/>
<text text-anchor="start" x="162.5" y="-67.5" font-family="Helvetica,sans-Serif" font-size="10.00">mom_spatial_means::</text>
<text text-anchor="middle" x="202" y="-56.5" font-family="Helvetica,sans-Serif" font-size="10.00">global_area_mean</text>
</a>
</g>
</g>
<!-- Node64&#45;&gt;Node66 -->
<g id="edge2" class="edge"><title>Node64&#45;&gt;Node66</title>
<path fill="none" stroke="midnightblue" d="M111.129,-64.5C121.91,-64.5 133.248,-64.5 144.102,-64.5"/>
<polygon fill="midnightblue" stroke="midnightblue" points="144.325,-68.0001 154.325,-64.5 144.325,-61.0001 144.325,-68.0001"/>
</g>
<!-- Node67 -->
<g id="node4" class="node"><title>Node67</title>
<g id="a_node4"><a xlink:href="../../d9/d06/namespacemom__diag__mediator.html#a0be5d1cbc6c6f8f63950ce7d9bc6455a" target="_top" xlink:title="mom_diag_mediator::\lquery_averaging_enabled">
<polygon fill="white" stroke="black" points="147,-0.5 147,-30.5 257,-30.5 257,-0.5 147,-0.5"/>
<text text-anchor="start" x="155" y="-18.5" font-family="Helvetica,sans-Serif" font-size="10.00">mom_diag_mediator::</text>
<text text-anchor="middle" x="202" y="-7.5" font-family="Helvetica,sans-Serif" font-size="10.00">query_averaging_enabled</text>
</a>
</g>
</g>
<!-- Node64&#45;&gt;Node67 -->
<g id="edge3" class="edge"><title>Node64&#45;&gt;Node67</title>
<path fill="none" stroke="midnightblue" d="M101.034,-49.3986C115.455,-44.5083 131.613,-39.0293 146.663,-33.9256"/>
<polygon fill="midnightblue" stroke="midnightblue" points="148.018,-37.162 156.364,-30.6359 145.77,-30.5328 148.018,-37.162"/>
</g>
</g>
</svg>
