<?xml version="1.0" encoding="UTF-8" standalone="no"?>
<!DOCTYPE svg PUBLIC "-//W3C//DTD SVG 1.1//EN"
 "http://www.w3.org/Graphics/SVG/1.1/DTD/svg11.dtd">
<!-- Generated by graphviz version 2.38.0 (20140413.2041)
 -->
<!-- Title: mom_forcing_type::calculatebuoyancyflux1d Pages: 1 -->
<svg width="639pt" height="227pt"
 viewBox="0.00 0.00 639.00 227.00" xmlns="http://www.w3.org/2000/svg" xmlns:xlink="http://www.w3.org/1999/xlink">
<g id="graph0" class="graph" transform="scale(1 1) rotate(0) translate(4 223)">
<title>mom_forcing_type::calculatebuoyancyflux1d</title>
<polygon fill="white" stroke="none" points="-4,4 -4,-223 635,-223 635,4 -4,4"/>
<!-- Node17 -->
<g id="node1" class="node"><title>Node17</title>
<polygon fill="#bfbfbf" stroke="black" points="0,-50 0,-69 173,-69 173,-50 0,-50"/>
<text text-anchor="middle" x="86.5" y="-57" font-family="Helvetica,sans-Serif" font-size="10.00">mom_forcing_type::calculatebuoyancyflux1d</text>
</g>
<!-- Node18 -->
<g id="node2" class="node"><title>Node18</title>
<g id="a_node2"><a xlink:href="../../d1/d01/namespacemom__eos.html#a204529f8434a0322314e6ce2a9762436" target="_top" xlink:title="Calls the appropriate subroutine to calculate density derivatives for 1&#45;D array inputs. ">
<polygon fill="white" stroke="black" points="235.5,-90.5 235.5,-120.5 322.5,-120.5 322.5,-90.5 235.5,-90.5"/>
<text text-anchor="start" x="243.5" y="-108.5" font-family="Helvetica,sans-Serif" font-size="10.00">mom_eos::calculate</text>
<text text-anchor="middle" x="279" y="-97.5" font-family="Helvetica,sans-Serif" font-size="10.00">_density_derivs</text>
</a>
</g>
</g>
<!-- Node17&#45;&gt;Node18 -->
<g id="edge1" class="edge"><title>Node17&#45;&gt;Node18</title>
<path fill="none" stroke="midnightblue" d="M126.972,-69.0312C155.49,-75.9175 194.308,-85.291 225.449,-92.8104"/>
<polygon fill="midnightblue" stroke="midnightblue" points="224.724,-96.2361 235.267,-95.1812 226.368,-89.4316 224.724,-96.2361"/>
</g>
<!-- Node24 -->
<g id="node8" class="node"><title>Node24</title>
<g id="a_node8"><a xlink:href="../../dd/dc3/namespacemom__forcing__type.html#ab67e7c2e99099bcf22d12885f349e1e4" target="_top" xlink:title="This subroutine extracts fluxes from the surface fluxes type. It works on a j&#45;row for optimization pu...">
<polygon fill="white" stroke="black" points="209,-50 209,-69 349,-69 349,-50 209,-50"/>
<text text-anchor="middle" x="279" y="-57" font-family="Helvetica,sans-Serif" font-size="10.00">mom_forcing_type::extractfluxes1d</text>
</a>
</g>
</g>
<!-- Node17&#45;&gt;Node24 -->
<g id="edge7" class="edge"><title>Node17&#45;&gt;Node24</title>
<path fill="none" stroke="midnightblue" d="M173.276,-59.5C181.772,-59.5 190.369,-59.5 198.793,-59.5"/>
<polygon fill="midnightblue" stroke="midnightblue" points="198.965,-63.0001 208.965,-59.5 198.965,-56.0001 198.965,-63.0001"/>
</g>
<!-- Node25 -->
<g id="node9" class="node"><title>Node25</title>
<g id="a_node9"><a xlink:href="../../d8/daf/namespacemom__shortwave__abs.html#a8a1184c3f836d0900dfd5fa587cfb879" target="_top" xlink:title="mom_shortwave_abs::\lsumswoverbands">
<polygon fill="white" stroke="black" points="230,-0.5 230,-30.5 328,-30.5 328,-0.5 230,-0.5"/>
<text text-anchor="start" x="238" y="-18.5" font-family="Helvetica,sans-Serif" font-size="10.00">mom_shortwave_abs::</text>
<text text-anchor="middle" x="279" y="-7.5" font-family="Helvetica,sans-Serif" font-size="10.00">sumswoverbands</text>
</a>
</g>
</g>
<!-- Node17&#45;&gt;Node25 -->
<g id="edge9" class="edge"><title>Node17&#45;&gt;Node25</title>
<path fill="none" stroke="midnightblue" d="M128.836,-49.9527C155.363,-43.8256 190.21,-35.777 219.551,-29.0001"/>
<polygon fill="midnightblue" stroke="midnightblue" points="220.721,-32.322 229.677,-26.6613 219.146,-25.5016 220.721,-32.322"/>
</g>
<!-- Node19 -->
<g id="node3" class="node"><title>Node19</title>
<g id="a_node3"><a xlink:href="../../d5/de6/namespacemom__eos__linear.html#a73d8a625582247379092adf1aeeb55e0" target="_top" xlink:title="mom_eos_linear::calculate\l_density_derivs_linear">
<polygon fill="white" stroke="black" points="388,-188.5 388,-218.5 499,-218.5 499,-188.5 388,-188.5"/>
<text text-anchor="start" x="396" y="-206.5" font-family="Helvetica,sans-Serif" font-size="10.00">mom_eos_linear::calculate</text>
<text text-anchor="middle" x="443.5" y="-195.5" font-family="Helvetica,sans-Serif" font-size="10.00">_density_derivs_linear</text>
</a>
</g>
</g>
<!-- Node18&#45;&gt;Node19 -->
<g id="edge2" class="edge"><title>Node18&#45;&gt;Node19</title>
<path fill="none" stroke="midnightblue" d="M298.905,-120.744C319.313,-136.729 353.18,-161.924 385,-179.5 387.888,-181.095 390.904,-182.651 393.977,-184.154"/>
<polygon fill="midnightblue" stroke="midnightblue" points="392.749,-187.444 403.292,-188.492 395.704,-181.098 392.749,-187.444"/>
</g>
<!-- Node20 -->
<g id="node4" class="node"><title>Node20</title>
<g id="a_node4"><a xlink:href="../../dd/d6b/namespacemom__eos__unesco.html#af8666837abadea54c016bf59838f96cc" target="_top" xlink:title="mom_eos_unesco::calculate\l_density_derivs_unesco">
<polygon fill="white" stroke="black" points="385,-139.5 385,-169.5 502,-169.5 502,-139.5 385,-139.5"/>
<text text-anchor="start" x="393" y="-157.5" font-family="Helvetica,sans-Serif" font-size="10.00">mom_eos_unesco::calculate</text>
<text text-anchor="middle" x="443.5" y="-146.5" font-family="Helvetica,sans-Serif" font-size="10.00">_density_derivs_unesco</text>
</a>
</g>
</g>
<!-- Node18&#45;&gt;Node20 -->
<g id="edge3" class="edge"><title>Node18&#45;&gt;Node20</title>
<path fill="none" stroke="midnightblue" d="M322.695,-118.374C341.12,-123.93 362.988,-130.524 382.967,-136.548"/>
<polygon fill="midnightblue" stroke="midnightblue" points="382.014,-139.917 392.599,-139.453 384.035,-133.215 382.014,-139.917"/>
</g>
<!-- Node21 -->
<g id="node5" class="node"><title>Node21</title>
<g id="a_node5"><a xlink:href="../../de/d76/namespacemom__eos__wright.html#ad7748e85ddacb33ad90ec3a9017e6e72" target="_top" xlink:title="mom_eos_wright::calculate\l_density_derivs_wright">
<polygon fill="white" stroke="black" points="387,-90.5 387,-120.5 500,-120.5 500,-90.5 387,-90.5"/>
<text text-anchor="start" x="395" y="-108.5" font-family="Helvetica,sans-Serif" font-size="10.00">mom_eos_wright::calculate</text>
<text text-anchor="middle" x="443.5" y="-97.5" font-family="Helvetica,sans-Serif" font-size="10.00">_density_derivs_wright</text>
</a>
</g>
</g>
<!-- Node18&#45;&gt;Node21 -->
<g id="edge4" class="edge"><title>Node18&#45;&gt;Node21</title>
<path fill="none" stroke="midnightblue" d="M322.695,-105.5C339.277,-105.5 358.649,-105.5 376.922,-105.5"/>
<polygon fill="midnightblue" stroke="midnightblue" points="376.935,-109 386.935,-105.5 376.935,-102 376.935,-109"/>
</g>
<!-- Node22 -->
<g id="node6" class="node"><title>Node22</title>
<g id="a_node6"><a xlink:href="../../d0/de6/namespacemom__error__handler.html#a460cfb79a06c29fc249952c2a3710d67" target="_top" xlink:title="mom_error_handler::\lmom_error">
<polygon fill="white" stroke="black" points="397,-41.5 397,-71.5 490,-71.5 490,-41.5 397,-41.5"/>
<text text-anchor="start" x="405" y="-59.5" font-family="Helvetica,sans-Serif" font-size="10.00">mom_error_handler::</text>
<text text-anchor="middle" x="443.5" y="-48.5" font-family="Helvetica,sans-Serif" font-size="10.00">mom_error</text>
</a>
</g>
</g>
<!-- Node18&#45;&gt;Node22 -->
<g id="edge5" class="edge"><title>Node18&#45;&gt;Node22</title>
<path fill="none" stroke="midnightblue" d="M322.695,-92.6258C342.421,-86.6776 366.095,-79.539 387.17,-73.1842"/>
<polygon fill="midnightblue" stroke="midnightblue" points="388.397,-76.4697 396.961,-70.2317 386.376,-69.7678 388.397,-76.4697"/>
</g>
<!-- Node23 -->
<g id="node7" class="node"><title>Node23</title>
<g id="a_node7"><a xlink:href="../../d0/de6/namespacemom__error__handler.html#ad5f00a53059c72fe2332d1436c80ca71" target="_top" xlink:title="mom_error_handler::\lis_root_pe">
<polygon fill="white" stroke="black" points="538,-41.5 538,-71.5 631,-71.5 631,-41.5 538,-41.5"/>
<text text-anchor="start" x="546" y="-59.5" font-family="Helvetica,sans-Serif" font-size="10.00">mom_error_handler::</text>
<text text-anchor="middle" x="584.5" y="-48.5" font-family="Helvetica,sans-Serif" font-size="10.00">is_root_pe</text>
</a>
</g>
</g>
<!-- Node22&#45;&gt;Node23 -->
<g id="edge6" class="edge"><title>Node22&#45;&gt;Node23</title>
<path fill="none" stroke="midnightblue" d="M490.014,-56.5C502.014,-56.5 515.102,-56.5 527.581,-56.5"/>
<polygon fill="midnightblue" stroke="midnightblue" points="527.884,-60.0001 537.884,-56.5 527.884,-53.0001 527.884,-60.0001"/>
</g>
<!-- Node24&#45;&gt;Node22 -->
<g id="edge8" class="edge"><title>Node24&#45;&gt;Node22</title>
<path fill="none" stroke="midnightblue" d="M349.386,-58.219C361.796,-57.9899 374.583,-57.7539 386.556,-57.5328"/>
<polygon fill="midnightblue" stroke="midnightblue" points="386.904,-61.0271 396.838,-57.343 386.775,-54.0283 386.904,-61.0271"/>
</g>
</g>
</svg>
