<?xml version="1.0" encoding="UTF-8" standalone="no"?>
<!DOCTYPE svg PUBLIC "-//W3C//DTD SVG 1.1//EN"
 "http://www.w3.org/Graphics/SVG/1.1/DTD/svg11.dtd">
<!-- Generated by graphviz version 2.38.0 (20140413.2041)
 -->
<!-- Title: mom::register_diags_ts_vardec Pages: 1 -->
<svg width="314pt" height="39pt"
 viewBox="0.00 0.00 314.00 39.00" xmlns="http://www.w3.org/2000/svg" xmlns:xlink="http://www.w3.org/1999/xlink">
<g id="graph0" class="graph" transform="scale(1 1) rotate(0) translate(4 35)">
<title>mom::register_diags_ts_vardec</title>
<polygon fill="white" stroke="none" points="-4,4 -4,-35 310,-35 310,4 -4,4"/>
<!-- Node338 -->
<g id="node1" class="node"><title>Node338</title>
<polygon fill="#bfbfbf" stroke="black" points="0,-0.5 0,-30.5 89,-30.5 89,-0.5 0,-0.5"/>
<text text-anchor="start" x="8" y="-18.5" font-family="Helvetica,sans-Serif" font-size="10.00">mom::register_diags</text>
<text text-anchor="middle" x="44.5" y="-7.5" font-family="Helvetica,sans-Serif" font-size="10.00">_ts_vardec</text>
</g>
<!-- Node339 -->
<g id="node2" class="node"><title>Node339</title>
<g id="a_node2"><a xlink:href="../../da/d01/namespacemom.html#afebdc0103ad9cbe0ed4a54e522dc4104" target="_top" xlink:title="This subroutine initializes MOM. ">
<polygon fill="white" stroke="black" points="125,-6 125,-25 214,-25 214,-6 125,-6"/>
<text text-anchor="middle" x="169.5" y="-13" font-family="Helvetica,sans-Serif" font-size="10.00">mom::initialize_mom</text>
</a>
</g>
</g>
<!-- Node338&#45;&gt;Node339 -->
<g id="edge1" class="edge"><title>Node338&#45;&gt;Node339</title>
<path fill="none" stroke="midnightblue" d="M99.4581,-15.5C107.975,-15.5 116.687,-15.5 124.929,-15.5"/>
<polygon fill="midnightblue" stroke="midnightblue" points="99.2116,-12.0001 89.2115,-15.5 99.2115,-19.0001 99.2116,-12.0001"/>
</g>
<!-- Node340 -->
<g id="node3" class="node"><title>Node340</title>
<g id="a_node3"><a xlink:href="../../de/dbc/MOM__driver_8F90.html#a08fffeb2d8e8acbf9ed4609be6d258c6" target="_top" xlink:title="mom_main">
<polygon fill="white" stroke="black" points="250,-6 250,-25 306,-25 306,-6 250,-6"/>
<text text-anchor="middle" x="278" y="-13" font-family="Helvetica,sans-Serif" font-size="10.00">mom_main</text>
</a>
</g>
</g>
<!-- Node339&#45;&gt;Node340 -->
<g id="edge2" class="edge"><title>Node339&#45;&gt;Node340</title>
<path fill="none" stroke="midnightblue" d="M224.407,-15.5C233.206,-15.5 241.981,-15.5 249.771,-15.5"/>
<polygon fill="midnightblue" stroke="midnightblue" points="224.125,-12.0001 214.125,-15.5 224.125,-19.0001 224.125,-12.0001"/>
</g>
</g>
</svg>
