<?xml version="1.0" encoding="UTF-8" standalone="no"?>
<!DOCTYPE svg PUBLIC "-//W3C//DTD SVG 1.1//EN"
 "http://www.w3.org/Graphics/SVG/1.1/DTD/svg11.dtd">
<!-- Generated by graphviz version 2.38.0 (20140413.2041)
 -->
<!-- Title: mom::set_restart_fields Pages: 1 -->
<!--zoomable 146 -->
<svg id="main" version="1.1" xmlns="http://www.w3.org/2000/svg" xmlns:xlink="http://www.w3.org/1999/xlink" xml:space="preserve" onload="init(evt)">
<style type="text/css"><![CDATA[
.edge:hover path { stroke: red; }
.edge:hover polygon { stroke: red; fill: red; }
]]></style>
<script type="text/javascript"><![CDATA[
var edges = document.getElementsByTagName('g');
if (edges && edges.length) {
  for (var i=0;i<edges.length;i++) {
    if (edges[i].id.substr(0,4)=='edge') {
      edges[i].setAttribute('class','edge');
    }
  }
}
]]></script>
        <defs>
                <circle id="rim" cx="0" cy="0" r="7"/>
                <circle id="rim2" cx="0" cy="0" r="3.5"/>
                <g id="zoomPlus">
                        <use xlink:href="#rim" fill="#404040">
                                <set attributeName="fill" to="#808080" begin="zoomplus.mouseover" end="zoomplus.mouseout"/>
                        </use>
                        <path d="M-4,0h8M0,-4v8" fill="none" stroke="white" stroke-width="1.5" pointer-events="none"/>
                </g>
                <g id="zoomMin">
                        <use xlink:href="#rim" fill="#404040">
                                <set attributeName="fill" to="#808080" begin="zoomminus.mouseover" end="zoomminus.mouseout"/>
                        </use>
                        <path d="M-4,0h8" fill="none" stroke="white" stroke-width="1.5" pointer-events="none"/>
                </g>
                <g id="dirArrow">
                        <path fill="none" stroke="white" stroke-width="1.5" d="M0,-3.0v7 M-2.5,-0.5L0,-3.0L2.5,-0.5"/>
                </g>
               <g id="resetDef">
                       <use xlink:href="#rim2" fill="#404040">
                               <set attributeName="fill" to="#808080" begin="reset.mouseover" end="reset.mouseout"/>
                       </use>
               </g>
        </defs>

<script type="text/javascript">
var viewWidth = 782;
var viewHeight = 146;
var sectionId = 'dynsection-15';
</script>
<script xlink:href="../../svgpan.js"/>
<svg id="graph" class="graph">
<g id="viewport">
<title>mom::set_restart_fields</title>
<polygon fill="white" stroke="none" points="-4,4 -4,-141.5 778,-141.5 778,4 -4,4"/>
<!-- Node341 -->
<g id="node1" class="node"><title>Node341</title>
<polygon fill="#bfbfbf" stroke="black" points="0,-63.5 0,-82.5 100,-82.5 100,-63.5 0,-63.5"/>
<text text-anchor="middle" x="50" y="-70.5" font-family="Helvetica,sans-Serif" font-size="10.00">mom::set_restart_fields</text>
</g>
<!-- Node342 -->
<g id="node2" class="node"><title>Node342</title>
<g id="a_node2"><a xlink:href="../../d6/dad/namespacemom__verticalgrid.html#af027c312e660a932b3f430f4c7a9675d" target="_top" xlink:title="Returns the model&#39;s thickness flux units, usually m^3/s or kg/s. ">
<polygon fill="white" stroke="black" points="136,-107 136,-137 229,-137 229,-107 136,-107"/>
<text text-anchor="start" x="144" y="-125" font-family="Helvetica,sans-Serif" font-size="10.00">mom_verticalgrid::get</text>
<text text-anchor="middle" x="182.5" y="-114" font-family="Helvetica,sans-Serif" font-size="10.00">_flux_units</text>
</a>
</g>
</g>
<!-- Node341&#45;&gt;Node342 -->
<g id="edge1" class="edge"><title>Node341&#45;&gt;Node342</title>
<path fill="none" stroke="midnightblue" d="M76.4715,-82.564C92.2718,-88.4967 113.104,-96.3188 132.047,-103.431"/>
<polygon fill="midnightblue" stroke="midnightblue" points="130.86,-106.724 141.453,-106.963 133.321,-100.171 130.86,-106.724"/>
</g>
<!-- Node343 -->
<g id="node3" class="node"><title>Node343</title>
<g id="a_node3"><a xlink:href="../../d6/dad/namespacemom__verticalgrid.html#a1eea13d63bdc910462ffba406d32fe04" target="_top" xlink:title="Returns the model&#39;s thickness units, usually m or kg/m^2. ">
<polygon fill="white" stroke="black" points="136,-58 136,-88 229,-88 229,-58 136,-58"/>
<text text-anchor="start" x="144" y="-76" font-family="Helvetica,sans-Serif" font-size="10.00">mom_verticalgrid::get</text>
<text text-anchor="middle" x="182.5" y="-65" font-family="Helvetica,sans-Serif" font-size="10.00">_thickness_units</text>
</a>
</g>
</g>
<!-- Node341&#45;&gt;Node343 -->
<g id="edge2" class="edge"><title>Node341&#45;&gt;Node343</title>
<path fill="none" stroke="midnightblue" d="M100.336,-73C108.649,-73 117.329,-73 125.79,-73"/>
<polygon fill="midnightblue" stroke="midnightblue" points="125.963,-76.5001 135.963,-73 125.963,-69.5001 125.963,-76.5001"/>
</g>
<!-- Node344 -->
<g id="node4" class="node"><title>Node344</title>
<g id="a_node4"><a xlink:href="../../d5/d89/namespacemom__io.html#a39c3ccc06bb1a6e446af2ee9010eba16" target="_top" xlink:title="Returns a vardesc type whose elements have been filled with the provided fields. The argument name is...">
<polygon fill="white" stroke="black" points="141.5,-19.5 141.5,-38.5 223.5,-38.5 223.5,-19.5 141.5,-19.5"/>
<text text-anchor="middle" x="182.5" y="-26.5" font-family="Helvetica,sans-Serif" font-size="10.00">mom_io::var_desc</text>
</a>
</g>
</g>
<!-- Node341&#45;&gt;Node344 -->
<g id="edge3" class="edge"><title>Node341&#45;&gt;Node344</title>
<path fill="none" stroke="midnightblue" d="M79.3166,-63.4527C98.1276,-57.1102 123.045,-48.7089 143.565,-41.7904"/>
<polygon fill="midnightblue" stroke="midnightblue" points="144.881,-45.0403 153.239,-38.5287 142.645,-38.4072 144.881,-45.0403"/>
</g>
<!-- Node345 -->
<g id="node5" class="node"><title>Node345</title>
<g id="a_node5"><a xlink:href="../../d5/d89/namespacemom__io.html#ac4bc408e8b38dbd669842753f26ebf88" target="_top" xlink:title="Copies a string. ">
<polygon fill="white" stroke="black" points="406,-19.5 406,-38.5 516,-38.5 516,-19.5 406,-19.5"/>
<text text-anchor="middle" x="461" y="-26.5" font-family="Helvetica,sans-Serif" font-size="10.00">mom_io::safe_string_copy</text>
</a>
</g>
</g>
<!-- Node344&#45;&gt;Node345 -->
<g id="edge4" class="edge"><title>Node344&#45;&gt;Node345</title>
<path fill="none" stroke="midnightblue" d="M223.705,-29C268.873,-29 342.808,-29 395.953,-29"/>
<polygon fill="midnightblue" stroke="midnightblue" points="395.956,-32.5001 405.956,-29 395.956,-25.5001 395.956,-32.5001"/>
</g>
<!-- Node348 -->
<g id="node8" class="node"><title>Node348</title>
<g id="a_node8"><a xlink:href="../../d5/d89/namespacemom__io.html#af96b29cb8410d557e8e452b81586223b" target="_top" xlink:title="This routine modifies the named elements of a vardesc type. All arguments are optional, except the vardesc type to be modified. ">
<polygon fill="white" stroke="black" points="265,-0.5 265,-19.5 370,-19.5 370,-0.5 265,-0.5"/>
<text text-anchor="middle" x="317.5" y="-7.5" font-family="Helvetica,sans-Serif" font-size="10.00">mom_io::modify_vardesc</text>
</a>
</g>
</g>
<!-- Node344&#45;&gt;Node348 -->
<g id="edge7" class="edge"><title>Node344&#45;&gt;Node348</title>
<path fill="none" stroke="midnightblue" d="M223.765,-23.2478C233.499,-21.8573 244.126,-20.3392 254.6,-18.8429"/>
<polygon fill="midnightblue" stroke="midnightblue" points="255.156,-22.299 264.561,-17.4199 254.166,-15.3693 255.156,-22.299"/>
</g>
<!-- Node346 -->
<g id="node6" class="node"><title>Node346</title>
<g id="a_node6"><a xlink:href="../../d0/de6/namespacemom__error__handler.html#a460cfb79a06c29fc249952c2a3710d67" target="_top" xlink:title="mom_error_handler::\lmom_error">
<polygon fill="white" stroke="black" points="552,-14 552,-44 645,-44 645,-14 552,-14"/>
<text text-anchor="start" x="560" y="-32" font-family="Helvetica,sans-Serif" font-size="10.00">mom_error_handler::</text>
<text text-anchor="middle" x="598.5" y="-21" font-family="Helvetica,sans-Serif" font-size="10.00">mom_error</text>
</a>
</g>
</g>
<!-- Node345&#45;&gt;Node346 -->
<g id="edge5" class="edge"><title>Node345&#45;&gt;Node346</title>
<path fill="none" stroke="midnightblue" d="M516.332,-29C524.707,-29 533.367,-29 541.772,-29"/>
<polygon fill="midnightblue" stroke="midnightblue" points="541.862,-32.5001 551.862,-29 541.862,-25.5001 541.862,-32.5001"/>
</g>
<!-- Node347 -->
<g id="node7" class="node"><title>Node347</title>
<g id="a_node7"><a xlink:href="../../d0/de6/namespacemom__error__handler.html#ad5f00a53059c72fe2332d1436c80ca71" target="_top" xlink:title="mom_error_handler::\lis_root_pe">
<polygon fill="white" stroke="black" points="681,-14 681,-44 774,-44 774,-14 681,-14"/>
<text text-anchor="start" x="689" y="-32" font-family="Helvetica,sans-Serif" font-size="10.00">mom_error_handler::</text>
<text text-anchor="middle" x="727.5" y="-21" font-family="Helvetica,sans-Serif" font-size="10.00">is_root_pe</text>
</a>
</g>
</g>
<!-- Node346&#45;&gt;Node347 -->
<g id="edge6" class="edge"><title>Node346&#45;&gt;Node347</title>
<path fill="none" stroke="midnightblue" d="M645.35,-29C653.533,-29 662.141,-29 670.568,-29"/>
<polygon fill="midnightblue" stroke="midnightblue" points="670.717,-32.5001 680.717,-29 670.717,-25.5001 670.717,-32.5001"/>
</g>
<!-- Node348&#45;&gt;Node345 -->
<g id="edge8" class="edge"><title>Node348&#45;&gt;Node345</title>
<path fill="none" stroke="midnightblue" d="M370.386,-16.967C378.663,-18.0784 387.311,-19.2397 395.832,-20.3837"/>
<polygon fill="midnightblue" stroke="midnightblue" points="395.368,-23.8528 405.744,-21.7148 396.299,-16.915 395.368,-23.8528"/>
</g>
</g>
</svg>
        <g id="navigator" transform="translate(0 0)" fill="#404254">
                <rect fill="#f2f5e9" fill-opacity="0.5" stroke="#606060" stroke-width=".5" x="0" y="0" width="60" height="60"/>
                <use id="zoomplus" xlink:href="#zoomPlus" x="17" y="9" onmousedown="handleZoom(evt,'in')"/>
                <use id="zoomminus" xlink:href="#zoomMin" x="42" y="9" onmousedown="handleZoom(evt,'out')"/>
                <use id="reset" xlink:href="#resetDef" x="30" y="36" onmousedown="handleReset()"/>
                <g id="arrowUp" xlink:href="#dirArrow" transform="translate(30 24)" onmousedown="handlePan(0,-1)">
                  <use xlink:href="#rim" fill="#404040">
                        <set attributeName="fill" to="#808080" begin="arrowUp.mouseover" end="arrowUp.mouseout"/>
                  </use>
                  <path fill="none" stroke="white" stroke-width="1.5" d="M0,-3.0v7 M-2.5,-0.5L0,-3.0L2.5,-0.5"/>
                </g>
                <g id="arrowRight" xlink:href="#dirArrow" transform="rotate(90) translate(36 -43)" onmousedown="handlePan(1,0)">
                  <use xlink:href="#rim" fill="#404040">
                        <set attributeName="fill" to="#808080" begin="arrowRight.mouseover" end="arrowRight.mouseout"/>
                  </use>
                  <path fill="none" stroke="white" stroke-width="1.5" d="M0,-3.0v7 M-2.5,-0.5L0,-3.0L2.5,-0.5"/>
                </g>
                <g id="arrowDown" xlink:href="#dirArrow" transform="rotate(180) translate(-30 -48)" onmousedown="handlePan(0,1)">
                  <use xlink:href="#rim" fill="#404040">
                        <set attributeName="fill" to="#808080" begin="arrowDown.mouseover" end="arrowDown.mouseout"/>
                  </use>
                  <path fill="none" stroke="white" stroke-width="1.5" d="M0,-3.0v7 M-2.5,-0.5L0,-3.0L2.5,-0.5"/>
                </g>
                <g id="arrowLeft" xlink:href="#dirArrow" transform="rotate(270) translate(-36 17)" onmousedown="handlePan(-1,0)">
                  <use xlink:href="#rim" fill="#404040">
                        <set attributeName="fill" to="#808080" begin="arrowLeft.mouseover" end="arrowLeft.mouseout"/>
                  </use>
                  <path fill="none" stroke="white" stroke-width="1.5" d="M0,-3.0v7 M-2.5,-0.5L0,-3.0L2.5,-0.5"/>
                </g>
        </g>
        <svg viewBox="0 0 15 15" width="100%" height="30px" preserveAspectRatio="xMaxYMin meet">
         <g id="arrow_out" transform="scale(0.3 0.3)">
          <a xlink:href="namespacemom_aab33a9c6ab1106414d95ecdd17da5a06_cgraph_org.svg" target="_base">
           <rect id="button" ry="5" rx="5" y="6" x="6" height="38" width="38"
                fill="#f2f5e9" fill-opacity="0.5" stroke="#606060" stroke-width="1.0"/>
           <path id="arrow"
             d="M 11.500037,31.436501 C 11.940474,20.09759 22.043105,11.32322 32.158766,21.979434 L 37.068811,17.246167 C 37.068811,17.246167 37.088388,32 37.088388,32 L 22.160133,31.978069 C 22.160133,31.978069 26.997745,27.140456 26.997745,27.140456 C 18.528582,18.264221 13.291696,25.230495 11.500037,31.436501 z"
             style="fill:#404040;"/>
          </a>
         </g>
        </svg>
</svg>
