<?xml version="1.0" encoding="UTF-8" standalone="no"?>
<!DOCTYPE svg PUBLIC "-//W3C//DTD SVG 1.1//EN"
 "http://www.w3.org/Graphics/SVG/1.1/DTD/svg11.dtd">
<!-- Generated by graphviz version 2.38.0 (20140413.2041)
 -->
<!-- Title: mom::set_restart_fields Pages: 1 -->
<svg width="325pt" height="28pt"
 viewBox="0.00 0.00 325.00 28.00" xmlns="http://www.w3.org/2000/svg" xmlns:xlink="http://www.w3.org/1999/xlink">
<g id="graph0" class="graph" transform="scale(1 1) rotate(0) translate(4 24)">
<title>mom::set_restart_fields</title>
<polygon fill="white" stroke="none" points="-4,4 -4,-24 321,-24 321,4 -4,4"/>
<!-- Node349 -->
<g id="node1" class="node"><title>Node349</title>
<polygon fill="#bfbfbf" stroke="black" points="0,-0.5 0,-19.5 100,-19.5 100,-0.5 0,-0.5"/>
<text text-anchor="middle" x="50" y="-7.5" font-family="Helvetica,sans-Serif" font-size="10.00">mom::set_restart_fields</text>
</g>
<!-- Node350 -->
<g id="node2" class="node"><title>Node350</title>
<g id="a_node2"><a xlink:href="../../da/d01/namespacemom.html#afebdc0103ad9cbe0ed4a54e522dc4104" target="_top" xlink:title="This subroutine initializes MOM. ">
<polygon fill="white" stroke="black" points="136,-0.5 136,-19.5 225,-19.5 225,-0.5 136,-0.5"/>
<text text-anchor="middle" x="180.5" y="-7.5" font-family="Helvetica,sans-Serif" font-size="10.00">mom::initialize_mom</text>
</a>
</g>
</g>
<!-- Node349&#45;&gt;Node350 -->
<g id="edge1" class="edge"><title>Node349&#45;&gt;Node350</title>
<path fill="none" stroke="midnightblue" d="M110.357,-10C118.99,-10 127.742,-10 135.985,-10"/>
<polygon fill="midnightblue" stroke="midnightblue" points="110.314,-6.5001 100.314,-10 110.314,-13.5001 110.314,-6.5001"/>
</g>
<!-- Node351 -->
<g id="node3" class="node"><title>Node351</title>
<g id="a_node3"><a xlink:href="../../de/dbc/MOM__driver_8F90.html#a08fffeb2d8e8acbf9ed4609be6d258c6" target="_top" xlink:title="mom_main">
<polygon fill="white" stroke="black" points="261,-0.5 261,-19.5 317,-19.5 317,-0.5 261,-0.5"/>
<text text-anchor="middle" x="289" y="-7.5" font-family="Helvetica,sans-Serif" font-size="10.00">mom_main</text>
</a>
</g>
</g>
<!-- Node350&#45;&gt;Node351 -->
<g id="edge2" class="edge"><title>Node350&#45;&gt;Node351</title>
<path fill="none" stroke="midnightblue" d="M235.407,-10C244.206,-10 252.981,-10 260.771,-10"/>
<polygon fill="midnightblue" stroke="midnightblue" points="235.125,-6.5001 225.125,-10 235.125,-13.5001 235.125,-6.5001"/>
</g>
</g>
</svg>
