<?xml version="1.0" encoding="UTF-8" standalone="no"?>
<!DOCTYPE svg PUBLIC "-//W3C//DTD SVG 1.1//EN"
 "http://www.w3.org/Graphics/SVG/1.1/DTD/svg11.dtd">
<!-- Generated by graphviz version 2.38.0 (20140413.2041)
 -->
<!-- Title: mom::register_diags Pages: 1 -->
<svg width="314pt" height="28pt"
 viewBox="0.00 0.00 314.00 28.00" xmlns="http://www.w3.org/2000/svg" xmlns:xlink="http://www.w3.org/1999/xlink">
<g id="graph0" class="graph" transform="scale(1 1) rotate(0) translate(4 24)">
<title>mom::register_diags</title>
<polygon fill="white" stroke="none" points="-4,4 -4,-24 310,-24 310,4 -4,4"/>
<!-- Node325 -->
<g id="node1" class="node"><title>Node325</title>
<polygon fill="#bfbfbf" stroke="black" points="0,-0.5 0,-19.5 89,-19.5 89,-0.5 0,-0.5"/>
<text text-anchor="middle" x="44.5" y="-7.5" font-family="Helvetica,sans-Serif" font-size="10.00">mom::register_diags</text>
</g>
<!-- Node326 -->
<g id="node2" class="node"><title>Node326</title>
<g id="a_node2"><a xlink:href="../../da/d01/namespacemom.html#afebdc0103ad9cbe0ed4a54e522dc4104" target="_top" xlink:title="This subroutine initializes MOM. ">
<polygon fill="white" stroke="black" points="125,-0.5 125,-19.5 214,-19.5 214,-0.5 125,-0.5"/>
<text text-anchor="middle" x="169.5" y="-7.5" font-family="Helvetica,sans-Serif" font-size="10.00">mom::initialize_mom</text>
</a>
</g>
</g>
<!-- Node325&#45;&gt;Node326 -->
<g id="edge1" class="edge"><title>Node325&#45;&gt;Node326</title>
<path fill="none" stroke="midnightblue" d="M99.4581,-10C107.975,-10 116.687,-10 124.929,-10"/>
<polygon fill="midnightblue" stroke="midnightblue" points="99.2116,-6.5001 89.2115,-10 99.2115,-13.5001 99.2116,-6.5001"/>
</g>
<!-- Node327 -->
<g id="node3" class="node"><title>Node327</title>
<g id="a_node3"><a xlink:href="../../de/dbc/MOM__driver_8F90.html#a08fffeb2d8e8acbf9ed4609be6d258c6" target="_top" xlink:title="mom_main">
<polygon fill="white" stroke="black" points="250,-0.5 250,-19.5 306,-19.5 306,-0.5 250,-0.5"/>
<text text-anchor="middle" x="278" y="-7.5" font-family="Helvetica,sans-Serif" font-size="10.00">mom_main</text>
</a>
</g>
</g>
<!-- Node326&#45;&gt;Node327 -->
<g id="edge2" class="edge"><title>Node326&#45;&gt;Node327</title>
<path fill="none" stroke="midnightblue" d="M224.407,-10C233.206,-10 241.981,-10 249.771,-10"/>
<polygon fill="midnightblue" stroke="midnightblue" points="224.125,-6.5001 214.125,-10 224.125,-13.5001 224.125,-6.5001"/>
</g>
</g>
</svg>
