<?xml version="1.0" encoding="UTF-8" standalone="no"?>
<!DOCTYPE svg PUBLIC "-//W3C//DTD SVG 1.1//EN"
 "http://www.w3.org/Graphics/SVG/1.1/DTD/svg11.dtd">
<!-- Generated by graphviz version 2.38.0 (20140413.2041)
 -->
<!-- Title: cvmix_background::cvmix_coeffs_bkgnd_low Pages: 1 -->
<svg width="258pt" height="88pt"
 viewBox="0.00 0.00 258.00 88.00" xmlns="http://www.w3.org/2000/svg" xmlns:xlink="http://www.w3.org/1999/xlink">
<g id="graph0" class="graph" transform="scale(1 1) rotate(0) translate(4 84)">
<title>cvmix_background::cvmix_coeffs_bkgnd_low</title>
<polygon fill="white" stroke="none" points="-4,4 -4,-84 254,-84 254,4 -4,4"/>
<!-- Node8 -->
<g id="node1" class="node"><title>Node8</title>
<polygon fill="#bfbfbf" stroke="black" points="0,-24.5 0,-54.5 107,-54.5 107,-24.5 0,-24.5"/>
<text text-anchor="start" x="8" y="-42.5" font-family="Helvetica,sans-Serif" font-size="10.00">cvmix_background::cvmix</text>
<text text-anchor="middle" x="53.5" y="-31.5" font-family="Helvetica,sans-Serif" font-size="10.00">_coeffs_bkgnd_low</text>
</g>
<!-- Node9 -->
<g id="node2" class="node"><title>Node9</title>
<g id="a_node2"><a xlink:href="../../d8/dae/namespacecvmix__background.html#af8849eca730204a41d21b0fe5e7549b5" target="_top" xlink:title="cvmix_background::cvmix\l_bkgnd_static_mdiff">
<polygon fill="white" stroke="black" points="143,-49.5 143,-79.5 250,-79.5 250,-49.5 143,-49.5"/>
<text text-anchor="start" x="151" y="-67.5" font-family="Helvetica,sans-Serif" font-size="10.00">cvmix_background::cvmix</text>
<text text-anchor="middle" x="196.5" y="-56.5" font-family="Helvetica,sans-Serif" font-size="10.00">_bkgnd_static_mdiff</text>
</a>
</g>
</g>
<!-- Node8&#45;&gt;Node9 -->
<g id="edge1" class="edge"><title>Node8&#45;&gt;Node9</title>
<path fill="none" stroke="midnightblue" d="M107.003,-48.8091C115.445,-50.3058 124.255,-51.8679 132.905,-53.4015"/>
<polygon fill="midnightblue" stroke="midnightblue" points="132.495,-56.8835 142.953,-55.1831 133.718,-49.991 132.495,-56.8835"/>
</g>
<!-- Node10 -->
<g id="node3" class="node"><title>Node10</title>
<g id="a_node3"><a xlink:href="../../d8/dae/namespacecvmix__background.html#a32ffa754d6bd4b87827d5bcba88cebc6" target="_top" xlink:title="cvmix_background::cvmix\l_bkgnd_static_tdiff">
<polygon fill="white" stroke="black" points="143,-0.5 143,-30.5 250,-30.5 250,-0.5 143,-0.5"/>
<text text-anchor="start" x="151" y="-18.5" font-family="Helvetica,sans-Serif" font-size="10.00">cvmix_background::cvmix</text>
<text text-anchor="middle" x="196.5" y="-7.5" font-family="Helvetica,sans-Serif" font-size="10.00">_bkgnd_static_tdiff</text>
</a>
</g>
</g>
<!-- Node8&#45;&gt;Node10 -->
<g id="edge2" class="edge"><title>Node8&#45;&gt;Node10</title>
<path fill="none" stroke="midnightblue" d="M107.003,-30.5633C115.445,-29.1264 124.255,-27.6268 132.905,-26.1545"/>
<polygon fill="midnightblue" stroke="midnightblue" points="133.682,-29.5726 142.953,-24.4442 132.507,-22.6719 133.682,-29.5726"/>
</g>
</g>
</svg>
