<?xml version="1.0" encoding="UTF-8" standalone="no"?>
<!DOCTYPE svg PUBLIC "-//W3C//DTD SVG 1.1//EN"
 "http://www.w3.org/Graphics/SVG/1.1/DTD/svg11.dtd">
<!-- Generated by graphviz version 2.38.0 (20140413.2041)
 -->
<!-- Title: mom_obsolete_params::find_obsolete_params Pages: 1 -->
<svg width="504pt" height="276pt"
 viewBox="0.00 0.00 504.00 275.85" xmlns="http://www.w3.org/2000/svg" xmlns:xlink="http://www.w3.org/1999/xlink">
<g id="graph0" class="graph" transform="scale(1 1) rotate(0) translate(4 271.853)">
<title>mom_obsolete_params::find_obsolete_params</title>
<polygon fill="white" stroke="none" points="-4,4 -4,-271.853 500,-271.853 500,4 -4,4"/>
<!-- Node0 -->
<g id="node1" class="node"><title>Node0</title>
<polygon fill="#bfbfbf" stroke="black" points="0,-147.5 0,-177.5 101,-177.5 101,-147.5 0,-147.5"/>
<text text-anchor="start" x="8" y="-165.5" font-family="Helvetica,sans-Serif" font-size="10.00">mom_obsolete_params</text>
<text text-anchor="middle" x="50.5" y="-154.5" font-family="Helvetica,sans-Serif" font-size="10.00">::find_obsolete_params</text>
</g>
<!-- Node1 -->
<g id="node2" class="node"><title>Node1</title>
<g id="a_node2"><a xlink:href="../../d0/de6/namespacemom__error__handler.html#ad5f00a53059c72fe2332d1436c80ca71" target="_top" xlink:title="mom_error_handler::\lis_root_pe">
<polygon fill="white" stroke="black" points="403,-223.5 403,-253.5 496,-253.5 496,-223.5 403,-223.5"/>
<text text-anchor="start" x="411" y="-241.5" font-family="Helvetica,sans-Serif" font-size="10.00">mom_error_handler::</text>
<text text-anchor="middle" x="449.5" y="-230.5" font-family="Helvetica,sans-Serif" font-size="10.00">is_root_pe</text>
</a>
</g>
</g>
<!-- Node0&#45;&gt;Node1 -->
<g id="edge1" class="edge"><title>Node0&#45;&gt;Node1</title>
<path fill="none" stroke="midnightblue" d="M66.8736,-177.554C83.0433,-192.573 109.865,-215.266 137,-228.5 193.485,-256.048 211.646,-255.661 274,-263.5 315.011,-268.656 326.124,-269.628 367,-263.5 377.315,-261.953 388.128,-259.364 398.382,-256.422"/>
<polygon fill="midnightblue" stroke="midnightblue" points="399.446,-259.757 408.008,-253.517 397.423,-253.056 399.446,-259.757"/>
</g>
<!-- Node2 -->
<g id="node3" class="node"><title>Node2</title>
<g id="a_node3"><a xlink:href="../../d9/def/namespacemom__file__parser.html#a17c0ef1bb1912f02faa0aaa1e0f64210" target="_top" xlink:title="mom_file_parser::log\l_version">
<polygon fill="white" stroke="black" points="274.5,-223.5 274.5,-253.5 366.5,-253.5 366.5,-223.5 274.5,-223.5"/>
<text text-anchor="start" x="282.5" y="-241.5" font-family="Helvetica,sans-Serif" font-size="10.00">mom_file_parser::log</text>
<text text-anchor="middle" x="320.5" y="-230.5" font-family="Helvetica,sans-Serif" font-size="10.00">_version</text>
</a>
</g>
</g>
<!-- Node0&#45;&gt;Node2 -->
<g id="edge2" class="edge"><title>Node0&#45;&gt;Node2</title>
<path fill="none" stroke="midnightblue" d="M78.4765,-177.652C94.9436,-186.334 116.674,-196.802 137,-203.5 178.731,-217.251 227.714,-226.277 264.421,-231.713"/>
<polygon fill="midnightblue" stroke="midnightblue" points="264.036,-235.194 274.432,-233.152 265.032,-228.265 264.036,-235.194"/>
</g>
<!-- Node3 -->
<g id="node4" class="node"><title>Node3</title>
<g id="a_node4"><a xlink:href="../../d0/de6/namespacemom__error__handler.html#a460cfb79a06c29fc249952c2a3710d67" target="_top" xlink:title="mom_error_handler::\lmom_error">
<polygon fill="white" stroke="black" points="274,-123.5 274,-153.5 367,-153.5 367,-123.5 274,-123.5"/>
<text text-anchor="start" x="282" y="-141.5" font-family="Helvetica,sans-Serif" font-size="10.00">mom_error_handler::</text>
<text text-anchor="middle" x="320.5" y="-130.5" font-family="Helvetica,sans-Serif" font-size="10.00">mom_error</text>
</a>
</g>
</g>
<!-- Node0&#45;&gt;Node3 -->
<g id="edge4" class="edge"><title>Node0&#45;&gt;Node3</title>
<path fill="none" stroke="midnightblue" d="M93.2691,-177.538C131.505,-189.095 189.365,-200.995 238,-187.5 257.815,-182.002 277.641,-170.255 292.777,-159.64"/>
<polygon fill="midnightblue" stroke="midnightblue" points="295.084,-162.291 301.111,-153.578 290.966,-156.63 295.084,-162.291"/>
</g>
<!-- Node4 -->
<g id="node5" class="node"><title>Node4</title>
<g id="a_node5"><a xlink:href="../../df/d41/namespacemom__obsolete__params.html#ad9be6c94848c1c99457b16e578dfe1c0" target="_top" xlink:title="Test for presence of obsolete STRING in parameter file. ">
<polygon fill="white" stroke="black" points="137,-147.5 137,-177.5 238,-177.5 238,-147.5 137,-147.5"/>
<text text-anchor="start" x="145" y="-165.5" font-family="Helvetica,sans-Serif" font-size="10.00">mom_obsolete_params</text>
<text text-anchor="middle" x="187.5" y="-154.5" font-family="Helvetica,sans-Serif" font-size="10.00">::obsolete_char</text>
</a>
</g>
</g>
<!-- Node0&#45;&gt;Node4 -->
<g id="edge6" class="edge"><title>Node0&#45;&gt;Node4</title>
<path fill="none" stroke="midnightblue" d="M101.002,-162.5C109.241,-162.5 117.866,-162.5 126.335,-162.5"/>
<polygon fill="midnightblue" stroke="midnightblue" points="126.552,-166 136.552,-162.5 126.552,-159 126.552,-166"/>
</g>
<!-- Node5 -->
<g id="node6" class="node"><title>Node5</title>
<g id="a_node6"><a xlink:href="../../df/d41/namespacemom__obsolete__params.html#aa0a8fe574d071d3a40ac146c2b8070f0" target="_top" xlink:title="Test for presence of obsolete INTEGER in parameter file. ">
<polygon fill="white" stroke="black" points="137,-98.5 137,-128.5 238,-128.5 238,-98.5 137,-98.5"/>
<text text-anchor="start" x="145" y="-116.5" font-family="Helvetica,sans-Serif" font-size="10.00">mom_obsolete_params</text>
<text text-anchor="middle" x="187.5" y="-105.5" font-family="Helvetica,sans-Serif" font-size="10.00">::obsolete_int</text>
</a>
</g>
</g>
<!-- Node0&#45;&gt;Node5 -->
<g id="edge8" class="edge"><title>Node0&#45;&gt;Node5</title>
<path fill="none" stroke="midnightblue" d="M93.106,-147.399C106.451,-142.555 121.387,-137.134 135.334,-132.072"/>
<polygon fill="midnightblue" stroke="midnightblue" points="136.593,-135.338 144.799,-128.636 134.205,-128.758 136.593,-135.338"/>
</g>
<!-- Node6 -->
<g id="node7" class="node"><title>Node6</title>
<g id="a_node7"><a xlink:href="../../df/d41/namespacemom__obsolete__params.html#a0f74da6ca1e81bb5029fbdcd284d5427" target="_top" xlink:title="Test for presence of obsolete LOGICAL in parameter file. ">
<polygon fill="white" stroke="black" points="137,-49.5 137,-79.5 238,-79.5 238,-49.5 137,-49.5"/>
<text text-anchor="start" x="145" y="-67.5" font-family="Helvetica,sans-Serif" font-size="10.00">mom_obsolete_params</text>
<text text-anchor="middle" x="187.5" y="-56.5" font-family="Helvetica,sans-Serif" font-size="10.00">::obsolete_logical</text>
</a>
</g>
</g>
<!-- Node0&#45;&gt;Node6 -->
<g id="edge10" class="edge"><title>Node0&#45;&gt;Node6</title>
<path fill="none" stroke="midnightblue" d="M66.5726,-147.266C82.9213,-131.289 110.277,-106.101 137,-88.5 139.094,-87.121 141.278,-85.7724 143.514,-84.4626"/>
<polygon fill="midnightblue" stroke="midnightblue" points="145.231,-87.5127 152.298,-79.6199 141.851,-81.3825 145.231,-87.5127"/>
</g>
<!-- Node7 -->
<g id="node8" class="node"><title>Node7</title>
<g id="a_node8"><a xlink:href="../../df/d41/namespacemom__obsolete__params.html#ae7343199aaed0daa5cda091cbd136c0c" target="_top" xlink:title="Test for presence of obsolete REAL in parameter file. ">
<polygon fill="white" stroke="black" points="137,-0.5 137,-30.5 238,-30.5 238,-0.5 137,-0.5"/>
<text text-anchor="start" x="145" y="-18.5" font-family="Helvetica,sans-Serif" font-size="10.00">mom_obsolete_params</text>
<text text-anchor="middle" x="187.5" y="-7.5" font-family="Helvetica,sans-Serif" font-size="10.00">::obsolete_real</text>
</a>
</g>
</g>
<!-- Node0&#45;&gt;Node7 -->
<g id="edge12" class="edge"><title>Node0&#45;&gt;Node7</title>
<path fill="none" stroke="midnightblue" d="M58.7299,-147.398C71.4532,-122.168 100.037,-71.1042 137,-39.5 138.322,-38.3692 139.707,-37.2779 141.139,-36.226"/>
<polygon fill="midnightblue" stroke="midnightblue" points="143.266,-39.0183 149.744,-30.6346 139.452,-33.1486 143.266,-39.0183"/>
</g>
<!-- Node2&#45;&gt;Node1 -->
<g id="edge3" class="edge"><title>Node2&#45;&gt;Node1</title>
<path fill="none" stroke="midnightblue" d="M366.633,-238.5C375.037,-238.5 383.911,-238.5 392.592,-238.5"/>
<polygon fill="midnightblue" stroke="midnightblue" points="392.656,-242 402.656,-238.5 392.656,-235 392.656,-242"/>
</g>
<!-- Node3&#45;&gt;Node1 -->
<g id="edge5" class="edge"><title>Node3&#45;&gt;Node1</title>
<path fill="none" stroke="midnightblue" d="M340.789,-153.688C362.265,-170.599 397.137,-198.057 421.361,-217.131"/>
<polygon fill="midnightblue" stroke="midnightblue" points="419.424,-220.06 429.446,-223.497 423.755,-214.561 419.424,-220.06"/>
</g>
<!-- Node4&#45;&gt;Node3 -->
<g id="edge7" class="edge"><title>Node4&#45;&gt;Node3</title>
<path fill="none" stroke="midnightblue" d="M238.025,-153.427C246.462,-151.881 255.275,-150.266 263.857,-148.694"/>
<polygon fill="midnightblue" stroke="midnightblue" points="264.583,-152.119 273.789,-146.875 263.322,-145.234 264.583,-152.119"/>
</g>
<!-- Node5&#45;&gt;Node3 -->
<g id="edge9" class="edge"><title>Node5&#45;&gt;Node3</title>
<path fill="none" stroke="midnightblue" d="M238.025,-122.951C246.462,-124.561 255.275,-126.243 263.857,-127.881"/>
<polygon fill="midnightblue" stroke="midnightblue" points="263.31,-131.34 273.789,-129.777 264.622,-124.464 263.31,-131.34"/>
</g>
<!-- Node6&#45;&gt;Node3 -->
<g id="edge11" class="edge"><title>Node6&#45;&gt;Node3</title>
<path fill="none" stroke="midnightblue" d="M220.689,-79.535C226.503,-82.4119 232.471,-85.4732 238,-88.5 254.64,-97.6094 272.665,-108.55 287.523,-117.871"/>
<polygon fill="midnightblue" stroke="midnightblue" points="286.001,-121.05 296.323,-123.435 289.741,-115.133 286.001,-121.05"/>
</g>
<!-- Node7&#45;&gt;Node3 -->
<g id="edge13" class="edge"><title>Node7&#45;&gt;Node3</title>
<path fill="none" stroke="midnightblue" d="M224.235,-30.5007C229.064,-33.1834 233.797,-36.1924 238,-39.5 265.369,-61.0392 289.724,-93.2252 304.528,-115.001"/>
<polygon fill="midnightblue" stroke="midnightblue" points="301.632,-116.967 310.085,-123.354 307.46,-113.09 301.632,-116.967"/>
</g>
</g>
</svg>
