<?xml version="1.0" encoding="UTF-8" standalone="no"?>
<!DOCTYPE svg PUBLIC "-//W3C//DTD SVG 1.1//EN"
 "http://www.w3.org/Graphics/SVG/1.1/DTD/svg11.dtd">
<!-- Generated by graphviz version 2.38.0 (20140413.2041)
 -->
<!-- Title: mom_ale_sponge::ale_sponge_cs Pages: 1 -->
<svg width="515pt" height="285pt"
 viewBox="0.00 0.00 515.00 285.00" xmlns="http://www.w3.org/2000/svg" xmlns:xlink="http://www.w3.org/1999/xlink">
<g id="graph0" class="graph" transform="scale(1 1) rotate(0) translate(4 281)">
<title>mom_ale_sponge::ale_sponge_cs</title>
<polygon fill="white" stroke="none" points="-4,4 -4,-281 511,-281 511,4 -4,4"/>
<!-- Node1 -->
<g id="node1" class="node"><title>Node1</title>
<polygon fill="#bfbfbf" stroke="black" points="227,-0.5 227,-30.5 322,-30.5 322,-0.5 227,-0.5"/>
<text text-anchor="start" x="235" y="-18.5" font-family="Helvetica,sans-Serif" font-size="10.00">mom_ale_sponge::ale</text>
<text text-anchor="middle" x="274.5" y="-7.5" font-family="Helvetica,sans-Serif" font-size="10.00">_sponge_cs</text>
</g>
<!-- Node2 -->
<g id="node2" class="node"><title>Node2</title>
<polygon fill="white" stroke="#bfbfbf" points="0,-189.5 0,-208.5 67,-208.5 67,-189.5 0,-189.5"/>
<text text-anchor="middle" x="33.5" y="-196.5" font-family="Helvetica,sans-Serif" font-size="10.00">remapping_cs</text>
</g>
<!-- Node2&#45;&gt;Node1 -->
<g id="edge1" class="edge"><title>Node2&#45;&gt;Node1</title>
<path fill="none" stroke="#9a32cd" stroke-dasharray="5,2" d="M29.3867,-179.428C23.6126,-147.929 17.3031,-84.0451 51.5,-49 75.1353,-24.7784 168.666,-18.4517 226.83,-16.8954"/>
<polygon fill="#9a32cd" stroke="#9a32cd" points="26.0014,-180.346 31.4138,-189.454 32.8626,-178.959 26.0014,-180.346"/>
<text text-anchor="middle" x="70.5" y="-107" font-family="Helvetica,sans-Serif" font-size="10.00"> remap_cs</text>
</g>
<!-- Node3 -->
<g id="node3" class="node"><title>Node3</title>
<g id="a_node3"><a xlink:href="../../d1/d5a/structmom__ale__sponge_1_1p2d.html" target="_top" xlink:title="mom_ale_sponge::p2d">
<polygon fill="white" stroke="black" points="168.5,-189.5 168.5,-208.5 266.5,-208.5 266.5,-189.5 168.5,-189.5"/>
<text text-anchor="middle" x="217.5" y="-196.5" font-family="Helvetica,sans-Serif" font-size="10.00">mom_ale_sponge::p2d</text>
</a>
</g>
</g>
<!-- Node3&#45;&gt;Node1 -->
<g id="edge2" class="edge"><title>Node3&#45;&gt;Node1</title>
<path fill="none" stroke="#9a32cd" stroke-dasharray="5,2" d="M223.323,-179.458C234.746,-143.084 259.868,-63.09 270.067,-30.6169"/>
<polygon fill="#9a32cd" stroke="#9a32cd" points="219.906,-178.657 220.249,-189.246 226.585,-180.754 219.906,-178.657"/>
<text text-anchor="middle" x="278" y="-107" font-family="Helvetica,sans-Serif" font-size="10.00"> ref_val</text>
</g>
<!-- Node4 -->
<g id="node4" class="node"><title>Node4</title>
<polygon fill="white" stroke="#bfbfbf" points="202.5,-257.5 202.5,-276.5 232.5,-276.5 232.5,-257.5 202.5,-257.5"/>
<text text-anchor="middle" x="217.5" y="-264.5" font-family="Helvetica,sans-Serif" font-size="10.00">real</text>
</g>
<!-- Node4&#45;&gt;Node1 -->
<g id="edge7" class="edge"><title>Node4&#45;&gt;Node1</title>
<path fill="none" stroke="#9a32cd" stroke-dasharray="5,2" d="M192.391,-259.869C157.188,-249.784 98.893,-226.845 112.5,-188 138.636,-113.387 164.701,-101.848 223.5,-49 231.074,-42.1922 240.231,-35.8774 248.683,-30.6594"/>
<polygon fill="#9a32cd" stroke="#9a32cd" points="191.903,-263.362 202.47,-262.589 193.727,-256.604 191.903,-263.362"/>
<text text-anchor="middle" x="136" y="-202" font-family="Helvetica,sans-Serif" font-size="10.00"> iresttime_col</text>
<text text-anchor="middle" x="136" y="-191" font-family="Helvetica,sans-Serif" font-size="10.00">ref_h</text>
</g>
<!-- Node4&#45;&gt;Node3 -->
<g id="edge3" class="edge"><title>Node4&#45;&gt;Node3</title>
<path fill="none" stroke="#9a32cd" stroke-dasharray="5,2" d="M217.5,-247.041C217.5,-234.472 217.5,-218.563 217.5,-208.841"/>
<polygon fill="#9a32cd" stroke="#9a32cd" points="214,-247.372 217.5,-257.372 221,-247.372 214,-247.372"/>
<text text-anchor="middle" x="221" y="-231" font-family="Helvetica,sans-Serif" font-size="10.00"> p</text>
</g>
<!-- Node5 -->
<g id="node5" class="node"><title>Node5</title>
<g id="a_node5"><a xlink:href="../../d4/d1b/structmom__ale__sponge_1_1p3d.html" target="_top" xlink:title="mom_ale_sponge::p3d">
<polygon fill="white" stroke="black" points="284.5,-189.5 284.5,-208.5 382.5,-208.5 382.5,-189.5 284.5,-189.5"/>
<text text-anchor="middle" x="333.5" y="-196.5" font-family="Helvetica,sans-Serif" font-size="10.00">mom_ale_sponge::p3d</text>
</a>
</g>
</g>
<!-- Node4&#45;&gt;Node5 -->
<g id="edge5" class="edge"><title>Node4&#45;&gt;Node5</title>
<path fill="none" stroke="#9a32cd" stroke-dasharray="5,2" d="M241.508,-252.34C264.597,-239.204 298.79,-219.749 318.331,-208.63"/>
<polygon fill="#9a32cd" stroke="#9a32cd" points="239.626,-249.384 232.665,-257.372 243.087,-255.468 239.626,-249.384"/>
<text text-anchor="middle" x="286" y="-231" font-family="Helvetica,sans-Serif" font-size="10.00"> p</text>
</g>
<!-- Node5&#45;&gt;Node1 -->
<g id="edge4" class="edge"><title>Node5&#45;&gt;Node1</title>
<path fill="none" stroke="#9a32cd" stroke-dasharray="5,2" d="M330.464,-179.418C325.362,-150.642 313.701,-93.9339 294.5,-49 291.793,-42.6641 287.984,-36.1123 284.416,-30.5658"/>
<polygon fill="#9a32cd" stroke="#9a32cd" points="327.019,-180.038 332.151,-189.307 333.919,-178.861 327.019,-180.038"/>
<text text-anchor="middle" x="336.5" y="-107" font-family="Helvetica,sans-Serif" font-size="10.00"> var</text>
</g>
<!-- Node6 -->
<g id="node6" class="node"><title>Node6</title>
<polygon fill="white" stroke="#bfbfbf" points="401,-189.5 401,-208.5 448,-208.5 448,-189.5 401,-189.5"/>
<text text-anchor="middle" x="424.5" y="-196.5" font-family="Helvetica,sans-Serif" font-size="10.00">diag_ctrl</text>
</g>
<!-- Node6&#45;&gt;Node1 -->
<g id="edge6" class="edge"><title>Node6&#45;&gt;Node1</title>
<path fill="none" stroke="#9a32cd" stroke-dasharray="5,2" d="M419.37,-179.521C409.943,-148.668 387.112,-86.3738 347.5,-49 339.428,-41.3837 329.272,-35.3537 319.122,-30.6624"/>
<polygon fill="#9a32cd" stroke="#9a32cd" points="416.081,-180.743 422.243,-189.361 422.8,-178.781 416.081,-180.743"/>
<text text-anchor="middle" x="425.5" y="-107" font-family="Helvetica,sans-Serif" font-size="10.00"> diag</text>
</g>
<!-- Node7 -->
<g id="node7" class="node"><title>Node7</title>
<polygon fill="white" stroke="#bfbfbf" points="466,-189.5 466,-208.5 507,-208.5 507,-189.5 466,-189.5"/>
<text text-anchor="middle" x="486.5" y="-196.5" font-family="Helvetica,sans-Serif" font-size="10.00">integer</text>
</g>
<!-- Node7&#45;&gt;Node1 -->
<g id="edge8" class="edge"><title>Node7&#45;&gt;Node1</title>
<path fill="none" stroke="#9a32cd" stroke-dasharray="5,2" d="M486.215,-179.198C484.654,-147.351 476.646,-82.9589 438.5,-49 421.59,-33.946 364.389,-25.1706 322.282,-20.6118"/>
<polygon fill="#9a32cd" stroke="#9a32cd" points="482.721,-179.459 486.542,-189.341 489.718,-179.233 482.721,-179.459"/>
<text text-anchor="middle" x="493.5" y="-162" font-family="Helvetica,sans-Serif" font-size="10.00"> iec</text>
<text text-anchor="middle" x="493.5" y="-151" font-family="Helvetica,sans-Serif" font-size="10.00">ied</text>
<text text-anchor="middle" x="493.5" y="-140" font-family="Helvetica,sans-Serif" font-size="10.00">jec</text>
<text text-anchor="middle" x="493.5" y="-129" font-family="Helvetica,sans-Serif" font-size="10.00">jed</text>
<text text-anchor="middle" x="493.5" y="-118" font-family="Helvetica,sans-Serif" font-size="10.00">col_i</text>
<text text-anchor="middle" x="493.5" y="-107" font-family="Helvetica,sans-Serif" font-size="10.00">isc</text>
<text text-anchor="middle" x="493.5" y="-96" font-family="Helvetica,sans-Serif" font-size="10.00">col_j</text>
<text text-anchor="middle" x="493.5" y="-85" font-family="Helvetica,sans-Serif" font-size="10.00">isd</text>
<text text-anchor="middle" x="493.5" y="-74" font-family="Helvetica,sans-Serif" font-size="10.00">jsc</text>
<text text-anchor="middle" x="493.5" y="-63" font-family="Helvetica,sans-Serif" font-size="10.00">jsd</text>
<text text-anchor="middle" x="493.5" y="-52" font-family="Helvetica,sans-Serif" font-size="10.00">...</text>
</g>
</g>
</svg>
