<?xml version="1.0" encoding="UTF-8" standalone="no"?>
<!DOCTYPE svg PUBLIC "-//W3C//DTD SVG 1.1//EN"
 "http://www.w3.org/Graphics/SVG/1.1/DTD/svg11.dtd">
<!-- Generated by graphviz version 2.38.0 (20140413.2041)
 -->
<!-- Title: adjustment_initialization::adjustment_initialize_thickness Pages: 1 -->
<svg width="366pt" height="88pt"
 viewBox="0.00 0.00 366.00 88.00" xmlns="http://www.w3.org/2000/svg" xmlns:xlink="http://www.w3.org/1999/xlink">
<g id="graph0" class="graph" transform="scale(1 1) rotate(0) translate(4 84)">
<title>adjustment_initialization::adjustment_initialize_thickness</title>
<polygon fill="white" stroke="none" points="-4,4 -4,-84 362,-84 362,4 -4,4"/>
<!-- Node5 -->
<g id="node1" class="node"><title>Node5</title>
<polygon fill="#bfbfbf" stroke="black" points="0,-19 0,-60 100,-60 100,-19 0,-19"/>
<text text-anchor="start" x="8" y="-48" font-family="Helvetica,sans-Serif" font-size="10.00">adjustment_initialization</text>
<text text-anchor="start" x="8" y="-37" font-family="Helvetica,sans-Serif" font-size="10.00">::adjustment_initialize</text>
<text text-anchor="middle" x="50" y="-26" font-family="Helvetica,sans-Serif" font-size="10.00">_thickness</text>
</g>
<!-- Node6 -->
<g id="node2" class="node"><title>Node6</title>
<g id="a_node2"><a xlink:href="../../d0/de6/namespacemom__error__handler.html#a460cfb79a06c29fc249952c2a3710d67" target="_top" xlink:title="mom_error_handler::\lmom_error">
<polygon fill="white" stroke="black" points="136,-49.5 136,-79.5 229,-79.5 229,-49.5 136,-49.5"/>
<text text-anchor="start" x="144" y="-67.5" font-family="Helvetica,sans-Serif" font-size="10.00">mom_error_handler::</text>
<text text-anchor="middle" x="182.5" y="-56.5" font-family="Helvetica,sans-Serif" font-size="10.00">mom_error</text>
</a>
</g>
</g>
<!-- Node5&#45;&gt;Node6 -->
<g id="edge1" class="edge"><title>Node5&#45;&gt;Node6</title>
<path fill="none" stroke="midnightblue" d="M100.336,-48.9514C108.741,-50.5614 117.52,-52.2433 126.069,-53.8811"/>
<polygon fill="midnightblue" stroke="midnightblue" points="125.483,-57.3324 135.963,-55.7765 126.801,-50.4574 125.483,-57.3324"/>
</g>
<!-- Node8 -->
<g id="node4" class="node"><title>Node8</title>
<g id="a_node4"><a xlink:href="../../d0/de6/namespacemom__error__handler.html#a1c462df7b61f1296407b4af51dfeceab" target="_top" xlink:title="mom_error_handler::\lmom_mesg">
<polygon fill="white" stroke="black" points="136,-0.5 136,-30.5 229,-30.5 229,-0.5 136,-0.5"/>
<text text-anchor="start" x="144" y="-18.5" font-family="Helvetica,sans-Serif" font-size="10.00">mom_error_handler::</text>
<text text-anchor="middle" x="182.5" y="-7.5" font-family="Helvetica,sans-Serif" font-size="10.00">mom_mesg</text>
</a>
</g>
</g>
<!-- Node5&#45;&gt;Node8 -->
<g id="edge3" class="edge"><title>Node5&#45;&gt;Node8</title>
<path fill="none" stroke="midnightblue" d="M100.336,-30.4266C108.741,-28.881 117.52,-27.2664 126.069,-25.6941"/>
<polygon fill="midnightblue" stroke="midnightblue" points="126.761,-29.1257 135.963,-23.8746 125.495,-22.2411 126.761,-29.1257"/>
</g>
<!-- Node7 -->
<g id="node3" class="node"><title>Node7</title>
<g id="a_node3"><a xlink:href="../../d0/de6/namespacemom__error__handler.html#ad5f00a53059c72fe2332d1436c80ca71" target="_top" xlink:title="mom_error_handler::\lis_root_pe">
<polygon fill="white" stroke="black" points="265,-24.5 265,-54.5 358,-54.5 358,-24.5 265,-24.5"/>
<text text-anchor="start" x="273" y="-42.5" font-family="Helvetica,sans-Serif" font-size="10.00">mom_error_handler::</text>
<text text-anchor="middle" x="311.5" y="-31.5" font-family="Helvetica,sans-Serif" font-size="10.00">is_root_pe</text>
</a>
</g>
</g>
<!-- Node6&#45;&gt;Node7 -->
<g id="edge2" class="edge"><title>Node6&#45;&gt;Node7</title>
<path fill="none" stroke="midnightblue" d="M229.35,-55.4744C237.623,-53.8459 246.33,-52.1319 254.846,-50.4556"/>
<polygon fill="midnightblue" stroke="midnightblue" points="255.582,-53.8779 264.717,-48.5123 254.23,-47.0097 255.582,-53.8779"/>
</g>
<!-- Node8&#45;&gt;Node7 -->
<g id="edge4" class="edge"><title>Node8&#45;&gt;Node7</title>
<path fill="none" stroke="midnightblue" d="M229.35,-24.1646C237.623,-25.7279 246.33,-27.3734 254.846,-28.9827"/>
<polygon fill="midnightblue" stroke="midnightblue" points="254.241,-32.4303 264.717,-30.8482 255.541,-25.5521 254.241,-32.4303"/>
</g>
</g>
</svg>
