<?xml version="1.0" encoding="UTF-8" standalone="no"?>
<!DOCTYPE svg PUBLIC "-//W3C//DTD SVG 1.1//EN"
 "http://www.w3.org/Graphics/SVG/1.1/DTD/svg11.dtd">
<!-- Generated by graphviz version 2.38.0 (20140413.2041)
 -->
<!-- Title: mom_document::doc_type Pages: 1 -->
<!--zoomable 217 -->
<svg id="main" version="1.1" xmlns="http://www.w3.org/2000/svg" xmlns:xlink="http://www.w3.org/1999/xlink" xml:space="preserve" onload="init(evt)">
<style type="text/css"><![CDATA[
.edge:hover path { stroke: red; }
.edge:hover polygon { stroke: red; fill: red; }
]]></style>
<script type="text/javascript"><![CDATA[
var edges = document.getElementsByTagName('g');
if (edges && edges.length) {
  for (var i=0;i<edges.length;i++) {
    if (edges[i].id.substr(0,4)=='edge') {
      edges[i].setAttribute('class','edge');
    }
  }
}
]]></script>
        <defs>
                <circle id="rim" cx="0" cy="0" r="7"/>
                <circle id="rim2" cx="0" cy="0" r="3.5"/>
                <g id="zoomPlus">
                        <use xlink:href="#rim" fill="#404040">
                                <set attributeName="fill" to="#808080" begin="zoomplus.mouseover" end="zoomplus.mouseout"/>
                        </use>
                        <path d="M-4,0h8M0,-4v8" fill="none" stroke="white" stroke-width="1.5" pointer-events="none"/>
                </g>
                <g id="zoomMin">
                        <use xlink:href="#rim" fill="#404040">
                                <set attributeName="fill" to="#808080" begin="zoomminus.mouseover" end="zoomminus.mouseout"/>
                        </use>
                        <path d="M-4,0h8" fill="none" stroke="white" stroke-width="1.5" pointer-events="none"/>
                </g>
                <g id="dirArrow">
                        <path fill="none" stroke="white" stroke-width="1.5" d="M0,-3.0v7 M-2.5,-0.5L0,-3.0L2.5,-0.5"/>
                </g>
               <g id="resetDef">
                       <use xlink:href="#rim2" fill="#404040">
                               <set attributeName="fill" to="#808080" begin="reset.mouseover" end="reset.mouseout"/>
                       </use>
               </g>
        </defs>

<script type="text/javascript">
var viewWidth = 508;
var viewHeight = 217;
var sectionId = 'dynsection-0';
</script>
<script xlink:href="../../svgpan.js"/>
<svg id="graph" class="graph">
<g id="viewport">
<title>mom_document::doc_type</title>
<polygon fill="white" stroke="none" points="-4,4 -4,-213 503.5,-213 503.5,4 -4,4"/>
<!-- Node1 -->
<g id="node1" class="node"><title>Node1</title>
<polygon fill="#bfbfbf" stroke="black" points="159,-0.5 159,-19.5 270,-19.5 270,-0.5 159,-0.5"/>
<text text-anchor="middle" x="214.5" y="-7.5" font-family="Helvetica,sans-Serif" font-size="10.00">mom_document::doc_type</text>
</g>
<!-- Node2 -->
<g id="node2" class="node"><title>Node2</title>
<polygon fill="white" stroke="#bfbfbf" points="0,-122.5 0,-141.5 85,-141.5 85,-122.5 0,-122.5"/>
<text text-anchor="middle" x="42.5" y="-129.5" font-family="Helvetica,sans-Serif" font-size="10.00">character(len=240)</text>
</g>
<!-- Node2&#45;&gt;Node1 -->
<g id="edge1" class="edge"><title>Node2&#45;&gt;Node1</title>
<path fill="none" stroke="#9a32cd" stroke-dasharray="5,2" d="M45.3245,-112.132C49.549,-90.7998 59.6218,-56.6216 82.5,-38 94.3373,-28.3652 128.408,-21.5371 158.968,-17.1579"/>
<polygon fill="#9a32cd" stroke="#9a32cd" points="41.8345,-111.774 43.5731,-122.225 48.7314,-112.971 41.8345,-111.774"/>
<text text-anchor="middle" x="102.5" y="-68.5" font-family="Helvetica,sans-Serif" font-size="10.00"> blockprefix</text>
</g>
<!-- Node3 -->
<g id="node3" class="node"><title>Node3</title>
<polygon fill="white" stroke="#bfbfbf" points="103.5,-122.5 103.5,-141.5 141.5,-141.5 141.5,-122.5 103.5,-122.5"/>
<text text-anchor="middle" x="122.5" y="-129.5" font-family="Helvetica,sans-Serif" font-size="10.00">logical</text>
</g>
<!-- Node3&#45;&gt;Node1 -->
<g id="edge2" class="edge"><title>Node3&#45;&gt;Node1</title>
<path fill="none" stroke="#9a32cd" stroke-dasharray="5,2" d="M124.734,-112.458C128.1,-91.9397 136.271,-59.0043 155.5,-38 163.106,-29.6913 173.773,-23.7539 183.948,-19.603"/>
<polygon fill="#9a32cd" stroke="#9a32cd" points="121.26,-112.032 123.319,-122.424 128.19,-113.016 121.26,-112.032"/>
<text text-anchor="middle" x="183" y="-96" font-family="Helvetica,sans-Serif" font-size="10.00"> complete</text>
<text text-anchor="middle" x="183" y="-85" font-family="Helvetica,sans-Serif" font-size="10.00">filesareopen</text>
<text text-anchor="middle" x="183" y="-74" font-family="Helvetica,sans-Serif" font-size="10.00">minimal</text>
<text text-anchor="middle" x="183" y="-63" font-family="Helvetica,sans-Serif" font-size="10.00">warnonconflicts</text>
<text text-anchor="middle" x="183" y="-52" font-family="Helvetica,sans-Serif" font-size="10.00">layout</text>
<text text-anchor="middle" x="183" y="-41" font-family="Helvetica,sans-Serif" font-size="10.00">definesyntax</text>
</g>
<!-- Node4 -->
<g id="node4" class="node"><title>Node4</title>
<g id="a_node4"><a xlink:href="../../d0/de7/structmom__document_1_1link__msg.html" target="_top" xlink:title="mom_document::link_msg">
<polygon fill="white" stroke="black" points="159.5,-122.5 159.5,-141.5 269.5,-141.5 269.5,-122.5 159.5,-122.5"/>
<text text-anchor="middle" x="214.5" y="-129.5" font-family="Helvetica,sans-Serif" font-size="10.00">mom_document::link_msg</text>
</a>
</g>
</g>
<!-- Node4&#45;&gt;Node1 -->
<g id="edge3" class="edge"><title>Node4&#45;&gt;Node1</title>
<path fill="none" stroke="#9a32cd" stroke-dasharray="5,2" d="M214.5,-112.145C214.5,-85.7231 214.5,-38.7637 214.5,-19.5519"/>
<polygon fill="#9a32cd" stroke="#9a32cd" points="211,-112.37 214.5,-122.37 218,-112.37 211,-112.37"/>
<text text-anchor="middle" x="235" y="-68.5" font-family="Helvetica,sans-Serif" font-size="10.00"> chain_msg</text>
</g>
<!-- Node4&#45;&gt;Node4 -->
<g id="edge4" class="edge"><title>Node4&#45;&gt;Node4</title>
<path fill="none" stroke="#9a32cd" stroke-dasharray="5,2" d="M279.501,-136.503C284.452,-135.503 287.5,-134.002 287.5,-132 287.5,-128.875 280.074,-126.971 269.573,-126.287"/>
<polygon fill="#9a32cd" stroke="#9a32cd" points="279.076,-133.029 269.573,-137.713 279.923,-139.977 279.076,-133.029"/>
<text text-anchor="middle" x="296.5" y="-129.5" font-family="Helvetica,sans-Serif" font-size="10.00"> next</text>
</g>
<!-- Node5 -->
<g id="node5" class="node"><title>Node5</title>
<polygon fill="white" stroke="#bfbfbf" points="122,-189.5 122,-208.5 207,-208.5 207,-189.5 122,-189.5"/>
<text text-anchor="middle" x="164.5" y="-196.5" font-family="Helvetica,sans-Serif" font-size="10.00">character(len=620)</text>
</g>
<!-- Node5&#45;&gt;Node4 -->
<g id="edge5" class="edge"><title>Node5&#45;&gt;Node4</title>
<path fill="none" stroke="#9a32cd" stroke-dasharray="5,2" d="M177.369,-181.27C187.118,-168.597 200.115,-151.701 207.864,-141.627"/>
<polygon fill="#9a32cd" stroke="#9a32cd" points="174.566,-179.174 171.243,-189.234 180.115,-183.442 174.566,-179.174"/>
<text text-anchor="middle" x="201.5" y="-163" font-family="Helvetica,sans-Serif" font-size="10.00"> msg</text>
</g>
<!-- Node6 -->
<g id="node6" class="node"><title>Node6</title>
<polygon fill="white" stroke="#bfbfbf" points="225.5,-189.5 225.5,-208.5 305.5,-208.5 305.5,-189.5 225.5,-189.5"/>
<text text-anchor="middle" x="265.5" y="-196.5" font-family="Helvetica,sans-Serif" font-size="10.00">character(len=80)</text>
</g>
<!-- Node6&#45;&gt;Node4 -->
<g id="edge6" class="edge"><title>Node6&#45;&gt;Node4</title>
<path fill="none" stroke="#9a32cd" stroke-dasharray="5,2" d="M252.374,-181.27C242.43,-168.597 229.173,-151.701 221.269,-141.627"/>
<polygon fill="#9a32cd" stroke="#9a32cd" points="249.695,-183.527 258.622,-189.234 255.203,-179.206 249.695,-183.527"/>
<text text-anchor="middle" x="255" y="-163" font-family="Helvetica,sans-Serif" font-size="10.00"> name</text>
</g>
<!-- Node7 -->
<g id="node7" class="node"><title>Node7</title>
<polygon fill="white" stroke="#bfbfbf" points="324,-122.5 324,-141.5 413,-141.5 413,-122.5 324,-122.5"/>
<text text-anchor="middle" x="368.5" y="-129.5" font-family="Helvetica,sans-Serif" font-size="10.00">character(len=mlen)</text>
</g>
<!-- Node7&#45;&gt;Node1 -->
<g id="edge7" class="edge"><title>Node7&#45;&gt;Node1</title>
<path fill="none" stroke="#9a32cd" stroke-dasharray="5,2" d="M352.269,-115.65C331.566,-96.4311 294.268,-62.9995 259.5,-38 250.18,-31.2983 239.133,-24.6529 230.317,-19.6318"/>
<polygon fill="#9a32cd" stroke="#9a32cd" points="349.897,-118.224 359.591,-122.499 354.679,-113.112 349.897,-118.224"/>
<text text-anchor="middle" x="360" y="-68.5" font-family="Helvetica,sans-Serif" font-size="10.00"> docfilebase</text>
</g>
<!-- Node8 -->
<g id="node8" class="node"><title>Node8</title>
<polygon fill="white" stroke="#bfbfbf" points="431,-122.5 431,-141.5 472,-141.5 472,-122.5 431,-122.5"/>
<text text-anchor="middle" x="451.5" y="-129.5" font-family="Helvetica,sans-Serif" font-size="10.00">integer</text>
</g>
<!-- Node8&#45;&gt;Node1 -->
<g id="edge8" class="edge"><title>Node8&#45;&gt;Node1</title>
<path fill="none" stroke="#9a32cd" stroke-dasharray="5,2" d="M444.022,-112.957C434.058,-91.3502 414.275,-55.8445 385.5,-38 366.599,-26.2783 312.399,-19.0857 270.032,-15.1031"/>
<polygon fill="#9a32cd" stroke="#9a32cd" points="440.901,-114.556 448.121,-122.31 447.312,-111.746 440.901,-114.556"/>
<text text-anchor="middle" x="470" y="-85" font-family="Helvetica,sans-Serif" font-size="10.00"> unitshort</text>
<text text-anchor="middle" x="470" y="-74" font-family="Helvetica,sans-Serif" font-size="10.00">commentcolumn</text>
<text text-anchor="middle" x="470" y="-63" font-family="Helvetica,sans-Serif" font-size="10.00">unitall</text>
<text text-anchor="middle" x="470" y="-52" font-family="Helvetica,sans-Serif" font-size="10.00">unitlayout</text>
</g>
</g>
</svg>
        <g id="navigator" transform="translate(0 0)" fill="#404254">
                <rect fill="#f2f5e9" fill-opacity="0.5" stroke="#606060" stroke-width=".5" x="0" y="0" width="60" height="60"/>
                <use id="zoomplus" xlink:href="#zoomPlus" x="17" y="9" onmousedown="handleZoom(evt,'in')"/>
                <use id="zoomminus" xlink:href="#zoomMin" x="42" y="9" onmousedown="handleZoom(evt,'out')"/>
                <use id="reset" xlink:href="#resetDef" x="30" y="36" onmousedown="handleReset()"/>
                <g id="arrowUp" xlink:href="#dirArrow" transform="translate(30 24)" onmousedown="handlePan(0,-1)">
                  <use xlink:href="#rim" fill="#404040">
                        <set attributeName="fill" to="#808080" begin="arrowUp.mouseover" end="arrowUp.mouseout"/>
                  </use>
                  <path fill="none" stroke="white" stroke-width="1.5" d="M0,-3.0v7 M-2.5,-0.5L0,-3.0L2.5,-0.5"/>
                </g>
                <g id="arrowRight" xlink:href="#dirArrow" transform="rotate(90) translate(36 -43)" onmousedown="handlePan(1,0)">
                  <use xlink:href="#rim" fill="#404040">
                        <set attributeName="fill" to="#808080" begin="arrowRight.mouseover" end="arrowRight.mouseout"/>
                  </use>
                  <path fill="none" stroke="white" stroke-width="1.5" d="M0,-3.0v7 M-2.5,-0.5L0,-3.0L2.5,-0.5"/>
                </g>
                <g id="arrowDown" xlink:href="#dirArrow" transform="rotate(180) translate(-30 -48)" onmousedown="handlePan(0,1)">
                  <use xlink:href="#rim" fill="#404040">
                        <set attributeName="fill" to="#808080" begin="arrowDown.mouseover" end="arrowDown.mouseout"/>
                  </use>
                  <path fill="none" stroke="white" stroke-width="1.5" d="M0,-3.0v7 M-2.5,-0.5L0,-3.0L2.5,-0.5"/>
                </g>
                <g id="arrowLeft" xlink:href="#dirArrow" transform="rotate(270) translate(-36 17)" onmousedown="handlePan(-1,0)">
                  <use xlink:href="#rim" fill="#404040">
                        <set attributeName="fill" to="#808080" begin="arrowLeft.mouseover" end="arrowLeft.mouseout"/>
                  </use>
                  <path fill="none" stroke="white" stroke-width="1.5" d="M0,-3.0v7 M-2.5,-0.5L0,-3.0L2.5,-0.5"/>
                </g>
        </g>
        <svg viewBox="0 0 15 15" width="100%" height="30px" preserveAspectRatio="xMaxYMin meet">
         <g id="arrow_out" transform="scale(0.3 0.3)">
          <a xlink:href="structmom__document_1_1doc__type__coll__graph_org.svg" target="_base">
           <rect id="button" ry="5" rx="5" y="6" x="6" height="38" width="38"
                fill="#f2f5e9" fill-opacity="0.5" stroke="#606060" stroke-width="1.0"/>
           <path id="arrow"
             d="M 11.500037,31.436501 C 11.940474,20.09759 22.043105,11.32322 32.158766,21.979434 L 37.068811,17.246167 C 37.068811,17.246167 37.088388,32 37.088388,32 L 22.160133,31.978069 C 22.160133,31.978069 26.997745,27.140456 26.997745,27.140456 C 18.528582,18.264221 13.291696,25.230495 11.500037,31.436501 z"
             style="fill:#404040;"/>
          </a>
         </g>
        </svg>
</svg>
