<?xml version="1.0" encoding="UTF-8" standalone="no"?>
<!DOCTYPE svg PUBLIC "-//W3C//DTD SVG 1.1//EN"
 "http://www.w3.org/Graphics/SVG/1.1/DTD/svg11.dtd">
<!-- Generated by graphviz version 2.38.0 (20140413.2041)
 -->
<!-- Title: mom_thickness_diffuse::vert_fill_ts Pages: 1 -->
<svg width="582pt" height="137pt"
 viewBox="0.00 0.00 582.00 137.00" xmlns="http://www.w3.org/2000/svg" xmlns:xlink="http://www.w3.org/1999/xlink">
<g id="graph0" class="graph" transform="scale(1 1) rotate(0) translate(4 133)">
<title>mom_thickness_diffuse::vert_fill_ts</title>
<polygon fill="white" stroke="none" points="-4,4 -4,-133 578,-133 578,4 -4,4"/>
<!-- Node44 -->
<g id="node1" class="node"><title>Node44</title>
<polygon fill="#bfbfbf" stroke="black" points="0,-49.5 0,-79.5 99,-79.5 99,-49.5 0,-49.5"/>
<text text-anchor="start" x="8" y="-67.5" font-family="Helvetica,sans-Serif" font-size="10.00">mom_thickness_diffuse</text>
<text text-anchor="middle" x="49.5" y="-56.5" font-family="Helvetica,sans-Serif" font-size="10.00">::vert_fill_ts</text>
</g>
<!-- Node45 -->
<g id="node2" class="node"><title>Node45</title>
<g id="a_node2"><a xlink:href="../../d3/d4b/namespacemom__set__diffusivity.html#a8b1f646393f0ec717ca690e4f04d96e8" target="_top" xlink:title="mom_set_diffusivity\l::set_diffusivity">
<polygon fill="white" stroke="black" points="141.5,-98.5 141.5,-128.5 227.5,-128.5 227.5,-98.5 141.5,-98.5"/>
<text text-anchor="start" x="149.5" y="-116.5" font-family="Helvetica,sans-Serif" font-size="10.00">mom_set_diffusivity</text>
<text text-anchor="middle" x="184.5" y="-105.5" font-family="Helvetica,sans-Serif" font-size="10.00">::set_diffusivity</text>
</a>
</g>
</g>
<!-- Node44&#45;&gt;Node45 -->
<g id="edge1" class="edge"><title>Node44&#45;&gt;Node45</title>
<path fill="none" stroke="midnightblue" d="M101.207,-83.1816C114.829,-88.2001 129.389,-93.5643 142.417,-98.3641"/>
<polygon fill="midnightblue" stroke="midnightblue" points="102.083,-79.7744 91.4896,-79.6014 99.6631,-86.3428 102.083,-79.7744"/>
</g>
<!-- Node46 -->
<g id="node3" class="node"><title>Node46</title>
<g id="a_node3"><a xlink:href="../../d0/d77/namespacemom__int__tide__input.html#a085f75d081e7a3091ad5bdfe91858714" target="_top" xlink:title="mom_int_tide_input\l::set_int_tide_input">
<polygon fill="white" stroke="black" points="141.5,-49.5 141.5,-79.5 227.5,-79.5 227.5,-49.5 141.5,-49.5"/>
<text text-anchor="start" x="149.5" y="-67.5" font-family="Helvetica,sans-Serif" font-size="10.00">mom_int_tide_input</text>
<text text-anchor="middle" x="184.5" y="-56.5" font-family="Helvetica,sans-Serif" font-size="10.00">::set_int_tide_input</text>
</a>
</g>
</g>
<!-- Node44&#45;&gt;Node46 -->
<g id="edge2" class="edge"><title>Node44&#45;&gt;Node46</title>
<path fill="none" stroke="midnightblue" d="M109.444,-64.5C120.18,-64.5 131.183,-64.5 141.312,-64.5"/>
<polygon fill="midnightblue" stroke="midnightblue" points="109.269,-61.0001 99.2691,-64.5 109.269,-68.0001 109.269,-61.0001"/>
</g>
<!-- Node47 -->
<g id="node4" class="node"><title>Node47</title>
<g id="a_node4"><a xlink:href="../../d1/d75/namespacemom__thickness__diffuse.html#ad461e8977f22cd7488fb1925e58cf084" target="_top" xlink:title="mom_thickness_diffuse\l::thickness_diffuse_full">
<polygon fill="white" stroke="black" points="135,-0.5 135,-30.5 234,-30.5 234,-0.5 135,-0.5"/>
<text text-anchor="start" x="143" y="-18.5" font-family="Helvetica,sans-Serif" font-size="10.00">mom_thickness_diffuse</text>
<text text-anchor="middle" x="184.5" y="-7.5" font-family="Helvetica,sans-Serif" font-size="10.00">::thickness_diffuse_full</text>
</a>
</g>
</g>
<!-- Node44&#45;&gt;Node47 -->
<g id="edge3" class="edge"><title>Node44&#45;&gt;Node47</title>
<path fill="none" stroke="midnightblue" d="M101.207,-45.8184C114.829,-40.7999 129.389,-35.4357 142.417,-30.6359"/>
<polygon fill="midnightblue" stroke="midnightblue" points="99.6631,-42.6572 91.4896,-49.3986 102.083,-49.2256 99.6631,-42.6572"/>
</g>
<!-- Node48 -->
<g id="node5" class="node"><title>Node48</title>
<g id="a_node5"><a xlink:href="../../d1/d75/namespacemom__thickness__diffuse.html#a9506f374762ce6d5d12424a9314fad2f" target="_top" xlink:title="mom_thickness_diffuse\l::thickness_diffuse">
<polygon fill="white" stroke="black" points="270,-0.5 270,-30.5 369,-30.5 369,-0.5 270,-0.5"/>
<text text-anchor="start" x="278" y="-18.5" font-family="Helvetica,sans-Serif" font-size="10.00">mom_thickness_diffuse</text>
<text text-anchor="middle" x="319.5" y="-7.5" font-family="Helvetica,sans-Serif" font-size="10.00">::thickness_diffuse</text>
</a>
</g>
</g>
<!-- Node47&#45;&gt;Node48 -->
<g id="edge4" class="edge"><title>Node47&#45;&gt;Node48</title>
<path fill="none" stroke="midnightblue" d="M244.455,-15.5C252.902,-15.5 261.515,-15.5 269.737,-15.5"/>
<polygon fill="midnightblue" stroke="midnightblue" points="244.269,-12.0001 234.269,-15.5 244.269,-19.0001 244.269,-12.0001"/>
</g>
<!-- Node49 -->
<g id="node6" class="node"><title>Node49</title>
<g id="a_node6"><a xlink:href="../../da/d01/namespacemom.html#a4c8332b095c6d295084089aa6b3b678a" target="_top" xlink:title="This subroutine orchestrates the time stepping of MOM. The adiabatic dynamics are stepped by calls to...">
<polygon fill="white" stroke="black" points="405,-6 405,-25 482,-25 482,-6 405,-6"/>
<text text-anchor="middle" x="443.5" y="-13" font-family="Helvetica,sans-Serif" font-size="10.00">mom::step_mom</text>
</a>
</g>
</g>
<!-- Node48&#45;&gt;Node49 -->
<g id="edge5" class="edge"><title>Node48&#45;&gt;Node49</title>
<path fill="none" stroke="midnightblue" d="M379.161,-15.5C387.818,-15.5 396.539,-15.5 404.623,-15.5"/>
<polygon fill="midnightblue" stroke="midnightblue" points="379.068,-12.0001 369.068,-15.5 379.068,-19.0001 379.068,-12.0001"/>
</g>
<!-- Node50 -->
<g id="node7" class="node"><title>Node50</title>
<g id="a_node7"><a xlink:href="../../de/dbc/MOM__driver_8F90.html#a08fffeb2d8e8acbf9ed4609be6d258c6" target="_top" xlink:title="mom_main">
<polygon fill="white" stroke="black" points="518,-6 518,-25 574,-25 574,-6 518,-6"/>
<text text-anchor="middle" x="546" y="-13" font-family="Helvetica,sans-Serif" font-size="10.00">mom_main</text>
</a>
</g>
</g>
<!-- Node49&#45;&gt;Node50 -->
<g id="edge6" class="edge"><title>Node49&#45;&gt;Node50</title>
<path fill="none" stroke="midnightblue" d="M492.342,-15.5C501.067,-15.5 509.888,-15.5 517.751,-15.5"/>
<polygon fill="midnightblue" stroke="midnightblue" points="492.208,-12.0001 482.208,-15.5 492.208,-19.0001 492.208,-12.0001"/>
</g>
</g>
</svg>
