<?xml version="1.0" encoding="UTF-8" standalone="no"?>
<!DOCTYPE svg PUBLIC "-//W3C//DTD SVG 1.1//EN"
 "http://www.w3.org/Graphics/SVG/1.1/DTD/svg11.dtd">
<!-- Generated by graphviz version 2.38.0 (20140413.2041)
 -->
<!-- Title: mom_set_visc::set_viscous_ml Pages: 1 -->
<svg width="561pt" height="254pt"
 viewBox="0.00 0.00 561.00 253.50" xmlns="http://www.w3.org/2000/svg" xmlns:xlink="http://www.w3.org/1999/xlink">
<g id="graph0" class="graph" transform="scale(1 1) rotate(0) translate(4 249.5)">
<title>mom_set_visc::set_viscous_ml</title>
<polygon fill="white" stroke="none" points="-4,4 -4,-249.5 557,-249.5 557,4 -4,4"/>
<!-- Node48 -->
<g id="node1" class="node"><title>Node48</title>
<polygon fill="#bfbfbf" stroke="black" points="0,-57.5 0,-76.5 125,-76.5 125,-57.5 0,-57.5"/>
<text text-anchor="middle" x="62.5" y="-64.5" font-family="Helvetica,sans-Serif" font-size="10.00">mom_set_visc::set_viscous_ml</text>
</g>
<!-- Node49 -->
<g id="node2" class="node"><title>Node49</title>
<g id="a_node2"><a xlink:href="../../d1/d01/namespacemom__eos.html#a204529f8434a0322314e6ce2a9762436" target="_top" xlink:title="Calls the appropriate subroutine to calculate density derivatives for 1&#45;D array inputs. ">
<polygon fill="white" stroke="black" points="172.5,-117 172.5,-147 259.5,-147 259.5,-117 172.5,-117"/>
<text text-anchor="start" x="180.5" y="-135" font-family="Helvetica,sans-Serif" font-size="10.00">mom_eos::calculate</text>
<text text-anchor="middle" x="216" y="-124" font-family="Helvetica,sans-Serif" font-size="10.00">_density_derivs</text>
</a>
</g>
</g>
<!-- Node48&#45;&gt;Node49 -->
<g id="edge1" class="edge"><title>Node48&#45;&gt;Node49</title>
<path fill="none" stroke="midnightblue" d="M85.8543,-76.591C108.016,-86.0994 142.585,-100.931 170.382,-112.857"/>
<polygon fill="midnightblue" stroke="midnightblue" points="169.331,-116.214 179.901,-116.941 172.091,-109.782 169.331,-116.214"/>
</g>
<!-- Node53 -->
<g id="node6" class="node"><title>Node53</title>
<g id="a_node6"><a xlink:href="../../d0/de6/namespacemom__error__handler.html#a460cfb79a06c29fc249952c2a3710d67" target="_top" xlink:title="mom_error_handler::\lmom_error">
<polygon fill="white" stroke="black" points="319,-68 319,-98 412,-98 412,-68 319,-68"/>
<text text-anchor="start" x="327" y="-86" font-family="Helvetica,sans-Serif" font-size="10.00">mom_error_handler::</text>
<text text-anchor="middle" x="365.5" y="-75" font-family="Helvetica,sans-Serif" font-size="10.00">mom_error</text>
</a>
</g>
</g>
<!-- Node48&#45;&gt;Node53 -->
<g id="edge7" class="edge"><title>Node48&#45;&gt;Node53</title>
<path fill="none" stroke="midnightblue" d="M125.138,-70.2764C178.994,-73.1392 256.503,-77.2593 308.59,-80.028"/>
<polygon fill="midnightblue" stroke="midnightblue" points="308.482,-83.5272 318.654,-80.563 308.854,-76.537 308.482,-83.5272"/>
</g>
<!-- Node55 -->
<g id="node8" class="node"><title>Node55</title>
<g id="a_node8"><a xlink:href="../../d6/d5d/namespacemom__set__visc.html#a08eb74fc6d027dd5ac6701f90e009370" target="_top" xlink:title="mom_set_visc::set_u_at_v">
<polygon fill="white" stroke="black" points="161,-38.5 161,-57.5 271,-57.5 271,-38.5 161,-38.5"/>
<text text-anchor="middle" x="216" y="-45.5" font-family="Helvetica,sans-Serif" font-size="10.00">mom_set_visc::set_u_at_v</text>
</a>
</g>
</g>
<!-- Node48&#45;&gt;Node55 -->
<g id="edge8" class="edge"><title>Node48&#45;&gt;Node55</title>
<path fill="none" stroke="midnightblue" d="M125.121,-59.272C133.508,-58.2202 142.134,-57.1383 150.568,-56.0805"/>
<polygon fill="midnightblue" stroke="midnightblue" points="151.246,-59.523 160.733,-54.8058 150.375,-52.5774 151.246,-59.523"/>
</g>
<!-- Node56 -->
<g id="node9" class="node"><title>Node56</title>
<g id="a_node9"><a xlink:href="../../d6/d5d/namespacemom__set__visc.html#a992756b5043feccdafd9580774373375" target="_top" xlink:title="mom_set_visc::set_v_at_u">
<polygon fill="white" stroke="black" points="161,-0.5 161,-19.5 271,-19.5 271,-0.5 161,-0.5"/>
<text text-anchor="middle" x="216" y="-7.5" font-family="Helvetica,sans-Serif" font-size="10.00">mom_set_visc::set_v_at_u</text>
</a>
</g>
</g>
<!-- Node48&#45;&gt;Node56 -->
<g id="edge9" class="edge"><title>Node48&#45;&gt;Node56</title>
<path fill="none" stroke="midnightblue" d="M87.456,-57.4067C107.141,-49.5858 135.789,-38.3453 161,-29 166.3,-27.0354 171.91,-25.0059 177.432,-23.0373"/>
<polygon fill="midnightblue" stroke="midnightblue" points="178.927,-26.2211 187.187,-19.5869 176.593,-19.6217 178.927,-26.2211"/>
</g>
<!-- Node50 -->
<g id="node3" class="node"><title>Node50</title>
<g id="a_node3"><a xlink:href="../../d5/de6/namespacemom__eos__linear.html#a73d8a625582247379092adf1aeeb55e0" target="_top" xlink:title="mom_eos_linear::calculate\l_density_derivs_linear">
<polygon fill="white" stroke="black" points="310,-215 310,-245 421,-245 421,-215 310,-215"/>
<text text-anchor="start" x="318" y="-233" font-family="Helvetica,sans-Serif" font-size="10.00">mom_eos_linear::calculate</text>
<text text-anchor="middle" x="365.5" y="-222" font-family="Helvetica,sans-Serif" font-size="10.00">_density_derivs_linear</text>
</a>
</g>
</g>
<!-- Node49&#45;&gt;Node50 -->
<g id="edge2" class="edge"><title>Node49&#45;&gt;Node50</title>
<path fill="none" stroke="midnightblue" d="M232.503,-147.174C249.634,-163.335 278.576,-188.893 307,-206 309.604,-207.567 312.329,-209.079 315.116,-210.53"/>
<polygon fill="midnightblue" stroke="midnightblue" points="313.642,-213.705 324.164,-214.944 316.711,-207.413 313.642,-213.705"/>
</g>
<!-- Node51 -->
<g id="node4" class="node"><title>Node51</title>
<g id="a_node4"><a xlink:href="../../dd/d6b/namespacemom__eos__unesco.html#af8666837abadea54c016bf59838f96cc" target="_top" xlink:title="mom_eos_unesco::calculate\l_density_derivs_unesco">
<polygon fill="white" stroke="black" points="307,-166 307,-196 424,-196 424,-166 307,-166"/>
<text text-anchor="start" x="315" y="-184" font-family="Helvetica,sans-Serif" font-size="10.00">mom_eos_unesco::calculate</text>
<text text-anchor="middle" x="365.5" y="-173" font-family="Helvetica,sans-Serif" font-size="10.00">_density_derivs_unesco</text>
</a>
</g>
</g>
<!-- Node49&#45;&gt;Node51 -->
<g id="edge3" class="edge"><title>Node49&#45;&gt;Node51</title>
<path fill="none" stroke="midnightblue" d="M259.663,-146.173C275.239,-151.347 293.08,-157.274 309.574,-162.753"/>
<polygon fill="midnightblue" stroke="midnightblue" points="308.509,-166.088 319.103,-165.919 310.716,-159.445 308.509,-166.088"/>
</g>
<!-- Node52 -->
<g id="node5" class="node"><title>Node52</title>
<g id="a_node5"><a xlink:href="../../de/d76/namespacemom__eos__wright.html#ad7748e85ddacb33ad90ec3a9017e6e72" target="_top" xlink:title="mom_eos_wright::calculate\l_density_derivs_wright">
<polygon fill="white" stroke="black" points="309,-117 309,-147 422,-147 422,-117 309,-117"/>
<text text-anchor="start" x="317" y="-135" font-family="Helvetica,sans-Serif" font-size="10.00">mom_eos_wright::calculate</text>
<text text-anchor="middle" x="365.5" y="-124" font-family="Helvetica,sans-Serif" font-size="10.00">_density_derivs_wright</text>
</a>
</g>
</g>
<!-- Node49&#45;&gt;Node52 -->
<g id="edge4" class="edge"><title>Node49&#45;&gt;Node52</title>
<path fill="none" stroke="midnightblue" d="M259.663,-132C271.867,-132 285.461,-132 298.709,-132"/>
<polygon fill="midnightblue" stroke="midnightblue" points="298.743,-135.5 308.743,-132 298.743,-128.5 298.743,-135.5"/>
</g>
<!-- Node49&#45;&gt;Node53 -->
<g id="edge5" class="edge"><title>Node49&#45;&gt;Node53</title>
<path fill="none" stroke="midnightblue" d="M259.663,-117.827C275.239,-112.653 293.08,-106.726 309.574,-101.247"/>
<polygon fill="midnightblue" stroke="midnightblue" points="310.716,-104.555 319.103,-98.0811 308.509,-97.9122 310.716,-104.555"/>
</g>
<!-- Node54 -->
<g id="node7" class="node"><title>Node54</title>
<g id="a_node7"><a xlink:href="../../d0/de6/namespacemom__error__handler.html#ad5f00a53059c72fe2332d1436c80ca71" target="_top" xlink:title="mom_error_handler::\lis_root_pe">
<polygon fill="white" stroke="black" points="460,-68 460,-98 553,-98 553,-68 460,-68"/>
<text text-anchor="start" x="468" y="-86" font-family="Helvetica,sans-Serif" font-size="10.00">mom_error_handler::</text>
<text text-anchor="middle" x="506.5" y="-75" font-family="Helvetica,sans-Serif" font-size="10.00">is_root_pe</text>
</a>
</g>
</g>
<!-- Node53&#45;&gt;Node54 -->
<g id="edge6" class="edge"><title>Node53&#45;&gt;Node54</title>
<path fill="none" stroke="midnightblue" d="M412.014,-83C424.014,-83 437.102,-83 449.581,-83"/>
<polygon fill="midnightblue" stroke="midnightblue" points="449.884,-86.5001 459.884,-83 449.884,-79.5001 449.884,-86.5001"/>
</g>
</g>
</svg>
