<?xml version="1.0" encoding="UTF-8" standalone="no"?>
<!DOCTYPE svg PUBLIC "-//W3C//DTD SVG 1.1//EN"
 "http://www.w3.org/Graphics/SVG/1.1/DTD/svg11.dtd">
<!-- Generated by graphviz version 2.38.0 (20140413.2041)
 -->
<!-- Title: mom_set_visc::set_viscous_ml Pages: 1 -->
<svg width="303pt" height="197pt"
 viewBox="0.00 0.00 303.00 196.50" xmlns="http://www.w3.org/2000/svg" xmlns:xlink="http://www.w3.org/1999/xlink">
<g id="graph0" class="graph" transform="scale(1 1) rotate(0) translate(4 192.5)">
<title>mom_set_visc::set_viscous_ml</title>
<polygon fill="white" stroke="none" points="-4,4 -4,-192.5 299,-192.5 299,4 -4,4"/>
<!-- Node57 -->
<g id="node1" class="node"><title>Node57</title>
<polygon fill="#bfbfbf" stroke="black" points="0,-79 0,-98 125,-98 125,-79 0,-79"/>
<text text-anchor="middle" x="62.5" y="-86" font-family="Helvetica,sans-Serif" font-size="10.00">mom_set_visc::set_viscous_ml</text>
</g>
<!-- Node58 -->
<g id="node2" class="node"><title>Node58</title>
<g id="a_node2"><a xlink:href="../../db/dd4/namespacemom__dynamics__legacy__split.html#ae34fe0561f87dc05c2fad64bf6d5a1ee" target="_top" xlink:title="mom_dynamics_legacy\l_split::step_mom_dyn\l_legacy_split">
<polygon fill="white" stroke="black" points="178.5,-147 178.5,-188 277.5,-188 277.5,-147 178.5,-147"/>
<text text-anchor="start" x="186.5" y="-176" font-family="Helvetica,sans-Serif" font-size="10.00">mom_dynamics_legacy</text>
<text text-anchor="start" x="186.5" y="-165" font-family="Helvetica,sans-Serif" font-size="10.00">_split::step_mom_dyn</text>
<text text-anchor="middle" x="228" y="-154" font-family="Helvetica,sans-Serif" font-size="10.00">_legacy_split</text>
</a>
</g>
</g>
<!-- Node57&#45;&gt;Node58 -->
<g id="edge1" class="edge"><title>Node57&#45;&gt;Node58</title>
<path fill="none" stroke="midnightblue" d="M90.2104,-102.744C109.684,-112.994 136.788,-126.985 161,-138.5 166.877,-141.295 173.09,-144.151 179.26,-146.928"/>
<polygon fill="midnightblue" stroke="midnightblue" points="91.7864,-99.6183 81.3098,-98.0397 88.5154,-105.807 91.7864,-99.6183"/>
</g>
<!-- Node59 -->
<g id="node3" class="node"><title>Node59</title>
<g id="a_node3"><a xlink:href="../../d1/dc3/namespacemom__dynamics__split__rk2.html#a81cce65643a8cf94979d68354a9a1979" target="_top" xlink:title="RK2 splitting for time stepping MOM adiabatic dynamics. ">
<polygon fill="white" stroke="black" points="165.5,-98.5 165.5,-128.5 290.5,-128.5 290.5,-98.5 165.5,-98.5"/>
<text text-anchor="start" x="173.5" y="-116.5" font-family="Helvetica,sans-Serif" font-size="10.00">mom_dynamics_split</text>
<text text-anchor="middle" x="228" y="-105.5" font-family="Helvetica,sans-Serif" font-size="10.00">_rk2::step_mom_dyn_split_rk2</text>
</a>
</g>
</g>
<!-- Node57&#45;&gt;Node59 -->
<g id="edge2" class="edge"><title>Node57&#45;&gt;Node59</title>
<path fill="none" stroke="midnightblue" d="M135.26,-99.4725C145.299,-101.008 155.542,-102.574 165.372,-104.077"/>
<polygon fill="midnightblue" stroke="midnightblue" points="135.727,-96.0032 125.312,-97.9514 134.668,-102.923 135.727,-96.0032"/>
</g>
<!-- Node60 -->
<g id="node4" class="node"><title>Node60</title>
<g id="a_node4"><a xlink:href="../../d7/d44/namespacemom__dynamics__unsplit.html#a53a72861e61f049479fdec46ea11227b" target="_top" xlink:title="mom_dynamics_unsplit\l::step_mom_dyn_unsplit">
<polygon fill="white" stroke="black" points="176.5,-49.5 176.5,-79.5 279.5,-79.5 279.5,-49.5 176.5,-49.5"/>
<text text-anchor="start" x="184.5" y="-67.5" font-family="Helvetica,sans-Serif" font-size="10.00">mom_dynamics_unsplit</text>
<text text-anchor="middle" x="228" y="-56.5" font-family="Helvetica,sans-Serif" font-size="10.00">::step_mom_dyn_unsplit</text>
</a>
</g>
</g>
<!-- Node57&#45;&gt;Node60 -->
<g id="edge3" class="edge"><title>Node57&#45;&gt;Node60</title>
<path fill="none" stroke="midnightblue" d="M135.282,-77.9632C149.099,-75.935 163.302,-73.8502 176.279,-71.9453"/>
<polygon fill="midnightblue" stroke="midnightblue" points="134.698,-74.5113 125.312,-79.4266 135.715,-81.4371 134.698,-74.5113"/>
</g>
<!-- Node61 -->
<g id="node5" class="node"><title>Node61</title>
<g id="a_node5"><a xlink:href="../../d7/da4/namespacemom__dynamics__unsplit__rk2.html#ae10d75d92c1ec7783df7e5d8965b86a0" target="_top" xlink:title="mom_dynamics_unsplit\l_rk2::step_mom_dyn_unsplit_rk2">
<polygon fill="white" stroke="black" points="161,-0.5 161,-30.5 295,-30.5 295,-0.5 161,-0.5"/>
<text text-anchor="start" x="169" y="-18.5" font-family="Helvetica,sans-Serif" font-size="10.00">mom_dynamics_unsplit</text>
<text text-anchor="middle" x="228" y="-7.5" font-family="Helvetica,sans-Serif" font-size="10.00">_rk2::step_mom_dyn_unsplit_rk2</text>
</a>
</g>
</g>
<!-- Node57&#45;&gt;Node61 -->
<g id="edge4" class="edge"><title>Node57&#45;&gt;Node61</title>
<path fill="none" stroke="midnightblue" d="M90.724,-74.228C110.099,-64.2858 136.869,-50.9816 161,-40.5 168.867,-37.0829 177.366,-33.6653 185.564,-30.503"/>
<polygon fill="midnightblue" stroke="midnightblue" points="88.8632,-71.2498 81.5854,-78.9494 92.0762,-77.4688 88.8632,-71.2498"/>
</g>
</g>
</svg>
