<?xml version="1.0" encoding="UTF-8" standalone="no"?>
<!DOCTYPE svg PUBLIC "-//W3C//DTD SVG 1.1//EN"
 "http://www.w3.org/Graphics/SVG/1.1/DTD/svg11.dtd">
<!-- Generated by graphviz version 2.38.0 (20140413.2041)
 -->
<!-- Title: mom_set_visc::set_visc_init Pages: 1 -->
<svg width="398pt" height="137pt"
 viewBox="0.00 0.00 398.00 137.00" xmlns="http://www.w3.org/2000/svg" xmlns:xlink="http://www.w3.org/1999/xlink">
<g id="graph0" class="graph" transform="scale(1 1) rotate(0) translate(4 133)">
<title>mom_set_visc::set_visc_init</title>
<polygon fill="white" stroke="none" points="-4,4 -4,-133 394,-133 394,4 -4,4"/>
<!-- Node18 -->
<g id="node1" class="node"><title>Node18</title>
<polygon fill="#bfbfbf" stroke="black" points="0,-55 0,-74 113,-74 113,-55 0,-55"/>
<text text-anchor="middle" x="56.5" y="-62" font-family="Helvetica,sans-Serif" font-size="10.00">mom_set_visc::set_visc_init</text>
</g>
<!-- Node19 -->
<g id="node2" class="node"><title>Node19</title>
<g id="a_node2"><a xlink:href="../../d8/d95/namespacemom__kappa__shear.html#ac7859c609e462000ca8fd763d68d141e" target="_top" xlink:title="mom_kappa_shear::kappa\l_shear_is_used">
<polygon fill="white" stroke="black" points="149,-98.5 149,-128.5 261,-128.5 261,-98.5 149,-98.5"/>
<text text-anchor="start" x="157" y="-116.5" font-family="Helvetica,sans-Serif" font-size="10.00">mom_kappa_shear::kappa</text>
<text text-anchor="middle" x="205" y="-105.5" font-family="Helvetica,sans-Serif" font-size="10.00">_shear_is_used</text>
</a>
</g>
</g>
<!-- Node18&#45;&gt;Node19 -->
<g id="edge1" class="edge"><title>Node18&#45;&gt;Node19</title>
<path fill="none" stroke="midnightblue" d="M86.0945,-74.064C104.075,-80.0779 127.86,-88.0335 149.356,-95.2232"/>
<polygon fill="midnightblue" stroke="midnightblue" points="148.449,-98.6102 159.043,-98.463 150.669,-91.9717 148.449,-98.6102"/>
</g>
<!-- Node20 -->
<g id="node3" class="node"><title>Node20</title>
<g id="a_node3"><a xlink:href="../../d9/def/namespacemom__file__parser.html#a17c0ef1bb1912f02faa0aaa1e0f64210" target="_top" xlink:title="mom_file_parser::log\l_version">
<polygon fill="white" stroke="black" points="159,-49.5 159,-79.5 251,-79.5 251,-49.5 159,-49.5"/>
<text text-anchor="start" x="167" y="-67.5" font-family="Helvetica,sans-Serif" font-size="10.00">mom_file_parser::log</text>
<text text-anchor="middle" x="205" y="-56.5" font-family="Helvetica,sans-Serif" font-size="10.00">_version</text>
</a>
</g>
</g>
<!-- Node18&#45;&gt;Node20 -->
<g id="edge2" class="edge"><title>Node18&#45;&gt;Node20</title>
<path fill="none" stroke="midnightblue" d="M113.303,-64.5C124.936,-64.5 137.192,-64.5 148.802,-64.5"/>
<polygon fill="midnightblue" stroke="midnightblue" points="148.808,-68.0001 158.808,-64.5 148.808,-61.0001 148.808,-68.0001"/>
</g>
<!-- Node22 -->
<g id="node5" class="node"><title>Node22</title>
<g id="a_node5"><a xlink:href="../../d0/de6/namespacemom__error__handler.html#a460cfb79a06c29fc249952c2a3710d67" target="_top" xlink:title="mom_error_handler::\lmom_error">
<polygon fill="white" stroke="black" points="158.5,-0.5 158.5,-30.5 251.5,-30.5 251.5,-0.5 158.5,-0.5"/>
<text text-anchor="start" x="166.5" y="-18.5" font-family="Helvetica,sans-Serif" font-size="10.00">mom_error_handler::</text>
<text text-anchor="middle" x="205" y="-7.5" font-family="Helvetica,sans-Serif" font-size="10.00">mom_error</text>
</a>
</g>
</g>
<!-- Node18&#45;&gt;Node22 -->
<g id="edge4" class="edge"><title>Node18&#45;&gt;Node22</title>
<path fill="none" stroke="midnightblue" d="M86.0945,-54.936C104.075,-48.9221 127.86,-40.9665 149.356,-33.7768"/>
<polygon fill="midnightblue" stroke="midnightblue" points="150.669,-37.0283 159.043,-30.537 148.449,-30.3898 150.669,-37.0283"/>
</g>
<!-- Node21 -->
<g id="node4" class="node"><title>Node21</title>
<g id="a_node4"><a xlink:href="../../d0/de6/namespacemom__error__handler.html#ad5f00a53059c72fe2332d1436c80ca71" target="_top" xlink:title="mom_error_handler::\lis_root_pe">
<polygon fill="white" stroke="black" points="297,-24.5 297,-54.5 390,-54.5 390,-24.5 297,-24.5"/>
<text text-anchor="start" x="305" y="-42.5" font-family="Helvetica,sans-Serif" font-size="10.00">mom_error_handler::</text>
<text text-anchor="middle" x="343.5" y="-31.5" font-family="Helvetica,sans-Serif" font-size="10.00">is_root_pe</text>
</a>
</g>
</g>
<!-- Node20&#45;&gt;Node21 -->
<g id="edge3" class="edge"><title>Node20&#45;&gt;Node21</title>
<path fill="none" stroke="midnightblue" d="M251.074,-56.2448C262.365,-54.1767 274.617,-51.9328 286.373,-49.7796"/>
<polygon fill="midnightblue" stroke="midnightblue" points="287.334,-53.1619 296.54,-47.9176 286.073,-46.2765 287.334,-53.1619"/>
</g>
<!-- Node22&#45;&gt;Node21 -->
<g id="edge5" class="edge"><title>Node22&#45;&gt;Node21</title>
<path fill="none" stroke="midnightblue" d="M251.832,-23.5584C262.974,-25.5174 275.013,-27.6341 286.565,-29.6652"/>
<polygon fill="midnightblue" stroke="midnightblue" points="286.101,-33.1374 296.556,-31.422 287.314,-26.2431 286.101,-33.1374"/>
</g>
</g>
</svg>
