<?xml version="1.0" encoding="UTF-8" standalone="no"?>
<!DOCTYPE svg PUBLIC "-//W3C//DTD SVG 1.1//EN"
 "http://www.w3.org/Graphics/SVG/1.1/DTD/svg11.dtd">
<!-- Generated by graphviz version 2.38.0 (20140413.2041)
 -->
<!-- Title: mom_diag_to_z::register_z_diag Pages: 1 -->
<svg width="249pt" height="39pt"
 viewBox="0.00 0.00 249.00 39.00" xmlns="http://www.w3.org/2000/svg" xmlns:xlink="http://www.w3.org/1999/xlink">
<g id="graph0" class="graph" transform="scale(1 1) rotate(0) translate(4 35)">
<title>mom_diag_to_z::register_z_diag</title>
<polygon fill="white" stroke="none" points="-4,4 -4,-35 245,-35 245,4 -4,4"/>
<!-- Node77 -->
<g id="node1" class="node"><title>Node77</title>
<polygon fill="#bfbfbf" stroke="black" points="0,-0.5 0,-30.5 105,-30.5 105,-0.5 0,-0.5"/>
<text text-anchor="start" x="8" y="-18.5" font-family="Helvetica,sans-Serif" font-size="10.00">mom_diag_to_z::register</text>
<text text-anchor="middle" x="52.5" y="-7.5" font-family="Helvetica,sans-Serif" font-size="10.00">_z_diag</text>
</g>
<!-- Node78 -->
<g id="node2" class="node"><title>Node78</title>
<g id="a_node2"><a xlink:href="../../d0/dbf/namespacemom__diag__to__z.html#a90526b2f59f94c6af2f525a221029772" target="_top" xlink:title="mom_diag_to_z::ocean\l_register_diag_with_z">
<polygon fill="white" stroke="black" points="141,-0.5 141,-30.5 241,-30.5 241,-0.5 141,-0.5"/>
<text text-anchor="start" x="149" y="-18.5" font-family="Helvetica,sans-Serif" font-size="10.00">mom_diag_to_z::ocean</text>
<text text-anchor="middle" x="191" y="-7.5" font-family="Helvetica,sans-Serif" font-size="10.00">_register_diag_with_z</text>
</a>
</g>
</g>
<!-- Node77&#45;&gt;Node78 -->
<g id="edge1" class="edge"><title>Node77&#45;&gt;Node78</title>
<path fill="none" stroke="midnightblue" d="M115.324,-15.5C123.785,-15.5 132.378,-15.5 140.579,-15.5"/>
<polygon fill="midnightblue" stroke="midnightblue" points="115.105,-12.0001 105.105,-15.5 115.105,-19.0001 115.105,-12.0001"/>
</g>
</g>
</svg>
