<?xml version="1.0" encoding="UTF-8" standalone="no"?>
<!DOCTYPE svg PUBLIC "-//W3C//DTD SVG 1.1//EN"
 "http://www.w3.org/Graphics/SVG/1.1/DTD/svg11.dtd">
<!-- Generated by graphviz version 2.38.0 (20140413.2041)
 -->
<!-- Title: mom_diag_to_z::calculate_z_diag_fields Pages: 1 -->
<svg width="381pt" height="186pt"
 viewBox="0.00 0.00 381.00 186.00" xmlns="http://www.w3.org/2000/svg" xmlns:xlink="http://www.w3.org/1999/xlink">
<g id="graph0" class="graph" transform="scale(1 1) rotate(0) translate(4 182)">
<title>mom_diag_to_z::calculate_z_diag_fields</title>
<polygon fill="white" stroke="none" points="-4,4 -4,-182 377,-182 377,4 -4,4"/>
<!-- Node6 -->
<g id="node1" class="node"><title>Node6</title>
<polygon fill="#bfbfbf" stroke="black" points="0,-73.5 0,-103.5 109,-103.5 109,-73.5 0,-73.5"/>
<text text-anchor="start" x="8" y="-91.5" font-family="Helvetica,sans-Serif" font-size="10.00">mom_diag_to_z::calculate</text>
<text text-anchor="middle" x="54.5" y="-80.5" font-family="Helvetica,sans-Serif" font-size="10.00">_z_diag_fields</text>
</g>
<!-- Node7 -->
<g id="node2" class="node"><title>Node7</title>
<g id="a_node2"><a xlink:href="../../d0/dbf/namespacemom__diag__to__z.html#a55f6203cfb483bb62c543f689ab30741" target="_top" xlink:title="mom_diag_to_z::find\l_limited_slope">
<polygon fill="white" stroke="black" points="149,-147.5 149,-177.5 240,-177.5 240,-147.5 149,-147.5"/>
<text text-anchor="start" x="157" y="-165.5" font-family="Helvetica,sans-Serif" font-size="10.00">mom_diag_to_z::find</text>
<text text-anchor="middle" x="194.5" y="-154.5" font-family="Helvetica,sans-Serif" font-size="10.00">_limited_slope</text>
</a>
</g>
</g>
<!-- Node6&#45;&gt;Node7 -->
<g id="edge1" class="edge"><title>Node6&#45;&gt;Node7</title>
<path fill="none" stroke="midnightblue" d="M81.5506,-103.506C99.3074,-113.622 123.422,-127.143 145,-138.5 147.738,-139.941 150.575,-141.409 153.439,-142.872"/>
<polygon fill="midnightblue" stroke="midnightblue" points="152.09,-146.112 162.594,-147.495 155.245,-139.863 152.09,-146.112"/>
</g>
<!-- Node8 -->
<g id="node3" class="node"><title>Node8</title>
<g id="a_node3"><a xlink:href="../../d0/dbf/namespacemom__diag__to__z.html#a7bb6af99ccb5eb1daf7473663ca19aea" target="_top" xlink:title="mom_diag_to_z::find\l_overlap">
<polygon fill="white" stroke="black" points="149,-98.5 149,-128.5 240,-128.5 240,-98.5 149,-98.5"/>
<text text-anchor="start" x="157" y="-116.5" font-family="Helvetica,sans-Serif" font-size="10.00">mom_diag_to_z::find</text>
<text text-anchor="middle" x="194.5" y="-105.5" font-family="Helvetica,sans-Serif" font-size="10.00">_overlap</text>
</a>
</g>
</g>
<!-- Node6&#45;&gt;Node8 -->
<g id="edge2" class="edge"><title>Node6&#45;&gt;Node8</title>
<path fill="none" stroke="midnightblue" d="M109.25,-98.2372C118.911,-99.9874 128.991,-101.814 138.682,-103.569"/>
<polygon fill="midnightblue" stroke="midnightblue" points="138.142,-107.028 148.606,-105.367 139.39,-100.14 138.142,-107.028"/>
</g>
<!-- Node9 -->
<g id="node4" class="node"><title>Node9</title>
<g id="a_node4"><a xlink:href="../../d0/dbf/namespacemom__diag__to__z.html#ac98bd25f8f745b287cff5452f8b12694" target="_top" xlink:title="mom_diag_to_z::global\l_z_mean">
<polygon fill="white" stroke="black" points="145,-49.5 145,-79.5 244,-79.5 244,-49.5 145,-49.5"/>
<text text-anchor="start" x="153" y="-67.5" font-family="Helvetica,sans-Serif" font-size="10.00">mom_diag_to_z::global</text>
<text text-anchor="middle" x="194.5" y="-56.5" font-family="Helvetica,sans-Serif" font-size="10.00">_z_mean</text>
</a>
</g>
</g>
<!-- Node6&#45;&gt;Node9 -->
<g id="edge3" class="edge"><title>Node6&#45;&gt;Node9</title>
<path fill="none" stroke="midnightblue" d="M109.25,-79.1523C117.535,-77.7112 126.13,-76.2165 134.522,-74.757"/>
<polygon fill="midnightblue" stroke="midnightblue" points="135.372,-78.1618 144.625,-73 134.173,-71.2653 135.372,-78.1618"/>
</g>
<!-- Node10 -->
<g id="node5" class="node"><title>Node10</title>
<g id="a_node5"><a xlink:href="../../d0/de6/namespacemom__error__handler.html#a460cfb79a06c29fc249952c2a3710d67" target="_top" xlink:title="mom_error_handler::\lmom_error">
<polygon fill="white" stroke="black" points="148,-0.5 148,-30.5 241,-30.5 241,-0.5 148,-0.5"/>
<text text-anchor="start" x="156" y="-18.5" font-family="Helvetica,sans-Serif" font-size="10.00">mom_error_handler::</text>
<text text-anchor="middle" x="194.5" y="-7.5" font-family="Helvetica,sans-Serif" font-size="10.00">mom_error</text>
</a>
</g>
</g>
<!-- Node6&#45;&gt;Node10 -->
<g id="edge4" class="edge"><title>Node6&#45;&gt;Node10</title>
<path fill="none" stroke="midnightblue" d="M83.2549,-73.4642C100.898,-63.9437 124.244,-51.4142 145,-40.5 148.252,-38.7902 151.631,-37.0247 155.025,-35.2596"/>
<polygon fill="midnightblue" stroke="midnightblue" points="156.697,-38.3354 163.965,-30.6268 153.476,-32.1203 156.697,-38.3354"/>
</g>
<!-- Node11 -->
<g id="node6" class="node"><title>Node11</title>
<g id="a_node6"><a xlink:href="../../d0/de6/namespacemom__error__handler.html#ad5f00a53059c72fe2332d1436c80ca71" target="_top" xlink:title="mom_error_handler::\lis_root_pe">
<polygon fill="white" stroke="black" points="280,-0.5 280,-30.5 373,-30.5 373,-0.5 280,-0.5"/>
<text text-anchor="start" x="288" y="-18.5" font-family="Helvetica,sans-Serif" font-size="10.00">mom_error_handler::</text>
<text text-anchor="middle" x="326.5" y="-7.5" font-family="Helvetica,sans-Serif" font-size="10.00">is_root_pe</text>
</a>
</g>
</g>
<!-- Node10&#45;&gt;Node11 -->
<g id="edge5" class="edge"><title>Node10&#45;&gt;Node11</title>
<path fill="none" stroke="midnightblue" d="M241.333,-15.5C250.459,-15.5 260.139,-15.5 269.56,-15.5"/>
<polygon fill="midnightblue" stroke="midnightblue" points="269.643,-19.0001 279.643,-15.5 269.643,-12.0001 269.643,-19.0001"/>
</g>
</g>
</svg>
