<?xml version="1.0" encoding="UTF-8" standalone="no"?>
<!DOCTYPE svg PUBLIC "-//W3C//DTD SVG 1.1//EN"
 "http://www.w3.org/Graphics/SVG/1.1/DTD/svg11.dtd">
<!-- Generated by graphviz version 2.38.0 (20140413.2041)
 -->
<!-- Title: cvmix_math::cvmix_math_evaluate_cubic Pages: 1 -->
<svg width="431pt" height="61pt"
 viewBox="0.00 0.00 431.00 61.00" xmlns="http://www.w3.org/2000/svg" xmlns:xlink="http://www.w3.org/1999/xlink">
<g id="graph0" class="graph" transform="scale(1 1) rotate(0) translate(4 57)">
<title>cvmix_math::cvmix_math_evaluate_cubic</title>
<polygon fill="white" stroke="none" points="-4,4 -4,-57 427,-57 427,4 -4,4"/>
<!-- Node4 -->
<g id="node1" class="node"><title>Node4</title>
<polygon fill="#bfbfbf" stroke="black" points="0,-22.5 0,-52.5 105,-52.5 105,-22.5 0,-22.5"/>
<text text-anchor="start" x="8" y="-40.5" font-family="Helvetica,sans-Serif" font-size="10.00">cvmix_math::cvmix_math</text>
<text text-anchor="middle" x="52.5" y="-29.5" font-family="Helvetica,sans-Serif" font-size="10.00">_evaluate_cubic</text>
</g>
<!-- Node5 -->
<g id="node2" class="node"><title>Node5</title>
<g id="a_node2"><a xlink:href="../../d1/d6c/namespacecvmix__kpp.html#a3167f47153d1ec5cd44adb45ffdfd616" target="_top" xlink:title="cvmix_kpp::cvmix_coeffs\l_kpp_low">
<polygon fill="white" stroke="black" points="320,-22.5 320,-52.5 423,-52.5 423,-22.5 320,-22.5"/>
<text text-anchor="start" x="328" y="-40.5" font-family="Helvetica,sans-Serif" font-size="10.00">cvmix_kpp::cvmix_coeffs</text>
<text text-anchor="middle" x="371.5" y="-29.5" font-family="Helvetica,sans-Serif" font-size="10.00">_kpp_low</text>
</a>
</g>
</g>
<!-- Node4&#45;&gt;Node5 -->
<g id="edge1" class="edge"><title>Node4&#45;&gt;Node5</title>
<path fill="none" stroke="midnightblue" d="M115.338,-39.8844C123.955,-40.1396 132.698,-40.3577 141,-40.5 204.546,-41.589 220.454,-41.6016 284,-40.5 295.569,-40.2994 308.004,-39.9481 319.737,-39.5549"/>
<polygon fill="midnightblue" stroke="midnightblue" points="115.418,-36.3853 105.313,-39.5702 115.198,-43.3819 115.418,-36.3853"/>
</g>
<!-- Node6 -->
<g id="node3" class="node"><title>Node6</title>
<g id="a_node3"><a xlink:href="../../d1/d6c/namespacecvmix__kpp.html#accdfd2fb415aefc1741ae708959677fb" target="_top" xlink:title="cvmix_kpp::cvmix_kpp\l_compute_nu_at_obl_depth_lmd94">
<polygon fill="white" stroke="black" points="141,-0.5 141,-30.5 284,-30.5 284,-0.5 141,-0.5"/>
<text text-anchor="start" x="149" y="-18.5" font-family="Helvetica,sans-Serif" font-size="10.00">cvmix_kpp::cvmix_kpp</text>
<text text-anchor="middle" x="212.5" y="-7.5" font-family="Helvetica,sans-Serif" font-size="10.00">_compute_nu_at_obl_depth_lmd94</text>
</a>
</g>
</g>
<!-- Node4&#45;&gt;Node6 -->
<g id="edge2" class="edge"><title>Node4&#45;&gt;Node6</title>
<path fill="none" stroke="midnightblue" d="M115.337,-28.8898C123.752,-27.718 132.441,-26.5083 140.995,-25.3172"/>
<polygon fill="midnightblue" stroke="midnightblue" points="114.657,-25.4506 105.235,-30.2964 115.622,-32.3837 114.657,-25.4506"/>
</g>
<!-- Node6&#45;&gt;Node5 -->
<g id="edge3" class="edge"><title>Node6&#45;&gt;Node5</title>
<path fill="none" stroke="midnightblue" d="M294.106,-26.795C302.893,-28.0265 311.646,-29.253 319.923,-30.4127"/>
<polygon fill="midnightblue" stroke="midnightblue" points="294.581,-23.3276 284.192,-25.4059 293.61,-30.2598 294.581,-23.3276"/>
</g>
</g>
</svg>
