<?xml version="1.0" encoding="UTF-8" standalone="no"?>
<!DOCTYPE svg PUBLIC "-//W3C//DTD SVG 1.1//EN"
 "http://www.w3.org/Graphics/SVG/1.1/DTD/svg11.dtd">
<!-- Generated by graphviz version 2.38.0 (20140413.2041)
 -->
<!-- Title: mom_diag_to_z::register_zint_diag Pages: 1 -->
<svg width="655pt" height="53pt"
 viewBox="0.00 0.00 655.00 52.50" xmlns="http://www.w3.org/2000/svg" xmlns:xlink="http://www.w3.org/1999/xlink">
<g id="graph0" class="graph" transform="scale(1 1) rotate(0) translate(4 48.5)">
<title>mom_diag_to_z::register_zint_diag</title>
<polygon fill="white" stroke="none" points="-4,4 -4,-48.5 651,-48.5 651,4 -4,4"/>
<!-- Node103 -->
<g id="node1" class="node"><title>Node103</title>
<polygon fill="#bfbfbf" stroke="black" points="0,-14 0,-44 105,-44 105,-14 0,-14"/>
<text text-anchor="start" x="8" y="-32" font-family="Helvetica,sans-Serif" font-size="10.00">mom_diag_to_z::register</text>
<text text-anchor="middle" x="52.5" y="-21" font-family="Helvetica,sans-Serif" font-size="10.00">_zint_diag</text>
</g>
<!-- Node104 -->
<g id="node2" class="node"><title>Node104</title>
<g id="a_node2"><a xlink:href="../../d0/de6/namespacemom__error__handler.html#a460cfb79a06c29fc249952c2a3710d67" target="_top" xlink:title="mom_error_handler::\lmom_error">
<polygon fill="white" stroke="black" points="425,-14 425,-44 518,-44 518,-14 425,-14"/>
<text text-anchor="start" x="433" y="-32" font-family="Helvetica,sans-Serif" font-size="10.00">mom_error_handler::</text>
<text text-anchor="middle" x="471.5" y="-21" font-family="Helvetica,sans-Serif" font-size="10.00">mom_error</text>
</a>
</g>
</g>
<!-- Node103&#45;&gt;Node104 -->
<g id="edge1" class="edge"><title>Node103&#45;&gt;Node104</title>
<path fill="none" stroke="midnightblue" d="M105.051,-29C183.832,-29 333.573,-29 414.779,-29"/>
<polygon fill="midnightblue" stroke="midnightblue" points="414.811,-32.5001 424.811,-29 414.811,-25.5001 414.811,-32.5001"/>
</g>
<!-- Node106 -->
<g id="node4" class="node"><title>Node106</title>
<g id="a_node4"><a xlink:href="../../d5/d89/namespacemom__io.html#a23e82d1d89d9bb1c9bdf802ce80d4508" target="_top" xlink:title="This routine queries vardesc. ">
<polygon fill="white" stroke="black" points="141,-0.5 141,-19.5 243,-19.5 243,-0.5 141,-0.5"/>
<text text-anchor="middle" x="192" y="-7.5" font-family="Helvetica,sans-Serif" font-size="10.00">mom_io::query_vardesc</text>
</a>
</g>
</g>
<!-- Node103&#45;&gt;Node106 -->
<g id="edge3" class="edge"><title>Node103&#45;&gt;Node106</title>
<path fill="none" stroke="midnightblue" d="M105.091,-21.871C113.526,-20.7055 122.329,-19.4891 130.946,-18.2983"/>
<polygon fill="midnightblue" stroke="midnightblue" points="131.518,-21.7527 140.945,-16.9168 130.56,-14.8186 131.518,-21.7527"/>
</g>
<!-- Node105 -->
<g id="node3" class="node"><title>Node105</title>
<g id="a_node3"><a xlink:href="../../d0/de6/namespacemom__error__handler.html#ad5f00a53059c72fe2332d1436c80ca71" target="_top" xlink:title="mom_error_handler::\lis_root_pe">
<polygon fill="white" stroke="black" points="554,-14 554,-44 647,-44 647,-14 554,-14"/>
<text text-anchor="start" x="562" y="-32" font-family="Helvetica,sans-Serif" font-size="10.00">mom_error_handler::</text>
<text text-anchor="middle" x="600.5" y="-21" font-family="Helvetica,sans-Serif" font-size="10.00">is_root_pe</text>
</a>
</g>
</g>
<!-- Node104&#45;&gt;Node105 -->
<g id="edge2" class="edge"><title>Node104&#45;&gt;Node105</title>
<path fill="none" stroke="midnightblue" d="M518.35,-29C526.533,-29 535.141,-29 543.568,-29"/>
<polygon fill="midnightblue" stroke="midnightblue" points="543.717,-32.5001 553.717,-29 543.717,-25.5001 543.717,-32.5001"/>
</g>
<!-- Node107 -->
<g id="node5" class="node"><title>Node107</title>
<g id="a_node5"><a xlink:href="../../d5/d89/namespacemom__io.html#ac4bc408e8b38dbd669842753f26ebf88" target="_top" xlink:title="Copies a string. ">
<polygon fill="white" stroke="black" points="279,-0.5 279,-19.5 389,-19.5 389,-0.5 279,-0.5"/>
<text text-anchor="middle" x="334" y="-7.5" font-family="Helvetica,sans-Serif" font-size="10.00">mom_io::safe_string_copy</text>
</a>
</g>
</g>
<!-- Node106&#45;&gt;Node107 -->
<g id="edge4" class="edge"><title>Node106&#45;&gt;Node107</title>
<path fill="none" stroke="midnightblue" d="M243.148,-10C251.494,-10 260.251,-10 268.887,-10"/>
<polygon fill="midnightblue" stroke="midnightblue" points="268.938,-13.5001 278.938,-10 268.938,-6.5001 268.938,-13.5001"/>
</g>
<!-- Node107&#45;&gt;Node104 -->
<g id="edge5" class="edge"><title>Node107&#45;&gt;Node104</title>
<path fill="none" stroke="midnightblue" d="M389.332,-17.6185C397.707,-18.7929 406.367,-20.0072 414.772,-21.1858"/>
<polygon fill="midnightblue" stroke="midnightblue" points="414.473,-24.678 424.862,-22.6006 415.445,-17.7458 414.473,-24.678"/>
</g>
</g>
</svg>
