<?xml version="1.0" encoding="UTF-8" standalone="no"?>
<!DOCTYPE svg PUBLIC "-//W3C//DTD SVG 1.1//EN"
 "http://www.w3.org/Graphics/SVG/1.1/DTD/svg11.dtd">
<!-- Generated by graphviz version 2.38.0 (20140413.2041)
 -->
<!-- Title: mom_diag_to_z::find_overlap Pages: 1 -->
<svg width="519pt" height="148pt"
 viewBox="0.00 0.00 519.00 147.50" xmlns="http://www.w3.org/2000/svg" xmlns:xlink="http://www.w3.org/1999/xlink">
<g id="graph0" class="graph" transform="scale(1 1) rotate(0) translate(4 143.5)">
<title>mom_diag_to_z::find_overlap</title>
<polygon fill="white" stroke="none" points="-4,4 -4,-143.5 515,-143.5 515,4 -4,4"/>
<!-- Node26 -->
<g id="node1" class="node"><title>Node26</title>
<polygon fill="#bfbfbf" stroke="black" points="0,-73.5 0,-103.5 91,-103.5 91,-73.5 0,-73.5"/>
<text text-anchor="start" x="8" y="-91.5" font-family="Helvetica,sans-Serif" font-size="10.00">mom_diag_to_z::find</text>
<text text-anchor="middle" x="45.5" y="-80.5" font-family="Helvetica,sans-Serif" font-size="10.00">_overlap</text>
</g>
<!-- Node27 -->
<g id="node2" class="node"><title>Node27</title>
<g id="a_node2"><a xlink:href="../../d0/dbf/namespacemom__diag__to__z.html#a6a3c874bc02d653ad453a4e3d140b261" target="_top" xlink:title="mom_diag_to_z::calculate\l_z_diag_fields">
<polygon fill="white" stroke="black" points="127,-98.5 127,-128.5 236,-128.5 236,-98.5 127,-98.5"/>
<text text-anchor="start" x="135" y="-116.5" font-family="Helvetica,sans-Serif" font-size="10.00">mom_diag_to_z::calculate</text>
<text text-anchor="middle" x="181.5" y="-105.5" font-family="Helvetica,sans-Serif" font-size="10.00">_z_diag_fields</text>
</a>
</g>
</g>
<!-- Node26&#45;&gt;Node27 -->
<g id="edge1" class="edge"><title>Node26&#45;&gt;Node27</title>
<path fill="none" stroke="midnightblue" d="M100.954,-98.6593C109.47,-100.248 118.266,-101.889 126.766,-103.475"/>
<polygon fill="midnightblue" stroke="midnightblue" points="101.592,-95.2181 91.1201,-96.8246 100.309,-102.099 101.592,-95.2181"/>
</g>
<!-- Node28 -->
<g id="node3" class="node"><title>Node28</title>
<g id="a_node3"><a xlink:href="../../dd/df5/namespacemom__tracer__z__init.html#a153c8859a6918fc350976a4a7c279c79" target="_top" xlink:title="mom_tracer_z_init::\ltracer_z_init">
<polygon fill="white" stroke="black" points="138,-49.5 138,-79.5 225,-79.5 225,-49.5 138,-49.5"/>
<text text-anchor="start" x="146" y="-67.5" font-family="Helvetica,sans-Serif" font-size="10.00">mom_tracer_z_init::</text>
<text text-anchor="middle" x="181.5" y="-56.5" font-family="Helvetica,sans-Serif" font-size="10.00">tracer_z_init</text>
</a>
</g>
</g>
<!-- Node26&#45;&gt;Node28 -->
<g id="edge2" class="edge"><title>Node26&#45;&gt;Node28</title>
<path fill="none" stroke="midnightblue" d="M101.22,-78.6993C113.447,-76.5094 126.239,-74.2183 137.892,-72.1314"/>
<polygon fill="midnightblue" stroke="midnightblue" points="100.346,-75.3001 91.1201,-80.5083 101.581,-82.1905 100.346,-75.3001"/>
</g>
<!-- Node29 -->
<g id="node4" class="node"><title>Node29</title>
<g id="a_node4"><a xlink:href="../../d6/dcd/namespaceideal__age__example.html#abec4db7c44f7a6d5c891a6d8a17a99b3" target="_top" xlink:title="ideal_age_example::\linitialize_ideal_age\l_tracer">
<polygon fill="white" stroke="black" points="273.5,-98 273.5,-139 363.5,-139 363.5,-98 273.5,-98"/>
<text text-anchor="start" x="281.5" y="-127" font-family="Helvetica,sans-Serif" font-size="10.00">ideal_age_example::</text>
<text text-anchor="start" x="281.5" y="-116" font-family="Helvetica,sans-Serif" font-size="10.00">initialize_ideal_age</text>
<text text-anchor="middle" x="318.5" y="-105" font-family="Helvetica,sans-Serif" font-size="10.00">_tracer</text>
</a>
</g>
</g>
<!-- Node28&#45;&gt;Node29 -->
<g id="edge3" class="edge"><title>Node28&#45;&gt;Node29</title>
<path fill="none" stroke="midnightblue" d="M229.69,-83.3761C243.891,-89.0565 259.415,-95.2659 273.407,-100.863"/>
<polygon fill="midnightblue" stroke="midnightblue" points="230.69,-80.0063 220.105,-79.542 228.09,-86.5056 230.69,-80.0063"/>
</g>
<!-- Node30 -->
<g id="node5" class="node"><title>Node30</title>
<g id="a_node5"><a xlink:href="../../d6/dd2/namespacemom__ocmip2__cfc.html#a403331f12c4b16682f42f284bf57f330" target="_top" xlink:title="mom_ocmip2_cfc::init\l_tracer_cfc">
<polygon fill="white" stroke="black" points="272,-49.5 272,-79.5 365,-79.5 365,-49.5 272,-49.5"/>
<text text-anchor="start" x="280" y="-67.5" font-family="Helvetica,sans-Serif" font-size="10.00">mom_ocmip2_cfc::init</text>
<text text-anchor="middle" x="318.5" y="-56.5" font-family="Helvetica,sans-Serif" font-size="10.00">_tracer_cfc</text>
</a>
</g>
</g>
<!-- Node28&#45;&gt;Node30 -->
<g id="edge4" class="edge"><title>Node28&#45;&gt;Node30</title>
<path fill="none" stroke="midnightblue" d="M235.541,-64.5C247.524,-64.5 260.145,-64.5 271.795,-64.5"/>
<polygon fill="midnightblue" stroke="midnightblue" points="235.215,-61.0001 225.215,-64.5 235.215,-68.0001 235.215,-61.0001"/>
</g>
<!-- Node32 -->
<g id="node7" class="node"><title>Node32</title>
<g id="a_node7"><a xlink:href="../../de/d98/namespaceoil__tracer.html#a2bb5dd516d506706c1e67e1206e389b5" target="_top" xlink:title="oil_tracer::initialize\l_oil_tracer">
<polygon fill="white" stroke="black" points="278,-0.5 278,-30.5 359,-30.5 359,-0.5 278,-0.5"/>
<text text-anchor="start" x="286" y="-18.5" font-family="Helvetica,sans-Serif" font-size="10.00">oil_tracer::initialize</text>
<text text-anchor="middle" x="318.5" y="-7.5" font-family="Helvetica,sans-Serif" font-size="10.00">_oil_tracer</text>
</a>
</g>
</g>
<!-- Node28&#45;&gt;Node32 -->
<g id="edge6" class="edge"><title>Node28&#45;&gt;Node32</title>
<path fill="none" stroke="midnightblue" d="M233.514,-45.9838C248.118,-40.6829 263.82,-34.984 277.649,-29.9645"/>
<polygon fill="midnightblue" stroke="midnightblue" points="232.312,-42.6967 224.106,-49.3986 234.7,-49.2766 232.312,-42.6967"/>
</g>
<!-- Node31 -->
<g id="node6" class="node"><title>Node31</title>
<g id="a_node6"><a xlink:href="../../d6/dd2/namespacemom__ocmip2__cfc.html#a0c916b2f0835bd79002803f246d2ef49" target="_top" xlink:title="mom_ocmip2_cfc::initialize\l_ocmip2_cfc">
<polygon fill="white" stroke="black" points="401,-49.5 401,-79.5 511,-79.5 511,-49.5 401,-49.5"/>
<text text-anchor="start" x="409" y="-67.5" font-family="Helvetica,sans-Serif" font-size="10.00">mom_ocmip2_cfc::initialize</text>
<text text-anchor="middle" x="456" y="-56.5" font-family="Helvetica,sans-Serif" font-size="10.00">_ocmip2_cfc</text>
</a>
</g>
</g>
<!-- Node30&#45;&gt;Node31 -->
<g id="edge5" class="edge"><title>Node30&#45;&gt;Node31</title>
<path fill="none" stroke="midnightblue" d="M375.423,-64.5C383.791,-64.5 392.408,-64.5 400.741,-64.5"/>
<polygon fill="midnightblue" stroke="midnightblue" points="375.374,-61.0001 365.374,-64.5 375.374,-68.0001 375.374,-61.0001"/>
</g>
</g>
</svg>
