<?xml version="1.0" encoding="UTF-8" standalone="no"?>
<!DOCTYPE svg PUBLIC "-//W3C//DTD SVG 1.1//EN"
 "http://www.w3.org/Graphics/SVG/1.1/DTD/svg11.dtd">
<!-- Generated by graphviz version 2.38.0 (20140413.2041)
 -->
<!-- Title: mom_restart::save_restart Pages: 1 -->
<svg width="505pt" height="215pt"
 viewBox="0.00 0.00 505.00 214.50" xmlns="http://www.w3.org/2000/svg" xmlns:xlink="http://www.w3.org/1999/xlink">
<g id="graph0" class="graph" transform="scale(1 1) rotate(0) translate(4 210.5)">
<title>mom_restart::save_restart</title>
<polygon fill="white" stroke="none" points="-4,4 -4,-210.5 501,-210.5 501,4 -4,4"/>
<!-- Node146 -->
<g id="node1" class="node"><title>Node146</title>
<polygon fill="#bfbfbf" stroke="black" points="0,-93.5 0,-112.5 111,-112.5 111,-93.5 0,-93.5"/>
<text text-anchor="middle" x="55.5" y="-100.5" font-family="Helvetica,sans-Serif" font-size="10.00">mom_restart::save_restart</text>
</g>
<!-- Node147 -->
<g id="node2" class="node"><title>Node147</title>
<g id="a_node2"><a xlink:href="../../dc/ded/namespacemom__surface__forcing.html#a04a68cf8f709d78372dda5507a1223b7" target="_top" xlink:title="mom_surface_forcing\l::buoyancy_forcing_linear">
<polygon fill="white" stroke="black" points="149,-176 149,-206 256,-206 256,-176 149,-176"/>
<text text-anchor="start" x="157" y="-194" font-family="Helvetica,sans-Serif" font-size="10.00">mom_surface_forcing</text>
<text text-anchor="middle" x="202.5" y="-183" font-family="Helvetica,sans-Serif" font-size="10.00">::buoyancy_forcing_linear</text>
</a>
</g>
</g>
<!-- Node146&#45;&gt;Node147 -->
<g id="edge1" class="edge"><title>Node146&#45;&gt;Node147</title>
<path fill="none" stroke="midnightblue" d="M79.4403,-118.303C97.5774,-130.255 123.644,-147.109 147,-161 155.447,-166.024 164.776,-171.267 173.291,-175.939"/>
<polygon fill="midnightblue" stroke="midnightblue" points="81.0058,-115.142 70.735,-112.541 77.1424,-120.979 81.0058,-115.142"/>
</g>
<!-- Node149 -->
<g id="node4" class="node"><title>Node149</title>
<g id="a_node4"><a xlink:href="../../de/dbc/MOM__driver_8F90.html#a08fffeb2d8e8acbf9ed4609be6d258c6" target="_top" xlink:title="mom_main">
<polygon fill="white" stroke="black" points="441,-159.5 441,-178.5 497,-178.5 497,-159.5 441,-159.5"/>
<text text-anchor="middle" x="469" y="-166.5" font-family="Helvetica,sans-Serif" font-size="10.00">mom_main</text>
</a>
</g>
</g>
<!-- Node146&#45;&gt;Node149 -->
<g id="edge4" class="edge"><title>Node146&#45;&gt;Node149</title>
<path fill="none" stroke="midnightblue" d="M98.1866,-115.261C113.443,-119.428 130.909,-123.827 147,-127 254.804,-148.255 385.16,-161.54 440.752,-166.633"/>
<polygon fill="midnightblue" stroke="midnightblue" points="99.0884,-111.879 88.5163,-112.571 97.2128,-118.623 99.0884,-111.879"/>
</g>
<!-- Node150 -->
<g id="node5" class="node"><title>Node150</title>
<g id="a_node5"><a xlink:href="../../d5/dd4/namespaceocean__model__mod.html#a908a47d286b0257e91a253272926dc3d" target="_top" xlink:title="ocean_model_mod::ocean\l_model_restart">
<polygon fill="white" stroke="black" points="147,-88 147,-118 258,-118 258,-88 147,-88"/>
<text text-anchor="start" x="155" y="-106" font-family="Helvetica,sans-Serif" font-size="10.00">ocean_model_mod::ocean</text>
<text text-anchor="middle" x="202.5" y="-95" font-family="Helvetica,sans-Serif" font-size="10.00">_model_restart</text>
</a>
</g>
</g>
<!-- Node146&#45;&gt;Node150 -->
<g id="edge5" class="edge"><title>Node146&#45;&gt;Node150</title>
<path fill="none" stroke="midnightblue" d="M121.462,-103C129.859,-103 138.392,-103 146.604,-103"/>
<polygon fill="midnightblue" stroke="midnightblue" points="121.318,-99.5001 111.318,-103 121.318,-106.5 121.318,-99.5001"/>
</g>
<!-- Node151 -->
<g id="node6" class="node"><title>Node151</title>
<g id="a_node6"><a xlink:href="../../d5/dd4/namespaceocean__model__mod.html#ad969c968b1133584b9dcf48d78f51c01" target="_top" xlink:title="ocean_model_mod::ocean\l_model_save_restart">
<polygon fill="white" stroke="black" points="147,-39 147,-69 258,-69 258,-39 147,-39"/>
<text text-anchor="start" x="155" y="-57" font-family="Helvetica,sans-Serif" font-size="10.00">ocean_model_mod::ocean</text>
<text text-anchor="middle" x="202.5" y="-46" font-family="Helvetica,sans-Serif" font-size="10.00">_model_save_restart</text>
</a>
</g>
</g>
<!-- Node146&#45;&gt;Node151 -->
<g id="edge6" class="edge"><title>Node146&#45;&gt;Node151</title>
<path fill="none" stroke="midnightblue" d="M94.4052,-90.1907C113.582,-83.7103 136.976,-75.8045 157.003,-69.037"/>
<polygon fill="midnightblue" stroke="midnightblue" points="93.1548,-86.9187 84.8017,-93.436 95.3959,-93.5503 93.1548,-86.9187"/>
</g>
<!-- Node153 -->
<g id="node8" class="node"><title>Node153</title>
<g id="a_node8"><a xlink:href="../../d5/d6d/ice__shelf__driver_8F90.html#aec5bef92f0dad343f545cd8d62e378d8" target="_top" xlink:title="shelf_main">
<polygon fill="white" stroke="black" points="175,-0.5 175,-19.5 230,-19.5 230,-0.5 175,-0.5"/>
<text text-anchor="middle" x="202.5" y="-7.5" font-family="Helvetica,sans-Serif" font-size="10.00">shelf_main</text>
</a>
</g>
</g>
<!-- Node146&#45;&gt;Node153 -->
<g id="edge8" class="edge"><title>Node146&#45;&gt;Node153</title>
<path fill="none" stroke="midnightblue" d="M73.7913,-85.6964C91.0607,-69.2217 118.998,-44.6791 147,-29 155.656,-24.1534 165.767,-20.2139 174.914,-17.2047"/>
<polygon fill="midnightblue" stroke="midnightblue" points="70.9463,-83.5809 66.217,-93.0616 75.8264,-88.5994 70.9463,-83.5809"/>
</g>
<!-- Node148 -->
<g id="node3" class="node"><title>Node148</title>
<g id="a_node3"><a xlink:href="../../dc/ded/namespacemom__surface__forcing.html#ad4eeb543c0b616e42ddb7c0a37f03bf0" target="_top" xlink:title="mom_surface_forcing\l::set_forcing">
<polygon fill="white" stroke="black" points="302.5,-176 302.5,-206 396.5,-206 396.5,-176 302.5,-176"/>
<text text-anchor="start" x="310.5" y="-194" font-family="Helvetica,sans-Serif" font-size="10.00">mom_surface_forcing</text>
<text text-anchor="middle" x="349.5" y="-183" font-family="Helvetica,sans-Serif" font-size="10.00">::set_forcing</text>
</a>
</g>
</g>
<!-- Node147&#45;&gt;Node148 -->
<g id="edge2" class="edge"><title>Node147&#45;&gt;Node148</title>
<path fill="none" stroke="midnightblue" d="M266.289,-191C278.368,-191 290.814,-191 302.252,-191"/>
<polygon fill="midnightblue" stroke="midnightblue" points="266.259,-187.5 256.259,-191 266.258,-194.5 266.259,-187.5"/>
</g>
<!-- Node148&#45;&gt;Node149 -->
<g id="edge3" class="edge"><title>Node148&#45;&gt;Node149</title>
<path fill="none" stroke="midnightblue" d="M406.512,-180.513C418.402,-178.286 430.442,-176.032 440.678,-174.116"/>
<polygon fill="midnightblue" stroke="midnightblue" points="405.787,-177.088 396.602,-182.368 407.075,-183.968 405.787,-177.088"/>
</g>
<!-- Node152 -->
<g id="node7" class="node"><title>Node152</title>
<g id="a_node7"><a xlink:href="../../d5/dd4/namespaceocean__model__mod.html#a276959acb69502491d4b3a5a83e596b8" target="_top" xlink:title="ocean_model_mod::ocean\l_model_end">
<polygon fill="white" stroke="black" points="294,-39 294,-69 405,-69 405,-39 294,-39"/>
<text text-anchor="start" x="302" y="-57" font-family="Helvetica,sans-Serif" font-size="10.00">ocean_model_mod::ocean</text>
<text text-anchor="middle" x="349.5" y="-46" font-family="Helvetica,sans-Serif" font-size="10.00">_model_end</text>
</a>
</g>
</g>
<!-- Node151&#45;&gt;Node152 -->
<g id="edge7" class="edge"><title>Node151&#45;&gt;Node152</title>
<path fill="none" stroke="midnightblue" d="M268.462,-54C276.859,-54 285.392,-54 293.604,-54"/>
<polygon fill="midnightblue" stroke="midnightblue" points="268.318,-50.5001 258.318,-54 268.318,-57.5001 268.318,-50.5001"/>
</g>
</g>
</svg>
