<?xml version="1.0" encoding="UTF-8" standalone="no"?>
<!DOCTYPE svg PUBLIC "-//W3C//DTD SVG 1.1//EN"
 "http://www.w3.org/Graphics/SVG/1.1/DTD/svg11.dtd">
<!-- Generated by graphviz version 2.38.0 (20140413.2041)
 -->
<!-- Title: mom_restart::restore_state Pages: 1 -->
<svg width="454pt" height="137pt"
 viewBox="0.00 0.00 454.00 137.00" xmlns="http://www.w3.org/2000/svg" xmlns:xlink="http://www.w3.org/1999/xlink">
<g id="graph0" class="graph" transform="scale(1 1) rotate(0) translate(4 133)">
<title>mom_restart::restore_state</title>
<polygon fill="white" stroke="none" points="-4,4 -4,-133 450,-133 450,4 -4,4"/>
<!-- Node135 -->
<g id="node1" class="node"><title>Node135</title>
<polygon fill="#bfbfbf" stroke="black" points="0,-49.5 0,-79.5 92,-79.5 92,-49.5 0,-49.5"/>
<text text-anchor="start" x="8" y="-67.5" font-family="Helvetica,sans-Serif" font-size="10.00">mom_restart::restore</text>
<text text-anchor="middle" x="46" y="-56.5" font-family="Helvetica,sans-Serif" font-size="10.00">_state</text>
</g>
<!-- Node136 -->
<g id="node2" class="node"><title>Node136</title>
<g id="a_node2"><a xlink:href="../../df/da2/namespacemom__ice__shelf.html#ae315e8464ef8a20062e3bccb61886755" target="_top" xlink:title="mom_ice_shelf::initialize\l_ice_shelf">
<polygon fill="white" stroke="black" points="128,-98.5 128,-128.5 229,-128.5 229,-98.5 128,-98.5"/>
<text text-anchor="start" x="136" y="-116.5" font-family="Helvetica,sans-Serif" font-size="10.00">mom_ice_shelf::initialize</text>
<text text-anchor="middle" x="178.5" y="-105.5" font-family="Helvetica,sans-Serif" font-size="10.00">_ice_shelf</text>
</a>
</g>
</g>
<!-- Node135&#45;&gt;Node136 -->
<g id="edge1" class="edge"><title>Node135&#45;&gt;Node136</title>
<path fill="none" stroke="midnightblue" d="M96.754,-83.1816C110.12,-88.2001 124.406,-93.5643 137.189,-98.3641"/>
<polygon fill="midnightblue" stroke="midnightblue" points="97.8113,-79.84 87.2191,-79.6014 95.3506,-86.3933 97.8113,-79.84"/>
</g>
<!-- Node139 -->
<g id="node5" class="node"><title>Node139</title>
<g id="a_node5"><a xlink:href="../../d6/d62/namespacemom__state__initialization.html#af4e854627c6572332ba3fd895f169321" target="_top" xlink:title="mom_state_initialization\l::mom_initialize_state">
<polygon fill="white" stroke="black" points="128,-49.5 128,-79.5 229,-79.5 229,-49.5 128,-49.5"/>
<text text-anchor="start" x="136" y="-67.5" font-family="Helvetica,sans-Serif" font-size="10.00">mom_state_initialization</text>
<text text-anchor="middle" x="178.5" y="-56.5" font-family="Helvetica,sans-Serif" font-size="10.00">::mom_initialize_state</text>
</a>
</g>
</g>
<!-- Node135&#45;&gt;Node139 -->
<g id="edge4" class="edge"><title>Node135&#45;&gt;Node139</title>
<path fill="none" stroke="midnightblue" d="M102.425,-64.5C110.869,-64.5 119.537,-64.5 127.847,-64.5"/>
<polygon fill="midnightblue" stroke="midnightblue" points="102.276,-61.0001 92.2763,-64.5 102.276,-68.0001 102.276,-61.0001"/>
</g>
<!-- Node141 -->
<g id="node7" class="node"><title>Node141</title>
<g id="a_node7"><a xlink:href="../../dc/ded/namespacemom__surface__forcing.html#ad01961191fdfc928f233901e285f4beb" target="_top" xlink:title="mom_surface_forcing\l::surface_forcing_init">
<polygon fill="white" stroke="black" points="131.5,-0.5 131.5,-30.5 225.5,-30.5 225.5,-0.5 131.5,-0.5"/>
<text text-anchor="start" x="139.5" y="-18.5" font-family="Helvetica,sans-Serif" font-size="10.00">mom_surface_forcing</text>
<text text-anchor="middle" x="178.5" y="-7.5" font-family="Helvetica,sans-Serif" font-size="10.00">::surface_forcing_init</text>
</a>
</g>
</g>
<!-- Node135&#45;&gt;Node141 -->
<g id="edge7" class="edge"><title>Node135&#45;&gt;Node141</title>
<path fill="none" stroke="midnightblue" d="M96.754,-45.8184C110.12,-40.7999 124.406,-35.4357 137.189,-30.6359"/>
<polygon fill="midnightblue" stroke="midnightblue" points="95.3506,-42.6067 87.2191,-49.3986 97.8113,-49.16 95.3506,-42.6067"/>
</g>
<!-- Node137 -->
<g id="node3" class="node"><title>Node137</title>
<g id="a_node3"><a xlink:href="../../de/dbc/MOM__driver_8F90.html#a08fffeb2d8e8acbf9ed4609be6d258c6" target="_top" xlink:title="mom_main">
<polygon fill="white" stroke="black" points="390,-93 390,-112 446,-112 446,-93 390,-93"/>
<text text-anchor="middle" x="418" y="-100" font-family="Helvetica,sans-Serif" font-size="10.00">mom_main</text>
</a>
</g>
</g>
<!-- Node136&#45;&gt;Node137 -->
<g id="edge2" class="edge"><title>Node136&#45;&gt;Node137</title>
<path fill="none" stroke="midnightblue" d="M239.211,-121.874C273.047,-125.213 316.071,-127.095 354,-121.5 366.545,-119.649 380.055,-115.832 391.335,-112.1"/>
<polygon fill="midnightblue" stroke="midnightblue" points="239.333,-118.368 229.02,-120.798 238.597,-125.329 239.333,-118.368"/>
</g>
<!-- Node138 -->
<g id="node4" class="node"><title>Node138</title>
<g id="a_node4"><a xlink:href="../../d5/d6d/ice__shelf__driver_8F90.html#aec5bef92f0dad343f545cd8d62e378d8" target="_top" xlink:title="shelf_main">
<polygon fill="white" stroke="black" points="282,-93 282,-112 337,-112 337,-93 282,-93"/>
<text text-anchor="middle" x="309.5" y="-100" font-family="Helvetica,sans-Serif" font-size="10.00">shelf_main</text>
</a>
</g>
</g>
<!-- Node136&#45;&gt;Node138 -->
<g id="edge3" class="edge"><title>Node136&#45;&gt;Node138</title>
<path fill="none" stroke="midnightblue" d="M239.21,-108.408C254.086,-107.14 269.303,-105.842 281.673,-104.788"/>
<polygon fill="midnightblue" stroke="midnightblue" points="238.672,-104.942 229.006,-109.279 239.267,-111.916 238.672,-104.942"/>
</g>
<!-- Node140 -->
<g id="node6" class="node"><title>Node140</title>
<g id="a_node6"><a xlink:href="../../da/d01/namespacemom.html#afebdc0103ad9cbe0ed4a54e522dc4104" target="_top" xlink:title="This subroutine initializes MOM. ">
<polygon fill="white" stroke="black" points="265,-55 265,-74 354,-74 354,-55 265,-55"/>
<text text-anchor="middle" x="309.5" y="-62" font-family="Helvetica,sans-Serif" font-size="10.00">mom::initialize_mom</text>
</a>
</g>
</g>
<!-- Node139&#45;&gt;Node140 -->
<g id="edge5" class="edge"><title>Node139&#45;&gt;Node140</title>
<path fill="none" stroke="midnightblue" d="M239.088,-64.5C247.755,-64.5 256.541,-64.5 264.815,-64.5"/>
<polygon fill="midnightblue" stroke="midnightblue" points="239.006,-61.0001 229.006,-64.5 239.006,-68.0001 239.006,-61.0001"/>
</g>
<!-- Node140&#45;&gt;Node137 -->
<g id="edge6" class="edge"><title>Node140&#45;&gt;Node137</title>
<path fill="none" stroke="midnightblue" d="M346.855,-77.4718C361.044,-82.5344 377.018,-88.2341 390.134,-92.9141"/>
<polygon fill="midnightblue" stroke="midnightblue" points="347.969,-74.1532 337.374,-74.089 345.617,-80.7461 347.969,-74.1532"/>
</g>
</g>
</svg>
