<?xml version="1.0" encoding="UTF-8" standalone="no"?>
<!DOCTYPE svg PUBLIC "-//W3C//DTD SVG 1.1//EN"
 "http://www.w3.org/Graphics/SVG/1.1/DTD/svg11.dtd">
<!-- Generated by graphviz version 2.38.0 (20140413.2041)
 -->
<!-- Title: mom_restart::restart_init Pages: 1 -->
<svg width="341pt" height="78pt"
 viewBox="0.00 0.00 341.00 77.50" xmlns="http://www.w3.org/2000/svg" xmlns:xlink="http://www.w3.org/1999/xlink">
<g id="graph0" class="graph" transform="scale(1 1) rotate(0) translate(4 73.5)">
<title>mom_restart::restart_init</title>
<polygon fill="white" stroke="none" points="-4,4 -4,-73.5 337,-73.5 337,4 -4,4"/>
<!-- Node121 -->
<g id="node1" class="node"><title>Node121</title>
<polygon fill="#bfbfbf" stroke="black" points="0,-28 0,-47 104,-47 104,-28 0,-28"/>
<text text-anchor="middle" x="52" y="-35" font-family="Helvetica,sans-Serif" font-size="10.00">mom_restart::restart_init</text>
</g>
<!-- Node122 -->
<g id="node2" class="node"><title>Node122</title>
<g id="a_node2"><a xlink:href="../../df/da2/namespacemom__ice__shelf.html#ae315e8464ef8a20062e3bccb61886755" target="_top" xlink:title="mom_ice_shelf::initialize\l_ice_shelf">
<polygon fill="white" stroke="black" points="140,-0.5 140,-30.5 241,-30.5 241,-0.5 140,-0.5"/>
<text text-anchor="start" x="148" y="-18.5" font-family="Helvetica,sans-Serif" font-size="10.00">mom_ice_shelf::initialize</text>
<text text-anchor="middle" x="190.5" y="-7.5" font-family="Helvetica,sans-Serif" font-size="10.00">_ice_shelf</text>
</a>
</g>
</g>
<!-- Node121&#45;&gt;Node122 -->
<g id="edge1" class="edge"><title>Node121&#45;&gt;Node122</title>
<path fill="none" stroke="midnightblue" d="M114.181,-27.6394C122.756,-26.2573 131.482,-24.8509 139.809,-23.5089"/>
<polygon fill="midnightblue" stroke="midnightblue" points="113.532,-24.1987 104.216,-29.2454 114.645,-31.1096 113.532,-24.1987"/>
</g>
<!-- Node125 -->
<g id="node5" class="node"><title>Node125</title>
<g id="a_node5"><a xlink:href="../../da/d01/namespacemom.html#afebdc0103ad9cbe0ed4a54e522dc4104" target="_top" xlink:title="This subroutine initializes MOM. ">
<polygon fill="white" stroke="black" points="146,-50 146,-69 235,-69 235,-50 146,-50"/>
<text text-anchor="middle" x="190.5" y="-57" font-family="Helvetica,sans-Serif" font-size="10.00">mom::initialize_mom</text>
</a>
</g>
</g>
<!-- Node121&#45;&gt;Node125 -->
<g id="edge4" class="edge"><title>Node121&#45;&gt;Node125</title>
<path fill="none" stroke="midnightblue" d="M114.246,-47.3711C124.815,-49.0745 135.61,-50.8144 145.603,-52.4251"/>
<polygon fill="midnightblue" stroke="midnightblue" points="114.645,-43.8904 104.216,-45.7546 113.532,-50.8013 114.645,-43.8904"/>
</g>
<!-- Node123 -->
<g id="node3" class="node"><title>Node123</title>
<g id="a_node3"><a xlink:href="../../de/dbc/MOM__driver_8F90.html#a08fffeb2d8e8acbf9ed4609be6d258c6" target="_top" xlink:title="mom_main">
<polygon fill="white" stroke="black" points="277,-47 277,-66 333,-66 333,-47 277,-47"/>
<text text-anchor="middle" x="305" y="-54" font-family="Helvetica,sans-Serif" font-size="10.00">mom_main</text>
</a>
</g>
</g>
<!-- Node122&#45;&gt;Node123 -->
<g id="edge2" class="edge"><title>Node122&#45;&gt;Node123</title>
<path fill="none" stroke="midnightblue" d="M242.438,-34.064C254.661,-38.5186 267.222,-43.0963 277.783,-46.9455"/>
<polygon fill="midnightblue" stroke="midnightblue" points="243.346,-30.6699 232.752,-30.5341 240.949,-37.2467 243.346,-30.6699"/>
</g>
<!-- Node124 -->
<g id="node4" class="node"><title>Node124</title>
<g id="a_node4"><a xlink:href="../../d5/d6d/ice__shelf__driver_8F90.html#aec5bef92f0dad343f545cd8d62e378d8" target="_top" xlink:title="shelf_main">
<polygon fill="white" stroke="black" points="277.5,-6 277.5,-25 332.5,-25 332.5,-6 277.5,-6"/>
<text text-anchor="middle" x="305" y="-13" font-family="Helvetica,sans-Serif" font-size="10.00">shelf_main</text>
</a>
</g>
</g>
<!-- Node122&#45;&gt;Node124 -->
<g id="edge3" class="edge"><title>Node122&#45;&gt;Node124</title>
<path fill="none" stroke="midnightblue" d="M251.455,-15.5C260.56,-15.5 269.534,-15.5 277.419,-15.5"/>
<polygon fill="midnightblue" stroke="midnightblue" points="251.172,-12.0001 241.172,-15.5 251.172,-19.0001 251.172,-12.0001"/>
</g>
<!-- Node125&#45;&gt;Node123 -->
<g id="edge5" class="edge"><title>Node125&#45;&gt;Node123</title>
<path fill="none" stroke="midnightblue" d="M245.585,-58.0577C256.382,-57.7698 267.286,-57.479 276.702,-57.228"/>
<polygon fill="midnightblue" stroke="midnightblue" points="245.221,-54.5661 235.318,-58.3315 245.407,-61.5636 245.221,-54.5661"/>
</g>
</g>
</svg>
