<?xml version="1.0" encoding="UTF-8" standalone="no"?>
<!DOCTYPE svg PUBLIC "-//W3C//DTD SVG 1.1//EN"
 "http://www.w3.org/Graphics/SVG/1.1/DTD/svg11.dtd">
<!-- Generated by graphviz version 2.38.0 (20140413.2041)
 -->
<!-- Title: mom_restart::query_initialized_3d_name Pages: 1 -->
<!--zoomable 138 -->
<svg id="main" version="1.1" xmlns="http://www.w3.org/2000/svg" xmlns:xlink="http://www.w3.org/1999/xlink" xml:space="preserve" onload="init(evt)">
<style type="text/css"><![CDATA[
.edge:hover path { stroke: red; }
.edge:hover polygon { stroke: red; fill: red; }
]]></style>
<script type="text/javascript"><![CDATA[
var edges = document.getElementsByTagName('g');
if (edges && edges.length) {
  for (var i=0;i<edges.length;i++) {
    if (edges[i].id.substr(0,4)=='edge') {
      edges[i].setAttribute('class','edge');
    }
  }
}
]]></script>
        <defs>
                <circle id="rim" cx="0" cy="0" r="7"/>
                <circle id="rim2" cx="0" cy="0" r="3.5"/>
                <g id="zoomPlus">
                        <use xlink:href="#rim" fill="#404040">
                                <set attributeName="fill" to="#808080" begin="zoomplus.mouseover" end="zoomplus.mouseout"/>
                        </use>
                        <path d="M-4,0h8M0,-4v8" fill="none" stroke="white" stroke-width="1.5" pointer-events="none"/>
                </g>
                <g id="zoomMin">
                        <use xlink:href="#rim" fill="#404040">
                                <set attributeName="fill" to="#808080" begin="zoomminus.mouseover" end="zoomminus.mouseout"/>
                        </use>
                        <path d="M-4,0h8" fill="none" stroke="white" stroke-width="1.5" pointer-events="none"/>
                </g>
                <g id="dirArrow">
                        <path fill="none" stroke="white" stroke-width="1.5" d="M0,-3.0v7 M-2.5,-0.5L0,-3.0L2.5,-0.5"/>
                </g>
               <g id="resetDef">
                       <use xlink:href="#rim2" fill="#404040">
                               <set attributeName="fill" to="#808080" begin="reset.mouseover" end="reset.mouseout"/>
                       </use>
               </g>
        </defs>

<script type="text/javascript">
var viewWidth = 606;
var viewHeight = 138;
var sectionId = 'dynsection-7';
</script>
<script xlink:href="../../svgpan.js"/>
<svg id="graph" class="graph">
<g id="viewport">
<title>mom_restart::query_initialized_3d_name</title>
<polygon fill="white" stroke="none" points="-4,4 -4,-134.364 602,-134.364 602,4 -4,4"/>
<!-- Node38 -->
<g id="node1" class="node"><title>Node38</title>
<polygon fill="#bfbfbf" stroke="black" points="0,-39.8638 0,-69.8638 91,-69.8638 91,-39.8638 0,-39.8638"/>
<text text-anchor="start" x="8" y="-57.8638" font-family="Helvetica,sans-Serif" font-size="10.00">mom_restart::query</text>
<text text-anchor="middle" x="45.5" y="-46.8638" font-family="Helvetica,sans-Serif" font-size="10.00">_initialized_3d_name</text>
</g>
<!-- Node39 -->
<g id="node2" class="node"><title>Node39</title>
<g id="a_node2"><a xlink:href="../../d0/de6/namespacemom__error__handler.html#ad5f00a53059c72fe2332d1436c80ca71" target="_top" xlink:title="mom_error_handler::\lis_root_pe">
<polygon fill="white" stroke="black" points="505,-99.8638 505,-129.864 598,-129.864 598,-99.8638 505,-99.8638"/>
<text text-anchor="start" x="513" y="-117.864" font-family="Helvetica,sans-Serif" font-size="10.00">mom_error_handler::</text>
<text text-anchor="middle" x="551.5" y="-106.864" font-family="Helvetica,sans-Serif" font-size="10.00">is_root_pe</text>
</a>
</g>
</g>
<!-- Node38&#45;&gt;Node39 -->
<g id="edge1" class="edge"><title>Node38&#45;&gt;Node39</title>
<path fill="none" stroke="midnightblue" d="M66.8209,-69.9707C82.4194,-80.6676 104.954,-94.2452 127,-100.864 254.028,-139 412.181,-130.365 494.616,-121.921"/>
<polygon fill="midnightblue" stroke="midnightblue" points="495.196,-125.38 504.77,-120.843 494.456,-118.419 495.196,-125.38"/>
</g>
<!-- Node40 -->
<g id="node3" class="node"><title>Node40</title>
<g id="a_node3"><a xlink:href="../../d0/de6/namespacemom__error__handler.html#a460cfb79a06c29fc249952c2a3710d67" target="_top" xlink:title="mom_error_handler::\lmom_error">
<polygon fill="white" stroke="black" points="376,-36.8638 376,-66.8638 469,-66.8638 469,-36.8638 376,-36.8638"/>
<text text-anchor="start" x="384" y="-54.8638" font-family="Helvetica,sans-Serif" font-size="10.00">mom_error_handler::</text>
<text text-anchor="middle" x="422.5" y="-43.8638" font-family="Helvetica,sans-Serif" font-size="10.00">mom_error</text>
</a>
</g>
</g>
<!-- Node38&#45;&gt;Node40 -->
<g id="edge2" class="edge"><title>Node38&#45;&gt;Node40</title>
<path fill="none" stroke="midnightblue" d="M82.6089,-39.7597C138.409,-18.5007 248.693,15.2096 340,-7.86382 358.332,-12.4964 377.02,-22.1572 391.867,-31.2492"/>
<polygon fill="midnightblue" stroke="midnightblue" points="390.262,-34.3758 400.579,-36.7868 394.017,-28.4684 390.262,-34.3758"/>
</g>
<!-- Node41 -->
<g id="node4" class="node"><title>Node41</title>
<g id="a_node4"><a xlink:href="../../d1/d85/namespacemom__restart.html#a7c9521908e6149d6434fc0611afc3054" target="_top" xlink:title="mom_restart::query\l_initialized_name">
<polygon fill="white" stroke="black" points="127,-61.8638 127,-91.8638 214,-91.8638 214,-61.8638 127,-61.8638"/>
<text text-anchor="start" x="135" y="-79.8638" font-family="Helvetica,sans-Serif" font-size="10.00">mom_restart::query</text>
<text text-anchor="middle" x="170.5" y="-68.8638" font-family="Helvetica,sans-Serif" font-size="10.00">_initialized_name</text>
</a>
</g>
</g>
<!-- Node38&#45;&gt;Node41 -->
<g id="edge4" class="edge"><title>Node38&#45;&gt;Node41</title>
<path fill="none" stroke="midnightblue" d="M91.2538,-62.8686C99.4578,-64.336 108.092,-65.8803 116.51,-67.3859"/>
<polygon fill="midnightblue" stroke="midnightblue" points="116.166,-70.8799 126.626,-69.1954 117.399,-63.9893 116.166,-70.8799"/>
</g>
<!-- Node42 -->
<g id="node5" class="node"><title>Node42</title>
<g id="a_node5"><a xlink:href="../../d1/d85/namespacemom__restart.html#a4b143fb18dab7c0825e426fbf9532623" target="_top" xlink:title="mom_restart::restart\l_error">
<polygon fill="white" stroke="black" points="250,-17.8638 250,-47.8638 340,-47.8638 340,-17.8638 250,-17.8638"/>
<text text-anchor="start" x="258" y="-35.8638" font-family="Helvetica,sans-Serif" font-size="10.00">mom_restart::restart</text>
<text text-anchor="middle" x="295" y="-24.8638" font-family="Helvetica,sans-Serif" font-size="10.00">_error</text>
</a>
</g>
</g>
<!-- Node38&#45;&gt;Node42 -->
<g id="edge9" class="edge"><title>Node38&#45;&gt;Node42</title>
<path fill="none" stroke="midnightblue" d="M91.0339,-50.9053C132.738,-47.1982 195.15,-41.6505 239.745,-37.6865"/>
<polygon fill="midnightblue" stroke="midnightblue" points="240.173,-41.1623 249.824,-36.7906 239.553,-34.1898 240.173,-41.1623"/>
</g>
<!-- Node40&#45;&gt;Node39 -->
<g id="edge3" class="edge"><title>Node40&#45;&gt;Node39</title>
<path fill="none" stroke="midnightblue" d="M453.92,-66.9539C470.995,-75.4243 492.498,-86.091 510.877,-95.2082"/>
<polygon fill="midnightblue" stroke="midnightblue" points="509.375,-98.37 519.888,-99.6785 512.485,-92.0992 509.375,-98.37"/>
</g>
<!-- Node41&#45;&gt;Node39 -->
<g id="edge8" class="edge"><title>Node41&#45;&gt;Node39</title>
<path fill="none" stroke="midnightblue" d="M214.239,-81.149C283.02,-88.0452 418.263,-101.605 494.609,-109.26"/>
<polygon fill="midnightblue" stroke="midnightblue" points="494.679,-112.784 504.978,-110.3 495.377,-105.819 494.679,-112.784"/>
</g>
<!-- Node41&#45;&gt;Node40 -->
<g id="edge5" class="edge"><title>Node41&#45;&gt;Node40</title>
<path fill="none" stroke="midnightblue" d="M214.192,-72.5946C255.941,-68.4197 319.74,-62.0399 365.532,-57.4607"/>
<polygon fill="midnightblue" stroke="midnightblue" points="365.993,-60.9321 375.595,-56.4543 365.296,-53.9668 365.993,-60.9321"/>
</g>
<!-- Node41&#45;&gt;Node42 -->
<g id="edge6" class="edge"><title>Node41&#45;&gt;Node42</title>
<path fill="none" stroke="midnightblue" d="M213.315,-61.8446C222.672,-58.4837 232.704,-54.8803 242.405,-51.396"/>
<polygon fill="midnightblue" stroke="midnightblue" points="243.729,-54.6392 251.958,-47.9648 241.363,-48.0513 243.729,-54.6392"/>
</g>
<!-- Node42&#45;&gt;Node40 -->
<g id="edge7" class="edge"><title>Node42&#45;&gt;Node40</title>
<path fill="none" stroke="midnightblue" d="M340.247,-39.5625C348.565,-40.8219 357.36,-42.1534 365.971,-43.4571"/>
<polygon fill="midnightblue" stroke="midnightblue" points="365.545,-46.9323 375.956,-44.9687 366.593,-40.0112 365.545,-46.9323"/>
</g>
</g>
</svg>
        <g id="navigator" transform="translate(0 0)" fill="#404254">
                <rect fill="#f2f5e9" fill-opacity="0.5" stroke="#606060" stroke-width=".5" x="0" y="0" width="60" height="60"/>
                <use id="zoomplus" xlink:href="#zoomPlus" x="17" y="9" onmousedown="handleZoom(evt,'in')"/>
                <use id="zoomminus" xlink:href="#zoomMin" x="42" y="9" onmousedown="handleZoom(evt,'out')"/>
                <use id="reset" xlink:href="#resetDef" x="30" y="36" onmousedown="handleReset()"/>
                <g id="arrowUp" xlink:href="#dirArrow" transform="translate(30 24)" onmousedown="handlePan(0,-1)">
                  <use xlink:href="#rim" fill="#404040">
                        <set attributeName="fill" to="#808080" begin="arrowUp.mouseover" end="arrowUp.mouseout"/>
                  </use>
                  <path fill="none" stroke="white" stroke-width="1.5" d="M0,-3.0v7 M-2.5,-0.5L0,-3.0L2.5,-0.5"/>
                </g>
                <g id="arrowRight" xlink:href="#dirArrow" transform="rotate(90) translate(36 -43)" onmousedown="handlePan(1,0)">
                  <use xlink:href="#rim" fill="#404040">
                        <set attributeName="fill" to="#808080" begin="arrowRight.mouseover" end="arrowRight.mouseout"/>
                  </use>
                  <path fill="none" stroke="white" stroke-width="1.5" d="M0,-3.0v7 M-2.5,-0.5L0,-3.0L2.5,-0.5"/>
                </g>
                <g id="arrowDown" xlink:href="#dirArrow" transform="rotate(180) translate(-30 -48)" onmousedown="handlePan(0,1)">
                  <use xlink:href="#rim" fill="#404040">
                        <set attributeName="fill" to="#808080" begin="arrowDown.mouseover" end="arrowDown.mouseout"/>
                  </use>
                  <path fill="none" stroke="white" stroke-width="1.5" d="M0,-3.0v7 M-2.5,-0.5L0,-3.0L2.5,-0.5"/>
                </g>
                <g id="arrowLeft" xlink:href="#dirArrow" transform="rotate(270) translate(-36 17)" onmousedown="handlePan(-1,0)">
                  <use xlink:href="#rim" fill="#404040">
                        <set attributeName="fill" to="#808080" begin="arrowLeft.mouseover" end="arrowLeft.mouseout"/>
                  </use>
                  <path fill="none" stroke="white" stroke-width="1.5" d="M0,-3.0v7 M-2.5,-0.5L0,-3.0L2.5,-0.5"/>
                </g>
        </g>
        <svg viewBox="0 0 15 15" width="100%" height="30px" preserveAspectRatio="xMaxYMin meet">
         <g id="arrow_out" transform="scale(0.3 0.3)">
          <a xlink:href="namespacemom__restart_a0ff886233ff24e93349a1f1c8e547da4_cgraph_org.svg" target="_base">
           <rect id="button" ry="5" rx="5" y="6" x="6" height="38" width="38"
                fill="#f2f5e9" fill-opacity="0.5" stroke="#606060" stroke-width="1.0"/>
           <path id="arrow"
             d="M 11.500037,31.436501 C 11.940474,20.09759 22.043105,11.32322 32.158766,21.979434 L 37.068811,17.246167 C 37.068811,17.246167 37.088388,32 37.088388,32 L 22.160133,31.978069 C 22.160133,31.978069 26.997745,27.140456 26.997745,27.140456 C 18.528582,18.264221 13.291696,25.230495 11.500037,31.436501 z"
             style="fill:#404040;"/>
          </a>
         </g>
        </svg>
</svg>
