<?xml version="1.0" encoding="UTF-8" standalone="no"?>
<!DOCTYPE svg PUBLIC "-//W3C//DTD SVG 1.1//EN"
 "http://www.w3.org/Graphics/SVG/1.1/DTD/svg11.dtd">
<!-- Generated by graphviz version 2.38.0 (20140413.2041)
 -->
<!-- Title: mom_restart::restart_error Pages: 1 -->
<svg width="631pt" height="774pt"
 viewBox="0.00 0.00 631.00 774.00" xmlns="http://www.w3.org/2000/svg" xmlns:xlink="http://www.w3.org/1999/xlink">
<g id="graph0" class="graph" transform="scale(1 1) rotate(0) translate(4 770)">
<title>mom_restart::restart_error</title>
<polygon fill="white" stroke="none" points="-4,4 -4,-770 627,-770 627,4 -4,4"/>
<!-- Node92 -->
<g id="node1" class="node"><title>Node92</title>
<polygon fill="#bfbfbf" stroke="black" points="0,-489.5 0,-519.5 90,-519.5 90,-489.5 0,-489.5"/>
<text text-anchor="start" x="8" y="-507.5" font-family="Helvetica,sans-Serif" font-size="10.00">mom_restart::restart</text>
<text text-anchor="middle" x="45" y="-496.5" font-family="Helvetica,sans-Serif" font-size="10.00">_error</text>
</g>
<!-- Node93 -->
<g id="node2" class="node"><title>Node93</title>
<g id="a_node2"><a xlink:href="../../d1/d85/namespacemom__restart.html#a9dfaebbadaef08ed425beeb702391d6c" target="_top" xlink:title="mom_restart::query\l_initialized_0d">
<polygon fill="white" stroke="black" points="138,-735.5 138,-765.5 225,-765.5 225,-735.5 138,-735.5"/>
<text text-anchor="start" x="146" y="-753.5" font-family="Helvetica,sans-Serif" font-size="10.00">mom_restart::query</text>
<text text-anchor="middle" x="181.5" y="-742.5" font-family="Helvetica,sans-Serif" font-size="10.00">_initialized_0d</text>
</a>
</g>
</g>
<!-- Node92&#45;&gt;Node93 -->
<g id="edge1" class="edge"><title>Node92&#45;&gt;Node93</title>
<path fill="none" stroke="midnightblue" d="M49.488,-529.704C56.6748,-573.251 76.7928,-663.384 126,-720.5 131.076,-726.391 137.607,-731.342 144.375,-735.415"/>
<polygon fill="midnightblue" stroke="midnightblue" points="52.9251,-529.029 47.9296,-519.685 46.0082,-530.105 52.9251,-529.029"/>
</g>
<!-- Node94 -->
<g id="node3" class="node"><title>Node94</title>
<g id="a_node3"><a xlink:href="../../d1/d85/namespacemom__restart.html#a7abca14dfc4fa1efcec27f8f8f7d6762" target="_top" xlink:title="mom_restart::query\l_initialized_0d_name">
<polygon fill="white" stroke="black" points="283,-691.5 283,-721.5 374,-721.5 374,-691.5 283,-691.5"/>
<text text-anchor="start" x="291" y="-709.5" font-family="Helvetica,sans-Serif" font-size="10.00">mom_restart::query</text>
<text text-anchor="middle" x="328.5" y="-698.5" font-family="Helvetica,sans-Serif" font-size="10.00">_initialized_0d_name</text>
</a>
</g>
</g>
<!-- Node92&#45;&gt;Node94 -->
<g id="edge2" class="edge"><title>Node92&#45;&gt;Node94</title>
<path fill="none" stroke="midnightblue" d="M50.2866,-529.945C58.1166,-567.94 78.525,-638.84 126,-674.5 171.314,-708.537 238.697,-712.528 282.861,-710.734"/>
<polygon fill="midnightblue" stroke="midnightblue" points="53.6461,-528.881 48.3216,-519.721 46.7719,-530.202 53.6461,-528.881"/>
</g>
<!-- Node95 -->
<g id="node4" class="node"><title>Node95</title>
<g id="a_node4"><a xlink:href="../../d1/d85/namespacemom__restart.html#ad01401819c16db2630321415488af4fd" target="_top" xlink:title="mom_restart::query\l_initialized_1d">
<polygon fill="white" stroke="black" points="138,-445.5 138,-475.5 225,-475.5 225,-445.5 138,-445.5"/>
<text text-anchor="start" x="146" y="-463.5" font-family="Helvetica,sans-Serif" font-size="10.00">mom_restart::query</text>
<text text-anchor="middle" x="181.5" y="-452.5" font-family="Helvetica,sans-Serif" font-size="10.00">_initialized_1d</text>
</a>
</g>
</g>
<!-- Node92&#45;&gt;Node95 -->
<g id="edge3" class="edge"><title>Node92&#45;&gt;Node95</title>
<path fill="none" stroke="midnightblue" d="M99.5727,-486.974C112.252,-482.826 125.609,-478.457 137.735,-474.49"/>
<polygon fill="midnightblue" stroke="midnightblue" points="98.4564,-483.657 90.0403,-490.093 100.633,-490.31 98.4564,-483.657"/>
</g>
<!-- Node96 -->
<g id="node5" class="node"><title>Node96</title>
<g id="a_node5"><a xlink:href="../../d1/d85/namespacemom__restart.html#a3c999a09696203fd104cf5ea7786ae39" target="_top" xlink:title="mom_restart::query\l_initialized_1d_name">
<polygon fill="white" stroke="black" points="283,-642.5 283,-672.5 374,-672.5 374,-642.5 283,-642.5"/>
<text text-anchor="start" x="291" y="-660.5" font-family="Helvetica,sans-Serif" font-size="10.00">mom_restart::query</text>
<text text-anchor="middle" x="328.5" y="-649.5" font-family="Helvetica,sans-Serif" font-size="10.00">_initialized_1d_name</text>
</a>
</g>
</g>
<!-- Node92&#45;&gt;Node96 -->
<g id="edge4" class="edge"><title>Node92&#45;&gt;Node96</title>
<path fill="none" stroke="midnightblue" d="M51.8049,-529.845C61.0668,-563.777 82.7344,-622.785 126,-649.5 173.216,-678.654 239.207,-674.774 282.625,-667.589"/>
<polygon fill="midnightblue" stroke="midnightblue" points="55.0984,-528.599 49.2221,-519.783 48.3182,-530.339 55.0984,-528.599"/>
</g>
<!-- Node97 -->
<g id="node6" class="node"><title>Node97</title>
<g id="a_node6"><a xlink:href="../../d1/d85/namespacemom__restart.html#aeee4854da077d24fb8618c88972ee2c1" target="_top" xlink:title="mom_restart::query\l_initialized_2d">
<polygon fill="white" stroke="black" points="138,-396.5 138,-426.5 225,-426.5 225,-396.5 138,-396.5"/>
<text text-anchor="start" x="146" y="-414.5" font-family="Helvetica,sans-Serif" font-size="10.00">mom_restart::query</text>
<text text-anchor="middle" x="181.5" y="-403.5" font-family="Helvetica,sans-Serif" font-size="10.00">_initialized_2d</text>
</a>
</g>
</g>
<!-- Node92&#45;&gt;Node97 -->
<g id="edge5" class="edge"><title>Node92&#45;&gt;Node97</title>
<path fill="none" stroke="midnightblue" d="M68.268,-482.09C83.5712,-467.529 104.871,-448.843 126,-435.5 131.07,-432.298 136.64,-429.315 142.224,-426.617"/>
<polygon fill="midnightblue" stroke="midnightblue" points="65.5937,-479.807 60.8447,-489.278 70.4633,-484.836 65.5937,-479.807"/>
</g>
<!-- Node98 -->
<g id="node7" class="node"><title>Node98</title>
<g id="a_node7"><a xlink:href="../../d1/d85/namespacemom__restart.html#ac2916c91f2b110463b8b6ffd5330c683" target="_top" xlink:title="mom_restart::query\l_initialized_2d_name">
<polygon fill="white" stroke="black" points="283,-592.5 283,-622.5 374,-622.5 374,-592.5 283,-592.5"/>
<text text-anchor="start" x="291" y="-610.5" font-family="Helvetica,sans-Serif" font-size="10.00">mom_restart::query</text>
<text text-anchor="middle" x="328.5" y="-599.5" font-family="Helvetica,sans-Serif" font-size="10.00">_initialized_2d_name</text>
</a>
</g>
</g>
<!-- Node92&#45;&gt;Node98 -->
<g id="edge6" class="edge"><title>Node92&#45;&gt;Node98</title>
<path fill="none" stroke="midnightblue" d="M82.572,-524.334C96.011,-531.207 111.491,-538.649 126,-544.5 178.688,-565.748 241.443,-584.362 282.759,-595.741"/>
<polygon fill="midnightblue" stroke="midnightblue" points="84.1191,-521.194 73.6311,-519.693 80.894,-527.407 84.1191,-521.194"/>
</g>
<!-- Node99 -->
<g id="node8" class="node"><title>Node99</title>
<g id="a_node8"><a xlink:href="../../d1/d85/namespacemom__restart.html#ad8cd9a08f434e6193d642b08251aee90" target="_top" xlink:title="mom_restart::query\l_initialized_3d">
<polygon fill="white" stroke="black" points="138,-347.5 138,-377.5 225,-377.5 225,-347.5 138,-347.5"/>
<text text-anchor="start" x="146" y="-365.5" font-family="Helvetica,sans-Serif" font-size="10.00">mom_restart::query</text>
<text text-anchor="middle" x="181.5" y="-354.5" font-family="Helvetica,sans-Serif" font-size="10.00">_initialized_3d</text>
</a>
</g>
</g>
<!-- Node92&#45;&gt;Node99 -->
<g id="edge7" class="edge"><title>Node92&#45;&gt;Node99</title>
<path fill="none" stroke="midnightblue" d="M57.2654,-480.249C70.4861,-454.075 94.6452,-412.638 126,-386.5 130.05,-383.124 134.649,-380.14 139.418,-377.527"/>
<polygon fill="midnightblue" stroke="midnightblue" points="54.0042,-478.95 52.7417,-489.469 60.2886,-482.033 54.0042,-478.95"/>
</g>
<!-- Node100 -->
<g id="node9" class="node"><title>Node100</title>
<g id="a_node9"><a xlink:href="../../d1/d85/namespacemom__restart.html#a0ff886233ff24e93349a1f1c8e547da4" target="_top" xlink:title="mom_restart::query\l_initialized_3d_name">
<polygon fill="white" stroke="black" points="283,-542.5 283,-572.5 374,-572.5 374,-542.5 283,-542.5"/>
<text text-anchor="start" x="291" y="-560.5" font-family="Helvetica,sans-Serif" font-size="10.00">mom_restart::query</text>
<text text-anchor="middle" x="328.5" y="-549.5" font-family="Helvetica,sans-Serif" font-size="10.00">_initialized_3d_name</text>
</a>
</g>
</g>
<!-- Node92&#45;&gt;Node100 -->
<g id="edge8" class="edge"><title>Node92&#45;&gt;Node100</title>
<path fill="none" stroke="midnightblue" d="M100.222,-514.709C153.385,-524.718 233.459,-539.794 283,-549.122"/>
<polygon fill="midnightblue" stroke="midnightblue" points="100.769,-511.25 90.294,-512.84 99.4738,-518.129 100.769,-511.25"/>
</g>
<!-- Node101 -->
<g id="node10" class="node"><title>Node101</title>
<g id="a_node10"><a xlink:href="../../d1/d85/namespacemom__restart.html#a91cf0baa54a2d21017252d431635c74a" target="_top" xlink:title="mom_restart::query\l_initialized_4d">
<polygon fill="white" stroke="black" points="138,-298.5 138,-328.5 225,-328.5 225,-298.5 138,-298.5"/>
<text text-anchor="start" x="146" y="-316.5" font-family="Helvetica,sans-Serif" font-size="10.00">mom_restart::query</text>
<text text-anchor="middle" x="181.5" y="-305.5" font-family="Helvetica,sans-Serif" font-size="10.00">_initialized_4d</text>
</a>
</g>
</g>
<!-- Node92&#45;&gt;Node101 -->
<g id="edge9" class="edge"><title>Node92&#45;&gt;Node101</title>
<path fill="none" stroke="midnightblue" d="M52.068,-479.392C61.9114,-443.553 84.5641,-377.634 126,-337.5 129.49,-334.119 133.536,-331.171 137.816,-328.61"/>
<polygon fill="midnightblue" stroke="midnightblue" points="48.5718,-478.926 49.4177,-489.487 55.3423,-480.704 48.5718,-478.926"/>
</g>
<!-- Node102 -->
<g id="node11" class="node"><title>Node102</title>
<g id="a_node11"><a xlink:href="../../d1/d85/namespacemom__restart.html#a5223057ec731f74507fd800511c01ab2" target="_top" xlink:title="mom_restart::query\l_initialized_4d_name">
<polygon fill="white" stroke="black" points="283,-490.5 283,-520.5 374,-520.5 374,-490.5 283,-490.5"/>
<text text-anchor="start" x="291" y="-508.5" font-family="Helvetica,sans-Serif" font-size="10.00">mom_restart::query</text>
<text text-anchor="middle" x="328.5" y="-497.5" font-family="Helvetica,sans-Serif" font-size="10.00">_initialized_4d_name</text>
</a>
</g>
</g>
<!-- Node92&#45;&gt;Node102 -->
<g id="edge10" class="edge"><title>Node92&#45;&gt;Node102</title>
<path fill="none" stroke="midnightblue" d="M100.554,-504.694C153.718,-504.883 233.562,-505.166 283,-505.342"/>
<polygon fill="midnightblue" stroke="midnightblue" points="100.306,-501.193 90.294,-504.657 100.282,-508.193 100.306,-501.193"/>
</g>
<!-- Node103 -->
<g id="node12" class="node"><title>Node103</title>
<g id="a_node12"><a xlink:href="../../d1/d85/namespacemom__restart.html#a7c9521908e6149d6434fc0611afc3054" target="_top" xlink:title="mom_restart::query\l_initialized_name">
<polygon fill="white" stroke="black" points="138,-609.5 138,-639.5 225,-639.5 225,-609.5 138,-609.5"/>
<text text-anchor="start" x="146" y="-627.5" font-family="Helvetica,sans-Serif" font-size="10.00">mom_restart::query</text>
<text text-anchor="middle" x="181.5" y="-616.5" font-family="Helvetica,sans-Serif" font-size="10.00">_initialized_name</text>
</a>
</g>
</g>
<!-- Node92&#45;&gt;Node103 -->
<g id="edge11" class="edge"><title>Node92&#45;&gt;Node103</title>
<path fill="none" stroke="midnightblue" d="M62.9737,-527.679C78.0221,-547.143 101.378,-574.846 126,-594.5 132.922,-600.025 141.001,-605.089 148.786,-609.42"/>
<polygon fill="midnightblue" stroke="midnightblue" points="65.6974,-525.478 56.8617,-519.632 60.123,-529.712 65.6974,-525.478"/>
</g>
<!-- Node104 -->
<g id="node13" class="node"><title>Node104</title>
<g id="a_node13"><a xlink:href="../../d1/d85/namespacemom__restart.html#aec60d8a437fc858db4a020f9985b449d" target="_top" xlink:title="mom_restart::restore\l_state">
<polygon fill="white" stroke="black" points="135.5,-249.5 135.5,-279.5 227.5,-279.5 227.5,-249.5 135.5,-249.5"/>
<text text-anchor="start" x="143.5" y="-267.5" font-family="Helvetica,sans-Serif" font-size="10.00">mom_restart::restore</text>
<text text-anchor="middle" x="181.5" y="-256.5" font-family="Helvetica,sans-Serif" font-size="10.00">_state</text>
</a>
</g>
</g>
<!-- Node92&#45;&gt;Node104 -->
<g id="edge17" class="edge"><title>Node92&#45;&gt;Node104</title>
<path fill="none" stroke="midnightblue" d="M48.9254,-479.155C55.2775,-435.02 74.1913,-343.52 126,-288.5 129.189,-285.113 132.941,-282.175 136.96,-279.633"/>
<polygon fill="midnightblue" stroke="midnightblue" points="45.4246,-478.928 47.5688,-489.304 52.3629,-479.856 45.4246,-478.928"/>
</g>
<!-- Node111 -->
<g id="node20" class="node"><title>Node111</title>
<g id="a_node20"><a xlink:href="../../d1/d85/namespacemom__restart.html#ab88b83af8a7dc731b70bc534325ba2b4" target="_top" xlink:title="mom_restart::save_restart">
<polygon fill="white" stroke="black" points="126,-118 126,-137 237,-137 237,-118 126,-118"/>
<text text-anchor="middle" x="181.5" y="-125" font-family="Helvetica,sans-Serif" font-size="10.00">mom_restart::save_restart</text>
</a>
</g>
</g>
<!-- Node92&#45;&gt;Node111 -->
<g id="edge25" class="edge"><title>Node92&#45;&gt;Node111</title>
<path fill="none" stroke="midnightblue" d="M52.1117,-479.535C64.0557,-432.017 92.2949,-325.624 126,-239.5 141.289,-200.434 164.704,-156.258 175.149,-137.152"/>
<polygon fill="midnightblue" stroke="midnightblue" points="48.7073,-478.723 49.6861,-489.272 55.4997,-480.415 48.7073,-478.723"/>
</g>
<!-- Node103&#45;&gt;Node94 -->
<g id="edge12" class="edge"><title>Node103&#45;&gt;Node94</title>
<path fill="none" stroke="midnightblue" d="M212.419,-645.338C229.72,-656.961 252.134,-671.307 273,-682.5 278.74,-685.579 284.955,-688.596 291.064,-691.395"/>
<polygon fill="midnightblue" stroke="midnightblue" points="214.113,-642.257 203.872,-639.538 210.182,-648.05 214.113,-642.257"/>
</g>
<!-- Node103&#45;&gt;Node96 -->
<g id="edge13" class="edge"><title>Node103&#45;&gt;Node96</title>
<path fill="none" stroke="midnightblue" d="M235.25,-636.505C250.853,-640.056 267.777,-643.908 282.818,-647.331"/>
<polygon fill="midnightblue" stroke="midnightblue" points="235.748,-633.029 225.221,-634.223 234.194,-639.855 235.748,-633.029"/>
</g>
<!-- Node103&#45;&gt;Node98 -->
<g id="edge14" class="edge"><title>Node103&#45;&gt;Node98</title>
<path fill="none" stroke="midnightblue" d="M235.25,-618.316C250.853,-616.486 267.777,-614.502 282.818,-612.739"/>
<polygon fill="midnightblue" stroke="midnightblue" points="234.745,-614.851 225.221,-619.491 235.56,-621.803 234.745,-614.851"/>
</g>
<!-- Node103&#45;&gt;Node100 -->
<g id="edge15" class="edge"><title>Node103&#45;&gt;Node100</title>
<path fill="none" stroke="midnightblue" d="M224.324,-605.175C246.745,-594.814 273.966,-582.236 294.817,-572.602"/>
<polygon fill="midnightblue" stroke="midnightblue" points="222.65,-602.092 215.041,-609.464 225.587,-608.447 222.65,-602.092"/>
</g>
<!-- Node103&#45;&gt;Node102 -->
<g id="edge16" class="edge"><title>Node103&#45;&gt;Node102</title>
<path fill="none" stroke="midnightblue" d="M201.202,-601.542C218.358,-581.515 245.25,-552.597 273,-532.5 279.072,-528.103 285.968,-524.068 292.764,-520.532"/>
<polygon fill="midnightblue" stroke="midnightblue" points="198.459,-599.366 194.689,-609.268 203.811,-603.878 198.459,-599.366"/>
</g>
<!-- Node105 -->
<g id="node14" class="node"><title>Node105</title>
<g id="a_node14"><a xlink:href="../../dc/ded/namespacemom__surface__forcing.html#ad01961191fdfc928f233901e285f4beb" target="_top" xlink:title="mom_surface_forcing\l::surface_forcing_init">
<polygon fill="white" stroke="black" points="281.5,-225.5 281.5,-255.5 375.5,-255.5 375.5,-225.5 281.5,-225.5"/>
<text text-anchor="start" x="289.5" y="-243.5" font-family="Helvetica,sans-Serif" font-size="10.00">mom_surface_forcing</text>
<text text-anchor="middle" x="328.5" y="-232.5" font-family="Helvetica,sans-Serif" font-size="10.00">::surface_forcing_init</text>
</a>
</g>
</g>
<!-- Node104&#45;&gt;Node105 -->
<g id="edge18" class="edge"><title>Node104&#45;&gt;Node105</title>
<path fill="none" stroke="midnightblue" d="M237.858,-255.337C252.247,-252.956 267.591,-250.416 281.444,-248.123"/>
<polygon fill="midnightblue" stroke="midnightblue" points="236.878,-251.952 227.584,-257.038 238.021,-258.858 236.878,-251.952"/>
</g>
<!-- Node106 -->
<g id="node15" class="node"><title>Node106</title>
<g id="a_node15"><a xlink:href="../../df/da2/namespacemom__ice__shelf.html#ae315e8464ef8a20062e3bccb61886755" target="_top" xlink:title="mom_ice_shelf::initialize\l_ice_shelf">
<polygon fill="white" stroke="black" points="278,-274.5 278,-304.5 379,-304.5 379,-274.5 278,-274.5"/>
<text text-anchor="start" x="286" y="-292.5" font-family="Helvetica,sans-Serif" font-size="10.00">mom_ice_shelf::initialize</text>
<text text-anchor="middle" x="328.5" y="-281.5" font-family="Helvetica,sans-Serif" font-size="10.00">_ice_shelf</text>
</a>
</g>
</g>
<!-- Node104&#45;&gt;Node106 -->
<g id="edge19" class="edge"><title>Node104&#45;&gt;Node106</title>
<path fill="none" stroke="midnightblue" d="M237.536,-273.989C250.804,-276.277 264.901,-278.707 277.903,-280.949"/>
<polygon fill="midnightblue" stroke="midnightblue" points="238.033,-270.523 227.584,-272.273 236.844,-277.421 238.033,-270.523"/>
</g>
<!-- Node109 -->
<g id="node18" class="node"><title>Node109</title>
<g id="a_node18"><a xlink:href="../../d6/d62/namespacemom__state__initialization.html#af4e854627c6572332ba3fd895f169321" target="_top" xlink:title="mom_state_initialization\l::mom_initialize_state">
<polygon fill="white" stroke="black" points="278,-323.5 278,-353.5 379,-353.5 379,-323.5 278,-323.5"/>
<text text-anchor="start" x="286" y="-341.5" font-family="Helvetica,sans-Serif" font-size="10.00">mom_state_initialization</text>
<text text-anchor="middle" x="328.5" y="-330.5" font-family="Helvetica,sans-Serif" font-size="10.00">::mom_initialize_state</text>
</a>
</g>
</g>
<!-- Node104&#45;&gt;Node109 -->
<g id="edge22" class="edge"><title>Node104&#45;&gt;Node109</title>
<path fill="none" stroke="midnightblue" d="M228.595,-284.038C231.469,-285.49 234.292,-286.982 237,-288.5 253.992,-298.025 256.081,-303.846 273,-313.5 279.058,-316.957 285.678,-320.316 292.151,-323.393"/>
<polygon fill="midnightblue" stroke="midnightblue" points="229.852,-280.758 219.325,-279.559 226.807,-287.061 229.852,-280.758"/>
</g>
<!-- Node107 -->
<g id="node16" class="node"><title>Node107</title>
<g id="a_node16"><a xlink:href="../../de/dbc/MOM__driver_8F90.html#a08fffeb2d8e8acbf9ed4609be6d258c6" target="_top" xlink:title="mom_main">
<polygon fill="white" stroke="black" points="567,-156 567,-175 623,-175 623,-156 567,-156"/>
<text text-anchor="middle" x="595" y="-163" font-family="Helvetica,sans-Serif" font-size="10.00">mom_main</text>
</a>
</g>
</g>
<!-- Node106&#45;&gt;Node107 -->
<g id="edge20" class="edge"><title>Node106&#45;&gt;Node107</title>
<path fill="none" stroke="midnightblue" d="M389.068,-278.062C430.824,-268.305 486.84,-251.628 531,-225.5 554.139,-211.809 575.558,-188.15 586.462,-175.003"/>
<polygon fill="midnightblue" stroke="midnightblue" points="388.29,-274.649 379.313,-280.276 389.84,-281.475 388.29,-274.649"/>
</g>
<!-- Node108 -->
<g id="node17" class="node"><title>Node108</title>
<g id="a_node17"><a xlink:href="../../d5/d6d/ice__shelf__driver_8F90.html#aec5bef92f0dad343f545cd8d62e378d8" target="_top" xlink:title="shelf_main">
<polygon fill="white" stroke="black" points="448,-197 448,-216 503,-216 503,-197 448,-197"/>
<text text-anchor="middle" x="475.5" y="-204" font-family="Helvetica,sans-Serif" font-size="10.00">shelf_main</text>
</a>
</g>
</g>
<!-- Node106&#45;&gt;Node108 -->
<g id="edge21" class="edge"><title>Node106&#45;&gt;Node108</title>
<path fill="none" stroke="midnightblue" d="M373.279,-270.076C376.938,-268.254 380.553,-266.383 384,-264.5 412.168,-249.111 443.339,-228.219 460.761,-216.165"/>
<polygon fill="midnightblue" stroke="midnightblue" points="371.646,-266.978 364.166,-274.482 374.693,-273.28 371.646,-266.978"/>
</g>
<!-- Node110 -->
<g id="node19" class="node"><title>Node110</title>
<g id="a_node19"><a xlink:href="../../da/d01/namespacemom.html#afebdc0103ad9cbe0ed4a54e522dc4104" target="_top" xlink:title="This subroutine initializes MOM. ">
<polygon fill="white" stroke="black" points="431,-319 431,-338 520,-338 520,-319 431,-319"/>
<text text-anchor="middle" x="475.5" y="-326" font-family="Helvetica,sans-Serif" font-size="10.00">mom::initialize_mom</text>
</a>
</g>
</g>
<!-- Node109&#45;&gt;Node110 -->
<g id="edge23" class="edge"><title>Node109&#45;&gt;Node110</title>
<path fill="none" stroke="midnightblue" d="M389.771,-334.343C403.53,-333.394 417.895,-332.404 430.805,-331.513"/>
<polygon fill="midnightblue" stroke="midnightblue" points="389.136,-330.879 379.401,-335.059 389.618,-337.862 389.136,-330.879"/>
</g>
<!-- Node110&#45;&gt;Node107 -->
<g id="edge24" class="edge"><title>Node110&#45;&gt;Node107</title>
<path fill="none" stroke="midnightblue" d="M500.509,-312.946C510.763,-305.497 522.337,-295.93 531,-285.5 561.069,-249.299 582.607,-196.42 590.591,-175.018"/>
<polygon fill="midnightblue" stroke="midnightblue" points="498.496,-310.082 492.3,-318.676 502.503,-315.822 498.496,-310.082"/>
</g>
<!-- Node111&#45;&gt;Node107 -->
<g id="edge33" class="edge"><title>Node111&#45;&gt;Node107</title>
<path fill="none" stroke="midnightblue" d="M203.483,-112.204C221.063,-100.392 247.337,-85.0016 273,-78.5 320.823,-66.3845 335.304,-70.5977 384,-78.5 451.978,-89.5313 468.467,-98.6504 531,-127.5 548.629,-135.633 567.534,-147.505 579.984,-155.808"/>
<polygon fill="midnightblue" stroke="midnightblue" points="201.359,-109.417 195.132,-117.988 205.345,-115.172 201.359,-109.417"/>
</g>
<!-- Node111&#45;&gt;Node108 -->
<g id="edge32" class="edge"><title>Node111&#45;&gt;Node108</title>
<path fill="none" stroke="midnightblue" d="M205.014,-142.577C222.738,-153.717 248.464,-168.314 273,-176.5 333.39,-196.648 408.475,-203.295 447.735,-205.465"/>
<polygon fill="midnightblue" stroke="midnightblue" points="206.828,-139.583 196.523,-137.12 203.042,-145.471 206.828,-139.583"/>
</g>
<!-- Node112 -->
<g id="node21" class="node"><title>Node112</title>
<g id="a_node21"><a xlink:href="../../dc/ded/namespacemom__surface__forcing.html#a04a68cf8f709d78372dda5507a1223b7" target="_top" xlink:title="mom_surface_forcing\l::buoyancy_forcing_linear">
<polygon fill="white" stroke="black" points="275,-0.5 275,-30.5 382,-30.5 382,-0.5 275,-0.5"/>
<text text-anchor="start" x="283" y="-18.5" font-family="Helvetica,sans-Serif" font-size="10.00">mom_surface_forcing</text>
<text text-anchor="middle" x="328.5" y="-7.5" font-family="Helvetica,sans-Serif" font-size="10.00">::buoyancy_forcing_linear</text>
</a>
</g>
</g>
<!-- Node111&#45;&gt;Node112 -->
<g id="edge26" class="edge"><title>Node111&#45;&gt;Node112</title>
<path fill="none" stroke="midnightblue" d="M198.782,-110.574C216.167,-93.0422 245.011,-65.4682 273,-45.5 280.474,-40.1682 288.992,-35.0697 297.039,-30.6374"/>
<polygon fill="midnightblue" stroke="midnightblue" points="196.143,-108.266 191.645,-117.858 201.144,-113.165 196.143,-108.266"/>
</g>
<!-- Node114 -->
<g id="node23" class="node"><title>Node114</title>
<g id="a_node23"><a xlink:href="../../d5/dd4/namespaceocean__model__mod.html#a908a47d286b0257e91a253272926dc3d" target="_top" xlink:title="ocean_model_mod::ocean\l_model_restart">
<polygon fill="white" stroke="black" points="273,-88.5 273,-118.5 384,-118.5 384,-88.5 273,-88.5"/>
<text text-anchor="start" x="281" y="-106.5" font-family="Helvetica,sans-Serif" font-size="10.00">ocean_model_mod::ocean</text>
<text text-anchor="middle" x="328.5" y="-95.5" font-family="Helvetica,sans-Serif" font-size="10.00">_model_restart</text>
</a>
</g>
</g>
<!-- Node111&#45;&gt;Node114 -->
<g id="edge29" class="edge"><title>Node111&#45;&gt;Node114</title>
<path fill="none" stroke="midnightblue" d="M247.185,-116.793C255.671,-115.389 264.302,-113.96 272.604,-112.586"/>
<polygon fill="midnightblue" stroke="midnightblue" points="246.612,-113.341 237.318,-118.427 247.756,-120.247 246.612,-113.341"/>
</g>
<!-- Node115 -->
<g id="node24" class="node"><title>Node115</title>
<g id="a_node24"><a xlink:href="../../d5/dd4/namespaceocean__model__mod.html#ad969c968b1133584b9dcf48d78f51c01" target="_top" xlink:title="ocean_model_mod::ocean\l_model_save_restart">
<polygon fill="white" stroke="black" points="273,-137.5 273,-167.5 384,-167.5 384,-137.5 273,-137.5"/>
<text text-anchor="start" x="281" y="-155.5" font-family="Helvetica,sans-Serif" font-size="10.00">ocean_model_mod::ocean</text>
<text text-anchor="middle" x="328.5" y="-144.5" font-family="Helvetica,sans-Serif" font-size="10.00">_model_save_restart</text>
</a>
</g>
</g>
<!-- Node111&#45;&gt;Node115 -->
<g id="edge30" class="edge"><title>Node111&#45;&gt;Node115</title>
<path fill="none" stroke="midnightblue" d="M247.185,-138.653C255.671,-140.116 264.302,-141.604 272.604,-143.035"/>
<polygon fill="midnightblue" stroke="midnightblue" points="247.768,-135.201 237.318,-136.951 246.578,-142.1 247.768,-135.201"/>
</g>
<!-- Node113 -->
<g id="node22" class="node"><title>Node113</title>
<g id="a_node22"><a xlink:href="../../dc/ded/namespacemom__surface__forcing.html#ad4eeb543c0b616e42ddb7c0a37f03bf0" target="_top" xlink:title="mom_surface_forcing\l::set_forcing">
<polygon fill="white" stroke="black" points="428.5,-0.5 428.5,-30.5 522.5,-30.5 522.5,-0.5 428.5,-0.5"/>
<text text-anchor="start" x="436.5" y="-18.5" font-family="Helvetica,sans-Serif" font-size="10.00">mom_surface_forcing</text>
<text text-anchor="middle" x="475.5" y="-7.5" font-family="Helvetica,sans-Serif" font-size="10.00">::set_forcing</text>
</a>
</g>
</g>
<!-- Node112&#45;&gt;Node113 -->
<g id="edge27" class="edge"><title>Node112&#45;&gt;Node113</title>
<path fill="none" stroke="midnightblue" d="M392.289,-15.5C404.368,-15.5 416.814,-15.5 428.252,-15.5"/>
<polygon fill="midnightblue" stroke="midnightblue" points="392.259,-12.0001 382.259,-15.5 392.258,-19.0001 392.259,-12.0001"/>
</g>
<!-- Node113&#45;&gt;Node107 -->
<g id="edge28" class="edge"><title>Node113&#45;&gt;Node107</title>
<path fill="none" stroke="midnightblue" d="M519.734,-36.0622C523.788,-38.9184 527.633,-42.0657 531,-45.5 564.111,-79.2713 584.065,-133.988 591.111,-155.94"/>
<polygon fill="midnightblue" stroke="midnightblue" points="521.514,-33.0461 511.203,-30.6096 517.744,-38.9443 521.514,-33.0461"/>
</g>
<!-- Node116 -->
<g id="node25" class="node"><title>Node116</title>
<g id="a_node25"><a xlink:href="../../d5/dd4/namespaceocean__model__mod.html#a276959acb69502491d4b3a5a83e596b8" target="_top" xlink:title="ocean_model_mod::ocean\l_model_end">
<polygon fill="white" stroke="black" points="420,-137.5 420,-167.5 531,-167.5 531,-137.5 420,-137.5"/>
<text text-anchor="start" x="428" y="-155.5" font-family="Helvetica,sans-Serif" font-size="10.00">ocean_model_mod::ocean</text>
<text text-anchor="middle" x="475.5" y="-144.5" font-family="Helvetica,sans-Serif" font-size="10.00">_model_end</text>
</a>
</g>
</g>
<!-- Node115&#45;&gt;Node116 -->
<g id="edge31" class="edge"><title>Node115&#45;&gt;Node116</title>
<path fill="none" stroke="midnightblue" d="M394.462,-152.5C402.859,-152.5 411.392,-152.5 419.604,-152.5"/>
<polygon fill="midnightblue" stroke="midnightblue" points="394.318,-149 384.318,-152.5 394.318,-156 394.318,-149"/>
</g>
</g>
</svg>
