<?xml version="1.0" encoding="UTF-8" standalone="no"?>
<!DOCTYPE svg PUBLIC "-//W3C//DTD SVG 1.1//EN"
 "http://www.w3.org/Graphics/SVG/1.1/DTD/svg11.dtd">
<!-- Generated by graphviz version 2.38.0 (20140413.2041)
 -->
<!-- Title: mom_restart::query_initialized_0d Pages: 1 -->
<svg width="479pt" height="61pt"
 viewBox="0.00 0.00 479.00 61.00" xmlns="http://www.w3.org/2000/svg" xmlns:xlink="http://www.w3.org/1999/xlink">
<g id="graph0" class="graph" transform="scale(1 1) rotate(0) translate(4 57)">
<title>mom_restart::query_initialized_0d</title>
<polygon fill="white" stroke="none" points="-4,4 -4,-57 475,-57 475,4 -4,4"/>
<!-- Node0 -->
<g id="node1" class="node"><title>Node0</title>
<polygon fill="#bfbfbf" stroke="black" points="0,-22.5 0,-52.5 87,-52.5 87,-22.5 0,-22.5"/>
<text text-anchor="start" x="8" y="-40.5" font-family="Helvetica,sans-Serif" font-size="10.00">mom_restart::query</text>
<text text-anchor="middle" x="43.5" y="-29.5" font-family="Helvetica,sans-Serif" font-size="10.00">_initialized_0d</text>
</g>
<!-- Node1 -->
<g id="node2" class="node"><title>Node1</title>
<g id="a_node2"><a xlink:href="../../d0/de6/namespacemom__error__handler.html#a460cfb79a06c29fc249952c2a3710d67" target="_top" xlink:title="mom_error_handler::\lmom_error">
<polygon fill="white" stroke="black" points="249,-22.5 249,-52.5 342,-52.5 342,-22.5 249,-22.5"/>
<text text-anchor="start" x="257" y="-40.5" font-family="Helvetica,sans-Serif" font-size="10.00">mom_error_handler::</text>
<text text-anchor="middle" x="295.5" y="-29.5" font-family="Helvetica,sans-Serif" font-size="10.00">mom_error</text>
</a>
</g>
</g>
<!-- Node0&#45;&gt;Node1 -->
<g id="edge1" class="edge"><title>Node0&#45;&gt;Node1</title>
<path fill="none" stroke="midnightblue" d="M87.2698,-39.4311C98.8615,-39.8735 111.409,-40.2786 123,-40.5 162.993,-41.2639 173.007,-41.2358 213,-40.5 221.343,-40.3465 230.165,-40.1047 238.802,-39.8233"/>
<polygon fill="midnightblue" stroke="midnightblue" points="238.944,-43.3206 248.817,-39.4778 238.702,-36.3248 238.944,-43.3206"/>
</g>
<!-- Node3 -->
<g id="node4" class="node"><title>Node3</title>
<g id="a_node4"><a xlink:href="../../d1/d85/namespacemom__restart.html#a4b143fb18dab7c0825e426fbf9532623" target="_top" xlink:title="mom_restart::restart\l_error">
<polygon fill="white" stroke="black" points="123,-0.5 123,-30.5 213,-30.5 213,-0.5 123,-0.5"/>
<text text-anchor="start" x="131" y="-18.5" font-family="Helvetica,sans-Serif" font-size="10.00">mom_restart::restart</text>
<text text-anchor="middle" x="168" y="-7.5" font-family="Helvetica,sans-Serif" font-size="10.00">_error</text>
</a>
</g>
</g>
<!-- Node0&#45;&gt;Node3 -->
<g id="edge3" class="edge"><title>Node0&#45;&gt;Node3</title>
<path fill="none" stroke="midnightblue" d="M87.0008,-29.8672C95.345,-28.3687 104.203,-26.7778 112.868,-25.2216"/>
<polygon fill="midnightblue" stroke="midnightblue" points="113.686,-28.6308 122.91,-23.4182 112.449,-21.7411 113.686,-28.6308"/>
</g>
<!-- Node2 -->
<g id="node3" class="node"><title>Node2</title>
<g id="a_node3"><a xlink:href="../../d0/de6/namespacemom__error__handler.html#ad5f00a53059c72fe2332d1436c80ca71" target="_top" xlink:title="mom_error_handler::\lis_root_pe">
<polygon fill="white" stroke="black" points="378,-22.5 378,-52.5 471,-52.5 471,-22.5 378,-22.5"/>
<text text-anchor="start" x="386" y="-40.5" font-family="Helvetica,sans-Serif" font-size="10.00">mom_error_handler::</text>
<text text-anchor="middle" x="424.5" y="-29.5" font-family="Helvetica,sans-Serif" font-size="10.00">is_root_pe</text>
</a>
</g>
</g>
<!-- Node1&#45;&gt;Node2 -->
<g id="edge2" class="edge"><title>Node1&#45;&gt;Node2</title>
<path fill="none" stroke="midnightblue" d="M342.35,-37.5C350.533,-37.5 359.141,-37.5 367.568,-37.5"/>
<polygon fill="midnightblue" stroke="midnightblue" points="367.717,-41.0001 377.717,-37.5 367.717,-34.0001 367.717,-41.0001"/>
</g>
<!-- Node3&#45;&gt;Node1 -->
<g id="edge4" class="edge"><title>Node3&#45;&gt;Node1</title>
<path fill="none" stroke="midnightblue" d="M213.247,-23.2564C221.565,-24.7146 230.36,-26.2564 238.971,-27.7659"/>
<polygon fill="midnightblue" stroke="midnightblue" points="238.502,-31.2369 248.956,-29.5162 239.71,-24.342 238.502,-31.2369"/>
</g>
</g>
</svg>
