<?xml version="1.0" encoding="UTF-8" standalone="no"?>
<!DOCTYPE svg PUBLIC "-//W3C//DTD SVG 1.1//EN"
 "http://www.w3.org/Graphics/SVG/1.1/DTD/svg11.dtd">
<!-- Generated by graphviz version 2.38.0 (20140413.2041)
 -->
<!-- Title: mom_surface_forcing::convert_iob_to_fluxes Pages: 1 -->
<svg width="335pt" height="88pt"
 viewBox="0.00 0.00 335.00 88.00" xmlns="http://www.w3.org/2000/svg" xmlns:xlink="http://www.w3.org/1999/xlink">
<g id="graph0" class="graph" transform="scale(1 1) rotate(0) translate(4 84)">
<title>mom_surface_forcing::convert_iob_to_fluxes</title>
<polygon fill="white" stroke="none" points="-4,4 -4,-84 331,-84 331,4 -4,4"/>
<!-- Node37 -->
<g id="node1" class="node"><title>Node37</title>
<polygon fill="#bfbfbf" stroke="black" points="0,-24.5 0,-54.5 98,-54.5 98,-24.5 0,-24.5"/>
<text text-anchor="start" x="8" y="-42.5" font-family="Helvetica,sans-Serif" font-size="10.00">mom_surface_forcing</text>
<text text-anchor="middle" x="49" y="-31.5" font-family="Helvetica,sans-Serif" font-size="10.00">::convert_iob_to_fluxes</text>
</g>
<!-- Node38 -->
<g id="node2" class="node"><title>Node38</title>
<g id="a_node2"><a xlink:href="../../dd/dc3/namespacemom__forcing__type.html#a765fdabc0bc35293aba97b957d579919" target="_top" xlink:title="Conditionally allocate fields within the forcing type. ">
<polygon fill="white" stroke="black" points="134,-49.5 134,-79.5 248,-79.5 248,-49.5 134,-49.5"/>
<text text-anchor="start" x="142" y="-67.5" font-family="Helvetica,sans-Serif" font-size="10.00">mom_forcing_type::allocate</text>
<text text-anchor="middle" x="191" y="-56.5" font-family="Helvetica,sans-Serif" font-size="10.00">_forcing_type</text>
</a>
</g>
</g>
<!-- Node37&#45;&gt;Node38 -->
<g id="edge1" class="edge"><title>Node37&#45;&gt;Node38</title>
<path fill="none" stroke="midnightblue" d="M98.1801,-48.1036C106.366,-49.5654 114.995,-51.1063 123.553,-52.6345"/>
<polygon fill="midnightblue" stroke="midnightblue" points="123.076,-56.1046 133.536,-54.4171 124.307,-49.2136 123.076,-56.1046"/>
</g>
<!-- Node40 -->
<g id="node4" class="node"><title>Node40</title>
<g id="a_node4"><a xlink:href="../../dc/ded/namespacemom__surface__forcing.html#ac56650dc344e30236ba475006ed3841e" target="_top" xlink:title="Adds flux adjustments obtained via data_override Component name is &#39;OCN&#39; Available adjustments are: ...">
<polygon fill="white" stroke="black" points="139,-0.5 139,-30.5 243,-30.5 243,-0.5 139,-0.5"/>
<text text-anchor="start" x="147" y="-18.5" font-family="Helvetica,sans-Serif" font-size="10.00">mom_surface_forcing</text>
<text text-anchor="middle" x="191" y="-7.5" font-family="Helvetica,sans-Serif" font-size="10.00">::apply_flux_adjustments</text>
</a>
</g>
</g>
<!-- Node37&#45;&gt;Node40 -->
<g id="edge3" class="edge"><title>Node37&#45;&gt;Node40</title>
<path fill="none" stroke="midnightblue" d="M98.1801,-31.2406C108.027,-29.5524 118.515,-27.7546 128.749,-26.0002"/>
<polygon fill="midnightblue" stroke="midnightblue" points="129.601,-29.4053 138.866,-24.2659 128.418,-22.5059 129.601,-29.4053"/>
</g>
<!-- Node39 -->
<g id="node3" class="node"><title>Node39</title>
<g id="a_node3"><a xlink:href="../../d5/ded/MOM__forcing__type_8F90.html#aede7c3d8c91ec3e8a8a3b68824a5e9e8" target="_top" xlink:title="myalloc">
<polygon fill="white" stroke="black" points="284,-55 284,-74 327,-74 327,-55 284,-55"/>
<text text-anchor="middle" x="305.5" y="-62" font-family="Helvetica,sans-Serif" font-size="10.00">myalloc</text>
</a>
</g>
</g>
<!-- Node38&#45;&gt;Node39 -->
<g id="edge2" class="edge"><title>Node38&#45;&gt;Node39</title>
<path fill="none" stroke="midnightblue" d="M248.25,-64.5C257.012,-64.5 265.773,-64.5 273.685,-64.5"/>
<polygon fill="midnightblue" stroke="midnightblue" points="273.866,-68.0001 283.866,-64.5 273.866,-61.0001 273.866,-68.0001"/>
</g>
</g>
</svg>
