<?xml version="1.0" encoding="UTF-8" standalone="no"?>
<!DOCTYPE svg PUBLIC "-//W3C//DTD SVG 1.1//EN"
 "http://www.w3.org/Graphics/SVG/1.1/DTD/svg11.dtd">
<!-- Generated by graphviz version 2.38.0 (20140413.2041)
 -->
<!-- Title: mom_surface_forcing::surface_forcing_init Pages: 1 -->
<!--zoomable 548 -->
<svg id="main" version="1.1" xmlns="http://www.w3.org/2000/svg" xmlns:xlink="http://www.w3.org/1999/xlink" xml:space="preserve" onload="init(evt)">
<style type="text/css"><![CDATA[
.edge:hover path { stroke: red; }
.edge:hover polygon { stroke: red; fill: red; }
]]></style>
<script type="text/javascript"><![CDATA[
var edges = document.getElementsByTagName('g');
if (edges && edges.length) {
  for (var i=0;i<edges.length;i++) {
    if (edges[i].id.substr(0,4)=='edge') {
      edges[i].setAttribute('class','edge');
    }
  }
}
]]></script>
        <defs>
                <circle id="rim" cx="0" cy="0" r="7"/>
                <circle id="rim2" cx="0" cy="0" r="3.5"/>
                <g id="zoomPlus">
                        <use xlink:href="#rim" fill="#404040">
                                <set attributeName="fill" to="#808080" begin="zoomplus.mouseover" end="zoomplus.mouseout"/>
                        </use>
                        <path d="M-4,0h8M0,-4v8" fill="none" stroke="white" stroke-width="1.5" pointer-events="none"/>
                </g>
                <g id="zoomMin">
                        <use xlink:href="#rim" fill="#404040">
                                <set attributeName="fill" to="#808080" begin="zoomminus.mouseover" end="zoomminus.mouseout"/>
                        </use>
                        <path d="M-4,0h8" fill="none" stroke="white" stroke-width="1.5" pointer-events="none"/>
                </g>
                <g id="dirArrow">
                        <path fill="none" stroke="white" stroke-width="1.5" d="M0,-3.0v7 M-2.5,-0.5L0,-3.0L2.5,-0.5"/>
                </g>
               <g id="resetDef">
                       <use xlink:href="#rim2" fill="#404040">
                               <set attributeName="fill" to="#808080" begin="reset.mouseover" end="reset.mouseout"/>
                       </use>
               </g>
        </defs>

<script type="text/javascript">
var viewWidth = 1152;
var viewHeight = 548;
var sectionId = 'dynsection-14';
</script>
<script xlink:href="../../svgpan.js"/>
<svg id="graph" class="graph">
<g id="viewport">
<title>mom_surface_forcing::surface_forcing_init</title>
<polygon fill="white" stroke="none" points="-4,4 -4,-543.5 1148,-543.5 1148,4 -4,4"/>
<!-- Node75 -->
<g id="node1" class="node"><title>Node75</title>
<polygon fill="#bfbfbf" stroke="black" points="0,-151.5 0,-181.5 94,-181.5 94,-151.5 0,-151.5"/>
<text text-anchor="start" x="8" y="-169.5" font-family="Helvetica,sans-Serif" font-size="10.00">mom_surface_forcing</text>
<text text-anchor="middle" x="47" y="-158.5" font-family="Helvetica,sans-Serif" font-size="10.00">::surface_forcing_init</text>
</g>
<!-- Node76 -->
<g id="node2" class="node"><title>Node76</title>
<g id="a_node2"><a xlink:href="../../dd/dc3/namespacemom__forcing__type.html#a432b1cbc47ab082b64bf7007a8674973" target="_top" xlink:title="Deallocate the forcing type. ">
<polygon fill="white" stroke="black" points="130,-328.5 130,-358.5 253,-358.5 253,-328.5 130,-328.5"/>
<text text-anchor="start" x="138" y="-346.5" font-family="Helvetica,sans-Serif" font-size="10.00">mom_forcing_type::deallocate</text>
<text text-anchor="middle" x="191.5" y="-335.5" font-family="Helvetica,sans-Serif" font-size="10.00">_forcing_type</text>
</a>
</g>
</g>
<!-- Node75&#45;&gt;Node76 -->
<g id="edge1" class="edge"><title>Node75&#45;&gt;Node76</title>
<path fill="none" stroke="midnightblue" d="M52.2776,-181.759C61.5198,-212.088 86.139,-280.388 130,-319.5 131.305,-320.663 132.672,-321.774 134.091,-322.833"/>
<polygon fill="midnightblue" stroke="midnightblue" points="132.382,-325.895 142.685,-328.361 136.168,-320.008 132.382,-325.895"/>
</g>
<!-- Node77 -->
<g id="node3" class="node"><title>Node77</title>
<g id="a_node3"><a xlink:href="../../d9/d7f/namespacemom__get__input.html#a299c5b9476662ef1a382e23a8d078143" target="_top" xlink:title="mom_get_input::get\l_mom_input">
<polygon fill="white" stroke="black" points="147.5,-214.5 147.5,-244.5 235.5,-244.5 235.5,-214.5 147.5,-214.5"/>
<text text-anchor="start" x="155.5" y="-232.5" font-family="Helvetica,sans-Serif" font-size="10.00">mom_get_input::get</text>
<text text-anchor="middle" x="191.5" y="-221.5" font-family="Helvetica,sans-Serif" font-size="10.00">_mom_input</text>
</a>
</g>
</g>
<!-- Node75&#45;&gt;Node77 -->
<g id="edge2" class="edge"><title>Node75&#45;&gt;Node77</title>
<path fill="none" stroke="midnightblue" d="M82.1323,-181.59C101.554,-190.176 126.08,-201.02 146.886,-210.218"/>
<polygon fill="midnightblue" stroke="midnightblue" points="145.591,-213.472 156.152,-214.315 148.422,-207.07 145.591,-213.472"/>
</g>
<!-- Node78 -->
<g id="node4" class="node"><title>Node78</title>
<g id="a_node4"><a xlink:href="../../d0/de6/namespacemom__error__handler.html#a460cfb79a06c29fc249952c2a3710d67" target="_top" xlink:title="mom_error_handler::\lmom_error">
<polygon fill="white" stroke="black" points="442.5,-170.5 442.5,-200.5 535.5,-200.5 535.5,-170.5 442.5,-170.5"/>
<text text-anchor="start" x="450.5" y="-188.5" font-family="Helvetica,sans-Serif" font-size="10.00">mom_error_handler::</text>
<text text-anchor="middle" x="489" y="-177.5" font-family="Helvetica,sans-Serif" font-size="10.00">mom_error</text>
</a>
</g>
</g>
<!-- Node75&#45;&gt;Node78 -->
<g id="edge22" class="edge"><title>Node75&#45;&gt;Node78</title>
<path fill="none" stroke="midnightblue" d="M94.1671,-163.491C161.117,-159.81 288.967,-155.342 397,-166.5 408.548,-167.693 420.79,-169.715 432.425,-172.007"/>
<polygon fill="midnightblue" stroke="midnightblue" points="431.961,-175.485 442.462,-174.076 433.374,-168.629 431.961,-175.485"/>
</g>
<!-- Node90 -->
<g id="node16" class="node"><title>Node90</title>
<g id="a_node16"><a xlink:href="../../d9/def/namespacemom__file__parser.html#a17c0ef1bb1912f02faa0aaa1e0f64210" target="_top" xlink:title="mom_file_parser::log\l_version">
<polygon fill="white" stroke="black" points="297,-50.5 297,-80.5 389,-80.5 389,-50.5 297,-50.5"/>
<text text-anchor="start" x="305" y="-68.5" font-family="Helvetica,sans-Serif" font-size="10.00">mom_file_parser::log</text>
<text text-anchor="middle" x="343" y="-57.5" font-family="Helvetica,sans-Serif" font-size="10.00">_version</text>
</a>
</g>
</g>
<!-- Node75&#45;&gt;Node90 -->
<g id="edge20" class="edge"><title>Node75&#45;&gt;Node90</title>
<path fill="none" stroke="midnightblue" d="M56.8365,-151.388C69.8721,-130.712 96.3849,-94.3648 130,-78.5 179.191,-55.2843 242.081,-54.5066 286.551,-58.0169"/>
<polygon fill="midnightblue" stroke="midnightblue" points="286.322,-61.5103 296.592,-58.9067 286.94,-54.5376 286.322,-61.5103"/>
</g>
<!-- Node91 -->
<g id="node17" class="node"><title>Node91</title>
<g id="a_node17"><a xlink:href="../../d1/d85/namespacemom__restart.html#a304183ab574d06ac810b41b1e82eb89c" target="_top" xlink:title="mom_restart::restart\l_init_end">
<polygon fill="white" stroke="black" points="146.5,-0.5 146.5,-30.5 236.5,-30.5 236.5,-0.5 146.5,-0.5"/>
<text text-anchor="start" x="154.5" y="-18.5" font-family="Helvetica,sans-Serif" font-size="10.00">mom_restart::restart</text>
<text text-anchor="middle" x="191.5" y="-7.5" font-family="Helvetica,sans-Serif" font-size="10.00">_init_end</text>
</a>
</g>
</g>
<!-- Node75&#45;&gt;Node91 -->
<g id="edge23" class="edge"><title>Node75&#45;&gt;Node91</title>
<path fill="none" stroke="midnightblue" d="M55.065,-151.27C67.2689,-126.352 94.4455,-76.5437 130,-45.5 134.14,-41.8855 138.792,-38.5889 143.63,-35.6149"/>
<polygon fill="midnightblue" stroke="midnightblue" points="145.491,-38.5834 152.469,-30.6111 142.042,-32.4918 145.491,-38.5834"/>
</g>
<!-- Node93 -->
<g id="node19" class="node"><title>Node93</title>
<g id="a_node19"><a xlink:href="../../d1/d85/namespacemom__restart.html#aec60d8a437fc858db4a020f9985b449d" target="_top" xlink:title="mom_restart::restore\l_state">
<polygon fill="white" stroke="black" points="145.5,-279.5 145.5,-309.5 237.5,-309.5 237.5,-279.5 145.5,-279.5"/>
<text text-anchor="start" x="153.5" y="-297.5" font-family="Helvetica,sans-Serif" font-size="10.00">mom_restart::restore</text>
<text text-anchor="middle" x="191.5" y="-286.5" font-family="Helvetica,sans-Serif" font-size="10.00">_state</text>
</a>
</g>
</g>
<!-- Node75&#45;&gt;Node93 -->
<g id="edge25" class="edge"><title>Node75&#45;&gt;Node93</title>
<path fill="none" stroke="midnightblue" d="M60.4484,-181.614C75.7886,-199.767 103.133,-230.627 130,-253.5 138.42,-260.668 148.118,-267.707 157.249,-273.874"/>
<polygon fill="midnightblue" stroke="midnightblue" points="155.494,-276.91 165.769,-279.496 159.349,-271.067 155.494,-276.91"/>
</g>
<!-- Node96 -->
<g id="node22" class="node"><title>Node96</title>
<g id="a_node22"><a xlink:href="../../d5/d89/namespacemom__io.html#ae7dd72cf77d5179d387ba16153af1b80" target="_top" xlink:title="Returns a directory name that is terminated with a &quot;/&quot; or &quot;./&quot; if the argument is an empty string...">
<polygon fill="white" stroke="black" points="305.5,-176 305.5,-195 380.5,-195 380.5,-176 305.5,-176"/>
<text text-anchor="middle" x="343" y="-183" font-family="Helvetica,sans-Serif" font-size="10.00">mom_io::slasher</text>
</a>
</g>
</g>
<!-- Node75&#45;&gt;Node96 -->
<g id="edge31" class="edge"><title>Node75&#45;&gt;Node96</title>
<path fill="none" stroke="midnightblue" d="M94.2609,-169.49C149.103,-173.034 239.989,-178.907 295.106,-182.469"/>
<polygon fill="midnightblue" stroke="midnightblue" points="295.093,-185.976 305.298,-183.128 295.545,-178.99 295.093,-185.976"/>
</g>
<!-- Node97 -->
<g id="node23" class="node"><title>Node97</title>
<g id="a_node23"><a xlink:href="../../db/d8c/namespaceuser__surface__forcing.html#aadd1db23ad3bade1ef44fb7d61ccb32f" target="_top" xlink:title="user_surface_forcing\l::user_surface_forcing_init">
<polygon fill="white" stroke="black" points="136.5,-88.5 136.5,-118.5 246.5,-118.5 246.5,-88.5 136.5,-88.5"/>
<text text-anchor="start" x="144.5" y="-106.5" font-family="Helvetica,sans-Serif" font-size="10.00">user_surface_forcing</text>
<text text-anchor="middle" x="191.5" y="-95.5" font-family="Helvetica,sans-Serif" font-size="10.00">::user_surface_forcing_init</text>
</a>
</g>
</g>
<!-- Node75&#45;&gt;Node97 -->
<g id="edge33" class="edge"><title>Node75&#45;&gt;Node97</title>
<path fill="none" stroke="midnightblue" d="M82.1323,-151.41C101.554,-142.824 126.08,-131.98 146.886,-122.782"/>
<polygon fill="midnightblue" stroke="midnightblue" points="148.422,-125.93 156.152,-118.685 145.591,-119.528 148.422,-125.93"/>
</g>
<!-- Node77&#45;&gt;Node78 -->
<g id="edge3" class="edge"><title>Node77&#45;&gt;Node78</title>
<path fill="none" stroke="midnightblue" d="M235.738,-225.282C277.233,-220.983 341.596,-213.654 397,-204.5 408.454,-202.608 420.655,-200.279 432.28,-197.908"/>
<polygon fill="midnightblue" stroke="midnightblue" points="433.235,-201.284 442.314,-195.824 431.811,-194.431 433.235,-201.284"/>
</g>
<!-- Node80 -->
<g id="node6" class="node"><title>Node80</title>
<g id="a_node6"><a xlink:href="../../d9/def/namespacemom__file__parser.html#abecae1b9386aafa17aec927af1f8c448" target="_top" xlink:title="mom_file_parser::open\l_param_file">
<polygon fill="white" stroke="black" points="293.5,-340.5 293.5,-370.5 392.5,-370.5 392.5,-340.5 293.5,-340.5"/>
<text text-anchor="start" x="301.5" y="-358.5" font-family="Helvetica,sans-Serif" font-size="10.00">mom_file_parser::open</text>
<text text-anchor="middle" x="343" y="-347.5" font-family="Helvetica,sans-Serif" font-size="10.00">_param_file</text>
</a>
</g>
</g>
<!-- Node77&#45;&gt;Node80 -->
<g id="edge5" class="edge"><title>Node77&#45;&gt;Node80</title>
<path fill="none" stroke="midnightblue" d="M216.715,-244.581C228.05,-251.972 241.546,-261.257 253,-270.5 277.224,-290.049 302.7,-314.876 320.159,-332.643"/>
<polygon fill="midnightblue" stroke="midnightblue" points="318.098,-335.543 327.583,-340.265 323.112,-330.659 318.098,-335.543"/>
</g>
<!-- Node79 -->
<g id="node5" class="node"><title>Node79</title>
<g id="a_node5"><a xlink:href="../../d0/de6/namespacemom__error__handler.html#ad5f00a53059c72fe2332d1436c80ca71" target="_top" xlink:title="mom_error_handler::\lis_root_pe">
<polygon fill="white" stroke="black" points="817.5,-267.5 817.5,-297.5 910.5,-297.5 910.5,-267.5 817.5,-267.5"/>
<text text-anchor="start" x="825.5" y="-285.5" font-family="Helvetica,sans-Serif" font-size="10.00">mom_error_handler::</text>
<text text-anchor="middle" x="864" y="-274.5" font-family="Helvetica,sans-Serif" font-size="10.00">is_root_pe</text>
</a>
</g>
</g>
<!-- Node78&#45;&gt;Node79 -->
<g id="edge4" class="edge"><title>Node78&#45;&gt;Node79</title>
<path fill="none" stroke="midnightblue" d="M535.799,-190.475C586.866,-196.757 671.547,-209.376 742,-230.5 770.296,-238.984 800.851,-252.149 824.177,-263.11"/>
<polygon fill="midnightblue" stroke="midnightblue" points="822.849,-266.354 833.382,-267.496 825.86,-260.035 822.849,-266.354"/>
</g>
<!-- Node80&#45;&gt;Node79 -->
<g id="edge6" class="edge"><title>Node80&#45;&gt;Node79</title>
<path fill="none" stroke="midnightblue" d="M372.527,-340.407C416.041,-318.328 502.26,-278.247 581,-263.5 651.333,-250.328 670.661,-257.933 742,-263.5 763.4,-265.17 786.737,-268.477 807.156,-271.871"/>
<polygon fill="midnightblue" stroke="midnightblue" points="806.786,-275.358 817.233,-273.591 807.964,-268.458 806.786,-275.358"/>
</g>
<!-- Node81 -->
<g id="node7" class="node"><title>Node81</title>
<g id="a_node7"><a xlink:href="../../df/dfe/MOM__memory_8h.html#ae22791a326f7ecd05017238a41eea3a8" target="_top" xlink:title="number">
<polygon fill="white" stroke="black" points="467,-220 467,-239 511,-239 511,-220 467,-220"/>
<text text-anchor="middle" x="489" y="-227" font-family="Helvetica,sans-Serif" font-size="10.00">number</text>
</a>
</g>
</g>
<!-- Node80&#45;&gt;Node81 -->
<g id="edge7" class="edge"><title>Node80&#45;&gt;Node81</title>
<path fill="none" stroke="midnightblue" d="M377.828,-340.339C384.728,-336.205 391.539,-331.25 397,-325.5 421.639,-299.56 407.05,-278.13 433,-253.5 439.863,-246.986 448.778,-242.074 457.427,-238.446"/>
<polygon fill="midnightblue" stroke="midnightblue" points="458.816,-241.663 466.953,-234.879 456.361,-235.108 458.816,-241.663"/>
</g>
<!-- Node82 -->
<g id="node8" class="node"><title>Node82</title>
<g id="a_node8"><a xlink:href="../../d9/def/namespacemom__file__parser.html#a7abfd98d7f0831fc0d1f3747a68f1be9" target="_top" xlink:title="mom_file_parser::populate\l_param_data">
<polygon fill="white" stroke="black" points="433,-350.5 433,-380.5 545,-380.5 545,-350.5 433,-350.5"/>
<text text-anchor="start" x="441" y="-368.5" font-family="Helvetica,sans-Serif" font-size="10.00">mom_file_parser::populate</text>
<text text-anchor="middle" x="489" y="-357.5" font-family="Helvetica,sans-Serif" font-size="10.00">_param_data</text>
</a>
</g>
</g>
<!-- Node80&#45;&gt;Node82 -->
<g id="edge8" class="edge"><title>Node80&#45;&gt;Node82</title>
<path fill="none" stroke="midnightblue" d="M392.752,-358.886C402.421,-359.557 412.716,-360.272 422.83,-360.974"/>
<polygon fill="midnightblue" stroke="midnightblue" points="422.635,-364.469 432.853,-361.67 423.12,-357.486 422.635,-364.469"/>
</g>
<!-- Node82&#45;&gt;Node79 -->
<g id="edge10" class="edge"><title>Node82&#45;&gt;Node79</title>
<path fill="none" stroke="midnightblue" d="M545.253,-379.678C597.462,-390.423 677.215,-399.894 742,-377.5 783.275,-363.233 821.188,-328.433 843.195,-305.152"/>
<polygon fill="midnightblue" stroke="midnightblue" points="845.821,-307.467 850.03,-297.744 840.676,-302.72 845.821,-307.467"/>
</g>
<!-- Node83 -->
<g id="node9" class="node"><title>Node83</title>
<g id="a_node9"><a xlink:href="../../d9/def/namespacemom__file__parser.html#a99c426fd23fc4df0c4d05e33039e0a66" target="_top" xlink:title="mom_file_parser::closemultilinecomment">
<polygon fill="white" stroke="black" points="581,-273 581,-292 742,-292 742,-273 581,-273"/>
<text text-anchor="middle" x="661.5" y="-280" font-family="Helvetica,sans-Serif" font-size="10.00">mom_file_parser::closemultilinecomment</text>
</a>
</g>
</g>
<!-- Node82&#45;&gt;Node83 -->
<g id="edge9" class="edge"><title>Node82&#45;&gt;Node83</title>
<path fill="none" stroke="midnightblue" d="M507.237,-350.337C524.682,-335.758 553.006,-314.128 581,-301.5 586.386,-299.07 592.124,-296.928 597.956,-295.045"/>
<polygon fill="midnightblue" stroke="midnightblue" points="599.227,-298.318 607.814,-292.113 597.232,-291.609 599.227,-298.318"/>
</g>
<!-- Node84 -->
<g id="node10" class="node"><title>Node84</title>
<g id="a_node10"><a xlink:href="../../d9/def/namespacemom__file__parser.html#ab4b89d9420e174185db1c6aa3feb948b" target="_top" xlink:title="mom_file_parser::lastnoncommentnonblank">
<polygon fill="white" stroke="black" points="778,-463 778,-482 950,-482 950,-463 778,-463"/>
<text text-anchor="middle" x="864" y="-470" font-family="Helvetica,sans-Serif" font-size="10.00">mom_file_parser::lastnoncommentnonblank</text>
</a>
</g>
</g>
<!-- Node82&#45;&gt;Node84 -->
<g id="edge11" class="edge"><title>Node82&#45;&gt;Node84</title>
<path fill="none" stroke="midnightblue" d="M500.239,-380.608C515.219,-401.28 545.248,-437.622 581,-453.5 639.381,-479.429 711.311,-483.9 767.913,-482.032"/>
<polygon fill="midnightblue" stroke="midnightblue" points="768.084,-485.528 777.936,-481.63 767.804,-478.533 768.084,-485.528"/>
</g>
<!-- Node86 -->
<g id="node12" class="node"><title>Node86</title>
<g id="a_node12"><a xlink:href="../../d9/def/namespacemom__file__parser.html#a476a2649ce161e38088588e07f7df130" target="_top" xlink:title="mom_file_parser::openmultilinecomment">
<polygon fill="white" stroke="black" points="783.5,-520 783.5,-539 944.5,-539 944.5,-520 783.5,-520"/>
<text text-anchor="middle" x="864" y="-527" font-family="Helvetica,sans-Serif" font-size="10.00">mom_file_parser::openmultilinecomment</text>
</a>
</g>
</g>
<!-- Node82&#45;&gt;Node86 -->
<g id="edge13" class="edge"><title>Node82&#45;&gt;Node86</title>
<path fill="none" stroke="midnightblue" d="M497.306,-380.901C510.274,-406.403 539.874,-457.01 581,-481.5 638.864,-515.957 714.554,-527.378 772.948,-530.499"/>
<polygon fill="midnightblue" stroke="midnightblue" points="773.121,-534.011 783.272,-530.975 773.444,-527.018 773.121,-534.011"/>
</g>
<!-- Node87 -->
<g id="node13" class="node"><title>Node87</title>
<g id="a_node13"><a xlink:href="../../d9/def/namespacemom__file__parser.html#ae0b982cc161173a401291757a6677373" target="_top" xlink:title="mom_file_parser::removecomments">
<polygon fill="white" stroke="black" points="589,-425 589,-444 734,-444 734,-425 589,-425"/>
<text text-anchor="middle" x="661.5" y="-432" font-family="Helvetica,sans-Serif" font-size="10.00">mom_file_parser::removecomments</text>
</a>
</g>
</g>
<!-- Node82&#45;&gt;Node87 -->
<g id="edge15" class="edge"><title>Node82&#45;&gt;Node87</title>
<path fill="none" stroke="midnightblue" d="M517.337,-380.507C535.131,-389.9 559.035,-401.823 581,-410.5 591.786,-414.761 603.643,-418.713 614.832,-422.131"/>
<polygon fill="midnightblue" stroke="midnightblue" points="613.867,-425.495 624.45,-424.991 615.862,-418.786 613.867,-425.495"/>
</g>
<!-- Node88 -->
<g id="node14" class="node"><title>Node88</title>
<g id="a_node14"><a xlink:href="../../d9/def/namespacemom__file__parser.html#a9813087789e0924f363d7f67768c7f42" target="_top" xlink:title="mom_file_parser::replacetabs">
<polygon fill="white" stroke="black" points="600.5,-349 600.5,-368 722.5,-368 722.5,-349 600.5,-349"/>
<text text-anchor="middle" x="661.5" y="-356" font-family="Helvetica,sans-Serif" font-size="10.00">mom_file_parser::replacetabs</text>
</a>
</g>
</g>
<!-- Node82&#45;&gt;Node88 -->
<g id="edge17" class="edge"><title>Node82&#45;&gt;Node88</title>
<path fill="none" stroke="midnightblue" d="M545.356,-363.227C559.656,-362.64 575.241,-362 590.193,-361.387"/>
<polygon fill="midnightblue" stroke="midnightblue" points="590.571,-364.874 600.419,-360.967 590.284,-357.88 590.571,-364.874"/>
</g>
<!-- Node89 -->
<g id="node15" class="node"><title>Node89</title>
<g id="a_node15"><a xlink:href="../../d9/def/namespacemom__file__parser.html#a3ad322925f44e8cb48c4e652634f6f93" target="_top" xlink:title="mom_file_parser::simplifywhitespace">
<polygon fill="white" stroke="black" points="588.5,-311 588.5,-330 734.5,-330 734.5,-311 588.5,-311"/>
<text text-anchor="middle" x="661.5" y="-318" font-family="Helvetica,sans-Serif" font-size="10.00">mom_file_parser::simplifywhitespace</text>
</a>
</g>
</g>
<!-- Node82&#45;&gt;Node89 -->
<g id="edge18" class="edge"><title>Node82&#45;&gt;Node89</title>
<path fill="none" stroke="midnightblue" d="M541.387,-350.394C554.289,-346.718 568.126,-342.876 581,-339.5 590.072,-337.121 599.76,-334.704 609.139,-332.427"/>
<polygon fill="midnightblue" stroke="midnightblue" points="610.248,-335.76 619.152,-330.02 608.611,-328.954 610.248,-335.76"/>
</g>
<!-- Node85 -->
<g id="node11" class="node"><title>Node85</title>
<g id="a_node11"><a xlink:href="../../d9/def/namespacemom__file__parser.html#a000fd0a0681f9e73481ef2663154df78" target="_top" xlink:title="mom_file_parser::lastnoncommentindex">
<polygon fill="white" stroke="black" points="986,-491 986,-510 1144,-510 1144,-491 986,-491"/>
<text text-anchor="middle" x="1065" y="-498" font-family="Helvetica,sans-Serif" font-size="10.00">mom_file_parser::lastnoncommentindex</text>
</a>
</g>
</g>
<!-- Node84&#45;&gt;Node85 -->
<g id="edge12" class="edge"><title>Node84&#45;&gt;Node85</title>
<path fill="none" stroke="midnightblue" d="M932.65,-482.019C949.793,-484.431 968.345,-487.041 985.957,-489.519"/>
<polygon fill="midnightblue" stroke="midnightblue" points="985.809,-493.033 996.199,-490.96 986.784,-486.101 985.809,-493.033"/>
</g>
<!-- Node86&#45;&gt;Node85 -->
<g id="edge14" class="edge"><title>Node86&#45;&gt;Node85</title>
<path fill="none" stroke="midnightblue" d="M930.436,-519.964C948.968,-517.263 969.294,-514.301 988.375,-511.521"/>
<polygon fill="midnightblue" stroke="midnightblue" points="989.134,-514.947 998.525,-510.042 988.125,-508.02 989.134,-514.947"/>
</g>
<!-- Node87&#45;&gt;Node84 -->
<g id="edge16" class="edge"><title>Node87&#45;&gt;Node84</title>
<path fill="none" stroke="midnightblue" d="M712.836,-444.04C740.126,-449.212 774.042,-455.64 802.733,-461.078"/>
<polygon fill="midnightblue" stroke="midnightblue" points="802.167,-464.533 812.643,-462.956 803.47,-457.655 802.167,-464.533"/>
</g>
<!-- Node89&#45;&gt;Node79 -->
<g id="edge19" class="edge"><title>Node89&#45;&gt;Node79</title>
<path fill="none" stroke="midnightblue" d="M712.836,-310.96C741.579,-305.512 777.672,-298.672 807.268,-293.063"/>
<polygon fill="midnightblue" stroke="midnightblue" points="808.27,-296.435 817.443,-291.134 806.966,-289.558 808.27,-296.435"/>
</g>
<!-- Node90&#45;&gt;Node79 -->
<g id="edge21" class="edge"><title>Node90&#45;&gt;Node79</title>
<path fill="none" stroke="midnightblue" d="M389.121,-74.9848C464.908,-91.9973 621.314,-131.79 742,-193.5 778.139,-211.979 815.062,-240.888 838.457,-260.713"/>
<polygon fill="midnightblue" stroke="midnightblue" points="836.278,-263.454 846.144,-267.314 840.838,-258.144 836.278,-263.454"/>
</g>
<!-- Node92 -->
<g id="node18" class="node"><title>Node92</title>
<g id="a_node18"><a xlink:href="../../d1/d85/namespacemom__restart.html#ab1ebc8fc62c81dd175b09d376ca2a564" target="_top" xlink:title="mom_restart::restart_end">
<polygon fill="white" stroke="black" points="289,-6 289,-25 397,-25 397,-6 289,-6"/>
<text text-anchor="middle" x="343" y="-13" font-family="Helvetica,sans-Serif" font-size="10.00">mom_restart::restart_end</text>
</a>
</g>
</g>
<!-- Node91&#45;&gt;Node92 -->
<g id="edge24" class="edge"><title>Node91&#45;&gt;Node92</title>
<path fill="none" stroke="midnightblue" d="M236.546,-15.5C249.715,-15.5 264.422,-15.5 278.575,-15.5"/>
<polygon fill="midnightblue" stroke="midnightblue" points="278.752,-19.0001 288.752,-15.5 278.752,-12.0001 278.752,-19.0001"/>
</g>
<!-- Node93&#45;&gt;Node78 -->
<g id="edge28" class="edge"><title>Node93&#45;&gt;Node78</title>
<path fill="none" stroke="midnightblue" d="M237.621,-306.846C281.986,-316.193 349.74,-322.708 397,-291.5 429.874,-269.791 405.261,-238.474 433,-210.5 434.412,-209.076 435.921,-207.725 437.503,-206.444"/>
<polygon fill="midnightblue" stroke="midnightblue" points="439.696,-209.182 445.925,-200.612 435.711,-203.427 439.696,-209.182"/>
</g>
<!-- Node93&#45;&gt;Node79 -->
<g id="edge26" class="edge"><title>Node93&#45;&gt;Node79</title>
<path fill="none" stroke="midnightblue" d="M237.658,-307.889C243.344,-311.011 248.673,-314.833 253,-319.5 287.974,-357.222 248.624,-397.626 289,-429.5 447.249,-554.425 562.935,-546.153 742,-453.5 802.022,-422.443 838.661,-346.374 854.238,-307.003"/>
<polygon fill="midnightblue" stroke="midnightblue" points="857.528,-308.2 857.829,-297.609 850.989,-305.701 857.528,-308.2"/>
</g>
<!-- Node94 -->
<g id="node20" class="node"><title>Node94</title>
<g id="a_node20"><a xlink:href="../../df/d46/namespacemom__string__functions.html#a4d76e9e8c2cd53f210b02006924a9212" target="_top" xlink:title="mom_string_functions\l::lowercase">
<polygon fill="white" stroke="black" points="295.5,-389.5 295.5,-419.5 390.5,-419.5 390.5,-389.5 295.5,-389.5"/>
<text text-anchor="start" x="303.5" y="-407.5" font-family="Helvetica,sans-Serif" font-size="10.00">mom_string_functions</text>
<text text-anchor="middle" x="343" y="-396.5" font-family="Helvetica,sans-Serif" font-size="10.00">::lowercase</text>
</a>
</g>
</g>
<!-- Node93&#45;&gt;Node94 -->
<g id="edge27" class="edge"><title>Node93&#45;&gt;Node94</title>
<path fill="none" stroke="midnightblue" d="M237.713,-309.282C243.192,-312.167 248.451,-315.552 253,-319.5 276.776,-340.133 265.572,-359.473 289,-380.5 290.292,-381.66 291.649,-382.772 293.058,-383.837"/>
<polygon fill="midnightblue" stroke="midnightblue" points="291.299,-386.87 301.577,-389.442 295.146,-381.022 291.299,-386.87"/>
</g>
<!-- Node95 -->
<g id="node21" class="node"><title>Node95</title>
<g id="a_node21"><a xlink:href="../../d1/d85/namespacemom__restart.html#a4b143fb18dab7c0825e426fbf9532623" target="_top" xlink:title="mom_restart::restart\l_error">
<polygon fill="white" stroke="black" points="298,-252.5 298,-282.5 388,-282.5 388,-252.5 298,-252.5"/>
<text text-anchor="start" x="306" y="-270.5" font-family="Helvetica,sans-Serif" font-size="10.00">mom_restart::restart</text>
<text text-anchor="middle" x="343" y="-259.5" font-family="Helvetica,sans-Serif" font-size="10.00">_error</text>
</a>
</g>
</g>
<!-- Node93&#45;&gt;Node95 -->
<g id="edge29" class="edge"><title>Node93&#45;&gt;Node95</title>
<path fill="none" stroke="midnightblue" d="M237.761,-286.326C253.56,-283.472 271.453,-280.241 287.899,-277.271"/>
<polygon fill="midnightblue" stroke="midnightblue" points="288.702,-280.682 297.921,-275.461 287.458,-273.794 288.702,-280.682"/>
</g>
<!-- Node95&#45;&gt;Node78 -->
<g id="edge30" class="edge"><title>Node95&#45;&gt;Node78</title>
<path fill="none" stroke="midnightblue" d="M372.183,-252.433C380.32,-247.847 389.125,-242.651 397,-237.5 413.737,-226.551 415.795,-220.698 433,-210.5 436.164,-208.625 439.492,-206.794 442.882,-205.031"/>
<polygon fill="midnightblue" stroke="midnightblue" points="444.525,-208.123 451.923,-200.539 441.41,-201.854 444.525,-208.123"/>
</g>
<!-- Node96&#45;&gt;Node78 -->
<g id="edge32" class="edge"><title>Node96&#45;&gt;Node78</title>
<path fill="none" stroke="midnightblue" d="M380.71,-185.5C396.383,-185.5 415.019,-185.5 432.327,-185.5"/>
<polygon fill="midnightblue" stroke="midnightblue" points="432.332,-189 442.332,-185.5 432.332,-182 432.332,-189"/>
</g>
<!-- Node97&#45;&gt;Node78 -->
<g id="edge34" class="edge"><title>Node97&#45;&gt;Node78</title>
<path fill="none" stroke="midnightblue" d="M246.76,-105.953C288.742,-109.152 347.817,-116.521 397,-133.5 418.824,-141.034 441.369,-153.874 458.559,-164.909"/>
<polygon fill="midnightblue" stroke="midnightblue" points="456.75,-167.908 467.028,-170.478 460.596,-162.059 456.75,-167.908"/>
</g>
<!-- Node97&#45;&gt;Node90 -->
<g id="edge35" class="edge"><title>Node97&#45;&gt;Node90</title>
<path fill="none" stroke="midnightblue" d="M246.896,-89.6736C259.936,-86.3592 273.87,-82.8174 286.939,-79.4953"/>
<polygon fill="midnightblue" stroke="midnightblue" points="287.907,-82.8609 296.736,-77.0052 286.182,-76.0766 287.907,-82.8609"/>
</g>
</g>
</svg>
        <g id="navigator" transform="translate(0 0)" fill="#404254">
                <rect fill="#f2f5e9" fill-opacity="0.5" stroke="#606060" stroke-width=".5" x="0" y="0" width="60" height="60"/>
                <use id="zoomplus" xlink:href="#zoomPlus" x="17" y="9" onmousedown="handleZoom(evt,'in')"/>
                <use id="zoomminus" xlink:href="#zoomMin" x="42" y="9" onmousedown="handleZoom(evt,'out')"/>
                <use id="reset" xlink:href="#resetDef" x="30" y="36" onmousedown="handleReset()"/>
                <g id="arrowUp" xlink:href="#dirArrow" transform="translate(30 24)" onmousedown="handlePan(0,-1)">
                  <use xlink:href="#rim" fill="#404040">
                        <set attributeName="fill" to="#808080" begin="arrowUp.mouseover" end="arrowUp.mouseout"/>
                  </use>
                  <path fill="none" stroke="white" stroke-width="1.5" d="M0,-3.0v7 M-2.5,-0.5L0,-3.0L2.5,-0.5"/>
                </g>
                <g id="arrowRight" xlink:href="#dirArrow" transform="rotate(90) translate(36 -43)" onmousedown="handlePan(1,0)">
                  <use xlink:href="#rim" fill="#404040">
                        <set attributeName="fill" to="#808080" begin="arrowRight.mouseover" end="arrowRight.mouseout"/>
                  </use>
                  <path fill="none" stroke="white" stroke-width="1.5" d="M0,-3.0v7 M-2.5,-0.5L0,-3.0L2.5,-0.5"/>
                </g>
                <g id="arrowDown" xlink:href="#dirArrow" transform="rotate(180) translate(-30 -48)" onmousedown="handlePan(0,1)">
                  <use xlink:href="#rim" fill="#404040">
                        <set attributeName="fill" to="#808080" begin="arrowDown.mouseover" end="arrowDown.mouseout"/>
                  </use>
                  <path fill="none" stroke="white" stroke-width="1.5" d="M0,-3.0v7 M-2.5,-0.5L0,-3.0L2.5,-0.5"/>
                </g>
                <g id="arrowLeft" xlink:href="#dirArrow" transform="rotate(270) translate(-36 17)" onmousedown="handlePan(-1,0)">
                  <use xlink:href="#rim" fill="#404040">
                        <set attributeName="fill" to="#808080" begin="arrowLeft.mouseover" end="arrowLeft.mouseout"/>
                  </use>
                  <path fill="none" stroke="white" stroke-width="1.5" d="M0,-3.0v7 M-2.5,-0.5L0,-3.0L2.5,-0.5"/>
                </g>
        </g>
        <svg viewBox="0 0 15 15" width="100%" height="30px" preserveAspectRatio="xMaxYMin meet">
         <g id="arrow_out" transform="scale(0.3 0.3)">
          <a xlink:href="namespacemom__surface__forcing_ad01961191fdfc928f233901e285f4beb_cgraph_org.svg" target="_base">
           <rect id="button" ry="5" rx="5" y="6" x="6" height="38" width="38"
                fill="#f2f5e9" fill-opacity="0.5" stroke="#606060" stroke-width="1.0"/>
           <path id="arrow"
             d="M 11.500037,31.436501 C 11.940474,20.09759 22.043105,11.32322 32.158766,21.979434 L 37.068811,17.246167 C 37.068811,17.246167 37.088388,32 37.088388,32 L 22.160133,31.978069 C 22.160133,31.978069 26.997745,27.140456 26.997745,27.140456 C 18.528582,18.264221 13.291696,25.230495 11.500037,31.436501 z"
             style="fill:#404040;"/>
          </a>
         </g>
        </svg>
</svg>
