<?xml version="1.0" encoding="UTF-8" standalone="no"?>
<!DOCTYPE svg PUBLIC "-//W3C//DTD SVG 1.1//EN"
 "http://www.w3.org/Graphics/SVG/1.1/DTD/svg11.dtd">
<!-- Generated by graphviz version 2.38.0 (20140413.2041)
 -->
<!-- Title: mom_surface_forcing::wind_forcing_from_file Pages: 1 -->
<svg width="388pt" height="137pt"
 viewBox="0.00 0.00 388.00 137.00" xmlns="http://www.w3.org/2000/svg" xmlns:xlink="http://www.w3.org/1999/xlink">
<g id="graph0" class="graph" transform="scale(1 1) rotate(0) translate(4 133)">
<title>mom_surface_forcing::wind_forcing_from_file</title>
<polygon fill="white" stroke="none" points="-4,4 -4,-133 384,-133 384,4 -4,4"/>
<!-- Node126 -->
<g id="node1" class="node"><title>Node126</title>
<polygon fill="#bfbfbf" stroke="black" points="0,-49.5 0,-79.5 101,-79.5 101,-49.5 0,-49.5"/>
<text text-anchor="start" x="8" y="-67.5" font-family="Helvetica,sans-Serif" font-size="10.00">mom_surface_forcing</text>
<text text-anchor="middle" x="50.5" y="-56.5" font-family="Helvetica,sans-Serif" font-size="10.00">::wind_forcing_from_file</text>
</g>
<!-- Node127 -->
<g id="node2" class="node"><title>Node127</title>
<g id="a_node2"><a xlink:href="../../dd/dc3/namespacemom__forcing__type.html#a765fdabc0bc35293aba97b957d579919" target="_top" xlink:title="Conditionally allocate fields within the forcing type. ">
<polygon fill="white" stroke="black" points="137,-98.5 137,-128.5 251,-128.5 251,-98.5 137,-98.5"/>
<text text-anchor="start" x="145" y="-116.5" font-family="Helvetica,sans-Serif" font-size="10.00">mom_forcing_type::allocate</text>
<text text-anchor="middle" x="194" y="-105.5" font-family="Helvetica,sans-Serif" font-size="10.00">_forcing_type</text>
</a>
</g>
</g>
<!-- Node126&#45;&gt;Node127 -->
<g id="edge1" class="edge"><title>Node126&#45;&gt;Node127</title>
<path fill="none" stroke="midnightblue" d="M95.1093,-79.6014C109.231,-84.4917 125.053,-89.9707 139.791,-95.0744"/>
<polygon fill="midnightblue" stroke="midnightblue" points="138.696,-98.3991 149.291,-98.3641 140.987,-91.7844 138.696,-98.3991"/>
</g>
<!-- Node129 -->
<g id="node4" class="node"><title>Node129</title>
<g id="a_node4"><a xlink:href="../../d0/de6/namespacemom__error__handler.html#a460cfb79a06c29fc249952c2a3710d67" target="_top" xlink:title="mom_error_handler::\lmom_error">
<polygon fill="white" stroke="black" points="147.5,-49.5 147.5,-79.5 240.5,-79.5 240.5,-49.5 147.5,-49.5"/>
<text text-anchor="start" x="155.5" y="-67.5" font-family="Helvetica,sans-Serif" font-size="10.00">mom_error_handler::</text>
<text text-anchor="middle" x="194" y="-56.5" font-family="Helvetica,sans-Serif" font-size="10.00">mom_error</text>
</a>
</g>
</g>
<!-- Node126&#45;&gt;Node129 -->
<g id="edge3" class="edge"><title>Node126&#45;&gt;Node129</title>
<path fill="none" stroke="midnightblue" d="M101.388,-64.5C112.957,-64.5 125.344,-64.5 137.151,-64.5"/>
<polygon fill="midnightblue" stroke="midnightblue" points="137.343,-68.0001 147.343,-64.5 137.343,-61.0001 137.343,-68.0001"/>
</g>
<!-- Node131 -->
<g id="node6" class="node"><title>Node131</title>
<g id="a_node6"><a xlink:href="../../df/d46/namespacemom__string__functions.html#aca148baf726de2f028b7e7baad3c85d4" target="_top" xlink:title="mom_string_functions\l::uppercase">
<polygon fill="white" stroke="black" points="146.5,-0.5 146.5,-30.5 241.5,-30.5 241.5,-0.5 146.5,-0.5"/>
<text text-anchor="start" x="154.5" y="-18.5" font-family="Helvetica,sans-Serif" font-size="10.00">mom_string_functions</text>
<text text-anchor="middle" x="194" y="-7.5" font-family="Helvetica,sans-Serif" font-size="10.00">::uppercase</text>
</a>
</g>
</g>
<!-- Node126&#45;&gt;Node131 -->
<g id="edge5" class="edge"><title>Node126&#45;&gt;Node131</title>
<path fill="none" stroke="midnightblue" d="M95.1093,-49.3986C109.231,-44.5083 125.053,-39.0293 139.791,-33.9256"/>
<polygon fill="midnightblue" stroke="midnightblue" points="140.987,-37.2156 149.291,-30.6359 138.696,-30.6009 140.987,-37.2156"/>
</g>
<!-- Node128 -->
<g id="node3" class="node"><title>Node128</title>
<g id="a_node3"><a xlink:href="../../d5/ded/MOM__forcing__type_8F90.html#aede7c3d8c91ec3e8a8a3b68824a5e9e8" target="_top" xlink:title="myalloc">
<polygon fill="white" stroke="black" points="312,-104 312,-123 355,-123 355,-104 312,-104"/>
<text text-anchor="middle" x="333.5" y="-111" font-family="Helvetica,sans-Serif" font-size="10.00">myalloc</text>
</a>
</g>
</g>
<!-- Node127&#45;&gt;Node128 -->
<g id="edge2" class="edge"><title>Node127&#45;&gt;Node128</title>
<path fill="none" stroke="midnightblue" d="M251.323,-113.5C268.511,-113.5 286.771,-113.5 301.61,-113.5"/>
<polygon fill="midnightblue" stroke="midnightblue" points="301.747,-117 311.747,-113.5 301.747,-110 301.747,-117"/>
</g>
<!-- Node130 -->
<g id="node5" class="node"><title>Node130</title>
<g id="a_node5"><a xlink:href="../../d0/de6/namespacemom__error__handler.html#ad5f00a53059c72fe2332d1436c80ca71" target="_top" xlink:title="mom_error_handler::\lis_root_pe">
<polygon fill="white" stroke="black" points="287,-49.5 287,-79.5 380,-79.5 380,-49.5 287,-49.5"/>
<text text-anchor="start" x="295" y="-67.5" font-family="Helvetica,sans-Serif" font-size="10.00">mom_error_handler::</text>
<text text-anchor="middle" x="333.5" y="-56.5" font-family="Helvetica,sans-Serif" font-size="10.00">is_root_pe</text>
</a>
</g>
</g>
<!-- Node129&#45;&gt;Node130 -->
<g id="edge4" class="edge"><title>Node129&#45;&gt;Node130</title>
<path fill="none" stroke="midnightblue" d="M240.786,-64.5C252.266,-64.5 264.711,-64.5 276.622,-64.5"/>
<polygon fill="midnightblue" stroke="midnightblue" points="276.914,-68.0001 286.914,-64.5 276.914,-61.0001 276.914,-68.0001"/>
</g>
</g>
</svg>
