<?xml version="1.0" encoding="UTF-8" standalone="no"?>
<!DOCTYPE svg PUBLIC "-//W3C//DTD SVG 1.1//EN"
 "http://www.w3.org/Graphics/SVG/1.1/DTD/svg11.dtd">
<!-- Generated by graphviz version 2.38.0 (20140413.2041)
 -->
<!-- Title: mom_surface_forcing::buoyancy_forcing_allocate Pages: 1 -->
<svg width="503pt" height="137pt"
 viewBox="0.00 0.00 503.00 137.00" xmlns="http://www.w3.org/2000/svg" xmlns:xlink="http://www.w3.org/1999/xlink">
<g id="graph0" class="graph" transform="scale(1 1) rotate(0) translate(4 133)">
<title>mom_surface_forcing::buoyancy_forcing_allocate</title>
<polygon fill="white" stroke="none" points="-4,4 -4,-133 499,-133 499,4 -4,4"/>
<!-- Node4 -->
<g id="node1" class="node"><title>Node4</title>
<polygon fill="#bfbfbf" stroke="black" points="0,-49.5 0,-79.5 115,-79.5 115,-49.5 0,-49.5"/>
<text text-anchor="start" x="8" y="-67.5" font-family="Helvetica,sans-Serif" font-size="10.00">mom_surface_forcing</text>
<text text-anchor="middle" x="57.5" y="-56.5" font-family="Helvetica,sans-Serif" font-size="10.00">::buoyancy_forcing_allocate</text>
</g>
<!-- Node5 -->
<g id="node2" class="node"><title>Node5</title>
<g id="a_node2"><a xlink:href="../../dc/ded/namespacemom__surface__forcing.html#acca2bc9bf2a06c2ccfcacfe0686013d4" target="_top" xlink:title="mom_surface_forcing\l::buoyancy_forcing_from_files">
<polygon fill="white" stroke="black" points="151,-98.5 151,-128.5 273,-128.5 273,-98.5 151,-98.5"/>
<text text-anchor="start" x="159" y="-116.5" font-family="Helvetica,sans-Serif" font-size="10.00">mom_surface_forcing</text>
<text text-anchor="middle" x="212" y="-105.5" font-family="Helvetica,sans-Serif" font-size="10.00">::buoyancy_forcing_from_files</text>
</a>
</g>
</g>
<!-- Node4&#45;&gt;Node5 -->
<g id="edge1" class="edge"><title>Node4&#45;&gt;Node5</title>
<path fill="none" stroke="midnightblue" d="M115.327,-82.7591C131.411,-87.9273 148.732,-93.4924 164.156,-98.4484"/>
<polygon fill="midnightblue" stroke="midnightblue" points="116.091,-79.3284 105.499,-79.6014 113.949,-85.9928 116.091,-79.3284"/>
</g>
<!-- Node8 -->
<g id="node5" class="node"><title>Node8</title>
<g id="a_node5"><a xlink:href="../../dc/ded/namespacemom__surface__forcing.html#a04a68cf8f709d78372dda5507a1223b7" target="_top" xlink:title="mom_surface_forcing\l::buoyancy_forcing_linear">
<polygon fill="white" stroke="black" points="158.5,-49.5 158.5,-79.5 265.5,-79.5 265.5,-49.5 158.5,-49.5"/>
<text text-anchor="start" x="166.5" y="-67.5" font-family="Helvetica,sans-Serif" font-size="10.00">mom_surface_forcing</text>
<text text-anchor="middle" x="212" y="-56.5" font-family="Helvetica,sans-Serif" font-size="10.00">::buoyancy_forcing_linear</text>
</a>
</g>
</g>
<!-- Node4&#45;&gt;Node8 -->
<g id="edge4" class="edge"><title>Node4&#45;&gt;Node8</title>
<path fill="none" stroke="midnightblue" d="M125.359,-64.5C136.441,-64.5 147.791,-64.5 158.455,-64.5"/>
<polygon fill="midnightblue" stroke="midnightblue" points="125.285,-61.0001 115.285,-64.5 125.285,-68.0001 125.285,-61.0001"/>
</g>
<!-- Node9 -->
<g id="node6" class="node"><title>Node9</title>
<g id="a_node6"><a xlink:href="../../dc/ded/namespacemom__surface__forcing.html#a34cd389230cf9a9a2a620f5da6530474" target="_top" xlink:title="mom_surface_forcing\l::buoyancy_forcing_zero">
<polygon fill="white" stroke="black" points="160,-0.5 160,-30.5 264,-30.5 264,-0.5 160,-0.5"/>
<text text-anchor="start" x="168" y="-18.5" font-family="Helvetica,sans-Serif" font-size="10.00">mom_surface_forcing</text>
<text text-anchor="middle" x="212" y="-7.5" font-family="Helvetica,sans-Serif" font-size="10.00">::buoyancy_forcing_zero</text>
</a>
</g>
</g>
<!-- Node4&#45;&gt;Node9 -->
<g id="edge6" class="edge"><title>Node4&#45;&gt;Node9</title>
<path fill="none" stroke="midnightblue" d="M115.327,-46.2409C131.411,-41.0727 148.732,-35.5076 164.156,-30.5516"/>
<polygon fill="midnightblue" stroke="midnightblue" points="113.949,-43.0072 105.499,-49.3986 116.091,-49.6716 113.949,-43.0072"/>
</g>
<!-- Node6 -->
<g id="node3" class="node"><title>Node6</title>
<g id="a_node3"><a xlink:href="../../dc/ded/namespacemom__surface__forcing.html#ad4eeb543c0b616e42ddb7c0a37f03bf0" target="_top" xlink:title="mom_surface_forcing\l::set_forcing">
<polygon fill="white" stroke="black" points="309,-49.5 309,-79.5 403,-79.5 403,-49.5 309,-49.5"/>
<text text-anchor="start" x="317" y="-67.5" font-family="Helvetica,sans-Serif" font-size="10.00">mom_surface_forcing</text>
<text text-anchor="middle" x="356" y="-56.5" font-family="Helvetica,sans-Serif" font-size="10.00">::set_forcing</text>
</a>
</g>
</g>
<!-- Node5&#45;&gt;Node6 -->
<g id="edge2" class="edge"><title>Node5&#45;&gt;Node6</title>
<path fill="none" stroke="midnightblue" d="M266.292,-95.1104C281.078,-90.0084 296.957,-84.5289 311.137,-79.6359"/>
<polygon fill="midnightblue" stroke="midnightblue" points="265.075,-91.828 256.763,-98.3986 267.358,-98.4451 265.075,-91.828"/>
</g>
<!-- Node7 -->
<g id="node4" class="node"><title>Node7</title>
<g id="a_node4"><a xlink:href="../../de/dbc/MOM__driver_8F90.html#a08fffeb2d8e8acbf9ed4609be6d258c6" target="_top" xlink:title="mom_main">
<polygon fill="white" stroke="black" points="439,-55 439,-74 495,-74 495,-55 439,-55"/>
<text text-anchor="middle" x="467" y="-62" font-family="Helvetica,sans-Serif" font-size="10.00">mom_main</text>
</a>
</g>
</g>
<!-- Node6&#45;&gt;Node7 -->
<g id="edge3" class="edge"><title>Node6&#45;&gt;Node7</title>
<path fill="none" stroke="midnightblue" d="M413.297,-64.5C422.238,-64.5 431.114,-64.5 438.962,-64.5"/>
<polygon fill="midnightblue" stroke="midnightblue" points="413.226,-61.0001 403.226,-64.5 413.226,-68.0001 413.226,-61.0001"/>
</g>
<!-- Node8&#45;&gt;Node6 -->
<g id="edge5" class="edge"><title>Node8&#45;&gt;Node6</title>
<path fill="none" stroke="midnightblue" d="M275.88,-64.5C286.889,-64.5 298.162,-64.5 308.621,-64.5"/>
<polygon fill="midnightblue" stroke="midnightblue" points="275.876,-61.0001 265.876,-64.5 275.876,-68.0001 275.876,-61.0001"/>
</g>
<!-- Node9&#45;&gt;Node6 -->
<g id="edge7" class="edge"><title>Node9&#45;&gt;Node6</title>
<path fill="none" stroke="midnightblue" d="M266.292,-33.8896C281.078,-38.9916 296.957,-44.4711 311.137,-49.3641"/>
<polygon fill="midnightblue" stroke="midnightblue" points="267.358,-30.5549 256.763,-30.6014 265.075,-37.172 267.358,-30.5549"/>
</g>
</g>
</svg>
