<?xml version="1.0" encoding="UTF-8" standalone="no"?>
<!DOCTYPE svg PUBLIC "-//W3C//DTD SVG 1.1//EN"
 "http://www.w3.org/Graphics/SVG/1.1/DTD/svg11.dtd">
<!-- Generated by graphviz version 2.38.0 (20140413.2041)
 -->
<!-- Title: mom_surface_forcing::forcing_save_restart Pages: 1 -->
<svg width="396pt" height="127pt"
 viewBox="0.00 0.00 396.00 126.50" xmlns="http://www.w3.org/2000/svg" xmlns:xlink="http://www.w3.org/1999/xlink">
<g id="graph0" class="graph" transform="scale(1 1) rotate(0) translate(4 122.5)">
<title>mom_surface_forcing::forcing_save_restart</title>
<polygon fill="white" stroke="none" points="-4,4 -4,-122.5 392,-122.5 392,4 -4,4"/>
<!-- Node43 -->
<g id="node1" class="node"><title>Node43</title>
<polygon fill="#bfbfbf" stroke="black" points="0,-49.5 0,-79.5 94,-79.5 94,-49.5 0,-49.5"/>
<text text-anchor="start" x="8" y="-67.5" font-family="Helvetica,sans-Serif" font-size="10.00">mom_surface_forcing</text>
<text text-anchor="middle" x="47" y="-56.5" font-family="Helvetica,sans-Serif" font-size="10.00">::forcing_save_restart</text>
</g>
<!-- Node44 -->
<g id="node2" class="node"><title>Node44</title>
<g id="a_node2"><a xlink:href="../../de/dbc/MOM__driver_8F90.html#a08fffeb2d8e8acbf9ed4609be6d258c6" target="_top" xlink:title="mom_main">
<polygon fill="white" stroke="black" points="157.5,-99 157.5,-118 213.5,-118 213.5,-99 157.5,-99"/>
<text text-anchor="middle" x="185.5" y="-106" font-family="Helvetica,sans-Serif" font-size="10.00">mom_main</text>
</a>
</g>
</g>
<!-- Node43&#45;&gt;Node44 -->
<g id="edge1" class="edge"><title>Node43&#45;&gt;Node44</title>
<path fill="none" stroke="midnightblue" d="M103.757,-82.4731C122.289,-88.4468 142.094,-94.8305 157.45,-99.7807"/>
<polygon fill="midnightblue" stroke="midnightblue" points="104.804,-79.1332 94.2127,-79.3964 102.657,-85.7957 104.804,-79.1332"/>
</g>
<!-- Node45 -->
<g id="node3" class="node"><title>Node45</title>
<g id="a_node3"><a xlink:href="../../d5/dd4/namespaceocean__model__mod.html#a908a47d286b0257e91a253272926dc3d" target="_top" xlink:title="ocean_model_mod::ocean\l_model_restart">
<polygon fill="white" stroke="black" points="130,-49.5 130,-79.5 241,-79.5 241,-49.5 130,-49.5"/>
<text text-anchor="start" x="138" y="-67.5" font-family="Helvetica,sans-Serif" font-size="10.00">ocean_model_mod::ocean</text>
<text text-anchor="middle" x="185.5" y="-56.5" font-family="Helvetica,sans-Serif" font-size="10.00">_model_restart</text>
</a>
</g>
</g>
<!-- Node43&#45;&gt;Node45 -->
<g id="edge2" class="edge"><title>Node43&#45;&gt;Node45</title>
<path fill="none" stroke="midnightblue" d="M104.335,-64.5C112.765,-64.5 121.446,-64.5 129.84,-64.5"/>
<polygon fill="midnightblue" stroke="midnightblue" points="104.213,-61.0001 94.2127,-64.5 104.213,-68.0001 104.213,-61.0001"/>
</g>
<!-- Node46 -->
<g id="node4" class="node"><title>Node46</title>
<g id="a_node4"><a xlink:href="../../d5/dd4/namespaceocean__model__mod.html#ad969c968b1133584b9dcf48d78f51c01" target="_top" xlink:title="ocean_model_mod::ocean\l_model_save_restart">
<polygon fill="white" stroke="black" points="130,-0.5 130,-30.5 241,-30.5 241,-0.5 130,-0.5"/>
<text text-anchor="start" x="138" y="-18.5" font-family="Helvetica,sans-Serif" font-size="10.00">ocean_model_mod::ocean</text>
<text text-anchor="middle" x="185.5" y="-7.5" font-family="Helvetica,sans-Serif" font-size="10.00">_model_save_restart</text>
</a>
</g>
</g>
<!-- Node43&#45;&gt;Node46 -->
<g id="edge3" class="edge"><title>Node43&#45;&gt;Node46</title>
<path fill="none" stroke="midnightblue" d="M99.6346,-45.9645C113.731,-40.9041 128.835,-35.4823 142.336,-30.6359"/>
<polygon fill="midnightblue" stroke="midnightblue" points="98.2977,-42.7257 90.0683,-49.3986 100.663,-49.314 98.2977,-42.7257"/>
</g>
<!-- Node47 -->
<g id="node5" class="node"><title>Node47</title>
<g id="a_node5"><a xlink:href="../../d5/dd4/namespaceocean__model__mod.html#a276959acb69502491d4b3a5a83e596b8" target="_top" xlink:title="ocean_model_mod::ocean\l_model_end">
<polygon fill="white" stroke="black" points="277,-0.5 277,-30.5 388,-30.5 388,-0.5 277,-0.5"/>
<text text-anchor="start" x="285" y="-18.5" font-family="Helvetica,sans-Serif" font-size="10.00">ocean_model_mod::ocean</text>
<text text-anchor="middle" x="332.5" y="-7.5" font-family="Helvetica,sans-Serif" font-size="10.00">_model_end</text>
</a>
</g>
</g>
<!-- Node46&#45;&gt;Node47 -->
<g id="edge4" class="edge"><title>Node46&#45;&gt;Node47</title>
<path fill="none" stroke="midnightblue" d="M251.462,-15.5C259.859,-15.5 268.392,-15.5 276.604,-15.5"/>
<polygon fill="midnightblue" stroke="midnightblue" points="251.318,-12.0001 241.318,-15.5 251.318,-19.0001 251.318,-12.0001"/>
</g>
</g>
</svg>
