<?xml version="1.0" encoding="UTF-8" standalone="no"?>
<!DOCTYPE svg PUBLIC "-//W3C//DTD SVG 1.1//EN"
 "http://www.w3.org/Graphics/SVG/1.1/DTD/svg11.dtd">
<!-- Generated by graphviz version 2.38.0 (20140413.2041)
 -->
<!-- Title: mom_surface_forcing::wind_forcing_by_data_override Pages: 1 -->
<svg width="386pt" height="137pt"
 viewBox="0.00 0.00 386.00 137.00" xmlns="http://www.w3.org/2000/svg" xmlns:xlink="http://www.w3.org/1999/xlink">
<g id="graph0" class="graph" transform="scale(1 1) rotate(0) translate(4 133)">
<title>mom_surface_forcing::wind_forcing_by_data_override</title>
<polygon fill="white" stroke="none" points="-4,4 -4,-133 382,-133 382,4 -4,4"/>
<!-- Node113 -->
<g id="node1" class="node"><title>Node113</title>
<polygon fill="#bfbfbf" stroke="black" points="0,-44 0,-85 99,-85 99,-44 0,-44"/>
<text text-anchor="start" x="8" y="-73" font-family="Helvetica,sans-Serif" font-size="10.00">mom_surface_forcing</text>
<text text-anchor="start" x="8" y="-62" font-family="Helvetica,sans-Serif" font-size="10.00">::wind_forcing_by_data</text>
<text text-anchor="middle" x="49.5" y="-51" font-family="Helvetica,sans-Serif" font-size="10.00">_override</text>
</g>
<!-- Node114 -->
<g id="node2" class="node"><title>Node114</title>
<g id="a_node2"><a xlink:href="../../dd/dc3/namespacemom__forcing__type.html#a765fdabc0bc35293aba97b957d579919" target="_top" xlink:title="Conditionally allocate fields within the forcing type. ">
<polygon fill="white" stroke="black" points="135,-98.5 135,-128.5 249,-128.5 249,-98.5 135,-98.5"/>
<text text-anchor="start" x="143" y="-116.5" font-family="Helvetica,sans-Serif" font-size="10.00">mom_forcing_type::allocate</text>
<text text-anchor="middle" x="192" y="-105.5" font-family="Helvetica,sans-Serif" font-size="10.00">_forcing_type</text>
</a>
</g>
</g>
<!-- Node113&#45;&gt;Node114 -->
<g id="edge1" class="edge"><title>Node113&#45;&gt;Node114</title>
<path fill="none" stroke="midnightblue" d="M99.2458,-81.5003C111.877,-85.9056 125.536,-90.669 138.357,-95.1406"/>
<polygon fill="midnightblue" stroke="midnightblue" points="137.373,-98.5042 147.968,-98.4925 139.679,-91.8946 137.373,-98.5042"/>
</g>
<!-- Node116 -->
<g id="node4" class="node"><title>Node116</title>
<g id="a_node4"><a xlink:href="../../d0/de6/namespacemom__error__handler.html#a9cda07a87815f0e5594066162b4345c3" target="_top" xlink:title="Writes a message about entering a subroutine if call tree reporting is active. ">
<polygon fill="white" stroke="black" points="145.5,-49.5 145.5,-79.5 238.5,-79.5 238.5,-49.5 145.5,-49.5"/>
<text text-anchor="start" x="153.5" y="-67.5" font-family="Helvetica,sans-Serif" font-size="10.00">mom_error_handler::</text>
<text text-anchor="middle" x="192" y="-56.5" font-family="Helvetica,sans-Serif" font-size="10.00">calltree_enter</text>
</a>
</g>
</g>
<!-- Node113&#45;&gt;Node116 -->
<g id="edge3" class="edge"><title>Node113&#45;&gt;Node116</title>
<path fill="none" stroke="midnightblue" d="M99.2458,-64.5C110.77,-64.5 123.149,-64.5 134.968,-64.5"/>
<polygon fill="midnightblue" stroke="midnightblue" points="135.174,-68.0001 145.174,-64.5 135.174,-61.0001 135.174,-68.0001"/>
</g>
<!-- Node118 -->
<g id="node6" class="node"><title>Node118</title>
<g id="a_node6"><a xlink:href="../../d0/de6/namespacemom__error__handler.html#a88ea67781e2ed9b73ab7eac8ea5e8578" target="_top" xlink:title="Writes a message about leaving a subroutine if call tree reporting is active. ">
<polygon fill="white" stroke="black" points="145.5,-0.5 145.5,-30.5 238.5,-30.5 238.5,-0.5 145.5,-0.5"/>
<text text-anchor="start" x="153.5" y="-18.5" font-family="Helvetica,sans-Serif" font-size="10.00">mom_error_handler::</text>
<text text-anchor="middle" x="192" y="-7.5" font-family="Helvetica,sans-Serif" font-size="10.00">calltree_leave</text>
</a>
</g>
</g>
<!-- Node113&#45;&gt;Node118 -->
<g id="edge5" class="edge"><title>Node113&#45;&gt;Node118</title>
<path fill="none" stroke="midnightblue" d="M99.2458,-47.4997C111.877,-43.0944 125.536,-38.331 138.357,-33.8594"/>
<polygon fill="midnightblue" stroke="midnightblue" points="139.679,-37.1054 147.968,-30.5075 137.373,-30.4958 139.679,-37.1054"/>
</g>
<!-- Node115 -->
<g id="node3" class="node"><title>Node115</title>
<g id="a_node3"><a xlink:href="../../d5/ded/MOM__forcing__type_8F90.html#aede7c3d8c91ec3e8a8a3b68824a5e9e8" target="_top" xlink:title="myalloc">
<polygon fill="white" stroke="black" points="310,-104 310,-123 353,-123 353,-104 310,-104"/>
<text text-anchor="middle" x="331.5" y="-111" font-family="Helvetica,sans-Serif" font-size="10.00">myalloc</text>
</a>
</g>
</g>
<!-- Node114&#45;&gt;Node115 -->
<g id="edge2" class="edge"><title>Node114&#45;&gt;Node115</title>
<path fill="none" stroke="midnightblue" d="M249.323,-113.5C266.511,-113.5 284.771,-113.5 299.61,-113.5"/>
<polygon fill="midnightblue" stroke="midnightblue" points="299.747,-117 309.747,-113.5 299.747,-110 299.747,-117"/>
</g>
<!-- Node117 -->
<g id="node5" class="node"><title>Node117</title>
<g id="a_node5"><a xlink:href="../../d0/de6/namespacemom__error__handler.html#ad5f00a53059c72fe2332d1436c80ca71" target="_top" xlink:title="mom_error_handler::\lis_root_pe">
<polygon fill="white" stroke="black" points="285,-25.5 285,-55.5 378,-55.5 378,-25.5 285,-25.5"/>
<text text-anchor="start" x="293" y="-43.5" font-family="Helvetica,sans-Serif" font-size="10.00">mom_error_handler::</text>
<text text-anchor="middle" x="331.5" y="-32.5" font-family="Helvetica,sans-Serif" font-size="10.00">is_root_pe</text>
</a>
</g>
</g>
<!-- Node116&#45;&gt;Node117 -->
<g id="edge4" class="edge"><title>Node116&#45;&gt;Node117</title>
<path fill="none" stroke="midnightblue" d="M238.786,-56.5083C250.382,-54.4843 262.963,-52.2883 274.983,-50.1902"/>
<polygon fill="midnightblue" stroke="midnightblue" points="275.665,-53.6242 284.914,-48.4568 274.462,-46.7284 275.665,-53.6242"/>
</g>
<!-- Node118&#45;&gt;Node117 -->
<g id="edge6" class="edge"><title>Node118&#45;&gt;Node117</title>
<path fill="none" stroke="midnightblue" d="M238.786,-23.8246C250.382,-25.9331 262.963,-28.2205 274.983,-30.406"/>
<polygon fill="midnightblue" stroke="midnightblue" points="274.45,-33.8663 284.914,-32.2117 275.702,-26.9792 274.45,-33.8663"/>
</g>
</g>
</svg>
