<?xml version="1.0" encoding="UTF-8" standalone="no"?>
<!DOCTYPE svg PUBLIC "-//W3C//DTD SVG 1.1//EN"
 "http://www.w3.org/Graphics/SVG/1.1/DTD/svg11.dtd">
<!-- Generated by graphviz version 2.38.0 (20140413.2041)
 -->
<!-- Title: mom_legacy_barotropic::find_face_areas Pages: 1 -->
<svg width="386pt" height="118pt"
 viewBox="0.00 0.00 386.00 117.50" xmlns="http://www.w3.org/2000/svg" xmlns:xlink="http://www.w3.org/1999/xlink">
<g id="graph0" class="graph" transform="scale(1 1) rotate(0) translate(4 113.5)">
<title>mom_legacy_barotropic::find_face_areas</title>
<polygon fill="white" stroke="none" points="-4,4 -4,-113.5 382,-113.5 382,4 -4,4"/>
<!-- Node18 -->
<g id="node1" class="node"><title>Node18</title>
<polygon fill="#bfbfbf" stroke="black" points="0,-55 0,-85 102,-85 102,-55 0,-55"/>
<text text-anchor="start" x="8" y="-73" font-family="Helvetica,sans-Serif" font-size="10.00">mom_legacy_barotropic</text>
<text text-anchor="middle" x="51" y="-62" font-family="Helvetica,sans-Serif" font-size="10.00">::find_face_areas</text>
</g>
<!-- Node19 -->
<g id="node2" class="node"><title>Node19</title>
<g id="a_node2"><a xlink:href="../../d5/d65/namespacemom__legacy__barotropic.html#aa9771b1e4e725afa95ab8ada8538a064" target="_top" xlink:title="mom_legacy_barotropic\l::legacy_barotropic_init">
<polygon fill="white" stroke="black" points="276,-79 276,-109 378,-109 378,-79 276,-79"/>
<text text-anchor="start" x="284" y="-97" font-family="Helvetica,sans-Serif" font-size="10.00">mom_legacy_barotropic</text>
<text text-anchor="middle" x="327" y="-86" font-family="Helvetica,sans-Serif" font-size="10.00">::legacy_barotropic_init</text>
</a>
</g>
</g>
<!-- Node18&#45;&gt;Node19 -->
<g id="edge1" class="edge"><title>Node18&#45;&gt;Node19</title>
<path fill="none" stroke="midnightblue" d="M104.608,-87.8339C115.523,-90.8126 127.039,-93.4392 138,-95 184.37,-101.603 237.827,-100.489 275.855,-98.2352"/>
<polygon fill="midnightblue" stroke="midnightblue" points="105.363,-84.4095 94.7858,-85.0198 103.435,-91.1388 105.363,-84.4095"/>
</g>
<!-- Node20 -->
<g id="node3" class="node"><title>Node20</title>
<g id="a_node3"><a xlink:href="../../d5/d65/namespacemom__legacy__barotropic.html#ae039a54a1c82e3f4f53539e5dc2de6ea" target="_top" xlink:title="mom_legacy_barotropic\l::legacy_btstep">
<polygon fill="white" stroke="black" points="138,-55 138,-85 240,-85 240,-55 138,-55"/>
<text text-anchor="start" x="146" y="-73" font-family="Helvetica,sans-Serif" font-size="10.00">mom_legacy_barotropic</text>
<text text-anchor="middle" x="189" y="-62" font-family="Helvetica,sans-Serif" font-size="10.00">::legacy_btstep</text>
</a>
</g>
</g>
<!-- Node18&#45;&gt;Node20 -->
<g id="edge2" class="edge"><title>Node18&#45;&gt;Node20</title>
<path fill="none" stroke="midnightblue" d="M112.511,-70C121.013,-70 129.674,-70 137.952,-70"/>
<polygon fill="midnightblue" stroke="midnightblue" points="112.255,-66.5001 102.255,-70 112.255,-73.5001 112.255,-66.5001"/>
</g>
<!-- Node21 -->
<g id="node4" class="node"><title>Node21</title>
<g id="a_node4"><a xlink:href="../../d5/d65/namespacemom__legacy__barotropic.html#aaa2063f7d7fbe940bc5bd80117befaed" target="_top" xlink:title="mom_legacy_barotropic\l::legacy_set_dtbt">
<polygon fill="white" stroke="black" points="138,-6 138,-36 240,-36 240,-6 138,-6"/>
<text text-anchor="start" x="146" y="-24" font-family="Helvetica,sans-Serif" font-size="10.00">mom_legacy_barotropic</text>
<text text-anchor="middle" x="189" y="-13" font-family="Helvetica,sans-Serif" font-size="10.00">::legacy_set_dtbt</text>
</a>
</g>
</g>
<!-- Node18&#45;&gt;Node21 -->
<g id="edge3" class="edge"><title>Node18&#45;&gt;Node21</title>
<path fill="none" stroke="midnightblue" d="M103.445,-51.4645C117.491,-46.4041 132.539,-40.9823 145.99,-36.1359"/>
<polygon fill="midnightblue" stroke="midnightblue" points="102.136,-48.2161 93.9142,-54.8986 104.509,-54.8016 102.136,-48.2161"/>
</g>
<!-- Node21&#45;&gt;Node19 -->
<g id="edge5" class="edge"><title>Node21&#45;&gt;Node19</title>
<path fill="none" stroke="midnightblue" d="M231.181,-40.4815C234.177,-41.9863 237.143,-43.5027 240,-45 260.7,-55.8479 283.678,-68.9991 300.671,-78.9446"/>
<polygon fill="midnightblue" stroke="midnightblue" points="232.69,-37.3235 222.175,-36.0321 229.59,-43.5994 232.69,-37.3235"/>
</g>
<!-- Node22 -->
<g id="node5" class="node"><title>Node22</title>
<g id="a_node5"><a xlink:href="../../db/dd4/namespacemom__dynamics__legacy__split.html#ae34fe0561f87dc05c2fad64bf6d5a1ee" target="_top" xlink:title="mom_dynamics_legacy\l_split::step_mom_dyn\l_legacy_split">
<polygon fill="white" stroke="black" points="277.5,-0.5 277.5,-41.5 376.5,-41.5 376.5,-0.5 277.5,-0.5"/>
<text text-anchor="start" x="285.5" y="-29.5" font-family="Helvetica,sans-Serif" font-size="10.00">mom_dynamics_legacy</text>
<text text-anchor="start" x="285.5" y="-18.5" font-family="Helvetica,sans-Serif" font-size="10.00">_split::step_mom_dyn</text>
<text text-anchor="middle" x="327" y="-7.5" font-family="Helvetica,sans-Serif" font-size="10.00">_legacy_split</text>
</a>
</g>
</g>
<!-- Node21&#45;&gt;Node22 -->
<g id="edge4" class="edge"><title>Node21&#45;&gt;Node22</title>
<path fill="none" stroke="midnightblue" d="M250.333,-21C259.358,-21 268.566,-21 277.309,-21"/>
<polygon fill="midnightblue" stroke="midnightblue" points="250.255,-17.5001 240.255,-21 250.255,-24.5001 250.255,-17.5001"/>
</g>
</g>
</svg>
