<?xml version="1.0" encoding="UTF-8" standalone="no"?>
<!DOCTYPE svg PUBLIC "-//W3C//DTD SVG 1.1//EN"
 "http://www.w3.org/Graphics/SVG/1.1/DTD/svg11.dtd">
<!-- Generated by graphviz version 2.38.0 (20140413.2041)
 -->
<!-- Title: mom_legacy_barotropic::set_local_bt_cont_types Pages: 1 -->
<svg width="252pt" height="39pt"
 viewBox="0.00 0.00 252.00 39.00" xmlns="http://www.w3.org/2000/svg" xmlns:xlink="http://www.w3.org/1999/xlink">
<g id="graph0" class="graph" transform="scale(1 1) rotate(0) translate(4 35)">
<title>mom_legacy_barotropic::set_local_bt_cont_types</title>
<polygon fill="white" stroke="none" points="-4,4 -4,-35 248,-35 248,4 -4,4"/>
<!-- Node73 -->
<g id="node1" class="node"><title>Node73</title>
<polygon fill="#bfbfbf" stroke="black" points="0,-0.5 0,-30.5 106,-30.5 106,-0.5 0,-0.5"/>
<text text-anchor="start" x="8" y="-18.5" font-family="Helvetica,sans-Serif" font-size="10.00">mom_legacy_barotropic</text>
<text text-anchor="middle" x="53" y="-7.5" font-family="Helvetica,sans-Serif" font-size="10.00">::set_local_bt_cont_types</text>
</g>
<!-- Node74 -->
<g id="node2" class="node"><title>Node74</title>
<g id="a_node2"><a xlink:href="../../d5/d65/namespacemom__legacy__barotropic.html#ae039a54a1c82e3f4f53539e5dc2de6ea" target="_top" xlink:title="mom_legacy_barotropic\l::legacy_btstep">
<polygon fill="white" stroke="black" points="142,-0.5 142,-30.5 244,-30.5 244,-0.5 142,-0.5"/>
<text text-anchor="start" x="150" y="-18.5" font-family="Helvetica,sans-Serif" font-size="10.00">mom_legacy_barotropic</text>
<text text-anchor="middle" x="193" y="-7.5" font-family="Helvetica,sans-Serif" font-size="10.00">::legacy_btstep</text>
</a>
</g>
</g>
<!-- Node73&#45;&gt;Node74 -->
<g id="edge1" class="edge"><title>Node73&#45;&gt;Node74</title>
<path fill="none" stroke="midnightblue" d="M116.368,-15.5C124.809,-15.5 133.384,-15.5 141.581,-15.5"/>
<polygon fill="midnightblue" stroke="midnightblue" points="116.172,-12.0001 106.172,-15.5 116.172,-19.0001 116.172,-12.0001"/>
</g>
</g>
</svg>
