<?xml version="1.0" encoding="UTF-8" standalone="no"?>
<!DOCTYPE svg PUBLIC "-//W3C//DTD SVG 1.1//EN"
 "http://www.w3.org/Graphics/SVG/1.1/DTD/svg11.dtd">
<!-- Generated by graphviz version 2.38.0 (20140413.2041)
 -->
<!-- Title: mom_legacy_barotropic::swap Pages: 1 -->
<svg width="390pt" height="61pt"
 viewBox="0.00 0.00 390.00 61.00" xmlns="http://www.w3.org/2000/svg" xmlns:xlink="http://www.w3.org/1999/xlink">
<g id="graph0" class="graph" transform="scale(1 1) rotate(0) translate(4 57)">
<title>mom_legacy_barotropic::swap</title>
<polygon fill="white" stroke="none" points="-4,4 -4,-57 386,-57 386,4 -4,4"/>
<!-- Node81 -->
<g id="node1" class="node"><title>Node81</title>
<polygon fill="#bfbfbf" stroke="black" points="0,-22.5 0,-52.5 102,-52.5 102,-22.5 0,-22.5"/>
<text text-anchor="start" x="8" y="-40.5" font-family="Helvetica,sans-Serif" font-size="10.00">mom_legacy_barotropic</text>
<text text-anchor="middle" x="51" y="-29.5" font-family="Helvetica,sans-Serif" font-size="10.00">::swap</text>
</g>
<!-- Node82 -->
<g id="node2" class="node"><title>Node82</title>
<g id="a_node2"><a xlink:href="../../d5/d65/namespacemom__legacy__barotropic.html#ae039a54a1c82e3f4f53539e5dc2de6ea" target="_top" xlink:title="mom_legacy_barotropic\l::legacy_btstep">
<polygon fill="white" stroke="black" points="280,-22.5 280,-52.5 382,-52.5 382,-22.5 280,-22.5"/>
<text text-anchor="start" x="288" y="-40.5" font-family="Helvetica,sans-Serif" font-size="10.00">mom_legacy_barotropic</text>
<text text-anchor="middle" x="331" y="-29.5" font-family="Helvetica,sans-Serif" font-size="10.00">::legacy_btstep</text>
</a>
</g>
</g>
<!-- Node81&#45;&gt;Node82 -->
<g id="edge1" class="edge"><title>Node81&#45;&gt;Node82</title>
<path fill="none" stroke="midnightblue" d="M112.109,-39.8642C120.795,-40.128 129.626,-40.354 138,-40.5 185.104,-41.3213 196.896,-41.3213 244,-40.5 255.651,-40.2968 268.186,-39.939 279.985,-39.5395"/>
<polygon fill="midnightblue" stroke="midnightblue" points="112.123,-36.3629 102.015,-39.5395 111.898,-43.3593 112.123,-36.3629"/>
</g>
<!-- Node83 -->
<g id="node3" class="node"><title>Node83</title>
<g id="a_node3"><a xlink:href="../../d5/d65/namespacemom__legacy__barotropic.html#a6e0524c05da903129f241c22f666d058" target="_top" xlink:title="mom_legacy_barotropic\l::set_local_bt_cont_types">
<polygon fill="white" stroke="black" points="138,-0.5 138,-30.5 244,-30.5 244,-0.5 138,-0.5"/>
<text text-anchor="start" x="146" y="-18.5" font-family="Helvetica,sans-Serif" font-size="10.00">mom_legacy_barotropic</text>
<text text-anchor="middle" x="191" y="-7.5" font-family="Helvetica,sans-Serif" font-size="10.00">::set_local_bt_cont_types</text>
</a>
</g>
</g>
<!-- Node81&#45;&gt;Node83 -->
<g id="edge2" class="edge"><title>Node81&#45;&gt;Node83</title>
<path fill="none" stroke="midnightblue" d="M112.114,-27.9166C120.649,-26.556 129.368,-25.166 137.737,-23.8317"/>
<polygon fill="midnightblue" stroke="midnightblue" points="111.536,-24.4645 102.212,-29.4953 112.638,-31.3772 111.536,-24.4645"/>
</g>
<!-- Node83&#45;&gt;Node82 -->
<g id="edge3" class="edge"><title>Node83&#45;&gt;Node82</title>
<path fill="none" stroke="midnightblue" d="M254.089,-25.3983C262.621,-26.7583 271.294,-28.141 279.581,-29.4622"/>
<polygon fill="midnightblue" stroke="midnightblue" points="254.598,-21.9353 244.172,-23.8173 253.496,-28.848 254.598,-21.9353"/>
</g>
</g>
</svg>
