<?xml version="1.0" encoding="UTF-8" standalone="no"?>
<!DOCTYPE svg PUBLIC "-//W3C//DTD SVG 1.1//EN"
 "http://www.w3.org/Graphics/SVG/1.1/DTD/svg11.dtd">
<!-- Generated by graphviz version 2.38.0 (20140413.2041)
 -->
<!-- Title: mom_legacy_barotropic::bt_cont_to_face_areas Pages: 1 -->
<svg width="387pt" height="115pt"
 viewBox="0.00 0.00 387.00 115.00" xmlns="http://www.w3.org/2000/svg" xmlns:xlink="http://www.w3.org/1999/xlink">
<g id="graph0" class="graph" transform="scale(1 1) rotate(0) translate(4 111)">
<title>mom_legacy_barotropic::bt_cont_to_face_areas</title>
<polygon fill="white" stroke="none" points="-4,4 -4,-111 383,-111 383,4 -4,4"/>
<!-- Node9 -->
<g id="node1" class="node"><title>Node9</title>
<polygon fill="#bfbfbf" stroke="black" points="0,-51.5 0,-81.5 103,-81.5 103,-51.5 0,-51.5"/>
<text text-anchor="start" x="8" y="-69.5" font-family="Helvetica,sans-Serif" font-size="10.00">mom_legacy_barotropic</text>
<text text-anchor="middle" x="51.5" y="-58.5" font-family="Helvetica,sans-Serif" font-size="10.00">::bt_cont_to_face_areas</text>
</g>
<!-- Node10 -->
<g id="node2" class="node"><title>Node10</title>
<g id="a_node2"><a xlink:href="../../d5/d65/namespacemom__legacy__barotropic.html#ae039a54a1c82e3f4f53539e5dc2de6ea" target="_top" xlink:title="mom_legacy_barotropic\l::legacy_btstep">
<polygon fill="white" stroke="black" points="139,-76.5 139,-106.5 241,-106.5 241,-76.5 139,-76.5"/>
<text text-anchor="start" x="147" y="-94.5" font-family="Helvetica,sans-Serif" font-size="10.00">mom_legacy_barotropic</text>
<text text-anchor="middle" x="190" y="-83.5" font-family="Helvetica,sans-Serif" font-size="10.00">::legacy_btstep</text>
</a>
</g>
</g>
<!-- Node9&#45;&gt;Node10 -->
<g id="edge1" class="edge"><title>Node9&#45;&gt;Node10</title>
<path fill="none" stroke="midnightblue" d="M113.185,-77.6145C121.672,-79.1688 130.316,-80.752 138.584,-82.2664"/>
<polygon fill="midnightblue" stroke="midnightblue" points="113.795,-74.168 103.328,-75.8091 112.533,-81.0534 113.795,-74.168"/>
</g>
<!-- Node11 -->
<g id="node3" class="node"><title>Node11</title>
<g id="a_node3"><a xlink:href="../../d5/d65/namespacemom__legacy__barotropic.html#aaa2063f7d7fbe940bc5bd80117befaed" target="_top" xlink:title="mom_legacy_barotropic\l::legacy_set_dtbt">
<polygon fill="white" stroke="black" points="139,-27.5 139,-57.5 241,-57.5 241,-27.5 139,-27.5"/>
<text text-anchor="start" x="147" y="-45.5" font-family="Helvetica,sans-Serif" font-size="10.00">mom_legacy_barotropic</text>
<text text-anchor="middle" x="190" y="-34.5" font-family="Helvetica,sans-Serif" font-size="10.00">::legacy_set_dtbt</text>
</a>
</g>
</g>
<!-- Node9&#45;&gt;Node11 -->
<g id="edge2" class="edge"><title>Node9&#45;&gt;Node11</title>
<path fill="none" stroke="midnightblue" d="M113.185,-55.8301C121.672,-54.338 130.316,-52.8181 138.584,-51.3643"/>
<polygon fill="midnightblue" stroke="midnightblue" points="112.57,-52.3844 103.328,-57.5633 113.783,-59.2786 112.57,-52.3844"/>
</g>
<!-- Node12 -->
<g id="node4" class="node"><title>Node12</title>
<g id="a_node4"><a xlink:href="../../db/dd4/namespacemom__dynamics__legacy__split.html#ae34fe0561f87dc05c2fad64bf6d5a1ee" target="_top" xlink:title="mom_dynamics_legacy\l_split::step_mom_dyn\l_legacy_split">
<polygon fill="white" stroke="black" points="278.5,-49 278.5,-90 377.5,-90 377.5,-49 278.5,-49"/>
<text text-anchor="start" x="286.5" y="-78" font-family="Helvetica,sans-Serif" font-size="10.00">mom_dynamics_legacy</text>
<text text-anchor="start" x="286.5" y="-67" font-family="Helvetica,sans-Serif" font-size="10.00">_split::step_mom_dyn</text>
<text text-anchor="middle" x="328" y="-56" font-family="Helvetica,sans-Serif" font-size="10.00">_legacy_split</text>
</a>
</g>
</g>
<!-- Node11&#45;&gt;Node12 -->
<g id="edge3" class="edge"><title>Node11&#45;&gt;Node12</title>
<path fill="none" stroke="midnightblue" d="M251.333,-54.4778C260.358,-56.2696 269.566,-58.0976 278.309,-59.8334"/>
<polygon fill="midnightblue" stroke="midnightblue" points="251.745,-50.9915 241.255,-52.4771 250.382,-57.8575 251.745,-50.9915"/>
</g>
<!-- Node13 -->
<g id="node5" class="node"><title>Node13</title>
<g id="a_node5"><a xlink:href="../../d5/d65/namespacemom__legacy__barotropic.html#aa9771b1e4e725afa95ab8ada8538a064" target="_top" xlink:title="mom_legacy_barotropic\l::legacy_barotropic_init">
<polygon fill="white" stroke="black" points="277,-0.5 277,-30.5 379,-30.5 379,-0.5 277,-0.5"/>
<text text-anchor="start" x="285" y="-18.5" font-family="Helvetica,sans-Serif" font-size="10.00">mom_legacy_barotropic</text>
<text text-anchor="middle" x="328" y="-7.5" font-family="Helvetica,sans-Serif" font-size="10.00">::legacy_barotropic_init</text>
</a>
</g>
</g>
<!-- Node11&#45;&gt;Node13 -->
<g id="edge4" class="edge"><title>Node11&#45;&gt;Node13</title>
<path fill="none" stroke="midnightblue" d="M251.231,-30.5424C259.823,-28.8366 268.583,-27.0976 276.952,-25.4361"/>
<polygon fill="midnightblue" stroke="midnightblue" points="250.382,-27.1425 241.255,-32.5229 251.745,-34.0085 250.382,-27.1425"/>
</g>
</g>
</svg>
