<?xml version="1.0" encoding="UTF-8" standalone="no"?>
<!DOCTYPE svg PUBLIC "-//W3C//DTD SVG 1.1//EN"
 "http://www.w3.org/Graphics/SVG/1.1/DTD/svg11.dtd">
<!-- Generated by graphviz version 2.38.0 (20140413.2041)
 -->
<!-- Title: mom_legacy_barotropic::set_up_bt_obc Pages: 1 -->
<svg width="248pt" height="88pt"
 viewBox="0.00 0.00 248.00 88.00" xmlns="http://www.w3.org/2000/svg" xmlns:xlink="http://www.w3.org/1999/xlink">
<g id="graph0" class="graph" transform="scale(1 1) rotate(0) translate(4 84)">
<title>mom_legacy_barotropic::set_up_bt_obc</title>
<polygon fill="white" stroke="none" points="-4,4 -4,-84 244,-84 244,4 -4,4"/>
<!-- Node75 -->
<g id="node1" class="node"><title>Node75</title>
<polygon fill="#bfbfbf" stroke="black" points="0,-24.5 0,-54.5 102,-54.5 102,-24.5 0,-24.5"/>
<text text-anchor="start" x="8" y="-42.5" font-family="Helvetica,sans-Serif" font-size="10.00">mom_legacy_barotropic</text>
<text text-anchor="middle" x="51" y="-31.5" font-family="Helvetica,sans-Serif" font-size="10.00">::set_up_bt_obc</text>
</g>
<!-- Node76 -->
<g id="node2" class="node"><title>Node76</title>
<g id="a_node2"><a xlink:href="../../d5/d65/namespacemom__legacy__barotropic.html#ad9add945a282d75804293003405f794d" target="_top" xlink:title="mom_legacy_barotropic\l::uhbt_to_ubt">
<polygon fill="white" stroke="black" points="138,-49.5 138,-79.5 240,-79.5 240,-49.5 138,-49.5"/>
<text text-anchor="start" x="146" y="-67.5" font-family="Helvetica,sans-Serif" font-size="10.00">mom_legacy_barotropic</text>
<text text-anchor="middle" x="189" y="-56.5" font-family="Helvetica,sans-Serif" font-size="10.00">::uhbt_to_ubt</text>
</a>
</g>
</g>
<!-- Node75&#45;&gt;Node76 -->
<g id="edge1" class="edge"><title>Node75&#45;&gt;Node76</title>
<path fill="none" stroke="midnightblue" d="M102.255,-48.738C110.63,-50.2776 119.392,-51.8882 127.981,-53.4671"/>
<polygon fill="midnightblue" stroke="midnightblue" points="127.484,-56.9342 137.952,-55.2999 128.749,-50.0496 127.484,-56.9342"/>
</g>
<!-- Node77 -->
<g id="node3" class="node"><title>Node77</title>
<g id="a_node3"><a xlink:href="../../d5/d65/namespacemom__legacy__barotropic.html#aa500b44df0ce8db775bed7840dfb436c" target="_top" xlink:title="mom_legacy_barotropic\l::vhbt_to_vbt">
<polygon fill="white" stroke="black" points="138,-0.5 138,-30.5 240,-30.5 240,-0.5 138,-0.5"/>
<text text-anchor="start" x="146" y="-18.5" font-family="Helvetica,sans-Serif" font-size="10.00">mom_legacy_barotropic</text>
<text text-anchor="middle" x="189" y="-7.5" font-family="Helvetica,sans-Serif" font-size="10.00">::vhbt_to_vbt</text>
</a>
</g>
</g>
<!-- Node75&#45;&gt;Node77 -->
<g id="edge2" class="edge"><title>Node75&#45;&gt;Node77</title>
<path fill="none" stroke="midnightblue" d="M102.255,-30.6315C110.63,-29.1535 119.392,-27.6073 127.981,-26.0916"/>
<polygon fill="midnightblue" stroke="midnightblue" points="128.712,-29.5168 137.952,-24.3321 127.495,-22.6233 128.712,-29.5168"/>
</g>
</g>
</svg>
