<?xml version="1.0" encoding="UTF-8" standalone="no"?>
<!DOCTYPE svg PUBLIC "-//W3C//DTD SVG 1.1//EN"
 "http://www.w3.org/Graphics/SVG/1.1/DTD/svg11.dtd">
<!-- Generated by graphviz version 2.38.0 (20140413.2041)
 -->
<!-- Title: mom_kpp::kpp_cs Pages: 1 -->
<!--zoomable 579 -->
<svg id="main" version="1.1" xmlns="http://www.w3.org/2000/svg" xmlns:xlink="http://www.w3.org/1999/xlink" xml:space="preserve" onload="init(evt)">
<style type="text/css"><![CDATA[
.edge:hover path { stroke: red; }
.edge:hover polygon { stroke: red; fill: red; }
]]></style>
<script type="text/javascript"><![CDATA[
var edges = document.getElementsByTagName('g');
if (edges && edges.length) {
  for (var i=0;i<edges.length;i++) {
    if (edges[i].id.substr(0,4)=='edge') {
      edges[i].setAttribute('class','edge');
    }
  }
}
]]></script>
        <defs>
                <circle id="rim" cx="0" cy="0" r="7"/>
                <circle id="rim2" cx="0" cy="0" r="3.5"/>
                <g id="zoomPlus">
                        <use xlink:href="#rim" fill="#404040">
                                <set attributeName="fill" to="#808080" begin="zoomplus.mouseover" end="zoomplus.mouseout"/>
                        </use>
                        <path d="M-4,0h8M0,-4v8" fill="none" stroke="white" stroke-width="1.5" pointer-events="none"/>
                </g>
                <g id="zoomMin">
                        <use xlink:href="#rim" fill="#404040">
                                <set attributeName="fill" to="#808080" begin="zoomminus.mouseover" end="zoomminus.mouseout"/>
                        </use>
                        <path d="M-4,0h8" fill="none" stroke="white" stroke-width="1.5" pointer-events="none"/>
                </g>
                <g id="dirArrow">
                        <path fill="none" stroke="white" stroke-width="1.5" d="M0,-3.0v7 M-2.5,-0.5L0,-3.0L2.5,-0.5"/>
                </g>
               <g id="resetDef">
                       <use xlink:href="#rim2" fill="#404040">
                               <set attributeName="fill" to="#808080" begin="reset.mouseover" end="reset.mouseout"/>
                       </use>
               </g>
        </defs>

<script type="text/javascript">
var viewWidth = 313;
var viewHeight = 579;
var sectionId = 'dynsection-0';
</script>
<script xlink:href="../../svgpan.js"/>
<svg id="graph" class="graph">
<g id="viewport">
<title>mom_kpp::kpp_cs</title>
<polygon fill="white" stroke="none" points="-4,4 -4,-574.691 309,-574.691 309,4 -4,4"/>
<!-- Node1 -->
<g id="node1" class="node"><title>Node1</title>
<polygon fill="#bfbfbf" stroke="black" points="224,-323.191 224,-342.191 305,-342.191 305,-323.191 224,-323.191"/>
<text text-anchor="middle" x="264.5" y="-330.191" font-family="Helvetica,sans-Serif" font-size="10.00">mom_kpp::kpp_cs</text>
</g>
<!-- Node2 -->
<g id="node2" class="node"><title>Node2</title>
<polygon fill="white" stroke="#bfbfbf" points="32.5,-449.191 32.5,-468.191 70.5,-468.191 70.5,-449.191 32.5,-449.191"/>
<text text-anchor="middle" x="51.5" y="-456.191" font-family="Helvetica,sans-Serif" font-size="10.00">logical</text>
</g>
<!-- Node2&#45;&gt;Node1 -->
<g id="edge1" class="edge"><title>Node2&#45;&gt;Node1</title>
<path fill="none" stroke="#9a32cd" stroke-dasharray="5,2" d="M81.0561,-457.013C113.931,-453.822 168.243,-444.562 206,-417.691 233.87,-397.857 252.279,-359.961 259.741,-342.253"/>
<polygon fill="#9a32cd" stroke="#9a32cd" points="80.4542,-453.551 70.7837,-457.879 81.0425,-460.527 80.4542,-453.551"/>
<text text-anchor="middle" x="163.5" y="-562.691" font-family="Helvetica,sans-Serif" font-size="10.00"> computemoninobukhov</text>
<text text-anchor="middle" x="163.5" y="-551.691" font-family="Helvetica,sans-Serif" font-size="10.00">kppzerodiffusivity</text>
<text text-anchor="middle" x="163.5" y="-540.691" font-family="Helvetica,sans-Serif" font-size="10.00">applynonlocaltrans</text>
<text text-anchor="middle" x="163.5" y="-529.691" font-family="Helvetica,sans-Serif" font-size="10.00">kppisadditive</text>
<text text-anchor="middle" x="163.5" y="-518.691" font-family="Helvetica,sans-Serif" font-size="10.00">computeekman</text>
<text text-anchor="middle" x="163.5" y="-507.691" font-family="Helvetica,sans-Serif" font-size="10.00">passivemode</text>
<text text-anchor="middle" x="163.5" y="-496.691" font-family="Helvetica,sans-Serif" font-size="10.00">correctsurflayeravg</text>
<text text-anchor="middle" x="163.5" y="-485.691" font-family="Helvetica,sans-Serif" font-size="10.00">fixedobldepth</text>
<text text-anchor="middle" x="163.5" y="-474.691" font-family="Helvetica,sans-Serif" font-size="10.00">debug</text>
<text text-anchor="middle" x="163.5" y="-463.691" font-family="Helvetica,sans-Serif" font-size="10.00">enhance_diffusion</text>
<text text-anchor="middle" x="163.5" y="-452.691" font-family="Helvetica,sans-Serif" font-size="10.00">...</text>
</g>
<!-- Node3 -->
<g id="node3" class="node"><title>Node3</title>
<polygon fill="white" stroke="#bfbfbf" points="0,-399.691 0,-429.691 103,-429.691 103,-399.691 0,-399.691"/>
<text text-anchor="start" x="8" y="-417.691" font-family="Helvetica,sans-Serif" font-size="10.00">type(cvmix_kpp_params</text>
<text text-anchor="middle" x="51.5" y="-406.691" font-family="Helvetica,sans-Serif" font-size="10.00">_type), pointer</text>
</g>
<!-- Node3&#45;&gt;Node1 -->
<g id="edge2" class="edge"><title>Node3&#45;&gt;Node1</title>
<path fill="none" stroke="#9a32cd" stroke-dasharray="5,2" d="M113.044,-405.645C142.124,-399.834 176.892,-390.677 206,-376.691 224.581,-367.763 242.953,-352.216 253.758,-342.195"/>
<polygon fill="#9a32cd" stroke="#9a32cd" points="112.178,-402.248 103.014,-407.564 113.494,-409.123 112.178,-402.248"/>
<text text-anchor="middle" x="163.5" y="-405.691" font-family="Helvetica,sans-Serif" font-size="10.00"> kpp_params</text>
</g>
<!-- Node4 -->
<g id="node4" class="node"><title>Node4</title>
<polygon fill="white" stroke="#bfbfbf" points="11.5,-361.191 11.5,-380.191 91.5,-380.191 91.5,-361.191 11.5,-361.191"/>
<text text-anchor="middle" x="51.5" y="-368.191" font-family="Helvetica,sans-Serif" font-size="10.00">character(len=10)</text>
</g>
<!-- Node4&#45;&gt;Node1 -->
<g id="edge3" class="edge"><title>Node4&#45;&gt;Node1</title>
<path fill="none" stroke="#9a32cd" stroke-dasharray="5,2" d="M102.093,-364.623C132.272,-360.593 171.522,-354.75 206,-347.691 213.58,-346.139 221.654,-344.209 229.282,-342.255"/>
<polygon fill="#9a32cd" stroke="#9a32cd" points="101.278,-361.2 91.8187,-365.972 102.189,-368.14 101.278,-361.2"/>
<text text-anchor="middle" x="163.5" y="-364.691" font-family="Helvetica,sans-Serif" font-size="10.00"> interptype</text>
</g>
<!-- Node5 -->
<g id="node5" class="node"><title>Node5</title>
<polygon fill="white" stroke="#bfbfbf" points="28,-323.191 28,-342.191 75,-342.191 75,-323.191 28,-323.191"/>
<text text-anchor="middle" x="51.5" y="-330.191" font-family="Helvetica,sans-Serif" font-size="10.00">diag_ctrl</text>
</g>
<!-- Node5&#45;&gt;Node1 -->
<g id="edge4" class="edge"><title>Node5&#45;&gt;Node1</title>
<path fill="none" stroke="#9a32cd" stroke-dasharray="5,2" d="M85.4282,-332.691C122.848,-332.691 183.9,-332.691 223.89,-332.691"/>
<polygon fill="#9a32cd" stroke="#9a32cd" points="85.0807,-329.191 75.0807,-332.691 85.0807,-336.191 85.0807,-329.191"/>
<text text-anchor="middle" x="163.5" y="-335.691" font-family="Helvetica,sans-Serif" font-size="10.00"> diag</text>
</g>
<!-- Node6 -->
<g id="node6" class="node"><title>Node6</title>
<polygon fill="white" stroke="#bfbfbf" points="11.5,-285.191 11.5,-304.191 91.5,-304.191 91.5,-285.191 11.5,-285.191"/>
<text text-anchor="middle" x="51.5" y="-292.191" font-family="Helvetica,sans-Serif" font-size="10.00">character(len=30)</text>
</g>
<!-- Node6&#45;&gt;Node1 -->
<g id="edge5" class="edge"><title>Node6&#45;&gt;Node1</title>
<path fill="none" stroke="#9a32cd" stroke-dasharray="5,2" d="M102.093,-300.759C132.272,-304.789 171.522,-310.632 206,-317.691 213.58,-319.243 221.654,-321.173 229.282,-323.127"/>
<polygon fill="#9a32cd" stroke="#9a32cd" points="102.189,-297.242 91.8187,-299.41 101.278,-304.182 102.189,-297.242"/>
<text text-anchor="middle" x="163.5" y="-320.691" font-family="Helvetica,sans-Serif" font-size="10.00"> matchtechnique</text>
</g>
<!-- Node7 -->
<g id="node7" class="node"><title>Node7</title>
<polygon fill="white" stroke="#bfbfbf" points="31,-145.191 31,-164.191 72,-164.191 72,-145.191 31,-145.191"/>
<text text-anchor="middle" x="51.5" y="-152.191" font-family="Helvetica,sans-Serif" font-size="10.00">integer</text>
</g>
<!-- Node7&#45;&gt;Node1 -->
<g id="edge6" class="edge"><title>Node7&#45;&gt;Node1</title>
<path fill="none" stroke="#9a32cd" stroke-dasharray="5,2" d="M82.3593,-150.829C116.138,-148.171 170.989,-149.254 206,-177.691 252.786,-215.691 261.506,-295.649 263.129,-323.157"/>
<polygon fill="#9a32cd" stroke="#9a32cd" points="81.8097,-147.365 72.1846,-151.793 82.4702,-154.334 81.8097,-147.365"/>
<text text-anchor="middle" x="163.5" y="-290.691" font-family="Helvetica,sans-Serif" font-size="10.00"> id_nltt</text>
<text text-anchor="middle" x="163.5" y="-279.691" font-family="Helvetica,sans-Serif" font-size="10.00">nlt_shape</text>
<text text-anchor="middle" x="163.5" y="-268.691" font-family="Helvetica,sans-Serif" font-size="10.00">id_nlt_dsdt</text>
<text text-anchor="middle" x="163.5" y="-257.691" font-family="Helvetica,sans-Serif" font-size="10.00">id_vt2</text>
<text text-anchor="middle" x="163.5" y="-246.691" font-family="Helvetica,sans-Serif" font-size="10.00">id_bulkuz2</text>
<text text-anchor="middle" x="163.5" y="-235.691" font-family="Helvetica,sans-Serif" font-size="10.00">id_n2</text>
<text text-anchor="middle" x="163.5" y="-224.691" font-family="Helvetica,sans-Serif" font-size="10.00">id_bulkri</text>
<text text-anchor="middle" x="163.5" y="-213.691" font-family="Helvetica,sans-Serif" font-size="10.00">id_bulkdrho</text>
<text text-anchor="middle" x="163.5" y="-202.691" font-family="Helvetica,sans-Serif" font-size="10.00">id_ks_kpp</text>
<text text-anchor="middle" x="163.5" y="-191.691" font-family="Helvetica,sans-Serif" font-size="10.00">id_nets</text>
<text text-anchor="middle" x="163.5" y="-180.691" font-family="Helvetica,sans-Serif" font-size="10.00">...</text>
</g>
<!-- Node8 -->
<g id="node8" class="node"><title>Node8</title>
<polygon fill="white" stroke="#bfbfbf" points="36.5,-1.191 36.5,-20.191 66.5,-20.191 66.5,-1.191 36.5,-1.191"/>
<text text-anchor="middle" x="51.5" y="-8.191" font-family="Helvetica,sans-Serif" font-size="10.00">real</text>
</g>
<!-- Node8&#45;&gt;Node1 -->
<g id="edge7" class="edge"><title>Node8&#45;&gt;Node1</title>
<path fill="none" stroke="#9a32cd" stroke-dasharray="5,2" d="M76.4031,-5.12434C109.919,1.13732 170.721,6.62055 206,-25.691 251.286,-67.1684 261.449,-275.573 263.189,-323.053"/>
<polygon fill="#9a32cd" stroke="#9a32cd" points="75.644,-1.70704 66.5469,-7.13778 77.0451,-8.5654 75.644,-1.70704"/>
<text text-anchor="middle" x="163.5" y="-138.691" font-family="Helvetica,sans-Serif" font-size="10.00"> minvtsqr</text>
<text text-anchor="middle" x="163.5" y="-127.691" font-family="Helvetica,sans-Serif" font-size="10.00">vt2</text>
<text text-anchor="middle" x="163.5" y="-116.691" font-family="Helvetica,sans-Serif" font-size="10.00">minobldepth</text>
<text text-anchor="middle" x="163.5" y="-105.691" font-family="Helvetica,sans-Serif" font-size="10.00">ssurf</text>
<text text-anchor="middle" x="163.5" y="-94.691" font-family="Helvetica,sans-Serif" font-size="10.00">ks_kpp</text>
<text text-anchor="middle" x="163.5" y="-83.691" font-family="Helvetica,sans-Serif" font-size="10.00">tsurf</text>
<text text-anchor="middle" x="163.5" y="-72.691" font-family="Helvetica,sans-Serif" font-size="10.00">kt_kpp</text>
<text text-anchor="middle" x="163.5" y="-61.691" font-family="Helvetica,sans-Serif" font-size="10.00">drho</text>
<text text-anchor="middle" x="163.5" y="-50.691" font-family="Helvetica,sans-Serif" font-size="10.00">usurf</text>
<text text-anchor="middle" x="163.5" y="-39.691" font-family="Helvetica,sans-Serif" font-size="10.00">vsurf</text>
<text text-anchor="middle" x="163.5" y="-28.691" font-family="Helvetica,sans-Serif" font-size="10.00">...</text>
</g>
</g>
</svg>
        <g id="navigator" transform="translate(0 0)" fill="#404254">
                <rect fill="#f2f5e9" fill-opacity="0.5" stroke="#606060" stroke-width=".5" x="0" y="0" width="60" height="60"/>
                <use id="zoomplus" xlink:href="#zoomPlus" x="17" y="9" onmousedown="handleZoom(evt,'in')"/>
                <use id="zoomminus" xlink:href="#zoomMin" x="42" y="9" onmousedown="handleZoom(evt,'out')"/>
                <use id="reset" xlink:href="#resetDef" x="30" y="36" onmousedown="handleReset()"/>
                <g id="arrowUp" xlink:href="#dirArrow" transform="translate(30 24)" onmousedown="handlePan(0,-1)">
                  <use xlink:href="#rim" fill="#404040">
                        <set attributeName="fill" to="#808080" begin="arrowUp.mouseover" end="arrowUp.mouseout"/>
                  </use>
                  <path fill="none" stroke="white" stroke-width="1.5" d="M0,-3.0v7 M-2.5,-0.5L0,-3.0L2.5,-0.5"/>
                </g>
                <g id="arrowRight" xlink:href="#dirArrow" transform="rotate(90) translate(36 -43)" onmousedown="handlePan(1,0)">
                  <use xlink:href="#rim" fill="#404040">
                        <set attributeName="fill" to="#808080" begin="arrowRight.mouseover" end="arrowRight.mouseout"/>
                  </use>
                  <path fill="none" stroke="white" stroke-width="1.5" d="M0,-3.0v7 M-2.5,-0.5L0,-3.0L2.5,-0.5"/>
                </g>
                <g id="arrowDown" xlink:href="#dirArrow" transform="rotate(180) translate(-30 -48)" onmousedown="handlePan(0,1)">
                  <use xlink:href="#rim" fill="#404040">
                        <set attributeName="fill" to="#808080" begin="arrowDown.mouseover" end="arrowDown.mouseout"/>
                  </use>
                  <path fill="none" stroke="white" stroke-width="1.5" d="M0,-3.0v7 M-2.5,-0.5L0,-3.0L2.5,-0.5"/>
                </g>
                <g id="arrowLeft" xlink:href="#dirArrow" transform="rotate(270) translate(-36 17)" onmousedown="handlePan(-1,0)">
                  <use xlink:href="#rim" fill="#404040">
                        <set attributeName="fill" to="#808080" begin="arrowLeft.mouseover" end="arrowLeft.mouseout"/>
                  </use>
                  <path fill="none" stroke="white" stroke-width="1.5" d="M0,-3.0v7 M-2.5,-0.5L0,-3.0L2.5,-0.5"/>
                </g>
        </g>
        <svg viewBox="0 0 15 15" width="100%" height="30px" preserveAspectRatio="xMaxYMin meet">
         <g id="arrow_out" transform="scale(0.3 0.3)">
          <a xlink:href="structmom__kpp_1_1kpp__cs__coll__graph_org.svg" target="_base">
           <rect id="button" ry="5" rx="5" y="6" x="6" height="38" width="38"
                fill="#f2f5e9" fill-opacity="0.5" stroke="#606060" stroke-width="1.0"/>
           <path id="arrow"
             d="M 11.500037,31.436501 C 11.940474,20.09759 22.043105,11.32322 32.158766,21.979434 L 37.068811,17.246167 C 37.068811,17.246167 37.088388,32 37.088388,32 L 22.160133,31.978069 C 22.160133,31.978069 26.997745,27.140456 26.997745,27.140456 C 18.528582,18.264221 13.291696,25.230495 11.500037,31.436501 z"
             style="fill:#404040;"/>
          </a>
         </g>
        </svg>
</svg>
