<?xml version="1.0" encoding="UTF-8" standalone="no"?>
<!DOCTYPE svg PUBLIC "-//W3C//DTD SVG 1.1//EN"
 "http://www.w3.org/Graphics/SVG/1.1/DTD/svg11.dtd">
<!-- Generated by graphviz version 2.38.0 (20140413.2041)
 -->
<!-- Title: user_change_diffusivity::user_change_diff_cs Pages: 1 -->
<svg width="176pt" height="128pt"
 viewBox="0.00 0.00 176.00 128.00" xmlns="http://www.w3.org/2000/svg" xmlns:xlink="http://www.w3.org/1999/xlink">
<g id="graph0" class="graph" transform="scale(1 1) rotate(0) translate(4 124)">
<title>user_change_diffusivity::user_change_diff_cs</title>
<polygon fill="white" stroke="none" points="-4,4 -4,-124 172,-124 172,4 -4,4"/>
<!-- Node1 -->
<g id="node1" class="node"><title>Node1</title>
<polygon fill="#bfbfbf" stroke="black" points="38.5,-0.5 38.5,-30.5 137.5,-30.5 137.5,-0.5 38.5,-0.5"/>
<text text-anchor="start" x="46.5" y="-18.5" font-family="Helvetica,sans-Serif" font-size="10.00">user_change_diffusivity</text>
<text text-anchor="middle" x="88" y="-7.5" font-family="Helvetica,sans-Serif" font-size="10.00">::user_change_diff_cs</text>
</g>
<!-- Node2 -->
<g id="node2" class="node"><title>Node2</title>
<polygon fill="white" stroke="#bfbfbf" points="0,-100.5 0,-119.5 38,-119.5 38,-100.5 0,-100.5"/>
<text text-anchor="middle" x="19" y="-107.5" font-family="Helvetica,sans-Serif" font-size="10.00">logical</text>
</g>
<!-- Node2&#45;&gt;Node1 -->
<g id="edge1" class="edge"><title>Node2&#45;&gt;Node1</title>
<path fill="none" stroke="#9a32cd" stroke-dasharray="5,2" d="M21.5029,-90.4909C23.9758,-77.7884 28.7874,-61.1047 38,-49 43.5804,-41.6677 51.3239,-35.5055 59.0521,-30.5861"/>
<polygon fill="#9a32cd" stroke="#9a32cd" points="18.0401,-89.9798 19.88,-100.414 24.9483,-91.1097 18.0401,-89.9798"/>
<text text-anchor="middle" x="61" y="-63" font-family="Helvetica,sans-Serif" font-size="10.00"> use_abs_lat</text>
</g>
<!-- Node3 -->
<g id="node3" class="node"><title>Node3</title>
<polygon fill="white" stroke="#bfbfbf" points="64.5,-100.5 64.5,-119.5 111.5,-119.5 111.5,-100.5 64.5,-100.5"/>
<text text-anchor="middle" x="88" y="-107.5" font-family="Helvetica,sans-Serif" font-size="10.00">diag_ctrl</text>
</g>
<!-- Node3&#45;&gt;Node1 -->
<g id="edge2" class="edge"><title>Node3&#45;&gt;Node1</title>
<path fill="none" stroke="#9a32cd" stroke-dasharray="5,2" d="M88,-90.2869C88,-72.6698 88,-46.6699 88,-30.6999"/>
<polygon fill="#9a32cd" stroke="#9a32cd" points="84.5001,-90.4636 88,-100.464 91.5001,-90.4637 84.5001,-90.4636"/>
<text text-anchor="middle" x="97" y="-63" font-family="Helvetica,sans-Serif" font-size="10.00"> diag</text>
</g>
<!-- Node4 -->
<g id="node4" class="node"><title>Node4</title>
<polygon fill="white" stroke="#bfbfbf" points="130,-100.5 130,-119.5 160,-119.5 160,-100.5 130,-100.5"/>
<text text-anchor="middle" x="145" y="-107.5" font-family="Helvetica,sans-Serif" font-size="10.00">real</text>
</g>
<!-- Node4&#45;&gt;Node1 -->
<g id="edge3" class="edge"><title>Node4&#45;&gt;Node1</title>
<path fill="none" stroke="#9a32cd" stroke-dasharray="5,2" d="M135.121,-91.3555C128.272,-79.3026 118.83,-63.0351 110,-49 106.154,-42.8869 101.721,-36.2641 97.8467,-30.6019"/>
<polygon fill="#9a32cd" stroke="#9a32cd" points="132.231,-93.3575 140.194,-100.347 138.328,-89.9178 132.231,-93.3575"/>
<text text-anchor="middle" x="149" y="-74" font-family="Helvetica,sans-Serif" font-size="10.00"> lat_range</text>
<text text-anchor="middle" x="149" y="-63" font-family="Helvetica,sans-Serif" font-size="10.00">rho_range</text>
<text text-anchor="middle" x="149" y="-52" font-family="Helvetica,sans-Serif" font-size="10.00">kd_add</text>
</g>
</g>
</svg>
