<?xml version="1.0" encoding="UTF-8" standalone="no"?>
<!DOCTYPE svg PUBLIC "-//W3C//DTD SVG 1.1//EN"
 "http://www.w3.org/Graphics/SVG/1.1/DTD/svg11.dtd">
<!-- Generated by graphviz version 2.38.0 (20140413.2041)
 -->
<!-- Title: locmsg Pages: 1 -->
<svg width="537pt" height="39pt"
 viewBox="0.00 0.00 537.00 39.00" xmlns="http://www.w3.org/2000/svg" xmlns:xlink="http://www.w3.org/1999/xlink">
<g id="graph0" class="graph" transform="scale(1 1) rotate(0) translate(4 35)">
<title>locmsg</title>
<polygon fill="white" stroke="none" points="-4,4 -4,-35 533,-35 533,4 -4,4"/>
<!-- Node1 -->
<g id="node1" class="node"><title>Node1</title>
<polygon fill="#bfbfbf" stroke="black" points="0,-6 0,-25 41,-25 41,-6 0,-6"/>
<text text-anchor="middle" x="20.5" y="-13" font-family="Helvetica,sans-Serif" font-size="10.00">locmsg</text>
</g>
<!-- Node2 -->
<g id="node2" class="node"><title>Node2</title>
<g id="a_node2"><a xlink:href="../../dd/dc3/namespacemom__forcing__type.html#a1048a8e80ebd47f83b91772c02aedba2" target="_top" xlink:title="Write out values of the fluxes arrays at the i,j location. ">
<polygon fill="white" stroke="black" points="77,-0.5 77,-30.5 188,-30.5 188,-0.5 77,-0.5"/>
<text text-anchor="start" x="85" y="-18.5" font-family="Helvetica,sans-Serif" font-size="10.00">mom_forcing_type::forcing</text>
<text text-anchor="middle" x="132.5" y="-7.5" font-family="Helvetica,sans-Serif" font-size="10.00">_singlepointprint</text>
</a>
</g>
</g>
<!-- Node1&#45;&gt;Node2 -->
<g id="edge1" class="edge"><title>Node1&#45;&gt;Node2</title>
<path fill="none" stroke="midnightblue" d="M51.2618,-15.5C59.1258,-15.5 67.8689,-15.5 76.6083,-15.5"/>
<polygon fill="midnightblue" stroke="midnightblue" points="51.1658,-12.0001 41.1658,-15.5 51.1658,-19.0001 51.1658,-12.0001"/>
</g>
<!-- Node3 -->
<g id="node3" class="node"><title>Node3</title>
<g id="a_node3"><a xlink:href="../../d7/d3b/namespacemom__diabatic__aux.html#a1e6934e7993df27e75e5cee7a1d8cf65" target="_top" xlink:title="Update the thickness, temperature, and salinity due to thermodynamic boundary forcing (contained in f...">
<polygon fill="white" stroke="black" points="224,-6 224,-25 402,-25 402,-6 224,-6"/>
<text text-anchor="middle" x="313" y="-13" font-family="Helvetica,sans-Serif" font-size="10.00">mom_diabatic_aux::applyboundaryfluxesinout</text>
</a>
</g>
</g>
<!-- Node2&#45;&gt;Node3 -->
<g id="edge2" class="edge"><title>Node2&#45;&gt;Node3</title>
<path fill="none" stroke="midnightblue" d="M198.096,-15.5C206.499,-15.5 215.218,-15.5 223.923,-15.5"/>
<polygon fill="midnightblue" stroke="midnightblue" points="198.026,-12.0001 188.026,-15.5 198.026,-19.0001 198.026,-12.0001"/>
</g>
<!-- Node4 -->
<g id="node4" class="node"><title>Node4</title>
<g id="a_node4"><a xlink:href="../../d8/df3/namespacemom__diabatic__driver.html#a61e57d3902367aa46aa3c2d949ee900f" target="_top" xlink:title="This subroutine imposes the diapycnal mass fluxes and the accompanying diapycnal advection of momentu...">
<polygon fill="white" stroke="black" points="438,-0.5 438,-30.5 529,-30.5 529,-0.5 438,-0.5"/>
<text text-anchor="start" x="446" y="-18.5" font-family="Helvetica,sans-Serif" font-size="10.00">mom_diabatic_driver</text>
<text text-anchor="middle" x="483.5" y="-7.5" font-family="Helvetica,sans-Serif" font-size="10.00">::diabatic</text>
</a>
</g>
</g>
<!-- Node3&#45;&gt;Node4 -->
<g id="edge3" class="edge"><title>Node3&#45;&gt;Node4</title>
<path fill="none" stroke="midnightblue" d="M412.211,-15.5C421.019,-15.5 429.618,-15.5 437.608,-15.5"/>
<polygon fill="midnightblue" stroke="midnightblue" points="412.198,-12.0001 402.198,-15.5 412.198,-19.0001 412.198,-12.0001"/>
</g>
</g>
</svg>
