<?xml version="1.0" encoding="UTF-8" standalone="no"?>
<!DOCTYPE svg PUBLIC "-//W3C//DTD SVG 1.1//EN"
 "http://www.w3.org/Graphics/SVG/1.1/DTD/svg11.dtd">
<!-- Generated by graphviz version 2.38.0 (20140413.2041)
 -->
<!-- Title: mom_diagnostics::calculate_diagnostic_fields Pages: 1 -->
<!--zoomable 448 -->
<svg id="main" version="1.1" xmlns="http://www.w3.org/2000/svg" xmlns:xlink="http://www.w3.org/1999/xlink" xml:space="preserve" onload="init(evt)">
<style type="text/css"><![CDATA[
.edge:hover path { stroke: red; }
.edge:hover polygon { stroke: red; fill: red; }
]]></style>
<script type="text/javascript"><![CDATA[
var edges = document.getElementsByTagName('g');
if (edges && edges.length) {
  for (var i=0;i<edges.length;i++) {
    if (edges[i].id.substr(0,4)=='edge') {
      edges[i].setAttribute('class','edge');
    }
  }
}
]]></script>
        <defs>
                <circle id="rim" cx="0" cy="0" r="7"/>
                <circle id="rim2" cx="0" cy="0" r="3.5"/>
                <g id="zoomPlus">
                        <use xlink:href="#rim" fill="#404040">
                                <set attributeName="fill" to="#808080" begin="zoomplus.mouseover" end="zoomplus.mouseout"/>
                        </use>
                        <path d="M-4,0h8M0,-4v8" fill="none" stroke="white" stroke-width="1.5" pointer-events="none"/>
                </g>
                <g id="zoomMin">
                        <use xlink:href="#rim" fill="#404040">
                                <set attributeName="fill" to="#808080" begin="zoomminus.mouseover" end="zoomminus.mouseout"/>
                        </use>
                        <path d="M-4,0h8" fill="none" stroke="white" stroke-width="1.5" pointer-events="none"/>
                </g>
                <g id="dirArrow">
                        <path fill="none" stroke="white" stroke-width="1.5" d="M0,-3.0v7 M-2.5,-0.5L0,-3.0L2.5,-0.5"/>
                </g>
               <g id="resetDef">
                       <use xlink:href="#rim2" fill="#404040">
                               <set attributeName="fill" to="#808080" begin="reset.mouseover" end="reset.mouseout"/>
                       </use>
               </g>
        </defs>

<script type="text/javascript">
var viewWidth = 695;
var viewHeight = 448;
var sectionId = 'dynsection-1';
</script>
<script xlink:href="../../svgpan.js"/>
<svg id="graph" class="graph">
<g id="viewport">
<title>mom_diagnostics::calculate_diagnostic_fields</title>
<polygon fill="white" stroke="none" points="-4,4 -4,-444 691,-444 691,4 -4,4"/>
<!-- Node3 -->
<g id="node1" class="node"><title>Node3</title>
<polygon fill="#bfbfbf" stroke="black" points="0,-223.5 0,-253.5 113,-253.5 113,-223.5 0,-223.5"/>
<text text-anchor="start" x="8" y="-241.5" font-family="Helvetica,sans-Serif" font-size="10.00">mom_diagnostics::calculate</text>
<text text-anchor="middle" x="56.5" y="-230.5" font-family="Helvetica,sans-Serif" font-size="10.00">_diagnostic_fields</text>
</g>
<!-- Node4 -->
<g id="node2" class="node"><title>Node4</title>
<g id="a_node2"><a xlink:href="../../d9/d8b/namespacemom__diagnostics.html#ad69737c75e3f4a36546c8437fb39b099" target="_top" xlink:title="mom_diagnostics::calculate\l_derivs">
<polygon fill="white" stroke="black" points="149,-409.5 149,-439.5 262,-439.5 262,-409.5 149,-409.5"/>
<text text-anchor="start" x="157" y="-427.5" font-family="Helvetica,sans-Serif" font-size="10.00">mom_diagnostics::calculate</text>
<text text-anchor="middle" x="205.5" y="-416.5" font-family="Helvetica,sans-Serif" font-size="10.00">_derivs</text>
</a>
</g>
</g>
<!-- Node3&#45;&gt;Node4 -->
<g id="edge1" class="edge"><title>Node3&#45;&gt;Node4</title>
<path fill="none" stroke="midnightblue" d="M62.3004,-253.568C73.006,-284.955 101.684,-357.951 149,-400.5 150.288,-401.658 151.64,-402.767 153.044,-403.827"/>
<polygon fill="midnightblue" stroke="midnightblue" points="151.258,-406.841 161.542,-409.388 155.09,-400.984 151.258,-406.841"/>
</g>
<!-- Node5 -->
<g id="node3" class="node"><title>Node5</title>
<g id="a_node3"><a xlink:href="../../d9/d8b/namespacemom__diagnostics.html#abfa7f679d840df58e06fa831af32c090" target="_top" xlink:title="mom_diagnostics::calculate\l_energy_diagnostics">
<polygon fill="white" stroke="black" points="149,-360.5 149,-390.5 262,-390.5 262,-360.5 149,-360.5"/>
<text text-anchor="start" x="157" y="-378.5" font-family="Helvetica,sans-Serif" font-size="10.00">mom_diagnostics::calculate</text>
<text text-anchor="middle" x="205.5" y="-367.5" font-family="Helvetica,sans-Serif" font-size="10.00">_energy_diagnostics</text>
</a>
</g>
</g>
<!-- Node3&#45;&gt;Node5 -->
<g id="edge2" class="edge"><title>Node3&#45;&gt;Node5</title>
<path fill="none" stroke="midnightblue" d="M66.3619,-253.625C80.9185,-277.33 112,-323.422 149,-351.5 150.767,-352.841 152.62,-354.123 154.533,-355.349"/>
<polygon fill="midnightblue" stroke="midnightblue" points="152.811,-358.396 163.223,-360.355 156.305,-352.331 152.811,-358.396"/>
</g>
<!-- Node6 -->
<g id="node4" class="node"><title>Node6</title>
<g id="a_node4"><a xlink:href="../../d9/d8b/namespacemom__diagnostics.html#a0b6f33e7b575b5f685f781030b301876" target="_top" xlink:title="mom_diagnostics::calculate\l_vertical_integrals">
<polygon fill="white" stroke="black" points="149,-311.5 149,-341.5 262,-341.5 262,-311.5 149,-311.5"/>
<text text-anchor="start" x="157" y="-329.5" font-family="Helvetica,sans-Serif" font-size="10.00">mom_diagnostics::calculate</text>
<text text-anchor="middle" x="205.5" y="-318.5" font-family="Helvetica,sans-Serif" font-size="10.00">_vertical_integrals</text>
</a>
</g>
</g>
<!-- Node3&#45;&gt;Node6 -->
<g id="edge3" class="edge"><title>Node3&#45;&gt;Node6</title>
<path fill="none" stroke="midnightblue" d="M80.5421,-253.731C98.8815,-265.7 125.311,-282.612 149,-296.5 154.643,-299.808 160.673,-303.205 166.603,-306.47"/>
<polygon fill="midnightblue" stroke="midnightblue" points="165.312,-309.753 175.769,-311.46 168.659,-303.604 165.312,-309.753"/>
</g>
<!-- Node8 -->
<g id="node6" class="node"><title>Node8</title>
<g id="a_node6"><a xlink:href="../../d0/de6/namespacemom__error__handler.html#a460cfb79a06c29fc249952c2a3710d67" target="_top" xlink:title="mom_error_handler::\lmom_error">
<polygon fill="white" stroke="black" points="453,-189.5 453,-219.5 546,-219.5 546,-189.5 453,-189.5"/>
<text text-anchor="start" x="461" y="-207.5" font-family="Helvetica,sans-Serif" font-size="10.00">mom_error_handler::</text>
<text text-anchor="middle" x="499.5" y="-196.5" font-family="Helvetica,sans-Serif" font-size="10.00">mom_error</text>
</a>
</g>
</g>
<!-- Node3&#45;&gt;Node8 -->
<g id="edge14" class="edge"><title>Node3&#45;&gt;Node8</title>
<path fill="none" stroke="midnightblue" d="M103.086,-253.523C117.595,-257.608 133.821,-261.464 149,-263.5 255.815,-277.83 380.056,-244.939 447.888,-222.731"/>
<polygon fill="midnightblue" stroke="midnightblue" points="449.095,-226.018 457.478,-219.538 446.884,-219.376 449.095,-226.018"/>
</g>
<!-- Node13 -->
<g id="node11" class="node"><title>Node13</title>
<g id="a_node11"><a xlink:href="../../d9/d8b/namespacemom__diagnostics.html#ab43b50cd32dfe693c6ce575c279988fb" target="_top" xlink:title="mom_diagnostics::find\l_weights">
<polygon fill="white" stroke="black" points="158,-223.5 158,-253.5 253,-253.5 253,-223.5 158,-223.5"/>
<text text-anchor="start" x="166" y="-241.5" font-family="Helvetica,sans-Serif" font-size="10.00">mom_diagnostics::find</text>
<text text-anchor="middle" x="205.5" y="-230.5" font-family="Helvetica,sans-Serif" font-size="10.00">_weights</text>
</a>
</g>
</g>
<!-- Node3&#45;&gt;Node13 -->
<g id="edge10" class="edge"><title>Node3&#45;&gt;Node13</title>
<path fill="none" stroke="midnightblue" d="M113.074,-238.5C124.404,-238.5 136.338,-238.5 147.709,-238.5"/>
<polygon fill="midnightblue" stroke="midnightblue" points="147.96,-242 157.96,-238.5 147.96,-235 147.96,-242"/>
</g>
<!-- Node14 -->
<g id="node12" class="node"><title>Node14</title>
<g id="a_node12"><a xlink:href="../../d9/d8a/namespacemom__spatial__means.html#aa49abab62973a263d6f5a1c776f62a11" target="_top" xlink:title="mom_spatial_means::\lglobal_area_mean">
<polygon fill="white" stroke="black" points="158,-174.5 158,-204.5 253,-204.5 253,-174.5 158,-174.5"/>
<text text-anchor="start" x="166" y="-192.5" font-family="Helvetica,sans-Serif" font-size="10.00">mom_spatial_means::</text>
<text text-anchor="middle" x="205.5" y="-181.5" font-family="Helvetica,sans-Serif" font-size="10.00">global_area_mean</text>
</a>
</g>
</g>
<!-- Node3&#45;&gt;Node14 -->
<g id="edge11" class="edge"><title>Node3&#45;&gt;Node14</title>
<path fill="none" stroke="midnightblue" d="M102.804,-223.399C117.544,-218.485 134.067,-212.978 149.44,-207.853"/>
<polygon fill="midnightblue" stroke="midnightblue" points="150.965,-211.034 159.345,-204.552 148.752,-204.394 150.965,-211.034"/>
</g>
<!-- Node15 -->
<g id="node13" class="node"><title>Node15</title>
<g id="a_node13"><a xlink:href="../../d9/d8a/namespacemom__spatial__means.html#a6555c562d34246f8f4fb089f9c049bde" target="_top" xlink:title="mom_spatial_means::\lglobal_layer_mean">
<polygon fill="white" stroke="black" points="158,-125.5 158,-155.5 253,-155.5 253,-125.5 158,-125.5"/>
<text text-anchor="start" x="166" y="-143.5" font-family="Helvetica,sans-Serif" font-size="10.00">mom_spatial_means::</text>
<text text-anchor="middle" x="205.5" y="-132.5" font-family="Helvetica,sans-Serif" font-size="10.00">global_layer_mean</text>
</a>
</g>
</g>
<!-- Node3&#45;&gt;Node15 -->
<g id="edge12" class="edge"><title>Node3&#45;&gt;Node15</title>
<path fill="none" stroke="midnightblue" d="M73.761,-223.434C91.3663,-207.64 120.732,-182.766 149,-165.5 152.114,-163.598 155.398,-161.754 158.749,-159.987"/>
<polygon fill="midnightblue" stroke="midnightblue" points="160.331,-163.11 167.707,-155.504 157.198,-156.85 160.331,-163.11"/>
</g>
<!-- Node16 -->
<g id="node14" class="node"><title>Node16</title>
<g id="a_node14"><a xlink:href="../../d9/d8a/namespacemom__spatial__means.html#ad01660bdcc6a67641afba8c2045f090f" target="_top" xlink:title="mom_spatial_means::\lglobal_volume_mean">
<polygon fill="white" stroke="black" points="158,-76.5 158,-106.5 253,-106.5 253,-76.5 158,-76.5"/>
<text text-anchor="start" x="166" y="-94.5" font-family="Helvetica,sans-Serif" font-size="10.00">mom_spatial_means::</text>
<text text-anchor="middle" x="205.5" y="-83.5" font-family="Helvetica,sans-Serif" font-size="10.00">global_volume_mean</text>
</a>
</g>
</g>
<!-- Node3&#45;&gt;Node16 -->
<g id="edge13" class="edge"><title>Node3&#45;&gt;Node16</title>
<path fill="none" stroke="midnightblue" d="M65.3542,-223.243C79.1425,-197.785 109.98,-146.394 149,-115.5 150.574,-114.254 152.223,-113.06 153.926,-111.917"/>
<polygon fill="midnightblue" stroke="midnightblue" points="156.005,-114.753 162.805,-106.629 152.423,-108.739 156.005,-114.753"/>
</g>
<!-- Node17 -->
<g id="node15" class="node"><title>Node17</title>
<g id="a_node15"><a xlink:href="../../dd/d33/namespacemom__wave__speed.html#a90775d734022991a9b49d5ee25210051" target="_top" xlink:title="mom_wave_speed::wave\l_speed">
<polygon fill="white" stroke="black" points="152,-27.5 152,-57.5 259,-57.5 259,-27.5 152,-27.5"/>
<text text-anchor="start" x="160" y="-45.5" font-family="Helvetica,sans-Serif" font-size="10.00">mom_wave_speed::wave</text>
<text text-anchor="middle" x="205.5" y="-34.5" font-family="Helvetica,sans-Serif" font-size="10.00">_speed</text>
</a>
</g>
</g>
<!-- Node3&#45;&gt;Node17 -->
<g id="edge15" class="edge"><title>Node3&#45;&gt;Node17</title>
<path fill="none" stroke="midnightblue" d="M61.8813,-223.006C71.9576,-189.966 99.7717,-111.905 149,-66.5 150.273,-65.3256 151.613,-64.203 153.005,-63.1302"/>
<polygon fill="midnightblue" stroke="midnightblue" points="155.062,-65.9659 161.457,-57.5192 151.19,-60.134 155.062,-65.9659"/>
</g>
<!-- Node7 -->
<g id="node5" class="node"><title>Node7</title>
<g id="a_node5"><a xlink:href="../../d1/d01/namespacemom__eos.html#a1def0e6b257a12105457a50c92da2487" target="_top" xlink:title="This subroutine calculates analytical and nearly&#45;analytical integrals of pressure anomalies across la...">
<polygon fill="white" stroke="black" points="298,-314 298,-333 405,-333 405,-314 298,-314"/>
<text text-anchor="middle" x="351.5" y="-321" font-family="Helvetica,sans-Serif" font-size="10.00">mom_eos::int_density_dz</text>
</a>
</g>
</g>
<!-- Node6&#45;&gt;Node7 -->
<g id="edge4" class="edge"><title>Node6&#45;&gt;Node7</title>
<path fill="none" stroke="midnightblue" d="M262.174,-325.34C270.502,-325.167 279.137,-324.987 287.601,-324.81"/>
<polygon fill="midnightblue" stroke="midnightblue" points="287.884,-328.305 297.809,-324.598 287.738,-321.307 287.884,-328.305"/>
</g>
<!-- Node7&#45;&gt;Node8 -->
<g id="edge5" class="edge"><title>Node7&#45;&gt;Node8</title>
<path fill="none" stroke="midnightblue" d="M376.298,-313.934C385.792,-309.461 396.469,-303.554 405,-296.5 425.008,-279.957 422.741,-268.955 441,-250.5 449.623,-241.784 459.855,-233.143 469.281,-225.743"/>
<polygon fill="midnightblue" stroke="midnightblue" points="471.495,-228.456 477.295,-219.59 467.232,-222.903 471.495,-228.456"/>
</g>
<!-- Node10 -->
<g id="node8" class="node"><title>Node10</title>
<g id="a_node8"><a xlink:href="../../d1/d01/namespacemom__eos.html#a9a8d9a5df8f211fbb4c22dcccc2f7916" target="_top" xlink:title="mom_eos::int_density\l_dz_generic">
<polygon fill="white" stroke="black" points="452.5,-357.5 452.5,-387.5 546.5,-387.5 546.5,-357.5 452.5,-357.5"/>
<text text-anchor="start" x="460.5" y="-375.5" font-family="Helvetica,sans-Serif" font-size="10.00">mom_eos::int_density</text>
<text text-anchor="middle" x="499.5" y="-364.5" font-family="Helvetica,sans-Serif" font-size="10.00">_dz_generic</text>
</a>
</g>
</g>
<!-- Node7&#45;&gt;Node10 -->
<g id="edge7" class="edge"><title>Node7&#45;&gt;Node10</title>
<path fill="none" stroke="midnightblue" d="M380.997,-333.064C398.916,-339.078 422.62,-347.033 444.043,-354.223"/>
<polygon fill="midnightblue" stroke="midnightblue" points="443.102,-357.599 453.696,-357.463 445.329,-350.963 443.102,-357.599"/>
</g>
<!-- Node11 -->
<g id="node9" class="node"><title>Node11</title>
<g id="a_node9"><a xlink:href="../../d5/de6/namespacemom__eos__linear.html#aba00b479ec037448437b55295f0a6c01" target="_top" xlink:title="mom_eos_linear::int\l_density_dz_linear">
<polygon fill="white" stroke="black" points="455,-308.5 455,-338.5 544,-338.5 544,-308.5 455,-308.5"/>
<text text-anchor="start" x="463" y="-326.5" font-family="Helvetica,sans-Serif" font-size="10.00">mom_eos_linear::int</text>
<text text-anchor="middle" x="499.5" y="-315.5" font-family="Helvetica,sans-Serif" font-size="10.00">_density_dz_linear</text>
</a>
</g>
</g>
<!-- Node7&#45;&gt;Node11 -->
<g id="edge8" class="edge"><title>Node7&#45;&gt;Node11</title>
<path fill="none" stroke="midnightblue" d="M405.209,-323.5C418.099,-323.5 431.906,-323.5 444.84,-323.5"/>
<polygon fill="midnightblue" stroke="midnightblue" points="444.992,-327 454.992,-323.5 444.992,-320 444.992,-327"/>
</g>
<!-- Node12 -->
<g id="node10" class="node"><title>Node12</title>
<g id="a_node10"><a xlink:href="../../de/d76/namespacemom__eos__wright.html#adde51def9a4b771d7165d4d187e5dea8" target="_top" xlink:title="mom_eos_wright::int\l_density_dz_wright">
<polygon fill="white" stroke="black" points="454,-259.5 454,-289.5 545,-289.5 545,-259.5 454,-259.5"/>
<text text-anchor="start" x="462" y="-277.5" font-family="Helvetica,sans-Serif" font-size="10.00">mom_eos_wright::int</text>
<text text-anchor="middle" x="499.5" y="-266.5" font-family="Helvetica,sans-Serif" font-size="10.00">_density_dz_wright</text>
</a>
</g>
</g>
<!-- Node7&#45;&gt;Node12 -->
<g id="edge9" class="edge"><title>Node7&#45;&gt;Node12</title>
<path fill="none" stroke="midnightblue" d="M380.997,-313.936C398.988,-307.898 422.811,-299.903 444.301,-292.69"/>
<polygon fill="midnightblue" stroke="midnightblue" points="445.614,-295.941 453.981,-289.441 443.387,-289.305 445.614,-295.941"/>
</g>
<!-- Node9 -->
<g id="node7" class="node"><title>Node9</title>
<g id="a_node7"><a xlink:href="../../d0/de6/namespacemom__error__handler.html#ad5f00a53059c72fe2332d1436c80ca71" target="_top" xlink:title="mom_error_handler::\lis_root_pe">
<polygon fill="white" stroke="black" points="594,-189.5 594,-219.5 687,-219.5 687,-189.5 594,-189.5"/>
<text text-anchor="start" x="602" y="-207.5" font-family="Helvetica,sans-Serif" font-size="10.00">mom_error_handler::</text>
<text text-anchor="middle" x="640.5" y="-196.5" font-family="Helvetica,sans-Serif" font-size="10.00">is_root_pe</text>
</a>
</g>
</g>
<!-- Node8&#45;&gt;Node9 -->
<g id="edge6" class="edge"><title>Node8&#45;&gt;Node9</title>
<path fill="none" stroke="midnightblue" d="M546.014,-204.5C558.014,-204.5 571.102,-204.5 583.581,-204.5"/>
<polygon fill="midnightblue" stroke="midnightblue" points="583.884,-208 593.884,-204.5 583.884,-201 583.884,-208"/>
</g>
<!-- Node17&#45;&gt;Node8 -->
<g id="edge16" class="edge"><title>Node17&#45;&gt;Node8</title>
<path fill="none" stroke="midnightblue" d="M243.263,-57.5312C249.585,-60.361 256.036,-63.4074 262,-66.5 278.646,-75.1314 281.884,-78.9153 298,-88.5 355.559,-122.732 423.076,-161.513 463.239,-184.44"/>
<polygon fill="midnightblue" stroke="midnightblue" points="461.688,-187.585 472.109,-189.5 465.157,-181.505 461.688,-187.585"/>
</g>
<!-- Node18 -->
<g id="node16" class="node"><title>Node18</title>
<g id="a_node16"><a xlink:href="../../d1/d01/namespacemom__eos.html#a204529f8434a0322314e6ce2a9762436" target="_top" xlink:title="Calls the appropriate subroutine to calculate density derivatives for 1&#45;D array inputs. ">
<polygon fill="white" stroke="black" points="308,-49.5 308,-79.5 395,-79.5 395,-49.5 308,-49.5"/>
<text text-anchor="start" x="316" y="-67.5" font-family="Helvetica,sans-Serif" font-size="10.00">mom_eos::calculate</text>
<text text-anchor="middle" x="351.5" y="-56.5" font-family="Helvetica,sans-Serif" font-size="10.00">_density_derivs</text>
</a>
</g>
</g>
<!-- Node17&#45;&gt;Node18 -->
<g id="edge17" class="edge"><title>Node17&#45;&gt;Node18</title>
<path fill="none" stroke="midnightblue" d="M259.303,-50.5671C271.719,-52.464 284.957,-54.4866 297.388,-56.3856"/>
<polygon fill="midnightblue" stroke="midnightblue" points="297.189,-59.8958 307.603,-57.9463 298.246,-52.9761 297.189,-59.8958"/>
</g>
<!-- Node18&#45;&gt;Node8 -->
<g id="edge18" class="edge"><title>Node18&#45;&gt;Node8</title>
<path fill="none" stroke="midnightblue" d="M368.402,-79.749C394.183,-104.47 445.223,-153.412 475.137,-182.097"/>
<polygon fill="midnightblue" stroke="midnightblue" points="472.977,-184.875 482.617,-189.27 477.822,-179.822 472.977,-184.875"/>
</g>
<!-- Node19 -->
<g id="node17" class="node"><title>Node19</title>
<g id="a_node17"><a xlink:href="../../d5/de6/namespacemom__eos__linear.html#a73d8a625582247379092adf1aeeb55e0" target="_top" xlink:title="mom_eos_linear::calculate\l_density_derivs_linear">
<polygon fill="white" stroke="black" points="444,-98.5 444,-128.5 555,-128.5 555,-98.5 444,-98.5"/>
<text text-anchor="start" x="452" y="-116.5" font-family="Helvetica,sans-Serif" font-size="10.00">mom_eos_linear::calculate</text>
<text text-anchor="middle" x="499.5" y="-105.5" font-family="Helvetica,sans-Serif" font-size="10.00">_density_derivs_linear</text>
</a>
</g>
</g>
<!-- Node18&#45;&gt;Node19 -->
<g id="edge19" class="edge"><title>Node18&#45;&gt;Node19</title>
<path fill="none" stroke="midnightblue" d="M395.122,-78.8046C410.386,-83.9276 427.808,-89.7746 443.943,-95.1898"/>
<polygon fill="midnightblue" stroke="midnightblue" points="443.198,-98.6317 453.792,-98.4954 445.426,-91.9954 443.198,-98.6317"/>
</g>
<!-- Node20 -->
<g id="node18" class="node"><title>Node20</title>
<g id="a_node18"><a xlink:href="../../dd/d6b/namespacemom__eos__unesco.html#af8666837abadea54c016bf59838f96cc" target="_top" xlink:title="mom_eos_unesco::calculate\l_density_derivs_unesco">
<polygon fill="white" stroke="black" points="441,-49.5 441,-79.5 558,-79.5 558,-49.5 441,-49.5"/>
<text text-anchor="start" x="449" y="-67.5" font-family="Helvetica,sans-Serif" font-size="10.00">mom_eos_unesco::calculate</text>
<text text-anchor="middle" x="499.5" y="-56.5" font-family="Helvetica,sans-Serif" font-size="10.00">_density_derivs_unesco</text>
</a>
</g>
</g>
<!-- Node18&#45;&gt;Node20 -->
<g id="edge20" class="edge"><title>Node18&#45;&gt;Node20</title>
<path fill="none" stroke="midnightblue" d="M395.122,-64.5C406.3,-64.5 418.636,-64.5 430.775,-64.5"/>
<polygon fill="midnightblue" stroke="midnightblue" points="430.897,-68.0001 440.897,-64.5 430.897,-61.0001 430.897,-68.0001"/>
</g>
<!-- Node21 -->
<g id="node19" class="node"><title>Node21</title>
<g id="a_node19"><a xlink:href="../../de/d76/namespacemom__eos__wright.html#ad7748e85ddacb33ad90ec3a9017e6e72" target="_top" xlink:title="mom_eos_wright::calculate\l_density_derivs_wright">
<polygon fill="white" stroke="black" points="443,-0.5 443,-30.5 556,-30.5 556,-0.5 443,-0.5"/>
<text text-anchor="start" x="451" y="-18.5" font-family="Helvetica,sans-Serif" font-size="10.00">mom_eos_wright::calculate</text>
<text text-anchor="middle" x="499.5" y="-7.5" font-family="Helvetica,sans-Serif" font-size="10.00">_density_derivs_wright</text>
</a>
</g>
</g>
<!-- Node18&#45;&gt;Node21 -->
<g id="edge21" class="edge"><title>Node18&#45;&gt;Node21</title>
<path fill="none" stroke="midnightblue" d="M395.122,-50.1954C410.386,-45.0724 427.808,-39.2254 443.943,-33.8102"/>
<polygon fill="midnightblue" stroke="midnightblue" points="445.426,-37.0046 453.792,-30.5046 443.198,-30.3683 445.426,-37.0046"/>
</g>
</g>
</svg>
        <g id="navigator" transform="translate(0 0)" fill="#404254">
                <rect fill="#f2f5e9" fill-opacity="0.5" stroke="#606060" stroke-width=".5" x="0" y="0" width="60" height="60"/>
                <use id="zoomplus" xlink:href="#zoomPlus" x="17" y="9" onmousedown="handleZoom(evt,'in')"/>
                <use id="zoomminus" xlink:href="#zoomMin" x="42" y="9" onmousedown="handleZoom(evt,'out')"/>
                <use id="reset" xlink:href="#resetDef" x="30" y="36" onmousedown="handleReset()"/>
                <g id="arrowUp" xlink:href="#dirArrow" transform="translate(30 24)" onmousedown="handlePan(0,-1)">
                  <use xlink:href="#rim" fill="#404040">
                        <set attributeName="fill" to="#808080" begin="arrowUp.mouseover" end="arrowUp.mouseout"/>
                  </use>
                  <path fill="none" stroke="white" stroke-width="1.5" d="M0,-3.0v7 M-2.5,-0.5L0,-3.0L2.5,-0.5"/>
                </g>
                <g id="arrowRight" xlink:href="#dirArrow" transform="rotate(90) translate(36 -43)" onmousedown="handlePan(1,0)">
                  <use xlink:href="#rim" fill="#404040">
                        <set attributeName="fill" to="#808080" begin="arrowRight.mouseover" end="arrowRight.mouseout"/>
                  </use>
                  <path fill="none" stroke="white" stroke-width="1.5" d="M0,-3.0v7 M-2.5,-0.5L0,-3.0L2.5,-0.5"/>
                </g>
                <g id="arrowDown" xlink:href="#dirArrow" transform="rotate(180) translate(-30 -48)" onmousedown="handlePan(0,1)">
                  <use xlink:href="#rim" fill="#404040">
                        <set attributeName="fill" to="#808080" begin="arrowDown.mouseover" end="arrowDown.mouseout"/>
                  </use>
                  <path fill="none" stroke="white" stroke-width="1.5" d="M0,-3.0v7 M-2.5,-0.5L0,-3.0L2.5,-0.5"/>
                </g>
                <g id="arrowLeft" xlink:href="#dirArrow" transform="rotate(270) translate(-36 17)" onmousedown="handlePan(-1,0)">
                  <use xlink:href="#rim" fill="#404040">
                        <set attributeName="fill" to="#808080" begin="arrowLeft.mouseover" end="arrowLeft.mouseout"/>
                  </use>
                  <path fill="none" stroke="white" stroke-width="1.5" d="M0,-3.0v7 M-2.5,-0.5L0,-3.0L2.5,-0.5"/>
                </g>
        </g>
        <svg viewBox="0 0 15 15" width="100%" height="30px" preserveAspectRatio="xMaxYMin meet">
         <g id="arrow_out" transform="scale(0.3 0.3)">
          <a xlink:href="namespacemom__diagnostics_abb6644248c28ab2e952361bfec436063_cgraph_org.svg" target="_base">
           <rect id="button" ry="5" rx="5" y="6" x="6" height="38" width="38"
                fill="#f2f5e9" fill-opacity="0.5" stroke="#606060" stroke-width="1.0"/>
           <path id="arrow"
             d="M 11.500037,31.436501 C 11.940474,20.09759 22.043105,11.32322 32.158766,21.979434 L 37.068811,17.246167 C 37.068811,17.246167 37.088388,32 37.088388,32 L 22.160133,31.978069 C 22.160133,31.978069 26.997745,27.140456 26.997745,27.140456 C 18.528582,18.264221 13.291696,25.230495 11.500037,31.436501 z"
             style="fill:#404040;"/>
          </a>
         </g>
        </svg>
</svg>
