<?xml version="1.0" encoding="UTF-8" standalone="no"?>
<!DOCTYPE svg PUBLIC "-//W3C//DTD SVG 1.1//EN"
 "http://www.w3.org/Graphics/SVG/1.1/DTD/svg11.dtd">
<!-- Generated by graphviz version 2.38.0 (20140413.2041)
 -->
<!-- Title: mom_diagnostics::register_time_deriv Pages: 1 -->
<svg width="394pt" height="61pt"
 viewBox="0.00 0.00 394.00 61.00" xmlns="http://www.w3.org/2000/svg" xmlns:xlink="http://www.w3.org/1999/xlink">
<g id="graph0" class="graph" transform="scale(1 1) rotate(0) translate(4 57)">
<title>mom_diagnostics::register_time_deriv</title>
<polygon fill="white" stroke="none" points="-4,4 -4,-57 390,-57 390,4 -4,4"/>
<!-- Node50 -->
<g id="node1" class="node"><title>Node50</title>
<polygon fill="#bfbfbf" stroke="black" points="0,-22.5 0,-52.5 110,-52.5 110,-22.5 0,-22.5"/>
<text text-anchor="start" x="8" y="-40.5" font-family="Helvetica,sans-Serif" font-size="10.00">mom_diagnostics::register</text>
<text text-anchor="middle" x="55" y="-29.5" font-family="Helvetica,sans-Serif" font-size="10.00">_time_deriv</text>
</g>
<!-- Node51 -->
<g id="node2" class="node"><title>Node51</title>
<g id="a_node2"><a xlink:href="../../d9/d8b/namespacemom__diagnostics.html#a34823715075351ca854378d8cd22ebf2" target="_top" xlink:title="mom_diagnostics::mom\l_diagnostics_init">
<polygon fill="white" stroke="black" points="285,-22.5 285,-52.5 386,-52.5 386,-22.5 285,-22.5"/>
<text text-anchor="start" x="293" y="-40.5" font-family="Helvetica,sans-Serif" font-size="10.00">mom_diagnostics::mom</text>
<text text-anchor="middle" x="335.5" y="-29.5" font-family="Helvetica,sans-Serif" font-size="10.00">_diagnostics_init</text>
</a>
</g>
</g>
<!-- Node50&#45;&gt;Node51 -->
<g id="edge1" class="edge"><title>Node50&#45;&gt;Node51</title>
<path fill="none" stroke="midnightblue" d="M120.305,-39.9045C128.942,-40.151 137.686,-40.3615 146,-40.5 191.771,-41.2626 203.229,-41.3027 249,-40.5 260.583,-40.2968 273.046,-39.939 284.776,-39.5395"/>
<polygon fill="midnightblue" stroke="midnightblue" points="120.349,-36.4043 110.248,-39.6007 120.137,-43.4011 120.349,-36.4043"/>
</g>
<!-- Node52 -->
<g id="node3" class="node"><title>Node52</title>
<g id="a_node3"><a xlink:href="../../d9/d8b/namespacemom__diagnostics.html#a90a92410576d955e89d2aa4e3f6d7402" target="_top" xlink:title="mom_diagnostics::set\l_dependent_diagnostics">
<polygon fill="white" stroke="black" points="146,-0.5 146,-30.5 249,-30.5 249,-0.5 146,-0.5"/>
<text text-anchor="start" x="154" y="-18.5" font-family="Helvetica,sans-Serif" font-size="10.00">mom_diagnostics::set</text>
<text text-anchor="middle" x="197.5" y="-7.5" font-family="Helvetica,sans-Serif" font-size="10.00">_dependent_diagnostics</text>
</a>
</g>
</g>
<!-- Node50&#45;&gt;Node52 -->
<g id="edge2" class="edge"><title>Node50&#45;&gt;Node52</title>
<path fill="none" stroke="midnightblue" d="M120.209,-27.446C128.704,-26.1158 137.318,-24.767 145.548,-23.4782"/>
<polygon fill="midnightblue" stroke="midnightblue" points="119.659,-23.9893 110.321,-28.9942 120.742,-30.905 119.659,-23.9893"/>
</g>
<!-- Node52&#45;&gt;Node51 -->
<g id="edge3" class="edge"><title>Node52&#45;&gt;Node51</title>
<path fill="none" stroke="midnightblue" d="M259.094,-25.3019C267.662,-26.6879 276.388,-28.0996 284.721,-29.4476"/>
<polygon fill="midnightblue" stroke="midnightblue" points="259.572,-21.8339 249.141,-23.692 258.454,-28.744 259.572,-21.8339"/>
</g>
</g>
</svg>
