<?xml version="1.0" encoding="UTF-8" standalone="no"?>
<!DOCTYPE svg PUBLIC "-//W3C//DTD SVG 1.1//EN"
 "http://www.w3.org/Graphics/SVG/1.1/DTD/svg11.dtd">
<!-- Generated by graphviz version 2.38.0 (20140413.2041)
 -->
<!-- Title: mom_barotropic::barotropic_cs Pages: 1 -->
<svg width="348pt" height="786pt"
 viewBox="0.00 0.00 348.00 785.50" xmlns="http://www.w3.org/2000/svg" xmlns:xlink="http://www.w3.org/1999/xlink">
<g id="graph0" class="graph" transform="scale(1 1) rotate(0) translate(4 781.5)">
<title>mom_barotropic::barotropic_cs</title>
<polygon fill="white" stroke="none" points="-4,4 -4,-781.5 344,-781.5 344,4 -4,4"/>
<!-- Node1 -->
<g id="node1" class="node"><title>Node1</title>
<polygon fill="#bfbfbf" stroke="black" points="212,-383 212,-402 340,-402 340,-383 212,-383"/>
<text text-anchor="middle" x="276" y="-390" font-family="Helvetica,sans-Serif" font-size="10.00">mom_barotropic::barotropic_cs</text>
</g>
<!-- Node2 -->
<g id="node2" class="node"><title>Node2</title>
<polygon fill="white" stroke="#bfbfbf" points="34,-646 34,-665 72,-665 72,-646 34,-646"/>
<text text-anchor="middle" x="53" y="-653" font-family="Helvetica,sans-Serif" font-size="10.00">logical</text>
</g>
<!-- Node2&#45;&gt;Node1 -->
<g id="edge1" class="edge"><title>Node2&#45;&gt;Node1</title>
<path fill="none" stroke="#9a32cd" stroke-dasharray="5,2" d="M82.4902,-658.561C113.554,-660.272 162.969,-658.005 194,-631.5 266.955,-569.184 274.367,-438.58 274.985,-402.129"/>
<polygon fill="#9a32cd" stroke="#9a32cd" points="82.5553,-655.057 72.3281,-657.823 82.0484,-662.038 82.5553,-655.057"/>
<text text-anchor="middle" x="159" y="-769.5" font-family="Helvetica,sans-Serif" font-size="10.00"> bound_bt_corr</text>
<text text-anchor="middle" x="159" y="-758.5" font-family="Helvetica,sans-Serif" font-size="10.00">visc_rem_u_uh0</text>
<text text-anchor="middle" x="159" y="-747.5" font-family="Helvetica,sans-Serif" font-size="10.00">use_wide_halos</text>
<text text-anchor="middle" x="159" y="-736.5" font-family="Helvetica,sans-Serif" font-size="10.00">adjust_bt_cont</text>
<text text-anchor="middle" x="159" y="-725.5" font-family="Helvetica,sans-Serif" font-size="10.00">clip_velocity</text>
<text text-anchor="middle" x="159" y="-714.5" font-family="Helvetica,sans-Serif" font-size="10.00">dynamic_psurf</text>
<text text-anchor="middle" x="159" y="-703.5" font-family="Helvetica,sans-Serif" font-size="10.00">sadourny</text>
<text text-anchor="middle" x="159" y="-692.5" font-family="Helvetica,sans-Serif" font-size="10.00">split</text>
<text text-anchor="middle" x="159" y="-681.5" font-family="Helvetica,sans-Serif" font-size="10.00">debug_bt</text>
<text text-anchor="middle" x="159" y="-670.5" font-family="Helvetica,sans-Serif" font-size="10.00">bt_project_velocity</text>
<text text-anchor="middle" x="159" y="-659.5" font-family="Helvetica,sans-Serif" font-size="10.00">...</text>
</g>
<!-- Node3 -->
<g id="node3" class="node"><title>Node3</title>
<polygon fill="white" stroke="#bfbfbf" points="27.5,-608 27.5,-627 78.5,-627 78.5,-608 27.5,-608"/>
<text text-anchor="middle" x="53" y="-615" font-family="Helvetica,sans-Serif" font-size="10.00">time_type</text>
</g>
<!-- Node3&#45;&gt;Node1 -->
<g id="edge2" class="edge"><title>Node3&#45;&gt;Node1</title>
<path fill="none" stroke="#9a32cd" stroke-dasharray="5,2" d="M88.9964,-619.863C119.904,-620.069 164.519,-615.533 194,-591.5 256.16,-540.828 271.043,-434.907 274.216,-402.279"/>
<polygon fill="#9a32cd" stroke="#9a32cd" points="88.7635,-616.357 78.6828,-619.617 88.5963,-623.355 88.7635,-616.357"/>
<text text-anchor="middle" x="159" y="-619.5" font-family="Helvetica,sans-Serif" font-size="10.00"> time</text>
</g>
<!-- Node4 -->
<g id="node4" class="node"><title>Node4</title>
<polygon fill="white" stroke="#bfbfbf" points="14,-462 14,-481 92,-481 92,-462 14,-462"/>
<text text-anchor="middle" x="53" y="-469" font-family="Helvetica,sans-Serif" font-size="10.00">group_pass_type</text>
</g>
<!-- Node4&#45;&gt;Node1 -->
<g id="edge3" class="edge"><title>Node4&#45;&gt;Node1</title>
<path fill="none" stroke="#9a32cd" stroke-dasharray="5,2" d="M102.259,-461.511C129.635,-455.164 164.261,-445.979 194,-434.5 217.497,-425.431 243.053,-411.425 259.046,-402.114"/>
<polygon fill="#9a32cd" stroke="#9a32cd" points="101.126,-458.179 92.1477,-463.804 102.674,-465.006 101.126,-458.179"/>
<text text-anchor="middle" x="159" y="-579.5" font-family="Helvetica,sans-Serif" font-size="10.00"> pass_dat_uv</text>
<text text-anchor="middle" x="159" y="-568.5" font-family="Helvetica,sans-Serif" font-size="10.00">pass_gtot</text>
<text text-anchor="middle" x="159" y="-557.5" font-family="Helvetica,sans-Serif" font-size="10.00">pass_etaav</text>
<text text-anchor="middle" x="159" y="-546.5" font-family="Helvetica,sans-Serif" font-size="10.00">pass_ubta_uhbta</text>
<text text-anchor="middle" x="159" y="-535.5" font-family="Helvetica,sans-Serif" font-size="10.00">pass_tmp_uv</text>
<text text-anchor="middle" x="159" y="-524.5" font-family="Helvetica,sans-Serif" font-size="10.00">pass_e_anom</text>
<text text-anchor="middle" x="159" y="-513.5" font-family="Helvetica,sans-Serif" font-size="10.00">pass_eta_bt_rem</text>
<text text-anchor="middle" x="159" y="-502.5" font-family="Helvetica,sans-Serif" font-size="10.00">pass_eta_ubt</text>
<text text-anchor="middle" x="159" y="-491.5" font-family="Helvetica,sans-Serif" font-size="10.00">pass_q_dcor</text>
<text text-anchor="start" x="127.5" y="-480.5" font-family="Helvetica,sans-Serif" font-size="10.00">pass_force_hbt0</text>
<text text-anchor="middle" x="159" y="-469.5" font-family="Helvetica,sans-Serif" font-size="10.00">_cor_ref</text>
<text text-anchor="middle" x="159" y="-458.5" font-family="Helvetica,sans-Serif" font-size="10.00">...</text>
</g>
<!-- Node5 -->
<g id="node5" class="node"><title>Node5</title>
<polygon fill="white" stroke="#bfbfbf" points="29.5,-424 29.5,-443 76.5,-443 76.5,-424 29.5,-424"/>
<text text-anchor="middle" x="53" y="-431" font-family="Helvetica,sans-Serif" font-size="10.00">diag_ctrl</text>
</g>
<!-- Node5&#45;&gt;Node1 -->
<g id="edge4" class="edge"><title>Node5&#45;&gt;Node1</title>
<path fill="none" stroke="#9a32cd" stroke-dasharray="5,2" d="M86.822,-427.411C122.939,-420.71 181.458,-409.854 223.656,-402.025"/>
<polygon fill="#9a32cd" stroke="#9a32cd" points="86.0123,-424.001 76.8185,-429.267 87.2892,-430.884 86.0123,-424.001"/>
<text text-anchor="middle" x="159" y="-422.5" font-family="Helvetica,sans-Serif" font-size="10.00"> diag</text>
</g>
<!-- Node6 -->
<g id="node6" class="node"><title>Node6</title>
<polygon fill="white" stroke="#bfbfbf" points="14.5,-374.5 14.5,-404.5 91.5,-404.5 91.5,-374.5 14.5,-374.5"/>
<text text-anchor="start" x="22.5" y="-392.5" font-family="Helvetica,sans-Serif" font-size="10.00">type(tidal_forcing</text>
<text text-anchor="middle" x="53" y="-381.5" font-family="Helvetica,sans-Serif" font-size="10.00">_cs), pointer</text>
</g>
<!-- Node6&#45;&gt;Node1 -->
<g id="edge5" class="edge"><title>Node6&#45;&gt;Node1</title>
<path fill="none" stroke="#9a32cd" stroke-dasharray="5,2" d="M101.804,-390.149C134.022,-390.586 176.868,-391.168 211.883,-391.643"/>
<polygon fill="#9a32cd" stroke="#9a32cd" points="101.787,-386.648 91.7401,-390.012 101.692,-393.648 101.787,-386.648"/>
<text text-anchor="middle" x="159" y="-393.5" font-family="Helvetica,sans-Serif" font-size="10.00"> tides_csp</text>
</g>
<!-- Node7 -->
<g id="node7" class="node"><title>Node7</title>
<polygon fill="white" stroke="#bfbfbf" points="15,-336 15,-355 91,-355 91,-336 15,-336"/>
<text text-anchor="middle" x="53" y="-343" font-family="Helvetica,sans-Serif" font-size="10.00">ocean_grid_type</text>
</g>
<!-- Node7&#45;&gt;Node1 -->
<g id="edge6" class="edge"><title>Node7&#45;&gt;Node1</title>
<path fill="none" stroke="#9a32cd" stroke-dasharray="5,2" d="M101.185,-355.098C128.349,-360.667 163.12,-367.871 194,-374.5 206.535,-377.191 220.145,-380.186 232.566,-382.949"/>
<polygon fill="#9a32cd" stroke="#9a32cd" points="101.67,-351.624 91.1709,-353.048 100.266,-358.482 101.67,-351.624"/>
<text text-anchor="middle" x="159" y="-377.5" font-family="Helvetica,sans-Serif" font-size="10.00"> debug_bt_g</text>
</g>
<!-- Node8 -->
<g id="node8" class="node"><title>Node8</title>
<polygon fill="white" stroke="#bfbfbf" points="32.5,-194 32.5,-213 73.5,-213 73.5,-194 32.5,-194"/>
<text text-anchor="middle" x="53" y="-201" font-family="Helvetica,sans-Serif" font-size="10.00">integer</text>
</g>
<!-- Node8&#45;&gt;Node1 -->
<g id="edge7" class="edge"><title>Node8&#45;&gt;Node1</title>
<path fill="none" stroke="#9a32cd" stroke-dasharray="5,2" d="M83.8439,-200.091C114.437,-198.216 161.946,-199.988 194,-223.5 249.618,-264.297 268.668,-353.423 273.573,-382.854"/>
<polygon fill="#9a32cd" stroke="#9a32cd" points="83.4787,-196.608 73.7814,-200.876 84.0234,-203.587 83.4787,-196.608"/>
<text text-anchor="middle" x="159" y="-347.5" font-family="Helvetica,sans-Serif" font-size="10.00"> id_gtotn</text>
<text text-anchor="middle" x="159" y="-336.5" font-family="Helvetica,sans-Serif" font-size="10.00">id_ubt_hifreq</text>
<text text-anchor="middle" x="159" y="-325.5" font-family="Helvetica,sans-Serif" font-size="10.00">id_vbt_st</text>
<text text-anchor="middle" x="159" y="-314.5" font-family="Helvetica,sans-Serif" font-size="10.00">id_ubtav</text>
<text text-anchor="start" x="124" y="-303.5" font-family="Helvetica,sans-Serif" font-size="10.00">nonlin_cont_update</text>
<text text-anchor="middle" x="159" y="-292.5" font-family="Helvetica,sans-Serif" font-size="10.00">_period</text>
<text text-anchor="middle" x="159" y="-281.5" font-family="Helvetica,sans-Serif" font-size="10.00">id_btc_ubt_ee</text>
<text text-anchor="middle" x="159" y="-270.5" font-family="Helvetica,sans-Serif" font-size="10.00">id_ubt_st</text>
<text text-anchor="middle" x="159" y="-259.5" font-family="Helvetica,sans-Serif" font-size="10.00">id_vbtav</text>
<text text-anchor="middle" x="159" y="-248.5" font-family="Helvetica,sans-Serif" font-size="10.00">id_ubt</text>
<text text-anchor="middle" x="159" y="-237.5" font-family="Helvetica,sans-Serif" font-size="10.00">id_vhbt</text>
<text text-anchor="middle" x="159" y="-226.5" font-family="Helvetica,sans-Serif" font-size="10.00">...</text>
</g>
<!-- Node9 -->
<g id="node9" class="node"><title>Node9</title>
<polygon fill="white" stroke="#bfbfbf" points="38,-50 38,-69 68,-69 68,-50 38,-50"/>
<text text-anchor="middle" x="53" y="-57" font-family="Helvetica,sans-Serif" font-size="10.00">real</text>
</g>
<!-- Node9&#45;&gt;Node1 -->
<g id="edge8" class="edge"><title>Node9&#45;&gt;Node1</title>
<path fill="none" stroke="#9a32cd" stroke-dasharray="5,2" d="M78.2798,-54.9309C109.093,-50.6315 162.066,-48.4718 194,-76.5 242.311,-118.903 268.633,-334.568 273.977,-382.886"/>
<polygon fill="#9a32cd" stroke="#9a32cd" points="77.7073,-51.4779 68.3757,-56.4949 78.7993,-58.3922 77.7073,-51.4779"/>
<text text-anchor="middle" x="159" y="-189.5" font-family="Helvetica,sans-Serif" font-size="10.00"> dtbt</text>
<text text-anchor="middle" x="159" y="-178.5" font-family="Helvetica,sans-Serif" font-size="10.00">dmin_dyn_psurf</text>
<text text-anchor="middle" x="159" y="-167.5" font-family="Helvetica,sans-Serif" font-size="10.00">idatu</text>
<text text-anchor="middle" x="159" y="-156.5" font-family="Helvetica,sans-Serif" font-size="10.00">idatv</text>
<text text-anchor="middle" x="159" y="-145.5" font-family="Helvetica,sans-Serif" font-size="10.00">g_extra</text>
<text text-anchor="middle" x="159" y="-134.5" font-family="Helvetica,sans-Serif" font-size="10.00">maxcfl_bt_cont</text>
<text text-anchor="middle" x="159" y="-123.5" font-family="Helvetica,sans-Serif" font-size="10.00">bebt</text>
<text text-anchor="middle" x="159" y="-112.5" font-family="Helvetica,sans-Serif" font-size="10.00">dtbt_fraction</text>
<text text-anchor="middle" x="159" y="-101.5" font-family="Helvetica,sans-Serif" font-size="10.00">d_u_cor</text>
<text text-anchor="middle" x="159" y="-90.5" font-family="Helvetica,sans-Serif" font-size="10.00">cfl_trunc</text>
<text text-anchor="middle" x="159" y="-79.5" font-family="Helvetica,sans-Serif" font-size="10.00">...</text>
</g>
<!-- Node10 -->
<g id="node10" class="node"><title>Node10</title>
<polygon fill="white" stroke="#bfbfbf" points="0,-0.5 0,-30.5 106,-30.5 106,-0.5 0,-0.5"/>
<text text-anchor="start" x="8" y="-18.5" font-family="Helvetica,sans-Serif" font-size="10.00">type(mom_domain_type)</text>
<text text-anchor="middle" x="53" y="-7.5" font-family="Helvetica,sans-Serif" font-size="10.00">, pointer</text>
</g>
<!-- Node10&#45;&gt;Node1 -->
<g id="edge9" class="edge"><title>Node10&#45;&gt;Node1</title>
<path fill="none" stroke="#9a32cd" stroke-dasharray="5,2" d="M116.277,-11.115C143.334,-12.5614 173.468,-19.2055 194,-38.5 246.49,-87.8274 269.81,-331.128 274.214,-382.83"/>
<polygon fill="#9a32cd" stroke="#9a32cd" points="116.187,-7.61069 106.084,-10.7996 115.971,-14.6073 116.187,-7.61069"/>
<text text-anchor="middle" x="159" y="-41.5" font-family="Helvetica,sans-Serif" font-size="10.00"> bt_domain</text>
</g>
</g>
</svg>
