<?xml version="1.0" encoding="UTF-8" standalone="no"?>
<!DOCTYPE svg PUBLIC "-//W3C//DTD SVG 1.1//EN"
 "http://www.w3.org/Graphics/SVG/1.1/DTD/svg11.dtd">
<!-- Generated by graphviz version 2.38.0 (20140413.2041)
 -->
<!-- Title: mom_tracer_hor_diff::tracer_hordiff Pages: 1 -->
<svg width="829pt" height="555pt"
 viewBox="0.00 0.00 829.00 555.00" xmlns="http://www.w3.org/2000/svg" xmlns:xlink="http://www.w3.org/1999/xlink">
<g id="graph0" class="graph" transform="scale(1 1) rotate(0) translate(4 551)">
<title>mom_tracer_hor_diff::tracer_hordiff</title>
<polygon fill="white" stroke="none" points="-4,4 -4,-551 825,-551 825,4 -4,4"/>
<!-- Node8 -->
<g id="node1" class="node"><title>Node8</title>
<polygon fill="#bfbfbf" stroke="black" points="0,-169.5 0,-199.5 92,-199.5 92,-169.5 0,-169.5"/>
<text text-anchor="start" x="8" y="-187.5" font-family="Helvetica,sans-Serif" font-size="10.00">mom_tracer_hor_diff</text>
<text text-anchor="middle" x="46" y="-176.5" font-family="Helvetica,sans-Serif" font-size="10.00">::tracer_hordiff</text>
</g>
<!-- Node9 -->
<g id="node2" class="node"><title>Node9</title>
<g id="a_node2"><a xlink:href="../../d0/de6/namespacemom__error__handler.html#a9cda07a87815f0e5594066162b4345c3" target="_top" xlink:title="Writes a message about entering a subroutine if call tree reporting is active. ">
<polygon fill="white" stroke="black" points="289,-516.5 289,-546.5 382,-546.5 382,-516.5 289,-516.5"/>
<text text-anchor="start" x="297" y="-534.5" font-family="Helvetica,sans-Serif" font-size="10.00">mom_error_handler::</text>
<text text-anchor="middle" x="335.5" y="-523.5" font-family="Helvetica,sans-Serif" font-size="10.00">calltree_enter</text>
</a>
</g>
</g>
<!-- Node8&#45;&gt;Node9 -->
<g id="edge1" class="edge"><title>Node8&#45;&gt;Node9</title>
<path fill="none" stroke="midnightblue" d="M48.4741,-199.686C53.1236,-240.312 70.7482,-353.167 128,-423.5 166.748,-471.101 232.091,-500.213 278.901,-516.032"/>
<polygon fill="midnightblue" stroke="midnightblue" points="277.999,-519.42 288.592,-519.208 280.179,-512.768 277.999,-519.42"/>
</g>
<!-- Node11 -->
<g id="node4" class="node"><title>Node11</title>
<g id="a_node4"><a xlink:href="../../d0/de6/namespacemom__error__handler.html#a88ea67781e2ed9b73ab7eac8ea5e8578" target="_top" xlink:title="Writes a message about leaving a subroutine if call tree reporting is active. ">
<polygon fill="white" stroke="black" points="289,-467.5 289,-497.5 382,-497.5 382,-467.5 289,-467.5"/>
<text text-anchor="start" x="297" y="-485.5" font-family="Helvetica,sans-Serif" font-size="10.00">mom_error_handler::</text>
<text text-anchor="middle" x="335.5" y="-474.5" font-family="Helvetica,sans-Serif" font-size="10.00">calltree_leave</text>
</a>
</g>
</g>
<!-- Node8&#45;&gt;Node11 -->
<g id="edge3" class="edge"><title>Node8&#45;&gt;Node11</title>
<path fill="none" stroke="midnightblue" d="M49.9006,-199.653C57.2469,-234.442 79.5485,-321.139 128,-374.5 169.006,-419.661 233.341,-449.089 279.3,-465.65"/>
<polygon fill="midnightblue" stroke="midnightblue" points="278.219,-468.98 288.814,-468.99 280.538,-462.375 278.219,-468.98"/>
</g>
<!-- Node12 -->
<g id="node5" class="node"><title>Node12</title>
<g id="a_node5"><a xlink:href="../../d0/de6/namespacemom__error__handler.html#a34a02e601a60f03cb97a72fe25a32853" target="_top" xlink:title="Writes a message about reaching a milestone if call tree reporting is active. ">
<polygon fill="white" stroke="black" points="135,-335.5 135,-365.5 228,-365.5 228,-335.5 135,-335.5"/>
<text text-anchor="start" x="143" y="-353.5" font-family="Helvetica,sans-Serif" font-size="10.00">mom_error_handler::</text>
<text text-anchor="middle" x="181.5" y="-342.5" font-family="Helvetica,sans-Serif" font-size="10.00">calltree_waypoint</text>
</a>
</g>
</g>
<!-- Node8&#45;&gt;Node12 -->
<g id="edge5" class="edge"><title>Node8&#45;&gt;Node12</title>
<path fill="none" stroke="midnightblue" d="M59.0827,-199.524C82.3955,-228.512 133.737,-292.352 161.606,-327.007"/>
<polygon fill="midnightblue" stroke="midnightblue" points="159.16,-329.55 168.155,-335.149 164.615,-325.163 159.16,-329.55"/>
</g>
<!-- Node13 -->
<g id="node6" class="node"><title>Node13</title>
<g id="a_node6"><a xlink:href="../../d1/d95/namespacemom__domains.html#ac90ecdd1f8397352dfa996ae7198b0ef" target="_top" xlink:title="mom_domains::do_group_pass">
<polygon fill="white" stroke="black" points="271,-50 271,-69 400,-69 400,-50 271,-50"/>
<text text-anchor="middle" x="335.5" y="-57" font-family="Helvetica,sans-Serif" font-size="10.00">mom_domains::do_group_pass</text>
</a>
</g>
</g>
<!-- Node8&#45;&gt;Node13 -->
<g id="edge7" class="edge"><title>Node8&#45;&gt;Node13</title>
<path fill="none" stroke="midnightblue" d="M65.3434,-169.303C81.1632,-156.775 105.023,-139.22 128,-127.5 187.848,-96.9741 207.028,-99.0221 271,-78.5 277.699,-76.3509 284.821,-74.1445 291.78,-72.0309"/>
<polygon fill="midnightblue" stroke="midnightblue" points="293.226,-75.251 301.793,-69.018 291.209,-68.5479 293.226,-75.251"/>
</g>
<!-- Node14 -->
<g id="node7" class="node"><title>Node14</title>
<g id="a_node7"><a xlink:href="../../d1/d35/namespacemom__tracer__registry.html#ad350bb834bb3dcfd6e603bb136bd8098" target="_top" xlink:title="This subroutine writes out chksums for thermodynamic state variables. ">
<polygon fill="white" stroke="black" points="133.5,-0.5 133.5,-30.5 229.5,-30.5 229.5,-0.5 133.5,-0.5"/>
<text text-anchor="start" x="141.5" y="-18.5" font-family="Helvetica,sans-Serif" font-size="10.00">mom_tracer_registry</text>
<text text-anchor="middle" x="181.5" y="-7.5" font-family="Helvetica,sans-Serif" font-size="10.00">::mom_tracer_chksum</text>
</a>
</g>
</g>
<!-- Node8&#45;&gt;Node14 -->
<g id="edge8" class="edge"><title>Node8&#45;&gt;Node14</title>
<path fill="none" stroke="midnightblue" d="M51.87,-169.333C61.828,-140.486 87.0936,-77.2331 128,-39.5 129.266,-38.3321 130.599,-37.2129 131.984,-36.141"/>
<polygon fill="midnightblue" stroke="midnightblue" points="134.024,-38.987 140.381,-30.5112 130.126,-33.1728 134.024,-38.987"/>
</g>
<!-- Node15 -->
<g id="node8" class="node"><title>Node15</title>
<g id="a_node8"><a xlink:href="../../d8/da4/namespacemom__neutral__diffusion.html#a0aa7d320b2d623791e7de7d879930a64" target="_top" xlink:title="Update tracer concentration due to neutral diffusion; layer thickness unchanged by this update...">
<polygon fill="white" stroke="black" points="132.5,-196.5 132.5,-226.5 230.5,-226.5 230.5,-196.5 132.5,-196.5"/>
<text text-anchor="start" x="140.5" y="-214.5" font-family="Helvetica,sans-Serif" font-size="10.00">mom_neutral_diffusion</text>
<text text-anchor="middle" x="181.5" y="-203.5" font-family="Helvetica,sans-Serif" font-size="10.00">::neutral_diffusion</text>
</a>
</g>
</g>
<!-- Node8&#45;&gt;Node15 -->
<g id="edge9" class="edge"><title>Node8&#45;&gt;Node15</title>
<path fill="none" stroke="midnightblue" d="M92.197,-193.641C101.842,-195.592 112.159,-197.678 122.215,-199.712"/>
<polygon fill="midnightblue" stroke="midnightblue" points="121.655,-203.169 132.15,-201.721 123.042,-196.308 121.655,-203.169"/>
</g>
<!-- Node23 -->
<g id="node16" class="node"><title>Node23</title>
<g id="a_node16"><a xlink:href="../../d8/da4/namespacemom__neutral__diffusion.html#a53d5e3f8d7610b60644aaa9f44fd854e" target="_top" xlink:title="Calculate remapping factors for u/v columns used to map adjoining columns to a shared coordinate spac...">
<polygon fill="white" stroke="black" points="132.5,-137 132.5,-178 230.5,-178 230.5,-137 132.5,-137"/>
<text text-anchor="start" x="140.5" y="-166" font-family="Helvetica,sans-Serif" font-size="10.00">mom_neutral_diffusion</text>
<text text-anchor="start" x="140.5" y="-155" font-family="Helvetica,sans-Serif" font-size="10.00">::neutral_diffusion_calc</text>
<text text-anchor="middle" x="181.5" y="-144" font-family="Helvetica,sans-Serif" font-size="10.00">_coeffs</text>
</a>
</g>
</g>
<!-- Node8&#45;&gt;Node23 -->
<g id="edge17" class="edge"><title>Node8&#45;&gt;Node23</title>
<path fill="none" stroke="midnightblue" d="M92.197,-175.359C101.842,-173.408 112.159,-171.322 122.215,-169.288"/>
<polygon fill="midnightblue" stroke="midnightblue" points="123.042,-172.692 132.15,-167.279 121.655,-165.831 123.042,-172.692"/>
</g>
<!-- Node32 -->
<g id="node25" class="node"><title>Node32</title>
<g id="a_node25"><a xlink:href="../../da/db2/namespacemom__tracer__hor__diff.html#a3c96ca84172a944f6d8b15e4204228bb" target="_top" xlink:title="This subroutine does epipycnal diffusion of all tracers between the mixed and buffer layers and the i...">
<polygon fill="white" stroke="black" points="128,-49.5 128,-79.5 235,-79.5 235,-49.5 128,-49.5"/>
<text text-anchor="start" x="136" y="-67.5" font-family="Helvetica,sans-Serif" font-size="10.00">mom_tracer_hor_diff</text>
<text text-anchor="middle" x="181.5" y="-56.5" font-family="Helvetica,sans-Serif" font-size="10.00">::tracer_epipycnal_ml_diff</text>
</a>
</g>
</g>
<!-- Node8&#45;&gt;Node32 -->
<g id="edge28" class="edge"><title>Node8&#45;&gt;Node32</title>
<path fill="none" stroke="midnightblue" d="M58.0946,-169.451C72.6512,-150.403 99.6893,-117.327 128,-94.5 132.239,-91.0819 136.916,-87.8172 141.68,-84.7841"/>
<polygon fill="midnightblue" stroke="midnightblue" points="143.523,-87.7597 150.27,-79.5915 139.902,-81.769 143.523,-87.7597"/>
</g>
<!-- Node10 -->
<g id="node3" class="node"><title>Node10</title>
<g id="a_node3"><a xlink:href="../../d0/de6/namespacemom__error__handler.html#ad5f00a53059c72fe2332d1436c80ca71" target="_top" xlink:title="mom_error_handler::\lis_root_pe">
<polygon fill="white" stroke="black" points="591.5,-448.5 591.5,-478.5 684.5,-478.5 684.5,-448.5 591.5,-448.5"/>
<text text-anchor="start" x="599.5" y="-466.5" font-family="Helvetica,sans-Serif" font-size="10.00">mom_error_handler::</text>
<text text-anchor="middle" x="638" y="-455.5" font-family="Helvetica,sans-Serif" font-size="10.00">is_root_pe</text>
</a>
</g>
</g>
<!-- Node9&#45;&gt;Node10 -->
<g id="edge2" class="edge"><title>Node9&#45;&gt;Node10</title>
<path fill="none" stroke="midnightblue" d="M382.255,-522.426C426.169,-513.564 494.298,-499.415 553,-485.5 562.254,-483.306 572.048,-480.858 581.554,-478.413"/>
<polygon fill="midnightblue" stroke="midnightblue" points="582.522,-481.778 591.322,-475.878 580.763,-475.003 582.522,-481.778"/>
</g>
<!-- Node11&#45;&gt;Node10 -->
<g id="edge4" class="edge"><title>Node11&#45;&gt;Node10</title>
<path fill="none" stroke="midnightblue" d="M382.139,-479.614C435.576,-476.236 524.058,-470.641 581.439,-467.013"/>
<polygon fill="midnightblue" stroke="midnightblue" points="581.665,-470.506 591.424,-466.382 581.223,-463.52 581.665,-470.506"/>
</g>
<!-- Node12&#45;&gt;Node10 -->
<g id="edge6" class="edge"><title>Node12&#45;&gt;Node10</title>
<path fill="none" stroke="midnightblue" d="M228.38,-365.594C278.87,-381.847 362.616,-407.755 436,-425.5 484.688,-437.273 540.741,-447.608 581.264,-454.516"/>
<polygon fill="midnightblue" stroke="midnightblue" points="580.775,-457.983 591.218,-456.198 581.94,-451.081 580.775,-457.983"/>
</g>
<!-- Node16 -->
<g id="node9" class="node"><title>Node16</title>
<g id="a_node9"><a xlink:href="../../d8/da4/namespacemom__neutral__diffusion.html#a626e0189b03bbbf36c33cfa52e4f098d" target="_top" xlink:title="Returns a single column of neutral diffusion fluxes of a tracer. ">
<polygon fill="white" stroke="black" points="286.5,-189.5 286.5,-219.5 384.5,-219.5 384.5,-189.5 286.5,-189.5"/>
<text text-anchor="start" x="294.5" y="-207.5" font-family="Helvetica,sans-Serif" font-size="10.00">mom_neutral_diffusion</text>
<text text-anchor="middle" x="335.5" y="-196.5" font-family="Helvetica,sans-Serif" font-size="10.00">::neutral_surface_flux</text>
</a>
</g>
</g>
<!-- Node15&#45;&gt;Node16 -->
<g id="edge10" class="edge"><title>Node15&#45;&gt;Node16</title>
<path fill="none" stroke="midnightblue" d="M230.594,-209.285C245.081,-208.618 261.138,-207.879 276.212,-207.184"/>
<polygon fill="midnightblue" stroke="midnightblue" points="276.63,-210.669 286.458,-206.712 276.308,-203.676 276.63,-210.669"/>
</g>
<!-- Node17 -->
<g id="node10" class="node"><title>Node17</title>
<g id="a_node10"><a xlink:href="../../d8/da4/namespacemom__neutral__diffusion.html#afbc54a4e2f34af5d72c18dc96e354af7" target="_top" xlink:title="Returns interface scalar, Si, for a column of layer values, S. ">
<polygon fill="white" stroke="black" points="445.5,-140.5 445.5,-170.5 543.5,-170.5 543.5,-140.5 445.5,-140.5"/>
<text text-anchor="start" x="453.5" y="-158.5" font-family="Helvetica,sans-Serif" font-size="10.00">mom_neutral_diffusion</text>
<text text-anchor="middle" x="494.5" y="-147.5" font-family="Helvetica,sans-Serif" font-size="10.00">::interface_scalar</text>
</a>
</g>
</g>
<!-- Node16&#45;&gt;Node17 -->
<g id="edge11" class="edge"><title>Node16&#45;&gt;Node17</title>
<path fill="none" stroke="midnightblue" d="M384.886,-189.399C400.929,-184.392 418.949,-178.768 435.631,-173.561"/>
<polygon fill="midnightblue" stroke="midnightblue" points="436.77,-176.872 445.274,-170.552 434.685,-170.19 436.77,-176.872"/>
</g>
<!-- Node22 -->
<g id="node15" class="node"><title>Node22</title>
<g id="a_node15"><a xlink:href="../../d8/da4/namespacemom__neutral__diffusion.html#a6931d9a07d09aa5d76d5abd2e47a54df" target="_top" xlink:title="Returns the average of a PPM reconstruction between two fractional positions. ">
<polygon fill="white" stroke="black" points="445.5,-189.5 445.5,-219.5 543.5,-219.5 543.5,-189.5 445.5,-189.5"/>
<text text-anchor="start" x="453.5" y="-207.5" font-family="Helvetica,sans-Serif" font-size="10.00">mom_neutral_diffusion</text>
<text text-anchor="middle" x="494.5" y="-196.5" font-family="Helvetica,sans-Serif" font-size="10.00">::ppm_ave</text>
</a>
</g>
</g>
<!-- Node16&#45;&gt;Node22 -->
<g id="edge16" class="edge"><title>Node16&#45;&gt;Node22</title>
<path fill="none" stroke="midnightblue" d="M384.886,-204.5C400.779,-204.5 418.612,-204.5 435.163,-204.5"/>
<polygon fill="midnightblue" stroke="midnightblue" points="435.274,-208 445.274,-204.5 435.273,-201 435.274,-208"/>
</g>
<!-- Node18 -->
<g id="node11" class="node"><title>Node18</title>
<g id="a_node11"><a xlink:href="../../d8/da4/namespacemom__neutral__diffusion.html#ac211ae488cb6e3c6685df85d24ecd0dd" target="_top" xlink:title="Returns PLM slopes for a column where the slopes are the difference in value across each cell...">
<polygon fill="white" stroke="black" points="589,-165.5 589,-195.5 687,-195.5 687,-165.5 589,-165.5"/>
<text text-anchor="start" x="597" y="-183.5" font-family="Helvetica,sans-Serif" font-size="10.00">mom_neutral_diffusion</text>
<text text-anchor="middle" x="638" y="-172.5" font-family="Helvetica,sans-Serif" font-size="10.00">::plm_diff</text>
</a>
</g>
</g>
<!-- Node17&#45;&gt;Node18 -->
<g id="edge12" class="edge"><title>Node17&#45;&gt;Node18</title>
<path fill="none" stroke="midnightblue" d="M543.801,-164.034C555.07,-166.025 567.188,-168.166 578.836,-170.224"/>
<polygon fill="midnightblue" stroke="midnightblue" points="578.461,-173.712 588.917,-172.005 579.679,-166.818 578.461,-173.712"/>
</g>
<!-- Node21 -->
<g id="node14" class="node"><title>Node21</title>
<g id="a_node14"><a xlink:href="../../d8/da4/namespacemom__neutral__diffusion.html#a87d3d020b56a98f3f0c143701f76c86e" target="_top" xlink:title="Returns the PPM quasi&#45;fourth order edge value at k+1/2 following equation 1.6 in Colella &amp; Woodward...">
<polygon fill="white" stroke="black" points="589,-116.5 589,-146.5 687,-146.5 687,-116.5 589,-116.5"/>
<text text-anchor="start" x="597" y="-134.5" font-family="Helvetica,sans-Serif" font-size="10.00">mom_neutral_diffusion</text>
<text text-anchor="middle" x="638" y="-123.5" font-family="Helvetica,sans-Serif" font-size="10.00">::ppm_edge</text>
</a>
</g>
</g>
<!-- Node17&#45;&gt;Node21 -->
<g id="edge15" class="edge"><title>Node17&#45;&gt;Node21</title>
<path fill="none" stroke="midnightblue" d="M543.801,-147.308C555.07,-145.396 567.188,-143.341 578.836,-141.365"/>
<polygon fill="midnightblue" stroke="midnightblue" points="579.643,-144.778 588.917,-139.655 578.473,-137.877 579.643,-144.778"/>
</g>
<!-- Node19 -->
<g id="node12" class="node"><title>Node19</title>
<g id="a_node12"><a xlink:href="../../d8/da4/namespacemom__neutral__diffusion.html#a1c5ac28d7c54581cdd872fe58ef0b204" target="_top" xlink:title="Returns the cell&#45;centered second&#45;order finite volume (unlimited PLM) slope using three consecutive ce...">
<polygon fill="white" stroke="black" points="723,-190.5 723,-220.5 821,-220.5 821,-190.5 723,-190.5"/>
<text text-anchor="start" x="731" y="-208.5" font-family="Helvetica,sans-Serif" font-size="10.00">mom_neutral_diffusion</text>
<text text-anchor="middle" x="772" y="-197.5" font-family="Helvetica,sans-Serif" font-size="10.00">::fv_diff</text>
</a>
</g>
</g>
<!-- Node18&#45;&gt;Node19 -->
<g id="edge13" class="edge"><title>Node18&#45;&gt;Node19</title>
<path fill="none" stroke="midnightblue" d="M687.028,-189.596C695.4,-191.182 704.188,-192.846 712.798,-194.477"/>
<polygon fill="midnightblue" stroke="midnightblue" points="712.309,-197.947 722.786,-196.369 713.612,-191.069 712.309,-197.947"/>
</g>
<!-- Node20 -->
<g id="node13" class="node"><title>Node20</title>
<g id="a_node13"><a xlink:href="../../d8/da4/namespacemom__neutral__diffusion.html#a6ed3814088af470ad6fc4a3a80926fd7" target="_top" xlink:title="Returns the cell&#45;centered second&#45;order weighted least squares slope using three consecutive cell widt...">
<polygon fill="white" stroke="black" points="723,-141.5 723,-171.5 821,-171.5 821,-141.5 723,-141.5"/>
<text text-anchor="start" x="731" y="-159.5" font-family="Helvetica,sans-Serif" font-size="10.00">mom_neutral_diffusion</text>
<text text-anchor="middle" x="772" y="-148.5" font-family="Helvetica,sans-Serif" font-size="10.00">::fvlsq_slope</text>
</a>
</g>
</g>
<!-- Node18&#45;&gt;Node20 -->
<g id="edge14" class="edge"><title>Node18&#45;&gt;Node20</title>
<path fill="none" stroke="midnightblue" d="M687.028,-171.768C695.4,-170.246 704.188,-168.648 712.798,-167.082"/>
<polygon fill="midnightblue" stroke="midnightblue" points="713.574,-170.499 722.786,-165.266 712.321,-163.612 713.574,-170.499"/>
</g>
<!-- Node23&#45;&gt;Node17 -->
<g id="edge27" class="edge"><title>Node23&#45;&gt;Node17</title>
<path fill="none" stroke="midnightblue" d="M230.753,-157.19C285.878,-156.835 376.063,-156.255 435.106,-155.876"/>
<polygon fill="midnightblue" stroke="midnightblue" points="435.413,-159.374 445.39,-155.809 435.368,-152.374 435.413,-159.374"/>
</g>
<!-- Node24 -->
<g id="node17" class="node"><title>Node24</title>
<g id="a_node17"><a xlink:href="../../d1/d01/namespacemom__eos.html#a204529f8434a0322314e6ce2a9762436" target="_top" xlink:title="Calls the appropriate subroutine to calculate density derivatives for 1&#45;D array inputs. ">
<polygon fill="white" stroke="black" points="292,-287.5 292,-317.5 379,-317.5 379,-287.5 292,-287.5"/>
<text text-anchor="start" x="300" y="-305.5" font-family="Helvetica,sans-Serif" font-size="10.00">mom_eos::calculate</text>
<text text-anchor="middle" x="335.5" y="-294.5" font-family="Helvetica,sans-Serif" font-size="10.00">_density_derivs</text>
</a>
</g>
</g>
<!-- Node23&#45;&gt;Node24 -->
<g id="edge18" class="edge"><title>Node23&#45;&gt;Node24</title>
<path fill="none" stroke="midnightblue" d="M223.299,-178.097C227.388,-180.727 231.367,-183.541 235,-186.5 235,-186.5 285.585,-245.473 314.619,-279.322"/>
<polygon fill="midnightblue" stroke="midnightblue" points="312.325,-282.023 321.492,-287.335 317.638,-277.466 312.325,-282.023"/>
</g>
<!-- Node29 -->
<g id="node22" class="node"><title>Node29</title>
<g id="a_node22"><a xlink:href="../../d8/da4/namespacemom__neutral__diffusion.html#aacce4f78e738a3c7530ae8940c144fb9" target="_top" xlink:title="Returns positions within left/right columns of combined interfaces. ">
<polygon fill="white" stroke="black" points="286.5,-88 286.5,-129 384.5,-129 384.5,-88 286.5,-88"/>
<text text-anchor="start" x="294.5" y="-117" font-family="Helvetica,sans-Serif" font-size="10.00">mom_neutral_diffusion</text>
<text text-anchor="start" x="294.5" y="-106" font-family="Helvetica,sans-Serif" font-size="10.00">::find_neutral_surface</text>
<text text-anchor="middle" x="335.5" y="-95" font-family="Helvetica,sans-Serif" font-size="10.00">_positions</text>
</a>
</g>
</g>
<!-- Node23&#45;&gt;Node29 -->
<g id="edge24" class="edge"><title>Node23&#45;&gt;Node29</title>
<path fill="none" stroke="midnightblue" d="M230.594,-141.996C245.22,-137.281 261.447,-132.05 276.646,-127.15"/>
<polygon fill="midnightblue" stroke="midnightblue" points="278.015,-130.387 286.458,-123.987 275.867,-123.724 278.015,-130.387"/>
</g>
<!-- Node25 -->
<g id="node18" class="node"><title>Node25</title>
<g id="a_node18"><a xlink:href="../../d5/de6/namespacemom__eos__linear.html#a73d8a625582247379092adf1aeeb55e0" target="_top" xlink:title="mom_eos_linear::calculate\l_density_derivs_linear">
<polygon fill="white" stroke="black" points="439,-336.5 439,-366.5 550,-366.5 550,-336.5 439,-336.5"/>
<text text-anchor="start" x="447" y="-354.5" font-family="Helvetica,sans-Serif" font-size="10.00">mom_eos_linear::calculate</text>
<text text-anchor="middle" x="494.5" y="-343.5" font-family="Helvetica,sans-Serif" font-size="10.00">_density_derivs_linear</text>
</a>
</g>
</g>
<!-- Node24&#45;&gt;Node25 -->
<g id="edge19" class="edge"><title>Node24&#45;&gt;Node25</title>
<path fill="none" stroke="midnightblue" d="M379.401,-315.889C396.797,-321.319 417.151,-327.671 435.814,-333.496"/>
<polygon fill="midnightblue" stroke="midnightblue" points="434.806,-336.848 445.395,-336.486 436.892,-330.166 434.806,-336.848"/>
</g>
<!-- Node26 -->
<g id="node19" class="node"><title>Node26</title>
<g id="a_node19"><a xlink:href="../../dd/d6b/namespacemom__eos__unesco.html#af8666837abadea54c016bf59838f96cc" target="_top" xlink:title="mom_eos_unesco::calculate\l_density_derivs_unesco">
<polygon fill="white" stroke="black" points="436,-287.5 436,-317.5 553,-317.5 553,-287.5 436,-287.5"/>
<text text-anchor="start" x="444" y="-305.5" font-family="Helvetica,sans-Serif" font-size="10.00">mom_eos_unesco::calculate</text>
<text text-anchor="middle" x="494.5" y="-294.5" font-family="Helvetica,sans-Serif" font-size="10.00">_density_derivs_unesco</text>
</a>
</g>
</g>
<!-- Node24&#45;&gt;Node26 -->
<g id="edge20" class="edge"><title>Node24&#45;&gt;Node26</title>
<path fill="none" stroke="midnightblue" d="M379.401,-302.5C393.7,-302.5 409.999,-302.5 425.715,-302.5"/>
<polygon fill="midnightblue" stroke="midnightblue" points="425.931,-306 435.93,-302.5 425.93,-299 425.931,-306"/>
</g>
<!-- Node27 -->
<g id="node20" class="node"><title>Node27</title>
<g id="a_node20"><a xlink:href="../../de/d76/namespacemom__eos__wright.html#ad7748e85ddacb33ad90ec3a9017e6e72" target="_top" xlink:title="mom_eos_wright::calculate\l_density_derivs_wright">
<polygon fill="white" stroke="black" points="438,-238.5 438,-268.5 551,-268.5 551,-238.5 438,-238.5"/>
<text text-anchor="start" x="446" y="-256.5" font-family="Helvetica,sans-Serif" font-size="10.00">mom_eos_wright::calculate</text>
<text text-anchor="middle" x="494.5" y="-245.5" font-family="Helvetica,sans-Serif" font-size="10.00">_density_derivs_wright</text>
</a>
</g>
</g>
<!-- Node24&#45;&gt;Node27 -->
<g id="edge21" class="edge"><title>Node24&#45;&gt;Node27</title>
<path fill="none" stroke="midnightblue" d="M379.401,-289.111C396.797,-283.681 417.151,-277.329 435.814,-271.504"/>
<polygon fill="midnightblue" stroke="midnightblue" points="436.892,-274.834 445.395,-268.514 434.806,-268.152 436.892,-274.834"/>
</g>
<!-- Node28 -->
<g id="node21" class="node"><title>Node28</title>
<g id="a_node21"><a xlink:href="../../d0/de6/namespacemom__error__handler.html#a460cfb79a06c29fc249952c2a3710d67" target="_top" xlink:title="mom_error_handler::\lmom_error">
<polygon fill="white" stroke="black" points="448,-385.5 448,-415.5 541,-415.5 541,-385.5 448,-385.5"/>
<text text-anchor="start" x="456" y="-403.5" font-family="Helvetica,sans-Serif" font-size="10.00">mom_error_handler::</text>
<text text-anchor="middle" x="494.5" y="-392.5" font-family="Helvetica,sans-Serif" font-size="10.00">mom_error</text>
</a>
</g>
</g>
<!-- Node24&#45;&gt;Node28 -->
<g id="edge22" class="edge"><title>Node24&#45;&gt;Node28</title>
<path fill="none" stroke="midnightblue" d="M354.365,-317.514C373.662,-333.263 405.721,-358.101 436,-375.5 439.259,-377.373 442.685,-379.195 446.174,-380.947"/>
<polygon fill="midnightblue" stroke="midnightblue" points="444.952,-384.242 455.483,-385.404 447.975,-377.928 444.952,-384.242"/>
</g>
<!-- Node28&#45;&gt;Node10 -->
<g id="edge23" class="edge"><title>Node28&#45;&gt;Node10</title>
<path fill="none" stroke="midnightblue" d="M529.393,-415.59C548.678,-424.176 573.033,-435.02 593.692,-444.218"/>
<polygon fill="midnightblue" stroke="midnightblue" points="592.334,-447.445 602.893,-448.315 595.182,-441.05 592.334,-447.445"/>
</g>
<!-- Node30 -->
<g id="node23" class="node"><title>Node30</title>
<g id="a_node23"><a xlink:href="../../d8/da4/namespacemom__neutral__diffusion.html#a6a30ebbb70dd95dade154d1253393952" target="_top" xlink:title="Converts non&#45;dimensional position within a layer to absolute position (for debugging) ...">
<polygon fill="white" stroke="black" points="445.5,-91.5 445.5,-121.5 543.5,-121.5 543.5,-91.5 445.5,-91.5"/>
<text text-anchor="start" x="453.5" y="-109.5" font-family="Helvetica,sans-Serif" font-size="10.00">mom_neutral_diffusion</text>
<text text-anchor="middle" x="494.5" y="-98.5" font-family="Helvetica,sans-Serif" font-size="10.00">::absolute_position</text>
</a>
</g>
</g>
<!-- Node29&#45;&gt;Node30 -->
<g id="edge25" class="edge"><title>Node29&#45;&gt;Node30</title>
<path fill="none" stroke="midnightblue" d="M384.886,-107.884C400.779,-107.681 418.612,-107.454 435.163,-107.243"/>
<polygon fill="midnightblue" stroke="midnightblue" points="435.319,-110.742 445.274,-107.114 435.23,-103.742 435.319,-110.742"/>
</g>
<!-- Node31 -->
<g id="node24" class="node"><title>Node31</title>
<g id="a_node24"><a xlink:href="../../d8/da4/namespacemom__neutral__diffusion.html#a666836e70bdae7ef4ec271246cf91993" target="_top" xlink:title="Returns the non&#45;dimensional position between Pneg and Ppos where the interpolated density difference ...">
<polygon fill="white" stroke="black" points="442.5,-32 442.5,-73 546.5,-73 546.5,-32 442.5,-32"/>
<text text-anchor="start" x="450.5" y="-61" font-family="Helvetica,sans-Serif" font-size="10.00">mom_neutral_diffusion</text>
<text text-anchor="start" x="450.5" y="-50" font-family="Helvetica,sans-Serif" font-size="10.00">::interpolate_for_nondim</text>
<text text-anchor="middle" x="494.5" y="-39" font-family="Helvetica,sans-Serif" font-size="10.00">_position</text>
</a>
</g>
</g>
<!-- Node29&#45;&gt;Node31 -->
<g id="edge26" class="edge"><title>Node29&#45;&gt;Node31</title>
<path fill="none" stroke="midnightblue" d="M384.886,-91.2412C399.958,-85.8653 416.775,-79.8667 432.589,-74.2263"/>
<polygon fill="midnightblue" stroke="midnightblue" points="434.038,-77.4255 442.281,-70.7693 431.686,-70.8323 434.038,-77.4255"/>
</g>
<!-- Node32&#45;&gt;Node13 -->
<g id="edge29" class="edge"><title>Node32&#45;&gt;Node13</title>
<path fill="none" stroke="midnightblue" d="M235.236,-62.7653C243.494,-62.4936 252.158,-62.2086 260.782,-61.9249"/>
<polygon fill="midnightblue" stroke="midnightblue" points="260.983,-65.4203 270.862,-61.5933 260.753,-58.4241 260.983,-65.4203"/>
</g>
</g>
</svg>
