<?xml version="1.0" encoding="UTF-8" standalone="no"?>
<!DOCTYPE svg PUBLIC "-//W3C//DTD SVG 1.1//EN"
 "http://www.w3.org/Graphics/SVG/1.1/DTD/svg11.dtd">
<!-- Generated by graphviz version 2.38.0 (20140413.2041)
 -->
<!-- Title: mom_ocmip2_cfc::ocmip2_cfc_column_physics Pages: 1 -->
<svg width="244pt" height="39pt"
 viewBox="0.00 0.00 244.00 39.00" xmlns="http://www.w3.org/2000/svg" xmlns:xlink="http://www.w3.org/1999/xlink">
<g id="graph0" class="graph" transform="scale(1 1) rotate(0) translate(4 35)">
<title>mom_ocmip2_cfc::ocmip2_cfc_column_physics</title>
<polygon fill="white" stroke="none" points="-4,4 -4,-35 240,-35 240,4 -4,4"/>
<!-- Node24 -->
<g id="node1" class="node"><title>Node24</title>
<polygon fill="#bfbfbf" stroke="black" points="0,-0.5 0,-30.5 109,-30.5 109,-0.5 0,-0.5"/>
<text text-anchor="start" x="8" y="-18.5" font-family="Helvetica,sans-Serif" font-size="10.00">mom_ocmip2_cfc::ocmip2</text>
<text text-anchor="middle" x="54.5" y="-7.5" font-family="Helvetica,sans-Serif" font-size="10.00">_cfc_column_physics</text>
</g>
<!-- Node25 -->
<g id="node2" class="node"><title>Node25</title>
<g id="a_node2"><a xlink:href="../../d1/d35/namespacemom__tracer__registry.html#a019450923b54586865d9e77d044c8428" target="_top" xlink:title="This subroutine solves a tridiagonal equation for the final tracer concentrations after the dual&#45;entr...">
<polygon fill="white" stroke="black" points="145,-0.5 145,-30.5 236,-30.5 236,-0.5 145,-0.5"/>
<text text-anchor="start" x="153" y="-18.5" font-family="Helvetica,sans-Serif" font-size="10.00">mom_tracer_registry</text>
<text text-anchor="middle" x="190.5" y="-7.5" font-family="Helvetica,sans-Serif" font-size="10.00">::tracer_vertdiff</text>
</a>
</g>
</g>
<!-- Node24&#45;&gt;Node25 -->
<g id="edge1" class="edge"><title>Node24&#45;&gt;Node25</title>
<path fill="none" stroke="midnightblue" d="M109.231,-15.5C117.617,-15.5 126.292,-15.5 134.701,-15.5"/>
<polygon fill="midnightblue" stroke="midnightblue" points="134.79,-19.0001 144.79,-15.5 134.79,-12.0001 134.79,-19.0001"/>
</g>
</g>
</svg>
