<?xml version="1.0" encoding="UTF-8" standalone="no"?>
<!DOCTYPE svg PUBLIC "-//W3C//DTD SVG 1.1//EN"
 "http://www.w3.org/Graphics/SVG/1.1/DTD/svg11.dtd">
<!-- Generated by graphviz version 2.38.0 (20140413.2041)
 -->
<!-- Title: mom_ocmip2_cfc::initialize_ocmip2_cfc Pages: 1 -->
<svg width="790pt" height="340pt"
 viewBox="0.00 0.00 790.00 340.00" xmlns="http://www.w3.org/2000/svg" xmlns:xlink="http://www.w3.org/1999/xlink">
<g id="graph0" class="graph" transform="scale(1 1) rotate(0) translate(4 336)">
<title>mom_ocmip2_cfc::initialize_ocmip2_cfc</title>
<polygon fill="white" stroke="none" points="-4,4 -4,-336 786,-336 786,4 -4,4"/>
<!-- Node10 -->
<g id="node1" class="node"><title>Node10</title>
<polygon fill="#bfbfbf" stroke="black" points="0,-63.5 0,-93.5 110,-93.5 110,-63.5 0,-63.5"/>
<text text-anchor="start" x="8" y="-81.5" font-family="Helvetica,sans-Serif" font-size="10.00">mom_ocmip2_cfc::initialize</text>
<text text-anchor="middle" x="55" y="-70.5" font-family="Helvetica,sans-Serif" font-size="10.00">_ocmip2_cfc</text>
</g>
<!-- Node11 -->
<g id="node2" class="node"><title>Node11</title>
<g id="a_node2"><a xlink:href="../../d6/dd2/namespacemom__ocmip2__cfc.html#a403331f12c4b16682f42f284bf57f330" target="_top" xlink:title="mom_ocmip2_cfc::init\l_tracer_cfc">
<polygon fill="white" stroke="black" points="152,-126.5 152,-156.5 245,-156.5 245,-126.5 152,-126.5"/>
<text text-anchor="start" x="160" y="-144.5" font-family="Helvetica,sans-Serif" font-size="10.00">mom_ocmip2_cfc::init</text>
<text text-anchor="middle" x="198.5" y="-133.5" font-family="Helvetica,sans-Serif" font-size="10.00">_tracer_cfc</text>
</a>
</g>
</g>
<!-- Node10&#45;&gt;Node11 -->
<g id="edge1" class="edge"><title>Node10&#45;&gt;Node11</title>
<path fill="none" stroke="midnightblue" d="M89.8928,-93.5901C109.178,-102.176 133.533,-113.02 154.192,-122.218"/>
<polygon fill="midnightblue" stroke="midnightblue" points="152.834,-125.445 163.393,-126.315 155.682,-119.05 152.834,-125.445"/>
</g>
<!-- Node12 -->
<g id="node3" class="node"><title>Node12</title>
<g id="a_node3"><a xlink:href="../../d0/de6/namespacemom__error__handler.html#a460cfb79a06c29fc249952c2a3710d67" target="_top" xlink:title="mom_error_handler::\lmom_error">
<polygon fill="white" stroke="black" points="560,-120.5 560,-150.5 653,-150.5 653,-120.5 560,-120.5"/>
<text text-anchor="start" x="568" y="-138.5" font-family="Helvetica,sans-Serif" font-size="10.00">mom_error_handler::</text>
<text text-anchor="middle" x="606.5" y="-127.5" font-family="Helvetica,sans-Serif" font-size="10.00">mom_error</text>
</a>
</g>
</g>
<!-- Node10&#45;&gt;Node12 -->
<g id="edge12" class="edge"><title>Node10&#45;&gt;Node12</title>
<path fill="none" stroke="midnightblue" d="M110.192,-84.1214C214.876,-94.9803 443.894,-118.736 549.777,-129.72"/>
<polygon fill="midnightblue" stroke="midnightblue" points="549.628,-133.223 559.936,-130.774 550.35,-126.26 549.628,-133.223"/>
</g>
<!-- Node19 -->
<g id="node10" class="node"><title>Node19</title>
<g id="a_node10"><a xlink:href="../../d5/d89/namespacemom__io.html#a23e82d1d89d9bb1c9bdf802ce80d4508" target="_top" xlink:title="This routine queries vardesc. ">
<polygon fill="white" stroke="black" points="147.5,-50 147.5,-69 249.5,-69 249.5,-50 147.5,-50"/>
<text text-anchor="middle" x="198.5" y="-57" font-family="Helvetica,sans-Serif" font-size="10.00">mom_io::query_vardesc</text>
</a>
</g>
</g>
<!-- Node10&#45;&gt;Node19 -->
<g id="edge13" class="edge"><title>Node10&#45;&gt;Node19</title>
<path fill="none" stroke="midnightblue" d="M110.303,-71.2084C119.137,-70.0223 128.332,-68.7875 137.297,-67.5838"/>
<polygon fill="midnightblue" stroke="midnightblue" points="137.843,-71.0419 147.289,-66.2421 136.912,-64.1042 137.843,-71.0419"/>
</g>
<!-- Node21 -->
<g id="node12" class="node"><title>Node21</title>
<g id="a_node12"><a xlink:href="../../d0/dbf/namespacemom__diag__to__z.html#a6946a3316715041c5944df17db1aef74" target="_top" xlink:title="mom_diag_to_z::register\l_z_tracer">
<polygon fill="white" stroke="black" points="146,-0.5 146,-30.5 251,-30.5 251,-0.5 146,-0.5"/>
<text text-anchor="start" x="154" y="-18.5" font-family="Helvetica,sans-Serif" font-size="10.00">mom_diag_to_z::register</text>
<text text-anchor="middle" x="198.5" y="-7.5" font-family="Helvetica,sans-Serif" font-size="10.00">_z_tracer</text>
</a>
</g>
</g>
<!-- Node10&#45;&gt;Node21 -->
<g id="edge16" class="edge"><title>Node10&#45;&gt;Node21</title>
<path fill="none" stroke="midnightblue" d="M89.8928,-63.4099C109.178,-54.8235 133.533,-43.9802 154.192,-34.7818"/>
<polygon fill="midnightblue" stroke="midnightblue" points="155.682,-37.9501 163.393,-30.6853 152.834,-31.5553 155.682,-37.9501"/>
</g>
<!-- Node11&#45;&gt;Node12 -->
<g id="edge2" class="edge"><title>Node11&#45;&gt;Node12</title>
<path fill="none" stroke="midnightblue" d="M245.284,-140.823C320.26,-139.715 468.96,-137.518 549.883,-136.322"/>
<polygon fill="midnightblue" stroke="midnightblue" points="549.936,-139.822 559.883,-136.174 549.833,-132.822 549.936,-139.822"/>
</g>
<!-- Node14 -->
<g id="node5" class="node"><title>Node14</title>
<g id="a_node5"><a xlink:href="../../dd/df5/namespacemom__tracer__z__init.html#a153c8859a6918fc350976a4a7c279c79" target="_top" xlink:title="mom_tracer_z_init::\ltracer_z_init">
<polygon fill="white" stroke="black" points="298.5,-213.5 298.5,-243.5 385.5,-243.5 385.5,-213.5 298.5,-213.5"/>
<text text-anchor="start" x="306.5" y="-231.5" font-family="Helvetica,sans-Serif" font-size="10.00">mom_tracer_z_init::</text>
<text text-anchor="middle" x="342" y="-220.5" font-family="Helvetica,sans-Serif" font-size="10.00">tracer_z_init</text>
</a>
</g>
</g>
<!-- Node11&#45;&gt;Node14 -->
<g id="edge4" class="edge"><title>Node11&#45;&gt;Node14</title>
<path fill="none" stroke="midnightblue" d="M224.147,-156.654C247.238,-170.851 281.933,-192.183 307.523,-207.917"/>
<polygon fill="midnightblue" stroke="midnightblue" points="305.808,-210.971 316.16,-213.228 309.475,-205.008 305.808,-210.971"/>
</g>
<!-- Node13 -->
<g id="node4" class="node"><title>Node13</title>
<g id="a_node4"><a xlink:href="../../d0/de6/namespacemom__error__handler.html#ad5f00a53059c72fe2332d1436c80ca71" target="_top" xlink:title="mom_error_handler::\lis_root_pe">
<polygon fill="white" stroke="black" points="689,-177.5 689,-207.5 782,-207.5 782,-177.5 689,-177.5"/>
<text text-anchor="start" x="697" y="-195.5" font-family="Helvetica,sans-Serif" font-size="10.00">mom_error_handler::</text>
<text text-anchor="middle" x="735.5" y="-184.5" font-family="Helvetica,sans-Serif" font-size="10.00">is_root_pe</text>
</a>
</g>
</g>
<!-- Node12&#45;&gt;Node13 -->
<g id="edge3" class="edge"><title>Node12&#45;&gt;Node13</title>
<path fill="none" stroke="midnightblue" d="M641.2,-150.625C656.557,-157.518 674.922,-165.76 691.28,-173.102"/>
<polygon fill="midnightblue" stroke="midnightblue" points="690.086,-176.402 700.642,-177.304 692.952,-170.016 690.086,-176.402"/>
</g>
<!-- Node14&#45;&gt;Node12 -->
<g id="edge9" class="edge"><title>Node14&#45;&gt;Node12</title>
<path fill="none" stroke="midnightblue" d="M374.388,-243.551C412.098,-259.309 476.246,-278.554 524,-253.5 561.308,-233.926 584.904,-188.671 596.615,-160.238"/>
<polygon fill="midnightblue" stroke="midnightblue" points="600.001,-161.19 600.395,-150.603 593.484,-158.634 600.001,-161.19"/>
</g>
<!-- Node15 -->
<g id="node6" class="node"><title>Node15</title>
<g id="a_node6"><a xlink:href="../../dd/df5/namespacemom__tracer__z__init.html#a00e2eb419a924624bf8ae6d84e64ef47" target="_top" xlink:title="mom_tracer_z_init::\lread_z_edges">
<polygon fill="white" stroke="black" points="435,-301.5 435,-331.5 522,-331.5 522,-301.5 435,-301.5"/>
<text text-anchor="start" x="443" y="-319.5" font-family="Helvetica,sans-Serif" font-size="10.00">mom_tracer_z_init::</text>
<text text-anchor="middle" x="478.5" y="-308.5" font-family="Helvetica,sans-Serif" font-size="10.00">read_z_edges</text>
</a>
</g>
</g>
<!-- Node14&#45;&gt;Node15 -->
<g id="edge5" class="edge"><title>Node14&#45;&gt;Node15</title>
<path fill="none" stroke="midnightblue" d="M366.121,-243.628C388.062,-257.983 421.224,-279.68 445.659,-295.667"/>
<polygon fill="midnightblue" stroke="midnightblue" points="443.946,-298.729 454.23,-301.275 447.778,-292.871 443.946,-298.729"/>
</g>
<!-- Node17 -->
<g id="node8" class="node"><title>Node17</title>
<g id="a_node8"><a xlink:href="../../d0/dbf/namespacemom__diag__to__z.html#a7bb6af99ccb5eb1daf7473663ca19aea" target="_top" xlink:title="mom_diag_to_z::find\l_overlap">
<polygon fill="white" stroke="black" points="433,-213.5 433,-243.5 524,-243.5 524,-213.5 433,-213.5"/>
<text text-anchor="start" x="441" y="-231.5" font-family="Helvetica,sans-Serif" font-size="10.00">mom_diag_to_z::find</text>
<text text-anchor="middle" x="478.5" y="-220.5" font-family="Helvetica,sans-Serif" font-size="10.00">_overlap</text>
</a>
</g>
</g>
<!-- Node14&#45;&gt;Node17 -->
<g id="edge10" class="edge"><title>Node14&#45;&gt;Node17</title>
<path fill="none" stroke="midnightblue" d="M385.557,-228.5C397.341,-228.5 410.301,-228.5 422.679,-228.5"/>
<polygon fill="midnightblue" stroke="midnightblue" points="422.9,-232 432.9,-228.5 422.9,-225 422.9,-232"/>
</g>
<!-- Node18 -->
<g id="node9" class="node"><title>Node18</title>
<g id="a_node9"><a xlink:href="../../d0/dbf/namespacemom__diag__to__z.html#a55f6203cfb483bb62c543f689ab30741" target="_top" xlink:title="mom_diag_to_z::find\l_limited_slope">
<polygon fill="white" stroke="black" points="433,-164.5 433,-194.5 524,-194.5 524,-164.5 433,-164.5"/>
<text text-anchor="start" x="441" y="-182.5" font-family="Helvetica,sans-Serif" font-size="10.00">mom_diag_to_z::find</text>
<text text-anchor="middle" x="478.5" y="-171.5" font-family="Helvetica,sans-Serif" font-size="10.00">_limited_slope</text>
</a>
</g>
</g>
<!-- Node14&#45;&gt;Node18 -->
<g id="edge11" class="edge"><title>Node14&#45;&gt;Node18</title>
<path fill="none" stroke="midnightblue" d="M384.452,-213.399C397.747,-208.555 412.628,-203.134 426.523,-198.072"/>
<polygon fill="midnightblue" stroke="midnightblue" points="427.756,-201.348 435.953,-194.636 425.359,-194.77 427.756,-201.348"/>
</g>
<!-- Node15&#45;&gt;Node12 -->
<g id="edge6" class="edge"><title>Node15&#45;&gt;Node12</title>
<path fill="none" stroke="midnightblue" d="M506.581,-301.29C512.772,-297.024 518.994,-292.023 524,-286.5 533.402,-276.125 572.948,-199.554 593.294,-159.607"/>
<polygon fill="midnightblue" stroke="midnightblue" points="596.496,-161.031 597.907,-150.53 590.256,-157.859 596.496,-161.031"/>
</g>
<!-- Node16 -->
<g id="node7" class="node"><title>Node16</title>
<g id="a_node7"><a xlink:href="../../d0/de6/namespacemom__error__handler.html#a1c462df7b61f1296407b4af51dfeceab" target="_top" xlink:title="mom_error_handler::\lmom_mesg">
<polygon fill="white" stroke="black" points="560,-235.5 560,-265.5 653,-265.5 653,-235.5 560,-235.5"/>
<text text-anchor="start" x="568" y="-253.5" font-family="Helvetica,sans-Serif" font-size="10.00">mom_error_handler::</text>
<text text-anchor="middle" x="606.5" y="-242.5" font-family="Helvetica,sans-Serif" font-size="10.00">mom_mesg</text>
</a>
</g>
</g>
<!-- Node15&#45;&gt;Node16 -->
<g id="edge7" class="edge"><title>Node15&#45;&gt;Node16</title>
<path fill="none" stroke="midnightblue" d="M508.407,-301.358C526.015,-292.135 548.706,-280.249 567.725,-270.287"/>
<polygon fill="midnightblue" stroke="midnightblue" points="569.493,-273.312 576.728,-265.571 566.245,-267.111 569.493,-273.312"/>
</g>
<!-- Node16&#45;&gt;Node13 -->
<g id="edge8" class="edge"><title>Node16&#45;&gt;Node13</title>
<path fill="none" stroke="midnightblue" d="M640.536,-235.413C656.411,-228.163 675.615,-219.392 692.514,-211.675"/>
<polygon fill="midnightblue" stroke="midnightblue" points="693.987,-214.85 701.629,-207.512 691.079,-208.482 693.987,-214.85"/>
</g>
<!-- Node20 -->
<g id="node11" class="node"><title>Node20</title>
<g id="a_node11"><a xlink:href="../../d5/d89/namespacemom__io.html#ac4bc408e8b38dbd669842753f26ebf88" target="_top" xlink:title="Copies a string. ">
<polygon fill="white" stroke="black" points="287,-50 287,-69 397,-69 397,-50 287,-50"/>
<text text-anchor="middle" x="342" y="-57" font-family="Helvetica,sans-Serif" font-size="10.00">mom_io::safe_string_copy</text>
</a>
</g>
</g>
<!-- Node19&#45;&gt;Node20 -->
<g id="edge14" class="edge"><title>Node19&#45;&gt;Node20</title>
<path fill="none" stroke="midnightblue" d="M249.786,-59.5C258.443,-59.5 267.548,-59.5 276.517,-59.5"/>
<polygon fill="midnightblue" stroke="midnightblue" points="276.555,-63.0001 286.555,-59.5 276.555,-56.0001 276.555,-63.0001"/>
</g>
<!-- Node20&#45;&gt;Node12 -->
<g id="edge15" class="edge"><title>Node20&#45;&gt;Node12</title>
<path fill="none" stroke="midnightblue" d="M397.124,-60.5629C433.878,-62.7449 483.055,-68.5598 524,-83.5 543.639,-90.6659 563.46,-103.168 578.638,-114.118"/>
<polygon fill="midnightblue" stroke="midnightblue" points="576.887,-117.178 587.001,-120.334 581.063,-111.559 576.887,-117.178"/>
</g>
<!-- Node22 -->
<g id="node13" class="node"><title>Node22</title>
<g id="a_node13"><a xlink:href="../../d0/dbf/namespacemom__diag__to__z.html#adde57f2503f5c182af511fba0f4c83ea" target="_top" xlink:title="mom_diag_to_z::register\l_z_tracer_low">
<polygon fill="white" stroke="black" points="289.5,-0.5 289.5,-30.5 394.5,-30.5 394.5,-0.5 289.5,-0.5"/>
<text text-anchor="start" x="297.5" y="-18.5" font-family="Helvetica,sans-Serif" font-size="10.00">mom_diag_to_z::register</text>
<text text-anchor="middle" x="342" y="-7.5" font-family="Helvetica,sans-Serif" font-size="10.00">_z_tracer_low</text>
</a>
</g>
</g>
<!-- Node21&#45;&gt;Node22 -->
<g id="edge17" class="edge"><title>Node21&#45;&gt;Node22</title>
<path fill="none" stroke="midnightblue" d="M251.386,-15.5C260.326,-15.5 269.699,-15.5 278.876,-15.5"/>
<polygon fill="midnightblue" stroke="midnightblue" points="279.12,-19.0001 289.12,-15.5 279.12,-12.0001 279.12,-19.0001"/>
</g>
<!-- Node22&#45;&gt;Node12 -->
<g id="edge18" class="edge"><title>Node22&#45;&gt;Node12</title>
<path fill="none" stroke="midnightblue" d="M394.625,-21.3586C432.251,-27.2454 483.513,-38.7073 524,-60.5 548.445,-73.6579 571.24,-95.8288 586.47,-112.662"/>
<polygon fill="midnightblue" stroke="midnightblue" points="584.078,-115.241 593.313,-120.434 589.332,-110.615 584.078,-115.241"/>
</g>
</g>
</svg>
