<?xml version="1.0" encoding="UTF-8" standalone="no"?>
<!DOCTYPE svg PUBLIC "-//W3C//DTD SVG 1.1//EN"
 "http://www.w3.org/Graphics/SVG/1.1/DTD/svg11.dtd">
<!-- Generated by graphviz version 2.38.0 (20140413.2041)
 -->
<!-- Title: user_tracer_example::user_initialize_tracer Pages: 1 -->
<!--zoomable 258 -->
<svg id="main" version="1.1" xmlns="http://www.w3.org/2000/svg" xmlns:xlink="http://www.w3.org/1999/xlink" xml:space="preserve" onload="init(evt)">
<style type="text/css"><![CDATA[
.edge:hover path { stroke: red; }
.edge:hover polygon { stroke: red; fill: red; }
]]></style>
<script type="text/javascript"><![CDATA[
var edges = document.getElementsByTagName('g');
if (edges && edges.length) {
  for (var i=0;i<edges.length;i++) {
    if (edges[i].id.substr(0,4)=='edge') {
      edges[i].setAttribute('class','edge');
    }
  }
}
]]></script>
        <defs>
                <circle id="rim" cx="0" cy="0" r="7"/>
                <circle id="rim2" cx="0" cy="0" r="3.5"/>
                <g id="zoomPlus">
                        <use xlink:href="#rim" fill="#404040">
                                <set attributeName="fill" to="#808080" begin="zoomplus.mouseover" end="zoomplus.mouseout"/>
                        </use>
                        <path d="M-4,0h8M0,-4v8" fill="none" stroke="white" stroke-width="1.5" pointer-events="none"/>
                </g>
                <g id="zoomMin">
                        <use xlink:href="#rim" fill="#404040">
                                <set attributeName="fill" to="#808080" begin="zoomminus.mouseover" end="zoomminus.mouseout"/>
                        </use>
                        <path d="M-4,0h8" fill="none" stroke="white" stroke-width="1.5" pointer-events="none"/>
                </g>
                <g id="dirArrow">
                        <path fill="none" stroke="white" stroke-width="1.5" d="M0,-3.0v7 M-2.5,-0.5L0,-3.0L2.5,-0.5"/>
                </g>
               <g id="resetDef">
                       <use xlink:href="#rim2" fill="#404040">
                               <set attributeName="fill" to="#808080" begin="reset.mouseover" end="reset.mouseout"/>
                       </use>
               </g>
        </defs>

<script type="text/javascript">
var viewWidth = 647;
var viewHeight = 258;
var sectionId = 'dynsection-0';
</script>
<script xlink:href="../../svgpan.js"/>
<svg id="graph" class="graph">
<g id="viewport">
<title>user_tracer_example::user_initialize_tracer</title>
<polygon fill="white" stroke="none" points="-4,4 -4,-254 643,-254 643,4 -4,4"/>
<!-- Node2 -->
<g id="node1" class="node"><title>Node2</title>
<polygon fill="#bfbfbf" stroke="black" points="0,-109.5 0,-139.5 94,-139.5 94,-109.5 0,-109.5"/>
<text text-anchor="start" x="8" y="-127.5" font-family="Helvetica,sans-Serif" font-size="10.00">user_tracer_example</text>
<text text-anchor="middle" x="47" y="-116.5" font-family="Helvetica,sans-Serif" font-size="10.00">::user_initialize_tracer</text>
</g>
<!-- Node3 -->
<g id="node2" class="node"><title>Node3</title>
<g id="a_node2"><a xlink:href="../../d1/d35/namespacemom__tracer__registry.html#ac008525fee272a225a19998ae437b5bf" target="_top" xlink:title="This subroutine adds diagnostic arrays for a tracer that has previously been registered by a call to ...">
<polygon fill="white" stroke="black" points="274,-219.5 274,-249.5 378,-249.5 378,-219.5 274,-219.5"/>
<text text-anchor="start" x="282" y="-237.5" font-family="Helvetica,sans-Serif" font-size="10.00">mom_tracer_registry</text>
<text text-anchor="middle" x="326" y="-226.5" font-family="Helvetica,sans-Serif" font-size="10.00">::add_tracer_diagnostics</text>
</a>
</g>
</g>
<!-- Node2&#45;&gt;Node3 -->
<g id="edge1" class="edge"><title>Node2&#45;&gt;Node3</title>
<path fill="none" stroke="midnightblue" d="M58.8052,-139.754C72.8964,-158.363 99.3905,-189.226 130,-204.5 171.587,-225.252 223.871,-232.433 263.83,-234.6"/>
<polygon fill="midnightblue" stroke="midnightblue" points="263.822,-238.103 273.969,-235.058 264.137,-231.11 263.822,-238.103"/>
</g>
<!-- Node4 -->
<g id="node3" class="node"><title>Node4</title>
<g id="a_node3"><a xlink:href="../../d0/de6/namespacemom__error__handler.html#a460cfb79a06c29fc249952c2a3710d67" target="_top" xlink:title="mom_error_handler::\lmom_error">
<polygon fill="white" stroke="black" points="417,-93.5 417,-123.5 510,-123.5 510,-93.5 417,-93.5"/>
<text text-anchor="start" x="425" y="-111.5" font-family="Helvetica,sans-Serif" font-size="10.00">mom_error_handler::</text>
<text text-anchor="middle" x="463.5" y="-100.5" font-family="Helvetica,sans-Serif" font-size="10.00">mom_error</text>
</a>
</g>
</g>
<!-- Node2&#45;&gt;Node4 -->
<g id="edge6" class="edge"><title>Node2&#45;&gt;Node4</title>
<path fill="none" stroke="midnightblue" d="M67.9645,-139.57C83.8349,-150.553 107.1,-164.516 130,-170.5 238.345,-198.814 274.115,-181.904 381,-148.5 397.043,-143.486 413.863,-135.708 428.028,-128.34"/>
<polygon fill="midnightblue" stroke="midnightblue" points="429.748,-131.389 436.918,-123.589 426.449,-125.215 429.748,-131.389"/>
</g>
<!-- Node6 -->
<g id="node5" class="node"><title>Node6</title>
<g id="a_node5"><a xlink:href="../../d1/d35/namespacemom__tracer__registry.html#a6210b799ee25a114d4b87bdfaa6d0c7a" target="_top" xlink:title="This subroutine adds open boundary condition concentrations for a tracer that has previously been reg...">
<polygon fill="white" stroke="black" points="130.5,-131.5 130.5,-161.5 234.5,-161.5 234.5,-131.5 130.5,-131.5"/>
<text text-anchor="start" x="138.5" y="-149.5" font-family="Helvetica,sans-Serif" font-size="10.00">mom_tracer_registry</text>
<text text-anchor="middle" x="182.5" y="-138.5" font-family="Helvetica,sans-Serif" font-size="10.00">::add_tracer_obc_values</text>
</a>
</g>
</g>
<!-- Node2&#45;&gt;Node6 -->
<g id="edge4" class="edge"><title>Node2&#45;&gt;Node6</title>
<path fill="none" stroke="midnightblue" d="M94.3172,-132.133C102.653,-133.506 111.459,-134.958 120.143,-136.389"/>
<polygon fill="midnightblue" stroke="midnightblue" points="119.809,-139.881 130.245,-138.053 120.947,-132.974 119.809,-139.881"/>
</g>
<!-- Node7 -->
<g id="node6" class="node"><title>Node7</title>
<g id="a_node6"><a xlink:href="../../d5/d89/namespacemom__io.html#a23e82d1d89d9bb1c9bdf802ce80d4508" target="_top" xlink:title="This routine queries vardesc. ">
<polygon fill="white" stroke="black" points="131.5,-93 131.5,-112 233.5,-112 233.5,-93 131.5,-93"/>
<text text-anchor="middle" x="182.5" y="-100" font-family="Helvetica,sans-Serif" font-size="10.00">mom_io::query_vardesc</text>
</a>
</g>
</g>
<!-- Node2&#45;&gt;Node7 -->
<g id="edge7" class="edge"><title>Node2&#45;&gt;Node7</title>
<path fill="none" stroke="midnightblue" d="M94.3172,-116.867C102.962,-115.443 112.114,-113.934 121.109,-112.452"/>
<polygon fill="midnightblue" stroke="midnightblue" points="121.867,-115.874 131.165,-110.795 120.729,-108.968 121.867,-115.874"/>
</g>
<!-- Node9 -->
<g id="node8" class="node"><title>Node9</title>
<g id="a_node8"><a xlink:href="../../d0/dbf/namespacemom__diag__to__z.html#a6946a3316715041c5944df17db1aef74" target="_top" xlink:title="mom_diag_to_z::register\l_z_tracer">
<polygon fill="white" stroke="black" points="130,-43.5 130,-73.5 235,-73.5 235,-43.5 130,-43.5"/>
<text text-anchor="start" x="138" y="-61.5" font-family="Helvetica,sans-Serif" font-size="10.00">mom_diag_to_z::register</text>
<text text-anchor="middle" x="182.5" y="-50.5" font-family="Helvetica,sans-Serif" font-size="10.00">_z_tracer</text>
</a>
</g>
</g>
<!-- Node2&#45;&gt;Node9 -->
<g id="edge10" class="edge"><title>Node2&#45;&gt;Node9</title>
<path fill="none" stroke="midnightblue" d="M77.9471,-109.421C93.4602,-101.637 112.724,-92.0118 130,-83.5 133.608,-81.7224 137.362,-79.882 141.126,-78.0432"/>
<polygon fill="midnightblue" stroke="midnightblue" points="142.969,-81.0388 150.425,-73.5121 139.903,-74.7461 142.969,-81.0388"/>
</g>
<!-- Node11 -->
<g id="node10" class="node"><title>Node11</title>
<g id="a_node10"><a xlink:href="../../d8/da8/namespacemom__sponge.html#af3da4a8b352c4130919d7bfedf1a5a3e" target="_top" xlink:title="mom_sponge::set_up\l_sponge_field">
<polygon fill="white" stroke="black" points="279,-0.5 279,-30.5 373,-30.5 373,-0.5 279,-0.5"/>
<text text-anchor="start" x="287" y="-18.5" font-family="Helvetica,sans-Serif" font-size="10.00">mom_sponge::set_up</text>
<text text-anchor="middle" x="326" y="-7.5" font-family="Helvetica,sans-Serif" font-size="10.00">_sponge_field</text>
</a>
</g>
</g>
<!-- Node2&#45;&gt;Node11 -->
<g id="edge13" class="edge"><title>Node2&#45;&gt;Node11</title>
<path fill="none" stroke="midnightblue" d="M56.5568,-109.385C69.4384,-88.2533 95.97,-50.5603 130,-33.5 173.008,-11.9388 228.051,-8.7143 268.684,-10.1427"/>
<polygon fill="midnightblue" stroke="midnightblue" points="268.539,-13.6396 278.687,-10.5978 268.857,-6.64685 268.539,-13.6396"/>
</g>
<!-- Node3&#45;&gt;Node4 -->
<g id="edge2" class="edge"><title>Node3&#45;&gt;Node4</title>
<path fill="none" stroke="midnightblue" d="M358.505,-219.492C366.217,-215.16 374.201,-210.077 381,-204.5 407.031,-183.147 431.236,-152.744 446.393,-131.906"/>
<polygon fill="midnightblue" stroke="midnightblue" points="449.35,-133.788 452.313,-123.616 443.653,-129.72 449.35,-133.788"/>
</g>
<!-- Node5 -->
<g id="node4" class="node"><title>Node5</title>
<g id="a_node4"><a xlink:href="../../d0/de6/namespacemom__error__handler.html#ad5f00a53059c72fe2332d1436c80ca71" target="_top" xlink:title="mom_error_handler::\lis_root_pe">
<polygon fill="white" stroke="black" points="546,-59.5 546,-89.5 639,-89.5 639,-59.5 546,-59.5"/>
<text text-anchor="start" x="554" y="-77.5" font-family="Helvetica,sans-Serif" font-size="10.00">mom_error_handler::</text>
<text text-anchor="middle" x="592.5" y="-66.5" font-family="Helvetica,sans-Serif" font-size="10.00">is_root_pe</text>
</a>
</g>
</g>
<!-- Node4&#45;&gt;Node5 -->
<g id="edge3" class="edge"><title>Node4&#45;&gt;Node5</title>
<path fill="none" stroke="midnightblue" d="M510.35,-96.2252C518.623,-94.0104 527.33,-91.6794 535.846,-89.3996"/>
<polygon fill="midnightblue" stroke="midnightblue" points="536.963,-92.7239 545.717,-86.7568 535.152,-85.962 536.963,-92.7239"/>
</g>
<!-- Node6&#45;&gt;Node4 -->
<g id="edge5" class="edge"><title>Node6&#45;&gt;Node4</title>
<path fill="none" stroke="midnightblue" d="M234.893,-143.438C274.895,-140.602 331.71,-135.579 381,-127.5 389.347,-126.132 398.113,-124.403 406.675,-122.549"/>
<polygon fill="midnightblue" stroke="midnightblue" points="407.601,-125.928 416.595,-120.329 406.072,-119.097 407.601,-125.928"/>
</g>
<!-- Node8 -->
<g id="node7" class="node"><title>Node8</title>
<g id="a_node7"><a xlink:href="../../d5/d89/namespacemom__io.html#ac4bc408e8b38dbd669842753f26ebf88" target="_top" xlink:title="Copies a string. ">
<polygon fill="white" stroke="black" points="271,-99 271,-118 381,-118 381,-99 271,-99"/>
<text text-anchor="middle" x="326" y="-106" font-family="Helvetica,sans-Serif" font-size="10.00">mom_io::safe_string_copy</text>
</a>
</g>
</g>
<!-- Node7&#45;&gt;Node8 -->
<g id="edge8" class="edge"><title>Node7&#45;&gt;Node8</title>
<path fill="none" stroke="midnightblue" d="M233.786,-104.632C242.443,-104.999 251.548,-105.385 260.517,-105.766"/>
<polygon fill="midnightblue" stroke="midnightblue" points="260.416,-109.264 270.555,-106.191 260.712,-102.271 260.416,-109.264"/>
</g>
<!-- Node8&#45;&gt;Node4 -->
<g id="edge9" class="edge"><title>Node8&#45;&gt;Node4</title>
<path fill="none" stroke="midnightblue" d="M381.332,-108.5C389.707,-108.5 398.367,-108.5 406.772,-108.5"/>
<polygon fill="midnightblue" stroke="midnightblue" points="406.862,-112 416.862,-108.5 406.862,-105 406.862,-112"/>
</g>
<!-- Node10 -->
<g id="node9" class="node"><title>Node10</title>
<g id="a_node9"><a xlink:href="../../d0/dbf/namespacemom__diag__to__z.html#adde57f2503f5c182af511fba0f4c83ea" target="_top" xlink:title="mom_diag_to_z::register\l_z_tracer_low">
<polygon fill="white" stroke="black" points="273.5,-49.5 273.5,-79.5 378.5,-79.5 378.5,-49.5 273.5,-49.5"/>
<text text-anchor="start" x="281.5" y="-67.5" font-family="Helvetica,sans-Serif" font-size="10.00">mom_diag_to_z::register</text>
<text text-anchor="middle" x="326" y="-56.5" font-family="Helvetica,sans-Serif" font-size="10.00">_z_tracer_low</text>
</a>
</g>
</g>
<!-- Node9&#45;&gt;Node10 -->
<g id="edge11" class="edge"><title>Node9&#45;&gt;Node10</title>
<path fill="none" stroke="midnightblue" d="M235.386,-60.7001C244.326,-61.0792 253.699,-61.4767 262.876,-61.8658"/>
<polygon fill="midnightblue" stroke="midnightblue" points="262.981,-65.3733 273.12,-62.3002 263.278,-58.3796 262.981,-65.3733"/>
</g>
<!-- Node10&#45;&gt;Node4 -->
<g id="edge12" class="edge"><title>Node10&#45;&gt;Node4</title>
<path fill="none" stroke="midnightblue" d="M373.252,-79.5192C384.163,-83.0622 395.903,-86.8746 407.17,-90.5329"/>
<polygon fill="midnightblue" stroke="midnightblue" points="406.323,-93.9379 416.915,-93.6975 408.485,-87.2801 406.323,-93.9379"/>
</g>
<!-- Node11&#45;&gt;Node4 -->
<g id="edge15" class="edge"><title>Node11&#45;&gt;Node4</title>
<path fill="none" stroke="midnightblue" d="M364.609,-30.5478C370.241,-33.2738 375.873,-36.2828 381,-39.5 402.396,-52.9257 424.103,-71.6057 439.73,-86.1439"/>
<polygon fill="midnightblue" stroke="midnightblue" points="437.644,-88.9886 447.313,-93.3192 442.455,-83.9039 437.644,-88.9886"/>
</g>
<!-- Node11&#45;&gt;Node5 -->
<g id="edge14" class="edge"><title>Node11&#45;&gt;Node5</title>
<path fill="none" stroke="midnightblue" d="M373.072,-25.777C418.396,-35.887 487.637,-51.3321 535.974,-62.1143"/>
<polygon fill="midnightblue" stroke="midnightblue" points="535.433,-65.5796 545.956,-64.3408 536.957,-58.7475 535.433,-65.5796"/>
</g>
</g>
</svg>
        <g id="navigator" transform="translate(0 0)" fill="#404254">
                <rect fill="#f2f5e9" fill-opacity="0.5" stroke="#606060" stroke-width=".5" x="0" y="0" width="60" height="60"/>
                <use id="zoomplus" xlink:href="#zoomPlus" x="17" y="9" onmousedown="handleZoom(evt,'in')"/>
                <use id="zoomminus" xlink:href="#zoomMin" x="42" y="9" onmousedown="handleZoom(evt,'out')"/>
                <use id="reset" xlink:href="#resetDef" x="30" y="36" onmousedown="handleReset()"/>
                <g id="arrowUp" xlink:href="#dirArrow" transform="translate(30 24)" onmousedown="handlePan(0,-1)">
                  <use xlink:href="#rim" fill="#404040">
                        <set attributeName="fill" to="#808080" begin="arrowUp.mouseover" end="arrowUp.mouseout"/>
                  </use>
                  <path fill="none" stroke="white" stroke-width="1.5" d="M0,-3.0v7 M-2.5,-0.5L0,-3.0L2.5,-0.5"/>
                </g>
                <g id="arrowRight" xlink:href="#dirArrow" transform="rotate(90) translate(36 -43)" onmousedown="handlePan(1,0)">
                  <use xlink:href="#rim" fill="#404040">
                        <set attributeName="fill" to="#808080" begin="arrowRight.mouseover" end="arrowRight.mouseout"/>
                  </use>
                  <path fill="none" stroke="white" stroke-width="1.5" d="M0,-3.0v7 M-2.5,-0.5L0,-3.0L2.5,-0.5"/>
                </g>
                <g id="arrowDown" xlink:href="#dirArrow" transform="rotate(180) translate(-30 -48)" onmousedown="handlePan(0,1)">
                  <use xlink:href="#rim" fill="#404040">
                        <set attributeName="fill" to="#808080" begin="arrowDown.mouseover" end="arrowDown.mouseout"/>
                  </use>
                  <path fill="none" stroke="white" stroke-width="1.5" d="M0,-3.0v7 M-2.5,-0.5L0,-3.0L2.5,-0.5"/>
                </g>
                <g id="arrowLeft" xlink:href="#dirArrow" transform="rotate(270) translate(-36 17)" onmousedown="handlePan(-1,0)">
                  <use xlink:href="#rim" fill="#404040">
                        <set attributeName="fill" to="#808080" begin="arrowLeft.mouseover" end="arrowLeft.mouseout"/>
                  </use>
                  <path fill="none" stroke="white" stroke-width="1.5" d="M0,-3.0v7 M-2.5,-0.5L0,-3.0L2.5,-0.5"/>
                </g>
        </g>
        <svg viewBox="0 0 15 15" width="100%" height="30px" preserveAspectRatio="xMaxYMin meet">
         <g id="arrow_out" transform="scale(0.3 0.3)">
          <a xlink:href="namespaceuser__tracer__example_a16d417b6068f44605caf3573bf5f4de9_cgraph_org.svg" target="_base">
           <rect id="button" ry="5" rx="5" y="6" x="6" height="38" width="38"
                fill="#f2f5e9" fill-opacity="0.5" stroke="#606060" stroke-width="1.0"/>
           <path id="arrow"
             d="M 11.500037,31.436501 C 11.940474,20.09759 22.043105,11.32322 32.158766,21.979434 L 37.068811,17.246167 C 37.068811,17.246167 37.088388,32 37.088388,32 L 22.160133,31.978069 C 22.160133,31.978069 26.997745,27.140456 26.997745,27.140456 C 18.528582,18.264221 13.291696,25.230495 11.500037,31.436501 z"
             style="fill:#404040;"/>
          </a>
         </g>
        </svg>
</svg>
