<?xml version="1.0" encoding="UTF-8" standalone="no"?>
<!DOCTYPE svg PUBLIC "-//W3C//DTD SVG 1.1//EN"
 "http://www.w3.org/Graphics/SVG/1.1/DTD/svg11.dtd">
<!-- Generated by graphviz version 2.38.0 (20140413.2041)
 -->
<!-- Title: mom_diabatic_driver::diagnose_diabatic_diff_tendency Pages: 1 -->
<svg width="226pt" height="50pt"
 viewBox="0.00 0.00 226.00 50.00" xmlns="http://www.w3.org/2000/svg" xmlns:xlink="http://www.w3.org/1999/xlink">
<g id="graph0" class="graph" transform="scale(1 1) rotate(0) translate(4 46)">
<title>mom_diabatic_driver::diagnose_diabatic_diff_tendency</title>
<polygon fill="white" stroke="none" points="-4,4 -4,-46 222,-46 222,4 -4,4"/>
<!-- Node138 -->
<g id="node1" class="node"><title>Node138</title>
<polygon fill="#bfbfbf" stroke="black" points="0,-0.5 0,-41.5 91,-41.5 91,-0.5 0,-0.5"/>
<text text-anchor="start" x="8" y="-29.5" font-family="Helvetica,sans-Serif" font-size="10.00">mom_diabatic_driver</text>
<text text-anchor="start" x="8" y="-18.5" font-family="Helvetica,sans-Serif" font-size="10.00">::diagnose_diabatic</text>
<text text-anchor="middle" x="45.5" y="-7.5" font-family="Helvetica,sans-Serif" font-size="10.00">_diff_tendency</text>
</g>
<!-- Node139 -->
<g id="node2" class="node"><title>Node139</title>
<g id="a_node2"><a xlink:href="../../d8/df3/namespacemom__diabatic__driver.html#a61e57d3902367aa46aa3c2d949ee900f" target="_top" xlink:title="This subroutine imposes the diapycnal mass fluxes and the accompanying diapycnal advection of momentu...">
<polygon fill="white" stroke="black" points="127,-6 127,-36 218,-36 218,-6 127,-6"/>
<text text-anchor="start" x="135" y="-24" font-family="Helvetica,sans-Serif" font-size="10.00">mom_diabatic_driver</text>
<text text-anchor="middle" x="172.5" y="-13" font-family="Helvetica,sans-Serif" font-size="10.00">::diabatic</text>
</a>
</g>
</g>
<!-- Node138&#45;&gt;Node139 -->
<g id="edge1" class="edge"><title>Node138&#45;&gt;Node139</title>
<path fill="none" stroke="midnightblue" d="M101.414,-21C109.837,-21 118.446,-21 126.618,-21"/>
<polygon fill="midnightblue" stroke="midnightblue" points="101.275,-17.5001 91.2748,-21 101.275,-24.5001 101.275,-17.5001"/>
</g>
</g>
</svg>
