<?xml version="1.0" encoding="UTF-8" standalone="no"?>
<!DOCTYPE svg PUBLIC "-//W3C//DTD SVG 1.1//EN"
 "http://www.w3.org/Graphics/SVG/1.1/DTD/svg11.dtd">
<!-- Generated by graphviz version 2.38.0 (20140413.2041)
 -->
<!-- Title: user_shelf_init::user_init_ice_thickness Pages: 1 -->
<svg width="607pt" height="88pt"
 viewBox="0.00 0.00 607.00 88.00" xmlns="http://www.w3.org/2000/svg" xmlns:xlink="http://www.w3.org/1999/xlink">
<g id="graph0" class="graph" transform="scale(1 1) rotate(0) translate(4 84)">
<title>user_shelf_init::user_init_ice_thickness</title>
<polygon fill="white" stroke="none" points="-4,4 -4,-84 603,-84 603,4 -4,4"/>
<!-- Node0 -->
<g id="node1" class="node"><title>Node0</title>
<polygon fill="#bfbfbf" stroke="black" points="0,-24.5 0,-54.5 88,-54.5 88,-24.5 0,-24.5"/>
<text text-anchor="start" x="8" y="-42.5" font-family="Helvetica,sans-Serif" font-size="10.00">user_shelf_init::user</text>
<text text-anchor="middle" x="44" y="-31.5" font-family="Helvetica,sans-Serif" font-size="10.00">_init_ice_thickness</text>
</g>
<!-- Node1 -->
<g id="node2" class="node"><title>Node1</title>
<g id="a_node2"><a xlink:href="../../d7/df8/namespaceuser__shelf__init.html#a160ee7639522c12c10408f853ff4d897" target="_top" xlink:title="user_shelf_init::user\l_initialize_shelf_mass">
<polygon fill="white" stroke="black" points="124,-24.5 124,-54.5 216,-54.5 216,-24.5 124,-24.5"/>
<text text-anchor="start" x="132" y="-42.5" font-family="Helvetica,sans-Serif" font-size="10.00">user_shelf_init::user</text>
<text text-anchor="middle" x="170" y="-31.5" font-family="Helvetica,sans-Serif" font-size="10.00">_initialize_shelf_mass</text>
</a>
</g>
</g>
<!-- Node0&#45;&gt;Node1 -->
<g id="edge1" class="edge"><title>Node0&#45;&gt;Node1</title>
<path fill="none" stroke="midnightblue" d="M88.0212,-39.5C96.367,-39.5 105.221,-39.5 113.892,-39.5"/>
<polygon fill="midnightblue" stroke="midnightblue" points="113.947,-43.0001 123.947,-39.5 113.947,-36.0001 113.947,-43.0001"/>
</g>
<!-- Node2 -->
<g id="node3" class="node"><title>Node2</title>
<g id="a_node3"><a xlink:href="../../d7/df8/namespaceuser__shelf__init.html#a04dc4958214e8b07da385f8be785d706" target="_top" xlink:title="user_shelf_init::write\l_user_log">
<polygon fill="white" stroke="black" points="252.5,-49.5 252.5,-79.5 341.5,-79.5 341.5,-49.5 252.5,-49.5"/>
<text text-anchor="start" x="260.5" y="-67.5" font-family="Helvetica,sans-Serif" font-size="10.00">user_shelf_init::write</text>
<text text-anchor="middle" x="297" y="-56.5" font-family="Helvetica,sans-Serif" font-size="10.00">_user_log</text>
</a>
</g>
</g>
<!-- Node1&#45;&gt;Node2 -->
<g id="edge2" class="edge"><title>Node1&#45;&gt;Node2</title>
<path fill="none" stroke="midnightblue" d="M216.128,-48.5256C224.572,-50.2144 233.476,-51.9952 242.153,-53.7305"/>
<polygon fill="midnightblue" stroke="midnightblue" points="241.701,-57.2094 252.193,-55.7387 243.074,-50.3454 241.701,-57.2094"/>
</g>
<!-- Node5 -->
<g id="node6" class="node"><title>Node5</title>
<g id="a_node6"><a xlink:href="../../d7/df8/namespaceuser__shelf__init.html#abd99438d24c4a57aa3fbab3b067a7c81" target="_top" xlink:title="user_shelf_init::user\l_update_shelf_mass">
<polygon fill="white" stroke="black" points="252,-0.5 252,-30.5 342,-30.5 342,-0.5 252,-0.5"/>
<text text-anchor="start" x="260" y="-18.5" font-family="Helvetica,sans-Serif" font-size="10.00">user_shelf_init::user</text>
<text text-anchor="middle" x="297" y="-7.5" font-family="Helvetica,sans-Serif" font-size="10.00">_update_shelf_mass</text>
</a>
</g>
</g>
<!-- Node1&#45;&gt;Node5 -->
<g id="edge5" class="edge"><title>Node1&#45;&gt;Node5</title>
<path fill="none" stroke="midnightblue" d="M216.128,-30.8354C224.472,-29.2335 233.264,-27.5453 241.843,-25.8982"/>
<polygon fill="midnightblue" stroke="midnightblue" points="242.615,-29.3139 251.776,-23.9911 241.295,-22.4395 242.615,-29.3139"/>
</g>
<!-- Node3 -->
<g id="node4" class="node"><title>Node3</title>
<g id="a_node4"><a xlink:href="../../d9/def/namespacemom__file__parser.html#a17c0ef1bb1912f02faa0aaa1e0f64210" target="_top" xlink:title="mom_file_parser::log\l_version">
<polygon fill="white" stroke="black" points="378,-49.5 378,-79.5 470,-79.5 470,-49.5 378,-49.5"/>
<text text-anchor="start" x="386" y="-67.5" font-family="Helvetica,sans-Serif" font-size="10.00">mom_file_parser::log</text>
<text text-anchor="middle" x="424" y="-56.5" font-family="Helvetica,sans-Serif" font-size="10.00">_version</text>
</a>
</g>
</g>
<!-- Node2&#45;&gt;Node3 -->
<g id="edge3" class="edge"><title>Node2&#45;&gt;Node3</title>
<path fill="none" stroke="midnightblue" d="M341.719,-64.5C350.119,-64.5 359.018,-64.5 367.727,-64.5"/>
<polygon fill="midnightblue" stroke="midnightblue" points="367.822,-68.0001 377.822,-64.5 367.822,-61.0001 367.822,-68.0001"/>
</g>
<!-- Node4 -->
<g id="node5" class="node"><title>Node4</title>
<g id="a_node5"><a xlink:href="../../d0/de6/namespacemom__error__handler.html#ad5f00a53059c72fe2332d1436c80ca71" target="_top" xlink:title="mom_error_handler::\lis_root_pe">
<polygon fill="white" stroke="black" points="506,-49.5 506,-79.5 599,-79.5 599,-49.5 506,-49.5"/>
<text text-anchor="start" x="514" y="-67.5" font-family="Helvetica,sans-Serif" font-size="10.00">mom_error_handler::</text>
<text text-anchor="middle" x="552.5" y="-56.5" font-family="Helvetica,sans-Serif" font-size="10.00">is_root_pe</text>
</a>
</g>
</g>
<!-- Node3&#45;&gt;Node4 -->
<g id="edge4" class="edge"><title>Node3&#45;&gt;Node4</title>
<path fill="none" stroke="midnightblue" d="M470.312,-64.5C478.477,-64.5 487.077,-64.5 495.503,-64.5"/>
<polygon fill="midnightblue" stroke="midnightblue" points="495.653,-68.0001 505.653,-64.5 495.653,-61.0001 495.653,-68.0001"/>
</g>
</g>
</svg>
