<?xml version="1.0" encoding="UTF-8" standalone="no"?>
<!DOCTYPE svg PUBLIC "-//W3C//DTD SVG 1.1//EN"
 "http://www.w3.org/Graphics/SVG/1.1/DTD/svg11.dtd">
<!-- Generated by graphviz version 2.38.0 (20140413.2041)
 -->
<!-- Title: user_shelf_init::write_user_log Pages: 1 -->
<svg width="715pt" height="66pt"
 viewBox="0.00 0.00 715.00 66.00" xmlns="http://www.w3.org/2000/svg" xmlns:xlink="http://www.w3.org/1999/xlink">
<g id="graph0" class="graph" transform="scale(1 1) rotate(0) translate(4 62)">
<title>user_shelf_init::write_user_log</title>
<polygon fill="white" stroke="none" points="-4,4 -4,-62 711,-62 711,4 -4,4"/>
<!-- Node33 -->
<g id="node1" class="node"><title>Node33</title>
<polygon fill="#bfbfbf" stroke="black" points="0,-14 0,-44 89,-44 89,-14 0,-14"/>
<text text-anchor="start" x="8" y="-32" font-family="Helvetica,sans-Serif" font-size="10.00">user_shelf_init::write</text>
<text text-anchor="middle" x="44.5" y="-21" font-family="Helvetica,sans-Serif" font-size="10.00">_user_log</text>
</g>
<!-- Node34 -->
<g id="node2" class="node"><title>Node34</title>
<g id="a_node2"><a xlink:href="../../d7/df8/namespaceuser__shelf__init.html#a160ee7639522c12c10408f853ff4d897" target="_top" xlink:title="user_shelf_init::user\l_initialize_shelf_mass">
<polygon fill="white" stroke="black" points="125,-14 125,-44 217,-44 217,-14 125,-14"/>
<text text-anchor="start" x="133" y="-32" font-family="Helvetica,sans-Serif" font-size="10.00">user_shelf_init::user</text>
<text text-anchor="middle" x="171" y="-21" font-family="Helvetica,sans-Serif" font-size="10.00">_initialize_shelf_mass</text>
</a>
</g>
</g>
<!-- Node33&#45;&gt;Node34 -->
<g id="edge1" class="edge"><title>Node33&#45;&gt;Node34</title>
<path fill="none" stroke="midnightblue" d="M99.209,-29C107.665,-29 116.335,-29 124.579,-29"/>
<polygon fill="midnightblue" stroke="midnightblue" points="99.0441,-25.5001 89.0441,-29 99.044,-32.5001 99.0441,-25.5001"/>
</g>
<!-- Node35 -->
<g id="node3" class="node"><title>Node35</title>
<g id="a_node3"><a xlink:href="../../d7/df8/namespaceuser__shelf__init.html#a489d62c2d76eef329b9e5b17c63ccc66" target="_top" xlink:title="user_shelf_init::user\l_init_ice_thickness">
<polygon fill="white" stroke="black" points="253,-14 253,-44 341,-44 341,-14 253,-14"/>
<text text-anchor="start" x="261" y="-32" font-family="Helvetica,sans-Serif" font-size="10.00">user_shelf_init::user</text>
<text text-anchor="middle" x="297" y="-21" font-family="Helvetica,sans-Serif" font-size="10.00">_init_ice_thickness</text>
</a>
</g>
</g>
<!-- Node34&#45;&gt;Node35 -->
<g id="edge2" class="edge"><title>Node34&#45;&gt;Node35</title>
<path fill="none" stroke="midnightblue" d="M227.377,-29C235.893,-29 244.577,-29 252.778,-29"/>
<polygon fill="midnightblue" stroke="midnightblue" points="227.118,-25.5001 217.118,-29 227.118,-32.5001 227.118,-25.5001"/>
</g>
<!-- Node36 -->
<g id="node4" class="node"><title>Node36</title>
<g id="a_node4"><a xlink:href="../../d9/d5a/namespacemom__ice__shelf__initialize.html#ab040ec0f7f05b8b398ef9ae1cce704f9" target="_top" xlink:title="mom_ice_shelf_initialize\l::initialize_ice_thickness">
<polygon fill="white" stroke="black" points="377,-14 377,-44 478,-44 478,-14 377,-14"/>
<text text-anchor="start" x="385" y="-32" font-family="Helvetica,sans-Serif" font-size="10.00">mom_ice_shelf_initialize</text>
<text text-anchor="middle" x="427.5" y="-21" font-family="Helvetica,sans-Serif" font-size="10.00">::initialize_ice_thickness</text>
</a>
</g>
</g>
<!-- Node35&#45;&gt;Node36 -->
<g id="edge3" class="edge"><title>Node35&#45;&gt;Node36</title>
<path fill="none" stroke="midnightblue" d="M351.218,-29C359.614,-29 368.269,-29 376.586,-29"/>
<polygon fill="midnightblue" stroke="midnightblue" points="351.146,-25.5001 341.146,-29 351.146,-32.5001 351.146,-25.5001"/>
</g>
<!-- Node37 -->
<g id="node5" class="node"><title>Node37</title>
<g id="a_node5"><a xlink:href="../../df/da2/namespacemom__ice__shelf.html#ae315e8464ef8a20062e3bccb61886755" target="_top" xlink:title="mom_ice_shelf::initialize\l_ice_shelf">
<polygon fill="white" stroke="black" points="514,-14 514,-44 615,-44 615,-14 514,-14"/>
<text text-anchor="start" x="522" y="-32" font-family="Helvetica,sans-Serif" font-size="10.00">mom_ice_shelf::initialize</text>
<text text-anchor="middle" x="564.5" y="-21" font-family="Helvetica,sans-Serif" font-size="10.00">_ice_shelf</text>
</a>
</g>
</g>
<!-- Node36&#45;&gt;Node37 -->
<g id="edge4" class="edge"><title>Node36&#45;&gt;Node37</title>
<path fill="none" stroke="midnightblue" d="M488.207,-29C496.67,-29 505.299,-29 513.552,-29"/>
<polygon fill="midnightblue" stroke="midnightblue" points="488.002,-25.5001 478.002,-29 488.002,-32.5001 488.002,-25.5001"/>
</g>
<!-- Node38 -->
<g id="node6" class="node"><title>Node38</title>
<g id="a_node6"><a xlink:href="../../de/dbc/MOM__driver_8F90.html#a08fffeb2d8e8acbf9ed4609be6d258c6" target="_top" xlink:title="mom_main">
<polygon fill="white" stroke="black" points="651,-38.5 651,-57.5 707,-57.5 707,-38.5 651,-38.5"/>
<text text-anchor="middle" x="679" y="-45.5" font-family="Helvetica,sans-Serif" font-size="10.00">mom_main</text>
</a>
</g>
</g>
<!-- Node37&#45;&gt;Node38 -->
<g id="edge5" class="edge"><title>Node37&#45;&gt;Node38</title>
<path fill="none" stroke="midnightblue" d="M625.261,-39.093C634.196,-40.6019 643.012,-42.0909 650.803,-43.4067"/>
<polygon fill="midnightblue" stroke="midnightblue" points="625.615,-35.6032 615.172,-37.389 624.449,-42.5055 625.615,-35.6032"/>
</g>
<!-- Node39 -->
<g id="node7" class="node"><title>Node39</title>
<g id="a_node7"><a xlink:href="../../d5/d6d/ice__shelf__driver_8F90.html#aec5bef92f0dad343f545cd8d62e378d8" target="_top" xlink:title="shelf_main">
<polygon fill="white" stroke="black" points="651.5,-0.5 651.5,-19.5 706.5,-19.5 706.5,-0.5 651.5,-0.5"/>
<text text-anchor="middle" x="679" y="-7.5" font-family="Helvetica,sans-Serif" font-size="10.00">shelf_main</text>
</a>
</g>
</g>
<!-- Node37&#45;&gt;Node39 -->
<g id="edge6" class="edge"><title>Node37&#45;&gt;Node39</title>
<path fill="none" stroke="midnightblue" d="M625.161,-18.9239C634.367,-17.3692 643.45,-15.8352 651.419,-14.4892"/>
<polygon fill="midnightblue" stroke="midnightblue" points="624.449,-15.4945 615.172,-20.611 625.615,-22.3968 624.449,-15.4945"/>
</g>
</g>
</svg>
