<?xml version="1.0" encoding="UTF-8" standalone="no"?>
<!DOCTYPE svg PUBLIC "-//W3C//DTD SVG 1.1//EN"
 "http://www.w3.org/Graphics/SVG/1.1/DTD/svg11.dtd">
<!-- Generated by graphviz version 2.38.0 (20140413.2041)
 -->
<!-- Title: mom_neutral_diffusion::neutral_diffusion_diag_init Pages: 1 -->
<!--zoomable 585 -->
<svg id="main" version="1.1" xmlns="http://www.w3.org/2000/svg" xmlns:xlink="http://www.w3.org/1999/xlink" xml:space="preserve" onload="init(evt)">
<style type="text/css"><![CDATA[
.edge:hover path { stroke: red; }
.edge:hover polygon { stroke: red; fill: red; }
]]></style>
<script type="text/javascript"><![CDATA[
var edges = document.getElementsByTagName('g');
if (edges && edges.length) {
  for (var i=0;i<edges.length;i++) {
    if (edges[i].id.substr(0,4)=='edge') {
      edges[i].setAttribute('class','edge');
    }
  }
}
]]></script>
        <defs>
                <circle id="rim" cx="0" cy="0" r="7"/>
                <circle id="rim2" cx="0" cy="0" r="3.5"/>
                <g id="zoomPlus">
                        <use xlink:href="#rim" fill="#404040">
                                <set attributeName="fill" to="#808080" begin="zoomplus.mouseover" end="zoomplus.mouseout"/>
                        </use>
                        <path d="M-4,0h8M0,-4v8" fill="none" stroke="white" stroke-width="1.5" pointer-events="none"/>
                </g>
                <g id="zoomMin">
                        <use xlink:href="#rim" fill="#404040">
                                <set attributeName="fill" to="#808080" begin="zoomminus.mouseover" end="zoomminus.mouseout"/>
                        </use>
                        <path d="M-4,0h8" fill="none" stroke="white" stroke-width="1.5" pointer-events="none"/>
                </g>
                <g id="dirArrow">
                        <path fill="none" stroke="white" stroke-width="1.5" d="M0,-3.0v7 M-2.5,-0.5L0,-3.0L2.5,-0.5"/>
                </g>
               <g id="resetDef">
                       <use xlink:href="#rim2" fill="#404040">
                               <set attributeName="fill" to="#808080" begin="reset.mouseover" end="reset.mouseout"/>
                       </use>
               </g>
        </defs>

<script type="text/javascript">
var viewWidth = 772;
var viewHeight = 585;
var sectionId = 'dynsection-14';
</script>
<script xlink:href="../../svgpan.js"/>
<svg id="graph" class="graph">
<g id="viewport">
<title>mom_neutral_diffusion::neutral_diffusion_diag_init</title>
<polygon fill="white" stroke="none" points="-4,4 -4,-581 768,-581 768,4 -4,4"/>
<!-- Node104 -->
<g id="node1" class="node"><title>Node104</title>
<polygon fill="#bfbfbf" stroke="black" points="0,-294.5 0,-324.5 113,-324.5 113,-294.5 0,-294.5"/>
<text text-anchor="start" x="8" y="-312.5" font-family="Helvetica,sans-Serif" font-size="10.00">mom_neutral_diffusion</text>
<text text-anchor="middle" x="56.5" y="-301.5" font-family="Helvetica,sans-Serif" font-size="10.00">::neutral_diffusion_diag_init</text>
</g>
<!-- Node105 -->
<g id="node2" class="node"><title>Node105</title>
<g id="a_node2"><a xlink:href="../../d9/d06/namespacemom__diag__mediator.html#a3fd333aff691a76b05dd8d5bdc315bbb" target="_top" xlink:title="mom_diag_mediator::\lregister_diag_field">
<polygon fill="white" stroke="black" points="149,-294.5 149,-324.5 244,-324.5 244,-294.5 149,-294.5"/>
<text text-anchor="start" x="157" y="-312.5" font-family="Helvetica,sans-Serif" font-size="10.00">mom_diag_mediator::</text>
<text text-anchor="middle" x="196.5" y="-301.5" font-family="Helvetica,sans-Serif" font-size="10.00">register_diag_field</text>
</a>
</g>
</g>
<!-- Node104&#45;&gt;Node105 -->
<g id="edge1" class="edge"><title>Node104&#45;&gt;Node105</title>
<path fill="none" stroke="midnightblue" d="M113.232,-309.5C121.635,-309.5 130.31,-309.5 138.734,-309.5"/>
<polygon fill="midnightblue" stroke="midnightblue" points="138.85,-313 148.85,-309.5 138.85,-306 138.85,-313"/>
</g>
<!-- Node106 -->
<g id="node3" class="node"><title>Node106</title>
<g id="a_node3"><a xlink:href="../../d9/d06/namespacemom__diag__mediator.html#a1b0bed2113a0c268eafd1bafbb48bd4f" target="_top" xlink:title="mom_diag_mediator::\lalloc_diag_with_id">
<polygon fill="white" stroke="black" points="280,-546.5 280,-576.5 375,-576.5 375,-546.5 280,-546.5"/>
<text text-anchor="start" x="288" y="-564.5" font-family="Helvetica,sans-Serif" font-size="10.00">mom_diag_mediator::</text>
<text text-anchor="middle" x="327.5" y="-553.5" font-family="Helvetica,sans-Serif" font-size="10.00">alloc_diag_with_id</text>
</a>
</g>
</g>
<!-- Node105&#45;&gt;Node106 -->
<g id="edge2" class="edge"><title>Node105&#45;&gt;Node106</title>
<path fill="none" stroke="midnightblue" d="M199.733,-324.598C206.063,-362.961 227.208,-465.79 280,-531.5 282.501,-534.613 285.415,-537.506 288.543,-540.168"/>
<polygon fill="midnightblue" stroke="midnightblue" points="286.559,-543.056 296.644,-546.304 290.786,-537.476 286.559,-543.056"/>
</g>
<!-- Node107 -->
<g id="node4" class="node"><title>Node107</title>
<g id="a_node4"><a xlink:href="../../d9/d06/namespacemom__diag__mediator.html#a6e11afe7a97bf8e3333d33b0aebd6f6e" target="_top" xlink:title="mom_diag_mediator::\lassert">
<polygon fill="white" stroke="black" points="411,-409.5 411,-439.5 506,-439.5 506,-409.5 411,-409.5"/>
<text text-anchor="start" x="419" y="-427.5" font-family="Helvetica,sans-Serif" font-size="10.00">mom_diag_mediator::</text>
<text text-anchor="middle" x="458.5" y="-416.5" font-family="Helvetica,sans-Serif" font-size="10.00">assert</text>
</a>
</g>
</g>
<!-- Node105&#45;&gt;Node107 -->
<g id="edge3" class="edge"><title>Node105&#45;&gt;Node107</title>
<path fill="none" stroke="midnightblue" d="M215.488,-324.569C231.557,-337.42 256.174,-355.644 280,-367.5 318.67,-386.743 365.259,-401.413 401.002,-411.049"/>
<polygon fill="midnightblue" stroke="midnightblue" points="400.218,-414.462 410.78,-413.633 402.006,-407.694 400.218,-414.462"/>
</g>
<!-- Node108 -->
<g id="node5" class="node"><title>Node108</title>
<g id="a_node5"><a xlink:href="../../d0/de6/namespacemom__error__handler.html#a460cfb79a06c29fc249952c2a3710d67" target="_top" xlink:title="mom_error_handler::\lmom_error">
<polygon fill="white" stroke="black" points="542,-433.5 542,-463.5 635,-463.5 635,-433.5 542,-433.5"/>
<text text-anchor="start" x="550" y="-451.5" font-family="Helvetica,sans-Serif" font-size="10.00">mom_error_handler::</text>
<text text-anchor="middle" x="588.5" y="-440.5" font-family="Helvetica,sans-Serif" font-size="10.00">mom_error</text>
</a>
</g>
</g>
<!-- Node105&#45;&gt;Node108 -->
<g id="edge17" class="edge"><title>Node105&#45;&gt;Node108</title>
<path fill="none" stroke="midnightblue" d="M199.577,-324.694C205.252,-359.74 224.488,-446.23 280,-485.5 362.136,-543.604 409.174,-525.834 506,-498.5 526.032,-492.845 545.993,-480.734 561.147,-469.848"/>
<polygon fill="midnightblue" stroke="midnightblue" points="563.552,-472.421 569.478,-463.639 559.368,-466.809 563.552,-472.421"/>
</g>
<!-- Node109 -->
<g id="node6" class="node"><title>Node109</title>
<g id="a_node6"><a xlink:href="../../d0/de6/namespacemom__error__handler.html#ad5f00a53059c72fe2332d1436c80ca71" target="_top" xlink:title="mom_error_handler::\lis_root_pe">
<polygon fill="white" stroke="black" points="671,-385.5 671,-415.5 764,-415.5 764,-385.5 671,-385.5"/>
<text text-anchor="start" x="679" y="-403.5" font-family="Helvetica,sans-Serif" font-size="10.00">mom_error_handler::</text>
<text text-anchor="middle" x="717.5" y="-392.5" font-family="Helvetica,sans-Serif" font-size="10.00">is_root_pe</text>
</a>
</g>
</g>
<!-- Node105&#45;&gt;Node109 -->
<g id="edge12" class="edge"><title>Node105&#45;&gt;Node109</title>
<path fill="none" stroke="midnightblue" d="M243.006,-324.571C254.951,-328.173 267.883,-331.763 280,-334.5 415.279,-365.057 577.404,-385.391 660.834,-394.688"/>
<polygon fill="midnightblue" stroke="midnightblue" points="660.531,-398.175 670.855,-395.793 661.299,-391.218 660.531,-398.175"/>
</g>
<!-- Node110 -->
<g id="node7" class="node"><title>Node110</title>
<g id="a_node7"><a xlink:href="../../d9/d06/namespacemom__diag__mediator.html#a93abbf0b9659019bed9a2129ab292752" target="_top" xlink:title="Attaches &quot;cell_methods&quot; attribute to a variable based on defaults for axes_grp or optional arguments...">
<polygon fill="white" stroke="black" points="411,-458.5 411,-488.5 506,-488.5 506,-458.5 411,-458.5"/>
<text text-anchor="start" x="419" y="-476.5" font-family="Helvetica,sans-Serif" font-size="10.00">mom_diag_mediator::</text>
<text text-anchor="middle" x="458.5" y="-465.5" font-family="Helvetica,sans-Serif" font-size="10.00">attach_cell_methods</text>
</a>
</g>
</g>
<!-- Node105&#45;&gt;Node110 -->
<g id="edge6" class="edge"><title>Node105&#45;&gt;Node110</title>
<path fill="none" stroke="midnightblue" d="M200.741,-324.789C208.336,-356.399 230.516,-428.647 280,-460.5 315.385,-483.277 363.359,-485.499 400.511,-482.589"/>
<polygon fill="midnightblue" stroke="midnightblue" points="401.05,-486.054 410.684,-481.645 400.403,-479.084 401.05,-486.054"/>
</g>
<!-- Node111 -->
<g id="node8" class="node"><title>Node111</title>
<g id="a_node8"><a xlink:href="../../d9/d06/namespacemom__diag__mediator.html#a3f7442639213320f7429e2288a79fda2" target="_top" xlink:title="mom_diag_mediator::\lget_new_diag_id">
<polygon fill="white" stroke="black" points="280,-420.5 280,-450.5 375,-450.5 375,-420.5 280,-420.5"/>
<text text-anchor="start" x="288" y="-438.5" font-family="Helvetica,sans-Serif" font-size="10.00">mom_diag_mediator::</text>
<text text-anchor="middle" x="327.5" y="-427.5" font-family="Helvetica,sans-Serif" font-size="10.00">get_new_diag_id</text>
</a>
</g>
</g>
<!-- Node105&#45;&gt;Node111 -->
<g id="edge8" class="edge"><title>Node105&#45;&gt;Node111</title>
<path fill="none" stroke="midnightblue" d="M208.344,-324.661C223.102,-344.649 251.01,-380.231 280,-405.5 283.612,-408.648 287.582,-411.709 291.632,-414.596"/>
<polygon fill="midnightblue" stroke="midnightblue" points="289.732,-417.536 299.972,-420.251 293.66,-411.742 289.732,-417.536"/>
</g>
<!-- Node112 -->
<g id="node9" class="node"><title>Node112</title>
<g id="a_node9"><a xlink:href="../../d9/d06/namespacemom__diag__mediator.html#a4b739f107cebe1ece8d29056c1144bff" target="_top" xlink:title="mom_diag_mediator::\lis_b_axes">
<polygon fill="white" stroke="black" points="280,-294.5 280,-324.5 375,-324.5 375,-294.5 280,-294.5"/>
<text text-anchor="start" x="288" y="-312.5" font-family="Helvetica,sans-Serif" font-size="10.00">mom_diag_mediator::</text>
<text text-anchor="middle" x="327.5" y="-301.5" font-family="Helvetica,sans-Serif" font-size="10.00">is_b_axes</text>
</a>
</g>
</g>
<!-- Node105&#45;&gt;Node112 -->
<g id="edge10" class="edge"><title>Node105&#45;&gt;Node112</title>
<path fill="none" stroke="midnightblue" d="M244.072,-309.5C252.475,-309.5 261.319,-309.5 269.969,-309.5"/>
<polygon fill="midnightblue" stroke="midnightblue" points="269.996,-313 279.996,-309.5 269.996,-306 269.996,-313"/>
</g>
<!-- Node113 -->
<g id="node10" class="node"><title>Node113</title>
<g id="a_node10"><a xlink:href="../../d9/d06/namespacemom__diag__mediator.html#a84370fa96e03622edbfd5e343bcd9718" target="_top" xlink:title="mom_diag_mediator::\lis_layer_axes">
<polygon fill="white" stroke="black" points="280,-245.5 280,-275.5 375,-275.5 375,-245.5 280,-245.5"/>
<text text-anchor="start" x="288" y="-263.5" font-family="Helvetica,sans-Serif" font-size="10.00">mom_diag_mediator::</text>
<text text-anchor="middle" x="327.5" y="-252.5" font-family="Helvetica,sans-Serif" font-size="10.00">is_layer_axes</text>
</a>
</g>
</g>
<!-- Node105&#45;&gt;Node113 -->
<g id="edge11" class="edge"><title>Node105&#45;&gt;Node113</title>
<path fill="none" stroke="midnightblue" d="M237.257,-294.399C249.886,-289.601 264.007,-284.238 277.223,-279.218"/>
<polygon fill="midnightblue" stroke="midnightblue" points="278.547,-282.459 286.652,-275.636 276.061,-275.915 278.547,-282.459"/>
</g>
<!-- Node114 -->
<g id="node11" class="node"><title>Node114</title>
<g id="a_node11"><a xlink:href="../../d9/d06/namespacemom__diag__mediator.html#a27fa63c9ff62b660bf457adbb8645bdf" target="_top" xlink:title="mom_diag_mediator::\lis_u_axes">
<polygon fill="white" stroke="black" points="280,-196.5 280,-226.5 375,-226.5 375,-196.5 280,-196.5"/>
<text text-anchor="start" x="288" y="-214.5" font-family="Helvetica,sans-Serif" font-size="10.00">mom_diag_mediator::</text>
<text text-anchor="middle" x="327.5" y="-203.5" font-family="Helvetica,sans-Serif" font-size="10.00">is_u_axes</text>
</a>
</g>
</g>
<!-- Node105&#45;&gt;Node114 -->
<g id="edge13" class="edge"><title>Node105&#45;&gt;Node114</title>
<path fill="none" stroke="midnightblue" d="M212.421,-294.368C228.298,-278.746 254.585,-254.219 280,-236.5 282.171,-234.986 284.444,-233.496 286.768,-232.043"/>
<polygon fill="midnightblue" stroke="midnightblue" points="289.054,-234.758 295.879,-226.654 285.49,-228.733 289.054,-234.758"/>
</g>
<!-- Node115 -->
<g id="node12" class="node"><title>Node115</title>
<g id="a_node12"><a xlink:href="../../d9/d06/namespacemom__diag__mediator.html#a9a30d653d812713d6fcff94f6f1fc3e6" target="_top" xlink:title="mom_diag_mediator::\lis_v_axes">
<polygon fill="white" stroke="black" points="280,-147.5 280,-177.5 375,-177.5 375,-147.5 280,-147.5"/>
<text text-anchor="start" x="288" y="-165.5" font-family="Helvetica,sans-Serif" font-size="10.00">mom_diag_mediator::</text>
<text text-anchor="middle" x="327.5" y="-154.5" font-family="Helvetica,sans-Serif" font-size="10.00">is_v_axes</text>
</a>
</g>
</g>
<!-- Node105&#45;&gt;Node115 -->
<g id="edge14" class="edge"><title>Node105&#45;&gt;Node115</title>
<path fill="none" stroke="midnightblue" d="M204.717,-294.275C217.151,-269.339 244.712,-219.383 280,-187.5 281.658,-186.002 283.421,-184.563 285.256,-183.185"/>
<polygon fill="midnightblue" stroke="midnightblue" points="287.3,-186.028 293.641,-177.54 283.391,-180.221 287.3,-186.028"/>
</g>
<!-- Node116 -->
<g id="node13" class="node"><title>Node116</title>
<g id="a_node13"><a xlink:href="../../d9/d06/namespacemom__diag__mediator.html#a65fe8d329cf5dbfd08c98874a7a64407" target="_top" xlink:title="Log a diagnostic to the available diagnostics file. ">
<polygon fill="white" stroke="black" points="280,-98.5 280,-128.5 375,-128.5 375,-98.5 280,-98.5"/>
<text text-anchor="start" x="288" y="-116.5" font-family="Helvetica,sans-Serif" font-size="10.00">mom_diag_mediator::</text>
<text text-anchor="middle" x="327.5" y="-105.5" font-family="Helvetica,sans-Serif" font-size="10.00">log_available_diag</text>
</a>
</g>
</g>
<!-- Node105&#45;&gt;Node116 -->
<g id="edge15" class="edge"><title>Node105&#45;&gt;Node116</title>
<path fill="none" stroke="midnightblue" d="M201.336,-294.405C210.199,-262.157 234.872,-185.648 280,-138.5 281.22,-137.225 282.519,-136.001 283.88,-134.827"/>
<polygon fill="midnightblue" stroke="midnightblue" points="286.261,-137.418 292.2,-128.645 282.086,-131.799 286.261,-137.418"/>
</g>
<!-- Node118 -->
<g id="node15" class="node"><title>Node118</title>
<g id="a_node15"><a xlink:href="../../d9/d06/namespacemom__diag__mediator.html#a085f313357879a914af6450f2ab8ec79" target="_top" xlink:title="mom_diag_mediator::\lset_diag_mask">
<polygon fill="white" stroke="black" points="280,-49.5 280,-79.5 375,-79.5 375,-49.5 280,-49.5"/>
<text text-anchor="start" x="288" y="-67.5" font-family="Helvetica,sans-Serif" font-size="10.00">mom_diag_mediator::</text>
<text text-anchor="middle" x="327.5" y="-56.5" font-family="Helvetica,sans-Serif" font-size="10.00">set_diag_mask</text>
</a>
</g>
</g>
<!-- Node105&#45;&gt;Node118 -->
<g id="edge18" class="edge"><title>Node105&#45;&gt;Node118</title>
<path fill="none" stroke="midnightblue" d="M199.467,-294.282C205.174,-255.665 224.978,-152.471 280,-89.5 281.018,-88.3353 282.103,-87.2155 283.243,-86.1397"/>
<polygon fill="midnightblue" stroke="midnightblue" points="285.748,-88.621 291.417,-79.6704 281.404,-83.1321 285.748,-88.621"/>
</g>
<!-- Node119 -->
<g id="node16" class="node"><title>Node119</title>
<g id="a_node16"><a xlink:href="../../d9/d06/namespacemom__diag__mediator.html#a5d1e1aa53cdd6bb335a6f841eded4f46" target="_top" xlink:title="mom_diag_mediator::\lset_diag_remap_axes">
<polygon fill="white" stroke="black" points="280,-0.5 280,-30.5 375,-30.5 375,-0.5 280,-0.5"/>
<text text-anchor="start" x="288" y="-18.5" font-family="Helvetica,sans-Serif" font-size="10.00">mom_diag_mediator::</text>
<text text-anchor="middle" x="327.5" y="-7.5" font-family="Helvetica,sans-Serif" font-size="10.00">set_diag_remap_axes</text>
</a>
</g>
</g>
<!-- Node105&#45;&gt;Node119 -->
<g id="edge19" class="edge"><title>Node105&#45;&gt;Node119</title>
<path fill="none" stroke="midnightblue" d="M198.228,-294.244C201.089,-250.003 214.898,-119.776 280,-40.5 280.945,-39.349 281.958,-38.2433 283.025,-37.1819"/>
<polygon fill="midnightblue" stroke="midnightblue" points="285.26,-39.876 290.739,-30.8077 280.801,-34.4801 285.26,-39.876"/>
</g>
<!-- Node107&#45;&gt;Node108 -->
<g id="edge4" class="edge"><title>Node107&#45;&gt;Node108</title>
<path fill="none" stroke="midnightblue" d="M506.073,-433.232C514.396,-434.793 523.145,-436.433 531.695,-438.037"/>
<polygon fill="midnightblue" stroke="midnightblue" points="531.13,-441.492 541.604,-439.895 532.42,-434.611 531.13,-441.492"/>
</g>
<!-- Node108&#45;&gt;Node109 -->
<g id="edge5" class="edge"><title>Node108&#45;&gt;Node109</title>
<path fill="none" stroke="midnightblue" d="M629.335,-433.444C641.392,-428.887 654.778,-423.828 667.368,-419.069"/>
<polygon fill="midnightblue" stroke="midnightblue" points="668.689,-422.312 676.806,-415.502 666.215,-415.764 668.689,-422.312"/>
</g>
<!-- Node110&#45;&gt;Node108 -->
<g id="edge7" class="edge"><title>Node110&#45;&gt;Node108</title>
<path fill="none" stroke="midnightblue" d="M506.073,-464.404C514.396,-462.778 523.145,-461.069 531.695,-459.399"/>
<polygon fill="midnightblue" stroke="midnightblue" points="532.46,-462.816 541.604,-457.464 531.119,-455.946 532.46,-462.816"/>
</g>
<!-- Node111&#45;&gt;Node107 -->
<g id="edge9" class="edge"><title>Node111&#45;&gt;Node107</title>
<path fill="none" stroke="midnightblue" d="M375.072,-431.529C383.475,-430.812 392.319,-430.058 400.969,-429.32"/>
<polygon fill="midnightblue" stroke="midnightblue" points="401.33,-432.802 410.996,-428.465 400.735,-425.828 401.33,-432.802"/>
</g>
<!-- Node117 -->
<g id="node14" class="node"><title>Node117</title>
<g id="a_node14"><a xlink:href="../../d9/d06/namespacemom__diag__mediator.html#ae002ca447acba252bf7bdc042e75a01e" target="_top" xlink:title="mom_diag_mediator::\ldescribe_option">
<polygon fill="white" stroke="black" points="411,-98.5 411,-128.5 506,-128.5 506,-98.5 411,-98.5"/>
<text text-anchor="start" x="419" y="-116.5" font-family="Helvetica,sans-Serif" font-size="10.00">mom_diag_mediator::</text>
<text text-anchor="middle" x="458.5" y="-105.5" font-family="Helvetica,sans-Serif" font-size="10.00">describe_option</text>
</a>
</g>
</g>
<!-- Node116&#45;&gt;Node117 -->
<g id="edge16" class="edge"><title>Node116&#45;&gt;Node117</title>
<path fill="none" stroke="midnightblue" d="M375.072,-113.5C383.475,-113.5 392.319,-113.5 400.969,-113.5"/>
<polygon fill="midnightblue" stroke="midnightblue" points="400.996,-117 410.996,-113.5 400.996,-110 400.996,-117"/>
</g>
</g>
</svg>
        <g id="navigator" transform="translate(0 0)" fill="#404254">
                <rect fill="#f2f5e9" fill-opacity="0.5" stroke="#606060" stroke-width=".5" x="0" y="0" width="60" height="60"/>
                <use id="zoomplus" xlink:href="#zoomPlus" x="17" y="9" onmousedown="handleZoom(evt,'in')"/>
                <use id="zoomminus" xlink:href="#zoomMin" x="42" y="9" onmousedown="handleZoom(evt,'out')"/>
                <use id="reset" xlink:href="#resetDef" x="30" y="36" onmousedown="handleReset()"/>
                <g id="arrowUp" xlink:href="#dirArrow" transform="translate(30 24)" onmousedown="handlePan(0,-1)">
                  <use xlink:href="#rim" fill="#404040">
                        <set attributeName="fill" to="#808080" begin="arrowUp.mouseover" end="arrowUp.mouseout"/>
                  </use>
                  <path fill="none" stroke="white" stroke-width="1.5" d="M0,-3.0v7 M-2.5,-0.5L0,-3.0L2.5,-0.5"/>
                </g>
                <g id="arrowRight" xlink:href="#dirArrow" transform="rotate(90) translate(36 -43)" onmousedown="handlePan(1,0)">
                  <use xlink:href="#rim" fill="#404040">
                        <set attributeName="fill" to="#808080" begin="arrowRight.mouseover" end="arrowRight.mouseout"/>
                  </use>
                  <path fill="none" stroke="white" stroke-width="1.5" d="M0,-3.0v7 M-2.5,-0.5L0,-3.0L2.5,-0.5"/>
                </g>
                <g id="arrowDown" xlink:href="#dirArrow" transform="rotate(180) translate(-30 -48)" onmousedown="handlePan(0,1)">
                  <use xlink:href="#rim" fill="#404040">
                        <set attributeName="fill" to="#808080" begin="arrowDown.mouseover" end="arrowDown.mouseout"/>
                  </use>
                  <path fill="none" stroke="white" stroke-width="1.5" d="M0,-3.0v7 M-2.5,-0.5L0,-3.0L2.5,-0.5"/>
                </g>
                <g id="arrowLeft" xlink:href="#dirArrow" transform="rotate(270) translate(-36 17)" onmousedown="handlePan(-1,0)">
                  <use xlink:href="#rim" fill="#404040">
                        <set attributeName="fill" to="#808080" begin="arrowLeft.mouseover" end="arrowLeft.mouseout"/>
                  </use>
                  <path fill="none" stroke="white" stroke-width="1.5" d="M0,-3.0v7 M-2.5,-0.5L0,-3.0L2.5,-0.5"/>
                </g>
        </g>
        <svg viewBox="0 0 15 15" width="100%" height="30px" preserveAspectRatio="xMaxYMin meet">
         <g id="arrow_out" transform="scale(0.3 0.3)">
          <a xlink:href="namespacemom__neutral__diffusion_a87cf821c52ac1111493d4168f0a91d17_cgraph_org.svg" target="_base">
           <rect id="button" ry="5" rx="5" y="6" x="6" height="38" width="38"
                fill="#f2f5e9" fill-opacity="0.5" stroke="#606060" stroke-width="1.0"/>
           <path id="arrow"
             d="M 11.500037,31.436501 C 11.940474,20.09759 22.043105,11.32322 32.158766,21.979434 L 37.068811,17.246167 C 37.068811,17.246167 37.088388,32 37.088388,32 L 22.160133,31.978069 C 22.160133,31.978069 26.997745,27.140456 26.997745,27.140456 C 18.528582,18.264221 13.291696,25.230495 11.500037,31.436501 z"
             style="fill:#404040;"/>
          </a>
         </g>
        </svg>
</svg>
