<?xml version="1.0" encoding="UTF-8" standalone="no"?>
<!DOCTYPE svg PUBLIC "-//W3C//DTD SVG 1.1//EN"
 "http://www.w3.org/Graphics/SVG/1.1/DTD/svg11.dtd">
<!-- Generated by graphviz version 2.38.0 (20140413.2041)
 -->
<!-- Title: mom_neutral_diffusion::ppm_ave Pages: 1 -->
<!--zoomable 88 -->
<svg id="main" version="1.1" xmlns="http://www.w3.org/2000/svg" xmlns:xlink="http://www.w3.org/1999/xlink" xml:space="preserve" onload="init(evt)">
<style type="text/css"><![CDATA[
.edge:hover path { stroke: red; }
.edge:hover polygon { stroke: red; fill: red; }
]]></style>
<script type="text/javascript"><![CDATA[
var edges = document.getElementsByTagName('g');
if (edges && edges.length) {
  for (var i=0;i<edges.length;i++) {
    if (edges[i].id.substr(0,4)=='edge') {
      edges[i].setAttribute('class','edge');
    }
  }
}
]]></script>
        <defs>
                <circle id="rim" cx="0" cy="0" r="7"/>
                <circle id="rim2" cx="0" cy="0" r="3.5"/>
                <g id="zoomPlus">
                        <use xlink:href="#rim" fill="#404040">
                                <set attributeName="fill" to="#808080" begin="zoomplus.mouseover" end="zoomplus.mouseout"/>
                        </use>
                        <path d="M-4,0h8M0,-4v8" fill="none" stroke="white" stroke-width="1.5" pointer-events="none"/>
                </g>
                <g id="zoomMin">
                        <use xlink:href="#rim" fill="#404040">
                                <set attributeName="fill" to="#808080" begin="zoomminus.mouseover" end="zoomminus.mouseout"/>
                        </use>
                        <path d="M-4,0h8" fill="none" stroke="white" stroke-width="1.5" pointer-events="none"/>
                </g>
                <g id="dirArrow">
                        <path fill="none" stroke="white" stroke-width="1.5" d="M0,-3.0v7 M-2.5,-0.5L0,-3.0L2.5,-0.5"/>
                </g>
               <g id="resetDef">
                       <use xlink:href="#rim2" fill="#404040">
                               <set attributeName="fill" to="#808080" begin="reset.mouseover" end="reset.mouseout"/>
                       </use>
               </g>
        </defs>

<script type="text/javascript">
var viewWidth = 725;
var viewHeight = 88;
var sectionId = 'dynsection-22';
</script>
<script xlink:href="../../svgpan.js"/>
<svg id="graph" class="graph">
<g id="viewport">
<title>mom_neutral_diffusion::ppm_ave</title>
<polygon fill="white" stroke="none" points="-4,4 -4,-84 721,-84 721,4 -4,4"/>
<!-- Node178 -->
<g id="node1" class="node"><title>Node178</title>
<polygon fill="#bfbfbf" stroke="black" points="0,-24.5 0,-54.5 98,-54.5 98,-24.5 0,-24.5"/>
<text text-anchor="start" x="8" y="-42.5" font-family="Helvetica,sans-Serif" font-size="10.00">mom_neutral_diffusion</text>
<text text-anchor="middle" x="49" y="-31.5" font-family="Helvetica,sans-Serif" font-size="10.00">::ppm_ave</text>
</g>
<!-- Node179 -->
<g id="node2" class="node"><title>Node179</title>
<g id="a_node2"><a xlink:href="../../d8/da4/namespacemom__neutral__diffusion.html#a626e0189b03bbbf36c33cfa52e4f098d" target="_top" xlink:title="Returns a single column of neutral diffusion fluxes of a tracer. ">
<polygon fill="white" stroke="black" points="134,-24.5 134,-54.5 232,-54.5 232,-24.5 134,-24.5"/>
<text text-anchor="start" x="142" y="-42.5" font-family="Helvetica,sans-Serif" font-size="10.00">mom_neutral_diffusion</text>
<text text-anchor="middle" x="183" y="-31.5" font-family="Helvetica,sans-Serif" font-size="10.00">::neutral_surface_flux</text>
</a>
</g>
</g>
<!-- Node178&#45;&gt;Node179 -->
<g id="edge1" class="edge"><title>Node178&#45;&gt;Node179</title>
<path fill="none" stroke="midnightblue" d="M108.292,-39.5C116.809,-39.5 125.5,-39.5 133.786,-39.5"/>
<polygon fill="midnightblue" stroke="midnightblue" points="108.028,-36.0001 98.0284,-39.5 108.028,-43.0001 108.028,-36.0001"/>
</g>
<!-- Node180 -->
<g id="node3" class="node"><title>Node180</title>
<g id="a_node3"><a xlink:href="../../d8/da4/namespacemom__neutral__diffusion.html#a0aa7d320b2d623791e7de7d879930a64" target="_top" xlink:title="Update tracer concentration due to neutral diffusion; layer thickness unchanged by this update...">
<polygon fill="white" stroke="black" points="271,-49.5 271,-79.5 369,-79.5 369,-49.5 271,-49.5"/>
<text text-anchor="start" x="279" y="-67.5" font-family="Helvetica,sans-Serif" font-size="10.00">mom_neutral_diffusion</text>
<text text-anchor="middle" x="320" y="-56.5" font-family="Helvetica,sans-Serif" font-size="10.00">::neutral_diffusion</text>
</a>
</g>
</g>
<!-- Node179&#45;&gt;Node180 -->
<g id="edge2" class="edge"><title>Node179&#45;&gt;Node180</title>
<path fill="none" stroke="midnightblue" d="M242.229,-50.2832C251.824,-52.0599 261.672,-53.8838 270.981,-55.6076"/>
<polygon fill="midnightblue" stroke="midnightblue" points="242.827,-46.8344 232.357,-48.455 241.552,-53.7174 242.827,-46.8344"/>
</g>
<!-- Node182 -->
<g id="node5" class="node"><title>Node182</title>
<g id="a_node5"><a xlink:href="../../d8/da4/namespacemom__neutral__diffusion.html#a72c160fad7066e2837db730c717a9ad1" target="_top" xlink:title="Returns true if unit tests of neutral_diffusion functions fail. Otherwise returns false...">
<polygon fill="white" stroke="black" points="268,-0.5 268,-30.5 372,-30.5 372,-0.5 268,-0.5"/>
<text text-anchor="start" x="276" y="-18.5" font-family="Helvetica,sans-Serif" font-size="10.00">mom_neutral_diffusion</text>
<text text-anchor="middle" x="320" y="-7.5" font-family="Helvetica,sans-Serif" font-size="10.00">::neutraldiffusionunittests</text>
</a>
</g>
</g>
<!-- Node179&#45;&gt;Node182 -->
<g id="edge4" class="edge"><title>Node179&#45;&gt;Node182</title>
<path fill="none" stroke="midnightblue" d="M242.218,-29.1501C250.726,-27.6376 259.434,-26.0895 267.788,-24.6044"/>
<polygon fill="midnightblue" stroke="midnightblue" points="241.59,-25.7069 232.357,-30.9032 242.815,-32.5988 241.59,-25.7069"/>
</g>
<!-- Node181 -->
<g id="node4" class="node"><title>Node181</title>
<g id="a_node4"><a xlink:href="../../da/db2/namespacemom__tracer__hor__diff.html#ae8eba26c164a4e8e4ba1008cda9850e6" target="_top" xlink:title="Compute along&#45;coordinate diffusion of all tracers using the diffusivity in CSKhTr, or using space&#45;dependent diffusivity. Multiple iterations are used (if necessary) so that there is no limit on the acceptable time increment. ">
<polygon fill="white" stroke="black" points="408,-49.5 408,-79.5 500,-79.5 500,-49.5 408,-49.5"/>
<text text-anchor="start" x="416" y="-67.5" font-family="Helvetica,sans-Serif" font-size="10.00">mom_tracer_hor_diff</text>
<text text-anchor="middle" x="454" y="-56.5" font-family="Helvetica,sans-Serif" font-size="10.00">::tracer_hordiff</text>
</a>
</g>
</g>
<!-- Node180&#45;&gt;Node181 -->
<g id="edge3" class="edge"><title>Node180&#45;&gt;Node181</title>
<path fill="none" stroke="midnightblue" d="M379.296,-64.5C388.873,-64.5 398.67,-64.5 407.864,-64.5"/>
<polygon fill="midnightblue" stroke="midnightblue" points="379.028,-61.0001 369.028,-64.5 379.028,-68.0001 379.028,-61.0001"/>
</g>
<!-- Node183 -->
<g id="node6" class="node"><title>Node183</title>
<g id="a_node6"><a xlink:href="../../da/d01/namespacemom.html#a6cfc2cd88d60f051fe90e68c2f16b46b" target="_top" xlink:title="This s/r calls unit tests for other modules. These are NOT normally invoked and so we provide the mod...">
<polygon fill="white" stroke="black" points="420,-6 420,-25 488,-25 488,-6 420,-6"/>
<text text-anchor="middle" x="454" y="-13" font-family="Helvetica,sans-Serif" font-size="10.00">mom::unittests</text>
</a>
</g>
</g>
<!-- Node182&#45;&gt;Node183 -->
<g id="edge5" class="edge"><title>Node182&#45;&gt;Node183</title>
<path fill="none" stroke="midnightblue" d="M382.262,-15.5C395.125,-15.5 408.23,-15.5 419.608,-15.5"/>
<polygon fill="midnightblue" stroke="midnightblue" points="382.035,-12.0001 372.035,-15.5 382.035,-19.0001 382.035,-12.0001"/>
</g>
<!-- Node184 -->
<g id="node7" class="node"><title>Node184</title>
<g id="a_node7"><a xlink:href="../../da/d01/namespacemom.html#afebdc0103ad9cbe0ed4a54e522dc4104" target="_top" xlink:title="This subroutine initializes MOM. ">
<polygon fill="white" stroke="black" points="536,-6 536,-25 625,-25 625,-6 536,-6"/>
<text text-anchor="middle" x="580.5" y="-13" font-family="Helvetica,sans-Serif" font-size="10.00">mom::initialize_mom</text>
</a>
</g>
</g>
<!-- Node183&#45;&gt;Node184 -->
<g id="edge6" class="edge"><title>Node183&#45;&gt;Node184</title>
<path fill="none" stroke="midnightblue" d="M498.405,-15.5C510.574,-15.5 523.805,-15.5 535.981,-15.5"/>
<polygon fill="midnightblue" stroke="midnightblue" points="498.037,-12.0001 488.037,-15.5 498.037,-19.0001 498.037,-12.0001"/>
</g>
<!-- Node185 -->
<g id="node8" class="node"><title>Node185</title>
<g id="a_node8"><a xlink:href="../../de/dbc/MOM__driver_8F90.html#a08fffeb2d8e8acbf9ed4609be6d258c6" target="_top" xlink:title="mom_main">
<polygon fill="white" stroke="black" points="661,-6 661,-25 717,-25 717,-6 661,-6"/>
<text text-anchor="middle" x="689" y="-13" font-family="Helvetica,sans-Serif" font-size="10.00">mom_main</text>
</a>
</g>
</g>
<!-- Node184&#45;&gt;Node185 -->
<g id="edge7" class="edge"><title>Node184&#45;&gt;Node185</title>
<path fill="none" stroke="midnightblue" d="M635.407,-15.5C644.206,-15.5 652.981,-15.5 660.771,-15.5"/>
<polygon fill="midnightblue" stroke="midnightblue" points="635.125,-12.0001 625.125,-15.5 635.125,-19.0001 635.125,-12.0001"/>
</g>
</g>
</svg>
        <g id="navigator" transform="translate(0 0)" fill="#404254">
                <rect fill="#f2f5e9" fill-opacity="0.5" stroke="#606060" stroke-width=".5" x="0" y="0" width="60" height="60"/>
                <use id="zoomplus" xlink:href="#zoomPlus" x="17" y="9" onmousedown="handleZoom(evt,'in')"/>
                <use id="zoomminus" xlink:href="#zoomMin" x="42" y="9" onmousedown="handleZoom(evt,'out')"/>
                <use id="reset" xlink:href="#resetDef" x="30" y="36" onmousedown="handleReset()"/>
                <g id="arrowUp" xlink:href="#dirArrow" transform="translate(30 24)" onmousedown="handlePan(0,-1)">
                  <use xlink:href="#rim" fill="#404040">
                        <set attributeName="fill" to="#808080" begin="arrowUp.mouseover" end="arrowUp.mouseout"/>
                  </use>
                  <path fill="none" stroke="white" stroke-width="1.5" d="M0,-3.0v7 M-2.5,-0.5L0,-3.0L2.5,-0.5"/>
                </g>
                <g id="arrowRight" xlink:href="#dirArrow" transform="rotate(90) translate(36 -43)" onmousedown="handlePan(1,0)">
                  <use xlink:href="#rim" fill="#404040">
                        <set attributeName="fill" to="#808080" begin="arrowRight.mouseover" end="arrowRight.mouseout"/>
                  </use>
                  <path fill="none" stroke="white" stroke-width="1.5" d="M0,-3.0v7 M-2.5,-0.5L0,-3.0L2.5,-0.5"/>
                </g>
                <g id="arrowDown" xlink:href="#dirArrow" transform="rotate(180) translate(-30 -48)" onmousedown="handlePan(0,1)">
                  <use xlink:href="#rim" fill="#404040">
                        <set attributeName="fill" to="#808080" begin="arrowDown.mouseover" end="arrowDown.mouseout"/>
                  </use>
                  <path fill="none" stroke="white" stroke-width="1.5" d="M0,-3.0v7 M-2.5,-0.5L0,-3.0L2.5,-0.5"/>
                </g>
                <g id="arrowLeft" xlink:href="#dirArrow" transform="rotate(270) translate(-36 17)" onmousedown="handlePan(-1,0)">
                  <use xlink:href="#rim" fill="#404040">
                        <set attributeName="fill" to="#808080" begin="arrowLeft.mouseover" end="arrowLeft.mouseout"/>
                  </use>
                  <path fill="none" stroke="white" stroke-width="1.5" d="M0,-3.0v7 M-2.5,-0.5L0,-3.0L2.5,-0.5"/>
                </g>
        </g>
        <svg viewBox="0 0 15 15" width="100%" height="30px" preserveAspectRatio="xMaxYMin meet">
         <g id="arrow_out" transform="scale(0.3 0.3)">
          <a xlink:href="namespacemom__neutral__diffusion_a6931d9a07d09aa5d76d5abd2e47a54df_icgraph_org.svg" target="_base">
           <rect id="button" ry="5" rx="5" y="6" x="6" height="38" width="38"
                fill="#f2f5e9" fill-opacity="0.5" stroke="#606060" stroke-width="1.0"/>
           <path id="arrow"
             d="M 11.500037,31.436501 C 11.940474,20.09759 22.043105,11.32322 32.158766,21.979434 L 37.068811,17.246167 C 37.068811,17.246167 37.088388,32 37.088388,32 L 22.160133,31.978069 C 22.160133,31.978069 26.997745,27.140456 26.997745,27.140456 C 18.528582,18.264221 13.291696,25.230495 11.500037,31.436501 z"
             style="fill:#404040;"/>
          </a>
         </g>
        </svg>
</svg>
