<?xml version="1.0" encoding="UTF-8" standalone="no"?>
<!DOCTYPE svg PUBLIC "-//W3C//DTD SVG 1.1//EN"
 "http://www.w3.org/Graphics/SVG/1.1/DTD/svg11.dtd">
<!-- Generated by graphviz version 2.38.0 (20140413.2041)
 -->
<!-- Title: mom_neutral_diffusion::find_neutral_surface_positions Pages: 1 -->
<svg width="246pt" height="99pt"
 viewBox="0.00 0.00 246.00 98.50" xmlns="http://www.w3.org/2000/svg" xmlns:xlink="http://www.w3.org/1999/xlink">
<g id="graph0" class="graph" transform="scale(1 1) rotate(0) translate(4 94.5)">
<title>mom_neutral_diffusion::find_neutral_surface_positions</title>
<polygon fill="white" stroke="none" points="-4,4 -4,-94.5 242,-94.5 242,4 -4,4"/>
<!-- Node17 -->
<g id="node1" class="node"><title>Node17</title>
<polygon fill="#bfbfbf" stroke="black" points="0,-27.5 0,-68.5 98,-68.5 98,-27.5 0,-27.5"/>
<text text-anchor="start" x="8" y="-56.5" font-family="Helvetica,sans-Serif" font-size="10.00">mom_neutral_diffusion</text>
<text text-anchor="start" x="8" y="-45.5" font-family="Helvetica,sans-Serif" font-size="10.00">::find_neutral_surface</text>
<text text-anchor="middle" x="49" y="-34.5" font-family="Helvetica,sans-Serif" font-size="10.00">_positions</text>
</g>
<!-- Node18 -->
<g id="node2" class="node"><title>Node18</title>
<g id="a_node2"><a xlink:href="../../d8/da4/namespacemom__neutral__diffusion.html#a6a30ebbb70dd95dade154d1253393952" target="_top" xlink:title="Converts non&#45;dimensional position within a layer to absolute position (for debugging) ...">
<polygon fill="white" stroke="black" points="137,-60 137,-90 235,-90 235,-60 137,-60"/>
<text text-anchor="start" x="145" y="-78" font-family="Helvetica,sans-Serif" font-size="10.00">mom_neutral_diffusion</text>
<text text-anchor="middle" x="186" y="-67" font-family="Helvetica,sans-Serif" font-size="10.00">::absolute_position</text>
</a>
</g>
</g>
<!-- Node17&#45;&gt;Node18 -->
<g id="edge1" class="edge"><title>Node17&#45;&gt;Node18</title>
<path fill="none" stroke="midnightblue" d="M98.3568,-57.6714C107.678,-59.5356 117.53,-61.5061 127.118,-63.4236"/>
<polygon fill="midnightblue" stroke="midnightblue" points="126.489,-66.867 136.981,-65.3962 127.861,-60.0029 126.489,-66.867"/>
</g>
<!-- Node19 -->
<g id="node3" class="node"><title>Node19</title>
<g id="a_node3"><a xlink:href="../../d8/da4/namespacemom__neutral__diffusion.html#a666836e70bdae7ef4ec271246cf91993" target="_top" xlink:title="Returns the non&#45;dimensional position between Pneg and Ppos where the interpolated density difference ...">
<polygon fill="white" stroke="black" points="134,-0.5 134,-41.5 238,-41.5 238,-0.5 134,-0.5"/>
<text text-anchor="start" x="142" y="-29.5" font-family="Helvetica,sans-Serif" font-size="10.00">mom_neutral_diffusion</text>
<text text-anchor="start" x="142" y="-18.5" font-family="Helvetica,sans-Serif" font-size="10.00">::interpolate_for_nondim</text>
<text text-anchor="middle" x="186" y="-7.5" font-family="Helvetica,sans-Serif" font-size="10.00">_position</text>
</a>
</g>
</g>
<!-- Node17&#45;&gt;Node19 -->
<g id="edge2" class="edge"><title>Node17&#45;&gt;Node19</title>
<path fill="none" stroke="midnightblue" d="M98.3568,-38.3286C106.622,-36.6755 115.306,-34.9389 123.852,-33.2297"/>
<polygon fill="midnightblue" stroke="midnightblue" points="124.668,-36.6357 133.788,-31.2424 123.296,-29.7716 124.668,-36.6357"/>
</g>
</g>
</svg>
