<?xml version="1.0" encoding="UTF-8" standalone="no"?>
<!DOCTYPE svg PUBLIC "-//W3C//DTD SVG 1.1//EN"
 "http://www.w3.org/Graphics/SVG/1.1/DTD/svg11.dtd">
<!-- Generated by graphviz version 2.38.0 (20140413.2041)
 -->
<!-- Title: mom_neutral_diffusion::neutral_diffusion Pages: 1 -->
<svg width="642pt" height="136pt"
 viewBox="0.00 0.00 642.00 136.00" xmlns="http://www.w3.org/2000/svg" xmlns:xlink="http://www.w3.org/1999/xlink">
<g id="graph0" class="graph" transform="scale(1 1) rotate(0) translate(4 132)">
<title>mom_neutral_diffusion::neutral_diffusion</title>
<polygon fill="white" stroke="none" points="-4,4 -4,-132 638,-132 638,4 -4,4"/>
<!-- Node77 -->
<g id="node1" class="node"><title>Node77</title>
<polygon fill="#bfbfbf" stroke="black" points="0,-24.5 0,-54.5 98,-54.5 98,-24.5 0,-24.5"/>
<text text-anchor="start" x="8" y="-42.5" font-family="Helvetica,sans-Serif" font-size="10.00">mom_neutral_diffusion</text>
<text text-anchor="middle" x="49" y="-31.5" font-family="Helvetica,sans-Serif" font-size="10.00">::neutral_diffusion</text>
</g>
<!-- Node78 -->
<g id="node2" class="node"><title>Node78</title>
<g id="a_node2"><a xlink:href="../../d8/da4/namespacemom__neutral__diffusion.html#a626e0189b03bbbf36c33cfa52e4f098d" target="_top" xlink:title="Returns a single column of neutral diffusion fluxes of a tracer. ">
<polygon fill="white" stroke="black" points="134,-24.5 134,-54.5 232,-54.5 232,-24.5 134,-24.5"/>
<text text-anchor="start" x="142" y="-42.5" font-family="Helvetica,sans-Serif" font-size="10.00">mom_neutral_diffusion</text>
<text text-anchor="middle" x="183" y="-31.5" font-family="Helvetica,sans-Serif" font-size="10.00">::neutral_surface_flux</text>
</a>
</g>
</g>
<!-- Node77&#45;&gt;Node78 -->
<g id="edge1" class="edge"><title>Node77&#45;&gt;Node78</title>
<path fill="none" stroke="midnightblue" d="M98.0284,-39.5C106.309,-39.5 114.997,-39.5 123.517,-39.5"/>
<polygon fill="midnightblue" stroke="midnightblue" points="123.786,-43.0001 133.786,-39.5 123.786,-36.0001 123.786,-43.0001"/>
</g>
<!-- Node79 -->
<g id="node3" class="node"><title>Node79</title>
<g id="a_node3"><a xlink:href="../../d8/da4/namespacemom__neutral__diffusion.html#afbc54a4e2f34af5d72c18dc96e354af7" target="_top" xlink:title="Returns interface scalar, Si, for a column of layer values, S. ">
<polygon fill="white" stroke="black" points="268,-49.5 268,-79.5 366,-79.5 366,-49.5 268,-49.5"/>
<text text-anchor="start" x="276" y="-67.5" font-family="Helvetica,sans-Serif" font-size="10.00">mom_neutral_diffusion</text>
<text text-anchor="middle" x="317" y="-56.5" font-family="Helvetica,sans-Serif" font-size="10.00">::interface_scalar</text>
</a>
</g>
</g>
<!-- Node78&#45;&gt;Node79 -->
<g id="edge2" class="edge"><title>Node78&#45;&gt;Node79</title>
<path fill="none" stroke="midnightblue" d="M232.028,-48.5963C240.4,-50.1818 249.188,-51.8463 257.798,-53.4769"/>
<polygon fill="midnightblue" stroke="midnightblue" points="257.309,-56.9465 267.786,-55.3686 258.612,-50.0688 257.309,-56.9465"/>
</g>
<!-- Node84 -->
<g id="node8" class="node"><title>Node84</title>
<g id="a_node8"><a xlink:href="../../d8/da4/namespacemom__neutral__diffusion.html#a6931d9a07d09aa5d76d5abd2e47a54df" target="_top" xlink:title="Returns the average of a PPM reconstruction between two fractional positions. ">
<polygon fill="white" stroke="black" points="268,-0.5 268,-30.5 366,-30.5 366,-0.5 268,-0.5"/>
<text text-anchor="start" x="276" y="-18.5" font-family="Helvetica,sans-Serif" font-size="10.00">mom_neutral_diffusion</text>
<text text-anchor="middle" x="317" y="-7.5" font-family="Helvetica,sans-Serif" font-size="10.00">::ppm_ave</text>
</a>
</g>
</g>
<!-- Node78&#45;&gt;Node84 -->
<g id="edge7" class="edge"><title>Node78&#45;&gt;Node84</title>
<path fill="none" stroke="midnightblue" d="M232.028,-30.7676C240.4,-29.2455 249.188,-27.6475 257.798,-26.0822"/>
<polygon fill="midnightblue" stroke="midnightblue" points="258.574,-29.4986 267.786,-24.2662 257.321,-22.6116 258.574,-29.4986"/>
</g>
<!-- Node80 -->
<g id="node4" class="node"><title>Node80</title>
<g id="a_node4"><a xlink:href="../../d8/da4/namespacemom__neutral__diffusion.html#ac211ae488cb6e3c6685df85d24ecd0dd" target="_top" xlink:title="Returns PLM slopes for a column where the slopes are the difference in value across each cell...">
<polygon fill="white" stroke="black" points="402,-73.5 402,-103.5 500,-103.5 500,-73.5 402,-73.5"/>
<text text-anchor="start" x="410" y="-91.5" font-family="Helvetica,sans-Serif" font-size="10.00">mom_neutral_diffusion</text>
<text text-anchor="middle" x="451" y="-80.5" font-family="Helvetica,sans-Serif" font-size="10.00">::plm_diff</text>
</a>
</g>
</g>
<!-- Node79&#45;&gt;Node80 -->
<g id="edge3" class="edge"><title>Node79&#45;&gt;Node80</title>
<path fill="none" stroke="midnightblue" d="M366.028,-73.2324C374.4,-74.7545 383.188,-76.3525 391.798,-77.9178"/>
<polygon fill="midnightblue" stroke="midnightblue" points="391.321,-81.3884 401.786,-79.7338 392.574,-74.5014 391.321,-81.3884"/>
</g>
<!-- Node83 -->
<g id="node7" class="node"><title>Node83</title>
<g id="a_node7"><a xlink:href="../../d8/da4/namespacemom__neutral__diffusion.html#a87d3d020b56a98f3f0c143701f76c86e" target="_top" xlink:title="Returns the PPM quasi&#45;fourth order edge value at k+1/2 following equation 1.6 in Colella &amp; Woodward...">
<polygon fill="white" stroke="black" points="402,-24.5 402,-54.5 500,-54.5 500,-24.5 402,-24.5"/>
<text text-anchor="start" x="410" y="-42.5" font-family="Helvetica,sans-Serif" font-size="10.00">mom_neutral_diffusion</text>
<text text-anchor="middle" x="451" y="-31.5" font-family="Helvetica,sans-Serif" font-size="10.00">::ppm_edge</text>
</a>
</g>
</g>
<!-- Node79&#45;&gt;Node83 -->
<g id="edge6" class="edge"><title>Node79&#45;&gt;Node83</title>
<path fill="none" stroke="midnightblue" d="M366.028,-55.4037C374.4,-53.8182 383.188,-52.1537 391.798,-50.5231"/>
<polygon fill="midnightblue" stroke="midnightblue" points="392.612,-53.9312 401.786,-48.6314 391.309,-47.0535 392.612,-53.9312"/>
</g>
<!-- Node81 -->
<g id="node5" class="node"><title>Node81</title>
<g id="a_node5"><a xlink:href="../../d8/da4/namespacemom__neutral__diffusion.html#a1c5ac28d7c54581cdd872fe58ef0b204" target="_top" xlink:title="Returns the cell&#45;centered second&#45;order finite volume (unlimited PLM) slope using three consecutive ce...">
<polygon fill="white" stroke="black" points="536,-97.5 536,-127.5 634,-127.5 634,-97.5 536,-97.5"/>
<text text-anchor="start" x="544" y="-115.5" font-family="Helvetica,sans-Serif" font-size="10.00">mom_neutral_diffusion</text>
<text text-anchor="middle" x="585" y="-104.5" font-family="Helvetica,sans-Serif" font-size="10.00">::fv_diff</text>
</a>
</g>
</g>
<!-- Node80&#45;&gt;Node81 -->
<g id="edge4" class="edge"><title>Node80&#45;&gt;Node81</title>
<path fill="none" stroke="midnightblue" d="M500.028,-97.2324C508.4,-98.7545 517.188,-100.352 525.798,-101.918"/>
<polygon fill="midnightblue" stroke="midnightblue" points="525.321,-105.388 535.786,-103.734 526.574,-98.5014 525.321,-105.388"/>
</g>
<!-- Node82 -->
<g id="node6" class="node"><title>Node82</title>
<g id="a_node6"><a xlink:href="../../d8/da4/namespacemom__neutral__diffusion.html#a6ed3814088af470ad6fc4a3a80926fd7" target="_top" xlink:title="Returns the cell&#45;centered second&#45;order weighted least squares slope using three consecutive cell widt...">
<polygon fill="white" stroke="black" points="536,-48.5 536,-78.5 634,-78.5 634,-48.5 536,-48.5"/>
<text text-anchor="start" x="544" y="-66.5" font-family="Helvetica,sans-Serif" font-size="10.00">mom_neutral_diffusion</text>
<text text-anchor="middle" x="585" y="-55.5" font-family="Helvetica,sans-Serif" font-size="10.00">::fvlsq_slope</text>
</a>
</g>
</g>
<!-- Node80&#45;&gt;Node82 -->
<g id="edge5" class="edge"><title>Node80&#45;&gt;Node82</title>
<path fill="none" stroke="midnightblue" d="M500.028,-79.4037C508.4,-77.8182 517.188,-76.1537 525.798,-74.5231"/>
<polygon fill="midnightblue" stroke="midnightblue" points="526.612,-77.9312 535.786,-72.6314 525.309,-71.0535 526.612,-77.9312"/>
</g>
</g>
</svg>
