<?xml version="1.0" encoding="UTF-8" standalone="no"?>
<!DOCTYPE svg PUBLIC "-//W3C//DTD SVG 1.1//EN"
 "http://www.w3.org/Graphics/SVG/1.1/DTD/svg11.dtd">
<!-- Generated by graphviz version 2.38.0 (20140413.2041)
 -->
<!-- Title: mom_neutral_diffusion::interpolate_for_nondim_position Pages: 1 -->
<svg width="731pt" height="99pt"
 viewBox="0.00 0.00 731.00 98.50" xmlns="http://www.w3.org/2000/svg" xmlns:xlink="http://www.w3.org/1999/xlink">
<g id="graph0" class="graph" transform="scale(1 1) rotate(0) translate(4 94.5)">
<title>mom_neutral_diffusion::interpolate_for_nondim_position</title>
<polygon fill="white" stroke="none" points="-4,4 -4,-94.5 727,-94.5 727,4 -4,4"/>
<!-- Node68 -->
<g id="node1" class="node"><title>Node68</title>
<polygon fill="#bfbfbf" stroke="black" points="0,-19 0,-60 104,-60 104,-19 0,-19"/>
<text text-anchor="start" x="8" y="-48" font-family="Helvetica,sans-Serif" font-size="10.00">mom_neutral_diffusion</text>
<text text-anchor="start" x="8" y="-37" font-family="Helvetica,sans-Serif" font-size="10.00">::interpolate_for_nondim</text>
<text text-anchor="middle" x="52" y="-26" font-family="Helvetica,sans-Serif" font-size="10.00">_position</text>
</g>
<!-- Node69 -->
<g id="node2" class="node"><title>Node69</title>
<g id="a_node2"><a xlink:href="../../d8/da4/namespacemom__neutral__diffusion.html#aacce4f78e738a3c7530ae8940c144fb9" target="_top" xlink:title="Returns positions within left/right columns of combined interfaces. ">
<polygon fill="white" stroke="black" points="140,-44 140,-85 238,-85 238,-44 140,-44"/>
<text text-anchor="start" x="148" y="-73" font-family="Helvetica,sans-Serif" font-size="10.00">mom_neutral_diffusion</text>
<text text-anchor="start" x="148" y="-62" font-family="Helvetica,sans-Serif" font-size="10.00">::find_neutral_surface</text>
<text text-anchor="middle" x="189" y="-51" font-family="Helvetica,sans-Serif" font-size="10.00">_positions</text>
</a>
</g>
</g>
<!-- Node68&#45;&gt;Node69 -->
<g id="edge1" class="edge"><title>Node68&#45;&gt;Node69</title>
<path fill="none" stroke="midnightblue" d="M113.998,-50.7958C122.566,-52.3825 131.275,-53.9953 139.566,-55.5307"/>
<polygon fill="midnightblue" stroke="midnightblue" points="114.508,-47.3309 104.038,-48.9514 113.233,-54.2139 114.508,-47.3309"/>
</g>
<!-- Node76 -->
<g id="node9" class="node"><title>Node76</title>
<g id="a_node9"><a xlink:href="../../d8/da4/MOM__neutral__diffusion_8F90.html#aa401d8c1185a7492dc053f4b18c0cedd" target="_top" xlink:title="Returns true if a test of interpolate_for_nondim_position() fails, and conditionally writes results t...">
<polygon fill="white" stroke="black" points="163.5,-6 163.5,-25 214.5,-25 214.5,-6 163.5,-6"/>
<text text-anchor="middle" x="189" y="-13" font-family="Helvetica,sans-Serif" font-size="10.00">test_ifndp</text>
</a>
</g>
</g>
<!-- Node68&#45;&gt;Node76 -->
<g id="edge8" class="edge"><title>Node68&#45;&gt;Node76</title>
<path fill="none" stroke="midnightblue" d="M114.17,-28.6254C131.548,-25.5359 149.492,-22.3459 163.337,-19.8845"/>
<polygon fill="midnightblue" stroke="midnightblue" points="113.271,-25.2302 104.038,-30.4266 114.496,-32.1222 113.271,-25.2302"/>
</g>
<!-- Node70 -->
<g id="node3" class="node"><title>Node70</title>
<g id="a_node3"><a xlink:href="../../d8/da4/namespacemom__neutral__diffusion.html#a53d5e3f8d7610b60644aaa9f44fd854e" target="_top" xlink:title="Calculate remapping factors for u/v columns used to map adjoining columns to a shared coordinate spac...">
<polygon fill="white" stroke="black" points="277,-49 277,-90 375,-90 375,-49 277,-49"/>
<text text-anchor="start" x="285" y="-78" font-family="Helvetica,sans-Serif" font-size="10.00">mom_neutral_diffusion</text>
<text text-anchor="start" x="285" y="-67" font-family="Helvetica,sans-Serif" font-size="10.00">::neutral_diffusion_calc</text>
<text text-anchor="middle" x="326" y="-56" font-family="Helvetica,sans-Serif" font-size="10.00">_coeffs</text>
</a>
</g>
</g>
<!-- Node69&#45;&gt;Node70 -->
<g id="edge2" class="edge"><title>Node69&#45;&gt;Node70</title>
<path fill="none" stroke="midnightblue" d="M248.532,-66.6679C258.031,-67.0197 267.77,-67.3804 276.981,-67.7215"/>
<polygon fill="midnightblue" stroke="midnightblue" points="248.48,-63.1636 238.357,-66.291 248.22,-70.1588 248.48,-63.1636"/>
</g>
<!-- Node72 -->
<g id="node5" class="node"><title>Node72</title>
<g id="a_node5"><a xlink:href="../../d8/da4/namespacemom__neutral__diffusion.html#a72c160fad7066e2837db730c717a9ad1" target="_top" xlink:title="Returns true if unit tests of neutral_diffusion functions fail. Otherwise returns false...">
<polygon fill="white" stroke="black" points="274,-0.5 274,-30.5 378,-30.5 378,-0.5 274,-0.5"/>
<text text-anchor="start" x="282" y="-18.5" font-family="Helvetica,sans-Serif" font-size="10.00">mom_neutral_diffusion</text>
<text text-anchor="middle" x="326" y="-7.5" font-family="Helvetica,sans-Serif" font-size="10.00">::neutraldiffusionunittests</text>
</a>
</g>
</g>
<!-- Node69&#45;&gt;Node72 -->
<g id="edge4" class="edge"><title>Node69&#45;&gt;Node72</title>
<path fill="none" stroke="midnightblue" d="M247.89,-43.4881C259.926,-39.1195 272.378,-34.5999 283.673,-30.5002"/>
<polygon fill="midnightblue" stroke="midnightblue" points="246.563,-40.2464 238.357,-46.9483 248.951,-46.8264 246.563,-40.2464"/>
</g>
<!-- Node71 -->
<g id="node4" class="node"><title>Node71</title>
<g id="a_node4"><a xlink:href="../../da/db2/namespacemom__tracer__hor__diff.html#ae8eba26c164a4e8e4ba1008cda9850e6" target="_top" xlink:title="Compute along&#45;coordinate diffusion of all tracers using the diffusivity in CSKhTr, or using space&#45;dependent diffusivity. Multiple iterations are used (if necessary) so that there is no limit on the acceptable time increment. ">
<polygon fill="white" stroke="black" points="414,-54.5 414,-84.5 506,-84.5 506,-54.5 414,-54.5"/>
<text text-anchor="start" x="422" y="-72.5" font-family="Helvetica,sans-Serif" font-size="10.00">mom_tracer_hor_diff</text>
<text text-anchor="middle" x="460" y="-61.5" font-family="Helvetica,sans-Serif" font-size="10.00">::tracer_hordiff</text>
</a>
</g>
</g>
<!-- Node70&#45;&gt;Node71 -->
<g id="edge3" class="edge"><title>Node70&#45;&gt;Node71</title>
<path fill="none" stroke="midnightblue" d="M385.296,-69.5C394.873,-69.5 404.67,-69.5 413.864,-69.5"/>
<polygon fill="midnightblue" stroke="midnightblue" points="385.028,-66.0001 375.028,-69.5 385.028,-73.0001 385.028,-66.0001"/>
</g>
<!-- Node73 -->
<g id="node6" class="node"><title>Node73</title>
<g id="a_node6"><a xlink:href="../../da/d01/namespacemom.html#a6cfc2cd88d60f051fe90e68c2f16b46b" target="_top" xlink:title="This s/r calls unit tests for other modules. These are NOT normally invoked and so we provide the mod...">
<polygon fill="white" stroke="black" points="426,-6 426,-25 494,-25 494,-6 426,-6"/>
<text text-anchor="middle" x="460" y="-13" font-family="Helvetica,sans-Serif" font-size="10.00">mom::unittests</text>
</a>
</g>
</g>
<!-- Node72&#45;&gt;Node73 -->
<g id="edge5" class="edge"><title>Node72&#45;&gt;Node73</title>
<path fill="none" stroke="midnightblue" d="M388.262,-15.5C401.125,-15.5 414.23,-15.5 425.608,-15.5"/>
<polygon fill="midnightblue" stroke="midnightblue" points="388.035,-12.0001 378.035,-15.5 388.035,-19.0001 388.035,-12.0001"/>
</g>
<!-- Node74 -->
<g id="node7" class="node"><title>Node74</title>
<g id="a_node7"><a xlink:href="../../da/d01/namespacemom.html#afebdc0103ad9cbe0ed4a54e522dc4104" target="_top" xlink:title="This subroutine initializes MOM. ">
<polygon fill="white" stroke="black" points="542,-6 542,-25 631,-25 631,-6 542,-6"/>
<text text-anchor="middle" x="586.5" y="-13" font-family="Helvetica,sans-Serif" font-size="10.00">mom::initialize_mom</text>
</a>
</g>
</g>
<!-- Node73&#45;&gt;Node74 -->
<g id="edge6" class="edge"><title>Node73&#45;&gt;Node74</title>
<path fill="none" stroke="midnightblue" d="M504.405,-15.5C516.574,-15.5 529.805,-15.5 541.981,-15.5"/>
<polygon fill="midnightblue" stroke="midnightblue" points="504.037,-12.0001 494.037,-15.5 504.037,-19.0001 504.037,-12.0001"/>
</g>
<!-- Node75 -->
<g id="node8" class="node"><title>Node75</title>
<g id="a_node8"><a xlink:href="../../de/dbc/MOM__driver_8F90.html#a08fffeb2d8e8acbf9ed4609be6d258c6" target="_top" xlink:title="mom_main">
<polygon fill="white" stroke="black" points="667,-6 667,-25 723,-25 723,-6 667,-6"/>
<text text-anchor="middle" x="695" y="-13" font-family="Helvetica,sans-Serif" font-size="10.00">mom_main</text>
</a>
</g>
</g>
<!-- Node74&#45;&gt;Node75 -->
<g id="edge7" class="edge"><title>Node74&#45;&gt;Node75</title>
<path fill="none" stroke="midnightblue" d="M641.407,-15.5C650.206,-15.5 658.981,-15.5 666.771,-15.5"/>
<polygon fill="midnightblue" stroke="midnightblue" points="641.125,-12.0001 631.125,-15.5 641.125,-19.0001 641.125,-12.0001"/>
</g>
<!-- Node76&#45;&gt;Node72 -->
<g id="edge9" class="edge"><title>Node76&#45;&gt;Node72</title>
<path fill="none" stroke="midnightblue" d="M225.045,-15.5C239.918,-15.5 257.55,-15.5 273.833,-15.5"/>
<polygon fill="midnightblue" stroke="midnightblue" points="224.761,-12.0001 214.761,-15.5 224.761,-19.0001 224.761,-12.0001"/>
</g>
</g>
</svg>
