<?xml version="1.0" encoding="UTF-8" standalone="no"?>
<!DOCTYPE svg PUBLIC "-//W3C//DTD SVG 1.1//EN"
 "http://www.w3.org/Graphics/SVG/1.1/DTD/svg11.dtd">
<!-- Generated by graphviz version 2.38.0 (20140413.2041)
 -->
<!-- Title: mom_neutral_diffusion::absolute_position Pages: 1 -->
<!--zoomable 99 -->
<svg id="main" version="1.1" xmlns="http://www.w3.org/2000/svg" xmlns:xlink="http://www.w3.org/1999/xlink" xml:space="preserve" onload="init(evt)">
<style type="text/css"><![CDATA[
.edge:hover path { stroke: red; }
.edge:hover polygon { stroke: red; fill: red; }
]]></style>
<script type="text/javascript"><![CDATA[
var edges = document.getElementsByTagName('g');
if (edges && edges.length) {
  for (var i=0;i<edges.length;i++) {
    if (edges[i].id.substr(0,4)=='edge') {
      edges[i].setAttribute('class','edge');
    }
  }
}
]]></script>
        <defs>
                <circle id="rim" cx="0" cy="0" r="7"/>
                <circle id="rim2" cx="0" cy="0" r="3.5"/>
                <g id="zoomPlus">
                        <use xlink:href="#rim" fill="#404040">
                                <set attributeName="fill" to="#808080" begin="zoomplus.mouseover" end="zoomplus.mouseout"/>
                        </use>
                        <path d="M-4,0h8M0,-4v8" fill="none" stroke="white" stroke-width="1.5" pointer-events="none"/>
                </g>
                <g id="zoomMin">
                        <use xlink:href="#rim" fill="#404040">
                                <set attributeName="fill" to="#808080" begin="zoomminus.mouseover" end="zoomminus.mouseout"/>
                        </use>
                        <path d="M-4,0h8" fill="none" stroke="white" stroke-width="1.5" pointer-events="none"/>
                </g>
                <g id="dirArrow">
                        <path fill="none" stroke="white" stroke-width="1.5" d="M0,-3.0v7 M-2.5,-0.5L0,-3.0L2.5,-0.5"/>
                </g>
               <g id="resetDef">
                       <use xlink:href="#rim2" fill="#404040">
                               <set attributeName="fill" to="#808080" begin="reset.mouseover" end="reset.mouseout"/>
                       </use>
               </g>
        </defs>

<script type="text/javascript">
var viewWidth = 725;
var viewHeight = 99;
var sectionId = 'dynsection-0';
</script>
<script xlink:href="../../svgpan.js"/>
<svg id="graph" class="graph">
<g id="viewport">
<title>mom_neutral_diffusion::absolute_position</title>
<polygon fill="white" stroke="none" points="-4,4 -4,-94.5 721,-94.5 721,4 -4,4"/>
<!-- Node1 -->
<g id="node1" class="node"><title>Node1</title>
<polygon fill="#bfbfbf" stroke="black" points="0,-33 0,-63 98,-63 98,-33 0,-33"/>
<text text-anchor="start" x="8" y="-51" font-family="Helvetica,sans-Serif" font-size="10.00">mom_neutral_diffusion</text>
<text text-anchor="middle" x="49" y="-40" font-family="Helvetica,sans-Serif" font-size="10.00">::absolute_position</text>
</g>
<!-- Node2 -->
<g id="node2" class="node"><title>Node2</title>
<g id="a_node2"><a xlink:href="../../d8/da4/namespacemom__neutral__diffusion.html#a8f341aaa492064bbece077ada4d48d83" target="_top" xlink:title="Converts non&#45;dimensional positions within layers to absolute positions (for debugging) ...">
<polygon fill="white" stroke="black" points="134,-60 134,-90 232,-90 232,-60 134,-60"/>
<text text-anchor="start" x="142" y="-78" font-family="Helvetica,sans-Serif" font-size="10.00">mom_neutral_diffusion</text>
<text text-anchor="middle" x="183" y="-67" font-family="Helvetica,sans-Serif" font-size="10.00">::absolute_positions</text>
</a>
</g>
</g>
<!-- Node1&#45;&gt;Node2 -->
<g id="edge1" class="edge"><title>Node1&#45;&gt;Node2</title>
<path fill="none" stroke="midnightblue" d="M108.012,-59.866C116.618,-61.6265 125.409,-63.4245 133.786,-65.1381"/>
<polygon fill="midnightblue" stroke="midnightblue" points="108.527,-56.399 98.0284,-57.824 107.124,-63.257 108.527,-56.399"/>
</g>
<!-- Node7 -->
<g id="node7" class="node"><title>Node7</title>
<g id="a_node7"><a xlink:href="../../d8/da4/namespacemom__neutral__diffusion.html#aacce4f78e738a3c7530ae8940c144fb9" target="_top" xlink:title="Returns positions within left/right columns of combined interfaces. ">
<polygon fill="white" stroke="black" points="134,-0.5 134,-41.5 232,-41.5 232,-0.5 134,-0.5"/>
<text text-anchor="start" x="142" y="-29.5" font-family="Helvetica,sans-Serif" font-size="10.00">mom_neutral_diffusion</text>
<text text-anchor="start" x="142" y="-18.5" font-family="Helvetica,sans-Serif" font-size="10.00">::find_neutral_surface</text>
<text text-anchor="middle" x="183" y="-7.5" font-family="Helvetica,sans-Serif" font-size="10.00">_positions</text>
</a>
</g>
</g>
<!-- Node1&#45;&gt;Node7 -->
<g id="edge6" class="edge"><title>Node1&#45;&gt;Node7</title>
<path fill="none" stroke="midnightblue" d="M108.012,-36.134C116.618,-34.3735 125.409,-32.5755 133.786,-30.8619"/>
<polygon fill="midnightblue" stroke="midnightblue" points="107.124,-32.743 98.0284,-38.176 108.527,-39.601 107.124,-32.743"/>
</g>
<!-- Node3 -->
<g id="node3" class="node"><title>Node3</title>
<g id="a_node3"><a xlink:href="../../d8/da4/namespacemom__neutral__diffusion.html#a72c160fad7066e2837db730c717a9ad1" target="_top" xlink:title="Returns true if unit tests of neutral_diffusion functions fail. Otherwise returns false...">
<polygon fill="white" stroke="black" points="268,-60 268,-90 372,-90 372,-60 268,-60"/>
<text text-anchor="start" x="276" y="-78" font-family="Helvetica,sans-Serif" font-size="10.00">mom_neutral_diffusion</text>
<text text-anchor="middle" x="320" y="-67" font-family="Helvetica,sans-Serif" font-size="10.00">::neutraldiffusionunittests</text>
</a>
</g>
</g>
<!-- Node2&#45;&gt;Node3 -->
<g id="edge2" class="edge"><title>Node2&#45;&gt;Node3</title>
<path fill="none" stroke="midnightblue" d="M242.496,-75C250.915,-75 259.525,-75 267.788,-75"/>
<polygon fill="midnightblue" stroke="midnightblue" points="242.357,-71.5001 232.357,-75 242.357,-78.5001 242.357,-71.5001"/>
</g>
<!-- Node4 -->
<g id="node4" class="node"><title>Node4</title>
<g id="a_node4"><a xlink:href="../../da/d01/namespacemom.html#a6cfc2cd88d60f051fe90e68c2f16b46b" target="_top" xlink:title="This s/r calls unit tests for other modules. These are NOT normally invoked and so we provide the mod...">
<polygon fill="white" stroke="black" points="420,-65.5 420,-84.5 488,-84.5 488,-65.5 420,-65.5"/>
<text text-anchor="middle" x="454" y="-72.5" font-family="Helvetica,sans-Serif" font-size="10.00">mom::unittests</text>
</a>
</g>
</g>
<!-- Node3&#45;&gt;Node4 -->
<g id="edge3" class="edge"><title>Node3&#45;&gt;Node4</title>
<path fill="none" stroke="midnightblue" d="M382.262,-75C395.125,-75 408.23,-75 419.608,-75"/>
<polygon fill="midnightblue" stroke="midnightblue" points="382.035,-71.5001 372.035,-75 382.035,-78.5001 382.035,-71.5001"/>
</g>
<!-- Node5 -->
<g id="node5" class="node"><title>Node5</title>
<g id="a_node5"><a xlink:href="../../da/d01/namespacemom.html#afebdc0103ad9cbe0ed4a54e522dc4104" target="_top" xlink:title="This subroutine initializes MOM. ">
<polygon fill="white" stroke="black" points="536,-65.5 536,-84.5 625,-84.5 625,-65.5 536,-65.5"/>
<text text-anchor="middle" x="580.5" y="-72.5" font-family="Helvetica,sans-Serif" font-size="10.00">mom::initialize_mom</text>
</a>
</g>
</g>
<!-- Node4&#45;&gt;Node5 -->
<g id="edge4" class="edge"><title>Node4&#45;&gt;Node5</title>
<path fill="none" stroke="midnightblue" d="M498.405,-75C510.574,-75 523.805,-75 535.981,-75"/>
<polygon fill="midnightblue" stroke="midnightblue" points="498.037,-71.5001 488.037,-75 498.037,-78.5001 498.037,-71.5001"/>
</g>
<!-- Node6 -->
<g id="node6" class="node"><title>Node6</title>
<g id="a_node6"><a xlink:href="../../de/dbc/MOM__driver_8F90.html#a08fffeb2d8e8acbf9ed4609be6d258c6" target="_top" xlink:title="mom_main">
<polygon fill="white" stroke="black" points="661,-65.5 661,-84.5 717,-84.5 717,-65.5 661,-65.5"/>
<text text-anchor="middle" x="689" y="-72.5" font-family="Helvetica,sans-Serif" font-size="10.00">mom_main</text>
</a>
</g>
</g>
<!-- Node5&#45;&gt;Node6 -->
<g id="edge5" class="edge"><title>Node5&#45;&gt;Node6</title>
<path fill="none" stroke="midnightblue" d="M635.407,-75C644.206,-75 652.981,-75 660.771,-75"/>
<polygon fill="midnightblue" stroke="midnightblue" points="635.125,-71.5001 625.125,-75 635.125,-78.5001 635.125,-71.5001"/>
</g>
<!-- Node7&#45;&gt;Node3 -->
<g id="edge9" class="edge"><title>Node7&#45;&gt;Node3</title>
<path fill="none" stroke="midnightblue" d="M241.905,-44.1619C255.181,-49.4725 268.963,-54.9853 281.14,-59.8559"/>
<polygon fill="midnightblue" stroke="midnightblue" points="242.941,-40.807 232.357,-40.3427 240.342,-47.3064 242.941,-40.807"/>
</g>
<!-- Node8 -->
<g id="node8" class="node"><title>Node8</title>
<g id="a_node8"><a xlink:href="../../d8/da4/namespacemom__neutral__diffusion.html#a53d5e3f8d7610b60644aaa9f44fd854e" target="_top" xlink:title="Calculate remapping factors for u/v columns used to map adjoining columns to a shared coordinate spac...">
<polygon fill="white" stroke="black" points="271,-0.5 271,-41.5 369,-41.5 369,-0.5 271,-0.5"/>
<text text-anchor="start" x="279" y="-29.5" font-family="Helvetica,sans-Serif" font-size="10.00">mom_neutral_diffusion</text>
<text text-anchor="start" x="279" y="-18.5" font-family="Helvetica,sans-Serif" font-size="10.00">::neutral_diffusion_calc</text>
<text text-anchor="middle" x="320" y="-7.5" font-family="Helvetica,sans-Serif" font-size="10.00">_coeffs</text>
</a>
</g>
</g>
<!-- Node7&#45;&gt;Node8 -->
<g id="edge7" class="edge"><title>Node7&#45;&gt;Node8</title>
<path fill="none" stroke="midnightblue" d="M242.532,-21C252.031,-21 261.77,-21 270.981,-21"/>
<polygon fill="midnightblue" stroke="midnightblue" points="242.357,-17.5001 232.357,-21 242.357,-24.5001 242.357,-17.5001"/>
</g>
<!-- Node9 -->
<g id="node9" class="node"><title>Node9</title>
<g id="a_node9"><a xlink:href="../../da/db2/namespacemom__tracer__hor__diff.html#ae8eba26c164a4e8e4ba1008cda9850e6" target="_top" xlink:title="Compute along&#45;coordinate diffusion of all tracers using the diffusivity in CSKhTr, or using space&#45;dependent diffusivity. Multiple iterations are used (if necessary) so that there is no limit on the acceptable time increment. ">
<polygon fill="white" stroke="black" points="408,-6 408,-36 500,-36 500,-6 408,-6"/>
<text text-anchor="start" x="416" y="-24" font-family="Helvetica,sans-Serif" font-size="10.00">mom_tracer_hor_diff</text>
<text text-anchor="middle" x="454" y="-13" font-family="Helvetica,sans-Serif" font-size="10.00">::tracer_hordiff</text>
</a>
</g>
</g>
<!-- Node8&#45;&gt;Node9 -->
<g id="edge8" class="edge"><title>Node8&#45;&gt;Node9</title>
<path fill="none" stroke="midnightblue" d="M379.296,-21C388.873,-21 398.67,-21 407.864,-21"/>
<polygon fill="midnightblue" stroke="midnightblue" points="379.028,-17.5001 369.028,-21 379.028,-24.5001 379.028,-17.5001"/>
</g>
</g>
</svg>
        <g id="navigator" transform="translate(0 0)" fill="#404254">
                <rect fill="#f2f5e9" fill-opacity="0.5" stroke="#606060" stroke-width=".5" x="0" y="0" width="60" height="60"/>
                <use id="zoomplus" xlink:href="#zoomPlus" x="17" y="9" onmousedown="handleZoom(evt,'in')"/>
                <use id="zoomminus" xlink:href="#zoomMin" x="42" y="9" onmousedown="handleZoom(evt,'out')"/>
                <use id="reset" xlink:href="#resetDef" x="30" y="36" onmousedown="handleReset()"/>
                <g id="arrowUp" xlink:href="#dirArrow" transform="translate(30 24)" onmousedown="handlePan(0,-1)">
                  <use xlink:href="#rim" fill="#404040">
                        <set attributeName="fill" to="#808080" begin="arrowUp.mouseover" end="arrowUp.mouseout"/>
                  </use>
                  <path fill="none" stroke="white" stroke-width="1.5" d="M0,-3.0v7 M-2.5,-0.5L0,-3.0L2.5,-0.5"/>
                </g>
                <g id="arrowRight" xlink:href="#dirArrow" transform="rotate(90) translate(36 -43)" onmousedown="handlePan(1,0)">
                  <use xlink:href="#rim" fill="#404040">
                        <set attributeName="fill" to="#808080" begin="arrowRight.mouseover" end="arrowRight.mouseout"/>
                  </use>
                  <path fill="none" stroke="white" stroke-width="1.5" d="M0,-3.0v7 M-2.5,-0.5L0,-3.0L2.5,-0.5"/>
                </g>
                <g id="arrowDown" xlink:href="#dirArrow" transform="rotate(180) translate(-30 -48)" onmousedown="handlePan(0,1)">
                  <use xlink:href="#rim" fill="#404040">
                        <set attributeName="fill" to="#808080" begin="arrowDown.mouseover" end="arrowDown.mouseout"/>
                  </use>
                  <path fill="none" stroke="white" stroke-width="1.5" d="M0,-3.0v7 M-2.5,-0.5L0,-3.0L2.5,-0.5"/>
                </g>
                <g id="arrowLeft" xlink:href="#dirArrow" transform="rotate(270) translate(-36 17)" onmousedown="handlePan(-1,0)">
                  <use xlink:href="#rim" fill="#404040">
                        <set attributeName="fill" to="#808080" begin="arrowLeft.mouseover" end="arrowLeft.mouseout"/>
                  </use>
                  <path fill="none" stroke="white" stroke-width="1.5" d="M0,-3.0v7 M-2.5,-0.5L0,-3.0L2.5,-0.5"/>
                </g>
        </g>
        <svg viewBox="0 0 15 15" width="100%" height="30px" preserveAspectRatio="xMaxYMin meet">
         <g id="arrow_out" transform="scale(0.3 0.3)">
          <a xlink:href="namespacemom__neutral__diffusion_a6a30ebbb70dd95dade154d1253393952_icgraph_org.svg" target="_base">
           <rect id="button" ry="5" rx="5" y="6" x="6" height="38" width="38"
                fill="#f2f5e9" fill-opacity="0.5" stroke="#606060" stroke-width="1.0"/>
           <path id="arrow"
             d="M 11.500037,31.436501 C 11.940474,20.09759 22.043105,11.32322 32.158766,21.979434 L 37.068811,17.246167 C 37.068811,17.246167 37.088388,32 37.088388,32 L 22.160133,31.978069 C 22.160133,31.978069 26.997745,27.140456 26.997745,27.140456 C 18.528582,18.264221 13.291696,25.230495 11.500037,31.436501 z"
             style="fill:#404040;"/>
          </a>
         </g>
        </svg>
</svg>
