<?xml version="1.0" encoding="UTF-8" standalone="no"?>
<!DOCTYPE svg PUBLIC "-//W3C//DTD SVG 1.1//EN"
 "http://www.w3.org/Graphics/SVG/1.1/DTD/svg11.dtd">
<!-- Generated by graphviz version 2.38.0 (20140413.2041)
 -->
<!-- Title: mom_neutral_diffusion::fv_diff Pages: 1 -->
<!--zoomable 173 -->
<svg id="main" version="1.1" xmlns="http://www.w3.org/2000/svg" xmlns:xlink="http://www.w3.org/1999/xlink" xml:space="preserve" onload="init(evt)">
<style type="text/css"><![CDATA[
.edge:hover path { stroke: red; }
.edge:hover polygon { stroke: red; fill: red; }
]]></style>
<script type="text/javascript"><![CDATA[
var edges = document.getElementsByTagName('g');
if (edges && edges.length) {
  for (var i=0;i<edges.length;i++) {
    if (edges[i].id.substr(0,4)=='edge') {
      edges[i].setAttribute('class','edge');
    }
  }
}
]]></script>
        <defs>
                <circle id="rim" cx="0" cy="0" r="7"/>
                <circle id="rim2" cx="0" cy="0" r="3.5"/>
                <g id="zoomPlus">
                        <use xlink:href="#rim" fill="#404040">
                                <set attributeName="fill" to="#808080" begin="zoomplus.mouseover" end="zoomplus.mouseout"/>
                        </use>
                        <path d="M-4,0h8M0,-4v8" fill="none" stroke="white" stroke-width="1.5" pointer-events="none"/>
                </g>
                <g id="zoomMin">
                        <use xlink:href="#rim" fill="#404040">
                                <set attributeName="fill" to="#808080" begin="zoomminus.mouseover" end="zoomminus.mouseout"/>
                        </use>
                        <path d="M-4,0h8" fill="none" stroke="white" stroke-width="1.5" pointer-events="none"/>
                </g>
                <g id="dirArrow">
                        <path fill="none" stroke="white" stroke-width="1.5" d="M0,-3.0v7 M-2.5,-0.5L0,-3.0L2.5,-0.5"/>
                </g>
               <g id="resetDef">
                       <use xlink:href="#rim2" fill="#404040">
                               <set attributeName="fill" to="#808080" begin="reset.mouseover" end="reset.mouseout"/>
                       </use>
               </g>
        </defs>

<script type="text/javascript">
var viewWidth = 993;
var viewHeight = 173;
var sectionId = 'dynsection-5';
</script>
<script xlink:href="../../svgpan.js"/>
<svg id="graph" class="graph">
<g id="viewport">
<title>mom_neutral_diffusion::fv_diff</title>
<polygon fill="white" stroke="none" points="-4,4 -4,-169 989,-169 989,4 -4,4"/>
<!-- Node28 -->
<g id="node1" class="node"><title>Node28</title>
<polygon fill="#bfbfbf" stroke="black" points="0,-40 0,-70 98,-70 98,-40 0,-40"/>
<text text-anchor="start" x="8" y="-58" font-family="Helvetica,sans-Serif" font-size="10.00">mom_neutral_diffusion</text>
<text text-anchor="middle" x="49" y="-47" font-family="Helvetica,sans-Serif" font-size="10.00">::fv_diff</text>
</g>
<!-- Node29 -->
<g id="node2" class="node"><title>Node29</title>
<g id="a_node2"><a xlink:href="../../d8/da4/namespacemom__neutral__diffusion.html#ac211ae488cb6e3c6685df85d24ecd0dd" target="_top" xlink:title="Returns PLM slopes for a column where the slopes are the difference in value across each cell...">
<polygon fill="white" stroke="black" points="134,-67 134,-97 232,-97 232,-67 134,-67"/>
<text text-anchor="start" x="142" y="-85" font-family="Helvetica,sans-Serif" font-size="10.00">mom_neutral_diffusion</text>
<text text-anchor="middle" x="183" y="-74" font-family="Helvetica,sans-Serif" font-size="10.00">::plm_diff</text>
</a>
</g>
</g>
<!-- Node28&#45;&gt;Node29 -->
<g id="edge1" class="edge"><title>Node28&#45;&gt;Node29</title>
<path fill="none" stroke="midnightblue" d="M108.012,-66.866C116.618,-68.6265 125.409,-70.4245 133.786,-72.1381"/>
<polygon fill="midnightblue" stroke="midnightblue" points="108.527,-63.399 98.0284,-64.824 107.124,-70.257 108.527,-63.399"/>
</g>
<!-- Node39 -->
<g id="node12" class="node"><title>Node39</title>
<g id="a_node12"><a xlink:href="../../d8/da4/MOM__neutral__diffusion_8F90.html#aaa569b1a008fba68731bc609d976f12a" target="_top" xlink:title="Returns true if a test of fv_diff() fails, and conditionally writes results to stream. ">
<polygon fill="white" stroke="black" points="289.5,-0.5 289.5,-19.5 344.5,-19.5 344.5,-0.5 289.5,-0.5"/>
<text text-anchor="middle" x="317" y="-7.5" font-family="Helvetica,sans-Serif" font-size="10.00">test_fv_diff</text>
</a>
</g>
</g>
<!-- Node28&#45;&gt;Node39 -->
<g id="edge13" class="edge"><title>Node28&#45;&gt;Node39</title>
<path fill="none" stroke="midnightblue" d="M108.352,-45.1285C164.603,-35.6123 247.203,-21.6387 289.26,-14.5237"/>
<polygon fill="midnightblue" stroke="midnightblue" points="107.447,-41.7318 98.1706,-46.8508 108.614,-48.6337 107.447,-41.7318"/>
</g>
<!-- Node30 -->
<g id="node3" class="node"><title>Node30</title>
<g id="a_node3"><a xlink:href="../../d8/da4/namespacemom__neutral__diffusion.html#afbc54a4e2f34af5d72c18dc96e354af7" target="_top" xlink:title="Returns interface scalar, Si, for a column of layer values, S. ">
<polygon fill="white" stroke="black" points="268,-72 268,-102 366,-102 366,-72 268,-72"/>
<text text-anchor="start" x="276" y="-90" font-family="Helvetica,sans-Serif" font-size="10.00">mom_neutral_diffusion</text>
<text text-anchor="middle" x="317" y="-79" font-family="Helvetica,sans-Serif" font-size="10.00">::interface_scalar</text>
</a>
</g>
</g>
<!-- Node29&#45;&gt;Node30 -->
<g id="edge2" class="edge"><title>Node29&#45;&gt;Node30</title>
<path fill="none" stroke="midnightblue" d="M242.292,-84.208C250.809,-84.5307 259.5,-84.8598 267.786,-85.1737"/>
<polygon fill="midnightblue" stroke="midnightblue" points="242.154,-80.7004 232.028,-83.8193 241.889,-87.6954 242.154,-80.7004"/>
</g>
<!-- Node31 -->
<g id="node4" class="node"><title>Node31</title>
<g id="a_node4"><a xlink:href="../../d8/da4/namespacemom__neutral__diffusion.html#a53d5e3f8d7610b60644aaa9f44fd854e" target="_top" xlink:title="Calculate remapping factors for u/v columns used to map adjoining columns to a shared coordinate spac...">
<polygon fill="white" stroke="black" points="402,-123.5 402,-164.5 500,-164.5 500,-123.5 402,-123.5"/>
<text text-anchor="start" x="410" y="-152.5" font-family="Helvetica,sans-Serif" font-size="10.00">mom_neutral_diffusion</text>
<text text-anchor="start" x="410" y="-141.5" font-family="Helvetica,sans-Serif" font-size="10.00">::neutral_diffusion_calc</text>
<text text-anchor="middle" x="451" y="-130.5" font-family="Helvetica,sans-Serif" font-size="10.00">_coeffs</text>
</a>
</g>
</g>
<!-- Node30&#45;&gt;Node31 -->
<g id="edge3" class="edge"><title>Node30&#45;&gt;Node31</title>
<path fill="none" stroke="midnightblue" d="M362.553,-106.239C375.366,-111.772 389.39,-117.828 402.381,-123.437"/>
<polygon fill="midnightblue" stroke="midnightblue" points="363.595,-102.877 353.027,-102.125 360.82,-109.303 363.595,-102.877"/>
</g>
<!-- Node33 -->
<g id="node6" class="node"><title>Node33</title>
<g id="a_node6"><a xlink:href="../../d8/da4/namespacemom__neutral__diffusion.html#a626e0189b03bbbf36c33cfa52e4f098d" target="_top" xlink:title="Returns a single column of neutral diffusion fluxes of a tracer. ">
<polygon fill="white" stroke="black" points="402,-75 402,-105 500,-105 500,-75 402,-75"/>
<text text-anchor="start" x="410" y="-93" font-family="Helvetica,sans-Serif" font-size="10.00">mom_neutral_diffusion</text>
<text text-anchor="middle" x="451" y="-82" font-family="Helvetica,sans-Serif" font-size="10.00">::neutral_surface_flux</text>
</a>
</g>
</g>
<!-- Node30&#45;&gt;Node33 -->
<g id="edge5" class="edge"><title>Node30&#45;&gt;Node33</title>
<path fill="none" stroke="midnightblue" d="M376.292,-88.3248C384.809,-88.5184 393.5,-88.7159 401.786,-88.9042"/>
<polygon fill="midnightblue" stroke="midnightblue" points="376.105,-84.8198 366.028,-88.0916 375.946,-91.818 376.105,-84.8198"/>
</g>
<!-- Node35 -->
<g id="node8" class="node"><title>Node35</title>
<g id="a_node8"><a xlink:href="../../d8/da4/namespacemom__neutral__diffusion.html#a72c160fad7066e2837db730c717a9ad1" target="_top" xlink:title="Returns true if unit tests of neutral_diffusion functions fail. Otherwise returns false...">
<polygon fill="white" stroke="black" points="536,-31 536,-61 640,-61 640,-31 536,-31"/>
<text text-anchor="start" x="544" y="-49" font-family="Helvetica,sans-Serif" font-size="10.00">mom_neutral_diffusion</text>
<text text-anchor="middle" x="588" y="-38" font-family="Helvetica,sans-Serif" font-size="10.00">::neutraldiffusionunittests</text>
</a>
</g>
</g>
<!-- Node30&#45;&gt;Node35 -->
<g id="edge12" class="edge"><title>Node30&#45;&gt;Node35</title>
<path fill="none" stroke="midnightblue" d="M375.852,-70.6074C384.567,-68.4996 393.486,-66.5427 402,-65 446.795,-56.8834 498.367,-51.9439 535.662,-49.144"/>
<polygon fill="midnightblue" stroke="midnightblue" points="374.986,-67.2163 366.133,-73.0373 376.683,-74.0073 374.986,-67.2163"/>
</g>
<!-- Node32 -->
<g id="node5" class="node"><title>Node32</title>
<g id="a_node5"><a xlink:href="../../da/db2/namespacemom__tracer__hor__diff.html#ae8eba26c164a4e8e4ba1008cda9850e6" target="_top" xlink:title="Compute along&#45;coordinate diffusion of all tracers using the diffusivity in CSKhTr, or using space&#45;dependent diffusivity. Multiple iterations are used (if necessary) so that there is no limit on the acceptable time increment. ">
<polygon fill="white" stroke="black" points="676,-104 676,-134 768,-134 768,-104 676,-104"/>
<text text-anchor="start" x="684" y="-122" font-family="Helvetica,sans-Serif" font-size="10.00">mom_tracer_hor_diff</text>
<text text-anchor="middle" x="722" y="-111" font-family="Helvetica,sans-Serif" font-size="10.00">::tracer_hordiff</text>
</a>
</g>
</g>
<!-- Node31&#45;&gt;Node32 -->
<g id="edge4" class="edge"><title>Node31&#45;&gt;Node32</title>
<path fill="none" stroke="midnightblue" d="M510.342,-138.578C559.917,-133.971 630.083,-127.45 675.565,-123.223"/>
<polygon fill="midnightblue" stroke="midnightblue" points="509.725,-135.12 500.092,-139.531 510.373,-142.09 509.725,-135.12"/>
</g>
<!-- Node34 -->
<g id="node7" class="node"><title>Node34</title>
<g id="a_node7"><a xlink:href="../../d8/da4/namespacemom__neutral__diffusion.html#a0aa7d320b2d623791e7de7d879930a64" target="_top" xlink:title="Update tracer concentration due to neutral diffusion; layer thickness unchanged by this update...">
<polygon fill="white" stroke="black" points="539,-82 539,-112 637,-112 637,-82 539,-82"/>
<text text-anchor="start" x="547" y="-100" font-family="Helvetica,sans-Serif" font-size="10.00">mom_neutral_diffusion</text>
<text text-anchor="middle" x="588" y="-89" font-family="Helvetica,sans-Serif" font-size="10.00">::neutral_diffusion</text>
</a>
</g>
</g>
<!-- Node33&#45;&gt;Node34 -->
<g id="edge6" class="edge"><title>Node33&#45;&gt;Node34</title>
<path fill="none" stroke="midnightblue" d="M510.532,-93.035C520.031,-93.5275 529.77,-94.0325 538.981,-94.5101"/>
<polygon fill="midnightblue" stroke="midnightblue" points="510.525,-89.53 500.357,-92.5074 510.162,-96.5206 510.525,-89.53"/>
</g>
<!-- Node33&#45;&gt;Node35 -->
<g id="edge8" class="edge"><title>Node33&#45;&gt;Node35</title>
<path fill="none" stroke="midnightblue" d="M507.6,-71.8785C518.593,-68.2956 530.021,-64.5709 540.668,-61.1009"/>
<polygon fill="midnightblue" stroke="midnightblue" points="506.505,-68.5542 498.082,-74.9808 508.674,-75.2096 506.505,-68.5542"/>
</g>
<!-- Node34&#45;&gt;Node32 -->
<g id="edge7" class="edge"><title>Node34&#45;&gt;Node32</title>
<path fill="none" stroke="midnightblue" d="M646.99,-106.665C656.665,-108.277 666.572,-109.929 675.864,-111.477"/>
<polygon fill="midnightblue" stroke="midnightblue" points="647.468,-103.196 637.028,-105.005 646.317,-110.101 647.468,-103.196"/>
</g>
<!-- Node36 -->
<g id="node9" class="node"><title>Node36</title>
<g id="a_node9"><a xlink:href="../../da/d01/namespacemom.html#a6cfc2cd88d60f051fe90e68c2f16b46b" target="_top" xlink:title="This s/r calls unit tests for other modules. These are NOT normally invoked and so we provide the mod...">
<polygon fill="white" stroke="black" points="688,-36.5 688,-55.5 756,-55.5 756,-36.5 688,-36.5"/>
<text text-anchor="middle" x="722" y="-43.5" font-family="Helvetica,sans-Serif" font-size="10.00">mom::unittests</text>
</a>
</g>
</g>
<!-- Node35&#45;&gt;Node36 -->
<g id="edge9" class="edge"><title>Node35&#45;&gt;Node36</title>
<path fill="none" stroke="midnightblue" d="M650.262,-46C663.125,-46 676.23,-46 687.608,-46"/>
<polygon fill="midnightblue" stroke="midnightblue" points="650.035,-42.5001 640.035,-46 650.035,-49.5001 650.035,-42.5001"/>
</g>
<!-- Node37 -->
<g id="node10" class="node"><title>Node37</title>
<g id="a_node10"><a xlink:href="../../da/d01/namespacemom.html#afebdc0103ad9cbe0ed4a54e522dc4104" target="_top" xlink:title="This subroutine initializes MOM. ">
<polygon fill="white" stroke="black" points="804,-36.5 804,-55.5 893,-55.5 893,-36.5 804,-36.5"/>
<text text-anchor="middle" x="848.5" y="-43.5" font-family="Helvetica,sans-Serif" font-size="10.00">mom::initialize_mom</text>
</a>
</g>
</g>
<!-- Node36&#45;&gt;Node37 -->
<g id="edge10" class="edge"><title>Node36&#45;&gt;Node37</title>
<path fill="none" stroke="midnightblue" d="M766.405,-46C778.574,-46 791.805,-46 803.981,-46"/>
<polygon fill="midnightblue" stroke="midnightblue" points="766.037,-42.5001 756.037,-46 766.037,-49.5001 766.037,-42.5001"/>
</g>
<!-- Node38 -->
<g id="node11" class="node"><title>Node38</title>
<g id="a_node11"><a xlink:href="../../de/dbc/MOM__driver_8F90.html#a08fffeb2d8e8acbf9ed4609be6d258c6" target="_top" xlink:title="mom_main">
<polygon fill="white" stroke="black" points="929,-36.5 929,-55.5 985,-55.5 985,-36.5 929,-36.5"/>
<text text-anchor="middle" x="957" y="-43.5" font-family="Helvetica,sans-Serif" font-size="10.00">mom_main</text>
</a>
</g>
</g>
<!-- Node37&#45;&gt;Node38 -->
<g id="edge11" class="edge"><title>Node37&#45;&gt;Node38</title>
<path fill="none" stroke="midnightblue" d="M903.407,-46C912.206,-46 920.981,-46 928.771,-46"/>
<polygon fill="midnightblue" stroke="midnightblue" points="903.125,-42.5001 893.125,-46 903.125,-49.5001 903.125,-42.5001"/>
</g>
<!-- Node39&#45;&gt;Node35 -->
<g id="edge14" class="edge"><title>Node39&#45;&gt;Node35</title>
<path fill="none" stroke="midnightblue" d="M354.812,-14.0206C391.615,-18.1412 449.802,-24.9299 500,-32 511.665,-33.6429 524.183,-35.5641 535.987,-37.4475"/>
<polygon fill="midnightblue" stroke="midnightblue" points="354.893,-10.5081 344.567,-12.8807 354.118,-17.4651 354.893,-10.5081"/>
</g>
</g>
</svg>
        <g id="navigator" transform="translate(0 0)" fill="#404254">
                <rect fill="#f2f5e9" fill-opacity="0.5" stroke="#606060" stroke-width=".5" x="0" y="0" width="60" height="60"/>
                <use id="zoomplus" xlink:href="#zoomPlus" x="17" y="9" onmousedown="handleZoom(evt,'in')"/>
                <use id="zoomminus" xlink:href="#zoomMin" x="42" y="9" onmousedown="handleZoom(evt,'out')"/>
                <use id="reset" xlink:href="#resetDef" x="30" y="36" onmousedown="handleReset()"/>
                <g id="arrowUp" xlink:href="#dirArrow" transform="translate(30 24)" onmousedown="handlePan(0,-1)">
                  <use xlink:href="#rim" fill="#404040">
                        <set attributeName="fill" to="#808080" begin="arrowUp.mouseover" end="arrowUp.mouseout"/>
                  </use>
                  <path fill="none" stroke="white" stroke-width="1.5" d="M0,-3.0v7 M-2.5,-0.5L0,-3.0L2.5,-0.5"/>
                </g>
                <g id="arrowRight" xlink:href="#dirArrow" transform="rotate(90) translate(36 -43)" onmousedown="handlePan(1,0)">
                  <use xlink:href="#rim" fill="#404040">
                        <set attributeName="fill" to="#808080" begin="arrowRight.mouseover" end="arrowRight.mouseout"/>
                  </use>
                  <path fill="none" stroke="white" stroke-width="1.5" d="M0,-3.0v7 M-2.5,-0.5L0,-3.0L2.5,-0.5"/>
                </g>
                <g id="arrowDown" xlink:href="#dirArrow" transform="rotate(180) translate(-30 -48)" onmousedown="handlePan(0,1)">
                  <use xlink:href="#rim" fill="#404040">
                        <set attributeName="fill" to="#808080" begin="arrowDown.mouseover" end="arrowDown.mouseout"/>
                  </use>
                  <path fill="none" stroke="white" stroke-width="1.5" d="M0,-3.0v7 M-2.5,-0.5L0,-3.0L2.5,-0.5"/>
                </g>
                <g id="arrowLeft" xlink:href="#dirArrow" transform="rotate(270) translate(-36 17)" onmousedown="handlePan(-1,0)">
                  <use xlink:href="#rim" fill="#404040">
                        <set attributeName="fill" to="#808080" begin="arrowLeft.mouseover" end="arrowLeft.mouseout"/>
                  </use>
                  <path fill="none" stroke="white" stroke-width="1.5" d="M0,-3.0v7 M-2.5,-0.5L0,-3.0L2.5,-0.5"/>
                </g>
        </g>
        <svg viewBox="0 0 15 15" width="100%" height="30px" preserveAspectRatio="xMaxYMin meet">
         <g id="arrow_out" transform="scale(0.3 0.3)">
          <a xlink:href="namespacemom__neutral__diffusion_a1c5ac28d7c54581cdd872fe58ef0b204_icgraph_org.svg" target="_base">
           <rect id="button" ry="5" rx="5" y="6" x="6" height="38" width="38"
                fill="#f2f5e9" fill-opacity="0.5" stroke="#606060" stroke-width="1.0"/>
           <path id="arrow"
             d="M 11.500037,31.436501 C 11.940474,20.09759 22.043105,11.32322 32.158766,21.979434 L 37.068811,17.246167 C 37.068811,17.246167 37.088388,32 37.088388,32 L 22.160133,31.978069 C 22.160133,31.978069 26.997745,27.140456 26.997745,27.140456 C 18.528582,18.264221 13.291696,25.230495 11.500037,31.436501 z"
             style="fill:#404040;"/>
          </a>
         </g>
        </svg>
</svg>
