<?xml version="1.0" encoding="UTF-8" standalone="no"?>
<!DOCTYPE svg PUBLIC "-//W3C//DTD SVG 1.1//EN"
 "http://www.w3.org/Graphics/SVG/1.1/DTD/svg11.dtd">
<!-- Generated by graphviz version 2.38.0 (20140413.2041)
 -->
<!-- Title: mom_domains::mom_domains_init Pages: 1 -->
<svg width="408pt" height="137pt"
 viewBox="0.00 0.00 408.00 137.00" xmlns="http://www.w3.org/2000/svg" xmlns:xlink="http://www.w3.org/1999/xlink">
<g id="graph0" class="graph" transform="scale(1 1) rotate(0) translate(4 133)">
<title>mom_domains::mom_domains_init</title>
<polygon fill="white" stroke="none" points="-4,4 -4,-133 404,-133 404,4 -4,4"/>
<!-- Node45 -->
<g id="node1" class="node"><title>Node45</title>
<polygon fill="#bfbfbf" stroke="black" points="0,-55 0,-74 140,-74 140,-55 0,-55"/>
<text text-anchor="middle" x="70" y="-62" font-family="Helvetica,sans-Serif" font-size="10.00">mom_domains::mom_domains_init</text>
</g>
<!-- Node46 -->
<g id="node2" class="node"><title>Node46</title>
<g id="a_node2"><a xlink:href="../../d0/de6/namespacemom__error__handler.html#a460cfb79a06c29fc249952c2a3710d67" target="_top" xlink:title="mom_error_handler::\lmom_error">
<polygon fill="white" stroke="black" points="177,-98.5 177,-128.5 270,-128.5 270,-98.5 177,-98.5"/>
<text text-anchor="start" x="185" y="-116.5" font-family="Helvetica,sans-Serif" font-size="10.00">mom_error_handler::</text>
<text text-anchor="middle" x="223.5" y="-105.5" font-family="Helvetica,sans-Serif" font-size="10.00">mom_error</text>
</a>
</g>
</g>
<!-- Node45&#45;&gt;Node46 -->
<g id="edge1" class="edge"><title>Node45&#45;&gt;Node46</title>
<path fill="none" stroke="midnightblue" d="M100.57,-74.064C119.473,-80.1778 144.58,-88.2982 167.097,-95.5808"/>
<polygon fill="midnightblue" stroke="midnightblue" points="166.302,-99.0023 176.894,-98.7496 168.457,-92.342 166.302,-99.0023"/>
</g>
<!-- Node48 -->
<g id="node4" class="node"><title>Node48</title>
<g id="a_node4"><a xlink:href="../../d0/de6/namespacemom__error__handler.html#a1c462df7b61f1296407b4af51dfeceab" target="_top" xlink:title="mom_error_handler::\lmom_mesg">
<polygon fill="white" stroke="black" points="177,-49.5 177,-79.5 270,-79.5 270,-49.5 177,-49.5"/>
<text text-anchor="start" x="185" y="-67.5" font-family="Helvetica,sans-Serif" font-size="10.00">mom_error_handler::</text>
<text text-anchor="middle" x="223.5" y="-56.5" font-family="Helvetica,sans-Serif" font-size="10.00">mom_mesg</text>
</a>
</g>
</g>
<!-- Node45&#45;&gt;Node48 -->
<g id="edge3" class="edge"><title>Node45&#45;&gt;Node48</title>
<path fill="none" stroke="midnightblue" d="M140.1,-64.5C149.075,-64.5 158.175,-64.5 166.891,-64.5"/>
<polygon fill="midnightblue" stroke="midnightblue" points="166.917,-68.0001 176.917,-64.5 166.917,-61.0001 166.917,-68.0001"/>
</g>
<!-- Node49 -->
<g id="node5" class="node"><title>Node49</title>
<g id="a_node5"><a xlink:href="../../df/d46/namespacemom__string__functions.html#af18b819f6c6a917c57b9690d0580f642" target="_top" xlink:title="mom_string_functions\l::slasher">
<polygon fill="white" stroke="black" points="176,-0.5 176,-30.5 271,-30.5 271,-0.5 176,-0.5"/>
<text text-anchor="start" x="184" y="-18.5" font-family="Helvetica,sans-Serif" font-size="10.00">mom_string_functions</text>
<text text-anchor="middle" x="223.5" y="-7.5" font-family="Helvetica,sans-Serif" font-size="10.00">::slasher</text>
</a>
</g>
</g>
<!-- Node45&#45;&gt;Node49 -->
<g id="edge5" class="edge"><title>Node45&#45;&gt;Node49</title>
<path fill="none" stroke="midnightblue" d="M100.57,-54.936C119.248,-48.895 143.983,-40.8948 166.291,-33.6796"/>
<polygon fill="midnightblue" stroke="midnightblue" points="167.571,-36.9446 176.008,-30.537 165.416,-30.2842 167.571,-36.9446"/>
</g>
<!-- Node47 -->
<g id="node3" class="node"><title>Node47</title>
<g id="a_node3"><a xlink:href="../../d0/de6/namespacemom__error__handler.html#ad5f00a53059c72fe2332d1436c80ca71" target="_top" xlink:title="mom_error_handler::\lis_root_pe">
<polygon fill="white" stroke="black" points="307,-73.5 307,-103.5 400,-103.5 400,-73.5 307,-73.5"/>
<text text-anchor="start" x="315" y="-91.5" font-family="Helvetica,sans-Serif" font-size="10.00">mom_error_handler::</text>
<text text-anchor="middle" x="353.5" y="-80.5" font-family="Helvetica,sans-Serif" font-size="10.00">is_root_pe</text>
</a>
</g>
</g>
<!-- Node46&#45;&gt;Node47 -->
<g id="edge2" class="edge"><title>Node46&#45;&gt;Node47</title>
<path fill="none" stroke="midnightblue" d="M270.349,-104.545C279.001,-102.855 288.136,-101.071 297.045,-99.3311"/>
<polygon fill="midnightblue" stroke="midnightblue" points="297.827,-102.745 306.971,-97.3924 296.485,-95.8743 297.827,-102.745"/>
</g>
<!-- Node48&#45;&gt;Node47 -->
<g id="edge4" class="edge"><title>Node48&#45;&gt;Node47</title>
<path fill="none" stroke="midnightblue" d="M270.349,-73.0968C279.001,-74.719 288.136,-76.4317 297.045,-78.1022"/>
<polygon fill="midnightblue" stroke="midnightblue" points="296.497,-81.5603 306.971,-79.9633 297.787,-74.6802 296.497,-81.5603"/>
</g>
</g>
</svg>
