<?xml version="1.0" encoding="UTF-8" standalone="no"?>
<!DOCTYPE svg PUBLIC "-//W3C//DTD SVG 1.1//EN"
 "http://www.w3.org/Graphics/SVG/1.1/DTD/svg11.dtd">
<!-- Generated by graphviz version 2.38.0 (20140413.2041)
 -->
<!-- Title: phillips_initialization::phillips_initialize_thickness Pages: 1 -->
<svg width="349pt" height="50pt"
 viewBox="0.00 0.00 349.00 50.00" xmlns="http://www.w3.org/2000/svg" xmlns:xlink="http://www.w3.org/1999/xlink">
<g id="graph0" class="graph" transform="scale(1 1) rotate(0) translate(4 46)">
<title>phillips_initialization::phillips_initialize_thickness</title>
<polygon fill="white" stroke="none" points="-4,4 -4,-46 345,-46 345,4 -4,4"/>
<!-- Node9 -->
<g id="node1" class="node"><title>Node9</title>
<polygon fill="#bfbfbf" stroke="black" points="0,-0.5 0,-41.5 84,-41.5 84,-0.5 0,-0.5"/>
<text text-anchor="start" x="8" y="-29.5" font-family="Helvetica,sans-Serif" font-size="10.00">phillips_initialization</text>
<text text-anchor="start" x="8" y="-18.5" font-family="Helvetica,sans-Serif" font-size="10.00">::phillips_initialize</text>
<text text-anchor="middle" x="42" y="-7.5" font-family="Helvetica,sans-Serif" font-size="10.00">_thickness</text>
</g>
<!-- Node10 -->
<g id="node2" class="node"><title>Node10</title>
<g id="a_node2"><a xlink:href="../../d9/def/namespacemom__file__parser.html#a17c0ef1bb1912f02faa0aaa1e0f64210" target="_top" xlink:title="mom_file_parser::log\l_version">
<polygon fill="white" stroke="black" points="120,-6 120,-36 212,-36 212,-6 120,-6"/>
<text text-anchor="start" x="128" y="-24" font-family="Helvetica,sans-Serif" font-size="10.00">mom_file_parser::log</text>
<text text-anchor="middle" x="166" y="-13" font-family="Helvetica,sans-Serif" font-size="10.00">_version</text>
</a>
</g>
</g>
<!-- Node9&#45;&gt;Node10 -->
<g id="edge1" class="edge"><title>Node9&#45;&gt;Node10</title>
<path fill="none" stroke="midnightblue" d="M84.3036,-21C92.5514,-21 101.337,-21 109.963,-21"/>
<polygon fill="midnightblue" stroke="midnightblue" points="109.972,-24.5001 119.972,-21 109.972,-17.5001 109.972,-24.5001"/>
</g>
<!-- Node11 -->
<g id="node3" class="node"><title>Node11</title>
<g id="a_node3"><a xlink:href="../../d0/de6/namespacemom__error__handler.html#ad5f00a53059c72fe2332d1436c80ca71" target="_top" xlink:title="mom_error_handler::\lis_root_pe">
<polygon fill="white" stroke="black" points="248,-6 248,-36 341,-36 341,-6 248,-6"/>
<text text-anchor="start" x="256" y="-24" font-family="Helvetica,sans-Serif" font-size="10.00">mom_error_handler::</text>
<text text-anchor="middle" x="294.5" y="-13" font-family="Helvetica,sans-Serif" font-size="10.00">is_root_pe</text>
</a>
</g>
</g>
<!-- Node10&#45;&gt;Node11 -->
<g id="edge2" class="edge"><title>Node10&#45;&gt;Node11</title>
<path fill="none" stroke="midnightblue" d="M212.312,-21C220.477,-21 229.077,-21 237.503,-21"/>
<polygon fill="midnightblue" stroke="midnightblue" points="237.653,-24.5001 247.653,-21 237.653,-17.5001 237.653,-24.5001"/>
</g>
</g>
</svg>
