<?xml version="1.0" encoding="UTF-8" standalone="no"?>
<!DOCTYPE svg PUBLIC "-//W3C//DTD SVG 1.1//EN"
 "http://www.w3.org/Graphics/SVG/1.1/DTD/svg11.dtd">
<!-- Generated by graphviz version 2.38.0 (20140413.2041)
 -->
<!-- Title: user_shelf_init::user_ice_shelf_cs Pages: 1 -->
<svg width="118pt" height="172pt"
 viewBox="0.00 0.00 118.00 172.00" xmlns="http://www.w3.org/2000/svg" xmlns:xlink="http://www.w3.org/1999/xlink">
<g id="graph0" class="graph" transform="scale(1 1) rotate(0) translate(4 168)">
<title>user_shelf_init::user_ice_shelf_cs</title>
<polygon fill="white" stroke="none" points="-4,4 -4,-168 114,-168 114,4 -4,4"/>
<!-- Node1 -->
<g id="node1" class="node"><title>Node1</title>
<polygon fill="#bfbfbf" stroke="black" points="-7.10543e-15,-0.5 -7.10543e-15,-30.5 88,-30.5 88,-0.5 -7.10543e-15,-0.5"/>
<text text-anchor="start" x="8" y="-18.5" font-family="Helvetica,sans-Serif" font-size="10.00">user_shelf_init::user</text>
<text text-anchor="middle" x="44" y="-7.5" font-family="Helvetica,sans-Serif" font-size="10.00">_ice_shelf_cs</text>
</g>
<!-- Node2 -->
<g id="node2" class="node"><title>Node2</title>
<polygon fill="white" stroke="#bfbfbf" points="29,-144.5 29,-163.5 59,-163.5 59,-144.5 29,-144.5"/>
<text text-anchor="middle" x="44" y="-151.5" font-family="Helvetica,sans-Serif" font-size="10.00">real</text>
</g>
<!-- Node2&#45;&gt;Node1 -->
<g id="edge1" class="edge"><title>Node2&#45;&gt;Node1</title>
<path fill="none" stroke="#9a32cd" stroke-dasharray="5,2" d="M44,-134.154C44,-106.41 44,-55.2023 44,-30.5221"/>
<polygon fill="#9a32cd" stroke="#9a32cd" points="40.5001,-134.461 44,-144.461 47.5001,-134.461 40.5001,-134.461"/>
<text text-anchor="middle" x="77" y="-118" font-family="Helvetica,sans-Serif" font-size="10.00"> shelf_slope_scale</text>
<text text-anchor="middle" x="77" y="-107" font-family="Helvetica,sans-Serif" font-size="10.00">pos_shelf_edge_0</text>
<text text-anchor="middle" x="77" y="-96" font-family="Helvetica,sans-Serif" font-size="10.00">flat_shelf_width</text>
<text text-anchor="middle" x="77" y="-85" font-family="Helvetica,sans-Serif" font-size="10.00">min_draft</text>
<text text-anchor="middle" x="77" y="-74" font-family="Helvetica,sans-Serif" font-size="10.00">shelf_speed</text>
<text text-anchor="middle" x="77" y="-63" font-family="Helvetica,sans-Serif" font-size="10.00">max_draft</text>
<text text-anchor="middle" x="77" y="-52" font-family="Helvetica,sans-Serif" font-size="10.00">rho_ocean</text>
</g>
</g>
</svg>
