<?xml version="1.0" encoding="UTF-8" standalone="no"?>
<!DOCTYPE svg PUBLIC "-//W3C//DTD SVG 1.1//EN"
 "http://www.w3.org/Graphics/SVG/1.1/DTD/svg11.dtd">
<!-- Generated by graphviz version 2.38.0 (20140413.2041)
 -->
<!-- Title: mom_fixed_initialization::set_velocity_depth_max Pages: 1 -->
<svg width="467pt" height="39pt"
 viewBox="0.00 0.00 467.00 39.00" xmlns="http://www.w3.org/2000/svg" xmlns:xlink="http://www.w3.org/1999/xlink">
<g id="graph0" class="graph" transform="scale(1 1) rotate(0) translate(4 35)">
<title>mom_fixed_initialization::set_velocity_depth_max</title>
<polygon fill="white" stroke="none" points="-4,4 -4,-35 463,-35 463,4 -4,4"/>
<!-- Node201 -->
<g id="node1" class="node"><title>Node201</title>
<polygon fill="#bfbfbf" stroke="black" points="0,-0.5 0,-30.5 106,-30.5 106,-0.5 0,-0.5"/>
<text text-anchor="start" x="8" y="-18.5" font-family="Helvetica,sans-Serif" font-size="10.00">mom_fixed_initialization</text>
<text text-anchor="middle" x="53" y="-7.5" font-family="Helvetica,sans-Serif" font-size="10.00">::set_velocity_depth_max</text>
</g>
<!-- Node202 -->
<g id="node2" class="node"><title>Node202</title>
<g id="a_node2"><a xlink:href="../../d3/da8/namespacemom__fixed__initialization.html#adce0d050de4be34a2dc4fa39b49b8c27" target="_top" xlink:title="MOM_initialize_fixed sets up time&#45;invariant quantities related to MOM6&#39;s horizontal grid...">
<polygon fill="white" stroke="black" points="142,-0.5 142,-30.5 242,-30.5 242,-0.5 142,-0.5"/>
<text text-anchor="start" x="150" y="-18.5" font-family="Helvetica,sans-Serif" font-size="10.00">mom_fixed_initialization</text>
<text text-anchor="middle" x="192" y="-7.5" font-family="Helvetica,sans-Serif" font-size="10.00">::mom_initialize_fixed</text>
</a>
</g>
</g>
<!-- Node201&#45;&gt;Node202 -->
<g id="edge1" class="edge"><title>Node201&#45;&gt;Node202</title>
<path fill="none" stroke="midnightblue" d="M116.415,-15.5C124.882,-15.5 133.474,-15.5 141.668,-15.5"/>
<polygon fill="midnightblue" stroke="midnightblue" points="116.185,-12.0001 106.185,-15.5 116.185,-19.0001 116.185,-12.0001"/>
</g>
<!-- Node203 -->
<g id="node3" class="node"><title>Node203</title>
<g id="a_node3"><a xlink:href="../../da/d01/namespacemom.html#afebdc0103ad9cbe0ed4a54e522dc4104" target="_top" xlink:title="This subroutine initializes MOM. ">
<polygon fill="white" stroke="black" points="278,-6 278,-25 367,-25 367,-6 278,-6"/>
<text text-anchor="middle" x="322.5" y="-13" font-family="Helvetica,sans-Serif" font-size="10.00">mom::initialize_mom</text>
</a>
</g>
</g>
<!-- Node202&#45;&gt;Node203 -->
<g id="edge2" class="edge"><title>Node202&#45;&gt;Node203</title>
<path fill="none" stroke="midnightblue" d="M252.357,-15.5C260.99,-15.5 269.742,-15.5 277.985,-15.5"/>
<polygon fill="midnightblue" stroke="midnightblue" points="252.314,-12.0001 242.314,-15.5 252.314,-19.0001 252.314,-12.0001"/>
</g>
<!-- Node204 -->
<g id="node4" class="node"><title>Node204</title>
<g id="a_node4"><a xlink:href="../../de/dbc/MOM__driver_8F90.html#a08fffeb2d8e8acbf9ed4609be6d258c6" target="_top" xlink:title="mom_main">
<polygon fill="white" stroke="black" points="403,-6 403,-25 459,-25 459,-6 403,-6"/>
<text text-anchor="middle" x="431" y="-13" font-family="Helvetica,sans-Serif" font-size="10.00">mom_main</text>
</a>
</g>
</g>
<!-- Node203&#45;&gt;Node204 -->
<g id="edge3" class="edge"><title>Node203&#45;&gt;Node204</title>
<path fill="none" stroke="midnightblue" d="M377.407,-15.5C386.206,-15.5 394.981,-15.5 402.771,-15.5"/>
<polygon fill="midnightblue" stroke="midnightblue" points="377.125,-12.0001 367.125,-15.5 377.125,-19.0001 377.125,-12.0001"/>
</g>
</g>
</svg>
