<?xml version="1.0" encoding="UTF-8" standalone="no"?>
<!DOCTYPE svg PUBLIC "-//W3C//DTD SVG 1.1//EN"
 "http://www.w3.org/Graphics/SVG/1.1/DTD/svg11.dtd">
<!-- Generated by graphviz version 2.38.0 (20140413.2041)
 -->
<!-- Title: mom_fixed_initialization::reset_face_lengths_list Pages: 1 -->
<svg width="377pt" height="153pt"
 viewBox="0.00 0.00 377.00 153.32" xmlns="http://www.w3.org/2000/svg" xmlns:xlink="http://www.w3.org/1999/xlink">
<g id="graph0" class="graph" transform="scale(1 1) rotate(0) translate(4 149.317)">
<title>mom_fixed_initialization::reset_face_lengths_list</title>
<polygon fill="white" stroke="none" points="-4,4 -4,-149.317 373,-149.317 373,4 -4,4"/>
<!-- Node163 -->
<g id="node1" class="node"><title>Node163</title>
<polygon fill="#bfbfbf" stroke="black" points="0,-40.8175 0,-70.8175 102,-70.8175 102,-40.8175 0,-40.8175"/>
<text text-anchor="start" x="8" y="-58.8175" font-family="Helvetica,sans-Serif" font-size="10.00">mom_fixed_initialization</text>
<text text-anchor="middle" x="51" y="-47.8175" font-family="Helvetica,sans-Serif" font-size="10.00">::reset_face_lengths_list</text>
</g>
<!-- Node164 -->
<g id="node2" class="node"><title>Node164</title>
<g id="a_node2"><a xlink:href="../../d0/de6/namespacemom__error__handler.html#a9cda07a87815f0e5594066162b4345c3" target="_top" xlink:title="Writes a message about entering a subroutine if call tree reporting is active. ">
<polygon fill="white" stroke="black" points="141.5,-114.817 141.5,-144.817 234.5,-144.817 234.5,-114.817 141.5,-114.817"/>
<text text-anchor="start" x="149.5" y="-132.817" font-family="Helvetica,sans-Serif" font-size="10.00">mom_error_handler::</text>
<text text-anchor="middle" x="188" y="-121.817" font-family="Helvetica,sans-Serif" font-size="10.00">calltree_enter</text>
</a>
</g>
</g>
<!-- Node163&#45;&gt;Node164 -->
<g id="edge1" class="edge"><title>Node163&#45;&gt;Node164</title>
<path fill="none" stroke="midnightblue" d="M76.9468,-70.9527C93.9723,-81.1253 117.135,-94.6604 138,-105.817 140.711,-107.267 143.522,-108.735 146.364,-110.193"/>
<polygon fill="midnightblue" stroke="midnightblue" points="144.959,-113.404 155.464,-114.782 148.111,-107.154 144.959,-113.404"/>
</g>
<!-- Node166 -->
<g id="node4" class="node"><title>Node166</title>
<g id="a_node4"><a xlink:href="../../d0/de6/namespacemom__error__handler.html#a88ea67781e2ed9b73ab7eac8ea5e8578" target="_top" xlink:title="Writes a message about leaving a subroutine if call tree reporting is active. ">
<polygon fill="white" stroke="black" points="141.5,-65.8175 141.5,-95.8175 234.5,-95.8175 234.5,-65.8175 141.5,-65.8175"/>
<text text-anchor="start" x="149.5" y="-83.8175" font-family="Helvetica,sans-Serif" font-size="10.00">mom_error_handler::</text>
<text text-anchor="middle" x="188" y="-72.8175" font-family="Helvetica,sans-Serif" font-size="10.00">calltree_leave</text>
</a>
</g>
</g>
<!-- Node163&#45;&gt;Node166 -->
<g id="edge3" class="edge"><title>Node163&#45;&gt;Node166</title>
<path fill="none" stroke="midnightblue" d="M102.269,-65.1265C111.728,-66.8781 121.67,-68.7193 131.283,-70.4995"/>
<polygon fill="midnightblue" stroke="midnightblue" points="130.678,-73.9469 141.148,-72.3263 131.953,-67.0639 130.678,-73.9469"/>
</g>
<!-- Node167 -->
<g id="node5" class="node"><title>Node167</title>
<g id="a_node5"><a xlink:href="../../d3/da8/namespacemom__fixed__initialization.html#a1b7e4bffb91cabfdf9967d5f966109fe" target="_top" xlink:title="mom_fixed_initialization\l::read_face_length_list">
<polygon fill="white" stroke="black" points="138,-16.8175 138,-46.8175 238,-46.8175 238,-16.8175 138,-16.8175"/>
<text text-anchor="start" x="146" y="-34.8175" font-family="Helvetica,sans-Serif" font-size="10.00">mom_fixed_initialization</text>
<text text-anchor="middle" x="188" y="-23.8175" font-family="Helvetica,sans-Serif" font-size="10.00">::read_face_length_list</text>
</a>
</g>
</g>
<!-- Node163&#45;&gt;Node167 -->
<g id="edge5" class="edge"><title>Node163&#45;&gt;Node167</title>
<path fill="none" stroke="midnightblue" d="M102.269,-46.8807C110.567,-45.4056 119.237,-43.8642 127.73,-42.3543"/>
<polygon fill="midnightblue" stroke="midnightblue" points="128.354,-45.7983 137.587,-40.6019 127.129,-38.9064 128.354,-45.7983"/>
</g>
<!-- Node168 -->
<g id="node6" class="node"><title>Node168</title>
<g id="a_node6"><a xlink:href="../../df/d46/namespacemom__string__functions.html#aca148baf726de2f028b7e7baad3c85d4" target="_top" xlink:title="mom_string_functions\l::uppercase">
<polygon fill="white" stroke="black" points="274,-5.81745 274,-35.8175 369,-35.8175 369,-5.81745 274,-5.81745"/>
<text text-anchor="start" x="282" y="-23.8175" font-family="Helvetica,sans-Serif" font-size="10.00">mom_string_functions</text>
<text text-anchor="middle" x="321.5" y="-12.8175" font-family="Helvetica,sans-Serif" font-size="10.00">::uppercase</text>
</a>
</g>
</g>
<!-- Node163&#45;&gt;Node168 -->
<g id="edge7" class="edge"><title>Node163&#45;&gt;Node168</title>
<path fill="none" stroke="midnightblue" d="M71.5413,-40.7287C88.1767,-28.8973 113.249,-13.3737 138,-6.81745 179.274,4.1159 227.498,-0.284829 264.006,-6.93482"/>
<polygon fill="midnightblue" stroke="midnightblue" points="263.494,-10.4007 273.977,-8.85923 264.821,-3.5275 263.494,-10.4007"/>
</g>
<!-- Node165 -->
<g id="node3" class="node"><title>Node165</title>
<g id="a_node3"><a xlink:href="../../d0/de6/namespacemom__error__handler.html#ad5f00a53059c72fe2332d1436c80ca71" target="_top" xlink:title="mom_error_handler::\lis_root_pe">
<polygon fill="white" stroke="black" points="275,-76.8175 275,-106.817 368,-106.817 368,-76.8175 275,-76.8175"/>
<text text-anchor="start" x="283" y="-94.8175" font-family="Helvetica,sans-Serif" font-size="10.00">mom_error_handler::</text>
<text text-anchor="middle" x="321.5" y="-83.8175" font-family="Helvetica,sans-Serif" font-size="10.00">is_root_pe</text>
</a>
</g>
</g>
<!-- Node164&#45;&gt;Node165 -->
<g id="edge2" class="edge"><title>Node164&#45;&gt;Node165</title>
<path fill="none" stroke="midnightblue" d="M234.623,-116.634C244.517,-113.774 255.084,-110.721 265.301,-107.768"/>
<polygon fill="midnightblue" stroke="midnightblue" points="266.322,-111.117 274.957,-104.978 264.379,-104.392 266.322,-111.117"/>
</g>
<!-- Node166&#45;&gt;Node165 -->
<g id="edge4" class="edge"><title>Node166&#45;&gt;Node165</title>
<path fill="none" stroke="midnightblue" d="M234.623,-84.6338C244.415,-85.4529 254.866,-86.3272 264.985,-87.1736"/>
<polygon fill="midnightblue" stroke="midnightblue" points="264.7,-90.6619 274.957,-88.0078 265.284,-83.6863 264.7,-90.6619"/>
</g>
<!-- Node167&#45;&gt;Node168 -->
<g id="edge6" class="edge"><title>Node167&#45;&gt;Node168</title>
<path fill="none" stroke="midnightblue" d="M238.34,-27.6902C246.63,-26.9967 255.291,-26.2722 263.751,-25.5645"/>
<polygon fill="midnightblue" stroke="midnightblue" points="264.256,-29.0346 273.93,-24.7131 263.673,-22.0589 264.256,-29.0346"/>
</g>
</g>
</svg>
