<?xml version="1.0" encoding="UTF-8" standalone="no"?>
<!DOCTYPE svg PUBLIC "-//W3C//DTD SVG 1.1//EN"
 "http://www.w3.org/Graphics/SVG/1.1/DTD/svg11.dtd">
<!-- Generated by graphviz version 2.38.0 (20140413.2041)
 -->
<!-- Title: mom_fixed_initialization::set_rotation_planetary Pages: 1 -->
<!--zoomable 110 -->
<svg id="main" version="1.1" xmlns="http://www.w3.org/2000/svg" xmlns:xlink="http://www.w3.org/1999/xlink" xml:space="preserve" onload="init(evt)">
<style type="text/css"><![CDATA[
.edge:hover path { stroke: red; }
.edge:hover polygon { stroke: red; fill: red; }
]]></style>
<script type="text/javascript"><![CDATA[
var edges = document.getElementsByTagName('g');
if (edges && edges.length) {
  for (var i=0;i<edges.length;i++) {
    if (edges[i].id.substr(0,4)=='edge') {
      edges[i].setAttribute('class','edge');
    }
  }
}
]]></script>
        <defs>
                <circle id="rim" cx="0" cy="0" r="7"/>
                <circle id="rim2" cx="0" cy="0" r="3.5"/>
                <g id="zoomPlus">
                        <use xlink:href="#rim" fill="#404040">
                                <set attributeName="fill" to="#808080" begin="zoomplus.mouseover" end="zoomplus.mouseout"/>
                        </use>
                        <path d="M-4,0h8M0,-4v8" fill="none" stroke="white" stroke-width="1.5" pointer-events="none"/>
                </g>
                <g id="zoomMin">
                        <use xlink:href="#rim" fill="#404040">
                                <set attributeName="fill" to="#808080" begin="zoomminus.mouseover" end="zoomminus.mouseout"/>
                        </use>
                        <path d="M-4,0h8" fill="none" stroke="white" stroke-width="1.5" pointer-events="none"/>
                </g>
                <g id="dirArrow">
                        <path fill="none" stroke="white" stroke-width="1.5" d="M0,-3.0v7 M-2.5,-0.5L0,-3.0L2.5,-0.5"/>
                </g>
               <g id="resetDef">
                       <use xlink:href="#rim2" fill="#404040">
                               <set attributeName="fill" to="#808080" begin="reset.mouseover" end="reset.mouseout"/>
                       </use>
               </g>
        </defs>

<script type="text/javascript">
var viewWidth = 601;
var viewHeight = 110;
var sectionId = 'dynsection-27';
</script>
<script xlink:href="../../svgpan.js"/>
<svg id="graph" class="graph">
<g id="viewport">
<title>mom_fixed_initialization::set_rotation_planetary</title>
<polygon fill="white" stroke="none" points="-4,4 -4,-105.5 597,-105.5 597,4 -4,4"/>
<!-- Node193 -->
<g id="node1" class="node"><title>Node193</title>
<polygon fill="#bfbfbf" stroke="black" points="0,-24.5 0,-54.5 101,-54.5 101,-24.5 0,-24.5"/>
<text text-anchor="start" x="8" y="-42.5" font-family="Helvetica,sans-Serif" font-size="10.00">mom_fixed_initialization</text>
<text text-anchor="middle" x="50.5" y="-31.5" font-family="Helvetica,sans-Serif" font-size="10.00">::set_rotation_planetary</text>
</g>
<!-- Node194 -->
<g id="node2" class="node"><title>Node194</title>
<g id="a_node2"><a xlink:href="../../d3/da8/namespacemom__fixed__initialization.html#a9442ac755a7c5ffe0415e0b021e8acbd" target="_top" xlink:title="mom_fixed_initialization\l::mom_initialize_rotation">
<polygon fill="white" stroke="black" points="137,-24.5 137,-54.5 239,-54.5 239,-24.5 137,-24.5"/>
<text text-anchor="start" x="145" y="-42.5" font-family="Helvetica,sans-Serif" font-size="10.00">mom_fixed_initialization</text>
<text text-anchor="middle" x="188" y="-31.5" font-family="Helvetica,sans-Serif" font-size="10.00">::mom_initialize_rotation</text>
</a>
</g>
</g>
<!-- Node193&#45;&gt;Node194 -->
<g id="edge1" class="edge"><title>Node193&#45;&gt;Node194</title>
<path fill="none" stroke="midnightblue" d="M111.428,-39.5C119.923,-39.5 128.583,-39.5 136.867,-39.5"/>
<polygon fill="midnightblue" stroke="midnightblue" points="111.186,-36.0001 101.186,-39.5 111.186,-43.0001 111.186,-36.0001"/>
</g>
<!-- Node195 -->
<g id="node3" class="node"><title>Node195</title>
<g id="a_node3"><a xlink:href="../../df/da2/namespacemom__ice__shelf.html#ae315e8464ef8a20062e3bccb61886755" target="_top" xlink:title="mom_ice_shelf::initialize\l_ice_shelf">
<polygon fill="white" stroke="black" points="275,-49.5 275,-79.5 376,-79.5 376,-49.5 275,-49.5"/>
<text text-anchor="start" x="283" y="-67.5" font-family="Helvetica,sans-Serif" font-size="10.00">mom_ice_shelf::initialize</text>
<text text-anchor="middle" x="325.5" y="-56.5" font-family="Helvetica,sans-Serif" font-size="10.00">_ice_shelf</text>
</a>
</g>
</g>
<!-- Node194&#45;&gt;Node195 -->
<g id="edge2" class="edge"><title>Node194&#45;&gt;Node195</title>
<path fill="none" stroke="midnightblue" d="M249.009,-50.5718C257.57,-52.1513 266.297,-53.7615 274.636,-55.2999"/>
<polygon fill="midnightblue" stroke="midnightblue" points="249.539,-47.1106 239.07,-48.738 248.269,-53.9944 249.539,-47.1106"/>
</g>
<!-- Node198 -->
<g id="node6" class="node"><title>Node198</title>
<g id="a_node6"><a xlink:href="../../d3/da8/namespacemom__fixed__initialization.html#adce0d050de4be34a2dc4fa39b49b8c27" target="_top" xlink:title="MOM_initialize_fixed sets up time&#45;invariant quantities related to MOM6&#39;s horizontal grid...">
<polygon fill="white" stroke="black" points="275.5,-0.5 275.5,-30.5 375.5,-30.5 375.5,-0.5 275.5,-0.5"/>
<text text-anchor="start" x="283.5" y="-18.5" font-family="Helvetica,sans-Serif" font-size="10.00">mom_fixed_initialization</text>
<text text-anchor="middle" x="325.5" y="-7.5" font-family="Helvetica,sans-Serif" font-size="10.00">::mom_initialize_fixed</text>
</a>
</g>
</g>
<!-- Node194&#45;&gt;Node198 -->
<g id="edge5" class="edge"><title>Node194&#45;&gt;Node198</title>
<path fill="none" stroke="midnightblue" d="M249.14,-28.8479C257.813,-27.3117 266.655,-25.7456 275.087,-24.2521"/>
<polygon fill="midnightblue" stroke="midnightblue" points="248.307,-25.441 239.07,-30.6315 249.527,-32.3337 248.307,-25.441"/>
</g>
<!-- Node196 -->
<g id="node4" class="node"><title>Node196</title>
<g id="a_node4"><a xlink:href="../../d5/d6d/ice__shelf__driver_8F90.html#aec5bef92f0dad343f545cd8d62e378d8" target="_top" xlink:title="shelf_main">
<polygon fill="white" stroke="black" points="429,-82 429,-101 484,-101 484,-82 429,-82"/>
<text text-anchor="middle" x="456.5" y="-89" font-family="Helvetica,sans-Serif" font-size="10.00">shelf_main</text>
</a>
</g>
</g>
<!-- Node195&#45;&gt;Node196 -->
<g id="edge3" class="edge"><title>Node195&#45;&gt;Node196</title>
<path fill="none" stroke="midnightblue" d="M386.21,-76.9975C401.086,-80.111 416.303,-83.2959 428.673,-85.8851"/>
<polygon fill="midnightblue" stroke="midnightblue" points="386.511,-73.4846 376.006,-74.8617 385.077,-80.3362 386.511,-73.4846"/>
</g>
<!-- Node197 -->
<g id="node5" class="node"><title>Node197</title>
<g id="a_node5"><a xlink:href="../../de/dbc/MOM__driver_8F90.html#a08fffeb2d8e8acbf9ed4609be6d258c6" target="_top" xlink:title="mom_main">
<polygon fill="white" stroke="black" points="537,-25 537,-44 593,-44 593,-25 537,-25"/>
<text text-anchor="middle" x="565" y="-32" font-family="Helvetica,sans-Serif" font-size="10.00">mom_main</text>
</a>
</g>
</g>
<!-- Node195&#45;&gt;Node197 -->
<g id="edge4" class="edge"><title>Node195&#45;&gt;Node197</title>
<path fill="none" stroke="midnightblue" d="M386.314,-56.9445C434.619,-50.8429 500.353,-42.5396 536.813,-37.9342"/>
<polygon fill="midnightblue" stroke="midnightblue" points="385.77,-53.4853 376.288,-58.211 386.648,-60.4301 385.77,-53.4853"/>
</g>
<!-- Node199 -->
<g id="node7" class="node"><title>Node199</title>
<g id="a_node7"><a xlink:href="../../da/d01/namespacemom.html#afebdc0103ad9cbe0ed4a54e522dc4104" target="_top" xlink:title="This subroutine initializes MOM. ">
<polygon fill="white" stroke="black" points="412,-6 412,-25 501,-25 501,-6 412,-6"/>
<text text-anchor="middle" x="456.5" y="-13" font-family="Helvetica,sans-Serif" font-size="10.00">mom::initialize_mom</text>
</a>
</g>
</g>
<!-- Node198&#45;&gt;Node199 -->
<g id="edge6" class="edge"><title>Node198&#45;&gt;Node199</title>
<path fill="none" stroke="midnightblue" d="M385.868,-15.5C394.667,-15.5 403.595,-15.5 411.989,-15.5"/>
<polygon fill="midnightblue" stroke="midnightblue" points="385.637,-12.0001 375.637,-15.5 385.637,-19.0001 385.637,-12.0001"/>
</g>
<!-- Node199&#45;&gt;Node197 -->
<g id="edge7" class="edge"><title>Node199&#45;&gt;Node197</title>
<path fill="none" stroke="midnightblue" d="M511.121,-25.0661C520.016,-26.653 528.897,-28.2374 536.771,-29.6423"/>
<polygon fill="midnightblue" stroke="midnightblue" points="511.584,-21.5936 501.125,-23.2828 510.355,-28.4848 511.584,-21.5936"/>
</g>
</g>
</svg>
        <g id="navigator" transform="translate(0 0)" fill="#404254">
                <rect fill="#f2f5e9" fill-opacity="0.5" stroke="#606060" stroke-width=".5" x="0" y="0" width="60" height="60"/>
                <use id="zoomplus" xlink:href="#zoomPlus" x="17" y="9" onmousedown="handleZoom(evt,'in')"/>
                <use id="zoomminus" xlink:href="#zoomMin" x="42" y="9" onmousedown="handleZoom(evt,'out')"/>
                <use id="reset" xlink:href="#resetDef" x="30" y="36" onmousedown="handleReset()"/>
                <g id="arrowUp" xlink:href="#dirArrow" transform="translate(30 24)" onmousedown="handlePan(0,-1)">
                  <use xlink:href="#rim" fill="#404040">
                        <set attributeName="fill" to="#808080" begin="arrowUp.mouseover" end="arrowUp.mouseout"/>
                  </use>
                  <path fill="none" stroke="white" stroke-width="1.5" d="M0,-3.0v7 M-2.5,-0.5L0,-3.0L2.5,-0.5"/>
                </g>
                <g id="arrowRight" xlink:href="#dirArrow" transform="rotate(90) translate(36 -43)" onmousedown="handlePan(1,0)">
                  <use xlink:href="#rim" fill="#404040">
                        <set attributeName="fill" to="#808080" begin="arrowRight.mouseover" end="arrowRight.mouseout"/>
                  </use>
                  <path fill="none" stroke="white" stroke-width="1.5" d="M0,-3.0v7 M-2.5,-0.5L0,-3.0L2.5,-0.5"/>
                </g>
                <g id="arrowDown" xlink:href="#dirArrow" transform="rotate(180) translate(-30 -48)" onmousedown="handlePan(0,1)">
                  <use xlink:href="#rim" fill="#404040">
                        <set attributeName="fill" to="#808080" begin="arrowDown.mouseover" end="arrowDown.mouseout"/>
                  </use>
                  <path fill="none" stroke="white" stroke-width="1.5" d="M0,-3.0v7 M-2.5,-0.5L0,-3.0L2.5,-0.5"/>
                </g>
                <g id="arrowLeft" xlink:href="#dirArrow" transform="rotate(270) translate(-36 17)" onmousedown="handlePan(-1,0)">
                  <use xlink:href="#rim" fill="#404040">
                        <set attributeName="fill" to="#808080" begin="arrowLeft.mouseover" end="arrowLeft.mouseout"/>
                  </use>
                  <path fill="none" stroke="white" stroke-width="1.5" d="M0,-3.0v7 M-2.5,-0.5L0,-3.0L2.5,-0.5"/>
                </g>
        </g>
        <svg viewBox="0 0 15 15" width="100%" height="30px" preserveAspectRatio="xMaxYMin meet">
         <g id="arrow_out" transform="scale(0.3 0.3)">
          <a xlink:href="namespacemom__fixed__initialization_aa14d02910013774bebbc5cf89e6d3077_icgraph_org.svg" target="_base">
           <rect id="button" ry="5" rx="5" y="6" x="6" height="38" width="38"
                fill="#f2f5e9" fill-opacity="0.5" stroke="#606060" stroke-width="1.0"/>
           <path id="arrow"
             d="M 11.500037,31.436501 C 11.940474,20.09759 22.043105,11.32322 32.158766,21.979434 L 37.068811,17.246167 C 37.068811,17.246167 37.088388,32 37.088388,32 L 22.160133,31.978069 C 22.160133,31.978069 26.997745,27.140456 26.997745,27.140456 C 18.528582,18.264221 13.291696,25.230495 11.500037,31.436501 z"
             style="fill:#404040;"/>
          </a>
         </g>
        </svg>
</svg>
