<?xml version="1.0" encoding="UTF-8" standalone="no"?>
<!DOCTYPE svg PUBLIC "-//W3C//DTD SVG 1.1//EN"
 "http://www.w3.org/Graphics/SVG/1.1/DTD/svg11.dtd">
<!-- Generated by graphviz version 2.38.0 (20140413.2041)
 -->
<!-- Title: mom_fixed_initialization::diagnosemaximumdepth Pages: 1 -->
<svg width="621pt" height="39pt"
 viewBox="0.00 0.00 621.00 39.00" xmlns="http://www.w3.org/2000/svg" xmlns:xlink="http://www.w3.org/1999/xlink">
<g id="graph0" class="graph" transform="scale(1 1) rotate(0) translate(4 35)">
<title>mom_fixed_initialization::diagnosemaximumdepth</title>
<polygon fill="white" stroke="none" points="-4,4 -4,-35 617,-35 617,4 -4,4"/>
<!-- Node16 -->
<g id="node1" class="node"><title>Node16</title>
<polygon fill="#bfbfbf" stroke="black" points="0,-0.5 0,-30.5 108,-30.5 108,-0.5 0,-0.5"/>
<text text-anchor="start" x="8" y="-18.5" font-family="Helvetica,sans-Serif" font-size="10.00">mom_fixed_initialization</text>
<text text-anchor="middle" x="54" y="-7.5" font-family="Helvetica,sans-Serif" font-size="10.00">::diagnosemaximumdepth</text>
</g>
<!-- Node17 -->
<g id="node2" class="node"><title>Node17</title>
<g id="a_node2"><a xlink:href="../../d3/da8/namespacemom__fixed__initialization.html#a4f19c092d796f0cbb036c96575299b11" target="_top" xlink:title="mom_fixed_initialization\l::mom_initialize_topography">
<polygon fill="white" stroke="black" points="144,-0.5 144,-30.5 260,-30.5 260,-0.5 144,-0.5"/>
<text text-anchor="start" x="152" y="-18.5" font-family="Helvetica,sans-Serif" font-size="10.00">mom_fixed_initialization</text>
<text text-anchor="middle" x="202" y="-7.5" font-family="Helvetica,sans-Serif" font-size="10.00">::mom_initialize_topography</text>
</a>
</g>
</g>
<!-- Node16&#45;&gt;Node17 -->
<g id="edge1" class="edge"><title>Node16&#45;&gt;Node17</title>
<path fill="none" stroke="midnightblue" d="M118.312,-15.5C126.763,-15.5 135.391,-15.5 143.731,-15.5"/>
<polygon fill="midnightblue" stroke="midnightblue" points="118.122,-12.0001 108.122,-15.5 118.122,-19.0001 118.122,-12.0001"/>
</g>
<!-- Node18 -->
<g id="node3" class="node"><title>Node18</title>
<g id="a_node3"><a xlink:href="../../d3/da8/namespacemom__fixed__initialization.html#adce0d050de4be34a2dc4fa39b49b8c27" target="_top" xlink:title="MOM_initialize_fixed sets up time&#45;invariant quantities related to MOM6&#39;s horizontal grid...">
<polygon fill="white" stroke="black" points="296,-0.5 296,-30.5 396,-30.5 396,-0.5 296,-0.5"/>
<text text-anchor="start" x="304" y="-18.5" font-family="Helvetica,sans-Serif" font-size="10.00">mom_fixed_initialization</text>
<text text-anchor="middle" x="346" y="-7.5" font-family="Helvetica,sans-Serif" font-size="10.00">::mom_initialize_fixed</text>
</a>
</g>
</g>
<!-- Node17&#45;&gt;Node18 -->
<g id="edge2" class="edge"><title>Node17&#45;&gt;Node18</title>
<path fill="none" stroke="midnightblue" d="M270.59,-15.5C279.04,-15.5 287.554,-15.5 295.653,-15.5"/>
<polygon fill="midnightblue" stroke="midnightblue" points="270.348,-12.0001 260.348,-15.5 270.347,-19.0001 270.348,-12.0001"/>
</g>
<!-- Node19 -->
<g id="node4" class="node"><title>Node19</title>
<g id="a_node4"><a xlink:href="../../da/d01/namespacemom.html#afebdc0103ad9cbe0ed4a54e522dc4104" target="_top" xlink:title="This subroutine initializes MOM. ">
<polygon fill="white" stroke="black" points="432,-6 432,-25 521,-25 521,-6 432,-6"/>
<text text-anchor="middle" x="476.5" y="-13" font-family="Helvetica,sans-Serif" font-size="10.00">mom::initialize_mom</text>
</a>
</g>
</g>
<!-- Node18&#45;&gt;Node19 -->
<g id="edge3" class="edge"><title>Node18&#45;&gt;Node19</title>
<path fill="none" stroke="midnightblue" d="M406.357,-15.5C414.99,-15.5 423.742,-15.5 431.985,-15.5"/>
<polygon fill="midnightblue" stroke="midnightblue" points="406.314,-12.0001 396.314,-15.5 406.314,-19.0001 406.314,-12.0001"/>
</g>
<!-- Node20 -->
<g id="node5" class="node"><title>Node20</title>
<g id="a_node5"><a xlink:href="../../de/dbc/MOM__driver_8F90.html#a08fffeb2d8e8acbf9ed4609be6d258c6" target="_top" xlink:title="mom_main">
<polygon fill="white" stroke="black" points="557,-6 557,-25 613,-25 613,-6 557,-6"/>
<text text-anchor="middle" x="585" y="-13" font-family="Helvetica,sans-Serif" font-size="10.00">mom_main</text>
</a>
</g>
</g>
<!-- Node19&#45;&gt;Node20 -->
<g id="edge4" class="edge"><title>Node19&#45;&gt;Node20</title>
<path fill="none" stroke="midnightblue" d="M531.407,-15.5C540.206,-15.5 548.981,-15.5 556.771,-15.5"/>
<polygon fill="midnightblue" stroke="midnightblue" points="531.125,-12.0001 521.125,-15.5 531.125,-19.0001 531.125,-12.0001"/>
</g>
</g>
</svg>
