<?xml version="1.0" encoding="UTF-8" standalone="no"?>
<!DOCTYPE svg PUBLIC "-//W3C//DTD SVG 1.1//EN"
 "http://www.w3.org/Graphics/SVG/1.1/DTD/svg11.dtd">
<!-- Generated by graphviz version 2.38.0 (20140413.2041)
 -->
<!-- Title: mom_fixed_initialization::mom_initialize_topography Pages: 1 -->
<!--zoomable 631 -->
<svg id="main" version="1.1" xmlns="http://www.w3.org/2000/svg" xmlns:xlink="http://www.w3.org/1999/xlink" xml:space="preserve" onload="init(evt)">
<style type="text/css"><![CDATA[
.edge:hover path { stroke: red; }
.edge:hover polygon { stroke: red; fill: red; }
]]></style>
<script type="text/javascript"><![CDATA[
var edges = document.getElementsByTagName('g');
if (edges && edges.length) {
  for (var i=0;i<edges.length;i++) {
    if (edges[i].id.substr(0,4)=='edge') {
      edges[i].setAttribute('class','edge');
    }
  }
}
]]></script>
        <defs>
                <circle id="rim" cx="0" cy="0" r="7"/>
                <circle id="rim2" cx="0" cy="0" r="3.5"/>
                <g id="zoomPlus">
                        <use xlink:href="#rim" fill="#404040">
                                <set attributeName="fill" to="#808080" begin="zoomplus.mouseover" end="zoomplus.mouseout"/>
                        </use>
                        <path d="M-4,0h8M0,-4v8" fill="none" stroke="white" stroke-width="1.5" pointer-events="none"/>
                </g>
                <g id="zoomMin">
                        <use xlink:href="#rim" fill="#404040">
                                <set attributeName="fill" to="#808080" begin="zoomminus.mouseover" end="zoomminus.mouseout"/>
                        </use>
                        <path d="M-4,0h8" fill="none" stroke="white" stroke-width="1.5" pointer-events="none"/>
                </g>
                <g id="dirArrow">
                        <path fill="none" stroke="white" stroke-width="1.5" d="M0,-3.0v7 M-2.5,-0.5L0,-3.0L2.5,-0.5"/>
                </g>
               <g id="resetDef">
                       <use xlink:href="#rim2" fill="#404040">
                               <set attributeName="fill" to="#808080" begin="reset.mouseover" end="reset.mouseout"/>
                       </use>
               </g>
        </defs>

<script type="text/javascript">
var viewWidth = 703;
var viewHeight = 631;
var sectionId = 'dynsection-15';
</script>
<script xlink:href="../../svgpan.js"/>
<svg id="graph" class="graph">
<g id="viewport">
<title>mom_fixed_initialization::mom_initialize_topography</title>
<polygon fill="white" stroke="none" points="-4,4 -4,-627 699,-627 699,4 -4,4"/>
<!-- Node123 -->
<g id="node1" class="node"><title>Node123</title>
<polygon fill="#bfbfbf" stroke="black" points="0,-300 0,-330 116,-330 116,-300 0,-300"/>
<text text-anchor="start" x="8" y="-318" font-family="Helvetica,sans-Serif" font-size="10.00">mom_fixed_initialization</text>
<text text-anchor="middle" x="58" y="-307" font-family="Helvetica,sans-Serif" font-size="10.00">::mom_initialize_topography</text>
</g>
<!-- Node124 -->
<g id="node2" class="node"><title>Node124</title>
<g id="a_node2"><a xlink:href="../../da/d42/namespacebenchmark__initialization.html#a1bebd9e20d92971e047b79c9ceb9f694" target="_top" xlink:title="This subroutine sets up the benchmark test case topography. ">
<polygon fill="white" stroke="black" points="165,-581.5 165,-622.5 266,-622.5 266,-581.5 165,-581.5"/>
<text text-anchor="start" x="173" y="-610.5" font-family="Helvetica,sans-Serif" font-size="10.00">benchmark_initialization</text>
<text text-anchor="start" x="173" y="-599.5" font-family="Helvetica,sans-Serif" font-size="10.00">::benchmark_initialize</text>
<text text-anchor="middle" x="215.5" y="-588.5" font-family="Helvetica,sans-Serif" font-size="10.00">_topography</text>
</a>
</g>
</g>
<!-- Node123&#45;&gt;Node124 -->
<g id="edge1" class="edge"><title>Node123&#45;&gt;Node124</title>
<path fill="none" stroke="midnightblue" d="M60.4246,-330.161C65.2515,-373.483 84.6548,-499.417 152,-573 153.393,-574.522 154.882,-575.971 156.448,-577.349"/>
<polygon fill="midnightblue" stroke="midnightblue" points="154.736,-580.442 164.828,-583.667 158.95,-574.852 154.736,-580.442"/>
</g>
<!-- Node128 -->
<g id="node6" class="node"><title>Node128</title>
<g id="a_node6"><a xlink:href="../../d3/da8/namespacemom__fixed__initialization.html#a98c0c5fc5e719db4fdf3f1e0d673b824" target="_top" xlink:title="mom_fixed_initialization\l::diagnosemaximumdepth">
<polygon fill="white" stroke="black" points="161.5,-229 161.5,-259 269.5,-259 269.5,-229 161.5,-229"/>
<text text-anchor="start" x="169.5" y="-247" font-family="Helvetica,sans-Serif" font-size="10.00">mom_fixed_initialization</text>
<text text-anchor="middle" x="215.5" y="-236" font-family="Helvetica,sans-Serif" font-size="10.00">::diagnosemaximumdepth</text>
</a>
</g>
</g>
<!-- Node123&#45;&gt;Node128 -->
<g id="edge6" class="edge"><title>Node123&#45;&gt;Node128</title>
<path fill="none" stroke="midnightblue" d="M88.0393,-299.901C106.241,-290.621 130.289,-278.694 152,-269 156.435,-267.02 161.078,-265.024 165.743,-263.069"/>
<polygon fill="midnightblue" stroke="midnightblue" points="167.381,-266.179 175.293,-259.133 164.714,-259.707 167.381,-266.179"/>
</g>
<!-- Node129 -->
<g id="node7" class="node"><title>Node129</title>
<g id="a_node7"><a xlink:href="../../da/d77/namespacedome2d__initialization.html#ae850c5e89a9275c4333c02828187bf81" target="_top" xlink:title="Initialize topography with a shelf and slope in a 2D domain. ">
<polygon fill="white" stroke="black" points="152,-180 152,-210 279,-210 279,-180 152,-180"/>
<text text-anchor="start" x="160" y="-198" font-family="Helvetica,sans-Serif" font-size="10.00">dome2d_initialization</text>
<text text-anchor="middle" x="215.5" y="-187" font-family="Helvetica,sans-Serif" font-size="10.00">::dome2d_initialize_topography</text>
</a>
</g>
</g>
<!-- Node123&#45;&gt;Node129 -->
<g id="edge7" class="edge"><title>Node123&#45;&gt;Node129</title>
<path fill="none" stroke="midnightblue" d="M70.3939,-299.92C86.5668,-279.406 118.015,-242.67 152,-220 154.857,-218.094 157.882,-216.296 160.999,-214.607"/>
<polygon fill="midnightblue" stroke="midnightblue" points="162.577,-217.731 169.961,-210.133 159.451,-211.468 162.577,-217.731"/>
</g>
<!-- Node130 -->
<g id="node8" class="node"><title>Node130</title>
<g id="a_node8"><a xlink:href="../../db/d96/namespacedome__initialization.html#ad7b6dd46068562244ce6be9d56ebceb1" target="_top" xlink:title="This subroutine sets up the DOME topography. ">
<polygon fill="white" stroke="black" points="156.5,-533 156.5,-563 274.5,-563 274.5,-533 156.5,-533"/>
<text text-anchor="start" x="164.5" y="-551" font-family="Helvetica,sans-Serif" font-size="10.00">dome_initialization</text>
<text text-anchor="middle" x="215.5" y="-540" font-family="Helvetica,sans-Serif" font-size="10.00">::dome_initialize_topography</text>
</a>
</g>
</g>
<!-- Node123&#45;&gt;Node130 -->
<g id="edge8" class="edge"><title>Node123&#45;&gt;Node130</title>
<path fill="none" stroke="midnightblue" d="M61.6254,-330.183C68.9548,-368.134 93.0966,-468.084 152,-524 153.133,-525.075 154.319,-526.104 155.549,-527.088"/>
<polygon fill="midnightblue" stroke="midnightblue" points="153.98,-530.251 164.226,-532.95 157.9,-524.451 153.98,-530.251"/>
</g>
<!-- Node131 -->
<g id="node9" class="node"><title>Node131</title>
<g id="a_node9"><a xlink:href="../../d3/da8/namespacemom__fixed__initialization.html#ad26bf46ecc2ec5443b48b899ab555119" target="_top" xlink:title="Read gridded depths from file. ">
<polygon fill="white" stroke="black" points="165.5,-410.5 165.5,-451.5 265.5,-451.5 265.5,-410.5 165.5,-410.5"/>
<text text-anchor="start" x="173.5" y="-439.5" font-family="Helvetica,sans-Serif" font-size="10.00">mom_fixed_initialization</text>
<text text-anchor="start" x="173.5" y="-428.5" font-family="Helvetica,sans-Serif" font-size="10.00">::initialize_topography</text>
<text text-anchor="middle" x="215.5" y="-417.5" font-family="Helvetica,sans-Serif" font-size="10.00">_from_file</text>
</a>
</g>
</g>
<!-- Node123&#45;&gt;Node131 -->
<g id="edge11" class="edge"><title>Node123&#45;&gt;Node131</title>
<path fill="none" stroke="midnightblue" d="M77.1875,-330.187C95.6927,-345.468 125.361,-369.5 152,-389 159.051,-394.162 166.681,-399.491 174.107,-404.549"/>
<polygon fill="midnightblue" stroke="midnightblue" points="172.436,-407.644 182.684,-410.336 176.352,-401.841 172.436,-407.644"/>
</g>
<!-- Node135 -->
<g id="node13" class="node"><title>Node135</title>
<g id="a_node13"><a xlink:href="../../d3/da8/namespacemom__fixed__initialization.html#ab1b4299019cccf47c25148c3bb5a9618" target="_top" xlink:title="mom_fixed_initialization\l::initialize_topography_named">
<polygon fill="white" stroke="black" points="315,-352 315,-382 437,-382 437,-352 315,-352"/>
<text text-anchor="start" x="323" y="-370" font-family="Helvetica,sans-Serif" font-size="10.00">mom_fixed_initialization</text>
<text text-anchor="middle" x="376" y="-359" font-family="Helvetica,sans-Serif" font-size="10.00">::initialize_topography_named</text>
</a>
</g>
</g>
<!-- Node123&#45;&gt;Node135 -->
<g id="edge19" class="edge"><title>Node123&#45;&gt;Node135</title>
<path fill="none" stroke="midnightblue" d="M116.012,-325.655C127.896,-327.811 140.349,-330.021 152,-332 203.078,-340.675 260.871,-349.724 304.823,-356.448"/>
<polygon fill="midnightblue" stroke="midnightblue" points="304.418,-359.926 314.832,-357.975 305.475,-353.007 304.418,-359.926"/>
</g>
<!-- Node136 -->
<g id="node14" class="node"><title>Node136</title>
<g id="a_node14"><a xlink:href="../../d7/d55/namespaceisomip__initialization.html#ab744ce65e54b3ba5f6107dd909ded31f" target="_top" xlink:title="Initialization of topography. ">
<polygon fill="white" stroke="black" points="155.5,-484 155.5,-514 275.5,-514 275.5,-484 155.5,-484"/>
<text text-anchor="start" x="163.5" y="-502" font-family="Helvetica,sans-Serif" font-size="10.00">isomip_initialization</text>
<text text-anchor="middle" x="215.5" y="-491" font-family="Helvetica,sans-Serif" font-size="10.00">::isomip_initialize_topography</text>
</a>
</g>
</g>
<!-- Node123&#45;&gt;Node136 -->
<g id="edge22" class="edge"><title>Node123&#45;&gt;Node136</title>
<path fill="none" stroke="midnightblue" d="M65.8016,-330.243C79.075,-358.689 110.775,-420.627 152,-461 158.729,-467.59 166.806,-473.552 174.884,-478.695"/>
<polygon fill="midnightblue" stroke="midnightblue" points="173.216,-481.777 183.587,-483.947 176.833,-475.784 173.216,-481.777"/>
</g>
<!-- Node137 -->
<g id="node15" class="node"><title>Node137</title>
<g id="a_node15"><a xlink:href="../../d3/da8/namespacemom__fixed__initialization.html#a5abe8dd9586131d84be91c89fe604b14" target="_top" xlink:title="mom_fixed_initialization\l::limit_topography">
<polygon fill="white" stroke="black" points="326,-303 326,-333 426,-333 426,-303 326,-303"/>
<text text-anchor="start" x="334" y="-321" font-family="Helvetica,sans-Serif" font-size="10.00">mom_fixed_initialization</text>
<text text-anchor="middle" x="376" y="-310" font-family="Helvetica,sans-Serif" font-size="10.00">::limit_topography</text>
</a>
</g>
</g>
<!-- Node123&#45;&gt;Node137 -->
<g id="edge25" class="edge"><title>Node123&#45;&gt;Node137</title>
<path fill="none" stroke="midnightblue" d="M116.045,-317.131C127.926,-317.493 140.37,-317.812 152,-318 207.485,-318.895 270.746,-318.788 315.682,-318.52"/>
<polygon fill="midnightblue" stroke="midnightblue" points="315.859,-322.019 325.836,-318.455 315.814,-315.019 315.859,-322.019"/>
</g>
<!-- Node138 -->
<g id="node16" class="node"><title>Node138</title>
<g id="a_node16"><a xlink:href="../../d8/ddc/namespacephillips__initialization.html#ab5f39293a8f869e414bf3c9218d02703" target="_top" xlink:title="Initialize topography. ">
<polygon fill="white" stroke="black" points="173.5,-120.5 173.5,-161.5 257.5,-161.5 257.5,-120.5 173.5,-120.5"/>
<text text-anchor="start" x="181.5" y="-149.5" font-family="Helvetica,sans-Serif" font-size="10.00">phillips_initialization</text>
<text text-anchor="start" x="181.5" y="-138.5" font-family="Helvetica,sans-Serif" font-size="10.00">::phillips_initialize</text>
<text text-anchor="middle" x="215.5" y="-127.5" font-family="Helvetica,sans-Serif" font-size="10.00">_topography</text>
</a>
</g>
</g>
<!-- Node123&#45;&gt;Node138 -->
<g id="edge28" class="edge"><title>Node123&#45;&gt;Node138</title>
<path fill="none" stroke="midnightblue" d="M65.4938,-299.584C78.2543,-270.891 109.134,-208.782 152,-171 155.852,-167.605 160.155,-164.509 164.652,-161.706"/>
<polygon fill="midnightblue" stroke="midnightblue" points="166.521,-164.67 173.473,-156.675 163.053,-158.589 166.521,-164.67"/>
</g>
<!-- Node139 -->
<g id="node17" class="node"><title>Node139</title>
<g id="a_node17"><a xlink:href="../../d7/d25/namespaceseamount__initialization.html#ad0d12dd03f77e4a827fcd925805b92c9" target="_top" xlink:title="Initialization of topography. ">
<polygon fill="white" stroke="black" points="167.5,-60.5 167.5,-101.5 263.5,-101.5 263.5,-60.5 167.5,-60.5"/>
<text text-anchor="start" x="175.5" y="-89.5" font-family="Helvetica,sans-Serif" font-size="10.00">seamount_initialization</text>
<text text-anchor="start" x="175.5" y="-78.5" font-family="Helvetica,sans-Serif" font-size="10.00">::seamount_initialize</text>
<text text-anchor="middle" x="215.5" y="-67.5" font-family="Helvetica,sans-Serif" font-size="10.00">_topography</text>
</a>
</g>
</g>
<!-- Node123&#45;&gt;Node139 -->
<g id="edge29" class="edge"><title>Node123&#45;&gt;Node139</title>
<path fill="none" stroke="midnightblue" d="M62.1332,-299.916C70.4891,-263.106 96.5476,-167.561 152,-111 154.093,-108.865 156.369,-106.862 158.772,-104.985"/>
<polygon fill="midnightblue" stroke="midnightblue" points="161.097,-107.634 167.352,-99.0822 157.129,-101.866 161.097,-107.634"/>
</g>
<!-- Node140 -->
<g id="node18" class="node"><title>Node140</title>
<g id="a_node18"><a xlink:href="../../d0/d18/namespacesloshing__initialization.html#a0ecf019d4e63415fc16ce5ca4158f7f3" target="_top" xlink:title="Initialization of topography. ">
<polygon fill="white" stroke="black" points="171,-0.5 171,-41.5 260,-41.5 260,-0.5 171,-0.5"/>
<text text-anchor="start" x="179" y="-29.5" font-family="Helvetica,sans-Serif" font-size="10.00">sloshing_initialization</text>
<text text-anchor="start" x="179" y="-18.5" font-family="Helvetica,sans-Serif" font-size="10.00">::sloshing_initialize</text>
<text text-anchor="middle" x="215.5" y="-7.5" font-family="Helvetica,sans-Serif" font-size="10.00">_topography</text>
</a>
</g>
</g>
<!-- Node123&#45;&gt;Node140 -->
<g id="edge30" class="edge"><title>Node123&#45;&gt;Node140</title>
<path fill="none" stroke="midnightblue" d="M60.3301,-299.851C64.9358,-255.953 83.8726,-126.976 152,-51 155.02,-47.6326 158.499,-44.6074 162.239,-41.8965"/>
<polygon fill="midnightblue" stroke="midnightblue" points="164.219,-44.7848 170.764,-36.453 160.452,-38.8851 164.219,-44.7848"/>
</g>
<!-- Node141 -->
<g id="node19" class="node"><title>Node141</title>
<g id="a_node19"><a xlink:href="../../d9/dfa/namespaceuser__initialization.html#a39483698187dc74f75d280256eae29d3" target="_top" xlink:title="Initialize topography. ">
<polygon fill="white" stroke="black" points="159,-278 159,-308 272,-308 272,-278 159,-278"/>
<text text-anchor="start" x="167" y="-296" font-family="Helvetica,sans-Serif" font-size="10.00">user_initialization</text>
<text text-anchor="middle" x="215.5" y="-285" font-family="Helvetica,sans-Serif" font-size="10.00">::user_initialize_topography</text>
</a>
</g>
</g>
<!-- Node123&#45;&gt;Node141 -->
<g id="edge31" class="edge"><title>Node123&#45;&gt;Node141</title>
<path fill="none" stroke="midnightblue" d="M116.019,-306.933C126.704,-305.421 137.952,-303.83 148.873,-302.285"/>
<polygon fill="midnightblue" stroke="midnightblue" points="149.374,-305.749 158.785,-300.883 148.393,-298.818 149.374,-305.749"/>
</g>
<!-- Node125 -->
<g id="node3" class="node"><title>Node125</title>
<g id="a_node3"><a xlink:href="../../d9/def/namespacemom__file__parser.html#a17c0ef1bb1912f02faa0aaa1e0f64210" target="_top" xlink:title="mom_file_parser::log\l_version">
<polygon fill="white" stroke="black" points="330,-538 330,-568 422,-568 422,-538 330,-538"/>
<text text-anchor="start" x="338" y="-556" font-family="Helvetica,sans-Serif" font-size="10.00">mom_file_parser::log</text>
<text text-anchor="middle" x="376" y="-545" font-family="Helvetica,sans-Serif" font-size="10.00">_version</text>
</a>
</g>
</g>
<!-- Node124&#45;&gt;Node125 -->
<g id="edge2" class="edge"><title>Node124&#45;&gt;Node125</title>
<path fill="none" stroke="midnightblue" d="M266.216,-586.631C283.215,-581.375 302.331,-575.465 319.741,-570.083"/>
<polygon fill="midnightblue" stroke="midnightblue" points="321.246,-573.282 329.766,-566.984 319.178,-566.594 321.246,-573.282"/>
</g>
<!-- Node127 -->
<g id="node5" class="node"><title>Node127</title>
<g id="a_node5"><a xlink:href="../../d0/de6/namespacemom__error__handler.html#a1c462df7b61f1296407b4af51dfeceab" target="_top" xlink:title="mom_error_handler::\lmom_mesg">
<polygon fill="white" stroke="black" points="329.5,-587 329.5,-617 422.5,-617 422.5,-587 329.5,-587"/>
<text text-anchor="start" x="337.5" y="-605" font-family="Helvetica,sans-Serif" font-size="10.00">mom_error_handler::</text>
<text text-anchor="middle" x="376" y="-594" font-family="Helvetica,sans-Serif" font-size="10.00">mom_mesg</text>
</a>
</g>
</g>
<!-- Node124&#45;&gt;Node127 -->
<g id="edge4" class="edge"><title>Node124&#45;&gt;Node127</title>
<path fill="none" stroke="midnightblue" d="M266.216,-602C282.981,-602 301.805,-602 319.021,-602"/>
<polygon fill="midnightblue" stroke="midnightblue" points="319.5,-605.5 329.5,-602 319.5,-598.5 319.5,-605.5"/>
</g>
<!-- Node126 -->
<g id="node4" class="node"><title>Node126</title>
<g id="a_node4"><a xlink:href="../../d0/de6/namespacemom__error__handler.html#ad5f00a53059c72fe2332d1436c80ca71" target="_top" xlink:title="mom_error_handler::\lis_root_pe">
<polygon fill="white" stroke="black" points="602,-445 602,-475 695,-475 695,-445 602,-445"/>
<text text-anchor="start" x="610" y="-463" font-family="Helvetica,sans-Serif" font-size="10.00">mom_error_handler::</text>
<text text-anchor="middle" x="648.5" y="-452" font-family="Helvetica,sans-Serif" font-size="10.00">is_root_pe</text>
</a>
</g>
</g>
<!-- Node125&#45;&gt;Node126 -->
<g id="edge3" class="edge"><title>Node125&#45;&gt;Node126</title>
<path fill="none" stroke="midnightblue" d="M420.761,-537.955C468.1,-521.679 543.591,-495.725 594.317,-478.285"/>
<polygon fill="midnightblue" stroke="midnightblue" points="595.483,-481.585 603.802,-475.024 593.207,-474.965 595.483,-481.585"/>
</g>
<!-- Node127&#45;&gt;Node126 -->
<g id="edge5" class="edge"><title>Node127&#45;&gt;Node126</title>
<path fill="none" stroke="midnightblue" d="M415.555,-586.983C422.716,-584.079 430.11,-581.004 437,-578 495.136,-552.656 511.153,-548.842 566,-517 584.647,-506.174 604.494,-492.347 619.934,-481.023"/>
<polygon fill="midnightblue" stroke="midnightblue" points="622.076,-483.792 628.023,-475.024 617.906,-478.17 622.076,-483.792"/>
</g>
<!-- Node130&#45;&gt;Node125 -->
<g id="edge9" class="edge"><title>Node130&#45;&gt;Node125</title>
<path fill="none" stroke="midnightblue" d="M274.62,-549.833C289.265,-550.295 304.949,-550.79 319.465,-551.248"/>
<polygon fill="midnightblue" stroke="midnightblue" points="319.69,-554.757 329.796,-551.574 319.911,-547.76 319.69,-554.757"/>
</g>
<!-- Node130&#45;&gt;Node127 -->
<g id="edge10" class="edge"><title>Node130&#45;&gt;Node127</title>
<path fill="none" stroke="midnightblue" d="M260.651,-563.042C279.465,-569.452 301.586,-576.988 321.333,-583.716"/>
<polygon fill="midnightblue" stroke="midnightblue" points="320.217,-587.033 330.811,-586.945 322.474,-580.407 320.217,-587.033"/>
</g>
<!-- Node132 -->
<g id="node10" class="node"><title>Node132</title>
<g id="a_node10"><a xlink:href="../../d3/da8/namespacemom__fixed__initialization.html#a2b7caa31b4dd1b23ce052bdad8141fbc" target="_top" xlink:title="Applies a list of topography overrides read from a netcdf file. ">
<polygon fill="white" stroke="black" points="323,-439.5 323,-480.5 429,-480.5 429,-439.5 323,-439.5"/>
<text text-anchor="start" x="331" y="-468.5" font-family="Helvetica,sans-Serif" font-size="10.00">mom_fixed_initialization</text>
<text text-anchor="start" x="331" y="-457.5" font-family="Helvetica,sans-Serif" font-size="10.00">::apply_topography_edits</text>
<text text-anchor="middle" x="376" y="-446.5" font-family="Helvetica,sans-Serif" font-size="10.00">_from_file</text>
</a>
</g>
</g>
<!-- Node131&#45;&gt;Node132 -->
<g id="edge12" class="edge"><title>Node131&#45;&gt;Node132</title>
<path fill="none" stroke="midnightblue" d="M265.782,-440.017C280.616,-442.731 297.094,-445.746 312.659,-448.594"/>
<polygon fill="midnightblue" stroke="midnightblue" points="312.262,-452.079 322.729,-450.436 313.522,-445.193 312.262,-452.079"/>
</g>
<!-- Node133 -->
<g id="node11" class="node"><title>Node133</title>
<g id="a_node11"><a xlink:href="../../d0/de6/namespacemom__error__handler.html#a9cda07a87815f0e5594066162b4345c3" target="_top" xlink:title="Writes a message about entering a subroutine if call tree reporting is active. ">
<polygon fill="white" stroke="black" points="473,-445 473,-475 566,-475 566,-445 473,-445"/>
<text text-anchor="start" x="481" y="-463" font-family="Helvetica,sans-Serif" font-size="10.00">mom_error_handler::</text>
<text text-anchor="middle" x="519.5" y="-452" font-family="Helvetica,sans-Serif" font-size="10.00">calltree_enter</text>
</a>
</g>
</g>
<!-- Node131&#45;&gt;Node133 -->
<g id="edge17" class="edge"><title>Node131&#45;&gt;Node133</title>
<path fill="none" stroke="midnightblue" d="M246.71,-451.543C270.083,-466.963 300.783,-486.068 315,-490 367.26,-504.454 383.619,-499.513 437,-490 450.001,-487.683 463.646,-483.44 475.972,-478.86"/>
<polygon fill="midnightblue" stroke="midnightblue" points="477.483,-482.028 485.537,-475.145 474.948,-475.503 477.483,-482.028"/>
</g>
<!-- Node134 -->
<g id="node12" class="node"><title>Node134</title>
<g id="a_node12"><a xlink:href="../../d0/de6/namespacemom__error__handler.html#a88ea67781e2ed9b73ab7eac8ea5e8578" target="_top" xlink:title="Writes a message about leaving a subroutine if call tree reporting is active. ">
<polygon fill="white" stroke="black" points="473,-396 473,-426 566,-426 566,-396 473,-396"/>
<text text-anchor="start" x="481" y="-414" font-family="Helvetica,sans-Serif" font-size="10.00">mom_error_handler::</text>
<text text-anchor="middle" x="519.5" y="-403" font-family="Helvetica,sans-Serif" font-size="10.00">calltree_leave</text>
</a>
</g>
</g>
<!-- Node131&#45;&gt;Node134 -->
<g id="edge18" class="edge"><title>Node131&#45;&gt;Node134</title>
<path fill="none" stroke="midnightblue" d="M265.694,-427.742C319.663,-424.168 406.111,-418.443 462.605,-414.702"/>
<polygon fill="midnightblue" stroke="midnightblue" points="463.044,-418.18 472.79,-414.027 462.581,-411.196 463.044,-418.18"/>
</g>
<!-- Node132&#45;&gt;Node133 -->
<g id="edge13" class="edge"><title>Node132&#45;&gt;Node133</title>
<path fill="none" stroke="midnightblue" d="M429.287,-460C440.145,-460 451.627,-460 462.609,-460"/>
<polygon fill="midnightblue" stroke="midnightblue" points="462.948,-463.5 472.948,-460 462.948,-456.5 462.948,-463.5"/>
</g>
<!-- Node132&#45;&gt;Node134 -->
<g id="edge15" class="edge"><title>Node132&#45;&gt;Node134</title>
<path fill="none" stroke="midnightblue" d="M429.287,-441.893C440.973,-437.847 453.382,-433.55 465.112,-429.488"/>
<polygon fill="midnightblue" stroke="midnightblue" points="466.47,-432.721 474.775,-426.142 464.18,-426.107 466.47,-432.721"/>
</g>
<!-- Node133&#45;&gt;Node126 -->
<g id="edge14" class="edge"><title>Node133&#45;&gt;Node126</title>
<path fill="none" stroke="midnightblue" d="M566.35,-460C574.533,-460 583.141,-460 591.568,-460"/>
<polygon fill="midnightblue" stroke="midnightblue" points="591.717,-463.5 601.717,-460 591.717,-456.5 591.717,-463.5"/>
</g>
<!-- Node134&#45;&gt;Node126 -->
<g id="edge16" class="edge"><title>Node134&#45;&gt;Node126</title>
<path fill="none" stroke="midnightblue" d="M559.64,-426.101C571.953,-430.852 585.706,-436.158 598.608,-441.136"/>
<polygon fill="midnightblue" stroke="midnightblue" points="597.681,-444.53 608.27,-444.864 600.2,-437.999 597.681,-444.53"/>
</g>
<!-- Node135&#45;&gt;Node133 -->
<g id="edge20" class="edge"><title>Node135&#45;&gt;Node133</title>
<path fill="none" stroke="midnightblue" d="M396.311,-382.089C415.32,-396.648 445.426,-418.931 473,-436 475.126,-437.316 477.332,-438.632 479.574,-439.931"/>
<polygon fill="midnightblue" stroke="midnightblue" points="477.876,-442.991 488.311,-444.827 481.298,-436.885 477.876,-442.991"/>
</g>
<!-- Node135&#45;&gt;Node134 -->
<g id="edge21" class="edge"><title>Node135&#45;&gt;Node134</title>
<path fill="none" stroke="midnightblue" d="M425.301,-382.019C437.43,-385.791 450.541,-389.868 462.991,-393.739"/>
<polygon fill="midnightblue" stroke="midnightblue" points="462.215,-397.163 472.803,-396.79 464.294,-390.479 462.215,-397.163"/>
</g>
<!-- Node136&#45;&gt;Node125 -->
<g id="edge23" class="edge"><title>Node136&#45;&gt;Node125</title>
<path fill="none" stroke="midnightblue" d="M260.651,-514.042C279.465,-520.452 301.586,-527.988 321.333,-534.716"/>
<polygon fill="midnightblue" stroke="midnightblue" points="320.217,-538.033 330.811,-537.945 322.474,-531.407 320.217,-538.033"/>
</g>
<!-- Node136&#45;&gt;Node127 -->
<g id="edge24" class="edge"><title>Node136&#45;&gt;Node127</title>
<path fill="none" stroke="midnightblue" d="M263.322,-514.03C268.9,-516.866 274.281,-520.171 279,-524 301.399,-542.174 292.601,-559.826 315,-578 316.77,-579.436 318.636,-580.795 320.573,-582.08"/>
<polygon fill="midnightblue" stroke="midnightblue" points="319.034,-585.235 329.434,-587.255 322.564,-579.19 319.034,-585.235"/>
</g>
<!-- Node137&#45;&gt;Node133 -->
<g id="edge26" class="edge"><title>Node137&#45;&gt;Node133</title>
<path fill="none" stroke="midnightblue" d="M423.975,-333.011C428.746,-335.818 433.219,-339.121 437,-343 467.939,-374.737 443.53,-402.895 473,-436 473.742,-436.834 474.521,-437.643 475.33,-438.429"/>
<polygon fill="midnightblue" stroke="midnightblue" points="473.319,-441.305 483.297,-444.868 477.719,-435.86 473.319,-441.305"/>
</g>
<!-- Node137&#45;&gt;Node134 -->
<g id="edge27" class="edge"><title>Node137&#45;&gt;Node134</title>
<path fill="none" stroke="midnightblue" d="M417.84,-333.062C424.413,-336.036 431.017,-339.372 437,-343 458.469,-356.018 480.172,-374.441 495.777,-388.828"/>
<polygon fill="midnightblue" stroke="midnightblue" points="493.662,-391.642 503.349,-395.933 498.452,-386.538 493.662,-391.642"/>
</g>
<!-- Node142 -->
<g id="node20" class="node"><title>Node142</title>
<g id="a_node20"><a xlink:href="../../d0/de6/namespacemom__error__handler.html#a460cfb79a06c29fc249952c2a3710d67" target="_top" xlink:title="mom_error_handler::\lmom_error">
<polygon fill="white" stroke="black" points="473,-279 473,-309 566,-309 566,-279 473,-279"/>
<text text-anchor="start" x="481" y="-297" font-family="Helvetica,sans-Serif" font-size="10.00">mom_error_handler::</text>
<text text-anchor="middle" x="519.5" y="-286" font-family="Helvetica,sans-Serif" font-size="10.00">mom_error</text>
</a>
</g>
</g>
<!-- Node141&#45;&gt;Node142 -->
<g id="edge32" class="edge"><title>Node141&#45;&gt;Node142</title>
<path fill="none" stroke="midnightblue" d="M259.416,-277.971C266.082,-275.224 272.806,-272.204 279,-269 296.08,-260.166 296.595,-250.572 315,-245 366.896,-229.287 384.752,-230.503 437,-245 456.815,-250.498 476.641,-262.245 491.777,-272.86"/>
<polygon fill="midnightblue" stroke="midnightblue" points="489.966,-275.87 500.111,-278.922 494.084,-270.209 489.966,-275.87"/>
</g>
<!-- Node143 -->
<g id="node21" class="node"><title>Node143</title>
<g id="a_node21"><a xlink:href="../../d9/dfa/namespaceuser__initialization.html#aebfc0db710e83bae83f08e1a774256dd" target="_top" xlink:title="Write output about the parameter values being used. ">
<polygon fill="white" stroke="black" points="337.5,-254 337.5,-284 414.5,-284 414.5,-254 337.5,-254"/>
<text text-anchor="start" x="345.5" y="-272" font-family="Helvetica,sans-Serif" font-size="10.00">user_initialization</text>
<text text-anchor="middle" x="376" y="-261" font-family="Helvetica,sans-Serif" font-size="10.00">::write_user_log</text>
</a>
</g>
</g>
<!-- Node141&#45;&gt;Node143 -->
<g id="edge34" class="edge"><title>Node141&#45;&gt;Node143</title>
<path fill="none" stroke="midnightblue" d="M272.381,-284.538C290.411,-281.808 310.214,-278.81 327.573,-276.181"/>
<polygon fill="midnightblue" stroke="midnightblue" points="328.117,-279.639 337.48,-274.681 327.069,-272.718 328.117,-279.639"/>
</g>
<!-- Node142&#45;&gt;Node126 -->
<g id="edge33" class="edge"><title>Node142&#45;&gt;Node126</title>
<path fill="none" stroke="midnightblue" d="M531.994,-309.024C554.172,-338.012 603.014,-401.852 629.526,-436.507"/>
<polygon fill="midnightblue" stroke="midnightblue" points="626.9,-438.834 635.756,-444.649 632.459,-434.58 626.9,-438.834"/>
</g>
</g>
</svg>
        <g id="navigator" transform="translate(0 0)" fill="#404254">
                <rect fill="#f2f5e9" fill-opacity="0.5" stroke="#606060" stroke-width=".5" x="0" y="0" width="60" height="60"/>
                <use id="zoomplus" xlink:href="#zoomPlus" x="17" y="9" onmousedown="handleZoom(evt,'in')"/>
                <use id="zoomminus" xlink:href="#zoomMin" x="42" y="9" onmousedown="handleZoom(evt,'out')"/>
                <use id="reset" xlink:href="#resetDef" x="30" y="36" onmousedown="handleReset()"/>
                <g id="arrowUp" xlink:href="#dirArrow" transform="translate(30 24)" onmousedown="handlePan(0,-1)">
                  <use xlink:href="#rim" fill="#404040">
                        <set attributeName="fill" to="#808080" begin="arrowUp.mouseover" end="arrowUp.mouseout"/>
                  </use>
                  <path fill="none" stroke="white" stroke-width="1.5" d="M0,-3.0v7 M-2.5,-0.5L0,-3.0L2.5,-0.5"/>
                </g>
                <g id="arrowRight" xlink:href="#dirArrow" transform="rotate(90) translate(36 -43)" onmousedown="handlePan(1,0)">
                  <use xlink:href="#rim" fill="#404040">
                        <set attributeName="fill" to="#808080" begin="arrowRight.mouseover" end="arrowRight.mouseout"/>
                  </use>
                  <path fill="none" stroke="white" stroke-width="1.5" d="M0,-3.0v7 M-2.5,-0.5L0,-3.0L2.5,-0.5"/>
                </g>
                <g id="arrowDown" xlink:href="#dirArrow" transform="rotate(180) translate(-30 -48)" onmousedown="handlePan(0,1)">
                  <use xlink:href="#rim" fill="#404040">
                        <set attributeName="fill" to="#808080" begin="arrowDown.mouseover" end="arrowDown.mouseout"/>
                  </use>
                  <path fill="none" stroke="white" stroke-width="1.5" d="M0,-3.0v7 M-2.5,-0.5L0,-3.0L2.5,-0.5"/>
                </g>
                <g id="arrowLeft" xlink:href="#dirArrow" transform="rotate(270) translate(-36 17)" onmousedown="handlePan(-1,0)">
                  <use xlink:href="#rim" fill="#404040">
                        <set attributeName="fill" to="#808080" begin="arrowLeft.mouseover" end="arrowLeft.mouseout"/>
                  </use>
                  <path fill="none" stroke="white" stroke-width="1.5" d="M0,-3.0v7 M-2.5,-0.5L0,-3.0L2.5,-0.5"/>
                </g>
        </g>
        <svg viewBox="0 0 15 15" width="100%" height="30px" preserveAspectRatio="xMaxYMin meet">
         <g id="arrow_out" transform="scale(0.3 0.3)">
          <a xlink:href="namespacemom__fixed__initialization_a4f19c092d796f0cbb036c96575299b11_cgraph_org.svg" target="_base">
           <rect id="button" ry="5" rx="5" y="6" x="6" height="38" width="38"
                fill="#f2f5e9" fill-opacity="0.5" stroke="#606060" stroke-width="1.0"/>
           <path id="arrow"
             d="M 11.500037,31.436501 C 11.940474,20.09759 22.043105,11.32322 32.158766,21.979434 L 37.068811,17.246167 C 37.068811,17.246167 37.088388,32 37.088388,32 L 22.160133,31.978069 C 22.160133,31.978069 26.997745,27.140456 26.997745,27.140456 C 18.528582,18.264221 13.291696,25.230495 11.500037,31.436501 z"
             style="fill:#404040;"/>
          </a>
         </g>
        </svg>
</svg>
