<?xml version="1.0" encoding="UTF-8" standalone="no"?>
<!DOCTYPE svg PUBLIC "-//W3C//DTD SVG 1.1//EN"
 "http://www.w3.org/Graphics/SVG/1.1/DTD/svg11.dtd">
<!-- Generated by graphviz version 2.38.0 (20140413.2041)
 -->
<!-- Title: mom_fixed_initialization::set_rotation_beta_plane Pages: 1 -->
<svg width="607pt" height="110pt"
 viewBox="0.00 0.00 607.00 109.50" xmlns="http://www.w3.org/2000/svg" xmlns:xlink="http://www.w3.org/1999/xlink">
<g id="graph0" class="graph" transform="scale(1 1) rotate(0) translate(4 105.5)">
<title>mom_fixed_initialization::set_rotation_beta_plane</title>
<polygon fill="white" stroke="none" points="-4,4 -4,-105.5 603,-105.5 603,4 -4,4"/>
<!-- Node182 -->
<g id="node1" class="node"><title>Node182</title>
<polygon fill="#bfbfbf" stroke="black" points="0,-24.5 0,-54.5 107,-54.5 107,-24.5 0,-24.5"/>
<text text-anchor="start" x="8" y="-42.5" font-family="Helvetica,sans-Serif" font-size="10.00">mom_fixed_initialization</text>
<text text-anchor="middle" x="53.5" y="-31.5" font-family="Helvetica,sans-Serif" font-size="10.00">::set_rotation_beta_plane</text>
</g>
<!-- Node183 -->
<g id="node2" class="node"><title>Node183</title>
<g id="a_node2"><a xlink:href="../../d3/da8/namespacemom__fixed__initialization.html#a9442ac755a7c5ffe0415e0b021e8acbd" target="_top" xlink:title="mom_fixed_initialization\l::mom_initialize_rotation">
<polygon fill="white" stroke="black" points="143,-24.5 143,-54.5 245,-54.5 245,-24.5 143,-24.5"/>
<text text-anchor="start" x="151" y="-42.5" font-family="Helvetica,sans-Serif" font-size="10.00">mom_fixed_initialization</text>
<text text-anchor="middle" x="194" y="-31.5" font-family="Helvetica,sans-Serif" font-size="10.00">::mom_initialize_rotation</text>
</a>
</g>
</g>
<!-- Node182&#45;&gt;Node183 -->
<g id="edge1" class="edge"><title>Node182&#45;&gt;Node183</title>
<path fill="none" stroke="midnightblue" d="M117.463,-39.5C125.91,-39.5 134.483,-39.5 142.674,-39.5"/>
<polygon fill="midnightblue" stroke="midnightblue" points="117.256,-36.0001 107.256,-39.5 117.256,-43.0001 117.256,-36.0001"/>
</g>
<!-- Node184 -->
<g id="node3" class="node"><title>Node184</title>
<g id="a_node3"><a xlink:href="../../df/da2/namespacemom__ice__shelf.html#ae315e8464ef8a20062e3bccb61886755" target="_top" xlink:title="mom_ice_shelf::initialize\l_ice_shelf">
<polygon fill="white" stroke="black" points="281,-49.5 281,-79.5 382,-79.5 382,-49.5 281,-49.5"/>
<text text-anchor="start" x="289" y="-67.5" font-family="Helvetica,sans-Serif" font-size="10.00">mom_ice_shelf::initialize</text>
<text text-anchor="middle" x="331.5" y="-56.5" font-family="Helvetica,sans-Serif" font-size="10.00">_ice_shelf</text>
</a>
</g>
</g>
<!-- Node183&#45;&gt;Node184 -->
<g id="edge2" class="edge"><title>Node183&#45;&gt;Node184</title>
<path fill="none" stroke="midnightblue" d="M255.009,-50.5718C263.57,-52.1513 272.297,-53.7615 280.636,-55.2999"/>
<polygon fill="midnightblue" stroke="midnightblue" points="255.539,-47.1106 245.07,-48.738 254.269,-53.9944 255.539,-47.1106"/>
</g>
<!-- Node187 -->
<g id="node6" class="node"><title>Node187</title>
<g id="a_node6"><a xlink:href="../../d3/da8/namespacemom__fixed__initialization.html#adce0d050de4be34a2dc4fa39b49b8c27" target="_top" xlink:title="MOM_initialize_fixed sets up time&#45;invariant quantities related to MOM6&#39;s horizontal grid...">
<polygon fill="white" stroke="black" points="281.5,-0.5 281.5,-30.5 381.5,-30.5 381.5,-0.5 281.5,-0.5"/>
<text text-anchor="start" x="289.5" y="-18.5" font-family="Helvetica,sans-Serif" font-size="10.00">mom_fixed_initialization</text>
<text text-anchor="middle" x="331.5" y="-7.5" font-family="Helvetica,sans-Serif" font-size="10.00">::mom_initialize_fixed</text>
</a>
</g>
</g>
<!-- Node183&#45;&gt;Node187 -->
<g id="edge5" class="edge"><title>Node183&#45;&gt;Node187</title>
<path fill="none" stroke="midnightblue" d="M255.14,-28.8479C263.813,-27.3117 272.655,-25.7456 281.087,-24.2521"/>
<polygon fill="midnightblue" stroke="midnightblue" points="254.307,-25.441 245.07,-30.6315 255.527,-32.3337 254.307,-25.441"/>
</g>
<!-- Node185 -->
<g id="node4" class="node"><title>Node185</title>
<g id="a_node4"><a xlink:href="../../d5/d6d/ice__shelf__driver_8F90.html#aec5bef92f0dad343f545cd8d62e378d8" target="_top" xlink:title="shelf_main">
<polygon fill="white" stroke="black" points="435,-82 435,-101 490,-101 490,-82 435,-82"/>
<text text-anchor="middle" x="462.5" y="-89" font-family="Helvetica,sans-Serif" font-size="10.00">shelf_main</text>
</a>
</g>
</g>
<!-- Node184&#45;&gt;Node185 -->
<g id="edge3" class="edge"><title>Node184&#45;&gt;Node185</title>
<path fill="none" stroke="midnightblue" d="M392.21,-76.9975C407.086,-80.111 422.303,-83.2959 434.673,-85.8851"/>
<polygon fill="midnightblue" stroke="midnightblue" points="392.511,-73.4846 382.006,-74.8617 391.077,-80.3362 392.511,-73.4846"/>
</g>
<!-- Node186 -->
<g id="node5" class="node"><title>Node186</title>
<g id="a_node5"><a xlink:href="../../de/dbc/MOM__driver_8F90.html#a08fffeb2d8e8acbf9ed4609be6d258c6" target="_top" xlink:title="mom_main">
<polygon fill="white" stroke="black" points="543,-25 543,-44 599,-44 599,-25 543,-25"/>
<text text-anchor="middle" x="571" y="-32" font-family="Helvetica,sans-Serif" font-size="10.00">mom_main</text>
</a>
</g>
</g>
<!-- Node184&#45;&gt;Node186 -->
<g id="edge4" class="edge"><title>Node184&#45;&gt;Node186</title>
<path fill="none" stroke="midnightblue" d="M392.314,-56.9445C440.619,-50.8429 506.353,-42.5396 542.813,-37.9342"/>
<polygon fill="midnightblue" stroke="midnightblue" points="391.77,-53.4853 382.288,-58.211 392.648,-60.4301 391.77,-53.4853"/>
</g>
<!-- Node188 -->
<g id="node7" class="node"><title>Node188</title>
<g id="a_node7"><a xlink:href="../../da/d01/namespacemom.html#afebdc0103ad9cbe0ed4a54e522dc4104" target="_top" xlink:title="This subroutine initializes MOM. ">
<polygon fill="white" stroke="black" points="418,-6 418,-25 507,-25 507,-6 418,-6"/>
<text text-anchor="middle" x="462.5" y="-13" font-family="Helvetica,sans-Serif" font-size="10.00">mom::initialize_mom</text>
</a>
</g>
</g>
<!-- Node187&#45;&gt;Node188 -->
<g id="edge6" class="edge"><title>Node187&#45;&gt;Node188</title>
<path fill="none" stroke="midnightblue" d="M391.868,-15.5C400.667,-15.5 409.595,-15.5 417.989,-15.5"/>
<polygon fill="midnightblue" stroke="midnightblue" points="391.637,-12.0001 381.637,-15.5 391.637,-19.0001 391.637,-12.0001"/>
</g>
<!-- Node188&#45;&gt;Node186 -->
<g id="edge7" class="edge"><title>Node188&#45;&gt;Node186</title>
<path fill="none" stroke="midnightblue" d="M517.121,-25.0661C526.016,-26.653 534.897,-28.2374 542.771,-29.6423"/>
<polygon fill="midnightblue" stroke="midnightblue" points="517.584,-21.5936 507.125,-23.2828 516.355,-28.4848 517.584,-21.5936"/>
</g>
</g>
</svg>
