<?xml version="1.0" encoding="UTF-8" standalone="no"?>
<!DOCTYPE svg PUBLIC "-//W3C//DTD SVG 1.1//EN"
 "http://www.w3.org/Graphics/SVG/1.1/DTD/svg11.dtd">
<!-- Generated by graphviz version 2.38.0 (20140413.2041)
 -->
<!-- Title: mom_fixed_initialization::set_rotation_beta_plane Pages: 1 -->
<svg width="373pt" height="88pt"
 viewBox="0.00 0.00 373.00 88.00" xmlns="http://www.w3.org/2000/svg" xmlns:xlink="http://www.w3.org/1999/xlink">
<g id="graph0" class="graph" transform="scale(1 1) rotate(0) translate(4 84)">
<title>mom_fixed_initialization::set_rotation_beta_plane</title>
<polygon fill="white" stroke="none" points="-4,4 -4,-84 369,-84 369,4 -4,4"/>
<!-- Node178 -->
<g id="node1" class="node"><title>Node178</title>
<polygon fill="#bfbfbf" stroke="black" points="0,-24.5 0,-54.5 107,-54.5 107,-24.5 0,-24.5"/>
<text text-anchor="start" x="8" y="-42.5" font-family="Helvetica,sans-Serif" font-size="10.00">mom_fixed_initialization</text>
<text text-anchor="middle" x="53.5" y="-31.5" font-family="Helvetica,sans-Serif" font-size="10.00">::set_rotation_beta_plane</text>
</g>
<!-- Node179 -->
<g id="node2" class="node"><title>Node179</title>
<g id="a_node2"><a xlink:href="../../d0/de6/namespacemom__error__handler.html#a9cda07a87815f0e5594066162b4345c3" target="_top" xlink:title="Writes a message about entering a subroutine if call tree reporting is active. ">
<polygon fill="white" stroke="black" points="143,-49.5 143,-79.5 236,-79.5 236,-49.5 143,-49.5"/>
<text text-anchor="start" x="151" y="-67.5" font-family="Helvetica,sans-Serif" font-size="10.00">mom_error_handler::</text>
<text text-anchor="middle" x="189.5" y="-56.5" font-family="Helvetica,sans-Serif" font-size="10.00">calltree_enter</text>
</a>
</g>
</g>
<!-- Node178&#45;&gt;Node179 -->
<g id="edge1" class="edge"><title>Node178&#45;&gt;Node179</title>
<path fill="none" stroke="midnightblue" d="M107.076,-49.3089C115.508,-50.882 124.26,-52.5149 132.763,-54.1012"/>
<polygon fill="midnightblue" stroke="midnightblue" points="132.123,-57.5423 142.596,-55.9358 133.407,-50.661 132.123,-57.5423"/>
</g>
<!-- Node181 -->
<g id="node4" class="node"><title>Node181</title>
<g id="a_node4"><a xlink:href="../../d0/de6/namespacemom__error__handler.html#a88ea67781e2ed9b73ab7eac8ea5e8578" target="_top" xlink:title="Writes a message about leaving a subroutine if call tree reporting is active. ">
<polygon fill="white" stroke="black" points="143,-0.5 143,-30.5 236,-30.5 236,-0.5 143,-0.5"/>
<text text-anchor="start" x="151" y="-18.5" font-family="Helvetica,sans-Serif" font-size="10.00">mom_error_handler::</text>
<text text-anchor="middle" x="189.5" y="-7.5" font-family="Helvetica,sans-Serif" font-size="10.00">calltree_leave</text>
</a>
</g>
</g>
<!-- Node178&#45;&gt;Node181 -->
<g id="edge3" class="edge"><title>Node178&#45;&gt;Node181</title>
<path fill="none" stroke="midnightblue" d="M107.076,-30.0834C115.416,-28.5896 124.07,-27.0398 132.485,-25.5325"/>
<polygon fill="midnightblue" stroke="midnightblue" points="133.369,-28.9299 142.596,-23.7217 132.135,-22.0396 133.369,-28.9299"/>
</g>
<!-- Node180 -->
<g id="node3" class="node"><title>Node180</title>
<g id="a_node3"><a xlink:href="../../d0/de6/namespacemom__error__handler.html#ad5f00a53059c72fe2332d1436c80ca71" target="_top" xlink:title="mom_error_handler::\lis_root_pe">
<polygon fill="white" stroke="black" points="272,-24.5 272,-54.5 365,-54.5 365,-24.5 272,-24.5"/>
<text text-anchor="start" x="280" y="-42.5" font-family="Helvetica,sans-Serif" font-size="10.00">mom_error_handler::</text>
<text text-anchor="middle" x="318.5" y="-31.5" font-family="Helvetica,sans-Serif" font-size="10.00">is_root_pe</text>
</a>
</g>
</g>
<!-- Node179&#45;&gt;Node180 -->
<g id="edge2" class="edge"><title>Node179&#45;&gt;Node180</title>
<path fill="none" stroke="midnightblue" d="M236.35,-55.4744C244.623,-53.8459 253.33,-52.1319 261.846,-50.4556"/>
<polygon fill="midnightblue" stroke="midnightblue" points="262.582,-53.8779 271.717,-48.5123 261.23,-47.0097 262.582,-53.8779"/>
</g>
<!-- Node181&#45;&gt;Node180 -->
<g id="edge4" class="edge"><title>Node181&#45;&gt;Node180</title>
<path fill="none" stroke="midnightblue" d="M236.35,-24.1646C244.623,-25.7279 253.33,-27.3734 261.846,-28.9827"/>
<polygon fill="midnightblue" stroke="midnightblue" points="261.241,-32.4303 271.717,-30.8482 262.541,-25.5521 261.241,-32.4303"/>
</g>
</g>
</svg>
