<?xml version="1.0" encoding="UTF-8" standalone="no"?>
<!DOCTYPE svg PUBLIC "-//W3C//DTD SVG 1.1//EN"
 "http://www.w3.org/Graphics/SVG/1.1/DTD/svg11.dtd">
<!-- Generated by graphviz version 2.38.0 (20140413.2041)
 -->
<!-- Title: mom_thickness_diffuse::thickness_diffuse_cs Pages: 1 -->
<svg width="290pt" height="216pt"
 viewBox="0.00 0.00 290.00 216.00" xmlns="http://www.w3.org/2000/svg" xmlns:xlink="http://www.w3.org/1999/xlink">
<g id="graph0" class="graph" transform="scale(1 1) rotate(0) translate(4 212)">
<title>mom_thickness_diffuse::thickness_diffuse_cs</title>
<polygon fill="white" stroke="none" points="-4,4 -4,-212 286,-212 286,4 -4,4"/>
<!-- Node1 -->
<g id="node1" class="node"><title>Node1</title>
<polygon fill="#bfbfbf" stroke="black" points="87.5,-0.5 87.5,-30.5 186.5,-30.5 186.5,-0.5 87.5,-0.5"/>
<text text-anchor="start" x="95.5" y="-18.5" font-family="Helvetica,sans-Serif" font-size="10.00">mom_thickness_diffuse</text>
<text text-anchor="middle" x="137" y="-7.5" font-family="Helvetica,sans-Serif" font-size="10.00">::thickness_diffuse_cs</text>
</g>
<!-- Node2 -->
<g id="node2" class="node"><title>Node2</title>
<polygon fill="white" stroke="#bfbfbf" points="0,-188.5 0,-207.5 38,-207.5 38,-188.5 0,-188.5"/>
<text text-anchor="middle" x="19" y="-195.5" font-family="Helvetica,sans-Serif" font-size="10.00">logical</text>
</g>
<!-- Node2&#45;&gt;Node1 -->
<g id="edge1" class="edge"><title>Node2&#45;&gt;Node1</title>
<path fill="none" stroke="#9a32cd" stroke-dasharray="5,2" d="M14.6455,-178.332C8.67337,-147.683 1.83193,-86.3735 32,-49 45.4241,-32.3696 67.1998,-24.0701 87.4499,-19.9952"/>
<polygon fill="#9a32cd" stroke="#9a32cd" points="11.2984,-179.418 16.8129,-188.464 18.1436,-177.953 11.2984,-179.418"/>
<text text-anchor="middle" x="67" y="-118" font-family="Helvetica,sans-Serif" font-size="10.00"> thickness_diffuse</text>
<text text-anchor="middle" x="67" y="-107" font-family="Helvetica,sans-Serif" font-size="10.00">detangle_interfaces</text>
<text text-anchor="middle" x="67" y="-96" font-family="Helvetica,sans-Serif" font-size="10.00">debug</text>
</g>
<!-- Node3 -->
<g id="node3" class="node"><title>Node3</title>
<polygon fill="white" stroke="#bfbfbf" points="81.5,-188.5 81.5,-207.5 128.5,-207.5 128.5,-188.5 81.5,-188.5"/>
<text text-anchor="middle" x="105" y="-195.5" font-family="Helvetica,sans-Serif" font-size="10.00">diag_ctrl</text>
</g>
<!-- Node3&#45;&gt;Node1 -->
<g id="edge2" class="edge"><title>Node3&#45;&gt;Node1</title>
<path fill="none" stroke="#9a32cd" stroke-dasharray="5,2" d="M104.951,-178.342C105.333,-149.878 107.889,-94.1544 121,-49 122.824,-42.7188 125.806,-36.1773 128.705,-30.6236"/>
<polygon fill="#9a32cd" stroke="#9a32cd" points="101.45,-178.437 104.895,-188.456 108.45,-178.475 101.45,-178.437"/>
<text text-anchor="middle" x="130" y="-107" font-family="Helvetica,sans-Serif" font-size="10.00"> diag</text>
</g>
<!-- Node4 -->
<g id="node4" class="node"><title>Node4</title>
<polygon fill="white" stroke="#bfbfbf" points="146.5,-188.5 146.5,-207.5 187.5,-207.5 187.5,-188.5 146.5,-188.5"/>
<text text-anchor="middle" x="167" y="-195.5" font-family="Helvetica,sans-Serif" font-size="10.00">integer</text>
</g>
<!-- Node4&#45;&gt;Node1 -->
<g id="edge3" class="edge"><title>Node4&#45;&gt;Node1</title>
<path fill="none" stroke="#9a32cd" stroke-dasharray="5,2" d="M163.857,-178.09C157.809,-141.701 144.678,-62.6941 139.333,-30.5391"/>
<polygon fill="#9a32cd" stroke="#9a32cd" points="160.461,-179.003 165.553,-188.294 167.366,-177.856 160.461,-179.003"/>
<text text-anchor="middle" x="182" y="-162" font-family="Helvetica,sans-Serif" font-size="10.00"> id_kh_t1</text>
<text text-anchor="middle" x="182" y="-151" font-family="Helvetica,sans-Serif" font-size="10.00">id_gmwork</text>
<text text-anchor="middle" x="182" y="-140" font-family="Helvetica,sans-Serif" font-size="10.00">id_kh_u1</text>
<text text-anchor="middle" x="182" y="-129" font-family="Helvetica,sans-Serif" font-size="10.00">id_kh_v1</text>
<text text-anchor="middle" x="182" y="-118" font-family="Helvetica,sans-Serif" font-size="10.00">id_slope_x</text>
<text text-anchor="middle" x="182" y="-107" font-family="Helvetica,sans-Serif" font-size="10.00">id_slope_y</text>
<text text-anchor="middle" x="182" y="-96" font-family="Helvetica,sans-Serif" font-size="10.00">id_kh_t</text>
<text text-anchor="middle" x="182" y="-85" font-family="Helvetica,sans-Serif" font-size="10.00">id_kh_u</text>
<text text-anchor="middle" x="182" y="-74" font-family="Helvetica,sans-Serif" font-size="10.00">id_kh_v</text>
<text text-anchor="middle" x="182" y="-63" font-family="Helvetica,sans-Serif" font-size="10.00">nkml</text>
<text text-anchor="middle" x="182" y="-52" font-family="Helvetica,sans-Serif" font-size="10.00">...</text>
</g>
<!-- Node5 -->
<g id="node5" class="node"><title>Node5</title>
<polygon fill="white" stroke="#bfbfbf" points="211,-188.5 211,-207.5 241,-207.5 241,-188.5 211,-188.5"/>
<text text-anchor="middle" x="226" y="-195.5" font-family="Helvetica,sans-Serif" font-size="10.00">real</text>
</g>
<!-- Node5&#45;&gt;Node1 -->
<g id="edge4" class="edge"><title>Node5&#45;&gt;Node1</title>
<path fill="none" stroke="#9a32cd" stroke-dasharray="5,2" d="M228.41,-178.26C231.262,-147.987 232.493,-87.8038 204,-49 198.261,-41.1845 190.134,-35.1589 181.511,-30.5452"/>
<polygon fill="#9a32cd" stroke="#9a32cd" points="224.922,-177.966 227.297,-188.291 231.879,-178.738 224.922,-177.966"/>
<text text-anchor="middle" x="255.5" y="-162" font-family="Helvetica,sans-Serif" font-size="10.00"> khth_min</text>
<text text-anchor="middle" x="255.5" y="-151" font-family="Helvetica,sans-Serif" font-size="10.00">khth</text>
<text text-anchor="middle" x="255.5" y="-140" font-family="Helvetica,sans-Serif" font-size="10.00">diagslopex</text>
<text text-anchor="middle" x="255.5" y="-129" font-family="Helvetica,sans-Serif" font-size="10.00">khth_slope_cff</text>
<text text-anchor="middle" x="255.5" y="-118" font-family="Helvetica,sans-Serif" font-size="10.00">diagslopey</text>
<text text-anchor="middle" x="255.5" y="-107" font-family="Helvetica,sans-Serif" font-size="10.00">gmwork</text>
<text text-anchor="middle" x="255.5" y="-96" font-family="Helvetica,sans-Serif" font-size="10.00">max_khth_cfl</text>
<text text-anchor="middle" x="255.5" y="-85" font-family="Helvetica,sans-Serif" font-size="10.00">detangle_time</text>
<text text-anchor="middle" x="255.5" y="-74" font-family="Helvetica,sans-Serif" font-size="10.00">kappa_smooth</text>
<text text-anchor="middle" x="255.5" y="-63" font-family="Helvetica,sans-Serif" font-size="10.00">slope_max</text>
<text text-anchor="middle" x="255.5" y="-52" font-family="Helvetica,sans-Serif" font-size="10.00">...</text>
</g>
</g>
</svg>
