<?xml version="1.0" encoding="UTF-8" standalone="no"?>
<!DOCTYPE svg PUBLIC "-//W3C//DTD SVG 1.1//EN"
 "http://www.w3.org/Graphics/SVG/1.1/DTD/svg11.dtd">
<!-- Generated by graphviz version 2.38.0 (20140413.2041)
 -->
<!-- Title: mom_mixed_layer_restrat::mixedlayer_restrat_cs Pages: 1 -->
<svg width="309pt" height="238pt"
 viewBox="0.00 0.00 309.00 238.00" xmlns="http://www.w3.org/2000/svg" xmlns:xlink="http://www.w3.org/1999/xlink">
<g id="graph0" class="graph" transform="scale(1 1) rotate(0) translate(4 234)">
<title>mom_mixed_layer_restrat::mixedlayer_restrat_cs</title>
<polygon fill="white" stroke="none" points="-4,4 -4,-234 305,-234 305,4 -4,4"/>
<!-- Node1 -->
<g id="node1" class="node"><title>Node1</title>
<polygon fill="#bfbfbf" stroke="black" points="77,-0.5 77,-30.5 187,-30.5 187,-0.5 77,-0.5"/>
<text text-anchor="start" x="85" y="-18.5" font-family="Helvetica,sans-Serif" font-size="10.00">mom_mixed_layer_restrat</text>
<text text-anchor="middle" x="132" y="-7.5" font-family="Helvetica,sans-Serif" font-size="10.00">::mixedlayer_restrat_cs</text>
</g>
<!-- Node2 -->
<g id="node2" class="node"><title>Node2</title>
<polygon fill="white" stroke="#bfbfbf" points="0,-210.5 0,-229.5 38,-229.5 38,-210.5 0,-210.5"/>
<text text-anchor="middle" x="19" y="-217.5" font-family="Helvetica,sans-Serif" font-size="10.00">logical</text>
</g>
<!-- Node2&#45;&gt;Node1 -->
<g id="edge1" class="edge"><title>Node2&#45;&gt;Node1</title>
<path fill="none" stroke="#9a32cd" stroke-dasharray="5,2" d="M14.2276,-200.484C6.65319,-166.494 -3.93702,-93.5565 31,-49 42.1386,-34.7945 59.5504,-26.7023 76.8,-22.1248"/>
<polygon fill="#9a32cd" stroke="#9a32cd" points="10.8749,-201.512 16.6106,-210.42 17.6819,-199.879 10.8749,-201.512"/>
<text text-anchor="middle" x="63.5" y="-123.5" font-family="Helvetica,sans-Serif" font-size="10.00"> mle_use_pbl_mld</text>
<text text-anchor="middle" x="63.5" y="-112.5" font-family="Helvetica,sans-Serif" font-size="10.00">debug</text>
</g>
<!-- Node3 -->
<g id="node3" class="node"><title>Node3</title>
<polygon fill="white" stroke="#bfbfbf" points="76.5,-210.5 76.5,-229.5 123.5,-229.5 123.5,-210.5 76.5,-210.5"/>
<text text-anchor="middle" x="100" y="-217.5" font-family="Helvetica,sans-Serif" font-size="10.00">diag_ctrl</text>
</g>
<!-- Node3&#45;&gt;Node1 -->
<g id="edge2" class="edge"><title>Node3&#45;&gt;Node1</title>
<path fill="none" stroke="#9a32cd" stroke-dasharray="5,2" d="M99.5722,-200.249C99.3286,-168.486 100.909,-102.351 116,-49 117.78,-42.7063 120.755,-36.1625 123.659,-30.6104"/>
<polygon fill="#9a32cd" stroke="#9a32cd" points="96.0734,-200.362 99.7229,-210.308 103.073,-200.257 96.0734,-200.362"/>
<text text-anchor="middle" x="125" y="-118" font-family="Helvetica,sans-Serif" font-size="10.00"> diag</text>
</g>
<!-- Node4 -->
<g id="node4" class="node"><title>Node4</title>
<polygon fill="white" stroke="#bfbfbf" points="141.5,-210.5 141.5,-229.5 182.5,-229.5 182.5,-210.5 141.5,-210.5"/>
<text text-anchor="middle" x="162" y="-217.5" font-family="Helvetica,sans-Serif" font-size="10.00">integer</text>
</g>
<!-- Node4&#45;&gt;Node1 -->
<g id="edge3" class="edge"><title>Node4&#45;&gt;Node1</title>
<path fill="none" stroke="#9a32cd" stroke-dasharray="5,2" d="M159.228,-200.287C153.283,-160.16 139.419,-66.581 134.116,-30.7797"/>
<polygon fill="#9a32cd" stroke="#9a32cd" points="155.783,-200.92 160.711,-210.299 162.708,-199.894 155.783,-200.92"/>
<text text-anchor="middle" x="177.5" y="-184" font-family="Helvetica,sans-Serif" font-size="10.00"> id_vml</text>
<text text-anchor="middle" x="177.5" y="-173" font-family="Helvetica,sans-Serif" font-size="10.00">id_vdml</text>
<text text-anchor="middle" x="177.5" y="-162" font-family="Helvetica,sans-Serif" font-size="10.00">id_udml</text>
<text text-anchor="middle" x="177.5" y="-151" font-family="Helvetica,sans-Serif" font-size="10.00">id_mld</text>
<text text-anchor="middle" x="177.5" y="-140" font-family="Helvetica,sans-Serif" font-size="10.00">id_vhml</text>
<text text-anchor="middle" x="177.5" y="-129" font-family="Helvetica,sans-Serif" font-size="10.00">id_uhml</text>
<text text-anchor="start" x="158" y="-118" font-family="Helvetica,sans-Serif" font-size="10.00">id_urestrat</text>
<text text-anchor="middle" x="177.5" y="-107" font-family="Helvetica,sans-Serif" font-size="10.00">_time</text>
<text text-anchor="start" x="158" y="-96" font-family="Helvetica,sans-Serif" font-size="10.00">id_vrestrat</text>
<text text-anchor="middle" x="177.5" y="-85" font-family="Helvetica,sans-Serif" font-size="10.00">_time</text>
<text text-anchor="middle" x="177.5" y="-74" font-family="Helvetica,sans-Serif" font-size="10.00">id_rml</text>
<text text-anchor="middle" x="177.5" y="-63" font-family="Helvetica,sans-Serif" font-size="10.00">id_uml</text>
<text text-anchor="middle" x="177.5" y="-52" font-family="Helvetica,sans-Serif" font-size="10.00">...</text>
</g>
<!-- Node5 -->
<g id="node5" class="node"><title>Node5</title>
<polygon fill="white" stroke="#bfbfbf" points="205,-210.5 205,-229.5 235,-229.5 235,-210.5 205,-210.5"/>
<text text-anchor="middle" x="220" y="-217.5" font-family="Helvetica,sans-Serif" font-size="10.00">real</text>
</g>
<!-- Node5&#45;&gt;Node1 -->
<g id="edge4" class="edge"><title>Node5&#45;&gt;Node1</title>
<path fill="none" stroke="#9a32cd" stroke-dasharray="5,2" d="M222.951,-199.906C227.096,-166.086 230.836,-94.9013 198,-49 192.427,-41.2091 184.454,-35.1937 175.967,-30.5821"/>
<polygon fill="#9a32cd" stroke="#9a32cd" points="219.429,-199.823 221.527,-210.208 226.363,-200.781 219.429,-199.823"/>
<text text-anchor="middle" x="263" y="-145.5" font-family="Helvetica,sans-Serif" font-size="10.00"> mle_density_diff</text>
<text text-anchor="middle" x="263" y="-134.5" font-family="Helvetica,sans-Serif" font-size="10.00">mle_tail_dh</text>
<text text-anchor="middle" x="263" y="-123.5" font-family="Helvetica,sans-Serif" font-size="10.00">mle_mld_decay_time</text>
<text text-anchor="middle" x="263" y="-112.5" font-family="Helvetica,sans-Serif" font-size="10.00">mld_filtered</text>
<text text-anchor="middle" x="263" y="-101.5" font-family="Helvetica,sans-Serif" font-size="10.00">ml_restrat_coef</text>
<text text-anchor="middle" x="263" y="-90.5" font-family="Helvetica,sans-Serif" font-size="10.00">mld</text>
</g>
</g>
</svg>
