<?xml version="1.0" encoding="UTF-8" standalone="no"?>
<!DOCTYPE svg PUBLIC "-//W3C//DTD SVG 1.1//EN"
 "http://www.w3.org/Graphics/SVG/1.1/DTD/svg11.dtd">
<!-- Generated by graphviz version 2.38.0 (20140413.2041)
 -->
<!-- Title: mom_interface_heights::find_eta_3d Pages: 1 -->
<svg width="504pt" height="186pt"
 viewBox="0.00 0.00 504.00 186.00" xmlns="http://www.w3.org/2000/svg" xmlns:xlink="http://www.w3.org/1999/xlink">
<g id="graph0" class="graph" transform="scale(1 1) rotate(0) translate(4 182)">
<title>mom_interface_heights::find_eta_3d</title>
<polygon fill="white" stroke="none" points="-4,4 -4,-182 500,-182 500,4 -4,4"/>
<!-- Node8 -->
<g id="node1" class="node"><title>Node8</title>
<polygon fill="#bfbfbf" stroke="black" points="0,-26.5 0,-56.5 100,-56.5 100,-26.5 0,-26.5"/>
<text text-anchor="start" x="8" y="-44.5" font-family="Helvetica,sans-Serif" font-size="10.00">mom_interface_heights</text>
<text text-anchor="middle" x="50" y="-33.5" font-family="Helvetica,sans-Serif" font-size="10.00">::find_eta_3d</text>
</g>
<!-- Node9 -->
<g id="node2" class="node"><title>Node9</title>
<g id="a_node2"><a xlink:href="../../d1/d01/namespacemom__eos.html#a0670589d5ab62b8925545cee7eb33680" target="_top" xlink:title="Calls the appropriate subroutine to alculate analytical and nearly&#45;analytical integrals in pressure a...">
<polygon fill="white" stroke="black" points="136,-49.5 136,-79.5 231,-79.5 231,-49.5 136,-49.5"/>
<text text-anchor="start" x="144" y="-67.5" font-family="Helvetica,sans-Serif" font-size="10.00">mom_eos::int_specific</text>
<text text-anchor="middle" x="183.5" y="-56.5" font-family="Helvetica,sans-Serif" font-size="10.00">_vol_dp</text>
</a>
</g>
</g>
<!-- Node8&#45;&gt;Node9 -->
<g id="edge1" class="edge"><title>Node8&#45;&gt;Node9</title>
<path fill="none" stroke="midnightblue" d="M100.34,-50.1298C108.721,-51.5957 117.482,-53.128 126.029,-54.623"/>
<polygon fill="midnightblue" stroke="midnightblue" points="125.476,-58.0793 135.93,-56.3546 126.682,-51.184 125.476,-58.0793"/>
</g>
<!-- Node13 -->
<g id="node6" class="node"><title>Node13</title>
<g id="a_node6"><a xlink:href="../../d0/de6/namespacemom__error__handler.html#a460cfb79a06c29fc249952c2a3710d67" target="_top" xlink:title="mom_error_handler::\lmom_error">
<polygon fill="white" stroke="black" points="270.5,-0.5 270.5,-30.5 363.5,-30.5 363.5,-0.5 270.5,-0.5"/>
<text text-anchor="start" x="278.5" y="-18.5" font-family="Helvetica,sans-Serif" font-size="10.00">mom_error_handler::</text>
<text text-anchor="middle" x="317" y="-7.5" font-family="Helvetica,sans-Serif" font-size="10.00">mom_error</text>
</a>
</g>
</g>
<!-- Node8&#45;&gt;Node13 -->
<g id="edge7" class="edge"><title>Node8&#45;&gt;Node13</title>
<path fill="none" stroke="midnightblue" d="M100.223,-36.6705C145.544,-32.224 212.724,-25.6328 260.059,-20.9885"/>
<polygon fill="midnightblue" stroke="midnightblue" points="260.531,-24.4591 270.142,-19.9993 259.848,-17.4925 260.531,-24.4591"/>
</g>
<!-- Node10 -->
<g id="node3" class="node"><title>Node10</title>
<g id="a_node3"><a xlink:href="../../d1/d01/namespacemom__eos.html#ad2e95a70c19e0b162785fb213d63ed52" target="_top" xlink:title="mom_eos::int_spec_vol\l_dp_generic">
<polygon fill="white" stroke="black" points="267,-147.5 267,-177.5 367,-177.5 367,-147.5 267,-147.5"/>
<text text-anchor="start" x="275" y="-165.5" font-family="Helvetica,sans-Serif" font-size="10.00">mom_eos::int_spec_vol</text>
<text text-anchor="middle" x="317" y="-154.5" font-family="Helvetica,sans-Serif" font-size="10.00">_dp_generic</text>
</a>
</g>
</g>
<!-- Node9&#45;&gt;Node10 -->
<g id="edge2" class="edge"><title>Node9&#45;&gt;Node10</title>
<path fill="none" stroke="midnightblue" d="M198.958,-79.7602C214.661,-95.7598 240.998,-120.966 267,-138.5 268.914,-139.791 270.908,-141.054 272.95,-142.282"/>
<polygon fill="midnightblue" stroke="midnightblue" points="271.668,-145.576 282.1,-147.425 275.098,-139.474 271.668,-145.576"/>
</g>
<!-- Node11 -->
<g id="node4" class="node"><title>Node11</title>
<g id="a_node4"><a xlink:href="../../d5/de6/namespacemom__eos__linear.html#ab1bb6ff722de713745ddf80a834a82b7" target="_top" xlink:title="mom_eos_linear::int\l_spec_vol_dp_linear">
<polygon fill="white" stroke="black" points="272.5,-98.5 272.5,-128.5 361.5,-128.5 361.5,-98.5 272.5,-98.5"/>
<text text-anchor="start" x="280.5" y="-116.5" font-family="Helvetica,sans-Serif" font-size="10.00">mom_eos_linear::int</text>
<text text-anchor="middle" x="317" y="-105.5" font-family="Helvetica,sans-Serif" font-size="10.00">_spec_vol_dp_linear</text>
</a>
</g>
</g>
<!-- Node9&#45;&gt;Node11 -->
<g id="edge3" class="edge"><title>Node9&#45;&gt;Node11</title>
<path fill="none" stroke="midnightblue" d="M225.027,-79.6014C237.901,-84.3985 252.295,-89.7622 265.768,-94.7823"/>
<polygon fill="midnightblue" stroke="midnightblue" points="264.787,-98.152 275.38,-98.3641 267.232,-91.5926 264.787,-98.152"/>
</g>
<!-- Node12 -->
<g id="node5" class="node"><title>Node12</title>
<g id="a_node5"><a xlink:href="../../de/d76/namespacemom__eos__wright.html#aeebb566af08f2b00a35d391395e62750" target="_top" xlink:title="mom_eos_wright::int\l_spec_vol_dp_wright">
<polygon fill="white" stroke="black" points="271,-49.5 271,-79.5 363,-79.5 363,-49.5 271,-49.5"/>
<text text-anchor="start" x="279" y="-67.5" font-family="Helvetica,sans-Serif" font-size="10.00">mom_eos_wright::int</text>
<text text-anchor="middle" x="317" y="-56.5" font-family="Helvetica,sans-Serif" font-size="10.00">_spec_vol_dp_wright</text>
</a>
</g>
</g>
<!-- Node9&#45;&gt;Node12 -->
<g id="edge4" class="edge"><title>Node9&#45;&gt;Node12</title>
<path fill="none" stroke="midnightblue" d="M231.232,-64.5C240.766,-64.5 250.883,-64.5 260.683,-64.5"/>
<polygon fill="midnightblue" stroke="midnightblue" points="260.742,-68.0001 270.742,-64.5 260.742,-61.0001 260.742,-68.0001"/>
</g>
<!-- Node9&#45;&gt;Node13 -->
<g id="edge5" class="edge"><title>Node9&#45;&gt;Node13</title>
<path fill="none" stroke="midnightblue" d="M225.027,-49.3986C237.901,-44.6015 252.295,-39.2378 265.768,-34.2177"/>
<polygon fill="midnightblue" stroke="midnightblue" points="267.232,-37.4074 275.38,-30.6359 264.787,-30.848 267.232,-37.4074"/>
</g>
<!-- Node14 -->
<g id="node7" class="node"><title>Node14</title>
<g id="a_node7"><a xlink:href="../../d0/de6/namespacemom__error__handler.html#ad5f00a53059c72fe2332d1436c80ca71" target="_top" xlink:title="mom_error_handler::\lis_root_pe">
<polygon fill="white" stroke="black" points="403,-0.5 403,-30.5 496,-30.5 496,-0.5 403,-0.5"/>
<text text-anchor="start" x="411" y="-18.5" font-family="Helvetica,sans-Serif" font-size="10.00">mom_error_handler::</text>
<text text-anchor="middle" x="449.5" y="-7.5" font-family="Helvetica,sans-Serif" font-size="10.00">is_root_pe</text>
</a>
</g>
</g>
<!-- Node13&#45;&gt;Node14 -->
<g id="edge6" class="edge"><title>Node13&#45;&gt;Node14</title>
<path fill="none" stroke="midnightblue" d="M363.643,-15.5C372.927,-15.5 382.795,-15.5 392.393,-15.5"/>
<polygon fill="midnightblue" stroke="midnightblue" points="392.663,-19.0001 402.663,-15.5 392.663,-12.0001 392.663,-19.0001"/>
</g>
</g>
</svg>
