<?xml version="1.0" encoding="UTF-8" standalone="no"?>
<!DOCTYPE svg PUBLIC "-//W3C//DTD SVG 1.1//EN"
 "http://www.w3.org/Graphics/SVG/1.1/DTD/svg11.dtd">
<!-- Generated by graphviz version 2.38.0 (20140413.2041)
 -->
<!-- Title: mom_state_initialization::set_flather_bdry_conds Pages: 1 -->
<svg width="466pt" height="39pt"
 viewBox="0.00 0.00 466.00 39.00" xmlns="http://www.w3.org/2000/svg" xmlns:xlink="http://www.w3.org/1999/xlink">
<g id="graph0" class="graph" transform="scale(1 1) rotate(0) translate(4 35)">
<title>mom_state_initialization::set_flather_bdry_conds</title>
<polygon fill="white" stroke="none" points="-4,4 -4,-35 462,-35 462,4 -4,4"/>
<!-- Node291 -->
<g id="node1" class="node"><title>Node291</title>
<polygon fill="#bfbfbf" stroke="black" points="0,-0.5 0,-30.5 104,-30.5 104,-0.5 0,-0.5"/>
<text text-anchor="start" x="8" y="-18.5" font-family="Helvetica,sans-Serif" font-size="10.00">mom_state_initialization</text>
<text text-anchor="middle" x="52" y="-7.5" font-family="Helvetica,sans-Serif" font-size="10.00">::set_flather_bdry_conds</text>
</g>
<!-- Node292 -->
<g id="node2" class="node"><title>Node292</title>
<g id="a_node2"><a xlink:href="../../d6/d62/namespacemom__state__initialization.html#af4e854627c6572332ba3fd895f169321" target="_top" xlink:title="mom_state_initialization\l::mom_initialize_state">
<polygon fill="white" stroke="black" points="140,-0.5 140,-30.5 241,-30.5 241,-0.5 140,-0.5"/>
<text text-anchor="start" x="148" y="-18.5" font-family="Helvetica,sans-Serif" font-size="10.00">mom_state_initialization</text>
<text text-anchor="middle" x="190.5" y="-7.5" font-family="Helvetica,sans-Serif" font-size="10.00">::mom_initialize_state</text>
</a>
</g>
</g>
<!-- Node291&#45;&gt;Node292 -->
<g id="edge1" class="edge"><title>Node291&#45;&gt;Node292</title>
<path fill="none" stroke="midnightblue" d="M114.46,-15.5C122.946,-15.5 131.572,-15.5 139.809,-15.5"/>
<polygon fill="midnightblue" stroke="midnightblue" points="114.216,-12.0001 104.216,-15.5 114.216,-19.0001 114.216,-12.0001"/>
</g>
<!-- Node293 -->
<g id="node3" class="node"><title>Node293</title>
<g id="a_node3"><a xlink:href="../../da/d01/namespacemom.html#afebdc0103ad9cbe0ed4a54e522dc4104" target="_top" xlink:title="This subroutine initializes MOM. ">
<polygon fill="white" stroke="black" points="277,-6 277,-25 366,-25 366,-6 277,-6"/>
<text text-anchor="middle" x="321.5" y="-13" font-family="Helvetica,sans-Serif" font-size="10.00">mom::initialize_mom</text>
</a>
</g>
</g>
<!-- Node292&#45;&gt;Node293 -->
<g id="edge2" class="edge"><title>Node292&#45;&gt;Node293</title>
<path fill="none" stroke="midnightblue" d="M251.088,-15.5C259.755,-15.5 268.541,-15.5 276.815,-15.5"/>
<polygon fill="midnightblue" stroke="midnightblue" points="251.006,-12.0001 241.006,-15.5 251.006,-19.0001 251.006,-12.0001"/>
</g>
<!-- Node294 -->
<g id="node4" class="node"><title>Node294</title>
<g id="a_node4"><a xlink:href="../../de/dbc/MOM__driver_8F90.html#a08fffeb2d8e8acbf9ed4609be6d258c6" target="_top" xlink:title="mom_main">
<polygon fill="white" stroke="black" points="402,-6 402,-25 458,-25 458,-6 402,-6"/>
<text text-anchor="middle" x="430" y="-13" font-family="Helvetica,sans-Serif" font-size="10.00">mom_main</text>
</a>
</g>
</g>
<!-- Node293&#45;&gt;Node294 -->
<g id="edge3" class="edge"><title>Node293&#45;&gt;Node294</title>
<path fill="none" stroke="midnightblue" d="M376.407,-15.5C385.206,-15.5 393.981,-15.5 401.771,-15.5"/>
<polygon fill="midnightblue" stroke="midnightblue" points="376.125,-12.0001 366.125,-15.5 376.125,-19.0001 376.125,-12.0001"/>
</g>
</g>
</svg>
