<?xml version="1.0" encoding="UTF-8" standalone="no"?>
<!DOCTYPE svg PUBLIC "-//W3C//DTD SVG 1.1//EN"
 "http://www.w3.org/Graphics/SVG/1.1/DTD/svg11.dtd">
<!-- Generated by graphviz version 2.38.0 (20140413.2041)
 -->
<!-- Title: mom_state_initialization::initialize_temp_salt_from_file Pages: 1 -->
<svg width="367pt" height="88pt"
 viewBox="0.00 0.00 367.00 88.00" xmlns="http://www.w3.org/2000/svg" xmlns:xlink="http://www.w3.org/1999/xlink">
<g id="graph0" class="graph" transform="scale(1 1) rotate(0) translate(4 84)">
<title>mom_state_initialization::initialize_temp_salt_from_file</title>
<polygon fill="white" stroke="none" points="-4,4 -4,-84 363,-84 363,4 -4,4"/>
<!-- Node76 -->
<g id="node1" class="node"><title>Node76</title>
<polygon fill="#bfbfbf" stroke="black" points="0,-19 0,-60 101,-60 101,-19 0,-19"/>
<text text-anchor="start" x="8" y="-48" font-family="Helvetica,sans-Serif" font-size="10.00">mom_state_initialization</text>
<text text-anchor="start" x="8" y="-37" font-family="Helvetica,sans-Serif" font-size="10.00">::initialize_temp_salt</text>
<text text-anchor="middle" x="50.5" y="-26" font-family="Helvetica,sans-Serif" font-size="10.00">_from_file</text>
</g>
<!-- Node77 -->
<g id="node2" class="node"><title>Node77</title>
<g id="a_node2"><a xlink:href="../../d0/de6/namespacemom__error__handler.html#a9cda07a87815f0e5594066162b4345c3" target="_top" xlink:title="Writes a message about entering a subroutine if call tree reporting is active. ">
<polygon fill="white" stroke="black" points="137,-49.5 137,-79.5 230,-79.5 230,-49.5 137,-49.5"/>
<text text-anchor="start" x="145" y="-67.5" font-family="Helvetica,sans-Serif" font-size="10.00">mom_error_handler::</text>
<text text-anchor="middle" x="183.5" y="-56.5" font-family="Helvetica,sans-Serif" font-size="10.00">calltree_enter</text>
</a>
</g>
</g>
<!-- Node76&#45;&gt;Node77 -->
<g id="edge1" class="edge"><title>Node76&#45;&gt;Node77</title>
<path fill="none" stroke="midnightblue" d="M101.025,-48.9514C109.462,-50.5614 118.275,-52.2433 126.857,-53.8811"/>
<polygon fill="midnightblue" stroke="midnightblue" points="126.31,-57.3398 136.789,-55.7765 127.622,-50.4639 126.31,-57.3398"/>
</g>
<!-- Node79 -->
<g id="node4" class="node"><title>Node79</title>
<g id="a_node4"><a xlink:href="../../d0/de6/namespacemom__error__handler.html#a88ea67781e2ed9b73ab7eac8ea5e8578" target="_top" xlink:title="Writes a message about leaving a subroutine if call tree reporting is active. ">
<polygon fill="white" stroke="black" points="137,-0.5 137,-30.5 230,-30.5 230,-0.5 137,-0.5"/>
<text text-anchor="start" x="145" y="-18.5" font-family="Helvetica,sans-Serif" font-size="10.00">mom_error_handler::</text>
<text text-anchor="middle" x="183.5" y="-7.5" font-family="Helvetica,sans-Serif" font-size="10.00">calltree_leave</text>
</a>
</g>
</g>
<!-- Node76&#45;&gt;Node79 -->
<g id="edge3" class="edge"><title>Node76&#45;&gt;Node79</title>
<path fill="none" stroke="midnightblue" d="M101.025,-30.4266C109.462,-28.881 118.275,-27.2664 126.857,-25.6941"/>
<polygon fill="midnightblue" stroke="midnightblue" points="127.583,-29.1194 136.789,-23.8746 126.322,-22.234 127.583,-29.1194"/>
</g>
<!-- Node78 -->
<g id="node3" class="node"><title>Node78</title>
<g id="a_node3"><a xlink:href="../../d0/de6/namespacemom__error__handler.html#ad5f00a53059c72fe2332d1436c80ca71" target="_top" xlink:title="mom_error_handler::\lis_root_pe">
<polygon fill="white" stroke="black" points="266,-24.5 266,-54.5 359,-54.5 359,-24.5 266,-24.5"/>
<text text-anchor="start" x="274" y="-42.5" font-family="Helvetica,sans-Serif" font-size="10.00">mom_error_handler::</text>
<text text-anchor="middle" x="312.5" y="-31.5" font-family="Helvetica,sans-Serif" font-size="10.00">is_root_pe</text>
</a>
</g>
</g>
<!-- Node77&#45;&gt;Node78 -->
<g id="edge2" class="edge"><title>Node77&#45;&gt;Node78</title>
<path fill="none" stroke="midnightblue" d="M230.35,-55.4744C238.623,-53.8459 247.33,-52.1319 255.846,-50.4556"/>
<polygon fill="midnightblue" stroke="midnightblue" points="256.582,-53.8779 265.717,-48.5123 255.23,-47.0097 256.582,-53.8779"/>
</g>
<!-- Node79&#45;&gt;Node78 -->
<g id="edge4" class="edge"><title>Node79&#45;&gt;Node78</title>
<path fill="none" stroke="midnightblue" d="M230.35,-24.1646C238.623,-25.7279 247.33,-27.3734 255.846,-28.9827"/>
<polygon fill="midnightblue" stroke="midnightblue" points="255.241,-32.4303 265.717,-30.8482 256.541,-25.5521 255.241,-32.4303"/>
</g>
</g>
</svg>
