<?xml version="1.0" encoding="UTF-8" standalone="no"?>
<!DOCTYPE svg PUBLIC "-//W3C//DTD SVG 1.1//EN"
 "http://www.w3.org/Graphics/SVG/1.1/DTD/svg11.dtd">
<!-- Generated by graphviz version 2.38.0 (20140413.2041)
 -->
<!-- Title: mom_state_initialization::adjustetatofitbathymetry Pages: 1 -->
<svg width="643pt" height="99pt"
 viewBox="0.00 0.00 643.00 98.50" xmlns="http://www.w3.org/2000/svg" xmlns:xlink="http://www.w3.org/1999/xlink">
<g id="graph0" class="graph" transform="scale(1 1) rotate(0) translate(4 94.5)">
<title>mom_state_initialization::adjustetatofitbathymetry</title>
<polygon fill="white" stroke="none" points="-4,4 -4,-94.5 639,-94.5 639,4 -4,4"/>
<!-- Node1 -->
<g id="node1" class="node"><title>Node1</title>
<polygon fill="#bfbfbf" stroke="black" points="0,-27.5 0,-57.5 106,-57.5 106,-27.5 0,-27.5"/>
<text text-anchor="start" x="8" y="-45.5" font-family="Helvetica,sans-Serif" font-size="10.00">mom_state_initialization</text>
<text text-anchor="middle" x="53" y="-34.5" font-family="Helvetica,sans-Serif" font-size="10.00">::adjustetatofitbathymetry</text>
</g>
<!-- Node2 -->
<g id="node2" class="node"><title>Node2</title>
<g id="a_node2"><a xlink:href="../../d6/d62/namespacemom__state__initialization.html#accc4fcdc108d4a20e6afd0556467aa38" target="_top" xlink:title="mom_state_initialization\l::initialize_thickness\l_from_file">
<polygon fill="white" stroke="black" points="161,-49 161,-90 262,-90 262,-49 161,-49"/>
<text text-anchor="start" x="169" y="-78" font-family="Helvetica,sans-Serif" font-size="10.00">mom_state_initialization</text>
<text text-anchor="start" x="169" y="-67" font-family="Helvetica,sans-Serif" font-size="10.00">::initialize_thickness</text>
<text text-anchor="middle" x="211.5" y="-56" font-family="Helvetica,sans-Serif" font-size="10.00">_from_file</text>
</a>
</g>
</g>
<!-- Node1&#45;&gt;Node2 -->
<g id="edge1" class="edge"><title>Node1&#45;&gt;Node2</title>
<path fill="none" stroke="midnightblue" d="M116.198,-53.2307C130.991,-55.7829 146.584,-58.473 160.737,-60.9147"/>
<polygon fill="midnightblue" stroke="midnightblue" points="116.562,-49.7418 106.112,-51.4906 115.372,-56.6399 116.562,-49.7418"/>
</g>
<!-- Node6 -->
<g id="node6" class="node"><title>Node6</title>
<g id="a_node6"><a xlink:href="../../d6/d62/namespacemom__state__initialization.html#ae33403313da1b783a1ad980e10012f8e" target="_top" xlink:title="mom_state_initialization\l::mom_temp_salt_initialize_from_z">
<polygon fill="white" stroke="black" points="142,-0.5 142,-30.5 281,-30.5 281,-0.5 142,-0.5"/>
<text text-anchor="start" x="150" y="-18.5" font-family="Helvetica,sans-Serif" font-size="10.00">mom_state_initialization</text>
<text text-anchor="middle" x="211.5" y="-7.5" font-family="Helvetica,sans-Serif" font-size="10.00">::mom_temp_salt_initialize_from_z</text>
</a>
</g>
</g>
<!-- Node1&#45;&gt;Node6 -->
<g id="edge5" class="edge"><title>Node1&#45;&gt;Node6</title>
<path fill="none" stroke="midnightblue" d="M116.244,-31.7615C124.678,-30.3064 133.371,-28.8066 141.908,-27.3337"/>
<polygon fill="midnightblue" stroke="midnightblue" points="115.372,-28.3601 106.112,-33.5094 116.562,-35.2582 115.372,-28.3601"/>
</g>
<!-- Node3 -->
<g id="node3" class="node"><title>Node3</title>
<g id="a_node3"><a xlink:href="../../d6/d62/namespacemom__state__initialization.html#af4e854627c6572332ba3fd895f169321" target="_top" xlink:title="mom_state_initialization\l::mom_initialize_state">
<polygon fill="white" stroke="black" points="317,-27.5 317,-57.5 418,-57.5 418,-27.5 317,-27.5"/>
<text text-anchor="start" x="325" y="-45.5" font-family="Helvetica,sans-Serif" font-size="10.00">mom_state_initialization</text>
<text text-anchor="middle" x="367.5" y="-34.5" font-family="Helvetica,sans-Serif" font-size="10.00">::mom_initialize_state</text>
</a>
</g>
</g>
<!-- Node2&#45;&gt;Node3 -->
<g id="edge2" class="edge"><title>Node2&#45;&gt;Node3</title>
<path fill="none" stroke="midnightblue" d="M272.117,-59.0476C286.873,-56.4606 302.526,-53.7161 316.755,-51.2216"/>
<polygon fill="midnightblue" stroke="midnightblue" points="271.32,-55.634 262.074,-60.8084 272.528,-62.5288 271.32,-55.634"/>
</g>
<!-- Node4 -->
<g id="node4" class="node"><title>Node4</title>
<g id="a_node4"><a xlink:href="../../da/d01/namespacemom.html#afebdc0103ad9cbe0ed4a54e522dc4104" target="_top" xlink:title="This subroutine initializes MOM. ">
<polygon fill="white" stroke="black" points="454,-33 454,-52 543,-52 543,-33 454,-33"/>
<text text-anchor="middle" x="498.5" y="-40" font-family="Helvetica,sans-Serif" font-size="10.00">mom::initialize_mom</text>
</a>
</g>
</g>
<!-- Node3&#45;&gt;Node4 -->
<g id="edge3" class="edge"><title>Node3&#45;&gt;Node4</title>
<path fill="none" stroke="midnightblue" d="M428.088,-42.5C436.755,-42.5 445.541,-42.5 453.815,-42.5"/>
<polygon fill="midnightblue" stroke="midnightblue" points="428.006,-39.0001 418.006,-42.5 428.006,-46.0001 428.006,-39.0001"/>
</g>
<!-- Node5 -->
<g id="node5" class="node"><title>Node5</title>
<g id="a_node5"><a xlink:href="../../de/dbc/MOM__driver_8F90.html#a08fffeb2d8e8acbf9ed4609be6d258c6" target="_top" xlink:title="mom_main">
<polygon fill="white" stroke="black" points="579,-33 579,-52 635,-52 635,-33 579,-33"/>
<text text-anchor="middle" x="607" y="-40" font-family="Helvetica,sans-Serif" font-size="10.00">mom_main</text>
</a>
</g>
</g>
<!-- Node4&#45;&gt;Node5 -->
<g id="edge4" class="edge"><title>Node4&#45;&gt;Node5</title>
<path fill="none" stroke="midnightblue" d="M553.407,-42.5C562.206,-42.5 570.981,-42.5 578.771,-42.5"/>
<polygon fill="midnightblue" stroke="midnightblue" points="553.125,-39.0001 543.125,-42.5 553.125,-46.0001 553.125,-39.0001"/>
</g>
<!-- Node6&#45;&gt;Node3 -->
<g id="edge6" class="edge"><title>Node6&#45;&gt;Node3</title>
<path fill="none" stroke="midnightblue" d="M291.429,-29.3382C299.988,-30.8388 308.515,-32.3338 316.587,-33.749"/>
<polygon fill="midnightblue" stroke="midnightblue" points="291.846,-25.8581 281.392,-27.5785 290.638,-32.7529 291.846,-25.8581"/>
</g>
</g>
</svg>
