<?xml version="1.0" encoding="UTF-8" standalone="no"?>
<!DOCTYPE svg PUBLIC "-//W3C//DTD SVG 1.1//EN"
 "http://www.w3.org/Graphics/SVG/1.1/DTD/svg11.dtd">
<!-- Generated by graphviz version 2.38.0 (20140413.2041)
 -->
<!-- Title: meso_surface_forcing::meso_surface_forcing_cs Pages: 1 -->
<svg width="290pt" height="161pt"
 viewBox="0.00 0.00 290.00 161.00" xmlns="http://www.w3.org/2000/svg" xmlns:xlink="http://www.w3.org/1999/xlink">
<g id="graph0" class="graph" transform="scale(1 1) rotate(0) translate(4 157)">
<title>meso_surface_forcing::meso_surface_forcing_cs</title>
<polygon fill="white" stroke="none" points="-4,4 -4,-157 286,-157 286,4 -4,4"/>
<!-- Node1 -->
<g id="node1" class="node"><title>Node1</title>
<polygon fill="#bfbfbf" stroke="black" points="91,-0.5 91,-30.5 203,-30.5 203,-0.5 91,-0.5"/>
<text text-anchor="start" x="99" y="-18.5" font-family="Helvetica,sans-Serif" font-size="10.00">meso_surface_forcing</text>
<text text-anchor="middle" x="147" y="-7.5" font-family="Helvetica,sans-Serif" font-size="10.00">::meso_surface_forcing_cs</text>
</g>
<!-- Node2 -->
<g id="node2" class="node"><title>Node2</title>
<polygon fill="white" stroke="#bfbfbf" points="0,-133.5 0,-152.5 38,-152.5 38,-133.5 0,-133.5"/>
<text text-anchor="middle" x="19" y="-140.5" font-family="Helvetica,sans-Serif" font-size="10.00">logical</text>
</g>
<!-- Node2&#45;&gt;Node1 -->
<g id="edge1" class="edge"><title>Node2&#45;&gt;Node1</title>
<path fill="none" stroke="#9a32cd" stroke-dasharray="5,2" d="M15.8617,-123.26C13.5263,-102.564 13.3005,-69.4686 31,-49 45.911,-31.7562 69.154,-23.3046 90.9305,-19.2843"/>
<polygon fill="#9a32cd" stroke="#9a32cd" points="12.4182,-123.908 17.2757,-133.323 19.3501,-122.933 12.4182,-123.908"/>
<text text-anchor="middle" x="62" y="-85" font-family="Helvetica,sans-Serif" font-size="10.00"> restorebuoy</text>
<text text-anchor="middle" x="62" y="-74" font-family="Helvetica,sans-Serif" font-size="10.00">use_temperature</text>
</g>
<!-- Node3 -->
<g id="node3" class="node"><title>Node3</title>
<polygon fill="white" stroke="#bfbfbf" points="61.5,-133.5 61.5,-152.5 146.5,-152.5 146.5,-133.5 61.5,-133.5"/>
<text text-anchor="middle" x="104" y="-140.5" font-family="Helvetica,sans-Serif" font-size="10.00">character(len=200)</text>
</g>
<!-- Node3&#45;&gt;Node1 -->
<g id="edge2" class="edge"><title>Node3&#45;&gt;Node1</title>
<path fill="none" stroke="#9a32cd" stroke-dasharray="5,2" d="M99.6606,-123.43C96.0799,-103.828 93.2799,-72.5671 105,-49 108.613,-41.7353 114.705,-35.6248 121.144,-30.7333"/>
<polygon fill="#9a32cd" stroke="#9a32cd" points="96.2879,-124.402 101.755,-133.477 103.141,-122.974 96.2879,-124.402"/>
<text text-anchor="middle" x="137" y="-107" font-family="Helvetica,sans-Serif" font-size="10.00"> heating_file</text>
<text text-anchor="middle" x="137" y="-96" font-family="Helvetica,sans-Serif" font-size="10.00">salinityrestore_file</text>
<text text-anchor="middle" x="137" y="-85" font-family="Helvetica,sans-Serif" font-size="10.00">pme_file</text>
<text text-anchor="middle" x="137" y="-74" font-family="Helvetica,sans-Serif" font-size="10.00">solar_file</text>
<text text-anchor="middle" x="137" y="-63" font-family="Helvetica,sans-Serif" font-size="10.00">sstrestore_file</text>
<text text-anchor="middle" x="137" y="-52" font-family="Helvetica,sans-Serif" font-size="10.00">inputdir</text>
</g>
<!-- Node4 -->
<g id="node4" class="node"><title>Node4</title>
<polygon fill="white" stroke="#bfbfbf" points="167.5,-133.5 167.5,-152.5 214.5,-152.5 214.5,-133.5 167.5,-133.5"/>
<text text-anchor="middle" x="191" y="-140.5" font-family="Helvetica,sans-Serif" font-size="10.00">diag_ctrl</text>
</g>
<!-- Node4&#45;&gt;Node1 -->
<g id="edge3" class="edge"><title>Node4&#45;&gt;Node1</title>
<path fill="none" stroke="#9a32cd" stroke-dasharray="5,2" d="M188.618,-123.337C185.701,-104.094 179.765,-73.5219 169,-49 166.206,-42.6364 162.146,-36.1844 158.273,-30.7246"/>
<polygon fill="#9a32cd" stroke="#9a32cd" points="185.183,-124.043 190.031,-133.464 192.116,-123.076 185.183,-124.043"/>
<text text-anchor="middle" x="197" y="-79.5" font-family="Helvetica,sans-Serif" font-size="10.00"> diag</text>
</g>
<!-- Node5 -->
<g id="node5" class="node"><title>Node5</title>
<polygon fill="white" stroke="#bfbfbf" points="233,-133.5 233,-152.5 263,-152.5 263,-133.5 233,-133.5"/>
<text text-anchor="middle" x="248" y="-140.5" font-family="Helvetica,sans-Serif" font-size="10.00">real</text>
</g>
<!-- Node5&#45;&gt;Node1 -->
<g id="edge4" class="edge"><title>Node5&#45;&gt;Node1</title>
<path fill="none" stroke="#9a32cd" stroke-dasharray="5,2" d="M244.48,-123.598C239.75,-103.207 229.574,-70.3854 210,-49 203.103,-41.465 194.056,-35.3996 184.978,-30.643"/>
<polygon fill="#9a32cd" stroke="#9a32cd" points="241.079,-124.436 246.572,-133.496 247.928,-122.989 241.079,-124.436"/>
<text text-anchor="middle" x="262.5" y="-107" font-family="Helvetica,sans-Serif" font-size="10.00"> flux_const</text>
<text text-anchor="middle" x="262.5" y="-96" font-family="Helvetica,sans-Serif" font-size="10.00">gust_const</text>
<text text-anchor="middle" x="262.5" y="-85" font-family="Helvetica,sans-Serif" font-size="10.00">t_restore</text>
<text text-anchor="middle" x="262.5" y="-74" font-family="Helvetica,sans-Serif" font-size="10.00">rho0</text>
<text text-anchor="middle" x="262.5" y="-63" font-family="Helvetica,sans-Serif" font-size="10.00">s_restore</text>
<text text-anchor="middle" x="262.5" y="-52" font-family="Helvetica,sans-Serif" font-size="10.00">g_earth</text>
</g>
</g>
</svg>
