<?xml version="1.0" encoding="UTF-8" standalone="no"?>
<!DOCTYPE svg PUBLIC "-//W3C//DTD SVG 1.1//EN"
 "http://www.w3.org/Graphics/SVG/1.1/DTD/svg11.dtd">
<!-- Generated by graphviz version 2.38.0 (20140413.2041)
 -->
<!-- Title: mom_shortwave_abs::sumswoverbands Pages: 1 -->
<svg width="651pt" height="39pt"
 viewBox="0.00 0.00 651.00 39.00" xmlns="http://www.w3.org/2000/svg" xmlns:xlink="http://www.w3.org/1999/xlink">
<g id="graph0" class="graph" transform="scale(1 1) rotate(0) translate(4 35)">
<title>mom_shortwave_abs::sumswoverbands</title>
<polygon fill="white" stroke="none" points="-4,4 -4,-35 647,-35 647,4 -4,4"/>
<!-- Node6 -->
<g id="node1" class="node"><title>Node6</title>
<polygon fill="#bfbfbf" stroke="black" points="0,-0.5 0,-30.5 98,-30.5 98,-0.5 0,-0.5"/>
<text text-anchor="start" x="8" y="-18.5" font-family="Helvetica,sans-Serif" font-size="10.00">mom_shortwave_abs::</text>
<text text-anchor="middle" x="49" y="-7.5" font-family="Helvetica,sans-Serif" font-size="10.00">sumswoverbands</text>
</g>
<!-- Node7 -->
<g id="node2" class="node"><title>Node7</title>
<g id="a_node2"><a xlink:href="../../dd/dc3/namespacemom__forcing__type.html#a2bb917f3d8bcdcf4f5bf49c435992640" target="_top" xlink:title="This routine calculates surface buoyancy flux by adding up the heat, FW &amp; salt fluxes. These are actual fluxes, with units of stuff per time. Setting dt=1 in the call to extractFluxes routine allows us to get &quot;stuf per time&quot; rather than the time integrated fluxes needed in other routines that call extractFluxes. ">
<polygon fill="white" stroke="black" points="134,-6 134,-25 307,-25 307,-6 134,-6"/>
<text text-anchor="middle" x="220.5" y="-13" font-family="Helvetica,sans-Serif" font-size="10.00">mom_forcing_type::calculatebuoyancyflux1d</text>
</a>
</g>
</g>
<!-- Node6&#45;&gt;Node7 -->
<g id="edge1" class="edge"><title>Node6&#45;&gt;Node7</title>
<path fill="none" stroke="midnightblue" d="M108.306,-15.5C116.526,-15.5 125.115,-15.5 133.718,-15.5"/>
<polygon fill="midnightblue" stroke="midnightblue" points="108.119,-12.0001 98.1185,-15.5 108.118,-19.0001 108.119,-12.0001"/>
</g>
<!-- Node8 -->
<g id="node3" class="node"><title>Node8</title>
<g id="a_node3"><a xlink:href="../../dd/dc3/namespacemom__forcing__type.html#ada776515b52ca3fa34901572cfef5858" target="_top" xlink:title="Calculates surface buoyancy flux by adding up the heat, FW and salt fluxes, for 2d arrays...">
<polygon fill="white" stroke="black" points="343,-6 343,-25 516,-25 516,-6 343,-6"/>
<text text-anchor="middle" x="429.5" y="-13" font-family="Helvetica,sans-Serif" font-size="10.00">mom_forcing_type::calculatebuoyancyflux2d</text>
</a>
</g>
</g>
<!-- Node7&#45;&gt;Node8 -->
<g id="edge2" class="edge"><title>Node7&#45;&gt;Node8</title>
<path fill="none" stroke="midnightblue" d="M317.198,-15.5C325.764,-15.5 334.402,-15.5 342.875,-15.5"/>
<polygon fill="midnightblue" stroke="midnightblue" points="317.189,-12.0001 307.189,-15.5 317.189,-19.0001 317.189,-12.0001"/>
</g>
<!-- Node9 -->
<g id="node4" class="node"><title>Node9</title>
<g id="a_node4"><a xlink:href="../../d8/df3/namespacemom__diabatic__driver.html#a61e57d3902367aa46aa3c2d949ee900f" target="_top" xlink:title="This subroutine imposes the diapycnal mass fluxes and the accompanying diapycnal advection of momentu...">
<polygon fill="white" stroke="black" points="552,-0.5 552,-30.5 643,-30.5 643,-0.5 552,-0.5"/>
<text text-anchor="start" x="560" y="-18.5" font-family="Helvetica,sans-Serif" font-size="10.00">mom_diabatic_driver</text>
<text text-anchor="middle" x="597.5" y="-7.5" font-family="Helvetica,sans-Serif" font-size="10.00">::diabatic</text>
</a>
</g>
</g>
<!-- Node8&#45;&gt;Node9 -->
<g id="edge3" class="edge"><title>Node8&#45;&gt;Node9</title>
<path fill="none" stroke="midnightblue" d="M526.654,-15.5C535.317,-15.5 543.783,-15.5 551.663,-15.5"/>
<polygon fill="midnightblue" stroke="midnightblue" points="526.417,-12.0001 516.417,-15.5 526.417,-19.0001 526.417,-12.0001"/>
</g>
</g>
</svg>
