<?xml version="1.0" encoding="UTF-8" standalone="no"?>
<!DOCTYPE svg PUBLIC "-//W3C//DTD SVG 1.1//EN"
 "http://www.w3.org/Graphics/SVG/1.1/DTD/svg11.dtd">
<!-- Generated by graphviz version 2.38.0 (20140413.2041)
 -->
<!-- Title: mom_obsolete_diagnostics::register_obsolete_diagnostics Pages: 1 -->
<!--zoomable 408 -->
<svg id="main" version="1.1" xmlns="http://www.w3.org/2000/svg" xmlns:xlink="http://www.w3.org/1999/xlink" xml:space="preserve" onload="init(evt)">
<style type="text/css"><![CDATA[
.edge:hover path { stroke: red; }
.edge:hover polygon { stroke: red; fill: red; }
]]></style>
<script type="text/javascript"><![CDATA[
var edges = document.getElementsByTagName('g');
if (edges && edges.length) {
  for (var i=0;i<edges.length;i++) {
    if (edges[i].id.substr(0,4)=='edge') {
      edges[i].setAttribute('class','edge');
    }
  }
}
]]></script>
        <defs>
                <circle id="rim" cx="0" cy="0" r="7"/>
                <circle id="rim2" cx="0" cy="0" r="3.5"/>
                <g id="zoomPlus">
                        <use xlink:href="#rim" fill="#404040">
                                <set attributeName="fill" to="#808080" begin="zoomplus.mouseover" end="zoomplus.mouseout"/>
                        </use>
                        <path d="M-4,0h8M0,-4v8" fill="none" stroke="white" stroke-width="1.5" pointer-events="none"/>
                </g>
                <g id="zoomMin">
                        <use xlink:href="#rim" fill="#404040">
                                <set attributeName="fill" to="#808080" begin="zoomminus.mouseover" end="zoomminus.mouseout"/>
                        </use>
                        <path d="M-4,0h8" fill="none" stroke="white" stroke-width="1.5" pointer-events="none"/>
                </g>
                <g id="dirArrow">
                        <path fill="none" stroke="white" stroke-width="1.5" d="M0,-3.0v7 M-2.5,-0.5L0,-3.0L2.5,-0.5"/>
                </g>
               <g id="resetDef">
                       <use xlink:href="#rim2" fill="#404040">
                               <set attributeName="fill" to="#808080" begin="reset.mouseover" end="reset.mouseout"/>
                       </use>
               </g>
        </defs>

<script type="text/javascript">
var viewWidth = 934;
var viewHeight = 408;
var sectionId = 'dynsection-2';
</script>
<script xlink:href="../../svgpan.js"/>
<svg id="graph" class="graph">
<g id="viewport">
<title>mom_obsolete_diagnostics::register_obsolete_diagnostics</title>
<polygon fill="white" stroke="none" points="-4,4 -4,-404.264 930,-404.264 930,4 -4,4"/>
<!-- Node13 -->
<g id="node1" class="node"><title>Node13</title>
<polygon fill="#bfbfbf" stroke="black" points="0,-66.2645 0,-96.2645 126,-96.2645 126,-66.2645 0,-66.2645"/>
<text text-anchor="start" x="8" y="-84.2645" font-family="Helvetica,sans-Serif" font-size="10.00">mom_obsolete_diagnostics</text>
<text text-anchor="middle" x="63" y="-73.2645" font-family="Helvetica,sans-Serif" font-size="10.00">::register_obsolete_diagnostics</text>
</g>
<!-- Node14 -->
<g id="node2" class="node"><title>Node14</title>
<g id="a_node2"><a xlink:href="../../df/d1a/namespacemom__obsolete__diagnostics.html#a137ff7cb882b715d0ccf915fef52386c" target="_top" xlink:title="Fakes a register of a diagnostic to find out if an obsolete parameter appears in the diag_table...">
<polygon fill="white" stroke="black" points="162,-172.264 162,-202.264 275,-202.264 275,-172.264 162,-172.264"/>
<text text-anchor="start" x="170" y="-190.264" font-family="Helvetica,sans-Serif" font-size="10.00">mom_obsolete_diagnostics</text>
<text text-anchor="middle" x="218.5" y="-179.264" font-family="Helvetica,sans-Serif" font-size="10.00">::found_in_diagtable</text>
</a>
</g>
</g>
<!-- Node13&#45;&gt;Node14 -->
<g id="edge1" class="edge"><title>Node13&#45;&gt;Node14</title>
<path fill="none" stroke="midnightblue" d="M85.9928,-96.4517C112.551,-114.792 157.363,-145.737 187.186,-166.331"/>
<polygon fill="midnightblue" stroke="midnightblue" points="185.33,-169.303 195.548,-172.105 189.308,-163.543 185.33,-169.303"/>
</g>
<!-- Node15 -->
<g id="node3" class="node"><title>Node15</title>
<g id="a_node3"><a xlink:href="../../d0/de6/namespacemom__error__handler.html#ad5f00a53059c72fe2332d1436c80ca71" target="_top" xlink:title="mom_error_handler::\lis_root_pe">
<polygon fill="white" stroke="black" points="833,-123.264 833,-153.264 926,-153.264 926,-123.264 833,-123.264"/>
<text text-anchor="start" x="841" y="-141.264" font-family="Helvetica,sans-Serif" font-size="10.00">mom_error_handler::</text>
<text text-anchor="middle" x="879.5" y="-130.264" font-family="Helvetica,sans-Serif" font-size="10.00">is_root_pe</text>
</a>
</g>
</g>
<!-- Node13&#45;&gt;Node15 -->
<g id="edge14" class="edge"><title>Node13&#45;&gt;Node15</title>
<path fill="none" stroke="midnightblue" d="M126.048,-74.9113C185.4,-69.3879 277.461,-62.2645 357.5,-62.2645 357.5,-62.2645 357.5,-62.2645 621.5,-62.2645 701.325,-62.2645 789.582,-96.3978 839.119,-118.914"/>
<polygon fill="midnightblue" stroke="midnightblue" points="837.95,-122.23 848.496,-123.249 840.888,-115.876 837.95,-122.23"/>
</g>
<!-- Node16 -->
<g id="node4" class="node"><title>Node16</title>
<g id="a_node4"><a xlink:href="../../d0/de6/namespacemom__error__handler.html#a460cfb79a06c29fc249952c2a3710d67" target="_top" xlink:title="mom_error_handler::\lmom_error">
<polygon fill="white" stroke="black" points="704,-123.264 704,-153.264 797,-153.264 797,-123.264 704,-123.264"/>
<text text-anchor="start" x="712" y="-141.264" font-family="Helvetica,sans-Serif" font-size="10.00">mom_error_handler::</text>
<text text-anchor="middle" x="750.5" y="-130.264" font-family="Helvetica,sans-Serif" font-size="10.00">mom_error</text>
</a>
</g>
</g>
<!-- Node13&#45;&gt;Node16 -->
<g id="edge17" class="edge"><title>Node13&#45;&gt;Node16</title>
<path fill="none" stroke="midnightblue" d="M126.048,-87.6176C185.4,-93.141 277.461,-100.264 357.5,-100.264 357.5,-100.264 357.5,-100.264 490.5,-100.264 561.226,-100.264 641.677,-114.308 693.891,-125.32"/>
<polygon fill="midnightblue" stroke="midnightblue" points="693.435,-128.801 703.947,-127.477 694.903,-121.957 693.435,-128.801"/>
</g>
<!-- Node23 -->
<g id="node11" class="node"><title>Node23</title>
<g id="a_node11"><a xlink:href="../../d9/def/namespacemom__file__parser.html#a17c0ef1bb1912f02faa0aaa1e0f64210" target="_top" xlink:title="mom_file_parser::log\l_version">
<polygon fill="white" stroke="black" points="312.5,-3.26447 312.5,-33.2645 404.5,-33.2645 404.5,-3.26447 312.5,-3.26447"/>
<text text-anchor="start" x="320.5" y="-21.2645" font-family="Helvetica,sans-Serif" font-size="10.00">mom_file_parser::log</text>
<text text-anchor="middle" x="358.5" y="-10.2645" font-family="Helvetica,sans-Serif" font-size="10.00">_version</text>
</a>
</g>
</g>
<!-- Node13&#45;&gt;Node23 -->
<g id="edge15" class="edge"><title>Node13&#45;&gt;Node23</title>
<path fill="none" stroke="midnightblue" d="M103.594,-66.1965C121.262,-59.9256 142.462,-53.0154 162,-48.2645 208.808,-36.8822 263.024,-28.9658 302.472,-24.1348"/>
<polygon fill="midnightblue" stroke="midnightblue" points="302.911,-27.6074 312.424,-22.9431 302.078,-20.657 302.911,-27.6074"/>
</g>
<!-- Node14&#45;&gt;Node15 -->
<g id="edge2" class="edge"><title>Node14&#45;&gt;Node15</title>
<path fill="none" stroke="midnightblue" d="M228.552,-202.583C258.696,-251.422 361.022,-400.264 488.5,-400.264 488.5,-400.264 488.5,-400.264 621.5,-400.264 753.65,-400.264 840.361,-228.293 868.519,-163.003"/>
<polygon fill="midnightblue" stroke="midnightblue" points="871.873,-164.057 872.534,-153.483 865.423,-161.337 871.873,-164.057"/>
</g>
<!-- Node14&#45;&gt;Node16 -->
<g id="edge3" class="edge"><title>Node14&#45;&gt;Node16</title>
<path fill="none" stroke="midnightblue" d="M275.148,-178.625C320.077,-171.924 384.976,-162.863 442,-157.264 529.683,-148.656 631.838,-143.259 693.539,-140.505"/>
<polygon fill="midnightblue" stroke="midnightblue" points="693.994,-143.989 703.831,-140.054 693.687,-136.995 693.994,-143.989"/>
</g>
<!-- Node17 -->
<g id="node5" class="node"><title>Node17</title>
<g id="a_node5"><a xlink:href="../../d9/d06/namespacemom__diag__mediator.html#ae4619c5022663fcc3c0f2216fcc42176" target="_top" xlink:title="Registers a static diagnostic, returning an integer handle. ">
<polygon fill="white" stroke="black" points="311,-240.264 311,-270.264 406,-270.264 406,-240.264 311,-240.264"/>
<text text-anchor="start" x="319" y="-258.264" font-family="Helvetica,sans-Serif" font-size="10.00">mom_diag_mediator::</text>
<text text-anchor="middle" x="358.5" y="-247.264" font-family="Helvetica,sans-Serif" font-size="10.00">register_static_field</text>
</a>
</g>
</g>
<!-- Node14&#45;&gt;Node17 -->
<g id="edge5" class="edge"><title>Node14&#45;&gt;Node17</title>
<path fill="none" stroke="midnightblue" d="M250.127,-202.356C270.048,-212.172 296.226,-225.071 317.746,-235.676"/>
<polygon fill="midnightblue" stroke="midnightblue" points="316.442,-238.935 326.959,-240.215 319.536,-232.656 316.442,-238.935"/>
</g>
<!-- Node16&#45;&gt;Node15 -->
<g id="edge4" class="edge"><title>Node16&#45;&gt;Node15</title>
<path fill="none" stroke="midnightblue" d="M797.35,-138.264C805.533,-138.264 814.141,-138.264 822.568,-138.264"/>
<polygon fill="midnightblue" stroke="midnightblue" points="822.717,-141.765 832.717,-138.264 822.717,-134.765 822.717,-141.765"/>
</g>
<!-- Node17&#45;&gt;Node15 -->
<g id="edge11" class="edge"><title>Node17&#45;&gt;Node15</title>
<path fill="none" stroke="midnightblue" d="M372.218,-270.486C387.015,-286.89 413.135,-312.02 442,-322.264 481.79,-336.387 495.952,-332.152 537,-322.264 664.405,-291.574 795.436,-201.229 850.968,-159.651"/>
<polygon fill="midnightblue" stroke="midnightblue" points="853.354,-162.235 859.221,-153.413 849.133,-156.651 853.354,-162.235"/>
</g>
<!-- Node18 -->
<g id="node6" class="node"><title>Node18</title>
<g id="a_node6"><a xlink:href="../../d9/d06/namespacemom__diag__mediator.html#a1b0bed2113a0c268eafd1bafbb48bd4f" target="_top" xlink:title="mom_diag_mediator::\lalloc_diag_with_id">
<polygon fill="white" stroke="black" points="442,-265.264 442,-295.264 537,-295.264 537,-265.264 442,-265.264"/>
<text text-anchor="start" x="450" y="-283.264" font-family="Helvetica,sans-Serif" font-size="10.00">mom_diag_mediator::</text>
<text text-anchor="middle" x="489.5" y="-272.264" font-family="Helvetica,sans-Serif" font-size="10.00">alloc_diag_with_id</text>
</a>
</g>
</g>
<!-- Node17&#45;&gt;Node18 -->
<g id="edge6" class="edge"><title>Node17&#45;&gt;Node18</title>
<path fill="none" stroke="midnightblue" d="M406.072,-264.29C414.475,-265.919 423.319,-267.633 431.969,-269.309"/>
<polygon fill="midnightblue" stroke="midnightblue" points="431.513,-272.786 441.996,-271.252 432.845,-265.913 431.513,-272.786"/>
</g>
<!-- Node19 -->
<g id="node7" class="node"><title>Node19</title>
<g id="a_node7"><a xlink:href="../../d9/d06/namespacemom__diag__mediator.html#a6e11afe7a97bf8e3333d33b0aebd6f6e" target="_top" xlink:title="mom_diag_mediator::\lassert">
<polygon fill="white" stroke="black" points="573,-216.264 573,-246.264 668,-246.264 668,-216.264 573,-216.264"/>
<text text-anchor="start" x="581" y="-234.264" font-family="Helvetica,sans-Serif" font-size="10.00">mom_diag_mediator::</text>
<text text-anchor="middle" x="620.5" y="-223.264" font-family="Helvetica,sans-Serif" font-size="10.00">assert</text>
</a>
</g>
</g>
<!-- Node17&#45;&gt;Node19 -->
<g id="edge7" class="edge"><title>Node17&#45;&gt;Node19</title>
<path fill="none" stroke="midnightblue" d="M378.145,-270.345C394.044,-282.171 418.064,-297.692 442,-304.264 482.715,-315.444 497.517,-319.225 537,-304.264 563.128,-294.365 586.303,-271.99 601.386,-254.603"/>
<polygon fill="midnightblue" stroke="midnightblue" points="604.392,-256.463 608.117,-246.544 599.02,-251.975 604.392,-256.463"/>
</g>
<!-- Node20 -->
<g id="node8" class="node"><title>Node20</title>
<g id="a_node8"><a xlink:href="../../d9/d06/namespacemom__diag__mediator.html#a3f7442639213320f7429e2288a79fda2" target="_top" xlink:title="mom_diag_mediator::\lget_new_diag_id">
<polygon fill="white" stroke="black" points="442,-216.264 442,-246.264 537,-246.264 537,-216.264 442,-216.264"/>
<text text-anchor="start" x="450" y="-234.264" font-family="Helvetica,sans-Serif" font-size="10.00">mom_diag_mediator::</text>
<text text-anchor="middle" x="489.5" y="-223.264" font-family="Helvetica,sans-Serif" font-size="10.00">get_new_diag_id</text>
</a>
</g>
</g>
<!-- Node17&#45;&gt;Node20 -->
<g id="edge9" class="edge"><title>Node17&#45;&gt;Node20</title>
<path fill="none" stroke="midnightblue" d="M406.072,-246.6C414.475,-245.037 423.319,-243.391 431.969,-241.782"/>
<polygon fill="midnightblue" stroke="midnightblue" points="432.805,-245.186 441.996,-239.916 431.525,-238.305 432.805,-245.186"/>
</g>
<!-- Node21 -->
<g id="node9" class="node"><title>Node21</title>
<g id="a_node9"><a xlink:href="../../d9/d06/namespacemom__diag__mediator.html#a65fe8d329cf5dbfd08c98874a7a64407" target="_top" xlink:title="Log a diagnostic to the available diagnostics file. ">
<polygon fill="white" stroke="black" points="442,-167.264 442,-197.264 537,-197.264 537,-167.264 442,-167.264"/>
<text text-anchor="start" x="450" y="-185.264" font-family="Helvetica,sans-Serif" font-size="10.00">mom_diag_mediator::</text>
<text text-anchor="middle" x="489.5" y="-174.264" font-family="Helvetica,sans-Serif" font-size="10.00">log_available_diag</text>
</a>
</g>
</g>
<!-- Node17&#45;&gt;Node21 -->
<g id="edge12" class="edge"><title>Node17&#45;&gt;Node21</title>
<path fill="none" stroke="midnightblue" d="M384.187,-240.08C400.464,-230.199 422.331,-217.169 442,-206.264 444.376,-204.947 446.832,-203.61 449.316,-202.276"/>
<polygon fill="midnightblue" stroke="midnightblue" points="451.143,-205.269 458.344,-197.497 447.869,-199.082 451.143,-205.269"/>
</g>
<!-- Node19&#45;&gt;Node16 -->
<g id="edge8" class="edge"><title>Node19&#45;&gt;Node16</title>
<path fill="none" stroke="midnightblue" d="M652.039,-215.99C657.469,-212.954 662.988,-209.652 668,-206.264 688.542,-192.381 710.004,-174.308 725.745,-160.284"/>
<polygon fill="midnightblue" stroke="midnightblue" points="728.337,-162.659 733.419,-153.363 723.649,-157.461 728.337,-162.659"/>
</g>
<!-- Node20&#45;&gt;Node19 -->
<g id="edge10" class="edge"><title>Node20&#45;&gt;Node19</title>
<path fill="none" stroke="midnightblue" d="M537.072,-231.264C545.475,-231.264 554.319,-231.264 562.969,-231.264"/>
<polygon fill="midnightblue" stroke="midnightblue" points="562.996,-234.765 572.996,-231.264 562.996,-227.765 562.996,-234.765"/>
</g>
<!-- Node22 -->
<g id="node10" class="node"><title>Node22</title>
<g id="a_node10"><a xlink:href="../../d9/d06/namespacemom__diag__mediator.html#ae002ca447acba252bf7bdc042e75a01e" target="_top" xlink:title="mom_diag_mediator::\ldescribe_option">
<polygon fill="white" stroke="black" points="573,-167.264 573,-197.264 668,-197.264 668,-167.264 573,-167.264"/>
<text text-anchor="start" x="581" y="-185.264" font-family="Helvetica,sans-Serif" font-size="10.00">mom_diag_mediator::</text>
<text text-anchor="middle" x="620.5" y="-174.264" font-family="Helvetica,sans-Serif" font-size="10.00">describe_option</text>
</a>
</g>
</g>
<!-- Node21&#45;&gt;Node22 -->
<g id="edge13" class="edge"><title>Node21&#45;&gt;Node22</title>
<path fill="none" stroke="midnightblue" d="M537.072,-182.264C545.475,-182.264 554.319,-182.264 562.969,-182.264"/>
<polygon fill="midnightblue" stroke="midnightblue" points="562.996,-185.765 572.996,-182.264 562.996,-178.765 562.996,-185.765"/>
</g>
<!-- Node23&#45;&gt;Node15 -->
<g id="edge16" class="edge"><title>Node23&#45;&gt;Node15</title>
<path fill="none" stroke="midnightblue" d="M404.813,-10.7636C487.494,0.704897 666.34,15.1242 797,-48.2645 826.705,-62.6754 850.569,-93.1414 864.62,-114.623"/>
<polygon fill="midnightblue" stroke="midnightblue" points="861.737,-116.612 870.029,-123.206 867.658,-112.88 861.737,-116.612"/>
</g>
</g>
</svg>
        <g id="navigator" transform="translate(0 0)" fill="#404254">
                <rect fill="#f2f5e9" fill-opacity="0.5" stroke="#606060" stroke-width=".5" x="0" y="0" width="60" height="60"/>
                <use id="zoomplus" xlink:href="#zoomPlus" x="17" y="9" onmousedown="handleZoom(evt,'in')"/>
                <use id="zoomminus" xlink:href="#zoomMin" x="42" y="9" onmousedown="handleZoom(evt,'out')"/>
                <use id="reset" xlink:href="#resetDef" x="30" y="36" onmousedown="handleReset()"/>
                <g id="arrowUp" xlink:href="#dirArrow" transform="translate(30 24)" onmousedown="handlePan(0,-1)">
                  <use xlink:href="#rim" fill="#404040">
                        <set attributeName="fill" to="#808080" begin="arrowUp.mouseover" end="arrowUp.mouseout"/>
                  </use>
                  <path fill="none" stroke="white" stroke-width="1.5" d="M0,-3.0v7 M-2.5,-0.5L0,-3.0L2.5,-0.5"/>
                </g>
                <g id="arrowRight" xlink:href="#dirArrow" transform="rotate(90) translate(36 -43)" onmousedown="handlePan(1,0)">
                  <use xlink:href="#rim" fill="#404040">
                        <set attributeName="fill" to="#808080" begin="arrowRight.mouseover" end="arrowRight.mouseout"/>
                  </use>
                  <path fill="none" stroke="white" stroke-width="1.5" d="M0,-3.0v7 M-2.5,-0.5L0,-3.0L2.5,-0.5"/>
                </g>
                <g id="arrowDown" xlink:href="#dirArrow" transform="rotate(180) translate(-30 -48)" onmousedown="handlePan(0,1)">
                  <use xlink:href="#rim" fill="#404040">
                        <set attributeName="fill" to="#808080" begin="arrowDown.mouseover" end="arrowDown.mouseout"/>
                  </use>
                  <path fill="none" stroke="white" stroke-width="1.5" d="M0,-3.0v7 M-2.5,-0.5L0,-3.0L2.5,-0.5"/>
                </g>
                <g id="arrowLeft" xlink:href="#dirArrow" transform="rotate(270) translate(-36 17)" onmousedown="handlePan(-1,0)">
                  <use xlink:href="#rim" fill="#404040">
                        <set attributeName="fill" to="#808080" begin="arrowLeft.mouseover" end="arrowLeft.mouseout"/>
                  </use>
                  <path fill="none" stroke="white" stroke-width="1.5" d="M0,-3.0v7 M-2.5,-0.5L0,-3.0L2.5,-0.5"/>
                </g>
        </g>
        <svg viewBox="0 0 15 15" width="100%" height="30px" preserveAspectRatio="xMaxYMin meet">
         <g id="arrow_out" transform="scale(0.3 0.3)">
          <a xlink:href="namespacemom__obsolete__diagnostics_ad5e890c09abd2c650beb9ac36bbb49b4_cgraph_org.svg" target="_base">
           <rect id="button" ry="5" rx="5" y="6" x="6" height="38" width="38"
                fill="#f2f5e9" fill-opacity="0.5" stroke="#606060" stroke-width="1.0"/>
           <path id="arrow"
             d="M 11.500037,31.436501 C 11.940474,20.09759 22.043105,11.32322 32.158766,21.979434 L 37.068811,17.246167 C 37.068811,17.246167 37.088388,32 37.088388,32 L 22.160133,31.978069 C 22.160133,31.978069 26.997745,27.140456 26.997745,27.140456 C 18.528582,18.264221 13.291696,25.230495 11.500037,31.436501 z"
             style="fill:#404040;"/>
          </a>
         </g>
        </svg>
</svg>
