<?xml version="1.0" encoding="UTF-8" standalone="no"?>
<!DOCTYPE svg PUBLIC "-//W3C//DTD SVG 1.1//EN"
 "http://www.w3.org/Graphics/SVG/1.1/DTD/svg11.dtd">
<!-- Generated by graphviz version 2.38.0 (20140413.2041)
 -->
<!-- Title: mom_variables::bt_cont_type Pages: 1 -->
<svg width="162pt" height="150pt"
 viewBox="0.00 0.00 162.00 150.00" xmlns="http://www.w3.org/2000/svg" xmlns:xlink="http://www.w3.org/1999/xlink">
<g id="graph0" class="graph" transform="scale(1 1) rotate(0) translate(4 146)">
<title>mom_variables::bt_cont_type</title>
<polygon fill="white" stroke="none" points="-4,4 -4,-146 158,-146 158,4 -4,4"/>
<!-- Node1 -->
<g id="node1" class="node"><title>Node1</title>
<polygon fill="#bfbfbf" stroke="black" points="20.5,-0.5 20.5,-19.5 141.5,-19.5 141.5,-0.5 20.5,-0.5"/>
<text text-anchor="middle" x="81" y="-7.5" font-family="Helvetica,sans-Serif" font-size="10.00">mom_variables::bt_cont_type</text>
</g>
<!-- Node2 -->
<g id="node2" class="node"><title>Node2</title>
<polygon fill="white" stroke="#bfbfbf" points="0,-122.5 0,-141.5 78,-141.5 78,-122.5 0,-122.5"/>
<text text-anchor="middle" x="39" y="-129.5" font-family="Helvetica,sans-Serif" font-size="10.00">group_pass_type</text>
</g>
<!-- Node2&#45;&gt;Node1 -->
<g id="edge1" class="edge"><title>Node2&#45;&gt;Node1</title>
<path fill="none" stroke="#9a32cd" stroke-dasharray="5,2" d="M34.3629,-112.523C30.4626,-92.7851 27.3317,-61.2114 40,-38 44.4097,-29.9203 52.3959,-23.8525 60.156,-19.537"/>
<polygon fill="#9a32cd" stroke="#9a32cd" points="30.9706,-113.391 36.5739,-122.383 37.801,-111.859 30.9706,-113.391"/>
<text text-anchor="middle" x="70.5" y="-74" font-family="Helvetica,sans-Serif" font-size="10.00"> pass_polarity_bt</text>
<text text-anchor="middle" x="70.5" y="-63" font-family="Helvetica,sans-Serif" font-size="10.00">pass_fa_uv</text>
</g>
<!-- Node3 -->
<g id="node3" class="node"><title>Node3</title>
<polygon fill="white" stroke="#bfbfbf" points="108,-122.5 108,-141.5 138,-141.5 138,-122.5 108,-122.5"/>
<text text-anchor="middle" x="123" y="-129.5" font-family="Helvetica,sans-Serif" font-size="10.00">real</text>
</g>
<!-- Node3&#45;&gt;Node1 -->
<g id="edge2" class="edge"><title>Node3&#45;&gt;Node1</title>
<path fill="none" stroke="#9a32cd" stroke-dasharray="5,2" d="M120.831,-112.241C118.085,-92.9206 112.284,-62.2877 101,-38 97.9523,-31.4399 93.1647,-24.9002 89.0377,-19.9003"/>
<polygon fill="#9a32cd" stroke="#9a32cd" points="117.392,-112.943 122.14,-122.414 124.335,-112.049 117.392,-112.943"/>
<text text-anchor="middle" x="136.5" y="-96" font-family="Helvetica,sans-Serif" font-size="10.00"> fa_u_ww</text>
<text text-anchor="middle" x="136.5" y="-85" font-family="Helvetica,sans-Serif" font-size="10.00">h_u</text>
<text text-anchor="middle" x="136.5" y="-74" font-family="Helvetica,sans-Serif" font-size="10.00">h_v</text>
<text text-anchor="middle" x="136.5" y="-63" font-family="Helvetica,sans-Serif" font-size="10.00">fa_u_e0</text>
<text text-anchor="middle" x="136.5" y="-52" font-family="Helvetica,sans-Serif" font-size="10.00">fa_u_w0</text>
<text text-anchor="middle" x="136.5" y="-41" font-family="Helvetica,sans-Serif" font-size="10.00">fa_u_ee</text>
</g>
</g>
</svg>
