<?xml version="1.0" encoding="UTF-8" standalone="no"?>
<!DOCTYPE svg PUBLIC "-//W3C//DTD SVG 1.1//EN"
 "http://www.w3.org/Graphics/SVG/1.1/DTD/svg11.dtd">
<!-- Generated by graphviz version 2.38.0 (20140413.2041)
 -->
<!-- Title: coupler_util::set_coupler_values Pages: 1 -->
<svg width="276pt" height="148pt"
 viewBox="0.00 0.00 276.00 147.50" xmlns="http://www.w3.org/2000/svg" xmlns:xlink="http://www.w3.org/1999/xlink">
<g id="graph0" class="graph" transform="scale(1 1) rotate(0) translate(4 143.5)">
<title>coupler_util::set_coupler_values</title>
<polygon fill="white" stroke="none" points="-4,4 -4,-143.5 272,-143.5 272,4 -4,4"/>
<!-- Node11 -->
<g id="node1" class="node"><title>Node11</title>
<polygon fill="#bfbfbf" stroke="black" points="0,-49.5 0,-79.5 103,-79.5 103,-49.5 0,-49.5"/>
<text text-anchor="start" x="8" y="-67.5" font-family="Helvetica,sans-Serif" font-size="10.00">coupler_util::set_coupler</text>
<text text-anchor="middle" x="51.5" y="-56.5" font-family="Helvetica,sans-Serif" font-size="10.00">_values</text>
</g>
<!-- Node12 -->
<g id="node2" class="node"><title>Node12</title>
<g id="a_node2"><a xlink:href="../../d8/dc2/namespaceadvection__test__tracer.html#aa6c4f896548db1962d80657113320936" target="_top" xlink:title="advection_test_tracer\l::advection_test_tracer\l_surface_state">
<polygon fill="white" stroke="black" points="154.5,-98 154.5,-139 252.5,-139 252.5,-98 154.5,-98"/>
<text text-anchor="start" x="162.5" y="-127" font-family="Helvetica,sans-Serif" font-size="10.00">advection_test_tracer</text>
<text text-anchor="start" x="162.5" y="-116" font-family="Helvetica,sans-Serif" font-size="10.00">::advection_test_tracer</text>
<text text-anchor="middle" x="203.5" y="-105" font-family="Helvetica,sans-Serif" font-size="10.00">_surface_state</text>
</a>
</g>
</g>
<!-- Node11&#45;&gt;Node12 -->
<g id="edge1" class="edge"><title>Node11&#45;&gt;Node12</title>
<path fill="none" stroke="midnightblue" d="M103.706,-82.9343C120.088,-88.8318 138.16,-95.3375 154.318,-101.155"/>
<polygon fill="midnightblue" stroke="midnightblue" points="104.878,-79.6362 94.2834,-79.542 102.507,-86.2224 104.878,-79.6362"/>
</g>
<!-- Node13 -->
<g id="node3" class="node"><title>Node13</title>
<g id="a_node3"><a xlink:href="../../d6/dcd/namespaceideal__age__example.html#a0997b3f4529586661040b6783901f5ca" target="_top" xlink:title="ideal_age_example::\lideal_age_tracer_surface_state">
<polygon fill="white" stroke="black" points="139,-49.5 139,-79.5 268,-79.5 268,-49.5 139,-49.5"/>
<text text-anchor="start" x="147" y="-67.5" font-family="Helvetica,sans-Serif" font-size="10.00">ideal_age_example::</text>
<text text-anchor="middle" x="203.5" y="-56.5" font-family="Helvetica,sans-Serif" font-size="10.00">ideal_age_tracer_surface_state</text>
</a>
</g>
</g>
<!-- Node11&#45;&gt;Node13 -->
<g id="edge2" class="edge"><title>Node11&#45;&gt;Node13</title>
<path fill="none" stroke="midnightblue" d="M113.339,-64.5C121.707,-64.5 130.319,-64.5 138.737,-64.5"/>
<polygon fill="midnightblue" stroke="midnightblue" points="113.283,-61.0001 103.283,-64.5 113.283,-68.0001 113.283,-61.0001"/>
</g>
<!-- Node14 -->
<g id="node4" class="node"><title>Node14</title>
<g id="a_node4"><a xlink:href="../../df/db5/namespaceuser__tracer__example.html#a74d52ac44781e8142dfa25fe60d06ae5" target="_top" xlink:title="user_tracer_example\l::user_tracer_surface_state">
<polygon fill="white" stroke="black" points="146,-0.5 146,-30.5 261,-30.5 261,-0.5 146,-0.5"/>
<text text-anchor="start" x="154" y="-18.5" font-family="Helvetica,sans-Serif" font-size="10.00">user_tracer_example</text>
<text text-anchor="middle" x="203.5" y="-7.5" font-family="Helvetica,sans-Serif" font-size="10.00">::user_tracer_surface_state</text>
</a>
</g>
</g>
<!-- Node11&#45;&gt;Node14 -->
<g id="edge3" class="edge"><title>Node11&#45;&gt;Node14</title>
<path fill="none" stroke="midnightblue" d="M108.395,-46.2409C124.216,-41.0727 141.252,-35.5076 156.424,-30.5516"/>
<polygon fill="midnightblue" stroke="midnightblue" points="107.148,-42.9663 98.7289,-49.3986 109.321,-49.6203 107.148,-42.9663"/>
</g>
</g>
</svg>
