<?xml version="1.0" encoding="UTF-8" standalone="no"?>
<!DOCTYPE svg PUBLIC "-//W3C//DTD SVG 1.1//EN"
 "http://www.w3.org/Graphics/SVG/1.1/DTD/svg11.dtd">
<!-- Generated by graphviz version 2.38.0 (20140413.2041)
 -->
<!-- Title: mom_ale::ale_initregridding Pages: 1 -->
<!--zoomable 122 -->
<svg id="main" version="1.1" xmlns="http://www.w3.org/2000/svg" xmlns:xlink="http://www.w3.org/1999/xlink" xml:space="preserve" onload="init(evt)">
<style type="text/css"><![CDATA[
.edge:hover path { stroke: red; }
.edge:hover polygon { stroke: red; fill: red; }
]]></style>
<script type="text/javascript"><![CDATA[
var edges = document.getElementsByTagName('g');
if (edges && edges.length) {
  for (var i=0;i<edges.length;i++) {
    if (edges[i].id.substr(0,4)=='edge') {
      edges[i].setAttribute('class','edge');
    }
  }
}
]]></script>
        <defs>
                <circle id="rim" cx="0" cy="0" r="7"/>
                <circle id="rim2" cx="0" cy="0" r="3.5"/>
                <g id="zoomPlus">
                        <use xlink:href="#rim" fill="#404040">
                                <set attributeName="fill" to="#808080" begin="zoomplus.mouseover" end="zoomplus.mouseout"/>
                        </use>
                        <path d="M-4,0h8M0,-4v8" fill="none" stroke="white" stroke-width="1.5" pointer-events="none"/>
                </g>
                <g id="zoomMin">
                        <use xlink:href="#rim" fill="#404040">
                                <set attributeName="fill" to="#808080" begin="zoomminus.mouseover" end="zoomminus.mouseout"/>
                        </use>
                        <path d="M-4,0h8" fill="none" stroke="white" stroke-width="1.5" pointer-events="none"/>
                </g>
                <g id="dirArrow">
                        <path fill="none" stroke="white" stroke-width="1.5" d="M0,-3.0v7 M-2.5,-0.5L0,-3.0L2.5,-0.5"/>
                </g>
               <g id="resetDef">
                       <use xlink:href="#rim2" fill="#404040">
                               <set attributeName="fill" to="#808080" begin="reset.mouseover" end="reset.mouseout"/>
                       </use>
               </g>
        </defs>

<script type="text/javascript">
var viewWidth = 516;
var viewHeight = 122;
var sectionId = 'dynsection-2';
</script>
<script xlink:href="../../svgpan.js"/>
<svg id="graph" class="graph">
<g id="viewport">
<title>mom_ale::ale_initregridding</title>
<polygon fill="white" stroke="none" points="-4,4 -4,-117.5 512,-117.5 512,4 -4,4"/>
<!-- Node23 -->
<g id="node1" class="node"><title>Node23</title>
<polygon fill="#bfbfbf" stroke="black" points="0,-50 0,-69 115,-69 115,-50 0,-50"/>
<text text-anchor="middle" x="57.5" y="-57" font-family="Helvetica,sans-Serif" font-size="10.00">mom_ale::ale_initregridding</text>
</g>
<!-- Node24 -->
<g id="node2" class="node"><title>Node24</title>
<g id="a_node2"><a xlink:href="../../d7/d73/namespacemom__ale.html#aa4e21aab357f4922537bb9a07e80f49f" target="_top" xlink:title="Parses a string and generates a dz(:) profile. ">
<polygon fill="white" stroke="black" points="151,-94 151,-113 250,-113 250,-94 151,-94"/>
<text text-anchor="middle" x="200.5" y="-101" font-family="Helvetica,sans-Serif" font-size="10.00">mom_ale::dz_function1</text>
</a>
</g>
</g>
<!-- Node23&#45;&gt;Node24 -->
<g id="edge1" class="edge"><title>Node23&#45;&gt;Node24</title>
<path fill="none" stroke="midnightblue" d="M89.0949,-69.0473C109.697,-75.4763 137.077,-84.0206 159.417,-90.9918"/>
<polygon fill="midnightblue" stroke="midnightblue" points="158.376,-94.3334 168.965,-93.9713 160.461,-87.6512 158.376,-94.3334"/>
</g>
<!-- Node25 -->
<g id="node3" class="node"><title>Node25</title>
<g id="a_node3"><a xlink:href="../../df/d46/namespacemom__string__functions.html#a7bfdab6bba33230cc94ed625e95022c9" target="_top" xlink:title="mom_string_functions\l::extractword">
<polygon fill="white" stroke="black" points="153,-44.5 153,-74.5 248,-74.5 248,-44.5 153,-44.5"/>
<text text-anchor="start" x="161" y="-62.5" font-family="Helvetica,sans-Serif" font-size="10.00">mom_string_functions</text>
<text text-anchor="middle" x="200.5" y="-51.5" font-family="Helvetica,sans-Serif" font-size="10.00">::extractword</text>
</a>
</g>
</g>
<!-- Node23&#45;&gt;Node25 -->
<g id="edge2" class="edge"><title>Node23&#45;&gt;Node25</title>
<path fill="none" stroke="midnightblue" d="M115.038,-59.5C124.167,-59.5 133.622,-59.5 142.756,-59.5"/>
<polygon fill="midnightblue" stroke="midnightblue" points="142.898,-63.0001 152.898,-59.5 142.898,-56.0001 142.898,-63.0001"/>
</g>
<!-- Node26 -->
<g id="node4" class="node"><title>Node26</title>
<g id="a_node4"><a xlink:href="../../d5/d89/namespacemom__io.html#ae7dd72cf77d5179d387ba16153af1b80" target="_top" xlink:title="Returns a directory name that is terminated with a &quot;/&quot; or &quot;./&quot; if the argument is an empty string...">
<polygon fill="white" stroke="black" points="163,-6 163,-25 238,-25 238,-6 163,-6"/>
<text text-anchor="middle" x="200.5" y="-13" font-family="Helvetica,sans-Serif" font-size="10.00">mom_io::slasher</text>
</a>
</g>
</g>
<!-- Node23&#45;&gt;Node26 -->
<g id="edge3" class="edge"><title>Node23&#45;&gt;Node26</title>
<path fill="none" stroke="midnightblue" d="M89.0949,-49.9527C109.697,-43.5237 137.077,-34.9794 159.417,-28.0082"/>
<polygon fill="midnightblue" stroke="midnightblue" points="160.461,-31.3488 168.965,-25.0287 158.376,-24.6666 160.461,-31.3488"/>
</g>
<!-- Node27 -->
<g id="node5" class="node"><title>Node27</title>
<g id="a_node5"><a xlink:href="../../d0/de6/namespacemom__error__handler.html#a460cfb79a06c29fc249952c2a3710d67" target="_top" xlink:title="mom_error_handler::\lmom_error">
<polygon fill="white" stroke="black" points="286,-0.5 286,-30.5 379,-30.5 379,-0.5 286,-0.5"/>
<text text-anchor="start" x="294" y="-18.5" font-family="Helvetica,sans-Serif" font-size="10.00">mom_error_handler::</text>
<text text-anchor="middle" x="332.5" y="-7.5" font-family="Helvetica,sans-Serif" font-size="10.00">mom_error</text>
</a>
</g>
</g>
<!-- Node26&#45;&gt;Node27 -->
<g id="edge4" class="edge"><title>Node26&#45;&gt;Node27</title>
<path fill="none" stroke="midnightblue" d="M238.058,-15.5C249.791,-15.5 263.064,-15.5 275.845,-15.5"/>
<polygon fill="midnightblue" stroke="midnightblue" points="275.951,-19.0001 285.951,-15.5 275.951,-12.0001 275.951,-19.0001"/>
</g>
<!-- Node28 -->
<g id="node6" class="node"><title>Node28</title>
<g id="a_node6"><a xlink:href="../../d0/de6/namespacemom__error__handler.html#ad5f00a53059c72fe2332d1436c80ca71" target="_top" xlink:title="mom_error_handler::\lis_root_pe">
<polygon fill="white" stroke="black" points="415,-0.5 415,-30.5 508,-30.5 508,-0.5 415,-0.5"/>
<text text-anchor="start" x="423" y="-18.5" font-family="Helvetica,sans-Serif" font-size="10.00">mom_error_handler::</text>
<text text-anchor="middle" x="461.5" y="-7.5" font-family="Helvetica,sans-Serif" font-size="10.00">is_root_pe</text>
</a>
</g>
</g>
<!-- Node27&#45;&gt;Node28 -->
<g id="edge5" class="edge"><title>Node27&#45;&gt;Node28</title>
<path fill="none" stroke="midnightblue" d="M379.35,-15.5C387.533,-15.5 396.141,-15.5 404.568,-15.5"/>
<polygon fill="midnightblue" stroke="midnightblue" points="404.717,-19.0001 414.717,-15.5 404.717,-12.0001 404.717,-19.0001"/>
</g>
</g>
</svg>
        <g id="navigator" transform="translate(0 0)" fill="#404254">
                <rect fill="#f2f5e9" fill-opacity="0.5" stroke="#606060" stroke-width=".5" x="0" y="0" width="60" height="60"/>
                <use id="zoomplus" xlink:href="#zoomPlus" x="17" y="9" onmousedown="handleZoom(evt,'in')"/>
                <use id="zoomminus" xlink:href="#zoomMin" x="42" y="9" onmousedown="handleZoom(evt,'out')"/>
                <use id="reset" xlink:href="#resetDef" x="30" y="36" onmousedown="handleReset()"/>
                <g id="arrowUp" xlink:href="#dirArrow" transform="translate(30 24)" onmousedown="handlePan(0,-1)">
                  <use xlink:href="#rim" fill="#404040">
                        <set attributeName="fill" to="#808080" begin="arrowUp.mouseover" end="arrowUp.mouseout"/>
                  </use>
                  <path fill="none" stroke="white" stroke-width="1.5" d="M0,-3.0v7 M-2.5,-0.5L0,-3.0L2.5,-0.5"/>
                </g>
                <g id="arrowRight" xlink:href="#dirArrow" transform="rotate(90) translate(36 -43)" onmousedown="handlePan(1,0)">
                  <use xlink:href="#rim" fill="#404040">
                        <set attributeName="fill" to="#808080" begin="arrowRight.mouseover" end="arrowRight.mouseout"/>
                  </use>
                  <path fill="none" stroke="white" stroke-width="1.5" d="M0,-3.0v7 M-2.5,-0.5L0,-3.0L2.5,-0.5"/>
                </g>
                <g id="arrowDown" xlink:href="#dirArrow" transform="rotate(180) translate(-30 -48)" onmousedown="handlePan(0,1)">
                  <use xlink:href="#rim" fill="#404040">
                        <set attributeName="fill" to="#808080" begin="arrowDown.mouseover" end="arrowDown.mouseout"/>
                  </use>
                  <path fill="none" stroke="white" stroke-width="1.5" d="M0,-3.0v7 M-2.5,-0.5L0,-3.0L2.5,-0.5"/>
                </g>
                <g id="arrowLeft" xlink:href="#dirArrow" transform="rotate(270) translate(-36 17)" onmousedown="handlePan(-1,0)">
                  <use xlink:href="#rim" fill="#404040">
                        <set attributeName="fill" to="#808080" begin="arrowLeft.mouseover" end="arrowLeft.mouseout"/>
                  </use>
                  <path fill="none" stroke="white" stroke-width="1.5" d="M0,-3.0v7 M-2.5,-0.5L0,-3.0L2.5,-0.5"/>
                </g>
        </g>
        <svg viewBox="0 0 15 15" width="100%" height="30px" preserveAspectRatio="xMaxYMin meet">
         <g id="arrow_out" transform="scale(0.3 0.3)">
          <a xlink:href="namespacemom__ale_acb67ef912ee001b72fa9ed5d6c79cabe_cgraph_org.svg" target="_base">
           <rect id="button" ry="5" rx="5" y="6" x="6" height="38" width="38"
                fill="#f2f5e9" fill-opacity="0.5" stroke="#606060" stroke-width="1.0"/>
           <path id="arrow"
             d="M 11.500037,31.436501 C 11.940474,20.09759 22.043105,11.32322 32.158766,21.979434 L 37.068811,17.246167 C 37.068811,17.246167 37.088388,32 37.088388,32 L 22.160133,31.978069 C 22.160133,31.978069 26.997745,27.140456 26.997745,27.140456 C 18.528582,18.264221 13.291696,25.230495 11.500037,31.436501 z"
             style="fill:#404040;"/>
          </a>
         </g>
        </svg>
</svg>
