<?xml version="1.0" encoding="UTF-8" standalone="no"?>
<!DOCTYPE svg PUBLIC "-//W3C//DTD SVG 1.1//EN"
 "http://www.w3.org/Graphics/SVG/1.1/DTD/svg11.dtd">
<!-- Generated by graphviz version 2.38.0 (20140413.2041)
 -->
<!-- Title: mom_ale::pressure_gradient_ppm Pages: 1 -->
<svg width="685pt" height="219pt"
 viewBox="0.00 0.00 685.00 218.50" xmlns="http://www.w3.org/2000/svg" xmlns:xlink="http://www.w3.org/1999/xlink">
<g id="graph0" class="graph" transform="scale(1 1) rotate(0) translate(4 214.5)">
<title>mom_ale::pressure_gradient_ppm</title>
<polygon fill="white" stroke="none" points="-4,4 -4,-214.5 681,-214.5 681,4 -4,4"/>
<!-- Node93 -->
<g id="node1" class="node"><title>Node93</title>
<polygon fill="#bfbfbf" stroke="black" points="0,-87.5 0,-106.5 140,-106.5 140,-87.5 0,-87.5"/>
<text text-anchor="middle" x="70" y="-94.5" font-family="Helvetica,sans-Serif" font-size="10.00">mom_ale::pressure_gradient_ppm</text>
</g>
<!-- Node94 -->
<g id="node2" class="node"><title>Node94</title>
<g id="a_node2"><a xlink:href="../../df/d50/namespaceregrid__edge__values.html#a2c2460b31b6de501eed3cb7db07a4be5" target="_top" xlink:title="regrid_edge_values\l::edge_values_implicit_h4">
<polygon fill="white" stroke="black" points="176,-131 176,-161 283,-161 283,-131 176,-131"/>
<text text-anchor="start" x="184" y="-149" font-family="Helvetica,sans-Serif" font-size="10.00">regrid_edge_values</text>
<text text-anchor="middle" x="229.5" y="-138" font-family="Helvetica,sans-Serif" font-size="10.00">::edge_values_implicit_h4</text>
</a>
</g>
</g>
<!-- Node93&#45;&gt;Node94 -->
<g id="edge1" class="edge"><title>Node93&#45;&gt;Node94</title>
<path fill="none" stroke="midnightblue" d="M101.741,-106.564C121.246,-112.632 147.105,-120.677 170.377,-127.917"/>
<polygon fill="midnightblue" stroke="midnightblue" points="169.579,-131.334 180.167,-130.963 171.658,-124.65 169.579,-131.334"/>
</g>
<!-- Node100 -->
<g id="node8" class="node"><title>Node100</title>
<g id="a_node8"><a xlink:href="../../d1/de6/namespaceppm__functions.html#aaf88d77ece3a30843c730fd2d57c517f" target="_top" xlink:title="ppm_functions::ppm\l_boundary_extrapolation">
<polygon fill="white" stroke="black" points="177,-82 177,-112 282,-112 282,-82 177,-82"/>
<text text-anchor="start" x="185" y="-100" font-family="Helvetica,sans-Serif" font-size="10.00">ppm_functions::ppm</text>
<text text-anchor="middle" x="229.5" y="-89" font-family="Helvetica,sans-Serif" font-size="10.00">_boundary_extrapolation</text>
</a>
</g>
</g>
<!-- Node93&#45;&gt;Node100 -->
<g id="edge7" class="edge"><title>Node93&#45;&gt;Node100</title>
<path fill="none" stroke="midnightblue" d="M140.082,-97C148.993,-97 158.072,-97 166.852,-97"/>
<polygon fill="midnightblue" stroke="midnightblue" points="166.995,-100.5 176.995,-97 166.995,-93.5001 166.995,-100.5"/>
</g>
<!-- Node101 -->
<g id="node9" class="node"><title>Node101</title>
<g id="a_node9"><a xlink:href="../../d1/de6/namespaceppm__functions.html#a97e2144c7499aacd90858788f1312432" target="_top" xlink:title="Builds quadratic polynomials coefficients from cell mean and edge values. ">
<polygon fill="white" stroke="black" points="185,-33 185,-63 274,-63 274,-33 185,-33"/>
<text text-anchor="start" x="193" y="-51" font-family="Helvetica,sans-Serif" font-size="10.00">ppm_functions::ppm</text>
<text text-anchor="middle" x="229.5" y="-40" font-family="Helvetica,sans-Serif" font-size="10.00">_reconstruction</text>
</a>
</g>
</g>
<!-- Node93&#45;&gt;Node101 -->
<g id="edge8" class="edge"><title>Node93&#45;&gt;Node101</title>
<path fill="none" stroke="midnightblue" d="M101.741,-87.436C122.513,-80.9736 150.492,-72.2693 174.878,-64.6823"/>
<polygon fill="midnightblue" stroke="midnightblue" points="176.217,-67.9315 184.726,-61.6187 174.137,-61.2475 176.217,-67.9315"/>
</g>
<!-- Node95 -->
<g id="node3" class="node"><title>Node95</title>
<g id="a_node3"><a xlink:href="../../de/db3/namespaceregrid__solvers.html#a8130a338b59de62b00f68da4204568ad" target="_top" xlink:title="regrid_solvers::solve\l_linear_system">
<polygon fill="white" stroke="black" points="324,-180 324,-210 413,-210 413,-180 324,-180"/>
<text text-anchor="start" x="332" y="-198" font-family="Helvetica,sans-Serif" font-size="10.00">regrid_solvers::solve</text>
<text text-anchor="middle" x="368.5" y="-187" font-family="Helvetica,sans-Serif" font-size="10.00">_linear_system</text>
</a>
</g>
</g>
<!-- Node94&#45;&gt;Node95 -->
<g id="edge2" class="edge"><title>Node94&#45;&gt;Node95</title>
<path fill="none" stroke="midnightblue" d="M272.722,-161.101C286.265,-165.945 301.422,-171.366 315.576,-176.428"/>
<polygon fill="midnightblue" stroke="midnightblue" points="314.587,-179.792 325.181,-179.864 316.944,-173.201 314.587,-179.792"/>
</g>
<!-- Node98 -->
<g id="node6" class="node"><title>Node98</title>
<g id="a_node6"><a xlink:href="../../d8/d08/namespacepolynomial__functions.html#aed77465c5ca9937dab06fdb5f94eba39" target="_top" xlink:title="polynomial_functions\l::evaluation_polynomial">
<polygon fill="white" stroke="black" points="319,-131 319,-161 418,-161 418,-131 319,-131"/>
<text text-anchor="start" x="327" y="-149" font-family="Helvetica,sans-Serif" font-size="10.00">polynomial_functions</text>
<text text-anchor="middle" x="368.5" y="-138" font-family="Helvetica,sans-Serif" font-size="10.00">::evaluation_polynomial</text>
</a>
</g>
</g>
<!-- Node94&#45;&gt;Node98 -->
<g id="edge5" class="edge"><title>Node94&#45;&gt;Node98</title>
<path fill="none" stroke="midnightblue" d="M283.076,-146C291.445,-146 300.149,-146 308.651,-146"/>
<polygon fill="midnightblue" stroke="midnightblue" points="308.886,-149.5 318.886,-146 308.886,-142.5 308.886,-149.5"/>
</g>
<!-- Node99 -->
<g id="node7" class="node"><title>Node99</title>
<g id="a_node7"><a xlink:href="../../de/db3/namespaceregrid__solvers.html#a0d5c3cff8f31429b0a2c6d267e8b345d" target="_top" xlink:title="regrid_solvers::solve\l_tridiagonal_system">
<polygon fill="white" stroke="black" points="324,-82 324,-112 413,-112 413,-82 324,-82"/>
<text text-anchor="start" x="332" y="-100" font-family="Helvetica,sans-Serif" font-size="10.00">regrid_solvers::solve</text>
<text text-anchor="middle" x="368.5" y="-89" font-family="Helvetica,sans-Serif" font-size="10.00">_tridiagonal_system</text>
</a>
</g>
</g>
<!-- Node94&#45;&gt;Node99 -->
<g id="edge6" class="edge"><title>Node94&#45;&gt;Node99</title>
<path fill="none" stroke="midnightblue" d="M272.722,-130.899C286.265,-126.055 301.422,-120.634 315.576,-115.572"/>
<polygon fill="midnightblue" stroke="midnightblue" points="316.944,-118.799 325.181,-112.136 314.587,-112.208 316.944,-118.799"/>
</g>
<!-- Node96 -->
<g id="node4" class="node"><title>Node96</title>
<g id="a_node4"><a xlink:href="../../d0/de6/namespacemom__error__handler.html#a460cfb79a06c29fc249952c2a3710d67" target="_top" xlink:title="mom_error_handler::\lmom_error">
<polygon fill="white" stroke="black" points="454.5,-180 454.5,-210 547.5,-210 547.5,-180 454.5,-180"/>
<text text-anchor="start" x="462.5" y="-198" font-family="Helvetica,sans-Serif" font-size="10.00">mom_error_handler::</text>
<text text-anchor="middle" x="501" y="-187" font-family="Helvetica,sans-Serif" font-size="10.00">mom_error</text>
</a>
</g>
</g>
<!-- Node95&#45;&gt;Node96 -->
<g id="edge3" class="edge"><title>Node95&#45;&gt;Node96</title>
<path fill="none" stroke="midnightblue" d="M413.318,-195C423.203,-195 433.826,-195 444.131,-195"/>
<polygon fill="midnightblue" stroke="midnightblue" points="444.29,-198.5 454.29,-195 444.29,-191.5 444.29,-198.5"/>
</g>
<!-- Node97 -->
<g id="node5" class="node"><title>Node97</title>
<g id="a_node5"><a xlink:href="../../d0/de6/namespacemom__error__handler.html#ad5f00a53059c72fe2332d1436c80ca71" target="_top" xlink:title="mom_error_handler::\lis_root_pe">
<polygon fill="white" stroke="black" points="584,-180 584,-210 677,-210 677,-180 584,-180"/>
<text text-anchor="start" x="592" y="-198" font-family="Helvetica,sans-Serif" font-size="10.00">mom_error_handler::</text>
<text text-anchor="middle" x="630.5" y="-187" font-family="Helvetica,sans-Serif" font-size="10.00">is_root_pe</text>
</a>
</g>
</g>
<!-- Node96&#45;&gt;Node97 -->
<g id="edge4" class="edge"><title>Node96&#45;&gt;Node97</title>
<path fill="none" stroke="midnightblue" d="M547.67,-195C556.093,-195 564.975,-195 573.658,-195"/>
<polygon fill="midnightblue" stroke="midnightblue" points="573.72,-198.5 583.72,-195 573.72,-191.5 573.72,-198.5"/>
</g>
<!-- Node102 -->
<g id="node10" class="node"><title>Node102</title>
<g id="a_node10"><a xlink:href="../../d1/de6/namespaceppm__functions.html#a89920c90b84f0b241c5a6d65fe2870b9" target="_top" xlink:title="Adjusts edge values using the standard PPM limiter (Colella &amp; Woodward, JCP 1984) after first checkin...">
<polygon fill="white" stroke="black" points="324,-33 324,-63 413,-63 413,-33 324,-33"/>
<text text-anchor="start" x="332" y="-51" font-family="Helvetica,sans-Serif" font-size="10.00">ppm_functions::ppm</text>
<text text-anchor="middle" x="368.5" y="-40" font-family="Helvetica,sans-Serif" font-size="10.00">_limiter_standard</text>
</a>
</g>
</g>
<!-- Node101&#45;&gt;Node102 -->
<g id="edge9" class="edge"><title>Node101&#45;&gt;Node102</title>
<path fill="none" stroke="midnightblue" d="M274.224,-48C286.706,-48 300.456,-48 313.475,-48"/>
<polygon fill="midnightblue" stroke="midnightblue" points="313.721,-51.5001 323.721,-48 313.721,-44.5001 313.721,-51.5001"/>
</g>
<!-- Node103 -->
<g id="node11" class="node"><title>Node103</title>
<g id="a_node11"><a xlink:href="../../df/d50/namespaceregrid__edge__values.html#aa204fe78ee22cae62f2b7f1bc76151a9" target="_top" xlink:title="regrid_edge_values\l::bound_edge_values">
<polygon fill="white" stroke="black" points="454.5,-60 454.5,-90 547.5,-90 547.5,-60 454.5,-60"/>
<text text-anchor="start" x="462.5" y="-78" font-family="Helvetica,sans-Serif" font-size="10.00">regrid_edge_values</text>
<text text-anchor="middle" x="501" y="-67" font-family="Helvetica,sans-Serif" font-size="10.00">::bound_edge_values</text>
</a>
</g>
</g>
<!-- Node102&#45;&gt;Node103 -->
<g id="edge10" class="edge"><title>Node102&#45;&gt;Node103</title>
<path fill="none" stroke="midnightblue" d="M413.318,-57.0657C423.306,-59.1322 434.048,-61.3547 444.453,-63.5075"/>
<polygon fill="midnightblue" stroke="midnightblue" points="443.788,-66.9441 454.29,-65.5428 445.207,-60.0892 443.788,-66.9441"/>
</g>
<!-- Node104 -->
<g id="node12" class="node"><title>Node104</title>
<g id="a_node12"><a xlink:href="../../df/d50/namespaceregrid__edge__values.html#acbdacbbf7212e538bb52a9729fc949a7" target="_top" xlink:title="regrid_edge_values\l::check_discontinuous\l_edge_values">
<polygon fill="white" stroke="black" points="454,-0.5 454,-41.5 548,-41.5 548,-0.5 454,-0.5"/>
<text text-anchor="start" x="462" y="-29.5" font-family="Helvetica,sans-Serif" font-size="10.00">regrid_edge_values</text>
<text text-anchor="start" x="462" y="-18.5" font-family="Helvetica,sans-Serif" font-size="10.00">::check_discontinuous</text>
<text text-anchor="middle" x="501" y="-7.5" font-family="Helvetica,sans-Serif" font-size="10.00">_edge_values</text>
</a>
</g>
</g>
<!-- Node102&#45;&gt;Node104 -->
<g id="edge11" class="edge"><title>Node102&#45;&gt;Node104</title>
<path fill="none" stroke="midnightblue" d="M413.318,-38.9343C423.092,-36.9121 433.588,-34.7405 443.783,-32.631"/>
<polygon fill="midnightblue" stroke="midnightblue" points="444.758,-36.0036 453.841,-30.5501 443.34,-29.1488 444.758,-36.0036"/>
</g>
</g>
</svg>
