<?xml version="1.0" encoding="UTF-8" standalone="no"?>
<!DOCTYPE svg PUBLIC "-//W3C//DTD SVG 1.1//EN"
 "http://www.w3.org/Graphics/SVG/1.1/DTD/svg11.dtd">
<!-- Generated by graphviz version 2.38.0 (20140413.2041)
 -->
<!-- Title: mom_remapping::measure_input_bounds Pages: 1 -->
<!--zoomable 230 -->
<svg id="main" version="1.1" xmlns="http://www.w3.org/2000/svg" xmlns:xlink="http://www.w3.org/1999/xlink" xml:space="preserve" onload="init(evt)">
<style type="text/css"><![CDATA[
.edge:hover path { stroke: red; }
.edge:hover polygon { stroke: red; fill: red; }
]]></style>
<script type="text/javascript"><![CDATA[
var edges = document.getElementsByTagName('g');
if (edges && edges.length) {
  for (var i=0;i<edges.length;i++) {
    if (edges[i].id.substr(0,4)=='edge') {
      edges[i].setAttribute('class','edge');
    }
  }
}
]]></script>
        <defs>
                <circle id="rim" cx="0" cy="0" r="7"/>
                <circle id="rim2" cx="0" cy="0" r="3.5"/>
                <g id="zoomPlus">
                        <use xlink:href="#rim" fill="#404040">
                                <set attributeName="fill" to="#808080" begin="zoomplus.mouseover" end="zoomplus.mouseout"/>
                        </use>
                        <path d="M-4,0h8M0,-4v8" fill="none" stroke="white" stroke-width="1.5" pointer-events="none"/>
                </g>
                <g id="zoomMin">
                        <use xlink:href="#rim" fill="#404040">
                                <set attributeName="fill" to="#808080" begin="zoomminus.mouseover" end="zoomminus.mouseout"/>
                        </use>
                        <path d="M-4,0h8" fill="none" stroke="white" stroke-width="1.5" pointer-events="none"/>
                </g>
                <g id="dirArrow">
                        <path fill="none" stroke="white" stroke-width="1.5" d="M0,-3.0v7 M-2.5,-0.5L0,-3.0L2.5,-0.5"/>
                </g>
               <g id="resetDef">
                       <use xlink:href="#rim2" fill="#404040">
                               <set attributeName="fill" to="#808080" begin="reset.mouseover" end="reset.mouseout"/>
                       </use>
               </g>
        </defs>

<script type="text/javascript">
var viewWidth = 1094;
var viewHeight = 230;
var sectionId = 'dynsection-13';
</script>
<script xlink:href="../../svgpan.js"/>
<svg id="graph" class="graph">
<g id="viewport">
<title>mom_remapping::measure_input_bounds</title>
<polygon fill="white" stroke="none" points="-4,4 -4,-226 1090,-226 1090,4 -4,4"/>
<!-- Node118 -->
<g id="node1" class="node"><title>Node118</title>
<polygon fill="#bfbfbf" stroke="black" points="0,-44.5 0,-74.5 113,-74.5 113,-44.5 0,-44.5"/>
<text text-anchor="start" x="8" y="-62.5" font-family="Helvetica,sans-Serif" font-size="10.00">mom_remapping::measure</text>
<text text-anchor="middle" x="56.5" y="-51.5" font-family="Helvetica,sans-Serif" font-size="10.00">_input_bounds</text>
</g>
<!-- Node119 -->
<g id="node2" class="node"><title>Node119</title>
<g id="a_node2"><a xlink:href="../../d6/d75/namespacemom__remapping.html#aac27eb299cd36293b458a51b60ac771f" target="_top" xlink:title="Remaps column of n0 values u0 on grid h0 to grid h1 with n1 cells by calculating the n0+n1+1 sub&#45;inte...">
<polygon fill="white" stroke="black" points="149,-44.5 149,-74.5 254,-74.5 254,-44.5 149,-44.5"/>
<text text-anchor="start" x="157" y="-62.5" font-family="Helvetica,sans-Serif" font-size="10.00">mom_remapping::remap</text>
<text text-anchor="middle" x="201.5" y="-51.5" font-family="Helvetica,sans-Serif" font-size="10.00">_via_sub_cells</text>
</a>
</g>
</g>
<!-- Node118&#45;&gt;Node119 -->
<g id="edge1" class="edge"><title>Node118&#45;&gt;Node119</title>
<path fill="none" stroke="midnightblue" d="M123.235,-59.5C131.855,-59.5 140.588,-59.5 148.927,-59.5"/>
<polygon fill="midnightblue" stroke="midnightblue" points="123.197,-56.0001 113.197,-59.5 123.197,-63.0001 123.197,-56.0001"/>
</g>
<!-- Node120 -->
<g id="node3" class="node"><title>Node120</title>
<g id="a_node3"><a xlink:href="../../d6/d75/namespacemom__remapping.html#a6d1533ffa647f3305aba055e2685b095" target="_top" xlink:title="Remaps column of values u0 on grid h0 to grid h1 assuming the top edge is aligned. ">
<polygon fill="white" stroke="black" points="290,-88.5 290,-118.5 410,-118.5 410,-88.5 290,-88.5"/>
<text text-anchor="start" x="298" y="-106.5" font-family="Helvetica,sans-Serif" font-size="10.00">mom_remapping::remapping</text>
<text text-anchor="middle" x="350" y="-95.5" font-family="Helvetica,sans-Serif" font-size="10.00">_core_h</text>
</a>
</g>
</g>
<!-- Node118&#45;&gt;Node120 -->
<g id="edge18" class="edge"><title>Node118&#45;&gt;Node120</title>
<path fill="none" stroke="midnightblue" d="M118.852,-77.0025C128.869,-79.4525 139.181,-81.7326 149,-83.5 195.879,-91.9382 249.627,-97.0639 289.591,-100.011"/>
<polygon fill="midnightblue" stroke="midnightblue" points="119.514,-73.56 108.962,-74.5087 117.803,-80.3475 119.514,-73.56"/>
</g>
<!-- Node131 -->
<g id="node14" class="node"><title>Node131</title>
<g id="a_node14"><a xlink:href="../../d6/d75/namespacemom__remapping.html#a8b967872b8db2ac7d538991f7f255e56" target="_top" xlink:title="Remaps column of values u0 on grid h0 to implied grid h1 where the interfaces of h1 differ from those...">
<polygon fill="white" stroke="black" points="290,-0.5 290,-30.5 410,-30.5 410,-0.5 290,-0.5"/>
<text text-anchor="start" x="298" y="-18.5" font-family="Helvetica,sans-Serif" font-size="10.00">mom_remapping::remapping</text>
<text text-anchor="middle" x="350" y="-7.5" font-family="Helvetica,sans-Serif" font-size="10.00">_core_w</text>
</a>
</g>
</g>
<!-- Node118&#45;&gt;Node131 -->
<g id="edge19" class="edge"><title>Node118&#45;&gt;Node131</title>
<path fill="none" stroke="midnightblue" d="M116.299,-41.8365C127.101,-39.049 138.334,-36.4488 149,-34.5 195.834,-25.943 249.585,-21.1095 289.562,-18.4614"/>
<polygon fill="midnightblue" stroke="midnightblue" points="115.293,-38.4825 106.529,-44.4359 117.093,-45.2472 115.293,-38.4825"/>
</g>
<!-- Node119&#45;&gt;Node120 -->
<g id="edge2" class="edge"><title>Node119&#45;&gt;Node120</title>
<path fill="none" stroke="midnightblue" d="M262.114,-77.4045C274.264,-81.0538 286.934,-84.859 298.721,-88.3991"/>
<polygon fill="midnightblue" stroke="midnightblue" points="263.091,-74.0437 252.507,-74.5192 261.078,-80.7479 263.091,-74.0437"/>
</g>
<!-- Node119&#45;&gt;Node131 -->
<g id="edge13" class="edge"><title>Node119&#45;&gt;Node131</title>
<path fill="none" stroke="midnightblue" d="M262.114,-41.5955C274.264,-37.9462 286.934,-34.141 298.721,-30.6009"/>
<polygon fill="midnightblue" stroke="midnightblue" points="261.078,-38.2521 252.507,-44.4808 263.091,-44.9563 261.078,-38.2521"/>
</g>
<!-- Node132 -->
<g id="node15" class="node"><title>Node132</title>
<g id="a_node15"><a xlink:href="../../d6/d75/namespacemom__remapping.html#aad5ec4e3f91e936e34113503d05deeeb" target="_top" xlink:title="Runs unit tests on remapping functions. Should only be called from a single/root thread Returns True ...">
<polygon fill="white" stroke="black" points="446,-6 446,-25 595,-25 595,-6 446,-6"/>
<text text-anchor="middle" x="520.5" y="-13" font-family="Helvetica,sans-Serif" font-size="10.00">mom_remapping::remappingunittests</text>
</a>
</g>
</g>
<!-- Node119&#45;&gt;Node132 -->
<g id="edge17" class="edge"><title>Node119&#45;&gt;Node132</title>
<path fill="none" stroke="midnightblue" d="M264.506,-55.4732C305.873,-52.3087 361.385,-47.1424 410,-39.5 433.936,-35.7372 460.489,-29.958 481.452,-25.0135"/>
<polygon fill="midnightblue" stroke="midnightblue" points="264.018,-51.9998 254.307,-56.2349 264.54,-58.9804 264.018,-51.9998"/>
</g>
<!-- Node121 -->
<g id="node4" class="node"><title>Node121</title>
<g id="a_node4"><a xlink:href="../../d9/d06/namespacemom__diag__mediator.html#ab5e628e0b8acd96234fab33d0fae2161" target="_top" xlink:title="Remap diagnostic field to z&#45;star vertical grid. ">
<polygon fill="white" stroke="black" points="473,-166.5 473,-196.5 568,-196.5 568,-166.5 473,-166.5"/>
<text text-anchor="start" x="481" y="-184.5" font-family="Helvetica,sans-Serif" font-size="10.00">mom_diag_mediator::</text>
<text text-anchor="middle" x="520.5" y="-173.5" font-family="Helvetica,sans-Serif" font-size="10.00">remap_diag_to_z</text>
</a>
</g>
</g>
<!-- Node120&#45;&gt;Node121 -->
<g id="edge3" class="edge"><title>Node120&#45;&gt;Node121</title>
<path fill="none" stroke="midnightblue" d="M392.578,-122.747C421.65,-136.205 459.934,-153.926 486.824,-166.374"/>
<polygon fill="midnightblue" stroke="midnightblue" points="394.034,-119.564 383.488,-118.539 391.093,-125.916 394.034,-119.564"/>
</g>
<!-- Node123 -->
<g id="node6" class="node"><title>Node123</title>
<g id="a_node6"><a xlink:href="../../d6/d62/namespacemom__state__initialization.html#a71ee3c056ca59c1c3529a4ec22e09fe3" target="_top" xlink:title="Adjust the layer thicknesses by cutting away the top at the depth where the hydrostatic pressure matc...">
<polygon fill="white" stroke="black" points="470,-93.5 470,-123.5 571,-123.5 571,-93.5 470,-93.5"/>
<text text-anchor="start" x="478" y="-111.5" font-family="Helvetica,sans-Serif" font-size="10.00">mom_state_initialization</text>
<text text-anchor="middle" x="520.5" y="-100.5" font-family="Helvetica,sans-Serif" font-size="10.00">::cut_off_column_top</text>
</a>
</g>
</g>
<!-- Node120&#45;&gt;Node123 -->
<g id="edge5" class="edge"><title>Node120&#45;&gt;Node123</title>
<path fill="none" stroke="midnightblue" d="M420.57,-105.564C437.092,-106.055 454.391,-106.568 469.819,-107.026"/>
<polygon fill="midnightblue" stroke="midnightblue" points="420.506,-102.061 410.407,-105.263 420.299,-109.058 420.506,-102.061"/>
</g>
<!-- Node129 -->
<g id="node12" class="node"><title>Node129</title>
<g id="a_node12"><a xlink:href="../../de/dd7/namespacemom__ale__sponge.html#a8f6e6db99f860b048a58e97e58c101a6" target="_top" xlink:title="This subroutine applies damping to the layers thicknesses, temp, salt and a variety of tracers for ev...">
<polygon fill="white" stroke="black" points="468.5,-44.5 468.5,-74.5 572.5,-74.5 572.5,-44.5 468.5,-44.5"/>
<text text-anchor="start" x="476.5" y="-62.5" font-family="Helvetica,sans-Serif" font-size="10.00">mom_ale_sponge::apply</text>
<text text-anchor="middle" x="520.5" y="-51.5" font-family="Helvetica,sans-Serif" font-size="10.00">_ale_sponge</text>
</a>
</g>
</g>
<!-- Node120&#45;&gt;Node129 -->
<g id="edge11" class="edge"><title>Node120&#45;&gt;Node129</title>
<path fill="none" stroke="midnightblue" d="M418.24,-85.9419C434.972,-81.5726 452.638,-76.9595 468.448,-72.8311"/>
<polygon fill="midnightblue" stroke="midnightblue" points="417.308,-82.5677 408.517,-88.4808 419.077,-89.3406 417.308,-82.5677"/>
</g>
<!-- Node122 -->
<g id="node5" class="node"><title>Node122</title>
<g id="a_node5"><a xlink:href="../../d9/d06/namespacemom__diag__mediator.html#adb1030a0216c52dd0d25bd67a5b31868" target="_top" xlink:title="mom_diag_mediator::\lpost_data_3d">
<polygon fill="white" stroke="black" points="634,-191.5 634,-221.5 729,-221.5 729,-191.5 634,-191.5"/>
<text text-anchor="start" x="642" y="-209.5" font-family="Helvetica,sans-Serif" font-size="10.00">mom_diag_mediator::</text>
<text text-anchor="middle" x="681.5" y="-198.5" font-family="Helvetica,sans-Serif" font-size="10.00">post_data_3d</text>
</a>
</g>
</g>
<!-- Node121&#45;&gt;Node122 -->
<g id="edge4" class="edge"><title>Node121&#45;&gt;Node122</title>
<path fill="none" stroke="midnightblue" d="M578.284,-190.428C596.546,-193.3 616.555,-196.446 633.99,-199.187"/>
<polygon fill="midnightblue" stroke="midnightblue" points="578.768,-186.961 568.345,-188.866 577.68,-193.876 578.768,-186.961"/>
</g>
<!-- Node124 -->
<g id="node7" class="node"><title>Node124</title>
<g id="a_node7"><a xlink:href="../../d6/d62/namespacemom__state__initialization.html#acc1029776c1bdda2862ed0f95c8dc640" target="_top" xlink:title="Adjust the layer thicknesses by cutting away the top of each model column at the depth where the hydr...">
<polygon fill="white" stroke="black" points="631,-142.5 631,-172.5 732,-172.5 732,-142.5 631,-142.5"/>
<text text-anchor="start" x="639" y="-160.5" font-family="Helvetica,sans-Serif" font-size="10.00">mom_state_initialization</text>
<text text-anchor="middle" x="681.5" y="-149.5" font-family="Helvetica,sans-Serif" font-size="10.00">::trim_for_ice</text>
</a>
</g>
</g>
<!-- Node123&#45;&gt;Node124 -->
<g id="edge6" class="edge"><title>Node123&#45;&gt;Node124</title>
<path fill="none" stroke="midnightblue" d="M580.275,-126.613C597.178,-131.822 615.426,-137.446 631.659,-142.448"/>
<polygon fill="midnightblue" stroke="midnightblue" points="581.09,-123.202 570.503,-123.601 579.028,-129.891 581.09,-123.202"/>
</g>
<!-- Node128 -->
<g id="node11" class="node"><title>Node128</title>
<g id="a_node11"><a xlink:href="../../d6/d62/namespacemom__state__initialization.html#a5c77bf2b0ea9d28e28b661a2a42d3f88" target="_top" xlink:title="Run simple unit tests. ">
<polygon fill="white" stroke="black" points="631,-93.5 631,-123.5 732,-123.5 732,-93.5 631,-93.5"/>
<text text-anchor="start" x="639" y="-111.5" font-family="Helvetica,sans-Serif" font-size="10.00">mom_state_initialization</text>
<text text-anchor="middle" x="681.5" y="-100.5" font-family="Helvetica,sans-Serif" font-size="10.00">::mom_state_init_tests</text>
</a>
</g>
</g>
<!-- Node123&#45;&gt;Node128 -->
<g id="edge10" class="edge"><title>Node123&#45;&gt;Node128</title>
<path fill="none" stroke="midnightblue" d="M581.807,-108.5C597.979,-108.5 615.279,-108.5 630.805,-108.5"/>
<polygon fill="midnightblue" stroke="midnightblue" points="581.372,-105 571.372,-108.5 581.372,-112 581.372,-105"/>
</g>
<!-- Node125 -->
<g id="node8" class="node"><title>Node125</title>
<g id="a_node8"><a xlink:href="../../d6/d62/namespacemom__state__initialization.html#af4e854627c6572332ba3fd895f169321" target="_top" xlink:title="mom_state_initialization\l::mom_initialize_state">
<polygon fill="white" stroke="black" points="768,-117.5 768,-147.5 869,-147.5 869,-117.5 768,-117.5"/>
<text text-anchor="start" x="776" y="-135.5" font-family="Helvetica,sans-Serif" font-size="10.00">mom_state_initialization</text>
<text text-anchor="middle" x="818.5" y="-124.5" font-family="Helvetica,sans-Serif" font-size="10.00">::mom_initialize_state</text>
</a>
</g>
</g>
<!-- Node124&#45;&gt;Node125 -->
<g id="edge7" class="edge"><title>Node124&#45;&gt;Node125</title>
<path fill="none" stroke="midnightblue" d="M741.928,-146.495C750.481,-144.911 759.208,-143.295 767.552,-141.75"/>
<polygon fill="midnightblue" stroke="midnightblue" points="741.198,-143.07 732.002,-148.333 742.473,-149.953 741.198,-143.07"/>
</g>
<!-- Node126 -->
<g id="node9" class="node"><title>Node126</title>
<g id="a_node9"><a xlink:href="../../da/d01/namespacemom.html#afebdc0103ad9cbe0ed4a54e522dc4104" target="_top" xlink:title="This subroutine initializes MOM. ">
<polygon fill="white" stroke="black" points="905,-89 905,-108 994,-108 994,-89 905,-89"/>
<text text-anchor="middle" x="949.5" y="-96" font-family="Helvetica,sans-Serif" font-size="10.00">mom::initialize_mom</text>
</a>
</g>
</g>
<!-- Node125&#45;&gt;Node126 -->
<g id="edge8" class="edge"><title>Node125&#45;&gt;Node126</title>
<path fill="none" stroke="midnightblue" d="M878.887,-116.848C890.234,-113.857 901.793,-110.81 912.148,-108.081"/>
<polygon fill="midnightblue" stroke="midnightblue" points="877.784,-113.519 869.006,-119.452 879.568,-120.288 877.784,-113.519"/>
</g>
<!-- Node127 -->
<g id="node10" class="node"><title>Node127</title>
<g id="a_node10"><a xlink:href="../../de/dbc/MOM__driver_8F90.html#a08fffeb2d8e8acbf9ed4609be6d258c6" target="_top" xlink:title="mom_main">
<polygon fill="white" stroke="black" points="1030,-89 1030,-108 1086,-108 1086,-89 1030,-89"/>
<text text-anchor="middle" x="1058" y="-96" font-family="Helvetica,sans-Serif" font-size="10.00">mom_main</text>
</a>
</g>
</g>
<!-- Node126&#45;&gt;Node127 -->
<g id="edge9" class="edge"><title>Node126&#45;&gt;Node127</title>
<path fill="none" stroke="midnightblue" d="M1004.41,-98.5C1013.21,-98.5 1021.98,-98.5 1029.77,-98.5"/>
<polygon fill="midnightblue" stroke="midnightblue" points="1004.12,-95.0001 994.125,-98.5 1004.12,-102 1004.12,-95.0001"/>
</g>
<!-- Node130 -->
<g id="node13" class="node"><title>Node130</title>
<g id="a_node13"><a xlink:href="../../d8/df3/namespacemom__diabatic__driver.html#a61e57d3902367aa46aa3c2d949ee900f" target="_top" xlink:title="This subroutine imposes the diapycnal mass fluxes and the accompanying diapycnal advection of momentu...">
<polygon fill="white" stroke="black" points="636,-44.5 636,-74.5 727,-74.5 727,-44.5 636,-44.5"/>
<text text-anchor="start" x="644" y="-62.5" font-family="Helvetica,sans-Serif" font-size="10.00">mom_diabatic_driver</text>
<text text-anchor="middle" x="681.5" y="-51.5" font-family="Helvetica,sans-Serif" font-size="10.00">::diabatic</text>
</a>
</g>
</g>
<!-- Node129&#45;&gt;Node130 -->
<g id="edge12" class="edge"><title>Node129&#45;&gt;Node130</title>
<path fill="none" stroke="midnightblue" d="M582.894,-59.5C600.529,-59.5 619.42,-59.5 635.839,-59.5"/>
<polygon fill="midnightblue" stroke="midnightblue" points="582.684,-56.0001 572.684,-59.5 582.684,-63.0001 582.684,-56.0001"/>
</g>
<!-- Node131&#45;&gt;Node132 -->
<g id="edge14" class="edge"><title>Node131&#45;&gt;Node132</title>
<path fill="none" stroke="midnightblue" d="M420.495,-15.5C428.866,-15.5 437.437,-15.5 445.864,-15.5"/>
<polygon fill="midnightblue" stroke="midnightblue" points="420.407,-12.0001 410.407,-15.5 420.407,-19.0001 420.407,-12.0001"/>
</g>
<!-- Node133 -->
<g id="node16" class="node"><title>Node133</title>
<g id="a_node16"><a xlink:href="../../da/d01/namespacemom.html#a6cfc2cd88d60f051fe90e68c2f16b46b" target="_top" xlink:title="This s/r calls unit tests for other modules. These are NOT normally invoked and so we provide the mod...">
<polygon fill="white" stroke="black" points="784.5,-55 784.5,-74 852.5,-74 852.5,-55 784.5,-55"/>
<text text-anchor="middle" x="818.5" y="-62" font-family="Helvetica,sans-Serif" font-size="10.00">mom::unittests</text>
</a>
</g>
</g>
<!-- Node132&#45;&gt;Node133 -->
<g id="edge15" class="edge"><title>Node132&#45;&gt;Node133</title>
<path fill="none" stroke="midnightblue" d="M605.457,-18.3131C644.302,-20.8271 690.853,-25.5691 732,-34.5 753.983,-39.2715 778.086,-48.0732 795.08,-54.9137"/>
<polygon fill="midnightblue" stroke="midnightblue" points="605.432,-14.8052 595.238,-17.6911 605.007,-21.7922 605.432,-14.8052"/>
</g>
<!-- Node133&#45;&gt;Node126 -->
<g id="edge16" class="edge"><title>Node133&#45;&gt;Node126</title>
<path fill="none" stroke="midnightblue" d="M862.46,-75.8227C878.591,-80.0743 896.752,-84.861 912.218,-88.9372"/>
<polygon fill="midnightblue" stroke="midnightblue" points="863.283,-72.4201 852.721,-73.2558 861.498,-79.189 863.283,-72.4201"/>
</g>
</g>
</svg>
        <g id="navigator" transform="translate(0 0)" fill="#404254">
                <rect fill="#f2f5e9" fill-opacity="0.5" stroke="#606060" stroke-width=".5" x="0" y="0" width="60" height="60"/>
                <use id="zoomplus" xlink:href="#zoomPlus" x="17" y="9" onmousedown="handleZoom(evt,'in')"/>
                <use id="zoomminus" xlink:href="#zoomMin" x="42" y="9" onmousedown="handleZoom(evt,'out')"/>
                <use id="reset" xlink:href="#resetDef" x="30" y="36" onmousedown="handleReset()"/>
                <g id="arrowUp" xlink:href="#dirArrow" transform="translate(30 24)" onmousedown="handlePan(0,-1)">
                  <use xlink:href="#rim" fill="#404040">
                        <set attributeName="fill" to="#808080" begin="arrowUp.mouseover" end="arrowUp.mouseout"/>
                  </use>
                  <path fill="none" stroke="white" stroke-width="1.5" d="M0,-3.0v7 M-2.5,-0.5L0,-3.0L2.5,-0.5"/>
                </g>
                <g id="arrowRight" xlink:href="#dirArrow" transform="rotate(90) translate(36 -43)" onmousedown="handlePan(1,0)">
                  <use xlink:href="#rim" fill="#404040">
                        <set attributeName="fill" to="#808080" begin="arrowRight.mouseover" end="arrowRight.mouseout"/>
                  </use>
                  <path fill="none" stroke="white" stroke-width="1.5" d="M0,-3.0v7 M-2.5,-0.5L0,-3.0L2.5,-0.5"/>
                </g>
                <g id="arrowDown" xlink:href="#dirArrow" transform="rotate(180) translate(-30 -48)" onmousedown="handlePan(0,1)">
                  <use xlink:href="#rim" fill="#404040">
                        <set attributeName="fill" to="#808080" begin="arrowDown.mouseover" end="arrowDown.mouseout"/>
                  </use>
                  <path fill="none" stroke="white" stroke-width="1.5" d="M0,-3.0v7 M-2.5,-0.5L0,-3.0L2.5,-0.5"/>
                </g>
                <g id="arrowLeft" xlink:href="#dirArrow" transform="rotate(270) translate(-36 17)" onmousedown="handlePan(-1,0)">
                  <use xlink:href="#rim" fill="#404040">
                        <set attributeName="fill" to="#808080" begin="arrowLeft.mouseover" end="arrowLeft.mouseout"/>
                  </use>
                  <path fill="none" stroke="white" stroke-width="1.5" d="M0,-3.0v7 M-2.5,-0.5L0,-3.0L2.5,-0.5"/>
                </g>
        </g>
        <svg viewBox="0 0 15 15" width="100%" height="30px" preserveAspectRatio="xMaxYMin meet">
         <g id="arrow_out" transform="scale(0.3 0.3)">
          <a xlink:href="namespacemom__remapping_afe0efe65edb680f96fc5efe3d29a9217_icgraph_org.svg" target="_base">
           <rect id="button" ry="5" rx="5" y="6" x="6" height="38" width="38"
                fill="#f2f5e9" fill-opacity="0.5" stroke="#606060" stroke-width="1.0"/>
           <path id="arrow"
             d="M 11.500037,31.436501 C 11.940474,20.09759 22.043105,11.32322 32.158766,21.979434 L 37.068811,17.246167 C 37.068811,17.246167 37.088388,32 37.088388,32 L 22.160133,31.978069 C 22.160133,31.978069 26.997745,27.140456 26.997745,27.140456 C 18.528582,18.264221 13.291696,25.230495 11.500037,31.436501 z"
             style="fill:#404040;"/>
          </a>
         </g>
        </svg>
</svg>
