<?xml version="1.0" encoding="UTF-8" standalone="no"?>
<!DOCTYPE svg PUBLIC "-//W3C//DTD SVG 1.1//EN"
 "http://www.w3.org/Graphics/SVG/1.1/DTD/svg11.dtd">
<!-- Generated by graphviz version 2.38.0 (20140413.2041)
 -->
<!-- Title: mom_remapping::remapping_core_h Pages: 1 -->
<svg width="759pt" height="186pt"
 viewBox="0.00 0.00 759.00 186.00" xmlns="http://www.w3.org/2000/svg" xmlns:xlink="http://www.w3.org/1999/xlink">
<g id="graph0" class="graph" transform="scale(1 1) rotate(0) translate(4 182)">
<title>mom_remapping::remapping_core_h</title>
<polygon fill="white" stroke="none" points="-4,4 -4,-182 755,-182 755,4 -4,4"/>
<!-- Node217 -->
<g id="node1" class="node"><title>Node217</title>
<polygon fill="#bfbfbf" stroke="black" points="0,-85.5 0,-115.5 120,-115.5 120,-85.5 0,-85.5"/>
<text text-anchor="start" x="8" y="-103.5" font-family="Helvetica,sans-Serif" font-size="10.00">mom_remapping::remapping</text>
<text text-anchor="middle" x="60" y="-92.5" font-family="Helvetica,sans-Serif" font-size="10.00">_core_h</text>
</g>
<!-- Node218 -->
<g id="node2" class="node"><title>Node218</title>
<g id="a_node2"><a xlink:href="../../de/dd7/namespacemom__ale__sponge.html#a8f6e6db99f860b048a58e97e58c101a6" target="_top" xlink:title="This subroutine applies damping to the layers thicknesses, temp, salt and a variety of tracers for ev...">
<polygon fill="white" stroke="black" points="156,-140.5 156,-170.5 260,-170.5 260,-140.5 156,-140.5"/>
<text text-anchor="start" x="164" y="-158.5" font-family="Helvetica,sans-Serif" font-size="10.00">mom_ale_sponge::apply</text>
<text text-anchor="middle" x="208" y="-147.5" font-family="Helvetica,sans-Serif" font-size="10.00">_ale_sponge</text>
</a>
</g>
</g>
<!-- Node217&#45;&gt;Node218 -->
<g id="edge1" class="edge"><title>Node217&#45;&gt;Node218</title>
<path fill="none" stroke="midnightblue" d="M110.335,-119.085C128.838,-126.055 149.616,-133.883 167.153,-140.489"/>
<polygon fill="midnightblue" stroke="midnightblue" points="111.487,-115.779 100.895,-115.529 109.019,-122.33 111.487,-115.779"/>
</g>
<!-- Node220 -->
<g id="node4" class="node"><title>Node220</title>
<g id="a_node4"><a xlink:href="../../d6/d62/namespacemom__state__initialization.html#a71ee3c056ca59c1c3529a4ec22e09fe3" target="_top" xlink:title="Adjust the layer thicknesses by cutting away the top at the depth where the hydrostatic pressure matc...">
<polygon fill="white" stroke="black" points="157.5,-85.5 157.5,-115.5 258.5,-115.5 258.5,-85.5 157.5,-85.5"/>
<text text-anchor="start" x="165.5" y="-103.5" font-family="Helvetica,sans-Serif" font-size="10.00">mom_state_initialization</text>
<text text-anchor="middle" x="208" y="-92.5" font-family="Helvetica,sans-Serif" font-size="10.00">::cut_off_column_top</text>
</a>
</g>
</g>
<!-- Node217&#45;&gt;Node220 -->
<g id="edge3" class="edge"><title>Node217&#45;&gt;Node220</title>
<path fill="none" stroke="midnightblue" d="M130.577,-100.5C139.658,-100.5 148.81,-100.5 157.469,-100.5"/>
<polygon fill="midnightblue" stroke="midnightblue" points="130.384,-97.0001 120.384,-100.5 130.384,-104 130.384,-97.0001"/>
</g>
<!-- Node226 -->
<g id="node10" class="node"><title>Node226</title>
<g id="a_node10"><a xlink:href="../../d9/d06/namespacemom__diag__mediator.html#ab5e628e0b8acd96234fab33d0fae2161" target="_top" xlink:title="Remap diagnostic field to z&#45;star vertical grid. ">
<polygon fill="white" stroke="black" points="160.5,-24.5 160.5,-54.5 255.5,-54.5 255.5,-24.5 160.5,-24.5"/>
<text text-anchor="start" x="168.5" y="-42.5" font-family="Helvetica,sans-Serif" font-size="10.00">mom_diag_mediator::</text>
<text text-anchor="middle" x="208" y="-31.5" font-family="Helvetica,sans-Serif" font-size="10.00">remap_diag_to_z</text>
</a>
</g>
</g>
<!-- Node217&#45;&gt;Node226 -->
<g id="edge9" class="edge"><title>Node217&#45;&gt;Node226</title>
<path fill="none" stroke="midnightblue" d="M106.381,-81.5396C127.205,-72.8389 151.547,-62.6686 171.073,-54.5108"/>
<polygon fill="midnightblue" stroke="midnightblue" points="104.968,-78.3367 97.0899,-85.4213 107.666,-84.7956 104.968,-78.3367"/>
</g>
<!-- Node219 -->
<g id="node3" class="node"><title>Node219</title>
<g id="a_node3"><a xlink:href="../../d8/df3/namespacemom__diabatic__driver.html#a61e57d3902367aa46aa3c2d949ee900f" target="_top" xlink:title="This subroutine imposes the diapycnal mass fluxes and the accompanying diapycnal advection of momentu...">
<polygon fill="white" stroke="black" points="301,-147.5 301,-177.5 392,-177.5 392,-147.5 301,-147.5"/>
<text text-anchor="start" x="309" y="-165.5" font-family="Helvetica,sans-Serif" font-size="10.00">mom_diabatic_driver</text>
<text text-anchor="middle" x="346.5" y="-154.5" font-family="Helvetica,sans-Serif" font-size="10.00">::diabatic</text>
</a>
</g>
</g>
<!-- Node218&#45;&gt;Node219 -->
<g id="edge2" class="edge"><title>Node218&#45;&gt;Node219</title>
<path fill="none" stroke="midnightblue" d="M270.34,-158.646C280.569,-159.17 291.007,-159.705 300.722,-160.204"/>
<polygon fill="midnightblue" stroke="midnightblue" points="270.382,-155.143 260.216,-158.126 270.024,-162.134 270.382,-155.143"/>
</g>
<!-- Node221 -->
<g id="node5" class="node"><title>Node221</title>
<g id="a_node5"><a xlink:href="../../d6/d62/namespacemom__state__initialization.html#acc1029776c1bdda2862ed0f95c8dc640" target="_top" xlink:title="Adjust the layer thicknesses by cutting away the top of each model column at the depth where the hydr...">
<polygon fill="white" stroke="black" points="296,-98.5 296,-128.5 397,-128.5 397,-98.5 296,-98.5"/>
<text text-anchor="start" x="304" y="-116.5" font-family="Helvetica,sans-Serif" font-size="10.00">mom_state_initialization</text>
<text text-anchor="middle" x="346.5" y="-105.5" font-family="Helvetica,sans-Serif" font-size="10.00">::trim_for_ice</text>
</a>
</g>
</g>
<!-- Node220&#45;&gt;Node221 -->
<g id="edge4" class="edge"><title>Node220&#45;&gt;Node221</title>
<path fill="none" stroke="midnightblue" d="M268.699,-106.186C277.692,-107.042 286.885,-107.918 295.642,-108.752"/>
<polygon fill="midnightblue" stroke="midnightblue" points="268.953,-102.694 258.666,-105.23 268.289,-109.662 268.953,-102.694"/>
</g>
<!-- Node225 -->
<g id="node9" class="node"><title>Node225</title>
<g id="a_node9"><a xlink:href="../../d6/d62/namespacemom__state__initialization.html#a5c77bf2b0ea9d28e28b661a2a42d3f88" target="_top" xlink:title="Run simple unit tests. ">
<polygon fill="white" stroke="black" points="296,-49.5 296,-79.5 397,-79.5 397,-49.5 296,-49.5"/>
<text text-anchor="start" x="304" y="-67.5" font-family="Helvetica,sans-Serif" font-size="10.00">mom_state_initialization</text>
<text text-anchor="middle" x="346.5" y="-56.5" font-family="Helvetica,sans-Serif" font-size="10.00">::mom_state_init_tests</text>
</a>
</g>
</g>
<!-- Node220&#45;&gt;Node225 -->
<g id="edge8" class="edge"><title>Node220&#45;&gt;Node225</title>
<path fill="none" stroke="midnightblue" d="M268.409,-84.8317C277.494,-82.4357 286.791,-79.9837 295.642,-77.6492"/>
<polygon fill="midnightblue" stroke="midnightblue" points="267.443,-81.4668 258.666,-87.4013 269.228,-88.2354 267.443,-81.4668"/>
</g>
<!-- Node222 -->
<g id="node6" class="node"><title>Node222</title>
<g id="a_node6"><a xlink:href="../../d6/d62/namespacemom__state__initialization.html#af4e854627c6572332ba3fd895f169321" target="_top" xlink:title="mom_state_initialization\l::mom_initialize_state">
<polygon fill="white" stroke="black" points="433,-98.5 433,-128.5 534,-128.5 534,-98.5 433,-98.5"/>
<text text-anchor="start" x="441" y="-116.5" font-family="Helvetica,sans-Serif" font-size="10.00">mom_state_initialization</text>
<text text-anchor="middle" x="483.5" y="-105.5" font-family="Helvetica,sans-Serif" font-size="10.00">::mom_initialize_state</text>
</a>
</g>
</g>
<!-- Node221&#45;&gt;Node222 -->
<g id="edge5" class="edge"><title>Node221&#45;&gt;Node222</title>
<path fill="none" stroke="midnightblue" d="M407.207,-113.5C415.67,-113.5 424.299,-113.5 432.552,-113.5"/>
<polygon fill="midnightblue" stroke="midnightblue" points="407.002,-110 397.002,-113.5 407.002,-117 407.002,-110"/>
</g>
<!-- Node223 -->
<g id="node7" class="node"><title>Node223</title>
<g id="a_node7"><a xlink:href="../../da/d01/namespacemom.html#afebdc0103ad9cbe0ed4a54e522dc4104" target="_top" xlink:title="This subroutine initializes MOM. ">
<polygon fill="white" stroke="black" points="570,-104 570,-123 659,-123 659,-104 570,-104"/>
<text text-anchor="middle" x="614.5" y="-111" font-family="Helvetica,sans-Serif" font-size="10.00">mom::initialize_mom</text>
</a>
</g>
</g>
<!-- Node222&#45;&gt;Node223 -->
<g id="edge6" class="edge"><title>Node222&#45;&gt;Node223</title>
<path fill="none" stroke="midnightblue" d="M544.088,-113.5C552.755,-113.5 561.541,-113.5 569.815,-113.5"/>
<polygon fill="midnightblue" stroke="midnightblue" points="544.006,-110 534.006,-113.5 544.006,-117 544.006,-110"/>
</g>
<!-- Node224 -->
<g id="node8" class="node"><title>Node224</title>
<g id="a_node8"><a xlink:href="../../de/dbc/MOM__driver_8F90.html#a08fffeb2d8e8acbf9ed4609be6d258c6" target="_top" xlink:title="mom_main">
<polygon fill="white" stroke="black" points="695,-104 695,-123 751,-123 751,-104 695,-104"/>
<text text-anchor="middle" x="723" y="-111" font-family="Helvetica,sans-Serif" font-size="10.00">mom_main</text>
</a>
</g>
</g>
<!-- Node223&#45;&gt;Node224 -->
<g id="edge7" class="edge"><title>Node223&#45;&gt;Node224</title>
<path fill="none" stroke="midnightblue" d="M669.407,-113.5C678.206,-113.5 686.981,-113.5 694.771,-113.5"/>
<polygon fill="midnightblue" stroke="midnightblue" points="669.125,-110 659.125,-113.5 669.125,-117 669.125,-110"/>
</g>
<!-- Node227 -->
<g id="node11" class="node"><title>Node227</title>
<g id="a_node11"><a xlink:href="../../d9/d06/namespacemom__diag__mediator.html#adb1030a0216c52dd0d25bd67a5b31868" target="_top" xlink:title="mom_diag_mediator::\lpost_data_3d">
<polygon fill="white" stroke="black" points="299,-0.5 299,-30.5 394,-30.5 394,-0.5 299,-0.5"/>
<text text-anchor="start" x="307" y="-18.5" font-family="Helvetica,sans-Serif" font-size="10.00">mom_diag_mediator::</text>
<text text-anchor="middle" x="346.5" y="-7.5" font-family="Helvetica,sans-Serif" font-size="10.00">post_data_3d</text>
</a>
</g>
</g>
<!-- Node226&#45;&gt;Node227 -->
<g id="edge10" class="edge"><title>Node226&#45;&gt;Node227</title>
<path fill="none" stroke="midnightblue" d="M265.555,-29.5563C276.566,-27.6202 287.997,-25.6104 298.653,-23.7369"/>
<polygon fill="midnightblue" stroke="midnightblue" points="264.837,-26.1288 255.594,-31.3077 266.049,-33.0231 264.837,-26.1288"/>
</g>
</g>
</svg>
