<?xml version="1.0" encoding="UTF-8" standalone="no"?>
<!DOCTYPE svg PUBLIC "-//W3C//DTD SVG 1.1//EN"
 "http://www.w3.org/Graphics/SVG/1.1/DTD/svg11.dtd">
<!-- Generated by graphviz version 2.38.0 (20140413.2041)
 -->
<!-- Title: mom_remapping::dzfromh1h2 Pages: 1 -->
<svg width="675pt" height="88pt"
 viewBox="0.00 0.00 675.00 88.00" xmlns="http://www.w3.org/2000/svg" xmlns:xlink="http://www.w3.org/1999/xlink">
<g id="graph0" class="graph" transform="scale(1 1) rotate(0) translate(4 84)">
<title>mom_remapping::dzfromh1h2</title>
<polygon fill="white" stroke="none" points="-4,4 -4,-84 671,-84 671,4 -4,4"/>
<!-- Node80 -->
<g id="node1" class="node"><title>Node80</title>
<polygon fill="#bfbfbf" stroke="black" points="0,-24.5 0,-43.5 125,-43.5 125,-24.5 0,-24.5"/>
<text text-anchor="middle" x="62.5" y="-31.5" font-family="Helvetica,sans-Serif" font-size="10.00">mom_remapping::dzfromh1h2</text>
</g>
<!-- Node81 -->
<g id="node2" class="node"><title>Node81</title>
<g id="a_node2"><a xlink:href="../../d7/d73/namespacemom__ale.html#aab30651699eb2cd8dc5a67c8e03474ee" target="_top" xlink:title="Remaps a single scalar between grids described by thicknesses h_src and h_dst. h_dst must be dimensio...">
<polygon fill="white" stroke="black" points="189.5,-42 189.5,-72 281.5,-72 281.5,-42 189.5,-42"/>
<text text-anchor="start" x="197.5" y="-60" font-family="Helvetica,sans-Serif" font-size="10.00">mom_ale::ale_remap</text>
<text text-anchor="middle" x="235.5" y="-49" font-family="Helvetica,sans-Serif" font-size="10.00">_scalar</text>
</a>
</g>
</g>
<!-- Node80&#45;&gt;Node81 -->
<g id="edge1" class="edge"><title>Node80&#45;&gt;Node81</title>
<path fill="none" stroke="midnightblue" d="M135.324,-43.6605C153.683,-46.1299 172.906,-48.7155 189.488,-50.9457"/>
<polygon fill="midnightblue" stroke="midnightblue" points="135.612,-40.1679 125.235,-42.3035 134.679,-47.1054 135.612,-40.1679"/>
</g>
<!-- Node83 -->
<g id="node4" class="node"><title>Node83</title>
<g id="a_node4"><a xlink:href="../../d6/d75/namespacemom__remapping.html#aad5ec4e3f91e936e34113503d05deeeb" target="_top" xlink:title="Runs unit tests on remapping functions. Should only be called from a single/root thread Returns True ...">
<polygon fill="white" stroke="black" points="161,-2.5 161,-21.5 310,-21.5 310,-2.5 161,-2.5"/>
<text text-anchor="middle" x="235.5" y="-9.5" font-family="Helvetica,sans-Serif" font-size="10.00">mom_remapping::remappingunittests</text>
</a>
</g>
</g>
<!-- Node80&#45;&gt;Node83 -->
<g id="edge3" class="edge"><title>Node80&#45;&gt;Node83</title>
<path fill="none" stroke="midnightblue" d="M135.409,-24.7486C143.841,-23.6637 152.455,-22.5555 160.911,-21.4676"/>
<polygon fill="midnightblue" stroke="midnightblue" points="134.707,-21.31 125.235,-26.0575 135.6,-28.2528 134.707,-21.31"/>
</g>
<!-- Node82 -->
<g id="node3" class="node"><title>Node82</title>
<g id="a_node3"><a xlink:href="../../d8/d8a/namespacemom__tracer__initialization__from__z.html#a5281cd3eaf835f799cff81a50c273c5e" target="_top" xlink:title="mom_tracer_initialization\l_from_z::mom_initialize\l_tracer_from_z">
<polygon fill="white" stroke="black" points="346,-38.5 346,-79.5 450,-79.5 450,-38.5 346,-38.5"/>
<text text-anchor="start" x="354" y="-67.5" font-family="Helvetica,sans-Serif" font-size="10.00">mom_tracer_initialization</text>
<text text-anchor="start" x="354" y="-56.5" font-family="Helvetica,sans-Serif" font-size="10.00">_from_z::mom_initialize</text>
<text text-anchor="middle" x="398" y="-45.5" font-family="Helvetica,sans-Serif" font-size="10.00">_tracer_from_z</text>
</a>
</g>
</g>
<!-- Node81&#45;&gt;Node82 -->
<g id="edge2" class="edge"><title>Node81&#45;&gt;Node82</title>
<path fill="none" stroke="midnightblue" d="M291.757,-57.6886C309.346,-57.9077 328.715,-58.1491 345.989,-58.3644"/>
<polygon fill="midnightblue" stroke="midnightblue" points="291.678,-54.1874 281.635,-57.5624 291.591,-61.1869 291.678,-54.1874"/>
</g>
<!-- Node84 -->
<g id="node5" class="node"><title>Node84</title>
<g id="a_node5"><a xlink:href="../../da/d01/namespacemom.html#a6cfc2cd88d60f051fe90e68c2f16b46b" target="_top" xlink:title="This s/r calls unit tests for other modules. These are NOT normally invoked and so we provide the mod...">
<polygon fill="white" stroke="black" points="364,-0.5 364,-19.5 432,-19.5 432,-0.5 364,-0.5"/>
<text text-anchor="middle" x="398" y="-7.5" font-family="Helvetica,sans-Serif" font-size="10.00">mom::unittests</text>
</a>
</g>
</g>
<!-- Node83&#45;&gt;Node84 -->
<g id="edge4" class="edge"><title>Node83&#45;&gt;Node84</title>
<path fill="none" stroke="midnightblue" d="M320.325,-10.9555C335.77,-10.763 351.039,-10.5727 363.836,-10.4133"/>
<polygon fill="midnightblue" stroke="midnightblue" points="320.129,-7.45752 310.174,-11.0819 320.216,-14.457 320.129,-7.45752"/>
</g>
<!-- Node85 -->
<g id="node6" class="node"><title>Node85</title>
<g id="a_node6"><a xlink:href="../../da/d01/namespacemom.html#afebdc0103ad9cbe0ed4a54e522dc4104" target="_top" xlink:title="This subroutine initializes MOM. ">
<polygon fill="white" stroke="black" points="486,-0.5 486,-19.5 575,-19.5 575,-0.5 486,-0.5"/>
<text text-anchor="middle" x="530.5" y="-7.5" font-family="Helvetica,sans-Serif" font-size="10.00">mom::initialize_mom</text>
</a>
</g>
</g>
<!-- Node84&#45;&gt;Node85 -->
<g id="edge5" class="edge"><title>Node84&#45;&gt;Node85</title>
<path fill="none" stroke="midnightblue" d="M442.597,-10C456.548,-10 471.989,-10 485.938,-10"/>
<polygon fill="midnightblue" stroke="midnightblue" points="442.268,-6.5001 432.268,-10 442.268,-13.5001 442.268,-6.5001"/>
</g>
<!-- Node86 -->
<g id="node7" class="node"><title>Node86</title>
<g id="a_node7"><a xlink:href="../../de/dbc/MOM__driver_8F90.html#a08fffeb2d8e8acbf9ed4609be6d258c6" target="_top" xlink:title="mom_main">
<polygon fill="white" stroke="black" points="611,-0.5 611,-19.5 667,-19.5 667,-0.5 611,-0.5"/>
<text text-anchor="middle" x="639" y="-7.5" font-family="Helvetica,sans-Serif" font-size="10.00">mom_main</text>
</a>
</g>
</g>
<!-- Node85&#45;&gt;Node86 -->
<g id="edge6" class="edge"><title>Node85&#45;&gt;Node86</title>
<path fill="none" stroke="midnightblue" d="M585.407,-10C594.206,-10 602.981,-10 610.771,-10"/>
<polygon fill="midnightblue" stroke="midnightblue" points="585.125,-6.5001 575.125,-10 585.125,-13.5001 585.125,-6.5001"/>
</g>
</g>
</svg>
