<?xml version="1.0" encoding="UTF-8" standalone="no"?>
<!DOCTYPE svg PUBLIC "-//W3C//DTD SVG 1.1//EN"
 "http://www.w3.org/Graphics/SVG/1.1/DTD/svg11.dtd">
<!-- Generated by graphviz version 2.38.0 (20140413.2041)
 -->
<!-- Title: mom_remapping::build_reconstructions_1d Pages: 1 -->
<!--zoomable 225 -->
<svg id="main" version="1.1" xmlns="http://www.w3.org/2000/svg" xmlns:xlink="http://www.w3.org/1999/xlink" xml:space="preserve" onload="init(evt)">
<style type="text/css"><![CDATA[
.edge:hover path { stroke: red; }
.edge:hover polygon { stroke: red; fill: red; }
]]></style>
<script type="text/javascript"><![CDATA[
var edges = document.getElementsByTagName('g');
if (edges && edges.length) {
  for (var i=0;i<edges.length;i++) {
    if (edges[i].id.substr(0,4)=='edge') {
      edges[i].setAttribute('class','edge');
    }
  }
}
]]></script>
        <defs>
                <circle id="rim" cx="0" cy="0" r="7"/>
                <circle id="rim2" cx="0" cy="0" r="3.5"/>
                <g id="zoomPlus">
                        <use xlink:href="#rim" fill="#404040">
                                <set attributeName="fill" to="#808080" begin="zoomplus.mouseover" end="zoomplus.mouseout"/>
                        </use>
                        <path d="M-4,0h8M0,-4v8" fill="none" stroke="white" stroke-width="1.5" pointer-events="none"/>
                </g>
                <g id="zoomMin">
                        <use xlink:href="#rim" fill="#404040">
                                <set attributeName="fill" to="#808080" begin="zoomminus.mouseover" end="zoomminus.mouseout"/>
                        </use>
                        <path d="M-4,0h8" fill="none" stroke="white" stroke-width="1.5" pointer-events="none"/>
                </g>
                <g id="dirArrow">
                        <path fill="none" stroke="white" stroke-width="1.5" d="M0,-3.0v7 M-2.5,-0.5L0,-3.0L2.5,-0.5"/>
                </g>
               <g id="resetDef">
                       <use xlink:href="#rim2" fill="#404040">
                               <set attributeName="fill" to="#808080" begin="reset.mouseover" end="reset.mouseout"/>
                       </use>
               </g>
        </defs>

<script type="text/javascript">
var viewWidth = 938;
var viewHeight = 225;
var sectionId = 'dynsection-3';
</script>
<script xlink:href="../../svgpan.js"/>
<svg id="graph" class="graph">
<g id="viewport">
<title>mom_remapping::build_reconstructions_1d</title>
<polygon fill="white" stroke="none" points="-4,4 -4,-220.5 934,-220.5 934,4 -4,4"/>
<!-- Node40 -->
<g id="node1" class="node"><title>Node40</title>
<polygon fill="#bfbfbf" stroke="black" points="0,-47 0,-77 98,-77 98,-47 0,-47"/>
<text text-anchor="start" x="8" y="-65" font-family="Helvetica,sans-Serif" font-size="10.00">mom_remapping::build</text>
<text text-anchor="middle" x="49" y="-54" font-family="Helvetica,sans-Serif" font-size="10.00">_reconstructions_1d</text>
</g>
<!-- Node41 -->
<g id="node2" class="node"><title>Node41</title>
<g id="a_node2"><a xlink:href="../../d6/d75/namespacemom__remapping.html#a6d1533ffa647f3305aba055e2685b095" target="_top" xlink:title="Remaps column of values u0 on grid h0 to grid h1 assuming the top edge is aligned. ">
<polygon fill="white" stroke="black" points="134,-77 134,-107 254,-107 254,-77 134,-77"/>
<text text-anchor="start" x="142" y="-95" font-family="Helvetica,sans-Serif" font-size="10.00">mom_remapping::remapping</text>
<text text-anchor="middle" x="194" y="-84" font-family="Helvetica,sans-Serif" font-size="10.00">_core_h</text>
</a>
</g>
</g>
<!-- Node40&#45;&gt;Node41 -->
<g id="edge1" class="edge"><title>Node40&#45;&gt;Node41</title>
<path fill="none" stroke="midnightblue" d="M107.922,-74.1515C116.494,-75.9499 125.337,-77.8049 133.932,-79.6081"/>
<polygon fill="midnightblue" stroke="midnightblue" points="108.52,-70.7009 98.0147,-72.073 107.083,-77.5517 108.52,-70.7009"/>
</g>
<!-- Node52 -->
<g id="node13" class="node"><title>Node52</title>
<g id="a_node13"><a xlink:href="../../d6/d75/namespacemom__remapping.html#a8b967872b8db2ac7d538991f7f255e56" target="_top" xlink:title="Remaps column of values u0 on grid h0 to implied grid h1 where the interfaces of h1 differ from those...">
<polygon fill="white" stroke="black" points="134,-17 134,-47 254,-47 254,-17 134,-17"/>
<text text-anchor="start" x="142" y="-35" font-family="Helvetica,sans-Serif" font-size="10.00">mom_remapping::remapping</text>
<text text-anchor="middle" x="194" y="-24" font-family="Helvetica,sans-Serif" font-size="10.00">_core_w</text>
</a>
</g>
</g>
<!-- Node40&#45;&gt;Node52 -->
<g id="edge12" class="edge"><title>Node40&#45;&gt;Node52</title>
<path fill="none" stroke="midnightblue" d="M107.922,-49.8485C116.494,-48.0501 125.337,-46.1951 133.932,-44.3919"/>
<polygon fill="midnightblue" stroke="midnightblue" points="107.083,-46.4483 98.0147,-51.927 108.52,-53.2991 107.083,-46.4483"/>
</g>
<!-- Node42 -->
<g id="node3" class="node"><title>Node42</title>
<g id="a_node3"><a xlink:href="../../d9/d06/namespacemom__diag__mediator.html#ab5e628e0b8acd96234fab33d0fae2161" target="_top" xlink:title="Remap diagnostic field to z&#45;star vertical grid. ">
<polygon fill="white" stroke="black" points="317,-161 317,-191 412,-191 412,-161 317,-161"/>
<text text-anchor="start" x="325" y="-179" font-family="Helvetica,sans-Serif" font-size="10.00">mom_diag_mediator::</text>
<text text-anchor="middle" x="364.5" y="-168" font-family="Helvetica,sans-Serif" font-size="10.00">remap_diag_to_z</text>
</a>
</g>
</g>
<!-- Node41&#45;&gt;Node42 -->
<g id="edge2" class="edge"><title>Node41&#45;&gt;Node42</title>
<path fill="none" stroke="midnightblue" d="M234.132,-111.508C264.381,-126.587 305.636,-147.154 333.353,-160.971"/>
<polygon fill="midnightblue" stroke="midnightblue" points="235.636,-108.347 225.124,-107.018 232.512,-114.611 235.636,-108.347"/>
</g>
<!-- Node44 -->
<g id="node5" class="node"><title>Node44</title>
<g id="a_node5"><a xlink:href="../../d6/d62/namespacemom__state__initialization.html#a71ee3c056ca59c1c3529a4ec22e09fe3" target="_top" xlink:title="Adjust the layer thicknesses by cutting away the top at the depth where the hydrostatic pressure matc...">
<polygon fill="white" stroke="black" points="314,-88 314,-118 415,-118 415,-88 314,-88"/>
<text text-anchor="start" x="322" y="-106" font-family="Helvetica,sans-Serif" font-size="10.00">mom_state_initialization</text>
<text text-anchor="middle" x="364.5" y="-95" font-family="Helvetica,sans-Serif" font-size="10.00">::cut_off_column_top</text>
</a>
</g>
</g>
<!-- Node41&#45;&gt;Node44 -->
<g id="edge4" class="edge"><title>Node41&#45;&gt;Node44</title>
<path fill="none" stroke="midnightblue" d="M264.57,-96.5417C281.092,-97.6203 298.391,-98.7496 313.819,-99.7568"/>
<polygon fill="midnightblue" stroke="midnightblue" points="264.614,-93.0371 254.407,-95.8782 264.158,-100.022 264.614,-93.0371"/>
</g>
<!-- Node50 -->
<g id="node11" class="node"><title>Node50</title>
<g id="a_node11"><a xlink:href="../../de/dd7/namespacemom__ale__sponge.html#a8f6e6db99f860b048a58e97e58c101a6" target="_top" xlink:title="This subroutine applies damping to the layers thicknesses, temp, salt and a variety of tracers for ev...">
<polygon fill="white" stroke="black" points="312.5,-39 312.5,-69 416.5,-69 416.5,-39 312.5,-39"/>
<text text-anchor="start" x="320.5" y="-57" font-family="Helvetica,sans-Serif" font-size="10.00">mom_ale_sponge::apply</text>
<text text-anchor="middle" x="364.5" y="-46" font-family="Helvetica,sans-Serif" font-size="10.00">_ale_sponge</text>
</a>
</g>
</g>
<!-- Node41&#45;&gt;Node50 -->
<g id="edge10" class="edge"><title>Node41&#45;&gt;Node50</title>
<path fill="none" stroke="midnightblue" d="M264.319,-76.3672C280.43,-72.7338 297.294,-68.9307 312.451,-65.5124"/>
<polygon fill="midnightblue" stroke="midnightblue" points="263.392,-72.9883 254.407,-78.6026 264.932,-79.8169 263.392,-72.9883"/>
</g>
<!-- Node43 -->
<g id="node4" class="node"><title>Node43</title>
<g id="a_node4"><a xlink:href="../../d9/d06/namespacemom__diag__mediator.html#adb1030a0216c52dd0d25bd67a5b31868" target="_top" xlink:title="mom_diag_mediator::\lpost_data_3d">
<polygon fill="white" stroke="black" points="478,-186 478,-216 573,-216 573,-186 478,-186"/>
<text text-anchor="start" x="486" y="-204" font-family="Helvetica,sans-Serif" font-size="10.00">mom_diag_mediator::</text>
<text text-anchor="middle" x="525.5" y="-193" font-family="Helvetica,sans-Serif" font-size="10.00">post_data_3d</text>
</a>
</g>
</g>
<!-- Node42&#45;&gt;Node43 -->
<g id="edge3" class="edge"><title>Node42&#45;&gt;Node43</title>
<path fill="none" stroke="midnightblue" d="M422.284,-184.928C440.546,-187.8 460.555,-190.946 477.99,-193.687"/>
<polygon fill="midnightblue" stroke="midnightblue" points="422.768,-181.461 412.345,-183.366 421.68,-188.376 422.768,-181.461"/>
</g>
<!-- Node45 -->
<g id="node6" class="node"><title>Node45</title>
<g id="a_node6"><a xlink:href="../../d6/d62/namespacemom__state__initialization.html#acc1029776c1bdda2862ed0f95c8dc640" target="_top" xlink:title="Adjust the layer thicknesses by cutting away the top of each model column at the depth where the hydr...">
<polygon fill="white" stroke="black" points="475,-137 475,-167 576,-167 576,-137 475,-137"/>
<text text-anchor="start" x="483" y="-155" font-family="Helvetica,sans-Serif" font-size="10.00">mom_state_initialization</text>
<text text-anchor="middle" x="525.5" y="-144" font-family="Helvetica,sans-Serif" font-size="10.00">::trim_for_ice</text>
</a>
</g>
</g>
<!-- Node44&#45;&gt;Node45 -->
<g id="edge5" class="edge"><title>Node44&#45;&gt;Node45</title>
<path fill="none" stroke="midnightblue" d="M424.275,-121.113C441.178,-126.322 459.426,-131.946 475.659,-136.948"/>
<polygon fill="midnightblue" stroke="midnightblue" points="425.09,-117.702 414.503,-118.101 423.028,-124.391 425.09,-117.702"/>
</g>
<!-- Node49 -->
<g id="node10" class="node"><title>Node49</title>
<g id="a_node10"><a xlink:href="../../d6/d62/namespacemom__state__initialization.html#a5c77bf2b0ea9d28e28b661a2a42d3f88" target="_top" xlink:title="Run simple unit tests. ">
<polygon fill="white" stroke="black" points="475,-88 475,-118 576,-118 576,-88 475,-88"/>
<text text-anchor="start" x="483" y="-106" font-family="Helvetica,sans-Serif" font-size="10.00">mom_state_initialization</text>
<text text-anchor="middle" x="525.5" y="-95" font-family="Helvetica,sans-Serif" font-size="10.00">::mom_state_init_tests</text>
</a>
</g>
</g>
<!-- Node44&#45;&gt;Node49 -->
<g id="edge9" class="edge"><title>Node44&#45;&gt;Node49</title>
<path fill="none" stroke="midnightblue" d="M425.807,-103C441.979,-103 459.279,-103 474.805,-103"/>
<polygon fill="midnightblue" stroke="midnightblue" points="425.372,-99.5001 415.372,-103 425.372,-106.5 425.372,-99.5001"/>
</g>
<!-- Node46 -->
<g id="node7" class="node"><title>Node46</title>
<g id="a_node7"><a xlink:href="../../d6/d62/namespacemom__state__initialization.html#af4e854627c6572332ba3fd895f169321" target="_top" xlink:title="mom_state_initialization\l::mom_initialize_state">
<polygon fill="white" stroke="black" points="612,-112 612,-142 713,-142 713,-112 612,-112"/>
<text text-anchor="start" x="620" y="-130" font-family="Helvetica,sans-Serif" font-size="10.00">mom_state_initialization</text>
<text text-anchor="middle" x="662.5" y="-119" font-family="Helvetica,sans-Serif" font-size="10.00">::mom_initialize_state</text>
</a>
</g>
</g>
<!-- Node45&#45;&gt;Node46 -->
<g id="edge6" class="edge"><title>Node45&#45;&gt;Node46</title>
<path fill="none" stroke="midnightblue" d="M585.928,-140.995C594.481,-139.411 603.208,-137.795 611.552,-136.25"/>
<polygon fill="midnightblue" stroke="midnightblue" points="585.198,-137.57 576.002,-142.833 586.473,-144.453 585.198,-137.57"/>
</g>
<!-- Node47 -->
<g id="node8" class="node"><title>Node47</title>
<g id="a_node8"><a xlink:href="../../da/d01/namespacemom.html#afebdc0103ad9cbe0ed4a54e522dc4104" target="_top" xlink:title="This subroutine initializes MOM. ">
<polygon fill="white" stroke="black" points="749,-83.5 749,-102.5 838,-102.5 838,-83.5 749,-83.5"/>
<text text-anchor="middle" x="793.5" y="-90.5" font-family="Helvetica,sans-Serif" font-size="10.00">mom::initialize_mom</text>
</a>
</g>
</g>
<!-- Node46&#45;&gt;Node47 -->
<g id="edge7" class="edge"><title>Node46&#45;&gt;Node47</title>
<path fill="none" stroke="midnightblue" d="M722.887,-111.348C734.234,-108.357 745.793,-105.31 756.148,-102.581"/>
<polygon fill="midnightblue" stroke="midnightblue" points="721.784,-108.019 713.006,-113.952 723.568,-114.788 721.784,-108.019"/>
</g>
<!-- Node48 -->
<g id="node9" class="node"><title>Node48</title>
<g id="a_node9"><a xlink:href="../../de/dbc/MOM__driver_8F90.html#a08fffeb2d8e8acbf9ed4609be6d258c6" target="_top" xlink:title="mom_main">
<polygon fill="white" stroke="black" points="874,-83.5 874,-102.5 930,-102.5 930,-83.5 874,-83.5"/>
<text text-anchor="middle" x="902" y="-90.5" font-family="Helvetica,sans-Serif" font-size="10.00">mom_main</text>
</a>
</g>
</g>
<!-- Node47&#45;&gt;Node48 -->
<g id="edge8" class="edge"><title>Node47&#45;&gt;Node48</title>
<path fill="none" stroke="midnightblue" d="M848.407,-93C857.206,-93 865.981,-93 873.771,-93"/>
<polygon fill="midnightblue" stroke="midnightblue" points="848.125,-89.5001 838.125,-93 848.125,-96.5001 848.125,-89.5001"/>
</g>
<!-- Node51 -->
<g id="node12" class="node"><title>Node51</title>
<g id="a_node12"><a xlink:href="../../d8/df3/namespacemom__diabatic__driver.html#a61e57d3902367aa46aa3c2d949ee900f" target="_top" xlink:title="This subroutine imposes the diapycnal mass fluxes and the accompanying diapycnal advection of momentu...">
<polygon fill="white" stroke="black" points="480,-39 480,-69 571,-69 571,-39 480,-39"/>
<text text-anchor="start" x="488" y="-57" font-family="Helvetica,sans-Serif" font-size="10.00">mom_diabatic_driver</text>
<text text-anchor="middle" x="525.5" y="-46" font-family="Helvetica,sans-Serif" font-size="10.00">::diabatic</text>
</a>
</g>
</g>
<!-- Node50&#45;&gt;Node51 -->
<g id="edge11" class="edge"><title>Node50&#45;&gt;Node51</title>
<path fill="none" stroke="midnightblue" d="M426.894,-54C444.529,-54 463.42,-54 479.839,-54"/>
<polygon fill="midnightblue" stroke="midnightblue" points="426.684,-50.5001 416.684,-54 426.684,-57.5001 426.684,-50.5001"/>
</g>
<!-- Node53 -->
<g id="node14" class="node"><title>Node53</title>
<g id="a_node14"><a xlink:href="../../d6/d75/namespacemom__remapping.html#aad5ec4e3f91e936e34113503d05deeeb" target="_top" xlink:title="Runs unit tests on remapping functions. Should only be called from a single/root thread Returns True ...">
<polygon fill="white" stroke="black" points="290,-0.5 290,-19.5 439,-19.5 439,-0.5 290,-0.5"/>
<text text-anchor="middle" x="364.5" y="-7.5" font-family="Helvetica,sans-Serif" font-size="10.00">mom_remapping::remappingunittests</text>
</a>
</g>
</g>
<!-- Node52&#45;&gt;Node53 -->
<g id="edge13" class="edge"><title>Node52&#45;&gt;Node53</title>
<path fill="none" stroke="midnightblue" d="M264.383,-22.9411C272.984,-21.8181 281.798,-20.6673 290.452,-19.5374"/>
<polygon fill="midnightblue" stroke="midnightblue" points="263.869,-19.4783 254.407,-24.2436 264.776,-26.4194 263.869,-19.4783"/>
</g>
<!-- Node54 -->
<g id="node15" class="node"><title>Node54</title>
<g id="a_node15"><a xlink:href="../../da/d01/namespacemom.html#a6cfc2cd88d60f051fe90e68c2f16b46b" target="_top" xlink:title="This s/r calls unit tests for other modules. These are NOT normally invoked and so we provide the mod...">
<polygon fill="white" stroke="black" points="628.5,-49.5 628.5,-68.5 696.5,-68.5 696.5,-49.5 628.5,-49.5"/>
<text text-anchor="middle" x="662.5" y="-56.5" font-family="Helvetica,sans-Serif" font-size="10.00">mom::unittests</text>
</a>
</g>
</g>
<!-- Node53&#45;&gt;Node54 -->
<g id="edge14" class="edge"><title>Node53&#45;&gt;Node54</title>
<path fill="none" stroke="midnightblue" d="M449.457,-12.8131C488.302,-15.3271 534.853,-20.0691 576,-29 597.983,-33.7715 622.086,-42.5732 639.08,-49.4137"/>
<polygon fill="midnightblue" stroke="midnightblue" points="449.432,-9.30516 439.238,-12.1911 449.007,-16.2922 449.432,-9.30516"/>
</g>
<!-- Node54&#45;&gt;Node47 -->
<g id="edge15" class="edge"><title>Node54&#45;&gt;Node47</title>
<path fill="none" stroke="midnightblue" d="M706.46,-70.3227C722.591,-74.5743 740.752,-79.361 756.218,-83.4372"/>
<polygon fill="midnightblue" stroke="midnightblue" points="707.283,-66.9201 696.721,-67.7558 705.498,-73.689 707.283,-66.9201"/>
</g>
</g>
</svg>
        <g id="navigator" transform="translate(0 0)" fill="#404254">
                <rect fill="#f2f5e9" fill-opacity="0.5" stroke="#606060" stroke-width=".5" x="0" y="0" width="60" height="60"/>
                <use id="zoomplus" xlink:href="#zoomPlus" x="17" y="9" onmousedown="handleZoom(evt,'in')"/>
                <use id="zoomminus" xlink:href="#zoomMin" x="42" y="9" onmousedown="handleZoom(evt,'out')"/>
                <use id="reset" xlink:href="#resetDef" x="30" y="36" onmousedown="handleReset()"/>
                <g id="arrowUp" xlink:href="#dirArrow" transform="translate(30 24)" onmousedown="handlePan(0,-1)">
                  <use xlink:href="#rim" fill="#404040">
                        <set attributeName="fill" to="#808080" begin="arrowUp.mouseover" end="arrowUp.mouseout"/>
                  </use>
                  <path fill="none" stroke="white" stroke-width="1.5" d="M0,-3.0v7 M-2.5,-0.5L0,-3.0L2.5,-0.5"/>
                </g>
                <g id="arrowRight" xlink:href="#dirArrow" transform="rotate(90) translate(36 -43)" onmousedown="handlePan(1,0)">
                  <use xlink:href="#rim" fill="#404040">
                        <set attributeName="fill" to="#808080" begin="arrowRight.mouseover" end="arrowRight.mouseout"/>
                  </use>
                  <path fill="none" stroke="white" stroke-width="1.5" d="M0,-3.0v7 M-2.5,-0.5L0,-3.0L2.5,-0.5"/>
                </g>
                <g id="arrowDown" xlink:href="#dirArrow" transform="rotate(180) translate(-30 -48)" onmousedown="handlePan(0,1)">
                  <use xlink:href="#rim" fill="#404040">
                        <set attributeName="fill" to="#808080" begin="arrowDown.mouseover" end="arrowDown.mouseout"/>
                  </use>
                  <path fill="none" stroke="white" stroke-width="1.5" d="M0,-3.0v7 M-2.5,-0.5L0,-3.0L2.5,-0.5"/>
                </g>
                <g id="arrowLeft" xlink:href="#dirArrow" transform="rotate(270) translate(-36 17)" onmousedown="handlePan(-1,0)">
                  <use xlink:href="#rim" fill="#404040">
                        <set attributeName="fill" to="#808080" begin="arrowLeft.mouseover" end="arrowLeft.mouseout"/>
                  </use>
                  <path fill="none" stroke="white" stroke-width="1.5" d="M0,-3.0v7 M-2.5,-0.5L0,-3.0L2.5,-0.5"/>
                </g>
        </g>
        <svg viewBox="0 0 15 15" width="100%" height="30px" preserveAspectRatio="xMaxYMin meet">
         <g id="arrow_out" transform="scale(0.3 0.3)">
          <a xlink:href="namespacemom__remapping_a07d7276310f329f56560a1290bcb8b0a_icgraph_org.svg" target="_base">
           <rect id="button" ry="5" rx="5" y="6" x="6" height="38" width="38"
                fill="#f2f5e9" fill-opacity="0.5" stroke="#606060" stroke-width="1.0"/>
           <path id="arrow"
             d="M 11.500037,31.436501 C 11.940474,20.09759 22.043105,11.32322 32.158766,21.979434 L 37.068811,17.246167 C 37.068811,17.246167 37.088388,32 37.088388,32 L 22.160133,31.978069 C 22.160133,31.978069 26.997745,27.140456 26.997745,27.140456 C 18.528582,18.264221 13.291696,25.230495 11.500037,31.436501 z"
             style="fill:#404040;"/>
          </a>
         </g>
        </svg>
</svg>
