<?xml version="1.0" encoding="UTF-8" standalone="no"?>
<!DOCTYPE svg PUBLIC "-//W3C//DTD SVG 1.1//EN"
 "http://www.w3.org/Graphics/SVG/1.1/DTD/svg11.dtd">
<!-- Generated by graphviz version 2.38.0 (20140413.2041)
 -->
<!-- Title: mom_remapping::remapping_set_param Pages: 1 -->
<svg width="582pt" height="88pt"
 viewBox="0.00 0.00 582.00 88.00" xmlns="http://www.w3.org/2000/svg" xmlns:xlink="http://www.w3.org/1999/xlink">
<g id="graph0" class="graph" transform="scale(1 1) rotate(0) translate(4 84)">
<title>mom_remapping::remapping_set_param</title>
<polygon fill="white" stroke="none" points="-4,4 -4,-84 578,-84 578,4 -4,4"/>
<!-- Node260 -->
<g id="node1" class="node"><title>Node260</title>
<polygon fill="#bfbfbf" stroke="black" points="0,-24.5 0,-54.5 120,-54.5 120,-24.5 0,-24.5"/>
<text text-anchor="start" x="8" y="-42.5" font-family="Helvetica,sans-Serif" font-size="10.00">mom_remapping::remapping</text>
<text text-anchor="middle" x="60" y="-31.5" font-family="Helvetica,sans-Serif" font-size="10.00">_set_param</text>
</g>
<!-- Node261 -->
<g id="node2" class="node"><title>Node261</title>
<g id="a_node2"><a xlink:href="../../d6/d75/namespacemom__remapping.html#a41a89ac62578250500b7a450d5fdfae7" target="_top" xlink:title="Changes the method of reconstruction Use this routine to parse a string parameter specifying the reco...">
<polygon fill="white" stroke="black" points="156,-30 156,-49 314,-49 314,-30 156,-30"/>
<text text-anchor="middle" x="235" y="-37" font-family="Helvetica,sans-Serif" font-size="10.00">mom_remapping::setreconstructiontype</text>
</a>
</g>
</g>
<!-- Node260&#45;&gt;Node261 -->
<g id="edge1" class="edge"><title>Node260&#45;&gt;Node261</title>
<path fill="none" stroke="midnightblue" d="M120.053,-39.5C128.355,-39.5 137.033,-39.5 145.735,-39.5"/>
<polygon fill="midnightblue" stroke="midnightblue" points="145.94,-43.0001 155.94,-39.5 145.94,-36.0001 145.94,-43.0001"/>
</g>
<!-- Node262 -->
<g id="node3" class="node"><title>Node262</title>
<g id="a_node3"><a xlink:href="../../df/d46/namespacemom__string__functions.html#aca148baf726de2f028b7e7baad3c85d4" target="_top" xlink:title="mom_string_functions\l::uppercase">
<polygon fill="white" stroke="black" points="350,-49.5 350,-79.5 445,-79.5 445,-49.5 350,-49.5"/>
<text text-anchor="start" x="358" y="-67.5" font-family="Helvetica,sans-Serif" font-size="10.00">mom_string_functions</text>
<text text-anchor="middle" x="397.5" y="-56.5" font-family="Helvetica,sans-Serif" font-size="10.00">::uppercase</text>
</a>
</g>
</g>
<!-- Node261&#45;&gt;Node262 -->
<g id="edge2" class="edge"><title>Node261&#45;&gt;Node262</title>
<path fill="none" stroke="midnightblue" d="M297.136,-49.0227C311.043,-51.1889 325.763,-53.4818 339.49,-55.62"/>
<polygon fill="midnightblue" stroke="midnightblue" points="339.345,-59.1394 349.764,-57.2203 340.422,-52.2228 339.345,-59.1394"/>
</g>
<!-- Node263 -->
<g id="node4" class="node"><title>Node263</title>
<g id="a_node4"><a xlink:href="../../d0/de6/namespacemom__error__handler.html#a460cfb79a06c29fc249952c2a3710d67" target="_top" xlink:title="mom_error_handler::\lmom_error">
<polygon fill="white" stroke="black" points="351,-0.5 351,-30.5 444,-30.5 444,-0.5 351,-0.5"/>
<text text-anchor="start" x="359" y="-18.5" font-family="Helvetica,sans-Serif" font-size="10.00">mom_error_handler::</text>
<text text-anchor="middle" x="397.5" y="-7.5" font-family="Helvetica,sans-Serif" font-size="10.00">mom_error</text>
</a>
</g>
</g>
<!-- Node261&#45;&gt;Node263 -->
<g id="edge3" class="edge"><title>Node261&#45;&gt;Node263</title>
<path fill="none" stroke="midnightblue" d="M299.895,-29.9456C313.277,-27.9446 327.292,-25.8488 340.366,-23.8938"/>
<polygon fill="midnightblue" stroke="midnightblue" points="341.247,-27.3011 350.62,-22.3606 340.212,-20.3781 341.247,-27.3011"/>
</g>
<!-- Node264 -->
<g id="node5" class="node"><title>Node264</title>
<g id="a_node5"><a xlink:href="../../d0/de6/namespacemom__error__handler.html#ad5f00a53059c72fe2332d1436c80ca71" target="_top" xlink:title="mom_error_handler::\lis_root_pe">
<polygon fill="white" stroke="black" points="481,-0.5 481,-30.5 574,-30.5 574,-0.5 481,-0.5"/>
<text text-anchor="start" x="489" y="-18.5" font-family="Helvetica,sans-Serif" font-size="10.00">mom_error_handler::</text>
<text text-anchor="middle" x="527.5" y="-7.5" font-family="Helvetica,sans-Serif" font-size="10.00">is_root_pe</text>
</a>
</g>
</g>
<!-- Node263&#45;&gt;Node264 -->
<g id="edge4" class="edge"><title>Node263&#45;&gt;Node264</title>
<path fill="none" stroke="midnightblue" d="M444.349,-15.5C452.908,-15.5 461.939,-15.5 470.758,-15.5"/>
<polygon fill="midnightblue" stroke="midnightblue" points="470.971,-19.0001 480.971,-15.5 470.971,-12.0001 470.971,-19.0001"/>
</g>
</g>
</svg>
