<?xml version="1.0" encoding="UTF-8" standalone="no"?>
<!DOCTYPE svg PUBLIC "-//W3C//DTD SVG 1.1//EN"
 "http://www.w3.org/Graphics/SVG/1.1/DTD/svg11.dtd">
<!-- Generated by graphviz version 2.38.0 (20140413.2041)
 -->
<!-- Title: mom_remapping::setreconstructiontype Pages: 1 -->
<svg width="426pt" height="88pt"
 viewBox="0.00 0.00 426.00 88.00" xmlns="http://www.w3.org/2000/svg" xmlns:xlink="http://www.w3.org/1999/xlink">
<g id="graph0" class="graph" transform="scale(1 1) rotate(0) translate(4 84)">
<title>mom_remapping::setreconstructiontype</title>
<polygon fill="white" stroke="none" points="-4,4 -4,-84 422,-84 422,4 -4,4"/>
<!-- Node317 -->
<g id="node1" class="node"><title>Node317</title>
<polygon fill="#bfbfbf" stroke="black" points="0,-30 0,-49 158,-49 158,-30 0,-30"/>
<text text-anchor="middle" x="79" y="-37" font-family="Helvetica,sans-Serif" font-size="10.00">mom_remapping::setreconstructiontype</text>
</g>
<!-- Node318 -->
<g id="node2" class="node"><title>Node318</title>
<g id="a_node2"><a xlink:href="../../d0/de6/namespacemom__error__handler.html#a460cfb79a06c29fc249952c2a3710d67" target="_top" xlink:title="mom_error_handler::\lmom_error">
<polygon fill="white" stroke="black" points="195,-49.5 195,-79.5 288,-79.5 288,-49.5 195,-49.5"/>
<text text-anchor="start" x="203" y="-67.5" font-family="Helvetica,sans-Serif" font-size="10.00">mom_error_handler::</text>
<text text-anchor="middle" x="241.5" y="-56.5" font-family="Helvetica,sans-Serif" font-size="10.00">mom_error</text>
</a>
</g>
</g>
<!-- Node317&#45;&gt;Node318 -->
<g id="edge1" class="edge"><title>Node317&#45;&gt;Node318</title>
<path fill="none" stroke="midnightblue" d="M141.136,-49.0227C155.393,-51.2435 170.505,-53.5974 184.525,-55.7812"/>
<polygon fill="midnightblue" stroke="midnightblue" points="184.094,-59.2562 194.514,-57.337 185.172,-52.3396 184.094,-59.2562"/>
</g>
<!-- Node320 -->
<g id="node4" class="node"><title>Node320</title>
<g id="a_node4"><a xlink:href="../../df/d46/namespacemom__string__functions.html#aca148baf726de2f028b7e7baad3c85d4" target="_top" xlink:title="mom_string_functions\l::uppercase">
<polygon fill="white" stroke="black" points="194,-0.5 194,-30.5 289,-30.5 289,-0.5 194,-0.5"/>
<text text-anchor="start" x="202" y="-18.5" font-family="Helvetica,sans-Serif" font-size="10.00">mom_string_functions</text>
<text text-anchor="middle" x="241.5" y="-7.5" font-family="Helvetica,sans-Serif" font-size="10.00">::uppercase</text>
</a>
</g>
</g>
<!-- Node317&#45;&gt;Node320 -->
<g id="edge3" class="edge"><title>Node317&#45;&gt;Node320</title>
<path fill="none" stroke="midnightblue" d="M143.895,-29.9456C157.001,-27.9858 170.715,-25.9352 183.557,-24.0149"/>
<polygon fill="midnightblue" stroke="midnightblue" points="184.268,-27.4476 193.64,-22.5071 183.233,-20.5245 184.268,-27.4476"/>
</g>
<!-- Node319 -->
<g id="node3" class="node"><title>Node319</title>
<g id="a_node3"><a xlink:href="../../d0/de6/namespacemom__error__handler.html#ad5f00a53059c72fe2332d1436c80ca71" target="_top" xlink:title="mom_error_handler::\lis_root_pe">
<polygon fill="white" stroke="black" points="325,-49.5 325,-79.5 418,-79.5 418,-49.5 325,-49.5"/>
<text text-anchor="start" x="333" y="-67.5" font-family="Helvetica,sans-Serif" font-size="10.00">mom_error_handler::</text>
<text text-anchor="middle" x="371.5" y="-56.5" font-family="Helvetica,sans-Serif" font-size="10.00">is_root_pe</text>
</a>
</g>
</g>
<!-- Node318&#45;&gt;Node319 -->
<g id="edge2" class="edge"><title>Node318&#45;&gt;Node319</title>
<path fill="none" stroke="midnightblue" d="M288.349,-64.5C296.908,-64.5 305.939,-64.5 314.758,-64.5"/>
<polygon fill="midnightblue" stroke="midnightblue" points="314.971,-68.0001 324.971,-64.5 314.971,-61.0001 314.971,-68.0001"/>
</g>
</g>
</svg>
