<?xml version="1.0" encoding="UTF-8" standalone="no"?>
<!DOCTYPE svg PUBLIC "-//W3C//DTD SVG 1.1//EN"
 "http://www.w3.org/Graphics/SVG/1.1/DTD/svg11.dtd">
<!-- Generated by graphviz version 2.38.0 (20140413.2041)
 -->
<!-- Title: mom_remapping::remapbyprojection Pages: 1 -->
<svg width="662pt" height="28pt"
 viewBox="0.00 0.00 662.00 28.00" xmlns="http://www.w3.org/2000/svg" xmlns:xlink="http://www.w3.org/1999/xlink">
<g id="graph0" class="graph" transform="scale(1 1) rotate(0) translate(4 24)">
<title>mom_remapping::remapbyprojection</title>
<polygon fill="white" stroke="none" points="-4,4 -4,-24 658,-24 658,4 -4,4"/>
<!-- Node185 -->
<g id="node1" class="node"><title>Node185</title>
<polygon fill="#bfbfbf" stroke="black" points="0,-0.5 0,-19.5 148,-19.5 148,-0.5 0,-0.5"/>
<text text-anchor="middle" x="74" y="-7.5" font-family="Helvetica,sans-Serif" font-size="10.00">mom_remapping::remapbyprojection</text>
</g>
<!-- Node186 -->
<g id="node2" class="node"><title>Node186</title>
<g id="a_node2"><a xlink:href="../../d6/d75/namespacemom__remapping.html#aad5ec4e3f91e936e34113503d05deeeb" target="_top" xlink:title="Runs unit tests on remapping functions. Should only be called from a single/root thread Returns True ...">
<polygon fill="white" stroke="black" points="184,-0.5 184,-19.5 333,-19.5 333,-0.5 184,-0.5"/>
<text text-anchor="middle" x="258.5" y="-7.5" font-family="Helvetica,sans-Serif" font-size="10.00">mom_remapping::remappingunittests</text>
</a>
</g>
</g>
<!-- Node185&#45;&gt;Node186 -->
<g id="edge1" class="edge"><title>Node185&#45;&gt;Node186</title>
<path fill="none" stroke="midnightblue" d="M158.41,-10C166.85,-10 175.381,-10 183.71,-10"/>
<polygon fill="midnightblue" stroke="midnightblue" points="158.178,-6.5001 148.178,-10 158.178,-13.5001 158.178,-6.5001"/>
</g>
<!-- Node187 -->
<g id="node3" class="node"><title>Node187</title>
<g id="a_node3"><a xlink:href="../../da/d01/namespacemom.html#a6cfc2cd88d60f051fe90e68c2f16b46b" target="_top" xlink:title="This s/r calls unit tests for other modules. These are NOT normally invoked and so we provide the mod...">
<polygon fill="white" stroke="black" points="369,-0.5 369,-19.5 437,-19.5 437,-0.5 369,-0.5"/>
<text text-anchor="middle" x="403" y="-7.5" font-family="Helvetica,sans-Serif" font-size="10.00">mom::unittests</text>
</a>
</g>
</g>
<!-- Node186&#45;&gt;Node187 -->
<g id="edge2" class="edge"><title>Node186&#45;&gt;Node187</title>
<path fill="none" stroke="midnightblue" d="M343.45,-10C352.405,-10 361.083,-10 368.893,-10"/>
<polygon fill="midnightblue" stroke="midnightblue" points="343.254,-6.5001 333.254,-10 343.254,-13.5001 343.254,-6.5001"/>
</g>
<!-- Node188 -->
<g id="node4" class="node"><title>Node188</title>
<g id="a_node4"><a xlink:href="../../da/d01/namespacemom.html#afebdc0103ad9cbe0ed4a54e522dc4104" target="_top" xlink:title="This subroutine initializes MOM. ">
<polygon fill="white" stroke="black" points="473,-0.5 473,-19.5 562,-19.5 562,-0.5 473,-0.5"/>
<text text-anchor="middle" x="517.5" y="-7.5" font-family="Helvetica,sans-Serif" font-size="10.00">mom::initialize_mom</text>
</a>
</g>
</g>
<!-- Node187&#45;&gt;Node188 -->
<g id="edge3" class="edge"><title>Node187&#45;&gt;Node188</title>
<path fill="none" stroke="midnightblue" d="M447.403,-10C455.714,-10 464.421,-10 472.743,-10"/>
<polygon fill="midnightblue" stroke="midnightblue" points="447.145,-6.5001 437.145,-10 447.145,-13.5001 447.145,-6.5001"/>
</g>
<!-- Node189 -->
<g id="node5" class="node"><title>Node189</title>
<g id="a_node5"><a xlink:href="../../de/dbc/MOM__driver_8F90.html#a08fffeb2d8e8acbf9ed4609be6d258c6" target="_top" xlink:title="mom_main">
<polygon fill="white" stroke="black" points="598,-0.5 598,-19.5 654,-19.5 654,-0.5 598,-0.5"/>
<text text-anchor="middle" x="626" y="-7.5" font-family="Helvetica,sans-Serif" font-size="10.00">mom_main</text>
</a>
</g>
</g>
<!-- Node188&#45;&gt;Node189 -->
<g id="edge4" class="edge"><title>Node188&#45;&gt;Node189</title>
<path fill="none" stroke="midnightblue" d="M572.407,-10C581.206,-10 589.981,-10 597.771,-10"/>
<polygon fill="midnightblue" stroke="midnightblue" points="572.125,-6.5001 562.125,-10 572.125,-13.5001 572.125,-6.5001"/>
</g>
</g>
</svg>
