<?xml version="1.0" encoding="UTF-8" standalone="no"?>
<!DOCTYPE svg PUBLIC "-//W3C//DTD SVG 1.1//EN"
 "http://www.w3.org/Graphics/SVG/1.1/DTD/svg11.dtd">
<!-- Generated by graphviz version 2.38.0 (20140413.2041)
 -->
<!-- Title: src/user/user_revise_forcing.F90 Pages: 1 -->
<svg width="97pt" height="95pt"
 viewBox="0.00 0.00 97.00 95.00" xmlns="http://www.w3.org/2000/svg" xmlns:xlink="http://www.w3.org/1999/xlink">
<g id="graph0" class="graph" transform="scale(1 1) rotate(0) translate(4 91)">
<title>src/user/user_revise_forcing.F90</title>
<polygon fill="white" stroke="none" points="-4,4 -4,-91 93,-91 93,4 -4,4"/>
<!-- Node0 -->
<g id="node1" class="node"><title>Node0</title>
<polygon fill="#bfbfbf" stroke="black" points="-7.10543e-15,-56.5 -7.10543e-15,-86.5 89,-86.5 89,-56.5 -7.10543e-15,-56.5"/>
<text text-anchor="start" x="8" y="-74.5" font-family="Helvetica,sans-Serif" font-size="10.00">src/user/user_revise</text>
<text text-anchor="middle" x="44.5" y="-63.5" font-family="Helvetica,sans-Serif" font-size="10.00">_forcing.F90</text>
</g>
<!-- Node1 -->
<g id="node2" class="node"><title>Node1</title>
<g id="a_node2"><a xlink:href="../../dd/d60/version__variable_8h.html" target="_top" xlink:title="version_variable.h">
<polygon fill="white" stroke="black" points="4,-0.5 4,-19.5 85,-19.5 85,-0.5 4,-0.5"/>
<text text-anchor="middle" x="44.5" y="-7.5" font-family="Helvetica,sans-Serif" font-size="10.00">version_variable.h</text>
</a>
</g>
</g>
<!-- Node0&#45;&gt;Node1 -->
<g id="edge1" class="edge"><title>Node0&#45;&gt;Node1</title>
<path fill="none" stroke="midnightblue" d="M44.5,-56.3993C44.5,-48.4664 44.5,-38.458 44.5,-29.8583"/>
<polygon fill="midnightblue" stroke="midnightblue" points="48.0001,-29.6577 44.5,-19.6578 41.0001,-29.6578 48.0001,-29.6577"/>
</g>
</g>
</svg>
