<?xml version="1.0" encoding="UTF-8" standalone="no"?>
<!DOCTYPE svg PUBLIC "-//W3C//DTD SVG 1.1//EN"
 "http://www.w3.org/Graphics/SVG/1.1/DTD/svg11.dtd">
<!-- Generated by graphviz version 2.38.0 (20140413.2041)
 -->
<!-- Title: mom_pressureforce::pressureforce_init Pages: 1 -->
<svg width="506pt" height="123pt"
 viewBox="0.00 0.00 506.00 123.21" xmlns="http://www.w3.org/2000/svg" xmlns:xlink="http://www.w3.org/1999/xlink">
<g id="graph0" class="graph" transform="scale(1 1) rotate(0) translate(4 119.206)">
<title>mom_pressureforce::pressureforce_init</title>
<polygon fill="white" stroke="none" points="-4,4 -4,-119.206 502,-119.206 502,4 -4,4"/>
<!-- Node8 -->
<g id="node1" class="node"><title>Node8</title>
<polygon fill="#bfbfbf" stroke="black" points="0,-42.0565 0,-72.0565 93,-72.0565 93,-42.0565 0,-42.0565"/>
<text text-anchor="start" x="8" y="-60.0565" font-family="Helvetica,sans-Serif" font-size="10.00">mom_pressureforce::</text>
<text text-anchor="middle" x="46.5" y="-49.0565" font-family="Helvetica,sans-Serif" font-size="10.00">pressureforce_init</text>
</g>
<!-- Node9 -->
<g id="node2" class="node"><title>Node9</title>
<g id="a_node2"><a xlink:href="../../d9/def/namespacemom__file__parser.html#a17c0ef1bb1912f02faa0aaa1e0f64210" target="_top" xlink:title="mom_file_parser::log\l_version">
<polygon fill="white" stroke="black" points="276.5,-67.0565 276.5,-97.0565 368.5,-97.0565 368.5,-67.0565 276.5,-67.0565"/>
<text text-anchor="start" x="284.5" y="-85.0565" font-family="Helvetica,sans-Serif" font-size="10.00">mom_file_parser::log</text>
<text text-anchor="middle" x="322.5" y="-74.0565" font-family="Helvetica,sans-Serif" font-size="10.00">_version</text>
</a>
</g>
</g>
<!-- Node8&#45;&gt;Node9 -->
<g id="edge1" class="edge"><title>Node8&#45;&gt;Node9</title>
<path fill="none" stroke="midnightblue" d="M65.5223,-72.1952C81.1747,-84.2882 105.037,-100.292 129,-107.057 176.478,-120.46 191.212,-114.371 240,-107.057 250.315,-105.51 261.128,-102.92 271.382,-99.9789"/>
<polygon fill="midnightblue" stroke="midnightblue" points="272.446,-103.314 281.008,-97.0736 270.423,-96.6124 272.446,-103.314"/>
</g>
<!-- Node11 -->
<g id="node4" class="node"><title>Node11</title>
<g id="a_node4"><a xlink:href="../../d0/de6/namespacemom__error__handler.html#a460cfb79a06c29fc249952c2a3710d67" target="_top" xlink:title="mom_error_handler::\lmom_error">
<polygon fill="white" stroke="black" points="276,-18.0565 276,-48.0565 369,-48.0565 369,-18.0565 276,-18.0565"/>
<text text-anchor="start" x="284" y="-36.0565" font-family="Helvetica,sans-Serif" font-size="10.00">mom_error_handler::</text>
<text text-anchor="middle" x="322.5" y="-25.0565" font-family="Helvetica,sans-Serif" font-size="10.00">mom_error</text>
</a>
</g>
</g>
<!-- Node8&#45;&gt;Node11 -->
<g id="edge3" class="edge"><title>Node8&#45;&gt;Node11</title>
<path fill="none" stroke="midnightblue" d="M65.8886,-41.9787C81.576,-30.1538 105.296,-14.6336 129,-8.05652 176.537,5.13364 191.212,-0.741885 240,-8.05652 250.315,-9.60305 261.128,-12.1928 271.382,-15.1342"/>
<polygon fill="midnightblue" stroke="midnightblue" points="270.423,-18.5006 281.008,-18.0394 272.446,-11.7992 270.423,-18.5006"/>
</g>
<!-- Node12 -->
<g id="node5" class="node"><title>Node12</title>
<g id="a_node5"><a xlink:href="../../d3/d77/namespacemom__pressureforce__afv.html#a443f95a60b35b33a872264f6bacf4554" target="_top" xlink:title="mom_pressureforce_afv\l::pressureforce_afv_init">
<polygon fill="white" stroke="black" points="132.5,-67.0565 132.5,-97.0565 236.5,-97.0565 236.5,-67.0565 132.5,-67.0565"/>
<text text-anchor="start" x="140.5" y="-85.0565" font-family="Helvetica,sans-Serif" font-size="10.00">mom_pressureforce_afv</text>
<text text-anchor="middle" x="184.5" y="-74.0565" font-family="Helvetica,sans-Serif" font-size="10.00">::pressureforce_afv_init</text>
</a>
</g>
</g>
<!-- Node8&#45;&gt;Node12 -->
<g id="edge5" class="edge"><title>Node8&#45;&gt;Node12</title>
<path fill="none" stroke="midnightblue" d="M93.1644,-65.4507C102.442,-67.1562 112.345,-68.9765 122.066,-70.7635"/>
<polygon fill="midnightblue" stroke="midnightblue" points="121.63,-74.2419 132.098,-72.6076 122.895,-67.3572 121.63,-74.2419"/>
</g>
<!-- Node13 -->
<g id="node6" class="node"><title>Node13</title>
<g id="a_node6"><a xlink:href="../../d9/dc4/namespacemom__pressureforce__mont.html#a560267f015d03452d92aca82f6a46b14" target="_top" xlink:title="mom_pressureforce_mont\l::pressureforce_mont_init">
<polygon fill="white" stroke="black" points="129,-18.0565 129,-48.0565 240,-48.0565 240,-18.0565 129,-18.0565"/>
<text text-anchor="start" x="137" y="-36.0565" font-family="Helvetica,sans-Serif" font-size="10.00">mom_pressureforce_mont</text>
<text text-anchor="middle" x="184.5" y="-25.0565" font-family="Helvetica,sans-Serif" font-size="10.00">::pressureforce_mont_init</text>
</a>
</g>
</g>
<!-- Node8&#45;&gt;Node13 -->
<g id="edge8" class="edge"><title>Node8&#45;&gt;Node13</title>
<path fill="none" stroke="midnightblue" d="M93.1644,-48.9981C101.373,-47.5495 110.07,-46.0147 118.698,-44.4921"/>
<polygon fill="midnightblue" stroke="midnightblue" points="119.523,-47.9008 128.762,-42.7161 118.306,-41.0073 119.523,-47.9008"/>
</g>
<!-- Node10 -->
<g id="node3" class="node"><title>Node10</title>
<g id="a_node3"><a xlink:href="../../d0/de6/namespacemom__error__handler.html#ad5f00a53059c72fe2332d1436c80ca71" target="_top" xlink:title="mom_error_handler::\lis_root_pe">
<polygon fill="white" stroke="black" points="405,-42.0565 405,-72.0565 498,-72.0565 498,-42.0565 405,-42.0565"/>
<text text-anchor="start" x="413" y="-60.0565" font-family="Helvetica,sans-Serif" font-size="10.00">mom_error_handler::</text>
<text text-anchor="middle" x="451.5" y="-49.0565" font-family="Helvetica,sans-Serif" font-size="10.00">is_root_pe</text>
</a>
</g>
</g>
<!-- Node9&#45;&gt;Node10 -->
<g id="edge2" class="edge"><title>Node9&#45;&gt;Node10</title>
<path fill="none" stroke="midnightblue" d="M368.633,-73.1721C377.037,-71.5177 385.911,-69.771 394.592,-68.062"/>
<polygon fill="midnightblue" stroke="midnightblue" points="395.52,-71.4466 404.656,-66.081 394.168,-64.5784 395.52,-71.4466"/>
</g>
<!-- Node11&#45;&gt;Node10 -->
<g id="edge4" class="edge"><title>Node11&#45;&gt;Node10</title>
<path fill="none" stroke="midnightblue" d="M369.35,-41.7211C377.623,-43.2844 386.33,-44.9299 394.846,-46.5392"/>
<polygon fill="midnightblue" stroke="midnightblue" points="394.241,-49.9868 404.717,-48.4047 395.541,-43.1086 394.241,-49.9868"/>
</g>
<!-- Node12&#45;&gt;Node9 -->
<g id="edge7" class="edge"><title>Node12&#45;&gt;Node9</title>
<path fill="none" stroke="midnightblue" d="M236.528,-82.0565C246.262,-82.0565 256.491,-82.0565 266.347,-82.0565"/>
<polygon fill="midnightblue" stroke="midnightblue" points="266.446,-85.5566 276.446,-82.0565 266.446,-78.5566 266.446,-85.5566"/>
</g>
<!-- Node12&#45;&gt;Node11 -->
<g id="edge6" class="edge"><title>Node12&#45;&gt;Node11</title>
<path fill="none" stroke="midnightblue" d="M227.414,-66.9551C240.858,-62.1114 255.905,-56.6901 269.955,-51.628"/>
<polygon fill="midnightblue" stroke="midnightblue" points="271.268,-54.8749 279.49,-48.1924 268.896,-48.2894 271.268,-54.8749"/>
</g>
<!-- Node13&#45;&gt;Node9 -->
<g id="edge10" class="edge"><title>Node13&#45;&gt;Node9</title>
<path fill="none" stroke="midnightblue" d="M227.414,-48.158C240.858,-53.0016 255.905,-58.4229 269.955,-63.485"/>
<polygon fill="midnightblue" stroke="midnightblue" points="268.896,-66.8237 279.49,-66.9206 271.268,-60.2381 268.896,-66.8237"/>
</g>
<!-- Node13&#45;&gt;Node11 -->
<g id="edge9" class="edge"><title>Node13&#45;&gt;Node11</title>
<path fill="none" stroke="midnightblue" d="M240.033,-33.0565C248.439,-33.0565 257.131,-33.0565 265.567,-33.0565"/>
<polygon fill="midnightblue" stroke="midnightblue" points="265.694,-36.5566 275.694,-33.0565 265.694,-29.5566 265.694,-36.5566"/>
</g>
</g>
</svg>
