<?xml version="1.0" encoding="UTF-8" standalone="no"?>
<!DOCTYPE svg PUBLIC "-//W3C//DTD SVG 1.1//EN"
 "http://www.w3.org/Graphics/SVG/1.1/DTD/svg11.dtd">
<!-- Generated by graphviz version 2.38.0 (20140413.2041)
 -->
<!-- Title: mom_write_cputime::write_cputime_cs Pages: 1 -->
<svg width="321pt" height="150pt"
 viewBox="0.00 0.00 320.50 150.00" xmlns="http://www.w3.org/2000/svg" xmlns:xlink="http://www.w3.org/1999/xlink">
<g id="graph0" class="graph" transform="scale(1 1) rotate(0) translate(4 146)">
<title>mom_write_cputime::write_cputime_cs</title>
<polygon fill="white" stroke="none" points="-4,4 -4,-146 316.5,-146 316.5,4 -4,4"/>
<!-- Node1 -->
<g id="node1" class="node"><title>Node1</title>
<polygon fill="#bfbfbf" stroke="black" points="96,-0.5 96,-30.5 189,-30.5 189,-0.5 96,-0.5"/>
<text text-anchor="start" x="104" y="-18.5" font-family="Helvetica,sans-Serif" font-size="10.00">mom_write_cputime::</text>
<text text-anchor="middle" x="142.5" y="-7.5" font-family="Helvetica,sans-Serif" font-size="10.00">write_cputime_cs</text>
</g>
<!-- Node2 -->
<g id="node2" class="node"><title>Node2</title>
<polygon fill="white" stroke="#bfbfbf" points="0,-122.5 0,-141.5 51,-141.5 51,-122.5 0,-122.5"/>
<text text-anchor="middle" x="25.5" y="-129.5" font-family="Helvetica,sans-Serif" font-size="10.00">time_type</text>
</g>
<!-- Node2&#45;&gt;Node1 -->
<g id="edge1" class="edge"><title>Node2&#45;&gt;Node1</title>
<path fill="none" stroke="#9a32cd" stroke-dasharray="5,2" d="M33.3075,-113.104C41.9375,-95.0215 57.3289,-67.221 77.5,-49 85.7389,-41.5576 95.9943,-35.3915 105.906,-30.5037"/>
<polygon fill="#9a32cd" stroke="#9a32cd" points="30.0985,-111.706 29.1217,-122.255 36.4642,-114.617 30.0985,-111.706"/>
<text text-anchor="middle" x="96.5" y="-74" font-family="Helvetica,sans-Serif" font-size="10.00"> start_time</text>
</g>
<!-- Node3 -->
<g id="node3" class="node"><title>Node3</title>
<polygon fill="white" stroke="#bfbfbf" points="69,-122.5 69,-141.5 154,-141.5 154,-122.5 69,-122.5"/>
<text text-anchor="middle" x="111.5" y="-129.5" font-family="Helvetica,sans-Serif" font-size="10.00">character(len=200)</text>
</g>
<!-- Node3&#45;&gt;Node1 -->
<g id="edge2" class="edge"><title>Node3&#45;&gt;Node1</title>
<path fill="none" stroke="#9a32cd" stroke-dasharray="5,2" d="M116.48,-112.605C122.647,-89.8265 133.022,-51.5083 138.627,-30.8061"/>
<polygon fill="#9a32cd" stroke="#9a32cd" points="113.065,-111.827 113.83,-122.394 119.822,-113.656 113.065,-111.827"/>
<text text-anchor="middle" x="146" y="-74" font-family="Helvetica,sans-Serif" font-size="10.00"> cpufile</text>
</g>
<!-- Node4 -->
<g id="node4" class="node"><title>Node4</title>
<polygon fill="white" stroke="#bfbfbf" points="172,-122.5 172,-141.5 213,-141.5 213,-122.5 172,-122.5"/>
<text text-anchor="middle" x="192.5" y="-129.5" font-family="Helvetica,sans-Serif" font-size="10.00">integer</text>
</g>
<!-- Node4&#45;&gt;Node1 -->
<g id="edge3" class="edge"><title>Node4&#45;&gt;Node1</title>
<path fill="none" stroke="#9a32cd" stroke-dasharray="5,2" d="M186.097,-112.538C180.077,-95.7218 170.515,-70.3333 160.5,-49 157.594,-42.8111 154.009,-36.1754 150.805,-30.5239"/>
<polygon fill="#9a32cd" stroke="#9a32cd" points="182.885,-113.954 189.51,-122.221 189.487,-111.627 182.885,-113.954"/>
<text text-anchor="middle" x="208.5" y="-85" font-family="Helvetica,sans-Serif" font-size="10.00"> prev_n</text>
<text text-anchor="middle" x="208.5" y="-74" font-family="Helvetica,sans-Serif" font-size="10.00">previous_calls</text>
<text text-anchor="middle" x="208.5" y="-63" font-family="Helvetica,sans-Serif" font-size="10.00">filecpu_ascii</text>
</g>
<!-- Node5 -->
<g id="node5" class="node"><title>Node5</title>
<polygon fill="white" stroke="#bfbfbf" points="240.5,-122.5 240.5,-141.5 270.5,-141.5 270.5,-122.5 240.5,-122.5"/>
<text text-anchor="middle" x="255.5" y="-129.5" font-family="Helvetica,sans-Serif" font-size="10.00">real</text>
</g>
<!-- Node5&#45;&gt;Node1 -->
<g id="edge4" class="edge"><title>Node5&#45;&gt;Node1</title>
<path fill="none" stroke="#9a32cd" stroke-dasharray="5,2" d="M255.261,-112.024C254.027,-93.6879 249.388,-66.2283 233.5,-49 221.9,-36.4209 205.097,-28.7064 189.079,-23.9768"/>
<polygon fill="#9a32cd" stroke="#9a32cd" points="251.767,-112.235 255.66,-122.088 258.761,-111.958 251.767,-112.235"/>
<text text-anchor="middle" x="283.5" y="-96" font-family="Helvetica,sans-Serif" font-size="10.00"> maxcpu</text>
<text text-anchor="middle" x="283.5" y="-85" font-family="Helvetica,sans-Serif" font-size="10.00">dn_dcpu_min</text>
<text text-anchor="middle" x="283.5" y="-74" font-family="Helvetica,sans-Serif" font-size="10.00">cputime2</text>
<text text-anchor="middle" x="283.5" y="-63" font-family="Helvetica,sans-Serif" font-size="10.00">prev_cputime</text>
<text text-anchor="middle" x="283.5" y="-52" font-family="Helvetica,sans-Serif" font-size="10.00">startup_cputime</text>
</g>
</g>
</svg>
