<?xml version="1.0" encoding="UTF-8" standalone="no"?>
<!DOCTYPE svg PUBLIC "-//W3C//DTD SVG 1.1//EN"
 "http://www.w3.org/Graphics/SVG/1.1/DTD/svg11.dtd">
<!-- Generated by graphviz version 2.38.0 (20140413.2041)
 -->
<!-- Title: mom_internal_tides::int_tide_cs Pages: 1 -->
<svg width="293pt" height="633pt"
 viewBox="0.00 0.00 293.00 633.00" xmlns="http://www.w3.org/2000/svg" xmlns:xlink="http://www.w3.org/1999/xlink">
<g id="graph0" class="graph" transform="scale(1 1) rotate(0) translate(4 629)">
<title>mom_internal_tides::int_tide_cs</title>
<polygon fill="white" stroke="none" points="-4,4 -4,-629 289,-629 289,4 -4,4"/>
<!-- Node1 -->
<g id="node1" class="node"><title>Node1</title>
<polygon fill="#bfbfbf" stroke="black" points="199,-361 199,-391 285,-391 285,-361 199,-361"/>
<text text-anchor="start" x="207" y="-379" font-family="Helvetica,sans-Serif" font-size="10.00">mom_internal_tides</text>
<text text-anchor="middle" x="242" y="-368" font-family="Helvetica,sans-Serif" font-size="10.00">::int_tide_cs</text>
</g>
<!-- Node2 -->
<g id="node2" class="node"><title>Node2</title>
<polygon fill="white" stroke="#bfbfbf" points="25.5,-492.5 25.5,-511.5 63.5,-511.5 63.5,-492.5 25.5,-492.5"/>
<text text-anchor="middle" x="44.5" y="-499.5" font-family="Helvetica,sans-Serif" font-size="10.00">logical</text>
</g>
<!-- Node2&#45;&gt;Node1 -->
<g id="edge1" class="edge"><title>Node2&#45;&gt;Node1</title>
<path fill="none" stroke="#9a32cd" stroke-dasharray="5,2" d="M73.8375,-499.738C103.078,-496.185 148.835,-487.104 181,-464 207.282,-445.122 225.67,-410.931 234.674,-391.185"/>
<polygon fill="#9a32cd" stroke="#9a32cd" points="73.4347,-496.261 63.8675,-500.813 74.185,-503.221 73.4347,-496.261"/>
<text text-anchor="middle" x="144" y="-617" font-family="Helvetica,sans-Serif" font-size="10.00"> apply_bottom_drag</text>
<text text-anchor="middle" x="144" y="-606" font-family="Helvetica,sans-Serif" font-size="10.00">corner_adv</text>
<text text-anchor="middle" x="144" y="-595" font-family="Helvetica,sans-Serif" font-size="10.00">refl_dbl</text>
<text text-anchor="middle" x="144" y="-584" font-family="Helvetica,sans-Serif" font-size="10.00">apply_froude_drag</text>
<text text-anchor="start" x="108" y="-573" font-family="Helvetica,sans-Serif" font-size="10.00">apply_background</text>
<text text-anchor="middle" x="144" y="-562" font-family="Helvetica,sans-Serif" font-size="10.00">_drag</text>
<text text-anchor="middle" x="144" y="-551" font-family="Helvetica,sans-Serif" font-size="10.00">simple_2nd</text>
<text text-anchor="middle" x="144" y="-540" font-family="Helvetica,sans-Serif" font-size="10.00">refl_pref_logical</text>
<text text-anchor="middle" x="144" y="-529" font-family="Helvetica,sans-Serif" font-size="10.00">use_ppmang</text>
<text text-anchor="middle" x="144" y="-518" font-family="Helvetica,sans-Serif" font-size="10.00">apply_wave_drag</text>
<text text-anchor="middle" x="144" y="-507" font-family="Helvetica,sans-Serif" font-size="10.00">upwind_1st</text>
<text text-anchor="middle" x="144" y="-496" font-family="Helvetica,sans-Serif" font-size="10.00">...</text>
</g>
<!-- Node3 -->
<g id="node3" class="node"><title>Node3</title>
<polygon fill="white" stroke="#bfbfbf" points="19,-454.5 19,-473.5 70,-473.5 70,-454.5 19,-454.5"/>
<text text-anchor="middle" x="44.5" y="-461.5" font-family="Helvetica,sans-Serif" font-size="10.00">time_type</text>
</g>
<!-- Node3&#45;&gt;Node1 -->
<g id="edge2" class="edge"><title>Node3&#45;&gt;Node1</title>
<path fill="none" stroke="#9a32cd" stroke-dasharray="5,2" d="M80.0487,-456.862C108.238,-450.211 148.561,-438.778 181,-422 197.089,-413.679 213.267,-400.962 224.763,-391.006"/>
<polygon fill="#9a32cd" stroke="#9a32cd" points="79.2207,-453.461 70.2493,-459.097 80.7773,-460.285 79.2207,-453.461"/>
<text text-anchor="middle" x="144" y="-452" font-family="Helvetica,sans-Serif" font-size="10.00"> time</text>
</g>
<!-- Node4 -->
<g id="node4" class="node"><title>Node4</title>
<polygon fill="white" stroke="#bfbfbf" points="0,-405 0,-435 89,-435 89,-405 0,-405"/>
<text text-anchor="start" x="8" y="-423" font-family="Helvetica,sans-Serif" font-size="10.00">type(wave_structure</text>
<text text-anchor="middle" x="44.5" y="-412" font-family="Helvetica,sans-Serif" font-size="10.00">_cs), pointer</text>
</g>
<!-- Node4&#45;&gt;Node1 -->
<g id="edge3" class="edge"><title>Node4&#45;&gt;Node1</title>
<path fill="none" stroke="#9a32cd" stroke-dasharray="5,2" d="M99.2062,-408.946C124.127,-403.704 154.121,-397.234 181,-391 186.753,-389.666 192.803,-388.212 198.758,-386.753"/>
<polygon fill="#9a32cd" stroke="#9a32cd" points="98.2854,-405.563 89.2157,-411.039 99.7209,-412.414 98.2854,-405.563"/>
<text text-anchor="middle" x="144" y="-410" font-family="Helvetica,sans-Serif" font-size="10.00"> wave_structure_csp</text>
</g>
<!-- Node5 -->
<g id="node5" class="node"><title>Node5</title>
<polygon fill="white" stroke="#bfbfbf" points="2,-366.5 2,-385.5 87,-385.5 87,-366.5 2,-366.5"/>
<text text-anchor="middle" x="44.5" y="-373.5" font-family="Helvetica,sans-Serif" font-size="10.00">character(len=200)</text>
</g>
<!-- Node5&#45;&gt;Node1 -->
<g id="edge4" class="edge"><title>Node5&#45;&gt;Node1</title>
<path fill="none" stroke="#9a32cd" stroke-dasharray="5,2" d="M97.8212,-376C129.433,-376 169.197,-376 198.793,-376"/>
<polygon fill="#9a32cd" stroke="#9a32cd" points="97.4397,-372.5 87.4397,-376 97.4396,-379.5 97.4397,-372.5"/>
<text text-anchor="middle" x="144" y="-379" font-family="Helvetica,sans-Serif" font-size="10.00"> inputdir</text>
</g>
<!-- Node6 -->
<g id="node6" class="node"><title>Node6</title>
<polygon fill="white" stroke="#bfbfbf" points="21,-328.5 21,-347.5 68,-347.5 68,-328.5 21,-328.5"/>
<text text-anchor="middle" x="44.5" y="-335.5" font-family="Helvetica,sans-Serif" font-size="10.00">diag_ctrl</text>
</g>
<!-- Node6&#45;&gt;Node1 -->
<g id="edge5" class="edge"><title>Node6&#45;&gt;Node1</title>
<path fill="none" stroke="#9a32cd" stroke-dasharray="5,2" d="M78.3818,-342.857C105.905,-347.096 146.158,-353.699 181,-361 186.78,-362.211 192.846,-363.594 198.808,-365.02"/>
<polygon fill="#9a32cd" stroke="#9a32cd" points="78.5495,-339.342 68.1367,-341.298 77.4963,-346.263 78.5495,-339.342"/>
<text text-anchor="middle" x="144" y="-364" font-family="Helvetica,sans-Serif" font-size="10.00"> diag</text>
</g>
<!-- Node7 -->
<g id="node7" class="node"><title>Node7</title>
<polygon fill="white" stroke="#bfbfbf" points="29.5,-188.5 29.5,-207.5 59.5,-207.5 59.5,-188.5 29.5,-188.5"/>
<text text-anchor="middle" x="44.5" y="-195.5" font-family="Helvetica,sans-Serif" font-size="10.00">real</text>
</g>
<!-- Node7&#45;&gt;Node1 -->
<g id="edge6" class="edge"><title>Node7&#45;&gt;Node1</title>
<path fill="none" stroke="#9a32cd" stroke-dasharray="5,2" d="M69.8797,-195.612C99.4929,-194.077 149.397,-196.06 181,-222 224.693,-257.863 236.671,-329.726 239.871,-360.946"/>
<polygon fill="#9a32cd" stroke="#9a32cd" points="69.3358,-192.141 59.6042,-196.33 69.8239,-199.124 69.3358,-192.141"/>
<text text-anchor="middle" x="144" y="-335" font-family="Helvetica,sans-Serif" font-size="10.00"> frequency</text>
<text text-anchor="middle" x="144" y="-324" font-family="Helvetica,sans-Serif" font-size="10.00">cdrag</text>
<text text-anchor="middle" x="144" y="-313" font-family="Helvetica,sans-Serif" font-size="10.00">tot_froude_loss</text>
<text text-anchor="middle" x="144" y="-302" font-family="Helvetica,sans-Serif" font-size="10.00">refl_angle</text>
<text text-anchor="middle" x="144" y="-291" font-family="Helvetica,sans-Serif" font-size="10.00">tot_quad_loss</text>
<text text-anchor="middle" x="144" y="-280" font-family="Helvetica,sans-Serif" font-size="10.00">tot_leak_loss</text>
<text text-anchor="middle" x="144" y="-269" font-family="Helvetica,sans-Serif" font-size="10.00">en_restart</text>
<text text-anchor="middle" x="144" y="-258" font-family="Helvetica,sans-Serif" font-size="10.00">en_sum</text>
<text text-anchor="middle" x="144" y="-247" font-family="Helvetica,sans-Serif" font-size="10.00">tke_leak_loss</text>
<text text-anchor="middle" x="144" y="-236" font-family="Helvetica,sans-Serif" font-size="10.00">q_itides</text>
<text text-anchor="middle" x="144" y="-225" font-family="Helvetica,sans-Serif" font-size="10.00">...</text>
</g>
<!-- Node8 -->
<g id="node8" class="node"><title>Node8</title>
<polygon fill="white" stroke="#bfbfbf" points="24,-0.5 24,-19.5 65,-19.5 65,-0.5 24,-0.5"/>
<text text-anchor="middle" x="44.5" y="-7.5" font-family="Helvetica,sans-Serif" font-size="10.00">integer</text>
</g>
<!-- Node8&#45;&gt;Node1 -->
<g id="edge7" class="edge"><title>Node8&#45;&gt;Node1</title>
<path fill="none" stroke="#9a32cd" stroke-dasharray="5,2" d="M75.2284,-4.77C105.927,-1.21758 153.158,-1.21409 181,-28 229.82,-74.9682 239.065,-300.191 240.68,-360.898"/>
<polygon fill="#9a32cd" stroke="#9a32cd" points="74.5594,-1.3285 65.1183,-6.13645 75.497,-8.26543 74.5594,-1.3285"/>
<text text-anchor="middle" x="144" y="-185" font-family="Helvetica,sans-Serif" font-size="10.00"> id_cp_mode</text>
<text text-anchor="middle" x="144" y="-174" font-family="Helvetica,sans-Serif" font-size="10.00">id_ub_mode</text>
<text text-anchor="start" x="116.5" y="-163" font-family="Helvetica,sans-Serif" font-size="10.00">id_itidal_loss</text>
<text text-anchor="middle" x="144" y="-152" font-family="Helvetica,sans-Serif" font-size="10.00">_ang_mode</text>
<text text-anchor="middle" x="144" y="-141" font-family="Helvetica,sans-Serif" font-size="10.00">id_en_mode</text>
<text text-anchor="middle" x="144" y="-130" font-family="Helvetica,sans-Serif" font-size="10.00">id_dy_cu</text>
<text text-anchor="start" x="116.5" y="-119" font-family="Helvetica,sans-Serif" font-size="10.00">id_allprocesses</text>
<text text-anchor="middle" x="144" y="-108" font-family="Helvetica,sans-Serif" font-size="10.00">_loss_mode</text>
<text text-anchor="start" x="116.5" y="-97" font-family="Helvetica,sans-Serif" font-size="10.00">id_tot_froude</text>
<text text-anchor="middle" x="144" y="-86" font-family="Helvetica,sans-Serif" font-size="10.00">_loss</text>
<text text-anchor="middle" x="144" y="-75" font-family="Helvetica,sans-Serif" font-size="10.00">id_dx_cv</text>
<text text-anchor="middle" x="144" y="-64" font-family="Helvetica,sans-Serif" font-size="10.00">nangle</text>
<text text-anchor="start" x="116.5" y="-53" font-family="Helvetica,sans-Serif" font-size="10.00">id_tot_quad</text>
<text text-anchor="middle" x="144" y="-42" font-family="Helvetica,sans-Serif" font-size="10.00">_loss</text>
<text text-anchor="middle" x="144" y="-31" font-family="Helvetica,sans-Serif" font-size="10.00">...</text>
</g>
</g>
</svg>
