<?xml version="1.0" encoding="UTF-8" standalone="no"?>
<!DOCTYPE svg PUBLIC "-//W3C//DTD SVG 1.1//EN"
 "http://www.w3.org/Graphics/SVG/1.1/DTD/svg11.dtd">
<!-- Generated by graphviz version 2.38.0 (20140413.2041)
 -->
<!-- Title: mom_sponge::set_up_sponge_field Pages: 1 -->
<svg width="360pt" height="61pt"
 viewBox="0.00 0.00 360.00 61.00" xmlns="http://www.w3.org/2000/svg" xmlns:xlink="http://www.w3.org/1999/xlink">
<g id="graph0" class="graph" transform="scale(1 1) rotate(0) translate(4 57)">
<title>mom_sponge::set_up_sponge_field</title>
<polygon fill="white" stroke="none" points="-4,4 -4,-57 356,-57 356,4 -4,4"/>
<!-- Node24 -->
<g id="node1" class="node"><title>Node24</title>
<polygon fill="#bfbfbf" stroke="black" points="0,-22.5 0,-52.5 94,-52.5 94,-22.5 0,-22.5"/>
<text text-anchor="start" x="8" y="-40.5" font-family="Helvetica,sans-Serif" font-size="10.00">mom_sponge::set_up</text>
<text text-anchor="middle" x="47" y="-29.5" font-family="Helvetica,sans-Serif" font-size="10.00">_sponge_field</text>
</g>
<!-- Node25 -->
<g id="node2" class="node"><title>Node25</title>
<g id="a_node2"><a xlink:href="../../d0/de6/namespacemom__error__handler.html#ad5f00a53059c72fe2332d1436c80ca71" target="_top" xlink:title="mom_error_handler::\lis_root_pe">
<polygon fill="white" stroke="black" points="259,-22.5 259,-52.5 352,-52.5 352,-22.5 259,-22.5"/>
<text text-anchor="start" x="267" y="-40.5" font-family="Helvetica,sans-Serif" font-size="10.00">mom_error_handler::</text>
<text text-anchor="middle" x="305.5" y="-29.5" font-family="Helvetica,sans-Serif" font-size="10.00">is_root_pe</text>
</a>
</g>
</g>
<!-- Node24&#45;&gt;Node25 -->
<g id="edge1" class="edge"><title>Node24&#45;&gt;Node25</title>
<path fill="none" stroke="midnightblue" d="M94.3934,-39.4933C106.017,-39.9112 118.463,-40.289 130,-40.5 171.326,-41.2557 181.674,-41.2603 223,-40.5 231.343,-40.3465 240.165,-40.1047 248.802,-39.8233"/>
<polygon fill="midnightblue" stroke="midnightblue" points="248.944,-43.3206 258.817,-39.4778 248.702,-36.3248 248.944,-43.3206"/>
</g>
<!-- Node26 -->
<g id="node3" class="node"><title>Node26</title>
<g id="a_node3"><a xlink:href="../../d0/de6/namespacemom__error__handler.html#a460cfb79a06c29fc249952c2a3710d67" target="_top" xlink:title="mom_error_handler::\lmom_error">
<polygon fill="white" stroke="black" points="130,-0.5 130,-30.5 223,-30.5 223,-0.5 130,-0.5"/>
<text text-anchor="start" x="138" y="-18.5" font-family="Helvetica,sans-Serif" font-size="10.00">mom_error_handler::</text>
<text text-anchor="middle" x="176.5" y="-7.5" font-family="Helvetica,sans-Serif" font-size="10.00">mom_error</text>
</a>
</g>
</g>
<!-- Node24&#45;&gt;Node26 -->
<g id="edge2" class="edge"><title>Node24&#45;&gt;Node26</title>
<path fill="none" stroke="midnightblue" d="M94.0304,-29.5575C102.438,-28.1067 111.293,-26.5788 119.943,-25.0863"/>
<polygon fill="midnightblue" stroke="midnightblue" points="120.705,-28.5066 129.965,-23.3571 119.515,-21.6085 120.705,-28.5066"/>
</g>
<!-- Node26&#45;&gt;Node25 -->
<g id="edge3" class="edge"><title>Node26&#45;&gt;Node25</title>
<path fill="none" stroke="midnightblue" d="M223.35,-23.4425C231.623,-24.8756 240.33,-26.3839 248.846,-27.8591"/>
<polygon fill="midnightblue" stroke="midnightblue" points="248.267,-31.3108 258.717,-29.5692 249.462,-24.4136 248.267,-31.3108"/>
</g>
</g>
</svg>
