<?xml version="1.0" encoding="UTF-8" standalone="no"?>
<!DOCTYPE svg PUBLIC "-//W3C//DTD SVG 1.1//EN"
 "http://www.w3.org/Graphics/SVG/1.1/DTD/svg11.dtd">
<!-- Generated by graphviz version 2.38.0 (20140413.2041)
 -->
<!-- Title: baroclinic_zone_initialization::bcz_params Pages: 1 -->
<!--zoomable 249 -->
<svg id="main" version="1.1" xmlns="http://www.w3.org/2000/svg" xmlns:xlink="http://www.w3.org/1999/xlink" xml:space="preserve" onload="init(evt)">
<style type="text/css"><![CDATA[
.edge:hover path { stroke: red; }
.edge:hover polygon { stroke: red; fill: red; }
]]></style>
<script type="text/javascript"><![CDATA[
var edges = document.getElementsByTagName('g');
if (edges && edges.length) {
  for (var i=0;i<edges.length;i++) {
    if (edges[i].id.substr(0,4)=='edge') {
      edges[i].setAttribute('class','edge');
    }
  }
}
]]></script>
        <defs>
                <circle id="rim" cx="0" cy="0" r="7"/>
                <circle id="rim2" cx="0" cy="0" r="3.5"/>
                <g id="zoomPlus">
                        <use xlink:href="#rim" fill="#404040">
                                <set attributeName="fill" to="#808080" begin="zoomplus.mouseover" end="zoomplus.mouseout"/>
                        </use>
                        <path d="M-4,0h8M0,-4v8" fill="none" stroke="white" stroke-width="1.5" pointer-events="none"/>
                </g>
                <g id="zoomMin">
                        <use xlink:href="#rim" fill="#404040">
                                <set attributeName="fill" to="#808080" begin="zoomminus.mouseover" end="zoomminus.mouseout"/>
                        </use>
                        <path d="M-4,0h8" fill="none" stroke="white" stroke-width="1.5" pointer-events="none"/>
                </g>
                <g id="dirArrow">
                        <path fill="none" stroke="white" stroke-width="1.5" d="M0,-3.0v7 M-2.5,-0.5L0,-3.0L2.5,-0.5"/>
                </g>
               <g id="resetDef">
                       <use xlink:href="#rim2" fill="#404040">
                               <set attributeName="fill" to="#808080" begin="reset.mouseover" end="reset.mouseout"/>
                       </use>
               </g>
        </defs>

<script type="text/javascript">
var viewWidth = 1099;
var viewHeight = 249;
var sectionId = 'dynsection-2';
</script>
<script xlink:href="../../svgpan.js"/>
<svg id="graph" class="graph">
<g id="viewport">
<title>baroclinic_zone_initialization::bcz_params</title>
<polygon fill="white" stroke="none" points="-4,4 -4,-244.734 1095,-244.734 1095,4 -4,4"/>
<!-- Node17 -->
<g id="node1" class="node"><title>Node17</title>
<polygon fill="#bfbfbf" stroke="black" points="0,-103.734 0,-133.734 116,-133.734 116,-103.734 0,-103.734"/>
<text text-anchor="start" x="8" y="-121.734" font-family="Helvetica,sans-Serif" font-size="10.00">baroclinic_zone_initialization</text>
<text text-anchor="middle" x="58" y="-110.734" font-family="Helvetica,sans-Serif" font-size="10.00">::bcz_params</text>
</g>
<!-- Node18 -->
<g id="node2" class="node"><title>Node18</title>
<g id="a_node2"><a xlink:href="../../d9/def/namespacemom__file__parser.html#a0d01b9a66f5ac12b657c00f1295351bb" target="_top" xlink:title="mom_file_parser::closeparameterblock">
<polygon fill="white" stroke="black" points="152,-172.234 152,-191.234 307,-191.234 307,-172.234 152,-172.234"/>
<text text-anchor="middle" x="229.5" y="-179.234" font-family="Helvetica,sans-Serif" font-size="10.00">mom_file_parser::closeparameterblock</text>
</a>
</g>
</g>
<!-- Node17&#45;&gt;Node18 -->
<g id="edge1" class="edge"><title>Node17&#45;&gt;Node18</title>
<path fill="none" stroke="midnightblue" d="M99.5995,-133.825C128.123,-144.426 165.903,-158.468 193.181,-168.607"/>
<polygon fill="midnightblue" stroke="midnightblue" points="192.126,-171.949 202.718,-172.152 194.564,-165.387 192.126,-171.949"/>
</g>
<!-- Node26 -->
<g id="node10" class="node"><title>Node26</title>
<g id="a_node10"><a xlink:href="../../d9/def/namespacemom__file__parser.html#a363628fcd8540de780ebeacf24012229" target="_top" xlink:title="mom_file_parser::openparameterblock">
<polygon fill="white" stroke="black" points="152,-48.2345 152,-67.2345 307,-67.2345 307,-48.2345 152,-48.2345"/>
<text text-anchor="middle" x="229.5" y="-55.2345" font-family="Helvetica,sans-Serif" font-size="10.00">mom_file_parser::openparameterblock</text>
</a>
</g>
</g>
<!-- Node17&#45;&gt;Node26 -->
<g id="edge13" class="edge"><title>Node17&#45;&gt;Node26</title>
<path fill="none" stroke="midnightblue" d="M100.899,-103.656C128.89,-93.5823 165.344,-80.463 192.118,-70.8278"/>
<polygon fill="midnightblue" stroke="midnightblue" points="193.643,-73.9987 201.867,-67.3192 191.273,-67.4122 193.643,-73.9987"/>
</g>
<!-- Node19 -->
<g id="node3" class="node"><title>Node19</title>
<g id="a_node3"><a xlink:href="../../d0/de6/namespacemom__error__handler.html#ad5f00a53059c72fe2332d1436c80ca71" target="_top" xlink:title="mom_error_handler::\lis_root_pe">
<polygon fill="white" stroke="black" points="998,-127.734 998,-157.734 1091,-157.734 1091,-127.734 998,-127.734"/>
<text text-anchor="start" x="1006" y="-145.734" font-family="Helvetica,sans-Serif" font-size="10.00">mom_error_handler::</text>
<text text-anchor="middle" x="1044.5" y="-134.734" font-family="Helvetica,sans-Serif" font-size="10.00">is_root_pe</text>
</a>
</g>
</g>
<!-- Node18&#45;&gt;Node19 -->
<g id="edge2" class="edge"><title>Node18&#45;&gt;Node19</title>
<path fill="none" stroke="midnightblue" d="M265.298,-191.345C328.994,-208.063 468.839,-240.734 589,-240.734 589,-240.734 589,-240.734 770,-240.734 857.076,-240.734 882.263,-236.723 962,-201.734 982.919,-192.555 1003.73,-177.357 1019.09,-164.685"/>
<polygon fill="midnightblue" stroke="midnightblue" points="1021.66,-167.094 1027.03,-157.959 1017.14,-161.754 1021.66,-167.094"/>
</g>
<!-- Node20 -->
<g id="node4" class="node"><title>Node20</title>
<g id="a_node4"><a xlink:href="../../d5/d38/namespacemom__document.html#a058916aee316efa7a6484b3bb1d3f3df" target="_top" xlink:title="mom_document::doc_closeblock">
<polygon fill="white" stroke="black" points="343,-131.234 343,-150.234 475,-150.234 475,-131.234 343,-131.234"/>
<text text-anchor="middle" x="409" y="-138.234" font-family="Helvetica,sans-Serif" font-size="10.00">mom_document::doc_closeblock</text>
</a>
</g>
</g>
<!-- Node18&#45;&gt;Node20 -->
<g id="edge3" class="edge"><title>Node18&#45;&gt;Node20</title>
<path fill="none" stroke="midnightblue" d="M271.668,-172.225C297.005,-166.373 329.686,-158.824 356.7,-152.584"/>
<polygon fill="midnightblue" stroke="midnightblue" points="357.792,-155.924 366.748,-150.263 356.217,-149.104 357.792,-155.924"/>
</g>
<!-- Node25 -->
<g id="node9" class="node"><title>Node25</title>
<g id="a_node9"><a xlink:href="../../d9/def/namespacemom__file__parser.html#a73b11b969d303b1fc0ba5235c812fd05" target="_top" xlink:title="mom_file_parser::popblocklevel">
<polygon fill="white" stroke="black" points="705,-193.234 705,-212.234 833,-212.234 833,-193.234 705,-193.234"/>
<text text-anchor="middle" x="769" y="-200.234" font-family="Helvetica,sans-Serif" font-size="10.00">mom_file_parser::popblocklevel</text>
</a>
</g>
</g>
<!-- Node18&#45;&gt;Node25 -->
<g id="edge11" class="edge"><title>Node18&#45;&gt;Node25</title>
<path fill="none" stroke="midnightblue" d="M307.225,-184.732C410.562,-188.769 593.187,-195.905 694.724,-199.872"/>
<polygon fill="midnightblue" stroke="midnightblue" points="694.763,-203.376 704.892,-200.269 695.036,-196.381 694.763,-203.376"/>
</g>
<!-- Node20&#45;&gt;Node19 -->
<g id="edge4" class="edge"><title>Node20&#45;&gt;Node19</title>
<path fill="none" stroke="midnightblue" d="M475.186,-143.695C487.098,-144.128 499.42,-144.505 511,-144.734 711.405,-148.701 761.571,-147.193 962,-144.734 970.341,-144.632 979.161,-144.471 987.798,-144.283"/>
<polygon fill="midnightblue" stroke="midnightblue" points="987.896,-147.782 997.813,-144.053 987.735,-140.784 987.896,-147.782"/>
</g>
<!-- Node21 -->
<g id="node5" class="node"><title>Node21</title>
<g id="a_node5"><a xlink:href="../../d5/d38/namespacemom__document.html#aab976b6c6c9c01833438d217fca228a4" target="_top" xlink:title="mom_document::open\l_doc_file">
<polygon fill="white" stroke="black" points="541.5,-105.734 541.5,-135.734 638.5,-135.734 638.5,-105.734 541.5,-105.734"/>
<text text-anchor="start" x="549.5" y="-123.734" font-family="Helvetica,sans-Serif" font-size="10.00">mom_document::open</text>
<text text-anchor="middle" x="590" y="-112.734" font-family="Helvetica,sans-Serif" font-size="10.00">_doc_file</text>
</a>
</g>
</g>
<!-- Node20&#45;&gt;Node21 -->
<g id="edge5" class="edge"><title>Node20&#45;&gt;Node21</title>
<path fill="none" stroke="midnightblue" d="M475.129,-133.457C493.515,-131.403 513.386,-129.183 531.302,-127.181"/>
<polygon fill="midnightblue" stroke="midnightblue" points="531.766,-130.651 541.315,-126.062 530.988,-123.695 531.766,-130.651"/>
</g>
<!-- Node24 -->
<g id="node8" class="node"><title>Node24</title>
<g id="a_node8"><a xlink:href="../../d5/d38/namespacemom__document.html#a22d84550b1affd1037328c5117496a65" target="_top" xlink:title="mom_document::writemessageanddesc">
<polygon fill="white" stroke="black" points="511,-67.2345 511,-86.2345 669,-86.2345 669,-67.2345 511,-67.2345"/>
<text text-anchor="middle" x="590" y="-74.2345" font-family="Helvetica,sans-Serif" font-size="10.00">mom_document::writemessageanddesc</text>
</a>
</g>
</g>
<!-- Node20&#45;&gt;Node24 -->
<g id="edge10" class="edge"><title>Node20&#45;&gt;Node24</title>
<path fill="none" stroke="midnightblue" d="M428.948,-131.053C448.942,-121.134 481.57,-105.783 511,-95.7345 518.327,-93.2328 526.146,-90.9222 533.899,-88.8376"/>
<polygon fill="midnightblue" stroke="midnightblue" points="534.836,-92.2105 543.643,-86.3205 533.085,-85.433 534.836,-92.2105"/>
</g>
<!-- Node22 -->
<g id="node6" class="node"><title>Node22</title>
<g id="a_node6"><a xlink:href="../../d5/d38/namespacemom__document.html#a5f2661445a72a7d0f774677e91366db5" target="_top" xlink:title="mom_document::find\l_unused_unit_number">
<polygon fill="white" stroke="black" points="720.5,-67.7345 720.5,-97.7345 817.5,-97.7345 817.5,-67.7345 720.5,-67.7345"/>
<text text-anchor="start" x="728.5" y="-85.7345" font-family="Helvetica,sans-Serif" font-size="10.00">mom_document::find</text>
<text text-anchor="middle" x="769" y="-74.7345" font-family="Helvetica,sans-Serif" font-size="10.00">_unused_unit_number</text>
</a>
</g>
</g>
<!-- Node21&#45;&gt;Node22 -->
<g id="edge6" class="edge"><title>Node21&#45;&gt;Node22</title>
<path fill="none" stroke="midnightblue" d="M638.899,-110.451C660.927,-105.722 687.24,-100.073 710.347,-95.112"/>
<polygon fill="midnightblue" stroke="midnightblue" points="711.327,-98.4813 720.37,-92.9601 709.858,-91.6372 711.327,-98.4813"/>
</g>
<!-- Node23 -->
<g id="node7" class="node"><title>Node23</title>
<g id="a_node7"><a xlink:href="../../d0/de6/namespacemom__error__handler.html#a460cfb79a06c29fc249952c2a3710d67" target="_top" xlink:title="mom_error_handler::\lmom_error">
<polygon fill="white" stroke="black" points="869,-105.734 869,-135.734 962,-135.734 962,-105.734 869,-105.734"/>
<text text-anchor="start" x="877" y="-123.734" font-family="Helvetica,sans-Serif" font-size="10.00">mom_error_handler::</text>
<text text-anchor="middle" x="915.5" y="-112.734" font-family="Helvetica,sans-Serif" font-size="10.00">mom_error</text>
</a>
</g>
</g>
<!-- Node21&#45;&gt;Node23 -->
<g id="edge9" class="edge"><title>Node21&#45;&gt;Node23</title>
<path fill="none" stroke="midnightblue" d="M638.734,-120.734C697.42,-120.734 796.85,-120.734 858.919,-120.734"/>
<polygon fill="midnightblue" stroke="midnightblue" points="858.925,-124.235 868.925,-120.734 858.925,-117.235 858.925,-124.235"/>
</g>
<!-- Node22&#45;&gt;Node23 -->
<g id="edge7" class="edge"><title>Node22&#45;&gt;Node23</title>
<path fill="none" stroke="midnightblue" d="M817.715,-95.2824C830.945,-98.7616 845.421,-102.568 859.052,-106.153"/>
<polygon fill="midnightblue" stroke="midnightblue" points="858.237,-109.557 868.798,-108.716 860.017,-102.788 858.237,-109.557"/>
</g>
<!-- Node23&#45;&gt;Node19 -->
<g id="edge8" class="edge"><title>Node23&#45;&gt;Node19</title>
<path fill="none" stroke="midnightblue" d="M962.35,-128.677C970.623,-130.11 979.33,-131.618 987.846,-133.094"/>
<polygon fill="midnightblue" stroke="midnightblue" points="987.267,-136.545 997.717,-134.804 988.462,-129.648 987.267,-136.545"/>
</g>
<!-- Node25&#45;&gt;Node19 -->
<g id="edge12" class="edge"><title>Node25&#45;&gt;Node19</title>
<path fill="none" stroke="midnightblue" d="M833.164,-199.486C871.059,-196.396 919.913,-190.389 962,-178.734 976.635,-174.682 992.03,-168.443 1005.45,-162.291"/>
<polygon fill="midnightblue" stroke="midnightblue" points="1007.29,-165.295 1014.84,-157.86 1004.3,-158.965 1007.29,-165.295"/>
</g>
<!-- Node26&#45;&gt;Node19 -->
<g id="edge19" class="edge"><title>Node26&#45;&gt;Node19</title>
<path fill="none" stroke="midnightblue" d="M253.306,-48.1566C275.712,-39.1984 311.086,-26.2507 343,-19.7345 450.442,2.20336 479.341,-0.734453 589,-0.734453 589,-0.734453 589,-0.734453 770,-0.734453 859.403,-0.734453 885.58,-14.3351 962,-60.7345 987.442,-76.1817 1010.76,-101.247 1025.87,-119.605"/>
<polygon fill="midnightblue" stroke="midnightblue" points="1023.23,-121.902 1032.21,-127.509 1028.68,-117.52 1023.23,-121.902"/>
</g>
<!-- Node27 -->
<g id="node11" class="node"><title>Node27</title>
<g id="a_node11"><a xlink:href="../../d9/def/namespacemom__file__parser.html#a58777b0faf747d59a793b4e238919dc6" target="_top" xlink:title="mom_file_parser::pushblocklevel">
<polygon fill="white" stroke="black" points="343,-29.2345 343,-48.2345 475,-48.2345 475,-29.2345 343,-29.2345"/>
<text text-anchor="middle" x="409" y="-36.2345" font-family="Helvetica,sans-Serif" font-size="10.00">mom_file_parser::pushblocklevel</text>
</a>
</g>
</g>
<!-- Node26&#45;&gt;Node27 -->
<g id="edge14" class="edge"><title>Node26&#45;&gt;Node27</title>
<path fill="none" stroke="midnightblue" d="M307.064,-49.5389C315.536,-48.6321 324.158,-47.7091 332.615,-46.8038"/>
<polygon fill="midnightblue" stroke="midnightblue" points="333.257,-50.2552 342.827,-45.7107 332.512,-43.295 333.257,-50.2552"/>
</g>
<!-- Node28 -->
<g id="node12" class="node"><title>Node28</title>
<g id="a_node12"><a xlink:href="../../d5/d38/namespacemom__document.html#ada55c6a65638e04d2b550f419aafa929" target="_top" xlink:title="mom_document::doc_openblock">
<polygon fill="white" stroke="black" points="343,-67.2345 343,-86.2345 475,-86.2345 475,-67.2345 343,-67.2345"/>
<text text-anchor="middle" x="409" y="-74.2345" font-family="Helvetica,sans-Serif" font-size="10.00">mom_document::doc_openblock</text>
</a>
</g>
</g>
<!-- Node26&#45;&gt;Node28 -->
<g id="edge15" class="edge"><title>Node26&#45;&gt;Node28</title>
<path fill="none" stroke="midnightblue" d="M307.064,-65.93C315.536,-66.8369 324.158,-67.7598 332.615,-68.6651"/>
<polygon fill="midnightblue" stroke="midnightblue" points="332.512,-72.1739 342.827,-69.7582 333.257,-65.2137 332.512,-72.1739"/>
</g>
<!-- Node28&#45;&gt;Node19 -->
<g id="edge16" class="edge"><title>Node28&#45;&gt;Node19</title>
<path fill="none" stroke="midnightblue" d="M451.033,-67.2235C469.284,-63.4583 491.103,-59.5897 511,-57.7345 653.493,-44.4482 691.354,-37.3059 833,-57.7345 892.157,-66.2663 907.061,-72.1961 962,-95.7345 979.158,-103.086 997.238,-113.24 1012,-122.229"/>
<polygon fill="midnightblue" stroke="midnightblue" points="1010.38,-125.343 1020.72,-127.641 1014.07,-119.395 1010.38,-125.343"/>
</g>
<!-- Node28&#45;&gt;Node21 -->
<g id="edge17" class="edge"><title>Node28&#45;&gt;Node21</title>
<path fill="none" stroke="midnightblue" d="M448.84,-86.2818C473.017,-92.2246 504.546,-99.9749 531.577,-106.619"/>
<polygon fill="midnightblue" stroke="midnightblue" points="530.764,-110.024 541.31,-109.012 532.435,-103.226 530.764,-110.024"/>
</g>
<!-- Node28&#45;&gt;Node24 -->
<g id="edge18" class="edge"><title>Node28&#45;&gt;Node24</title>
<path fill="none" stroke="midnightblue" d="M475.129,-76.7345C483.464,-76.7345 492.103,-76.7345 500.728,-76.7345"/>
<polygon fill="midnightblue" stroke="midnightblue" points="500.826,-80.2346 510.826,-76.7345 500.826,-73.2346 500.826,-80.2346"/>
</g>
</g>
</svg>
        <g id="navigator" transform="translate(0 0)" fill="#404254">
                <rect fill="#f2f5e9" fill-opacity="0.5" stroke="#606060" stroke-width=".5" x="0" y="0" width="60" height="60"/>
                <use id="zoomplus" xlink:href="#zoomPlus" x="17" y="9" onmousedown="handleZoom(evt,'in')"/>
                <use id="zoomminus" xlink:href="#zoomMin" x="42" y="9" onmousedown="handleZoom(evt,'out')"/>
                <use id="reset" xlink:href="#resetDef" x="30" y="36" onmousedown="handleReset()"/>
                <g id="arrowUp" xlink:href="#dirArrow" transform="translate(30 24)" onmousedown="handlePan(0,-1)">
                  <use xlink:href="#rim" fill="#404040">
                        <set attributeName="fill" to="#808080" begin="arrowUp.mouseover" end="arrowUp.mouseout"/>
                  </use>
                  <path fill="none" stroke="white" stroke-width="1.5" d="M0,-3.0v7 M-2.5,-0.5L0,-3.0L2.5,-0.5"/>
                </g>
                <g id="arrowRight" xlink:href="#dirArrow" transform="rotate(90) translate(36 -43)" onmousedown="handlePan(1,0)">
                  <use xlink:href="#rim" fill="#404040">
                        <set attributeName="fill" to="#808080" begin="arrowRight.mouseover" end="arrowRight.mouseout"/>
                  </use>
                  <path fill="none" stroke="white" stroke-width="1.5" d="M0,-3.0v7 M-2.5,-0.5L0,-3.0L2.5,-0.5"/>
                </g>
                <g id="arrowDown" xlink:href="#dirArrow" transform="rotate(180) translate(-30 -48)" onmousedown="handlePan(0,1)">
                  <use xlink:href="#rim" fill="#404040">
                        <set attributeName="fill" to="#808080" begin="arrowDown.mouseover" end="arrowDown.mouseout"/>
                  </use>
                  <path fill="none" stroke="white" stroke-width="1.5" d="M0,-3.0v7 M-2.5,-0.5L0,-3.0L2.5,-0.5"/>
                </g>
                <g id="arrowLeft" xlink:href="#dirArrow" transform="rotate(270) translate(-36 17)" onmousedown="handlePan(-1,0)">
                  <use xlink:href="#rim" fill="#404040">
                        <set attributeName="fill" to="#808080" begin="arrowLeft.mouseover" end="arrowLeft.mouseout"/>
                  </use>
                  <path fill="none" stroke="white" stroke-width="1.5" d="M0,-3.0v7 M-2.5,-0.5L0,-3.0L2.5,-0.5"/>
                </g>
        </g>
        <svg viewBox="0 0 15 15" width="100%" height="30px" preserveAspectRatio="xMaxYMin meet">
         <g id="arrow_out" transform="scale(0.3 0.3)">
          <a xlink:href="namespacebaroclinic__zone__initialization_a72863008aadad2118278f5e0978fd99b_cgraph_org.svg" target="_base">
           <rect id="button" ry="5" rx="5" y="6" x="6" height="38" width="38"
                fill="#f2f5e9" fill-opacity="0.5" stroke="#606060" stroke-width="1.0"/>
           <path id="arrow"
             d="M 11.500037,31.436501 C 11.940474,20.09759 22.043105,11.32322 32.158766,21.979434 L 37.068811,17.246167 C 37.068811,17.246167 37.088388,32 37.088388,32 L 22.160133,31.978069 C 22.160133,31.978069 26.997745,27.140456 26.997745,27.140456 C 18.528582,18.264221 13.291696,25.230495 11.500037,31.436501 z"
             style="fill:#404040;"/>
          </a>
         </g>
        </svg>
</svg>
