<?xml version="1.0" encoding="UTF-8" standalone="no"?>
<!DOCTYPE svg PUBLIC "-//W3C//DTD SVG 1.1//EN"
 "http://www.w3.org/Graphics/SVG/1.1/DTD/svg11.dtd">
<!-- Generated by graphviz version 2.38.0 (20140413.2041)
 -->
<!-- Title: mom_internal_tides::propagate_y Pages: 1 -->
<svg width="352pt" height="186pt"
 viewBox="0.00 0.00 352.00 186.00" xmlns="http://www.w3.org/2000/svg" xmlns:xlink="http://www.w3.org/1999/xlink">
<g id="graph0" class="graph" transform="scale(1 1) rotate(0) translate(4 182)">
<title>mom_internal_tides::propagate_y</title>
<polygon fill="white" stroke="none" points="-4,4 -4,-182 348,-182 348,4 -4,4"/>
<!-- Node96 -->
<g id="node1" class="node"><title>Node96</title>
<polygon fill="#bfbfbf" stroke="black" points="0,-73.5 0,-103.5 86,-103.5 86,-73.5 0,-73.5"/>
<text text-anchor="start" x="8" y="-91.5" font-family="Helvetica,sans-Serif" font-size="10.00">mom_internal_tides</text>
<text text-anchor="middle" x="43" y="-80.5" font-family="Helvetica,sans-Serif" font-size="10.00">::propagate_y</text>
</g>
<!-- Node97 -->
<g id="node2" class="node"><title>Node97</title>
<g id="a_node2"><a xlink:href="../../d6/d34/namespacemom__internal__tides.html#a08d375b914ce03bed1b317c9b7371f77" target="_top" xlink:title="mom_internal_tides\l::merid_flux_en">
<polygon fill="white" stroke="black" points="129,-147.5 129,-177.5 215,-177.5 215,-147.5 129,-147.5"/>
<text text-anchor="start" x="137" y="-165.5" font-family="Helvetica,sans-Serif" font-size="10.00">mom_internal_tides</text>
<text text-anchor="middle" x="172" y="-154.5" font-family="Helvetica,sans-Serif" font-size="10.00">::merid_flux_en</text>
</a>
</g>
</g>
<!-- Node96&#45;&gt;Node97 -->
<g id="edge1" class="edge"><title>Node96&#45;&gt;Node97</title>
<path fill="none" stroke="midnightblue" d="M66.1101,-103.635C81.5025,-113.932 102.657,-127.611 122,-138.5 124.515,-139.916 127.125,-141.335 129.773,-142.736"/>
<polygon fill="midnightblue" stroke="midnightblue" points="128.34,-145.934 138.833,-147.4 131.544,-139.711 128.34,-145.934"/>
</g>
<!-- Node98 -->
<g id="node3" class="node"><title>Node98</title>
<g id="a_node3"><a xlink:href="../../d6/d34/namespacemom__internal__tides.html#a6c3dc6d74dfd6e5b13d5f710899be278" target="_top" xlink:title="mom_internal_tides\l::ppm_reconstruction_y">
<polygon fill="white" stroke="black" points="122,-98.5 122,-128.5 222,-128.5 222,-98.5 122,-98.5"/>
<text text-anchor="start" x="130" y="-116.5" font-family="Helvetica,sans-Serif" font-size="10.00">mom_internal_tides</text>
<text text-anchor="middle" x="172" y="-105.5" font-family="Helvetica,sans-Serif" font-size="10.00">::ppm_reconstruction_y</text>
</a>
</g>
</g>
<!-- Node96&#45;&gt;Node98 -->
<g id="edge2" class="edge"><title>Node96&#45;&gt;Node98</title>
<path fill="none" stroke="midnightblue" d="M86.2892,-96.8246C94.4835,-98.4377 103.21,-100.156 111.83,-101.852"/>
<polygon fill="midnightblue" stroke="midnightblue" points="111.374,-105.33 121.862,-103.827 112.726,-98.4615 111.374,-105.33"/>
</g>
<!-- Node100 -->
<g id="node5" class="node"><title>Node100</title>
<g id="a_node5"><a xlink:href="../../d6/d34/namespacemom__internal__tides.html#a6c622bfe3863b8fcea98c78104477491" target="_top" xlink:title="mom_internal_tides\l::reflect">
<polygon fill="white" stroke="black" points="129,-49.5 129,-79.5 215,-79.5 215,-49.5 129,-49.5"/>
<text text-anchor="start" x="137" y="-67.5" font-family="Helvetica,sans-Serif" font-size="10.00">mom_internal_tides</text>
<text text-anchor="middle" x="172" y="-56.5" font-family="Helvetica,sans-Serif" font-size="10.00">::reflect</text>
</a>
</g>
</g>
<!-- Node96&#45;&gt;Node100 -->
<g id="edge4" class="edge"><title>Node96&#45;&gt;Node100</title>
<path fill="none" stroke="midnightblue" d="M86.2892,-80.5083C96.7857,-78.5247 108.156,-76.376 119.056,-74.3162"/>
<polygon fill="midnightblue" stroke="midnightblue" points="119.719,-77.7529 128.896,-72.4568 118.419,-70.8746 119.719,-77.7529"/>
</g>
<!-- Node101 -->
<g id="node6" class="node"><title>Node101</title>
<g id="a_node6"><a xlink:href="../../d6/d34/namespacemom__internal__tides.html#a0a20d26531e245a26385d1c056b6a5b6" target="_top" xlink:title="mom_internal_tides\l::teleport">
<polygon fill="white" stroke="black" points="129,-0.5 129,-30.5 215,-30.5 215,-0.5 129,-0.5"/>
<text text-anchor="start" x="137" y="-18.5" font-family="Helvetica,sans-Serif" font-size="10.00">mom_internal_tides</text>
<text text-anchor="middle" x="172" y="-7.5" font-family="Helvetica,sans-Serif" font-size="10.00">::teleport</text>
</a>
</g>
</g>
<!-- Node96&#45;&gt;Node101 -->
<g id="edge5" class="edge"><title>Node96&#45;&gt;Node101</title>
<path fill="none" stroke="midnightblue" d="M67.6025,-73.2948C82.9226,-63.5955 103.423,-50.9332 122,-40.5 125.048,-38.788 128.227,-37.0543 131.436,-35.3403"/>
<polygon fill="midnightblue" stroke="midnightblue" points="133.25,-38.3412 140.479,-30.5958 129.998,-32.1426 133.25,-38.3412"/>
</g>
<!-- Node99 -->
<g id="node4" class="node"><title>Node99</title>
<g id="a_node4"><a xlink:href="../../d6/d34/namespacemom__internal__tides.html#a16dd5b071e0fc87eb04c32f602c08aa5" target="_top" xlink:title="mom_internal_tides\l::ppm_limit_pos">
<polygon fill="white" stroke="black" points="258,-98.5 258,-128.5 344,-128.5 344,-98.5 258,-98.5"/>
<text text-anchor="start" x="266" y="-116.5" font-family="Helvetica,sans-Serif" font-size="10.00">mom_internal_tides</text>
<text text-anchor="middle" x="301" y="-105.5" font-family="Helvetica,sans-Serif" font-size="10.00">::ppm_limit_pos</text>
</a>
</g>
</g>
<!-- Node98&#45;&gt;Node99 -->
<g id="edge3" class="edge"><title>Node98&#45;&gt;Node99</title>
<path fill="none" stroke="midnightblue" d="M222.102,-113.5C230.438,-113.5 239.125,-113.5 247.544,-113.5"/>
<polygon fill="midnightblue" stroke="midnightblue" points="247.639,-117 257.639,-113.5 247.639,-110 247.639,-117"/>
</g>
</g>
</svg>
