<?xml version="1.0" encoding="UTF-8" standalone="no"?>
<!DOCTYPE svg PUBLIC "-//W3C//DTD SVG 1.1//EN"
 "http://www.w3.org/Graphics/SVG/1.1/DTD/svg11.dtd">
<!-- Generated by graphviz version 2.38.0 (20140413.2041)
 -->
<!-- Title: mom_opacity::opacity_cs Pages: 1 -->
<svg width="320pt" height="344pt"
 viewBox="0.00 0.00 320.00 344.00" xmlns="http://www.w3.org/2000/svg" xmlns:xlink="http://www.w3.org/1999/xlink">
<g id="graph0" class="graph" transform="scale(1 1) rotate(0) translate(4 340)">
<title>mom_opacity::opacity_cs</title>
<polygon fill="white" stroke="none" points="-4,4 -4,-340 316,-340 316,4 -4,4"/>
<!-- Node1 -->
<g id="node1" class="node"><title>Node1</title>
<polygon fill="#bfbfbf" stroke="black" points="207,-190.5 207,-209.5 312,-209.5 312,-190.5 207,-190.5"/>
<text text-anchor="middle" x="259.5" y="-197.5" font-family="Helvetica,sans-Serif" font-size="10.00">mom_opacity::opacity_cs</text>
</g>
<!-- Node2 -->
<g id="node2" class="node"><title>Node2</title>
<polygon fill="white" stroke="#bfbfbf" points="32.5,-316.5 32.5,-335.5 70.5,-335.5 70.5,-316.5 32.5,-316.5"/>
<text text-anchor="middle" x="51.5" y="-323.5" font-family="Helvetica,sans-Serif" font-size="10.00">logical</text>
</g>
<!-- Node2&#45;&gt;Node1 -->
<g id="edge1" class="edge"><title>Node2&#45;&gt;Node1</title>
<path fill="none" stroke="#9a32cd" stroke-dasharray="5,2" d="M80.5323,-321.08C109.569,-314.994 155.324,-302.562 189,-280 217.888,-260.646 242.003,-226.265 252.647,-209.594"/>
<polygon fill="#9a32cd" stroke="#9a32cd" points="79.7721,-317.662 70.6445,-323.041 81.1344,-324.528 79.7721,-317.662"/>
<text text-anchor="middle" x="155" y="-324" font-family="Helvetica,sans-Serif" font-size="10.00"> chl_from_file</text>
<text text-anchor="middle" x="155" y="-313" font-family="Helvetica,sans-Serif" font-size="10.00">var_pen_sw</text>
</g>
<!-- Node3 -->
<g id="node3" class="node"><title>Node3</title>
<polygon fill="white" stroke="#bfbfbf" points="0,-267 0,-297 103,-297 103,-267 0,-267"/>
<text text-anchor="start" x="8" y="-285" font-family="Helvetica,sans-Serif" font-size="10.00">type(tracer_flow_control</text>
<text text-anchor="middle" x="51.5" y="-274" font-family="Helvetica,sans-Serif" font-size="10.00">_cs), pointer</text>
</g>
<!-- Node3&#45;&gt;Node1 -->
<g id="edge2" class="edge"><title>Node3&#45;&gt;Node1</title>
<path fill="none" stroke="#9a32cd" stroke-dasharray="5,2" d="M112.958,-267.893C137.109,-261.335 164.861,-252.616 189,-242 209.519,-232.976 231.36,-218.96 244.965,-209.634"/>
<polygon fill="#9a32cd" stroke="#9a32cd" points="111.969,-264.535 103.2,-270.48 113.763,-271.301 111.969,-264.535"/>
<text text-anchor="middle" x="155" y="-268" font-family="Helvetica,sans-Serif" font-size="10.00"> tracer_flow_csp</text>
</g>
<!-- Node4 -->
<g id="node4" class="node"><title>Node4</title>
<polygon fill="white" stroke="#bfbfbf" points="26,-228.5 26,-247.5 77,-247.5 77,-228.5 26,-228.5"/>
<text text-anchor="middle" x="51.5" y="-235.5" font-family="Helvetica,sans-Serif" font-size="10.00">time_type</text>
</g>
<!-- Node4&#45;&gt;Node1 -->
<g id="edge3" class="edge"><title>Node4&#45;&gt;Node1</title>
<path fill="none" stroke="#9a32cd" stroke-dasharray="5,2" d="M87.1879,-232.603C114.824,-228.196 154.47,-221.632 189,-215 197.728,-213.324 207.044,-211.404 215.927,-209.51"/>
<polygon fill="#9a32cd" stroke="#9a32cd" points="86.549,-229.161 77.2199,-234.183 87.6444,-236.074 86.549,-229.161"/>
<text text-anchor="middle" x="155" y="-230" font-family="Helvetica,sans-Serif" font-size="10.00"> time</text>
</g>
<!-- Node5 -->
<g id="node5" class="node"><title>Node5</title>
<polygon fill="white" stroke="#bfbfbf" points="28,-190.5 28,-209.5 75,-209.5 75,-190.5 28,-190.5"/>
<text text-anchor="middle" x="51.5" y="-197.5" font-family="Helvetica,sans-Serif" font-size="10.00">diag_ctrl</text>
</g>
<!-- Node5&#45;&gt;Node1 -->
<g id="edge4" class="edge"><title>Node5&#45;&gt;Node1</title>
<path fill="none" stroke="#9a32cd" stroke-dasharray="5,2" d="M85.7079,-200C118.437,-200 168.918,-200 206.881,-200"/>
<polygon fill="#9a32cd" stroke="#9a32cd" points="85.3327,-196.5 75.3327,-200 85.3327,-203.5 85.3327,-196.5"/>
<text text-anchor="middle" x="155" y="-203" font-family="Helvetica,sans-Serif" font-size="10.00"> diag</text>
</g>
<!-- Node6 -->
<g id="node6" class="node"><title>Node6</title>
<polygon fill="white" stroke="#bfbfbf" points="9,-152.5 9,-171.5 94,-171.5 94,-152.5 9,-152.5"/>
<text text-anchor="middle" x="51.5" y="-159.5" font-family="Helvetica,sans-Serif" font-size="10.00">character(len=128)</text>
</g>
<!-- Node6&#45;&gt;Node1 -->
<g id="edge5" class="edge"><title>Node6&#45;&gt;Node1</title>
<path fill="none" stroke="#9a32cd" stroke-dasharray="5,2" d="M104.316,-170.16C129.862,-174.328 161.101,-179.642 189,-185 197.728,-186.676 207.044,-188.596 215.927,-190.49"/>
<polygon fill="#9a32cd" stroke="#9a32cd" points="104.536,-166.65 94.1051,-168.505 103.416,-173.56 104.536,-166.65"/>
<text text-anchor="middle" x="155" y="-188" font-family="Helvetica,sans-Serif" font-size="10.00"> chl_file</text>
</g>
<!-- Node7 -->
<g id="node7" class="node"><title>Node7</title>
<polygon fill="white" stroke="#bfbfbf" points="36.5,-89.5 36.5,-108.5 66.5,-108.5 66.5,-89.5 36.5,-89.5"/>
<text text-anchor="middle" x="51.5" y="-96.5" font-family="Helvetica,sans-Serif" font-size="10.00">real</text>
</g>
<!-- Node7&#45;&gt;Node1 -->
<g id="edge6" class="edge"><title>Node7&#45;&gt;Node1</title>
<path fill="none" stroke="#9a32cd" stroke-dasharray="5,2" d="M76.9011,-99.389C105.459,-100.808 153.372,-106.257 189,-126 217.828,-141.975 241.624,-174.097 252.358,-190.252"/>
<polygon fill="#9a32cd" stroke="#9a32cd" points="76.7471,-95.8811 66.6257,-99.0127 76.4909,-102.876 76.7471,-95.8811"/>
<text text-anchor="middle" x="155" y="-162" font-family="Helvetica,sans-Serif" font-size="10.00"> pen_sw_scale</text>
<text text-anchor="middle" x="155" y="-151" font-family="Helvetica,sans-Serif" font-size="10.00">blue_frac</text>
<text text-anchor="middle" x="155" y="-140" font-family="Helvetica,sans-Serif" font-size="10.00">pen_sw_frac</text>
<text text-anchor="middle" x="155" y="-129" font-family="Helvetica,sans-Serif" font-size="10.00">opacity_land_value</text>
</g>
<!-- Node8 -->
<g id="node8" class="node"><title>Node8</title>
<polygon fill="white" stroke="#bfbfbf" points="31,-0.5 31,-19.5 72,-19.5 72,-0.5 31,-0.5"/>
<text text-anchor="middle" x="51.5" y="-7.5" font-family="Helvetica,sans-Serif" font-size="10.00">integer</text>
</g>
<!-- Node8&#45;&gt;Node1 -->
<g id="edge7" class="edge"><title>Node8&#45;&gt;Node1</title>
<path fill="none" stroke="#9a32cd" stroke-dasharray="5,2" d="M82.3332,-7.74133C112.449,-7.07631 158.719,-10.681 189,-35 240.136,-76.0683 254.191,-161.529 257.553,-190.304"/>
<polygon fill="#9a32cd" stroke="#9a32cd" points="81.8821,-4.25634 72.0283,-8.14906 82.1589,-11.2509 81.8821,-4.25634"/>
<text text-anchor="middle" x="155" y="-93" font-family="Helvetica,sans-Serif" font-size="10.00"> id_opacity</text>
<text text-anchor="middle" x="155" y="-82" font-family="Helvetica,sans-Serif" font-size="10.00">sbc_chl</text>
<text text-anchor="middle" x="155" y="-71" font-family="Helvetica,sans-Serif" font-size="10.00">id_chl</text>
<text text-anchor="middle" x="155" y="-60" font-family="Helvetica,sans-Serif" font-size="10.00">id_sw_vis_pen</text>
<text text-anchor="middle" x="155" y="-49" font-family="Helvetica,sans-Serif" font-size="10.00">opacity_scheme</text>
<text text-anchor="middle" x="155" y="-38" font-family="Helvetica,sans-Serif" font-size="10.00">id_sw_pen</text>
</g>
</g>
</svg>
