<?xml version="1.0" encoding="UTF-8" standalone="no"?>
<!DOCTYPE svg PUBLIC "-//W3C//DTD SVG 1.1//EN"
 "http://www.w3.org/Graphics/SVG/1.1/DTD/svg11.dtd">
<!-- Generated by graphviz version 2.38.0 (20140413.2041)
 -->
<!-- Title: ocean_model_mod::ocean_public_type Pages: 1 -->
<svg width="461pt" height="241pt"
 viewBox="0.00 0.00 461.00 241.00" xmlns="http://www.w3.org/2000/svg" xmlns:xlink="http://www.w3.org/1999/xlink">
<g id="graph0" class="graph" transform="scale(1 1) rotate(0) translate(4 237)">
<title>ocean_model_mod::ocean_public_type</title>
<polygon fill="white" stroke="none" points="-4,4 -4,-237 457,-237 457,4 -4,4"/>
<!-- Node1 -->
<g id="node1" class="node"><title>Node1</title>
<polygon fill="#bfbfbf" stroke="black" points="192.5,-0.5 192.5,-30.5 303.5,-30.5 303.5,-0.5 192.5,-0.5"/>
<text text-anchor="start" x="200.5" y="-18.5" font-family="Helvetica,sans-Serif" font-size="10.00">ocean_model_mod::ocean</text>
<text text-anchor="middle" x="248" y="-7.5" font-family="Helvetica,sans-Serif" font-size="10.00">_public_type</text>
</g>
<!-- Node2 -->
<g id="node2" class="node"><title>Node2</title>
<polygon fill="white" stroke="#bfbfbf" points="0,-134.5 0,-153.5 38,-153.5 38,-134.5 0,-134.5"/>
<text text-anchor="middle" x="19" y="-141.5" font-family="Helvetica,sans-Serif" font-size="10.00">logical</text>
</g>
<!-- Node2&#45;&gt;Node1 -->
<g id="edge1" class="edge"><title>Node2&#45;&gt;Node1</title>
<path fill="none" stroke="#9a32cd" stroke-dasharray="5,2" d="M12.9272,-124.849C7.17919,-103.902 1.85688,-69.6894 20,-49 42.0124,-23.8984 132.331,-17.7161 192.471,-16.4513"/>
<polygon fill="#9a32cd" stroke="#9a32cd" points="9.58982,-125.905 15.8498,-134.452 16.2866,-123.867 9.58982,-125.905"/>
<text text-anchor="middle" x="43" y="-79.5" font-family="Helvetica,sans-Serif" font-size="10.00"> maskmap</text>
<text text-anchor="middle" x="43" y="-68.5" font-family="Helvetica,sans-Serif" font-size="10.00">is_ocean_pe</text>
</g>
<!-- Node3 -->
<g id="node3" class="node"><title>Node3</title>
<g id="a_node3"><a xlink:href="../../de/d6a/structcoupler__types__mod_1_1coupler__2d__bc__type.html" target="_top" xlink:title="coupler_types_mod::\lcoupler_2d_bc_type">
<polygon fill="white" stroke="black" points="135.5,-129 135.5,-159 226.5,-159 226.5,-129 135.5,-129"/>
<text text-anchor="start" x="143.5" y="-147" font-family="Helvetica,sans-Serif" font-size="10.00">coupler_types_mod::</text>
<text text-anchor="middle" x="181" y="-136" font-family="Helvetica,sans-Serif" font-size="10.00">coupler_2d_bc_type</text>
</a>
</g>
</g>
<!-- Node3&#45;&gt;Node1 -->
<g id="edge2" class="edge"><title>Node3&#45;&gt;Node1</title>
<path fill="none" stroke="#9a32cd" stroke-dasharray="5,2" d="M192.886,-119.802C202.71,-100.725 217.091,-73.0197 230,-49 233.237,-42.9777 236.879,-36.3706 240.036,-30.6954"/>
<polygon fill="#9a32cd" stroke="#9a32cd" points="189.654,-118.433 188.195,-128.927 195.88,-121.633 189.654,-118.433"/>
<text text-anchor="middle" x="240.5" y="-74" font-family="Helvetica,sans-Serif" font-size="10.00"> fields</text>
</g>
<!-- Node4 -->
<g id="node4" class="node"><title>Node4</title>
<polygon fill="white" stroke="#bfbfbf" points="92.5,-213.5 92.5,-232.5 133.5,-232.5 133.5,-213.5 92.5,-213.5"/>
<text text-anchor="middle" x="113" y="-220.5" font-family="Helvetica,sans-Serif" font-size="10.00">integer</text>
</g>
<!-- Node4&#45;&gt;Node1 -->
<g id="edge7" class="edge"><title>Node4&#45;&gt;Node1</title>
<path fill="none" stroke="#9a32cd" stroke-dasharray="5,2" d="M101.869,-204.816C89.992,-184.115 74.7009,-148.786 89,-122 113.727,-75.679 168.786,-46.2745 207.138,-30.5957"/>
<polygon fill="#9a32cd" stroke="#9a32cd" points="98.9378,-206.732 107.124,-213.458 104.919,-203.095 98.9378,-206.732"/>
<text text-anchor="middle" x="107.5" y="-158" font-family="Helvetica,sans-Serif" font-size="10.00"> axes</text>
<text text-anchor="middle" x="107.5" y="-147" font-family="Helvetica,sans-Serif" font-size="10.00">pelist</text>
<text text-anchor="middle" x="107.5" y="-136" font-family="Helvetica,sans-Serif" font-size="10.00">avg_kount</text>
<text text-anchor="middle" x="107.5" y="-125" font-family="Helvetica,sans-Serif" font-size="10.00">stagger</text>
</g>
<!-- Node4&#45;&gt;Node3 -->
<g id="edge3" class="edge"><title>Node4&#45;&gt;Node3</title>
<path fill="none" stroke="#9a32cd" stroke-dasharray="5,2" d="M127.387,-205.709C139.611,-191.867 156.976,-172.204 168.597,-159.045"/>
<polygon fill="#9a32cd" stroke="#9a32cd" points="124.533,-203.653 120.537,-213.465 129.78,-208.287 124.533,-203.653"/>
<text text-anchor="middle" x="162.5" y="-187" font-family="Helvetica,sans-Serif" font-size="10.00"> num_bcs</text>
</g>
<!-- Node5 -->
<g id="node5" class="node"><title>Node5</title>
<polygon fill="white" stroke="#bfbfbf" points="245,-134.5 245,-153.5 297,-153.5 297,-134.5 245,-134.5"/>
<text text-anchor="middle" x="271" y="-141.5" font-family="Helvetica,sans-Serif" font-size="10.00">domain2d</text>
</g>
<!-- Node5&#45;&gt;Node1 -->
<g id="edge4" class="edge"><title>Node5&#45;&gt;Node1</title>
<path fill="none" stroke="#9a32cd" stroke-dasharray="5,2" d="M267.627,-124.451C263.006,-99.033 254.803,-53.9147 250.616,-30.888"/>
<polygon fill="#9a32cd" stroke="#9a32cd" points="264.187,-125.093 269.419,-134.305 271.074,-123.84 264.187,-125.093"/>
<text text-anchor="middle" x="278.5" y="-74" font-family="Helvetica,sans-Serif" font-size="10.00"> domain</text>
</g>
<!-- Node6 -->
<g id="node6" class="node"><title>Node6</title>
<polygon fill="white" stroke="#bfbfbf" points="315,-134.5 315,-153.5 395,-153.5 395,-134.5 315,-134.5"/>
<text text-anchor="middle" x="355" y="-141.5" font-family="Helvetica,sans-Serif" font-size="10.00">character(len=32)</text>
</g>
<!-- Node6&#45;&gt;Node1 -->
<g id="edge5" class="edge"><title>Node6&#45;&gt;Node1</title>
<path fill="none" stroke="#9a32cd" stroke-dasharray="5,2" d="M346.902,-125.126C337.146,-104.966 319.257,-71.9997 297,-49 290.256,-42.0312 281.77,-35.7589 273.763,-30.626"/>
<polygon fill="#9a32cd" stroke="#9a32cd" points="343.828,-126.813 351.243,-134.381 350.165,-123.841 343.828,-126.813"/>
<text text-anchor="middle" x="363.5" y="-74" font-family="Helvetica,sans-Serif" font-size="10.00"> instance_name</text>
</g>
<!-- Node7 -->
<g id="node7" class="node"><title>Node7</title>
<polygon fill="white" stroke="#bfbfbf" points="416,-134.5 416,-153.5 446,-153.5 446,-134.5 416,-134.5"/>
<text text-anchor="middle" x="431" y="-141.5" font-family="Helvetica,sans-Serif" font-size="10.00">real</text>
</g>
<!-- Node7&#45;&gt;Node1 -->
<g id="edge6" class="edge"><title>Node7&#45;&gt;Node1</title>
<path fill="none" stroke="#9a32cd" stroke-dasharray="5,2" d="M429.302,-124.377C426.323,-102.954 418.175,-68.2643 396,-49 382.198,-37.0096 339.751,-28.4586 303.835,-23.1469"/>
<polygon fill="#9a32cd" stroke="#9a32cd" points="425.843,-124.938 430.458,-134.475 432.798,-124.142 425.843,-124.938"/>
<text text-anchor="middle" x="439" y="-96" font-family="Helvetica,sans-Serif" font-size="10.00"> v_surf</text>
<text text-anchor="middle" x="439" y="-85" font-family="Helvetica,sans-Serif" font-size="10.00">u_surf</text>
<text text-anchor="middle" x="439" y="-74" font-family="Helvetica,sans-Serif" font-size="10.00">t_surf</text>
<text text-anchor="middle" x="439" y="-63" font-family="Helvetica,sans-Serif" font-size="10.00">s_surf</text>
<text text-anchor="middle" x="439" y="-52" font-family="Helvetica,sans-Serif" font-size="10.00">sea_lev</text>
</g>
</g>
</svg>
