<?xml version="1.0" encoding="UTF-8" standalone="no"?>
<!DOCTYPE svg PUBLIC "-//W3C//DTD SVG 1.1//EN"
 "http://www.w3.org/Graphics/SVG/1.1/DTD/svg11.dtd">
<!-- Generated by graphviz version 2.38.0 (20140413.2041)
 -->
<!-- Title: mom_coriolisadv::coriolisadv_init Pages: 1 -->
<!--zoomable 771 -->
<svg id="main" version="1.1" xmlns="http://www.w3.org/2000/svg" xmlns:xlink="http://www.w3.org/1999/xlink" xml:space="preserve" onload="init(evt)">
<style type="text/css"><![CDATA[
.edge:hover path { stroke: red; }
.edge:hover polygon { stroke: red; fill: red; }
]]></style>
<script type="text/javascript"><![CDATA[
var edges = document.getElementsByTagName('g');
if (edges && edges.length) {
  for (var i=0;i<edges.length;i++) {
    if (edges[i].id.substr(0,4)=='edge') {
      edges[i].setAttribute('class','edge');
    }
  }
}
]]></script>
        <defs>
                <circle id="rim" cx="0" cy="0" r="7"/>
                <circle id="rim2" cx="0" cy="0" r="3.5"/>
                <g id="zoomPlus">
                        <use xlink:href="#rim" fill="#404040">
                                <set attributeName="fill" to="#808080" begin="zoomplus.mouseover" end="zoomplus.mouseout"/>
                        </use>
                        <path d="M-4,0h8M0,-4v8" fill="none" stroke="white" stroke-width="1.5" pointer-events="none"/>
                </g>
                <g id="zoomMin">
                        <use xlink:href="#rim" fill="#404040">
                                <set attributeName="fill" to="#808080" begin="zoomminus.mouseover" end="zoomminus.mouseout"/>
                        </use>
                        <path d="M-4,0h8" fill="none" stroke="white" stroke-width="1.5" pointer-events="none"/>
                </g>
                <g id="dirArrow">
                        <path fill="none" stroke="white" stroke-width="1.5" d="M0,-3.0v7 M-2.5,-0.5L0,-3.0L2.5,-0.5"/>
                </g>
               <g id="resetDef">
                       <use xlink:href="#rim2" fill="#404040">
                               <set attributeName="fill" to="#808080" begin="reset.mouseover" end="reset.mouseout"/>
                       </use>
               </g>
        </defs>

<script type="text/javascript">
var viewWidth = 790;
var viewHeight = 771;
var sectionId = 'dynsection-2';
</script>
<script xlink:href="../../svgpan.js"/>
<svg id="graph" class="graph">
<g id="viewport">
<title>mom_coriolisadv::coriolisadv_init</title>
<polygon fill="white" stroke="none" points="-4,4 -4,-767 786,-767 786,4 -4,4"/>
<!-- Node11 -->
<g id="node1" class="node"><title>Node11</title>
<polygon fill="#bfbfbf" stroke="black" points="0,-372 0,-391 131,-391 131,-372 0,-372"/>
<text text-anchor="middle" x="65.5" y="-379" font-family="Helvetica,sans-Serif" font-size="10.00">mom_coriolisadv::coriolisadv_init</text>
</g>
<!-- Node12 -->
<g id="node2" class="node"><title>Node12</title>
<g id="a_node2"><a xlink:href="../../d9/def/namespacemom__file__parser.html#a17c0ef1bb1912f02faa0aaa1e0f64210" target="_top" xlink:title="mom_file_parser::log\l_version">
<polygon fill="white" stroke="black" points="560.5,-732.5 560.5,-762.5 652.5,-762.5 652.5,-732.5 560.5,-732.5"/>
<text text-anchor="start" x="568.5" y="-750.5" font-family="Helvetica,sans-Serif" font-size="10.00">mom_file_parser::log</text>
<text text-anchor="middle" x="606.5" y="-739.5" font-family="Helvetica,sans-Serif" font-size="10.00">_version</text>
</a>
</g>
</g>
<!-- Node11&#45;&gt;Node12 -->
<g id="edge1" class="edge"><title>Node11&#45;&gt;Node12</title>
<path fill="none" stroke="midnightblue" d="M68.8587,-391.439C77.1775,-424.772 107.883,-534.37 167,-603.5 265.007,-718.106 455.894,-742.031 550.136,-746.665"/>
<polygon fill="midnightblue" stroke="midnightblue" points="550.174,-750.17 560.317,-747.109 550.479,-743.177 550.174,-750.17"/>
</g>
<!-- Node14 -->
<g id="node4" class="node"><title>Node14</title>
<g id="a_node4"><a xlink:href="../../d0/de6/namespacemom__error__handler.html#a460cfb79a06c29fc249952c2a3710d67" target="_top" xlink:title="mom_error_handler::\lmom_error">
<polygon fill="white" stroke="black" points="560,-366.5 560,-396.5 653,-396.5 653,-366.5 560,-366.5"/>
<text text-anchor="start" x="568" y="-384.5" font-family="Helvetica,sans-Serif" font-size="10.00">mom_error_handler::</text>
<text text-anchor="middle" x="606.5" y="-373.5" font-family="Helvetica,sans-Serif" font-size="10.00">mom_error</text>
</a>
</g>
</g>
<!-- Node11&#45;&gt;Node14 -->
<g id="edge3" class="edge"><title>Node11&#45;&gt;Node14</title>
<path fill="none" stroke="midnightblue" d="M70.1012,-371.858C87.1798,-327.732 164.775,-144.372 298,-78.5 335.849,-59.7862 352.936,-65.1726 393,-78.5 461.994,-101.451 479.796,-118.768 524,-176.5 567.282,-233.028 590.679,-315.551 600.249,-356.513"/>
<polygon fill="midnightblue" stroke="midnightblue" points="596.875,-357.464 602.487,-366.451 603.704,-355.926 596.875,-357.464"/>
</g>
<!-- Node15 -->
<g id="node5" class="node"><title>Node15</title>
<g id="a_node5"><a xlink:href="../../d0/de6/namespacemom__error__handler.html#a1c462df7b61f1296407b4af51dfeceab" target="_top" xlink:title="mom_error_handler::\lmom_mesg">
<polygon fill="white" stroke="black" points="560,-683.5 560,-713.5 653,-713.5 653,-683.5 560,-683.5"/>
<text text-anchor="start" x="568" y="-701.5" font-family="Helvetica,sans-Serif" font-size="10.00">mom_error_handler::</text>
<text text-anchor="middle" x="606.5" y="-690.5" font-family="Helvetica,sans-Serif" font-size="10.00">mom_mesg</text>
</a>
</g>
</g>
<!-- Node11&#45;&gt;Node15 -->
<g id="edge5" class="edge"><title>Node11&#45;&gt;Node15</title>
<path fill="none" stroke="midnightblue" d="M71.0774,-391.053C91.1412,-431.755 175.799,-591.709 298,-659.5 377.173,-703.421 485.1,-706.456 549.787,-703.376"/>
<polygon fill="midnightblue" stroke="midnightblue" points="549.99,-706.87 559.786,-702.835 549.611,-699.881 549.99,-706.87"/>
</g>
<!-- Node16 -->
<g id="node6" class="node"><title>Node16</title>
<g id="a_node6"><a xlink:href="../../d9/d06/namespacemom__diag__mediator.html#a3fd333aff691a76b05dd8d5bdc315bbb" target="_top" xlink:title="mom_diag_mediator::\lregister_diag_field">
<polygon fill="white" stroke="black" points="167,-366.5 167,-396.5 262,-396.5 262,-366.5 167,-366.5"/>
<text text-anchor="start" x="175" y="-384.5" font-family="Helvetica,sans-Serif" font-size="10.00">mom_diag_mediator::</text>
<text text-anchor="middle" x="214.5" y="-373.5" font-family="Helvetica,sans-Serif" font-size="10.00">register_diag_field</text>
</a>
</g>
</g>
<!-- Node11&#45;&gt;Node16 -->
<g id="edge7" class="edge"><title>Node11&#45;&gt;Node16</title>
<path fill="none" stroke="midnightblue" d="M131.404,-381.5C139.732,-381.5 148.21,-381.5 156.401,-381.5"/>
<polygon fill="midnightblue" stroke="midnightblue" points="156.59,-385 166.59,-381.5 156.59,-378 156.59,-385"/>
</g>
<!-- Node29 -->
<g id="node19" class="node"><title>Node29</title>
<g id="a_node19"><a xlink:href="../../df/d46/namespacemom__string__functions.html#aca148baf726de2f028b7e7baad3c85d4" target="_top" xlink:title="mom_string_functions\l::uppercase">
<polygon fill="white" stroke="black" points="167,-0.5 167,-30.5 262,-30.5 262,-0.5 167,-0.5"/>
<text text-anchor="start" x="175" y="-18.5" font-family="Helvetica,sans-Serif" font-size="10.00">mom_string_functions</text>
<text text-anchor="middle" x="214.5" y="-7.5" font-family="Helvetica,sans-Serif" font-size="10.00">::uppercase</text>
</a>
</g>
</g>
<!-- Node11&#45;&gt;Node29 -->
<g id="edge25" class="edge"><title>Node11&#45;&gt;Node29</title>
<path fill="none" stroke="midnightblue" d="M66.9963,-371.89C69.6463,-329.229 85.271,-154.306 167,-45.5 169.268,-42.4802 171.937,-39.6804 174.828,-37.1042"/>
<polygon fill="midnightblue" stroke="midnightblue" points="177.159,-39.7248 182.884,-30.8099 172.849,-34.2088 177.159,-39.7248"/>
</g>
<!-- Node13 -->
<g id="node3" class="node"><title>Node13</title>
<g id="a_node3"><a xlink:href="../../d0/de6/namespacemom__error__handler.html#ad5f00a53059c72fe2332d1436c80ca71" target="_top" xlink:title="mom_error_handler::\lis_root_pe">
<polygon fill="white" stroke="black" points="689,-661.5 689,-691.5 782,-691.5 782,-661.5 689,-661.5"/>
<text text-anchor="start" x="697" y="-679.5" font-family="Helvetica,sans-Serif" font-size="10.00">mom_error_handler::</text>
<text text-anchor="middle" x="735.5" y="-668.5" font-family="Helvetica,sans-Serif" font-size="10.00">is_root_pe</text>
</a>
</g>
</g>
<!-- Node12&#45;&gt;Node13 -->
<g id="edge2" class="edge"><title>Node12&#45;&gt;Node13</title>
<path fill="none" stroke="midnightblue" d="M636.472,-732.428C641.98,-729.503 647.683,-726.434 653,-723.5 668.632,-714.874 685.775,-705.045 700.287,-696.613"/>
<polygon fill="midnightblue" stroke="midnightblue" points="702.068,-699.626 708.946,-691.567 698.544,-693.578 702.068,-699.626"/>
</g>
<!-- Node14&#45;&gt;Node13 -->
<g id="edge4" class="edge"><title>Node14&#45;&gt;Node13</title>
<path fill="none" stroke="midnightblue" d="M613.973,-396.535C634.567,-444.372 698.707,-593.359 724.048,-652.222"/>
<polygon fill="midnightblue" stroke="midnightblue" points="720.871,-653.695 728.04,-661.496 727.301,-650.927 720.871,-653.695"/>
</g>
<!-- Node15&#45;&gt;Node13 -->
<g id="edge6" class="edge"><title>Node15&#45;&gt;Node13</title>
<path fill="none" stroke="midnightblue" d="M653.35,-690.557C661.623,-689.124 670.33,-687.616 678.846,-686.141"/>
<polygon fill="midnightblue" stroke="midnightblue" points="679.462,-689.586 688.717,-684.431 678.267,-682.689 679.462,-689.586"/>
</g>
<!-- Node16&#45;&gt;Node13 -->
<g id="edge16" class="edge"><title>Node16&#45;&gt;Node13</title>
<path fill="none" stroke="midnightblue" d="M215.173,-396.618C215.108,-441.451 221.635,-574.351 298,-635.5 327.132,-658.827 567.827,-670.476 678.82,-674.649"/>
<polygon fill="midnightblue" stroke="midnightblue" points="678.704,-678.147 688.826,-675.018 678.962,-671.152 678.704,-678.147"/>
</g>
<!-- Node16&#45;&gt;Node14 -->
<g id="edge21" class="edge"><title>Node16&#45;&gt;Node14</title>
<path fill="none" stroke="midnightblue" d="M262.156,-381.5C334.33,-381.5 472.764,-381.5 549.979,-381.5"/>
<polygon fill="midnightblue" stroke="midnightblue" points="549.998,-385 559.998,-381.5 549.998,-378 549.998,-385"/>
</g>
<!-- Node17 -->
<g id="node7" class="node"><title>Node17</title>
<g id="a_node7"><a xlink:href="../../d9/d06/namespacemom__diag__mediator.html#a93abbf0b9659019bed9a2129ab292752" target="_top" xlink:title="Attaches &quot;cell_methods&quot; attribute to a variable based on defaults for axes_grp or optional arguments...">
<polygon fill="white" stroke="black" points="429,-322.5 429,-352.5 524,-352.5 524,-322.5 429,-322.5"/>
<text text-anchor="start" x="437" y="-340.5" font-family="Helvetica,sans-Serif" font-size="10.00">mom_diag_mediator::</text>
<text text-anchor="middle" x="476.5" y="-329.5" font-family="Helvetica,sans-Serif" font-size="10.00">attach_cell_methods</text>
</a>
</g>
</g>
<!-- Node16&#45;&gt;Node17 -->
<g id="edge8" class="edge"><title>Node16&#45;&gt;Node17</title>
<path fill="none" stroke="midnightblue" d="M262.183,-373.572C273.878,-371.588 286.398,-369.465 298,-367.5 338.386,-360.66 383.943,-352.961 418.792,-347.075"/>
<polygon fill="midnightblue" stroke="midnightblue" points="419.506,-350.504 428.783,-345.387 418.34,-343.601 419.506,-350.504"/>
</g>
<!-- Node18 -->
<g id="node8" class="node"><title>Node18</title>
<g id="a_node8"><a xlink:href="../../d9/d06/namespacemom__diag__mediator.html#a3f7442639213320f7429e2288a79fda2" target="_top" xlink:title="mom_diag_mediator::\lget_new_diag_id">
<polygon fill="white" stroke="black" points="298,-448.5 298,-478.5 393,-478.5 393,-448.5 298,-448.5"/>
<text text-anchor="start" x="306" y="-466.5" font-family="Helvetica,sans-Serif" font-size="10.00">mom_diag_mediator::</text>
<text text-anchor="middle" x="345.5" y="-455.5" font-family="Helvetica,sans-Serif" font-size="10.00">get_new_diag_id</text>
</a>
</g>
</g>
<!-- Node16&#45;&gt;Node18 -->
<g id="edge10" class="edge"><title>Node16&#45;&gt;Node18</title>
<path fill="none" stroke="midnightblue" d="M239.161,-396.54C259.58,-409.52 289.277,-428.397 311.938,-442.802"/>
<polygon fill="midnightblue" stroke="midnightblue" points="310.236,-445.867 320.553,-448.278 313.991,-439.959 310.236,-445.867"/>
</g>
<!-- Node19 -->
<g id="node9" class="node"><title>Node19</title>
<g id="a_node9"><a xlink:href="../../d9/d06/namespacemom__diag__mediator.html#a6e11afe7a97bf8e3333d33b0aebd6f6e" target="_top" xlink:title="mom_diag_mediator::\lassert">
<polygon fill="white" stroke="black" points="429,-410.5 429,-440.5 524,-440.5 524,-410.5 429,-410.5"/>
<text text-anchor="start" x="437" y="-428.5" font-family="Helvetica,sans-Serif" font-size="10.00">mom_diag_mediator::</text>
<text text-anchor="middle" x="476.5" y="-417.5" font-family="Helvetica,sans-Serif" font-size="10.00">assert</text>
</a>
</g>
</g>
<!-- Node16&#45;&gt;Node19 -->
<g id="edge14" class="edge"><title>Node16&#45;&gt;Node19</title>
<path fill="none" stroke="midnightblue" d="M262.183,-389.428C273.878,-391.412 286.398,-393.535 298,-395.5 338.386,-402.34 383.943,-410.039 418.792,-415.925"/>
<polygon fill="midnightblue" stroke="midnightblue" points="418.34,-419.399 428.783,-417.613 419.506,-412.496 418.34,-419.399"/>
</g>
<!-- Node20 -->
<g id="node10" class="node"><title>Node20</title>
<g id="a_node10"><a xlink:href="../../d9/d06/namespacemom__diag__mediator.html#a1b0bed2113a0c268eafd1bafbb48bd4f" target="_top" xlink:title="mom_diag_mediator::\lalloc_diag_with_id">
<polygon fill="white" stroke="black" points="298,-284.5 298,-314.5 393,-314.5 393,-284.5 298,-284.5"/>
<text text-anchor="start" x="306" y="-302.5" font-family="Helvetica,sans-Serif" font-size="10.00">mom_diag_mediator::</text>
<text text-anchor="middle" x="345.5" y="-291.5" font-family="Helvetica,sans-Serif" font-size="10.00">alloc_diag_with_id</text>
</a>
</g>
</g>
<!-- Node16&#45;&gt;Node20 -->
<g id="edge13" class="edge"><title>Node16&#45;&gt;Node20</title>
<path fill="none" stroke="midnightblue" d="M239.161,-366.46C259.58,-353.48 289.277,-334.603 311.938,-320.198"/>
<polygon fill="midnightblue" stroke="midnightblue" points="313.991,-323.041 320.553,-314.722 310.236,-317.133 313.991,-323.041"/>
</g>
<!-- Node21 -->
<g id="node11" class="node"><title>Node21</title>
<g id="a_node11"><a xlink:href="../../d9/d06/namespacemom__diag__mediator.html#a085f313357879a914af6450f2ab8ec79" target="_top" xlink:title="mom_diag_mediator::\lset_diag_mask">
<polygon fill="white" stroke="black" points="298,-235.5 298,-265.5 393,-265.5 393,-235.5 298,-235.5"/>
<text text-anchor="start" x="306" y="-253.5" font-family="Helvetica,sans-Serif" font-size="10.00">mom_diag_mediator::</text>
<text text-anchor="middle" x="345.5" y="-242.5" font-family="Helvetica,sans-Serif" font-size="10.00">set_diag_mask</text>
</a>
</g>
</g>
<!-- Node16&#45;&gt;Node21 -->
<g id="edge15" class="edge"><title>Node16&#45;&gt;Node21</title>
<path fill="none" stroke="midnightblue" d="M224.199,-366.332C237.655,-343.924 265.397,-301.696 298,-274.5 299.343,-273.38 300.747,-272.292 302.195,-271.239"/>
<polygon fill="midnightblue" stroke="midnightblue" points="304.392,-273.985 310.855,-265.59 300.567,-268.122 304.392,-273.985"/>
</g>
<!-- Node22 -->
<g id="node12" class="node"><title>Node22</title>
<g id="a_node12"><a xlink:href="../../d9/d06/namespacemom__diag__mediator.html#a65fe8d329cf5dbfd08c98874a7a64407" target="_top" xlink:title="Log a diagnostic to the available diagnostics file. ">
<polygon fill="white" stroke="black" points="298,-186.5 298,-216.5 393,-216.5 393,-186.5 298,-186.5"/>
<text text-anchor="start" x="306" y="-204.5" font-family="Helvetica,sans-Serif" font-size="10.00">mom_diag_mediator::</text>
<text text-anchor="middle" x="345.5" y="-193.5" font-family="Helvetica,sans-Serif" font-size="10.00">log_available_diag</text>
</a>
</g>
</g>
<!-- Node16&#45;&gt;Node22 -->
<g id="edge17" class="edge"><title>Node16&#45;&gt;Node22</title>
<path fill="none" stroke="midnightblue" d="M220.089,-366.309C229.9,-336.045 255.545,-267.533 298,-225.5 298.944,-224.565 299.932,-223.659 300.956,-222.781"/>
<polygon fill="midnightblue" stroke="midnightblue" points="303.384,-225.34 309.372,-216.6 299.24,-219.699 303.384,-225.34"/>
</g>
<!-- Node24 -->
<g id="node14" class="node"><title>Node24</title>
<g id="a_node14"><a xlink:href="../../d9/d06/namespacemom__diag__mediator.html#a84370fa96e03622edbfd5e343bcd9718" target="_top" xlink:title="mom_diag_mediator::\lis_layer_axes">
<polygon fill="white" stroke="black" points="298,-137.5 298,-167.5 393,-167.5 393,-137.5 298,-137.5"/>
<text text-anchor="start" x="306" y="-155.5" font-family="Helvetica,sans-Serif" font-size="10.00">mom_diag_mediator::</text>
<text text-anchor="middle" x="345.5" y="-144.5" font-family="Helvetica,sans-Serif" font-size="10.00">is_layer_axes</text>
</a>
</g>
</g>
<!-- Node16&#45;&gt;Node24 -->
<g id="edge19" class="edge"><title>Node16&#45;&gt;Node24</title>
<path fill="none" stroke="midnightblue" d="M217.855,-366.455C224.313,-329.72 245.446,-234.234 298,-176.5 298.764,-175.66 299.565,-174.845 300.397,-174.055"/>
<polygon fill="midnightblue" stroke="midnightblue" points="302.9,-176.537 308.568,-167.586 298.555,-171.048 302.9,-176.537"/>
</g>
<!-- Node25 -->
<g id="node15" class="node"><title>Node25</title>
<g id="a_node15"><a xlink:href="../../d9/d06/namespacemom__diag__mediator.html#a4b739f107cebe1ece8d29056c1144bff" target="_top" xlink:title="mom_diag_mediator::\lis_b_axes">
<polygon fill="white" stroke="black" points="298,-88.5 298,-118.5 393,-118.5 393,-88.5 298,-88.5"/>
<text text-anchor="start" x="306" y="-106.5" font-family="Helvetica,sans-Serif" font-size="10.00">mom_diag_mediator::</text>
<text text-anchor="middle" x="345.5" y="-95.5" font-family="Helvetica,sans-Serif" font-size="10.00">is_b_axes</text>
</a>
</g>
</g>
<!-- Node16&#45;&gt;Node25 -->
<g id="edge20" class="edge"><title>Node16&#45;&gt;Node25</title>
<path fill="none" stroke="midnightblue" d="M216.477,-366.427C219.976,-323.914 235.263,-201.353 298,-127.5 298.618,-126.773 299.263,-126.065 299.932,-125.376"/>
<polygon fill="midnightblue" stroke="midnightblue" points="302.473,-127.813 307.882,-118.703 297.973,-122.451 302.473,-127.813"/>
</g>
<!-- Node26 -->
<g id="node16" class="node"><title>Node26</title>
<g id="a_node16"><a xlink:href="../../d9/d06/namespacemom__diag__mediator.html#a5d1e1aa53cdd6bb335a6f841eded4f46" target="_top" xlink:title="mom_diag_mediator::\lset_diag_remap_axes">
<polygon fill="white" stroke="black" points="298,-595.5 298,-625.5 393,-625.5 393,-595.5 298,-595.5"/>
<text text-anchor="start" x="306" y="-613.5" font-family="Helvetica,sans-Serif" font-size="10.00">mom_diag_mediator::</text>
<text text-anchor="middle" x="345.5" y="-602.5" font-family="Helvetica,sans-Serif" font-size="10.00">set_diag_remap_axes</text>
</a>
</g>
</g>
<!-- Node16&#45;&gt;Node26 -->
<g id="edge22" class="edge"><title>Node16&#45;&gt;Node26</title>
<path fill="none" stroke="midnightblue" d="M217.855,-396.545C224.313,-433.28 245.446,-528.766 298,-586.5 298.764,-587.34 299.565,-588.155 300.397,-588.945"/>
<polygon fill="midnightblue" stroke="midnightblue" points="298.555,-591.952 308.568,-595.414 302.9,-586.463 298.555,-591.952"/>
</g>
<!-- Node27 -->
<g id="node17" class="node"><title>Node27</title>
<g id="a_node17"><a xlink:href="../../d9/d06/namespacemom__diag__mediator.html#a27fa63c9ff62b660bf457adbb8645bdf" target="_top" xlink:title="mom_diag_mediator::\lis_u_axes">
<polygon fill="white" stroke="black" points="298,-546.5 298,-576.5 393,-576.5 393,-546.5 298,-546.5"/>
<text text-anchor="start" x="306" y="-564.5" font-family="Helvetica,sans-Serif" font-size="10.00">mom_diag_mediator::</text>
<text text-anchor="middle" x="345.5" y="-553.5" font-family="Helvetica,sans-Serif" font-size="10.00">is_u_axes</text>
</a>
</g>
</g>
<!-- Node16&#45;&gt;Node27 -->
<g id="edge23" class="edge"><title>Node16&#45;&gt;Node27</title>
<path fill="none" stroke="midnightblue" d="M220.176,-396.533C230.143,-426.493 256.055,-494.379 298,-536.5 299.245,-537.75 300.566,-538.954 301.944,-540.111"/>
<polygon fill="midnightblue" stroke="midnightblue" points="300.191,-543.164 310.334,-546.225 304.313,-537.507 300.191,-543.164"/>
</g>
<!-- Node28 -->
<g id="node18" class="node"><title>Node28</title>
<g id="a_node18"><a xlink:href="../../d9/d06/namespacemom__diag__mediator.html#a9a30d653d812713d6fcff94f6f1fc3e6" target="_top" xlink:title="mom_diag_mediator::\lis_v_axes">
<polygon fill="white" stroke="black" points="298,-497.5 298,-527.5 393,-527.5 393,-497.5 298,-497.5"/>
<text text-anchor="start" x="306" y="-515.5" font-family="Helvetica,sans-Serif" font-size="10.00">mom_diag_mediator::</text>
<text text-anchor="middle" x="345.5" y="-504.5" font-family="Helvetica,sans-Serif" font-size="10.00">is_v_axes</text>
</a>
</g>
</g>
<!-- Node16&#45;&gt;Node28 -->
<g id="edge24" class="edge"><title>Node16&#45;&gt;Node28</title>
<path fill="none" stroke="midnightblue" d="M224.517,-396.818C238.173,-419.013 265.932,-460.415 298,-487.5 299.707,-488.942 301.51,-490.335 303.376,-491.677"/>
<polygon fill="midnightblue" stroke="midnightblue" points="301.568,-494.677 311.854,-497.216 305.397,-488.817 301.568,-494.677"/>
</g>
<!-- Node17&#45;&gt;Node14 -->
<g id="edge9" class="edge"><title>Node17&#45;&gt;Node14</title>
<path fill="none" stroke="midnightblue" d="M521.192,-352.519C531.071,-355.915 541.67,-359.559 551.905,-363.077"/>
<polygon fill="midnightblue" stroke="midnightblue" points="550.975,-366.458 561.57,-366.399 553.251,-359.838 550.975,-366.458"/>
</g>
<!-- Node18&#45;&gt;Node19 -->
<g id="edge11" class="edge"><title>Node18&#45;&gt;Node19</title>
<path fill="none" stroke="midnightblue" d="M393.072,-449.781C401.566,-447.279 410.512,-444.644 419.251,-442.069"/>
<polygon fill="midnightblue" stroke="midnightblue" points="420.393,-445.382 428.996,-439.199 418.415,-438.667 420.393,-445.382"/>
</g>
<!-- Node19&#45;&gt;Node14 -->
<g id="edge12" class="edge"><title>Node19&#45;&gt;Node14</title>
<path fill="none" stroke="midnightblue" d="M521.192,-410.481C531.071,-407.085 541.67,-403.441 551.905,-399.923"/>
<polygon fill="midnightblue" stroke="midnightblue" points="553.251,-403.162 561.57,-396.601 550.975,-396.542 553.251,-403.162"/>
</g>
<!-- Node23 -->
<g id="node13" class="node"><title>Node23</title>
<g id="a_node13"><a xlink:href="../../d9/d06/namespacemom__diag__mediator.html#ae002ca447acba252bf7bdc042e75a01e" target="_top" xlink:title="mom_diag_mediator::\ldescribe_option">
<polygon fill="white" stroke="black" points="429,-186.5 429,-216.5 524,-216.5 524,-186.5 429,-186.5"/>
<text text-anchor="start" x="437" y="-204.5" font-family="Helvetica,sans-Serif" font-size="10.00">mom_diag_mediator::</text>
<text text-anchor="middle" x="476.5" y="-193.5" font-family="Helvetica,sans-Serif" font-size="10.00">describe_option</text>
</a>
</g>
</g>
<!-- Node22&#45;&gt;Node23 -->
<g id="edge18" class="edge"><title>Node22&#45;&gt;Node23</title>
<path fill="none" stroke="midnightblue" d="M393.072,-201.5C401.475,-201.5 410.319,-201.5 418.969,-201.5"/>
<polygon fill="midnightblue" stroke="midnightblue" points="418.996,-205 428.996,-201.5 418.996,-198 418.996,-205"/>
</g>
</g>
</svg>
        <g id="navigator" transform="translate(0 0)" fill="#404254">
                <rect fill="#f2f5e9" fill-opacity="0.5" stroke="#606060" stroke-width=".5" x="0" y="0" width="60" height="60"/>
                <use id="zoomplus" xlink:href="#zoomPlus" x="17" y="9" onmousedown="handleZoom(evt,'in')"/>
                <use id="zoomminus" xlink:href="#zoomMin" x="42" y="9" onmousedown="handleZoom(evt,'out')"/>
                <use id="reset" xlink:href="#resetDef" x="30" y="36" onmousedown="handleReset()"/>
                <g id="arrowUp" xlink:href="#dirArrow" transform="translate(30 24)" onmousedown="handlePan(0,-1)">
                  <use xlink:href="#rim" fill="#404040">
                        <set attributeName="fill" to="#808080" begin="arrowUp.mouseover" end="arrowUp.mouseout"/>
                  </use>
                  <path fill="none" stroke="white" stroke-width="1.5" d="M0,-3.0v7 M-2.5,-0.5L0,-3.0L2.5,-0.5"/>
                </g>
                <g id="arrowRight" xlink:href="#dirArrow" transform="rotate(90) translate(36 -43)" onmousedown="handlePan(1,0)">
                  <use xlink:href="#rim" fill="#404040">
                        <set attributeName="fill" to="#808080" begin="arrowRight.mouseover" end="arrowRight.mouseout"/>
                  </use>
                  <path fill="none" stroke="white" stroke-width="1.5" d="M0,-3.0v7 M-2.5,-0.5L0,-3.0L2.5,-0.5"/>
                </g>
                <g id="arrowDown" xlink:href="#dirArrow" transform="rotate(180) translate(-30 -48)" onmousedown="handlePan(0,1)">
                  <use xlink:href="#rim" fill="#404040">
                        <set attributeName="fill" to="#808080" begin="arrowDown.mouseover" end="arrowDown.mouseout"/>
                  </use>
                  <path fill="none" stroke="white" stroke-width="1.5" d="M0,-3.0v7 M-2.5,-0.5L0,-3.0L2.5,-0.5"/>
                </g>
                <g id="arrowLeft" xlink:href="#dirArrow" transform="rotate(270) translate(-36 17)" onmousedown="handlePan(-1,0)">
                  <use xlink:href="#rim" fill="#404040">
                        <set attributeName="fill" to="#808080" begin="arrowLeft.mouseover" end="arrowLeft.mouseout"/>
                  </use>
                  <path fill="none" stroke="white" stroke-width="1.5" d="M0,-3.0v7 M-2.5,-0.5L0,-3.0L2.5,-0.5"/>
                </g>
        </g>
        <svg viewBox="0 0 15 15" width="100%" height="30px" preserveAspectRatio="xMaxYMin meet">
         <g id="arrow_out" transform="scale(0.3 0.3)">
          <a xlink:href="namespacemom__coriolisadv_ad3ce07f23ce7b484a5a9e0c0abe8b1cd_cgraph_org.svg" target="_base">
           <rect id="button" ry="5" rx="5" y="6" x="6" height="38" width="38"
                fill="#f2f5e9" fill-opacity="0.5" stroke="#606060" stroke-width="1.0"/>
           <path id="arrow"
             d="M 11.500037,31.436501 C 11.940474,20.09759 22.043105,11.32322 32.158766,21.979434 L 37.068811,17.246167 C 37.068811,17.246167 37.088388,32 37.088388,32 L 22.160133,31.978069 C 22.160133,31.978069 26.997745,27.140456 26.997745,27.140456 C 18.528582,18.264221 13.291696,25.230495 11.500037,31.436501 z"
             style="fill:#404040;"/>
          </a>
         </g>
        </svg>
</svg>
