<?xml version="1.0" encoding="UTF-8" standalone="no"?>
<!DOCTYPE svg PUBLIC "-//W3C//DTD SVG 1.1//EN"
 "http://www.w3.org/Graphics/SVG/1.1/DTD/svg11.dtd">
<!-- Generated by graphviz version 2.38.0 (20140413.2041)
 -->
<!-- Title: mom_coriolisadv::coradcalc Pages: 1 -->
<svg width="392pt" height="78pt"
 viewBox="0.00 0.00 392.00 77.50" xmlns="http://www.w3.org/2000/svg" xmlns:xlink="http://www.w3.org/1999/xlink">
<g id="graph0" class="graph" transform="scale(1 1) rotate(0) translate(4 73.5)">
<title>mom_coriolisadv::coradcalc</title>
<polygon fill="white" stroke="none" points="-4,4 -4,-73.5 388,-73.5 388,4 -4,4"/>
<!-- Node0 -->
<g id="node1" class="node"><title>Node0</title>
<polygon fill="#bfbfbf" stroke="black" points="0,-28 0,-47 114,-47 114,-28 0,-28"/>
<text text-anchor="middle" x="57" y="-35" font-family="Helvetica,sans-Serif" font-size="10.00">mom_coriolisadv::coradcalc</text>
</g>
<!-- Node1 -->
<g id="node2" class="node"><title>Node1</title>
<g id="a_node2"><a xlink:href="../../d8/dd2/namespacemom__coriolisadv.html#a539ddafe0e8150e98f69753bb84dd074" target="_top" xlink:title="mom_coriolisadv::gradke">
<polygon fill="white" stroke="black" points="150,-50 150,-69 255,-69 255,-50 150,-50"/>
<text text-anchor="middle" x="202.5" y="-57" font-family="Helvetica,sans-Serif" font-size="10.00">mom_coriolisadv::gradke</text>
</a>
</g>
</g>
<!-- Node0&#45;&gt;Node1 -->
<g id="edge1" class="edge"><title>Node0&#45;&gt;Node1</title>
<path fill="none" stroke="midnightblue" d="M114.303,-46.1318C122.565,-47.3985 131.114,-48.7091 139.482,-49.9921"/>
<polygon fill="midnightblue" stroke="midnightblue" points="139.155,-53.4826 149.57,-51.5385 140.215,-46.5635 139.155,-53.4826"/>
</g>
<!-- Node2 -->
<g id="node3" class="node"><title>Node2</title>
<g id="a_node3"><a xlink:href="../../d0/de6/namespacemom__error__handler.html#a460cfb79a06c29fc249952c2a3710d67" target="_top" xlink:title="mom_error_handler::\lmom_error">
<polygon fill="white" stroke="black" points="156,-0.5 156,-30.5 249,-30.5 249,-0.5 156,-0.5"/>
<text text-anchor="start" x="164" y="-18.5" font-family="Helvetica,sans-Serif" font-size="10.00">mom_error_handler::</text>
<text text-anchor="middle" x="202.5" y="-7.5" font-family="Helvetica,sans-Serif" font-size="10.00">mom_error</text>
</a>
</g>
</g>
<!-- Node0&#45;&gt;Node2 -->
<g id="edge2" class="edge"><title>Node0&#45;&gt;Node2</title>
<path fill="none" stroke="midnightblue" d="M114.303,-28.8682C124.668,-27.2792 135.484,-25.6209 145.83,-24.0348"/>
<polygon fill="midnightblue" stroke="midnightblue" points="146.631,-27.453 155.985,-22.4779 145.57,-20.5338 146.631,-27.453"/>
</g>
<!-- Node3 -->
<g id="node4" class="node"><title>Node3</title>
<g id="a_node4"><a xlink:href="../../d0/de6/namespacemom__error__handler.html#ad5f00a53059c72fe2332d1436c80ca71" target="_top" xlink:title="mom_error_handler::\lis_root_pe">
<polygon fill="white" stroke="black" points="291,-0.5 291,-30.5 384,-30.5 384,-0.5 291,-0.5"/>
<text text-anchor="start" x="299" y="-18.5" font-family="Helvetica,sans-Serif" font-size="10.00">mom_error_handler::</text>
<text text-anchor="middle" x="337.5" y="-7.5" font-family="Helvetica,sans-Serif" font-size="10.00">is_root_pe</text>
</a>
</g>
</g>
<!-- Node2&#45;&gt;Node3 -->
<g id="edge3" class="edge"><title>Node2&#45;&gt;Node3</title>
<path fill="none" stroke="midnightblue" d="M249.271,-15.5C259.302,-15.5 270.033,-15.5 280.416,-15.5"/>
<polygon fill="midnightblue" stroke="midnightblue" points="280.645,-19.0001 290.645,-15.5 280.645,-12.0001 280.645,-19.0001"/>
</g>
</g>
</svg>
