<?xml version="1.0" encoding="UTF-8" standalone="no"?>
<!DOCTYPE svg PUBLIC "-//W3C//DTD SVG 1.1//EN"
 "http://www.w3.org/Graphics/SVG/1.1/DTD/svg11.dtd">
<!-- Generated by graphviz version 2.38.0 (20140413.2041)
 -->
<!-- Title: user_initialization::write_user_log Pages: 1 -->
<svg width="750pt" height="443pt"
 viewBox="0.00 0.00 750.00 442.50" xmlns="http://www.w3.org/2000/svg" xmlns:xlink="http://www.w3.org/1999/xlink">
<g id="graph0" class="graph" transform="scale(1 1) rotate(0) translate(4 438.5)">
<title>user_initialization::write_user_log</title>
<polygon fill="white" stroke="none" points="-4,4 -4,-438.5 746,-438.5 746,4 -4,4"/>
<!-- Node57 -->
<g id="node1" class="node"><title>Node57</title>
<polygon fill="#bfbfbf" stroke="black" points="0,-186.5 0,-216.5 77,-216.5 77,-186.5 0,-186.5"/>
<text text-anchor="start" x="8" y="-204.5" font-family="Helvetica,sans-Serif" font-size="10.00">user_initialization</text>
<text text-anchor="middle" x="38.5" y="-193.5" font-family="Helvetica,sans-Serif" font-size="10.00">::write_user_log</text>
</g>
<!-- Node58 -->
<g id="node2" class="node"><title>Node58</title>
<g id="a_node2"><a xlink:href="../../d9/dfa/namespaceuser__initialization.html#a251a51cb192b14598b806e548b1561a3" target="_top" xlink:title="Set initial potential density of the mixed layer. ">
<polygon fill="white" stroke="black" points="124,-393 124,-434 222,-434 222,-393 124,-393"/>
<text text-anchor="start" x="132" y="-422" font-family="Helvetica,sans-Serif" font-size="10.00">user_initialization</text>
<text text-anchor="start" x="132" y="-411" font-family="Helvetica,sans-Serif" font-size="10.00">::user_init_mixed_layer</text>
<text text-anchor="middle" x="173" y="-400" font-family="Helvetica,sans-Serif" font-size="10.00">_density</text>
</a>
</g>
</g>
<!-- Node57&#45;&gt;Node58 -->
<g id="edge1" class="edge"><title>Node57&#45;&gt;Node58</title>
<path fill="none" stroke="midnightblue" d="M43.8629,-226.852C51.6118,-265.06 71.0776,-337.781 113,-383.5 116.184,-386.973 119.862,-390.102 123.793,-392.91"/>
<polygon fill="midnightblue" stroke="midnightblue" points="47.2191,-225.769 41.9003,-216.606 40.344,-227.086 47.2191,-225.769"/>
</g>
<!-- Node59 -->
<g id="node3" class="node"><title>Node59</title>
<g id="a_node3"><a xlink:href="../../d9/dfa/namespaceuser__initialization.html#aa4fad7191fd4cc01281b8edd6d9d571a" target="_top" xlink:title="This function puts the initial layer temperatures and salinities into T(:,:,:) and S(:...">
<polygon fill="white" stroke="black" points="123,-333 123,-374 223,-374 223,-333 123,-333"/>
<text text-anchor="start" x="131" y="-362" font-family="Helvetica,sans-Serif" font-size="10.00">user_initialization</text>
<text text-anchor="start" x="131" y="-351" font-family="Helvetica,sans-Serif" font-size="10.00">::user_init_temperature</text>
<text text-anchor="middle" x="173" y="-340" font-family="Helvetica,sans-Serif" font-size="10.00">_salinity</text>
</a>
</g>
</g>
<!-- Node57&#45;&gt;Node59 -->
<g id="edge2" class="edge"><title>Node57&#45;&gt;Node59</title>
<path fill="none" stroke="midnightblue" d="M49.1437,-226.132C60.7906,-253.203 82.6647,-296.549 113,-324.5 116.274,-327.516 119.919,-330.287 123.747,-332.816"/>
<polygon fill="midnightblue" stroke="midnightblue" points="52.2585,-224.507 45.1844,-216.62 45.7959,-227.197 52.2585,-224.507"/>
</g>
<!-- Node60 -->
<g id="node4" class="node"><title>Node60</title>
<g id="a_node4"><a xlink:href="../../d9/dfa/namespaceuser__initialization.html#a7b14806f2c4db32faadeaebc6363aa64" target="_top" xlink:title="Set up the sponges. ">
<polygon fill="white" stroke="black" points="121.5,-186.5 121.5,-216.5 224.5,-216.5 224.5,-186.5 121.5,-186.5"/>
<text text-anchor="start" x="129.5" y="-204.5" font-family="Helvetica,sans-Serif" font-size="10.00">user_initialization</text>
<text text-anchor="middle" x="173" y="-193.5" font-family="Helvetica,sans-Serif" font-size="10.00">::user_initialize_sponges</text>
</a>
</g>
</g>
<!-- Node57&#45;&gt;Node60 -->
<g id="edge3" class="edge"><title>Node57&#45;&gt;Node60</title>
<path fill="none" stroke="midnightblue" d="M87.4359,-201.5C98.483,-201.5 110.268,-201.5 121.423,-201.5"/>
<polygon fill="midnightblue" stroke="midnightblue" points="87.1148,-198 77.1148,-201.5 87.1147,-205 87.1148,-198"/>
</g>
<!-- Node64 -->
<g id="node8" class="node"><title>Node64</title>
<g id="a_node8"><a xlink:href="../../d9/dfa/namespaceuser__initialization.html#a38414708a52995428a9442eecf6a8258" target="_top" xlink:title="initialize thicknesses. ">
<polygon fill="white" stroke="black" points="120.5,-235.5 120.5,-265.5 225.5,-265.5 225.5,-235.5 120.5,-235.5"/>
<text text-anchor="start" x="128.5" y="-253.5" font-family="Helvetica,sans-Serif" font-size="10.00">user_initialization</text>
<text text-anchor="middle" x="173" y="-242.5" font-family="Helvetica,sans-Serif" font-size="10.00">::user_initialize_thickness</text>
</a>
</g>
</g>
<!-- Node57&#45;&gt;Node64 -->
<g id="edge7" class="edge"><title>Node57&#45;&gt;Node64</title>
<path fill="none" stroke="midnightblue" d="M86.8671,-219.017C101.31,-224.358 117.059,-230.182 131.04,-235.353"/>
<polygon fill="midnightblue" stroke="midnightblue" points="87.708,-215.596 77.1148,-215.41 85.28,-222.162 87.708,-215.596"/>
</g>
<!-- Node65 -->
<g id="node9" class="node"><title>Node65</title>
<g id="a_node9"><a xlink:href="../../d9/dfa/namespaceuser__initialization.html#a39483698187dc74f75d280256eae29d3" target="_top" xlink:title="Initialize topography. ">
<polygon fill="white" stroke="black" points="116.5,-284.5 116.5,-314.5 229.5,-314.5 229.5,-284.5 116.5,-284.5"/>
<text text-anchor="start" x="124.5" y="-302.5" font-family="Helvetica,sans-Serif" font-size="10.00">user_initialization</text>
<text text-anchor="middle" x="173" y="-291.5" font-family="Helvetica,sans-Serif" font-size="10.00">::user_initialize_topography</text>
</a>
</g>
</g>
<!-- Node57&#45;&gt;Node65 -->
<g id="edge8" class="edge"><title>Node57&#45;&gt;Node65</title>
<path fill="none" stroke="midnightblue" d="M57.951,-224.483C71.7521,-240.482 91.8245,-261.396 113,-275.5 117.97,-278.81 123.468,-281.792 129.051,-284.436"/>
<polygon fill="midnightblue" stroke="midnightblue" points="60.4522,-222.019 51.3329,-216.626 55.0984,-226.529 60.4522,-222.019"/>
</g>
<!-- Node68 -->
<g id="node12" class="node"><title>Node68</title>
<g id="a_node12"><a xlink:href="../../d9/dfa/namespaceuser__initialization.html#af122fe6e02b74450203d73708a1b67b8" target="_top" xlink:title="initialize velocities. ">
<polygon fill="white" stroke="black" points="124,-137.5 124,-167.5 222,-167.5 222,-137.5 124,-137.5"/>
<text text-anchor="start" x="132" y="-155.5" font-family="Helvetica,sans-Serif" font-size="10.00">user_initialization</text>
<text text-anchor="middle" x="173" y="-144.5" font-family="Helvetica,sans-Serif" font-size="10.00">::user_initialize_velocity</text>
</a>
</g>
</g>
<!-- Node57&#45;&gt;Node68 -->
<g id="edge12" class="edge"><title>Node57&#45;&gt;Node68</title>
<path fill="none" stroke="midnightblue" d="M86.8671,-183.983C101.31,-178.642 117.059,-172.818 131.04,-167.647"/>
<polygon fill="midnightblue" stroke="midnightblue" points="85.28,-180.838 77.1148,-187.59 87.708,-187.404 85.28,-180.838"/>
</g>
<!-- Node69 -->
<g id="node13" class="node"><title>Node69</title>
<g id="a_node13"><a xlink:href="../../d9/dfa/namespaceuser__initialization.html#a541d25539cbb198ae0ed7c1356f267cf" target="_top" xlink:title="Set vertical coordinates. ">
<polygon fill="white" stroke="black" points="288.5,-90.5 288.5,-120.5 365.5,-120.5 365.5,-90.5 288.5,-90.5"/>
<text text-anchor="start" x="296.5" y="-108.5" font-family="Helvetica,sans-Serif" font-size="10.00">user_initialization</text>
<text text-anchor="middle" x="327" y="-97.5" font-family="Helvetica,sans-Serif" font-size="10.00">::user_set_coord</text>
</a>
</g>
</g>
<!-- Node57&#45;&gt;Node69 -->
<g id="edge13" class="edge"><title>Node57&#45;&gt;Node69</title>
<path fill="none" stroke="midnightblue" d="M46.2155,-176.692C55.671,-147.239 76.0332,-99.4741 113,-78.5 170.708,-45.7578 251.143,-71.6011 294.8,-90.389"/>
<polygon fill="midnightblue" stroke="midnightblue" points="42.8629,-175.688 43.3165,-186.273 49.5629,-177.715 42.8629,-175.688"/>
</g>
<!-- Node71 -->
<g id="node15" class="node"><title>Node71</title>
<g id="a_node15"><a xlink:href="../../d9/dfa/namespaceuser__initialization.html#ad5ce4f0532bb2015a7e53dace87e0cc3" target="_top" xlink:title="This subroutine sets the properties of flow at open boundary conditions. ">
<polygon fill="white" stroke="black" points="113,-88.5 113,-118.5 233,-118.5 233,-88.5 113,-88.5"/>
<text text-anchor="start" x="121" y="-106.5" font-family="Helvetica,sans-Serif" font-size="10.00">user_initialization</text>
<text text-anchor="middle" x="173" y="-95.5" font-family="Helvetica,sans-Serif" font-size="10.00">::user_set_open_bdry_conds</text>
</a>
</g>
</g>
<!-- Node57&#45;&gt;Node71 -->
<g id="edge16" class="edge"><title>Node57&#45;&gt;Node71</title>
<path fill="none" stroke="midnightblue" d="M57.951,-178.517C71.7521,-162.518 91.8245,-141.604 113,-127.5 117.97,-124.19 123.468,-121.208 129.051,-118.564"/>
<polygon fill="midnightblue" stroke="midnightblue" points="55.0984,-176.471 51.3329,-186.374 60.4522,-180.981 55.0984,-176.471"/>
</g>
<!-- Node72 -->
<g id="node16" class="node"><title>Node72</title>
<g id="a_node16"><a xlink:href="../../d9/dfa/namespaceuser__initialization.html#a83f001dcb5625d866c1265120a248e3c" target="_top" xlink:title="user_initialization\l::user_set_rotation">
<polygon fill="white" stroke="black" points="131.5,-0.5 131.5,-30.5 214.5,-30.5 214.5,-0.5 131.5,-0.5"/>
<text text-anchor="start" x="139.5" y="-18.5" font-family="Helvetica,sans-Serif" font-size="10.00">user_initialization</text>
<text text-anchor="middle" x="173" y="-7.5" font-family="Helvetica,sans-Serif" font-size="10.00">::user_set_rotation</text>
</a>
</g>
</g>
<!-- Node57&#45;&gt;Node72 -->
<g id="edge18" class="edge"><title>Node57&#45;&gt;Node72</title>
<path fill="none" stroke="midnightblue" d="M45.8038,-176.373C55.3361,-142.84 76.3147,-83.3064 113,-45.5 118.762,-39.5623 125.949,-34.5915 133.305,-30.5134"/>
<polygon fill="midnightblue" stroke="midnightblue" points="42.3549,-175.717 43.1057,-186.286 49.1092,-177.556 42.3549,-175.717"/>
</g>
<!-- Node61 -->
<g id="node5" class="node"><title>Node61</title>
<g id="a_node5"><a xlink:href="../../d6/d62/namespacemom__state__initialization.html#af4e854627c6572332ba3fd895f169321" target="_top" xlink:title="mom_state_initialization\l::mom_initialize_state">
<polygon fill="white" stroke="black" points="276.5,-162.5 276.5,-192.5 377.5,-192.5 377.5,-162.5 276.5,-162.5"/>
<text text-anchor="start" x="284.5" y="-180.5" font-family="Helvetica,sans-Serif" font-size="10.00">mom_state_initialization</text>
<text text-anchor="middle" x="327" y="-169.5" font-family="Helvetica,sans-Serif" font-size="10.00">::mom_initialize_state</text>
</a>
</g>
</g>
<!-- Node60&#45;&gt;Node61 -->
<g id="edge4" class="edge"><title>Node60&#45;&gt;Node61</title>
<path fill="none" stroke="midnightblue" d="M234.563,-191.937C248.438,-189.747 263.03,-187.443 276.382,-185.334"/>
<polygon fill="midnightblue" stroke="midnightblue" points="233.946,-188.491 224.614,-193.508 235.037,-195.406 233.946,-188.491"/>
</g>
<!-- Node62 -->
<g id="node6" class="node"><title>Node62</title>
<g id="a_node6"><a xlink:href="../../da/d01/namespacemom.html#afebdc0103ad9cbe0ed4a54e522dc4104" target="_top" xlink:title="This subroutine initializes MOM. ">
<polygon fill="white" stroke="black" points="561,-168 561,-187 650,-187 650,-168 561,-168"/>
<text text-anchor="middle" x="605.5" y="-175" font-family="Helvetica,sans-Serif" font-size="10.00">mom::initialize_mom</text>
</a>
</g>
</g>
<!-- Node61&#45;&gt;Node62 -->
<g id="edge5" class="edge"><title>Node61&#45;&gt;Node62</title>
<path fill="none" stroke="midnightblue" d="M387.842,-177.5C439.841,-177.5 513.948,-177.5 560.614,-177.5"/>
<polygon fill="midnightblue" stroke="midnightblue" points="387.752,-174 377.752,-177.5 387.752,-181 387.752,-174"/>
</g>
<!-- Node63 -->
<g id="node7" class="node"><title>Node63</title>
<g id="a_node7"><a xlink:href="../../de/dbc/MOM__driver_8F90.html#a08fffeb2d8e8acbf9ed4609be6d258c6" target="_top" xlink:title="mom_main">
<polygon fill="white" stroke="black" points="686,-168 686,-187 742,-187 742,-168 686,-168"/>
<text text-anchor="middle" x="714" y="-175" font-family="Helvetica,sans-Serif" font-size="10.00">mom_main</text>
</a>
</g>
</g>
<!-- Node62&#45;&gt;Node63 -->
<g id="edge6" class="edge"><title>Node62&#45;&gt;Node63</title>
<path fill="none" stroke="midnightblue" d="M660.407,-177.5C669.206,-177.5 677.981,-177.5 685.771,-177.5"/>
<polygon fill="midnightblue" stroke="midnightblue" points="660.125,-174 650.125,-177.5 660.125,-181 660.125,-174"/>
</g>
<!-- Node66 -->
<g id="node10" class="node"><title>Node66</title>
<g id="a_node10"><a xlink:href="../../d3/da8/namespacemom__fixed__initialization.html#a4f19c092d796f0cbb036c96575299b11" target="_top" xlink:title="mom_fixed_initialization\l::mom_initialize_topography">
<polygon fill="white" stroke="black" points="269,-247.5 269,-277.5 385,-277.5 385,-247.5 269,-247.5"/>
<text text-anchor="start" x="277" y="-265.5" font-family="Helvetica,sans-Serif" font-size="10.00">mom_fixed_initialization</text>
<text text-anchor="middle" x="327" y="-254.5" font-family="Helvetica,sans-Serif" font-size="10.00">::mom_initialize_topography</text>
</a>
</g>
</g>
<!-- Node65&#45;&gt;Node66 -->
<g id="edge9" class="edge"><title>Node65&#45;&gt;Node66</title>
<path fill="none" stroke="midnightblue" d="M239.462,-283.565C249.292,-281.172 259.362,-278.721 268.997,-276.376"/>
<polygon fill="midnightblue" stroke="midnightblue" points="238.625,-280.167 229.736,-285.933 240.28,-286.968 238.625,-280.167"/>
</g>
<!-- Node67 -->
<g id="node11" class="node"><title>Node67</title>
<g id="a_node11"><a xlink:href="../../d3/da8/namespacemom__fixed__initialization.html#adce0d050de4be34a2dc4fa39b49b8c27" target="_top" xlink:title="MOM_initialize_fixed sets up time&#45;invariant quantities related to MOM6&#39;s horizontal grid...">
<polygon fill="white" stroke="black" points="423,-226.5 423,-256.5 523,-256.5 523,-226.5 423,-226.5"/>
<text text-anchor="start" x="431" y="-244.5" font-family="Helvetica,sans-Serif" font-size="10.00">mom_fixed_initialization</text>
<text text-anchor="middle" x="473" y="-233.5" font-family="Helvetica,sans-Serif" font-size="10.00">::mom_initialize_fixed</text>
</a>
</g>
</g>
<!-- Node66&#45;&gt;Node67 -->
<g id="edge10" class="edge"><title>Node66&#45;&gt;Node67</title>
<path fill="none" stroke="midnightblue" d="M395.3,-252.685C404.557,-251.335 413.917,-249.97 422.766,-248.68"/>
<polygon fill="midnightblue" stroke="midnightblue" points="394.717,-249.233 385.326,-254.14 395.727,-256.16 394.717,-249.233"/>
</g>
<!-- Node67&#45;&gt;Node62 -->
<g id="edge11" class="edge"><title>Node67&#45;&gt;Node62</title>
<path fill="none" stroke="midnightblue" d="M513.69,-222.035C537.321,-210.446 566.264,-196.252 585.028,-187.05"/>
<polygon fill="midnightblue" stroke="midnightblue" points="512.034,-218.949 504.596,-226.495 515.116,-225.234 512.034,-218.949"/>
</g>
<!-- Node70 -->
<g id="node14" class="node"><title>Node70</title>
<g id="a_node14"><a xlink:href="../../de/d88/namespacemom__coord__initialization.html#a6e2f4c11bc99476ea9c64a9aceac3b81" target="_top" xlink:title="MOM_initialize_coord sets up time&#45;invariant quantities related to MOM6&#39;s vertical coordinate...">
<polygon fill="white" stroke="black" points="421,-104.5 421,-134.5 525,-134.5 525,-104.5 421,-104.5"/>
<text text-anchor="start" x="429" y="-122.5" font-family="Helvetica,sans-Serif" font-size="10.00">mom_coord_initialization</text>
<text text-anchor="middle" x="473" y="-111.5" font-family="Helvetica,sans-Serif" font-size="10.00">::mom_initialize_coord</text>
</a>
</g>
</g>
<!-- Node69&#45;&gt;Node70 -->
<g id="edge14" class="edge"><title>Node69&#45;&gt;Node70</title>
<path fill="none" stroke="midnightblue" d="M376.03,-110.17C390.435,-111.57 406.286,-113.111 420.883,-114.53"/>
<polygon fill="midnightblue" stroke="midnightblue" points="376.126,-106.663 365.834,-109.178 375.449,-113.63 376.126,-106.663"/>
</g>
<!-- Node70&#45;&gt;Node62 -->
<g id="edge15" class="edge"><title>Node70&#45;&gt;Node62</title>
<path fill="none" stroke="midnightblue" d="M517.143,-138.675C539.231,-148.491 565.151,-160.011 582.988,-167.939"/>
<polygon fill="midnightblue" stroke="midnightblue" points="518.506,-135.451 507.947,-134.587 515.663,-141.847 518.506,-135.451"/>
</g>
<!-- Node71&#45;&gt;Node61 -->
<g id="edge17" class="edge"><title>Node71&#45;&gt;Node61</title>
<path fill="none" stroke="midnightblue" d="M221.991,-122.517C225.737,-124.155 229.443,-125.826 233,-127.5 255.89,-138.271 281.126,-151.959 299.528,-162.289"/>
<polygon fill="midnightblue" stroke="midnightblue" points="223.231,-119.241 212.66,-118.533 220.482,-125.679 223.231,-119.241"/>
</g>
</g>
</svg>
