<?xml version="1.0" encoding="UTF-8" standalone="no"?>
<!DOCTYPE svg PUBLIC "-//W3C//DTD SVG 1.1//EN"
 "http://www.w3.org/Graphics/SVG/1.1/DTD/svg11.dtd">
<!-- Generated by graphviz version 2.38.0 (20140413.2041)
 -->
<!-- Title: mom_pressureforce_mont::pressureforce_mont_init Pages: 1 -->
<svg width="383pt" height="218pt"
 viewBox="0.00 0.00 383.00 218.00" xmlns="http://www.w3.org/2000/svg" xmlns:xlink="http://www.w3.org/1999/xlink">
<g id="graph0" class="graph" transform="scale(1 1) rotate(0) translate(4 214)">
<title>mom_pressureforce_mont::pressureforce_mont_init</title>
<polygon fill="white" stroke="none" points="-4,4 -4,-214 379,-214 379,4 -4,4"/>
<!-- Node13 -->
<g id="node1" class="node"><title>Node13</title>
<polygon fill="#bfbfbf" stroke="black" points="0,-87 0,-117 111,-117 111,-87 0,-87"/>
<text text-anchor="start" x="8" y="-105" font-family="Helvetica,sans-Serif" font-size="10.00">mom_pressureforce_mont</text>
<text text-anchor="middle" x="55.5" y="-94" font-family="Helvetica,sans-Serif" font-size="10.00">::pressureforce_mont_init</text>
</g>
<!-- Node14 -->
<g id="node2" class="node"><title>Node14</title>
<g id="a_node2"><a xlink:href="../../d6/d5c/namespacemom__pressureforce.html#ab0d856d60f21ad22c3c99f65af8daa92" target="_top" xlink:title="mom_pressureforce::\lpressureforce_init">
<polygon fill="white" stroke="black" points="147,-87 147,-117 240,-117 240,-87 147,-87"/>
<text text-anchor="start" x="155" y="-105" font-family="Helvetica,sans-Serif" font-size="10.00">mom_pressureforce::</text>
<text text-anchor="middle" x="193.5" y="-94" font-family="Helvetica,sans-Serif" font-size="10.00">pressureforce_init</text>
</a>
</g>
</g>
<!-- Node13&#45;&gt;Node14 -->
<g id="edge1" class="edge"><title>Node13&#45;&gt;Node14</title>
<path fill="none" stroke="midnightblue" d="M121.11,-102C129.751,-102 138.466,-102 146.694,-102"/>
<polygon fill="midnightblue" stroke="midnightblue" points="121.033,-98.5001 111.033,-102 121.033,-105.5 121.033,-98.5001"/>
</g>
<!-- Node15 -->
<g id="node3" class="node"><title>Node15</title>
<g id="a_node3"><a xlink:href="../../db/dd4/namespacemom__dynamics__legacy__split.html#aef55fe2e12672940edbd2dc5d7e72fd7" target="_top" xlink:title="mom_dynamics_legacy\l_split::initialize_dyn\l_legacy_split">
<polygon fill="white" stroke="black" points="276,-168.5 276,-209.5 375,-209.5 375,-168.5 276,-168.5"/>
<text text-anchor="start" x="284" y="-197.5" font-family="Helvetica,sans-Serif" font-size="10.00">mom_dynamics_legacy</text>
<text text-anchor="start" x="284" y="-186.5" font-family="Helvetica,sans-Serif" font-size="10.00">_split::initialize_dyn</text>
<text text-anchor="middle" x="325.5" y="-175.5" font-family="Helvetica,sans-Serif" font-size="10.00">_legacy_split</text>
</a>
</g>
</g>
<!-- Node14&#45;&gt;Node15 -->
<g id="edge2" class="edge"><title>Node14&#45;&gt;Node15</title>
<path fill="none" stroke="midnightblue" d="M223.95,-123.195C239.32,-134.104 258.518,-147.493 276,-159 280.714,-162.103 285.733,-165.311 290.688,-168.424"/>
<polygon fill="midnightblue" stroke="midnightblue" points="225.56,-120.045 215.385,-117.092 221.497,-125.746 225.56,-120.045"/>
</g>
<!-- Node16 -->
<g id="node4" class="node"><title>Node16</title>
<g id="a_node4"><a xlink:href="../../d1/dc3/namespacemom__dynamics__split__rk2.html#a3bae09afc9136333ab281704dc9d9415" target="_top" xlink:title="This subroutine initializes all of the variables that are used by this dynamic core, including diagnostics and the cpu clocks. ">
<polygon fill="white" stroke="black" points="280.5,-108.5 280.5,-149.5 370.5,-149.5 370.5,-108.5 280.5,-108.5"/>
<text text-anchor="start" x="288.5" y="-137.5" font-family="Helvetica,sans-Serif" font-size="10.00">mom_dynamics_split</text>
<text text-anchor="start" x="288.5" y="-126.5" font-family="Helvetica,sans-Serif" font-size="10.00">_rk2::initialize_dyn</text>
<text text-anchor="middle" x="325.5" y="-115.5" font-family="Helvetica,sans-Serif" font-size="10.00">_split_rk2</text>
</a>
</g>
</g>
<!-- Node14&#45;&gt;Node16 -->
<g id="edge3" class="edge"><title>Node14&#45;&gt;Node16</title>
<path fill="none" stroke="midnightblue" d="M250.266,-113.582C260.337,-115.674 270.709,-117.828 280.39,-119.839"/>
<polygon fill="midnightblue" stroke="midnightblue" points="250.836,-110.126 240.333,-111.519 249.412,-116.98 250.836,-110.126"/>
</g>
<!-- Node17 -->
<g id="node5" class="node"><title>Node17</title>
<g id="a_node5"><a xlink:href="../../d7/d44/namespacemom__dynamics__unsplit.html#ac557a7a55605cba7a17074f6375107f6" target="_top" xlink:title="mom_dynamics_unsplit\l::initialize_dyn_unsplit">
<polygon fill="white" stroke="black" points="276,-60 276,-90 375,-90 375,-60 276,-60"/>
<text text-anchor="start" x="284" y="-78" font-family="Helvetica,sans-Serif" font-size="10.00">mom_dynamics_unsplit</text>
<text text-anchor="middle" x="325.5" y="-67" font-family="Helvetica,sans-Serif" font-size="10.00">::initialize_dyn_unsplit</text>
</a>
</g>
</g>
<!-- Node14&#45;&gt;Node17 -->
<g id="edge4" class="edge"><title>Node14&#45;&gt;Node17</title>
<path fill="none" stroke="midnightblue" d="M250.252,-90.4207C258.819,-88.6415 267.604,-86.8169 275.996,-85.0739"/>
<polygon fill="midnightblue" stroke="midnightblue" points="249.412,-87.0203 240.333,-92.4808 250.836,-93.8741 249.412,-87.0203"/>
</g>
<!-- Node18 -->
<g id="node6" class="node"><title>Node18</title>
<g id="a_node6"><a xlink:href="../../d7/da4/namespacemom__dynamics__unsplit__rk2.html#a7be251effa3bf4a236ea3feda6fc6d91" target="_top" xlink:title="mom_dynamics_unsplit\l_rk2::initialize_dyn\l_unsplit_rk2">
<polygon fill="white" stroke="black" points="276,-0.5 276,-41.5 375,-41.5 375,-0.5 276,-0.5"/>
<text text-anchor="start" x="284" y="-29.5" font-family="Helvetica,sans-Serif" font-size="10.00">mom_dynamics_unsplit</text>
<text text-anchor="start" x="284" y="-18.5" font-family="Helvetica,sans-Serif" font-size="10.00">_rk2::initialize_dyn</text>
<text text-anchor="middle" x="325.5" y="-7.5" font-family="Helvetica,sans-Serif" font-size="10.00">_unsplit_rk2</text>
</a>
</g>
</g>
<!-- Node14&#45;&gt;Node18 -->
<g id="edge5" class="edge"><title>Node14&#45;&gt;Node18</title>
<path fill="none" stroke="midnightblue" d="M227.537,-81.2722C242.347,-71.9944 260.038,-60.9306 276,-51 280.876,-47.9665 286.032,-44.7676 291.091,-41.634"/>
<polygon fill="midnightblue" stroke="midnightblue" points="225.344,-78.5159 218.729,-86.7921 229.062,-84.4474 225.344,-78.5159"/>
</g>
</g>
</svg>
