<?xml version="1.0" encoding="UTF-8" standalone="no"?>
<!DOCTYPE svg PUBLIC "-//W3C//DTD SVG 1.1//EN"
 "http://www.w3.org/Graphics/SVG/1.1/DTD/svg11.dtd">
<!-- Generated by graphviz version 2.38.0 (20140413.2041)
 -->
<!-- Title: mom_eos::eos_init Pages: 1 -->
<svg width="357pt" height="225pt"
 viewBox="0.00 0.00 357.00 224.50" xmlns="http://www.w3.org/2000/svg" xmlns:xlink="http://www.w3.org/1999/xlink">
<g id="graph0" class="graph" transform="scale(1 1) rotate(0) translate(4 220.5)">
<title>mom_eos::eos_init</title>
<polygon fill="white" stroke="none" points="-4,4 -4,-220.5 353,-220.5 353,4 -4,4"/>
<!-- Node110 -->
<g id="node1" class="node"><title>Node110</title>
<polygon fill="#bfbfbf" stroke="black" points="0,-104 0,-123 83,-123 83,-104 0,-104"/>
<text text-anchor="middle" x="41.5" y="-111" font-family="Helvetica,sans-Serif" font-size="10.00">mom_eos::eos_init</text>
</g>
<!-- Node111 -->
<g id="node2" class="node"><title>Node111</title>
<g id="a_node2"><a xlink:href="../../d1/d01/namespacemom__eos.html#a1108fb5de7a69d01746df3995f7e3f0d" target="_top" xlink:title="Allocates EOS_type. ">
<polygon fill="white" stroke="black" points="119,-197 119,-216 220,-216 220,-197 119,-197"/>
<text text-anchor="middle" x="169.5" y="-204" font-family="Helvetica,sans-Serif" font-size="10.00">mom_eos::eos_allocate</text>
</a>
</g>
</g>
<!-- Node110&#45;&gt;Node111 -->
<g id="edge1" class="edge"><title>Node110&#45;&gt;Node111</title>
<path fill="none" stroke="midnightblue" d="M50.447,-123.43C63.3544,-138.989 90.3323,-169.22 119,-187.5 121.961,-189.388 125.14,-191.136 128.405,-192.743"/>
<polygon fill="midnightblue" stroke="midnightblue" points="127.167,-196.023 137.726,-196.898 130.017,-189.63 127.167,-196.023"/>
</g>
<!-- Node112 -->
<g id="node3" class="node"><title>Node112</title>
<g id="a_node3"><a xlink:href="../../d9/def/namespacemom__file__parser.html#a17c0ef1bb1912f02faa0aaa1e0f64210" target="_top" xlink:title="mom_file_parser::log\l_version">
<polygon fill="white" stroke="black" points="123.5,-147.5 123.5,-177.5 215.5,-177.5 215.5,-147.5 123.5,-147.5"/>
<text text-anchor="start" x="131.5" y="-165.5" font-family="Helvetica,sans-Serif" font-size="10.00">mom_file_parser::log</text>
<text text-anchor="middle" x="169.5" y="-154.5" font-family="Helvetica,sans-Serif" font-size="10.00">_version</text>
</a>
</g>
</g>
<!-- Node110&#45;&gt;Node112 -->
<g id="edge2" class="edge"><title>Node110&#45;&gt;Node112</title>
<path fill="none" stroke="midnightblue" d="M67.0932,-123.064C82.0792,-128.892 101.754,-136.543 119.781,-143.554"/>
<polygon fill="midnightblue" stroke="midnightblue" points="118.998,-147.005 129.587,-147.367 121.536,-140.481 118.998,-147.005"/>
</g>
<!-- Node114 -->
<g id="node5" class="node"><title>Node114</title>
<g id="a_node5"><a xlink:href="../../d0/de6/namespacemom__error__handler.html#a460cfb79a06c29fc249952c2a3710d67" target="_top" xlink:title="mom_error_handler::\lmom_error">
<polygon fill="white" stroke="black" points="123,-98.5 123,-128.5 216,-128.5 216,-98.5 123,-98.5"/>
<text text-anchor="start" x="131" y="-116.5" font-family="Helvetica,sans-Serif" font-size="10.00">mom_error_handler::</text>
<text text-anchor="middle" x="169.5" y="-105.5" font-family="Helvetica,sans-Serif" font-size="10.00">mom_error</text>
</a>
</g>
</g>
<!-- Node110&#45;&gt;Node114 -->
<g id="edge4" class="edge"><title>Node110&#45;&gt;Node114</title>
<path fill="none" stroke="midnightblue" d="M83.0608,-113.5C92.4581,-113.5 102.622,-113.5 112.549,-113.5"/>
<polygon fill="midnightblue" stroke="midnightblue" points="112.766,-117 122.766,-113.5 112.766,-110 112.766,-117"/>
</g>
<!-- Node115 -->
<g id="node6" class="node"><title>Node115</title>
<g id="a_node6"><a xlink:href="../../d0/de6/namespacemom__error__handler.html#a1c462df7b61f1296407b4af51dfeceab" target="_top" xlink:title="mom_error_handler::\lmom_mesg">
<polygon fill="white" stroke="black" points="123,-49.5 123,-79.5 216,-79.5 216,-49.5 123,-49.5"/>
<text text-anchor="start" x="131" y="-67.5" font-family="Helvetica,sans-Serif" font-size="10.00">mom_error_handler::</text>
<text text-anchor="middle" x="169.5" y="-56.5" font-family="Helvetica,sans-Serif" font-size="10.00">mom_mesg</text>
</a>
</g>
</g>
<!-- Node110&#45;&gt;Node115 -->
<g id="edge6" class="edge"><title>Node110&#45;&gt;Node115</title>
<path fill="none" stroke="midnightblue" d="M67.0932,-103.936C82.0792,-98.1081 101.754,-90.4569 119.781,-83.4461"/>
<polygon fill="midnightblue" stroke="midnightblue" points="121.536,-86.5193 129.587,-79.6328 118.998,-79.9953 121.536,-86.5193"/>
</g>
<!-- Node116 -->
<g id="node7" class="node"><title>Node116</title>
<g id="a_node7"><a xlink:href="../../df/d46/namespacemom__string__functions.html#aca148baf726de2f028b7e7baad3c85d4" target="_top" xlink:title="mom_string_functions\l::uppercase">
<polygon fill="white" stroke="black" points="122,-0.5 122,-30.5 217,-30.5 217,-0.5 122,-0.5"/>
<text text-anchor="start" x="130" y="-18.5" font-family="Helvetica,sans-Serif" font-size="10.00">mom_string_functions</text>
<text text-anchor="middle" x="169.5" y="-7.5" font-family="Helvetica,sans-Serif" font-size="10.00">::uppercase</text>
</a>
</g>
</g>
<!-- Node110&#45;&gt;Node116 -->
<g id="edge8" class="edge"><title>Node110&#45;&gt;Node116</title>
<path fill="none" stroke="midnightblue" d="M50.9195,-103.805C64.2575,-88.8548 91.5574,-59.8784 119,-40.5 121.359,-38.834 123.845,-37.2151 126.396,-35.6552"/>
<polygon fill="midnightblue" stroke="midnightblue" points="128.291,-38.6037 135.228,-30.596 124.811,-32.5297 128.291,-38.6037"/>
</g>
<!-- Node113 -->
<g id="node4" class="node"><title>Node113</title>
<g id="a_node4"><a xlink:href="../../d0/de6/namespacemom__error__handler.html#ad5f00a53059c72fe2332d1436c80ca71" target="_top" xlink:title="mom_error_handler::\lis_root_pe">
<polygon fill="white" stroke="black" points="256,-98.5 256,-128.5 349,-128.5 349,-98.5 256,-98.5"/>
<text text-anchor="start" x="264" y="-116.5" font-family="Helvetica,sans-Serif" font-size="10.00">mom_error_handler::</text>
<text text-anchor="middle" x="302.5" y="-105.5" font-family="Helvetica,sans-Serif" font-size="10.00">is_root_pe</text>
</a>
</g>
</g>
<!-- Node112&#45;&gt;Node113 -->
<g id="edge3" class="edge"><title>Node112&#45;&gt;Node113</title>
<path fill="none" stroke="midnightblue" d="M210.873,-147.399C223.698,-142.601 238.038,-137.238 251.459,-132.218"/>
<polygon fill="midnightblue" stroke="midnightblue" points="252.895,-135.418 261.035,-128.636 250.442,-128.861 252.895,-135.418"/>
</g>
<!-- Node114&#45;&gt;Node113 -->
<g id="edge5" class="edge"><title>Node114&#45;&gt;Node113</title>
<path fill="none" stroke="midnightblue" d="M216.317,-113.5C225.846,-113.5 235.987,-113.5 245.825,-113.5"/>
<polygon fill="midnightblue" stroke="midnightblue" points="245.93,-117 255.93,-113.5 245.93,-110 245.93,-117"/>
</g>
<!-- Node115&#45;&gt;Node113 -->
<g id="edge7" class="edge"><title>Node115&#45;&gt;Node113</title>
<path fill="none" stroke="midnightblue" d="M210.873,-79.6014C223.698,-84.3985 238.038,-89.7622 251.459,-94.7823"/>
<polygon fill="midnightblue" stroke="midnightblue" points="250.442,-98.1388 261.035,-98.3641 252.895,-91.5824 250.442,-98.1388"/>
</g>
</g>
</svg>
