<?xml version="1.0" encoding="UTF-8" standalone="no"?>
<!DOCTYPE svg PUBLIC "-//W3C//DTD SVG 1.1//EN"
 "http://www.w3.org/Graphics/SVG/1.1/DTD/svg11.dtd">
<!-- Generated by graphviz version 2.38.0 (20140413.2041)
 -->
<!-- Title: mom_eos::int_specific_vol_dp Pages: 1 -->
<svg width="368pt" height="186pt"
 viewBox="0.00 0.00 368.00 186.00" xmlns="http://www.w3.org/2000/svg" xmlns:xlink="http://www.w3.org/1999/xlink">
<g id="graph0" class="graph" transform="scale(1 1) rotate(0) translate(4 182)">
<title>mom_eos::int_specific_vol_dp</title>
<polygon fill="white" stroke="none" points="-4,4 -4,-182 364,-182 364,4 -4,4"/>
<!-- Node199 -->
<g id="node1" class="node"><title>Node199</title>
<polygon fill="#bfbfbf" stroke="black" points="0,-73.5 0,-103.5 95,-103.5 95,-73.5 0,-73.5"/>
<text text-anchor="start" x="8" y="-91.5" font-family="Helvetica,sans-Serif" font-size="10.00">mom_eos::int_specific</text>
<text text-anchor="middle" x="47.5" y="-80.5" font-family="Helvetica,sans-Serif" font-size="10.00">_vol_dp</text>
</g>
<!-- Node200 -->
<g id="node2" class="node"><title>Node200</title>
<g id="a_node2"><a xlink:href="../../d1/d01/namespacemom__eos.html#ad2e95a70c19e0b162785fb213d63ed52" target="_top" xlink:title="mom_eos::int_spec_vol\l_dp_generic">
<polygon fill="white" stroke="black" points="131,-147.5 131,-177.5 231,-177.5 231,-147.5 131,-147.5"/>
<text text-anchor="start" x="139" y="-165.5" font-family="Helvetica,sans-Serif" font-size="10.00">mom_eos::int_spec_vol</text>
<text text-anchor="middle" x="181" y="-154.5" font-family="Helvetica,sans-Serif" font-size="10.00">_dp_generic</text>
</a>
</g>
</g>
<!-- Node199&#45;&gt;Node200 -->
<g id="edge1" class="edge"><title>Node199&#45;&gt;Node200</title>
<path fill="none" stroke="midnightblue" d="M71.9988,-103.512C88.3297,-113.753 110.719,-127.416 131,-138.5 133.657,-139.952 136.415,-141.416 139.207,-142.866"/>
<polygon fill="midnightblue" stroke="midnightblue" points="137.657,-146.004 148.157,-147.418 140.83,-139.765 137.657,-146.004"/>
</g>
<!-- Node201 -->
<g id="node3" class="node"><title>Node201</title>
<g id="a_node3"><a xlink:href="../../d5/de6/namespacemom__eos__linear.html#ab1bb6ff722de713745ddf80a834a82b7" target="_top" xlink:title="mom_eos_linear::int\l_spec_vol_dp_linear">
<polygon fill="white" stroke="black" points="136.5,-98.5 136.5,-128.5 225.5,-128.5 225.5,-98.5 136.5,-98.5"/>
<text text-anchor="start" x="144.5" y="-116.5" font-family="Helvetica,sans-Serif" font-size="10.00">mom_eos_linear::int</text>
<text text-anchor="middle" x="181" y="-105.5" font-family="Helvetica,sans-Serif" font-size="10.00">_spec_vol_dp_linear</text>
</a>
</g>
</g>
<!-- Node199&#45;&gt;Node201 -->
<g id="edge2" class="edge"><title>Node199&#45;&gt;Node201</title>
<path fill="none" stroke="midnightblue" d="M95.2322,-97.3845C105.309,-99.3002 116.038,-101.34 126.355,-103.301"/>
<polygon fill="midnightblue" stroke="midnightblue" points="126.017,-106.8 136.495,-105.229 127.325,-99.9229 126.017,-106.8"/>
</g>
<!-- Node202 -->
<g id="node4" class="node"><title>Node202</title>
<g id="a_node4"><a xlink:href="../../de/d76/namespacemom__eos__wright.html#aeebb566af08f2b00a35d391395e62750" target="_top" xlink:title="mom_eos_wright::int\l_spec_vol_dp_wright">
<polygon fill="white" stroke="black" points="135,-49.5 135,-79.5 227,-79.5 227,-49.5 135,-49.5"/>
<text text-anchor="start" x="143" y="-67.5" font-family="Helvetica,sans-Serif" font-size="10.00">mom_eos_wright::int</text>
<text text-anchor="middle" x="181" y="-56.5" font-family="Helvetica,sans-Serif" font-size="10.00">_spec_vol_dp_wright</text>
</a>
</g>
</g>
<!-- Node199&#45;&gt;Node202 -->
<g id="edge3" class="edge"><title>Node199&#45;&gt;Node202</title>
<path fill="none" stroke="midnightblue" d="M95.2322,-79.9709C104.766,-78.231 114.883,-76.3845 124.683,-74.596"/>
<polygon fill="midnightblue" stroke="midnightblue" points="125.533,-77.9986 134.742,-72.76 124.276,-71.1124 125.533,-77.9986"/>
</g>
<!-- Node203 -->
<g id="node5" class="node"><title>Node203</title>
<g id="a_node5"><a xlink:href="../../d0/de6/namespacemom__error__handler.html#a460cfb79a06c29fc249952c2a3710d67" target="_top" xlink:title="mom_error_handler::\lmom_error">
<polygon fill="white" stroke="black" points="134.5,-0.5 134.5,-30.5 227.5,-30.5 227.5,-0.5 134.5,-0.5"/>
<text text-anchor="start" x="142.5" y="-18.5" font-family="Helvetica,sans-Serif" font-size="10.00">mom_error_handler::</text>
<text text-anchor="middle" x="181" y="-7.5" font-family="Helvetica,sans-Serif" font-size="10.00">mom_error</text>
</a>
</g>
</g>
<!-- Node199&#45;&gt;Node203 -->
<g id="edge4" class="edge"><title>Node199&#45;&gt;Node203</title>
<path fill="none" stroke="midnightblue" d="M73.5702,-73.431C89.8165,-63.786 111.507,-51.1331 131,-40.5 134.207,-38.7507 137.549,-36.9661 140.915,-35.1957"/>
<polygon fill="midnightblue" stroke="midnightblue" points="142.544,-38.2938 149.803,-30.5767 139.316,-32.0826 142.544,-38.2938"/>
</g>
<!-- Node204 -->
<g id="node6" class="node"><title>Node204</title>
<g id="a_node6"><a xlink:href="../../d0/de6/namespacemom__error__handler.html#ad5f00a53059c72fe2332d1436c80ca71" target="_top" xlink:title="mom_error_handler::\lis_root_pe">
<polygon fill="white" stroke="black" points="267,-0.5 267,-30.5 360,-30.5 360,-0.5 267,-0.5"/>
<text text-anchor="start" x="275" y="-18.5" font-family="Helvetica,sans-Serif" font-size="10.00">mom_error_handler::</text>
<text text-anchor="middle" x="313.5" y="-7.5" font-family="Helvetica,sans-Serif" font-size="10.00">is_root_pe</text>
</a>
</g>
</g>
<!-- Node203&#45;&gt;Node204 -->
<g id="edge5" class="edge"><title>Node203&#45;&gt;Node204</title>
<path fill="none" stroke="midnightblue" d="M227.643,-15.5C236.927,-15.5 246.795,-15.5 256.393,-15.5"/>
<polygon fill="midnightblue" stroke="midnightblue" points="256.663,-19.0001 266.663,-15.5 256.663,-12.0001 256.663,-19.0001"/>
</g>
</g>
</svg>
