<?xml version="1.0" encoding="UTF-8" standalone="no"?>
<!DOCTYPE svg PUBLIC "-//W3C//DTD SVG 1.1//EN"
 "http://www.w3.org/Graphics/SVG/1.1/DTD/svg11.dtd">
<!-- Generated by graphviz version 2.38.0 (20140413.2041)
 -->
<!-- Title: mom_eos::eos_init Pages: 1 -->
<svg width="320pt" height="78pt"
 viewBox="0.00 0.00 320.00 77.50" xmlns="http://www.w3.org/2000/svg" xmlns:xlink="http://www.w3.org/1999/xlink">
<g id="graph0" class="graph" transform="scale(1 1) rotate(0) translate(4 73.5)">
<title>mom_eos::eos_init</title>
<polygon fill="white" stroke="none" points="-4,4 -4,-73.5 316,-73.5 316,4 -4,4"/>
<!-- Node117 -->
<g id="node1" class="node"><title>Node117</title>
<polygon fill="#bfbfbf" stroke="black" points="0,-22.5 0,-41.5 83,-41.5 83,-22.5 0,-22.5"/>
<text text-anchor="middle" x="41.5" y="-29.5" font-family="Helvetica,sans-Serif" font-size="10.00">mom_eos::eos_init</text>
</g>
<!-- Node118 -->
<g id="node2" class="node"><title>Node118</title>
<g id="a_node2"><a xlink:href="../../df/da2/namespacemom__ice__shelf.html#ae315e8464ef8a20062e3bccb61886755" target="_top" xlink:title="mom_ice_shelf::initialize\l_ice_shelf">
<polygon fill="white" stroke="black" points="119,-39 119,-69 220,-69 220,-39 119,-39"/>
<text text-anchor="start" x="127" y="-57" font-family="Helvetica,sans-Serif" font-size="10.00">mom_ice_shelf::initialize</text>
<text text-anchor="middle" x="169.5" y="-46" font-family="Helvetica,sans-Serif" font-size="10.00">_ice_shelf</text>
</a>
</g>
</g>
<!-- Node117&#45;&gt;Node118 -->
<g id="edge1" class="edge"><title>Node117&#45;&gt;Node118</title>
<path fill="none" stroke="midnightblue" d="M93.1559,-40.8447C101.592,-42.3177 110.336,-43.8444 118.75,-45.3134"/>
<polygon fill="midnightblue" stroke="midnightblue" points="93.5138,-37.3543 83.0608,-39.082 92.3097,-44.25 93.5138,-37.3543"/>
</g>
<!-- Node121 -->
<g id="node5" class="node"><title>Node121</title>
<g id="a_node5"><a xlink:href="../../da/d01/namespacemom.html#afebdc0103ad9cbe0ed4a54e522dc4104" target="_top" xlink:title="This subroutine initializes MOM. ">
<polygon fill="white" stroke="black" points="125,-0.5 125,-19.5 214,-19.5 214,-0.5 125,-0.5"/>
<text text-anchor="middle" x="169.5" y="-7.5" font-family="Helvetica,sans-Serif" font-size="10.00">mom::initialize_mom</text>
</a>
</g>
</g>
<!-- Node117&#45;&gt;Node121 -->
<g id="edge4" class="edge"><title>Node117&#45;&gt;Node121</title>
<path fill="none" stroke="midnightblue" d="M93.0152,-23.1799C103.597,-21.3323 114.669,-19.3991 124.97,-17.6005"/>
<polygon fill="midnightblue" stroke="midnightblue" points="92.3097,-19.75 83.0608,-24.918 93.5138,-26.6457 92.3097,-19.75"/>
</g>
<!-- Node119 -->
<g id="node3" class="node"><title>Node119</title>
<g id="a_node3"><a xlink:href="../../d5/d6d/ice__shelf__driver_8F90.html#aec5bef92f0dad343f545cd8d62e378d8" target="_top" xlink:title="shelf_main">
<polygon fill="white" stroke="black" points="256.5,-44.5 256.5,-63.5 311.5,-63.5 311.5,-44.5 256.5,-44.5"/>
<text text-anchor="middle" x="284" y="-51.5" font-family="Helvetica,sans-Serif" font-size="10.00">shelf_main</text>
</a>
</g>
</g>
<!-- Node118&#45;&gt;Node119 -->
<g id="edge2" class="edge"><title>Node118&#45;&gt;Node119</title>
<path fill="none" stroke="midnightblue" d="M230.455,-54C239.56,-54 248.534,-54 256.419,-54"/>
<polygon fill="midnightblue" stroke="midnightblue" points="230.172,-50.5001 220.172,-54 230.172,-57.5001 230.172,-50.5001"/>
</g>
<!-- Node120 -->
<g id="node4" class="node"><title>Node120</title>
<g id="a_node4"><a xlink:href="../../de/dbc/MOM__driver_8F90.html#a08fffeb2d8e8acbf9ed4609be6d258c6" target="_top" xlink:title="mom_main">
<polygon fill="white" stroke="black" points="256,-3.5 256,-22.5 312,-22.5 312,-3.5 256,-3.5"/>
<text text-anchor="middle" x="284" y="-10.5" font-family="Helvetica,sans-Serif" font-size="10.00">mom_main</text>
</a>
</g>
</g>
<!-- Node118&#45;&gt;Node120 -->
<g id="edge3" class="edge"><title>Node118&#45;&gt;Node120</title>
<path fill="none" stroke="midnightblue" d="M221.438,-35.436C233.661,-30.9814 246.222,-26.4037 256.783,-22.5545"/>
<polygon fill="midnightblue" stroke="midnightblue" points="219.949,-32.2533 211.752,-38.9659 222.346,-38.8301 219.949,-32.2533"/>
</g>
<!-- Node121&#45;&gt;Node120 -->
<g id="edge5" class="edge"><title>Node121&#45;&gt;Node120</title>
<path fill="none" stroke="midnightblue" d="M224.585,-11.4423C235.382,-11.7302 246.286,-12.021 255.702,-12.272"/>
<polygon fill="midnightblue" stroke="midnightblue" points="224.407,-7.93638 214.318,-11.1685 224.221,-14.9339 224.407,-7.93638"/>
</g>
</g>
</svg>
