<?xml version="1.0" encoding="UTF-8" standalone="no"?>
<!DOCTYPE svg PUBLIC "-//W3C//DTD SVG 1.1//EN"
 "http://www.w3.org/Graphics/SVG/1.1/DTD/svg11.dtd">
<!-- Generated by graphviz version 2.38.0 (20140413.2041)
 -->
<!-- Title: mom_eos::evaluate_shape_quadratic Pages: 1 -->
<svg width="405pt" height="39pt"
 viewBox="0.00 0.00 405.00 39.00" xmlns="http://www.w3.org/2000/svg" xmlns:xlink="http://www.w3.org/1999/xlink">
<g id="graph0" class="graph" transform="scale(1 1) rotate(0) translate(4 35)">
<title>mom_eos::evaluate_shape_quadratic</title>
<polygon fill="white" stroke="none" points="-4,4 -4,-35 401,-35 401,4 -4,4"/>
<!-- Node133 -->
<g id="node1" class="node"><title>Node133</title>
<polygon fill="#bfbfbf" stroke="black" points="0,-0.5 0,-30.5 113,-30.5 113,-0.5 0,-0.5"/>
<text text-anchor="start" x="8" y="-18.5" font-family="Helvetica,sans-Serif" font-size="10.00">mom_eos::evaluate_shape</text>
<text text-anchor="middle" x="56.5" y="-7.5" font-family="Helvetica,sans-Serif" font-size="10.00">_quadratic</text>
</g>
<!-- Node134 -->
<g id="node2" class="node"><title>Node134</title>
<g id="a_node2"><a xlink:href="../../d1/d01/namespacemom__eos.html#ab9ad774110cfa4cb44666592ddcf689c" target="_top" xlink:title="mom_eos::compute_integral\l_quadratic">
<polygon fill="white" stroke="black" points="149,-0.5 149,-30.5 267,-30.5 267,-0.5 149,-0.5"/>
<text text-anchor="start" x="157" y="-18.5" font-family="Helvetica,sans-Serif" font-size="10.00">mom_eos::compute_integral</text>
<text text-anchor="middle" x="208" y="-7.5" font-family="Helvetica,sans-Serif" font-size="10.00">_quadratic</text>
</a>
</g>
</g>
<!-- Node133&#45;&gt;Node134 -->
<g id="edge1" class="edge"><title>Node133&#45;&gt;Node134</title>
<path fill="none" stroke="midnightblue" d="M123.383,-15.5C131.844,-15.5 140.458,-15.5 148.785,-15.5"/>
<polygon fill="midnightblue" stroke="midnightblue" points="123.168,-12.0001 113.168,-15.5 123.168,-19.0001 123.168,-12.0001"/>
</g>
<!-- Node135 -->
<g id="node3" class="node"><title>Node135</title>
<g id="a_node3"><a xlink:href="../../d1/d01/namespacemom__eos.html#a594df0f0a5756c77a5c7e5a5c2e36a20" target="_top" xlink:title="mom_eos::int_density\l_dz_generic_ppm">
<polygon fill="white" stroke="black" points="303,-0.5 303,-30.5 397,-30.5 397,-0.5 303,-0.5"/>
<text text-anchor="start" x="311" y="-18.5" font-family="Helvetica,sans-Serif" font-size="10.00">mom_eos::int_density</text>
<text text-anchor="middle" x="350" y="-7.5" font-family="Helvetica,sans-Serif" font-size="10.00">_dz_generic_ppm</text>
</a>
</g>
</g>
<!-- Node134&#45;&gt;Node135 -->
<g id="edge2" class="edge"><title>Node134&#45;&gt;Node135</title>
<path fill="none" stroke="midnightblue" d="M277.251,-15.5C285.891,-15.5 294.567,-15.5 302.751,-15.5"/>
<polygon fill="midnightblue" stroke="midnightblue" points="277.156,-12.0001 267.156,-15.5 277.156,-19.0001 277.156,-12.0001"/>
</g>
</g>
</svg>
