<?xml version="1.0" encoding="UTF-8" standalone="no"?>
<!DOCTYPE svg PUBLIC "-//W3C//DTD SVG 1.1//EN"
 "http://www.w3.org/Graphics/SVG/1.1/DTD/svg11.dtd">
<!-- Generated by graphviz version 2.38.0 (20140413.2041)
 -->
<!-- Title: mom_eos::int_specific_vol_dp Pages: 1 -->
<svg width="625pt" height="186pt"
 viewBox="0.00 0.00 625.00 186.00" xmlns="http://www.w3.org/2000/svg" xmlns:xlink="http://www.w3.org/1999/xlink">
<g id="graph0" class="graph" transform="scale(1 1) rotate(0) translate(4 182)">
<title>mom_eos::int_specific_vol_dp</title>
<polygon fill="white" stroke="none" points="-4,4 -4,-182 621,-182 621,4 -4,4"/>
<!-- Node205 -->
<g id="node1" class="node"><title>Node205</title>
<polygon fill="#bfbfbf" stroke="black" points="0,-73.5 0,-103.5 95,-103.5 95,-73.5 0,-73.5"/>
<text text-anchor="start" x="8" y="-91.5" font-family="Helvetica,sans-Serif" font-size="10.00">mom_eos::int_specific</text>
<text text-anchor="middle" x="47.5" y="-80.5" font-family="Helvetica,sans-Serif" font-size="10.00">_vol_dp</text>
</g>
<!-- Node206 -->
<g id="node2" class="node"><title>Node206</title>
<g id="a_node2"><a xlink:href="../../d6/d62/namespacemom__state__initialization.html#a32182e3f40271d73bf059c0d94b7da32" target="_top" xlink:title="mom_state_initialization\l::convert_thickness">
<polygon fill="white" stroke="black" points="146.5,-147.5 146.5,-177.5 247.5,-177.5 247.5,-147.5 146.5,-147.5"/>
<text text-anchor="start" x="154.5" y="-165.5" font-family="Helvetica,sans-Serif" font-size="10.00">mom_state_initialization</text>
<text text-anchor="middle" x="197" y="-154.5" font-family="Helvetica,sans-Serif" font-size="10.00">::convert_thickness</text>
</a>
</g>
</g>
<!-- Node205&#45;&gt;Node206 -->
<g id="edge1" class="edge"><title>Node205&#45;&gt;Node206</title>
<path fill="none" stroke="midnightblue" d="M79.4312,-109.18C94.5902,-118.808 113.345,-129.987 131,-138.5 137.61,-141.687 144.76,-144.718 151.818,-147.486"/>
<polygon fill="midnightblue" stroke="midnightblue" points="81.2592,-106.194 70.9568,-103.722 77.4689,-112.079 81.2592,-106.194"/>
</g>
<!-- Node210 -->
<g id="node6" class="node"><title>Node210</title>
<g id="a_node6"><a xlink:href="../../df/ddb/namespacemom__interface__heights.html#afbd50f85cffbd290c630c8241f3fc9df" target="_top" xlink:title="mom_interface_heights\l::find_eta_2d">
<polygon fill="white" stroke="black" points="147,-98.5 147,-128.5 247,-128.5 247,-98.5 147,-98.5"/>
<text text-anchor="start" x="155" y="-116.5" font-family="Helvetica,sans-Serif" font-size="10.00">mom_interface_heights</text>
<text text-anchor="middle" x="197" y="-105.5" font-family="Helvetica,sans-Serif" font-size="10.00">::find_eta_2d</text>
</a>
</g>
</g>
<!-- Node205&#45;&gt;Node210 -->
<g id="edge5" class="edge"><title>Node205&#45;&gt;Node210</title>
<path fill="none" stroke="midnightblue" d="M105.424,-98.1482C119.085,-100.464 133.559,-102.917 146.833,-105.167"/>
<polygon fill="midnightblue" stroke="midnightblue" points="105.614,-94.6305 95.1699,-96.4102 104.444,-101.532 105.614,-94.6305"/>
</g>
<!-- Node211 -->
<g id="node7" class="node"><title>Node211</title>
<g id="a_node7"><a xlink:href="../../df/ddb/namespacemom__interface__heights.html#a914e07fc2e023e8a0f31fd840ad19f13" target="_top" xlink:title="mom_interface_heights\l::find_eta_3d">
<polygon fill="white" stroke="black" points="147,-49.5 147,-79.5 247,-79.5 247,-49.5 147,-49.5"/>
<text text-anchor="start" x="155" y="-67.5" font-family="Helvetica,sans-Serif" font-size="10.00">mom_interface_heights</text>
<text text-anchor="middle" x="197" y="-56.5" font-family="Helvetica,sans-Serif" font-size="10.00">::find_eta_3d</text>
</a>
</g>
</g>
<!-- Node205&#45;&gt;Node211 -->
<g id="edge6" class="edge"><title>Node205&#45;&gt;Node211</title>
<path fill="none" stroke="midnightblue" d="M105.424,-79.2377C119.085,-77.015 133.559,-74.6599 146.833,-72.5"/>
<polygon fill="midnightblue" stroke="midnightblue" points="104.478,-75.8456 95.1699,-80.9062 105.602,-82.7547 104.478,-75.8456"/>
</g>
<!-- Node212 -->
<g id="node8" class="node"><title>Node212</title>
<g id="a_node8"><a xlink:href="../../d9/dc4/namespacemom__pressureforce__mont.html#af536642cd29fc7ad6465c4f277ff0764" target="_top" xlink:title="mom_pressureforce_mont\l::pressureforce_mont_nonbouss">
<polygon fill="white" stroke="black" points="131,-0.5 131,-30.5 263,-30.5 263,-0.5 131,-0.5"/>
<text text-anchor="start" x="139" y="-18.5" font-family="Helvetica,sans-Serif" font-size="10.00">mom_pressureforce_mont</text>
<text text-anchor="middle" x="197" y="-7.5" font-family="Helvetica,sans-Serif" font-size="10.00">::pressureforce_mont_nonbouss</text>
</a>
</g>
</g>
<!-- Node205&#45;&gt;Node212 -->
<g id="edge7" class="edge"><title>Node205&#45;&gt;Node212</title>
<path fill="none" stroke="midnightblue" d="M80.9832,-67.9862C95.9175,-58.9787 114.048,-48.6275 131,-40.5 138.305,-36.9979 146.238,-33.6166 153.971,-30.5326"/>
<polygon fill="midnightblue" stroke="midnightblue" points="78.8466,-65.19 72.1366,-73.3892 82.4951,-71.1639 78.8466,-65.19"/>
</g>
<!-- Node207 -->
<g id="node3" class="node"><title>Node207</title>
<g id="a_node3"><a xlink:href="../../d6/d62/namespacemom__state__initialization.html#af4e854627c6572332ba3fd895f169321" target="_top" xlink:title="mom_state_initialization\l::mom_initialize_state">
<polygon fill="white" stroke="black" points="299,-147.5 299,-177.5 400,-177.5 400,-147.5 299,-147.5"/>
<text text-anchor="start" x="307" y="-165.5" font-family="Helvetica,sans-Serif" font-size="10.00">mom_state_initialization</text>
<text text-anchor="middle" x="349.5" y="-154.5" font-family="Helvetica,sans-Serif" font-size="10.00">::mom_initialize_state</text>
</a>
</g>
</g>
<!-- Node206&#45;&gt;Node207 -->
<g id="edge2" class="edge"><title>Node206&#45;&gt;Node207</title>
<path fill="none" stroke="midnightblue" d="M257.911,-162.5C271.487,-162.5 285.759,-162.5 298.856,-162.5"/>
<polygon fill="midnightblue" stroke="midnightblue" points="257.696,-159 247.696,-162.5 257.696,-166 257.696,-159"/>
</g>
<!-- Node208 -->
<g id="node4" class="node"><title>Node208</title>
<g id="a_node4"><a xlink:href="../../da/d01/namespacemom.html#afebdc0103ad9cbe0ed4a54e522dc4104" target="_top" xlink:title="This subroutine initializes MOM. ">
<polygon fill="white" stroke="black" points="436,-153 436,-172 525,-172 525,-153 436,-153"/>
<text text-anchor="middle" x="480.5" y="-160" font-family="Helvetica,sans-Serif" font-size="10.00">mom::initialize_mom</text>
</a>
</g>
</g>
<!-- Node207&#45;&gt;Node208 -->
<g id="edge3" class="edge"><title>Node207&#45;&gt;Node208</title>
<path fill="none" stroke="midnightblue" d="M410.088,-162.5C418.755,-162.5 427.541,-162.5 435.815,-162.5"/>
<polygon fill="midnightblue" stroke="midnightblue" points="410.006,-159 400.006,-162.5 410.006,-166 410.006,-159"/>
</g>
<!-- Node209 -->
<g id="node5" class="node"><title>Node209</title>
<g id="a_node5"><a xlink:href="../../de/dbc/MOM__driver_8F90.html#a08fffeb2d8e8acbf9ed4609be6d258c6" target="_top" xlink:title="mom_main">
<polygon fill="white" stroke="black" points="561,-153 561,-172 617,-172 617,-153 561,-153"/>
<text text-anchor="middle" x="589" y="-160" font-family="Helvetica,sans-Serif" font-size="10.00">mom_main</text>
</a>
</g>
</g>
<!-- Node208&#45;&gt;Node209 -->
<g id="edge4" class="edge"><title>Node208&#45;&gt;Node209</title>
<path fill="none" stroke="midnightblue" d="M535.407,-162.5C544.206,-162.5 552.981,-162.5 560.771,-162.5"/>
<polygon fill="midnightblue" stroke="midnightblue" points="535.125,-159 525.125,-162.5 535.125,-166 535.125,-159"/>
</g>
</g>
</svg>
