<?xml version="1.0" encoding="UTF-8" standalone="no"?>
<!DOCTYPE svg PUBLIC "-//W3C//DTD SVG 1.1//EN"
 "http://www.w3.org/Graphics/SVG/1.1/DTD/svg11.dtd">
<!-- Generated by graphviz version 2.38.0 (20140413.2041)
 -->
<!-- Title: mom_eos::calculate_density_array Pages: 1 -->
<svg width="377pt" height="186pt"
 viewBox="0.00 0.00 377.00 186.00" xmlns="http://www.w3.org/2000/svg" xmlns:xlink="http://www.w3.org/1999/xlink">
<g id="graph0" class="graph" transform="scale(1 1) rotate(0) translate(4 182)">
<title>mom_eos::calculate_density_array</title>
<polygon fill="white" stroke="none" points="-4,4 -4,-182 373,-182 373,4 -4,4"/>
<!-- Node14 -->
<g id="node1" class="node"><title>Node14</title>
<polygon fill="#bfbfbf" stroke="black" points="0,-73.5 0,-103.5 87,-103.5 87,-73.5 0,-73.5"/>
<text text-anchor="start" x="8" y="-91.5" font-family="Helvetica,sans-Serif" font-size="10.00">mom_eos::calculate</text>
<text text-anchor="middle" x="43.5" y="-80.5" font-family="Helvetica,sans-Serif" font-size="10.00">_density_array</text>
</g>
<!-- Node15 -->
<g id="node2" class="node"><title>Node15</title>
<g id="a_node2"><a xlink:href="../../d5/de6/namespacemom__eos__linear.html#acbc446c55f65ed258e00bfa733a4c4d1" target="_top" xlink:title="mom_eos_linear::calculate\l_density_array_linear">
<polygon fill="white" stroke="black" points="126,-147.5 126,-177.5 237,-177.5 237,-147.5 126,-147.5"/>
<text text-anchor="start" x="134" y="-165.5" font-family="Helvetica,sans-Serif" font-size="10.00">mom_eos_linear::calculate</text>
<text text-anchor="middle" x="181.5" y="-154.5" font-family="Helvetica,sans-Serif" font-size="10.00">_density_array_linear</text>
</a>
</g>
</g>
<!-- Node14&#45;&gt;Node15 -->
<g id="edge1" class="edge"><title>Node14&#45;&gt;Node15</title>
<path fill="none" stroke="midnightblue" d="M65.8954,-103.544C81.3509,-114.056 102.948,-128.028 123,-138.5 126.065,-140.101 129.262,-141.676 132.509,-143.207"/>
<polygon fill="midnightblue" stroke="midnightblue" points="131.174,-146.445 141.726,-147.39 134.066,-140.071 131.174,-146.445"/>
</g>
<!-- Node16 -->
<g id="node3" class="node"><title>Node16</title>
<g id="a_node3"><a xlink:href="../../dd/d6b/namespacemom__eos__unesco.html#a2cc5b64d7214e8cd2701f4e952f6d1c1" target="_top" xlink:title="mom_eos_unesco::calculate\l_density_array_unesco">
<polygon fill="white" stroke="black" points="123,-98.5 123,-128.5 240,-128.5 240,-98.5 123,-98.5"/>
<text text-anchor="start" x="131" y="-116.5" font-family="Helvetica,sans-Serif" font-size="10.00">mom_eos_unesco::calculate</text>
<text text-anchor="middle" x="181.5" y="-105.5" font-family="Helvetica,sans-Serif" font-size="10.00">_density_array_unesco</text>
</a>
</g>
</g>
<!-- Node14&#45;&gt;Node16 -->
<g id="edge2" class="edge"><title>Node14&#45;&gt;Node16</title>
<path fill="none" stroke="midnightblue" d="M87.1581,-96.3416C95.2207,-97.8237 103.838,-99.4077 112.456,-100.992"/>
<polygon fill="midnightblue" stroke="midnightblue" points="112.072,-104.48 122.54,-102.846 113.338,-97.5953 112.072,-104.48"/>
</g>
<!-- Node17 -->
<g id="node4" class="node"><title>Node17</title>
<g id="a_node4"><a xlink:href="../../de/d76/namespacemom__eos__wright.html#a61a76e245f361e0b3583f866d00df40a" target="_top" xlink:title="mom_eos_wright::calculate\l_density_array_wright">
<polygon fill="white" stroke="black" points="125,-49.5 125,-79.5 238,-79.5 238,-49.5 125,-49.5"/>
<text text-anchor="start" x="133" y="-67.5" font-family="Helvetica,sans-Serif" font-size="10.00">mom_eos_wright::calculate</text>
<text text-anchor="middle" x="181.5" y="-56.5" font-family="Helvetica,sans-Serif" font-size="10.00">_density_array_wright</text>
</a>
</g>
</g>
<!-- Node14&#45;&gt;Node17 -->
<g id="edge3" class="edge"><title>Node14&#45;&gt;Node17</title>
<path fill="none" stroke="midnightblue" d="M87.1581,-80.9721C95.8536,-79.4376 105.194,-77.7893 114.485,-76.1496"/>
<polygon fill="midnightblue" stroke="midnightblue" points="115.275,-79.5644 124.515,-74.3797 114.059,-72.6709 115.275,-79.5644"/>
</g>
<!-- Node18 -->
<g id="node5" class="node"><title>Node18</title>
<g id="a_node5"><a xlink:href="../../d0/de6/namespacemom__error__handler.html#a460cfb79a06c29fc249952c2a3710d67" target="_top" xlink:title="mom_error_handler::\lmom_error">
<polygon fill="white" stroke="black" points="135,-0.5 135,-30.5 228,-30.5 228,-0.5 135,-0.5"/>
<text text-anchor="start" x="143" y="-18.5" font-family="Helvetica,sans-Serif" font-size="10.00">mom_error_handler::</text>
<text text-anchor="middle" x="181.5" y="-7.5" font-family="Helvetica,sans-Serif" font-size="10.00">mom_error</text>
</a>
</g>
</g>
<!-- Node14&#45;&gt;Node18 -->
<g id="edge4" class="edge"><title>Node14&#45;&gt;Node18</title>
<path fill="none" stroke="midnightblue" d="M67.3691,-73.3533C82.7745,-63.4424 103.725,-50.5219 123,-40.5 126.694,-38.5793 130.568,-36.6744 134.486,-34.8235"/>
<polygon fill="midnightblue" stroke="midnightblue" points="136.013,-37.9735 143.641,-30.6208 133.093,-31.6117 136.013,-37.9735"/>
</g>
<!-- Node19 -->
<g id="node6" class="node"><title>Node19</title>
<g id="a_node6"><a xlink:href="../../d0/de6/namespacemom__error__handler.html#ad5f00a53059c72fe2332d1436c80ca71" target="_top" xlink:title="mom_error_handler::\lis_root_pe">
<polygon fill="white" stroke="black" points="276,-0.5 276,-30.5 369,-30.5 369,-0.5 276,-0.5"/>
<text text-anchor="start" x="284" y="-18.5" font-family="Helvetica,sans-Serif" font-size="10.00">mom_error_handler::</text>
<text text-anchor="middle" x="322.5" y="-7.5" font-family="Helvetica,sans-Serif" font-size="10.00">is_root_pe</text>
</a>
</g>
</g>
<!-- Node18&#45;&gt;Node19 -->
<g id="edge5" class="edge"><title>Node18&#45;&gt;Node19</title>
<path fill="none" stroke="midnightblue" d="M228.014,-15.5C240.014,-15.5 253.102,-15.5 265.581,-15.5"/>
<polygon fill="midnightblue" stroke="midnightblue" points="265.884,-19.0001 275.884,-15.5 265.884,-12.0001 265.884,-19.0001"/>
</g>
</g>
</svg>
