<?xml version="1.0" encoding="UTF-8" standalone="no"?>
<!DOCTYPE svg PUBLIC "-//W3C//DTD SVG 1.1//EN"
 "http://www.w3.org/Graphics/SVG/1.1/DTD/svg11.dtd">
<!-- Generated by graphviz version 2.38.0 (20140413.2041)
 -->
<!-- Title: mom_eos::calculate_density_scalar Pages: 1 -->
<svg width="401pt" height="186pt"
 viewBox="0.00 0.00 401.00 186.00" xmlns="http://www.w3.org/2000/svg" xmlns:xlink="http://www.w3.org/1999/xlink">
<g id="graph0" class="graph" transform="scale(1 1) rotate(0) translate(4 182)">
<title>mom_eos::calculate_density_scalar</title>
<polygon fill="white" stroke="none" points="-4,4 -4,-182 397,-182 397,4 -4,4"/>
<!-- Node64 -->
<g id="node1" class="node"><title>Node64</title>
<polygon fill="#bfbfbf" stroke="black" points="0,-73.5 0,-103.5 87,-103.5 87,-73.5 0,-73.5"/>
<text text-anchor="start" x="8" y="-91.5" font-family="Helvetica,sans-Serif" font-size="10.00">mom_eos::calculate</text>
<text text-anchor="middle" x="43.5" y="-80.5" font-family="Helvetica,sans-Serif" font-size="10.00">_density_scalar</text>
</g>
<!-- Node65 -->
<g id="node2" class="node"><title>Node65</title>
<g id="a_node2"><a xlink:href="../../d5/de6/namespacemom__eos__linear.html#a960b43962ed17c4bd6855bab78054437" target="_top" xlink:title="mom_eos_linear::calculate\l_density_scalar_linear">
<polygon fill="white" stroke="black" points="126,-147.5 126,-177.5 237,-177.5 237,-147.5 126,-147.5"/>
<text text-anchor="start" x="134" y="-165.5" font-family="Helvetica,sans-Serif" font-size="10.00">mom_eos_linear::calculate</text>
<text text-anchor="middle" x="181.5" y="-154.5" font-family="Helvetica,sans-Serif" font-size="10.00">_density_scalar_linear</text>
</a>
</g>
</g>
<!-- Node64&#45;&gt;Node65 -->
<g id="edge1" class="edge"><title>Node64&#45;&gt;Node65</title>
<path fill="none" stroke="midnightblue" d="M65.8954,-103.544C81.3509,-114.056 102.948,-128.028 123,-138.5 126.065,-140.101 129.262,-141.676 132.509,-143.207"/>
<polygon fill="midnightblue" stroke="midnightblue" points="131.174,-146.445 141.726,-147.39 134.066,-140.071 131.174,-146.445"/>
</g>
<!-- Node66 -->
<g id="node3" class="node"><title>Node66</title>
<g id="a_node3"><a xlink:href="../../dd/d6b/namespacemom__eos__unesco.html#adc9ad47d88dcc43147e6dfdbbbe38583" target="_top" xlink:title="mom_eos_unesco::calculate\l_density_scalar_unesco">
<polygon fill="white" stroke="black" points="123,-98.5 123,-128.5 240,-128.5 240,-98.5 123,-98.5"/>
<text text-anchor="start" x="131" y="-116.5" font-family="Helvetica,sans-Serif" font-size="10.00">mom_eos_unesco::calculate</text>
<text text-anchor="middle" x="181.5" y="-105.5" font-family="Helvetica,sans-Serif" font-size="10.00">_density_scalar_unesco</text>
</a>
</g>
</g>
<!-- Node64&#45;&gt;Node66 -->
<g id="edge2" class="edge"><title>Node64&#45;&gt;Node66</title>
<path fill="none" stroke="midnightblue" d="M87.1581,-96.3416C95.2207,-97.8237 103.838,-99.4077 112.456,-100.992"/>
<polygon fill="midnightblue" stroke="midnightblue" points="112.072,-104.48 122.54,-102.846 113.338,-97.5953 112.072,-104.48"/>
</g>
<!-- Node68 -->
<g id="node5" class="node"><title>Node68</title>
<g id="a_node5"><a xlink:href="../../de/d76/namespacemom__eos__wright.html#a0f71fa2d25ad389061fc26be0466a811" target="_top" xlink:title="mom_eos_wright::calculate\l_density_scalar_wright">
<polygon fill="white" stroke="black" points="125,-49.5 125,-79.5 238,-79.5 238,-49.5 125,-49.5"/>
<text text-anchor="start" x="133" y="-67.5" font-family="Helvetica,sans-Serif" font-size="10.00">mom_eos_wright::calculate</text>
<text text-anchor="middle" x="181.5" y="-56.5" font-family="Helvetica,sans-Serif" font-size="10.00">_density_scalar_wright</text>
</a>
</g>
</g>
<!-- Node64&#45;&gt;Node68 -->
<g id="edge4" class="edge"><title>Node64&#45;&gt;Node68</title>
<path fill="none" stroke="midnightblue" d="M87.1581,-80.9721C95.8536,-79.4376 105.194,-77.7893 114.485,-76.1496"/>
<polygon fill="midnightblue" stroke="midnightblue" points="115.275,-79.5644 124.515,-74.3797 114.059,-72.6709 115.275,-79.5644"/>
</g>
<!-- Node70 -->
<g id="node7" class="node"><title>Node70</title>
<g id="a_node7"><a xlink:href="../../d0/de6/namespacemom__error__handler.html#a460cfb79a06c29fc249952c2a3710d67" target="_top" xlink:title="mom_error_handler::\lmom_error">
<polygon fill="white" stroke="black" points="135,-0.5 135,-30.5 228,-30.5 228,-0.5 135,-0.5"/>
<text text-anchor="start" x="143" y="-18.5" font-family="Helvetica,sans-Serif" font-size="10.00">mom_error_handler::</text>
<text text-anchor="middle" x="181.5" y="-7.5" font-family="Helvetica,sans-Serif" font-size="10.00">mom_error</text>
</a>
</g>
</g>
<!-- Node64&#45;&gt;Node70 -->
<g id="edge6" class="edge"><title>Node64&#45;&gt;Node70</title>
<path fill="none" stroke="midnightblue" d="M67.3691,-73.3533C82.7745,-63.4424 103.725,-50.5219 123,-40.5 126.694,-38.5793 130.568,-36.6744 134.486,-34.8235"/>
<polygon fill="midnightblue" stroke="midnightblue" points="136.013,-37.9735 143.641,-30.6208 133.093,-31.6117 136.013,-37.9735"/>
</g>
<!-- Node67 -->
<g id="node4" class="node"><title>Node67</title>
<g id="a_node4"><a xlink:href="../../dd/d6b/namespacemom__eos__unesco.html#a2cc5b64d7214e8cd2701f4e952f6d1c1" target="_top" xlink:title="mom_eos_unesco::calculate\l_density_array_unesco">
<polygon fill="white" stroke="black" points="276,-98.5 276,-128.5 393,-128.5 393,-98.5 276,-98.5"/>
<text text-anchor="start" x="284" y="-116.5" font-family="Helvetica,sans-Serif" font-size="10.00">mom_eos_unesco::calculate</text>
<text text-anchor="middle" x="334.5" y="-105.5" font-family="Helvetica,sans-Serif" font-size="10.00">_density_array_unesco</text>
</a>
</g>
</g>
<!-- Node66&#45;&gt;Node67 -->
<g id="edge3" class="edge"><title>Node66&#45;&gt;Node67</title>
<path fill="none" stroke="midnightblue" d="M240.017,-113.5C248.464,-113.5 257.229,-113.5 265.856,-113.5"/>
<polygon fill="midnightblue" stroke="midnightblue" points="265.893,-117 275.893,-113.5 265.892,-110 265.893,-117"/>
</g>
<!-- Node69 -->
<g id="node6" class="node"><title>Node69</title>
<g id="a_node6"><a xlink:href="../../de/d76/namespacemom__eos__wright.html#a61a76e245f361e0b3583f866d00df40a" target="_top" xlink:title="mom_eos_wright::calculate\l_density_array_wright">
<polygon fill="white" stroke="black" points="278,-49.5 278,-79.5 391,-79.5 391,-49.5 278,-49.5"/>
<text text-anchor="start" x="286" y="-67.5" font-family="Helvetica,sans-Serif" font-size="10.00">mom_eos_wright::calculate</text>
<text text-anchor="middle" x="334.5" y="-56.5" font-family="Helvetica,sans-Serif" font-size="10.00">_density_array_wright</text>
</a>
</g>
</g>
<!-- Node68&#45;&gt;Node69 -->
<g id="edge5" class="edge"><title>Node68&#45;&gt;Node69</title>
<path fill="none" stroke="midnightblue" d="M238.298,-64.5C247.9,-64.5 257.96,-64.5 267.794,-64.5"/>
<polygon fill="midnightblue" stroke="midnightblue" points="267.932,-68.0001 277.932,-64.5 267.931,-61.0001 267.932,-68.0001"/>
</g>
<!-- Node71 -->
<g id="node8" class="node"><title>Node71</title>
<g id="a_node8"><a xlink:href="../../d0/de6/namespacemom__error__handler.html#ad5f00a53059c72fe2332d1436c80ca71" target="_top" xlink:title="mom_error_handler::\lis_root_pe">
<polygon fill="white" stroke="black" points="288,-0.5 288,-30.5 381,-30.5 381,-0.5 288,-0.5"/>
<text text-anchor="start" x="296" y="-18.5" font-family="Helvetica,sans-Serif" font-size="10.00">mom_error_handler::</text>
<text text-anchor="middle" x="334.5" y="-7.5" font-family="Helvetica,sans-Serif" font-size="10.00">is_root_pe</text>
</a>
</g>
</g>
<!-- Node70&#45;&gt;Node71 -->
<g id="edge7" class="edge"><title>Node70&#45;&gt;Node71</title>
<path fill="none" stroke="midnightblue" d="M228.215,-15.5C243.738,-15.5 261.261,-15.5 277.494,-15.5"/>
<polygon fill="midnightblue" stroke="midnightblue" points="277.941,-19.0001 287.941,-15.5 277.941,-12.0001 277.941,-19.0001"/>
</g>
</g>
</svg>
