<?xml version="1.0" encoding="UTF-8" standalone="no"?>
<!DOCTYPE svg PUBLIC "-//W3C//DTD SVG 1.1//EN"
 "http://www.w3.org/Graphics/SVG/1.1/DTD/svg11.dtd">
<!-- Generated by graphviz version 2.38.0 (20140413.2041)
 -->
<!-- Title: mom_eos::calculate_specific_vol_derivs Pages: 1 -->
<svg width="452pt" height="88pt"
 viewBox="0.00 0.00 452.00 88.00" xmlns="http://www.w3.org/2000/svg" xmlns:xlink="http://www.w3.org/1999/xlink">
<g id="graph0" class="graph" transform="scale(1 1) rotate(0) translate(4 84)">
<title>mom_eos::calculate_specific_vol_derivs</title>
<polygon fill="white" stroke="none" points="-4,4 -4,-84 448,-84 448,4 -4,4"/>
<!-- Node79 -->
<g id="node1" class="node"><title>Node79</title>
<polygon fill="#bfbfbf" stroke="black" points="0,-24.5 0,-54.5 87,-54.5 87,-24.5 0,-24.5"/>
<text text-anchor="start" x="8" y="-42.5" font-family="Helvetica,sans-Serif" font-size="10.00">mom_eos::calculate</text>
<text text-anchor="middle" x="43.5" y="-31.5" font-family="Helvetica,sans-Serif" font-size="10.00">_specific_vol_derivs</text>
</g>
<!-- Node80 -->
<g id="node2" class="node"><title>Node80</title>
<g id="a_node2"><a xlink:href="../../d7/d3b/namespacemom__diabatic__aux.html#a1e6934e7993df27e75e5cee7a1d8cf65" target="_top" xlink:title="Update the thickness, temperature, and salinity due to thermodynamic boundary forcing (contained in f...">
<polygon fill="white" stroke="black" points="123,-53 123,-72 301,-72 301,-53 123,-53"/>
<text text-anchor="middle" x="212" y="-60" font-family="Helvetica,sans-Serif" font-size="10.00">mom_diabatic_aux::applyboundaryfluxesinout</text>
</a>
</g>
</g>
<!-- Node79&#45;&gt;Node80 -->
<g id="edge1" class="edge"><title>Node79&#45;&gt;Node80</title>
<path fill="none" stroke="midnightblue" d="M97.4425,-46.8134C111.634,-48.7738 127.186,-50.9221 142.104,-52.9829"/>
<polygon fill="midnightblue" stroke="midnightblue" points="97.7628,-43.3245 87.3779,-45.4231 96.8049,-50.2586 97.7628,-43.3245"/>
</g>
<!-- Node82 -->
<g id="node4" class="node"><title>Node82</title>
<g id="a_node4"><a xlink:href="../../d7/daa/namespacemom__diapyc__energy__req.html#a4e0e12cb9bfc4448eaaf5811b8a3691e" target="_top" xlink:title="mom_diapyc_energy_req\l::diapyc_energy_req_calc">
<polygon fill="white" stroke="black" points="158.5,-2.5 158.5,-32.5 265.5,-32.5 265.5,-2.5 158.5,-2.5"/>
<text text-anchor="start" x="166.5" y="-20.5" font-family="Helvetica,sans-Serif" font-size="10.00">mom_diapyc_energy_req</text>
<text text-anchor="middle" x="212" y="-9.5" font-family="Helvetica,sans-Serif" font-size="10.00">::diapyc_energy_req_calc</text>
</a>
</g>
</g>
<!-- Node79&#45;&gt;Node82 -->
<g id="edge3" class="edge"><title>Node79&#45;&gt;Node82</title>
<path fill="none" stroke="midnightblue" d="M97.323,-32.5204C116.845,-29.9409 138.955,-27.0195 158.452,-24.4432"/>
<polygon fill="midnightblue" stroke="midnightblue" points="96.8332,-29.0546 87.3779,-33.8345 97.7502,-35.9943 96.8332,-29.0546"/>
</g>
<!-- Node81 -->
<g id="node3" class="node"><title>Node81</title>
<g id="a_node3"><a xlink:href="../../d8/df3/namespacemom__diabatic__driver.html#a61e57d3902367aa46aa3c2d949ee900f" target="_top" xlink:title="This subroutine imposes the diapycnal mass fluxes and the accompanying diapycnal advection of momentu...">
<polygon fill="white" stroke="black" points="345,-49.5 345,-79.5 436,-79.5 436,-49.5 345,-49.5"/>
<text text-anchor="start" x="353" y="-67.5" font-family="Helvetica,sans-Serif" font-size="10.00">mom_diabatic_driver</text>
<text text-anchor="middle" x="390.5" y="-56.5" font-family="Helvetica,sans-Serif" font-size="10.00">::diabatic</text>
</a>
</g>
</g>
<!-- Node80&#45;&gt;Node81 -->
<g id="edge2" class="edge"><title>Node80&#45;&gt;Node81</title>
<path fill="none" stroke="midnightblue" d="M311.539,-63.6166C323.199,-63.7487 334.616,-63.8781 344.962,-63.9953"/>
<polygon fill="midnightblue" stroke="midnightblue" points="311.289,-60.1136 301.25,-63.5 311.21,-67.1132 311.289,-60.1136"/>
</g>
<!-- Node83 -->
<g id="node5" class="node"><title>Node83</title>
<g id="a_node5"><a xlink:href="../../d7/daa/namespacemom__diapyc__energy__req.html#a399875746eadb4b0c0eb90ba4fa06ed6" target="_top" xlink:title="mom_diapyc_energy_req\l::diapyc_energy_req_test">
<polygon fill="white" stroke="black" points="337,-0.5 337,-30.5 444,-30.5 444,-0.5 337,-0.5"/>
<text text-anchor="start" x="345" y="-18.5" font-family="Helvetica,sans-Serif" font-size="10.00">mom_diapyc_energy_req</text>
<text text-anchor="middle" x="390.5" y="-7.5" font-family="Helvetica,sans-Serif" font-size="10.00">::diapyc_energy_req_test</text>
</a>
</g>
</g>
<!-- Node82&#45;&gt;Node83 -->
<g id="edge4" class="edge"><title>Node82&#45;&gt;Node83</title>
<path fill="none" stroke="midnightblue" d="M276.166,-16.7842C296.06,-16.5588 317.808,-16.3124 336.886,-16.0962"/>
<polygon fill="midnightblue" stroke="midnightblue" points="275.915,-13.2868 265.956,-16.8999 275.995,-20.2863 275.915,-13.2868"/>
</g>
</g>
</svg>
