<?xml version="1.0" encoding="UTF-8" standalone="no"?>
<!DOCTYPE svg PUBLIC "-//W3C//DTD SVG 1.1//EN"
 "http://www.w3.org/Graphics/SVG/1.1/DTD/svg11.dtd">
<!-- Generated by graphviz version 2.38.0 (20140413.2041)
 -->
<!-- Title: mom_eos::evaluate_shape_bilinear Pages: 1 -->
<svg width="419pt" height="88pt"
 viewBox="0.00 0.00 419.00 88.00" xmlns="http://www.w3.org/2000/svg" xmlns:xlink="http://www.w3.org/1999/xlink">
<g id="graph0" class="graph" transform="scale(1 1) rotate(0) translate(4 84)">
<title>mom_eos::evaluate_shape_bilinear</title>
<polygon fill="white" stroke="none" points="-4,4 -4,-84 415,-84 415,4 -4,4"/>
<!-- Node127 -->
<g id="node1" class="node"><title>Node127</title>
<polygon fill="#bfbfbf" stroke="black" points="0,-24.5 0,-54.5 113,-54.5 113,-24.5 0,-24.5"/>
<text text-anchor="start" x="8" y="-42.5" font-family="Helvetica,sans-Serif" font-size="10.00">mom_eos::evaluate_shape</text>
<text text-anchor="middle" x="56.5" y="-31.5" font-family="Helvetica,sans-Serif" font-size="10.00">_bilinear</text>
</g>
<!-- Node128 -->
<g id="node2" class="node"><title>Node128</title>
<g id="a_node2"><a xlink:href="../../d1/d01/namespacemom__eos.html#ace0d2cee7ffdada464ea5b38cbb93b07" target="_top" xlink:title="mom_eos::compute_integral\l_bilinear">
<polygon fill="white" stroke="black" points="149,-49.5 149,-79.5 267,-79.5 267,-49.5 149,-49.5"/>
<text text-anchor="start" x="157" y="-67.5" font-family="Helvetica,sans-Serif" font-size="10.00">mom_eos::compute_integral</text>
<text text-anchor="middle" x="208" y="-56.5" font-family="Helvetica,sans-Serif" font-size="10.00">_bilinear</text>
</a>
</g>
</g>
<!-- Node127&#45;&gt;Node128 -->
<g id="edge1" class="edge"><title>Node127&#45;&gt;Node128</title>
<path fill="none" stroke="midnightblue" d="M123.104,-50.4706C131.654,-51.9004 140.367,-53.3573 148.785,-54.765"/>
<polygon fill="midnightblue" stroke="midnightblue" points="123.609,-47.0064 113.168,-48.8091 122.454,-53.9106 123.609,-47.0064"/>
</g>
<!-- Node130 -->
<g id="node4" class="node"><title>Node130</title>
<g id="a_node4"><a xlink:href="../../d1/d01/namespacemom__eos.html#ab9ad774110cfa4cb44666592ddcf689c" target="_top" xlink:title="mom_eos::compute_integral\l_quadratic">
<polygon fill="white" stroke="black" points="149,-0.5 149,-30.5 267,-30.5 267,-0.5 149,-0.5"/>
<text text-anchor="start" x="157" y="-18.5" font-family="Helvetica,sans-Serif" font-size="10.00">mom_eos::compute_integral</text>
<text text-anchor="middle" x="208" y="-7.5" font-family="Helvetica,sans-Serif" font-size="10.00">_quadratic</text>
</a>
</g>
</g>
<!-- Node127&#45;&gt;Node130 -->
<g id="edge3" class="edge"><title>Node127&#45;&gt;Node130</title>
<path fill="none" stroke="midnightblue" d="M123.104,-28.9683C131.654,-27.5956 140.367,-26.197 148.785,-24.8456"/>
<polygon fill="midnightblue" stroke="midnightblue" points="122.487,-25.5224 113.168,-30.5633 123.597,-32.4339 122.487,-25.5224"/>
</g>
<!-- Node129 -->
<g id="node3" class="node"><title>Node129</title>
<g id="a_node3"><a xlink:href="../../d1/d01/namespacemom__eos.html#aa2cc9a8923cc32bc150579b09cc16753" target="_top" xlink:title="mom_eos::int_density\l_dz_generic_plm_analytic">
<polygon fill="white" stroke="black" points="303,-49.5 303,-79.5 411,-79.5 411,-49.5 303,-49.5"/>
<text text-anchor="start" x="311" y="-67.5" font-family="Helvetica,sans-Serif" font-size="10.00">mom_eos::int_density</text>
<text text-anchor="middle" x="357" y="-56.5" font-family="Helvetica,sans-Serif" font-size="10.00">_dz_generic_plm_analytic</text>
</a>
</g>
</g>
<!-- Node128&#45;&gt;Node129 -->
<g id="edge2" class="edge"><title>Node128&#45;&gt;Node129</title>
<path fill="none" stroke="midnightblue" d="M277.365,-64.5C285.845,-64.5 294.416,-64.5 302.624,-64.5"/>
<polygon fill="midnightblue" stroke="midnightblue" points="277.098,-61.0001 267.098,-64.5 277.098,-68.0001 277.098,-61.0001"/>
</g>
<!-- Node131 -->
<g id="node5" class="node"><title>Node131</title>
<g id="a_node5"><a xlink:href="../../d1/d01/namespacemom__eos.html#a594df0f0a5756c77a5c7e5a5c2e36a20" target="_top" xlink:title="mom_eos::int_density\l_dz_generic_ppm">
<polygon fill="white" stroke="black" points="310,-0.5 310,-30.5 404,-30.5 404,-0.5 310,-0.5"/>
<text text-anchor="start" x="318" y="-18.5" font-family="Helvetica,sans-Serif" font-size="10.00">mom_eos::int_density</text>
<text text-anchor="middle" x="357" y="-7.5" font-family="Helvetica,sans-Serif" font-size="10.00">_dz_generic_ppm</text>
</a>
</g>
</g>
<!-- Node130&#45;&gt;Node131 -->
<g id="edge4" class="edge"><title>Node130&#45;&gt;Node131</title>
<path fill="none" stroke="midnightblue" d="M277.132,-15.5C288.138,-15.5 299.305,-15.5 309.64,-15.5"/>
<polygon fill="midnightblue" stroke="midnightblue" points="277.098,-12.0001 267.098,-15.5 277.098,-19.0001 277.098,-12.0001"/>
</g>
</g>
</svg>
