<?xml version="1.0" encoding="UTF-8" standalone="no"?>
<!DOCTYPE svg PUBLIC "-//W3C//DTD SVG 1.1//EN"
 "http://www.w3.org/Graphics/SVG/1.1/DTD/svg11.dtd">
<!-- Generated by graphviz version 2.38.0 (20140413.2041)
 -->
<!-- Title: mom_eos::find_depth_of_pressure_in_cell Pages: 1 -->
<svg width="655pt" height="186pt"
 viewBox="0.00 0.00 655.00 186.00" xmlns="http://www.w3.org/2000/svg" xmlns:xlink="http://www.w3.org/1999/xlink">
<g id="graph0" class="graph" transform="scale(1 1) rotate(0) translate(4 182)">
<title>mom_eos::find_depth_of_pressure_in_cell</title>
<polygon fill="white" stroke="none" points="-4,4 -4,-182 651,-182 651,4 -4,4"/>
<!-- Node136 -->
<g id="node1" class="node"><title>Node136</title>
<polygon fill="#bfbfbf" stroke="black" points="0,-73.5 0,-103.5 94,-103.5 94,-73.5 0,-73.5"/>
<text text-anchor="start" x="8" y="-91.5" font-family="Helvetica,sans-Serif" font-size="10.00">mom_eos::find_depth</text>
<text text-anchor="middle" x="47" y="-80.5" font-family="Helvetica,sans-Serif" font-size="10.00">_of_pressure_in_cell</text>
</g>
<!-- Node137 -->
<g id="node2" class="node"><title>Node137</title>
<g id="a_node2"><a xlink:href="../../d1/d01/namespacemom__eos.html#a82d46c07f4f9c7ad5930fa2508c3e280" target="_top" xlink:title="Returns change in anomalous pressure change from top to non&#45;dimensional position pos between z_t and ...">
<polygon fill="white" stroke="black" points="130,-79 130,-98 242,-98 242,-79 130,-79"/>
<text text-anchor="middle" x="186" y="-86" font-family="Helvetica,sans-Serif" font-size="10.00">mom_eos::frac_dp_at_pos</text>
</a>
</g>
</g>
<!-- Node136&#45;&gt;Node137 -->
<g id="edge1" class="edge"><title>Node136&#45;&gt;Node137</title>
<path fill="none" stroke="midnightblue" d="M94.0001,-88.5C102.269,-88.5 111.03,-88.5 119.722,-88.5"/>
<polygon fill="midnightblue" stroke="midnightblue" points="119.86,-92.0001 129.86,-88.5 119.86,-85.0001 119.86,-92.0001"/>
</g>
<!-- Node138 -->
<g id="node3" class="node"><title>Node138</title>
<g id="a_node3"><a xlink:href="../../d1/d01/namespacemom__eos.html#a4fe43b1b2cd799d87411aa66e1d10ab5" target="_top" xlink:title="Calls the appropriate subroutine to calculate the density of sea water for 1&#45;D array inputs...">
<polygon fill="white" stroke="black" points="278,-73.5 278,-103.5 365,-103.5 365,-73.5 278,-73.5"/>
<text text-anchor="start" x="286" y="-91.5" font-family="Helvetica,sans-Serif" font-size="10.00">mom_eos::calculate</text>
<text text-anchor="middle" x="321.5" y="-80.5" font-family="Helvetica,sans-Serif" font-size="10.00">_density_array</text>
</a>
</g>
</g>
<!-- Node137&#45;&gt;Node138 -->
<g id="edge2" class="edge"><title>Node137&#45;&gt;Node138</title>
<path fill="none" stroke="midnightblue" d="M242.07,-88.5C250.547,-88.5 259.282,-88.5 267.708,-88.5"/>
<polygon fill="midnightblue" stroke="midnightblue" points="267.792,-92.0001 277.792,-88.5 267.792,-85.0001 267.792,-92.0001"/>
</g>
<!-- Node139 -->
<g id="node4" class="node"><title>Node139</title>
<g id="a_node4"><a xlink:href="../../d5/de6/namespacemom__eos__linear.html#acbc446c55f65ed258e00bfa733a4c4d1" target="_top" xlink:title="mom_eos_linear::calculate\l_density_array_linear">
<polygon fill="white" stroke="black" points="404,-147.5 404,-177.5 515,-177.5 515,-147.5 404,-147.5"/>
<text text-anchor="start" x="412" y="-165.5" font-family="Helvetica,sans-Serif" font-size="10.00">mom_eos_linear::calculate</text>
<text text-anchor="middle" x="459.5" y="-154.5" font-family="Helvetica,sans-Serif" font-size="10.00">_density_array_linear</text>
</a>
</g>
</g>
<!-- Node138&#45;&gt;Node139 -->
<g id="edge3" class="edge"><title>Node138&#45;&gt;Node139</title>
<path fill="none" stroke="midnightblue" d="M343.895,-103.544C359.351,-114.056 380.948,-128.028 401,-138.5 404.065,-140.101 407.262,-141.676 410.509,-143.207"/>
<polygon fill="midnightblue" stroke="midnightblue" points="409.174,-146.445 419.726,-147.39 412.066,-140.071 409.174,-146.445"/>
</g>
<!-- Node140 -->
<g id="node5" class="node"><title>Node140</title>
<g id="a_node5"><a xlink:href="../../dd/d6b/namespacemom__eos__unesco.html#a2cc5b64d7214e8cd2701f4e952f6d1c1" target="_top" xlink:title="mom_eos_unesco::calculate\l_density_array_unesco">
<polygon fill="white" stroke="black" points="401,-98.5 401,-128.5 518,-128.5 518,-98.5 401,-98.5"/>
<text text-anchor="start" x="409" y="-116.5" font-family="Helvetica,sans-Serif" font-size="10.00">mom_eos_unesco::calculate</text>
<text text-anchor="middle" x="459.5" y="-105.5" font-family="Helvetica,sans-Serif" font-size="10.00">_density_array_unesco</text>
</a>
</g>
</g>
<!-- Node138&#45;&gt;Node140 -->
<g id="edge4" class="edge"><title>Node138&#45;&gt;Node140</title>
<path fill="none" stroke="midnightblue" d="M365.158,-96.3416C373.221,-97.8237 381.838,-99.4077 390.456,-100.992"/>
<polygon fill="midnightblue" stroke="midnightblue" points="390.072,-104.48 400.54,-102.846 391.338,-97.5953 390.072,-104.48"/>
</g>
<!-- Node141 -->
<g id="node6" class="node"><title>Node141</title>
<g id="a_node6"><a xlink:href="../../de/d76/namespacemom__eos__wright.html#a61a76e245f361e0b3583f866d00df40a" target="_top" xlink:title="mom_eos_wright::calculate\l_density_array_wright">
<polygon fill="white" stroke="black" points="403,-49.5 403,-79.5 516,-79.5 516,-49.5 403,-49.5"/>
<text text-anchor="start" x="411" y="-67.5" font-family="Helvetica,sans-Serif" font-size="10.00">mom_eos_wright::calculate</text>
<text text-anchor="middle" x="459.5" y="-56.5" font-family="Helvetica,sans-Serif" font-size="10.00">_density_array_wright</text>
</a>
</g>
</g>
<!-- Node138&#45;&gt;Node141 -->
<g id="edge5" class="edge"><title>Node138&#45;&gt;Node141</title>
<path fill="none" stroke="midnightblue" d="M365.158,-80.9721C373.854,-79.4376 383.194,-77.7893 392.485,-76.1496"/>
<polygon fill="midnightblue" stroke="midnightblue" points="393.275,-79.5644 402.515,-74.3797 392.059,-72.6709 393.275,-79.5644"/>
</g>
<!-- Node142 -->
<g id="node7" class="node"><title>Node142</title>
<g id="a_node7"><a xlink:href="../../d0/de6/namespacemom__error__handler.html#a460cfb79a06c29fc249952c2a3710d67" target="_top" xlink:title="mom_error_handler::\lmom_error">
<polygon fill="white" stroke="black" points="413,-0.5 413,-30.5 506,-30.5 506,-0.5 413,-0.5"/>
<text text-anchor="start" x="421" y="-18.5" font-family="Helvetica,sans-Serif" font-size="10.00">mom_error_handler::</text>
<text text-anchor="middle" x="459.5" y="-7.5" font-family="Helvetica,sans-Serif" font-size="10.00">mom_error</text>
</a>
</g>
</g>
<!-- Node138&#45;&gt;Node142 -->
<g id="edge6" class="edge"><title>Node138&#45;&gt;Node142</title>
<path fill="none" stroke="midnightblue" d="M345.369,-73.3533C360.775,-63.4424 381.725,-50.5219 401,-40.5 404.694,-38.5793 408.568,-36.6744 412.486,-34.8235"/>
<polygon fill="midnightblue" stroke="midnightblue" points="414.013,-37.9735 421.641,-30.6208 411.093,-31.6117 414.013,-37.9735"/>
</g>
<!-- Node143 -->
<g id="node8" class="node"><title>Node143</title>
<g id="a_node8"><a xlink:href="../../d0/de6/namespacemom__error__handler.html#ad5f00a53059c72fe2332d1436c80ca71" target="_top" xlink:title="mom_error_handler::\lis_root_pe">
<polygon fill="white" stroke="black" points="554,-0.5 554,-30.5 647,-30.5 647,-0.5 554,-0.5"/>
<text text-anchor="start" x="562" y="-18.5" font-family="Helvetica,sans-Serif" font-size="10.00">mom_error_handler::</text>
<text text-anchor="middle" x="600.5" y="-7.5" font-family="Helvetica,sans-Serif" font-size="10.00">is_root_pe</text>
</a>
</g>
</g>
<!-- Node142&#45;&gt;Node143 -->
<g id="edge7" class="edge"><title>Node142&#45;&gt;Node143</title>
<path fill="none" stroke="midnightblue" d="M506.014,-15.5C518.014,-15.5 531.102,-15.5 543.581,-15.5"/>
<polygon fill="midnightblue" stroke="midnightblue" points="543.884,-19.0001 553.884,-15.5 543.884,-12.0001 543.884,-19.0001"/>
</g>
</g>
</svg>
