<?xml version="1.0" encoding="UTF-8" standalone="no"?>
<!DOCTYPE svg PUBLIC "-//W3C//DTD SVG 1.1//EN"
 "http://www.w3.org/Graphics/SVG/1.1/DTD/svg11.dtd">
<!-- Generated by graphviz version 2.38.0 (20140413.2041)
 -->
<!-- Title: mom_eos::int_density_dz_generic_plm_analytic Pages: 1 -->
<svg width="419pt" height="39pt"
 viewBox="0.00 0.00 419.00 39.00" xmlns="http://www.w3.org/2000/svg" xmlns:xlink="http://www.w3.org/1999/xlink">
<g id="graph0" class="graph" transform="scale(1 1) rotate(0) translate(4 35)">
<title>mom_eos::int_density_dz_generic_plm_analytic</title>
<polygon fill="white" stroke="none" points="-4,4 -4,-35 415,-35 415,4 -4,4"/>
<!-- Node178 -->
<g id="node1" class="node"><title>Node178</title>
<polygon fill="#bfbfbf" stroke="black" points="0,-0.5 0,-30.5 108,-30.5 108,-0.5 0,-0.5"/>
<text text-anchor="start" x="8" y="-18.5" font-family="Helvetica,sans-Serif" font-size="10.00">mom_eos::int_density</text>
<text text-anchor="middle" x="54" y="-7.5" font-family="Helvetica,sans-Serif" font-size="10.00">_dz_generic_plm_analytic</text>
</g>
<!-- Node179 -->
<g id="node2" class="node"><title>Node179</title>
<g id="a_node2"><a xlink:href="../../d1/d01/namespacemom__eos.html#ace0d2cee7ffdada464ea5b38cbb93b07" target="_top" xlink:title="mom_eos::compute_integral\l_bilinear">
<polygon fill="white" stroke="black" points="144,-0.5 144,-30.5 262,-30.5 262,-0.5 144,-0.5"/>
<text text-anchor="start" x="152" y="-18.5" font-family="Helvetica,sans-Serif" font-size="10.00">mom_eos::compute_integral</text>
<text text-anchor="middle" x="203" y="-7.5" font-family="Helvetica,sans-Serif" font-size="10.00">_bilinear</text>
</a>
</g>
</g>
<!-- Node178&#45;&gt;Node179 -->
<g id="edge1" class="edge"><title>Node178&#45;&gt;Node179</title>
<path fill="none" stroke="midnightblue" d="M108.07,-15.5C116.405,-15.5 125.12,-15.5 133.738,-15.5"/>
<polygon fill="midnightblue" stroke="midnightblue" points="133.783,-19.0001 143.783,-15.5 133.783,-12.0001 133.783,-19.0001"/>
</g>
<!-- Node180 -->
<g id="node3" class="node"><title>Node180</title>
<g id="a_node3"><a xlink:href="../../d1/d01/namespacemom__eos.html#ad8afb464fcc660fccfcbd9c06a43f16c" target="_top" xlink:title="mom_eos::evaluate_shape\l_bilinear">
<polygon fill="white" stroke="black" points="298,-0.5 298,-30.5 411,-30.5 411,-0.5 298,-0.5"/>
<text text-anchor="start" x="306" y="-18.5" font-family="Helvetica,sans-Serif" font-size="10.00">mom_eos::evaluate_shape</text>
<text text-anchor="middle" x="354.5" y="-7.5" font-family="Helvetica,sans-Serif" font-size="10.00">_bilinear</text>
</a>
</g>
</g>
<!-- Node179&#45;&gt;Node180 -->
<g id="edge2" class="edge"><title>Node179&#45;&gt;Node180</title>
<path fill="none" stroke="midnightblue" d="M262.229,-15.5C270.505,-15.5 279.067,-15.5 287.479,-15.5"/>
<polygon fill="midnightblue" stroke="midnightblue" points="287.636,-19.0001 297.636,-15.5 287.636,-12.0001 287.636,-19.0001"/>
</g>
</g>
</svg>
