<?xml version="1.0" encoding="UTF-8" standalone="no"?>
<!DOCTYPE svg PUBLIC "-//W3C//DTD SVG 1.1//EN"
 "http://www.w3.org/Graphics/SVG/1.1/DTD/svg11.dtd">
<!-- Generated by graphviz version 2.38.0 (20140413.2041)
 -->
<!-- Title: mom_eos::calculate_density_derivs Pages: 1 -->
<!--zoomable 818 -->
<svg id="main" version="1.1" xmlns="http://www.w3.org/2000/svg" xmlns:xlink="http://www.w3.org/1999/xlink" xml:space="preserve" onload="init(evt)">
<style type="text/css"><![CDATA[
.edge:hover path { stroke: red; }
.edge:hover polygon { stroke: red; fill: red; }
]]></style>
<script type="text/javascript"><![CDATA[
var edges = document.getElementsByTagName('g');
if (edges && edges.length) {
  for (var i=0;i<edges.length;i++) {
    if (edges[i].id.substr(0,4)=='edge') {
      edges[i].setAttribute('class','edge');
    }
  }
}
]]></script>
        <defs>
                <circle id="rim" cx="0" cy="0" r="7"/>
                <circle id="rim2" cx="0" cy="0" r="3.5"/>
                <g id="zoomPlus">
                        <use xlink:href="#rim" fill="#404040">
                                <set attributeName="fill" to="#808080" begin="zoomplus.mouseover" end="zoomplus.mouseout"/>
                        </use>
                        <path d="M-4,0h8M0,-4v8" fill="none" stroke="white" stroke-width="1.5" pointer-events="none"/>
                </g>
                <g id="zoomMin">
                        <use xlink:href="#rim" fill="#404040">
                                <set attributeName="fill" to="#808080" begin="zoomminus.mouseover" end="zoomminus.mouseout"/>
                        </use>
                        <path d="M-4,0h8" fill="none" stroke="white" stroke-width="1.5" pointer-events="none"/>
                </g>
                <g id="dirArrow">
                        <path fill="none" stroke="white" stroke-width="1.5" d="M0,-3.0v7 M-2.5,-0.5L0,-3.0L2.5,-0.5"/>
                </g>
               <g id="resetDef">
                       <use xlink:href="#rim2" fill="#404040">
                               <set attributeName="fill" to="#808080" begin="reset.mouseover" end="reset.mouseout"/>
                       </use>
               </g>
        </defs>

<script type="text/javascript">
var viewWidth = 732;
var viewHeight = 818;
var sectionId = 'dynsection-5';
</script>
<script xlink:href="../../svgpan.js"/>
<svg id="graph" class="graph">
<g id="viewport">
<title>mom_eos::calculate_density_derivs</title>
<polygon fill="white" stroke="none" points="-4,4 -4,-814 728,-814 728,4 -4,4"/>
<!-- Node30 -->
<g id="node1" class="node"><title>Node30</title>
<polygon fill="#bfbfbf" stroke="black" points="0,-402.5 0,-432.5 87,-432.5 87,-402.5 0,-402.5"/>
<text text-anchor="start" x="8" y="-420.5" font-family="Helvetica,sans-Serif" font-size="10.00">mom_eos::calculate</text>
<text text-anchor="middle" x="43.5" y="-409.5" font-family="Helvetica,sans-Serif" font-size="10.00">_density_derivs</text>
</g>
<!-- Node31 -->
<g id="node2" class="node"><title>Node31</title>
<g id="a_node2"><a xlink:href="../../da/d42/namespacebenchmark__initialization.html#a90737806bc1ea923d7698ff7ecd1d8eb" target="_top" xlink:title="This function puts the initial layer temperatures and salinities into T(:,:,:) and S(:...">
<polygon fill="white" stroke="black" points="147.5,-642 147.5,-683 271.5,-683 271.5,-642 147.5,-642"/>
<text text-anchor="start" x="155.5" y="-671" font-family="Helvetica,sans-Serif" font-size="10.00">benchmark_initialization</text>
<text text-anchor="start" x="155.5" y="-660" font-family="Helvetica,sans-Serif" font-size="10.00">::benchmark_init_temperature</text>
<text text-anchor="middle" x="209.5" y="-649" font-family="Helvetica,sans-Serif" font-size="10.00">_salinity</text>
</a>
</g>
</g>
<!-- Node30&#45;&gt;Node31 -->
<g id="edge1" class="edge"><title>Node30&#45;&gt;Node31</title>
<path fill="none" stroke="midnightblue" d="M46.7972,-442.814C52.1593,-487.257 69.4348,-579.607 123,-632.5 129.828,-639.242 138.257,-644.475 147.135,-648.534"/>
<polygon fill="midnightblue" stroke="midnightblue" points="50.2464,-442.159 45.6758,-432.6 43.2882,-442.923 50.2464,-442.159"/>
</g>
<!-- Node35 -->
<g id="node6" class="node"><title>Node35</title>
<g id="a_node6"><a xlink:href="../../da/d42/namespacebenchmark__initialization.html#aefce536aee33c71ce3b914d0cabc7c31" target="_top" xlink:title="This subroutine initializes layer thicknesses for the benchmark test case, by finding the depths of i...">
<polygon fill="white" stroke="black" points="159,-582 159,-623 260,-623 260,-582 159,-582"/>
<text text-anchor="start" x="167" y="-611" font-family="Helvetica,sans-Serif" font-size="10.00">benchmark_initialization</text>
<text text-anchor="start" x="167" y="-600" font-family="Helvetica,sans-Serif" font-size="10.00">::benchmark_initialize</text>
<text text-anchor="middle" x="209.5" y="-589" font-family="Helvetica,sans-Serif" font-size="10.00">_thickness</text>
</a>
</g>
</g>
<!-- Node30&#45;&gt;Node35 -->
<g id="edge5" class="edge"><title>Node30&#45;&gt;Node35</title>
<path fill="none" stroke="midnightblue" d="M50.8663,-442.699C60.7296,-476.779 82.8832,-537.334 123,-572.5 133.173,-581.418 146.16,-587.73 158.923,-592.18"/>
<polygon fill="midnightblue" stroke="midnightblue" points="54.122,-441.339 48.0886,-432.63 47.374,-443.2 54.122,-441.339"/>
</g>
<!-- Node36 -->
<g id="node7" class="node"><title>Node36</title>
<g id="a_node7"><a xlink:href="../../d6/d4c/namespacemom__isopycnal__slopes.html#ad8b145434d470eceaf9a151a65a74dd5" target="_top" xlink:title="mom_isopycnal_slopes\l::calc_isoneutral_slopes">
<polygon fill="white" stroke="black" points="159,-533.5 159,-563.5 260,-563.5 260,-533.5 159,-533.5"/>
<text text-anchor="start" x="167" y="-551.5" font-family="Helvetica,sans-Serif" font-size="10.00">mom_isopycnal_slopes</text>
<text text-anchor="middle" x="209.5" y="-540.5" font-family="Helvetica,sans-Serif" font-size="10.00">::calc_isoneutral_slopes</text>
</a>
</g>
</g>
<!-- Node30&#45;&gt;Node36 -->
<g id="edge6" class="edge"><title>Node30&#45;&gt;Node36</title>
<path fill="none" stroke="midnightblue" d="M56.2786,-441.496C69.346,-465.672 92.6536,-502.339 123,-523.5 133.529,-530.842 146.218,-536.051 158.56,-539.739"/>
<polygon fill="midnightblue" stroke="midnightblue" points="59.3593,-439.835 51.6236,-432.595 53.1563,-443.078 59.3593,-439.835"/>
</g>
<!-- Node38 -->
<g id="node9" class="node"><title>Node38</title>
<g id="a_node9"><a xlink:href="../../d8/d95/namespacemom__kappa__shear.html#a84a0a23b1cb6df3e8613fdd7853cb495" target="_top" xlink:title="mom_kappa_shear::calculate\l_kappa_shear">
<polygon fill="white" stroke="black" points="149,-484.5 149,-514.5 270,-514.5 270,-484.5 149,-484.5"/>
<text text-anchor="start" x="157" y="-502.5" font-family="Helvetica,sans-Serif" font-size="10.00">mom_kappa_shear::calculate</text>
<text text-anchor="middle" x="209.5" y="-491.5" font-family="Helvetica,sans-Serif" font-size="10.00">_kappa_shear</text>
</a>
</g>
</g>
<!-- Node30&#45;&gt;Node38 -->
<g id="edge8" class="edge"><title>Node30&#45;&gt;Node38</title>
<path fill="none" stroke="midnightblue" d="M72.8245,-438.735C87.3161,-448.947 105.543,-460.824 123,-469.5 134.27,-475.101 146.845,-480.131 158.81,-484.4"/>
<polygon fill="midnightblue" stroke="midnightblue" points="74.4894,-435.621 64.3244,-432.634 70.408,-441.308 74.4894,-435.621"/>
</g>
<!-- Node40 -->
<g id="node11" class="node"><title>Node40</title>
<g id="a_node11"><a xlink:href="../../dd/dc3/namespacemom__forcing__type.html#a2bb917f3d8bcdcf4f5bf49c435992640" target="_top" xlink:title="This routine calculates surface buoyancy flux by adding up the heat, FW &amp; salt fluxes. These are actual fluxes, with units of stuff per time. Setting dt=1 in the call to extractFluxes routine allows us to get &quot;stuf per time&quot; rather than the time integrated fluxes needed in other routines that call extractFluxes. ">
<polygon fill="white" stroke="black" points="123,-408 123,-427 296,-427 296,-408 123,-408"/>
<text text-anchor="middle" x="209.5" y="-415" font-family="Helvetica,sans-Serif" font-size="10.00">mom_forcing_type::calculatebuoyancyflux1d</text>
</a>
</g>
</g>
<!-- Node30&#45;&gt;Node40 -->
<g id="edge10" class="edge"><title>Node30&#45;&gt;Node40</title>
<path fill="none" stroke="midnightblue" d="M97.2644,-417.5C105.453,-417.5 114.089,-417.5 122.781,-417.5"/>
<polygon fill="midnightblue" stroke="midnightblue" points="97.161,-414 87.1609,-417.5 97.1609,-421 97.161,-414"/>
</g>
<!-- Node43 -->
<g id="node14" class="node"><title>Node43</title>
<g id="a_node14"><a xlink:href="../../d1/da5/namespacemidas__vertmap.html#aaa8a9e13494c4d80d09c162e0a02d6eb" target="_top" xlink:title="midas_vertmap::determine\l_temperature">
<polygon fill="white" stroke="black" points="153.5,-358.5 153.5,-388.5 265.5,-388.5 265.5,-358.5 153.5,-358.5"/>
<text text-anchor="start" x="161.5" y="-376.5" font-family="Helvetica,sans-Serif" font-size="10.00">midas_vertmap::determine</text>
<text text-anchor="middle" x="209.5" y="-365.5" font-family="Helvetica,sans-Serif" font-size="10.00">_temperature</text>
</a>
</g>
</g>
<!-- Node30&#45;&gt;Node43 -->
<g id="edge13" class="edge"><title>Node30&#45;&gt;Node43</title>
<path fill="none" stroke="midnightblue" d="M96.9164,-403.437C114.932,-398.604 135.147,-393.18 153.371,-388.291"/>
<polygon fill="midnightblue" stroke="midnightblue" points="95.9124,-400.083 87.1609,-406.054 97.7264,-406.843 95.9124,-400.083"/>
</g>
<!-- Node44 -->
<g id="node15" class="node"><title>Node44</title>
<g id="a_node15"><a xlink:href="../../da/d32/namespacemom__entrain__diffusive.html#acf36bae78e6175d37c3de0d61b0ac32f" target="_top" xlink:title="mom_entrain_diffusive\l::entrainment_diffusive">
<polygon fill="white" stroke="black" points="161,-309.5 161,-339.5 258,-339.5 258,-309.5 161,-309.5"/>
<text text-anchor="start" x="169" y="-327.5" font-family="Helvetica,sans-Serif" font-size="10.00">mom_entrain_diffusive</text>
<text text-anchor="middle" x="209.5" y="-316.5" font-family="Helvetica,sans-Serif" font-size="10.00">::entrainment_diffusive</text>
</a>
</g>
</g>
<!-- Node30&#45;&gt;Node44 -->
<g id="edge14" class="edge"><title>Node30&#45;&gt;Node44</title>
<path fill="none" stroke="midnightblue" d="M64.8756,-394.913C79.656,-379.787 100.866,-360.517 123,-348.5 134.653,-342.174 148.125,-337.39 160.88,-333.825"/>
<polygon fill="midnightblue" stroke="midnightblue" points="62.1225,-392.729 57.7616,-402.385 67.192,-397.556 62.1225,-392.729"/>
</g>
<!-- Node45 -->
<g id="node16" class="node"><title>Node45</title>
<g id="a_node16"><a xlink:href="../../d0/d77/namespacemom__int__tide__input.html#a66b16dd9f27c4131d8bd37886b947721" target="_top" xlink:title="mom_int_tide_input\l::find_n2_bottom">
<polygon fill="white" stroke="black" points="166.5,-260.5 166.5,-290.5 252.5,-290.5 252.5,-260.5 166.5,-260.5"/>
<text text-anchor="start" x="174.5" y="-278.5" font-family="Helvetica,sans-Serif" font-size="10.00">mom_int_tide_input</text>
<text text-anchor="middle" x="209.5" y="-267.5" font-family="Helvetica,sans-Serif" font-size="10.00">::find_n2_bottom</text>
</a>
</g>
</g>
<!-- Node30&#45;&gt;Node45 -->
<g id="edge15" class="edge"><title>Node30&#45;&gt;Node45</title>
<path fill="none" stroke="midnightblue" d="M54.5768,-392.819C66.817,-365.911 90.0021,-323.494 123,-299.5 135.594,-290.342 151.559,-284.675 166.275,-281.169"/>
<polygon fill="midnightblue" stroke="midnightblue" points="51.2296,-391.737 50.4239,-402.301 57.6417,-394.545 51.2296,-391.737"/>
</g>
<!-- Node47 -->
<g id="node18" class="node"><title>Node47</title>
<g id="a_node18"><a xlink:href="../../d8/da4/namespacemom__neutral__diffusion.html#a53d5e3f8d7610b60644aaa9f44fd854e" target="_top" xlink:title="Calculate remapping factors for u/v columns used to map adjoining columns to a shared coordinate spac...">
<polygon fill="white" stroke="black" points="160.5,-201 160.5,-242 258.5,-242 258.5,-201 160.5,-201"/>
<text text-anchor="start" x="168.5" y="-230" font-family="Helvetica,sans-Serif" font-size="10.00">mom_neutral_diffusion</text>
<text text-anchor="start" x="168.5" y="-219" font-family="Helvetica,sans-Serif" font-size="10.00">::neutral_diffusion_calc</text>
<text text-anchor="middle" x="209.5" y="-208" font-family="Helvetica,sans-Serif" font-size="10.00">_coeffs</text>
</a>
</g>
</g>
<!-- Node30&#45;&gt;Node47 -->
<g id="edge17" class="edge"><title>Node30&#45;&gt;Node47</title>
<path fill="none" stroke="midnightblue" d="M49.7468,-392.37C58.6085,-356.032 79.9478,-288.966 123,-250.5 133.403,-241.205 146.906,-234.868 160.097,-230.556"/>
<polygon fill="midnightblue" stroke="midnightblue" points="46.3223,-391.644 47.4784,-402.176 53.1422,-393.222 46.3223,-391.644"/>
</g>
<!-- Node49 -->
<g id="node20" class="node"><title>Node49</title>
<g id="a_node20"><a xlink:href="../../d6/d5d/namespacemom__set__visc.html#a9e73d0338646bb91d14b78e86f6e3886" target="_top" xlink:title="mom_set_visc::set_viscous_bbl">
<polygon fill="white" stroke="black" points="146,-125 146,-144 273,-144 273,-125 146,-125"/>
<text text-anchor="middle" x="209.5" y="-132" font-family="Helvetica,sans-Serif" font-size="10.00">mom_set_visc::set_viscous_bbl</text>
</a>
</g>
</g>
<!-- Node30&#45;&gt;Node49 -->
<g id="edge19" class="edge"><title>Node30&#45;&gt;Node49</title>
<path fill="none" stroke="midnightblue" d="M44.1063,-392.12C44.7519,-339.424 54.0941,-217.721 123,-153.5 129.452,-147.487 137.369,-143.223 145.756,-140.225"/>
<polygon fill="midnightblue" stroke="midnightblue" points="40.6061,-392.264 44.0823,-402.272 47.6061,-392.281 40.6061,-392.264"/>
</g>
<!-- Node54 -->
<g id="node25" class="node"><title>Node54</title>
<g id="a_node25"><a xlink:href="../../d6/d5d/namespacemom__set__visc.html#afa97c345f1c4caaaf53b039d0b3fc9d8" target="_top" xlink:title="mom_set_visc::set_viscous_ml">
<polygon fill="white" stroke="black" points="147,-163 147,-182 272,-182 272,-163 147,-163"/>
<text text-anchor="middle" x="209.5" y="-170" font-family="Helvetica,sans-Serif" font-size="10.00">mom_set_visc::set_viscous_ml</text>
</a>
</g>
</g>
<!-- Node30&#45;&gt;Node54 -->
<g id="edge24" class="edge"><title>Node30&#45;&gt;Node54</title>
<path fill="none" stroke="midnightblue" d="M45.5937,-392.205C49.0513,-345.248 63.4141,-244.565 123,-191.5 129.813,-185.432 138.13,-181.165 146.87,-178.188"/>
<polygon fill="midnightblue" stroke="midnightblue" points="42.0865,-392.211 44.9547,-402.41 49.0728,-392.649 42.0865,-392.211"/>
</g>
<!-- Node55 -->
<g id="node26" class="node"><title>Node55</title>
<g id="a_node26"><a xlink:href="../../d1/d75/namespacemom__thickness__diffuse.html#ad461e8977f22cd7488fb1925e58cf084" target="_top" xlink:title="mom_thickness_diffuse\l::thickness_diffuse_full">
<polygon fill="white" stroke="black" points="160,-752.5 160,-782.5 259,-782.5 259,-752.5 160,-752.5"/>
<text text-anchor="start" x="168" y="-770.5" font-family="Helvetica,sans-Serif" font-size="10.00">mom_thickness_diffuse</text>
<text text-anchor="middle" x="209.5" y="-759.5" font-family="Helvetica,sans-Serif" font-size="10.00">::thickness_diffuse_full</text>
</a>
</g>
</g>
<!-- Node30&#45;&gt;Node55 -->
<g id="edge29" class="edge"><title>Node30&#45;&gt;Node55</title>
<path fill="none" stroke="midnightblue" d="M47.3953,-442.858C55.701,-511.331 81.6936,-697.747 123,-741.5 132.692,-751.766 146.297,-758.019 159.809,-761.815"/>
<polygon fill="midnightblue" stroke="midnightblue" points="50.8277,-442.082 46.173,-432.564 43.8766,-442.907 50.8277,-442.082"/>
</g>
<!-- Node58 -->
<g id="node29" class="node"><title>Node58</title>
<g id="a_node29"><a xlink:href="../../dd/d33/namespacemom__wave__speed.html#a90775d734022991a9b49d5ee25210051" target="_top" xlink:title="mom_wave_speed::wave\l_speed">
<polygon fill="white" stroke="black" points="156,-701.5 156,-731.5 263,-731.5 263,-701.5 156,-701.5"/>
<text text-anchor="start" x="164" y="-719.5" font-family="Helvetica,sans-Serif" font-size="10.00">mom_wave_speed::wave</text>
<text text-anchor="middle" x="209.5" y="-708.5" font-family="Helvetica,sans-Serif" font-size="10.00">_speed</text>
</a>
</g>
</g>
<!-- Node30&#45;&gt;Node58 -->
<g id="edge33" class="edge"><title>Node30&#45;&gt;Node58</title>
<path fill="none" stroke="midnightblue" d="M44.0353,-442.878C44.4851,-496.733 53.3799,-623.186 123,-692.5 131.85,-701.311 143.659,-706.949 155.669,-710.54"/>
<polygon fill="midnightblue" stroke="midnightblue" points="47.5353,-442.827 44.0455,-432.823 40.5353,-442.82 47.5353,-442.827"/>
</g>
<!-- Node61 -->
<g id="node32" class="node"><title>Node61</title>
<g id="a_node32"><a xlink:href="../../dd/d33/namespacemom__wave__speed.html#a0009abd8573168b780c95db2962982d6" target="_top" xlink:title="mom_wave_speed::wave\l_speeds">
<polygon fill="white" stroke="black" points="365,-438.5 365,-468.5 472,-468.5 472,-438.5 365,-438.5"/>
<text text-anchor="start" x="373" y="-456.5" font-family="Helvetica,sans-Serif" font-size="10.00">mom_wave_speed::wave</text>
<text text-anchor="middle" x="418.5" y="-445.5" font-family="Helvetica,sans-Serif" font-size="10.00">_speeds</text>
</a>
</g>
</g>
<!-- Node30&#45;&gt;Node61 -->
<g id="edge37" class="edge"><title>Node30&#45;&gt;Node61</title>
<path fill="none" stroke="midnightblue" d="M96.9864,-431.58C105.627,-433.5 114.527,-435.24 123,-436.5 206.964,-448.981 305.657,-452.427 364.808,-453.305"/>
<polygon fill="midnightblue" stroke="midnightblue" points="97.5365,-428.115 87.004,-429.261 95.9528,-434.933 97.5365,-428.115"/>
</g>
<!-- Node62 -->
<g id="node33" class="node"><title>Node62</title>
<g id="a_node33"><a xlink:href="../../d4/d7e/namespacemom__wave__structure.html#a6dab6eaab930bb622d4462d5f51f8ab4" target="_top" xlink:title="mom_wave_structure\l::wave_structure">
<polygon fill="white" stroke="black" points="162.5,-38.5 162.5,-68.5 256.5,-68.5 256.5,-38.5 162.5,-38.5"/>
<text text-anchor="start" x="170.5" y="-56.5" font-family="Helvetica,sans-Serif" font-size="10.00">mom_wave_structure</text>
<text text-anchor="middle" x="209.5" y="-45.5" font-family="Helvetica,sans-Serif" font-size="10.00">::wave_structure</text>
</a>
</g>
</g>
<!-- Node30&#45;&gt;Node62 -->
<g id="edge39" class="edge"><title>Node30&#45;&gt;Node62</title>
<path fill="none" stroke="midnightblue" d="M45.4356,-391.943C48.5966,-336.752 62.4345,-204.247 123,-115.5 136.746,-95.3571 159.287,-79.4094 177.774,-68.7346"/>
<polygon fill="midnightblue" stroke="midnightblue" points="41.9261,-392.047 44.9225,-402.209 48.9174,-392.397 41.9261,-392.047"/>
</g>
<!-- Node32 -->
<g id="node3" class="node"><title>Node32</title>
<g id="a_node3"><a xlink:href="../../d6/d62/namespacemom__state__initialization.html#af4e854627c6572332ba3fd895f169321" target="_top" xlink:title="mom_state_initialization\l::mom_initialize_state">
<polygon fill="white" stroke="black" points="368,-622.5 368,-652.5 469,-652.5 469,-622.5 368,-622.5"/>
<text text-anchor="start" x="376" y="-640.5" font-family="Helvetica,sans-Serif" font-size="10.00">mom_state_initialization</text>
<text text-anchor="middle" x="418.5" y="-629.5" font-family="Helvetica,sans-Serif" font-size="10.00">::mom_initialize_state</text>
</a>
</g>
</g>
<!-- Node31&#45;&gt;Node32 -->
<g id="edge2" class="edge"><title>Node31&#45;&gt;Node32</title>
<path fill="none" stroke="midnightblue" d="M282.016,-653.863C310.319,-650.445 342.16,-646.599 367.86,-643.495"/>
<polygon fill="midnightblue" stroke="midnightblue" points="281.275,-650.427 271.767,-655.101 282.114,-657.376 281.275,-650.427"/>
</g>
<!-- Node33 -->
<g id="node4" class="node"><title>Node33</title>
<g id="a_node4"><a xlink:href="../../da/d01/namespacemom.html#afebdc0103ad9cbe0ed4a54e522dc4104" target="_top" xlink:title="This subroutine initializes MOM. ">
<polygon fill="white" stroke="black" points="542,-660 542,-679 631,-679 631,-660 542,-660"/>
<text text-anchor="middle" x="586.5" y="-667" font-family="Helvetica,sans-Serif" font-size="10.00">mom::initialize_mom</text>
</a>
</g>
</g>
<!-- Node32&#45;&gt;Node33 -->
<g id="edge3" class="edge"><title>Node32&#45;&gt;Node33</title>
<path fill="none" stroke="midnightblue" d="M479.274,-649.023C499.975,-653.013 522.773,-657.408 541.923,-661.1"/>
<polygon fill="midnightblue" stroke="midnightblue" points="479.787,-645.557 469.305,-647.101 478.462,-652.431 479.787,-645.557"/>
</g>
<!-- Node34 -->
<g id="node5" class="node"><title>Node34</title>
<g id="a_node5"><a xlink:href="../../de/dbc/MOM__driver_8F90.html#a08fffeb2d8e8acbf9ed4609be6d258c6" target="_top" xlink:title="mom_main">
<polygon fill="white" stroke="black" points="668,-695 668,-714 724,-714 724,-695 668,-695"/>
<text text-anchor="middle" x="696" y="-702" font-family="Helvetica,sans-Serif" font-size="10.00">mom_main</text>
</a>
</g>
</g>
<!-- Node33&#45;&gt;Node34 -->
<g id="edge4" class="edge"><title>Node33&#45;&gt;Node34</title>
<path fill="none" stroke="midnightblue" d="M626.557,-682.216C640.267,-686.68 655.358,-691.593 667.873,-695.668"/>
<polygon fill="midnightblue" stroke="midnightblue" points="627.467,-678.832 616.875,-679.064 625.3,-685.488 627.467,-678.832"/>
</g>
<!-- Node37 -->
<g id="node8" class="node"><title>Node37</title>
<g id="a_node8"><a xlink:href="../../d0/d86/namespacemom__lateral__mixing__coeffs.html#a8abf768b636e96aafa9544287624523e" target="_top" xlink:title="Calculates functions of isopycnal slopes. ">
<polygon fill="white" stroke="black" points="374.5,-536 374.5,-577 462.5,-577 462.5,-536 374.5,-536"/>
<text text-anchor="start" x="382.5" y="-565" font-family="Helvetica,sans-Serif" font-size="10.00">mom_lateral_mixing</text>
<text text-anchor="start" x="382.5" y="-554" font-family="Helvetica,sans-Serif" font-size="10.00">_coeffs::calc_slope</text>
<text text-anchor="middle" x="418.5" y="-543" font-family="Helvetica,sans-Serif" font-size="10.00">_functions</text>
</a>
</g>
</g>
<!-- Node36&#45;&gt;Node37 -->
<g id="edge7" class="edge"><title>Node36&#45;&gt;Node37</title>
<path fill="none" stroke="midnightblue" d="M270.149,-550.805C303.417,-552.091 344.103,-553.663 374.286,-554.83"/>
<polygon fill="midnightblue" stroke="midnightblue" points="270.209,-547.305 260.082,-550.416 269.939,-554.3 270.209,-547.305"/>
</g>
<!-- Node39 -->
<g id="node10" class="node"><title>Node39</title>
<g id="a_node10"><a xlink:href="../../d3/d4b/namespacemom__set__diffusivity.html#a8b1f646393f0ec717ca690e4f04d96e8" target="_top" xlink:title="mom_set_diffusivity\l::set_diffusivity">
<polygon fill="white" stroke="black" points="375.5,-487.5 375.5,-517.5 461.5,-517.5 461.5,-487.5 375.5,-487.5"/>
<text text-anchor="start" x="383.5" y="-505.5" font-family="Helvetica,sans-Serif" font-size="10.00">mom_set_diffusivity</text>
<text text-anchor="middle" x="418.5" y="-494.5" font-family="Helvetica,sans-Serif" font-size="10.00">::set_diffusivity</text>
</a>
</g>
</g>
<!-- Node38&#45;&gt;Node39 -->
<g id="edge9" class="edge"><title>Node38&#45;&gt;Node39</title>
<path fill="none" stroke="midnightblue" d="M280.163,-500.51C311.737,-500.967 348.032,-501.493 375.378,-501.89"/>
<polygon fill="midnightblue" stroke="midnightblue" points="280.145,-497.009 270.095,-500.364 280.043,-504.008 280.145,-497.009"/>
</g>
<!-- Node41 -->
<g id="node12" class="node"><title>Node41</title>
<g id="a_node12"><a xlink:href="../../dd/dc3/namespacemom__forcing__type.html#ada776515b52ca3fa34901572cfef5858" target="_top" xlink:title="Calculates surface buoyancy flux by adding up the heat, FW and salt fluxes, for 2d arrays...">
<polygon fill="white" stroke="black" points="332,-400 332,-419 505,-419 505,-400 332,-400"/>
<text text-anchor="middle" x="418.5" y="-407" font-family="Helvetica,sans-Serif" font-size="10.00">mom_forcing_type::calculatebuoyancyflux2d</text>
</a>
</g>
</g>
<!-- Node40&#45;&gt;Node41 -->
<g id="edge11" class="edge"><title>Node40&#45;&gt;Node41</title>
<path fill="none" stroke="midnightblue" d="M306.198,-413.802C314.764,-413.47 323.402,-413.137 331.875,-412.809"/>
<polygon fill="midnightblue" stroke="midnightblue" points="306.046,-410.305 296.189,-414.188 306.317,-417.299 306.046,-410.305"/>
</g>
<!-- Node42 -->
<g id="node13" class="node"><title>Node42</title>
<g id="a_node13"><a xlink:href="../../d8/df3/namespacemom__diabatic__driver.html#a61e57d3902367aa46aa3c2d949ee900f" target="_top" xlink:title="This subroutine imposes the diapycnal mass fluxes and the accompanying diapycnal advection of momentu...">
<polygon fill="white" stroke="black" points="541,-416.5 541,-446.5 632,-446.5 632,-416.5 541,-416.5"/>
<text text-anchor="start" x="549" y="-434.5" font-family="Helvetica,sans-Serif" font-size="10.00">mom_diabatic_driver</text>
<text text-anchor="middle" x="586.5" y="-423.5" font-family="Helvetica,sans-Serif" font-size="10.00">::diabatic</text>
</a>
</g>
</g>
<!-- Node41&#45;&gt;Node42 -->
<g id="edge12" class="edge"><title>Node41&#45;&gt;Node42</title>
<path fill="none" stroke="midnightblue" d="M501.65,-420.387C515.165,-422.178 528.71,-423.974 540.851,-425.583"/>
<polygon fill="midnightblue" stroke="midnightblue" points="501.718,-416.866 491.345,-419.022 500.798,-423.805 501.718,-416.866"/>
</g>
<!-- Node46 -->
<g id="node17" class="node"><title>Node46</title>
<g id="a_node17"><a xlink:href="../../d0/d77/namespacemom__int__tide__input.html#a085f75d081e7a3091ad5bdfe91858714" target="_top" xlink:title="mom_int_tide_input\l::set_int_tide_input">
<polygon fill="white" stroke="black" points="375.5,-304.5 375.5,-334.5 461.5,-334.5 461.5,-304.5 375.5,-304.5"/>
<text text-anchor="start" x="383.5" y="-322.5" font-family="Helvetica,sans-Serif" font-size="10.00">mom_int_tide_input</text>
<text text-anchor="middle" x="418.5" y="-311.5" font-family="Helvetica,sans-Serif" font-size="10.00">::set_int_tide_input</text>
</a>
</g>
</g>
<!-- Node45&#45;&gt;Node46 -->
<g id="edge16" class="edge"><title>Node45&#45;&gt;Node46</title>
<path fill="none" stroke="midnightblue" d="M262.642,-286.583C297.526,-293.998 342.836,-303.629 375.42,-310.555"/>
<polygon fill="midnightblue" stroke="midnightblue" points="263.148,-283.113 252.639,-284.457 261.693,-289.96 263.148,-283.113"/>
</g>
<!-- Node48 -->
<g id="node19" class="node"><title>Node48</title>
<g id="a_node19"><a xlink:href="../../da/db2/namespacemom__tracer__hor__diff.html#ae8eba26c164a4e8e4ba1008cda9850e6" target="_top" xlink:title="Compute along&#45;coordinate diffusion of all tracers using the diffusivity in CSKhTr, or using space&#45;dependent diffusivity. Multiple iterations are used (if necessary) so that there is no limit on the acceptable time increment. ">
<polygon fill="white" stroke="black" points="372.5,-255.5 372.5,-285.5 464.5,-285.5 464.5,-255.5 372.5,-255.5"/>
<text text-anchor="start" x="380.5" y="-273.5" font-family="Helvetica,sans-Serif" font-size="10.00">mom_tracer_hor_diff</text>
<text text-anchor="middle" x="418.5" y="-262.5" font-family="Helvetica,sans-Serif" font-size="10.00">::tracer_hordiff</text>
</a>
</g>
</g>
<!-- Node47&#45;&gt;Node48 -->
<g id="edge18" class="edge"><title>Node47&#45;&gt;Node48</title>
<path fill="none" stroke="midnightblue" d="M268.435,-235.214C301.269,-242.986 341.747,-252.568 372.233,-259.785"/>
<polygon fill="midnightblue" stroke="midnightblue" points="269.048,-231.762 258.51,-232.865 267.435,-238.574 269.048,-231.762"/>
</g>
<!-- Node50 -->
<g id="node21" class="node"><title>Node50</title>
<g id="a_node21"><a xlink:href="../../db/dd4/namespacemom__dynamics__legacy__split.html#ae34fe0561f87dc05c2fad64bf6d5a1ee" target="_top" xlink:title="mom_dynamics_legacy\l_split::step_mom_dyn\l_legacy_split">
<polygon fill="white" stroke="black" points="369,-49 369,-90 468,-90 468,-49 369,-49"/>
<text text-anchor="start" x="377" y="-78" font-family="Helvetica,sans-Serif" font-size="10.00">mom_dynamics_legacy</text>
<text text-anchor="start" x="377" y="-67" font-family="Helvetica,sans-Serif" font-size="10.00">_split::step_mom_dyn</text>
<text text-anchor="middle" x="418.5" y="-56" font-family="Helvetica,sans-Serif" font-size="10.00">_legacy_split</text>
</a>
</g>
</g>
<!-- Node49&#45;&gt;Node50 -->
<g id="edge20" class="edge"><title>Node49&#45;&gt;Node50</title>
<path fill="none" stroke="midnightblue" d="M250.587,-121.912C284.347,-111.311 332.753,-96.1113 368.751,-84.8077"/>
<polygon fill="midnightblue" stroke="midnightblue" points="249.536,-118.574 241.044,-124.909 251.633,-125.252 249.536,-118.574"/>
</g>
<!-- Node51 -->
<g id="node22" class="node"><title>Node51</title>
<g id="a_node22"><a xlink:href="../../d1/dc3/namespacemom__dynamics__split__rk2.html#a81cce65643a8cf94979d68354a9a1979" target="_top" xlink:title="RK2 splitting for time stepping MOM adiabatic dynamics. ">
<polygon fill="white" stroke="black" points="356,-206.5 356,-236.5 481,-236.5 481,-206.5 356,-206.5"/>
<text text-anchor="start" x="364" y="-224.5" font-family="Helvetica,sans-Serif" font-size="10.00">mom_dynamics_split</text>
<text text-anchor="middle" x="418.5" y="-213.5" font-family="Helvetica,sans-Serif" font-size="10.00">_rk2::step_mom_dyn_split_rk2</text>
</a>
</g>
</g>
<!-- Node49&#45;&gt;Node51 -->
<g id="edge21" class="edge"><title>Node49&#45;&gt;Node51</title>
<path fill="none" stroke="midnightblue" d="M282.749,-146.867C287.37,-148.771 291.834,-150.967 296,-153.5 317.298,-166.447 311.14,-182.859 332,-196.5 339.248,-201.24 347.417,-205.102 355.756,-208.244"/>
<polygon fill="midnightblue" stroke="midnightblue" points="283.681,-143.481 273.086,-143.353 281.288,-150.06 283.681,-143.481"/>
</g>
<!-- Node52 -->
<g id="node23" class="node"><title>Node52</title>
<g id="a_node23"><a xlink:href="../../d7/d44/namespacemom__dynamics__unsplit.html#a53a72861e61f049479fdec46ea11227b" target="_top" xlink:title="mom_dynamics_unsplit\l::step_mom_dyn_unsplit">
<polygon fill="white" stroke="black" points="367,-157.5 367,-187.5 470,-187.5 470,-157.5 367,-157.5"/>
<text text-anchor="start" x="375" y="-175.5" font-family="Helvetica,sans-Serif" font-size="10.00">mom_dynamics_unsplit</text>
<text text-anchor="middle" x="418.5" y="-164.5" font-family="Helvetica,sans-Serif" font-size="10.00">::step_mom_dyn_unsplit</text>
</a>
</g>
</g>
<!-- Node49&#45;&gt;Node52 -->
<g id="edge22" class="edge"><title>Node49&#45;&gt;Node52</title>
<path fill="none" stroke="midnightblue" d="M272.464,-145.875C302.635,-151.414 338.451,-157.989 366.942,-163.219"/>
<polygon fill="midnightblue" stroke="midnightblue" points="272.935,-142.403 262.468,-144.04 271.671,-149.288 272.935,-142.403"/>
</g>
<!-- Node53 -->
<g id="node24" class="node"><title>Node53</title>
<g id="a_node24"><a xlink:href="../../d7/da4/namespacemom__dynamics__unsplit__rk2.html#ae10d75d92c1ec7783df7e5d8965b86a0" target="_top" xlink:title="mom_dynamics_unsplit\l_rk2::step_mom_dyn_unsplit_rk2">
<polygon fill="white" stroke="black" points="351.5,-108.5 351.5,-138.5 485.5,-138.5 485.5,-108.5 351.5,-108.5"/>
<text text-anchor="start" x="359.5" y="-126.5" font-family="Helvetica,sans-Serif" font-size="10.00">mom_dynamics_unsplit</text>
<text text-anchor="middle" x="418.5" y="-115.5" font-family="Helvetica,sans-Serif" font-size="10.00">_rk2::step_mom_dyn_unsplit_rk2</text>
</a>
</g>
</g>
<!-- Node49&#45;&gt;Node53 -->
<g id="edge23" class="edge"><title>Node49&#45;&gt;Node53</title>
<path fill="none" stroke="midnightblue" d="M283.21,-130.636C305.42,-129.456 329.711,-128.165 351.453,-127.01"/>
<polygon fill="midnightblue" stroke="midnightblue" points="282.969,-127.144 273.169,-131.17 283.34,-134.134 282.969,-127.144"/>
</g>
<!-- Node54&#45;&gt;Node50 -->
<g id="edge25" class="edge"><title>Node54&#45;&gt;Node50</title>
<path fill="none" stroke="midnightblue" d="M281.969,-161.186C286.916,-159.042 291.656,-156.504 296,-153.5 320.03,-136.885 308.904,-116.392 332,-98.5 342.656,-90.2446 355.802,-84.263 368.562,-79.9592"/>
<polygon fill="midnightblue" stroke="midnightblue" points="280.376,-158.046 272.248,-164.842 282.84,-164.598 280.376,-158.046"/>
</g>
<!-- Node54&#45;&gt;Node51 -->
<g id="edge26" class="edge"><title>Node54&#45;&gt;Node51</title>
<path fill="none" stroke="midnightblue" d="M264.381,-184.272C274.878,-186.623 285.791,-189.106 296,-191.5 316.201,-196.238 338.239,-201.616 357.932,-206.497"/>
<polygon fill="midnightblue" stroke="midnightblue" points="265.002,-180.825 254.481,-182.067 263.48,-187.657 265.002,-180.825"/>
</g>
<!-- Node54&#45;&gt;Node52 -->
<g id="edge27" class="edge"><title>Node54&#45;&gt;Node52</title>
<path fill="none" stroke="midnightblue" d="M282.169,-172.5C310.111,-172.5 341.482,-172.5 366.98,-172.5"/>
<polygon fill="midnightblue" stroke="midnightblue" points="282.046,-169 272.046,-172.5 282.046,-176 282.046,-169"/>
</g>
<!-- Node54&#45;&gt;Node53 -->
<g id="edge28" class="edge"><title>Node54&#45;&gt;Node53</title>
<path fill="none" stroke="midnightblue" d="M264.381,-160.728C274.878,-158.377 285.791,-155.894 296,-153.5 316.201,-148.762 338.239,-143.384 357.932,-138.503"/>
<polygon fill="midnightblue" stroke="midnightblue" points="263.48,-157.343 254.481,-162.933 265.002,-164.175 263.48,-157.343"/>
</g>
<!-- Node56 -->
<g id="node27" class="node"><title>Node56</title>
<g id="a_node27"><a xlink:href="../../d1/d75/namespacemom__thickness__diffuse.html#a9506f374762ce6d5d12424a9314fad2f" target="_top" xlink:title="mom_thickness_diffuse\l::thickness_diffuse">
<polygon fill="white" stroke="black" points="369,-779.5 369,-809.5 468,-809.5 468,-779.5 369,-779.5"/>
<text text-anchor="start" x="377" y="-797.5" font-family="Helvetica,sans-Serif" font-size="10.00">mom_thickness_diffuse</text>
<text text-anchor="middle" x="418.5" y="-786.5" font-family="Helvetica,sans-Serif" font-size="10.00">::thickness_diffuse</text>
</a>
</g>
</g>
<!-- Node55&#45;&gt;Node56 -->
<g id="edge30" class="edge"><title>Node55&#45;&gt;Node56</title>
<path fill="none" stroke="midnightblue" d="M269.012,-775.132C300.561,-779.247 339.035,-784.265 368.914,-788.163"/>
<polygon fill="midnightblue" stroke="midnightblue" points="269.401,-771.653 259.032,-773.83 268.496,-778.594 269.401,-771.653"/>
</g>
<!-- Node57 -->
<g id="node28" class="node"><title>Node57</title>
<g id="a_node28"><a xlink:href="../../da/d01/namespacemom.html#a4c8332b095c6d295084089aa6b3b678a" target="_top" xlink:title="This subroutine orchestrates the time stepping of MOM. The adiabatic dynamics are stepped by calls to...">
<polygon fill="white" stroke="black" points="548,-731 548,-750 625,-750 625,-731 548,-731"/>
<text text-anchor="middle" x="586.5" y="-738" font-family="Helvetica,sans-Serif" font-size="10.00">mom::step_mom</text>
</a>
</g>
</g>
<!-- Node56&#45;&gt;Node57 -->
<g id="edge31" class="edge"><title>Node56&#45;&gt;Node57</title>
<path fill="none" stroke="midnightblue" d="M477.883,-778.811C486.997,-776.161 496.281,-773.343 505,-770.5 524.143,-764.258 545.482,-756.257 561.378,-750.087"/>
<polygon fill="midnightblue" stroke="midnightblue" points="476.743,-775.497 468.093,-781.615 478.67,-782.226 476.743,-775.497"/>
</g>
<!-- Node57&#45;&gt;Node34 -->
<g id="edge32" class="edge"><title>Node57&#45;&gt;Node34</title>
<path fill="none" stroke="midnightblue" d="M625.813,-727.669C639.702,-723.019 655.092,-717.864 667.824,-713.601"/>
<polygon fill="midnightblue" stroke="midnightblue" points="624.397,-724.453 616.026,-730.947 626.62,-731.09 624.397,-724.453"/>
</g>
<!-- Node59 -->
<g id="node30" class="node"><title>Node59</title>
<g id="a_node30"><a xlink:href="../../d9/d8b/namespacemom__diagnostics.html#abb6644248c28ab2e952361bfec436063" target="_top" xlink:title="mom_diagnostics::calculate\l_diagnostic_fields">
<polygon fill="white" stroke="black" points="362,-671.5 362,-701.5 475,-701.5 475,-671.5 362,-671.5"/>
<text text-anchor="start" x="370" y="-689.5" font-family="Helvetica,sans-Serif" font-size="10.00">mom_diagnostics::calculate</text>
<text text-anchor="middle" x="418.5" y="-678.5" font-family="Helvetica,sans-Serif" font-size="10.00">_diagnostic_fields</text>
</a>
</g>
</g>
<!-- Node58&#45;&gt;Node59 -->
<g id="edge34" class="edge"><title>Node58&#45;&gt;Node59</title>
<path fill="none" stroke="midnightblue" d="M273.164,-707.418C301.391,-703.327 334.443,-698.537 361.792,-694.574"/>
<polygon fill="midnightblue" stroke="midnightblue" points="272.397,-703.993 263.002,-708.891 273.401,-710.92 272.397,-703.993"/>
</g>
<!-- Node60 -->
<g id="node31" class="node"><title>Node60</title>
<g id="a_node31"><a xlink:href="../../d0/d86/namespacemom__lateral__mixing__coeffs.html#af206bc656869b4fc27d4d7e8a15d438e" target="_top" xlink:title="mom_lateral_mixing\l_coeffs::calc_resoln\l_function">
<polygon fill="white" stroke="black" points="374.5,-720 374.5,-761 462.5,-761 462.5,-720 374.5,-720"/>
<text text-anchor="start" x="382.5" y="-749" font-family="Helvetica,sans-Serif" font-size="10.00">mom_lateral_mixing</text>
<text text-anchor="start" x="382.5" y="-738" font-family="Helvetica,sans-Serif" font-size="10.00">_coeffs::calc_resoln</text>
<text text-anchor="middle" x="418.5" y="-727" font-family="Helvetica,sans-Serif" font-size="10.00">_function</text>
</a>
</g>
</g>
<!-- Node58&#45;&gt;Node60 -->
<g id="edge35" class="edge"><title>Node58&#45;&gt;Node60</title>
<path fill="none" stroke="midnightblue" d="M272.952,-723.741C305.749,-727.543 345.108,-732.107 374.468,-735.511"/>
<polygon fill="midnightblue" stroke="midnightblue" points="273.339,-720.262 263.002,-722.587 272.533,-727.216 273.339,-720.262"/>
</g>
<!-- Node60&#45;&gt;Node57 -->
<g id="edge36" class="edge"><title>Node60&#45;&gt;Node57</title>
<path fill="none" stroke="midnightblue" d="M472.889,-740.5C497.339,-740.5 525.736,-740.5 547.896,-740.5"/>
<polygon fill="midnightblue" stroke="midnightblue" points="472.681,-737 462.681,-740.5 472.681,-744 472.681,-737"/>
</g>
<!-- Node61&#45;&gt;Node42 -->
<g id="edge38" class="edge"><title>Node61&#45;&gt;Node42</title>
<path fill="none" stroke="midnightblue" d="M482.076,-445.207C501.628,-442.616 522.792,-439.811 540.851,-437.417"/>
<polygon fill="midnightblue" stroke="midnightblue" points="481.477,-441.756 472.023,-446.539 482.397,-448.695 481.477,-441.756"/>
</g>
<!-- Node63 -->
<g id="node34" class="node"><title>Node63</title>
<g id="a_node34"><a xlink:href="../../d6/d34/namespacemom__internal__tides.html#a6cae26da43d0539e8ac959105cf125c2" target="_top" xlink:title="mom_internal_tides\l::propagate_int_tide">
<polygon fill="white" stroke="black" points="374.5,-0.5 374.5,-30.5 462.5,-30.5 462.5,-0.5 374.5,-0.5"/>
<text text-anchor="start" x="382.5" y="-18.5" font-family="Helvetica,sans-Serif" font-size="10.00">mom_internal_tides</text>
<text text-anchor="middle" x="418.5" y="-7.5" font-family="Helvetica,sans-Serif" font-size="10.00">::propagate_int_tide</text>
</a>
</g>
</g>
<!-- Node62&#45;&gt;Node63 -->
<g id="edge40" class="edge"><title>Node62&#45;&gt;Node63</title>
<path fill="none" stroke="midnightblue" d="M266.901,-43.1462C300.733,-36.9354 343.1,-29.158 374.272,-23.4356"/>
<polygon fill="midnightblue" stroke="midnightblue" points="265.901,-39.7712 256.697,-45.0194 267.165,-46.6562 265.901,-39.7712"/>
</g>
</g>
</svg>
        <g id="navigator" transform="translate(0 0)" fill="#404254">
                <rect fill="#f2f5e9" fill-opacity="0.5" stroke="#606060" stroke-width=".5" x="0" y="0" width="60" height="60"/>
                <use id="zoomplus" xlink:href="#zoomPlus" x="17" y="9" onmousedown="handleZoom(evt,'in')"/>
                <use id="zoomminus" xlink:href="#zoomMin" x="42" y="9" onmousedown="handleZoom(evt,'out')"/>
                <use id="reset" xlink:href="#resetDef" x="30" y="36" onmousedown="handleReset()"/>
                <g id="arrowUp" xlink:href="#dirArrow" transform="translate(30 24)" onmousedown="handlePan(0,-1)">
                  <use xlink:href="#rim" fill="#404040">
                        <set attributeName="fill" to="#808080" begin="arrowUp.mouseover" end="arrowUp.mouseout"/>
                  </use>
                  <path fill="none" stroke="white" stroke-width="1.5" d="M0,-3.0v7 M-2.5,-0.5L0,-3.0L2.5,-0.5"/>
                </g>
                <g id="arrowRight" xlink:href="#dirArrow" transform="rotate(90) translate(36 -43)" onmousedown="handlePan(1,0)">
                  <use xlink:href="#rim" fill="#404040">
                        <set attributeName="fill" to="#808080" begin="arrowRight.mouseover" end="arrowRight.mouseout"/>
                  </use>
                  <path fill="none" stroke="white" stroke-width="1.5" d="M0,-3.0v7 M-2.5,-0.5L0,-3.0L2.5,-0.5"/>
                </g>
                <g id="arrowDown" xlink:href="#dirArrow" transform="rotate(180) translate(-30 -48)" onmousedown="handlePan(0,1)">
                  <use xlink:href="#rim" fill="#404040">
                        <set attributeName="fill" to="#808080" begin="arrowDown.mouseover" end="arrowDown.mouseout"/>
                  </use>
                  <path fill="none" stroke="white" stroke-width="1.5" d="M0,-3.0v7 M-2.5,-0.5L0,-3.0L2.5,-0.5"/>
                </g>
                <g id="arrowLeft" xlink:href="#dirArrow" transform="rotate(270) translate(-36 17)" onmousedown="handlePan(-1,0)">
                  <use xlink:href="#rim" fill="#404040">
                        <set attributeName="fill" to="#808080" begin="arrowLeft.mouseover" end="arrowLeft.mouseout"/>
                  </use>
                  <path fill="none" stroke="white" stroke-width="1.5" d="M0,-3.0v7 M-2.5,-0.5L0,-3.0L2.5,-0.5"/>
                </g>
        </g>
        <svg viewBox="0 0 15 15" width="100%" height="30px" preserveAspectRatio="xMaxYMin meet">
         <g id="arrow_out" transform="scale(0.3 0.3)">
          <a xlink:href="namespacemom__eos_a204529f8434a0322314e6ce2a9762436_icgraph_org.svg" target="_base">
           <rect id="button" ry="5" rx="5" y="6" x="6" height="38" width="38"
                fill="#f2f5e9" fill-opacity="0.5" stroke="#606060" stroke-width="1.0"/>
           <path id="arrow"
             d="M 11.500037,31.436501 C 11.940474,20.09759 22.043105,11.32322 32.158766,21.979434 L 37.068811,17.246167 C 37.068811,17.246167 37.088388,32 37.088388,32 L 22.160133,31.978069 C 22.160133,31.978069 26.997745,27.140456 26.997745,27.140456 C 18.528582,18.264221 13.291696,25.230495 11.500037,31.436501 z"
             style="fill:#404040;"/>
          </a>
         </g>
        </svg>
</svg>
