<?xml version="1.0" encoding="UTF-8" standalone="no"?>
<!DOCTYPE svg PUBLIC "-//W3C//DTD SVG 1.1//EN"
 "http://www.w3.org/Graphics/SVG/1.1/DTD/svg11.dtd">
<!-- Generated by graphviz version 2.38.0 (20140413.2041)
 -->
<!-- Title: cvmix_kpp::cvmix_get_kpp_real Pages: 1 -->
<svg width="407pt" height="219pt"
 viewBox="0.00 0.00 407.00 218.50" xmlns="http://www.w3.org/2000/svg" xmlns:xlink="http://www.w3.org/1999/xlink">
<g id="graph0" class="graph" transform="scale(1 1) rotate(0) translate(4 214.5)">
<title>cvmix_kpp::cvmix_get_kpp_real</title>
<polygon fill="white" stroke="none" points="-4,4 -4,-214.5 403,-214.5 403,4 -4,4"/>
<!-- Node16 -->
<g id="node1" class="node"><title>Node16</title>
<polygon fill="#bfbfbf" stroke="black" points="0,-93.5 0,-123.5 93,-123.5 93,-93.5 0,-93.5"/>
<text text-anchor="start" x="8" y="-111.5" font-family="Helvetica,sans-Serif" font-size="10.00">cvmix_kpp::cvmix_get</text>
<text text-anchor="middle" x="46.5" y="-100.5" font-family="Helvetica,sans-Serif" font-size="10.00">_kpp_real</text>
</g>
<!-- Node17 -->
<g id="node2" class="node"><title>Node17</title>
<g id="a_node2"><a xlink:href="../../d1/d6c/namespacecvmix__kpp.html#a2f7bca20e57714a3170eca2fca5ca183" target="_top" xlink:title="cvmix_kpp::compute\l_phi_inv">
<polygon fill="white" stroke="black" points="144.5,-137.5 144.5,-167.5 233.5,-167.5 233.5,-137.5 144.5,-137.5"/>
<text text-anchor="start" x="152.5" y="-155.5" font-family="Helvetica,sans-Serif" font-size="10.00">cvmix_kpp::compute</text>
<text text-anchor="middle" x="189" y="-144.5" font-family="Helvetica,sans-Serif" font-size="10.00">_phi_inv</text>
</a>
</g>
</g>
<!-- Node16&#45;&gt;Node17 -->
<g id="edge1" class="edge"><title>Node16&#45;&gt;Node17</title>
<path fill="none" stroke="midnightblue" d="M102.896,-125.848C116.56,-130.127 131.01,-134.653 144.048,-138.736"/>
<polygon fill="midnightblue" stroke="midnightblue" points="103.705,-122.434 93.1163,-122.786 101.613,-129.114 103.705,-122.434"/>
</g>
<!-- Node18 -->
<g id="node3" class="node"><title>Node18</title>
<g id="a_node3"><a xlink:href="../../d1/d6c/namespacecvmix__kpp.html#a8cc6ab3545bb014ededd63d848d3e904" target="_top" xlink:title="cvmix_kpp::cvmix_kpp\l_compute_turbulent_scales\l_1d_obl">
<polygon fill="white" stroke="black" points="285,-169 285,-210 399,-210 399,-169 285,-169"/>
<text text-anchor="start" x="293" y="-198" font-family="Helvetica,sans-Serif" font-size="10.00">cvmix_kpp::cvmix_kpp</text>
<text text-anchor="start" x="293" y="-187" font-family="Helvetica,sans-Serif" font-size="10.00">_compute_turbulent_scales</text>
<text text-anchor="middle" x="342" y="-176" font-family="Helvetica,sans-Serif" font-size="10.00">_1d_obl</text>
</a>
</g>
</g>
<!-- Node16&#45;&gt;Node18 -->
<g id="edge5" class="edge"><title>Node16&#45;&gt;Node18</title>
<path fill="none" stroke="midnightblue" d="M66.5631,-131.048C81.6685,-147.152 104.287,-167.642 129,-177.5 178.992,-197.441 240.916,-198.54 284.902,-195.802"/>
<polygon fill="midnightblue" stroke="midnightblue" points="69.0848,-128.619 59.7751,-123.561 63.8988,-133.321 69.0848,-128.619"/>
</g>
<!-- Node19 -->
<g id="node4" class="node"><title>Node19</title>
<g id="a_node4"><a xlink:href="../../d1/d6c/namespacecvmix__kpp.html#aa1355c1307f6d8ee79cf2b3f1842f6bb" target="_top" xlink:title="cvmix_kpp::cvmix_kpp\l_compute_turbulent_scales\l_1d_sigma">
<polygon fill="white" stroke="black" points="285,-95 285,-136 399,-136 399,-95 285,-95"/>
<text text-anchor="start" x="293" y="-124" font-family="Helvetica,sans-Serif" font-size="10.00">cvmix_kpp::cvmix_kpp</text>
<text text-anchor="start" x="293" y="-113" font-family="Helvetica,sans-Serif" font-size="10.00">_compute_turbulent_scales</text>
<text text-anchor="middle" x="342" y="-102" font-family="Helvetica,sans-Serif" font-size="10.00">_1d_sigma</text>
</a>
</g>
</g>
<!-- Node16&#45;&gt;Node19 -->
<g id="edge6" class="edge"><title>Node16&#45;&gt;Node19</title>
<path fill="none" stroke="midnightblue" d="M103.096,-109.826C155.154,-111.068 232.55,-112.913 284.802,-114.16"/>
<polygon fill="midnightblue" stroke="midnightblue" points="103.118,-106.326 93.0373,-109.586 102.951,-113.324 103.118,-106.326"/>
</g>
<!-- Node20 -->
<g id="node5" class="node"><title>Node20</title>
<g id="a_node5"><a xlink:href="../../d1/d6c/namespacecvmix__kpp.html#a0f784d641b5384ed1f4c07fc119926bd" target="_top" xlink:title="cvmix_kpp::cvmix_kpp\l_compute_obl_depth_low">
<polygon fill="white" stroke="black" points="135,-49.5 135,-79.5 243,-79.5 243,-49.5 135,-49.5"/>
<text text-anchor="start" x="143" y="-67.5" font-family="Helvetica,sans-Serif" font-size="10.00">cvmix_kpp::cvmix_kpp</text>
<text text-anchor="middle" x="189" y="-56.5" font-family="Helvetica,sans-Serif" font-size="10.00">_compute_obl_depth_low</text>
</a>
</g>
</g>
<!-- Node16&#45;&gt;Node20 -->
<g id="edge4" class="edge"><title>Node16&#45;&gt;Node20</title>
<path fill="none" stroke="midnightblue" d="M102.744,-91.1995C114.955,-87.3753 127.801,-83.3523 139.711,-79.6226"/>
<polygon fill="midnightblue" stroke="midnightblue" points="101.613,-87.8858 93.1163,-94.2145 103.705,-94.5659 101.613,-87.8858"/>
</g>
<!-- Node21 -->
<g id="node6" class="node"><title>Node21</title>
<g id="a_node6"><a xlink:href="../../d1/d6c/namespacecvmix__kpp.html#aeaf00d8745bdd55c5a5779f9b4b9151d" target="_top" xlink:title="cvmix_kpp::cvmix_kpp\l_compute_unresolved_shear">
<polygon fill="white" stroke="black" points="129,-0.5 129,-30.5 249,-30.5 249,-0.5 129,-0.5"/>
<text text-anchor="start" x="137" y="-18.5" font-family="Helvetica,sans-Serif" font-size="10.00">cvmix_kpp::cvmix_kpp</text>
<text text-anchor="middle" x="189" y="-7.5" font-family="Helvetica,sans-Serif" font-size="10.00">_compute_unresolved_shear</text>
</a>
</g>
</g>
<!-- Node16&#45;&gt;Node21 -->
<g id="edge7" class="edge"><title>Node16&#45;&gt;Node21</title>
<path fill="none" stroke="midnightblue" d="M69.8405,-86.1928C85.4277,-71.5189 107.257,-52.6646 129,-39.5 134.392,-36.2354 140.308,-33.2348 146.247,-30.5424"/>
<polygon fill="midnightblue" stroke="midnightblue" points="67.0862,-83.9849 62.292,-93.433 71.9317,-89.0368 67.0862,-83.9849"/>
</g>
<!-- Node17&#45;&gt;Node18 -->
<g id="edge2" class="edge"><title>Node17&#45;&gt;Node18</title>
<path fill="none" stroke="midnightblue" d="M243.644,-165.645C256.975,-168.911 271.3,-172.421 284.751,-175.717"/>
<polygon fill="midnightblue" stroke="midnightblue" points="244.221,-162.182 233.675,-163.202 242.555,-168.981 244.221,-162.182"/>
</g>
<!-- Node17&#45;&gt;Node19 -->
<g id="edge3" class="edge"><title>Node17&#45;&gt;Node19</title>
<path fill="none" stroke="midnightblue" d="M243.644,-139.355C256.975,-136.089 271.3,-132.579 284.751,-129.283"/>
<polygon fill="midnightblue" stroke="midnightblue" points="242.555,-136.019 233.675,-141.798 244.221,-142.818 242.555,-136.019"/>
</g>
<!-- Node22 -->
<g id="node7" class="node"><title>Node22</title>
<g id="a_node7"><a xlink:href="../../d1/d6c/namespacecvmix__kpp.html#a86e5d9125812c741e58fbe227eba6aa8" target="_top" xlink:title="cvmix_kpp::cvmix_kpp\l_compute_bulk_richardson">
<polygon fill="white" stroke="black" points="285.5,-0.5 285.5,-30.5 398.5,-30.5 398.5,-0.5 285.5,-0.5"/>
<text text-anchor="start" x="293.5" y="-18.5" font-family="Helvetica,sans-Serif" font-size="10.00">cvmix_kpp::cvmix_kpp</text>
<text text-anchor="middle" x="342" y="-7.5" font-family="Helvetica,sans-Serif" font-size="10.00">_compute_bulk_richardson</text>
</a>
</g>
</g>
<!-- Node21&#45;&gt;Node22 -->
<g id="edge8" class="edge"><title>Node21&#45;&gt;Node22</title>
<path fill="none" stroke="midnightblue" d="M259.391,-15.5C268.099,-15.5 276.917,-15.5 285.376,-15.5"/>
<polygon fill="midnightblue" stroke="midnightblue" points="259.246,-12.0001 249.246,-15.5 259.246,-19.0001 259.246,-12.0001"/>
</g>
</g>
</svg>
