<?xml version="1.0" encoding="UTF-8" standalone="no"?>
<!DOCTYPE svg PUBLIC "-//W3C//DTD SVG 1.1//EN"
 "http://www.w3.org/Graphics/SVG/1.1/DTD/svg11.dtd">
<!-- Generated by graphviz version 2.38.0 (20140413.2041)
 -->
<!-- Title: cvmix_kpp::compute_phi_inv Pages: 1 -->
<svg width="226pt" height="39pt"
 viewBox="0.00 0.00 226.00 39.00" xmlns="http://www.w3.org/2000/svg" xmlns:xlink="http://www.w3.org/1999/xlink">
<g id="graph0" class="graph" transform="scale(1 1) rotate(0) translate(4 35)">
<title>cvmix_kpp::compute_phi_inv</title>
<polygon fill="white" stroke="none" points="-4,4 -4,-35 222,-35 222,4 -4,4"/>
<!-- Node0 -->
<g id="node1" class="node"><title>Node0</title>
<polygon fill="#bfbfbf" stroke="black" points="0,-0.5 0,-30.5 89,-30.5 89,-0.5 0,-0.5"/>
<text text-anchor="start" x="8" y="-18.5" font-family="Helvetica,sans-Serif" font-size="10.00">cvmix_kpp::compute</text>
<text text-anchor="middle" x="44.5" y="-7.5" font-family="Helvetica,sans-Serif" font-size="10.00">_phi_inv</text>
</g>
<!-- Node1 -->
<g id="node2" class="node"><title>Node1</title>
<g id="a_node2"><a xlink:href="../../d1/d6c/namespacecvmix__kpp.html#ad3c98c4f890134bed8c8b62231895afb" target="_top" xlink:title="cvmix_kpp::cvmix_get\l_kpp_real">
<polygon fill="white" stroke="black" points="125,-0.5 125,-30.5 218,-30.5 218,-0.5 125,-0.5"/>
<text text-anchor="start" x="133" y="-18.5" font-family="Helvetica,sans-Serif" font-size="10.00">cvmix_kpp::cvmix_get</text>
<text text-anchor="middle" x="171.5" y="-7.5" font-family="Helvetica,sans-Serif" font-size="10.00">_kpp_real</text>
</a>
</g>
</g>
<!-- Node0&#45;&gt;Node1 -->
<g id="edge1" class="edge"><title>Node0&#45;&gt;Node1</title>
<path fill="none" stroke="midnightblue" d="M89.2189,-15.5C97.4275,-15.5 106.113,-15.5 114.631,-15.5"/>
<polygon fill="midnightblue" stroke="midnightblue" points="114.897,-19.0001 124.897,-15.5 114.897,-12.0001 114.897,-19.0001"/>
</g>
</g>
</svg>
