<?xml version="1.0" encoding="UTF-8" standalone="no"?>
<!DOCTYPE svg PUBLIC "-//W3C//DTD SVG 1.1//EN"
 "http://www.w3.org/Graphics/SVG/1.1/DTD/svg11.dtd">
<!-- Generated by graphviz version 2.38.0 (20140413.2041)
 -->
<!-- Title: cvmix_kpp::cvmix_kpp_compute_kobl_depth Pages: 1 -->
<svg width="247pt" height="78pt"
 viewBox="0.00 0.00 247.00 77.50" xmlns="http://www.w3.org/2000/svg" xmlns:xlink="http://www.w3.org/1999/xlink">
<g id="graph0" class="graph" transform="scale(1 1) rotate(0) translate(4 73.5)">
<title>cvmix_kpp::cvmix_kpp_compute_kobl_depth</title>
<polygon fill="white" stroke="none" points="-4,4 -4,-73.5 243,-73.5 243,4 -4,4"/>
<!-- Node33 -->
<g id="node1" class="node"><title>Node33</title>
<polygon fill="#bfbfbf" stroke="black" points="0,-17 0,-47 95,-47 95,-17 0,-17"/>
<text text-anchor="start" x="8" y="-35" font-family="Helvetica,sans-Serif" font-size="10.00">cvmix_kpp::cvmix_kpp</text>
<text text-anchor="middle" x="47.5" y="-24" font-family="Helvetica,sans-Serif" font-size="10.00">_compute_kobl_depth</text>
</g>
<!-- Node34 -->
<g id="node2" class="node"><title>Node34</title>
<g id="a_node2"><a xlink:href="../../d1/d6c/namespacecvmix__kpp.html#a0f784d641b5384ed1f4c07fc119926bd" target="_top" xlink:title="cvmix_kpp::cvmix_kpp\l_compute_obl_depth_low">
<polygon fill="white" stroke="black" points="131,-39 131,-69 239,-69 239,-39 131,-39"/>
<text text-anchor="start" x="139" y="-57" font-family="Helvetica,sans-Serif" font-size="10.00">cvmix_kpp::cvmix_kpp</text>
<text text-anchor="middle" x="185" y="-46" font-family="Helvetica,sans-Serif" font-size="10.00">_compute_obl_depth_low</text>
</a>
</g>
</g>
<!-- Node33&#45;&gt;Node34 -->
<g id="edge1" class="edge"><title>Node33&#45;&gt;Node34</title>
<path fill="none" stroke="midnightblue" d="M105.278,-41.2186C113.722,-42.5895 122.399,-43.9983 130.766,-45.3568"/>
<polygon fill="midnightblue" stroke="midnightblue" points="105.563,-37.7191 95.1314,-39.5712 104.441,-44.6286 105.563,-37.7191"/>
</g>
<!-- Node35 -->
<g id="node3" class="node"><title>Node35</title>
<g id="a_node3"><a xlink:href="../../d5/d08/namespacemom__kpp.html#ae808ecbe5d3d46e1b6cef55a8be4d234" target="_top" xlink:title="KPP vertical diffusivity/viscosity and non&#45;local tracer transport. ">
<polygon fill="white" stroke="black" points="133,-0.5 133,-19.5 237,-19.5 237,-0.5 133,-0.5"/>
<text text-anchor="middle" x="185" y="-7.5" font-family="Helvetica,sans-Serif" font-size="10.00">mom_kpp::kpp_calculate</text>
</a>
</g>
</g>
<!-- Node33&#45;&gt;Node35 -->
<g id="edge2" class="edge"><title>Node33&#45;&gt;Node35</title>
<path fill="none" stroke="midnightblue" d="M105.241,-22.7874C114.33,-21.3118 123.69,-19.7921 132.643,-18.3383"/>
<polygon fill="midnightblue" stroke="midnightblue" points="104.441,-19.3714 95.1314,-24.4288 105.563,-26.2809 104.441,-19.3714"/>
</g>
</g>
</svg>
