<?xml version="1.0" encoding="UTF-8" standalone="no"?>
<!DOCTYPE svg PUBLIC "-//W3C//DTD SVG 1.1//EN"
 "http://www.w3.org/Graphics/SVG/1.1/DTD/svg11.dtd">
<!-- Generated by graphviz version 2.38.0 (20140413.2041)
 -->
<!-- Title: cvmix_kpp::cvmix_kpp_compute_nu_at_obl_depth_lmd94 Pages: 1 -->
<svg width="290pt" height="39pt"
 viewBox="0.00 0.00 290.00 39.00" xmlns="http://www.w3.org/2000/svg" xmlns:xlink="http://www.w3.org/1999/xlink">
<g id="graph0" class="graph" transform="scale(1 1) rotate(0) translate(4 35)">
<title>cvmix_kpp::cvmix_kpp_compute_nu_at_obl_depth_lmd94</title>
<polygon fill="white" stroke="none" points="-4,4 -4,-35 286,-35 286,4 -4,4"/>
<!-- Node38 -->
<g id="node1" class="node"><title>Node38</title>
<polygon fill="#bfbfbf" stroke="black" points="0,-0.5 0,-30.5 143,-30.5 143,-0.5 0,-0.5"/>
<text text-anchor="start" x="8" y="-18.5" font-family="Helvetica,sans-Serif" font-size="10.00">cvmix_kpp::cvmix_kpp</text>
<text text-anchor="middle" x="71.5" y="-7.5" font-family="Helvetica,sans-Serif" font-size="10.00">_compute_nu_at_obl_depth_lmd94</text>
</g>
<!-- Node39 -->
<g id="node2" class="node"><title>Node39</title>
<g id="a_node2"><a xlink:href="../../d1/d6c/namespacecvmix__kpp.html#a3167f47153d1ec5cd44adb45ffdfd616" target="_top" xlink:title="cvmix_kpp::cvmix_coeffs\l_kpp_low">
<polygon fill="white" stroke="black" points="179,-0.5 179,-30.5 282,-30.5 282,-0.5 179,-0.5"/>
<text text-anchor="start" x="187" y="-18.5" font-family="Helvetica,sans-Serif" font-size="10.00">cvmix_kpp::cvmix_coeffs</text>
<text text-anchor="middle" x="230.5" y="-7.5" font-family="Helvetica,sans-Serif" font-size="10.00">_kpp_low</text>
</a>
</g>
</g>
<!-- Node38&#45;&gt;Node39 -->
<g id="edge1" class="edge"><title>Node38&#45;&gt;Node39</title>
<path fill="none" stroke="midnightblue" d="M153.389,-15.5C162.082,-15.5 170.735,-15.5 178.923,-15.5"/>
<polygon fill="midnightblue" stroke="midnightblue" points="153.192,-12.0001 143.192,-15.5 153.192,-19.0001 153.192,-12.0001"/>
</g>
</g>
</svg>
