<?xml version="1.0" encoding="UTF-8" standalone="no"?>
<!DOCTYPE svg PUBLIC "-//W3C//DTD SVG 1.1//EN"
 "http://www.w3.org/Graphics/SVG/1.1/DTD/svg11.dtd">
<!-- Generated by graphviz version 2.38.0 (20140413.2041)
 -->
<!-- Title: mom_diag_mediator::axes_grp Pages: 1 -->
<!--zoomable 737 -->
<svg id="main" version="1.1" xmlns="http://www.w3.org/2000/svg" xmlns:xlink="http://www.w3.org/1999/xlink" xml:space="preserve" onload="init(evt)">
<style type="text/css"><![CDATA[
.edge:hover path { stroke: red; }
.edge:hover polygon { stroke: red; fill: red; }
]]></style>
<script type="text/javascript"><![CDATA[
var edges = document.getElementsByTagName('g');
if (edges && edges.length) {
  for (var i=0;i<edges.length;i++) {
    if (edges[i].id.substr(0,4)=='edge') {
      edges[i].setAttribute('class','edge');
    }
  }
}
]]></script>
        <defs>
                <circle id="rim" cx="0" cy="0" r="7"/>
                <circle id="rim2" cx="0" cy="0" r="3.5"/>
                <g id="zoomPlus">
                        <use xlink:href="#rim" fill="#404040">
                                <set attributeName="fill" to="#808080" begin="zoomplus.mouseover" end="zoomplus.mouseout"/>
                        </use>
                        <path d="M-4,0h8M0,-4v8" fill="none" stroke="white" stroke-width="1.5" pointer-events="none"/>
                </g>
                <g id="zoomMin">
                        <use xlink:href="#rim" fill="#404040">
                                <set attributeName="fill" to="#808080" begin="zoomminus.mouseover" end="zoomminus.mouseout"/>
                        </use>
                        <path d="M-4,0h8" fill="none" stroke="white" stroke-width="1.5" pointer-events="none"/>
                </g>
                <g id="dirArrow">
                        <path fill="none" stroke="white" stroke-width="1.5" d="M0,-3.0v7 M-2.5,-0.5L0,-3.0L2.5,-0.5"/>
                </g>
               <g id="resetDef">
                       <use xlink:href="#rim2" fill="#404040">
                               <set attributeName="fill" to="#808080" begin="reset.mouseover" end="reset.mouseout"/>
                       </use>
               </g>
        </defs>

<script type="text/javascript">
var viewWidth = 639;
var viewHeight = 737;
var sectionId = 'dynsection-0';
</script>
<script xlink:href="../../svgpan.js"/>
<svg id="graph" class="graph">
<g id="viewport">
<title>mom_diag_mediator::axes_grp</title>
<polygon fill="white" stroke="none" points="-4,4 -4,-733 635,-733 635,4 -4,4"/>
<!-- Node1 -->
<g id="node1" class="node"><title>Node1</title>
<polygon fill="#bfbfbf" stroke="black" points="170,-560 170,-590 265,-590 265,-560 170,-560"/>
<text text-anchor="start" x="178" y="-578" font-family="Helvetica,sans-Serif" font-size="10.00">mom_diag_mediator::</text>
<text text-anchor="middle" x="217.5" y="-567" font-family="Helvetica,sans-Serif" font-size="10.00">axes_grp</text>
</g>
<!-- Node2 -->
<g id="node2" class="node"><title>Node2</title>
<g id="a_node2"><a xlink:href="../../de/d92/structmom__diag__mediator_1_1diag__ctrl.html" target="_top" xlink:title="mom_diag_mediator::\ldiag_ctrl">
<polygon fill="white" stroke="black" points="536,-193 536,-223 631,-223 631,-193 536,-193"/>
<text text-anchor="start" x="544" y="-211" font-family="Helvetica,sans-Serif" font-size="10.00">mom_diag_mediator::</text>
<text text-anchor="middle" x="583.5" y="-200" font-family="Helvetica,sans-Serif" font-size="10.00">diag_ctrl</text>
</a>
</g>
</g>
<!-- Node1&#45;&gt;Node2 -->
<g id="edge13" class="edge"><title>Node1&#45;&gt;Node2</title>
<path fill="none" stroke="#9a32cd" stroke-dasharray="5,2" d="M254.953,-594.357C263.892,-598.263 273.599,-601.832 283,-604 303.5,-608.728 440.259,-607.114 443,-606 486.095,-588.49 495.805,-573.879 518,-533 576.464,-425.322 582.292,-271.837 582.6,-223.314"/>
<polygon fill="#9a32cd" stroke="#9a32cd" points="256.152,-591.055 245.606,-590.036 253.215,-597.409 256.152,-591.055"/>
<text text-anchor="middle" x="395.5" y="-721" font-family="Helvetica,sans-Serif" font-size="10.00"> axescvzl</text>
<text text-anchor="middle" x="395.5" y="-710" font-family="Helvetica,sans-Serif" font-size="10.00">axeszi</text>
<text text-anchor="middle" x="395.5" y="-699" font-family="Helvetica,sans-Serif" font-size="10.00">axescui</text>
<text text-anchor="middle" x="395.5" y="-688" font-family="Helvetica,sans-Serif" font-size="10.00">axest1</text>
<text text-anchor="middle" x="395.5" y="-677" font-family="Helvetica,sans-Serif" font-size="10.00">axesb1</text>
<text text-anchor="middle" x="395.5" y="-666" font-family="Helvetica,sans-Serif" font-size="10.00">axeszl</text>
<text text-anchor="middle" x="395.5" y="-655" font-family="Helvetica,sans-Serif" font-size="10.00">axescvi</text>
<text text-anchor="middle" x="395.5" y="-644" font-family="Helvetica,sans-Serif" font-size="10.00">axescul</text>
<text text-anchor="middle" x="395.5" y="-633" font-family="Helvetica,sans-Serif" font-size="10.00">axesti</text>
<text text-anchor="middle" x="395.5" y="-622" font-family="Helvetica,sans-Serif" font-size="10.00">axescvl</text>
<text text-anchor="middle" x="395.5" y="-611" font-family="Helvetica,sans-Serif" font-size="10.00">...</text>
</g>
<!-- Node5 -->
<g id="node5" class="node"><title>Node5</title>
<g id="a_node5"><a xlink:href="../../d9/d4e/structmom__diag__mediator_1_1diag__type.html" target="_top" xlink:title="mom_diag_mediator::\ldiag_type">
<polygon fill="white" stroke="black" points="348,-315 348,-345 443,-345 443,-315 348,-315"/>
<text text-anchor="start" x="356" y="-333" font-family="Helvetica,sans-Serif" font-size="10.00">mom_diag_mediator::</text>
<text text-anchor="middle" x="395.5" y="-322" font-family="Helvetica,sans-Serif" font-size="10.00">diag_type</text>
</a>
</g>
</g>
<!-- Node1&#45;&gt;Node5 -->
<g id="edge7" class="edge"><title>Node1&#45;&gt;Node5</title>
<path fill="none" stroke="#9a32cd" stroke-dasharray="5,2" d="M236.408,-551.455C259.205,-521.081 299.311,-466.284 330,-417 338.831,-402.818 338.496,-397.74 348,-384 357.572,-370.162 370.097,-355.787 379.736,-345.35"/>
<polygon fill="#9a32cd" stroke="#9a32cd" points="233.412,-549.614 230.188,-559.707 239.002,-553.828 233.412,-549.614"/>
<text text-anchor="middle" x="306.5" y="-487" font-family="Helvetica,sans-Serif" font-size="10.00"> remap_axes</text>
</g>
<!-- Node2&#45;&gt;Node1 -->
<g id="edge1" class="edge"><title>Node2&#45;&gt;Node1</title>
<path fill="none" stroke="#9a32cd" stroke-dasharray="5,2" d="M581.829,-233.487C578.467,-301.862 558.64,-489.226 443,-564 389.751,-598.432 313.646,-593.583 265.157,-585.449"/>
<polygon fill="#9a32cd" stroke="#9a32cd" points="585.337,-233.349 582.251,-223.213 578.343,-233.061 585.337,-233.349"/>
<text text-anchor="middle" x="395.5" y="-594" font-family="Helvetica,sans-Serif" font-size="10.00"> diag_cs</text>
</g>
<!-- Node3 -->
<g id="node3" class="node"><title>Node3</title>
<polygon fill="white" stroke="#bfbfbf" points="198.5,-293.5 198.5,-312.5 236.5,-312.5 236.5,-293.5 198.5,-293.5"/>
<text text-anchor="middle" x="217.5" y="-300.5" font-family="Helvetica,sans-Serif" font-size="10.00">logical</text>
</g>
<!-- Node3&#45;&gt;Node2 -->
<g id="edge2" class="edge"><title>Node3&#45;&gt;Node2</title>
<path fill="none" stroke="#9a32cd" stroke-dasharray="5,2" d="M247.191,-305.752C272.164,-306.501 307.755,-303.353 330,-283 352.432,-262.476 324.196,-235.915 348,-217 400.95,-174.925 483.831,-183.632 535.562,-194.954"/>
<polygon fill="#9a32cd" stroke="#9a32cd" points="247.05,-302.24 236.879,-305.207 246.68,-309.23 247.05,-302.24"/>
<text text-anchor="middle" x="395.5" y="-297" font-family="Helvetica,sans-Serif" font-size="10.00"> ave_enabled</text>
<text text-anchor="start" x="358" y="-286" font-family="Helvetica,sans-Serif" font-size="10.00">do_z_remapping_on</text>
<text text-anchor="middle" x="395.5" y="-275" font-family="Helvetica,sans-Serif" font-size="10.00">_t</text>
<text text-anchor="start" x="358" y="-264" font-family="Helvetica,sans-Serif" font-size="10.00">do_z_remapping</text>
<text text-anchor="middle" x="395.5" y="-253" font-family="Helvetica,sans-Serif" font-size="10.00">_on_u</text>
<text text-anchor="start" x="358" y="-242" font-family="Helvetica,sans-Serif" font-size="10.00">do_z_remapping</text>
<text text-anchor="middle" x="395.5" y="-231" font-family="Helvetica,sans-Serif" font-size="10.00">_on_v</text>
<text text-anchor="middle" x="395.5" y="-220" font-family="Helvetica,sans-Serif" font-size="10.00">remapping_initialized</text>
</g>
<!-- Node3&#45;&gt;Node5 -->
<g id="edge5" class="edge"><title>Node3&#45;&gt;Node5</title>
<path fill="none" stroke="#9a32cd" stroke-dasharray="5,2" d="M246.69,-307.325C273.913,-311.501 315.63,-317.901 347.812,-322.838"/>
<polygon fill="#9a32cd" stroke="#9a32cd" points="247.087,-303.845 236.672,-305.788 246.026,-310.764 247.087,-303.845"/>
<text text-anchor="middle" x="306.5" y="-323" font-family="Helvetica,sans-Serif" font-size="10.00"> in_use</text>
</g>
<!-- Node4 -->
<g id="node4" class="node"><title>Node4</title>
<polygon fill="white" stroke="#bfbfbf" points="362,-393.5 362,-412.5 429,-412.5 429,-393.5 362,-393.5"/>
<text text-anchor="middle" x="395.5" y="-400.5" font-family="Helvetica,sans-Serif" font-size="10.00">remapping_cs</text>
</g>
<!-- Node4&#45;&gt;Node2 -->
<g id="edge3" class="edge"><title>Node4&#45;&gt;Node2</title>
<path fill="none" stroke="#9a32cd" stroke-dasharray="5,2" d="M433.202,-388.947C436.619,-387.13 439.943,-385.145 443,-383 506.607,-338.362 555.972,-256.659 574.526,-223.05"/>
<polygon fill="#9a32cd" stroke="#9a32cd" points="431.538,-385.864 424.055,-393.365 434.582,-392.167 431.538,-385.864"/>
<text text-anchor="middle" x="489.5" y="-372" font-family="Helvetica,sans-Serif" font-size="10.00"> remap_cs</text>
</g>
<!-- Node5&#45;&gt;Node2 -->
<g id="edge4" class="edge"><title>Node5&#45;&gt;Node2</title>
<path fill="none" stroke="#9a32cd" stroke-dasharray="5,2" d="M428.671,-309.304C433.479,-306.194 438.373,-303.018 443,-300 484.308,-273.055 532.27,-241.326 559.833,-223.049"/>
<polygon fill="#9a32cd" stroke="#9a32cd" points="426.687,-306.419 420.186,-314.784 430.485,-312.299 426.687,-306.419"/>
<text text-anchor="middle" x="489.5" y="-291" font-family="Helvetica,sans-Serif" font-size="10.00"> diags</text>
</g>
<!-- Node5&#45;&gt;Node5 -->
<g id="edge6" class="edge"><title>Node5&#45;&gt;Node5</title>
<path fill="none" stroke="#9a32cd" stroke-dasharray="5,2" d="M379.863,-355.458C381.804,-360.179 387.016,-363.5 395.5,-363.5 409.422,-363.5 414.534,-354.557 410.836,-345.159"/>
<polygon fill="#9a32cd" stroke="#9a32cd" points="383.371,-355.257 380.164,-345.159 376.374,-355.053 383.371,-355.257"/>
<text text-anchor="middle" x="395.5" y="-366.5" font-family="Helvetica,sans-Serif" font-size="10.00"> next</text>
</g>
<!-- Node6 -->
<g id="node6" class="node"><title>Node6</title>
<polygon fill="white" stroke="#bfbfbf" points="202.5,-406.5 202.5,-425.5 232.5,-425.5 232.5,-406.5 202.5,-406.5"/>
<text text-anchor="middle" x="217.5" y="-413.5" font-family="Helvetica,sans-Serif" font-size="10.00">real</text>
</g>
<!-- Node6&#45;&gt;Node2 -->
<g id="edge15" class="edge"><title>Node6&#45;&gt;Node2</title>
<path fill="none" stroke="#9a32cd" stroke-dasharray="5,2" d="M242.695,-422.673C300.589,-436.996 447.509,-463.316 518,-384 561.02,-335.594 576.132,-256.094 580.729,-223.091"/>
<polygon fill="#9a32cd" stroke="#9a32cd" points="243.213,-419.192 232.655,-420.084 241.465,-425.97 243.213,-419.192"/>
<text text-anchor="middle" x="395.5" y="-552" font-family="Helvetica,sans-Serif" font-size="10.00"> h</text>
<text text-anchor="middle" x="395.5" y="-541" font-family="Helvetica,sans-Serif" font-size="10.00">mask3dtl</text>
<text text-anchor="middle" x="395.5" y="-530" font-family="Helvetica,sans-Serif" font-size="10.00">time_int</text>
<text text-anchor="middle" x="395.5" y="-519" font-family="Helvetica,sans-Serif" font-size="10.00">mask3dcvi</text>
<text text-anchor="middle" x="395.5" y="-508" font-family="Helvetica,sans-Serif" font-size="10.00">mask3dcui</text>
<text text-anchor="middle" x="395.5" y="-497" font-family="Helvetica,sans-Serif" font-size="10.00">mask3dbui</text>
<text text-anchor="middle" x="395.5" y="-486" font-family="Helvetica,sans-Serif" font-size="10.00">mask2dt</text>
<text text-anchor="middle" x="395.5" y="-475" font-family="Helvetica,sans-Serif" font-size="10.00">zi_remap</text>
<text text-anchor="middle" x="395.5" y="-464" font-family="Helvetica,sans-Serif" font-size="10.00">mask3dcvl</text>
<text text-anchor="middle" x="395.5" y="-453" font-family="Helvetica,sans-Serif" font-size="10.00">mask3dcul</text>
<text text-anchor="middle" x="395.5" y="-442" font-family="Helvetica,sans-Serif" font-size="10.00">...</text>
</g>
<!-- Node6&#45;&gt;Node5 -->
<g id="edge8" class="edge"><title>Node6&#45;&gt;Node5</title>
<path fill="none" stroke="#9a32cd" stroke-dasharray="5,2" d="M242.137,-407.539C265.057,-399.036 300.582,-385.062 330,-370 344.426,-362.614 359.88,-353.091 372.043,-345.19"/>
<polygon fill="#9a32cd" stroke="#9a32cd" points="240.747,-404.32 232.56,-411.045 243.154,-410.894 240.747,-404.32"/>
<text text-anchor="middle" x="306.5" y="-405" font-family="Helvetica,sans-Serif" font-size="10.00"> mask3d</text>
<text text-anchor="middle" x="306.5" y="-394" font-family="Helvetica,sans-Serif" font-size="10.00">mask2d</text>
</g>
<!-- Node7 -->
<g id="node7" class="node"><title>Node7</title>
<polygon fill="white" stroke="#bfbfbf" points="19.5,-346.5 19.5,-365.5 60.5,-365.5 60.5,-346.5 19.5,-346.5"/>
<text text-anchor="middle" x="40" y="-353.5" font-family="Helvetica,sans-Serif" font-size="10.00">integer</text>
</g>
<!-- Node7&#45;&gt;Node1 -->
<g id="edge18" class="edge"><title>Node7&#45;&gt;Node1</title>
<path fill="none" stroke="#9a32cd" stroke-dasharray="5,2" d="M55.1344,-373.638C88.7467,-415.581 172.982,-520.696 204.419,-559.924"/>
<polygon fill="#9a32cd" stroke="#9a32cd" points="57.7522,-371.307 48.7675,-365.693 52.2897,-375.685 57.7522,-371.307"/>
<text text-anchor="middle" x="125" y="-506" font-family="Helvetica,sans-Serif" font-size="10.00"> handles</text>
<text text-anchor="middle" x="125" y="-495" font-family="Helvetica,sans-Serif" font-size="10.00">rank</text>
</g>
<!-- Node7&#45;&gt;Node2 -->
<g id="edge16" class="edge"><title>Node7&#45;&gt;Node2</title>
<path fill="none" stroke="#9a32cd" stroke-dasharray="5,2" d="M54.6808,-338.569C88.2269,-297.427 179.426,-194.972 283,-158 377.083,-124.416 495.989,-167.949 551.416,-192.833"/>
<polygon fill="#9a32cd" stroke="#9a32cd" points="51.947,-336.383 48.4138,-346.372 57.4047,-340.767 51.947,-336.383"/>
<text text-anchor="middle" x="306.5" y="-271" font-family="Helvetica,sans-Serif" font-size="10.00"> ied</text>
<text text-anchor="middle" x="306.5" y="-260" font-family="Helvetica,sans-Serif" font-size="10.00">jed</text>
<text text-anchor="middle" x="306.5" y="-249" font-family="Helvetica,sans-Serif" font-size="10.00">doc_unit</text>
<text text-anchor="middle" x="306.5" y="-238" font-family="Helvetica,sans-Serif" font-size="10.00">isd</text>
<text text-anchor="middle" x="306.5" y="-227" font-family="Helvetica,sans-Serif" font-size="10.00">jsd</text>
<text text-anchor="middle" x="306.5" y="-216" font-family="Helvetica,sans-Serif" font-size="10.00">js</text>
<text text-anchor="middle" x="306.5" y="-205" font-family="Helvetica,sans-Serif" font-size="10.00">is</text>
<text text-anchor="middle" x="306.5" y="-194" font-family="Helvetica,sans-Serif" font-size="10.00">je</text>
<text text-anchor="middle" x="306.5" y="-183" font-family="Helvetica,sans-Serif" font-size="10.00">ie</text>
<text text-anchor="middle" x="306.5" y="-172" font-family="Helvetica,sans-Serif" font-size="10.00">nz_remap</text>
<text text-anchor="middle" x="306.5" y="-161" font-family="Helvetica,sans-Serif" font-size="10.00">...</text>
</g>
<!-- Node7&#45;&gt;Node5 -->
<g id="edge9" class="edge"><title>Node7&#45;&gt;Node5</title>
<path fill="none" stroke="#9a32cd" stroke-dasharray="5,2" d="M70.8868,-353.876C123.342,-350.138 235.396,-342.104 330,-335 335.824,-334.563 341.943,-334.097 347.998,-333.632"/>
<polygon fill="#9a32cd" stroke="#9a32cd" points="70.3518,-350.405 60.6257,-354.607 70.8491,-357.388 70.3518,-350.405"/>
<text text-anchor="middle" x="217.5" y="-350" font-family="Helvetica,sans-Serif" font-size="10.00"> fms_diag_id</text>
</g>
<!-- Node8 -->
<g id="node8" class="node"><title>Node8</title>
<polygon fill="white" stroke="#bfbfbf" points="370,-114.5 370,-133.5 421,-133.5 421,-114.5 370,-114.5"/>
<text text-anchor="middle" x="395.5" y="-121.5" font-family="Helvetica,sans-Serif" font-size="10.00">time_type</text>
</g>
<!-- Node8&#45;&gt;Node2 -->
<g id="edge10" class="edge"><title>Node8&#45;&gt;Node2</title>
<path fill="none" stroke="#9a32cd" stroke-dasharray="5,2" d="M431.479,-121.32C456.818,-120.859 491.189,-123.382 518,-137 542.796,-149.594 562.689,-175.971 573.524,-192.789"/>
<polygon fill="#9a32cd" stroke="#9a32cd" points="431.093,-117.831 421.221,-121.676 431.336,-124.827 431.093,-117.831"/>
<text text-anchor="middle" x="489.5" y="-140" font-family="Helvetica,sans-Serif" font-size="10.00"> time_end</text>
</g>
<!-- Node9 -->
<g id="node9" class="node"><title>Node9</title>
<polygon fill="white" stroke="#bfbfbf" points="352.5,-76.5 352.5,-95.5 438.5,-95.5 438.5,-76.5 352.5,-76.5"/>
<text text-anchor="middle" x="395.5" y="-83.5" font-family="Helvetica,sans-Serif" font-size="10.00">type(regridding_cs)</text>
</g>
<!-- Node9&#45;&gt;Node2 -->
<g id="edge11" class="edge"><title>Node9&#45;&gt;Node2</title>
<path fill="none" stroke="#9a32cd" stroke-dasharray="5,2" d="M448.918,-86.3263C471.74,-88.6727 497.822,-94.5325 518,-108 549.274,-128.873 568.68,-170.611 577.287,-192.996"/>
<polygon fill="#9a32cd" stroke="#9a32cd" points="448.949,-82.8169 438.694,-85.4807 448.372,-89.7931 448.949,-82.8169"/>
<text text-anchor="middle" x="489.5" y="-111" font-family="Helvetica,sans-Serif" font-size="10.00"> regrid_cs</text>
</g>
<!-- Node10 -->
<g id="node10" class="node"><title>Node10</title>
<polygon fill="white" stroke="#bfbfbf" points="357.5,-38.5 357.5,-57.5 433.5,-57.5 433.5,-38.5 357.5,-38.5"/>
<text text-anchor="middle" x="395.5" y="-45.5" font-family="Helvetica,sans-Serif" font-size="10.00">character(len=6)</text>
</g>
<!-- Node10&#45;&gt;Node2 -->
<g id="edge12" class="edge"><title>Node10&#45;&gt;Node2</title>
<path fill="none" stroke="#9a32cd" stroke-dasharray="5,2" d="M443.698,-48.4563C468.107,-50.9132 497.082,-57.5465 518,-74 556.963,-104.647 573.763,-164.699 579.727,-192.809"/>
<polygon fill="#9a32cd" stroke="#9a32cd" points="443.802,-44.9534 433.554,-47.6425 443.242,-51.931 443.802,-44.9534"/>
<text text-anchor="middle" x="489.5" y="-77" font-family="Helvetica,sans-Serif" font-size="10.00"> z_remap_suffix</text>
</g>
<!-- Node11 -->
<g id="node11" class="node"><title>Node11</title>
<polygon fill="white" stroke="#bfbfbf" points="357.5,-0.5 357.5,-19.5 433.5,-19.5 433.5,-0.5 357.5,-0.5"/>
<text text-anchor="middle" x="395.5" y="-7.5" font-family="Helvetica,sans-Serif" font-size="10.00">ocean_grid_type</text>
</g>
<!-- Node11&#45;&gt;Node2 -->
<g id="edge14" class="edge"><title>Node11&#45;&gt;Node2</title>
<path fill="none" stroke="#9a32cd" stroke-dasharray="5,2" d="M443.802,-10.1164C468.501,-12.5346 497.716,-19.4102 518,-37 565.823,-78.4711 578.28,-159.155 581.45,-192.749"/>
<polygon fill="#9a32cd" stroke="#9a32cd" points="443.769,-6.60391 433.532,-9.33475 443.238,-13.5837 443.769,-6.60391"/>
<text text-anchor="middle" x="489.5" y="-40" font-family="Helvetica,sans-Serif" font-size="10.00"> g</text>
</g>
<!-- Node12 -->
<g id="node12" class="node"><title>Node12</title>
<polygon fill="white" stroke="#bfbfbf" points="2,-584.5 2,-603.5 78,-603.5 78,-584.5 2,-584.5"/>
<text text-anchor="middle" x="40" y="-591.5" font-family="Helvetica,sans-Serif" font-size="10.00">character(len=9)</text>
</g>
<!-- Node12&#45;&gt;Node1 -->
<g id="edge17" class="edge"><title>Node12&#45;&gt;Node1</title>
<path fill="none" stroke="#9a32cd" stroke-dasharray="5,2" d="M88.3302,-588.876C113.658,-586.134 144.735,-582.769 169.944,-580.04"/>
<polygon fill="#9a32cd" stroke="#9a32cd" points="87.7842,-585.415 78.219,-589.971 88.5377,-592.374 87.7842,-585.415"/>
<text text-anchor="middle" x="125" y="-613" font-family="Helvetica,sans-Serif" font-size="10.00"> v_cell_method</text>
<text text-anchor="middle" x="125" y="-602" font-family="Helvetica,sans-Serif" font-size="10.00">y_cell_method</text>
<text text-anchor="middle" x="125" y="-591" font-family="Helvetica,sans-Serif" font-size="10.00">x_cell_method</text>
</g>
<!-- Node13 -->
<g id="node13" class="node"><title>Node13</title>
<polygon fill="white" stroke="#bfbfbf" points="0,-546.5 0,-565.5 80,-565.5 80,-546.5 0,-546.5"/>
<text text-anchor="middle" x="40" y="-553.5" font-family="Helvetica,sans-Serif" font-size="10.00">character(len=15)</text>
</g>
<!-- Node13&#45;&gt;Node1 -->
<g id="edge19" class="edge"><title>Node13&#45;&gt;Node1</title>
<path fill="none" stroke="#9a32cd" stroke-dasharray="5,2" d="M90.1187,-561.306C109.41,-563.391 131.745,-565.806 152,-568 157.823,-568.631 163.942,-569.294 169.996,-569.951"/>
<polygon fill="#9a32cd" stroke="#9a32cd" points="90.3598,-557.811 80.0416,-560.217 89.6077,-564.771 90.3598,-557.811"/>
<text text-anchor="middle" x="125" y="-571" font-family="Helvetica,sans-Serif" font-size="10.00"> id</text>
</g>
</g>
</svg>
        <g id="navigator" transform="translate(0 0)" fill="#404254">
                <rect fill="#f2f5e9" fill-opacity="0.5" stroke="#606060" stroke-width=".5" x="0" y="0" width="60" height="60"/>
                <use id="zoomplus" xlink:href="#zoomPlus" x="17" y="9" onmousedown="handleZoom(evt,'in')"/>
                <use id="zoomminus" xlink:href="#zoomMin" x="42" y="9" onmousedown="handleZoom(evt,'out')"/>
                <use id="reset" xlink:href="#resetDef" x="30" y="36" onmousedown="handleReset()"/>
                <g id="arrowUp" xlink:href="#dirArrow" transform="translate(30 24)" onmousedown="handlePan(0,-1)">
                  <use xlink:href="#rim" fill="#404040">
                        <set attributeName="fill" to="#808080" begin="arrowUp.mouseover" end="arrowUp.mouseout"/>
                  </use>
                  <path fill="none" stroke="white" stroke-width="1.5" d="M0,-3.0v7 M-2.5,-0.5L0,-3.0L2.5,-0.5"/>
                </g>
                <g id="arrowRight" xlink:href="#dirArrow" transform="rotate(90) translate(36 -43)" onmousedown="handlePan(1,0)">
                  <use xlink:href="#rim" fill="#404040">
                        <set attributeName="fill" to="#808080" begin="arrowRight.mouseover" end="arrowRight.mouseout"/>
                  </use>
                  <path fill="none" stroke="white" stroke-width="1.5" d="M0,-3.0v7 M-2.5,-0.5L0,-3.0L2.5,-0.5"/>
                </g>
                <g id="arrowDown" xlink:href="#dirArrow" transform="rotate(180) translate(-30 -48)" onmousedown="handlePan(0,1)">
                  <use xlink:href="#rim" fill="#404040">
                        <set attributeName="fill" to="#808080" begin="arrowDown.mouseover" end="arrowDown.mouseout"/>
                  </use>
                  <path fill="none" stroke="white" stroke-width="1.5" d="M0,-3.0v7 M-2.5,-0.5L0,-3.0L2.5,-0.5"/>
                </g>
                <g id="arrowLeft" xlink:href="#dirArrow" transform="rotate(270) translate(-36 17)" onmousedown="handlePan(-1,0)">
                  <use xlink:href="#rim" fill="#404040">
                        <set attributeName="fill" to="#808080" begin="arrowLeft.mouseover" end="arrowLeft.mouseout"/>
                  </use>
                  <path fill="none" stroke="white" stroke-width="1.5" d="M0,-3.0v7 M-2.5,-0.5L0,-3.0L2.5,-0.5"/>
                </g>
        </g>
        <svg viewBox="0 0 15 15" width="100%" height="30px" preserveAspectRatio="xMaxYMin meet">
         <g id="arrow_out" transform="scale(0.3 0.3)">
          <a xlink:href="structmom__diag__mediator_1_1axes__grp__coll__graph_org.svg" target="_base">
           <rect id="button" ry="5" rx="5" y="6" x="6" height="38" width="38"
                fill="#f2f5e9" fill-opacity="0.5" stroke="#606060" stroke-width="1.0"/>
           <path id="arrow"
             d="M 11.500037,31.436501 C 11.940474,20.09759 22.043105,11.32322 32.158766,21.979434 L 37.068811,17.246167 C 37.068811,17.246167 37.088388,32 37.088388,32 L 22.160133,31.978069 C 22.160133,31.978069 26.997745,27.140456 26.997745,27.140456 C 18.528582,18.264221 13.291696,25.230495 11.500037,31.436501 z"
             style="fill:#404040;"/>
          </a>
         </g>
        </svg>
</svg>
