<?xml version="1.0" encoding="UTF-8" standalone="no"?>
<!DOCTYPE svg PUBLIC "-//W3C//DTD SVG 1.1//EN"
 "http://www.w3.org/Graphics/SVG/1.1/DTD/svg11.dtd">
<!-- Generated by graphviz version 2.38.0 (20140413.2041)
 -->
<!-- Title: mom_pointaccel::pointaccel_cs Pages: 1 -->
<svg width="359pt" height="161pt"
 viewBox="0.00 0.00 358.50 161.00" xmlns="http://www.w3.org/2000/svg" xmlns:xlink="http://www.w3.org/1999/xlink">
<g id="graph0" class="graph" transform="scale(1 1) rotate(0) translate(4 157)">
<title>mom_pointaccel::pointaccel_cs</title>
<polygon fill="white" stroke="none" points="-4,4 -4,-157 354.5,-157 354.5,4 -4,4"/>
<!-- Node1 -->
<g id="node1" class="node"><title>Node1</title>
<polygon fill="#bfbfbf" stroke="black" points="132.5,-0.5 132.5,-19.5 258.5,-19.5 258.5,-0.5 132.5,-0.5"/>
<text text-anchor="middle" x="195.5" y="-7.5" font-family="Helvetica,sans-Serif" font-size="10.00">mom_pointaccel::pointaccel_cs</text>
</g>
<!-- Node2 -->
<g id="node2" class="node"><title>Node2</title>
<polygon fill="white" stroke="#bfbfbf" points="0,-133.5 0,-152.5 51,-152.5 51,-133.5 0,-133.5"/>
<text text-anchor="middle" x="25.5" y="-140.5" font-family="Helvetica,sans-Serif" font-size="10.00">time_type</text>
</g>
<!-- Node2&#45;&gt;Node1 -->
<g id="edge1" class="edge"><title>Node2&#45;&gt;Node1</title>
<path fill="none" stroke="#9a32cd" stroke-dasharray="5,2" d="M32.5739,-124.068C42.7292,-100.682 63.6771,-60.1501 94.5,-38 106.439,-29.4204 120.934,-23.5671 135.173,-19.5737"/>
<polygon fill="#9a32cd" stroke="#9a32cd" points="29.2688,-122.901 28.6707,-133.479 35.7348,-125.583 29.2688,-122.901"/>
<text text-anchor="middle" x="103.5" y="-74" font-family="Helvetica,sans-Serif" font-size="10.00"> time</text>
</g>
<!-- Node3 -->
<g id="node3" class="node"><title>Node3</title>
<polygon fill="white" stroke="#bfbfbf" points="69,-133.5 69,-152.5 154,-152.5 154,-133.5 69,-133.5"/>
<text text-anchor="middle" x="111.5" y="-140.5" font-family="Helvetica,sans-Serif" font-size="10.00">character(len=200)</text>
</g>
<!-- Node3&#45;&gt;Node1 -->
<g id="edge2" class="edge"><title>Node3&#45;&gt;Node1</title>
<path fill="none" stroke="#9a32cd" stroke-dasharray="5,2" d="M114.076,-123.575C118.035,-101.151 127.488,-63.1712 148.5,-38 155.133,-30.0535 164.744,-23.951 173.548,-19.5749"/>
<polygon fill="#9a32cd" stroke="#9a32cd" points="110.616,-123.047 112.511,-133.471 117.53,-124.141 110.616,-123.047"/>
<text text-anchor="middle" x="170" y="-79.5" font-family="Helvetica,sans-Serif" font-size="10.00"> v_trunc_file</text>
<text text-anchor="middle" x="170" y="-68.5" font-family="Helvetica,sans-Serif" font-size="10.00">u_trunc_file</text>
</g>
<!-- Node4 -->
<g id="node4" class="node"><title>Node4</title>
<polygon fill="white" stroke="#bfbfbf" points="172,-133.5 172,-152.5 219,-152.5 219,-133.5 172,-133.5"/>
<text text-anchor="middle" x="195.5" y="-140.5" font-family="Helvetica,sans-Serif" font-size="10.00">diag_ctrl</text>
</g>
<!-- Node4&#45;&gt;Node1 -->
<g id="edge3" class="edge"><title>Node4&#45;&gt;Node1</title>
<path fill="none" stroke="#9a32cd" stroke-dasharray="5,2" d="M195.5,-123.09C195.5,-94.3564 195.5,-40.8221 195.5,-19.7987"/>
<polygon fill="#9a32cd" stroke="#9a32cd" points="192,-123.405 195.5,-133.405 199,-123.405 192,-123.405"/>
<text text-anchor="middle" x="204.5" y="-74" font-family="Helvetica,sans-Serif" font-size="10.00"> diag</text>
</g>
<!-- Node5 -->
<g id="node5" class="node"><title>Node5</title>
<polygon fill="white" stroke="#bfbfbf" points="237.5,-133.5 237.5,-152.5 267.5,-152.5 267.5,-133.5 237.5,-133.5"/>
<text text-anchor="middle" x="252.5" y="-140.5" font-family="Helvetica,sans-Serif" font-size="10.00">real</text>
</g>
<!-- Node5&#45;&gt;Node1 -->
<g id="edge4" class="edge"><title>Node5&#45;&gt;Node1</title>
<path fill="none" stroke="#9a32cd" stroke-dasharray="5,2" d="M248.402,-123.452C243.183,-101.984 232.946,-65.9954 217.5,-38 213.878,-31.4352 208.603,-24.8953 204.127,-19.8965"/>
<polygon fill="#9a32cd" stroke="#9a32cd" points="245.061,-124.539 250.73,-133.49 251.88,-122.957 245.061,-124.539"/>
<text text-anchor="middle" x="259" y="-107" font-family="Helvetica,sans-Serif" font-size="10.00"> pbce</text>
<text text-anchor="middle" x="259" y="-96" font-family="Helvetica,sans-Serif" font-size="10.00">s</text>
<text text-anchor="middle" x="259" y="-85" font-family="Helvetica,sans-Serif" font-size="10.00">v_prev</text>
<text text-anchor="middle" x="259" y="-74" font-family="Helvetica,sans-Serif" font-size="10.00">t</text>
<text text-anchor="middle" x="259" y="-63" font-family="Helvetica,sans-Serif" font-size="10.00">u_prev</text>
<text text-anchor="middle" x="259" y="-52" font-family="Helvetica,sans-Serif" font-size="10.00">v_av</text>
<text text-anchor="middle" x="259" y="-41" font-family="Helvetica,sans-Serif" font-size="10.00">u_av</text>
</g>
<!-- Node6 -->
<g id="node6" class="node"><title>Node6</title>
<polygon fill="white" stroke="#bfbfbf" points="286,-133.5 286,-152.5 327,-152.5 327,-133.5 286,-133.5"/>
<text text-anchor="middle" x="306.5" y="-140.5" font-family="Helvetica,sans-Serif" font-size="10.00">integer</text>
</g>
<!-- Node6&#45;&gt;Node1 -->
<g id="edge5" class="edge"><title>Node6&#45;&gt;Node1</title>
<path fill="none" stroke="#9a32cd" stroke-dasharray="5,2" d="M305.944,-123.269C304.256,-100.229 297.994,-61.314 275.5,-38 267.256,-29.4553 256.22,-23.6147 244.984,-19.6225"/>
<polygon fill="#9a32cd" stroke="#9a32cd" points="302.457,-123.627 306.463,-133.435 309.448,-123.27 302.457,-123.627"/>
<text text-anchor="middle" x="328" y="-90.5" font-family="Helvetica,sans-Serif" font-size="10.00"> cols_written</text>
<text text-anchor="middle" x="328" y="-79.5" font-family="Helvetica,sans-Serif" font-size="10.00">v_file</text>
<text text-anchor="middle" x="328" y="-68.5" font-family="Helvetica,sans-Serif" font-size="10.00">max_writes</text>
<text text-anchor="middle" x="328" y="-57.5" font-family="Helvetica,sans-Serif" font-size="10.00">u_file</text>
</g>
</g>
</svg>
