<?xml version="1.0" encoding="UTF-8" standalone="no"?>
<!DOCTYPE svg PUBLIC "-//W3C//DTD SVG 1.1//EN"
 "http://www.w3.org/Graphics/SVG/1.1/DTD/svg11.dtd">
<!-- Generated by graphviz version 2.38.0 (20140413.2041)
 -->
<!-- Title: mom_error_handler::mom_get_verbosity Pages: 1 -->
<svg width="562pt" height="39pt"
 viewBox="0.00 0.00 562.00 39.00" xmlns="http://www.w3.org/2000/svg" xmlns:xlink="http://www.w3.org/1999/xlink">
<g id="graph0" class="graph" transform="scale(1 1) rotate(0) translate(4 35)">
<title>mom_error_handler::mom_get_verbosity</title>
<polygon fill="white" stroke="none" points="-4,4 -4,-35 558,-35 558,4 -4,4"/>
<!-- Node1073 -->
<g id="node1" class="node"><title>Node1073</title>
<polygon fill="#bfbfbf" stroke="black" points="0,-0.5 0,-30.5 93,-30.5 93,-0.5 0,-0.5"/>
<text text-anchor="start" x="8" y="-18.5" font-family="Helvetica,sans-Serif" font-size="10.00">mom_error_handler::</text>
<text text-anchor="middle" x="46.5" y="-7.5" font-family="Helvetica,sans-Serif" font-size="10.00">mom_get_verbosity</text>
</g>
<!-- Node1074 -->
<g id="node2" class="node"><title>Node1074</title>
<g id="a_node2"><a xlink:href="../../d8/da4/namespacemom__neutral__diffusion.html#a72c160fad7066e2837db730c717a9ad1" target="_top" xlink:title="Returns true if unit tests of neutral_diffusion functions fail. Otherwise returns false...">
<polygon fill="white" stroke="black" points="129,-0.5 129,-30.5 233,-30.5 233,-0.5 129,-0.5"/>
<text text-anchor="start" x="137" y="-18.5" font-family="Helvetica,sans-Serif" font-size="10.00">mom_neutral_diffusion</text>
<text text-anchor="middle" x="181" y="-7.5" font-family="Helvetica,sans-Serif" font-size="10.00">::neutraldiffusionunittests</text>
</a>
</g>
</g>
<!-- Node1073&#45;&gt;Node1074 -->
<g id="edge1" class="edge"><title>Node1073&#45;&gt;Node1074</title>
<path fill="none" stroke="midnightblue" d="M103.29,-15.5C111.772,-15.5 120.488,-15.5 128.864,-15.5"/>
<polygon fill="midnightblue" stroke="midnightblue" points="103.099,-12.0001 93.099,-15.5 103.099,-19.0001 103.099,-12.0001"/>
</g>
<!-- Node1075 -->
<g id="node3" class="node"><title>Node1075</title>
<g id="a_node3"><a xlink:href="../../da/d01/namespacemom.html#a6cfc2cd88d60f051fe90e68c2f16b46b" target="_top" xlink:title="This s/r calls unit tests for other modules. These are NOT normally invoked and so we provide the mod...">
<polygon fill="white" stroke="black" points="269,-6 269,-25 337,-25 337,-6 269,-6"/>
<text text-anchor="middle" x="303" y="-13" font-family="Helvetica,sans-Serif" font-size="10.00">mom::unittests</text>
</a>
</g>
</g>
<!-- Node1074&#45;&gt;Node1075 -->
<g id="edge2" class="edge"><title>Node1074&#45;&gt;Node1075</title>
<path fill="none" stroke="midnightblue" d="M243.521,-15.5C252.302,-15.5 261.039,-15.5 268.98,-15.5"/>
<polygon fill="midnightblue" stroke="midnightblue" points="243.239,-12.0001 233.239,-15.5 243.239,-19.0001 243.239,-12.0001"/>
</g>
<!-- Node1076 -->
<g id="node4" class="node"><title>Node1076</title>
<g id="a_node4"><a xlink:href="../../da/d01/namespacemom.html#afebdc0103ad9cbe0ed4a54e522dc4104" target="_top" xlink:title="This subroutine initializes MOM. ">
<polygon fill="white" stroke="black" points="373,-6 373,-25 462,-25 462,-6 373,-6"/>
<text text-anchor="middle" x="417.5" y="-13" font-family="Helvetica,sans-Serif" font-size="10.00">mom::initialize_mom</text>
</a>
</g>
</g>
<!-- Node1075&#45;&gt;Node1076 -->
<g id="edge3" class="edge"><title>Node1075&#45;&gt;Node1076</title>
<path fill="none" stroke="midnightblue" d="M347.403,-15.5C355.714,-15.5 364.421,-15.5 372.743,-15.5"/>
<polygon fill="midnightblue" stroke="midnightblue" points="347.145,-12.0001 337.145,-15.5 347.145,-19.0001 347.145,-12.0001"/>
</g>
<!-- Node1077 -->
<g id="node5" class="node"><title>Node1077</title>
<g id="a_node5"><a xlink:href="../../de/dbc/MOM__driver_8F90.html#a08fffeb2d8e8acbf9ed4609be6d258c6" target="_top" xlink:title="mom_main">
<polygon fill="white" stroke="black" points="498,-6 498,-25 554,-25 554,-6 498,-6"/>
<text text-anchor="middle" x="526" y="-13" font-family="Helvetica,sans-Serif" font-size="10.00">mom_main</text>
</a>
</g>
</g>
<!-- Node1076&#45;&gt;Node1077 -->
<g id="edge4" class="edge"><title>Node1076&#45;&gt;Node1077</title>
<path fill="none" stroke="midnightblue" d="M472.407,-15.5C481.206,-15.5 489.981,-15.5 497.771,-15.5"/>
<polygon fill="midnightblue" stroke="midnightblue" points="472.125,-12.0001 462.125,-15.5 472.125,-19.0001 472.125,-12.0001"/>
</g>
</g>
</svg>
