<?xml version="1.0" encoding="UTF-8" standalone="no"?>
<!DOCTYPE svg PUBLIC "-//W3C//DTD SVG 1.1//EN"
 "http://www.w3.org/Graphics/SVG/1.1/DTD/svg11.dtd">
<!-- Generated by graphviz version 2.38.0 (20140413.2041)
 -->
<!-- Title: mom_diabatic_aux::applyboundaryfluxesinout Pages: 1 -->
<svg width="644pt" height="239pt"
 viewBox="0.00 0.00 644.00 238.50" xmlns="http://www.w3.org/2000/svg" xmlns:xlink="http://www.w3.org/1999/xlink">
<g id="graph0" class="graph" transform="scale(1 1) rotate(0) translate(4 234.5)">
<title>mom_diabatic_aux::applyboundaryfluxesinout</title>
<polygon fill="white" stroke="none" points="-4,4 -4,-234.5 640,-234.5 640,4 -4,4"/>
<!-- Node2 -->
<g id="node1" class="node"><title>Node2</title>
<polygon fill="#bfbfbf" stroke="black" points="0,-139.5 0,-158.5 178,-158.5 178,-139.5 0,-139.5"/>
<text text-anchor="middle" x="89" y="-146.5" font-family="Helvetica,sans-Serif" font-size="10.00">mom_diabatic_aux::applyboundaryfluxesinout</text>
</g>
<!-- Node3 -->
<g id="node2" class="node"><title>Node3</title>
<g id="a_node2"><a xlink:href="../../d8/daf/namespacemom__shortwave__abs.html#a977474b56b68f4db0d6b0dc604755e6c" target="_top" xlink:title="Apply shortwave heating below surface boundary layer. ">
<polygon fill="white" stroke="black" points="235,-200 235,-230 333,-230 333,-200 235,-200"/>
<text text-anchor="start" x="243" y="-218" font-family="Helvetica,sans-Serif" font-size="10.00">mom_shortwave_abs::</text>
<text text-anchor="middle" x="284" y="-207" font-family="Helvetica,sans-Serif" font-size="10.00">absorbremainingsw</text>
</a>
</g>
</g>
<!-- Node2&#45;&gt;Node3 -->
<g id="edge1" class="edge"><title>Node2&#45;&gt;Node3</title>
<path fill="none" stroke="midnightblue" d="M118.064,-158.597C147.019,-168.499 192.911,-184.192 228.944,-196.514"/>
<polygon fill="midnightblue" stroke="midnightblue" points="228.229,-199.969 238.823,-199.893 230.494,-193.345 228.229,-199.969"/>
</g>
<!-- Node4 -->
<g id="node3" class="node"><title>Node4</title>
<g id="a_node3"><a xlink:href="../../d1/d01/namespacemom__eos.html#ab6ed65d2df376be9bbea2050f50fe46e" target="_top" xlink:title="Calls the appropriate subroutine to calculate specific volume derivatives for an array. ">
<polygon fill="white" stroke="black" points="240.5,-112 240.5,-142 327.5,-142 327.5,-112 240.5,-112"/>
<text text-anchor="start" x="248.5" y="-130" font-family="Helvetica,sans-Serif" font-size="10.00">mom_eos::calculate</text>
<text text-anchor="middle" x="284" y="-119" font-family="Helvetica,sans-Serif" font-size="10.00">_specific_vol_derivs</text>
</a>
</g>
</g>
<!-- Node2&#45;&gt;Node4 -->
<g id="edge2" class="edge"><title>Node2&#45;&gt;Node4</title>
<path fill="none" stroke="midnightblue" d="M173.53,-139.478C192.777,-137.285 212.724,-135.011 230.235,-133.015"/>
<polygon fill="midnightblue" stroke="midnightblue" points="230.701,-136.484 240.24,-131.874 229.908,-129.529 230.701,-136.484"/>
</g>
<!-- Node10 -->
<g id="node9" class="node"><title>Node10</title>
<g id="a_node9"><a xlink:href="../../dd/dc3/namespacemom__forcing__type.html#ab67e7c2e99099bcf22d12885f349e1e4" target="_top" xlink:title="This subroutine extracts fluxes from the surface fluxes type. It works on a j&#45;row for optimization pu...">
<polygon fill="white" stroke="black" points="214,-161.5 214,-180.5 354,-180.5 354,-161.5 214,-161.5"/>
<text text-anchor="middle" x="284" y="-168.5" font-family="Helvetica,sans-Serif" font-size="10.00">mom_forcing_type::extractfluxes1d</text>
</a>
</g>
</g>
<!-- Node2&#45;&gt;Node10 -->
<g id="edge8" class="edge"><title>Node2&#45;&gt;Node10</title>
<path fill="none" stroke="midnightblue" d="M173.53,-158.522C183.511,-159.659 193.68,-160.818 203.6,-161.949"/>
<polygon fill="midnightblue" stroke="midnightblue" points="203.497,-165.46 213.829,-163.115 204.29,-158.505 203.497,-165.46"/>
</g>
<!-- Node11 -->
<g id="node10" class="node"><title>Node11</title>
<g id="a_node10"><a xlink:href="../../dd/dc3/namespacemom__forcing__type.html#a1048a8e80ebd47f83b91772c02aedba2" target="_top" xlink:title="Write out values of the fluxes arrays at the i,j location. ">
<polygon fill="white" stroke="black" points="228.5,-41 228.5,-71 339.5,-71 339.5,-41 228.5,-41"/>
<text text-anchor="start" x="236.5" y="-59" font-family="Helvetica,sans-Serif" font-size="10.00">mom_forcing_type::forcing</text>
<text text-anchor="middle" x="284" y="-48" font-family="Helvetica,sans-Serif" font-size="10.00">_singlepointprint</text>
</a>
</g>
</g>
<!-- Node2&#45;&gt;Node11 -->
<g id="edge10" class="edge"><title>Node2&#45;&gt;Node11</title>
<path fill="none" stroke="midnightblue" d="M109.927,-139.398C141.111,-124.371 202.068,-94.9986 242.671,-75.4332"/>
<polygon fill="midnightblue" stroke="midnightblue" points="244.276,-78.5451 251.765,-71.0511 241.237,-72.2391 244.276,-78.5451"/>
</g>
<!-- Node5 -->
<g id="node4" class="node"><title>Node5</title>
<g id="a_node4"><a xlink:href="../../d0/de6/namespacemom__error__handler.html#a460cfb79a06c29fc249952c2a3710d67" target="_top" xlink:title="mom_error_handler::\lmom_error">
<polygon fill="white" stroke="black" points="402,-186 402,-216 495,-216 495,-186 402,-186"/>
<text text-anchor="start" x="410" y="-204" font-family="Helvetica,sans-Serif" font-size="10.00">mom_error_handler::</text>
<text text-anchor="middle" x="448.5" y="-193" font-family="Helvetica,sans-Serif" font-size="10.00">mom_error</text>
</a>
</g>
</g>
<!-- Node4&#45;&gt;Node5 -->
<g id="edge3" class="edge"><title>Node4&#45;&gt;Node5</title>
<path fill="none" stroke="midnightblue" d="M327.641,-140.631C336.52,-143.971 345.698,-147.806 354,-152 371.164,-160.671 373.116,-166.797 390,-176 393.502,-177.909 397.179,-179.784 400.91,-181.595"/>
<polygon fill="midnightblue" stroke="midnightblue" points="399.684,-184.885 410.225,-185.949 402.648,-178.543 399.684,-184.885"/>
</g>
<!-- Node7 -->
<g id="node6" class="node"><title>Node7</title>
<g id="a_node6"><a xlink:href="../../d5/de6/namespacemom__eos__linear.html#ac104dedf6f20ab794c2c430462ace217" target="_top" xlink:title="mom_eos_linear::calculate\l_specvol_derivs_linear">
<polygon fill="white" stroke="black" points="393,-137 393,-167 504,-167 504,-137 393,-137"/>
<text text-anchor="start" x="401" y="-155" font-family="Helvetica,sans-Serif" font-size="10.00">mom_eos_linear::calculate</text>
<text text-anchor="middle" x="448.5" y="-144" font-family="Helvetica,sans-Serif" font-size="10.00">_specvol_derivs_linear</text>
</a>
</g>
</g>
<!-- Node4&#45;&gt;Node7 -->
<g id="edge5" class="edge"><title>Node4&#45;&gt;Node7</title>
<path fill="none" stroke="midnightblue" d="M327.695,-133.568C344.515,-136.156 364.206,-139.186 382.708,-142.032"/>
<polygon fill="midnightblue" stroke="midnightblue" points="382.423,-145.529 392.839,-143.591 383.487,-138.611 382.423,-145.529"/>
</g>
<!-- Node8 -->
<g id="node7" class="node"><title>Node8</title>
<g id="a_node7"><a xlink:href="../../dd/d6b/namespacemom__eos__unesco.html#af8666837abadea54c016bf59838f96cc" target="_top" xlink:title="mom_eos_unesco::calculate\l_density_derivs_unesco">
<polygon fill="white" stroke="black" points="390,-88 390,-118 507,-118 507,-88 390,-88"/>
<text text-anchor="start" x="398" y="-106" font-family="Helvetica,sans-Serif" font-size="10.00">mom_eos_unesco::calculate</text>
<text text-anchor="middle" x="448.5" y="-95" font-family="Helvetica,sans-Serif" font-size="10.00">_density_derivs_unesco</text>
</a>
</g>
</g>
<!-- Node4&#45;&gt;Node8 -->
<g id="edge6" class="edge"><title>Node4&#45;&gt;Node8</title>
<path fill="none" stroke="midnightblue" d="M327.695,-120.694C343.574,-118.349 362.01,-115.626 379.59,-113.03"/>
<polygon fill="midnightblue" stroke="midnightblue" points="380.434,-116.443 389.815,-111.52 379.411,-109.518 380.434,-116.443"/>
</g>
<!-- Node9 -->
<g id="node8" class="node"><title>Node9</title>
<g id="a_node8"><a xlink:href="../../de/d76/namespacemom__eos__wright.html#a890d098ddbdc76f6cfbf1b7cf19b6388" target="_top" xlink:title="mom_eos_wright::calculate\l_specvol_derivs_wright">
<polygon fill="white" stroke="black" points="392,-39 392,-69 505,-69 505,-39 392,-39"/>
<text text-anchor="start" x="400" y="-57" font-family="Helvetica,sans-Serif" font-size="10.00">mom_eos_wright::calculate</text>
<text text-anchor="middle" x="448.5" y="-46" font-family="Helvetica,sans-Serif" font-size="10.00">_specvol_derivs_wright</text>
</a>
</g>
</g>
<!-- Node4&#45;&gt;Node9 -->
<g id="edge7" class="edge"><title>Node4&#45;&gt;Node9</title>
<path fill="none" stroke="midnightblue" d="M316.549,-111.863C337.318,-102.001 365.159,-88.9748 390,-78 393.785,-76.3279 397.722,-74.6197 401.682,-72.9235"/>
<polygon fill="midnightblue" stroke="midnightblue" points="403.064,-76.1391 410.902,-69.0101 400.329,-69.6956 403.064,-76.1391"/>
</g>
<!-- Node6 -->
<g id="node5" class="node"><title>Node6</title>
<g id="a_node5"><a xlink:href="../../d0/de6/namespacemom__error__handler.html#ad5f00a53059c72fe2332d1436c80ca71" target="_top" xlink:title="mom_error_handler::\lis_root_pe">
<polygon fill="white" stroke="black" points="543,-186 543,-216 636,-216 636,-186 543,-186"/>
<text text-anchor="start" x="551" y="-204" font-family="Helvetica,sans-Serif" font-size="10.00">mom_error_handler::</text>
<text text-anchor="middle" x="589.5" y="-193" font-family="Helvetica,sans-Serif" font-size="10.00">is_root_pe</text>
</a>
</g>
</g>
<!-- Node5&#45;&gt;Node6 -->
<g id="edge4" class="edge"><title>Node5&#45;&gt;Node6</title>
<path fill="none" stroke="midnightblue" d="M495.014,-201C507.014,-201 520.102,-201 532.581,-201"/>
<polygon fill="midnightblue" stroke="midnightblue" points="532.884,-204.5 542.884,-201 532.884,-197.5 532.884,-204.5"/>
</g>
<!-- Node10&#45;&gt;Node5 -->
<g id="edge9" class="edge"><title>Node10&#45;&gt;Node5</title>
<path fill="none" stroke="midnightblue" d="M336.863,-180.575C354.333,-183.8 373.898,-187.412 391.661,-190.691"/>
<polygon fill="midnightblue" stroke="midnightblue" points="391.413,-194.205 401.883,-192.578 392.684,-187.321 391.413,-194.205"/>
</g>
<!-- Node12 -->
<g id="node11" class="node"><title>Node12</title>
<g id="a_node11"><a xlink:href="../../d5/ded/MOM__forcing__type_8F90.html#a17e3300314324a127a3ae8c284cf4195" target="_top" xlink:title="locmsg">
<polygon fill="white" stroke="black" points="428,-0.5 428,-19.5 469,-19.5 469,-0.5 428,-0.5"/>
<text text-anchor="middle" x="448.5" y="-7.5" font-family="Helvetica,sans-Serif" font-size="10.00">locmsg</text>
</a>
</g>
</g>
<!-- Node11&#45;&gt;Node12 -->
<g id="edge11" class="edge"><title>Node11&#45;&gt;Node12</title>
<path fill="none" stroke="midnightblue" d="M338.209,-40.9379C364.738,-33.4281 395.813,-24.6314 418.032,-18.3418"/>
<polygon fill="midnightblue" stroke="midnightblue" points="419.2,-21.6487 427.868,-15.5573 417.293,-14.9134 419.2,-21.6487"/>
</g>
</g>
</svg>
