<?xml version="1.0" encoding="UTF-8" standalone="no"?>
<!DOCTYPE svg PUBLIC "-//W3C//DTD SVG 1.1//EN"
 "http://www.w3.org/Graphics/SVG/1.1/DTD/svg11.dtd">
<!-- Generated by graphviz version 2.38.0 (20140413.2041)
 -->
<!-- Title: mom_tracer_registry::register_tracer Pages: 1 -->
<svg width="641pt" height="102pt"
 viewBox="0.00 0.00 641.00 102.00" xmlns="http://www.w3.org/2000/svg" xmlns:xlink="http://www.w3.org/1999/xlink">
<g id="graph0" class="graph" transform="scale(1 1) rotate(0) translate(4 98)">
<title>mom_tracer_registry::register_tracer</title>
<polygon fill="white" stroke="none" points="-4,4 -4,-98 637,-98 637,4 -4,4"/>
<!-- Node23 -->
<g id="node1" class="node"><title>Node23</title>
<polygon fill="#bfbfbf" stroke="black" points="0,-44.5 0,-74.5 91,-74.5 91,-44.5 0,-44.5"/>
<text text-anchor="start" x="8" y="-62.5" font-family="Helvetica,sans-Serif" font-size="10.00">mom_tracer_registry</text>
<text text-anchor="middle" x="45.5" y="-51.5" font-family="Helvetica,sans-Serif" font-size="10.00">::register_tracer</text>
</g>
<!-- Node24 -->
<g id="node2" class="node"><title>Node24</title>
<g id="a_node2"><a xlink:href="../../d0/de6/namespacemom__error__handler.html#a460cfb79a06c29fc249952c2a3710d67" target="_top" xlink:title="mom_error_handler::\lmom_error">
<polygon fill="white" stroke="black" points="411,-63.5 411,-93.5 504,-93.5 504,-63.5 411,-63.5"/>
<text text-anchor="start" x="419" y="-81.5" font-family="Helvetica,sans-Serif" font-size="10.00">mom_error_handler::</text>
<text text-anchor="middle" x="457.5" y="-70.5" font-family="Helvetica,sans-Serif" font-size="10.00">mom_error</text>
</a>
</g>
</g>
<!-- Node23&#45;&gt;Node24 -->
<g id="edge1" class="edge"><title>Node23&#45;&gt;Node24</title>
<path fill="none" stroke="midnightblue" d="M91.3035,-72.0136C102.841,-74.6997 115.304,-77.1384 127,-78.5 222.601,-89.6292 334.865,-86.1297 400.594,-82.4229"/>
<polygon fill="midnightblue" stroke="midnightblue" points="400.957,-85.9078 410.735,-81.8284 400.547,-78.9198 400.957,-85.9078"/>
</g>
<!-- Node26 -->
<g id="node4" class="node"><title>Node26</title>
<g id="a_node4"><a xlink:href="../../d5/d89/namespacemom__io.html#a23e82d1d89d9bb1c9bdf802ce80d4508" target="_top" xlink:title="This routine queries vardesc. ">
<polygon fill="white" stroke="black" points="127,-50 127,-69 229,-69 229,-50 127,-50"/>
<text text-anchor="middle" x="178" y="-57" font-family="Helvetica,sans-Serif" font-size="10.00">mom_io::query_vardesc</text>
</a>
</g>
</g>
<!-- Node23&#45;&gt;Node26 -->
<g id="edge3" class="edge"><title>Node23&#45;&gt;Node26</title>
<path fill="none" stroke="midnightblue" d="M91.0457,-59.5C99.3247,-59.5 108.1,-59.5 116.757,-59.5"/>
<polygon fill="midnightblue" stroke="midnightblue" points="116.828,-63.0001 126.828,-59.5 116.828,-56.0001 116.828,-63.0001"/>
</g>
<!-- Node28 -->
<g id="node6" class="node"><title>Node28</title>
<g id="a_node6"><a xlink:href="../../d1/d35/namespacemom__tracer__registry.html#a452937bf1f9d01a47d1a80793e317b33" target="_top" xlink:title="This routine include declares and sets the variable &quot;version&quot;. ">
<polygon fill="white" stroke="black" points="132.5,-0.5 132.5,-30.5 223.5,-30.5 223.5,-0.5 132.5,-0.5"/>
<text text-anchor="start" x="140.5" y="-18.5" font-family="Helvetica,sans-Serif" font-size="10.00">mom_tracer_registry</text>
<text text-anchor="middle" x="178" y="-7.5" font-family="Helvetica,sans-Serif" font-size="10.00">::tracer_registry_init</text>
</a>
</g>
</g>
<!-- Node23&#45;&gt;Node28 -->
<g id="edge6" class="edge"><title>Node23&#45;&gt;Node28</title>
<path fill="none" stroke="midnightblue" d="M91.0457,-44.4808C101.221,-41.0499 112.147,-37.3663 122.681,-33.8146"/>
<polygon fill="midnightblue" stroke="midnightblue" points="123.854,-37.1125 132.212,-30.6009 121.618,-30.4794 123.854,-37.1125"/>
</g>
<!-- Node25 -->
<g id="node3" class="node"><title>Node25</title>
<g id="a_node3"><a xlink:href="../../d0/de6/namespacemom__error__handler.html#ad5f00a53059c72fe2332d1436c80ca71" target="_top" xlink:title="mom_error_handler::\lis_root_pe">
<polygon fill="white" stroke="black" points="540,-63.5 540,-93.5 633,-93.5 633,-63.5 540,-63.5"/>
<text text-anchor="start" x="548" y="-81.5" font-family="Helvetica,sans-Serif" font-size="10.00">mom_error_handler::</text>
<text text-anchor="middle" x="586.5" y="-70.5" font-family="Helvetica,sans-Serif" font-size="10.00">is_root_pe</text>
</a>
</g>
</g>
<!-- Node24&#45;&gt;Node25 -->
<g id="edge2" class="edge"><title>Node24&#45;&gt;Node25</title>
<path fill="none" stroke="midnightblue" d="M504.35,-78.5C512.533,-78.5 521.141,-78.5 529.568,-78.5"/>
<polygon fill="midnightblue" stroke="midnightblue" points="529.717,-82.0001 539.717,-78.5 529.717,-75.0001 529.717,-82.0001"/>
</g>
<!-- Node27 -->
<g id="node5" class="node"><title>Node27</title>
<g id="a_node5"><a xlink:href="../../d5/d89/namespacemom__io.html#ac4bc408e8b38dbd669842753f26ebf88" target="_top" xlink:title="Copies a string. ">
<polygon fill="white" stroke="black" points="265,-50 265,-69 375,-69 375,-50 265,-50"/>
<text text-anchor="middle" x="320" y="-57" font-family="Helvetica,sans-Serif" font-size="10.00">mom_io::safe_string_copy</text>
</a>
</g>
</g>
<!-- Node26&#45;&gt;Node27 -->
<g id="edge4" class="edge"><title>Node26&#45;&gt;Node27</title>
<path fill="none" stroke="midnightblue" d="M229.148,-59.5C237.494,-59.5 246.251,-59.5 254.887,-59.5"/>
<polygon fill="midnightblue" stroke="midnightblue" points="254.938,-63.0001 264.938,-59.5 254.938,-56.0001 254.938,-63.0001"/>
</g>
<!-- Node27&#45;&gt;Node24 -->
<g id="edge5" class="edge"><title>Node27&#45;&gt;Node24</title>
<path fill="none" stroke="midnightblue" d="M375.332,-67.1185C383.707,-68.2929 392.367,-69.5072 400.772,-70.6858"/>
<polygon fill="midnightblue" stroke="midnightblue" points="400.473,-74.178 410.862,-72.1006 401.445,-67.2458 400.473,-74.178"/>
</g>
</g>
</svg>
