<?xml version="1.0" encoding="UTF-8" standalone="no"?>
<!DOCTYPE svg PUBLIC "-//W3C//DTD SVG 1.1//EN"
 "http://www.w3.org/Graphics/SVG/1.1/DTD/svg11.dtd">
<!-- Generated by graphviz version 2.38.0 (20140413.2041)
 -->
<!-- Title: mom_tracer_registry::add_tracer_obc_values Pages: 1 -->
<svg width="603pt" height="88pt"
 viewBox="0.00 0.00 603.00 88.00" xmlns="http://www.w3.org/2000/svg" xmlns:xlink="http://www.w3.org/1999/xlink">
<g id="graph0" class="graph" transform="scale(1 1) rotate(0) translate(4 84)">
<title>mom_tracer_registry::add_tracer_obc_values</title>
<polygon fill="white" stroke="none" points="-4,4 -4,-84 599,-84 599,4 -4,4"/>
<!-- Node8 -->
<g id="node1" class="node"><title>Node8</title>
<polygon fill="#bfbfbf" stroke="black" points="0,-24.5 0,-54.5 104,-54.5 104,-24.5 0,-24.5"/>
<text text-anchor="start" x="8" y="-42.5" font-family="Helvetica,sans-Serif" font-size="10.00">mom_tracer_registry</text>
<text text-anchor="middle" x="52" y="-31.5" font-family="Helvetica,sans-Serif" font-size="10.00">::add_tracer_obc_values</text>
</g>
<!-- Node9 -->
<g id="node2" class="node"><title>Node9</title>
<g id="a_node2"><a xlink:href="../../d6/d62/namespacemom__state__initialization.html#a92a48fe82da91286eb58af432b87092f" target="_top" xlink:title="mom_state_initialization\l::set_open_bdry_conds">
<polygon fill="white" stroke="black" points="140,-49.5 140,-79.5 241,-79.5 241,-49.5 140,-49.5"/>
<text text-anchor="start" x="148" y="-67.5" font-family="Helvetica,sans-Serif" font-size="10.00">mom_state_initialization</text>
<text text-anchor="middle" x="190.5" y="-56.5" font-family="Helvetica,sans-Serif" font-size="10.00">::set_open_bdry_conds</text>
</a>
</g>
</g>
<!-- Node8&#45;&gt;Node9 -->
<g id="edge1" class="edge"><title>Node8&#45;&gt;Node9</title>
<path fill="none" stroke="midnightblue" d="M114.181,-50.7052C122.756,-52.2758 131.482,-53.8739 139.809,-55.399"/>
<polygon fill="midnightblue" stroke="midnightblue" points="114.683,-47.2391 104.216,-48.8802 113.422,-54.1246 114.683,-47.2391"/>
</g>
<!-- Node13 -->
<g id="node6" class="node"><title>Node13</title>
<g id="a_node6"><a xlink:href="../../df/db5/namespaceuser__tracer__example.html#a16d417b6068f44605caf3573bf5f4de9" target="_top" xlink:title="user_tracer_example\l::user_initialize_tracer">
<polygon fill="white" stroke="black" points="143.5,-0.5 143.5,-30.5 237.5,-30.5 237.5,-0.5 143.5,-0.5"/>
<text text-anchor="start" x="151.5" y="-18.5" font-family="Helvetica,sans-Serif" font-size="10.00">user_tracer_example</text>
<text text-anchor="middle" x="190.5" y="-7.5" font-family="Helvetica,sans-Serif" font-size="10.00">::user_initialize_tracer</text>
</a>
</g>
</g>
<!-- Node8&#45;&gt;Node13 -->
<g id="edge5" class="edge"><title>Node8&#45;&gt;Node13</title>
<path fill="none" stroke="midnightblue" d="M114.3,-28.7219C124.077,-27.003 134.046,-25.2502 143.393,-23.6067"/>
<polygon fill="midnightblue" stroke="midnightblue" points="113.459,-25.3161 104.216,-30.495 114.671,-32.2104 113.459,-25.3161"/>
</g>
<!-- Node10 -->
<g id="node3" class="node"><title>Node10</title>
<g id="a_node3"><a xlink:href="../../d6/d62/namespacemom__state__initialization.html#af4e854627c6572332ba3fd895f169321" target="_top" xlink:title="mom_state_initialization\l::mom_initialize_state">
<polygon fill="white" stroke="black" points="277,-49.5 277,-79.5 378,-79.5 378,-49.5 277,-49.5"/>
<text text-anchor="start" x="285" y="-67.5" font-family="Helvetica,sans-Serif" font-size="10.00">mom_state_initialization</text>
<text text-anchor="middle" x="327.5" y="-56.5" font-family="Helvetica,sans-Serif" font-size="10.00">::mom_initialize_state</text>
</a>
</g>
</g>
<!-- Node9&#45;&gt;Node10 -->
<g id="edge2" class="edge"><title>Node9&#45;&gt;Node10</title>
<path fill="none" stroke="midnightblue" d="M251.207,-64.5C259.67,-64.5 268.299,-64.5 276.552,-64.5"/>
<polygon fill="midnightblue" stroke="midnightblue" points="251.002,-61.0001 241.002,-64.5 251.002,-68.0001 251.002,-61.0001"/>
</g>
<!-- Node11 -->
<g id="node4" class="node"><title>Node11</title>
<g id="a_node4"><a xlink:href="../../da/d01/namespacemom.html#afebdc0103ad9cbe0ed4a54e522dc4104" target="_top" xlink:title="This subroutine initializes MOM. ">
<polygon fill="white" stroke="black" points="414,-55 414,-74 503,-74 503,-55 414,-55"/>
<text text-anchor="middle" x="458.5" y="-62" font-family="Helvetica,sans-Serif" font-size="10.00">mom::initialize_mom</text>
</a>
</g>
</g>
<!-- Node10&#45;&gt;Node11 -->
<g id="edge3" class="edge"><title>Node10&#45;&gt;Node11</title>
<path fill="none" stroke="midnightblue" d="M388.088,-64.5C396.755,-64.5 405.541,-64.5 413.815,-64.5"/>
<polygon fill="midnightblue" stroke="midnightblue" points="388.006,-61.0001 378.006,-64.5 388.006,-68.0001 388.006,-61.0001"/>
</g>
<!-- Node12 -->
<g id="node5" class="node"><title>Node12</title>
<g id="a_node5"><a xlink:href="../../de/dbc/MOM__driver_8F90.html#a08fffeb2d8e8acbf9ed4609be6d258c6" target="_top" xlink:title="mom_main">
<polygon fill="white" stroke="black" points="539,-55 539,-74 595,-74 595,-55 539,-55"/>
<text text-anchor="middle" x="567" y="-62" font-family="Helvetica,sans-Serif" font-size="10.00">mom_main</text>
</a>
</g>
</g>
<!-- Node11&#45;&gt;Node12 -->
<g id="edge4" class="edge"><title>Node11&#45;&gt;Node12</title>
<path fill="none" stroke="midnightblue" d="M513.407,-64.5C522.206,-64.5 530.981,-64.5 538.771,-64.5"/>
<polygon fill="midnightblue" stroke="midnightblue" points="513.125,-61.0001 503.125,-64.5 513.125,-68.0001 513.125,-61.0001"/>
</g>
</g>
</svg>
