<?xml version="1.0" encoding="UTF-8" standalone="no"?>
<!DOCTYPE svg PUBLIC "-//W3C//DTD SVG 1.1//EN"
 "http://www.w3.org/Graphics/SVG/1.1/DTD/svg11.dtd">
<!-- Generated by graphviz version 2.38.0 (20140413.2041)
 -->
<!-- Title: mom_tracer_registry::tracer_vertdiff Pages: 1 -->
<svg width="244pt" height="99pt"
 viewBox="0.00 0.00 244.00 98.50" xmlns="http://www.w3.org/2000/svg" xmlns:xlink="http://www.w3.org/1999/xlink">
<g id="graph0" class="graph" transform="scale(1 1) rotate(0) translate(4 94.5)">
<title>mom_tracer_registry::tracer_vertdiff</title>
<polygon fill="white" stroke="none" points="-4,4 -4,-94.5 240,-94.5 240,4 -4,4"/>
<!-- Node36 -->
<g id="node1" class="node"><title>Node36</title>
<polygon fill="#bfbfbf" stroke="black" points="0,-27.5 0,-57.5 91,-57.5 91,-27.5 0,-27.5"/>
<text text-anchor="start" x="8" y="-45.5" font-family="Helvetica,sans-Serif" font-size="10.00">mom_tracer_registry</text>
<text text-anchor="middle" x="45.5" y="-34.5" font-family="Helvetica,sans-Serif" font-size="10.00">::tracer_vertdiff</text>
</g>
<!-- Node37 -->
<g id="node2" class="node"><title>Node37</title>
<g id="a_node2"><a xlink:href="../../d6/dcd/namespaceideal__age__example.html#ae85ef917cae6288bd0841661194ed9e6" target="_top" xlink:title="ideal_age_example::\lideal_age_tracer_column\l_physics">
<polygon fill="white" stroke="black" points="128,-49 128,-90 235,-90 235,-49 128,-49"/>
<text text-anchor="start" x="136" y="-78" font-family="Helvetica,sans-Serif" font-size="10.00">ideal_age_example::</text>
<text text-anchor="start" x="136" y="-67" font-family="Helvetica,sans-Serif" font-size="10.00">ideal_age_tracer_column</text>
<text text-anchor="middle" x="181.5" y="-56" font-family="Helvetica,sans-Serif" font-size="10.00">_physics</text>
</a>
</g>
</g>
<!-- Node36&#45;&gt;Node37 -->
<g id="edge1" class="edge"><title>Node36&#45;&gt;Node37</title>
<path fill="none" stroke="midnightblue" d="M100.935,-53.4683C109.773,-55.249 118.913,-57.0907 127.711,-58.8634"/>
<polygon fill="midnightblue" stroke="midnightblue" points="101.614,-50.0349 91.1201,-51.4906 100.232,-56.897 101.614,-50.0349"/>
</g>
<!-- Node38 -->
<g id="node3" class="node"><title>Node38</title>
<g id="a_node3"><a xlink:href="../../d6/dd2/namespacemom__ocmip2__cfc.html#a736cde8b4a90ef59df1944118262291a" target="_top" xlink:title="mom_ocmip2_cfc::ocmip2\l_cfc_column_physics">
<polygon fill="white" stroke="black" points="127,-0.5 127,-30.5 236,-30.5 236,-0.5 127,-0.5"/>
<text text-anchor="start" x="135" y="-18.5" font-family="Helvetica,sans-Serif" font-size="10.00">mom_ocmip2_cfc::ocmip2</text>
<text text-anchor="middle" x="181.5" y="-7.5" font-family="Helvetica,sans-Serif" font-size="10.00">_cfc_column_physics</text>
</a>
</g>
</g>
<!-- Node36&#45;&gt;Node38 -->
<g id="edge2" class="edge"><title>Node36&#45;&gt;Node38</title>
<path fill="none" stroke="midnightblue" d="M100.954,-31.528C109.47,-29.812 118.266,-28.0396 126.766,-26.327"/>
<polygon fill="midnightblue" stroke="midnightblue" points="100.232,-28.103 91.1201,-33.5094 101.614,-34.9651 100.232,-28.103"/>
</g>
</g>
</svg>
