<?xml version="1.0" encoding="UTF-8" standalone="no"?>
<!DOCTYPE svg PUBLIC "-//W3C//DTD SVG 1.1//EN"
 "http://www.w3.org/Graphics/SVG/1.1/DTD/svg11.dtd">
<!-- Generated by graphviz version 2.38.0 (20140413.2041)
 -->
<!-- Title: mom_opacity::set_opacity Pages: 1 -->
<svg width="523pt" height="176pt"
 viewBox="0.00 0.00 523.00 176.00" xmlns="http://www.w3.org/2000/svg" xmlns:xlink="http://www.w3.org/1999/xlink">
<g id="graph0" class="graph" transform="scale(1 1) rotate(0) translate(4 172)">
<title>mom_opacity::set_opacity</title>
<polygon fill="white" stroke="none" points="-4,4 -4,-172 519,-172 519,4 -4,4"/>
<!-- Node21 -->
<g id="node1" class="node"><title>Node21</title>
<polygon fill="#bfbfbf" stroke="black" points="0,-77 0,-96 108,-96 108,-77 0,-77"/>
<text text-anchor="middle" x="54" y="-84" font-family="Helvetica,sans-Serif" font-size="10.00">mom_opacity::set_opacity</text>
</g>
<!-- Node22 -->
<g id="node2" class="node"><title>Node22</title>
<g id="a_node2"><a xlink:href="../../d1/d99/namespacemom__tracer__flow__control.html#abd2e9269190427ba86fb8a26e6792e66" target="_top" xlink:title="mom_tracer_flow_control\l::get_chl_from_model">
<polygon fill="white" stroke="black" points="145.5,-137.5 145.5,-167.5 252.5,-167.5 252.5,-137.5 145.5,-137.5"/>
<text text-anchor="start" x="153.5" y="-155.5" font-family="Helvetica,sans-Serif" font-size="10.00">mom_tracer_flow_control</text>
<text text-anchor="middle" x="199" y="-144.5" font-family="Helvetica,sans-Serif" font-size="10.00">::get_chl_from_model</text>
</a>
</g>
</g>
<!-- Node21&#45;&gt;Node22 -->
<g id="edge1" class="edge"><title>Node21&#45;&gt;Node22</title>
<path fill="none" stroke="midnightblue" d="M75.7934,-96.097C96.6974,-105.745 129.515,-120.891 155.88,-133.06"/>
<polygon fill="midnightblue" stroke="midnightblue" points="154.722,-136.38 165.268,-137.393 157.655,-130.024 154.722,-136.38"/>
</g>
<!-- Node23 -->
<g id="node3" class="node"><title>Node23</title>
<g id="a_node3"><a xlink:href="../../d0/de6/namespacemom__error__handler.html#a460cfb79a06c29fc249952c2a3710d67" target="_top" xlink:title="mom_error_handler::\lmom_error">
<polygon fill="white" stroke="black" points="291.5,-98.5 291.5,-128.5 384.5,-128.5 384.5,-98.5 291.5,-98.5"/>
<text text-anchor="start" x="299.5" y="-116.5" font-family="Helvetica,sans-Serif" font-size="10.00">mom_error_handler::</text>
<text text-anchor="middle" x="338" y="-105.5" font-family="Helvetica,sans-Serif" font-size="10.00">mom_error</text>
</a>
</g>
</g>
<!-- Node21&#45;&gt;Node23 -->
<g id="edge4" class="edge"><title>Node21&#45;&gt;Node23</title>
<path fill="none" stroke="midnightblue" d="M108.042,-91.5785C157.449,-96.3089 230.845,-103.336 281.139,-108.152"/>
<polygon fill="midnightblue" stroke="midnightblue" points="280.901,-111.645 291.189,-109.114 281.569,-104.677 280.901,-111.645"/>
</g>
<!-- Node25 -->
<g id="node5" class="node"><title>Node25</title>
<g id="a_node5"><a xlink:href="../../d2/db1/namespacemom__opacity.html#aefa20c0a034c6e9dcf598c938d6a78ef" target="_top" xlink:title="mom_opacity::opacity\l_from_chl">
<polygon fill="white" stroke="black" points="152.5,-49.5 152.5,-79.5 245.5,-79.5 245.5,-49.5 152.5,-49.5"/>
<text text-anchor="start" x="160.5" y="-67.5" font-family="Helvetica,sans-Serif" font-size="10.00">mom_opacity::opacity</text>
<text text-anchor="middle" x="199" y="-56.5" font-family="Helvetica,sans-Serif" font-size="10.00">_from_chl</text>
</a>
</g>
</g>
<!-- Node21&#45;&gt;Node25 -->
<g id="edge5" class="edge"><title>Node21&#45;&gt;Node25</title>
<path fill="none" stroke="midnightblue" d="M108.248,-78.308C119.313,-76.6057 131.003,-74.8072 142.158,-73.091"/>
<polygon fill="midnightblue" stroke="midnightblue" points="142.868,-76.5231 152.219,-71.5432 141.803,-69.6045 142.868,-76.5231"/>
</g>
<!-- Node28 -->
<g id="node8" class="node"><title>Node28</title>
<g id="a_node8"><a xlink:href="../../d9/d06/namespacemom__diag__mediator.html#a0be5d1cbc6c6f8f63950ce7d9bc6455a" target="_top" xlink:title="mom_diag_mediator::\lquery_averaging_enabled">
<polygon fill="white" stroke="black" points="144,-0.5 144,-30.5 254,-30.5 254,-0.5 144,-0.5"/>
<text text-anchor="start" x="152" y="-18.5" font-family="Helvetica,sans-Serif" font-size="10.00">mom_diag_mediator::</text>
<text text-anchor="middle" x="199" y="-7.5" font-family="Helvetica,sans-Serif" font-size="10.00">query_averaging_enabled</text>
</a>
</g>
</g>
<!-- Node21&#45;&gt;Node28 -->
<g id="edge9" class="edge"><title>Node21&#45;&gt;Node28</title>
<path fill="none" stroke="midnightblue" d="M72.2173,-76.9633C90.0161,-67.2099 118.693,-51.7884 144,-39.5 147.285,-37.9049 150.7,-36.2895 154.146,-34.6901"/>
<polygon fill="midnightblue" stroke="midnightblue" points="155.631,-37.8597 163.271,-30.5192 152.721,-31.4932 155.631,-37.8597"/>
</g>
<!-- Node22&#45;&gt;Node23 -->
<g id="edge2" class="edge"><title>Node22&#45;&gt;Node23</title>
<path fill="none" stroke="midnightblue" d="M252.576,-137.533C262.097,-134.823 272.052,-131.989 281.649,-129.257"/>
<polygon fill="midnightblue" stroke="midnightblue" points="282.828,-132.56 291.488,-126.456 280.912,-125.828 282.828,-132.56"/>
</g>
<!-- Node24 -->
<g id="node4" class="node"><title>Node24</title>
<g id="a_node4"><a xlink:href="../../d0/de6/namespacemom__error__handler.html#ad5f00a53059c72fe2332d1436c80ca71" target="_top" xlink:title="mom_error_handler::\lis_root_pe">
<polygon fill="white" stroke="black" points="422,-98.5 422,-128.5 515,-128.5 515,-98.5 422,-98.5"/>
<text text-anchor="start" x="430" y="-116.5" font-family="Helvetica,sans-Serif" font-size="10.00">mom_error_handler::</text>
<text text-anchor="middle" x="468.5" y="-105.5" font-family="Helvetica,sans-Serif" font-size="10.00">is_root_pe</text>
</a>
</g>
</g>
<!-- Node23&#45;&gt;Node24 -->
<g id="edge3" class="edge"><title>Node23&#45;&gt;Node24</title>
<path fill="none" stroke="midnightblue" d="M384.666,-113.5C393.471,-113.5 402.786,-113.5 411.867,-113.5"/>
<polygon fill="midnightblue" stroke="midnightblue" points="411.981,-117 421.981,-113.5 411.981,-110 411.981,-117"/>
</g>
<!-- Node25&#45;&gt;Node23 -->
<g id="edge6" class="edge"><title>Node25&#45;&gt;Node23</title>
<path fill="none" stroke="midnightblue" d="M242.222,-79.6014C255.765,-84.4451 270.922,-89.8664 285.076,-94.9285"/>
<polygon fill="midnightblue" stroke="midnightblue" points="284.087,-98.2918 294.681,-98.3641 286.444,-91.7007 284.087,-98.2918"/>
</g>
<!-- Node26 -->
<g id="node6" class="node"><title>Node26</title>
<g id="a_node6"><a xlink:href="../../d2/db1/namespacemom__opacity.html#a4498b4bb6fcf1b7d849f89aa87c0332e" target="_top" xlink:title="mom_opacity::opacity\l_morel">
<polygon fill="white" stroke="black" points="291.5,-49.5 291.5,-79.5 384.5,-79.5 384.5,-49.5 291.5,-49.5"/>
<text text-anchor="start" x="299.5" y="-67.5" font-family="Helvetica,sans-Serif" font-size="10.00">mom_opacity::opacity</text>
<text text-anchor="middle" x="338" y="-56.5" font-family="Helvetica,sans-Serif" font-size="10.00">_morel</text>
</a>
</g>
</g>
<!-- Node25&#45;&gt;Node26 -->
<g id="edge7" class="edge"><title>Node25&#45;&gt;Node26</title>
<path fill="none" stroke="midnightblue" d="M245.619,-64.5C256.937,-64.5 269.197,-64.5 280.951,-64.5"/>
<polygon fill="midnightblue" stroke="midnightblue" points="281.113,-68.0001 291.113,-64.5 281.113,-61.0001 281.113,-68.0001"/>
</g>
<!-- Node27 -->
<g id="node7" class="node"><title>Node27</title>
<g id="a_node7"><a xlink:href="../../d2/db1/namespacemom__opacity.html#a0017241c03e4536115674fc5fc9608bf" target="_top" xlink:title="mom_opacity::sw_pen\l_frac_morel">
<polygon fill="white" stroke="black" points="290,-0.5 290,-30.5 386,-30.5 386,-0.5 290,-0.5"/>
<text text-anchor="start" x="298" y="-18.5" font-family="Helvetica,sans-Serif" font-size="10.00">mom_opacity::sw_pen</text>
<text text-anchor="middle" x="338" y="-7.5" font-family="Helvetica,sans-Serif" font-size="10.00">_frac_morel</text>
</a>
</g>
</g>
<!-- Node25&#45;&gt;Node27 -->
<g id="edge8" class="edge"><title>Node25&#45;&gt;Node27</title>
<path fill="none" stroke="midnightblue" d="M242.222,-49.3986C255.765,-44.5549 270.922,-39.1336 285.076,-34.0715"/>
<polygon fill="midnightblue" stroke="midnightblue" points="286.444,-37.2993 294.681,-30.6359 284.087,-30.7082 286.444,-37.2993"/>
</g>
</g>
</svg>
