<?xml version="1.0" encoding="UTF-8" standalone="no"?>
<!DOCTYPE svg PUBLIC "-//W3C//DTD SVG 1.1//EN"
 "http://www.w3.org/Graphics/SVG/1.1/DTD/svg11.dtd">
<!-- Generated by graphviz version 2.38.0 (20140413.2041)
 -->
<!-- Title: mom_opacity::opacity_from_chl Pages: 1 -->
<svg width="372pt" height="39pt"
 viewBox="0.00 0.00 372.00 39.00" xmlns="http://www.w3.org/2000/svg" xmlns:xlink="http://www.w3.org/1999/xlink">
<g id="graph0" class="graph" transform="scale(1 1) rotate(0) translate(4 35)">
<title>mom_opacity::opacity_from_chl</title>
<polygon fill="white" stroke="none" points="-4,4 -4,-35 368,-35 368,4 -4,4"/>
<!-- Node8 -->
<g id="node1" class="node"><title>Node8</title>
<polygon fill="#bfbfbf" stroke="black" points="0,-0.5 0,-30.5 93,-30.5 93,-0.5 0,-0.5"/>
<text text-anchor="start" x="8" y="-18.5" font-family="Helvetica,sans-Serif" font-size="10.00">mom_opacity::opacity</text>
<text text-anchor="middle" x="46.5" y="-7.5" font-family="Helvetica,sans-Serif" font-size="10.00">_from_chl</text>
</g>
<!-- Node9 -->
<g id="node2" class="node"><title>Node9</title>
<g id="a_node2"><a xlink:href="../../d2/db1/namespacemom__opacity.html#aefadc7465f74c0cab731cf1adf5f3a57" target="_top" xlink:title="mom_opacity::set_opacity">
<polygon fill="white" stroke="black" points="129,-6 129,-25 237,-25 237,-6 129,-6"/>
<text text-anchor="middle" x="183" y="-13" font-family="Helvetica,sans-Serif" font-size="10.00">mom_opacity::set_opacity</text>
</a>
</g>
</g>
<!-- Node8&#45;&gt;Node9 -->
<g id="edge1" class="edge"><title>Node8&#45;&gt;Node9</title>
<path fill="none" stroke="midnightblue" d="M103.147,-15.5C111.568,-15.5 120.24,-15.5 128.613,-15.5"/>
<polygon fill="midnightblue" stroke="midnightblue" points="103.036,-12.0001 93.0356,-15.5 103.036,-19.0001 103.036,-12.0001"/>
</g>
<!-- Node10 -->
<g id="node3" class="node"><title>Node10</title>
<g id="a_node3"><a xlink:href="../../d8/df3/namespacemom__diabatic__driver.html#a61e57d3902367aa46aa3c2d949ee900f" target="_top" xlink:title="This subroutine imposes the diapycnal mass fluxes and the accompanying diapycnal advection of momentu...">
<polygon fill="white" stroke="black" points="273,-0.5 273,-30.5 364,-30.5 364,-0.5 273,-0.5"/>
<text text-anchor="start" x="281" y="-18.5" font-family="Helvetica,sans-Serif" font-size="10.00">mom_diabatic_driver</text>
<text text-anchor="middle" x="318.5" y="-7.5" font-family="Helvetica,sans-Serif" font-size="10.00">::diabatic</text>
</a>
</g>
</g>
<!-- Node9&#45;&gt;Node10 -->
<g id="edge2" class="edge"><title>Node9&#45;&gt;Node10</title>
<path fill="none" stroke="midnightblue" d="M247.191,-15.5C255.808,-15.5 264.504,-15.5 272.703,-15.5"/>
<polygon fill="midnightblue" stroke="midnightblue" points="247.146,-12.0001 237.146,-15.5 247.146,-19.0001 247.146,-12.0001"/>
</g>
</g>
</svg>
