<?xml version="1.0" encoding="UTF-8" standalone="no"?>
<!DOCTYPE svg PUBLIC "-//W3C//DTD SVG 1.1//EN"
 "http://www.w3.org/Graphics/SVG/1.1/DTD/svg11.dtd">
<!-- Generated by graphviz version 2.38.0 (20140413.2041)
 -->
<!-- Title: cvmix_utils::cvmix_update_wrap Pages: 1 -->
<svg width="229pt" height="284pt"
 viewBox="0.00 0.00 229.00 284.00" xmlns="http://www.w3.org/2000/svg" xmlns:xlink="http://www.w3.org/1999/xlink">
<g id="graph0" class="graph" transform="scale(1 1) rotate(0) translate(4 280)">
<title>cvmix_utils::cvmix_update_wrap</title>
<polygon fill="white" stroke="none" points="-4,4 -4,-280 225,-280 225,4 -4,4"/>
<!-- Node6 -->
<g id="node1" class="node"><title>Node6</title>
<polygon fill="#bfbfbf" stroke="black" points="0,-122.5 0,-152.5 78,-152.5 78,-122.5 0,-122.5"/>
<text text-anchor="start" x="8" y="-140.5" font-family="Helvetica,sans-Serif" font-size="10.00">cvmix_utils::cvmix</text>
<text text-anchor="middle" x="39" y="-129.5" font-family="Helvetica,sans-Serif" font-size="10.00">_update_wrap</text>
</g>
<!-- Node7 -->
<g id="node2" class="node"><title>Node7</title>
<g id="a_node2"><a xlink:href="../../d8/dae/namespacecvmix__background.html#a8fefef1fbf56a6acabe5e83443f858a5" target="_top" xlink:title="cvmix_background::cvmix\l_coeffs_bkgnd_wrap">
<polygon fill="white" stroke="black" points="114,-245.5 114,-275.5 221,-275.5 221,-245.5 114,-245.5"/>
<text text-anchor="start" x="122" y="-263.5" font-family="Helvetica,sans-Serif" font-size="10.00">cvmix_background::cvmix</text>
<text text-anchor="middle" x="167.5" y="-252.5" font-family="Helvetica,sans-Serif" font-size="10.00">_coeffs_bkgnd_wrap</text>
</a>
</g>
</g>
<!-- Node6&#45;&gt;Node7 -->
<g id="edge1" class="edge"><title>Node6&#45;&gt;Node7</title>
<path fill="none" stroke="midnightblue" d="M53.1894,-161.501C66.2365,-183.42 87.9882,-215.515 114,-236.5 118.134,-239.835 122.806,-242.818 127.617,-245.451"/>
<polygon fill="midnightblue" stroke="midnightblue" points="56.1854,-159.69 48.1437,-152.792 50.1285,-163.199 56.1854,-159.69"/>
</g>
<!-- Node8 -->
<g id="node3" class="node"><title>Node8</title>
<g id="a_node3"><a xlink:href="../../df/db8/namespacecvmix__convection.html#a12b24b2e6e9baf8c29a505228c5b5e9d" target="_top" xlink:title="cvmix_convection::cvmix\l_coeffs_conv_wrap">
<polygon fill="white" stroke="black" points="116.5,-196.5 116.5,-226.5 218.5,-226.5 218.5,-196.5 116.5,-196.5"/>
<text text-anchor="start" x="124.5" y="-214.5" font-family="Helvetica,sans-Serif" font-size="10.00">cvmix_convection::cvmix</text>
<text text-anchor="middle" x="167.5" y="-203.5" font-family="Helvetica,sans-Serif" font-size="10.00">_coeffs_conv_wrap</text>
</a>
</g>
</g>
<!-- Node6&#45;&gt;Node8 -->
<g id="edge2" class="edge"><title>Node6&#45;&gt;Node8</title>
<path fill="none" stroke="midnightblue" d="M68.8107,-158.593C82.2196,-167.982 98.5834,-178.846 114,-187.5 119.506,-190.59 125.481,-193.613 131.361,-196.415"/>
<polygon fill="midnightblue" stroke="midnightblue" points="70.6472,-155.605 60.4656,-152.675 66.5976,-161.315 70.6472,-155.605"/>
</g>
<!-- Node9 -->
<g id="node4" class="node"><title>Node9</title>
<g id="a_node4"><a xlink:href="../../da/db5/namespacecvmix__ddiff.html#a62e2a08d96bcf39dc407a9e61e52733a" target="_top" xlink:title="cvmix_ddiff::cvmix\l_coeffs_ddiff_wrap">
<polygon fill="white" stroke="black" points="125.5,-147.5 125.5,-177.5 209.5,-177.5 209.5,-147.5 125.5,-147.5"/>
<text text-anchor="start" x="133.5" y="-165.5" font-family="Helvetica,sans-Serif" font-size="10.00">cvmix_ddiff::cvmix</text>
<text text-anchor="middle" x="167.5" y="-154.5" font-family="Helvetica,sans-Serif" font-size="10.00">_coeffs_ddiff_wrap</text>
</a>
</g>
</g>
<!-- Node6&#45;&gt;Node9 -->
<g id="edge3" class="edge"><title>Node6&#45;&gt;Node9</title>
<path fill="none" stroke="midnightblue" d="M88.303,-147.046C100.485,-149.454 113.452,-152.016 125.251,-154.348"/>
<polygon fill="midnightblue" stroke="midnightblue" points="88.7863,-143.574 78.2975,-145.069 87.4291,-150.441 88.7863,-143.574"/>
</g>
<!-- Node10 -->
<g id="node5" class="node"><title>Node10</title>
<g id="a_node5"><a xlink:href="../../d1/d6c/namespacecvmix__kpp.html#accf3e38855afd4b848485e93b30bdd17" target="_top" xlink:title="cvmix_kpp::cvmix_coeffs\l_kpp_wrap">
<polygon fill="white" stroke="black" points="116,-98.5 116,-128.5 219,-128.5 219,-98.5 116,-98.5"/>
<text text-anchor="start" x="124" y="-116.5" font-family="Helvetica,sans-Serif" font-size="10.00">cvmix_kpp::cvmix_coeffs</text>
<text text-anchor="middle" x="167.5" y="-105.5" font-family="Helvetica,sans-Serif" font-size="10.00">_kpp_wrap</text>
</a>
</g>
</g>
<!-- Node6&#45;&gt;Node10 -->
<g id="edge4" class="edge"><title>Node6&#45;&gt;Node10</title>
<path fill="none" stroke="midnightblue" d="M88.2278,-128.35C97.2222,-126.644 106.647,-124.856 115.715,-123.135"/>
<polygon fill="midnightblue" stroke="midnightblue" points="87.4698,-124.931 78.2975,-130.234 88.7746,-131.809 87.4698,-124.931"/>
</g>
<!-- Node11 -->
<g id="node6" class="node"><title>Node11</title>
<g id="a_node6"><a xlink:href="../../dd/d7e/namespacecvmix__shear.html#a84bf8feda44810cc66fe7cc9f9638fce" target="_top" xlink:title="cvmix_shear::cvmix\l_coeffs_shear_wrap">
<polygon fill="white" stroke="black" points="123,-49.5 123,-79.5 212,-79.5 212,-49.5 123,-49.5"/>
<text text-anchor="start" x="131" y="-67.5" font-family="Helvetica,sans-Serif" font-size="10.00">cvmix_shear::cvmix</text>
<text text-anchor="middle" x="167.5" y="-56.5" font-family="Helvetica,sans-Serif" font-size="10.00">_coeffs_shear_wrap</text>
</a>
</g>
</g>
<!-- Node6&#45;&gt;Node11 -->
<g id="edge5" class="edge"><title>Node6&#45;&gt;Node11</title>
<path fill="none" stroke="midnightblue" d="M70.2285,-116.613C83.4252,-107.832 99.2315,-97.7594 114,-89.5 120.08,-86.1 126.696,-82.7166 133.118,-79.5879"/>
<polygon fill="midnightblue" stroke="midnightblue" points="67.8981,-113.962 61.5541,-122.448 71.8051,-119.771 67.8981,-113.962"/>
</g>
<!-- Node12 -->
<g id="node7" class="node"><title>Node12</title>
<g id="a_node7"><a xlink:href="../../d4/d77/namespacecvmix__tidal.html#a966dbe03174f97c8b1320c39ea81d15e" target="_top" xlink:title="cvmix_tidal::cvmix\l_coeffs_tidal_wrap">
<polygon fill="white" stroke="black" points="126,-0.5 126,-30.5 209,-30.5 209,-0.5 126,-0.5"/>
<text text-anchor="start" x="134" y="-18.5" font-family="Helvetica,sans-Serif" font-size="10.00">cvmix_tidal::cvmix</text>
<text text-anchor="middle" x="167.5" y="-7.5" font-family="Helvetica,sans-Serif" font-size="10.00">_coeffs_tidal_wrap</text>
</a>
</g>
</g>
<!-- Node6&#45;&gt;Node12 -->
<g id="edge6" class="edge"><title>Node6&#45;&gt;Node12</title>
<path fill="none" stroke="midnightblue" d="M53.7719,-113.44C66.9865,-92.0559 88.6422,-61.0798 114,-40.5 118.546,-36.8103 123.728,-33.5092 129.022,-30.61"/>
<polygon fill="midnightblue" stroke="midnightblue" points="50.6342,-111.866 48.4752,-122.239 56.6314,-115.476 50.6342,-111.866"/>
</g>
</g>
</svg>
