<?xml version="1.0" encoding="UTF-8" standalone="no"?>
<!DOCTYPE svg PUBLIC "-//W3C//DTD SVG 1.1//EN"
 "http://www.w3.org/Graphics/SVG/1.1/DTD/svg11.dtd">
<!-- Generated by graphviz version 2.38.0 (20140413.2041)
 -->
<!-- Title: mom_continuity_ppm::continuity_ppm_cs Pages: 1 -->
<svg width="222pt" height="183pt"
 viewBox="0.00 0.00 222.00 183.00" xmlns="http://www.w3.org/2000/svg" xmlns:xlink="http://www.w3.org/1999/xlink">
<g id="graph0" class="graph" transform="scale(1 1) rotate(0) translate(4 179)">
<title>mom_continuity_ppm::continuity_ppm_cs</title>
<polygon fill="white" stroke="none" points="-4,4 -4,-179 218,-179 218,4 -4,4"/>
<!-- Node1 -->
<g id="node1" class="node"><title>Node1</title>
<polygon fill="#bfbfbf" stroke="black" points="65,-0.5 65,-30.5 157,-30.5 157,-0.5 65,-0.5"/>
<text text-anchor="start" x="73" y="-18.5" font-family="Helvetica,sans-Serif" font-size="10.00">mom_continuity_ppm</text>
<text text-anchor="middle" x="111" y="-7.5" font-family="Helvetica,sans-Serif" font-size="10.00">::continuity_ppm_cs</text>
</g>
<!-- Node2 -->
<g id="node2" class="node"><title>Node2</title>
<polygon fill="white" stroke="#bfbfbf" points="0,-155.5 0,-174.5 38,-174.5 38,-155.5 0,-155.5"/>
<text text-anchor="middle" x="19" y="-162.5" font-family="Helvetica,sans-Serif" font-size="10.00">logical</text>
</g>
<!-- Node2&#45;&gt;Node1 -->
<g id="edge1" class="edge"><title>Node2&#45;&gt;Node1</title>
<path fill="none" stroke="#9a32cd" stroke-dasharray="5,2" d="M17.0066,-145.267C15.4173,-120.595 16.3179,-77.0622 38,-49 44.8704,-40.108 54.7014,-33.5892 64.9316,-28.8322"/>
<polygon fill="#9a32cd" stroke="#9a32cd" points="13.5366,-145.768 17.8764,-155.433 20.5111,-145.171 13.5366,-145.768"/>
<text text-anchor="middle" x="72.5" y="-129" font-family="Helvetica,sans-Serif" font-size="10.00"> aggress_adjust</text>
<text text-anchor="middle" x="72.5" y="-118" font-family="Helvetica,sans-Serif" font-size="10.00">monotonic</text>
<text text-anchor="middle" x="72.5" y="-107" font-family="Helvetica,sans-Serif" font-size="10.00">simple_2nd</text>
<text text-anchor="middle" x="72.5" y="-96" font-family="Helvetica,sans-Serif" font-size="10.00">better_iter</text>
<text text-anchor="middle" x="72.5" y="-85" font-family="Helvetica,sans-Serif" font-size="10.00">upwind_1st</text>
<text text-anchor="middle" x="72.5" y="-74" font-family="Helvetica,sans-Serif" font-size="10.00">marginal_faces</text>
<text text-anchor="middle" x="72.5" y="-63" font-family="Helvetica,sans-Serif" font-size="10.00">vol_cfl</text>
<text text-anchor="middle" x="72.5" y="-52" font-family="Helvetica,sans-Serif" font-size="10.00">use_visc_rem_max</text>
</g>
<!-- Node3 -->
<g id="node3" class="node"><title>Node3</title>
<polygon fill="white" stroke="#bfbfbf" points="87.5,-155.5 87.5,-174.5 134.5,-174.5 134.5,-155.5 87.5,-155.5"/>
<text text-anchor="middle" x="111" y="-162.5" font-family="Helvetica,sans-Serif" font-size="10.00">diag_ctrl</text>
</g>
<!-- Node3&#45;&gt;Node1 -->
<g id="edge2" class="edge"><title>Node3&#45;&gt;Node1</title>
<path fill="none" stroke="#9a32cd" stroke-dasharray="5,2" d="M111,-144.863C111,-114.894 111,-57.5609 111,-30.8526"/>
<polygon fill="#9a32cd" stroke="#9a32cd" points="107.5,-145.215 111,-155.215 114.5,-145.215 107.5,-145.215"/>
<text text-anchor="middle" x="120" y="-90.5" font-family="Helvetica,sans-Serif" font-size="10.00"> diag</text>
</g>
<!-- Node4 -->
<g id="node4" class="node"><title>Node4</title>
<polygon fill="white" stroke="#bfbfbf" points="153,-155.5 153,-174.5 183,-174.5 183,-155.5 153,-155.5"/>
<text text-anchor="middle" x="168" y="-162.5" font-family="Helvetica,sans-Serif" font-size="10.00">real</text>
</g>
<!-- Node4&#45;&gt;Node1 -->
<g id="edge3" class="edge"><title>Node4&#45;&gt;Node1</title>
<path fill="none" stroke="#9a32cd" stroke-dasharray="5,2" d="M164.15,-145.394C158.93,-122.113 148.449,-81.3722 133,-49 129.948,-42.6048 125.745,-36.0419 121.83,-30.5031"/>
<polygon fill="#9a32cd" stroke="#9a32cd" points="160.758,-146.27 166.289,-155.306 167.601,-144.793 160.758,-146.27"/>
<text text-anchor="middle" x="188" y="-107" font-family="Helvetica,sans-Serif" font-size="10.00"> tol_eta_aux</text>
<text text-anchor="middle" x="188" y="-96" font-family="Helvetica,sans-Serif" font-size="10.00">tol_eta</text>
<text text-anchor="middle" x="188" y="-85" font-family="Helvetica,sans-Serif" font-size="10.00">cfl_limit_adjust</text>
<text text-anchor="middle" x="188" y="-74" font-family="Helvetica,sans-Serif" font-size="10.00">tol_vel</text>
</g>
</g>
</svg>
