<?xml version="1.0" encoding="UTF-8" standalone="no"?>
<!DOCTYPE svg PUBLIC "-//W3C//DTD SVG 1.1//EN"
 "http://www.w3.org/Graphics/SVG/1.1/DTD/svg11.dtd">
<!-- Generated by graphviz version 2.38.0 (20140413.2041)
 -->
<!-- Title: mom_sum_output::sum_output_cs Pages: 1 -->
<!--zoomable 600 -->
<svg id="main" version="1.1" xmlns="http://www.w3.org/2000/svg" xmlns:xlink="http://www.w3.org/1999/xlink" xml:space="preserve" onload="init(evt)">
<style type="text/css"><![CDATA[
.edge:hover path { stroke: red; }
.edge:hover polygon { stroke: red; fill: red; }
]]></style>
<script type="text/javascript"><![CDATA[
var edges = document.getElementsByTagName('g');
if (edges && edges.length) {
  for (var i=0;i<edges.length;i++) {
    if (edges[i].id.substr(0,4)=='edge') {
      edges[i].setAttribute('class','edge');
    }
  }
}
]]></script>
        <defs>
                <circle id="rim" cx="0" cy="0" r="7"/>
                <circle id="rim2" cx="0" cy="0" r="3.5"/>
                <g id="zoomPlus">
                        <use xlink:href="#rim" fill="#404040">
                                <set attributeName="fill" to="#808080" begin="zoomplus.mouseover" end="zoomplus.mouseout"/>
                        </use>
                        <path d="M-4,0h8M0,-4v8" fill="none" stroke="white" stroke-width="1.5" pointer-events="none"/>
                </g>
                <g id="zoomMin">
                        <use xlink:href="#rim" fill="#404040">
                                <set attributeName="fill" to="#808080" begin="zoomminus.mouseover" end="zoomminus.mouseout"/>
                        </use>
                        <path d="M-4,0h8" fill="none" stroke="white" stroke-width="1.5" pointer-events="none"/>
                </g>
                <g id="dirArrow">
                        <path fill="none" stroke="white" stroke-width="1.5" d="M0,-3.0v7 M-2.5,-0.5L0,-3.0L2.5,-0.5"/>
                </g>
               <g id="resetDef">
                       <use xlink:href="#rim2" fill="#404040">
                               <set attributeName="fill" to="#808080" begin="reset.mouseover" end="reset.mouseout"/>
                       </use>
               </g>
        </defs>

<script type="text/javascript">
var viewWidth = 445;
var viewHeight = 600;
var sectionId = 'dynsection-0';
</script>
<script xlink:href="../../svgpan.js"/>
<svg id="graph" class="graph">
<g id="viewport">
<title>mom_sum_output::sum_output_cs</title>
<polygon fill="white" stroke="none" points="-4,4 -4,-595.729 441,-595.729 441,4 -4,4"/>
<!-- Node1 -->
<g id="node1" class="node"><title>Node1</title>
<polygon fill="#bfbfbf" stroke="black" points="336,-315.729 336,-345.729 437,-345.729 437,-315.729 336,-315.729"/>
<text text-anchor="start" x="344" y="-333.729" font-family="Helvetica,sans-Serif" font-size="10.00">mom_sum_output::sum</text>
<text text-anchor="middle" x="386.5" y="-322.729" font-family="Helvetica,sans-Serif" font-size="10.00">_output_cs</text>
</g>
<!-- Node2 -->
<g id="node2" class="node"><title>Node2</title>
<polygon fill="white" stroke="#bfbfbf" points="142.5,-514.229 142.5,-533.229 180.5,-533.229 180.5,-514.229 142.5,-514.229"/>
<text text-anchor="middle" x="161.5" y="-521.229" font-family="Helvetica,sans-Serif" font-size="10.00">logical</text>
</g>
<!-- Node2&#45;&gt;Node1 -->
<g id="edge1" class="edge"><title>Node2&#45;&gt;Node1</title>
<path fill="none" stroke="#9a32cd" stroke-dasharray="5,2" d="M190.736,-526.962C224.665,-529.257 281.567,-527.836 318,-498.729 366.993,-459.588 380.619,-379.425 384.247,-345.947"/>
<polygon fill="#9a32cd" stroke="#9a32cd" points="190.838,-523.459 180.582,-526.117 190.257,-530.435 190.838,-523.459"/>
<text text-anchor="middle" x="278.5" y="-583.729" font-family="Helvetica,sans-Serif" font-size="10.00"> use_repro_sum</text>
<text text-anchor="middle" x="278.5" y="-572.729" font-family="Helvetica,sans-Serif" font-size="10.00">use_temperature</text>
<text text-anchor="middle" x="278.5" y="-561.729" font-family="Helvetica,sans-Serif" font-size="10.00">do_ape_calc</text>
<text text-anchor="middle" x="278.5" y="-550.729" font-family="Helvetica,sans-Serif" font-size="10.00">read_depth_list</text>
<text text-anchor="middle" x="278.5" y="-539.729" font-family="Helvetica,sans-Serif" font-size="10.00">write_stocks</text>
<text text-anchor="middle" x="278.5" y="-528.729" font-family="Helvetica,sans-Serif" font-size="10.00">date_stamped_output</text>
</g>
<!-- Node3 -->
<g id="node3" class="node"><title>Node3</title>
<polygon fill="white" stroke="#bfbfbf" points="127.5,-426.229 127.5,-445.229 195.5,-445.229 195.5,-426.229 127.5,-426.229"/>
<text text-anchor="middle" x="161.5" y="-433.229" font-family="Helvetica,sans-Serif" font-size="10.00">type(efp_type)</text>
</g>
<!-- Node3&#45;&gt;Node1 -->
<g id="edge2" class="edge"><title>Node3&#45;&gt;Node1</title>
<path fill="none" stroke="#9a32cd" stroke-dasharray="5,2" d="M205.951,-433.909C238.601,-430.913 283.452,-423.224 318,-403.729 343.105,-389.563 364.181,-362.814 375.8,-345.927"/>
<polygon fill="#9a32cd" stroke="#9a32cd" points="205.494,-430.434 195.808,-434.726 206.056,-437.412 205.494,-430.434"/>
<text text-anchor="middle" x="278.5" y="-486.729" font-family="Helvetica,sans-Serif" font-size="10.00"> net_heat_in_efp</text>
<text text-anchor="middle" x="278.5" y="-475.729" font-family="Helvetica,sans-Serif" font-size="10.00">heat_prev_efp</text>
<text text-anchor="middle" x="278.5" y="-464.729" font-family="Helvetica,sans-Serif" font-size="10.00">salt_prev_efp</text>
<text text-anchor="middle" x="278.5" y="-453.729" font-family="Helvetica,sans-Serif" font-size="10.00">net_salt_in_efp</text>
<text text-anchor="middle" x="278.5" y="-442.729" font-family="Helvetica,sans-Serif" font-size="10.00">mass_prev_efp</text>
<text text-anchor="middle" x="278.5" y="-431.729" font-family="Helvetica,sans-Serif" font-size="10.00">fresh_water_in_efp</text>
</g>
<!-- Node4 -->
<g id="node4" class="node"><title>Node4</title>
<polygon fill="white" stroke="#bfbfbf" points="138.5,-388.229 138.5,-407.229 184.5,-407.229 184.5,-388.229 138.5,-388.229"/>
<text text-anchor="middle" x="161.5" y="-395.229" font-family="Helvetica,sans-Serif" font-size="10.00">fieldtype</text>
</g>
<!-- Node4&#45;&gt;Node1 -->
<g id="edge3" class="edge"><title>Node4&#45;&gt;Node1</title>
<path fill="none" stroke="#9a32cd" stroke-dasharray="5,2" d="M194.667,-395.559C226.742,-392.612 277.005,-385.854 318,-370.729 334.614,-364.6 351.761,-354.381 364.615,-345.806"/>
<polygon fill="#9a32cd" stroke="#9a32cd" points="194.194,-392.086 184.526,-396.419 194.786,-399.061 194.194,-392.086"/>
<text text-anchor="middle" x="278.5" y="-391.729" font-family="Helvetica,sans-Serif" font-size="10.00"> fields</text>
</g>
<!-- Node5 -->
<g id="node5" class="node"><title>Node5</title>
<polygon fill="white" stroke="#bfbfbf" points="136,-344.229 136,-363.229 187,-363.229 187,-344.229 136,-344.229"/>
<text text-anchor="middle" x="161.5" y="-351.229" font-family="Helvetica,sans-Serif" font-size="10.00">time_type</text>
</g>
<!-- Node5&#45;&gt;Node1 -->
<g id="edge4" class="edge"><title>Node5&#45;&gt;Node1</title>
<path fill="none" stroke="#9a32cd" stroke-dasharray="5,2" d="M197.56,-350.113C234.778,-346.275 293.903,-340.177 335.89,-335.846"/>
<polygon fill="#9a32cd" stroke="#9a32cd" points="196.805,-346.673 187.217,-351.18 197.523,-353.636 196.805,-346.673"/>
<text text-anchor="middle" x="278.5" y="-358.729" font-family="Helvetica,sans-Serif" font-size="10.00"> start_time</text>
<text text-anchor="middle" x="278.5" y="-347.729" font-family="Helvetica,sans-Serif" font-size="10.00">huge_time</text>
</g>
<!-- Node6 -->
<g id="node6" class="node"><title>Node6</title>
<polygon fill="white" stroke="#bfbfbf" points="119,-306.229 119,-325.229 204,-325.229 204,-306.229 119,-306.229"/>
<text text-anchor="middle" x="161.5" y="-313.229" font-family="Helvetica,sans-Serif" font-size="10.00">character(len=200)</text>
</g>
<!-- Node6&#45;&gt;Node1 -->
<g id="edge5" class="edge"><title>Node6&#45;&gt;Node1</title>
<path fill="none" stroke="#9a32cd" stroke-dasharray="5,2" d="M214.27,-308.864C244.647,-306.045 283.684,-304.515 318,-309.729 326.493,-311.02 335.389,-313.175 343.831,-315.625"/>
<polygon fill="#9a32cd" stroke="#9a32cd" points="213.921,-305.382 204.32,-309.862 214.619,-312.347 213.921,-305.382"/>
<text text-anchor="middle" x="278.5" y="-323.729" font-family="Helvetica,sans-Serif" font-size="10.00"> energyfile</text>
<text text-anchor="middle" x="278.5" y="-312.729" font-family="Helvetica,sans-Serif" font-size="10.00">depth_list_file</text>
</g>
<!-- Node7 -->
<g id="node7" class="node"><title>Node7</title>
<g id="a_node7"><a xlink:href="../../d7/d71/structmom__sum__output_1_1depth__list.html" target="_top" xlink:title="mom_sum_output::depth_list">
<polygon fill="white" stroke="black" points="102,-99.2294 102,-118.229 221,-118.229 221,-99.2294 102,-99.2294"/>
<text text-anchor="middle" x="161.5" y="-106.229" font-family="Helvetica,sans-Serif" font-size="10.00">mom_sum_output::depth_list</text>
</a>
</g>
</g>
<!-- Node7&#45;&gt;Node1 -->
<g id="edge6" class="edge"><title>Node7&#45;&gt;Node1</title>
<path fill="none" stroke="#9a32cd" stroke-dasharray="5,2" d="M231.421,-111.465C266.6,-114.211 304.731,-119.712 318,-130.729 375.659,-178.602 384.272,-277.616 385.404,-315.516"/>
<polygon fill="#9a32cd" stroke="#9a32cd" points="231.34,-107.951 221.116,-110.73 230.842,-114.933 231.34,-107.951"/>
<text text-anchor="middle" x="278.5" y="-133.729" font-family="Helvetica,sans-Serif" font-size="10.00"> dl</text>
</g>
<!-- Node8 -->
<g id="node8" class="node"><title>Node8</title>
<polygon fill="white" stroke="#bfbfbf" points="0,-122.229 0,-141.229 30,-141.229 30,-122.229 0,-122.229"/>
<text text-anchor="middle" x="15" y="-129.229" font-family="Helvetica,sans-Serif" font-size="10.00">real</text>
</g>
<!-- Node8&#45;&gt;Node1 -->
<g id="edge8" class="edge"><title>Node8&#45;&gt;Node1</title>
<path fill="none" stroke="#9a32cd" stroke-dasharray="5,2" d="M39.7972,-139.655C42.5451,-140.425 45.3217,-141.137 48,-141.729 123.737,-158.469 151.534,-130.221 221,-164.729 293.673,-200.831 353.197,-281.842 375.762,-315.557"/>
<polygon fill="#9a32cd" stroke="#9a32cd" points="40.7817,-136.297 30.196,-136.737 38.7462,-142.994 40.7817,-136.297"/>
<text text-anchor="middle" x="161.5" y="-288.729" font-family="Helvetica,sans-Serif" font-size="10.00"> salt_prev</text>
<text text-anchor="middle" x="161.5" y="-277.729" font-family="Helvetica,sans-Serif" font-size="10.00">mass_prev</text>
<text text-anchor="middle" x="161.5" y="-266.729" font-family="Helvetica,sans-Serif" font-size="10.00">net_salt_input</text>
<text text-anchor="middle" x="161.5" y="-255.729" font-family="Helvetica,sans-Serif" font-size="10.00">net_heat_input</text>
<text text-anchor="middle" x="161.5" y="-244.729" font-family="Helvetica,sans-Serif" font-size="10.00">max_energy</text>
<text text-anchor="middle" x="161.5" y="-233.729" font-family="Helvetica,sans-Serif" font-size="10.00">heat_prev</text>
<text text-anchor="middle" x="161.5" y="-222.729" font-family="Helvetica,sans-Serif" font-size="10.00">timeunit</text>
<text text-anchor="start" x="134.5" y="-211.729" font-family="Helvetica,sans-Serif" font-size="10.00">fresh_water</text>
<text text-anchor="middle" x="161.5" y="-200.729" font-family="Helvetica,sans-Serif" font-size="10.00">_input</text>
<text text-anchor="middle" x="161.5" y="-189.729" font-family="Helvetica,sans-Serif" font-size="10.00">d_list_min_inc</text>
<text text-anchor="middle" x="161.5" y="-178.729" font-family="Helvetica,sans-Serif" font-size="10.00">dt</text>
<text text-anchor="middle" x="161.5" y="-167.729" font-family="Helvetica,sans-Serif" font-size="10.00">...</text>
</g>
<!-- Node8&#45;&gt;Node7 -->
<g id="edge7" class="edge"><title>Node8&#45;&gt;Node7</title>
<path fill="none" stroke="#9a32cd" stroke-dasharray="5,2" d="M34.0772,-115.832C38.3707,-112.915 43.128,-110.299 48,-108.729 65.0105,-103.25 84.2331,-101.688 101.913,-101.943"/>
<polygon fill="#9a32cd" stroke="#9a32cd" points="31.8333,-113.142 26.0271,-122.004 36.0926,-118.697 31.8333,-113.142"/>
<text text-anchor="middle" x="66" y="-133.729" font-family="Helvetica,sans-Serif" font-size="10.00"> area</text>
<text text-anchor="middle" x="66" y="-122.729" font-family="Helvetica,sans-Serif" font-size="10.00">depth</text>
<text text-anchor="middle" x="66" y="-111.729" font-family="Helvetica,sans-Serif" font-size="10.00">vol_below</text>
</g>
<!-- Node9 -->
<g id="node9" class="node"><title>Node9</title>
<polygon fill="white" stroke="#bfbfbf" points="141,-9.2294 141,-28.2294 182,-28.2294 182,-9.2294 141,-9.2294"/>
<text text-anchor="middle" x="161.5" y="-16.2294" font-family="Helvetica,sans-Serif" font-size="10.00">integer</text>
</g>
<!-- Node9&#45;&gt;Node1 -->
<g id="edge9" class="edge"><title>Node9&#45;&gt;Node1</title>
<path fill="none" stroke="#9a32cd" stroke-dasharray="5,2" d="M191.887,-9.03835C226.143,0.246326 282.57,9.02403 318,-19.7294 364.976,-57.853 380.977,-258.348 384.621,-315.507"/>
<polygon fill="#9a32cd" stroke="#9a32cd" points="190.648,-5.7531 182.016,-11.8951 192.594,-12.4772 190.648,-5.7531"/>
<text text-anchor="middle" x="278.5" y="-99.7294" font-family="Helvetica,sans-Serif" font-size="10.00"> prev_n</text>
<text text-anchor="middle" x="278.5" y="-88.7294" font-family="Helvetica,sans-Serif" font-size="10.00">list_size</text>
<text text-anchor="middle" x="278.5" y="-77.7294" font-family="Helvetica,sans-Serif" font-size="10.00">previous_calls</text>
<text text-anchor="middle" x="278.5" y="-66.7294" font-family="Helvetica,sans-Serif" font-size="10.00">maxtrunc</text>
<text text-anchor="middle" x="278.5" y="-55.7294" font-family="Helvetica,sans-Serif" font-size="10.00">fileenergy_ascii</text>
<text text-anchor="middle" x="278.5" y="-44.7294" font-family="Helvetica,sans-Serif" font-size="10.00">fileenergy_nc</text>
<text text-anchor="middle" x="278.5" y="-33.7294" font-family="Helvetica,sans-Serif" font-size="10.00">lh</text>
<text text-anchor="middle" x="278.5" y="-22.7294" font-family="Helvetica,sans-Serif" font-size="10.00">ntrunc</text>
</g>
</g>
</svg>
        <g id="navigator" transform="translate(0 0)" fill="#404254">
                <rect fill="#f2f5e9" fill-opacity="0.5" stroke="#606060" stroke-width=".5" x="0" y="0" width="60" height="60"/>
                <use id="zoomplus" xlink:href="#zoomPlus" x="17" y="9" onmousedown="handleZoom(evt,'in')"/>
                <use id="zoomminus" xlink:href="#zoomMin" x="42" y="9" onmousedown="handleZoom(evt,'out')"/>
                <use id="reset" xlink:href="#resetDef" x="30" y="36" onmousedown="handleReset()"/>
                <g id="arrowUp" xlink:href="#dirArrow" transform="translate(30 24)" onmousedown="handlePan(0,-1)">
                  <use xlink:href="#rim" fill="#404040">
                        <set attributeName="fill" to="#808080" begin="arrowUp.mouseover" end="arrowUp.mouseout"/>
                  </use>
                  <path fill="none" stroke="white" stroke-width="1.5" d="M0,-3.0v7 M-2.5,-0.5L0,-3.0L2.5,-0.5"/>
                </g>
                <g id="arrowRight" xlink:href="#dirArrow" transform="rotate(90) translate(36 -43)" onmousedown="handlePan(1,0)">
                  <use xlink:href="#rim" fill="#404040">
                        <set attributeName="fill" to="#808080" begin="arrowRight.mouseover" end="arrowRight.mouseout"/>
                  </use>
                  <path fill="none" stroke="white" stroke-width="1.5" d="M0,-3.0v7 M-2.5,-0.5L0,-3.0L2.5,-0.5"/>
                </g>
                <g id="arrowDown" xlink:href="#dirArrow" transform="rotate(180) translate(-30 -48)" onmousedown="handlePan(0,1)">
                  <use xlink:href="#rim" fill="#404040">
                        <set attributeName="fill" to="#808080" begin="arrowDown.mouseover" end="arrowDown.mouseout"/>
                  </use>
                  <path fill="none" stroke="white" stroke-width="1.5" d="M0,-3.0v7 M-2.5,-0.5L0,-3.0L2.5,-0.5"/>
                </g>
                <g id="arrowLeft" xlink:href="#dirArrow" transform="rotate(270) translate(-36 17)" onmousedown="handlePan(-1,0)">
                  <use xlink:href="#rim" fill="#404040">
                        <set attributeName="fill" to="#808080" begin="arrowLeft.mouseover" end="arrowLeft.mouseout"/>
                  </use>
                  <path fill="none" stroke="white" stroke-width="1.5" d="M0,-3.0v7 M-2.5,-0.5L0,-3.0L2.5,-0.5"/>
                </g>
        </g>
        <svg viewBox="0 0 15 15" width="100%" height="30px" preserveAspectRatio="xMaxYMin meet">
         <g id="arrow_out" transform="scale(0.3 0.3)">
          <a xlink:href="structmom__sum__output_1_1sum__output__cs__coll__graph_org.svg" target="_base">
           <rect id="button" ry="5" rx="5" y="6" x="6" height="38" width="38"
                fill="#f2f5e9" fill-opacity="0.5" stroke="#606060" stroke-width="1.0"/>
           <path id="arrow"
             d="M 11.500037,31.436501 C 11.940474,20.09759 22.043105,11.32322 32.158766,21.979434 L 37.068811,17.246167 C 37.068811,17.246167 37.088388,32 37.088388,32 L 22.160133,31.978069 C 22.160133,31.978069 26.997745,27.140456 26.997745,27.140456 C 18.528582,18.264221 13.291696,25.230495 11.500037,31.436501 z"
             style="fill:#404040;"/>
          </a>
         </g>
        </svg>
</svg>
