<?xml version="1.0" encoding="UTF-8" standalone="no"?>
<!DOCTYPE svg PUBLIC "-//W3C//DTD SVG 1.1//EN"
 "http://www.w3.org/Graphics/SVG/1.1/DTD/svg11.dtd">
<!-- Generated by graphviz version 2.38.0 (20140413.2041)
 -->
<!-- Title: mom_io::query_vardesc Pages: 1 -->
<!--zoomable 882 -->
<svg id="main" version="1.1" xmlns="http://www.w3.org/2000/svg" xmlns:xlink="http://www.w3.org/1999/xlink" xml:space="preserve" onload="init(evt)">
<style type="text/css"><![CDATA[
.edge:hover path { stroke: red; }
.edge:hover polygon { stroke: red; fill: red; }
]]></style>
<script type="text/javascript"><![CDATA[
var edges = document.getElementsByTagName('g');
if (edges && edges.length) {
  for (var i=0;i<edges.length;i++) {
    if (edges[i].id.substr(0,4)=='edge') {
      edges[i].setAttribute('class','edge');
    }
  }
}
]]></script>
        <defs>
                <circle id="rim" cx="0" cy="0" r="7"/>
                <circle id="rim2" cx="0" cy="0" r="3.5"/>
                <g id="zoomPlus">
                        <use xlink:href="#rim" fill="#404040">
                                <set attributeName="fill" to="#808080" begin="zoomplus.mouseover" end="zoomplus.mouseout"/>
                        </use>
                        <path d="M-4,0h8M0,-4v8" fill="none" stroke="white" stroke-width="1.5" pointer-events="none"/>
                </g>
                <g id="zoomMin">
                        <use xlink:href="#rim" fill="#404040">
                                <set attributeName="fill" to="#808080" begin="zoomminus.mouseover" end="zoomminus.mouseout"/>
                        </use>
                        <path d="M-4,0h8" fill="none" stroke="white" stroke-width="1.5" pointer-events="none"/>
                </g>
                <g id="dirArrow">
                        <path fill="none" stroke="white" stroke-width="1.5" d="M0,-3.0v7 M-2.5,-0.5L0,-3.0L2.5,-0.5"/>
                </g>
               <g id="resetDef">
                       <use xlink:href="#rim2" fill="#404040">
                               <set attributeName="fill" to="#808080" begin="reset.mouseover" end="reset.mouseout"/>
                       </use>
               </g>
        </defs>

<script type="text/javascript">
var viewWidth = 630;
var viewHeight = 882;
var sectionId = 'dynsection-9';
</script>
<script xlink:href="../../svgpan.js"/>
<svg id="graph" class="graph">
<g id="viewport">
<title>mom_io::query_vardesc</title>
<polygon fill="white" stroke="none" points="-4,4 -4,-878 626,-878 626,4 -4,4"/>
<!-- Node64 -->
<g id="node1" class="node"><title>Node64</title>
<polygon fill="#bfbfbf" stroke="black" points="0,-415 0,-434 102,-434 102,-415 0,-415"/>
<text text-anchor="middle" x="51" y="-422" font-family="Helvetica,sans-Serif" font-size="10.00">mom_io::query_vardesc</text>
</g>
<!-- Node65 -->
<g id="node2" class="node"><title>Node65</title>
<g id="a_node2"><a xlink:href="../../d6/dcd/namespaceideal__age__example.html#a2300d82e30802a3127f4a63277d37776" target="_top" xlink:title="ideal_age_example::\lideal_age_stock">
<polygon fill="white" stroke="black" points="148,-843.5 148,-873.5 238,-873.5 238,-843.5 148,-843.5"/>
<text text-anchor="start" x="156" y="-861.5" font-family="Helvetica,sans-Serif" font-size="10.00">ideal_age_example::</text>
<text text-anchor="middle" x="193" y="-850.5" font-family="Helvetica,sans-Serif" font-size="10.00">ideal_age_stock</text>
</a>
</g>
</g>
<!-- Node64&#45;&gt;Node65 -->
<g id="edge1" class="edge"><title>Node64&#45;&gt;Node65</title>
<path fill="none" stroke="midnightblue" d="M53.7977,-444.519C60.7637,-518.133 88.0997,-772.75 138,-834.5 140.773,-837.931 144.138,-840.887 147.817,-843.43"/>
<polygon fill="midnightblue" stroke="midnightblue" points="57.2602,-443.951 52.8543,-434.315 50.29,-444.595 57.2602,-443.951"/>
</g>
<!-- Node69 -->
<g id="node6" class="node"><title>Node69</title>
<g id="a_node6"><a xlink:href="../../d8/dc2/namespaceadvection__test__tracer.html#adad96933565e1ee601662052ad3f6943" target="_top" xlink:title="advection_test_tracer\l::initialize_advection\l_test_tracer">
<polygon fill="white" stroke="black" points="146.5,-784 146.5,-825 239.5,-825 239.5,-784 146.5,-784"/>
<text text-anchor="start" x="154.5" y="-813" font-family="Helvetica,sans-Serif" font-size="10.00">advection_test_tracer</text>
<text text-anchor="start" x="154.5" y="-802" font-family="Helvetica,sans-Serif" font-size="10.00">::initialize_advection</text>
<text text-anchor="middle" x="193" y="-791" font-family="Helvetica,sans-Serif" font-size="10.00">_test_tracer</text>
</a>
</g>
</g>
<!-- Node64&#45;&gt;Node69 -->
<g id="edge5" class="edge"><title>Node64&#45;&gt;Node69</title>
<path fill="none" stroke="midnightblue" d="M51.5167,-444.312C51.1302,-501.828 57.2994,-671.329 138,-775.5 140.411,-778.613 143.254,-781.431 146.352,-783.976"/>
<polygon fill="midnightblue" stroke="midnightblue" points="55.0197,-444.128 51.6677,-434.078 48.0205,-444.025 55.0197,-444.128"/>
</g>
<!-- Node70 -->
<g id="node7" class="node"><title>Node70</title>
<g id="a_node7"><a xlink:href="../../d2/d4c/namespacedome__tracer.html#acbbc86d4dbc4997c0cd55aa498d2c668" target="_top" xlink:title="dome_tracer::initialize\l_dome_tracer">
<polygon fill="white" stroke="black" points="146,-735.5 146,-765.5 240,-765.5 240,-735.5 146,-735.5"/>
<text text-anchor="start" x="154" y="-753.5" font-family="Helvetica,sans-Serif" font-size="10.00">dome_tracer::initialize</text>
<text text-anchor="middle" x="193" y="-742.5" font-family="Helvetica,sans-Serif" font-size="10.00">_dome_tracer</text>
</a>
</g>
</g>
<!-- Node64&#45;&gt;Node70 -->
<g id="edge6" class="edge"><title>Node64&#45;&gt;Node70</title>
<path fill="none" stroke="midnightblue" d="M52.1266,-444.556C53.512,-497.278 64.2341,-641.541 138,-726.5 140.959,-729.909 144.497,-732.854 148.326,-735.396"/>
<polygon fill="midnightblue" stroke="midnightblue" points="55.6205,-444.169 51.9492,-434.23 48.6216,-444.289 55.6205,-444.169"/>
</g>
<!-- Node71 -->
<g id="node8" class="node"><title>Node71</title>
<g id="a_node8"><a xlink:href="../../de/def/namespaceregional__dyes.html#aeef37afe2f348fc7d94fe977d74d6d0b" target="_top" xlink:title="regional_dyes::initialize\l_dye_tracer">
<polygon fill="white" stroke="black" points="144,-686.5 144,-716.5 242,-716.5 242,-686.5 144,-686.5"/>
<text text-anchor="start" x="152" y="-704.5" font-family="Helvetica,sans-Serif" font-size="10.00">regional_dyes::initialize</text>
<text text-anchor="middle" x="193" y="-693.5" font-family="Helvetica,sans-Serif" font-size="10.00">_dye_tracer</text>
</a>
</g>
</g>
<!-- Node64&#45;&gt;Node71 -->
<g id="edge7" class="edge"><title>Node64&#45;&gt;Node71</title>
<path fill="none" stroke="midnightblue" d="M53.4366,-444.361C57.812,-490.913 74.8374,-608.342 138,-677.5 141.113,-680.909 144.801,-683.861 148.764,-686.411"/>
<polygon fill="midnightblue" stroke="midnightblue" points="56.9017,-443.798 52.5764,-434.126 49.9263,-444.384 56.9017,-443.798"/>
</g>
<!-- Node72 -->
<g id="node9" class="node"><title>Node72</title>
<g id="a_node9"><a xlink:href="../../d6/dcd/namespaceideal__age__example.html#abec4db7c44f7a6d5c891a6d8a17a99b3" target="_top" xlink:title="ideal_age_example::\linitialize_ideal_age\l_tracer">
<polygon fill="white" stroke="black" points="148,-627 148,-668 238,-668 238,-627 148,-627"/>
<text text-anchor="start" x="156" y="-656" font-family="Helvetica,sans-Serif" font-size="10.00">ideal_age_example::</text>
<text text-anchor="start" x="156" y="-645" font-family="Helvetica,sans-Serif" font-size="10.00">initialize_ideal_age</text>
<text text-anchor="middle" x="193" y="-634" font-family="Helvetica,sans-Serif" font-size="10.00">_tracer</text>
</a>
</g>
</g>
<!-- Node64&#45;&gt;Node72 -->
<g id="edge8" class="edge"><title>Node64&#45;&gt;Node72</title>
<path fill="none" stroke="midnightblue" d="M56.1578,-443.983C65.1087,-481.822 89.4407,-566.125 138,-618.5 140.966,-621.699 144.368,-624.618 147.988,-627.263"/>
<polygon fill="midnightblue" stroke="midnightblue" points="59.5676,-443.193 53.9482,-434.211 52.7399,-444.737 59.5676,-443.193"/>
</g>
<!-- Node73 -->
<g id="node10" class="node"><title>Node73</title>
<g id="a_node10"><a xlink:href="../../d6/dd2/namespacemom__ocmip2__cfc.html#a0c916b2f0835bd79002803f246d2ef49" target="_top" xlink:title="mom_ocmip2_cfc::initialize\l_ocmip2_cfc">
<polygon fill="white" stroke="black" points="138,-578.5 138,-608.5 248,-608.5 248,-578.5 138,-578.5"/>
<text text-anchor="start" x="146" y="-596.5" font-family="Helvetica,sans-Serif" font-size="10.00">mom_ocmip2_cfc::initialize</text>
<text text-anchor="middle" x="193" y="-585.5" font-family="Helvetica,sans-Serif" font-size="10.00">_ocmip2_cfc</text>
</a>
</g>
</g>
<!-- Node64&#45;&gt;Node73 -->
<g id="edge9" class="edge"><title>Node64&#45;&gt;Node73</title>
<path fill="none" stroke="midnightblue" d="M58.9787,-443.829C70.8556,-474.287 97.6967,-533.66 138,-569.5 141.757,-572.841 146.053,-575.782 150.546,-578.354"/>
<polygon fill="midnightblue" stroke="midnightblue" points="62.207,-442.471 55.4043,-434.348 55.657,-444.94 62.207,-442.471"/>
</g>
<!-- Node74 -->
<g id="node11" class="node"><title>Node74</title>
<g id="a_node11"><a xlink:href="../../de/d98/namespaceoil__tracer.html#a2bb5dd516d506706c1e67e1206e389b5" target="_top" xlink:title="oil_tracer::initialize\l_oil_tracer">
<polygon fill="white" stroke="black" points="152.5,-529.5 152.5,-559.5 233.5,-559.5 233.5,-529.5 152.5,-529.5"/>
<text text-anchor="start" x="160.5" y="-547.5" font-family="Helvetica,sans-Serif" font-size="10.00">oil_tracer::initialize</text>
<text text-anchor="middle" x="193" y="-536.5" font-family="Helvetica,sans-Serif" font-size="10.00">_oil_tracer</text>
</a>
</g>
</g>
<!-- Node64&#45;&gt;Node74 -->
<g id="edge10" class="edge"><title>Node64&#45;&gt;Node74</title>
<path fill="none" stroke="midnightblue" d="M64.4556,-442.518C79.7432,-463.538 107.429,-498.245 138,-520.5 142.562,-523.821 147.656,-526.823 152.843,-529.489"/>
<polygon fill="midnightblue" stroke="midnightblue" points="67.1641,-440.287 58.514,-434.169 61.461,-444.346 67.1641,-440.287"/>
</g>
<!-- Node75 -->
<g id="node12" class="node"><title>Node75</title>
<g id="a_node12"><a xlink:href="../../d9/d06/namespacemom__diag__mediator.html#a21267e25d12fa3e5d2540d2a299d2d2c" target="_top" xlink:title="Registers a diagnostic using the information encapsulated in the vardesc type argument and returns an...">
<polygon fill="white" stroke="black" points="145.5,-431.5 145.5,-461.5 240.5,-461.5 240.5,-431.5 145.5,-431.5"/>
<text text-anchor="start" x="153.5" y="-449.5" font-family="Helvetica,sans-Serif" font-size="10.00">mom_diag_mediator::</text>
<text text-anchor="middle" x="193" y="-438.5" font-family="Helvetica,sans-Serif" font-size="10.00">ocean_register_diag</text>
</a>
</g>
</g>
<!-- Node64&#45;&gt;Node75 -->
<g id="edge11" class="edge"><title>Node64&#45;&gt;Node75</title>
<path fill="none" stroke="midnightblue" d="M112.238,-433.966C123.365,-435.714 134.827,-437.516 145.47,-439.188"/>
<polygon fill="midnightblue" stroke="midnightblue" points="112.57,-430.475 102.148,-432.38 111.483,-437.39 112.57,-430.475"/>
</g>
<!-- Node76 -->
<g id="node13" class="node"><title>Node76</title>
<g id="a_node13"><a xlink:href="../../d0/dbf/namespacemom__diag__to__z.html#a90526b2f59f94c6af2f525a221029772" target="_top" xlink:title="mom_diag_to_z::ocean\l_register_diag_with_z">
<polygon fill="white" stroke="black" points="287.5,-387.5 287.5,-417.5 387.5,-417.5 387.5,-387.5 287.5,-387.5"/>
<text text-anchor="start" x="295.5" y="-405.5" font-family="Helvetica,sans-Serif" font-size="10.00">mom_diag_to_z::ocean</text>
<text text-anchor="middle" x="337.5" y="-394.5" font-family="Helvetica,sans-Serif" font-size="10.00">_register_diag_with_z</text>
</a>
</g>
</g>
<!-- Node64&#45;&gt;Node76 -->
<g id="edge13" class="edge"><title>Node64&#45;&gt;Node76</title>
<path fill="none" stroke="midnightblue" d="M112.313,-419.836C164.394,-415.809 238.709,-410.062 287.27,-406.307"/>
<polygon fill="midnightblue" stroke="midnightblue" points="111.908,-416.357 102.208,-420.617 112.448,-423.336 111.908,-416.357"/>
</g>
<!-- Node77 -->
<g id="node14" class="node"><title>Node77</title>
<g id="a_node14"><a xlink:href="../../d6/dd2/namespacemom__ocmip2__cfc.html#ac3c9967ff09b37934eb5ef51535e7ee3" target="_top" xlink:title="mom_ocmip2_cfc::ocmip2\l_cfc_stock">
<polygon fill="white" stroke="black" points="138.5,-480.5 138.5,-510.5 247.5,-510.5 247.5,-480.5 138.5,-480.5"/>
<text text-anchor="start" x="146.5" y="-498.5" font-family="Helvetica,sans-Serif" font-size="10.00">mom_ocmip2_cfc::ocmip2</text>
<text text-anchor="middle" x="193" y="-487.5" font-family="Helvetica,sans-Serif" font-size="10.00">_cfc_stock</text>
</a>
</g>
</g>
<!-- Node64&#45;&gt;Node77 -->
<g id="edge14" class="edge"><title>Node64&#45;&gt;Node77</title>
<path fill="none" stroke="midnightblue" d="M77.3592,-439.072C94.3347,-448.649 117.281,-461.256 138,-471.5 144.07,-474.501 150.599,-477.55 156.947,-480.423"/>
<polygon fill="midnightblue" stroke="midnightblue" points="79.0191,-435.99 68.5946,-434.097 75.5637,-442.078 79.0191,-435.99"/>
</g>
<!-- Node78 -->
<g id="node15" class="node"><title>Node78</title>
<g id="a_node15"><a xlink:href="../../de/def/namespaceregional__dyes.html#af9da6e5dbe58dedce4ede6f0533fe702" target="_top" xlink:title="regional_dyes::register\l_dye_tracer">
<polygon fill="white" stroke="black" points="144,-343.5 144,-373.5 242,-373.5 242,-343.5 144,-343.5"/>
<text text-anchor="start" x="152" y="-361.5" font-family="Helvetica,sans-Serif" font-size="10.00">regional_dyes::register</text>
<text text-anchor="middle" x="193" y="-350.5" font-family="Helvetica,sans-Serif" font-size="10.00">_dye_tracer</text>
</a>
</g>
</g>
<!-- Node64&#45;&gt;Node78 -->
<g id="edge16" class="edge"><title>Node64&#45;&gt;Node78</title>
<path fill="none" stroke="midnightblue" d="M81.6138,-410.539C104.589,-399.708 136.386,-384.718 159.955,-373.607"/>
<polygon fill="midnightblue" stroke="midnightblue" points="79.91,-407.473 72.3572,-414.903 82.895,-413.805 79.91,-407.473"/>
</g>
<!-- Node79 -->
<g id="node16" class="node"><title>Node79</title>
<g id="a_node16"><a xlink:href="../../d6/dcd/namespaceideal__age__example.html#a58d550a02148b87b1d1ce979fcaf6c00" target="_top" xlink:title="ideal_age_example::\lregister_ideal_age_tracer">
<polygon fill="white" stroke="black" points="139,-294.5 139,-324.5 247,-324.5 247,-294.5 139,-294.5"/>
<text text-anchor="start" x="147" y="-312.5" font-family="Helvetica,sans-Serif" font-size="10.00">ideal_age_example::</text>
<text text-anchor="middle" x="193" y="-301.5" font-family="Helvetica,sans-Serif" font-size="10.00">register_ideal_age_tracer</text>
</a>
</g>
</g>
<!-- Node64&#45;&gt;Node79 -->
<g id="edge17" class="edge"><title>Node64&#45;&gt;Node79</title>
<path fill="none" stroke="midnightblue" d="M65.4526,-406.866C81.1564,-387.207 108.732,-355.433 138,-334.5 143.126,-330.834 148.875,-327.496 154.659,-324.537"/>
<polygon fill="midnightblue" stroke="midnightblue" points="62.5208,-404.933 59.1092,-414.963 68.0313,-409.25 62.5208,-404.933"/>
</g>
<!-- Node80 -->
<g id="node17" class="node"><title>Node80</title>
<g id="a_node17"><a xlink:href="../../de/d98/namespaceoil__tracer.html#ae9bef348e3fea3af157e841a0c9f6aeb" target="_top" xlink:title="oil_tracer::register\l_oil_tracer">
<polygon fill="white" stroke="black" points="152.5,-245.5 152.5,-275.5 233.5,-275.5 233.5,-245.5 152.5,-245.5"/>
<text text-anchor="start" x="160.5" y="-263.5" font-family="Helvetica,sans-Serif" font-size="10.00">oil_tracer::register</text>
<text text-anchor="middle" x="193" y="-252.5" font-family="Helvetica,sans-Serif" font-size="10.00">_oil_tracer</text>
</a>
</g>
</g>
<!-- Node64&#45;&gt;Node80 -->
<g id="edge18" class="edge"><title>Node64&#45;&gt;Node80</title>
<path fill="none" stroke="midnightblue" d="M59.596,-405.237C72.0147,-375.913 99.2251,-319.864 138,-285.5 142.252,-281.731 147.17,-278.428 152.271,-275.564"/>
<polygon fill="midnightblue" stroke="midnightblue" points="56.2541,-404.162 55.6959,-414.742 62.7301,-406.819 56.2541,-404.162"/>
</g>
<!-- Node81 -->
<g id="node18" class="node"><title>Node81</title>
<g id="a_node18"><a xlink:href="../../d1/d35/namespacemom__tracer__registry.html#a6a753792521378d63e3dd5ca73f3574a" target="_top" xlink:title="This subroutine registers a tracer to be advected and laterally diffused. ">
<polygon fill="white" stroke="black" points="147.5,-196.5 147.5,-226.5 238.5,-226.5 238.5,-196.5 147.5,-196.5"/>
<text text-anchor="start" x="155.5" y="-214.5" font-family="Helvetica,sans-Serif" font-size="10.00">mom_tracer_registry</text>
<text text-anchor="middle" x="193" y="-203.5" font-family="Helvetica,sans-Serif" font-size="10.00">::register_tracer</text>
</a>
</g>
</g>
<!-- Node64&#45;&gt;Node81 -->
<g id="edge19" class="edge"><title>Node64&#45;&gt;Node81</title>
<path fill="none" stroke="midnightblue" d="M56.1781,-404.885C65.0586,-367.544 89.1216,-285.601 138,-236.5 141.79,-232.693 146.268,-229.401 150.999,-226.572"/>
<polygon fill="midnightblue" stroke="midnightblue" points="52.6927,-404.429 53.8989,-414.955 59.52,-405.975 52.6927,-404.429"/>
</g>
<!-- Node82 -->
<g id="node19" class="node"><title>Node82</title>
<g id="a_node19"><a xlink:href="../../d0/dbf/namespacemom__diag__to__z.html#a4dda95a2d7577d6d347e94ec54638bb5" target="_top" xlink:title="mom_diag_to_z::register\l_z_diag">
<polygon fill="white" stroke="black" points="140.5,-147.5 140.5,-177.5 245.5,-177.5 245.5,-147.5 140.5,-147.5"/>
<text text-anchor="start" x="148.5" y="-165.5" font-family="Helvetica,sans-Serif" font-size="10.00">mom_diag_to_z::register</text>
<text text-anchor="middle" x="193" y="-154.5" font-family="Helvetica,sans-Serif" font-size="10.00">_z_diag</text>
</a>
</g>
</g>
<!-- Node64&#45;&gt;Node82 -->
<g id="edge20" class="edge"><title>Node64&#45;&gt;Node82</title>
<path fill="none" stroke="midnightblue" d="M54.0785,-404.446C59.6823,-359.959 78.9117,-251.869 138,-187.5 141.493,-183.695 145.682,-180.422 150.161,-177.619"/>
<polygon fill="midnightblue" stroke="midnightblue" points="50.5824,-404.21 52.9075,-414.546 57.5359,-405.016 50.5824,-404.21"/>
</g>
<!-- Node83 -->
<g id="node20" class="node"><title>Node83</title>
<g id="a_node20"><a xlink:href="../../d0/dbf/namespacemom__diag__to__z.html#a12bc76d5b29b6b3292a802946b7dd6fc" target="_top" xlink:title="mom_diag_to_z::register\l_zint_diag">
<polygon fill="white" stroke="black" points="140.5,-98.5 140.5,-128.5 245.5,-128.5 245.5,-98.5 140.5,-98.5"/>
<text text-anchor="start" x="148.5" y="-116.5" font-family="Helvetica,sans-Serif" font-size="10.00">mom_diag_to_z::register</text>
<text text-anchor="middle" x="193" y="-105.5" font-family="Helvetica,sans-Serif" font-size="10.00">_zint_diag</text>
</a>
</g>
</g>
<!-- Node64&#45;&gt;Node83 -->
<g id="edge22" class="edge"><title>Node64&#45;&gt;Node83</title>
<path fill="none" stroke="midnightblue" d="M52.5847,-404.551C55.0942,-353.924 68.3317,-218.795 138,-138.5 141.318,-134.676 145.343,-131.401 149.685,-128.603"/>
<polygon fill="midnightblue" stroke="midnightblue" points="49.0782,-404.644 52.172,-414.777 56.0725,-404.927 49.0782,-404.644"/>
</g>
<!-- Node85 -->
<g id="node22" class="node"><title>Node85</title>
<g id="a_node22"><a xlink:href="../../df/db5/namespaceuser__tracer__example.html#a16d417b6068f44605caf3573bf5f4de9" target="_top" xlink:title="user_tracer_example\l::user_initialize_tracer">
<polygon fill="white" stroke="black" points="146,-49.5 146,-79.5 240,-79.5 240,-49.5 146,-49.5"/>
<text text-anchor="start" x="154" y="-67.5" font-family="Helvetica,sans-Serif" font-size="10.00">user_tracer_example</text>
<text text-anchor="middle" x="193" y="-56.5" font-family="Helvetica,sans-Serif" font-size="10.00">::user_initialize_tracer</text>
</a>
</g>
</g>
<!-- Node64&#45;&gt;Node85 -->
<g id="edge24" class="edge"><title>Node64&#45;&gt;Node85</title>
<path fill="none" stroke="midnightblue" d="M51.5132,-404.625C51.1889,-348.392 57.6587,-186.005 138,-89.5 141.173,-85.689 145.054,-82.4281 149.267,-79.6452"/>
<polygon fill="midnightblue" stroke="midnightblue" points="48.0182,-405.002 51.6614,-414.951 55.0175,-404.902 48.0182,-405.002"/>
</g>
<!-- Node86 -->
<g id="node23" class="node"><title>Node86</title>
<g id="a_node23"><a xlink:href="../../df/db5/namespaceuser__tracer__example.html#a040e2b8e8c5a41ccb6398e66d820c4be" target="_top" xlink:title="user_tracer_example\l::user_tracer_stock">
<polygon fill="white" stroke="black" points="147,-0.5 147,-30.5 239,-30.5 239,-0.5 147,-0.5"/>
<text text-anchor="start" x="155" y="-18.5" font-family="Helvetica,sans-Serif" font-size="10.00">user_tracer_example</text>
<text text-anchor="middle" x="193" y="-7.5" font-family="Helvetica,sans-Serif" font-size="10.00">::user_tracer_stock</text>
</a>
</g>
</g>
<!-- Node64&#45;&gt;Node86 -->
<g id="edge25" class="edge"><title>Node64&#45;&gt;Node86</title>
<path fill="none" stroke="midnightblue" d="M54.0963,-404.882C61.9198,-334.855 91.3764,-98.3007 138,-40.5 141.113,-36.6403 144.958,-33.3491 149.149,-30.5488"/>
<polygon fill="midnightblue" stroke="midnightblue" points="50.6011,-404.648 52.9916,-414.969 57.5595,-405.41 50.6011,-404.648"/>
</g>
<!-- Node66 -->
<g id="node3" class="node"><title>Node66</title>
<g id="a_node3"><a xlink:href="../../d1/d99/namespacemom__tracer__flow__control.html#afd8526344e928c8c9505c921bf37447f" target="_top" xlink:title="mom_tracer_flow_control\l::call_tracer_stocks">
<polygon fill="white" stroke="black" points="284,-661.5 284,-691.5 391,-691.5 391,-661.5 284,-661.5"/>
<text text-anchor="start" x="292" y="-679.5" font-family="Helvetica,sans-Serif" font-size="10.00">mom_tracer_flow_control</text>
<text text-anchor="middle" x="337.5" y="-668.5" font-family="Helvetica,sans-Serif" font-size="10.00">::call_tracer_stocks</text>
</a>
</g>
</g>
<!-- Node65&#45;&gt;Node66 -->
<g id="edge2" class="edge"><title>Node65&#45;&gt;Node66</title>
<path fill="none" stroke="midnightblue" d="M243.986,-837.846C245.38,-836.779 246.723,-835.664 248,-834.5 293.539,-792.984 321.224,-722.423 331.699,-691.628"/>
<polygon fill="midnightblue" stroke="midnightblue" points="241.939,-835.004 235.535,-843.444 245.805,-840.839 241.939,-835.004"/>
</g>
<!-- Node67 -->
<g id="node4" class="node"><title>Node67</title>
<g id="a_node4"><a xlink:href="../../d6/d28/namespacemom__sum__output.html#aef94e597f85f3ee439b2ddc2b46a043a" target="_top" xlink:title="mom_sum_output::write\l_energy">
<polygon fill="white" stroke="black" points="427,-661.5 427,-691.5 530,-691.5 530,-661.5 427,-661.5"/>
<text text-anchor="start" x="435" y="-679.5" font-family="Helvetica,sans-Serif" font-size="10.00">mom_sum_output::write</text>
<text text-anchor="middle" x="478.5" y="-668.5" font-family="Helvetica,sans-Serif" font-size="10.00">_energy</text>
</a>
</g>
</g>
<!-- Node66&#45;&gt;Node67 -->
<g id="edge3" class="edge"><title>Node66&#45;&gt;Node67</title>
<path fill="none" stroke="midnightblue" d="M401.32,-676.5C409.822,-676.5 418.459,-676.5 426.715,-676.5"/>
<polygon fill="midnightblue" stroke="midnightblue" points="401.05,-673 391.05,-676.5 401.05,-680 401.05,-673"/>
</g>
<!-- Node68 -->
<g id="node5" class="node"><title>Node68</title>
<g id="a_node5"><a xlink:href="../../de/dbc/MOM__driver_8F90.html#a08fffeb2d8e8acbf9ed4609be6d258c6" target="_top" xlink:title="mom_main">
<polygon fill="white" stroke="black" points="566,-667 566,-686 622,-686 622,-667 566,-667"/>
<text text-anchor="middle" x="594" y="-674" font-family="Helvetica,sans-Serif" font-size="10.00">mom_main</text>
</a>
</g>
</g>
<!-- Node67&#45;&gt;Node68 -->
<g id="edge4" class="edge"><title>Node67&#45;&gt;Node68</title>
<path fill="none" stroke="midnightblue" d="M540.382,-676.5C549.325,-676.5 558.131,-676.5 565.904,-676.5"/>
<polygon fill="midnightblue" stroke="midnightblue" points="540.275,-673 530.275,-676.5 540.274,-680 540.275,-673"/>
</g>
<!-- Node75&#45;&gt;Node76 -->
<g id="edge12" class="edge"><title>Node75&#45;&gt;Node76</title>
<path fill="none" stroke="midnightblue" d="M250.408,-429.083C262.767,-425.267 275.749,-421.258 287.777,-417.544"/>
<polygon fill="midnightblue" stroke="midnightblue" points="249.182,-425.798 240.66,-432.093 251.247,-432.487 249.182,-425.798"/>
</g>
<!-- Node77&#45;&gt;Node66 -->
<g id="edge15" class="edge"><title>Node77&#45;&gt;Node66</title>
<path fill="none" stroke="midnightblue" d="M242.697,-516.131C244.555,-517.509 246.333,-518.965 248,-520.5 292.668,-561.629 320.636,-630.614 331.429,-661.155"/>
<polygon fill="midnightblue" stroke="midnightblue" points="244.433,-513.085 234.14,-510.574 240.621,-518.956 244.433,-513.085"/>
</g>
<!-- Node82&#45;&gt;Node76 -->
<g id="edge21" class="edge"><title>Node82&#45;&gt;Node76</title>
<path fill="none" stroke="midnightblue" d="M243.631,-183.437C245.169,-184.72 246.633,-186.073 248,-187.5 305.238,-247.259 327.556,-349.179 334.177,-387.416"/>
<polygon fill="midnightblue" stroke="midnightblue" points="245.592,-180.538 235.413,-177.599 241.538,-186.244 245.592,-180.538"/>
</g>
<!-- Node84 -->
<g id="node21" class="node"><title>Node84</title>
<g id="a_node21"><a xlink:href="../../d8/df3/namespacemom__diabatic__driver.html#afa0b30bd6f0e080bcacbd6dcb15ff990" target="_top" xlink:title="This routine initializes the diabatic driver module. ">
<polygon fill="white" stroke="black" points="292,-98.5 292,-128.5 383,-128.5 383,-98.5 292,-98.5"/>
<text text-anchor="start" x="300" y="-116.5" font-family="Helvetica,sans-Serif" font-size="10.00">mom_diabatic_driver</text>
<text text-anchor="middle" x="337.5" y="-105.5" font-family="Helvetica,sans-Serif" font-size="10.00">::diabatic_driver_init</text>
</a>
</g>
</g>
<!-- Node83&#45;&gt;Node84 -->
<g id="edge23" class="edge"><title>Node83&#45;&gt;Node84</title>
<path fill="none" stroke="midnightblue" d="M255.921,-113.5C268.052,-113.5 280.55,-113.5 291.975,-113.5"/>
<polygon fill="midnightblue" stroke="midnightblue" points="255.849,-110 245.849,-113.5 255.849,-117 255.849,-110"/>
</g>
</g>
</svg>
        <g id="navigator" transform="translate(0 0)" fill="#404254">
                <rect fill="#f2f5e9" fill-opacity="0.5" stroke="#606060" stroke-width=".5" x="0" y="0" width="60" height="60"/>
                <use id="zoomplus" xlink:href="#zoomPlus" x="17" y="9" onmousedown="handleZoom(evt,'in')"/>
                <use id="zoomminus" xlink:href="#zoomMin" x="42" y="9" onmousedown="handleZoom(evt,'out')"/>
                <use id="reset" xlink:href="#resetDef" x="30" y="36" onmousedown="handleReset()"/>
                <g id="arrowUp" xlink:href="#dirArrow" transform="translate(30 24)" onmousedown="handlePan(0,-1)">
                  <use xlink:href="#rim" fill="#404040">
                        <set attributeName="fill" to="#808080" begin="arrowUp.mouseover" end="arrowUp.mouseout"/>
                  </use>
                  <path fill="none" stroke="white" stroke-width="1.5" d="M0,-3.0v7 M-2.5,-0.5L0,-3.0L2.5,-0.5"/>
                </g>
                <g id="arrowRight" xlink:href="#dirArrow" transform="rotate(90) translate(36 -43)" onmousedown="handlePan(1,0)">
                  <use xlink:href="#rim" fill="#404040">
                        <set attributeName="fill" to="#808080" begin="arrowRight.mouseover" end="arrowRight.mouseout"/>
                  </use>
                  <path fill="none" stroke="white" stroke-width="1.5" d="M0,-3.0v7 M-2.5,-0.5L0,-3.0L2.5,-0.5"/>
                </g>
                <g id="arrowDown" xlink:href="#dirArrow" transform="rotate(180) translate(-30 -48)" onmousedown="handlePan(0,1)">
                  <use xlink:href="#rim" fill="#404040">
                        <set attributeName="fill" to="#808080" begin="arrowDown.mouseover" end="arrowDown.mouseout"/>
                  </use>
                  <path fill="none" stroke="white" stroke-width="1.5" d="M0,-3.0v7 M-2.5,-0.5L0,-3.0L2.5,-0.5"/>
                </g>
                <g id="arrowLeft" xlink:href="#dirArrow" transform="rotate(270) translate(-36 17)" onmousedown="handlePan(-1,0)">
                  <use xlink:href="#rim" fill="#404040">
                        <set attributeName="fill" to="#808080" begin="arrowLeft.mouseover" end="arrowLeft.mouseout"/>
                  </use>
                  <path fill="none" stroke="white" stroke-width="1.5" d="M0,-3.0v7 M-2.5,-0.5L0,-3.0L2.5,-0.5"/>
                </g>
        </g>
        <svg viewBox="0 0 15 15" width="100%" height="30px" preserveAspectRatio="xMaxYMin meet">
         <g id="arrow_out" transform="scale(0.3 0.3)">
          <a xlink:href="namespacemom__io_a23e82d1d89d9bb1c9bdf802ce80d4508_icgraph_org.svg" target="_base">
           <rect id="button" ry="5" rx="5" y="6" x="6" height="38" width="38"
                fill="#f2f5e9" fill-opacity="0.5" stroke="#606060" stroke-width="1.0"/>
           <path id="arrow"
             d="M 11.500037,31.436501 C 11.940474,20.09759 22.043105,11.32322 32.158766,21.979434 L 37.068811,17.246167 C 37.068811,17.246167 37.088388,32 37.088388,32 L 22.160133,31.978069 C 22.160133,31.978069 26.997745,27.140456 26.997745,27.140456 C 18.528582,18.264221 13.291696,25.230495 11.500037,31.436501 z"
             style="fill:#404040;"/>
          </a>
         </g>
        </svg>
</svg>
