<?xml version="1.0" encoding="UTF-8" standalone="no"?>
<!DOCTYPE svg PUBLIC "-//W3C//DTD SVG 1.1//EN"
 "http://www.w3.org/Graphics/SVG/1.1/DTD/svg11.dtd">
<!-- Generated by graphviz version 2.38.0 (20140413.2041)
 -->
<!-- Title: mom_io::var_desc Pages: 1 -->
<svg width="622pt" height="927pt"
 viewBox="0.00 0.00 622.00 927.00" xmlns="http://www.w3.org/2000/svg" xmlns:xlink="http://www.w3.org/1999/xlink">
<g id="graph0" class="graph" transform="scale(1 1) rotate(0) translate(4 923)">
<title>mom_io::var_desc</title>
<polygon fill="white" stroke="none" points="-4,4 -4,-923 618,-923 618,4 -4,4"/>
<!-- Node177 -->
<g id="node1" class="node"><title>Node177</title>
<polygon fill="#bfbfbf" stroke="black" points="0,-468 0,-487 82,-487 82,-468 0,-468"/>
<text text-anchor="middle" x="41" y="-475" font-family="Helvetica,sans-Serif" font-size="10.00">mom_io::var_desc</text>
</g>
<!-- Node178 -->
<g id="node2" class="node"><title>Node178</title>
<g id="a_node2"><a xlink:href="../../d8/df3/namespacemom__diabatic__driver.html#afa0b30bd6f0e080bcacbd6dcb15ff990" target="_top" xlink:title="This routine initializes the diabatic driver module. ">
<polygon fill="white" stroke="black" points="134.5,-888.5 134.5,-918.5 225.5,-918.5 225.5,-888.5 134.5,-888.5"/>
<text text-anchor="start" x="142.5" y="-906.5" font-family="Helvetica,sans-Serif" font-size="10.00">mom_diabatic_driver</text>
<text text-anchor="middle" x="180" y="-895.5" font-family="Helvetica,sans-Serif" font-size="10.00">::diabatic_driver_init</text>
</a>
</g>
</g>
<!-- Node177&#45;&gt;Node178 -->
<g id="edge1" class="edge"><title>Node177&#45;&gt;Node178</title>
<path fill="none" stroke="midnightblue" d="M43.2759,-497.11C48.328,-569.217 69.0896,-818.579 118,-878.5 122.415,-883.909 128.189,-888.159 134.424,-891.496"/>
<polygon fill="midnightblue" stroke="midnightblue" points="46.7668,-496.855 42.5981,-487.115 39.7828,-497.329 46.7668,-496.855"/>
</g>
<!-- Node179 -->
<g id="node3" class="node"><title>Node179</title>
<g id="a_node3"><a xlink:href="../../da/d01/namespacemom.html#a0dd32ae97ee7dd3cbb8e14e4cf11f191" target="_top" xlink:title="This subroutine finishes initializing MOM and writes out the initial conditions. ">
<polygon fill="white" stroke="black" points="118,-850 118,-869 242,-869 242,-850 118,-850"/>
<text text-anchor="middle" x="180" y="-857" font-family="Helvetica,sans-Serif" font-size="10.00">mom::finish_mom_initialization</text>
</a>
</g>
</g>
<!-- Node177&#45;&gt;Node179 -->
<g id="edge2" class="edge"><title>Node177&#45;&gt;Node179</title>
<path fill="none" stroke="midnightblue" d="M43.7732,-497.073C50.1848,-563.924 74.131,-781.97 118,-834.5 123.722,-841.352 131.621,-846.349 139.837,-849.986"/>
<polygon fill="midnightblue" stroke="midnightblue" points="47.2519,-496.681 42.836,-487.05 40.2823,-497.332 47.2519,-496.681"/>
</g>
<!-- Node182 -->
<g id="node6" class="node"><title>Node182</title>
<g id="a_node6"><a xlink:href="../../da/d01/namespacemom.html#afebdc0103ad9cbe0ed4a54e522dc4104" target="_top" xlink:title="This subroutine initializes MOM. ">
<polygon fill="white" stroke="black" points="433,-611 433,-630 522,-630 522,-611 433,-611"/>
<text text-anchor="middle" x="477.5" y="-618" font-family="Helvetica,sans-Serif" font-size="10.00">mom::initialize_mom</text>
</a>
</g>
</g>
<!-- Node177&#45;&gt;Node182 -->
<g id="edge5" class="edge"><title>Node177&#45;&gt;Node182</title>
<path fill="none" stroke="midnightblue" d="M43.972,-497.439C50.5099,-559.141 73.6209,-745.065 118,-782.5 165.435,-822.513 344.791,-828.046 397,-794.5 456.515,-756.259 472.029,-661.198 475.562,-630.342"/>
<polygon fill="midnightblue" stroke="midnightblue" points="47.4166,-496.719 42.9131,-487.129 40.4533,-497.435 47.4166,-496.719"/>
</g>
<!-- Node183 -->
<g id="node7" class="node"><title>Node183</title>
<g id="a_node7"><a xlink:href="../../df/d46/namespacemom__meke.html#a1900316331157e48f1a6029bac63fbd0" target="_top" xlink:title="Allocates memory and register restart fields for the MOM_MEKE module. ">
<polygon fill="white" stroke="black" points="286,-755.5 286,-785.5 389,-785.5 389,-755.5 286,-755.5"/>
<text text-anchor="start" x="294" y="-773.5" font-family="Helvetica,sans-Serif" font-size="10.00">mom_meke::meke_alloc</text>
<text text-anchor="middle" x="337.5" y="-762.5" font-family="Helvetica,sans-Serif" font-size="10.00">_register_restart</text>
</a>
</g>
</g>
<!-- Node177&#45;&gt;Node183 -->
<g id="edge7" class="edge"><title>Node177&#45;&gt;Node183</title>
<path fill="none" stroke="midnightblue" d="M44.5626,-497.244C52.4121,-554.44 78.0441,-718.288 118,-751.5 164.412,-790.078 237.112,-788.169 285.756,-781.119"/>
<polygon fill="midnightblue" stroke="midnightblue" points="47.9899,-496.466 43.1946,-487.019 41.0517,-497.395 47.9899,-496.466"/>
</g>
<!-- Node184 -->
<g id="node8" class="node"><title>Node184</title>
<g id="a_node8"><a xlink:href="../../d4/de7/namespacemom__mixed__layer__restrat.html#aea597553dfa98cc7c972784f476ad3fc" target="_top" xlink:title="Allocate and regsiter fields in the mixedlayer restratification structure for restarts. ">
<polygon fill="white" stroke="black" points="278,-689 278,-730 397,-730 397,-689 278,-689"/>
<text text-anchor="start" x="286" y="-718" font-family="Helvetica,sans-Serif" font-size="10.00">mom_mixed_layer_restrat</text>
<text text-anchor="start" x="286" y="-707" font-family="Helvetica,sans-Serif" font-size="10.00">::mixedlayer_restrat_register</text>
<text text-anchor="middle" x="337.5" y="-696" font-family="Helvetica,sans-Serif" font-size="10.00">_restarts</text>
</a>
</g>
</g>
<!-- Node177&#45;&gt;Node184 -->
<g id="edge9" class="edge"><title>Node177&#45;&gt;Node184</title>
<path fill="none" stroke="midnightblue" d="M44.9604,-496.941C53.5385,-550.412 80.2245,-697.567 118,-725.5 166.626,-761.457 239.138,-746.576 287.106,-730.138"/>
<polygon fill="midnightblue" stroke="midnightblue" points="48.4132,-496.367 43.4073,-487.03 41.4976,-497.451 48.4132,-496.367"/>
</g>
<!-- Node185 -->
<g id="node9" class="node"><title>Node185</title>
<g id="a_node9"><a xlink:href="../../d8/dc2/namespaceadvection__test__tracer.html#a6cc3e00a5d5cb9e31339c784eb966c91" target="_top" xlink:title="advection_test_tracer\l::register_advection\l_test_tracer">
<polygon fill="white" stroke="black" points="133.5,-675 133.5,-716 226.5,-716 226.5,-675 133.5,-675"/>
<text text-anchor="start" x="141.5" y="-704" font-family="Helvetica,sans-Serif" font-size="10.00">advection_test_tracer</text>
<text text-anchor="start" x="141.5" y="-693" font-family="Helvetica,sans-Serif" font-size="10.00">::register_advection</text>
<text text-anchor="middle" x="180" y="-682" font-family="Helvetica,sans-Serif" font-size="10.00">_test_tracer</text>
</a>
</g>
</g>
<!-- Node177&#45;&gt;Node185 -->
<g id="edge11" class="edge"><title>Node177&#45;&gt;Node185</title>
<path fill="none" stroke="midnightblue" d="M45.2322,-497.52C52.2131,-534.892 71.9477,-615.962 118,-665.5 122.419,-670.254 127.756,-674.35 133.41,-677.851"/>
<polygon fill="midnightblue" stroke="midnightblue" points="48.6338,-496.653 43.4601,-487.408 41.7389,-497.862 48.6338,-496.653"/>
</g>
<!-- Node186 -->
<g id="node10" class="node"><title>Node186</title>
<g id="a_node10"><a xlink:href="../../d5/d7c/namespacemom__barotropic.html#a28fa2e7600a471735c3b827ac08ed94b" target="_top" xlink:title="mom_barotropic::register\l_barotropic_restarts">
<polygon fill="white" stroke="black" points="126.5,-626.5 126.5,-656.5 233.5,-656.5 233.5,-626.5 126.5,-626.5"/>
<text text-anchor="start" x="134.5" y="-644.5" font-family="Helvetica,sans-Serif" font-size="10.00">mom_barotropic::register</text>
<text text-anchor="middle" x="180" y="-633.5" font-family="Helvetica,sans-Serif" font-size="10.00">_barotropic_restarts</text>
</a>
</g>
</g>
<!-- Node177&#45;&gt;Node186 -->
<g id="edge12" class="edge"><title>Node177&#45;&gt;Node186</title>
<path fill="none" stroke="midnightblue" d="M48.6971,-496.765C59.3982,-525.121 82.7988,-578.312 118,-611.5 124.269,-617.41 131.922,-622.389 139.661,-626.487"/>
<polygon fill="midnightblue" stroke="midnightblue" points="51.9278,-495.408 45.2195,-487.208 45.3497,-497.802 51.9278,-495.408"/>
</g>
<!-- Node187 -->
<g id="node11" class="node"><title>Node187</title>
<g id="a_node11"><a xlink:href="../../d1/dc3/namespacemom__dynamics__split__rk2.html#a9f889b82fd5ed29a854da99d3c929366" target="_top" xlink:title="This subroutine sets up any auxiliary restart variables that are specific to the unsplit time steppin...">
<polygon fill="white" stroke="black" points="290,-599 290,-640 385,-640 385,-599 290,-599"/>
<text text-anchor="start" x="298" y="-628" font-family="Helvetica,sans-Serif" font-size="10.00">mom_dynamics_split</text>
<text text-anchor="start" x="298" y="-617" font-family="Helvetica,sans-Serif" font-size="10.00">_rk2::register_restarts</text>
<text text-anchor="middle" x="337.5" y="-606" font-family="Helvetica,sans-Serif" font-size="10.00">_dyn_split_rk2</text>
</a>
</g>
</g>
<!-- Node177&#45;&gt;Node187 -->
<g id="edge23" class="edge"><title>Node177&#45;&gt;Node187</title>
<path fill="none" stroke="midnightblue" d="M50.7223,-496.363C62.5194,-519.627 85.844,-558.536 118,-578.5 146.118,-595.957 234.624,-608.425 289.988,-614.754"/>
<polygon fill="midnightblue" stroke="midnightblue" points="53.774,-494.635 46.2511,-487.175 47.4797,-497.698 53.774,-494.635"/>
</g>
<!-- Node188 -->
<g id="node12" class="node"><title>Node188</title>
<g id="a_node12"><a xlink:href="../../dd/dd1/namespacemom__controlled__forcing.html#a8bfffde62f6a555439eba94884a1fc2e" target="_top" xlink:title="This subroutine is used to allocate and register any fields in this module that should be written to ...">
<polygon fill="white" stroke="black" points="129,-528 129,-569 231,-569 231,-528 129,-528"/>
<text text-anchor="start" x="137" y="-557" font-family="Helvetica,sans-Serif" font-size="10.00">mom_controlled_forcing</text>
<text text-anchor="start" x="137" y="-546" font-family="Helvetica,sans-Serif" font-size="10.00">::register_ctrl_forcing</text>
<text text-anchor="middle" x="180" y="-535" font-family="Helvetica,sans-Serif" font-size="10.00">_restarts</text>
</a>
</g>
</g>
<!-- Node177&#45;&gt;Node188 -->
<g id="edge14" class="edge"><title>Node177&#45;&gt;Node188</title>
<path fill="none" stroke="midnightblue" d="M69.3726,-491.686C89.3778,-502.053 116.814,-516.272 139.234,-527.892"/>
<polygon fill="midnightblue" stroke="midnightblue" points="70.9654,-488.569 60.4764,-487.075 67.7445,-494.784 70.9654,-488.569"/>
</g>
<!-- Node189 -->
<g id="node13" class="node"><title>Node189</title>
<g id="a_node13"><a xlink:href="../../da/d01/namespacemom.html#a86a5617dd90efc4f487373d485f670f0" target="_top" xlink:title="Initialize diagnostics for the variance decay of temp/salt across regridding/remapping. ">
<polygon fill="white" stroke="black" points="293,-517.5 293,-547.5 382,-547.5 382,-517.5 293,-517.5"/>
<text text-anchor="start" x="301" y="-535.5" font-family="Helvetica,sans-Serif" font-size="10.00">mom::register_diags</text>
<text text-anchor="middle" x="337.5" y="-524.5" font-family="Helvetica,sans-Serif" font-size="10.00">_ts_vardec</text>
</a>
</g>
</g>
<!-- Node177&#45;&gt;Node189 -->
<g id="edge15" class="edge"><title>Node177&#45;&gt;Node189</title>
<path fill="none" stroke="midnightblue" d="M92.1323,-486.863C148.492,-497.388 239.11,-514.312 292.725,-524.325"/>
<polygon fill="midnightblue" stroke="midnightblue" points="92.4967,-483.37 82.0241,-484.975 91.2115,-490.251 92.4967,-483.37"/>
</g>
<!-- Node190 -->
<g id="node14" class="node"><title>Node190</title>
<g id="a_node14"><a xlink:href="../../d2/d4c/namespacedome__tracer.html#a2a6918ef09b8674c6ad56f80dfc370ff" target="_top" xlink:title="dome_tracer::register\l_dome_tracer">
<polygon fill="white" stroke="black" points="133,-440.5 133,-470.5 227,-470.5 227,-440.5 133,-440.5"/>
<text text-anchor="start" x="141" y="-458.5" font-family="Helvetica,sans-Serif" font-size="10.00">dome_tracer::register</text>
<text text-anchor="middle" x="180" y="-447.5" font-family="Helvetica,sans-Serif" font-size="10.00">_dome_tracer</text>
</a>
</g>
</g>
<!-- Node177&#45;&gt;Node190 -->
<g id="edge17" class="edge"><title>Node177&#45;&gt;Node190</title>
<path fill="none" stroke="midnightblue" d="M92.2457,-469.431C105.465,-467.309 119.663,-465.029 132.666,-462.941"/>
<polygon fill="midnightblue" stroke="midnightblue" points="91.6821,-465.977 82.3635,-471.018 92.792,-472.888 91.6821,-465.977"/>
</g>
<!-- Node191 -->
<g id="node15" class="node"><title>Node191</title>
<g id="a_node15"><a xlink:href="../../de/def/namespaceregional__dyes.html#af9da6e5dbe58dedce4ede6f0533fe702" target="_top" xlink:title="regional_dyes::register\l_dye_tracer">
<polygon fill="white" stroke="black" points="131,-391.5 131,-421.5 229,-421.5 229,-391.5 131,-391.5"/>
<text text-anchor="start" x="139" y="-409.5" font-family="Helvetica,sans-Serif" font-size="10.00">regional_dyes::register</text>
<text text-anchor="middle" x="180" y="-398.5" font-family="Helvetica,sans-Serif" font-size="10.00">_dye_tracer</text>
</a>
</g>
</g>
<!-- Node177&#45;&gt;Node191 -->
<g id="edge18" class="edge"><title>Node177&#45;&gt;Node191</title>
<path fill="none" stroke="midnightblue" d="M64.3408,-462.209C79.1679,-452.434 99.2763,-439.878 118,-430.5 124.309,-427.34 131.14,-424.303 137.87,-421.515"/>
<polygon fill="midnightblue" stroke="midnightblue" points="62.2205,-459.416 55.8509,-467.882 66.1099,-465.236 62.2205,-459.416"/>
</g>
<!-- Node192 -->
<g id="node16" class="node"><title>Node192</title>
<g id="a_node16"><a xlink:href="../../d6/dcd/namespaceideal__age__example.html#a58d550a02148b87b1d1ce979fcaf6c00" target="_top" xlink:title="ideal_age_example::\lregister_ideal_age_tracer">
<polygon fill="white" stroke="black" points="126,-342.5 126,-372.5 234,-372.5 234,-342.5 126,-342.5"/>
<text text-anchor="start" x="134" y="-360.5" font-family="Helvetica,sans-Serif" font-size="10.00">ideal_age_example::</text>
<text text-anchor="middle" x="180" y="-349.5" font-family="Helvetica,sans-Serif" font-size="10.00">register_ideal_age_tracer</text>
</a>
</g>
</g>
<!-- Node177&#45;&gt;Node192 -->
<g id="edge19" class="edge"><title>Node177&#45;&gt;Node192</title>
<path fill="none" stroke="midnightblue" d="M52.3446,-459.226C65.2356,-437.922 89.1247,-402.909 118,-381.5 122.571,-378.111 127.683,-375.13 132.951,-372.528"/>
<polygon fill="midnightblue" stroke="midnightblue" points="49.2662,-457.556 47.2172,-467.951 55.3013,-461.103 49.2662,-457.556"/>
</g>
<!-- Node193 -->
<g id="node17" class="node"><title>Node193</title>
<g id="a_node17"><a xlink:href="../../d6/dd2/namespacemom__ocmip2__cfc.html#ac04494ce35222c8583a7ee7589e1cf13" target="_top" xlink:title="mom_ocmip2_cfc::register\l_ocmip2_cfc">
<polygon fill="white" stroke="black" points="125,-293.5 125,-323.5 235,-323.5 235,-293.5 125,-293.5"/>
<text text-anchor="start" x="133" y="-311.5" font-family="Helvetica,sans-Serif" font-size="10.00">mom_ocmip2_cfc::register</text>
<text text-anchor="middle" x="180" y="-300.5" font-family="Helvetica,sans-Serif" font-size="10.00">_ocmip2_cfc</text>
</a>
</g>
</g>
<!-- Node177&#45;&gt;Node193 -->
<g id="edge20" class="edge"><title>Node177&#45;&gt;Node193</title>
<path fill="none" stroke="midnightblue" d="M47.3626,-458.012C56.7591,-427.289 79.0041,-367.499 118,-332.5 121.811,-329.079 126.168,-326.12 130.759,-323.565"/>
<polygon fill="midnightblue" stroke="midnightblue" points="43.914,-457.336 44.4749,-467.916 50.6342,-459.295 43.914,-457.336"/>
</g>
<!-- Node194 -->
<g id="node18" class="node"><title>Node194</title>
<g id="a_node18"><a xlink:href="../../de/d98/namespaceoil__tracer.html#ae9bef348e3fea3af157e841a0c9f6aeb" target="_top" xlink:title="oil_tracer::register\l_oil_tracer">
<polygon fill="white" stroke="black" points="139.5,-244.5 139.5,-274.5 220.5,-274.5 220.5,-244.5 139.5,-244.5"/>
<text text-anchor="start" x="147.5" y="-262.5" font-family="Helvetica,sans-Serif" font-size="10.00">oil_tracer::register</text>
<text text-anchor="middle" x="180" y="-251.5" font-family="Helvetica,sans-Serif" font-size="10.00">_oil_tracer</text>
</a>
</g>
</g>
<!-- Node177&#45;&gt;Node194 -->
<g id="edge21" class="edge"><title>Node177&#45;&gt;Node194</title>
<path fill="none" stroke="midnightblue" d="M44.4945,-457.575C50.3486,-418.908 68.4309,-333.142 118,-283.5 123.951,-277.541 131.558,-273.021 139.367,-269.607"/>
<polygon fill="midnightblue" stroke="midnightblue" points="40.9596,-457.584 43.049,-467.971 47.8929,-458.549 40.9596,-457.584"/>
</g>
<!-- Node195 -->
<g id="node19" class="node"><title>Node195</title>
<g id="a_node19"><a xlink:href="../../db/dd4/namespacemom__dynamics__legacy__split.html#a6bbc5bdfa5c9906b19339c12dc971551" target="_top" xlink:title="mom_dynamics_legacy\l_split::register_restarts\l_dyn_legacy_split">
<polygon fill="white" stroke="black" points="130.5,-185 130.5,-226 229.5,-226 229.5,-185 130.5,-185"/>
<text text-anchor="start" x="138.5" y="-214" font-family="Helvetica,sans-Serif" font-size="10.00">mom_dynamics_legacy</text>
<text text-anchor="start" x="138.5" y="-203" font-family="Helvetica,sans-Serif" font-size="10.00">_split::register_restarts</text>
<text text-anchor="middle" x="180" y="-192" font-family="Helvetica,sans-Serif" font-size="10.00">_dyn_legacy_split</text>
</a>
</g>
</g>
<!-- Node177&#45;&gt;Node195 -->
<g id="edge22" class="edge"><title>Node177&#45;&gt;Node195</title>
<path fill="none" stroke="midnightblue" d="M42.9717,-457.653C46.1793,-412.621 59.8781,-301.432 118,-234.5 121.537,-230.427 125.772,-226.882 130.34,-223.806"/>
<polygon fill="midnightblue" stroke="midnightblue" points="39.466,-457.642 42.3502,-467.836 46.453,-458.068 39.466,-457.642"/>
</g>
<!-- Node196 -->
<g id="node20" class="node"><title>Node196</title>
<g id="a_node20"><a xlink:href="../../da/d01/namespacemom.html#aab33a9c6ab1106414d95ecdd17da5a06" target="_top" xlink:title="Set the fields that are needed for bitwise identical restarting the time stepping scheme...">
<polygon fill="white" stroke="black" points="287.5,-316 287.5,-335 387.5,-335 387.5,-316 287.5,-316"/>
<text text-anchor="middle" x="337.5" y="-323" font-family="Helvetica,sans-Serif" font-size="10.00">mom::set_restart_fields</text>
</a>
</g>
</g>
<!-- Node177&#45;&gt;Node196 -->
<g id="edge24" class="edge"><title>Node177&#45;&gt;Node196</title>
<path fill="none" stroke="midnightblue" d="M43.8876,-457.612C50.1765,-396.087 72.6335,-210.864 118,-175.5 161.465,-141.618 193.75,-148.87 242,-175.5 256.484,-183.494 313.294,-283.861 331.119,-315.805"/>
<polygon fill="midnightblue" stroke="midnightblue" points="40.372,-457.597 42.8713,-467.893 47.3381,-458.286 40.372,-457.597"/>
</g>
<!-- Node197 -->
<g id="node21" class="node"><title>Node197</title>
<g id="a_node21"><a xlink:href="../../d6/d5d/namespacemom__set__visc.html#ae2d9d9f74c1e9aec56257cfad372b0fd" target="_top" xlink:title="mom_set_visc::set_visc\l_register_restarts">
<polygon fill="white" stroke="black" points="288,-185.5 288,-215.5 387,-215.5 387,-185.5 288,-185.5"/>
<text text-anchor="start" x="296" y="-203.5" font-family="Helvetica,sans-Serif" font-size="10.00">mom_set_visc::set_visc</text>
<text text-anchor="middle" x="337.5" y="-192.5" font-family="Helvetica,sans-Serif" font-size="10.00">_register_restarts</text>
</a>
</g>
</g>
<!-- Node177&#45;&gt;Node197 -->
<g id="edge26" class="edge"><title>Node177&#45;&gt;Node197</title>
<path fill="none" stroke="midnightblue" d="M43.4666,-457.615C48.7099,-392.64 68.8959,-188.527 118,-149.5 177.618,-102.117 273.607,-156.847 315.647,-185.362"/>
<polygon fill="midnightblue" stroke="midnightblue" points="39.9645,-457.507 42.6807,-467.748 46.9435,-458.048 39.9645,-457.507"/>
</g>
<!-- Node198 -->
<g id="node22" class="node"><title>Node198</title>
<g id="a_node22"><a xlink:href="../../df/db5/namespaceuser__tracer__example.html#a71efc349b3fbeb6f4cb2155de1f8bbe5" target="_top" xlink:title="user_tracer_example\l::user_register_tracer\l_example">
<polygon fill="white" stroke="black" points="133,-49 133,-90 227,-90 227,-49 133,-49"/>
<text text-anchor="start" x="141" y="-78" font-family="Helvetica,sans-Serif" font-size="10.00">user_tracer_example</text>
<text text-anchor="start" x="141" y="-67" font-family="Helvetica,sans-Serif" font-size="10.00">::user_register_tracer</text>
<text text-anchor="middle" x="180" y="-56" font-family="Helvetica,sans-Serif" font-size="10.00">_example</text>
</a>
</g>
</g>
<!-- Node177&#45;&gt;Node198 -->
<g id="edge28" class="edge"><title>Node177&#45;&gt;Node198</title>
<path fill="none" stroke="midnightblue" d="M43.8806,-457.72C50.7243,-389.123 76.1211,-162.491 118,-104.5 122.003,-98.9569 127.174,-94.1641 132.81,-90.0586"/>
<polygon fill="midnightblue" stroke="midnightblue" points="40.3677,-457.682 42.8795,-467.975 47.3346,-458.362 40.3677,-457.682"/>
</g>
<!-- Node199 -->
<g id="node23" class="node"><title>Node199</title>
<g id="a_node23"><a xlink:href="../../de/d88/namespacemom__coord__initialization.html#a45fb62504679264febbaa0617332ecc1" target="_top" xlink:title="mom_coord_initialization\l::write_vertgrid_file">
<polygon fill="white" stroke="black" points="128,-0.5 128,-30.5 232,-30.5 232,-0.5 128,-0.5"/>
<text text-anchor="start" x="136" y="-18.5" font-family="Helvetica,sans-Serif" font-size="10.00">mom_coord_initialization</text>
<text text-anchor="middle" x="180" y="-7.5" font-family="Helvetica,sans-Serif" font-size="10.00">::write_vertgrid_file</text>
</a>
</g>
</g>
<!-- Node177&#45;&gt;Node199 -->
<g id="edge29" class="edge"><title>Node177&#45;&gt;Node199</title>
<path fill="none" stroke="midnightblue" d="M42.9188,-457.563C46.8312,-380.781 64.4305,-105.221 118,-39.5 120.804,-36.0597 124.17,-33.1106 127.86,-30.5829"/>
<polygon fill="midnightblue" stroke="midnightblue" points="39.4128,-457.603 42.4215,-467.761 46.4045,-457.944 39.4128,-457.603"/>
</g>
<!-- Node180 -->
<g id="node4" class="node"><title>Node180</title>
<g id="a_node4"><a xlink:href="../../de/dbc/MOM__driver_8F90.html#a08fffeb2d8e8acbf9ed4609be6d258c6" target="_top" xlink:title="mom_main">
<polygon fill="white" stroke="black" points="558,-797 558,-816 614,-816 614,-797 558,-797"/>
<text text-anchor="middle" x="586" y="-804" font-family="Helvetica,sans-Serif" font-size="10.00">mom_main</text>
</a>
</g>
</g>
<!-- Node179&#45;&gt;Node180 -->
<g id="edge3" class="edge"><title>Node179&#45;&gt;Node180</title>
<path fill="none" stroke="midnightblue" d="M220.561,-872.134C242.183,-878.796 266.788,-885.914 278,-887.5 330.368,-894.907 345.201,-898.184 397,-887.5 464.525,-873.572 537.672,-834.237 569.142,-816.001"/>
<polygon fill="midnightblue" stroke="midnightblue" points="221.484,-868.756 210.895,-869.127 219.404,-875.44 221.484,-868.756"/>
</g>
<!-- Node181 -->
<g id="node5" class="node"><title>Node181</title>
<g id="a_node5"><a xlink:href="../../d5/dd4/namespaceocean__model__mod.html#ac9dc1795fc4799d6682f462857b42d62" target="_top" xlink:title="ocean_model_mod::update\l_ocean_model">
<polygon fill="white" stroke="black" points="280.5,-847.5 280.5,-877.5 394.5,-877.5 394.5,-847.5 280.5,-847.5"/>
<text text-anchor="start" x="288.5" y="-865.5" font-family="Helvetica,sans-Serif" font-size="10.00">ocean_model_mod::update</text>
<text text-anchor="middle" x="337.5" y="-854.5" font-family="Helvetica,sans-Serif" font-size="10.00">_ocean_model</text>
</a>
</g>
</g>
<!-- Node179&#45;&gt;Node181 -->
<g id="edge4" class="edge"><title>Node179&#45;&gt;Node181</title>
<path fill="none" stroke="midnightblue" d="M252.219,-860.874C261.698,-861.057 271.308,-861.242 280.479,-861.419"/>
<polygon fill="midnightblue" stroke="midnightblue" points="252.077,-857.371 242.011,-860.677 251.942,-864.369 252.077,-857.371"/>
</g>
<!-- Node182&#45;&gt;Node180 -->
<g id="edge6" class="edge"><title>Node182&#45;&gt;Node180</title>
<path fill="none" stroke="midnightblue" d="M489.088,-638.992C511.402,-677.962 562.588,-767.358 579.479,-796.858"/>
<polygon fill="midnightblue" stroke="midnightblue" points="492.082,-637.177 484.076,-630.238 486.008,-640.656 492.082,-637.177"/>
</g>
<!-- Node183&#45;&gt;Node182 -->
<g id="edge8" class="edge"><title>Node183&#45;&gt;Node182</title>
<path fill="none" stroke="midnightblue" d="M382.516,-750.307C387.662,-747.058 392.628,-743.448 397,-739.5 433.878,-706.194 461.657,-652.297 472.046,-630.31"/>
<polygon fill="midnightblue" stroke="midnightblue" points="380.621,-747.36 373.756,-755.429 384.155,-753.403 380.621,-747.36"/>
</g>
<!-- Node184&#45;&gt;Node182 -->
<g id="edge10" class="edge"><title>Node184&#45;&gt;Node182</title>
<path fill="none" stroke="midnightblue" d="M379.221,-683.238C406.949,-665.355 442.044,-642.722 461.6,-630.109"/>
<polygon fill="midnightblue" stroke="midnightblue" points="377.014,-680.497 370.507,-688.858 380.808,-686.379 377.014,-680.497"/>
</g>
<!-- Node186&#45;&gt;Node187 -->
<g id="edge13" class="edge"><title>Node186&#45;&gt;Node187</title>
<path fill="none" stroke="midnightblue" d="M243.65,-632.636C259.097,-630.451 275.371,-628.149 289.904,-626.092"/>
<polygon fill="midnightblue" stroke="midnightblue" points="243.056,-629.185 233.645,-634.052 244.037,-636.116 243.056,-629.185"/>
</g>
<!-- Node189&#45;&gt;Node182 -->
<g id="edge16" class="edge"><title>Node189&#45;&gt;Node182</title>
<path fill="none" stroke="midnightblue" d="M370.695,-553.03C399.342,-571.298 439.956,-597.196 461.585,-610.989"/>
<polygon fill="midnightblue" stroke="midnightblue" points="372.536,-550.053 362.223,-547.628 368.773,-555.956 372.536,-550.053"/>
</g>
<!-- Node196&#45;&gt;Node182 -->
<g id="edge25" class="edge"><title>Node196&#45;&gt;Node182</title>
<path fill="none" stroke="midnightblue" d="M347.445,-344.621C374.117,-401.638 452.461,-569.113 472.031,-610.946"/>
<polygon fill="midnightblue" stroke="midnightblue" points="350.499,-342.89 343.092,-335.315 344.159,-345.856 350.499,-342.89"/>
</g>
<!-- Node197&#45;&gt;Node182 -->
<g id="edge27" class="edge"><title>Node197&#45;&gt;Node182</title>
<path fill="none" stroke="midnightblue" d="M353.92,-224.233C366.945,-245.166 385.297,-276.868 397,-306.5 442.65,-422.089 468.73,-572.116 475.008,-610.979"/>
<polygon fill="midnightblue" stroke="midnightblue" points="356.824,-222.277 348.526,-215.689 350.905,-226.014 356.824,-222.277"/>
</g>
<!-- Node200 -->
<g id="node24" class="node"><title>Node200</title>
<g id="a_node24"><a xlink:href="../../de/d88/namespacemom__coord__initialization.html#a6e2f4c11bc99476ea9c64a9aceac3b81" target="_top" xlink:title="MOM_initialize_coord sets up time&#45;invariant quantities related to MOM6&#39;s vertical coordinate...">
<polygon fill="white" stroke="black" points="285.5,-68.5 285.5,-98.5 389.5,-98.5 389.5,-68.5 285.5,-68.5"/>
<text text-anchor="start" x="293.5" y="-86.5" font-family="Helvetica,sans-Serif" font-size="10.00">mom_coord_initialization</text>
<text text-anchor="middle" x="337.5" y="-75.5" font-family="Helvetica,sans-Serif" font-size="10.00">::mom_initialize_coord</text>
</a>
</g>
</g>
<!-- Node199&#45;&gt;Node200 -->
<g id="edge30" class="edge"><title>Node199&#45;&gt;Node200</title>
<path fill="none" stroke="midnightblue" d="M229.479,-34.2622C233.727,-36.0003 237.949,-37.7619 242,-39.5 263.288,-48.6337 286.913,-59.6337 305.216,-68.3503"/>
<polygon fill="midnightblue" stroke="midnightblue" points="230.777,-31.0117 220.194,-30.5126 228.156,-37.5025 230.777,-31.0117"/>
</g>
<!-- Node200&#45;&gt;Node182 -->
<g id="edge31" class="edge"><title>Node200&#45;&gt;Node182</title>
<path fill="none" stroke="midnightblue" d="M356.983,-106.838C370.153,-124.653 387.196,-150.341 397,-175.5 461.542,-341.126 474.108,-562.022 476.147,-610.732"/>
<polygon fill="midnightblue" stroke="midnightblue" points="359.7,-104.629 350.877,-98.7623 354.116,-108.85 359.7,-104.629"/>
</g>
</g>
</svg>
