<?xml version="1.0" encoding="UTF-8" standalone="no"?>
<!DOCTYPE svg PUBLIC "-//W3C//DTD SVG 1.1//EN"
 "http://www.w3.org/Graphics/SVG/1.1/DTD/svg11.dtd">
<!-- Generated by graphviz version 2.38.0 (20140413.2041)
 -->
<!-- Title: mom_pressureforce::pressureforce_cs Pages: 1 -->
<svg width="290pt" height="117pt"
 viewBox="0.00 0.00 290.00 117.00" xmlns="http://www.w3.org/2000/svg" xmlns:xlink="http://www.w3.org/1999/xlink">
<g id="graph0" class="graph" transform="scale(1 1) rotate(0) translate(4 113)">
<title>mom_pressureforce::pressureforce_cs</title>
<polygon fill="white" stroke="none" points="-4,4 -4,-113 286,-113 286,4 -4,4"/>
<!-- Node1 -->
<g id="node1" class="node"><title>Node1</title>
<polygon fill="#bfbfbf" stroke="black" points="51.5,-0.5 51.5,-30.5 144.5,-30.5 144.5,-0.5 51.5,-0.5"/>
<text text-anchor="start" x="59.5" y="-18.5" font-family="Helvetica,sans-Serif" font-size="10.00">mom_pressureforce::</text>
<text text-anchor="middle" x="98" y="-7.5" font-family="Helvetica,sans-Serif" font-size="10.00">pressureforce_cs</text>
</g>
<!-- Node2 -->
<g id="node2" class="node"><title>Node2</title>
<polygon fill="white" stroke="#bfbfbf" points="0,-84 0,-103 38,-103 38,-84 0,-84"/>
<text text-anchor="middle" x="19" y="-91" font-family="Helvetica,sans-Serif" font-size="10.00">logical</text>
</g>
<!-- Node2&#45;&gt;Node1 -->
<g id="edge1" class="edge"><title>Node2&#45;&gt;Node1</title>
<path fill="none" stroke="#9a32cd" stroke-dasharray="5,2" d="M24.4515,-74.191C27.6533,-65.7731 32.3931,-56.1044 39,-49 45.9285,-41.5497 54.9619,-35.4097 63.8694,-30.55"/>
<polygon fill="#9a32cd" stroke="#9a32cd" points="21.0576,-73.3035 21.1936,-83.8975 27.6937,-75.5309 21.0576,-73.3035"/>
<text text-anchor="middle" x="66.5" y="-52" font-family="Helvetica,sans-Serif" font-size="10.00"> analytic_fv_pgf</text>
</g>
<!-- Node3 -->
<g id="node3" class="node"><title>Node3</title>
<polygon fill="white" stroke="#bfbfbf" points="56,-78.5 56,-108.5 140,-108.5 140,-78.5 56,-78.5"/>
<text text-anchor="start" x="64" y="-96.5" font-family="Helvetica,sans-Serif" font-size="10.00">type(pressureforce</text>
<text text-anchor="middle" x="98" y="-85.5" font-family="Helvetica,sans-Serif" font-size="10.00">_mont_cs), pointer</text>
</g>
<!-- Node3&#45;&gt;Node1 -->
<g id="edge2" class="edge"><title>Node3&#45;&gt;Node1</title>
<path fill="none" stroke="#9a32cd" stroke-dasharray="5,2" d="M98,-68.0898C98,-55.7565 98,-41.2237 98,-30.7309"/>
<polygon fill="#9a32cd" stroke="#9a32cd" points="94.5001,-68.2049 98,-78.205 101.5,-68.205 94.5001,-68.2049"/>
<text text-anchor="middle" x="143.5" y="-52" font-family="Helvetica,sans-Serif" font-size="10.00"> pressureforce_mont_csp</text>
</g>
<!-- Node4 -->
<g id="node4" class="node"><title>Node4</title>
<polygon fill="white" stroke="#bfbfbf" points="170,-78.5 170,-108.5 254,-108.5 254,-78.5 170,-78.5"/>
<text text-anchor="start" x="178" y="-96.5" font-family="Helvetica,sans-Serif" font-size="10.00">type(pressureforce</text>
<text text-anchor="middle" x="212" y="-85.5" font-family="Helvetica,sans-Serif" font-size="10.00">_afv_cs), pointer</text>
</g>
<!-- Node4&#45;&gt;Node1 -->
<g id="edge3" class="edge"><title>Node4&#45;&gt;Node1</title>
<path fill="none" stroke="#9a32cd" stroke-dasharray="5,2" d="M203.992,-68.795C200.613,-61.6473 196.031,-54.3008 190,-49 177.277,-37.8167 160.455,-30.4113 144.679,-25.5386"/>
<polygon fill="#9a32cd" stroke="#9a32cd" points="200.827,-70.2999 207.878,-78.2081 207.298,-67.6292 200.827,-70.2999"/>
<text text-anchor="middle" x="240" y="-52" font-family="Helvetica,sans-Serif" font-size="10.00"> pressureforce_afv_csp</text>
</g>
</g>
</svg>
