<?xml version="1.0" encoding="UTF-8" standalone="no"?>
<!DOCTYPE svg PUBLIC "-//W3C//DTD SVG 1.1//EN"
 "http://www.w3.org/Graphics/SVG/1.1/DTD/svg11.dtd">
<!-- Generated by graphviz version 2.38.0 (20140413.2041)
 -->
<!-- Title: mom_lateral_mixing_coeffs::calc_resoln_function Pages: 1 -->
<!--zoomable 186 -->
<svg id="main" version="1.1" xmlns="http://www.w3.org/2000/svg" xmlns:xlink="http://www.w3.org/1999/xlink" xml:space="preserve" onload="init(evt)">
<style type="text/css"><![CDATA[
.edge:hover path { stroke: red; }
.edge:hover polygon { stroke: red; fill: red; }
]]></style>
<script type="text/javascript"><![CDATA[
var edges = document.getElementsByTagName('g');
if (edges && edges.length) {
  for (var i=0;i<edges.length;i++) {
    if (edges[i].id.substr(0,4)=='edge') {
      edges[i].setAttribute('class','edge');
    }
  }
}
]]></script>
        <defs>
                <circle id="rim" cx="0" cy="0" r="7"/>
                <circle id="rim2" cx="0" cy="0" r="3.5"/>
                <g id="zoomPlus">
                        <use xlink:href="#rim" fill="#404040">
                                <set attributeName="fill" to="#808080" begin="zoomplus.mouseover" end="zoomplus.mouseout"/>
                        </use>
                        <path d="M-4,0h8M0,-4v8" fill="none" stroke="white" stroke-width="1.5" pointer-events="none"/>
                </g>
                <g id="zoomMin">
                        <use xlink:href="#rim" fill="#404040">
                                <set attributeName="fill" to="#808080" begin="zoomminus.mouseover" end="zoomminus.mouseout"/>
                        </use>
                        <path d="M-4,0h8" fill="none" stroke="white" stroke-width="1.5" pointer-events="none"/>
                </g>
                <g id="dirArrow">
                        <path fill="none" stroke="white" stroke-width="1.5" d="M0,-3.0v7 M-2.5,-0.5L0,-3.0L2.5,-0.5"/>
                </g>
               <g id="resetDef">
                       <use xlink:href="#rim2" fill="#404040">
                               <set attributeName="fill" to="#808080" begin="reset.mouseover" end="reset.mouseout"/>
                       </use>
               </g>
        </defs>

<script type="text/javascript">
var viewWidth = 647;
var viewHeight = 186;
var sectionId = 'dynsection-0';
</script>
<script xlink:href="../../svgpan.js"/>
<svg id="graph" class="graph">
<g id="viewport">
<title>mom_lateral_mixing_coeffs::calc_resoln_function</title>
<polygon fill="white" stroke="none" points="-4,4 -4,-182 643,-182 643,4 -4,4"/>
<!-- Node0 -->
<g id="node1" class="node"><title>Node0</title>
<polygon fill="#bfbfbf" stroke="black" points="0,-119 0,-160 88,-160 88,-119 0,-119"/>
<text text-anchor="start" x="8" y="-148" font-family="Helvetica,sans-Serif" font-size="10.00">mom_lateral_mixing</text>
<text text-anchor="start" x="8" y="-137" font-family="Helvetica,sans-Serif" font-size="10.00">_coeffs::calc_resoln</text>
<text text-anchor="middle" x="44" y="-126" font-family="Helvetica,sans-Serif" font-size="10.00">_function</text>
</g>
<!-- Node1 -->
<g id="node2" class="node"><title>Node1</title>
<g id="a_node2"><a xlink:href="../../d0/de6/namespacemom__error__handler.html#a460cfb79a06c29fc249952c2a3710d67" target="_top" xlink:title="mom_error_handler::\lmom_error">
<polygon fill="white" stroke="black" points="405,-147.5 405,-177.5 498,-177.5 498,-147.5 405,-147.5"/>
<text text-anchor="start" x="413" y="-165.5" font-family="Helvetica,sans-Serif" font-size="10.00">mom_error_handler::</text>
<text text-anchor="middle" x="451.5" y="-154.5" font-family="Helvetica,sans-Serif" font-size="10.00">mom_error</text>
</a>
</g>
</g>
<!-- Node0&#45;&gt;Node1 -->
<g id="edge1" class="edge"><title>Node0&#45;&gt;Node1</title>
<path fill="none" stroke="midnightblue" d="M88.3489,-155.172C99.7901,-158.614 112.232,-161.752 124,-163.5 218.203,-177.494 329.387,-172.689 394.688,-167.732"/>
<polygon fill="midnightblue" stroke="midnightblue" points="395.07,-171.213 404.765,-166.939 394.521,-164.235 395.07,-171.213"/>
</g>
<!-- Node3 -->
<g id="node4" class="node"><title>Node3</title>
<g id="a_node4"><a xlink:href="../../d9/d06/namespacemom__diag__mediator.html#a0be5d1cbc6c6f8f63950ce7d9bc6455a" target="_top" xlink:title="mom_diag_mediator::\lquery_averaging_enabled">
<polygon fill="white" stroke="black" points="124,-124.5 124,-154.5 234,-154.5 234,-124.5 124,-124.5"/>
<text text-anchor="start" x="132" y="-142.5" font-family="Helvetica,sans-Serif" font-size="10.00">mom_diag_mediator::</text>
<text text-anchor="middle" x="179" y="-131.5" font-family="Helvetica,sans-Serif" font-size="10.00">query_averaging_enabled</text>
</a>
</g>
</g>
<!-- Node0&#45;&gt;Node3 -->
<g id="edge3" class="edge"><title>Node0&#45;&gt;Node3</title>
<path fill="none" stroke="midnightblue" d="M88.1813,-139.5C96.3589,-139.5 105.075,-139.5 113.741,-139.5"/>
<polygon fill="midnightblue" stroke="midnightblue" points="113.854,-143 123.854,-139.5 113.854,-136 113.854,-143"/>
</g>
<!-- Node4 -->
<g id="node5" class="node"><title>Node4</title>
<g id="a_node5"><a xlink:href="../../dd/d33/namespacemom__wave__speed.html#a90775d734022991a9b49d5ee25210051" target="_top" xlink:title="mom_wave_speed::wave\l_speed">
<polygon fill="white" stroke="black" points="125.5,-75.5 125.5,-105.5 232.5,-105.5 232.5,-75.5 125.5,-75.5"/>
<text text-anchor="start" x="133.5" y="-93.5" font-family="Helvetica,sans-Serif" font-size="10.00">mom_wave_speed::wave</text>
<text text-anchor="middle" x="179" y="-82.5" font-family="Helvetica,sans-Serif" font-size="10.00">_speed</text>
</a>
</g>
</g>
<!-- Node0&#45;&gt;Node4 -->
<g id="edge4" class="edge"><title>Node0&#45;&gt;Node4</title>
<path fill="none" stroke="midnightblue" d="M88.1813,-123.591C100.633,-119.004 114.333,-113.956 127.201,-109.216"/>
<polygon fill="midnightblue" stroke="midnightblue" points="128.671,-112.404 136.844,-105.663 126.251,-105.835 128.671,-112.404"/>
</g>
<!-- Node2 -->
<g id="node3" class="node"><title>Node2</title>
<g id="a_node3"><a xlink:href="../../d0/de6/namespacemom__error__handler.html#ad5f00a53059c72fe2332d1436c80ca71" target="_top" xlink:title="mom_error_handler::\lis_root_pe">
<polygon fill="white" stroke="black" points="546,-147.5 546,-177.5 639,-177.5 639,-147.5 546,-147.5"/>
<text text-anchor="start" x="554" y="-165.5" font-family="Helvetica,sans-Serif" font-size="10.00">mom_error_handler::</text>
<text text-anchor="middle" x="592.5" y="-154.5" font-family="Helvetica,sans-Serif" font-size="10.00">is_root_pe</text>
</a>
</g>
</g>
<!-- Node1&#45;&gt;Node2 -->
<g id="edge2" class="edge"><title>Node1&#45;&gt;Node2</title>
<path fill="none" stroke="midnightblue" d="M498.014,-162.5C510.014,-162.5 523.102,-162.5 535.581,-162.5"/>
<polygon fill="midnightblue" stroke="midnightblue" points="535.884,-166 545.884,-162.5 535.884,-159 535.884,-166"/>
</g>
<!-- Node4&#45;&gt;Node1 -->
<g id="edge5" class="edge"><title>Node4&#45;&gt;Node1</title>
<path fill="none" stroke="midnightblue" d="M232.823,-104.593C245.031,-107.848 257.968,-111.296 270,-114.5 311.959,-125.674 359.41,-138.291 395.127,-147.785"/>
<polygon fill="midnightblue" stroke="midnightblue" points="394.312,-151.19 404.875,-150.376 396.11,-144.425 394.312,-151.19"/>
</g>
<!-- Node5 -->
<g id="node6" class="node"><title>Node5</title>
<g id="a_node6"><a xlink:href="../../d1/d01/namespacemom__eos.html#a204529f8434a0322314e6ce2a9762436" target="_top" xlink:title="Calls the appropriate subroutine to calculate density derivatives for 1&#45;D array inputs. ">
<polygon fill="white" stroke="black" points="270,-75.5 270,-105.5 357,-105.5 357,-75.5 270,-75.5"/>
<text text-anchor="start" x="278" y="-93.5" font-family="Helvetica,sans-Serif" font-size="10.00">mom_eos::calculate</text>
<text text-anchor="middle" x="313.5" y="-82.5" font-family="Helvetica,sans-Serif" font-size="10.00">_density_derivs</text>
</a>
</g>
</g>
<!-- Node4&#45;&gt;Node5 -->
<g id="edge6" class="edge"><title>Node4&#45;&gt;Node5</title>
<path fill="none" stroke="midnightblue" d="M232.748,-90.5C241.566,-90.5 250.718,-90.5 259.541,-90.5"/>
<polygon fill="midnightblue" stroke="midnightblue" points="259.708,-94.0001 269.708,-90.5 259.708,-87.0001 259.708,-94.0001"/>
</g>
<!-- Node5&#45;&gt;Node1 -->
<g id="edge10" class="edge"><title>Node5&#45;&gt;Node1</title>
<path fill="none" stroke="midnightblue" d="M337.751,-105.504C353.141,-115.162 373.928,-127.697 393,-137.5 396.758,-139.431 400.697,-141.352 404.678,-143.22"/>
<polygon fill="midnightblue" stroke="midnightblue" points="403.423,-146.495 413.973,-147.466 406.331,-140.128 403.423,-146.495"/>
</g>
<!-- Node6 -->
<g id="node7" class="node"><title>Node6</title>
<g id="a_node7"><a xlink:href="../../d5/de6/namespacemom__eos__linear.html#a73d8a625582247379092adf1aeeb55e0" target="_top" xlink:title="mom_eos_linear::calculate\l_density_derivs_linear">
<polygon fill="white" stroke="black" points="396,-98.5 396,-128.5 507,-128.5 507,-98.5 396,-98.5"/>
<text text-anchor="start" x="404" y="-116.5" font-family="Helvetica,sans-Serif" font-size="10.00">mom_eos_linear::calculate</text>
<text text-anchor="middle" x="451.5" y="-105.5" font-family="Helvetica,sans-Serif" font-size="10.00">_density_derivs_linear</text>
</a>
</g>
</g>
<!-- Node5&#45;&gt;Node6 -->
<g id="edge7" class="edge"><title>Node5&#45;&gt;Node6</title>
<path fill="none" stroke="midnightblue" d="M357.158,-97.7142C366.293,-99.2591 376.14,-100.924 385.893,-102.574"/>
<polygon fill="midnightblue" stroke="midnightblue" points="385.547,-106.065 395.99,-104.281 386.714,-99.1628 385.547,-106.065"/>
</g>
<!-- Node7 -->
<g id="node8" class="node"><title>Node7</title>
<g id="a_node8"><a xlink:href="../../dd/d6b/namespacemom__eos__unesco.html#af8666837abadea54c016bf59838f96cc" target="_top" xlink:title="mom_eos_unesco::calculate\l_density_derivs_unesco">
<polygon fill="white" stroke="black" points="393,-49.5 393,-79.5 510,-79.5 510,-49.5 393,-49.5"/>
<text text-anchor="start" x="401" y="-67.5" font-family="Helvetica,sans-Serif" font-size="10.00">mom_eos_unesco::calculate</text>
<text text-anchor="middle" x="451.5" y="-56.5" font-family="Helvetica,sans-Serif" font-size="10.00">_density_derivs_unesco</text>
</a>
</g>
</g>
<!-- Node5&#45;&gt;Node7 -->
<g id="edge8" class="edge"><title>Node5&#45;&gt;Node7</title>
<path fill="none" stroke="midnightblue" d="M357.158,-82.3448C365.221,-80.8034 373.838,-79.156 382.456,-77.5084"/>
<polygon fill="midnightblue" stroke="midnightblue" points="383.375,-80.8961 392.54,-75.5805 382.061,-74.0206 383.375,-80.8961"/>
</g>
<!-- Node8 -->
<g id="node9" class="node"><title>Node8</title>
<g id="a_node9"><a xlink:href="../../de/d76/namespacemom__eos__wright.html#ad7748e85ddacb33ad90ec3a9017e6e72" target="_top" xlink:title="mom_eos_wright::calculate\l_density_derivs_wright">
<polygon fill="white" stroke="black" points="395,-0.5 395,-30.5 508,-30.5 508,-0.5 395,-0.5"/>
<text text-anchor="start" x="403" y="-18.5" font-family="Helvetica,sans-Serif" font-size="10.00">mom_eos_wright::calculate</text>
<text text-anchor="middle" x="451.5" y="-7.5" font-family="Helvetica,sans-Serif" font-size="10.00">_density_derivs_wright</text>
</a>
</g>
</g>
<!-- Node5&#45;&gt;Node8 -->
<g id="edge9" class="edge"><title>Node5&#45;&gt;Node8</title>
<path fill="none" stroke="midnightblue" d="M335.523,-75.3486C350.98,-64.5839 372.736,-50.1992 393,-39.5 396.058,-37.8854 399.249,-36.2998 402.492,-34.7611"/>
<polygon fill="midnightblue" stroke="midnightblue" points="404.054,-37.8957 411.702,-30.5639 401.151,-31.5259 404.054,-37.8957"/>
</g>
</g>
</svg>
        <g id="navigator" transform="translate(0 0)" fill="#404254">
                <rect fill="#f2f5e9" fill-opacity="0.5" stroke="#606060" stroke-width=".5" x="0" y="0" width="60" height="60"/>
                <use id="zoomplus" xlink:href="#zoomPlus" x="17" y="9" onmousedown="handleZoom(evt,'in')"/>
                <use id="zoomminus" xlink:href="#zoomMin" x="42" y="9" onmousedown="handleZoom(evt,'out')"/>
                <use id="reset" xlink:href="#resetDef" x="30" y="36" onmousedown="handleReset()"/>
                <g id="arrowUp" xlink:href="#dirArrow" transform="translate(30 24)" onmousedown="handlePan(0,-1)">
                  <use xlink:href="#rim" fill="#404040">
                        <set attributeName="fill" to="#808080" begin="arrowUp.mouseover" end="arrowUp.mouseout"/>
                  </use>
                  <path fill="none" stroke="white" stroke-width="1.5" d="M0,-3.0v7 M-2.5,-0.5L0,-3.0L2.5,-0.5"/>
                </g>
                <g id="arrowRight" xlink:href="#dirArrow" transform="rotate(90) translate(36 -43)" onmousedown="handlePan(1,0)">
                  <use xlink:href="#rim" fill="#404040">
                        <set attributeName="fill" to="#808080" begin="arrowRight.mouseover" end="arrowRight.mouseout"/>
                  </use>
                  <path fill="none" stroke="white" stroke-width="1.5" d="M0,-3.0v7 M-2.5,-0.5L0,-3.0L2.5,-0.5"/>
                </g>
                <g id="arrowDown" xlink:href="#dirArrow" transform="rotate(180) translate(-30 -48)" onmousedown="handlePan(0,1)">
                  <use xlink:href="#rim" fill="#404040">
                        <set attributeName="fill" to="#808080" begin="arrowDown.mouseover" end="arrowDown.mouseout"/>
                  </use>
                  <path fill="none" stroke="white" stroke-width="1.5" d="M0,-3.0v7 M-2.5,-0.5L0,-3.0L2.5,-0.5"/>
                </g>
                <g id="arrowLeft" xlink:href="#dirArrow" transform="rotate(270) translate(-36 17)" onmousedown="handlePan(-1,0)">
                  <use xlink:href="#rim" fill="#404040">
                        <set attributeName="fill" to="#808080" begin="arrowLeft.mouseover" end="arrowLeft.mouseout"/>
                  </use>
                  <path fill="none" stroke="white" stroke-width="1.5" d="M0,-3.0v7 M-2.5,-0.5L0,-3.0L2.5,-0.5"/>
                </g>
        </g>
        <svg viewBox="0 0 15 15" width="100%" height="30px" preserveAspectRatio="xMaxYMin meet">
         <g id="arrow_out" transform="scale(0.3 0.3)">
          <a xlink:href="namespacemom__lateral__mixing__coeffs_af206bc656869b4fc27d4d7e8a15d438e_cgraph_org.svg" target="_base">
           <rect id="button" ry="5" rx="5" y="6" x="6" height="38" width="38"
                fill="#f2f5e9" fill-opacity="0.5" stroke="#606060" stroke-width="1.0"/>
           <path id="arrow"
             d="M 11.500037,31.436501 C 11.940474,20.09759 22.043105,11.32322 32.158766,21.979434 L 37.068811,17.246167 C 37.068811,17.246167 37.088388,32 37.088388,32 L 22.160133,31.978069 C 22.160133,31.978069 26.997745,27.140456 26.997745,27.140456 C 18.528582,18.264221 13.291696,25.230495 11.500037,31.436501 z"
             style="fill:#404040;"/>
          </a>
         </g>
        </svg>
</svg>
