<?xml version="1.0" encoding="UTF-8" standalone="no"?>
<!DOCTYPE svg PUBLIC "-//W3C//DTD SVG 1.1//EN"
 "http://www.w3.org/Graphics/SVG/1.1/DTD/svg11.dtd">
<!-- Generated by graphviz version 2.38.0 (20140413.2041)
 -->
<!-- Title: src Pages: 1 -->
<!--zoomable 148 -->
<svg id="main" version="1.1" xmlns="http://www.w3.org/2000/svg" xmlns:xlink="http://www.w3.org/1999/xlink" xml:space="preserve" onload="init(evt)">
<style type="text/css"><![CDATA[
.edge:hover path { stroke: red; }
.edge:hover polygon { stroke: red; fill: red; }
]]></style>
<script type="text/javascript"><![CDATA[
var edges = document.getElementsByTagName('g');
if (edges && edges.length) {
  for (var i=0;i<edges.length;i++) {
    if (edges[i].id.substr(0,4)=='edge') {
      edges[i].setAttribute('class','edge');
    }
  }
}
]]></script>
        <defs>
                <circle id="rim" cx="0" cy="0" r="7"/>
                <circle id="rim2" cx="0" cy="0" r="3.5"/>
                <g id="zoomPlus">
                        <use xlink:href="#rim" fill="#404040">
                                <set attributeName="fill" to="#808080" begin="zoomplus.mouseover" end="zoomplus.mouseout"/>
                        </use>
                        <path d="M-4,0h8M0,-4v8" fill="none" stroke="white" stroke-width="1.5" pointer-events="none"/>
                </g>
                <g id="zoomMin">
                        <use xlink:href="#rim" fill="#404040">
                                <set attributeName="fill" to="#808080" begin="zoomminus.mouseover" end="zoomminus.mouseout"/>
                        </use>
                        <path d="M-4,0h8" fill="none" stroke="white" stroke-width="1.5" pointer-events="none"/>
                </g>
                <g id="dirArrow">
                        <path fill="none" stroke="white" stroke-width="1.5" d="M0,-3.0v7 M-2.5,-0.5L0,-3.0L2.5,-0.5"/>
                </g>
               <g id="resetDef">
                       <use xlink:href="#rim2" fill="#404040">
                               <set attributeName="fill" to="#808080" begin="reset.mouseover" end="reset.mouseout"/>
                       </use>
               </g>
        </defs>

<script type="text/javascript">
var viewWidth = 798;
var viewHeight = 148;
var sectionId = 'dynsection-0';
</script>
<script xlink:href="svgpan.js"/>
<svg id="graph" class="graph">
<g id="viewport">
<title>src</title>
<polygon fill="white" stroke="none" points="-4,4 -4,-144 794,-144 794,4 -4,4"/>
<g id="clust1" class="cluster"><title>clusterdir_68267d1309a1af8e8297ef4c3efbcdba</title>
<g id="a_clust1"><a xlink:href="dir_68267d1309a1af8e8297ef4c3efbcdba.html" target="_top">
<polygon fill="#eeeeff" stroke="black" points="8,-8 8,-132 782,-132 782,-8 8,-8"/>
</a>
</g>
</g>
<!-- dir_68267d1309a1af8e8297ef4c3efbcdba -->
<g id="node1" class="node"><title>dir_68267d1309a1af8e8297ef4c3efbcdba</title>
<text text-anchor="middle" x="747" y="-103.5" font-family="Helvetica,sans-Serif" font-size="10.00">src</text>
</g>
<!-- dir_46c4efbc2fdd36aaff2d92f0d53bbc5f -->
<g id="node2" class="node"><title>dir_46c4efbc2fdd36aaff2d92f0d53bbc5f</title>
<g id="a_node2"><a xlink:href="dir_46c4efbc2fdd36aaff2d92f0d53bbc5f.html" target="_top" xlink:title="ALE">
<polygon fill="white" stroke="black" points="702,-124 648,-124 648,-88 702,-88 702,-124"/>
<text text-anchor="middle" x="675" y="-103.5" font-family="Helvetica,sans-Serif" font-size="10.00">ALE</text>
</a>
</g>
</g>
<!-- dir_aebb8dcc11953d78e620bbef0b9e2183 -->
<g id="node3" class="node"><title>dir_aebb8dcc11953d78e620bbef0b9e2183</title>
<g id="a_node3"><a xlink:href="dir_aebb8dcc11953d78e620bbef0b9e2183.html" target="_top" xlink:title="core">
<polygon fill="white" stroke="black" points="630,-124 576,-124 576,-88 630,-88 630,-124"/>
<text text-anchor="middle" x="603" y="-103.5" font-family="Helvetica,sans-Serif" font-size="10.00">core</text>
</a>
</g>
</g>
<!-- dir_5752cadd8276ecfd63d9b924f2a4d4b5 -->
<g id="node6" class="node"><title>dir_5752cadd8276ecfd63d9b924f2a4d4b5</title>
<g id="a_node6"><a xlink:href="dir_5752cadd8276ecfd63d9b924f2a4d4b5.html" target="_top" xlink:title="framework">
<polygon fill="white" stroke="black" points="349.5,-52 294.5,-52 294.5,-16 349.5,-16 349.5,-52"/>
<text text-anchor="middle" x="322" y="-31.5" font-family="Helvetica,sans-Serif" font-size="10.00">framework</text>
</a>
</g>
</g>
<!-- dir_aebb8dcc11953d78e620bbef0b9e2183&#45;&gt;dir_5752cadd8276ecfd63d9b924f2a4d4b5 -->
<g id="edge6" class="edge"><title>dir_aebb8dcc11953d78e620bbef0b9e2183&#45;&gt;dir_5752cadd8276ecfd63d9b924f2a4d4b5</title>
<path fill="none" stroke="black" d="M575.75,-91.3444C572.833,-90.1206 569.88,-88.9772 567,-88 495.587,-63.7697 408.597,-48.0582 359.838,-40.4349"/>
<polygon fill="black" stroke="black" points="360.158,-36.9432 349.743,-38.8873 359.097,-43.8624 360.158,-36.9432"/>
<g id="a_edge6&#45;headlabel"><a xlink:href="dir_000013_000016.html" target="_top" xlink:title="12">
<text text-anchor="middle" x="364.142" y="-32.1814" font-family="Helvetica,sans-Serif" font-size="10.00">12</text>
</a>
</g>
</g>
<!-- dir_941f38c4e38886800e591b0dff3cead0 -->
<g id="node4" class="node"><title>dir_941f38c4e38886800e591b0dff3cead0</title>
<g id="a_node4"><a xlink:href="dir_941f38c4e38886800e591b0dff3cead0.html" target="_top" xlink:title="diagnostics">
<polygon fill="white" stroke="black" points="558,-124 502,-124 502,-88 558,-88 558,-124"/>
<text text-anchor="middle" x="530" y="-103.5" font-family="Helvetica,sans-Serif" font-size="10.00">diagnostics</text>
</a>
</g>
</g>
<!-- dir_941f38c4e38886800e591b0dff3cead0&#45;&gt;dir_5752cadd8276ecfd63d9b924f2a4d4b5 -->
<g id="edge3" class="edge"><title>dir_941f38c4e38886800e591b0dff3cead0&#45;&gt;dir_5752cadd8276ecfd63d9b924f2a4d4b5</title>
<path fill="none" stroke="black" d="M501.88,-91.6219C498.904,-90.3441 495.905,-89.1121 493,-88 447.824,-70.7051 394.375,-54.85 359.409,-45.0763"/>
<polygon fill="black" stroke="black" points="360.192,-41.6614 349.621,-42.3642 358.323,-48.4073 360.192,-41.6614"/>
<g id="a_edge3&#45;headlabel"><a xlink:href="dir_000014_000016.html" target="_top" xlink:title="8">
<text text-anchor="middle" x="364.414" y="-37.385" font-family="Helvetica,sans-Serif" font-size="10.00">8</text>
</a>
</g>
</g>
<!-- dir_2e79efa5a200c32482668df7b7b77ba8 -->
<g id="node5" class="node"><title>dir_2e79efa5a200c32482668df7b7b77ba8</title>
<g id="a_node5"><a xlink:href="dir_2e79efa5a200c32482668df7b7b77ba8.html" target="_top" xlink:title="equation_of_state">
<polygon fill="white" stroke="black" points="484,-124 404,-124 404,-88 484,-88 484,-124"/>
<text text-anchor="middle" x="444" y="-103.5" font-family="Helvetica,sans-Serif" font-size="10.00">equation_of_state</text>
</a>
</g>
</g>
<!-- dir_2e79efa5a200c32482668df7b7b77ba8&#45;&gt;dir_5752cadd8276ecfd63d9b924f2a4d4b5 -->
<g id="edge8" class="edge"><title>dir_2e79efa5a200c32482668df7b7b77ba8&#45;&gt;dir_5752cadd8276ecfd63d9b924f2a4d4b5</title>
<path fill="none" stroke="black" d="M414.155,-87.8761C397.456,-78.2942 376.497,-66.2688 358.788,-56.1081"/>
<polygon fill="black" stroke="black" points="360.279,-52.9284 349.864,-50.9874 356.796,-59 360.279,-52.9284"/>
<g id="a_edge8&#45;headlabel"><a xlink:href="dir_000015_000016.html" target="_top" xlink:title="1">
<text text-anchor="middle" x="364.81" y="-49.7546" font-family="Helvetica,sans-Serif" font-size="10.00">1</text>
</a>
</g>
</g>
<!-- dir_5c29a9e3bc5455fc61f46142ad02d86f -->
<g id="node7" class="node"><title>dir_5c29a9e3bc5455fc61f46142ad02d86f</title>
<g id="a_node7"><a xlink:href="dir_5c29a9e3bc5455fc61f46142ad02d86f.html" target="_top" xlink:title="ice_shelf">
<polygon fill="white" stroke="black" points="386,-124 332,-124 332,-88 386,-88 386,-124"/>
<text text-anchor="middle" x="359" y="-103.5" font-family="Helvetica,sans-Serif" font-size="10.00">ice_shelf</text>
</a>
</g>
</g>
<!-- dir_5c29a9e3bc5455fc61f46142ad02d86f&#45;&gt;dir_5752cadd8276ecfd63d9b924f2a4d4b5 -->
<g id="edge5" class="edge"><title>dir_5c29a9e3bc5455fc61f46142ad02d86f&#45;&gt;dir_5752cadd8276ecfd63d9b924f2a4d4b5</title>
<path fill="none" stroke="black" d="M349.854,-87.6966C345.597,-79.6436 340.444,-69.8945 335.734,-60.9824"/>
<polygon fill="black" stroke="black" points="338.808,-59.3097 331.041,-52.1043 332.62,-62.5809 338.808,-59.3097"/>
<g id="a_edge5&#45;headlabel"><a xlink:href="dir_000017_000016.html" target="_top" xlink:title="1">
<text text-anchor="middle" x="342.998" y="-58.6609" font-family="Helvetica,sans-Serif" font-size="10.00">1</text>
</a>
</g>
</g>
<!-- dir_80d9a72a764e34362c8238d6d43b55a0 -->
<g id="node8" class="node"><title>dir_80d9a72a764e34362c8238d6d43b55a0</title>
<g id="a_node8"><a xlink:href="dir_80d9a72a764e34362c8238d6d43b55a0.html" target="_top" xlink:title="initialization">
<polygon fill="white" stroke="black" points="314,-124 258,-124 258,-88 314,-88 314,-124"/>
<text text-anchor="middle" x="286" y="-103.5" font-family="Helvetica,sans-Serif" font-size="10.00">initialization</text>
</a>
</g>
</g>
<!-- dir_80d9a72a764e34362c8238d6d43b55a0&#45;&gt;dir_5752cadd8276ecfd63d9b924f2a4d4b5 -->
<g id="edge4" class="edge"><title>dir_80d9a72a764e34362c8238d6d43b55a0&#45;&gt;dir_5752cadd8276ecfd63d9b924f2a4d4b5</title>
<path fill="none" stroke="black" d="M294.899,-87.6966C298.997,-79.7284 303.949,-70.0995 308.493,-61.2641"/>
<polygon fill="black" stroke="black" points="311.742,-62.598 313.203,-52.1043 305.517,-59.3965 311.742,-62.598"/>
<g id="a_edge4&#45;headlabel"><a xlink:href="dir_000018_000016.html" target="_top" xlink:title="5">
<text text-anchor="middle" x="312.623" y="-64.5931" font-family="Helvetica,sans-Serif" font-size="10.00">5</text>
</a>
</g>
</g>
<!-- dir_8224c134a2c31ae723fb95b3c4123a27 -->
<g id="node9" class="node"><title>dir_8224c134a2c31ae723fb95b3c4123a27</title>
<g id="a_node9"><a xlink:href="dir_8224c134a2c31ae723fb95b3c4123a27.html" target="_top" xlink:title="parameterizations">
<polygon fill="white" stroke="red" points="240,-124 160,-124 160,-88 240,-88 240,-124"/>
<text text-anchor="middle" x="200" y="-103.5" font-family="Helvetica,sans-Serif" font-size="10.00">parameterizations</text>
</a>
</g>
</g>
<!-- dir_8224c134a2c31ae723fb95b3c4123a27&#45;&gt;dir_5752cadd8276ecfd63d9b924f2a4d4b5 -->
<g id="edge7" class="edge"><title>dir_8224c134a2c31ae723fb95b3c4123a27&#45;&gt;dir_5752cadd8276ecfd63d9b924f2a4d4b5</title>
<path fill="none" stroke="black" d="M229.845,-87.8761C246.544,-78.2942 267.503,-66.2688 285.212,-56.1081"/>
<polygon fill="black" stroke="black" points="287.204,-59 294.136,-50.9874 283.721,-52.9284 287.204,-59"/>
<g id="a_edge7&#45;headlabel"><a xlink:href="dir_000019_000016.html" target="_top" xlink:title="24">
<text text-anchor="middle" x="285.5" y="-60.7515" font-family="Helvetica,sans-Serif" font-size="10.00">24</text>
</a>
</g>
</g>
<!-- dir_419569bb6464a79f27b27102966d14b7 -->
<g id="node10" class="node"><title>dir_419569bb6464a79f27b27102966d14b7</title>
<g id="a_node10"><a xlink:href="dir_419569bb6464a79f27b27102966d14b7.html" target="_top" xlink:title="tracer">
<polygon fill="white" stroke="black" points="142,-124 88,-124 88,-88 142,-88 142,-124"/>
<text text-anchor="middle" x="115" y="-103.5" font-family="Helvetica,sans-Serif" font-size="10.00">tracer</text>
</a>
</g>
</g>
<!-- dir_419569bb6464a79f27b27102966d14b7&#45;&gt;dir_5752cadd8276ecfd63d9b924f2a4d4b5 -->
<g id="edge2" class="edge"><title>dir_419569bb6464a79f27b27102966d14b7&#45;&gt;dir_5752cadd8276ecfd63d9b924f2a4d4b5</title>
<path fill="none" stroke="black" d="M142.344,-91.6016C145.242,-90.3277 148.166,-89.1022 151,-88 196.084,-70.4685 249.553,-54.6644 284.549,-44.9672"/>
<polygon fill="black" stroke="black" points="285.629,-48.3001 294.346,-42.2782 283.776,-41.5498 285.629,-48.3001"/>
<g id="a_edge2&#45;headlabel"><a xlink:href="dir_000022_000016.html" target="_top" xlink:title="14">
<text text-anchor="middle" x="282.914" y="-49.4895" font-family="Helvetica,sans-Serif" font-size="10.00">14</text>
</a>
</g>
</g>
<!-- dir_8b0164eb0fb74115683f9812cb2f78f0 -->
<g id="node11" class="node"><title>dir_8b0164eb0fb74115683f9812cb2f78f0</title>
<g id="a_node11"><a xlink:href="dir_8b0164eb0fb74115683f9812cb2f78f0.html" target="_top" xlink:title="user">
<polygon fill="white" stroke="black" points="70,-124 16,-124 16,-88 70,-88 70,-124"/>
<text text-anchor="middle" x="43" y="-103.5" font-family="Helvetica,sans-Serif" font-size="10.00">user</text>
</a>
</g>
</g>
<!-- dir_8b0164eb0fb74115683f9812cb2f78f0&#45;&gt;dir_5752cadd8276ecfd63d9b924f2a4d4b5 -->
<g id="edge1" class="edge"><title>dir_8b0164eb0fb74115683f9812cb2f78f0&#45;&gt;dir_5752cadd8276ecfd63d9b924f2a4d4b5</title>
<path fill="none" stroke="black" d="M70.2517,-91.3494C73.168,-90.1247 76.1209,-88.9796 79,-88 149.835,-63.8984 236.114,-48.1414 284.473,-40.4752"/>
<polygon fill="black" stroke="black" points="285.141,-43.9134 294.485,-38.9182 284.065,-36.9966 285.141,-43.9134"/>
<g id="a_edge1&#45;headlabel"><a xlink:href="dir_000023_000016.html" target="_top" xlink:title="11">
<text text-anchor="middle" x="282.026" y="-44.7713" font-family="Helvetica,sans-Serif" font-size="10.00">11</text>
</a>
</g>
</g>
</g>
</svg>
        <g id="navigator" transform="translate(0 0)" fill="#404254">
                <rect fill="#f2f5e9" fill-opacity="0.5" stroke="#606060" stroke-width=".5" x="0" y="0" width="60" height="60"/>
                <use id="zoomplus" xlink:href="#zoomPlus" x="17" y="9" onmousedown="handleZoom(evt,'in')"/>
                <use id="zoomminus" xlink:href="#zoomMin" x="42" y="9" onmousedown="handleZoom(evt,'out')"/>
                <use id="reset" xlink:href="#resetDef" x="30" y="36" onmousedown="handleReset()"/>
                <g id="arrowUp" xlink:href="#dirArrow" transform="translate(30 24)" onmousedown="handlePan(0,-1)">
                  <use xlink:href="#rim" fill="#404040">
                        <set attributeName="fill" to="#808080" begin="arrowUp.mouseover" end="arrowUp.mouseout"/>
                  </use>
                  <path fill="none" stroke="white" stroke-width="1.5" d="M0,-3.0v7 M-2.5,-0.5L0,-3.0L2.5,-0.5"/>
                </g>
                <g id="arrowRight" xlink:href="#dirArrow" transform="rotate(90) translate(36 -43)" onmousedown="handlePan(1,0)">
                  <use xlink:href="#rim" fill="#404040">
                        <set attributeName="fill" to="#808080" begin="arrowRight.mouseover" end="arrowRight.mouseout"/>
                  </use>
                  <path fill="none" stroke="white" stroke-width="1.5" d="M0,-3.0v7 M-2.5,-0.5L0,-3.0L2.5,-0.5"/>
                </g>
                <g id="arrowDown" xlink:href="#dirArrow" transform="rotate(180) translate(-30 -48)" onmousedown="handlePan(0,1)">
                  <use xlink:href="#rim" fill="#404040">
                        <set attributeName="fill" to="#808080" begin="arrowDown.mouseover" end="arrowDown.mouseout"/>
                  </use>
                  <path fill="none" stroke="white" stroke-width="1.5" d="M0,-3.0v7 M-2.5,-0.5L0,-3.0L2.5,-0.5"/>
                </g>
                <g id="arrowLeft" xlink:href="#dirArrow" transform="rotate(270) translate(-36 17)" onmousedown="handlePan(-1,0)">
                  <use xlink:href="#rim" fill="#404040">
                        <set attributeName="fill" to="#808080" begin="arrowLeft.mouseover" end="arrowLeft.mouseout"/>
                  </use>
                  <path fill="none" stroke="white" stroke-width="1.5" d="M0,-3.0v7 M-2.5,-0.5L0,-3.0L2.5,-0.5"/>
                </g>
        </g>
        <svg viewBox="0 0 15 15" width="100%" height="30px" preserveAspectRatio="xMaxYMin meet">
         <g id="arrow_out" transform="scale(0.3 0.3)">
          <a xlink:href="dir_68267d1309a1af8e8297ef4c3efbcdba_dep_org.svg" target="_base">
           <rect id="button" ry="5" rx="5" y="6" x="6" height="38" width="38"
                fill="#f2f5e9" fill-opacity="0.5" stroke="#606060" stroke-width="1.0"/>
           <path id="arrow"
             d="M 11.500037,31.436501 C 11.940474,20.09759 22.043105,11.32322 32.158766,21.979434 L 37.068811,17.246167 C 37.068811,17.246167 37.088388,32 37.088388,32 L 22.160133,31.978069 C 22.160133,31.978069 26.997745,27.140456 26.997745,27.140456 C 18.528582,18.264221 13.291696,25.230495 11.500037,31.436501 z"
             style="fill:#404040;"/>
          </a>
         </g>
        </svg>
</svg>
