<?xml version="1.0" encoding="UTF-8" standalone="no"?>
<!DOCTYPE svg PUBLIC "-//W3C//DTD SVG 1.1//EN"
 "http://www.w3.org/Graphics/SVG/1.1/DTD/svg11.dtd">
<!-- Generated by graphviz version 2.38.0 (20140413.2041)
 -->
<!-- Title: config_src Pages: 1 -->
<!--zoomable 132 -->
<svg id="main" version="1.1" xmlns="http://www.w3.org/2000/svg" xmlns:xlink="http://www.w3.org/1999/xlink" xml:space="preserve" onload="init(evt)">
<style type="text/css"><![CDATA[
.edge:hover path { stroke: red; }
.edge:hover polygon { stroke: red; fill: red; }
]]></style>
<script type="text/javascript"><![CDATA[
var edges = document.getElementsByTagName('g');
if (edges && edges.length) {
  for (var i=0;i<edges.length;i++) {
    if (edges[i].id.substr(0,4)=='edge') {
      edges[i].setAttribute('class','edge');
    }
  }
}
]]></script>
        <defs>
                <circle id="rim" cx="0" cy="0" r="7"/>
                <circle id="rim2" cx="0" cy="0" r="3.5"/>
                <g id="zoomPlus">
                        <use xlink:href="#rim" fill="#404040">
                                <set attributeName="fill" to="#808080" begin="zoomplus.mouseover" end="zoomplus.mouseout"/>
                        </use>
                        <path d="M-4,0h8M0,-4v8" fill="none" stroke="white" stroke-width="1.5" pointer-events="none"/>
                </g>
                <g id="zoomMin">
                        <use xlink:href="#rim" fill="#404040">
                                <set attributeName="fill" to="#808080" begin="zoomminus.mouseover" end="zoomminus.mouseout"/>
                        </use>
                        <path d="M-4,0h8" fill="none" stroke="white" stroke-width="1.5" pointer-events="none"/>
                </g>
                <g id="dirArrow">
                        <path fill="none" stroke="white" stroke-width="1.5" d="M0,-3.0v7 M-2.5,-0.5L0,-3.0L2.5,-0.5"/>
                </g>
               <g id="resetDef">
                       <use xlink:href="#rim2" fill="#404040">
                               <set attributeName="fill" to="#808080" begin="reset.mouseover" end="reset.mouseout"/>
                       </use>
               </g>
        </defs>

<script type="text/javascript">
var viewWidth = 596;
var viewHeight = 132;
var sectionId = 'dynsection-0';
</script>
<script xlink:href="svgpan.js"/>
<svg id="graph" class="graph">
<g id="viewport">
<title>config_src</title>
<polygon fill="white" stroke="none" points="-4,4 -4,-128 592,-128 592,4 -4,4"/>
<g id="clust1" class="cluster"><title>clusterdir_bbbeac63f53ec5ea699fa4cbaa8c4afb</title>
<g id="a_clust1"><a xlink:href="dir_bbbeac63f53ec5ea699fa4cbaa8c4afb.html" target="_top">
<polygon fill="#eeeeff" stroke="black" points="8,-64 8,-116 580,-116 580,-64 8,-64"/>
</a>
</g>
</g>
<!-- dir_bbbeac63f53ec5ea699fa4cbaa8c4afb -->
<g id="node1" class="node"><title>dir_bbbeac63f53ec5ea699fa4cbaa8c4afb</title>
<text text-anchor="middle" x="545" y="-87.5" font-family="Helvetica,sans-Serif" font-size="10.00">config_src</text>
</g>
<!-- dir_a19e664d9f2d0f5526bad3c5f3c3e9c4 -->
<g id="node2" class="node"><title>dir_a19e664d9f2d0f5526bad3c5f3c3e9c4</title>
<g id="a_node2"><a xlink:href="dir_a19e664d9f2d0f5526bad3c5f3c3e9c4.html" target="_top" xlink:title="coupled_driver">
<polygon fill="white" stroke="black" points="499.5,-108 430.5,-108 430.5,-72 499.5,-72 499.5,-108"/>
<text text-anchor="middle" x="465" y="-87.5" font-family="Helvetica,sans-Serif" font-size="10.00">coupled_driver</text>
</a>
</g>
</g>
<!-- dir_68267d1309a1af8e8297ef4c3efbcdba -->
<g id="node8" class="node"><title>dir_68267d1309a1af8e8297ef4c3efbcdba</title>
<g id="a_node8"><a xlink:href="dir_68267d1309a1af8e8297ef4c3efbcdba.html" target="_top" xlink:title="src">
<polygon fill="white" stroke="red" points="276,-36 222,-36 222,-0 276,-0 276,-36"/>
<text text-anchor="middle" x="249" y="-15.5" font-family="Helvetica,sans-Serif" font-size="10.00">src</text>
</a>
</g>
</g>
<!-- dir_a19e664d9f2d0f5526bad3c5f3c3e9c4&#45;&gt;dir_68267d1309a1af8e8297ef4c3efbcdba -->
<g id="edge6" class="edge"><title>dir_a19e664d9f2d0f5526bad3c5f3c3e9c4&#45;&gt;dir_68267d1309a1af8e8297ef4c3efbcdba</title>
<path fill="none" stroke="black" d="M437.618,-71.9964C432.233,-69.0699 426.534,-66.2509 421,-64 376.11,-45.7421 321.588,-32.9534 286.133,-25.7927"/>
<polygon fill="black" stroke="black" points="286.706,-22.3385 276.218,-23.8368 285.351,-29.2061 286.706,-22.3385"/>
<g id="a_edge6&#45;headlabel"><a xlink:href="dir_000001_000011.html" target="_top" xlink:title="2">
<text text-anchor="middle" x="290.782" y="-17.7485" font-family="Helvetica,sans-Serif" font-size="10.00">2</text>
</a>
</g>
</g>
<!-- dir_ace7d7e60715266d6e5872450ebbdac1 -->
<g id="node3" class="node"><title>dir_ace7d7e60715266d6e5872450ebbdac1</title>
<g id="a_node3"><a xlink:href="dir_ace7d7e60715266d6e5872450ebbdac1.html" target="_top" xlink:title="dynamic">
<polygon fill="white" stroke="black" points="412,-108 358,-108 358,-72 412,-72 412,-108"/>
<text text-anchor="middle" x="385" y="-87.5" font-family="Helvetica,sans-Serif" font-size="10.00">dynamic</text>
</a>
</g>
</g>
<!-- dir_ace7d7e60715266d6e5872450ebbdac1&#45;&gt;dir_68267d1309a1af8e8297ef4c3efbcdba -->
<g id="edge2" class="edge"><title>dir_ace7d7e60715266d6e5872450ebbdac1&#45;&gt;dir_68267d1309a1af8e8297ef4c3efbcdba</title>
<path fill="none" stroke="black" d="M361.777,-71.9533C357.608,-69.1599 353.238,-66.3983 349,-64 328.73,-52.5307 304.998,-41.7471 285.741,-33.6129"/>
<polygon fill="black" stroke="black" points="286.979,-30.3372 276.402,-29.7264 284.289,-36.7999 286.979,-30.3372"/>
<g id="a_edge2&#45;headlabel"><a xlink:href="dir_000004_000011.html" target="_top" xlink:title="1">
<text text-anchor="middle" x="291.388" y="-26.5969" font-family="Helvetica,sans-Serif" font-size="10.00">1</text>
</a>
</g>
</g>
<!-- dir_67fed18fa7f74247fef50848ceb46cee -->
<g id="node4" class="node"><title>dir_67fed18fa7f74247fef50848ceb46cee</title>
<g id="a_node4"><a xlink:href="dir_67fed18fa7f74247fef50848ceb46cee.html" target="_top" xlink:title="dynamic_symmetric">
<polygon fill="white" stroke="black" points="340,-108 254,-108 254,-72 340,-72 340,-108"/>
<text text-anchor="middle" x="297" y="-87.5" font-family="Helvetica,sans-Serif" font-size="10.00">dynamic_symmetric</text>
</a>
</g>
</g>
<!-- dir_67fed18fa7f74247fef50848ceb46cee&#45;&gt;dir_68267d1309a1af8e8297ef4c3efbcdba -->
<g id="edge4" class="edge"><title>dir_67fed18fa7f74247fef50848ceb46cee&#45;&gt;dir_68267d1309a1af8e8297ef4c3efbcdba</title>
<path fill="none" stroke="black" d="M285.135,-71.6966C279.497,-63.4741 272.646,-53.4832 266.431,-44.4207"/>
<polygon fill="black" stroke="black" points="269.271,-42.3723 260.729,-36.1043 263.497,-46.331 269.271,-42.3723"/>
<g id="a_edge4&#45;headlabel"><a xlink:href="dir_000005_000011.html" target="_top" xlink:title="1">
<text text-anchor="middle" x="273.645" y="-41.2312" font-family="Helvetica,sans-Serif" font-size="10.00">1</text>
</a>
</g>
</g>
<!-- dir_cc1172264cc124e8fb521e3735251027 -->
<g id="node5" class="node"><title>dir_cc1172264cc124e8fb521e3735251027</title>
<g id="a_node5"><a xlink:href="dir_cc1172264cc124e8fb521e3735251027.html" target="_top" xlink:title="ice_solo_driver">
<polygon fill="white" stroke="black" points="236,-108 166,-108 166,-72 236,-72 236,-108"/>
<text text-anchor="middle" x="201" y="-87.5" font-family="Helvetica,sans-Serif" font-size="10.00">ice_solo_driver</text>
</a>
</g>
</g>
<!-- dir_cc1172264cc124e8fb521e3735251027&#45;&gt;dir_68267d1309a1af8e8297ef4c3efbcdba -->
<g id="edge3" class="edge"><title>dir_cc1172264cc124e8fb521e3735251027&#45;&gt;dir_68267d1309a1af8e8297ef4c3efbcdba</title>
<path fill="none" stroke="black" d="M212.865,-71.6966C218.503,-63.4741 225.354,-53.4832 231.569,-44.4207"/>
<polygon fill="black" stroke="black" points="234.503,-46.331 237.271,-36.1043 228.729,-42.3723 234.503,-46.331"/>
<g id="a_edge3&#45;headlabel"><a xlink:href="dir_000002_000011.html" target="_top" xlink:title="3">
<text text-anchor="middle" x="234.811" y="-48.4012" font-family="Helvetica,sans-Serif" font-size="10.00">3</text>
</a>
</g>
</g>
<!-- dir_ccbaa27a715db0631841e4cd1db1cd75 -->
<g id="node6" class="node"><title>dir_ccbaa27a715db0631841e4cd1db1cd75</title>
<g id="a_node6"><a xlink:href="dir_ccbaa27a715db0631841e4cd1db1cd75.html" target="_top" xlink:title="solo_driver">
<polygon fill="white" stroke="black" points="148,-108 92,-108 92,-72 148,-72 148,-108"/>
<text text-anchor="middle" x="120" y="-87.5" font-family="Helvetica,sans-Serif" font-size="10.00">solo_driver</text>
</a>
</g>
</g>
<!-- dir_ccbaa27a715db0631841e4cd1db1cd75&#45;&gt;dir_68267d1309a1af8e8297ef4c3efbcdba -->
<g id="edge1" class="edge"><title>dir_ccbaa27a715db0631841e4cd1db1cd75&#45;&gt;dir_68267d1309a1af8e8297ef4c3efbcdba</title>
<path fill="none" stroke="black" d="M144.373,-71.8362C148.524,-69.1149 152.84,-66.4073 157,-64 174.919,-53.6311 195.571,-43.3851 212.761,-35.2953"/>
<polygon fill="black" stroke="black" points="214.326,-38.4276 221.916,-31.0357 211.373,-32.0809 214.326,-38.4276"/>
<g id="a_edge1&#45;headlabel"><a xlink:href="dir_000003_000011.html" target="_top" xlink:title="4">
<text text-anchor="middle" x="212.265" y="-40.0182" font-family="Helvetica,sans-Serif" font-size="10.00">4</text>
</a>
</g>
</g>
<!-- dir_6c6e2340d51f66750cad17382fc63a45 -->
<g id="node7" class="node"><title>dir_6c6e2340d51f66750cad17382fc63a45</title>
<g id="a_node7"><a xlink:href="dir_6c6e2340d51f66750cad17382fc63a45.html" target="_top" xlink:title="unit_drivers">
<polygon fill="white" stroke="black" points="74,-108 16,-108 16,-72 74,-72 74,-108"/>
<text text-anchor="middle" x="45" y="-87.5" font-family="Helvetica,sans-Serif" font-size="10.00">unit_drivers</text>
</a>
</g>
</g>
<!-- dir_6c6e2340d51f66750cad17382fc63a45&#45;&gt;dir_68267d1309a1af8e8297ef4c3efbcdba -->
<g id="edge5" class="edge"><title>dir_6c6e2340d51f66750cad17382fc63a45&#45;&gt;dir_68267d1309a1af8e8297ef4c3efbcdba</title>
<path fill="none" stroke="black" d="M68.4597,-71.9236C73.128,-69.0038 78.1041,-66.2059 83,-64 125.312,-44.9362 177.433,-32.4337 211.858,-25.5523"/>
<polygon fill="black" stroke="black" points="212.792,-28.9364 221.942,-23.5961 211.459,-22.0645 212.792,-28.9364"/>
<g id="a_edge5&#45;headlabel"><a xlink:href="dir_000006_000011.html" target="_top" xlink:title="1">
<text text-anchor="middle" x="209.804" y="-29.9082" font-family="Helvetica,sans-Serif" font-size="10.00">1</text>
</a>
</g>
</g>
</g>
</svg>
        <g id="navigator" transform="translate(0 0)" fill="#404254">
                <rect fill="#f2f5e9" fill-opacity="0.5" stroke="#606060" stroke-width=".5" x="0" y="0" width="60" height="60"/>
                <use id="zoomplus" xlink:href="#zoomPlus" x="17" y="9" onmousedown="handleZoom(evt,'in')"/>
                <use id="zoomminus" xlink:href="#zoomMin" x="42" y="9" onmousedown="handleZoom(evt,'out')"/>
                <use id="reset" xlink:href="#resetDef" x="30" y="36" onmousedown="handleReset()"/>
                <g id="arrowUp" xlink:href="#dirArrow" transform="translate(30 24)" onmousedown="handlePan(0,-1)">
                  <use xlink:href="#rim" fill="#404040">
                        <set attributeName="fill" to="#808080" begin="arrowUp.mouseover" end="arrowUp.mouseout"/>
                  </use>
                  <path fill="none" stroke="white" stroke-width="1.5" d="M0,-3.0v7 M-2.5,-0.5L0,-3.0L2.5,-0.5"/>
                </g>
                <g id="arrowRight" xlink:href="#dirArrow" transform="rotate(90) translate(36 -43)" onmousedown="handlePan(1,0)">
                  <use xlink:href="#rim" fill="#404040">
                        <set attributeName="fill" to="#808080" begin="arrowRight.mouseover" end="arrowRight.mouseout"/>
                  </use>
                  <path fill="none" stroke="white" stroke-width="1.5" d="M0,-3.0v7 M-2.5,-0.5L0,-3.0L2.5,-0.5"/>
                </g>
                <g id="arrowDown" xlink:href="#dirArrow" transform="rotate(180) translate(-30 -48)" onmousedown="handlePan(0,1)">
                  <use xlink:href="#rim" fill="#404040">
                        <set attributeName="fill" to="#808080" begin="arrowDown.mouseover" end="arrowDown.mouseout"/>
                  </use>
                  <path fill="none" stroke="white" stroke-width="1.5" d="M0,-3.0v7 M-2.5,-0.5L0,-3.0L2.5,-0.5"/>
                </g>
                <g id="arrowLeft" xlink:href="#dirArrow" transform="rotate(270) translate(-36 17)" onmousedown="handlePan(-1,0)">
                  <use xlink:href="#rim" fill="#404040">
                        <set attributeName="fill" to="#808080" begin="arrowLeft.mouseover" end="arrowLeft.mouseout"/>
                  </use>
                  <path fill="none" stroke="white" stroke-width="1.5" d="M0,-3.0v7 M-2.5,-0.5L0,-3.0L2.5,-0.5"/>
                </g>
        </g>
        <svg viewBox="0 0 15 15" width="100%" height="30px" preserveAspectRatio="xMaxYMin meet">
         <g id="arrow_out" transform="scale(0.3 0.3)">
          <a xlink:href="dir_bbbeac63f53ec5ea699fa4cbaa8c4afb_dep_org.svg" target="_base">
           <rect id="button" ry="5" rx="5" y="6" x="6" height="38" width="38"
                fill="#f2f5e9" fill-opacity="0.5" stroke="#606060" stroke-width="1.0"/>
           <path id="arrow"
             d="M 11.500037,31.436501 C 11.940474,20.09759 22.043105,11.32322 32.158766,21.979434 L 37.068811,17.246167 C 37.068811,17.246167 37.088388,32 37.088388,32 L 22.160133,31.978069 C 22.160133,31.978069 26.997745,27.140456 26.997745,27.140456 C 18.528582,18.264221 13.291696,25.230495 11.500037,31.436501 z"
             style="fill:#404040;"/>
          </a>
         </g>
        </svg>
</svg>
