<?xml version="1.0" encoding="UTF-8" standalone="no"?>
<!DOCTYPE svg PUBLIC "-//W3C//DTD SVG 1.1//EN"
 "http://www.w3.org/Graphics/SVG/1.1/DTD/svg11.dtd">
<!-- Generated by graphviz version 2.38.0 (20140413.2041)
 -->
<!-- Title: Graph Legend Pages: 1 -->
<svg width="450pt" height="159pt"
 viewBox="0.00 0.00 449.50 159.00" xmlns="http://www.w3.org/2000/svg" xmlns:xlink="http://www.w3.org/1999/xlink">
<g id="graph0" class="graph" transform="scale(1 1) rotate(0) translate(4 155)">
<title>Graph Legend</title>
<polygon fill="white" stroke="none" points="-4,4 -4,-155 445.5,-155 445.5,4 -4,4"/>
<!-- Node9 -->
<g id="node1" class="node"><title>Node9</title>
<polygon fill="#bfbfbf" stroke="black" points="256,-19 208,-19 208,-0 256,-0 256,-19"/>
<text text-anchor="middle" x="232" y="-7" font-family="Helvetica,sans-Serif" font-size="10.00">Inherited</text>
</g>
<!-- Node10 -->
<g id="node2" class="node"><title>Node10</title>
<g id="a_node2"><a xlink:href="$classPublicBase.html" xlink:title="PublicBase">
<polygon fill="none" stroke="black" points="56,-85 0,-85 0,-66 56,-66 56,-85"/>
<text text-anchor="middle" x="28" y="-73" font-family="Helvetica,sans-Serif" font-size="10.00">PublicBase</text>
</a>
</g>
</g>
<!-- Node10&#45;&gt;Node9 -->
<g id="edge1" class="edge"><title>Node10&#45;&gt;Node9</title>
<path fill="none" stroke="midnightblue" d="M65.2409,-62.8166C106.703,-49.809 172.508,-29.1643 207.78,-18.0984"/>
<polygon fill="midnightblue" stroke="midnightblue" points="64.0061,-59.5357 55.5123,-65.8687 66.1015,-66.2147 64.0061,-59.5357"/>
</g>
<!-- Node11 -->
<g id="node3" class="node"><title>Node11</title>
<g id="a_node3"><a xlink:href="$classTruncated.html" xlink:title="Truncated">
<polygon fill="none" stroke="red" points="54.5,-151 1.5,-151 1.5,-132 54.5,-132 54.5,-151"/>
<text text-anchor="middle" x="28" y="-139" font-family="Helvetica,sans-Serif" font-size="10.00">Truncated</text>
</a>
</g>
</g>
<!-- Node11&#45;&gt;Node10 -->
<g id="edge2" class="edge"><title>Node11&#45;&gt;Node10</title>
<path fill="none" stroke="midnightblue" d="M28,-121.584C28,-109.625 28,-94.7211 28,-85.4052"/>
<polygon fill="midnightblue" stroke="midnightblue" points="24.5001,-121.869 28,-131.869 31.5001,-121.869 24.5001,-121.869"/>
</g>
<!-- Node13 -->
<g id="node4" class="node"><title>Node13</title>
<g id="a_node4"><a xlink:href="$classProtectedBase.html" xlink:title="ProtectedBase">
<polygon fill="none" stroke="black" points="143.5,-85 74.5,-85 74.5,-66 143.5,-66 143.5,-85"/>
<text text-anchor="middle" x="109" y="-73" font-family="Helvetica,sans-Serif" font-size="10.00">ProtectedBase</text>
</a>
</g>
</g>
<!-- Node13&#45;&gt;Node9 -->
<g id="edge3" class="edge"><title>Node13&#45;&gt;Node9</title>
<path fill="none" stroke="darkgreen" d="M134.571,-61.195C158.802,-48.5866 194.495,-30.0148 215.282,-19.199"/>
<polygon fill="darkgreen" stroke="darkgreen" points="132.844,-58.148 125.588,-65.8687 136.075,-64.3577 132.844,-58.148"/>
</g>
<!-- Node14 -->
<g id="node5" class="node"><title>Node14</title>
<g id="a_node5"><a xlink:href="$classPrivateBase.html" xlink:title="PrivateBase">
<polygon fill="none" stroke="black" points="220.5,-85 161.5,-85 161.5,-66 220.5,-66 220.5,-85"/>
<text text-anchor="middle" x="191" y="-73" font-family="Helvetica,sans-Serif" font-size="10.00">PrivateBase</text>
</a>
</g>
</g>
<!-- Node14&#45;&gt;Node9 -->
<g id="edge4" class="edge"><title>Node14&#45;&gt;Node9</title>
<path fill="none" stroke="#8b1a1a" d="M201.949,-57.4086C209.785,-45.1764 220.019,-29.2013 226.295,-19.4052"/>
<polygon fill="#8b1a1a" stroke="#8b1a1a" points="198.977,-55.5603 196.529,-65.8687 204.871,-59.3363 198.977,-55.5603"/>
</g>
<!-- Node15 -->
<g id="node6" class="node"><title>Node15</title>
<polygon fill="none" stroke="#bfbfbf" points="309.5,-85 238.5,-85 238.5,-66 309.5,-66 309.5,-85"/>
<text text-anchor="middle" x="274" y="-73" font-family="Helvetica,sans-Serif" font-size="10.00">Undocumented</text>
</g>
<!-- Node15&#45;&gt;Node9 -->
<g id="edge5" class="edge"><title>Node15&#45;&gt;Node9</title>
<path fill="none" stroke="midnightblue" d="M262.784,-57.4086C254.756,-45.1764 244.273,-29.2013 237.844,-19.4052"/>
<polygon fill="midnightblue" stroke="midnightblue" points="259.923,-59.4285 268.336,-65.8687 265.775,-55.5879 259.923,-59.4285"/>
</g>
<!-- Node16 -->
<g id="node7" class="node"><title>Node16</title>
<g id="a_node7"><a xlink:href="$classTempl.html" xlink:title="Templ&lt; int &gt;">
<polygon fill="none" stroke="black" points="388.5,-85 327.5,-85 327.5,-66 388.5,-66 388.5,-85"/>
<text text-anchor="middle" x="358" y="-73" font-family="Helvetica,sans-Serif" font-size="10.00">Templ&lt; int &gt;</text>
</a>
</g>
</g>
<!-- Node16&#45;&gt;Node9 -->
<g id="edge6" class="edge"><title>Node16&#45;&gt;Node9</title>
<path fill="none" stroke="midnightblue" d="M331.806,-61.195C306.983,-48.5866 270.42,-30.0148 249.126,-19.199"/>
<polygon fill="midnightblue" stroke="midnightblue" points="330.506,-64.4605 341.007,-65.8687 333.676,-58.2194 330.506,-64.4605"/>
</g>
<!-- Node17 -->
<g id="node8" class="node"><title>Node17</title>
<g id="a_node8"><a xlink:href="$classTempl.html" xlink:title="Templ&lt; T &gt;">
<polygon fill="none" stroke="black" points="387,-151 329,-151 329,-132 387,-132 387,-151"/>
<text text-anchor="middle" x="358" y="-139" font-family="Helvetica,sans-Serif" font-size="10.00">Templ&lt; T &gt;</text>
</a>
</g>
</g>
<!-- Node17&#45;&gt;Node16 -->
<g id="edge7" class="edge"><title>Node17&#45;&gt;Node16</title>
<path fill="none" stroke="orange" stroke-dasharray="5,2" d="M358,-121.584C358,-109.625 358,-94.7211 358,-85.4052"/>
<polygon fill="orange" stroke="orange" points="354.5,-121.869 358,-131.869 361.5,-121.869 354.5,-121.869"/>
<text text-anchor="middle" x="369" y="-106" font-family="Helvetica,sans-Serif" font-size="10.00">&lt; int &gt;</text>
</g>
<!-- Node18 -->
<g id="node9" class="node"><title>Node18</title>
<g id="a_node9"><a xlink:href="$classUsed.html" xlink:title="Used">
<polygon fill="none" stroke="black" points="441.5,-85 406.5,-85 406.5,-66 441.5,-66 441.5,-85"/>
<text text-anchor="middle" x="424" y="-73" font-family="Helvetica,sans-Serif" font-size="10.00">Used</text>
</a>
</g>
</g>
<!-- Node18&#45;&gt;Node9 -->
<g id="edge8" class="edge"><title>Node18&#45;&gt;Node9</title>
<path fill="none" stroke="#9a32cd" stroke-dasharray="5,2" d="M396.501,-65.3338C358.898,-52.7994 292.027,-30.509 256.22,-18.5732"/>
<polygon fill="#9a32cd" stroke="#9a32cd" points="395.688,-68.7518 406.281,-68.5938 397.901,-62.111 395.688,-68.7518"/>
<text text-anchor="middle" x="364.5" y="-40" font-family="Helvetica,sans-Serif" font-size="10.00">m_usedClass</text>
</g>
</g>
</svg>
