<?xml version="1.0" encoding="UTF-8" standalone="no"?>
<!DOCTYPE svg PUBLIC "-//W3C//DTD SVG 1.1//EN"
 "http://www.w3.org/Graphics/SVG/1.1/DTD/svg11.dtd">
<!-- Generated by graphviz version 2.38.0 (20140413.2041)
 -->
<!-- Title: mom_coms::reproducing_sum_2d Pages: 1 -->
<svg width="522pt" height="306pt"
 viewBox="0.00 0.00 522.00 306.00" xmlns="http://www.w3.org/2000/svg" xmlns:xlink="http://www.w3.org/1999/xlink">
<g id="graph0" class="graph" transform="scale(1 1) rotate(0) translate(4 302)">
<title>mom_coms::reproducing_sum_2d</title>
<polygon fill="white" stroke="none" points="-4,4 -4,-302 518,-302 518,4 -4,4"/>
<!-- Node91 -->
<g id="node1" class="node"><title>Node91</title>
<polygon fill="#bfbfbf" stroke="black" points="0,-128 0,-158 105,-158 105,-128 0,-128"/>
<text text-anchor="start" x="8" y="-146" font-family="Helvetica,sans-Serif" font-size="10.00">mom_coms::reproducing</text>
<text text-anchor="middle" x="52.5" y="-135" font-family="Helvetica,sans-Serif" font-size="10.00">_sum_2d</text>
</g>
<!-- Node92 -->
<g id="node2" class="node"><title>Node92</title>
<g id="a_node2"><a xlink:href="../../d7/d0a/namespacemom__coms.html#a3fe107391eb9d2c199eb09e451f4dbb2" target="_top" xlink:title="mom_coms::carry_overflow">
<polygon fill="white" stroke="black" points="141,-278.5 141,-297.5 256,-297.5 256,-278.5 141,-278.5"/>
<text text-anchor="middle" x="198.5" y="-285.5" font-family="Helvetica,sans-Serif" font-size="10.00">mom_coms::carry_overflow</text>
</a>
</g>
</g>
<!-- Node91&#45;&gt;Node92 -->
<g id="edge1" class="edge"><title>Node91&#45;&gt;Node92</title>
<path fill="none" stroke="midnightblue" d="M60.0722,-158.163C72.2391,-184.501 100.75,-238.775 141,-269 143.485,-270.866 146.165,-272.556 148.959,-274.085"/>
<polygon fill="midnightblue" stroke="midnightblue" points="147.639,-277.333 158.176,-278.441 150.631,-271.004 147.639,-277.333"/>
</g>
<!-- Node93 -->
<g id="node3" class="node"><title>Node93</title>
<g id="a_node3"><a xlink:href="../../d7/d0a/namespacemom__coms.html#a8228dee8e8e72652d5a58f483f0dc661" target="_top" xlink:title="mom_coms::increment_ints">
<polygon fill="white" stroke="black" points="141.5,-240.5 141.5,-259.5 255.5,-259.5 255.5,-240.5 141.5,-240.5"/>
<text text-anchor="middle" x="198.5" y="-247.5" font-family="Helvetica,sans-Serif" font-size="10.00">mom_coms::increment_ints</text>
</a>
</g>
</g>
<!-- Node91&#45;&gt;Node93 -->
<g id="edge2" class="edge"><title>Node91&#45;&gt;Node93</title>
<path fill="none" stroke="midnightblue" d="M64.8826,-158.209C80.183,-177.664 109.165,-211.204 141,-231 144.316,-233.062 147.882,-234.929 151.553,-236.614"/>
<polygon fill="midnightblue" stroke="midnightblue" points="150.229,-239.854 160.808,-240.433 152.899,-233.383 150.229,-239.854"/>
</g>
<!-- Node94 -->
<g id="node4" class="node"><title>Node94</title>
<g id="a_node4"><a xlink:href="../../d7/d0a/namespacemom__coms.html#aebe91f9c9bd6de5e9523c1f663e8a04d" target="_top" xlink:title="mom_coms::increment\l_ints_faster">
<polygon fill="white" stroke="black" points="149.5,-191 149.5,-221 247.5,-221 247.5,-191 149.5,-191"/>
<text text-anchor="start" x="157.5" y="-209" font-family="Helvetica,sans-Serif" font-size="10.00">mom_coms::increment</text>
<text text-anchor="middle" x="198.5" y="-198" font-family="Helvetica,sans-Serif" font-size="10.00">_ints_faster</text>
</a>
</g>
</g>
<!-- Node91&#45;&gt;Node94 -->
<g id="edge3" class="edge"><title>Node91&#45;&gt;Node94</title>
<path fill="none" stroke="midnightblue" d="M87.9916,-158.09C107.618,-166.676 132.402,-177.52 153.427,-186.718"/>
<polygon fill="midnightblue" stroke="midnightblue" points="152.226,-190.013 162.791,-190.815 155.032,-183.6 152.226,-190.013"/>
</g>
<!-- Node95 -->
<g id="node5" class="node"><title>Node95</title>
<g id="a_node5"><a xlink:href="../../d7/d0a/namespacemom__coms.html#a24ac5b7cc37b1498f23b61eea03fb8c3" target="_top" xlink:title="mom_coms::ints_to_real">
<polygon fill="white" stroke="black" points="146.5,-152.5 146.5,-171.5 250.5,-171.5 250.5,-152.5 146.5,-152.5"/>
<text text-anchor="middle" x="198.5" y="-159.5" font-family="Helvetica,sans-Serif" font-size="10.00">mom_coms::ints_to_real</text>
</a>
</g>
</g>
<!-- Node91&#45;&gt;Node95 -->
<g id="edge4" class="edge"><title>Node91&#45;&gt;Node95</title>
<path fill="none" stroke="midnightblue" d="M105.081,-149.806C115.128,-151.131 125.754,-152.533 136.082,-153.896"/>
<polygon fill="midnightblue" stroke="midnightblue" points="135.908,-157.403 146.28,-155.242 136.823,-150.464 135.908,-157.403"/>
</g>
<!-- Node96 -->
<g id="node6" class="node"><title>Node96</title>
<g id="a_node6"><a xlink:href="../../d0/de6/namespacemom__error__handler.html#a460cfb79a06c29fc249952c2a3710d67" target="_top" xlink:title="mom_error_handler::\lmom_error">
<polygon fill="white" stroke="black" points="292,-82 292,-112 385,-112 385,-82 292,-82"/>
<text text-anchor="start" x="300" y="-100" font-family="Helvetica,sans-Serif" font-size="10.00">mom_error_handler::</text>
<text text-anchor="middle" x="338.5" y="-89" font-family="Helvetica,sans-Serif" font-size="10.00">mom_error</text>
</a>
</g>
</g>
<!-- Node91&#45;&gt;Node96 -->
<g id="edge5" class="edge"><title>Node91&#45;&gt;Node96</title>
<path fill="none" stroke="midnightblue" d="M105.26,-134.616C155.207,-126.526 230.588,-114.317 281.817,-106.019"/>
<polygon fill="midnightblue" stroke="midnightblue" points="282.414,-109.468 291.726,-104.414 281.295,-102.558 282.414,-109.468"/>
</g>
<!-- Node98 -->
<g id="node8" class="node"><title>Node98</title>
<g id="a_node8"><a xlink:href="../../d0/de6/namespacemom__error__handler.html#a1c462df7b61f1296407b4af51dfeceab" target="_top" xlink:title="mom_error_handler::\lmom_mesg">
<polygon fill="white" stroke="black" points="292,-33 292,-63 385,-63 385,-33 292,-33"/>
<text text-anchor="start" x="300" y="-51" font-family="Helvetica,sans-Serif" font-size="10.00">mom_error_handler::</text>
<text text-anchor="middle" x="338.5" y="-40" font-family="Helvetica,sans-Serif" font-size="10.00">mom_mesg</text>
</a>
</g>
</g>
<!-- Node91&#45;&gt;Node98 -->
<g id="edge7" class="edge"><title>Node91&#45;&gt;Node98</title>
<path fill="none" stroke="midnightblue" d="M65.5779,-127.92C80.9661,-109.929 109.387,-80.5819 141,-67 185.612,-47.8335 241.025,-44.0615 281.622,-44.5153"/>
<polygon fill="midnightblue" stroke="midnightblue" points="281.801,-48.0195 291.87,-44.7225 281.943,-41.021 281.801,-48.0195"/>
</g>
<!-- Node99 -->
<g id="node9" class="node"><title>Node99</title>
<g id="a_node9"><a xlink:href="../../d7/d0a/namespacemom__coms.html#a0cc261620495abf3313937726883b95e" target="_top" xlink:title="mom_coms::real_to_ints">
<polygon fill="white" stroke="black" points="146.5,-76.5 146.5,-95.5 250.5,-95.5 250.5,-76.5 146.5,-76.5"/>
<text text-anchor="middle" x="198.5" y="-83.5" font-family="Helvetica,sans-Serif" font-size="10.00">mom_coms::real_to_ints</text>
</a>
</g>
</g>
<!-- Node91&#45;&gt;Node99 -->
<g id="edge9" class="edge"><title>Node91&#45;&gt;Node99</title>
<path fill="none" stroke="midnightblue" d="M91.7113,-127.875C114.111,-119.008 142.152,-107.909 163.736,-99.3649"/>
<polygon fill="midnightblue" stroke="midnightblue" points="165.145,-102.571 173.155,-95.6365 162.569,-96.0627 165.145,-102.571"/>
</g>
<!-- Node100 -->
<g id="node10" class="node"><title>Node100</title>
<g id="a_node10"><a xlink:href="../../d7/d0a/namespacemom__coms.html#ab8feff19e782af36bb7ccccd5ba9eddc" target="_top" xlink:title="mom_coms::regularize_ints">
<polygon fill="white" stroke="black" points="141.5,-0.5 141.5,-19.5 255.5,-19.5 255.5,-0.5 141.5,-0.5"/>
<text text-anchor="middle" x="198.5" y="-7.5" font-family="Helvetica,sans-Serif" font-size="10.00">mom_coms::regularize_ints</text>
</a>
</g>
</g>
<!-- Node91&#45;&gt;Node100 -->
<g id="edge11" class="edge"><title>Node91&#45;&gt;Node100</title>
<path fill="none" stroke="midnightblue" d="M62.3803,-127.625C76.4179,-104.504 105.788,-60.6589 141,-34 146.186,-30.0739 152.11,-26.6557 158.126,-23.7264"/>
<polygon fill="midnightblue" stroke="midnightblue" points="159.852,-26.7892 167.563,-19.5229 157.004,-20.3949 159.852,-26.7892"/>
</g>
<!-- Node97 -->
<g id="node7" class="node"><title>Node97</title>
<g id="a_node7"><a xlink:href="../../d0/de6/namespacemom__error__handler.html#ad5f00a53059c72fe2332d1436c80ca71" target="_top" xlink:title="mom_error_handler::\lis_root_pe">
<polygon fill="white" stroke="black" points="421,-57 421,-87 514,-87 514,-57 421,-57"/>
<text text-anchor="start" x="429" y="-75" font-family="Helvetica,sans-Serif" font-size="10.00">mom_error_handler::</text>
<text text-anchor="middle" x="467.5" y="-64" font-family="Helvetica,sans-Serif" font-size="10.00">is_root_pe</text>
</a>
</g>
</g>
<!-- Node96&#45;&gt;Node97 -->
<g id="edge6" class="edge"><title>Node96&#45;&gt;Node97</title>
<path fill="none" stroke="midnightblue" d="M385.35,-87.9744C393.623,-86.3459 402.33,-84.6319 410.846,-82.9556"/>
<polygon fill="midnightblue" stroke="midnightblue" points="411.582,-86.3779 420.717,-81.0123 410.23,-79.5097 411.582,-86.3779"/>
</g>
<!-- Node98&#45;&gt;Node97 -->
<g id="edge8" class="edge"><title>Node98&#45;&gt;Node97</title>
<path fill="none" stroke="midnightblue" d="M385.35,-56.6646C393.623,-58.2279 402.33,-59.8734 410.846,-61.4827"/>
<polygon fill="midnightblue" stroke="midnightblue" points="410.241,-64.9303 420.717,-63.3482 411.541,-58.0521 410.241,-64.9303"/>
</g>
<!-- Node99&#45;&gt;Node96 -->
<g id="edge10" class="edge"><title>Node99&#45;&gt;Node96</title>
<path fill="none" stroke="midnightblue" d="M250.886,-90.096C261.001,-90.9023 271.658,-91.7517 281.905,-92.5685"/>
<polygon fill="midnightblue" stroke="midnightblue" points="281.733,-96.0658 291.979,-93.3715 282.289,-89.0879 281.733,-96.0658"/>
</g>
</g>
</svg>
