<?xml version="1.0" encoding="UTF-8" standalone="no"?>
<!DOCTYPE svg PUBLIC "-//W3C//DTD SVG 1.1//EN"
 "http://www.w3.org/Graphics/SVG/1.1/DTD/svg11.dtd">
<!-- Generated by graphviz version 2.38.0 (20140413.2041)
 -->
<!-- Title: mom_coms::reset_efp_overflow_error Pages: 1 -->
<svg width="517pt" height="88pt"
 viewBox="0.00 0.00 517.00 88.00" xmlns="http://www.w3.org/2000/svg" xmlns:xlink="http://www.w3.org/1999/xlink">
<g id="graph0" class="graph" transform="scale(1 1) rotate(0) translate(4 84)">
<title>mom_coms::reset_efp_overflow_error</title>
<polygon fill="white" stroke="none" points="-4,4 -4,-84 513,-84 513,4 -4,4"/>
<!-- Node114 -->
<g id="node1" class="node"><title>Node114</title>
<polygon fill="#bfbfbf" stroke="black" points="0,-24.5 0,-54.5 96,-54.5 96,-24.5 0,-24.5"/>
<text text-anchor="start" x="8" y="-42.5" font-family="Helvetica,sans-Serif" font-size="10.00">mom_coms::reset_efp</text>
<text text-anchor="middle" x="48" y="-31.5" font-family="Helvetica,sans-Serif" font-size="10.00">_overflow_error</text>
</g>
<!-- Node115 -->
<g id="node2" class="node"><title>Node115</title>
<g id="a_node2"><a xlink:href="../../d9/d8a/namespacemom__spatial__means.html#a1268ed073db7e190a1d06fa72bd7a8de" target="_top" xlink:title="mom_spatial_means::\lglobal_i_mean">
<polygon fill="white" stroke="black" points="132,-49.5 132,-79.5 227,-79.5 227,-49.5 132,-49.5"/>
<text text-anchor="start" x="140" y="-67.5" font-family="Helvetica,sans-Serif" font-size="10.00">mom_spatial_means::</text>
<text text-anchor="middle" x="179.5" y="-56.5" font-family="Helvetica,sans-Serif" font-size="10.00">global_i_mean</text>
</a>
</g>
</g>
<!-- Node114&#45;&gt;Node115 -->
<g id="edge1" class="edge"><title>Node114&#45;&gt;Node115</title>
<path fill="none" stroke="midnightblue" d="M106.038,-50.5113C114.591,-52.1623 123.325,-53.8485 131.633,-55.4523"/>
<polygon fill="midnightblue" stroke="midnightblue" points="106.601,-47.0553 96.1188,-48.5963 105.274,-53.9284 106.601,-47.0553"/>
</g>
<!-- Node118 -->
<g id="node5" class="node"><title>Node118</title>
<g id="a_node5"><a xlink:href="../../d9/d8a/namespacemom__spatial__means.html#a0862005dff883cfbd1b9ffc1ef15cdbf" target="_top" xlink:title="mom_spatial_means::\lglobal_j_mean">
<polygon fill="white" stroke="black" points="132,-0.5 132,-30.5 227,-30.5 227,-0.5 132,-0.5"/>
<text text-anchor="start" x="140" y="-18.5" font-family="Helvetica,sans-Serif" font-size="10.00">mom_spatial_means::</text>
<text text-anchor="middle" x="179.5" y="-7.5" font-family="Helvetica,sans-Serif" font-size="10.00">global_j_mean</text>
</a>
</g>
</g>
<!-- Node114&#45;&gt;Node118 -->
<g id="edge4" class="edge"><title>Node114&#45;&gt;Node118</title>
<path fill="none" stroke="midnightblue" d="M106.038,-28.9292C114.591,-27.3442 123.325,-25.7255 131.633,-24.1858"/>
<polygon fill="midnightblue" stroke="midnightblue" points="105.314,-25.5038 96.1188,-30.7676 106.589,-32.3866 105.314,-25.5038"/>
</g>
<!-- Node116 -->
<g id="node3" class="node"><title>Node116</title>
<g id="a_node3"><a xlink:href="../../d8/da8/namespacemom__sponge.html#afc5fe4db356e9e93696c909cd2c4d7ba" target="_top" xlink:title="mom_sponge::apply_sponge">
<polygon fill="white" stroke="black" points="263,-55 263,-74 382,-74 382,-55 263,-55"/>
<text text-anchor="middle" x="322.5" y="-62" font-family="Helvetica,sans-Serif" font-size="10.00">mom_sponge::apply_sponge</text>
</a>
</g>
</g>
<!-- Node115&#45;&gt;Node116 -->
<g id="edge2" class="edge"><title>Node115&#45;&gt;Node116</title>
<path fill="none" stroke="midnightblue" d="M237.213,-64.5C245.677,-64.5 254.417,-64.5 262.919,-64.5"/>
<polygon fill="midnightblue" stroke="midnightblue" points="237.059,-61.0001 227.059,-64.5 237.059,-68.0001 237.059,-61.0001"/>
</g>
<!-- Node117 -->
<g id="node4" class="node"><title>Node117</title>
<g id="a_node4"><a xlink:href="../../d8/df3/namespacemom__diabatic__driver.html#a61e57d3902367aa46aa3c2d949ee900f" target="_top" xlink:title="This subroutine imposes the diapycnal mass fluxes and the accompanying diapycnal advection of momentu...">
<polygon fill="white" stroke="black" points="418,-49.5 418,-79.5 509,-79.5 509,-49.5 418,-49.5"/>
<text text-anchor="start" x="426" y="-67.5" font-family="Helvetica,sans-Serif" font-size="10.00">mom_diabatic_driver</text>
<text text-anchor="middle" x="463.5" y="-56.5" font-family="Helvetica,sans-Serif" font-size="10.00">::diabatic</text>
</a>
</g>
</g>
<!-- Node116&#45;&gt;Node117 -->
<g id="edge3" class="edge"><title>Node116&#45;&gt;Node117</title>
<path fill="none" stroke="midnightblue" d="M392.26,-64.5C400.996,-64.5 409.748,-64.5 417.962,-64.5"/>
<polygon fill="midnightblue" stroke="midnightblue" points="392.046,-61.0001 382.046,-64.5 392.046,-68.0001 392.046,-61.0001"/>
</g>
</g>
</svg>
