<?xml version="1.0" encoding="UTF-8" standalone="no"?>
<!DOCTYPE svg PUBLIC "-//W3C//DTD SVG 1.1//EN"
 "http://www.w3.org/Graphics/SVG/1.1/DTD/svg11.dtd">
<!-- Generated by graphviz version 2.38.0 (20140413.2041)
 -->
<!-- Title: mom_coms::efp_list_sum_across_pes Pages: 1 -->
<svg width="396pt" height="116pt"
 viewBox="0.00 0.00 396.00 115.50" xmlns="http://www.w3.org/2000/svg" xmlns:xlink="http://www.w3.org/1999/xlink">
<g id="graph0" class="graph" transform="scale(1 1) rotate(0) translate(4 111.5)">
<title>mom_coms::efp_list_sum_across_pes</title>
<polygon fill="white" stroke="none" points="-4,4 -4,-111.5 392,-111.5 392,4 -4,4"/>
<!-- Node7 -->
<g id="node1" class="node"><title>Node7</title>
<polygon fill="#bfbfbf" stroke="black" points="0,-44.5 0,-74.5 87,-74.5 87,-44.5 0,-44.5"/>
<text text-anchor="start" x="8" y="-62.5" font-family="Helvetica,sans-Serif" font-size="10.00">mom_coms::efp_list</text>
<text text-anchor="middle" x="43.5" y="-51.5" font-family="Helvetica,sans-Serif" font-size="10.00">_sum_across_pes</text>
</g>
<!-- Node8 -->
<g id="node2" class="node"><title>Node8</title>
<g id="a_node2"><a xlink:href="../../d7/d0a/namespacemom__coms.html#a3fe107391eb9d2c199eb09e451f4dbb2" target="_top" xlink:title="mom_coms::carry_overflow">
<polygon fill="white" stroke="black" points="123,-88 123,-107 238,-107 238,-88 123,-88"/>
<text text-anchor="middle" x="180.5" y="-95" font-family="Helvetica,sans-Serif" font-size="10.00">mom_coms::carry_overflow</text>
</a>
</g>
</g>
<!-- Node7&#45;&gt;Node8 -->
<g id="edge1" class="edge"><title>Node7&#45;&gt;Node8</title>
<path fill="none" stroke="midnightblue" d="M87.2148,-71.5234C102.676,-75.8756 120.153,-80.7949 135.706,-85.1727"/>
<polygon fill="midnightblue" stroke="midnightblue" points="135.034,-88.6195 145.608,-87.96 136.93,-81.8814 135.034,-88.6195"/>
</g>
<!-- Node9 -->
<g id="node3" class="node"><title>Node9</title>
<g id="a_node3"><a xlink:href="../../d7/d0a/namespacemom__coms.html#a4aaf51b372bcaf7b46939145577eff92" target="_top" xlink:title="mom_coms::efp_to_real">
<polygon fill="white" stroke="black" points="129,-50 129,-69 232,-69 232,-50 129,-50"/>
<text text-anchor="middle" x="180.5" y="-57" font-family="Helvetica,sans-Serif" font-size="10.00">mom_coms::efp_to_real</text>
</a>
</g>
</g>
<!-- Node7&#45;&gt;Node9 -->
<g id="edge2" class="edge"><title>Node7&#45;&gt;Node9</title>
<path fill="none" stroke="midnightblue" d="M87.2148,-59.5C97.1665,-59.5 107.953,-59.5 118.524,-59.5"/>
<polygon fill="midnightblue" stroke="midnightblue" points="118.559,-63.0001 128.558,-59.5 118.558,-56.0001 118.559,-63.0001"/>
</g>
<!-- Node12 -->
<g id="node6" class="node"><title>Node12</title>
<g id="a_node6"><a xlink:href="../../d0/de6/namespacemom__error__handler.html#a460cfb79a06c29fc249952c2a3710d67" target="_top" xlink:title="mom_error_handler::\lmom_error">
<polygon fill="white" stroke="black" points="134,-0.5 134,-30.5 227,-30.5 227,-0.5 134,-0.5"/>
<text text-anchor="start" x="142" y="-18.5" font-family="Helvetica,sans-Serif" font-size="10.00">mom_error_handler::</text>
<text text-anchor="middle" x="180.5" y="-7.5" font-family="Helvetica,sans-Serif" font-size="10.00">mom_error</text>
</a>
</g>
</g>
<!-- Node7&#45;&gt;Node12 -->
<g id="edge5" class="edge"><title>Node7&#45;&gt;Node12</title>
<path fill="none" stroke="midnightblue" d="M87.2148,-45.5781C98.9179,-41.7638 111.775,-37.5733 124.079,-33.5631"/>
<polygon fill="midnightblue" stroke="midnightblue" points="125.372,-36.823 133.795,-30.3964 123.203,-30.1676 125.372,-36.823"/>
</g>
<!-- Node10 -->
<g id="node4" class="node"><title>Node10</title>
<g id="a_node4"><a xlink:href="../../d7/d0a/namespacemom__coms.html#ab8feff19e782af36bb7ccccd5ba9eddc" target="_top" xlink:title="mom_coms::regularize_ints">
<polygon fill="white" stroke="black" points="274,-88 274,-107 388,-107 388,-88 274,-88"/>
<text text-anchor="middle" x="331" y="-95" font-family="Helvetica,sans-Serif" font-size="10.00">mom_coms::regularize_ints</text>
</a>
</g>
</g>
<!-- Node9&#45;&gt;Node10 -->
<g id="edge3" class="edge"><title>Node9&#45;&gt;Node10</title>
<path fill="none" stroke="midnightblue" d="M218.973,-69.089C238.392,-74.0583 262.302,-80.1767 282.954,-85.4613"/>
<polygon fill="midnightblue" stroke="midnightblue" points="282.241,-88.8916 292.797,-87.9799 283.976,-82.1101 282.241,-88.8916"/>
</g>
<!-- Node11 -->
<g id="node5" class="node"><title>Node11</title>
<g id="a_node5"><a xlink:href="../../d7/d0a/namespacemom__coms.html#a24ac5b7cc37b1498f23b61eea03fb8c3" target="_top" xlink:title="mom_coms::ints_to_real">
<polygon fill="white" stroke="black" points="279,-50 279,-69 383,-69 383,-50 279,-50"/>
<text text-anchor="middle" x="331" y="-57" font-family="Helvetica,sans-Serif" font-size="10.00">mom_coms::ints_to_real</text>
</a>
</g>
</g>
<!-- Node9&#45;&gt;Node11 -->
<g id="edge4" class="edge"><title>Node9&#45;&gt;Node11</title>
<path fill="none" stroke="midnightblue" d="M232.19,-59.5C243.94,-59.5 256.568,-59.5 268.718,-59.5"/>
<polygon fill="midnightblue" stroke="midnightblue" points="268.782,-63.0001 278.782,-59.5 268.782,-56.0001 268.782,-63.0001"/>
</g>
<!-- Node13 -->
<g id="node7" class="node"><title>Node13</title>
<g id="a_node7"><a xlink:href="../../d0/de6/namespacemom__error__handler.html#ad5f00a53059c72fe2332d1436c80ca71" target="_top" xlink:title="mom_error_handler::\lis_root_pe">
<polygon fill="white" stroke="black" points="284.5,-0.5 284.5,-30.5 377.5,-30.5 377.5,-0.5 284.5,-0.5"/>
<text text-anchor="start" x="292.5" y="-18.5" font-family="Helvetica,sans-Serif" font-size="10.00">mom_error_handler::</text>
<text text-anchor="middle" x="331" y="-7.5" font-family="Helvetica,sans-Serif" font-size="10.00">is_root_pe</text>
</a>
</g>
</g>
<!-- Node12&#45;&gt;Node13 -->
<g id="edge6" class="edge"><title>Node12&#45;&gt;Node13</title>
<path fill="none" stroke="midnightblue" d="M227.267,-15.5C242.157,-15.5 258.849,-15.5 274.378,-15.5"/>
<polygon fill="midnightblue" stroke="midnightblue" points="274.385,-19.0001 284.385,-15.5 274.384,-12.0001 274.385,-19.0001"/>
</g>
</g>
</svg>
