<?xml version="1.0" encoding="UTF-8" standalone="no"?>
<!DOCTYPE svg PUBLIC "-//W3C//DTD SVG 1.1//EN"
 "http://www.w3.org/Graphics/SVG/1.1/DTD/svg11.dtd">
<!-- Generated by graphviz version 2.38.0 (20140413.2041)
 -->
<!-- Title: mom_coms::efp_to_real Pages: 1 -->
<svg width="346pt" height="165pt"
 viewBox="0.00 0.00 346.00 165.00" xmlns="http://www.w3.org/2000/svg" xmlns:xlink="http://www.w3.org/1999/xlink">
<g id="graph0" class="graph" transform="scale(1 1) rotate(0) translate(4 161)">
<title>mom_coms::efp_to_real</title>
<polygon fill="white" stroke="none" points="-4,4 -4,-161 342,-161 342,4 -4,4"/>
<!-- Node29 -->
<g id="node1" class="node"><title>Node29</title>
<polygon fill="#bfbfbf" stroke="black" points="0,-69 0,-88 103,-88 103,-69 0,-69"/>
<text text-anchor="middle" x="51.5" y="-76" font-family="Helvetica,sans-Serif" font-size="10.00">mom_coms::efp_to_real</text>
</g>
<!-- Node30 -->
<g id="node2" class="node"><title>Node30</title>
<g id="a_node2"><a xlink:href="../../d7/d0a/namespacemom__coms.html#a6cbcab29d87b134dcd5c4bdb922b4344" target="_top" xlink:title="mom_coms::efp_list\l_sum_across_pes">
<polygon fill="white" stroke="black" points="149,-126.5 149,-156.5 236,-156.5 236,-126.5 149,-126.5"/>
<text text-anchor="start" x="157" y="-144.5" font-family="Helvetica,sans-Serif" font-size="10.00">mom_coms::efp_list</text>
<text text-anchor="middle" x="192.5" y="-133.5" font-family="Helvetica,sans-Serif" font-size="10.00">_sum_across_pes</text>
</a>
</g>
</g>
<!-- Node29&#45;&gt;Node30 -->
<g id="edge1" class="edge"><title>Node29&#45;&gt;Node30</title>
<path fill="none" stroke="midnightblue" d="M82.9238,-92.2892C105.184,-102.379 135.368,-116.059 158.261,-126.435"/>
<polygon fill="midnightblue" stroke="midnightblue" points="84.1641,-89.0087 73.6111,-88.0683 81.2744,-95.3844 84.1641,-89.0087"/>
</g>
<!-- Node31 -->
<g id="node3" class="node"><title>Node31</title>
<g id="a_node3"><a xlink:href="../../d7/d0a/namespacemom__coms.html#a8f23ba3eaaf03101afa61c339fac805b" target="_top" xlink:title="mom_coms::efp_real_diff">
<polygon fill="white" stroke="black" points="139,-88 139,-107 246,-107 246,-88 139,-88"/>
<text text-anchor="middle" x="192.5" y="-95" font-family="Helvetica,sans-Serif" font-size="10.00">mom_coms::efp_real_diff</text>
</a>
</g>
</g>
<!-- Node29&#45;&gt;Node31 -->
<g id="edge2" class="edge"><title>Node29&#45;&gt;Node31</title>
<path fill="none" stroke="midnightblue" d="M113.05,-86.7766C121.646,-87.9516 130.429,-89.1521 138.859,-90.3044"/>
<polygon fill="midnightblue" stroke="midnightblue" points="113.457,-83.2998 103.075,-85.4132 112.509,-90.2353 113.457,-83.2998"/>
</g>
<!-- Node32 -->
<g id="node4" class="node"><title>Node32</title>
<g id="a_node4"><a xlink:href="../../d6/d48/MOM__sum__driver_8F90.html#a08fffeb2d8e8acbf9ed4609be6d258c6" target="_top" xlink:title="mom_main">
<polygon fill="white" stroke="black" points="164.5,-50 164.5,-69 220.5,-69 220.5,-50 164.5,-50"/>
<text text-anchor="middle" x="192.5" y="-57" font-family="Helvetica,sans-Serif" font-size="10.00">mom_main</text>
</a>
</g>
</g>
<!-- Node29&#45;&gt;Node32 -->
<g id="edge3" class="edge"><title>Node29&#45;&gt;Node32</title>
<path fill="none" stroke="midnightblue" d="M113.397,-70.1759C131.138,-67.751 149.637,-65.2222 164.177,-63.2348"/>
<polygon fill="midnightblue" stroke="midnightblue" points="112.509,-66.7647 103.075,-71.5868 113.457,-73.7002 112.509,-66.7647"/>
</g>
<!-- Node33 -->
<g id="node5" class="node"><title>Node33</title>
<g id="a_node5"><a xlink:href="../../d6/d28/namespacemom__sum__output.html#aef94e597f85f3ee439b2ddc2b46a043a" target="_top" xlink:title="mom_sum_output::write\l_energy">
<polygon fill="white" stroke="black" points="141,-0.5 141,-30.5 244,-30.5 244,-0.5 141,-0.5"/>
<text text-anchor="start" x="149" y="-18.5" font-family="Helvetica,sans-Serif" font-size="10.00">mom_sum_output::write</text>
<text text-anchor="middle" x="192.5" y="-7.5" font-family="Helvetica,sans-Serif" font-size="10.00">_energy</text>
</a>
</g>
</g>
<!-- Node29&#45;&gt;Node33 -->
<g id="edge4" class="edge"><title>Node29&#45;&gt;Node33</title>
<path fill="none" stroke="midnightblue" d="M82.9238,-64.7108C105.184,-54.6214 135.368,-40.9409 158.261,-30.565"/>
<polygon fill="midnightblue" stroke="midnightblue" points="81.2744,-61.6156 73.6111,-68.9317 84.1641,-67.9913 81.2744,-61.6156"/>
</g>
<!-- Node34 -->
<g id="node6" class="node"><title>Node34</title>
<g id="a_node6"><a xlink:href="../../de/dbc/MOM__driver_8F90.html#a08fffeb2d8e8acbf9ed4609be6d258c6" target="_top" xlink:title="mom_main">
<polygon fill="white" stroke="black" points="282,-6 282,-25 338,-25 338,-6 282,-6"/>
<text text-anchor="middle" x="310" y="-13" font-family="Helvetica,sans-Serif" font-size="10.00">mom_main</text>
</a>
</g>
</g>
<!-- Node33&#45;&gt;Node34 -->
<g id="edge5" class="edge"><title>Node33&#45;&gt;Node34</title>
<path fill="none" stroke="midnightblue" d="M254.243,-15.5C263.924,-15.5 273.492,-15.5 281.855,-15.5"/>
<polygon fill="midnightblue" stroke="midnightblue" points="254.16,-12.0001 244.16,-15.5 254.16,-19.0001 254.16,-12.0001"/>
</g>
</g>
</svg>
