<?xml version="1.0" encoding="UTF-8" standalone="no"?>
<!DOCTYPE svg PUBLIC "-//W3C//DTD SVG 1.1//EN"
 "http://www.w3.org/Graphics/SVG/1.1/DTD/svg11.dtd">
<!-- Generated by graphviz version 2.38.0 (20140413.2041)
 -->
<!-- Title: mom_coms::efp_real_diff Pages: 1 -->
<svg width="404pt" height="66pt"
 viewBox="0.00 0.00 404.00 66.00" xmlns="http://www.w3.org/2000/svg" xmlns:xlink="http://www.w3.org/1999/xlink">
<g id="graph0" class="graph" transform="scale(1 1) rotate(0) translate(4 62)">
<title>mom_coms::efp_real_diff</title>
<polygon fill="white" stroke="none" points="-4,4 -4,-62 400,-62 400,4 -4,4"/>
<!-- Node21 -->
<g id="node1" class="node"><title>Node21</title>
<polygon fill="#bfbfbf" stroke="black" points="0,-19.5 0,-38.5 107,-38.5 107,-19.5 0,-19.5"/>
<text text-anchor="middle" x="53.5" y="-26.5" font-family="Helvetica,sans-Serif" font-size="10.00">mom_coms::efp_real_diff</text>
</g>
<!-- Node22 -->
<g id="node2" class="node"><title>Node22</title>
<g id="a_node2"><a xlink:href="../../d7/d0a/namespacemom__coms.html#a4aaf51b372bcaf7b46939145577eff92" target="_top" xlink:title="mom_coms::efp_to_real">
<polygon fill="white" stroke="black" points="143,-19.5 143,-38.5 246,-38.5 246,-19.5 143,-19.5"/>
<text text-anchor="middle" x="194.5" y="-26.5" font-family="Helvetica,sans-Serif" font-size="10.00">mom_coms::efp_to_real</text>
</a>
</g>
</g>
<!-- Node21&#45;&gt;Node22 -->
<g id="edge1" class="edge"><title>Node21&#45;&gt;Node22</title>
<path fill="none" stroke="midnightblue" d="M107.05,-29C115.358,-29 124.01,-29 132.49,-29"/>
<polygon fill="midnightblue" stroke="midnightblue" points="132.716,-32.5001 142.715,-29 132.715,-25.5001 132.716,-32.5001"/>
</g>
<!-- Node23 -->
<g id="node3" class="node"><title>Node23</title>
<g id="a_node3"><a xlink:href="../../d7/d0a/namespacemom__coms.html#ab8feff19e782af36bb7ccccd5ba9eddc" target="_top" xlink:title="mom_coms::regularize_ints">
<polygon fill="white" stroke="black" points="282,-38.5 282,-57.5 396,-57.5 396,-38.5 282,-38.5"/>
<text text-anchor="middle" x="339" y="-45.5" font-family="Helvetica,sans-Serif" font-size="10.00">mom_coms::regularize_ints</text>
</a>
</g>
</g>
<!-- Node22&#45;&gt;Node23 -->
<g id="edge2" class="edge"><title>Node22&#45;&gt;Node23</title>
<path fill="none" stroke="midnightblue" d="M246.141,-35.7522C254.421,-36.8561 263.107,-38.0143 271.697,-39.1596"/>
<polygon fill="midnightblue" stroke="midnightblue" points="271.331,-42.6417 281.706,-40.4941 272.256,-35.7031 271.331,-42.6417"/>
</g>
<!-- Node24 -->
<g id="node4" class="node"><title>Node24</title>
<g id="a_node4"><a xlink:href="../../d7/d0a/namespacemom__coms.html#a24ac5b7cc37b1498f23b61eea03fb8c3" target="_top" xlink:title="mom_coms::ints_to_real">
<polygon fill="white" stroke="black" points="287,-0.5 287,-19.5 391,-19.5 391,-0.5 287,-0.5"/>
<text text-anchor="middle" x="339" y="-7.5" font-family="Helvetica,sans-Serif" font-size="10.00">mom_coms::ints_to_real</text>
</a>
</g>
</g>
<!-- Node22&#45;&gt;Node24 -->
<g id="edge3" class="edge"><title>Node22&#45;&gt;Node24</title>
<path fill="none" stroke="midnightblue" d="M246.141,-22.2478C255.981,-20.9359 266.394,-19.5474 276.538,-18.1949"/>
<polygon fill="midnightblue" stroke="midnightblue" points="277.111,-21.6496 286.561,-16.8586 276.186,-14.711 277.111,-21.6496"/>
</g>
</g>
</svg>
