<?xml version="1.0" encoding="UTF-8" standalone="no"?>
<!DOCTYPE svg PUBLIC "-//W3C//DTD SVG 1.1//EN"
 "http://www.w3.org/Graphics/SVG/1.1/DTD/svg11.dtd">
<!-- Generated by graphviz version 2.38.0 (20140413.2041)
 -->
<!-- Title: mom_coms::real_to_ints Pages: 1 -->
<svg width="484pt" height="149pt"
 viewBox="0.00 0.00 484.00 148.50" xmlns="http://www.w3.org/2000/svg" xmlns:xlink="http://www.w3.org/1999/xlink">
<g id="graph0" class="graph" transform="scale(1 1) rotate(0) translate(4 144.5)">
<title>mom_coms::real_to_ints</title>
<polygon fill="white" stroke="none" points="-4,4 -4,-144.5 480,-144.5 480,4 -4,4"/>
<!-- Node74 -->
<g id="node1" class="node"><title>Node74</title>
<polygon fill="#bfbfbf" stroke="black" points="0,-55 0,-74 104,-74 104,-55 0,-55"/>
<text text-anchor="middle" x="52" y="-62" font-family="Helvetica,sans-Serif" font-size="10.00">mom_coms::real_to_ints</text>
</g>
<!-- Node75 -->
<g id="node2" class="node"><title>Node75</title>
<g id="a_node2"><a xlink:href="../../d7/d0a/namespacemom__coms.html#ac8f1b5be23b128cd8bb956ebda917edb" target="_top" xlink:title="mom_coms::real_to_efp">
<polygon fill="white" stroke="black" points="141,-99 141,-118 244,-118 244,-99 141,-99"/>
<text text-anchor="middle" x="192.5" y="-106" font-family="Helvetica,sans-Serif" font-size="10.00">mom_coms::real_to_efp</text>
</a>
</g>
</g>
<!-- Node74&#45;&gt;Node75 -->
<g id="edge1" class="edge"><title>Node74&#45;&gt;Node75</title>
<path fill="none" stroke="midnightblue" d="M92.7318,-77.1224C114.63,-84.0793 141.373,-92.5753 161.506,-98.9713"/>
<polygon fill="midnightblue" stroke="midnightblue" points="93.6428,-73.7395 83.0524,-74.0473 91.5233,-80.4109 93.6428,-73.7395"/>
</g>
<!-- Node79 -->
<g id="node6" class="node"><title>Node79</title>
<g id="a_node6"><a xlink:href="../../d7/d0a/namespacemom__coms.html#a99e145acc9227dad1bddc6cf211e4daf" target="_top" xlink:title="mom_coms::reproducing\l_sum_2d">
<polygon fill="white" stroke="black" points="140,-49.5 140,-79.5 245,-79.5 245,-49.5 140,-49.5"/>
<text text-anchor="start" x="148" y="-67.5" font-family="Helvetica,sans-Serif" font-size="10.00">mom_coms::reproducing</text>
<text text-anchor="middle" x="192.5" y="-56.5" font-family="Helvetica,sans-Serif" font-size="10.00">_sum_2d</text>
</a>
</g>
</g>
<!-- Node74&#45;&gt;Node79 -->
<g id="edge5" class="edge"><title>Node74&#45;&gt;Node79</title>
<path fill="none" stroke="midnightblue" d="M114.349,-64.5C122.779,-64.5 131.368,-64.5 139.606,-64.5"/>
<polygon fill="midnightblue" stroke="midnightblue" points="114.179,-61.0001 104.179,-64.5 114.179,-68.0001 114.179,-61.0001"/>
</g>
<!-- Node80 -->
<g id="node7" class="node"><title>Node80</title>
<g id="a_node7"><a xlink:href="../../d7/d0a/namespacemom__coms.html#aa21533e0badf43b331b5f7a9730c005f" target="_top" xlink:title="mom_coms::reproducing\l_sum_3d">
<polygon fill="white" stroke="black" points="140,-0.5 140,-30.5 245,-30.5 245,-0.5 140,-0.5"/>
<text text-anchor="start" x="148" y="-18.5" font-family="Helvetica,sans-Serif" font-size="10.00">mom_coms::reproducing</text>
<text text-anchor="middle" x="192.5" y="-7.5" font-family="Helvetica,sans-Serif" font-size="10.00">_sum_3d</text>
</a>
</g>
</g>
<!-- Node74&#45;&gt;Node80 -->
<g id="edge6" class="edge"><title>Node74&#45;&gt;Node80</title>
<path fill="none" stroke="midnightblue" d="M89.7111,-51.5119C107.933,-45.0653 130.044,-37.2424 148.998,-30.537"/>
<polygon fill="midnightblue" stroke="midnightblue" points="88.293,-48.301 80.033,-54.936 90.6278,-54.9002 88.293,-48.301"/>
</g>
<!-- Node76 -->
<g id="node3" class="node"><title>Node76</title>
<g id="a_node3"><a xlink:href="../../d6/d48/MOM__sum__driver_8F90.html#a08fffeb2d8e8acbf9ed4609be6d258c6" target="_top" xlink:title="mom_main">
<polygon fill="white" stroke="black" points="304.5,-121 304.5,-140 360.5,-140 360.5,-121 304.5,-121"/>
<text text-anchor="middle" x="332.5" y="-128" font-family="Helvetica,sans-Serif" font-size="10.00">mom_main</text>
</a>
</g>
</g>
<!-- Node75&#45;&gt;Node76 -->
<g id="edge2" class="edge"><title>Node75&#45;&gt;Node76</title>
<path fill="none" stroke="midnightblue" d="M254.249,-118.185C271.679,-120.963 289.823,-123.856 304.143,-126.139"/>
<polygon fill="midnightblue" stroke="midnightblue" points="254.529,-114.685 244.103,-116.567 253.427,-121.598 254.529,-114.685"/>
</g>
<!-- Node77 -->
<g id="node4" class="node"><title>Node77</title>
<g id="a_node4"><a xlink:href="../../d6/d28/namespacemom__sum__output.html#aef94e597f85f3ee439b2ddc2b46a043a" target="_top" xlink:title="mom_sum_output::write\l_energy">
<polygon fill="white" stroke="black" points="281,-71.5 281,-101.5 384,-101.5 384,-71.5 281,-71.5"/>
<text text-anchor="start" x="289" y="-89.5" font-family="Helvetica,sans-Serif" font-size="10.00">mom_sum_output::write</text>
<text text-anchor="middle" x="332.5" y="-78.5" font-family="Helvetica,sans-Serif" font-size="10.00">_energy</text>
</a>
</g>
</g>
<!-- Node75&#45;&gt;Node77 -->
<g id="edge3" class="edge"><title>Node75&#45;&gt;Node77</title>
<path fill="none" stroke="midnightblue" d="M254.093,-98.8402C263.043,-97.4134 272.185,-95.956 280.904,-94.5661"/>
<polygon fill="midnightblue" stroke="midnightblue" points="253.427,-95.4022 244.103,-100.433 254.529,-102.315 253.427,-95.4022"/>
</g>
<!-- Node78 -->
<g id="node5" class="node"><title>Node78</title>
<g id="a_node5"><a xlink:href="../../de/dbc/MOM__driver_8F90.html#a08fffeb2d8e8acbf9ed4609be6d258c6" target="_top" xlink:title="mom_main">
<polygon fill="white" stroke="black" points="420,-77 420,-96 476,-96 476,-77 420,-77"/>
<text text-anchor="middle" x="448" y="-84" font-family="Helvetica,sans-Serif" font-size="10.00">mom_main</text>
</a>
</g>
</g>
<!-- Node77&#45;&gt;Node78 -->
<g id="edge4" class="edge"><title>Node77&#45;&gt;Node78</title>
<path fill="none" stroke="midnightblue" d="M394.382,-86.5C403.325,-86.5 412.131,-86.5 419.904,-86.5"/>
<polygon fill="midnightblue" stroke="midnightblue" points="394.275,-83.0001 384.275,-86.5 394.274,-90.0001 394.275,-83.0001"/>
</g>
</g>
</svg>
