<?xml version="1.0" encoding="UTF-8" standalone="no"?>
<!DOCTYPE svg PUBLIC "-//W3C//DTD SVG 1.1//EN"
 "http://www.w3.org/Graphics/SVG/1.1/DTD/svg11.dtd">
<!-- Generated by graphviz version 2.38.0 (20140413.2041)
 -->
<!-- Title: mom_coms::increment_ints Pages: 1 -->
<svg width="263pt" height="165pt"
 viewBox="0.00 0.00 263.00 164.50" xmlns="http://www.w3.org/2000/svg" xmlns:xlink="http://www.w3.org/1999/xlink">
<g id="graph0" class="graph" transform="scale(1 1) rotate(0) translate(4 160.5)">
<title>mom_coms::increment_ints</title>
<polygon fill="white" stroke="none" points="-4,4 -4,-160.5 259,-160.5 259,4 -4,4"/>
<!-- Node36 -->
<g id="node1" class="node"><title>Node36</title>
<polygon fill="#bfbfbf" stroke="black" points="0,-77 0,-96 114,-96 114,-77 0,-77"/>
<text text-anchor="middle" x="57" y="-84" font-family="Helvetica,sans-Serif" font-size="10.00">mom_coms::increment_ints</text>
</g>
<!-- Node37 -->
<g id="node2" class="node"><title>Node37</title>
<g id="a_node2"><a xlink:href="../../d7/d0a/namespacemom__coms.html#ac9cda4ec7606fa2e47d79d759d9e6694" target="_top" xlink:title="mom_coms::efp_minus">
<polygon fill="white" stroke="black" points="153,-137 153,-156 252,-156 252,-137 153,-137"/>
<text text-anchor="middle" x="202.5" y="-144" font-family="Helvetica,sans-Serif" font-size="10.00">mom_coms::efp_minus</text>
</a>
</g>
</g>
<!-- Node36&#45;&gt;Node37 -->
<g id="edge1" class="edge"><title>Node36&#45;&gt;Node37</title>
<path fill="none" stroke="midnightblue" d="M87.6447,-100.306C105.57,-108.506 128.953,-118.939 150,-127.5 157.945,-130.732 166.669,-134.04 174.642,-136.97"/>
<polygon fill="midnightblue" stroke="midnightblue" points="88.8448,-97.006 78.2972,-96.0073 85.9199,-103.366 88.8448,-97.006"/>
</g>
<!-- Node38 -->
<g id="node3" class="node"><title>Node38</title>
<g id="a_node3"><a xlink:href="../../d7/d0a/namespacemom__coms.html#abfb8af92b0a6ee8b7f5d8391f6893977" target="_top" xlink:title="mom_coms::efp_plus">
<polygon fill="white" stroke="black" points="156.5,-99 156.5,-118 248.5,-118 248.5,-99 156.5,-99"/>
<text text-anchor="middle" x="202.5" y="-106" font-family="Helvetica,sans-Serif" font-size="10.00">mom_coms::efp_plus</text>
</a>
</g>
</g>
<!-- Node36&#45;&gt;Node38 -->
<g id="edge2" class="edge"><title>Node36&#45;&gt;Node38</title>
<path fill="none" stroke="midnightblue" d="M124.237,-96.6547C135.137,-98.3259 146.208,-100.023 156.436,-101.591"/>
<polygon fill="midnightblue" stroke="midnightblue" points="124.718,-93.1877 114.303,-95.1318 123.657,-100.107 124.718,-93.1877"/>
</g>
<!-- Node39 -->
<g id="node4" class="node"><title>Node39</title>
<g id="a_node4"><a xlink:href="../../d7/d0a/namespacemom__coms.html#a99e145acc9227dad1bddc6cf211e4daf" target="_top" xlink:title="mom_coms::reproducing\l_sum_2d">
<polygon fill="white" stroke="black" points="150,-49.5 150,-79.5 255,-79.5 255,-49.5 150,-49.5"/>
<text text-anchor="start" x="158" y="-67.5" font-family="Helvetica,sans-Serif" font-size="10.00">mom_coms::reproducing</text>
<text text-anchor="middle" x="202.5" y="-56.5" font-family="Helvetica,sans-Serif" font-size="10.00">_sum_2d</text>
</a>
</g>
</g>
<!-- Node36&#45;&gt;Node39 -->
<g id="edge3" class="edge"><title>Node36&#45;&gt;Node39</title>
<path fill="none" stroke="midnightblue" d="M124.214,-76.3487C132.722,-75.0443 141.335,-73.7239 149.57,-72.4615"/>
<polygon fill="midnightblue" stroke="midnightblue" points="123.657,-72.8931 114.303,-77.8682 124.718,-79.8123 123.657,-72.8931"/>
</g>
<!-- Node40 -->
<g id="node5" class="node"><title>Node40</title>
<g id="a_node5"><a xlink:href="../../d7/d0a/namespacemom__coms.html#aa21533e0badf43b331b5f7a9730c005f" target="_top" xlink:title="mom_coms::reproducing\l_sum_3d">
<polygon fill="white" stroke="black" points="150,-0.5 150,-30.5 255,-30.5 255,-0.5 150,-0.5"/>
<text text-anchor="start" x="158" y="-18.5" font-family="Helvetica,sans-Serif" font-size="10.00">mom_coms::reproducing</text>
<text text-anchor="middle" x="202.5" y="-7.5" font-family="Helvetica,sans-Serif" font-size="10.00">_sum_3d</text>
</a>
</g>
</g>
<!-- Node36&#45;&gt;Node40 -->
<g id="edge4" class="edge"><title>Node36&#45;&gt;Node40</title>
<path fill="none" stroke="midnightblue" d="M86.4235,-72.1808C104.583,-63.0593 128.645,-51.0215 150,-40.5 156.597,-37.2495 163.684,-33.7892 170.425,-30.5121"/>
<polygon fill="midnightblue" stroke="midnightblue" points="84.3593,-69.3011 76.9972,-76.9201 87.5038,-75.5551 84.3593,-69.3011"/>
</g>
</g>
</svg>
