<?xml version="1.0" encoding="UTF-8" standalone="no"?>
<!DOCTYPE svg PUBLIC "-//W3C//DTD SVG 1.1//EN"
 "http://www.w3.org/Graphics/SVG/1.1/DTD/svg11.dtd">
<!-- Generated by graphviz version 2.38.0 (20140413.2041)
 -->
<!-- Title: benchmark_initialization::benchmark_initialize_topography Pages: 1 -->
<svg width="614pt" height="50pt"
 viewBox="0.00 0.00 614.00 50.00" xmlns="http://www.w3.org/2000/svg" xmlns:xlink="http://www.w3.org/1999/xlink">
<g id="graph0" class="graph" transform="scale(1 1) rotate(0) translate(4 46)">
<title>benchmark_initialization::benchmark_initialize_topography</title>
<polygon fill="white" stroke="none" points="-4,4 -4,-46 610,-46 610,4 -4,4"/>
<!-- Node24 -->
<g id="node1" class="node"><title>Node24</title>
<polygon fill="#bfbfbf" stroke="black" points="0,-0.5 0,-41.5 101,-41.5 101,-0.5 0,-0.5"/>
<text text-anchor="start" x="8" y="-29.5" font-family="Helvetica,sans-Serif" font-size="10.00">benchmark_initialization</text>
<text text-anchor="start" x="8" y="-18.5" font-family="Helvetica,sans-Serif" font-size="10.00">::benchmark_initialize</text>
<text text-anchor="middle" x="50.5" y="-7.5" font-family="Helvetica,sans-Serif" font-size="10.00">_topography</text>
</g>
<!-- Node25 -->
<g id="node2" class="node"><title>Node25</title>
<g id="a_node2"><a xlink:href="../../d3/da8/namespacemom__fixed__initialization.html#a4f19c092d796f0cbb036c96575299b11" target="_top" xlink:title="mom_fixed_initialization\l::mom_initialize_topography">
<polygon fill="white" stroke="black" points="137,-6 137,-36 253,-36 253,-6 137,-6"/>
<text text-anchor="start" x="145" y="-24" font-family="Helvetica,sans-Serif" font-size="10.00">mom_fixed_initialization</text>
<text text-anchor="middle" x="195" y="-13" font-family="Helvetica,sans-Serif" font-size="10.00">::mom_initialize_topography</text>
</a>
</g>
</g>
<!-- Node24&#45;&gt;Node25 -->
<g id="edge1" class="edge"><title>Node24&#45;&gt;Node25</title>
<path fill="none" stroke="midnightblue" d="M111.393,-21C119.748,-21 128.317,-21 136.624,-21"/>
<polygon fill="midnightblue" stroke="midnightblue" points="111.34,-17.5001 101.34,-21 111.34,-24.5001 111.34,-17.5001"/>
</g>
<!-- Node26 -->
<g id="node3" class="node"><title>Node26</title>
<g id="a_node3"><a xlink:href="../../d3/da8/namespacemom__fixed__initialization.html#adce0d050de4be34a2dc4fa39b49b8c27" target="_top" xlink:title="MOM_initialize_fixed sets up time&#45;invariant quantities related to MOM6&#39;s horizontal grid...">
<polygon fill="white" stroke="black" points="289,-6 289,-36 389,-36 389,-6 289,-6"/>
<text text-anchor="start" x="297" y="-24" font-family="Helvetica,sans-Serif" font-size="10.00">mom_fixed_initialization</text>
<text text-anchor="middle" x="339" y="-13" font-family="Helvetica,sans-Serif" font-size="10.00">::mom_initialize_fixed</text>
</a>
</g>
</g>
<!-- Node25&#45;&gt;Node26 -->
<g id="edge2" class="edge"><title>Node25&#45;&gt;Node26</title>
<path fill="none" stroke="midnightblue" d="M263.59,-21C272.04,-21 280.554,-21 288.653,-21"/>
<polygon fill="midnightblue" stroke="midnightblue" points="263.348,-17.5001 253.348,-21 263.347,-24.5001 263.348,-17.5001"/>
</g>
<!-- Node27 -->
<g id="node4" class="node"><title>Node27</title>
<g id="a_node4"><a xlink:href="../../da/d01/namespacemom.html#afebdc0103ad9cbe0ed4a54e522dc4104" target="_top" xlink:title="This subroutine initializes MOM. ">
<polygon fill="white" stroke="black" points="425,-11.5 425,-30.5 514,-30.5 514,-11.5 425,-11.5"/>
<text text-anchor="middle" x="469.5" y="-18.5" font-family="Helvetica,sans-Serif" font-size="10.00">mom::initialize_mom</text>
</a>
</g>
</g>
<!-- Node26&#45;&gt;Node27 -->
<g id="edge3" class="edge"><title>Node26&#45;&gt;Node27</title>
<path fill="none" stroke="midnightblue" d="M399.357,-21C407.99,-21 416.742,-21 424.985,-21"/>
<polygon fill="midnightblue" stroke="midnightblue" points="399.314,-17.5001 389.314,-21 399.314,-24.5001 399.314,-17.5001"/>
</g>
<!-- Node28 -->
<g id="node5" class="node"><title>Node28</title>
<g id="a_node5"><a xlink:href="../../de/dbc/MOM__driver_8F90.html#a08fffeb2d8e8acbf9ed4609be6d258c6" target="_top" xlink:title="mom_main">
<polygon fill="white" stroke="black" points="550,-11.5 550,-30.5 606,-30.5 606,-11.5 550,-11.5"/>
<text text-anchor="middle" x="578" y="-18.5" font-family="Helvetica,sans-Serif" font-size="10.00">mom_main</text>
</a>
</g>
</g>
<!-- Node27&#45;&gt;Node28 -->
<g id="edge4" class="edge"><title>Node27&#45;&gt;Node28</title>
<path fill="none" stroke="midnightblue" d="M524.407,-21C533.206,-21 541.981,-21 549.771,-21"/>
<polygon fill="midnightblue" stroke="midnightblue" points="524.125,-17.5001 514.125,-21 524.125,-24.5001 524.125,-17.5001"/>
</g>
</g>
</svg>
