<?xml version="1.0" encoding="UTF-8" standalone="no"?>
<!DOCTYPE svg PUBLIC "-//W3C//DTD SVG 1.1//EN"
 "http://www.w3.org/Graphics/SVG/1.1/DTD/svg11.dtd">
<!-- Generated by graphviz version 2.38.0 (20140413.2041)
 -->
<!-- Title: benchmark_initialization::benchmark_initialize_thickness Pages: 1 -->
<svg width="520pt" height="209pt"
 viewBox="0.00 0.00 520.00 209.25" xmlns="http://www.w3.org/2000/svg" xmlns:xlink="http://www.w3.org/1999/xlink">
<g id="graph0" class="graph" transform="scale(1 1) rotate(0) translate(4 205.25)">
<title>benchmark_initialization::benchmark_initialize_thickness</title>
<polygon fill="white" stroke="none" points="-4,4 -4,-205.25 516,-205.25 516,4 -4,4"/>
<!-- Node11 -->
<g id="node1" class="node"><title>Node11</title>
<polygon fill="#bfbfbf" stroke="black" points="0,-31.2496 0,-72.2496 101,-72.2496 101,-31.2496 0,-31.2496"/>
<text text-anchor="start" x="8" y="-60.2496" font-family="Helvetica,sans-Serif" font-size="10.00">benchmark_initialization</text>
<text text-anchor="start" x="8" y="-49.2496" font-family="Helvetica,sans-Serif" font-size="10.00">::benchmark_initialize</text>
<text text-anchor="middle" x="50.5" y="-38.2496" font-family="Helvetica,sans-Serif" font-size="10.00">_thickness</text>
</g>
<!-- Node12 -->
<g id="node2" class="node"><title>Node12</title>
<g id="a_node2"><a xlink:href="../../d1/d01/namespacemom__eos.html#a204529f8434a0322314e6ce2a9762436" target="_top" xlink:title="Calls the appropriate subroutine to calculate density derivatives for 1&#45;D array inputs. ">
<polygon fill="white" stroke="black" points="140,-72.7496 140,-102.75 227,-102.75 227,-72.7496 140,-72.7496"/>
<text text-anchor="start" x="148" y="-90.7496" font-family="Helvetica,sans-Serif" font-size="10.00">mom_eos::calculate</text>
<text text-anchor="middle" x="183.5" y="-79.7496" font-family="Helvetica,sans-Serif" font-size="10.00">_density_derivs</text>
</a>
</g>
</g>
<!-- Node11&#45;&gt;Node12 -->
<g id="edge1" class="edge"><title>Node11&#45;&gt;Node12</title>
<path fill="none" stroke="midnightblue" d="M101.025,-65.3597C110.49,-67.9606 120.428,-70.6918 129.983,-73.3174"/>
<polygon fill="midnightblue" stroke="midnightblue" points="129.194,-76.7304 139.764,-76.0055 131.049,-69.9807 129.194,-76.7304"/>
</g>
<!-- Node18 -->
<g id="node8" class="node"><title>Node18</title>
<g id="a_node8"><a xlink:href="../../d0/de6/namespacemom__error__handler.html#a1c462df7b61f1296407b4af51dfeceab" target="_top" xlink:title="mom_error_handler::\lmom_mesg">
<polygon fill="white" stroke="black" points="137,-1.74965 137,-31.7496 230,-31.7496 230,-1.74965 137,-1.74965"/>
<text text-anchor="start" x="145" y="-19.7496" font-family="Helvetica,sans-Serif" font-size="10.00">mom_error_handler::</text>
<text text-anchor="middle" x="183.5" y="-8.74965" font-family="Helvetica,sans-Serif" font-size="10.00">mom_mesg</text>
</a>
</g>
</g>
<!-- Node11&#45;&gt;Node18 -->
<g id="edge7" class="edge"><title>Node11&#45;&gt;Node18</title>
<path fill="none" stroke="midnightblue" d="M101.025,-38.5176C109.462,-36.2636 118.275,-33.909 126.857,-31.6161"/>
<polygon fill="midnightblue" stroke="midnightblue" points="128.031,-34.9252 136.789,-28.9625 126.224,-28.1624 128.031,-34.9252"/>
</g>
<!-- Node13 -->
<g id="node3" class="node"><title>Node13</title>
<g id="a_node3"><a xlink:href="../../d0/de6/namespacemom__error__handler.html#a460cfb79a06c29fc249952c2a3710d67" target="_top" xlink:title="mom_error_handler::\lmom_error">
<polygon fill="white" stroke="black" points="278,-170.75 278,-200.75 371,-200.75 371,-170.75 278,-170.75"/>
<text text-anchor="start" x="286" y="-188.75" font-family="Helvetica,sans-Serif" font-size="10.00">mom_error_handler::</text>
<text text-anchor="middle" x="324.5" y="-177.75" font-family="Helvetica,sans-Serif" font-size="10.00">mom_error</text>
</a>
</g>
</g>
<!-- Node12&#45;&gt;Node13 -->
<g id="edge2" class="edge"><title>Node12&#45;&gt;Node13</title>
<path fill="none" stroke="midnightblue" d="M198.264,-103.036C213.541,-119.293 239.55,-144.934 266,-161.75 268.396,-163.273 270.906,-164.736 273.48,-166.136"/>
<polygon fill="midnightblue" stroke="midnightblue" points="271.907,-169.263 282.411,-170.644 275.061,-163.013 271.907,-169.263"/>
</g>
<!-- Node15 -->
<g id="node5" class="node"><title>Node15</title>
<g id="a_node5"><a xlink:href="../../d5/de6/namespacemom__eos__linear.html#a73d8a625582247379092adf1aeeb55e0" target="_top" xlink:title="mom_eos_linear::calculate\l_density_derivs_linear">
<polygon fill="white" stroke="black" points="269,-121.75 269,-151.75 380,-151.75 380,-121.75 269,-121.75"/>
<text text-anchor="start" x="277" y="-139.75" font-family="Helvetica,sans-Serif" font-size="10.00">mom_eos_linear::calculate</text>
<text text-anchor="middle" x="324.5" y="-128.75" font-family="Helvetica,sans-Serif" font-size="10.00">_density_derivs_linear</text>
</a>
</g>
</g>
<!-- Node12&#45;&gt;Node15 -->
<g id="edge4" class="edge"><title>Node12&#45;&gt;Node15</title>
<path fill="none" stroke="midnightblue" d="M227.339,-102.851C241.079,-107.695 256.458,-113.116 270.817,-118.178"/>
<polygon fill="midnightblue" stroke="midnightblue" points="269.969,-121.59 280.563,-121.614 272.296,-114.988 269.969,-121.59"/>
</g>
<!-- Node16 -->
<g id="node6" class="node"><title>Node16</title>
<g id="a_node6"><a xlink:href="../../dd/d6b/namespacemom__eos__unesco.html#af8666837abadea54c016bf59838f96cc" target="_top" xlink:title="mom_eos_unesco::calculate\l_density_derivs_unesco">
<polygon fill="white" stroke="black" points="266,-72.7496 266,-102.75 383,-102.75 383,-72.7496 266,-72.7496"/>
<text text-anchor="start" x="274" y="-90.7496" font-family="Helvetica,sans-Serif" font-size="10.00">mom_eos_unesco::calculate</text>
<text text-anchor="middle" x="324.5" y="-79.7496" font-family="Helvetica,sans-Serif" font-size="10.00">_density_derivs_unesco</text>
</a>
</g>
</g>
<!-- Node12&#45;&gt;Node16 -->
<g id="edge5" class="edge"><title>Node12&#45;&gt;Node16</title>
<path fill="none" stroke="midnightblue" d="M227.339,-87.7496C236.397,-87.7496 246.167,-87.7496 255.888,-87.7496"/>
<polygon fill="midnightblue" stroke="midnightblue" points="255.969,-91.2497 265.969,-87.7496 255.969,-84.2497 255.969,-91.2497"/>
</g>
<!-- Node17 -->
<g id="node7" class="node"><title>Node17</title>
<g id="a_node7"><a xlink:href="../../de/d76/namespacemom__eos__wright.html#ad7748e85ddacb33ad90ec3a9017e6e72" target="_top" xlink:title="mom_eos_wright::calculate\l_density_derivs_wright">
<polygon fill="white" stroke="black" points="268,-23.7496 268,-53.7496 381,-53.7496 381,-23.7496 268,-23.7496"/>
<text text-anchor="start" x="276" y="-41.7496" font-family="Helvetica,sans-Serif" font-size="10.00">mom_eos_wright::calculate</text>
<text text-anchor="middle" x="324.5" y="-30.7496" font-family="Helvetica,sans-Serif" font-size="10.00">_density_derivs_wright</text>
</a>
</g>
</g>
<!-- Node12&#45;&gt;Node17 -->
<g id="edge6" class="edge"><title>Node12&#45;&gt;Node17</title>
<path fill="none" stroke="midnightblue" d="M227.339,-72.6482C241.079,-67.8046 256.458,-62.3833 270.817,-57.3212"/>
<polygon fill="midnightblue" stroke="midnightblue" points="272.296,-60.5112 280.563,-53.8856 269.969,-53.9094 272.296,-60.5112"/>
</g>
<!-- Node14 -->
<g id="node4" class="node"><title>Node14</title>
<g id="a_node4"><a xlink:href="../../d0/de6/namespacemom__error__handler.html#ad5f00a53059c72fe2332d1436c80ca71" target="_top" xlink:title="mom_error_handler::\lis_root_pe">
<polygon fill="white" stroke="black" points="419,-74.7496 419,-104.75 512,-104.75 512,-74.7496 419,-74.7496"/>
<text text-anchor="start" x="427" y="-92.7496" font-family="Helvetica,sans-Serif" font-size="10.00">mom_error_handler::</text>
<text text-anchor="middle" x="465.5" y="-81.7496" font-family="Helvetica,sans-Serif" font-size="10.00">is_root_pe</text>
</a>
</g>
</g>
<!-- Node13&#45;&gt;Node14 -->
<g id="edge3" class="edge"><title>Node13&#45;&gt;Node14</title>
<path fill="none" stroke="midnightblue" d="M366.244,-170.722C372.025,-168.027 377.774,-165.022 383,-161.75 405.414,-147.713 427.701,-127.48 443.288,-112.035"/>
<polygon fill="midnightblue" stroke="midnightblue" points="445.821,-114.452 450.374,-104.885 440.849,-109.524 445.821,-114.452"/>
</g>
<!-- Node18&#45;&gt;Node14 -->
<g id="edge8" class="edge"><title>Node18&#45;&gt;Node14</title>
<path fill="none" stroke="midnightblue" d="M230.003,-6.50506C271.413,0.633267 333.456,5.76639 383,-13.7496 409.849,-24.3257 433.078,-48.3775 447.791,-66.6117"/>
<polygon fill="midnightblue" stroke="midnightblue" points="445.033,-68.7657 453.934,-74.5109 450.558,-64.4684 445.033,-68.7657"/>
</g>
</g>
</svg>
