<?xml version="1.0" encoding="UTF-8" standalone="no"?>
<!DOCTYPE svg PUBLIC "-//W3C//DTD SVG 1.1//EN"
 "http://www.w3.org/Graphics/SVG/1.1/DTD/svg11.dtd">
<!-- Generated by graphviz version 2.38.0 (20140413.2041)
 -->
<!-- Title: mom_bulk_mixed_layer::bulkmixedlayer Pages: 1 -->
<svg width="708pt" height="585pt"
 viewBox="0.00 0.00 708.00 585.00" xmlns="http://www.w3.org/2000/svg" xmlns:xlink="http://www.w3.org/1999/xlink">
<g id="graph0" class="graph" transform="scale(1 1) rotate(0) translate(4 581)">
<title>mom_bulk_mixed_layer::bulkmixedlayer</title>
<polygon fill="white" stroke="none" points="-4,4 -4,-581 704,-581 704,4 -4,4"/>
<!-- Node0 -->
<g id="node1" class="node"><title>Node0</title>
<polygon fill="#bfbfbf" stroke="black" points="0,-284.5 0,-314.5 101,-314.5 101,-284.5 0,-284.5"/>
<text text-anchor="start" x="8" y="-302.5" font-family="Helvetica,sans-Serif" font-size="10.00">mom_bulk_mixed_layer</text>
<text text-anchor="middle" x="50.5" y="-291.5" font-family="Helvetica,sans-Serif" font-size="10.00">::bulkmixedlayer</text>
</g>
<!-- Node1 -->
<g id="node2" class="node"><title>Node1</title>
<g id="a_node2"><a xlink:href="../../d8/daf/namespacemom__shortwave__abs.html#a977474b56b68f4db0d6b0dc604755e6c" target="_top" xlink:title="Apply shortwave heating below surface boundary layer. ">
<polygon fill="white" stroke="black" points="152.5,-546.5 152.5,-576.5 250.5,-576.5 250.5,-546.5 152.5,-546.5"/>
<text text-anchor="start" x="160.5" y="-564.5" font-family="Helvetica,sans-Serif" font-size="10.00">mom_shortwave_abs::</text>
<text text-anchor="middle" x="201.5" y="-553.5" font-family="Helvetica,sans-Serif" font-size="10.00">absorbremainingsw</text>
</a>
</g>
</g>
<!-- Node0&#45;&gt;Node1 -->
<g id="edge1" class="edge"><title>Node0&#45;&gt;Node1</title>
<path fill="none" stroke="midnightblue" d="M52.6361,-314.597C56.5415,-355.969 72.9596,-472.396 137,-537.5 139.053,-539.587 141.306,-541.496 143.7,-543.24"/>
<polygon fill="midnightblue" stroke="midnightblue" points="141.955,-546.276 152.301,-548.56 145.638,-540.323 141.955,-546.276"/>
</g>
<!-- Node2 -->
<g id="node3" class="node"><title>Node2</title>
<g id="a_node3"><a xlink:href="../../d1/da1/namespacemom__bulk__mixed__layer.html#ac898a46c7996492a4cd3ee45ebfd1b2e" target="_top" xlink:title="mom_bulk_mixed_layer\l::convective_adjustment">
<polygon fill="white" stroke="black" points="151,-497.5 151,-527.5 252,-527.5 252,-497.5 151,-497.5"/>
<text text-anchor="start" x="159" y="-515.5" font-family="Helvetica,sans-Serif" font-size="10.00">mom_bulk_mixed_layer</text>
<text text-anchor="middle" x="201.5" y="-504.5" font-family="Helvetica,sans-Serif" font-size="10.00">::convective_adjustment</text>
</a>
</g>
</g>
<!-- Node0&#45;&gt;Node2 -->
<g id="edge2" class="edge"><title>Node0&#45;&gt;Node2</title>
<path fill="none" stroke="midnightblue" d="M54.227,-314.536C61.3868,-349.823 83.953,-438.718 137,-488.5 138.641,-490.04 140.39,-491.484 142.223,-492.837"/>
<polygon fill="midnightblue" stroke="midnightblue" points="140.39,-495.819 150.712,-498.209 144.133,-489.904 140.39,-495.819"/>
</g>
<!-- Node3 -->
<g id="node4" class="node"><title>Node3</title>
<g id="a_node4"><a xlink:href="../../d9/d06/namespacemom__diag__mediator.html#a67a9077037d7bf86f7415ca1ad672295" target="_top" xlink:title="Build/update target vertical grids for diagnostic remapping. ">
<polygon fill="white" stroke="black" points="147.5,-448.5 147.5,-478.5 255.5,-478.5 255.5,-448.5 147.5,-448.5"/>
<text text-anchor="start" x="155.5" y="-466.5" font-family="Helvetica,sans-Serif" font-size="10.00">mom_diag_mediator::</text>
<text text-anchor="middle" x="201.5" y="-455.5" font-family="Helvetica,sans-Serif" font-size="10.00">diag_update_target_grids</text>
</a>
</g>
</g>
<!-- Node0&#45;&gt;Node3 -->
<g id="edge3" class="edge"><title>Node0&#45;&gt;Node3</title>
<path fill="none" stroke="midnightblue" d="M57.7729,-314.717C69.6151,-341.817 97.6539,-398.844 137,-433.5 141.174,-437.177 145.878,-440.496 150.789,-443.468"/>
<polygon fill="midnightblue" stroke="midnightblue" points="149.34,-446.667 159.785,-448.446 152.73,-440.542 149.34,-446.667"/>
</g>
<!-- Node5 -->
<g id="node6" class="node"><title>Node5</title>
<g id="a_node6"><a xlink:href="../../d0/de6/namespacemom__error__handler.html#a460cfb79a06c29fc249952c2a3710d67" target="_top" xlink:title="mom_error_handler::\lmom_error">
<polygon fill="white" stroke="black" points="478,-375.5 478,-405.5 571,-405.5 571,-375.5 478,-375.5"/>
<text text-anchor="start" x="486" y="-393.5" font-family="Helvetica,sans-Serif" font-size="10.00">mom_error_handler::</text>
<text text-anchor="middle" x="524.5" y="-382.5" font-family="Helvetica,sans-Serif" font-size="10.00">mom_error</text>
</a>
</g>
</g>
<!-- Node0&#45;&gt;Node5 -->
<g id="edge19" class="edge"><title>Node0&#45;&gt;Node5</title>
<path fill="none" stroke="midnightblue" d="M58.8846,-314.754C71.2585,-338.321 98.6497,-382.718 137,-400.5 245.253,-450.693 389.534,-426.355 467.607,-406.793"/>
<polygon fill="midnightblue" stroke="midnightblue" points="468.9,-410.074 477.713,-404.194 467.156,-403.295 468.9,-410.074"/>
</g>
<!-- Node9 -->
<g id="node10" class="node"><title>Node9</title>
<g id="a_node10"><a xlink:href="../../d1/d95/namespacemom__domains.html#ac90ecdd1f8397352dfa996ae7198b0ef" target="_top" xlink:title="mom_domains::do_group_pass">
<polygon fill="white" stroke="black" points="137,-372 137,-391 266,-391 266,-372 137,-372"/>
<text text-anchor="middle" x="201.5" y="-379" font-family="Helvetica,sans-Serif" font-size="10.00">mom_domains::do_group_pass</text>
</a>
</g>
</g>
<!-- Node0&#45;&gt;Node9 -->
<g id="edge9" class="edge"><title>Node0&#45;&gt;Node9</title>
<path fill="none" stroke="midnightblue" d="M71.0541,-314.723C87.8695,-327.324 113.119,-345.107 137,-357.5 144.669,-361.48 153.153,-365.149 161.357,-368.358"/>
<polygon fill="midnightblue" stroke="midnightblue" points="160.201,-371.662 170.793,-371.906 162.664,-365.11 160.201,-371.662"/>
</g>
<!-- Node10 -->
<g id="node11" class="node"><title>Node10</title>
<g id="a_node11"><a xlink:href="../../dd/dc3/namespacemom__forcing__type.html#ab67e7c2e99099bcf22d12885f349e1e4" target="_top" xlink:title="This subroutine extracts fluxes from the surface fluxes type. It works on a j&#45;row for optimization pu...">
<polygon fill="white" stroke="black" points="302,-353 302,-372 442,-372 442,-353 302,-353"/>
<text text-anchor="middle" x="372" y="-360" font-family="Helvetica,sans-Serif" font-size="10.00">mom_forcing_type::extractfluxes1d</text>
</a>
</g>
</g>
<!-- Node0&#45;&gt;Node10 -->
<g id="edge10" class="edge"><title>Node0&#45;&gt;Node10</title>
<path fill="none" stroke="midnightblue" d="M99.1613,-314.566C111.415,-318.127 124.632,-321.699 137,-324.5 188.126,-336.079 246.302,-345.543 291.857,-352.13"/>
<polygon fill="midnightblue" stroke="midnightblue" points="291.573,-355.625 301.968,-353.574 292.564,-348.695 291.573,-355.625"/>
</g>
<!-- Node11 -->
<g id="node12" class="node"><title>Node11</title>
<g id="a_node12"><a xlink:href="../../d1/da1/namespacemom__bulk__mixed__layer.html#a665aff6a1571290883752364eb5aa129" target="_top" xlink:title="mom_bulk_mixed_layer\l::find_starting_tke">
<polygon fill="white" stroke="black" points="151,-284.5 151,-314.5 252,-314.5 252,-284.5 151,-284.5"/>
<text text-anchor="start" x="159" y="-302.5" font-family="Helvetica,sans-Serif" font-size="10.00">mom_bulk_mixed_layer</text>
<text text-anchor="middle" x="201.5" y="-291.5" font-family="Helvetica,sans-Serif" font-size="10.00">::find_starting_tke</text>
</a>
</g>
</g>
<!-- Node0&#45;&gt;Node11 -->
<g id="edge12" class="edge"><title>Node0&#45;&gt;Node11</title>
<path fill="none" stroke="midnightblue" d="M101.115,-299.5C113.74,-299.5 127.442,-299.5 140.523,-299.5"/>
<polygon fill="midnightblue" stroke="midnightblue" points="140.848,-303 150.848,-299.5 140.848,-296 140.848,-303"/>
</g>
<!-- Node12 -->
<g id="node13" class="node"><title>Node12</title>
<g id="a_node13"><a xlink:href="../../d1/da1/namespacemom__bulk__mixed__layer.html#a18320524267554e0417f02af24ede6c3" target="_top" xlink:title="mom_bulk_mixed_layer\l::mechanical_entrainment">
<polygon fill="white" stroke="black" points="147.5,-235.5 147.5,-265.5 255.5,-265.5 255.5,-235.5 147.5,-235.5"/>
<text text-anchor="start" x="155.5" y="-253.5" font-family="Helvetica,sans-Serif" font-size="10.00">mom_bulk_mixed_layer</text>
<text text-anchor="middle" x="201.5" y="-242.5" font-family="Helvetica,sans-Serif" font-size="10.00">::mechanical_entrainment</text>
</a>
</g>
</g>
<!-- Node0&#45;&gt;Node12 -->
<g id="edge13" class="edge"><title>Node0&#45;&gt;Node12</title>
<path fill="none" stroke="midnightblue" d="M97.4207,-284.399C112.503,-279.438 129.428,-273.873 145.136,-268.707"/>
<polygon fill="midnightblue" stroke="midnightblue" points="146.325,-272 154.731,-265.552 144.138,-265.351 146.325,-272"/>
</g>
<!-- Node14 -->
<g id="node15" class="node"><title>Node14</title>
<g id="a_node15"><a xlink:href="../../d1/da1/namespacemom__bulk__mixed__layer.html#a071010a461d5ae9440b063aadf4e2f88" target="_top" xlink:title="mom_bulk_mixed_layer\l::mixedlayer_convection">
<polygon fill="white" stroke="black" points="151,-186.5 151,-216.5 252,-216.5 252,-186.5 151,-186.5"/>
<text text-anchor="start" x="159" y="-204.5" font-family="Helvetica,sans-Serif" font-size="10.00">mom_bulk_mixed_layer</text>
<text text-anchor="middle" x="201.5" y="-193.5" font-family="Helvetica,sans-Serif" font-size="10.00">::mixedlayer_convection</text>
</a>
</g>
</g>
<!-- Node0&#45;&gt;Node14 -->
<g id="edge15" class="edge"><title>Node0&#45;&gt;Node14</title>
<path fill="none" stroke="midnightblue" d="M66.0585,-284.378C82.1879,-268.305 109.559,-242.982 137,-226.5 140.333,-224.498 143.854,-222.599 147.462,-220.809"/>
<polygon fill="midnightblue" stroke="midnightblue" points="148.952,-223.976 156.546,-216.587 146.002,-217.627 148.952,-223.976"/>
</g>
<!-- Node15 -->
<g id="node16" class="node"><title>Node15</title>
<g id="a_node16"><a xlink:href="../../d1/da1/namespacemom__bulk__mixed__layer.html#ad9e6f68b38815279808b9fa52cfc6e65" target="_top" xlink:title="mom_bulk_mixed_layer\l::mixedlayer_detrain_1">
<polygon fill="white" stroke="black" points="151,-137.5 151,-167.5 252,-167.5 252,-137.5 151,-137.5"/>
<text text-anchor="start" x="159" y="-155.5" font-family="Helvetica,sans-Serif" font-size="10.00">mom_bulk_mixed_layer</text>
<text text-anchor="middle" x="201.5" y="-144.5" font-family="Helvetica,sans-Serif" font-size="10.00">::mixedlayer_detrain_1</text>
</a>
</g>
</g>
<!-- Node0&#45;&gt;Node15 -->
<g id="edge16" class="edge"><title>Node0&#45;&gt;Node15</title>
<path fill="none" stroke="midnightblue" d="M58.5058,-284.212C70.8988,-258.732 99.0086,-207.432 137,-177.5 139.268,-175.713 141.681,-174.039 144.189,-172.474"/>
<polygon fill="midnightblue" stroke="midnightblue" points="145.979,-175.483 153.015,-167.561 142.575,-169.367 145.979,-175.483"/>
</g>
<!-- Node16 -->
<g id="node17" class="node"><title>Node16</title>
<g id="a_node17"><a xlink:href="../../d1/da1/namespacemom__bulk__mixed__layer.html#a46fd0f8d6109e0d4f7e4da971f2ab663" target="_top" xlink:title="mom_bulk_mixed_layer\l::mixedlayer_detrain_2">
<polygon fill="white" stroke="black" points="321.5,-142.5 321.5,-172.5 422.5,-172.5 422.5,-142.5 321.5,-142.5"/>
<text text-anchor="start" x="329.5" y="-160.5" font-family="Helvetica,sans-Serif" font-size="10.00">mom_bulk_mixed_layer</text>
<text text-anchor="middle" x="372" y="-149.5" font-family="Helvetica,sans-Serif" font-size="10.00">::mixedlayer_detrain_2</text>
</a>
</g>
</g>
<!-- Node0&#45;&gt;Node16 -->
<g id="edge17" class="edge"><title>Node0&#45;&gt;Node16</title>
<path fill="none" stroke="midnightblue" d="M53.7398,-284.33C59.8055,-249.413 80.1075,-163.661 137,-128.5 196.905,-91.4768 281.968,-117.308 331.324,-138.237"/>
<polygon fill="midnightblue" stroke="midnightblue" points="330.137,-141.538 340.702,-142.338 332.942,-135.124 330.137,-141.538"/>
</g>
<!-- Node17 -->
<g id="node18" class="node"><title>Node17</title>
<g id="a_node18"><a xlink:href="../../d1/da1/namespacemom__bulk__mixed__layer.html#a2fe961f18f7636103213f26622bf690c" target="_top" xlink:title="mom_bulk_mixed_layer\l::resort_ml">
<polygon fill="white" stroke="black" points="151,-49.5 151,-79.5 252,-79.5 252,-49.5 151,-49.5"/>
<text text-anchor="start" x="159" y="-67.5" font-family="Helvetica,sans-Serif" font-size="10.00">mom_bulk_mixed_layer</text>
<text text-anchor="middle" x="201.5" y="-56.5" font-family="Helvetica,sans-Serif" font-size="10.00">::resort_ml</text>
</a>
</g>
</g>
<!-- Node0&#45;&gt;Node17 -->
<g id="edge20" class="edge"><title>Node0&#45;&gt;Node17</title>
<path fill="none" stroke="midnightblue" d="M53.9753,-284.332C60.7454,-247.319 82.8082,-151.256 137,-94.5 140.4,-90.9395 144.306,-87.7559 148.476,-84.9189"/>
<polygon fill="midnightblue" stroke="midnightblue" points="150.575,-87.7395 157.324,-79.5724 146.955,-81.7482 150.575,-87.7395"/>
</g>
<!-- Node18 -->
<g id="node19" class="node"><title>Node18</title>
<g id="a_node19"><a xlink:href="../../d1/da1/namespacemom__bulk__mixed__layer.html#a8a134ad0f0695d7195bb50ed2ad6f7b4" target="_top" xlink:title="mom_bulk_mixed_layer\l::sort_ml">
<polygon fill="white" stroke="black" points="151,-0.5 151,-30.5 252,-30.5 252,-0.5 151,-0.5"/>
<text text-anchor="start" x="159" y="-18.5" font-family="Helvetica,sans-Serif" font-size="10.00">mom_bulk_mixed_layer</text>
<text text-anchor="middle" x="201.5" y="-7.5" font-family="Helvetica,sans-Serif" font-size="10.00">::sort_ml</text>
</a>
</g>
</g>
<!-- Node0&#45;&gt;Node18 -->
<g id="edge21" class="edge"><title>Node0&#45;&gt;Node18</title>
<path fill="none" stroke="midnightblue" d="M52.1059,-284.315C54.6682,-240.362 67.9976,-111.582 137,-39.5 138.622,-37.8053 140.376,-36.229 142.232,-34.763"/>
<polygon fill="midnightblue" stroke="midnightblue" points="144.511,-37.4518 150.922,-29.0163 140.65,-31.613 144.511,-37.4518"/>
</g>
<!-- Node4 -->
<g id="node5" class="node"><title>Node4</title>
<g id="a_node5"><a xlink:href="../../d9/d06/namespacemom__diag__mediator.html#a6e11afe7a97bf8e3333d33b0aebd6f6e" target="_top" xlink:title="mom_diag_mediator::\lassert">
<polygon fill="white" stroke="black" points="324.5,-546.5 324.5,-576.5 419.5,-576.5 419.5,-546.5 324.5,-546.5"/>
<text text-anchor="start" x="332.5" y="-564.5" font-family="Helvetica,sans-Serif" font-size="10.00">mom_diag_mediator::</text>
<text text-anchor="middle" x="372" y="-553.5" font-family="Helvetica,sans-Serif" font-size="10.00">assert</text>
</a>
</g>
</g>
<!-- Node3&#45;&gt;Node4 -->
<g id="edge4" class="edge"><title>Node3&#45;&gt;Node4</title>
<path fill="none" stroke="midnightblue" d="M249.576,-478.503C255.387,-481.353 261.024,-484.669 266,-488.5 287.413,-504.985 280.259,-521.45 302,-537.5 305.938,-540.407 310.257,-542.983 314.752,-545.262"/>
<polygon fill="midnightblue" stroke="midnightblue" points="313.609,-548.587 324.162,-549.533 316.502,-542.213 313.609,-548.587"/>
</g>
<!-- Node7 -->
<g id="node8" class="node"><title>Node7</title>
<g id="a_node8"><a xlink:href="../../d7/d1b/namespacemom__regridding.html#ac384596d1d07e413bbed37c71e0571e0" target="_top" xlink:title="This subroutine can be used to set many of the parameters for MOM_regridding. ">
<polygon fill="white" stroke="black" points="327,-497.5 327,-527.5 417,-527.5 417,-497.5 327,-497.5"/>
<text text-anchor="start" x="335" y="-515.5" font-family="Helvetica,sans-Serif" font-size="10.00">mom_regridding::set</text>
<text text-anchor="middle" x="372" y="-504.5" font-family="Helvetica,sans-Serif" font-size="10.00">_regrid_params</text>
</a>
</g>
</g>
<!-- Node3&#45;&gt;Node7 -->
<g id="edge7" class="edge"><title>Node3&#45;&gt;Node7</title>
<path fill="none" stroke="midnightblue" d="M254.43,-478.601C274.374,-484.401 297.166,-491.029 317.275,-496.877"/>
<polygon fill="midnightblue" stroke="midnightblue" points="316.328,-500.246 326.907,-499.678 318.283,-493.525 316.328,-500.246"/>
</g>
<!-- Node8 -->
<g id="node9" class="node"><title>Node8</title>
<g id="a_node9"><a xlink:href="../../d7/d1b/namespacemom__regridding.html#a1fe77f09d8e5ea5eae1a0cff087d5464" target="_top" xlink:title="Builds a z* coordinate with a minimum thickness. ">
<polygon fill="white" stroke="black" points="324,-448.5 324,-478.5 420,-478.5 420,-448.5 324,-448.5"/>
<text text-anchor="start" x="332" y="-466.5" font-family="Helvetica,sans-Serif" font-size="10.00">mom_regridding::build</text>
<text text-anchor="middle" x="372" y="-455.5" font-family="Helvetica,sans-Serif" font-size="10.00">_zstar_column</text>
</a>
</g>
</g>
<!-- Node3&#45;&gt;Node8 -->
<g id="edge8" class="edge"><title>Node3&#45;&gt;Node8</title>
<path fill="none" stroke="midnightblue" d="M255.814,-463.5C274.2,-463.5 294.868,-463.5 313.568,-463.5"/>
<polygon fill="midnightblue" stroke="midnightblue" points="313.727,-467 323.727,-463.5 313.727,-460 313.727,-467"/>
</g>
<!-- Node4&#45;&gt;Node5 -->
<g id="edge5" class="edge"><title>Node4&#45;&gt;Node5</title>
<path fill="none" stroke="midnightblue" d="M419.664,-550.519C427.674,-547.224 435.499,-542.972 442,-537.5 481.081,-504.606 504.823,-447.962 515.93,-415.43"/>
<polygon fill="midnightblue" stroke="midnightblue" points="519.306,-416.368 519.096,-405.776 512.654,-414.187 519.306,-416.368"/>
</g>
<!-- Node6 -->
<g id="node7" class="node"><title>Node6</title>
<g id="a_node7"><a xlink:href="../../d0/de6/namespacemom__error__handler.html#ad5f00a53059c72fe2332d1436c80ca71" target="_top" xlink:title="mom_error_handler::\lis_root_pe">
<polygon fill="white" stroke="black" points="607,-375.5 607,-405.5 700,-405.5 700,-375.5 607,-375.5"/>
<text text-anchor="start" x="615" y="-393.5" font-family="Helvetica,sans-Serif" font-size="10.00">mom_error_handler::</text>
<text text-anchor="middle" x="653.5" y="-382.5" font-family="Helvetica,sans-Serif" font-size="10.00">is_root_pe</text>
</a>
</g>
</g>
<!-- Node5&#45;&gt;Node6 -->
<g id="edge6" class="edge"><title>Node5&#45;&gt;Node6</title>
<path fill="none" stroke="midnightblue" d="M571.35,-390.5C579.533,-390.5 588.141,-390.5 596.568,-390.5"/>
<polygon fill="midnightblue" stroke="midnightblue" points="596.717,-394 606.717,-390.5 596.717,-387 596.717,-394"/>
</g>
<!-- Node10&#45;&gt;Node5 -->
<g id="edge11" class="edge"><title>Node10&#45;&gt;Node5</title>
<path fill="none" stroke="midnightblue" d="M424.373,-372.058C438.351,-374.658 453.556,-377.487 467.764,-380.13"/>
<polygon fill="midnightblue" stroke="midnightblue" points="467.43,-383.628 477.901,-382.017 468.71,-376.746 467.43,-383.628"/>
</g>
<!-- Node13 -->
<g id="node14" class="node"><title>Node13</title>
<g id="a_node14"><a xlink:href="../../d1/da1/namespacemom__bulk__mixed__layer.html#a98199335f3bf2b2153c35957d753b867" target="_top" xlink:title="mom_bulk_mixed_layer::ef4">
<polygon fill="white" stroke="black" points="314,-241 314,-260 430,-260 430,-241 314,-241"/>
<text text-anchor="middle" x="372" y="-248" font-family="Helvetica,sans-Serif" font-size="10.00">mom_bulk_mixed_layer::ef4</text>
</a>
</g>
</g>
<!-- Node12&#45;&gt;Node13 -->
<g id="edge14" class="edge"><title>Node12&#45;&gt;Node13</title>
<path fill="none" stroke="midnightblue" d="M255.814,-250.5C271,-250.5 287.743,-250.5 303.648,-250.5"/>
<polygon fill="midnightblue" stroke="midnightblue" points="303.954,-254 313.954,-250.5 303.954,-247 303.954,-254"/>
</g>
<!-- Node16&#45;&gt;Node5 -->
<g id="edge18" class="edge"><title>Node16&#45;&gt;Node5</title>
<path fill="none" stroke="midnightblue" d="M389.441,-172.561C404.362,-186.788 426.357,-209.216 442,-231.5 473.038,-275.714 499.563,-333.355 513.352,-365.693"/>
<polygon fill="midnightblue" stroke="midnightblue" points="510.27,-367.391 517.371,-375.254 516.723,-364.679 510.27,-367.391"/>
</g>
</g>
</svg>
