<?xml version="1.0" encoding="UTF-8" standalone="no"?>
<!DOCTYPE svg PUBLIC "-//W3C//DTD SVG 1.1//EN"
 "http://www.w3.org/Graphics/SVG/1.1/DTD/svg11.dtd">
<!-- Generated by graphviz version 2.38.0 (20140413.2041)
 -->
<!-- Title: mom_grid_initialize::set_grid_metrics_from_mosaic Pages: 1 -->
<svg width="583pt" height="148pt"
 viewBox="0.00 0.00 583.00 148.00" xmlns="http://www.w3.org/2000/svg" xmlns:xlink="http://www.w3.org/1999/xlink">
<g id="graph0" class="graph" transform="scale(1 1) rotate(0) translate(4 144)">
<title>mom_grid_initialize::set_grid_metrics_from_mosaic</title>
<polygon fill="white" stroke="none" points="-4,4 -4,-144 579,-144 579,4 -4,4"/>
<!-- Node165 -->
<g id="node1" class="node"><title>Node165</title>
<polygon fill="#bfbfbf" stroke="black" points="0,-33.5 0,-74.5 101,-74.5 101,-33.5 0,-33.5"/>
<text text-anchor="start" x="8" y="-62.5" font-family="Helvetica,sans-Serif" font-size="10.00">mom_grid_initialize</text>
<text text-anchor="start" x="8" y="-51.5" font-family="Helvetica,sans-Serif" font-size="10.00">::set_grid_metrics_from</text>
<text text-anchor="middle" x="50.5" y="-40.5" font-family="Helvetica,sans-Serif" font-size="10.00">_mosaic</text>
</g>
<!-- Node166 -->
<g id="node2" class="node"><title>Node166</title>
<g id="a_node2"><a xlink:href="../../d5/daa/namespacemom__grid__initialize.html#a235a9712823e2f78e4958e8d681b6ba4" target="_top" xlink:title="set_grid_metrics is used to set the primary values in the model&#39;s horizontal grid. The bathymetry, land&#45;sea mask and any restricted channel widths are not know yet, so these are set later. ">
<polygon fill="white" stroke="black" points="137,-39 137,-69 221,-69 221,-39 137,-39"/>
<text text-anchor="start" x="145" y="-57" font-family="Helvetica,sans-Serif" font-size="10.00">mom_grid_initialize</text>
<text text-anchor="middle" x="179" y="-46" font-family="Helvetica,sans-Serif" font-size="10.00">::set_grid_metrics</text>
</a>
</g>
</g>
<!-- Node165&#45;&gt;Node166 -->
<g id="edge1" class="edge"><title>Node165&#45;&gt;Node166</title>
<path fill="none" stroke="midnightblue" d="M111.18,-54C119.805,-54 128.52,-54 136.679,-54"/>
<polygon fill="midnightblue" stroke="midnightblue" points="111.133,-50.5001 101.133,-54 111.133,-57.5001 111.133,-50.5001"/>
</g>
<!-- Node167 -->
<g id="node3" class="node"><title>Node167</title>
<g id="a_node3"><a xlink:href="../../df/da2/namespacemom__ice__shelf.html#ae315e8464ef8a20062e3bccb61886755" target="_top" xlink:title="mom_ice_shelf::initialize\l_ice_shelf">
<polygon fill="white" stroke="black" points="257,-88 257,-118 358,-118 358,-88 257,-88"/>
<text text-anchor="start" x="265" y="-106" font-family="Helvetica,sans-Serif" font-size="10.00">mom_ice_shelf::initialize</text>
<text text-anchor="middle" x="307.5" y="-95" font-family="Helvetica,sans-Serif" font-size="10.00">_ice_shelf</text>
</a>
</g>
</g>
<!-- Node166&#45;&gt;Node167 -->
<g id="edge2" class="edge"><title>Node166&#45;&gt;Node167</title>
<path fill="none" stroke="midnightblue" d="M228.607,-72.8278C241.454,-77.8042 255.154,-83.1109 267.425,-87.8641"/>
<polygon fill="midnightblue" stroke="midnightblue" points="229.575,-69.4498 218.986,-69.1014 227.047,-75.9772 229.575,-69.4498"/>
</g>
<!-- Node170 -->
<g id="node6" class="node"><title>Node170</title>
<g id="a_node6"><a xlink:href="../../d3/da8/namespacemom__fixed__initialization.html#adce0d050de4be34a2dc4fa39b49b8c27" target="_top" xlink:title="MOM_initialize_fixed sets up time&#45;invariant quantities related to MOM6&#39;s horizontal grid...">
<polygon fill="white" stroke="black" points="257.5,-39 257.5,-69 357.5,-69 357.5,-39 257.5,-39"/>
<text text-anchor="start" x="265.5" y="-57" font-family="Helvetica,sans-Serif" font-size="10.00">mom_fixed_initialization</text>
<text text-anchor="middle" x="307.5" y="-46" font-family="Helvetica,sans-Serif" font-size="10.00">::mom_initialize_fixed</text>
</a>
</g>
</g>
<!-- Node166&#45;&gt;Node170 -->
<g id="edge5" class="edge"><title>Node166&#45;&gt;Node170</title>
<path fill="none" stroke="midnightblue" d="M231.319,-54C239.881,-54 248.744,-54 257.252,-54"/>
<polygon fill="midnightblue" stroke="midnightblue" points="231.071,-50.5001 221.071,-54 231.071,-57.5001 231.071,-50.5001"/>
</g>
<!-- Node172 -->
<g id="node8" class="node"><title>Node172</title>
<g id="a_node8"><a xlink:href="../../d6/d48/MOM__sum__driver_8F90.html#a08fffeb2d8e8acbf9ed4609be6d258c6" target="_top" xlink:title="mom_main">
<polygon fill="white" stroke="black" points="279.5,-0.5 279.5,-19.5 335.5,-19.5 335.5,-0.5 279.5,-0.5"/>
<text text-anchor="middle" x="307.5" y="-7.5" font-family="Helvetica,sans-Serif" font-size="10.00">mom_main</text>
</a>
</g>
</g>
<!-- Node166&#45;&gt;Node172 -->
<g id="edge8" class="edge"><title>Node166&#45;&gt;Node172</title>
<path fill="none" stroke="midnightblue" d="M230.657,-36.3803C247.235,-30.6139 265.017,-24.429 279.193,-19.4982"/>
<polygon fill="midnightblue" stroke="midnightblue" points="229.366,-33.1234 221.071,-39.7145 231.666,-39.7349 229.366,-33.1234"/>
</g>
<!-- Node168 -->
<g id="node4" class="node"><title>Node168</title>
<g id="a_node4"><a xlink:href="../../d5/d6d/ice__shelf__driver_8F90.html#aec5bef92f0dad343f545cd8d62e378d8" target="_top" xlink:title="shelf_main">
<polygon fill="white" stroke="black" points="411,-120.5 411,-139.5 466,-139.5 466,-120.5 411,-120.5"/>
<text text-anchor="middle" x="438.5" y="-127.5" font-family="Helvetica,sans-Serif" font-size="10.00">shelf_main</text>
</a>
</g>
</g>
<!-- Node167&#45;&gt;Node168 -->
<g id="edge3" class="edge"><title>Node167&#45;&gt;Node168</title>
<path fill="none" stroke="midnightblue" d="M368.21,-115.498C383.086,-118.611 398.303,-121.796 410.673,-124.385"/>
<polygon fill="midnightblue" stroke="midnightblue" points="368.511,-111.985 358.006,-113.362 367.077,-118.836 368.511,-111.985"/>
</g>
<!-- Node169 -->
<g id="node5" class="node"><title>Node169</title>
<g id="a_node5"><a xlink:href="../../de/dbc/MOM__driver_8F90.html#a08fffeb2d8e8acbf9ed4609be6d258c6" target="_top" xlink:title="mom_main">
<polygon fill="white" stroke="black" points="519,-63.5 519,-82.5 575,-82.5 575,-63.5 519,-63.5"/>
<text text-anchor="middle" x="547" y="-70.5" font-family="Helvetica,sans-Serif" font-size="10.00">mom_main</text>
</a>
</g>
</g>
<!-- Node167&#45;&gt;Node169 -->
<g id="edge4" class="edge"><title>Node167&#45;&gt;Node169</title>
<path fill="none" stroke="midnightblue" d="M368.314,-95.4445C416.619,-89.3429 482.353,-81.0396 518.813,-76.4342"/>
<polygon fill="midnightblue" stroke="midnightblue" points="367.77,-91.9853 358.288,-96.711 368.648,-98.9301 367.77,-91.9853"/>
</g>
<!-- Node171 -->
<g id="node7" class="node"><title>Node171</title>
<g id="a_node7"><a xlink:href="../../da/d01/namespacemom.html#afebdc0103ad9cbe0ed4a54e522dc4104" target="_top" xlink:title="This subroutine initializes MOM. ">
<polygon fill="white" stroke="black" points="394,-44.5 394,-63.5 483,-63.5 483,-44.5 394,-44.5"/>
<text text-anchor="middle" x="438.5" y="-51.5" font-family="Helvetica,sans-Serif" font-size="10.00">mom::initialize_mom</text>
</a>
</g>
</g>
<!-- Node170&#45;&gt;Node171 -->
<g id="edge6" class="edge"><title>Node170&#45;&gt;Node171</title>
<path fill="none" stroke="midnightblue" d="M367.868,-54C376.667,-54 385.595,-54 393.989,-54"/>
<polygon fill="midnightblue" stroke="midnightblue" points="367.637,-50.5001 357.637,-54 367.637,-57.5001 367.637,-50.5001"/>
</g>
<!-- Node171&#45;&gt;Node169 -->
<g id="edge7" class="edge"><title>Node171&#45;&gt;Node169</title>
<path fill="none" stroke="midnightblue" d="M493.121,-63.5661C502.016,-65.153 510.897,-66.7374 518.771,-68.1423"/>
<polygon fill="midnightblue" stroke="midnightblue" points="493.584,-60.0936 483.125,-61.7828 492.355,-66.9848 493.584,-60.0936"/>
</g>
</g>
</svg>
