<?xml version="1.0" encoding="UTF-8" standalone="no"?>
<!DOCTYPE svg PUBLIC "-//W3C//DTD SVG 1.1//EN"
 "http://www.w3.org/Graphics/SVG/1.1/DTD/svg11.dtd">
<!-- Generated by graphviz version 2.38.0 (20140413.2041)
 -->
<!-- Title: mom_grid_initialize::set_grid_metrics Pages: 1 -->
<!--zoomable 662 -->
<svg id="main" version="1.1" xmlns="http://www.w3.org/2000/svg" xmlns:xlink="http://www.w3.org/1999/xlink" xml:space="preserve" onload="init(evt)">
<style type="text/css"><![CDATA[
.edge:hover path { stroke: red; }
.edge:hover polygon { stroke: red; fill: red; }
]]></style>
<script type="text/javascript"><![CDATA[
var edges = document.getElementsByTagName('g');
if (edges && edges.length) {
  for (var i=0;i<edges.length;i++) {
    if (edges[i].id.substr(0,4)=='edge') {
      edges[i].setAttribute('class','edge');
    }
  }
}
]]></script>
        <defs>
                <circle id="rim" cx="0" cy="0" r="7"/>
                <circle id="rim2" cx="0" cy="0" r="3.5"/>
                <g id="zoomPlus">
                        <use xlink:href="#rim" fill="#404040">
                                <set attributeName="fill" to="#808080" begin="zoomplus.mouseover" end="zoomplus.mouseout"/>
                        </use>
                        <path d="M-4,0h8M0,-4v8" fill="none" stroke="white" stroke-width="1.5" pointer-events="none"/>
                </g>
                <g id="zoomMin">
                        <use xlink:href="#rim" fill="#404040">
                                <set attributeName="fill" to="#808080" begin="zoomminus.mouseover" end="zoomminus.mouseout"/>
                        </use>
                        <path d="M-4,0h8" fill="none" stroke="white" stroke-width="1.5" pointer-events="none"/>
                </g>
                <g id="dirArrow">
                        <path fill="none" stroke="white" stroke-width="1.5" d="M0,-3.0v7 M-2.5,-0.5L0,-3.0L2.5,-0.5"/>
                </g>
               <g id="resetDef">
                       <use xlink:href="#rim2" fill="#404040">
                               <set attributeName="fill" to="#808080" begin="reset.mouseover" end="reset.mouseout"/>
                       </use>
               </g>
        </defs>

<script type="text/javascript">
var viewWidth = 659;
var viewHeight = 662;
var sectionId = 'dynsection-16';
</script>
<script xlink:href="../../svgpan.js"/>
<svg id="graph" class="graph">
<g id="viewport">
<title>mom_grid_initialize::set_grid_metrics</title>
<polygon fill="white" stroke="none" points="-4,4 -4,-658.198 655,-658.198 655,4 -4,4"/>
<!-- Node119 -->
<g id="node1" class="node"><title>Node119</title>
<polygon fill="#bfbfbf" stroke="black" points="0,-454.5 0,-484.5 84,-484.5 84,-454.5 0,-454.5"/>
<text text-anchor="start" x="8" y="-472.5" font-family="Helvetica,sans-Serif" font-size="10.00">mom_grid_initialize</text>
<text text-anchor="middle" x="42" y="-461.5" font-family="Helvetica,sans-Serif" font-size="10.00">::set_grid_metrics</text>
</g>
<!-- Node120 -->
<g id="node2" class="node"><title>Node120</title>
<g id="a_node2"><a xlink:href="../../d0/de6/namespacemom__error__handler.html#a9cda07a87815f0e5594066162b4345c3" target="_top" xlink:title="Writes a message about entering a subroutine if call tree reporting is active. ">
<polygon fill="white" stroke="black" points="286,-596.5 286,-626.5 379,-626.5 379,-596.5 286,-596.5"/>
<text text-anchor="start" x="294" y="-614.5" font-family="Helvetica,sans-Serif" font-size="10.00">mom_error_handler::</text>
<text text-anchor="middle" x="332.5" y="-603.5" font-family="Helvetica,sans-Serif" font-size="10.00">calltree_enter</text>
</a>
</g>
</g>
<!-- Node119&#45;&gt;Node120 -->
<g id="edge1" class="edge"><title>Node119&#45;&gt;Node120</title>
<path fill="none" stroke="midnightblue" d="M44.6511,-484.522C49.308,-518.684 65.952,-601.904 120,-636.5 171.932,-669.742 245.955,-649.066 291.25,-630.613"/>
<polygon fill="midnightblue" stroke="midnightblue" points="292.885,-633.722 300.737,-626.609 290.163,-627.273 292.885,-633.722"/>
</g>
<!-- Node122 -->
<g id="node4" class="node"><title>Node122</title>
<g id="a_node4"><a xlink:href="../../d0/de6/namespacemom__error__handler.html#a88ea67781e2ed9b73ab7eac8ea5e8578" target="_top" xlink:title="Writes a message about leaving a subroutine if call tree reporting is active. ">
<polygon fill="white" stroke="black" points="286,-547.5 286,-577.5 379,-577.5 379,-547.5 286,-547.5"/>
<text text-anchor="start" x="294" y="-565.5" font-family="Helvetica,sans-Serif" font-size="10.00">mom_error_handler::</text>
<text text-anchor="middle" x="332.5" y="-554.5" font-family="Helvetica,sans-Serif" font-size="10.00">calltree_leave</text>
</a>
</g>
</g>
<!-- Node119&#45;&gt;Node122 -->
<g id="edge3" class="edge"><title>Node119&#45;&gt;Node122</title>
<path fill="none" stroke="midnightblue" d="M79.9794,-484.616C92.5939,-489.583 106.837,-494.984 120,-499.5 172.448,-517.495 233.191,-535.279 276.088,-547.339"/>
<polygon fill="midnightblue" stroke="midnightblue" points="275.201,-550.725 285.775,-550.05 277.088,-543.984 275.201,-550.725"/>
</g>
<!-- Node123 -->
<g id="node5" class="node"><title>Node123</title>
<g id="a_node5"><a xlink:href="../../d5/daa/namespacemom__grid__initialize.html#aaa2e124bccd43d4f8735c4ef8e07f287" target="_top" xlink:title="grid_metrics_chksum performs a set of checksums on metrics on the grid for debugging. ">
<polygon fill="white" stroke="black" points="130,-49.5 130,-79.5 226,-79.5 226,-49.5 130,-49.5"/>
<text text-anchor="start" x="138" y="-67.5" font-family="Helvetica,sans-Serif" font-size="10.00">mom_grid_initialize</text>
<text text-anchor="middle" x="178" y="-56.5" font-family="Helvetica,sans-Serif" font-size="10.00">::grid_metrics_chksum</text>
</a>
</g>
</g>
<!-- Node119&#45;&gt;Node123 -->
<g id="edge5" class="edge"><title>Node119&#45;&gt;Node123</title>
<path fill="none" stroke="midnightblue" d="M44.4092,-454.11C50.4372,-391.097 75.7817,-153.345 120,-94.5 122.461,-91.2243 125.386,-88.2717 128.591,-85.6169"/>
<polygon fill="midnightblue" stroke="midnightblue" points="130.908,-88.2639 137.029,-79.6165 126.851,-82.5591 130.908,-88.2639"/>
</g>
<!-- Node124 -->
<g id="node6" class="node"><title>Node124</title>
<g id="a_node6"><a xlink:href="../../d9/def/namespacemom__file__parser.html#a17c0ef1bb1912f02faa0aaa1e0f64210" target="_top" xlink:title="mom_file_parser::log\l_version">
<polygon fill="white" stroke="black" points="429.5,-102.5 429.5,-132.5 521.5,-132.5 521.5,-102.5 429.5,-102.5"/>
<text text-anchor="start" x="437.5" y="-120.5" font-family="Helvetica,sans-Serif" font-size="10.00">mom_file_parser::log</text>
<text text-anchor="middle" x="475.5" y="-109.5" font-family="Helvetica,sans-Serif" font-size="10.00">_version</text>
</a>
</g>
</g>
<!-- Node119&#45;&gt;Node124 -->
<g id="edge6" class="edge"><title>Node119&#45;&gt;Node124</title>
<path fill="none" stroke="midnightblue" d="M47.8922,-454.26C66.4131,-399.493 138.061,-212.309 272,-144.5 317.896,-121.264 376.787,-115.691 419.217,-115.225"/>
<polygon fill="midnightblue" stroke="midnightblue" points="419.366,-118.724 429.36,-115.206 419.353,-111.724 419.366,-118.724"/>
</g>
<!-- Node125 -->
<g id="node7" class="node"><title>Node125</title>
<g id="a_node7"><a xlink:href="../../dc/d7f/namespacemom__grid.html#ad5c6da36363b3908694605da62811a4b" target="_top" xlink:title="set_derived_metrics calculates metric terms that are derived from other metrics. ">
<polygon fill="white" stroke="black" points="129,-0.5 129,-30.5 227,-30.5 227,-0.5 129,-0.5"/>
<text text-anchor="start" x="137" y="-18.5" font-family="Helvetica,sans-Serif" font-size="10.00">mom_grid::set_derived</text>
<text text-anchor="middle" x="178" y="-7.5" font-family="Helvetica,sans-Serif" font-size="10.00">_metrics</text>
</a>
</g>
</g>
<!-- Node119&#45;&gt;Node125 -->
<g id="edge8" class="edge"><title>Node119&#45;&gt;Node125</title>
<path fill="none" stroke="midnightblue" d="M43.8213,-454.133C47.7814,-385.301 66.9383,-105.828 120,-39.5 120.602,-38.748 121.231,-38.0193 121.885,-37.3131"/>
<polygon fill="midnightblue" stroke="midnightblue" points="124.427,-39.7444 129.737,-30.5763 119.869,-34.4318 124.427,-39.7444"/>
</g>
<!-- Node127 -->
<g id="node9" class="node"><title>Node127</title>
<g id="a_node9"><a xlink:href="../../d5/daa/namespacemom__grid__initialize.html#a4f9a9f748316e1edd893da9c44cb940e" target="_top" xlink:title="mom_grid_initialize\l::set_grid_metrics_cartesian">
<polygon fill="white" stroke="black" points="120,-547.5 120,-577.5 236,-577.5 236,-547.5 120,-547.5"/>
<text text-anchor="start" x="128" y="-565.5" font-family="Helvetica,sans-Serif" font-size="10.00">mom_grid_initialize</text>
<text text-anchor="middle" x="178" y="-554.5" font-family="Helvetica,sans-Serif" font-size="10.00">::set_grid_metrics_cartesian</text>
</a>
</g>
</g>
<!-- Node119&#45;&gt;Node127 -->
<g id="edge10" class="edge"><title>Node119&#45;&gt;Node127</title>
<path fill="none" stroke="midnightblue" d="M59.37,-484.538C74.465,-497.995 97.8253,-517.81 120,-532.5 125.261,-535.986 130.973,-539.392 136.681,-542.586"/>
<polygon fill="midnightblue" stroke="midnightblue" points="135.123,-545.722 145.583,-547.409 138.458,-539.567 135.123,-545.722"/>
</g>
<!-- Node128 -->
<g id="node10" class="node"><title>Node128</title>
<g id="a_node10"><a xlink:href="../../d5/daa/namespacemom__grid__initialize.html#a59e71c4235b01cf3ad4fb6252ef74248" target="_top" xlink:title="mom_grid_initialize\l::set_grid_metrics_from\l_mosaic">
<polygon fill="white" stroke="black" points="127.5,-449 127.5,-490 228.5,-490 228.5,-449 127.5,-449"/>
<text text-anchor="start" x="135.5" y="-478" font-family="Helvetica,sans-Serif" font-size="10.00">mom_grid_initialize</text>
<text text-anchor="start" x="135.5" y="-467" font-family="Helvetica,sans-Serif" font-size="10.00">::set_grid_metrics_from</text>
<text text-anchor="middle" x="178" y="-456" font-family="Helvetica,sans-Serif" font-size="10.00">_mosaic</text>
</a>
</g>
</g>
<!-- Node119&#45;&gt;Node128 -->
<g id="edge13" class="edge"><title>Node119&#45;&gt;Node128</title>
<path fill="none" stroke="midnightblue" d="M84.2978,-469.5C94.66,-469.5 105.989,-469.5 117.058,-469.5"/>
<polygon fill="midnightblue" stroke="midnightblue" points="117.115,-473 127.115,-469.5 117.115,-466 117.115,-473"/>
</g>
<!-- Node130 -->
<g id="node12" class="node"><title>Node130</title>
<g id="a_node12"><a xlink:href="../../d5/daa/namespacemom__grid__initialize.html#ac37d98379b33a9e95d0bbffc1d7a730f" target="_top" xlink:title="mom_grid_initialize\l::set_grid_metrics_mercator">
<polygon fill="white" stroke="black" points="120,-312.5 120,-342.5 236,-342.5 236,-312.5 120,-312.5"/>
<text text-anchor="start" x="128" y="-330.5" font-family="Helvetica,sans-Serif" font-size="10.00">mom_grid_initialize</text>
<text text-anchor="middle" x="178" y="-319.5" font-family="Helvetica,sans-Serif" font-size="10.00">::set_grid_metrics_mercator</text>
</a>
</g>
</g>
<!-- Node119&#45;&gt;Node130 -->
<g id="edge17" class="edge"><title>Node119&#45;&gt;Node130</title>
<path fill="none" stroke="midnightblue" d="M57.3403,-454.304C81.0159,-429.215 128.391,-379.012 155.896,-349.864"/>
<polygon fill="midnightblue" stroke="midnightblue" points="158.445,-352.262 162.763,-342.587 153.354,-347.458 158.445,-352.262"/>
</g>
<!-- Node140 -->
<g id="node22" class="node"><title>Node140</title>
<g id="a_node22"><a xlink:href="../../d5/daa/namespacemom__grid__initialize.html#a3ede1d607f09115204c0ea0fbde5e9f8" target="_top" xlink:title="mom_grid_initialize\l::set_grid_metrics_spherical">
<polygon fill="white" stroke="black" points="120,-596.5 120,-626.5 236,-626.5 236,-596.5 120,-596.5"/>
<text text-anchor="start" x="128" y="-614.5" font-family="Helvetica,sans-Serif" font-size="10.00">mom_grid_initialize</text>
<text text-anchor="middle" x="178" y="-603.5" font-family="Helvetica,sans-Serif" font-size="10.00">::set_grid_metrics_spherical</text>
</a>
</g>
</g>
<!-- Node119&#45;&gt;Node140 -->
<g id="edge30" class="edge"><title>Node119&#45;&gt;Node140</title>
<path fill="none" stroke="midnightblue" d="M49.2883,-484.603C60.2505,-509.263 85.0711,-558.343 120,-587.5 121.515,-588.764 123.105,-589.971 124.754,-591.121"/>
<polygon fill="midnightblue" stroke="midnightblue" points="123.033,-594.172 133.388,-596.414 126.692,-588.204 123.033,-594.172"/>
</g>
<!-- Node121 -->
<g id="node3" class="node"><title>Node121</title>
<g id="a_node3"><a xlink:href="../../d0/de6/namespacemom__error__handler.html#ad5f00a53059c72fe2332d1436c80ca71" target="_top" xlink:title="mom_error_handler::\lis_root_pe">
<polygon fill="white" stroke="black" points="558,-493.5 558,-523.5 651,-523.5 651,-493.5 558,-493.5"/>
<text text-anchor="start" x="566" y="-511.5" font-family="Helvetica,sans-Serif" font-size="10.00">mom_error_handler::</text>
<text text-anchor="middle" x="604.5" y="-500.5" font-family="Helvetica,sans-Serif" font-size="10.00">is_root_pe</text>
</a>
</g>
</g>
<!-- Node120&#45;&gt;Node121 -->
<g id="edge2" class="edge"><title>Node120&#45;&gt;Node121</title>
<path fill="none" stroke="midnightblue" d="M379.382,-597.607C417.901,-585.544 474.15,-566.991 522,-547.5 536.282,-541.682 551.614,-534.581 565.083,-528.041"/>
<polygon fill="midnightblue" stroke="midnightblue" points="566.642,-531.175 574.075,-523.625 563.556,-524.891 566.642,-531.175"/>
</g>
<!-- Node122&#45;&gt;Node121 -->
<g id="edge4" class="edge"><title>Node122&#45;&gt;Node121</title>
<path fill="none" stroke="midnightblue" d="M379.302,-553.34C425.892,-544.022 498.138,-529.572 547.962,-519.608"/>
<polygon fill="midnightblue" stroke="midnightblue" points="548.805,-523.008 557.925,-517.615 547.433,-516.144 548.805,-523.008"/>
</g>
<!-- Node124&#45;&gt;Node121 -->
<g id="edge7" class="edge"><title>Node124&#45;&gt;Node121</title>
<path fill="none" stroke="midnightblue" d="M504.875,-132.637C511.338,-137.275 517.591,-142.922 522,-149.5 594.515,-257.675 603.226,-421.089 603.762,-483.272"/>
<polygon fill="midnightblue" stroke="midnightblue" points="600.262,-483.351 603.783,-493.344 607.262,-483.337 600.262,-483.351"/>
</g>
<!-- Node126 -->
<g id="node8" class="node"><title>Node126</title>
<g id="a_node8"><a xlink:href="../../dc/d7f/namespacemom__grid.html#a49cb0213b535091f3c12e9152fbbda03" target="_top" xlink:title="Adcroft_reciprocal(x) = 1/x for |x|&gt;0 or 0 for x=0. ">
<polygon fill="white" stroke="black" points="272,-6 272,-25 393,-25 393,-6 272,-6"/>
<text text-anchor="middle" x="332.5" y="-13" font-family="Helvetica,sans-Serif" font-size="10.00">mom_grid::adcroft_reciprocal</text>
</a>
</g>
</g>
<!-- Node125&#45;&gt;Node126 -->
<g id="edge9" class="edge"><title>Node125&#45;&gt;Node126</title>
<path fill="none" stroke="midnightblue" d="M227.252,-15.5C238.186,-15.5 250.011,-15.5 261.637,-15.5"/>
<polygon fill="midnightblue" stroke="midnightblue" points="261.775,-19.0001 271.775,-15.5 261.775,-12.0001 261.775,-19.0001"/>
</g>
<!-- Node127&#45;&gt;Node120 -->
<g id="edge11" class="edge"><title>Node127&#45;&gt;Node120</title>
<path fill="none" stroke="midnightblue" d="M225.999,-577.601C241.948,-582.726 259.908,-588.497 276.429,-593.805"/>
<polygon fill="midnightblue" stroke="midnightblue" points="275.372,-597.141 285.963,-596.868 277.513,-590.477 275.372,-597.141"/>
</g>
<!-- Node127&#45;&gt;Node122 -->
<g id="edge12" class="edge"><title>Node127&#45;&gt;Node122</title>
<path fill="none" stroke="midnightblue" d="M236.219,-562.5C249.157,-562.5 262.875,-562.5 275.751,-562.5"/>
<polygon fill="midnightblue" stroke="midnightblue" points="275.866,-566 285.866,-562.5 275.866,-559 275.866,-566"/>
</g>
<!-- Node128&#45;&gt;Node120 -->
<g id="edge14" class="edge"><title>Node128&#45;&gt;Node120</title>
<path fill="none" stroke="midnightblue" d="M196.522,-490.084C207.959,-503.672 223.105,-521.955 236,-538.5 252.612,-559.815 250.656,-570.925 272,-587.5 273.617,-588.755 275.308,-589.954 277.054,-591.098"/>
<polygon fill="midnightblue" stroke="midnightblue" points="275.752,-594.388 286.161,-596.367 279.258,-588.33 275.752,-594.388"/>
</g>
<!-- Node128&#45;&gt;Node122 -->
<g id="edge16" class="edge"><title>Node128&#45;&gt;Node122</title>
<path fill="none" stroke="midnightblue" d="M215.025,-490.061C222.156,-494.561 229.455,-499.486 236,-504.5 253.47,-517.885 253.473,-526.622 272,-538.5 274.417,-540.05 276.951,-541.531 279.554,-542.942"/>
<polygon fill="midnightblue" stroke="midnightblue" points="278.087,-546.121 288.597,-547.462 281.218,-539.86 278.087,-546.121"/>
</g>
<!-- Node129 -->
<g id="node11" class="node"><title>Node129</title>
<g id="a_node11"><a xlink:href="../../d5/daa/namespacemom__grid__initialize.html#ac78daa312636b0ef9a93694901b5c705" target="_top" xlink:title="extrapolate_metric extrapolates missing metric data into all the halo regions. ">
<polygon fill="white" stroke="black" points="289,-498.5 289,-528.5 376,-528.5 376,-498.5 289,-498.5"/>
<text text-anchor="start" x="297" y="-516.5" font-family="Helvetica,sans-Serif" font-size="10.00">mom_grid_initialize</text>
<text text-anchor="middle" x="332.5" y="-505.5" font-family="Helvetica,sans-Serif" font-size="10.00">::extrapolate_metric</text>
</a>
</g>
</g>
<!-- Node128&#45;&gt;Node129 -->
<g id="edge15" class="edge"><title>Node128&#45;&gt;Node129</title>
<path fill="none" stroke="midnightblue" d="M228.512,-483.786C244.645,-488.44 262.607,-493.623 278.954,-498.339"/>
<polygon fill="midnightblue" stroke="midnightblue" points="278.315,-501.798 288.894,-501.207 280.256,-495.072 278.315,-501.798"/>
</g>
<!-- Node131 -->
<g id="node13" class="node"><title>Node131</title>
<g id="a_node13"><a xlink:href="../../d5/daa/namespacemom__grid__initialize.html#a8ed056787130f21f4b9c1bc81bd60c50" target="_top" xlink:title="mom_grid_initialize\l::int_dj_dy">
<polygon fill="white" stroke="black" points="290.5,-312.5 290.5,-342.5 374.5,-342.5 374.5,-312.5 290.5,-312.5"/>
<text text-anchor="start" x="298.5" y="-330.5" font-family="Helvetica,sans-Serif" font-size="10.00">mom_grid_initialize</text>
<text text-anchor="middle" x="332.5" y="-319.5" font-family="Helvetica,sans-Serif" font-size="10.00">::int_dj_dy</text>
</a>
</g>
</g>
<!-- Node130&#45;&gt;Node131 -->
<g id="edge18" class="edge"><title>Node130&#45;&gt;Node131</title>
<path fill="none" stroke="midnightblue" d="M236.219,-327.5C250.637,-327.5 266.025,-327.5 280.136,-327.5"/>
<polygon fill="midnightblue" stroke="midnightblue" points="280.153,-331 290.153,-327.5 280.153,-324 280.153,-331"/>
</g>
<!-- Node132 -->
<g id="node14" class="node"><title>Node132</title>
<g id="a_node14"><a xlink:href="../../d5/daa/namespacemom__grid__initialize.html#a25cb0001f061ef10b90e637f98ed9fcc" target="_top" xlink:title="mom_grid_initialize\l::find_root">
<polygon fill="white" stroke="black" points="290.5,-449.5 290.5,-479.5 374.5,-479.5 374.5,-449.5 290.5,-449.5"/>
<text text-anchor="start" x="298.5" y="-467.5" font-family="Helvetica,sans-Serif" font-size="10.00">mom_grid_initialize</text>
<text text-anchor="middle" x="332.5" y="-456.5" font-family="Helvetica,sans-Serif" font-size="10.00">::find_root</text>
</a>
</g>
</g>
<!-- Node130&#45;&gt;Node132 -->
<g id="edge19" class="edge"><title>Node130&#45;&gt;Node132</title>
<path fill="none" stroke="midnightblue" d="M188.065,-342.524C202.94,-366.065 234.638,-411.81 272,-439.5 274.965,-441.697 278.152,-443.743 281.455,-445.64"/>
<polygon fill="midnightblue" stroke="midnightblue" points="279.911,-448.783 290.395,-450.315 283.155,-442.58 279.911,-448.783"/>
</g>
<!-- Node134 -->
<g id="node16" class="node"><title>Node134</title>
<g id="a_node16"><a xlink:href="../../d5/daa/namespacemom__grid__initialize.html#aff493c70cca560bfefcdbfabdf778656" target="_top" xlink:title="mom_grid_initialize\l::dy_dj">
<polygon fill="white" stroke="black" points="433.5,-159.5 433.5,-189.5 517.5,-189.5 517.5,-159.5 433.5,-159.5"/>
<text text-anchor="start" x="441.5" y="-177.5" font-family="Helvetica,sans-Serif" font-size="10.00">mom_grid_initialize</text>
<text text-anchor="middle" x="475.5" y="-166.5" font-family="Helvetica,sans-Serif" font-size="10.00">::dy_dj</text>
</a>
</g>
</g>
<!-- Node130&#45;&gt;Node134 -->
<g id="edge22" class="edge"><title>Node130&#45;&gt;Node134</title>
<path fill="none" stroke="midnightblue" d="M182.346,-312.301C190.68,-278.595 215.87,-197.999 272,-165.5 318.054,-138.835 380.358,-146.813 423.645,-157.81"/>
<polygon fill="midnightblue" stroke="midnightblue" points="422.832,-161.216 433.397,-160.42 424.642,-154.454 422.832,-161.216"/>
</g>
<!-- Node135 -->
<g id="node17" class="node"><title>Node135</title>
<g id="a_node17"><a xlink:href="../../d5/daa/namespacemom__grid__initialize.html#aee53e3cf4937fa86949aa376d5f3d82a" target="_top" xlink:title="mom_grid_initialize\l::int_di_dx">
<polygon fill="white" stroke="black" points="290.5,-224.5 290.5,-254.5 374.5,-254.5 374.5,-224.5 290.5,-224.5"/>
<text text-anchor="start" x="298.5" y="-242.5" font-family="Helvetica,sans-Serif" font-size="10.00">mom_grid_initialize</text>
<text text-anchor="middle" x="332.5" y="-231.5" font-family="Helvetica,sans-Serif" font-size="10.00">::int_di_dx</text>
</a>
</g>
</g>
<!-- Node130&#45;&gt;Node135 -->
<g id="edge23" class="edge"><title>Node130&#45;&gt;Node135</title>
<path fill="none" stroke="midnightblue" d="M201.963,-312.367C220.574,-300.301 247.619,-283.212 272,-269.5 278.097,-266.071 284.634,-262.588 291.062,-259.268"/>
<polygon fill="midnightblue" stroke="midnightblue" points="293.015,-262.201 300.338,-254.545 289.839,-255.963 293.015,-262.201"/>
</g>
<!-- Node136 -->
<g id="node18" class="node"><title>Node136</title>
<g id="a_node18"><a xlink:href="../../d5/daa/namespacemom__grid__initialize.html#afa76ec84052508b78fde53cd6ed70161" target="_top" xlink:title="mom_grid_initialize\l::dx_di">
<polygon fill="white" stroke="black" points="433.5,-314.5 433.5,-344.5 517.5,-344.5 517.5,-314.5 433.5,-314.5"/>
<text text-anchor="start" x="441.5" y="-332.5" font-family="Helvetica,sans-Serif" font-size="10.00">mom_grid_initialize</text>
<text text-anchor="middle" x="475.5" y="-321.5" font-family="Helvetica,sans-Serif" font-size="10.00">::dx_di</text>
</a>
</g>
</g>
<!-- Node130&#45;&gt;Node136 -->
<g id="edge24" class="edge"><title>Node130&#45;&gt;Node136</title>
<path fill="none" stroke="midnightblue" d="M225.349,-312.477C240.097,-308.392 256.585,-304.536 272,-302.5 325.315,-295.459 339.909,-293.935 393,-302.5 404.495,-304.355 416.564,-307.591 427.785,-311.194"/>
<polygon fill="midnightblue" stroke="midnightblue" points="426.799,-314.555 437.393,-314.429 429.033,-307.921 426.799,-314.555"/>
</g>
<!-- Node137 -->
<g id="node19" class="node"><title>Node137</title>
<g id="a_node19"><a xlink:href="../../d5/daa/namespacemom__grid__initialize.html#a5a50815c6d1d0948dfbae076da654b94" target="_top" xlink:title="mom_grid_initialize\l::ds_di">
<polygon fill="white" stroke="black" points="290.5,-361.5 290.5,-391.5 374.5,-391.5 374.5,-361.5 290.5,-361.5"/>
<text text-anchor="start" x="298.5" y="-379.5" font-family="Helvetica,sans-Serif" font-size="10.00">mom_grid_initialize</text>
<text text-anchor="middle" x="332.5" y="-368.5" font-family="Helvetica,sans-Serif" font-size="10.00">::ds_di</text>
</a>
</g>
</g>
<!-- Node130&#45;&gt;Node137 -->
<g id="edge25" class="edge"><title>Node130&#45;&gt;Node137</title>
<path fill="none" stroke="midnightblue" d="M225.999,-342.601C243.352,-348.177 263.087,-354.518 280.757,-360.196"/>
<polygon fill="midnightblue" stroke="midnightblue" points="279.741,-363.545 290.333,-363.272 281.883,-356.881 279.741,-363.545"/>
</g>
<!-- Node138 -->
<g id="node20" class="node"><title>Node138</title>
<g id="a_node20"><a xlink:href="../../d5/daa/namespacemom__grid__initialize.html#aaa3a376606d5067107c3a43beb6f8032" target="_top" xlink:title="mom_grid_initialize\l::ds_dj">
<polygon fill="white" stroke="black" points="290.5,-175.5 290.5,-205.5 374.5,-205.5 374.5,-175.5 290.5,-175.5"/>
<text text-anchor="start" x="298.5" y="-193.5" font-family="Helvetica,sans-Serif" font-size="10.00">mom_grid_initialize</text>
<text text-anchor="middle" x="332.5" y="-182.5" font-family="Helvetica,sans-Serif" font-size="10.00">::ds_dj</text>
</a>
</g>
</g>
<!-- Node130&#45;&gt;Node138 -->
<g id="edge27" class="edge"><title>Node130&#45;&gt;Node138</title>
<path fill="none" stroke="midnightblue" d="M187.985,-312.273C202.751,-288.428 234.301,-242.148 272,-214.5 274.958,-212.33 278.141,-210.322 281.44,-208.468"/>
<polygon fill="midnightblue" stroke="midnightblue" points="283.048,-211.577 290.374,-203.922 279.874,-205.338 283.048,-211.577"/>
</g>
<!-- Node139 -->
<g id="node21" class="node"><title>Node139</title>
<g id="a_node21"><a xlink:href="../../d5/daa/namespacemom__grid__initialize.html#aac9e8e21e95ba01e853569e3060ee8d3" target="_top" xlink:title="mom_grid_initialize::dl">
<polygon fill="white" stroke="black" points="285,-411 285,-430 380,-430 380,-411 285,-411"/>
<text text-anchor="middle" x="332.5" y="-418" font-family="Helvetica,sans-Serif" font-size="10.00">mom_grid_initialize::dl</text>
</a>
</g>
</g>
<!-- Node130&#45;&gt;Node139 -->
<g id="edge29" class="edge"><title>Node130&#45;&gt;Node139</title>
<path fill="none" stroke="midnightblue" d="M194.601,-342.517C212.177,-358.739 242.196,-384.415 272,-400.5 276.617,-402.992 281.601,-405.253 286.652,-407.284"/>
<polygon fill="midnightblue" stroke="midnightblue" points="285.774,-410.692 296.367,-410.902 288.218,-404.132 285.774,-410.692"/>
</g>
<!-- Node133 -->
<g id="node15" class="node"><title>Node133</title>
<g id="a_node15"><a xlink:href="../../d0/de6/namespacemom__error__handler.html#a460cfb79a06c29fc249952c2a3710d67" target="_top" xlink:title="mom_error_handler::\lmom_error">
<polygon fill="white" stroke="black" points="429,-458.5 429,-488.5 522,-488.5 522,-458.5 429,-458.5"/>
<text text-anchor="start" x="437" y="-476.5" font-family="Helvetica,sans-Serif" font-size="10.00">mom_error_handler::</text>
<text text-anchor="middle" x="475.5" y="-465.5" font-family="Helvetica,sans-Serif" font-size="10.00">mom_error</text>
</a>
</g>
</g>
<!-- Node132&#45;&gt;Node133 -->
<g id="edge20" class="edge"><title>Node132&#45;&gt;Node133</title>
<path fill="none" stroke="midnightblue" d="M374.662,-467.127C388.267,-467.996 403.647,-468.977 418.186,-469.905"/>
<polygon fill="midnightblue" stroke="midnightblue" points="418.385,-473.425 428.587,-470.569 418.831,-466.439 418.385,-473.425"/>
</g>
<!-- Node133&#45;&gt;Node121 -->
<g id="edge21" class="edge"><title>Node133&#45;&gt;Node121</title>
<path fill="none" stroke="midnightblue" d="M522.35,-486.136C530.623,-488.416 539.33,-490.815 547.846,-493.162"/>
<polygon fill="midnightblue" stroke="midnightblue" points="547.147,-496.6 557.717,-495.883 549.007,-489.852 547.147,-496.6"/>
</g>
<!-- Node137&#45;&gt;Node136 -->
<g id="edge26" class="edge"><title>Node137&#45;&gt;Node136</title>
<path fill="none" stroke="midnightblue" d="M374.662,-362.779C389.875,-357.708 407.307,-351.898 423.302,-346.566"/>
<polygon fill="midnightblue" stroke="midnightblue" points="424.663,-349.802 433.043,-343.319 422.449,-343.161 424.663,-349.802"/>
</g>
<!-- Node138&#45;&gt;Node134 -->
<g id="edge28" class="edge"><title>Node138&#45;&gt;Node134</title>
<path fill="none" stroke="midnightblue" d="M374.662,-185.829C389.732,-184.119 406.978,-182.162 422.849,-180.361"/>
<polygon fill="midnightblue" stroke="midnightblue" points="423.501,-183.81 433.043,-179.204 422.712,-176.854 423.501,-183.81"/>
</g>
<!-- Node140&#45;&gt;Node120 -->
<g id="edge31" class="edge"><title>Node140&#45;&gt;Node120</title>
<path fill="none" stroke="midnightblue" d="M236.219,-611.5C249.157,-611.5 262.875,-611.5 275.751,-611.5"/>
<polygon fill="midnightblue" stroke="midnightblue" points="275.866,-615 285.866,-611.5 275.866,-608 275.866,-615"/>
</g>
</g>
</svg>
        <g id="navigator" transform="translate(0 0)" fill="#404254">
                <rect fill="#f2f5e9" fill-opacity="0.5" stroke="#606060" stroke-width=".5" x="0" y="0" width="60" height="60"/>
                <use id="zoomplus" xlink:href="#zoomPlus" x="17" y="9" onmousedown="handleZoom(evt,'in')"/>
                <use id="zoomminus" xlink:href="#zoomMin" x="42" y="9" onmousedown="handleZoom(evt,'out')"/>
                <use id="reset" xlink:href="#resetDef" x="30" y="36" onmousedown="handleReset()"/>
                <g id="arrowUp" xlink:href="#dirArrow" transform="translate(30 24)" onmousedown="handlePan(0,-1)">
                  <use xlink:href="#rim" fill="#404040">
                        <set attributeName="fill" to="#808080" begin="arrowUp.mouseover" end="arrowUp.mouseout"/>
                  </use>
                  <path fill="none" stroke="white" stroke-width="1.5" d="M0,-3.0v7 M-2.5,-0.5L0,-3.0L2.5,-0.5"/>
                </g>
                <g id="arrowRight" xlink:href="#dirArrow" transform="rotate(90) translate(36 -43)" onmousedown="handlePan(1,0)">
                  <use xlink:href="#rim" fill="#404040">
                        <set attributeName="fill" to="#808080" begin="arrowRight.mouseover" end="arrowRight.mouseout"/>
                  </use>
                  <path fill="none" stroke="white" stroke-width="1.5" d="M0,-3.0v7 M-2.5,-0.5L0,-3.0L2.5,-0.5"/>
                </g>
                <g id="arrowDown" xlink:href="#dirArrow" transform="rotate(180) translate(-30 -48)" onmousedown="handlePan(0,1)">
                  <use xlink:href="#rim" fill="#404040">
                        <set attributeName="fill" to="#808080" begin="arrowDown.mouseover" end="arrowDown.mouseout"/>
                  </use>
                  <path fill="none" stroke="white" stroke-width="1.5" d="M0,-3.0v7 M-2.5,-0.5L0,-3.0L2.5,-0.5"/>
                </g>
                <g id="arrowLeft" xlink:href="#dirArrow" transform="rotate(270) translate(-36 17)" onmousedown="handlePan(-1,0)">
                  <use xlink:href="#rim" fill="#404040">
                        <set attributeName="fill" to="#808080" begin="arrowLeft.mouseover" end="arrowLeft.mouseout"/>
                  </use>
                  <path fill="none" stroke="white" stroke-width="1.5" d="M0,-3.0v7 M-2.5,-0.5L0,-3.0L2.5,-0.5"/>
                </g>
        </g>
        <svg viewBox="0 0 15 15" width="100%" height="30px" preserveAspectRatio="xMaxYMin meet">
         <g id="arrow_out" transform="scale(0.3 0.3)">
          <a xlink:href="namespacemom__grid__initialize_a235a9712823e2f78e4958e8d681b6ba4_cgraph_org.svg" target="_base">
           <rect id="button" ry="5" rx="5" y="6" x="6" height="38" width="38"
                fill="#f2f5e9" fill-opacity="0.5" stroke="#606060" stroke-width="1.0"/>
           <path id="arrow"
             d="M 11.500037,31.436501 C 11.940474,20.09759 22.043105,11.32322 32.158766,21.979434 L 37.068811,17.246167 C 37.068811,17.246167 37.088388,32 37.088388,32 L 22.160133,31.978069 C 22.160133,31.978069 26.997745,27.140456 26.997745,27.140456 C 18.528582,18.264221 13.291696,25.230495 11.500037,31.436501 z"
             style="fill:#404040;"/>
          </a>
         </g>
        </svg>
</svg>
