<?xml version="1.0" encoding="UTF-8" standalone="no"?>
<!DOCTYPE svg PUBLIC "-//W3C//DTD SVG 1.1//EN"
 "http://www.w3.org/Graphics/SVG/1.1/DTD/svg11.dtd">
<!-- Generated by graphviz version 2.38.0 (20140413.2041)
 -->
<!-- Title: mom_grid_initialize::set_grid_metrics_mercator Pages: 1 -->
<!--zoomable 352 -->
<svg id="main" version="1.1" xmlns="http://www.w3.org/2000/svg" xmlns:xlink="http://www.w3.org/1999/xlink" xml:space="preserve" onload="init(evt)">
<style type="text/css"><![CDATA[
.edge:hover path { stroke: red; }
.edge:hover polygon { stroke: red; fill: red; }
]]></style>
<script type="text/javascript"><![CDATA[
var edges = document.getElementsByTagName('g');
if (edges && edges.length) {
  for (var i=0;i<edges.length;i++) {
    if (edges[i].id.substr(0,4)=='edge') {
      edges[i].setAttribute('class','edge');
    }
  }
}
]]></script>
        <defs>
                <circle id="rim" cx="0" cy="0" r="7"/>
                <circle id="rim2" cx="0" cy="0" r="3.5"/>
                <g id="zoomPlus">
                        <use xlink:href="#rim" fill="#404040">
                                <set attributeName="fill" to="#808080" begin="zoomplus.mouseover" end="zoomplus.mouseout"/>
                        </use>
                        <path d="M-4,0h8M0,-4v8" fill="none" stroke="white" stroke-width="1.5" pointer-events="none"/>
                </g>
                <g id="zoomMin">
                        <use xlink:href="#rim" fill="#404040">
                                <set attributeName="fill" to="#808080" begin="zoomminus.mouseover" end="zoomminus.mouseout"/>
                        </use>
                        <path d="M-4,0h8" fill="none" stroke="white" stroke-width="1.5" pointer-events="none"/>
                </g>
                <g id="dirArrow">
                        <path fill="none" stroke="white" stroke-width="1.5" d="M0,-3.0v7 M-2.5,-0.5L0,-3.0L2.5,-0.5"/>
                </g>
               <g id="resetDef">
                       <use xlink:href="#rim2" fill="#404040">
                               <set attributeName="fill" to="#808080" begin="reset.mouseover" end="reset.mouseout"/>
                       </use>
               </g>
        </defs>

<script type="text/javascript">
var viewWidth = 513;
var viewHeight = 352;
var sectionId = 'dynsection-22';
</script>
<script xlink:href="../../svgpan.js"/>
<svg id="graph" class="graph">
<g id="viewport">
<title>mom_grid_initialize::set_grid_metrics_mercator</title>
<polygon fill="white" stroke="none" points="-4,4 -4,-347.5 509,-347.5 509,4 -4,4"/>
<!-- Node173 -->
<g id="node1" class="node"><title>Node173</title>
<polygon fill="#bfbfbf" stroke="black" points="0,-164.5 0,-194.5 116,-194.5 116,-164.5 0,-164.5"/>
<text text-anchor="start" x="8" y="-182.5" font-family="Helvetica,sans-Serif" font-size="10.00">mom_grid_initialize</text>
<text text-anchor="middle" x="58" y="-171.5" font-family="Helvetica,sans-Serif" font-size="10.00">::set_grid_metrics_mercator</text>
</g>
<!-- Node174 -->
<g id="node2" class="node"><title>Node174</title>
<g id="a_node2"><a xlink:href="../../d5/daa/namespacemom__grid__initialize.html#aac9e8e21e95ba01e853569e3060ee8d3" target="_top" xlink:title="mom_grid_initialize::dl">
<polygon fill="white" stroke="black" points="152,-324 152,-343 247,-343 247,-324 152,-324"/>
<text text-anchor="middle" x="199.5" y="-331" font-family="Helvetica,sans-Serif" font-size="10.00">mom_grid_initialize::dl</text>
</a>
</g>
</g>
<!-- Node173&#45;&gt;Node174 -->
<g id="edge1" class="edge"><title>Node173&#45;&gt;Node174</title>
<path fill="none" stroke="midnightblue" d="M65.7521,-194.598C78.7272,-222.043 109.654,-280.415 152,-314.5 154.021,-316.127 156.2,-317.632 158.474,-319.022"/>
<polygon fill="midnightblue" stroke="midnightblue" points="157.096,-322.253 167.574,-323.826 160.364,-316.062 157.096,-322.253"/>
</g>
<!-- Node175 -->
<g id="node3" class="node"><title>Node175</title>
<g id="a_node3"><a xlink:href="../../d5/daa/namespacemom__grid__initialize.html#a5a50815c6d1d0948dfbae076da654b94" target="_top" xlink:title="mom_grid_initialize\l::ds_di">
<polygon fill="white" stroke="black" points="157.5,-274.5 157.5,-304.5 241.5,-304.5 241.5,-274.5 157.5,-274.5"/>
<text text-anchor="start" x="165.5" y="-292.5" font-family="Helvetica,sans-Serif" font-size="10.00">mom_grid_initialize</text>
<text text-anchor="middle" x="199.5" y="-281.5" font-family="Helvetica,sans-Serif" font-size="10.00">::ds_di</text>
</a>
</g>
</g>
<!-- Node173&#45;&gt;Node175 -->
<g id="edge2" class="edge"><title>Node173&#45;&gt;Node175</title>
<path fill="none" stroke="midnightblue" d="M75.2281,-194.666C93.3521,-211.313 123.849,-238.467 152,-259.5 156.127,-262.584 160.566,-265.692 165.004,-268.679"/>
<polygon fill="midnightblue" stroke="midnightblue" points="163.178,-271.667 173.457,-274.235 167.023,-265.818 163.178,-271.667"/>
</g>
<!-- Node176 -->
<g id="node4" class="node"><title>Node176</title>
<g id="a_node4"><a xlink:href="../../d5/daa/namespacemom__grid__initialize.html#afa76ec84052508b78fde53cd6ed70161" target="_top" xlink:title="mom_grid_initialize\l::dx_di">
<polygon fill="white" stroke="black" points="287.5,-241.5 287.5,-271.5 371.5,-271.5 371.5,-241.5 287.5,-241.5"/>
<text text-anchor="start" x="295.5" y="-259.5" font-family="Helvetica,sans-Serif" font-size="10.00">mom_grid_initialize</text>
<text text-anchor="middle" x="329.5" y="-248.5" font-family="Helvetica,sans-Serif" font-size="10.00">::dx_di</text>
</a>
</g>
</g>
<!-- Node173&#45;&gt;Node176 -->
<g id="edge6" class="edge"><title>Node173&#45;&gt;Node176</title>
<path fill="none" stroke="midnightblue" d="M83.7732,-194.602C102.021,-205.073 127.772,-218.521 152,-226.5 192.976,-239.995 241.404,-247.675 277.157,-251.879"/>
<polygon fill="midnightblue" stroke="midnightblue" points="277.027,-255.387 287.355,-253.025 277.808,-248.43 277.027,-255.387"/>
</g>
<!-- Node177 -->
<g id="node5" class="node"><title>Node177</title>
<g id="a_node5"><a xlink:href="../../d5/daa/namespacemom__grid__initialize.html#aaa3a376606d5067107c3a43beb6f8032" target="_top" xlink:title="mom_grid_initialize\l::ds_dj">
<polygon fill="white" stroke="black" points="157.5,-186.5 157.5,-216.5 241.5,-216.5 241.5,-186.5 157.5,-186.5"/>
<text text-anchor="start" x="165.5" y="-204.5" font-family="Helvetica,sans-Serif" font-size="10.00">mom_grid_initialize</text>
<text text-anchor="middle" x="199.5" y="-193.5" font-family="Helvetica,sans-Serif" font-size="10.00">::ds_dj</text>
</a>
</g>
</g>
<!-- Node173&#45;&gt;Node177 -->
<g id="edge4" class="edge"><title>Node173&#45;&gt;Node177</title>
<path fill="none" stroke="midnightblue" d="M116.142,-188.512C126.526,-190.149 137.295,-191.848 147.488,-193.455"/>
<polygon fill="midnightblue" stroke="midnightblue" points="147.03,-196.926 157.453,-195.027 148.12,-190.011 147.03,-196.926"/>
</g>
<!-- Node178 -->
<g id="node6" class="node"><title>Node178</title>
<g id="a_node6"><a xlink:href="../../d5/daa/namespacemom__grid__initialize.html#aff493c70cca560bfefcdbfabdf778656" target="_top" xlink:title="mom_grid_initialize\l::dy_dj">
<polygon fill="white" stroke="black" points="287.5,-175.5 287.5,-205.5 371.5,-205.5 371.5,-175.5 287.5,-175.5"/>
<text text-anchor="start" x="295.5" y="-193.5" font-family="Helvetica,sans-Serif" font-size="10.00">mom_grid_initialize</text>
<text text-anchor="middle" x="329.5" y="-182.5" font-family="Helvetica,sans-Serif" font-size="10.00">::dy_dj</text>
</a>
</g>
</g>
<!-- Node173&#45;&gt;Node178 -->
<g id="edge7" class="edge"><title>Node173&#45;&gt;Node178</title>
<path fill="none" stroke="midnightblue" d="M116.272,-176.232C153.563,-174.76 203.235,-174.031 247,-177.5 256.753,-178.273 267.101,-179.558 277.033,-181.028"/>
<polygon fill="midnightblue" stroke="midnightblue" points="276.771,-184.529 287.191,-182.612 277.85,-177.613 276.771,-184.529"/>
</g>
<!-- Node179 -->
<g id="node7" class="node"><title>Node179</title>
<g id="a_node7"><a xlink:href="../../d5/daa/namespacemom__grid__initialize.html#a25cb0001f061ef10b90e637f98ed9fcc" target="_top" xlink:title="mom_grid_initialize\l::find_root">
<polygon fill="white" stroke="black" points="157.5,-98.5 157.5,-128.5 241.5,-128.5 241.5,-98.5 157.5,-98.5"/>
<text text-anchor="start" x="165.5" y="-116.5" font-family="Helvetica,sans-Serif" font-size="10.00">mom_grid_initialize</text>
<text text-anchor="middle" x="199.5" y="-105.5" font-family="Helvetica,sans-Serif" font-size="10.00">::find_root</text>
</a>
</g>
</g>
<!-- Node173&#45;&gt;Node179 -->
<g id="edge8" class="edge"><title>Node173&#45;&gt;Node179</title>
<path fill="none" stroke="midnightblue" d="M91.0041,-164.358C110.764,-155.009 136.308,-142.924 157.536,-132.881"/>
<polygon fill="midnightblue" stroke="midnightblue" points="159.102,-136.012 166.645,-128.571 156.109,-129.684 159.102,-136.012"/>
</g>
<!-- Node182 -->
<g id="node10" class="node"><title>Node182</title>
<g id="a_node10"><a xlink:href="../../d5/daa/namespacemom__grid__initialize.html#aee53e3cf4937fa86949aa376d5f3d82a" target="_top" xlink:title="mom_grid_initialize\l::int_di_dx">
<polygon fill="white" stroke="black" points="157.5,-49.5 157.5,-79.5 241.5,-79.5 241.5,-49.5 157.5,-49.5"/>
<text text-anchor="start" x="165.5" y="-67.5" font-family="Helvetica,sans-Serif" font-size="10.00">mom_grid_initialize</text>
<text text-anchor="middle" x="199.5" y="-56.5" font-family="Helvetica,sans-Serif" font-size="10.00">::int_di_dx</text>
</a>
</g>
</g>
<!-- Node173&#45;&gt;Node182 -->
<g id="edge11" class="edge"><title>Node173&#45;&gt;Node182</title>
<path fill="none" stroke="midnightblue" d="M72.0924,-164.486C89.1796,-145.474 120.618,-112.436 152,-89.5 154.072,-87.9856 156.247,-86.5035 158.478,-85.0646"/>
<polygon fill="midnightblue" stroke="midnightblue" points="160.513,-87.9237 167.258,-79.7526 156.89,-81.9346 160.513,-87.9237"/>
</g>
<!-- Node183 -->
<g id="node11" class="node"><title>Node183</title>
<g id="a_node11"><a xlink:href="../../d5/daa/namespacemom__grid__initialize.html#a8ed056787130f21f4b9c1bc81bd60c50" target="_top" xlink:title="mom_grid_initialize\l::int_dj_dy">
<polygon fill="white" stroke="black" points="157.5,-0.5 157.5,-30.5 241.5,-30.5 241.5,-0.5 157.5,-0.5"/>
<text text-anchor="start" x="165.5" y="-18.5" font-family="Helvetica,sans-Serif" font-size="10.00">mom_grid_initialize</text>
<text text-anchor="middle" x="199.5" y="-7.5" font-family="Helvetica,sans-Serif" font-size="10.00">::int_dj_dy</text>
</a>
</g>
</g>
<!-- Node173&#45;&gt;Node183 -->
<g id="edge12" class="edge"><title>Node173&#45;&gt;Node183</title>
<path fill="none" stroke="midnightblue" d="M66.0014,-164.377C79.3816,-136.806 110.943,-77.78 152,-40.5 153.654,-38.9981 155.415,-37.5556 157.247,-36.1748"/>
<polygon fill="midnightblue" stroke="midnightblue" points="159.293,-39.0166 165.625,-30.5227 155.378,-33.2134 159.293,-39.0166"/>
</g>
<!-- Node175&#45;&gt;Node176 -->
<g id="edge3" class="edge"><title>Node175&#45;&gt;Node176</title>
<path fill="none" stroke="midnightblue" d="M241.705,-278.877C253.124,-275.933 265.657,-272.702 277.56,-269.633"/>
<polygon fill="midnightblue" stroke="midnightblue" points="278.563,-272.989 287.373,-267.103 276.815,-266.211 278.563,-272.989"/>
</g>
<!-- Node177&#45;&gt;Node178 -->
<g id="edge5" class="edge"><title>Node177&#45;&gt;Node178</title>
<path fill="none" stroke="midnightblue" d="M241.705,-197.959C253.01,-196.987 265.406,-195.922 277.203,-194.908"/>
<polygon fill="midnightblue" stroke="midnightblue" points="277.709,-198.378 287.373,-194.034 277.11,-191.404 277.709,-198.378"/>
</g>
<!-- Node180 -->
<g id="node8" class="node"><title>Node180</title>
<g id="a_node8"><a xlink:href="../../d0/de6/namespacemom__error__handler.html#a460cfb79a06c29fc249952c2a3710d67" target="_top" xlink:title="mom_error_handler::\lmom_error">
<polygon fill="white" stroke="black" points="283,-98.5 283,-128.5 376,-128.5 376,-98.5 283,-98.5"/>
<text text-anchor="start" x="291" y="-116.5" font-family="Helvetica,sans-Serif" font-size="10.00">mom_error_handler::</text>
<text text-anchor="middle" x="329.5" y="-105.5" font-family="Helvetica,sans-Serif" font-size="10.00">mom_error</text>
</a>
</g>
</g>
<!-- Node179&#45;&gt;Node180 -->
<g id="edge9" class="edge"><title>Node179&#45;&gt;Node180</title>
<path fill="none" stroke="midnightblue" d="M241.705,-113.5C251.571,-113.5 262.268,-113.5 272.673,-113.5"/>
<polygon fill="midnightblue" stroke="midnightblue" points="272.938,-117 282.938,-113.5 272.938,-110 272.938,-117"/>
</g>
<!-- Node181 -->
<g id="node9" class="node"><title>Node181</title>
<g id="a_node9"><a xlink:href="../../d0/de6/namespacemom__error__handler.html#ad5f00a53059c72fe2332d1436c80ca71" target="_top" xlink:title="mom_error_handler::\lis_root_pe">
<polygon fill="white" stroke="black" points="412,-98.5 412,-128.5 505,-128.5 505,-98.5 412,-98.5"/>
<text text-anchor="start" x="420" y="-116.5" font-family="Helvetica,sans-Serif" font-size="10.00">mom_error_handler::</text>
<text text-anchor="middle" x="458.5" y="-105.5" font-family="Helvetica,sans-Serif" font-size="10.00">is_root_pe</text>
</a>
</g>
</g>
<!-- Node180&#45;&gt;Node181 -->
<g id="edge10" class="edge"><title>Node180&#45;&gt;Node181</title>
<path fill="none" stroke="midnightblue" d="M376.35,-113.5C384.533,-113.5 393.141,-113.5 401.568,-113.5"/>
<polygon fill="midnightblue" stroke="midnightblue" points="401.717,-117 411.717,-113.5 401.717,-110 401.717,-117"/>
</g>
</g>
</svg>
        <g id="navigator" transform="translate(0 0)" fill="#404254">
                <rect fill="#f2f5e9" fill-opacity="0.5" stroke="#606060" stroke-width=".5" x="0" y="0" width="60" height="60"/>
                <use id="zoomplus" xlink:href="#zoomPlus" x="17" y="9" onmousedown="handleZoom(evt,'in')"/>
                <use id="zoomminus" xlink:href="#zoomMin" x="42" y="9" onmousedown="handleZoom(evt,'out')"/>
                <use id="reset" xlink:href="#resetDef" x="30" y="36" onmousedown="handleReset()"/>
                <g id="arrowUp" xlink:href="#dirArrow" transform="translate(30 24)" onmousedown="handlePan(0,-1)">
                  <use xlink:href="#rim" fill="#404040">
                        <set attributeName="fill" to="#808080" begin="arrowUp.mouseover" end="arrowUp.mouseout"/>
                  </use>
                  <path fill="none" stroke="white" stroke-width="1.5" d="M0,-3.0v7 M-2.5,-0.5L0,-3.0L2.5,-0.5"/>
                </g>
                <g id="arrowRight" xlink:href="#dirArrow" transform="rotate(90) translate(36 -43)" onmousedown="handlePan(1,0)">
                  <use xlink:href="#rim" fill="#404040">
                        <set attributeName="fill" to="#808080" begin="arrowRight.mouseover" end="arrowRight.mouseout"/>
                  </use>
                  <path fill="none" stroke="white" stroke-width="1.5" d="M0,-3.0v7 M-2.5,-0.5L0,-3.0L2.5,-0.5"/>
                </g>
                <g id="arrowDown" xlink:href="#dirArrow" transform="rotate(180) translate(-30 -48)" onmousedown="handlePan(0,1)">
                  <use xlink:href="#rim" fill="#404040">
                        <set attributeName="fill" to="#808080" begin="arrowDown.mouseover" end="arrowDown.mouseout"/>
                  </use>
                  <path fill="none" stroke="white" stroke-width="1.5" d="M0,-3.0v7 M-2.5,-0.5L0,-3.0L2.5,-0.5"/>
                </g>
                <g id="arrowLeft" xlink:href="#dirArrow" transform="rotate(270) translate(-36 17)" onmousedown="handlePan(-1,0)">
                  <use xlink:href="#rim" fill="#404040">
                        <set attributeName="fill" to="#808080" begin="arrowLeft.mouseover" end="arrowLeft.mouseout"/>
                  </use>
                  <path fill="none" stroke="white" stroke-width="1.5" d="M0,-3.0v7 M-2.5,-0.5L0,-3.0L2.5,-0.5"/>
                </g>
        </g>
        <svg viewBox="0 0 15 15" width="100%" height="30px" preserveAspectRatio="xMaxYMin meet">
         <g id="arrow_out" transform="scale(0.3 0.3)">
          <a xlink:href="namespacemom__grid__initialize_ac37d98379b33a9e95d0bbffc1d7a730f_cgraph_org.svg" target="_base">
           <rect id="button" ry="5" rx="5" y="6" x="6" height="38" width="38"
                fill="#f2f5e9" fill-opacity="0.5" stroke="#606060" stroke-width="1.0"/>
           <path id="arrow"
             d="M 11.500037,31.436501 C 11.940474,20.09759 22.043105,11.32322 32.158766,21.979434 L 37.068811,17.246167 C 37.068811,17.246167 37.088388,32 37.088388,32 L 22.160133,31.978069 C 22.160133,31.978069 26.997745,27.140456 26.997745,27.140456 C 18.528582,18.264221 13.291696,25.230495 11.500037,31.436501 z"
             style="fill:#404040;"/>
          </a>
         </g>
        </svg>
</svg>
