<?xml version="1.0" encoding="UTF-8" standalone="no"?>
<!DOCTYPE svg PUBLIC "-//W3C//DTD SVG 1.1//EN"
 "http://www.w3.org/Graphics/SVG/1.1/DTD/svg11.dtd">
<!-- Generated by graphviz version 2.38.0 (20140413.2041)
 -->
<!-- Title: mom_grid_initialize::dy_dj Pages: 1 -->
<svg width="838pt" height="127pt"
 viewBox="0.00 0.00 838.00 126.50" xmlns="http://www.w3.org/2000/svg" xmlns:xlink="http://www.w3.org/1999/xlink">
<g id="graph0" class="graph" transform="scale(1 1) rotate(0) translate(4 122.5)">
<title>mom_grid_initialize::dy_dj</title>
<polygon fill="white" stroke="none" points="-4,4 -4,-122.5 834,-122.5 834,4 -4,4"/>
<!-- Node50 -->
<g id="node1" class="node"><title>Node50</title>
<polygon fill="#bfbfbf" stroke="black" points="0,-49.5 0,-79.5 84,-79.5 84,-49.5 0,-49.5"/>
<text text-anchor="start" x="8" y="-67.5" font-family="Helvetica,sans-Serif" font-size="10.00">mom_grid_initialize</text>
<text text-anchor="middle" x="42" y="-56.5" font-family="Helvetica,sans-Serif" font-size="10.00">::dy_dj</text>
</g>
<!-- Node51 -->
<g id="node2" class="node"><title>Node51</title>
<g id="a_node2"><a xlink:href="../../d5/daa/namespacemom__grid__initialize.html#aaa3a376606d5067107c3a43beb6f8032" target="_top" xlink:title="mom_grid_initialize\l::ds_dj">
<polygon fill="white" stroke="black" points="120,-71.5 120,-101.5 204,-101.5 204,-71.5 120,-71.5"/>
<text text-anchor="start" x="128" y="-89.5" font-family="Helvetica,sans-Serif" font-size="10.00">mom_grid_initialize</text>
<text text-anchor="middle" x="162" y="-78.5" font-family="Helvetica,sans-Serif" font-size="10.00">::ds_dj</text>
</a>
</g>
</g>
<!-- Node50&#45;&gt;Node51 -->
<g id="edge1" class="edge"><title>Node50&#45;&gt;Node51</title>
<path fill="none" stroke="midnightblue" d="M94.2208,-74.0496C102.823,-75.6534 111.649,-77.2991 119.952,-78.847"/>
<polygon fill="midnightblue" stroke="midnightblue" points="94.7428,-70.5867 84.2707,-72.1945 93.4598,-77.4681 94.7428,-70.5867"/>
</g>
<!-- Node52 -->
<g id="node3" class="node"><title>Node52</title>
<g id="a_node3"><a xlink:href="../../d5/daa/namespacemom__grid__initialize.html#ac37d98379b33a9e95d0bbffc1d7a730f" target="_top" xlink:title="mom_grid_initialize\l::set_grid_metrics_mercator">
<polygon fill="white" stroke="black" points="240,-49.5 240,-79.5 356,-79.5 356,-49.5 240,-49.5"/>
<text text-anchor="start" x="248" y="-67.5" font-family="Helvetica,sans-Serif" font-size="10.00">mom_grid_initialize</text>
<text text-anchor="middle" x="298" y="-56.5" font-family="Helvetica,sans-Serif" font-size="10.00">::set_grid_metrics_mercator</text>
</a>
</g>
</g>
<!-- Node50&#45;&gt;Node52 -->
<g id="edge11" class="edge"><title>Node50&#45;&gt;Node52</title>
<path fill="none" stroke="midnightblue" d="M94.4125,-62.2187C102.957,-61.9195 111.727,-61.6611 120,-61.5 157.326,-60.7731 166.672,-60.8981 204,-61.5 215.63,-61.6875 228.074,-62.0069 239.955,-62.3691"/>
<polygon fill="midnightblue" stroke="midnightblue" points="94.0142,-58.731 84.1512,-62.6002 94.2744,-65.7262 94.0142,-58.731"/>
</g>
<!-- Node51&#45;&gt;Node52 -->
<g id="edge2" class="edge"><title>Node51&#45;&gt;Node52</title>
<path fill="none" stroke="midnightblue" d="M214.281,-78.0808C222.636,-76.7089 231.338,-75.2804 239.824,-73.8871"/>
<polygon fill="midnightblue" stroke="midnightblue" points="213.599,-74.6458 204.298,-79.7198 214.733,-81.5533 213.599,-74.6458"/>
</g>
<!-- Node53 -->
<g id="node4" class="node"><title>Node53</title>
<g id="a_node4"><a xlink:href="../../d5/daa/namespacemom__grid__initialize.html#a235a9712823e2f78e4958e8d681b6ba4" target="_top" xlink:title="set_grid_metrics is used to set the primary values in the model&#39;s horizontal grid. The bathymetry, land&#45;sea mask and any restricted channel widths are not know yet, so these are set later. ">
<polygon fill="white" stroke="black" points="392,-49.5 392,-79.5 476,-79.5 476,-49.5 392,-49.5"/>
<text text-anchor="start" x="400" y="-67.5" font-family="Helvetica,sans-Serif" font-size="10.00">mom_grid_initialize</text>
<text text-anchor="middle" x="434" y="-56.5" font-family="Helvetica,sans-Serif" font-size="10.00">::set_grid_metrics</text>
</a>
</g>
</g>
<!-- Node52&#45;&gt;Node53 -->
<g id="edge3" class="edge"><title>Node52&#45;&gt;Node53</title>
<path fill="none" stroke="midnightblue" d="M366.366,-64.5C375.038,-64.5 383.702,-64.5 391.776,-64.5"/>
<polygon fill="midnightblue" stroke="midnightblue" points="366.217,-61.0001 356.217,-64.5 366.217,-68.0001 366.217,-61.0001"/>
</g>
<!-- Node54 -->
<g id="node5" class="node"><title>Node54</title>
<g id="a_node5"><a xlink:href="../../d6/d48/MOM__sum__driver_8F90.html#a08fffeb2d8e8acbf9ed4609be6d258c6" target="_top" xlink:title="mom_main">
<polygon fill="white" stroke="black" points="534.5,-99 534.5,-118 590.5,-118 590.5,-99 534.5,-99"/>
<text text-anchor="middle" x="562.5" y="-106" font-family="Helvetica,sans-Serif" font-size="10.00">mom_main</text>
</a>
</g>
</g>
<!-- Node53&#45;&gt;Node54 -->
<g id="edge4" class="edge"><title>Node53&#45;&gt;Node54</title>
<path fill="none" stroke="midnightblue" d="M485.657,-82.1197C502.235,-87.8861 520.017,-94.071 534.193,-99.0018"/>
<polygon fill="midnightblue" stroke="midnightblue" points="486.666,-78.7651 476.071,-78.7855 484.366,-85.3766 486.666,-78.7651"/>
</g>
<!-- Node55 -->
<g id="node6" class="node"><title>Node55</title>
<g id="a_node6"><a xlink:href="../../df/da2/namespacemom__ice__shelf.html#ae315e8464ef8a20062e3bccb61886755" target="_top" xlink:title="mom_ice_shelf::initialize\l_ice_shelf">
<polygon fill="white" stroke="black" points="512,-49.5 512,-79.5 613,-79.5 613,-49.5 512,-49.5"/>
<text text-anchor="start" x="520" y="-67.5" font-family="Helvetica,sans-Serif" font-size="10.00">mom_ice_shelf::initialize</text>
<text text-anchor="middle" x="562.5" y="-56.5" font-family="Helvetica,sans-Serif" font-size="10.00">_ice_shelf</text>
</a>
</g>
</g>
<!-- Node53&#45;&gt;Node55 -->
<g id="edge5" class="edge"><title>Node53&#45;&gt;Node55</title>
<path fill="none" stroke="midnightblue" d="M486.189,-64.5C494.64,-64.5 503.389,-64.5 511.803,-64.5"/>
<polygon fill="midnightblue" stroke="midnightblue" points="486.071,-61.0001 476.071,-64.5 486.071,-68.0001 486.071,-61.0001"/>
</g>
<!-- Node58 -->
<g id="node9" class="node"><title>Node58</title>
<g id="a_node9"><a xlink:href="../../d3/da8/namespacemom__fixed__initialization.html#adce0d050de4be34a2dc4fa39b49b8c27" target="_top" xlink:title="MOM_initialize_fixed sets up time&#45;invariant quantities related to MOM6&#39;s horizontal grid...">
<polygon fill="white" stroke="black" points="512.5,-0.5 512.5,-30.5 612.5,-30.5 612.5,-0.5 512.5,-0.5"/>
<text text-anchor="start" x="520.5" y="-18.5" font-family="Helvetica,sans-Serif" font-size="10.00">mom_fixed_initialization</text>
<text text-anchor="middle" x="562.5" y="-7.5" font-family="Helvetica,sans-Serif" font-size="10.00">::mom_initialize_fixed</text>
</a>
</g>
</g>
<!-- Node53&#45;&gt;Node58 -->
<g id="edge8" class="edge"><title>Node53&#45;&gt;Node58</title>
<path fill="none" stroke="midnightblue" d="M483.607,-45.6722C496.454,-40.6958 510.154,-35.3891 522.425,-30.6359"/>
<polygon fill="midnightblue" stroke="midnightblue" points="482.047,-42.5228 473.986,-49.3986 484.575,-49.0502 482.047,-42.5228"/>
</g>
<!-- Node56 -->
<g id="node7" class="node"><title>Node56</title>
<g id="a_node7"><a xlink:href="../../d5/d6d/ice__shelf__driver_8F90.html#aec5bef92f0dad343f545cd8d62e378d8" target="_top" xlink:title="shelf_main">
<polygon fill="white" stroke="black" points="666,-82 666,-101 721,-101 721,-82 666,-82"/>
<text text-anchor="middle" x="693.5" y="-89" font-family="Helvetica,sans-Serif" font-size="10.00">shelf_main</text>
</a>
</g>
</g>
<!-- Node55&#45;&gt;Node56 -->
<g id="edge6" class="edge"><title>Node55&#45;&gt;Node56</title>
<path fill="none" stroke="midnightblue" d="M623.21,-76.9975C638.086,-80.111 653.303,-83.2959 665.673,-85.8851"/>
<polygon fill="midnightblue" stroke="midnightblue" points="623.511,-73.4846 613.006,-74.8617 622.077,-80.3362 623.511,-73.4846"/>
</g>
<!-- Node57 -->
<g id="node8" class="node"><title>Node57</title>
<g id="a_node8"><a xlink:href="../../de/dbc/MOM__driver_8F90.html#a08fffeb2d8e8acbf9ed4609be6d258c6" target="_top" xlink:title="mom_main">
<polygon fill="white" stroke="black" points="774,-25 774,-44 830,-44 830,-25 774,-25"/>
<text text-anchor="middle" x="802" y="-32" font-family="Helvetica,sans-Serif" font-size="10.00">mom_main</text>
</a>
</g>
</g>
<!-- Node55&#45;&gt;Node57 -->
<g id="edge7" class="edge"><title>Node55&#45;&gt;Node57</title>
<path fill="none" stroke="midnightblue" d="M623.314,-56.9445C671.619,-50.8429 737.353,-42.5396 773.813,-37.9342"/>
<polygon fill="midnightblue" stroke="midnightblue" points="622.77,-53.4853 613.288,-58.211 623.648,-60.4301 622.77,-53.4853"/>
</g>
<!-- Node59 -->
<g id="node10" class="node"><title>Node59</title>
<g id="a_node10"><a xlink:href="../../da/d01/namespacemom.html#afebdc0103ad9cbe0ed4a54e522dc4104" target="_top" xlink:title="This subroutine initializes MOM. ">
<polygon fill="white" stroke="black" points="649,-6 649,-25 738,-25 738,-6 649,-6"/>
<text text-anchor="middle" x="693.5" y="-13" font-family="Helvetica,sans-Serif" font-size="10.00">mom::initialize_mom</text>
</a>
</g>
</g>
<!-- Node58&#45;&gt;Node59 -->
<g id="edge9" class="edge"><title>Node58&#45;&gt;Node59</title>
<path fill="none" stroke="midnightblue" d="M622.868,-15.5C631.667,-15.5 640.595,-15.5 648.989,-15.5"/>
<polygon fill="midnightblue" stroke="midnightblue" points="622.637,-12.0001 612.637,-15.5 622.637,-19.0001 622.637,-12.0001"/>
</g>
<!-- Node59&#45;&gt;Node57 -->
<g id="edge10" class="edge"><title>Node59&#45;&gt;Node57</title>
<path fill="none" stroke="midnightblue" d="M748.121,-25.0661C757.016,-26.653 765.897,-28.2374 773.771,-29.6423"/>
<polygon fill="midnightblue" stroke="midnightblue" points="748.584,-21.5936 738.125,-23.2828 747.355,-28.4848 748.584,-21.5936"/>
</g>
</g>
</svg>
