<?xml version="1.0" encoding="UTF-8" standalone="no"?>
<!DOCTYPE svg PUBLIC "-//W3C//DTD SVG 1.1//EN"
 "http://www.w3.org/Graphics/SVG/1.1/DTD/svg11.dtd">
<!-- Generated by graphviz version 2.38.0 (20140413.2041)
 -->
<!-- Title: mom_grid_initialize::grid_metrics_chksum Pages: 1 -->
<!--zoomable 127 -->
<svg id="main" version="1.1" xmlns="http://www.w3.org/2000/svg" xmlns:xlink="http://www.w3.org/1999/xlink" xml:space="preserve" onload="init(evt)">
<style type="text/css"><![CDATA[
.edge:hover path { stroke: red; }
.edge:hover polygon { stroke: red; fill: red; }
]]></style>
<script type="text/javascript"><![CDATA[
var edges = document.getElementsByTagName('g');
if (edges && edges.length) {
  for (var i=0;i<edges.length;i++) {
    if (edges[i].id.substr(0,4)=='edge') {
      edges[i].setAttribute('class','edge');
    }
  }
}
]]></script>
        <defs>
                <circle id="rim" cx="0" cy="0" r="7"/>
                <circle id="rim2" cx="0" cy="0" r="3.5"/>
                <g id="zoomPlus">
                        <use xlink:href="#rim" fill="#404040">
                                <set attributeName="fill" to="#808080" begin="zoomplus.mouseover" end="zoomplus.mouseout"/>
                        </use>
                        <path d="M-4,0h8M0,-4v8" fill="none" stroke="white" stroke-width="1.5" pointer-events="none"/>
                </g>
                <g id="zoomMin">
                        <use xlink:href="#rim" fill="#404040">
                                <set attributeName="fill" to="#808080" begin="zoomminus.mouseover" end="zoomminus.mouseout"/>
                        </use>
                        <path d="M-4,0h8" fill="none" stroke="white" stroke-width="1.5" pointer-events="none"/>
                </g>
                <g id="dirArrow">
                        <path fill="none" stroke="white" stroke-width="1.5" d="M0,-3.0v7 M-2.5,-0.5L0,-3.0L2.5,-0.5"/>
                </g>
               <g id="resetDef">
                       <use xlink:href="#rim2" fill="#404040">
                               <set attributeName="fill" to="#808080" begin="reset.mouseover" end="reset.mouseout"/>
                       </use>
               </g>
        </defs>

<script type="text/javascript">
var viewWidth = 578;
var viewHeight = 127;
var sectionId = 'dynsection-11';
</script>
<script xlink:href="../../svgpan.js"/>
<svg id="graph" class="graph">
<g id="viewport">
<title>mom_grid_initialize::grid_metrics_chksum</title>
<polygon fill="white" stroke="none" points="-4,4 -4,-122.5 574,-122.5 574,4 -4,4"/>
<!-- Node83 -->
<g id="node1" class="node"><title>Node83</title>
<polygon fill="#bfbfbf" stroke="black" points="0,-49.5 0,-79.5 96,-79.5 96,-49.5 0,-49.5"/>
<text text-anchor="start" x="8" y="-67.5" font-family="Helvetica,sans-Serif" font-size="10.00">mom_grid_initialize</text>
<text text-anchor="middle" x="48" y="-56.5" font-family="Helvetica,sans-Serif" font-size="10.00">::grid_metrics_chksum</text>
</g>
<!-- Node84 -->
<g id="node2" class="node"><title>Node84</title>
<g id="a_node2"><a xlink:href="../../d5/daa/namespacemom__grid__initialize.html#a235a9712823e2f78e4958e8d681b6ba4" target="_top" xlink:title="set_grid_metrics is used to set the primary values in the model&#39;s horizontal grid. The bathymetry, land&#45;sea mask and any restricted channel widths are not know yet, so these are set later. ">
<polygon fill="white" stroke="black" points="132,-49.5 132,-79.5 216,-79.5 216,-49.5 132,-49.5"/>
<text text-anchor="start" x="140" y="-67.5" font-family="Helvetica,sans-Serif" font-size="10.00">mom_grid_initialize</text>
<text text-anchor="middle" x="174" y="-56.5" font-family="Helvetica,sans-Serif" font-size="10.00">::set_grid_metrics</text>
</a>
</g>
</g>
<!-- Node83&#45;&gt;Node84 -->
<g id="edge1" class="edge"><title>Node83&#45;&gt;Node84</title>
<path fill="none" stroke="midnightblue" d="M106.304,-64.5C114.965,-64.5 123.75,-64.5 131.976,-64.5"/>
<polygon fill="midnightblue" stroke="midnightblue" points="106.233,-61.0001 96.2328,-64.5 106.233,-68.0001 106.233,-61.0001"/>
</g>
<!-- Node85 -->
<g id="node3" class="node"><title>Node85</title>
<g id="a_node3"><a xlink:href="../../d6/d48/MOM__sum__driver_8F90.html#a08fffeb2d8e8acbf9ed4609be6d258c6" target="_top" xlink:title="mom_main">
<polygon fill="white" stroke="black" points="274.5,-99 274.5,-118 330.5,-118 330.5,-99 274.5,-99"/>
<text text-anchor="middle" x="302.5" y="-106" font-family="Helvetica,sans-Serif" font-size="10.00">mom_main</text>
</a>
</g>
</g>
<!-- Node84&#45;&gt;Node85 -->
<g id="edge2" class="edge"><title>Node84&#45;&gt;Node85</title>
<path fill="none" stroke="midnightblue" d="M225.657,-82.1197C242.235,-87.8861 260.017,-94.071 274.193,-99.0018"/>
<polygon fill="midnightblue" stroke="midnightblue" points="226.666,-78.7651 216.071,-78.7855 224.366,-85.3766 226.666,-78.7651"/>
</g>
<!-- Node86 -->
<g id="node4" class="node"><title>Node86</title>
<g id="a_node4"><a xlink:href="../../df/da2/namespacemom__ice__shelf.html#ae315e8464ef8a20062e3bccb61886755" target="_top" xlink:title="mom_ice_shelf::initialize\l_ice_shelf">
<polygon fill="white" stroke="black" points="252,-49.5 252,-79.5 353,-79.5 353,-49.5 252,-49.5"/>
<text text-anchor="start" x="260" y="-67.5" font-family="Helvetica,sans-Serif" font-size="10.00">mom_ice_shelf::initialize</text>
<text text-anchor="middle" x="302.5" y="-56.5" font-family="Helvetica,sans-Serif" font-size="10.00">_ice_shelf</text>
</a>
</g>
</g>
<!-- Node84&#45;&gt;Node86 -->
<g id="edge3" class="edge"><title>Node84&#45;&gt;Node86</title>
<path fill="none" stroke="midnightblue" d="M226.189,-64.5C234.64,-64.5 243.389,-64.5 251.803,-64.5"/>
<polygon fill="midnightblue" stroke="midnightblue" points="226.071,-61.0001 216.071,-64.5 226.071,-68.0001 226.071,-61.0001"/>
</g>
<!-- Node89 -->
<g id="node7" class="node"><title>Node89</title>
<g id="a_node7"><a xlink:href="../../d3/da8/namespacemom__fixed__initialization.html#adce0d050de4be34a2dc4fa39b49b8c27" target="_top" xlink:title="MOM_initialize_fixed sets up time&#45;invariant quantities related to MOM6&#39;s horizontal grid...">
<polygon fill="white" stroke="black" points="252.5,-0.5 252.5,-30.5 352.5,-30.5 352.5,-0.5 252.5,-0.5"/>
<text text-anchor="start" x="260.5" y="-18.5" font-family="Helvetica,sans-Serif" font-size="10.00">mom_fixed_initialization</text>
<text text-anchor="middle" x="302.5" y="-7.5" font-family="Helvetica,sans-Serif" font-size="10.00">::mom_initialize_fixed</text>
</a>
</g>
</g>
<!-- Node84&#45;&gt;Node89 -->
<g id="edge6" class="edge"><title>Node84&#45;&gt;Node89</title>
<path fill="none" stroke="midnightblue" d="M223.607,-45.6722C236.454,-40.6958 250.154,-35.3891 262.425,-30.6359"/>
<polygon fill="midnightblue" stroke="midnightblue" points="222.047,-42.5228 213.986,-49.3986 224.575,-49.0502 222.047,-42.5228"/>
</g>
<!-- Node87 -->
<g id="node5" class="node"><title>Node87</title>
<g id="a_node5"><a xlink:href="../../d5/d6d/ice__shelf__driver_8F90.html#aec5bef92f0dad343f545cd8d62e378d8" target="_top" xlink:title="shelf_main">
<polygon fill="white" stroke="black" points="406,-82 406,-101 461,-101 461,-82 406,-82"/>
<text text-anchor="middle" x="433.5" y="-89" font-family="Helvetica,sans-Serif" font-size="10.00">shelf_main</text>
</a>
</g>
</g>
<!-- Node86&#45;&gt;Node87 -->
<g id="edge4" class="edge"><title>Node86&#45;&gt;Node87</title>
<path fill="none" stroke="midnightblue" d="M363.21,-76.9975C378.086,-80.111 393.303,-83.2959 405.673,-85.8851"/>
<polygon fill="midnightblue" stroke="midnightblue" points="363.511,-73.4846 353.006,-74.8617 362.077,-80.3362 363.511,-73.4846"/>
</g>
<!-- Node88 -->
<g id="node6" class="node"><title>Node88</title>
<g id="a_node6"><a xlink:href="../../de/dbc/MOM__driver_8F90.html#a08fffeb2d8e8acbf9ed4609be6d258c6" target="_top" xlink:title="mom_main">
<polygon fill="white" stroke="black" points="514,-25 514,-44 570,-44 570,-25 514,-25"/>
<text text-anchor="middle" x="542" y="-32" font-family="Helvetica,sans-Serif" font-size="10.00">mom_main</text>
</a>
</g>
</g>
<!-- Node86&#45;&gt;Node88 -->
<g id="edge5" class="edge"><title>Node86&#45;&gt;Node88</title>
<path fill="none" stroke="midnightblue" d="M363.314,-56.9445C411.619,-50.8429 477.353,-42.5396 513.813,-37.9342"/>
<polygon fill="midnightblue" stroke="midnightblue" points="362.77,-53.4853 353.288,-58.211 363.648,-60.4301 362.77,-53.4853"/>
</g>
<!-- Node90 -->
<g id="node8" class="node"><title>Node90</title>
<g id="a_node8"><a xlink:href="../../da/d01/namespacemom.html#afebdc0103ad9cbe0ed4a54e522dc4104" target="_top" xlink:title="This subroutine initializes MOM. ">
<polygon fill="white" stroke="black" points="389,-6 389,-25 478,-25 478,-6 389,-6"/>
<text text-anchor="middle" x="433.5" y="-13" font-family="Helvetica,sans-Serif" font-size="10.00">mom::initialize_mom</text>
</a>
</g>
</g>
<!-- Node89&#45;&gt;Node90 -->
<g id="edge7" class="edge"><title>Node89&#45;&gt;Node90</title>
<path fill="none" stroke="midnightblue" d="M362.868,-15.5C371.667,-15.5 380.595,-15.5 388.989,-15.5"/>
<polygon fill="midnightblue" stroke="midnightblue" points="362.637,-12.0001 352.637,-15.5 362.637,-19.0001 362.637,-12.0001"/>
</g>
<!-- Node90&#45;&gt;Node88 -->
<g id="edge8" class="edge"><title>Node90&#45;&gt;Node88</title>
<path fill="none" stroke="midnightblue" d="M488.121,-25.0661C497.016,-26.653 505.897,-28.2374 513.771,-29.6423"/>
<polygon fill="midnightblue" stroke="midnightblue" points="488.584,-21.5936 478.125,-23.2828 487.355,-28.4848 488.584,-21.5936"/>
</g>
</g>
</svg>
        <g id="navigator" transform="translate(0 0)" fill="#404254">
                <rect fill="#f2f5e9" fill-opacity="0.5" stroke="#606060" stroke-width=".5" x="0" y="0" width="60" height="60"/>
                <use id="zoomplus" xlink:href="#zoomPlus" x="17" y="9" onmousedown="handleZoom(evt,'in')"/>
                <use id="zoomminus" xlink:href="#zoomMin" x="42" y="9" onmousedown="handleZoom(evt,'out')"/>
                <use id="reset" xlink:href="#resetDef" x="30" y="36" onmousedown="handleReset()"/>
                <g id="arrowUp" xlink:href="#dirArrow" transform="translate(30 24)" onmousedown="handlePan(0,-1)">
                  <use xlink:href="#rim" fill="#404040">
                        <set attributeName="fill" to="#808080" begin="arrowUp.mouseover" end="arrowUp.mouseout"/>
                  </use>
                  <path fill="none" stroke="white" stroke-width="1.5" d="M0,-3.0v7 M-2.5,-0.5L0,-3.0L2.5,-0.5"/>
                </g>
                <g id="arrowRight" xlink:href="#dirArrow" transform="rotate(90) translate(36 -43)" onmousedown="handlePan(1,0)">
                  <use xlink:href="#rim" fill="#404040">
                        <set attributeName="fill" to="#808080" begin="arrowRight.mouseover" end="arrowRight.mouseout"/>
                  </use>
                  <path fill="none" stroke="white" stroke-width="1.5" d="M0,-3.0v7 M-2.5,-0.5L0,-3.0L2.5,-0.5"/>
                </g>
                <g id="arrowDown" xlink:href="#dirArrow" transform="rotate(180) translate(-30 -48)" onmousedown="handlePan(0,1)">
                  <use xlink:href="#rim" fill="#404040">
                        <set attributeName="fill" to="#808080" begin="arrowDown.mouseover" end="arrowDown.mouseout"/>
                  </use>
                  <path fill="none" stroke="white" stroke-width="1.5" d="M0,-3.0v7 M-2.5,-0.5L0,-3.0L2.5,-0.5"/>
                </g>
                <g id="arrowLeft" xlink:href="#dirArrow" transform="rotate(270) translate(-36 17)" onmousedown="handlePan(-1,0)">
                  <use xlink:href="#rim" fill="#404040">
                        <set attributeName="fill" to="#808080" begin="arrowLeft.mouseover" end="arrowLeft.mouseout"/>
                  </use>
                  <path fill="none" stroke="white" stroke-width="1.5" d="M0,-3.0v7 M-2.5,-0.5L0,-3.0L2.5,-0.5"/>
                </g>
        </g>
        <svg viewBox="0 0 15 15" width="100%" height="30px" preserveAspectRatio="xMaxYMin meet">
         <g id="arrow_out" transform="scale(0.3 0.3)">
          <a xlink:href="namespacemom__grid__initialize_aaa2e124bccd43d4f8735c4ef8e07f287_icgraph_org.svg" target="_base">
           <rect id="button" ry="5" rx="5" y="6" x="6" height="38" width="38"
                fill="#f2f5e9" fill-opacity="0.5" stroke="#606060" stroke-width="1.0"/>
           <path id="arrow"
             d="M 11.500037,31.436501 C 11.940474,20.09759 22.043105,11.32322 32.158766,21.979434 L 37.068811,17.246167 C 37.068811,17.246167 37.088388,32 37.088388,32 L 22.160133,31.978069 C 22.160133,31.978069 26.997745,27.140456 26.997745,27.140456 C 18.528582,18.264221 13.291696,25.230495 11.500037,31.436501 z"
             style="fill:#404040;"/>
          </a>
         </g>
        </svg>
</svg>
