<?xml version="1.0" encoding="UTF-8" standalone="no"?>
<!DOCTYPE svg PUBLIC "-//W3C//DTD SVG 1.1//EN"
 "http://www.w3.org/Graphics/SVG/1.1/DTD/svg11.dtd">
<!-- Generated by graphviz version 2.38.0 (20140413.2041)
 -->
<!-- Title: mom_grid_initialize::extrapolate_metric Pages: 1 -->
<svg width="706pt" height="127pt"
 viewBox="0.00 0.00 706.00 126.50" xmlns="http://www.w3.org/2000/svg" xmlns:xlink="http://www.w3.org/1999/xlink">
<g id="graph0" class="graph" transform="scale(1 1) rotate(0) translate(4 122.5)">
<title>mom_grid_initialize::extrapolate_metric</title>
<polygon fill="white" stroke="none" points="-4,4 -4,-122.5 702,-122.5 702,4 -4,4"/>
<!-- Node61 -->
<g id="node1" class="node"><title>Node61</title>
<polygon fill="#bfbfbf" stroke="black" points="0,-49.5 0,-79.5 87,-79.5 87,-49.5 0,-49.5"/>
<text text-anchor="start" x="8" y="-67.5" font-family="Helvetica,sans-Serif" font-size="10.00">mom_grid_initialize</text>
<text text-anchor="middle" x="43.5" y="-56.5" font-family="Helvetica,sans-Serif" font-size="10.00">::extrapolate_metric</text>
</g>
<!-- Node62 -->
<g id="node2" class="node"><title>Node62</title>
<g id="a_node2"><a xlink:href="../../d5/daa/namespacemom__grid__initialize.html#a59e71c4235b01cf3ad4fb6252ef74248" target="_top" xlink:title="mom_grid_initialize\l::set_grid_metrics_from\l_mosaic">
<polygon fill="white" stroke="black" points="123,-44 123,-85 224,-85 224,-44 123,-44"/>
<text text-anchor="start" x="131" y="-73" font-family="Helvetica,sans-Serif" font-size="10.00">mom_grid_initialize</text>
<text text-anchor="start" x="131" y="-62" font-family="Helvetica,sans-Serif" font-size="10.00">::set_grid_metrics_from</text>
<text text-anchor="middle" x="173.5" y="-51" font-family="Helvetica,sans-Serif" font-size="10.00">_mosaic</text>
</a>
</g>
</g>
<!-- Node61&#45;&gt;Node62 -->
<g id="edge1" class="edge"><title>Node61&#45;&gt;Node62</title>
<path fill="none" stroke="midnightblue" d="M97.3051,-64.5C105.798,-64.5 114.562,-64.5 122.975,-64.5"/>
<polygon fill="midnightblue" stroke="midnightblue" points="97.1222,-61.0001 87.1221,-64.5 97.1221,-68.0001 97.1222,-61.0001"/>
</g>
<!-- Node63 -->
<g id="node3" class="node"><title>Node63</title>
<g id="a_node3"><a xlink:href="../../d5/daa/namespacemom__grid__initialize.html#a235a9712823e2f78e4958e8d681b6ba4" target="_top" xlink:title="set_grid_metrics is used to set the primary values in the model&#39;s horizontal grid. The bathymetry, land&#45;sea mask and any restricted channel widths are not know yet, so these are set later. ">
<polygon fill="white" stroke="black" points="260,-49.5 260,-79.5 344,-79.5 344,-49.5 260,-49.5"/>
<text text-anchor="start" x="268" y="-67.5" font-family="Helvetica,sans-Serif" font-size="10.00">mom_grid_initialize</text>
<text text-anchor="middle" x="302" y="-56.5" font-family="Helvetica,sans-Serif" font-size="10.00">::set_grid_metrics</text>
</a>
</g>
</g>
<!-- Node62&#45;&gt;Node63 -->
<g id="edge2" class="edge"><title>Node62&#45;&gt;Node63</title>
<path fill="none" stroke="midnightblue" d="M234.18,-64.5C242.805,-64.5 251.52,-64.5 259.679,-64.5"/>
<polygon fill="midnightblue" stroke="midnightblue" points="234.133,-61.0001 224.133,-64.5 234.133,-68.0001 234.133,-61.0001"/>
</g>
<!-- Node64 -->
<g id="node4" class="node"><title>Node64</title>
<g id="a_node4"><a xlink:href="../../d6/d48/MOM__sum__driver_8F90.html#a08fffeb2d8e8acbf9ed4609be6d258c6" target="_top" xlink:title="mom_main">
<polygon fill="white" stroke="black" points="402.5,-99 402.5,-118 458.5,-118 458.5,-99 402.5,-99"/>
<text text-anchor="middle" x="430.5" y="-106" font-family="Helvetica,sans-Serif" font-size="10.00">mom_main</text>
</a>
</g>
</g>
<!-- Node63&#45;&gt;Node64 -->
<g id="edge3" class="edge"><title>Node63&#45;&gt;Node64</title>
<path fill="none" stroke="midnightblue" d="M353.657,-82.1197C370.235,-87.8861 388.017,-94.071 402.193,-99.0018"/>
<polygon fill="midnightblue" stroke="midnightblue" points="354.666,-78.7651 344.071,-78.7855 352.366,-85.3766 354.666,-78.7651"/>
</g>
<!-- Node65 -->
<g id="node5" class="node"><title>Node65</title>
<g id="a_node5"><a xlink:href="../../df/da2/namespacemom__ice__shelf.html#ae315e8464ef8a20062e3bccb61886755" target="_top" xlink:title="mom_ice_shelf::initialize\l_ice_shelf">
<polygon fill="white" stroke="black" points="380,-49.5 380,-79.5 481,-79.5 481,-49.5 380,-49.5"/>
<text text-anchor="start" x="388" y="-67.5" font-family="Helvetica,sans-Serif" font-size="10.00">mom_ice_shelf::initialize</text>
<text text-anchor="middle" x="430.5" y="-56.5" font-family="Helvetica,sans-Serif" font-size="10.00">_ice_shelf</text>
</a>
</g>
</g>
<!-- Node63&#45;&gt;Node65 -->
<g id="edge4" class="edge"><title>Node63&#45;&gt;Node65</title>
<path fill="none" stroke="midnightblue" d="M354.189,-64.5C362.64,-64.5 371.389,-64.5 379.803,-64.5"/>
<polygon fill="midnightblue" stroke="midnightblue" points="354.071,-61.0001 344.071,-64.5 354.071,-68.0001 354.071,-61.0001"/>
</g>
<!-- Node68 -->
<g id="node8" class="node"><title>Node68</title>
<g id="a_node8"><a xlink:href="../../d3/da8/namespacemom__fixed__initialization.html#adce0d050de4be34a2dc4fa39b49b8c27" target="_top" xlink:title="MOM_initialize_fixed sets up time&#45;invariant quantities related to MOM6&#39;s horizontal grid...">
<polygon fill="white" stroke="black" points="380.5,-0.5 380.5,-30.5 480.5,-30.5 480.5,-0.5 380.5,-0.5"/>
<text text-anchor="start" x="388.5" y="-18.5" font-family="Helvetica,sans-Serif" font-size="10.00">mom_fixed_initialization</text>
<text text-anchor="middle" x="430.5" y="-7.5" font-family="Helvetica,sans-Serif" font-size="10.00">::mom_initialize_fixed</text>
</a>
</g>
</g>
<!-- Node63&#45;&gt;Node68 -->
<g id="edge7" class="edge"><title>Node63&#45;&gt;Node68</title>
<path fill="none" stroke="midnightblue" d="M351.607,-45.6722C364.454,-40.6958 378.154,-35.3891 390.425,-30.6359"/>
<polygon fill="midnightblue" stroke="midnightblue" points="350.047,-42.5228 341.986,-49.3986 352.575,-49.0502 350.047,-42.5228"/>
</g>
<!-- Node66 -->
<g id="node6" class="node"><title>Node66</title>
<g id="a_node6"><a xlink:href="../../d5/d6d/ice__shelf__driver_8F90.html#aec5bef92f0dad343f545cd8d62e378d8" target="_top" xlink:title="shelf_main">
<polygon fill="white" stroke="black" points="534,-82 534,-101 589,-101 589,-82 534,-82"/>
<text text-anchor="middle" x="561.5" y="-89" font-family="Helvetica,sans-Serif" font-size="10.00">shelf_main</text>
</a>
</g>
</g>
<!-- Node65&#45;&gt;Node66 -->
<g id="edge5" class="edge"><title>Node65&#45;&gt;Node66</title>
<path fill="none" stroke="midnightblue" d="M491.21,-76.9975C506.086,-80.111 521.303,-83.2959 533.673,-85.8851"/>
<polygon fill="midnightblue" stroke="midnightblue" points="491.511,-73.4846 481.006,-74.8617 490.077,-80.3362 491.511,-73.4846"/>
</g>
<!-- Node67 -->
<g id="node7" class="node"><title>Node67</title>
<g id="a_node7"><a xlink:href="../../de/dbc/MOM__driver_8F90.html#a08fffeb2d8e8acbf9ed4609be6d258c6" target="_top" xlink:title="mom_main">
<polygon fill="white" stroke="black" points="642,-25 642,-44 698,-44 698,-25 642,-25"/>
<text text-anchor="middle" x="670" y="-32" font-family="Helvetica,sans-Serif" font-size="10.00">mom_main</text>
</a>
</g>
</g>
<!-- Node65&#45;&gt;Node67 -->
<g id="edge6" class="edge"><title>Node65&#45;&gt;Node67</title>
<path fill="none" stroke="midnightblue" d="M491.314,-56.9445C539.619,-50.8429 605.353,-42.5396 641.813,-37.9342"/>
<polygon fill="midnightblue" stroke="midnightblue" points="490.77,-53.4853 481.288,-58.211 491.648,-60.4301 490.77,-53.4853"/>
</g>
<!-- Node69 -->
<g id="node9" class="node"><title>Node69</title>
<g id="a_node9"><a xlink:href="../../da/d01/namespacemom.html#afebdc0103ad9cbe0ed4a54e522dc4104" target="_top" xlink:title="This subroutine initializes MOM. ">
<polygon fill="white" stroke="black" points="517,-6 517,-25 606,-25 606,-6 517,-6"/>
<text text-anchor="middle" x="561.5" y="-13" font-family="Helvetica,sans-Serif" font-size="10.00">mom::initialize_mom</text>
</a>
</g>
</g>
<!-- Node68&#45;&gt;Node69 -->
<g id="edge8" class="edge"><title>Node68&#45;&gt;Node69</title>
<path fill="none" stroke="midnightblue" d="M490.868,-15.5C499.667,-15.5 508.595,-15.5 516.989,-15.5"/>
<polygon fill="midnightblue" stroke="midnightblue" points="490.637,-12.0001 480.637,-15.5 490.637,-19.0001 490.637,-12.0001"/>
</g>
<!-- Node69&#45;&gt;Node67 -->
<g id="edge9" class="edge"><title>Node69&#45;&gt;Node67</title>
<path fill="none" stroke="midnightblue" d="M616.121,-25.0661C625.016,-26.653 633.897,-28.2374 641.771,-29.6423"/>
<polygon fill="midnightblue" stroke="midnightblue" points="616.584,-21.5936 606.125,-23.2828 615.355,-28.4848 616.584,-21.5936"/>
</g>
</g>
</svg>
