<?xml version="1.0" encoding="UTF-8" standalone="no"?>
<!DOCTYPE svg PUBLIC "-//W3C//DTD SVG 1.1//EN"
 "http://www.w3.org/Graphics/SVG/1.1/DTD/svg11.dtd">
<!-- Generated by graphviz version 2.38.0 (20140413.2041)
 -->
<!-- Title: mom_grid_initialize::set_grid_metrics_cartesian Pages: 1 -->
<svg width="382pt" height="88pt"
 viewBox="0.00 0.00 382.00 88.00" xmlns="http://www.w3.org/2000/svg" xmlns:xlink="http://www.w3.org/1999/xlink">
<g id="graph0" class="graph" transform="scale(1 1) rotate(0) translate(4 84)">
<title>mom_grid_initialize::set_grid_metrics_cartesian</title>
<polygon fill="white" stroke="none" points="-4,4 -4,-84 378,-84 378,4 -4,4"/>
<!-- Node148 -->
<g id="node1" class="node"><title>Node148</title>
<polygon fill="#bfbfbf" stroke="black" points="0,-24.5 0,-54.5 116,-54.5 116,-24.5 0,-24.5"/>
<text text-anchor="start" x="8" y="-42.5" font-family="Helvetica,sans-Serif" font-size="10.00">mom_grid_initialize</text>
<text text-anchor="middle" x="58" y="-31.5" font-family="Helvetica,sans-Serif" font-size="10.00">::set_grid_metrics_cartesian</text>
</g>
<!-- Node149 -->
<g id="node2" class="node"><title>Node149</title>
<g id="a_node2"><a xlink:href="../../d0/de6/namespacemom__error__handler.html#a9cda07a87815f0e5594066162b4345c3" target="_top" xlink:title="Writes a message about entering a subroutine if call tree reporting is active. ">
<polygon fill="white" stroke="black" points="152,-49.5 152,-79.5 245,-79.5 245,-49.5 152,-49.5"/>
<text text-anchor="start" x="160" y="-67.5" font-family="Helvetica,sans-Serif" font-size="10.00">mom_error_handler::</text>
<text text-anchor="middle" x="198.5" y="-56.5" font-family="Helvetica,sans-Serif" font-size="10.00">calltree_enter</text>
</a>
</g>
</g>
<!-- Node148&#45;&gt;Node149 -->
<g id="edge1" class="edge"><title>Node148&#45;&gt;Node149</title>
<path fill="none" stroke="midnightblue" d="M116.133,-49.8128C124.702,-51.3596 133.527,-52.9525 142.06,-54.4927"/>
<polygon fill="midnightblue" stroke="midnightblue" points="141.447,-57.9387 151.91,-56.2708 142.691,-51.05 141.447,-57.9387"/>
</g>
<!-- Node151 -->
<g id="node4" class="node"><title>Node151</title>
<g id="a_node4"><a xlink:href="../../d0/de6/namespacemom__error__handler.html#a88ea67781e2ed9b73ab7eac8ea5e8578" target="_top" xlink:title="Writes a message about leaving a subroutine if call tree reporting is active. ">
<polygon fill="white" stroke="black" points="152,-0.5 152,-30.5 245,-30.5 245,-0.5 152,-0.5"/>
<text text-anchor="start" x="160" y="-18.5" font-family="Helvetica,sans-Serif" font-size="10.00">mom_error_handler::</text>
<text text-anchor="middle" x="198.5" y="-7.5" font-family="Helvetica,sans-Serif" font-size="10.00">calltree_leave</text>
</a>
</g>
</g>
<!-- Node148&#45;&gt;Node151 -->
<g id="edge3" class="edge"><title>Node148&#45;&gt;Node151</title>
<path fill="none" stroke="midnightblue" d="M116.133,-29.5997C124.609,-28.131 133.335,-26.6189 141.781,-25.1552"/>
<polygon fill="midnightblue" stroke="midnightblue" points="142.655,-28.5561 151.91,-23.4001 141.459,-21.6589 142.655,-28.5561"/>
</g>
<!-- Node150 -->
<g id="node3" class="node"><title>Node150</title>
<g id="a_node3"><a xlink:href="../../d0/de6/namespacemom__error__handler.html#ad5f00a53059c72fe2332d1436c80ca71" target="_top" xlink:title="mom_error_handler::\lis_root_pe">
<polygon fill="white" stroke="black" points="281,-24.5 281,-54.5 374,-54.5 374,-24.5 281,-24.5"/>
<text text-anchor="start" x="289" y="-42.5" font-family="Helvetica,sans-Serif" font-size="10.00">mom_error_handler::</text>
<text text-anchor="middle" x="327.5" y="-31.5" font-family="Helvetica,sans-Serif" font-size="10.00">is_root_pe</text>
</a>
</g>
</g>
<!-- Node149&#45;&gt;Node150 -->
<g id="edge2" class="edge"><title>Node149&#45;&gt;Node150</title>
<path fill="none" stroke="midnightblue" d="M245.35,-55.4744C253.623,-53.8459 262.33,-52.1319 270.846,-50.4556"/>
<polygon fill="midnightblue" stroke="midnightblue" points="271.582,-53.8779 280.717,-48.5123 270.23,-47.0097 271.582,-53.8779"/>
</g>
<!-- Node151&#45;&gt;Node150 -->
<g id="edge4" class="edge"><title>Node151&#45;&gt;Node150</title>
<path fill="none" stroke="midnightblue" d="M245.35,-24.1646C253.623,-25.7279 262.33,-27.3734 270.846,-28.9827"/>
<polygon fill="midnightblue" stroke="midnightblue" points="270.241,-32.4303 280.717,-30.8482 271.541,-25.5521 270.241,-32.4303"/>
</g>
</g>
</svg>
