<?xml version="1.0" encoding="UTF-8" standalone="no"?>
<!DOCTYPE svg PUBLIC "-//W3C//DTD SVG 1.1//EN"
 "http://www.w3.org/Graphics/SVG/1.1/DTD/svg11.dtd">
<!-- Generated by graphviz version 2.38.0 (20140413.2041)
 -->
<!-- Title: mom_grid_initialize::find_root Pages: 1 -->
<!--zoomable 127 -->
<svg id="main" version="1.1" xmlns="http://www.w3.org/2000/svg" xmlns:xlink="http://www.w3.org/1999/xlink" xml:space="preserve" onload="init(evt)">
<style type="text/css"><![CDATA[
.edge:hover path { stroke: red; }
.edge:hover polygon { stroke: red; fill: red; }
]]></style>
<script type="text/javascript"><![CDATA[
var edges = document.getElementsByTagName('g');
if (edges && edges.length) {
  for (var i=0;i<edges.length;i++) {
    if (edges[i].id.substr(0,4)=='edge') {
      edges[i].setAttribute('class','edge');
    }
  }
}
]]></script>
        <defs>
                <circle id="rim" cx="0" cy="0" r="7"/>
                <circle id="rim2" cx="0" cy="0" r="3.5"/>
                <g id="zoomPlus">
                        <use xlink:href="#rim" fill="#404040">
                                <set attributeName="fill" to="#808080" begin="zoomplus.mouseover" end="zoomplus.mouseout"/>
                        </use>
                        <path d="M-4,0h8M0,-4v8" fill="none" stroke="white" stroke-width="1.5" pointer-events="none"/>
                </g>
                <g id="zoomMin">
                        <use xlink:href="#rim" fill="#404040">
                                <set attributeName="fill" to="#808080" begin="zoomminus.mouseover" end="zoomminus.mouseout"/>
                        </use>
                        <path d="M-4,0h8" fill="none" stroke="white" stroke-width="1.5" pointer-events="none"/>
                </g>
                <g id="dirArrow">
                        <path fill="none" stroke="white" stroke-width="1.5" d="M0,-3.0v7 M-2.5,-0.5L0,-3.0L2.5,-0.5"/>
                </g>
               <g id="resetDef">
                       <use xlink:href="#rim2" fill="#404040">
                               <set attributeName="fill" to="#808080" begin="reset.mouseover" end="reset.mouseout"/>
                       </use>
               </g>
        </defs>

<script type="text/javascript">
var viewWidth = 718;
var viewHeight = 127;
var sectionId = 'dynsection-10';
</script>
<script xlink:href="../../svgpan.js"/>
<svg id="graph" class="graph">
<g id="viewport">
<title>mom_grid_initialize::find_root</title>
<polygon fill="white" stroke="none" points="-4,4 -4,-122.5 714,-122.5 714,4 -4,4"/>
<!-- Node73 -->
<g id="node1" class="node"><title>Node73</title>
<polygon fill="#bfbfbf" stroke="black" points="0,-49.5 0,-79.5 84,-79.5 84,-49.5 0,-49.5"/>
<text text-anchor="start" x="8" y="-67.5" font-family="Helvetica,sans-Serif" font-size="10.00">mom_grid_initialize</text>
<text text-anchor="middle" x="42" y="-56.5" font-family="Helvetica,sans-Serif" font-size="10.00">::find_root</text>
</g>
<!-- Node74 -->
<g id="node2" class="node"><title>Node74</title>
<g id="a_node2"><a xlink:href="../../d5/daa/namespacemom__grid__initialize.html#ac37d98379b33a9e95d0bbffc1d7a730f" target="_top" xlink:title="mom_grid_initialize\l::set_grid_metrics_mercator">
<polygon fill="white" stroke="black" points="120,-49.5 120,-79.5 236,-79.5 236,-49.5 120,-49.5"/>
<text text-anchor="start" x="128" y="-67.5" font-family="Helvetica,sans-Serif" font-size="10.00">mom_grid_initialize</text>
<text text-anchor="middle" x="178" y="-56.5" font-family="Helvetica,sans-Serif" font-size="10.00">::set_grid_metrics_mercator</text>
</a>
</g>
</g>
<!-- Node73&#45;&gt;Node74 -->
<g id="edge1" class="edge"><title>Node73&#45;&gt;Node74</title>
<path fill="none" stroke="midnightblue" d="M94.5564,-64.5C102.828,-64.5 111.431,-64.5 119.824,-64.5"/>
<polygon fill="midnightblue" stroke="midnightblue" points="94.2978,-61.0001 84.2978,-64.5 94.2978,-68.0001 94.2978,-61.0001"/>
</g>
<!-- Node75 -->
<g id="node3" class="node"><title>Node75</title>
<g id="a_node3"><a xlink:href="../../d5/daa/namespacemom__grid__initialize.html#a235a9712823e2f78e4958e8d681b6ba4" target="_top" xlink:title="set_grid_metrics is used to set the primary values in the model&#39;s horizontal grid. The bathymetry, land&#45;sea mask and any restricted channel widths are not know yet, so these are set later. ">
<polygon fill="white" stroke="black" points="272,-49.5 272,-79.5 356,-79.5 356,-49.5 272,-49.5"/>
<text text-anchor="start" x="280" y="-67.5" font-family="Helvetica,sans-Serif" font-size="10.00">mom_grid_initialize</text>
<text text-anchor="middle" x="314" y="-56.5" font-family="Helvetica,sans-Serif" font-size="10.00">::set_grid_metrics</text>
</a>
</g>
</g>
<!-- Node74&#45;&gt;Node75 -->
<g id="edge2" class="edge"><title>Node74&#45;&gt;Node75</title>
<path fill="none" stroke="midnightblue" d="M246.366,-64.5C255.038,-64.5 263.702,-64.5 271.776,-64.5"/>
<polygon fill="midnightblue" stroke="midnightblue" points="246.217,-61.0001 236.217,-64.5 246.217,-68.0001 246.217,-61.0001"/>
</g>
<!-- Node76 -->
<g id="node4" class="node"><title>Node76</title>
<g id="a_node4"><a xlink:href="../../d6/d48/MOM__sum__driver_8F90.html#a08fffeb2d8e8acbf9ed4609be6d258c6" target="_top" xlink:title="mom_main">
<polygon fill="white" stroke="black" points="414.5,-99 414.5,-118 470.5,-118 470.5,-99 414.5,-99"/>
<text text-anchor="middle" x="442.5" y="-106" font-family="Helvetica,sans-Serif" font-size="10.00">mom_main</text>
</a>
</g>
</g>
<!-- Node75&#45;&gt;Node76 -->
<g id="edge3" class="edge"><title>Node75&#45;&gt;Node76</title>
<path fill="none" stroke="midnightblue" d="M365.657,-82.1197C382.235,-87.8861 400.017,-94.071 414.193,-99.0018"/>
<polygon fill="midnightblue" stroke="midnightblue" points="366.666,-78.7651 356.071,-78.7855 364.366,-85.3766 366.666,-78.7651"/>
</g>
<!-- Node77 -->
<g id="node5" class="node"><title>Node77</title>
<g id="a_node5"><a xlink:href="../../df/da2/namespacemom__ice__shelf.html#ae315e8464ef8a20062e3bccb61886755" target="_top" xlink:title="mom_ice_shelf::initialize\l_ice_shelf">
<polygon fill="white" stroke="black" points="392,-49.5 392,-79.5 493,-79.5 493,-49.5 392,-49.5"/>
<text text-anchor="start" x="400" y="-67.5" font-family="Helvetica,sans-Serif" font-size="10.00">mom_ice_shelf::initialize</text>
<text text-anchor="middle" x="442.5" y="-56.5" font-family="Helvetica,sans-Serif" font-size="10.00">_ice_shelf</text>
</a>
</g>
</g>
<!-- Node75&#45;&gt;Node77 -->
<g id="edge4" class="edge"><title>Node75&#45;&gt;Node77</title>
<path fill="none" stroke="midnightblue" d="M366.189,-64.5C374.64,-64.5 383.389,-64.5 391.803,-64.5"/>
<polygon fill="midnightblue" stroke="midnightblue" points="366.071,-61.0001 356.071,-64.5 366.071,-68.0001 366.071,-61.0001"/>
</g>
<!-- Node80 -->
<g id="node8" class="node"><title>Node80</title>
<g id="a_node8"><a xlink:href="../../d3/da8/namespacemom__fixed__initialization.html#adce0d050de4be34a2dc4fa39b49b8c27" target="_top" xlink:title="MOM_initialize_fixed sets up time&#45;invariant quantities related to MOM6&#39;s horizontal grid...">
<polygon fill="white" stroke="black" points="392.5,-0.5 392.5,-30.5 492.5,-30.5 492.5,-0.5 392.5,-0.5"/>
<text text-anchor="start" x="400.5" y="-18.5" font-family="Helvetica,sans-Serif" font-size="10.00">mom_fixed_initialization</text>
<text text-anchor="middle" x="442.5" y="-7.5" font-family="Helvetica,sans-Serif" font-size="10.00">::mom_initialize_fixed</text>
</a>
</g>
</g>
<!-- Node75&#45;&gt;Node80 -->
<g id="edge7" class="edge"><title>Node75&#45;&gt;Node80</title>
<path fill="none" stroke="midnightblue" d="M363.607,-45.6722C376.454,-40.6958 390.154,-35.3891 402.425,-30.6359"/>
<polygon fill="midnightblue" stroke="midnightblue" points="362.047,-42.5228 353.986,-49.3986 364.575,-49.0502 362.047,-42.5228"/>
</g>
<!-- Node78 -->
<g id="node6" class="node"><title>Node78</title>
<g id="a_node6"><a xlink:href="../../d5/d6d/ice__shelf__driver_8F90.html#aec5bef92f0dad343f545cd8d62e378d8" target="_top" xlink:title="shelf_main">
<polygon fill="white" stroke="black" points="546,-82 546,-101 601,-101 601,-82 546,-82"/>
<text text-anchor="middle" x="573.5" y="-89" font-family="Helvetica,sans-Serif" font-size="10.00">shelf_main</text>
</a>
</g>
</g>
<!-- Node77&#45;&gt;Node78 -->
<g id="edge5" class="edge"><title>Node77&#45;&gt;Node78</title>
<path fill="none" stroke="midnightblue" d="M503.21,-76.9975C518.086,-80.111 533.303,-83.2959 545.673,-85.8851"/>
<polygon fill="midnightblue" stroke="midnightblue" points="503.511,-73.4846 493.006,-74.8617 502.077,-80.3362 503.511,-73.4846"/>
</g>
<!-- Node79 -->
<g id="node7" class="node"><title>Node79</title>
<g id="a_node7"><a xlink:href="../../de/dbc/MOM__driver_8F90.html#a08fffeb2d8e8acbf9ed4609be6d258c6" target="_top" xlink:title="mom_main">
<polygon fill="white" stroke="black" points="654,-25 654,-44 710,-44 710,-25 654,-25"/>
<text text-anchor="middle" x="682" y="-32" font-family="Helvetica,sans-Serif" font-size="10.00">mom_main</text>
</a>
</g>
</g>
<!-- Node77&#45;&gt;Node79 -->
<g id="edge6" class="edge"><title>Node77&#45;&gt;Node79</title>
<path fill="none" stroke="midnightblue" d="M503.314,-56.9445C551.619,-50.8429 617.353,-42.5396 653.813,-37.9342"/>
<polygon fill="midnightblue" stroke="midnightblue" points="502.77,-53.4853 493.288,-58.211 503.648,-60.4301 502.77,-53.4853"/>
</g>
<!-- Node81 -->
<g id="node9" class="node"><title>Node81</title>
<g id="a_node9"><a xlink:href="../../da/d01/namespacemom.html#afebdc0103ad9cbe0ed4a54e522dc4104" target="_top" xlink:title="This subroutine initializes MOM. ">
<polygon fill="white" stroke="black" points="529,-6 529,-25 618,-25 618,-6 529,-6"/>
<text text-anchor="middle" x="573.5" y="-13" font-family="Helvetica,sans-Serif" font-size="10.00">mom::initialize_mom</text>
</a>
</g>
</g>
<!-- Node80&#45;&gt;Node81 -->
<g id="edge8" class="edge"><title>Node80&#45;&gt;Node81</title>
<path fill="none" stroke="midnightblue" d="M502.868,-15.5C511.667,-15.5 520.595,-15.5 528.989,-15.5"/>
<polygon fill="midnightblue" stroke="midnightblue" points="502.637,-12.0001 492.637,-15.5 502.637,-19.0001 502.637,-12.0001"/>
</g>
<!-- Node81&#45;&gt;Node79 -->
<g id="edge9" class="edge"><title>Node81&#45;&gt;Node79</title>
<path fill="none" stroke="midnightblue" d="M628.121,-25.0661C637.016,-26.653 645.897,-28.2374 653.771,-29.6423"/>
<polygon fill="midnightblue" stroke="midnightblue" points="628.584,-21.5936 618.125,-23.2828 627.355,-28.4848 628.584,-21.5936"/>
</g>
</g>
</svg>
        <g id="navigator" transform="translate(0 0)" fill="#404254">
                <rect fill="#f2f5e9" fill-opacity="0.5" stroke="#606060" stroke-width=".5" x="0" y="0" width="60" height="60"/>
                <use id="zoomplus" xlink:href="#zoomPlus" x="17" y="9" onmousedown="handleZoom(evt,'in')"/>
                <use id="zoomminus" xlink:href="#zoomMin" x="42" y="9" onmousedown="handleZoom(evt,'out')"/>
                <use id="reset" xlink:href="#resetDef" x="30" y="36" onmousedown="handleReset()"/>
                <g id="arrowUp" xlink:href="#dirArrow" transform="translate(30 24)" onmousedown="handlePan(0,-1)">
                  <use xlink:href="#rim" fill="#404040">
                        <set attributeName="fill" to="#808080" begin="arrowUp.mouseover" end="arrowUp.mouseout"/>
                  </use>
                  <path fill="none" stroke="white" stroke-width="1.5" d="M0,-3.0v7 M-2.5,-0.5L0,-3.0L2.5,-0.5"/>
                </g>
                <g id="arrowRight" xlink:href="#dirArrow" transform="rotate(90) translate(36 -43)" onmousedown="handlePan(1,0)">
                  <use xlink:href="#rim" fill="#404040">
                        <set attributeName="fill" to="#808080" begin="arrowRight.mouseover" end="arrowRight.mouseout"/>
                  </use>
                  <path fill="none" stroke="white" stroke-width="1.5" d="M0,-3.0v7 M-2.5,-0.5L0,-3.0L2.5,-0.5"/>
                </g>
                <g id="arrowDown" xlink:href="#dirArrow" transform="rotate(180) translate(-30 -48)" onmousedown="handlePan(0,1)">
                  <use xlink:href="#rim" fill="#404040">
                        <set attributeName="fill" to="#808080" begin="arrowDown.mouseover" end="arrowDown.mouseout"/>
                  </use>
                  <path fill="none" stroke="white" stroke-width="1.5" d="M0,-3.0v7 M-2.5,-0.5L0,-3.0L2.5,-0.5"/>
                </g>
                <g id="arrowLeft" xlink:href="#dirArrow" transform="rotate(270) translate(-36 17)" onmousedown="handlePan(-1,0)">
                  <use xlink:href="#rim" fill="#404040">
                        <set attributeName="fill" to="#808080" begin="arrowLeft.mouseover" end="arrowLeft.mouseout"/>
                  </use>
                  <path fill="none" stroke="white" stroke-width="1.5" d="M0,-3.0v7 M-2.5,-0.5L0,-3.0L2.5,-0.5"/>
                </g>
        </g>
        <svg viewBox="0 0 15 15" width="100%" height="30px" preserveAspectRatio="xMaxYMin meet">
         <g id="arrow_out" transform="scale(0.3 0.3)">
          <a xlink:href="namespacemom__grid__initialize_a25cb0001f061ef10b90e637f98ed9fcc_icgraph_org.svg" target="_base">
           <rect id="button" ry="5" rx="5" y="6" x="6" height="38" width="38"
                fill="#f2f5e9" fill-opacity="0.5" stroke="#606060" stroke-width="1.0"/>
           <path id="arrow"
             d="M 11.500037,31.436501 C 11.940474,20.09759 22.043105,11.32322 32.158766,21.979434 L 37.068811,17.246167 C 37.068811,17.246167 37.088388,32 37.088388,32 L 22.160133,31.978069 C 22.160133,31.978069 26.997745,27.140456 26.997745,27.140456 C 18.528582,18.264221 13.291696,25.230495 11.500037,31.436501 z"
             style="fill:#404040;"/>
          </a>
         </g>
        </svg>
</svg>
