<?xml version="1.0" encoding="UTF-8" standalone="no"?>
<!DOCTYPE svg PUBLIC "-//W3C//DTD SVG 1.1//EN"
 "http://www.w3.org/Graphics/SVG/1.1/DTD/svg11.dtd">
<!-- Generated by graphviz version 2.38.0 (20140413.2041)
 -->
<!-- Title: mom_ice_shelf_initialize::initialize_ice_thickness_from_file Pages: 1 -->
<svg width="478pt" height="88pt"
 viewBox="0.00 0.00 478.00 88.00" xmlns="http://www.w3.org/2000/svg" xmlns:xlink="http://www.w3.org/1999/xlink">
<g id="graph0" class="graph" transform="scale(1 1) rotate(0) translate(4 84)">
<title>mom_ice_shelf_initialize::initialize_ice_thickness_from_file</title>
<polygon fill="white" stroke="none" points="-4,4 -4,-84 474,-84 474,4 -4,4"/>
<!-- Node24 -->
<g id="node1" class="node"><title>Node24</title>
<polygon fill="#bfbfbf" stroke="black" points="0,-33 0,-74 101,-74 101,-33 0,-33"/>
<text text-anchor="start" x="8" y="-62" font-family="Helvetica,sans-Serif" font-size="10.00">mom_ice_shelf_initialize</text>
<text text-anchor="start" x="8" y="-51" font-family="Helvetica,sans-Serif" font-size="10.00">::initialize_ice_thickness</text>
<text text-anchor="middle" x="50.5" y="-40" font-family="Helvetica,sans-Serif" font-size="10.00">_from_file</text>
</g>
<!-- Node25 -->
<g id="node2" class="node"><title>Node25</title>
<g id="a_node2"><a xlink:href="../../d0/de6/namespacemom__error__handler.html#a460cfb79a06c29fc249952c2a3710d67" target="_top" xlink:title="mom_error_handler::\lmom_error">
<polygon fill="white" stroke="black" points="248,-49.5 248,-79.5 341,-79.5 341,-49.5 248,-49.5"/>
<text text-anchor="start" x="256" y="-67.5" font-family="Helvetica,sans-Serif" font-size="10.00">mom_error_handler::</text>
<text text-anchor="middle" x="294.5" y="-56.5" font-family="Helvetica,sans-Serif" font-size="10.00">mom_error</text>
</a>
</g>
</g>
<!-- Node24&#45;&gt;Node25 -->
<g id="edge1" class="edge"><title>Node24&#45;&gt;Node25</title>
<path fill="none" stroke="midnightblue" d="M101.377,-66.5034C112.989,-68.9944 125.361,-71.2224 137,-72.5 170.263,-76.1513 207.689,-74.4472 237.6,-71.691"/>
<polygon fill="midnightblue" stroke="midnightblue" points="238.24,-75.145 247.848,-70.6793 237.552,-68.1789 238.24,-75.145"/>
</g>
<!-- Node27 -->
<g id="node4" class="node"><title>Node27</title>
<g id="a_node4"><a xlink:href="../../d0/de6/namespacemom__error__handler.html#a1c462df7b61f1296407b4af51dfeceab" target="_top" xlink:title="mom_error_handler::\lmom_mesg">
<polygon fill="white" stroke="black" points="248,-0.5 248,-30.5 341,-30.5 341,-0.5 248,-0.5"/>
<text text-anchor="start" x="256" y="-18.5" font-family="Helvetica,sans-Serif" font-size="10.00">mom_error_handler::</text>
<text text-anchor="middle" x="294.5" y="-7.5" font-family="Helvetica,sans-Serif" font-size="10.00">mom_mesg</text>
</a>
</g>
</g>
<!-- Node24&#45;&gt;Node27 -->
<g id="edge3" class="edge"><title>Node24&#45;&gt;Node27</title>
<path fill="none" stroke="midnightblue" d="M101.07,-41.6227C112.806,-39.0501 125.31,-36.5036 137,-34.5 170.18,-28.8132 207.604,-24.205 237.534,-20.9516"/>
<polygon fill="midnightblue" stroke="midnightblue" points="238.216,-24.3988 247.789,-19.8578 237.474,-17.4382 238.216,-24.3988"/>
</g>
<!-- Node28 -->
<g id="node5" class="node"><title>Node28</title>
<g id="a_node5"><a xlink:href="../../d5/d89/namespacemom__io.html#ae7dd72cf77d5179d387ba16153af1b80" target="_top" xlink:title="Returns a directory name that is terminated with a &quot;/&quot; or &quot;./&quot; if the argument is an empty string...">
<polygon fill="white" stroke="black" points="137,-44 137,-63 212,-63 212,-44 137,-44"/>
<text text-anchor="middle" x="174.5" y="-51" font-family="Helvetica,sans-Serif" font-size="10.00">mom_io::slasher</text>
</a>
</g>
</g>
<!-- Node24&#45;&gt;Node28 -->
<g id="edge5" class="edge"><title>Node24&#45;&gt;Node28</title>
<path fill="none" stroke="midnightblue" d="M101.122,-53.5C109.471,-53.5 118.115,-53.5 126.398,-53.5"/>
<polygon fill="midnightblue" stroke="midnightblue" points="126.648,-57.0001 136.648,-53.5 126.648,-50.0001 126.648,-57.0001"/>
</g>
<!-- Node26 -->
<g id="node3" class="node"><title>Node26</title>
<g id="a_node3"><a xlink:href="../../d0/de6/namespacemom__error__handler.html#ad5f00a53059c72fe2332d1436c80ca71" target="_top" xlink:title="mom_error_handler::\lis_root_pe">
<polygon fill="white" stroke="black" points="377,-24.5 377,-54.5 470,-54.5 470,-24.5 377,-24.5"/>
<text text-anchor="start" x="385" y="-42.5" font-family="Helvetica,sans-Serif" font-size="10.00">mom_error_handler::</text>
<text text-anchor="middle" x="423.5" y="-31.5" font-family="Helvetica,sans-Serif" font-size="10.00">is_root_pe</text>
</a>
</g>
</g>
<!-- Node25&#45;&gt;Node26 -->
<g id="edge2" class="edge"><title>Node25&#45;&gt;Node26</title>
<path fill="none" stroke="midnightblue" d="M341.35,-55.4744C349.623,-53.8459 358.33,-52.1319 366.846,-50.4556"/>
<polygon fill="midnightblue" stroke="midnightblue" points="367.582,-53.8779 376.717,-48.5123 366.23,-47.0097 367.582,-53.8779"/>
</g>
<!-- Node27&#45;&gt;Node26 -->
<g id="edge4" class="edge"><title>Node27&#45;&gt;Node26</title>
<path fill="none" stroke="midnightblue" d="M341.35,-24.1646C349.623,-25.7279 358.33,-27.3734 366.846,-28.9827"/>
<polygon fill="midnightblue" stroke="midnightblue" points="366.241,-32.4303 376.717,-30.8482 367.541,-25.5521 366.241,-32.4303"/>
</g>
<!-- Node28&#45;&gt;Node25 -->
<g id="edge6" class="edge"><title>Node28&#45;&gt;Node25</title>
<path fill="none" stroke="midnightblue" d="M212.189,-56.9202C220.261,-57.6726 228.987,-58.486 237.623,-59.2911"/>
<polygon fill="midnightblue" stroke="midnightblue" points="237.393,-62.7848 247.675,-60.2282 238.043,-55.815 237.393,-62.7848"/>
</g>
</g>
</svg>
