<?xml version="1.0" encoding="UTF-8" standalone="no"?>
<!DOCTYPE svg PUBLIC "-//W3C//DTD SVG 1.1//EN"
 "http://www.w3.org/Graphics/SVG/1.1/DTD/svg11.dtd">
<!-- Generated by graphviz version 2.38.0 (20140413.2041)
 -->
<!-- Title: mom_regularize_layers::find_deficit_ratios Pages: 1 -->
<svg width="507pt" height="39pt"
 viewBox="0.00 0.00 507.00 39.00" xmlns="http://www.w3.org/2000/svg" xmlns:xlink="http://www.w3.org/1999/xlink">
<g id="graph0" class="graph" transform="scale(1 1) rotate(0) translate(4 35)">
<title>mom_regularize_layers::find_deficit_ratios</title>
<polygon fill="white" stroke="none" points="-4,4 -4,-35 503,-35 503,4 -4,4"/>
<!-- Node1 -->
<g id="node1" class="node"><title>Node1</title>
<polygon fill="#bfbfbf" stroke="black" points="0,-0.5 0,-30.5 100,-30.5 100,-0.5 0,-0.5"/>
<text text-anchor="start" x="8" y="-18.5" font-family="Helvetica,sans-Serif" font-size="10.00">mom_regularize_layers</text>
<text text-anchor="middle" x="50" y="-7.5" font-family="Helvetica,sans-Serif" font-size="10.00">::find_deficit_ratios</text>
</g>
<!-- Node2 -->
<g id="node2" class="node"><title>Node2</title>
<g id="a_node2"><a xlink:href="../../d8/dc3/namespacemom__regularize__layers.html#af8738e3c92f1d19b3f2269cb97f7eaf7" target="_top" xlink:title="mom_regularize_layers\l::regularize_surface">
<polygon fill="white" stroke="black" points="136,-0.5 136,-30.5 236,-30.5 236,-0.5 136,-0.5"/>
<text text-anchor="start" x="144" y="-18.5" font-family="Helvetica,sans-Serif" font-size="10.00">mom_regularize_layers</text>
<text text-anchor="middle" x="186" y="-7.5" font-family="Helvetica,sans-Serif" font-size="10.00">::regularize_surface</text>
</a>
</g>
</g>
<!-- Node1&#45;&gt;Node2 -->
<g id="edge1" class="edge"><title>Node1&#45;&gt;Node2</title>
<path fill="none" stroke="midnightblue" d="M110.398,-15.5C118.909,-15.5 127.586,-15.5 135.87,-15.5"/>
<polygon fill="midnightblue" stroke="midnightblue" points="110.136,-12.0001 100.136,-15.5 110.136,-19.0001 110.136,-12.0001"/>
</g>
<!-- Node3 -->
<g id="node3" class="node"><title>Node3</title>
<g id="a_node3"><a xlink:href="../../d8/dc3/namespacemom__regularize__layers.html#a32e5e07fe85a2f1861fe05f60576fe59" target="_top" xlink:title="mom_regularize_layers\l::regularize_layers">
<polygon fill="white" stroke="black" points="272,-0.5 272,-30.5 372,-30.5 372,-0.5 272,-0.5"/>
<text text-anchor="start" x="280" y="-18.5" font-family="Helvetica,sans-Serif" font-size="10.00">mom_regularize_layers</text>
<text text-anchor="middle" x="322" y="-7.5" font-family="Helvetica,sans-Serif" font-size="10.00">::regularize_layers</text>
</a>
</g>
</g>
<!-- Node2&#45;&gt;Node3 -->
<g id="edge2" class="edge"><title>Node2&#45;&gt;Node3</title>
<path fill="none" stroke="midnightblue" d="M246.398,-15.5C254.909,-15.5 263.586,-15.5 271.87,-15.5"/>
<polygon fill="midnightblue" stroke="midnightblue" points="246.136,-12.0001 236.136,-15.5 246.136,-19.0001 246.136,-12.0001"/>
</g>
<!-- Node4 -->
<g id="node4" class="node"><title>Node4</title>
<g id="a_node4"><a xlink:href="../../d8/df3/namespacemom__diabatic__driver.html#a61e57d3902367aa46aa3c2d949ee900f" target="_top" xlink:title="This subroutine imposes the diapycnal mass fluxes and the accompanying diapycnal advection of momentu...">
<polygon fill="white" stroke="black" points="408,-0.5 408,-30.5 499,-30.5 499,-0.5 408,-0.5"/>
<text text-anchor="start" x="416" y="-18.5" font-family="Helvetica,sans-Serif" font-size="10.00">mom_diabatic_driver</text>
<text text-anchor="middle" x="453.5" y="-7.5" font-family="Helvetica,sans-Serif" font-size="10.00">::diabatic</text>
</a>
</g>
</g>
<!-- Node3&#45;&gt;Node4 -->
<g id="edge3" class="edge"><title>Node3&#45;&gt;Node4</title>
<path fill="none" stroke="midnightblue" d="M382.352,-15.5C390.972,-15.5 399.721,-15.5 407.982,-15.5"/>
<polygon fill="midnightblue" stroke="midnightblue" points="382.328,-12.0001 372.328,-15.5 382.328,-19.0001 382.328,-12.0001"/>
</g>
</g>
</svg>
