<?xml version="1.0" encoding="UTF-8" standalone="no"?>
<!DOCTYPE svg PUBLIC "-//W3C//DTD SVG 1.1//EN"
 "http://www.w3.org/Graphics/SVG/1.1/DTD/svg11.dtd">
<!-- Generated by graphviz version 2.38.0 (20140413.2041)
 -->
<!-- Title: ocean_model_mod::convert_state_to_ocean_type Pages: 1 -->
<svg width="274pt" height="88pt"
 viewBox="0.00 0.00 274.00 88.00" xmlns="http://www.w3.org/2000/svg" xmlns:xlink="http://www.w3.org/1999/xlink">
<g id="graph0" class="graph" transform="scale(1 1) rotate(0) translate(4 84)">
<title>ocean_model_mod::convert_state_to_ocean_type</title>
<polygon fill="white" stroke="none" points="-4,4 -4,-84 270,-84 270,4 -4,4"/>
<!-- Node1 -->
<g id="node1" class="node"><title>Node1</title>
<polygon fill="#bfbfbf" stroke="black" points="0,-24.5 0,-54.5 116,-54.5 116,-24.5 0,-24.5"/>
<text text-anchor="start" x="8" y="-42.5" font-family="Helvetica,sans-Serif" font-size="10.00">ocean_model_mod::convert</text>
<text text-anchor="middle" x="58" y="-31.5" font-family="Helvetica,sans-Serif" font-size="10.00">_state_to_ocean_type</text>
</g>
<!-- Node2 -->
<g id="node2" class="node"><title>Node2</title>
<g id="a_node2"><a xlink:href="../../d5/dd4/namespaceocean__model__mod.html#a2fca652469ca65c63305060534a14c0e" target="_top" xlink:title="ocean_model_mod::ocean\l_model_init_sfc">
<polygon fill="white" stroke="black" points="153.5,-49.5 153.5,-79.5 264.5,-79.5 264.5,-49.5 153.5,-49.5"/>
<text text-anchor="start" x="161.5" y="-67.5" font-family="Helvetica,sans-Serif" font-size="10.00">ocean_model_mod::ocean</text>
<text text-anchor="middle" x="209" y="-56.5" font-family="Helvetica,sans-Serif" font-size="10.00">_model_init_sfc</text>
</a>
</g>
</g>
<!-- Node1&#45;&gt;Node2 -->
<g id="edge1" class="edge"><title>Node1&#45;&gt;Node2</title>
<path fill="none" stroke="midnightblue" d="M126.262,-50.7856C135.27,-52.2969 144.42,-53.8322 153.179,-55.3019"/>
<polygon fill="midnightblue" stroke="midnightblue" points="126.622,-47.2972 116.181,-49.0942 125.464,-54.2007 126.622,-47.2972"/>
</g>
<!-- Node3 -->
<g id="node3" class="node"><title>Node3</title>
<g id="a_node3"><a xlink:href="../../d5/dd4/namespaceocean__model__mod.html#ac9dc1795fc4799d6682f462857b42d62" target="_top" xlink:title="ocean_model_mod::update\l_ocean_model">
<polygon fill="white" stroke="black" points="152,-0.5 152,-30.5 266,-30.5 266,-0.5 152,-0.5"/>
<text text-anchor="start" x="160" y="-18.5" font-family="Helvetica,sans-Serif" font-size="10.00">ocean_model_mod::update</text>
<text text-anchor="middle" x="209" y="-7.5" font-family="Helvetica,sans-Serif" font-size="10.00">_ocean_model</text>
</a>
</g>
</g>
<!-- Node1&#45;&gt;Node3 -->
<g id="edge2" class="edge"><title>Node1&#45;&gt;Node3</title>
<path fill="none" stroke="midnightblue" d="M126.129,-28.6873C134.677,-27.3104 143.356,-25.9125 151.709,-24.567"/>
<polygon fill="midnightblue" stroke="midnightblue" points="125.497,-25.2438 116.181,-30.2896 126.611,-32.1547 125.497,-25.2438"/>
</g>
</g>
</svg>
