<?xml version="1.0" encoding="UTF-8" standalone="no"?>
<!DOCTYPE svg PUBLIC "-//W3C//DTD SVG 1.1//EN"
 "http://www.w3.org/Graphics/SVG/1.1/DTD/svg11.dtd">
<!-- Generated by graphviz version 2.38.0 (20140413.2041)
 -->
<!-- Title: mom_diag_mediator::set_axes_info Pages: 1 -->
<!--zoomable 259 -->
<svg id="main" version="1.1" xmlns="http://www.w3.org/2000/svg" xmlns:xlink="http://www.w3.org/1999/xlink" xml:space="preserve" onload="init(evt)">
<style type="text/css"><![CDATA[
.edge:hover path { stroke: red; }
.edge:hover polygon { stroke: red; fill: red; }
]]></style>
<script type="text/javascript"><![CDATA[
var edges = document.getElementsByTagName('g');
if (edges && edges.length) {
  for (var i=0;i<edges.length;i++) {
    if (edges[i].id.substr(0,4)=='edge') {
      edges[i].setAttribute('class','edge');
    }
  }
}
]]></script>
        <defs>
                <circle id="rim" cx="0" cy="0" r="7"/>
                <circle id="rim2" cx="0" cy="0" r="3.5"/>
                <g id="zoomPlus">
                        <use xlink:href="#rim" fill="#404040">
                                <set attributeName="fill" to="#808080" begin="zoomplus.mouseover" end="zoomplus.mouseout"/>
                        </use>
                        <path d="M-4,0h8M0,-4v8" fill="none" stroke="white" stroke-width="1.5" pointer-events="none"/>
                </g>
                <g id="zoomMin">
                        <use xlink:href="#rim" fill="#404040">
                                <set attributeName="fill" to="#808080" begin="zoomminus.mouseover" end="zoomminus.mouseout"/>
                        </use>
                        <path d="M-4,0h8" fill="none" stroke="white" stroke-width="1.5" pointer-events="none"/>
                </g>
                <g id="dirArrow">
                        <path fill="none" stroke="white" stroke-width="1.5" d="M0,-3.0v7 M-2.5,-0.5L0,-3.0L2.5,-0.5"/>
                </g>
               <g id="resetDef">
                       <use xlink:href="#rim2" fill="#404040">
                               <set attributeName="fill" to="#808080" begin="reset.mouseover" end="reset.mouseout"/>
                       </use>
               </g>
        </defs>

<script type="text/javascript">
var viewWidth = 503;
var viewHeight = 259;
var sectionId = 'dynsection-44';
</script>
<script xlink:href="../../svgpan.js"/>
<svg id="graph" class="graph">
<g id="viewport">
<title>mom_diag_mediator::set_axes_info</title>
<polygon fill="white" stroke="none" points="-4,4 -4,-255 499,-255 499,4 -4,4"/>
<!-- Node486 -->
<g id="node1" class="node"><title>Node486</title>
<polygon fill="#bfbfbf" stroke="black" points="0,-110.5 0,-140.5 95,-140.5 95,-110.5 0,-110.5"/>
<text text-anchor="start" x="8" y="-128.5" font-family="Helvetica,sans-Serif" font-size="10.00">mom_diag_mediator::</text>
<text text-anchor="middle" x="47.5" y="-117.5" font-family="Helvetica,sans-Serif" font-size="10.00">set_axes_info</text>
</g>
<!-- Node487 -->
<g id="node2" class="node"><title>Node487</title>
<g id="a_node2"><a xlink:href="../../d9/d06/namespacemom__diag__mediator.html#a6e11afe7a97bf8e3333d33b0aebd6f6e" target="_top" xlink:title="mom_diag_mediator::\lassert">
<polygon fill="white" stroke="black" points="131,-220.5 131,-250.5 226,-250.5 226,-220.5 131,-220.5"/>
<text text-anchor="start" x="139" y="-238.5" font-family="Helvetica,sans-Serif" font-size="10.00">mom_diag_mediator::</text>
<text text-anchor="middle" x="178.5" y="-227.5" font-family="Helvetica,sans-Serif" font-size="10.00">assert</text>
</a>
</g>
</g>
<!-- Node486&#45;&gt;Node487 -->
<g id="edge1" class="edge"><title>Node486&#45;&gt;Node487</title>
<path fill="none" stroke="midnightblue" d="M62.3065,-140.571C78.0801,-157.374 105.071,-184.895 131,-205.5 135.033,-208.705 139.417,-211.884 143.828,-214.907"/>
<polygon fill="midnightblue" stroke="midnightblue" points="141.989,-217.887 152.258,-220.493 145.856,-212.052 141.989,-217.887"/>
</g>
<!-- Node488 -->
<g id="node3" class="node"><title>Node488</title>
<g id="a_node3"><a xlink:href="../../d0/de6/namespacemom__error__handler.html#a460cfb79a06c29fc249952c2a3710d67" target="_top" xlink:title="mom_error_handler::\lmom_error">
<polygon fill="white" stroke="black" points="267.5,-88.5 267.5,-118.5 360.5,-118.5 360.5,-88.5 267.5,-88.5"/>
<text text-anchor="start" x="275.5" y="-106.5" font-family="Helvetica,sans-Serif" font-size="10.00">mom_error_handler::</text>
<text text-anchor="middle" x="314" y="-95.5" font-family="Helvetica,sans-Serif" font-size="10.00">mom_error</text>
</a>
</g>
</g>
<!-- Node486&#45;&gt;Node488 -->
<g id="edge10" class="edge"><title>Node486&#45;&gt;Node488</title>
<path fill="none" stroke="midnightblue" d="M68.22,-140.663C84.1733,-151.917 107.735,-166.338 131,-172.5 171.815,-183.31 186.129,-186.392 226,-172.5 252.283,-163.343 276.591,-142.568 292.793,-126.193"/>
<polygon fill="midnightblue" stroke="midnightblue" points="295.691,-128.226 300.069,-118.577 290.63,-123.39 295.691,-128.226"/>
</g>
<!-- Node490 -->
<g id="node5" class="node"><title>Node490</title>
<g id="a_node5"><a xlink:href="../../d9/d06/namespacemom__diag__mediator.html#ac9ba00691295073078313411a71cda40" target="_top" xlink:title="mom_diag_mediator::\lcheck_grid_def">
<polygon fill="white" stroke="black" points="131,-132.5 131,-162.5 226,-162.5 226,-132.5 131,-132.5"/>
<text text-anchor="start" x="139" y="-150.5" font-family="Helvetica,sans-Serif" font-size="10.00">mom_diag_mediator::</text>
<text text-anchor="middle" x="178.5" y="-139.5" font-family="Helvetica,sans-Serif" font-size="10.00">check_grid_def</text>
</a>
</g>
</g>
<!-- Node486&#45;&gt;Node490 -->
<g id="edge4" class="edge"><title>Node486&#45;&gt;Node490</title>
<path fill="none" stroke="midnightblue" d="M95.072,-133.443C103.475,-134.876 112.319,-136.384 120.969,-137.859"/>
<polygon fill="midnightblue" stroke="midnightblue" points="120.55,-141.338 130.996,-139.569 121.727,-134.438 120.55,-141.338"/>
</g>
<!-- Node491 -->
<g id="node6" class="node"><title>Node491</title>
<g id="a_node6"><a xlink:href="../../d9/d06/namespacemom__diag__mediator.html#a89ed21a0c77eeb2146d36019e9331d65" target="_top" xlink:title="Defines a group of &quot;axes&quot; from list of handles. ">
<polygon fill="white" stroke="black" points="131,-44.5 131,-74.5 226,-74.5 226,-44.5 131,-44.5"/>
<text text-anchor="start" x="139" y="-62.5" font-family="Helvetica,sans-Serif" font-size="10.00">mom_diag_mediator::</text>
<text text-anchor="middle" x="178.5" y="-51.5" font-family="Helvetica,sans-Serif" font-size="10.00">define_axes_group</text>
</a>
</g>
</g>
<!-- Node486&#45;&gt;Node491 -->
<g id="edge5" class="edge"><title>Node486&#45;&gt;Node491</title>
<path fill="none" stroke="midnightblue" d="M78.0952,-110.358C96.2039,-101.093 119.565,-89.1409 139.091,-79.1513"/>
<polygon fill="midnightblue" stroke="midnightblue" points="140.734,-82.242 148.043,-74.5713 137.546,-76.0102 140.734,-82.242"/>
</g>
<!-- Node493 -->
<g id="node8" class="node"><title>Node493</title>
<g id="a_node8"><a xlink:href="../../d9/def/namespacemom__file__parser.html#a17c0ef1bb1912f02faa0aaa1e0f64210" target="_top" xlink:title="mom_file_parser::log\l_version">
<polygon fill="white" stroke="black" points="268,-0.5 268,-30.5 360,-30.5 360,-0.5 268,-0.5"/>
<text text-anchor="start" x="276" y="-18.5" font-family="Helvetica,sans-Serif" font-size="10.00">mom_file_parser::log</text>
<text text-anchor="middle" x="314" y="-7.5" font-family="Helvetica,sans-Serif" font-size="10.00">_version</text>
</a>
</g>
</g>
<!-- Node486&#45;&gt;Node493 -->
<g id="edge8" class="edge"><title>Node486&#45;&gt;Node493</title>
<path fill="none" stroke="midnightblue" d="M57.1608,-110.439C70.1842,-89.3732 96.9537,-51.7594 131,-34.5 170.11,-14.6735 219.953,-10.703 257.586,-11.2542"/>
<polygon fill="midnightblue" stroke="midnightblue" points="257.77,-14.76 267.857,-11.5201 257.951,-7.76237 257.77,-14.76"/>
</g>
<!-- Node494 -->
<g id="node9" class="node"><title>Node494</title>
<g id="a_node9"><a xlink:href="../../d5/d89/namespacemom__io.html#ae7dd72cf77d5179d387ba16153af1b80" target="_top" xlink:title="Returns a directory name that is terminated with a &quot;/&quot; or &quot;./&quot; if the argument is an empty string...">
<polygon fill="white" stroke="black" points="141,-94 141,-113 216,-113 216,-94 141,-94"/>
<text text-anchor="middle" x="178.5" y="-101" font-family="Helvetica,sans-Serif" font-size="10.00">mom_io::slasher</text>
</a>
</g>
</g>
<!-- Node486&#45;&gt;Node494 -->
<g id="edge11" class="edge"><title>Node486&#45;&gt;Node494</title>
<path fill="none" stroke="midnightblue" d="M95.072,-117.557C106.682,-115.577 119.134,-113.454 130.753,-111.472"/>
<polygon fill="midnightblue" stroke="midnightblue" points="131.437,-114.906 140.706,-109.775 130.26,-108.006 131.437,-114.906"/>
</g>
<!-- Node487&#45;&gt;Node488 -->
<g id="edge2" class="edge"><title>Node487&#45;&gt;Node488</title>
<path fill="none" stroke="midnightblue" d="M206.041,-220.267C212.832,-215.871 219.926,-210.814 226,-205.5 253.526,-181.417 280.04,-148.467 296.413,-126.611"/>
<polygon fill="midnightblue" stroke="midnightblue" points="299.249,-128.662 302.376,-118.54 293.618,-124.503 299.249,-128.662"/>
</g>
<!-- Node489 -->
<g id="node4" class="node"><title>Node489</title>
<g id="a_node4"><a xlink:href="../../d0/de6/namespacemom__error__handler.html#ad5f00a53059c72fe2332d1436c80ca71" target="_top" xlink:title="mom_error_handler::\lis_root_pe">
<polygon fill="white" stroke="black" points="402,-44.5 402,-74.5 495,-74.5 495,-44.5 402,-44.5"/>
<text text-anchor="start" x="410" y="-62.5" font-family="Helvetica,sans-Serif" font-size="10.00">mom_error_handler::</text>
<text text-anchor="middle" x="448.5" y="-51.5" font-family="Helvetica,sans-Serif" font-size="10.00">is_root_pe</text>
</a>
</g>
</g>
<!-- Node488&#45;&gt;Node489 -->
<g id="edge3" class="edge"><title>Node488&#45;&gt;Node489</title>
<path fill="none" stroke="midnightblue" d="M360.228,-88.4808C370.56,-85.0499 381.653,-81.3663 392.348,-77.8146"/>
<polygon fill="midnightblue" stroke="midnightblue" points="393.638,-81.0742 402.026,-74.6009 391.432,-74.4309 393.638,-81.0742"/>
</g>
<!-- Node491&#45;&gt;Node488 -->
<g id="edge7" class="edge"><title>Node491&#45;&gt;Node488</title>
<path fill="none" stroke="midnightblue" d="M225.07,-74.5192C235.479,-77.9501 246.656,-81.6337 257.432,-85.1854"/>
<polygon fill="midnightblue" stroke="midnightblue" points="256.589,-88.5929 267.182,-88.3991 258.781,-81.9446 256.589,-88.5929"/>
</g>
<!-- Node492 -->
<g id="node7" class="node"><title>Node492</title>
<g id="a_node7"><a xlink:href="../../d9/d06/namespacemom__diag__mediator.html#a82d9bb70db16b1113304936c82d40e82" target="_top" xlink:title="mom_diag_mediator::i2s">
<polygon fill="white" stroke="black" points="262,-50 262,-69 366,-69 366,-50 262,-50"/>
<text text-anchor="middle" x="314" y="-57" font-family="Helvetica,sans-Serif" font-size="10.00">mom_diag_mediator::i2s</text>
</a>
</g>
</g>
<!-- Node491&#45;&gt;Node492 -->
<g id="edge6" class="edge"><title>Node491&#45;&gt;Node492</title>
<path fill="none" stroke="midnightblue" d="M226.192,-59.5C234.317,-59.5 242.88,-59.5 251.333,-59.5"/>
<polygon fill="midnightblue" stroke="midnightblue" points="251.553,-63.0001 261.553,-59.5 251.552,-56.0001 251.553,-63.0001"/>
</g>
<!-- Node493&#45;&gt;Node489 -->
<g id="edge9" class="edge"><title>Node493&#45;&gt;Node489</title>
<path fill="none" stroke="midnightblue" d="M360.228,-30.5192C370.56,-33.9501 381.653,-37.6337 392.348,-41.1854"/>
<polygon fill="midnightblue" stroke="midnightblue" points="391.432,-44.5691 402.026,-44.3991 393.638,-37.9258 391.432,-44.5691"/>
</g>
<!-- Node494&#45;&gt;Node488 -->
<g id="edge12" class="edge"><title>Node494&#45;&gt;Node488</title>
<path fill="none" stroke="midnightblue" d="M216.333,-103.5C228.879,-103.5 243.203,-103.5 256.912,-103.5"/>
<polygon fill="midnightblue" stroke="midnightblue" points="257.235,-107 267.235,-103.5 257.235,-100 257.235,-107"/>
</g>
</g>
</svg>
        <g id="navigator" transform="translate(0 0)" fill="#404254">
                <rect fill="#f2f5e9" fill-opacity="0.5" stroke="#606060" stroke-width=".5" x="0" y="0" width="60" height="60"/>
                <use id="zoomplus" xlink:href="#zoomPlus" x="17" y="9" onmousedown="handleZoom(evt,'in')"/>
                <use id="zoomminus" xlink:href="#zoomMin" x="42" y="9" onmousedown="handleZoom(evt,'out')"/>
                <use id="reset" xlink:href="#resetDef" x="30" y="36" onmousedown="handleReset()"/>
                <g id="arrowUp" xlink:href="#dirArrow" transform="translate(30 24)" onmousedown="handlePan(0,-1)">
                  <use xlink:href="#rim" fill="#404040">
                        <set attributeName="fill" to="#808080" begin="arrowUp.mouseover" end="arrowUp.mouseout"/>
                  </use>
                  <path fill="none" stroke="white" stroke-width="1.5" d="M0,-3.0v7 M-2.5,-0.5L0,-3.0L2.5,-0.5"/>
                </g>
                <g id="arrowRight" xlink:href="#dirArrow" transform="rotate(90) translate(36 -43)" onmousedown="handlePan(1,0)">
                  <use xlink:href="#rim" fill="#404040">
                        <set attributeName="fill" to="#808080" begin="arrowRight.mouseover" end="arrowRight.mouseout"/>
                  </use>
                  <path fill="none" stroke="white" stroke-width="1.5" d="M0,-3.0v7 M-2.5,-0.5L0,-3.0L2.5,-0.5"/>
                </g>
                <g id="arrowDown" xlink:href="#dirArrow" transform="rotate(180) translate(-30 -48)" onmousedown="handlePan(0,1)">
                  <use xlink:href="#rim" fill="#404040">
                        <set attributeName="fill" to="#808080" begin="arrowDown.mouseover" end="arrowDown.mouseout"/>
                  </use>
                  <path fill="none" stroke="white" stroke-width="1.5" d="M0,-3.0v7 M-2.5,-0.5L0,-3.0L2.5,-0.5"/>
                </g>
                <g id="arrowLeft" xlink:href="#dirArrow" transform="rotate(270) translate(-36 17)" onmousedown="handlePan(-1,0)">
                  <use xlink:href="#rim" fill="#404040">
                        <set attributeName="fill" to="#808080" begin="arrowLeft.mouseover" end="arrowLeft.mouseout"/>
                  </use>
                  <path fill="none" stroke="white" stroke-width="1.5" d="M0,-3.0v7 M-2.5,-0.5L0,-3.0L2.5,-0.5"/>
                </g>
        </g>
        <svg viewBox="0 0 15 15" width="100%" height="30px" preserveAspectRatio="xMaxYMin meet">
         <g id="arrow_out" transform="scale(0.3 0.3)">
          <a xlink:href="namespacemom__diag__mediator_a4d8d23e602166167b393e19453ded5bf_cgraph_org.svg" target="_base">
           <rect id="button" ry="5" rx="5" y="6" x="6" height="38" width="38"
                fill="#f2f5e9" fill-opacity="0.5" stroke="#606060" stroke-width="1.0"/>
           <path id="arrow"
             d="M 11.500037,31.436501 C 11.940474,20.09759 22.043105,11.32322 32.158766,21.979434 L 37.068811,17.246167 C 37.068811,17.246167 37.088388,32 37.088388,32 L 22.160133,31.978069 C 22.160133,31.978069 26.997745,27.140456 26.997745,27.140456 C 18.528582,18.264221 13.291696,25.230495 11.500037,31.436501 z"
             style="fill:#404040;"/>
          </a>
         </g>
        </svg>
</svg>
