<?xml version="1.0" encoding="UTF-8" standalone="no"?>
<!DOCTYPE svg PUBLIC "-//W3C//DTD SVG 1.1//EN"
 "http://www.w3.org/Graphics/SVG/1.1/DTD/svg11.dtd">
<!-- Generated by graphviz version 2.38.0 (20140413.2041)
 -->
<!-- Title: mom_diag_mediator::post_data_3d Pages: 1 -->
<!--zoomable 1027 -->
<svg id="main" version="1.1" xmlns="http://www.w3.org/2000/svg" xmlns:xlink="http://www.w3.org/1999/xlink" xml:space="preserve" onload="init(evt)">
<style type="text/css"><![CDATA[
.edge:hover path { stroke: red; }
.edge:hover polygon { stroke: red; fill: red; }
]]></style>
<script type="text/javascript"><![CDATA[
var edges = document.getElementsByTagName('g');
if (edges && edges.length) {
  for (var i=0;i<edges.length;i++) {
    if (edges[i].id.substr(0,4)=='edge') {
      edges[i].setAttribute('class','edge');
    }
  }
}
]]></script>
        <defs>
                <circle id="rim" cx="0" cy="0" r="7"/>
                <circle id="rim2" cx="0" cy="0" r="3.5"/>
                <g id="zoomPlus">
                        <use xlink:href="#rim" fill="#404040">
                                <set attributeName="fill" to="#808080" begin="zoomplus.mouseover" end="zoomplus.mouseout"/>
                        </use>
                        <path d="M-4,0h8M0,-4v8" fill="none" stroke="white" stroke-width="1.5" pointer-events="none"/>
                </g>
                <g id="zoomMin">
                        <use xlink:href="#rim" fill="#404040">
                                <set attributeName="fill" to="#808080" begin="zoomminus.mouseover" end="zoomminus.mouseout"/>
                        </use>
                        <path d="M-4,0h8" fill="none" stroke="white" stroke-width="1.5" pointer-events="none"/>
                </g>
                <g id="dirArrow">
                        <path fill="none" stroke="white" stroke-width="1.5" d="M0,-3.0v7 M-2.5,-0.5L0,-3.0L2.5,-0.5"/>
                </g>
               <g id="resetDef">
                       <use xlink:href="#rim2" fill="#404040">
                               <set attributeName="fill" to="#808080" begin="reset.mouseover" end="reset.mouseout"/>
                       </use>
               </g>
        </defs>

<script type="text/javascript">
var viewWidth = 1091;
var viewHeight = 1027;
var sectionId = 'dynsection-33';
</script>
<script xlink:href="../../svgpan.js"/>
<svg id="graph" class="graph">
<g id="viewport">
<title>mom_diag_mediator::post_data_3d</title>
<polygon fill="white" stroke="none" points="-4,4 -4,-1023.18 1087,-1023.18 1087,4 -4,4"/>
<!-- Node348 -->
<g id="node1" class="node"><title>Node348</title>
<polygon fill="#bfbfbf" stroke="black" points="0,-907.5 0,-937.5 95,-937.5 95,-907.5 0,-907.5"/>
<text text-anchor="start" x="8" y="-925.5" font-family="Helvetica,sans-Serif" font-size="10.00">mom_diag_mediator::</text>
<text text-anchor="middle" x="47.5" y="-914.5" font-family="Helvetica,sans-Serif" font-size="10.00">post_data_3d</text>
</g>
<!-- Node349 -->
<g id="node2" class="node"><title>Node349</title>
<g id="a_node2"><a xlink:href="../../d9/d06/namespacemom__diag__mediator.html#a6e11afe7a97bf8e3333d33b0aebd6f6e" target="_top" xlink:title="mom_diag_mediator::\lassert">
<polygon fill="white" stroke="black" points="274.5,-957.5 274.5,-987.5 369.5,-987.5 369.5,-957.5 274.5,-957.5"/>
<text text-anchor="start" x="282.5" y="-975.5" font-family="Helvetica,sans-Serif" font-size="10.00">mom_diag_mediator::</text>
<text text-anchor="middle" x="322" y="-964.5" font-family="Helvetica,sans-Serif" font-size="10.00">assert</text>
</a>
</g>
</g>
<!-- Node348&#45;&gt;Node349 -->
<g id="edge1" class="edge"><title>Node348&#45;&gt;Node349</title>
<path fill="none" stroke="midnightblue" d="M95.0348,-931.038C141.823,-939.623 214.019,-952.871 264.166,-962.072"/>
<polygon fill="midnightblue" stroke="midnightblue" points="263.733,-965.551 274.201,-963.913 264.997,-958.666 263.733,-965.551"/>
</g>
<!-- Node350 -->
<g id="node3" class="node"><title>Node350</title>
<g id="a_node3"><a xlink:href="../../d0/de6/namespacemom__error__handler.html#a460cfb79a06c29fc249952c2a3710d67" target="_top" xlink:title="mom_error_handler::\lmom_error">
<polygon fill="white" stroke="black" points="860.5,-728.5 860.5,-758.5 953.5,-758.5 953.5,-728.5 860.5,-728.5"/>
<text text-anchor="start" x="868.5" y="-746.5" font-family="Helvetica,sans-Serif" font-size="10.00">mom_error_handler::</text>
<text text-anchor="middle" x="907" y="-735.5" font-family="Helvetica,sans-Serif" font-size="10.00">mom_error</text>
</a>
</g>
</g>
<!-- Node348&#45;&gt;Node350 -->
<g id="edge4" class="edge"><title>Node348&#45;&gt;Node350</title>
<path fill="none" stroke="midnightblue" d="M73.7951,-937.603C120.772,-964.174 225.415,-1016.5 321,-1016.5 321,-1016.5 321,-1016.5 619,-1016.5 712.186,-1016.5 753.892,-1033.89 824,-972.5 885.307,-918.818 900.781,-815.949 904.685,-768.548"/>
<polygon fill="midnightblue" stroke="midnightblue" points="908.179,-768.755 905.402,-758.53 901.197,-768.255 908.179,-768.755"/>
</g>
<!-- Node352 -->
<g id="node5" class="node"><title>Node352</title>
<g id="a_node5"><a xlink:href="../../d9/d06/namespacemom__diag__mediator.html#ae11cae949c3f8cf68d2c70f656aa9c54" target="_top" xlink:title="mom_diag_mediator::\lpost_data_3d_low">
<polygon fill="white" stroke="black" points="131,-469.5 131,-499.5 226,-499.5 226,-469.5 131,-469.5"/>
<text text-anchor="start" x="139" y="-487.5" font-family="Helvetica,sans-Serif" font-size="10.00">mom_diag_mediator::</text>
<text text-anchor="middle" x="178.5" y="-476.5" font-family="Helvetica,sans-Serif" font-size="10.00">post_data_3d_low</text>
</a>
</g>
</g>
<!-- Node348&#45;&gt;Node352 -->
<g id="edge5" class="edge"><title>Node348&#45;&gt;Node352</title>
<path fill="none" stroke="midnightblue" d="M52.9405,-907.423C71.9356,-842.928 146.464,-589.878 170.198,-509.292"/>
<polygon fill="midnightblue" stroke="midnightblue" points="173.61,-510.095 173.078,-499.514 166.896,-508.117 173.61,-510.095"/>
</g>
<!-- Node353 -->
<g id="node6" class="node"><title>Node353</title>
<g id="a_node6"><a xlink:href="../../d9/d06/namespacemom__diag__mediator.html#ab5e628e0b8acd96234fab33d0fae2161" target="_top" xlink:title="Remap diagnostic field to z&#45;star vertical grid. ">
<polygon fill="white" stroke="black" points="131,-880.5 131,-910.5 226,-910.5 226,-880.5 131,-880.5"/>
<text text-anchor="start" x="139" y="-898.5" font-family="Helvetica,sans-Serif" font-size="10.00">mom_diag_mediator::</text>
<text text-anchor="middle" x="178.5" y="-887.5" font-family="Helvetica,sans-Serif" font-size="10.00">remap_diag_to_z</text>
</a>
</g>
</g>
<!-- Node348&#45;&gt;Node353 -->
<g id="edge7" class="edge"><title>Node348&#45;&gt;Node353</title>
<path fill="none" stroke="midnightblue" d="M95.072,-912.752C103.475,-910.994 112.319,-909.142 120.969,-907.332"/>
<polygon fill="midnightblue" stroke="midnightblue" points="121.926,-910.708 130.996,-905.233 120.491,-903.856 121.926,-910.708"/>
</g>
<!-- Node349&#45;&gt;Node350 -->
<g id="edge2" class="edge"><title>Node349&#45;&gt;Node350</title>
<path fill="none" stroke="midnightblue" d="M369.68,-975.807C479.836,-982.666 752.101,-993.815 824,-942.5 881.479,-901.476 898.781,-812.573 903.901,-768.838"/>
<polygon fill="midnightblue" stroke="midnightblue" points="907.397,-769.059 904.957,-758.749 900.435,-768.33 907.397,-769.059"/>
</g>
<!-- Node351 -->
<g id="node4" class="node"><title>Node351</title>
<g id="a_node4"><a xlink:href="../../d0/de6/namespacemom__error__handler.html#ad5f00a53059c72fe2332d1436c80ca71" target="_top" xlink:title="mom_error_handler::\lis_root_pe">
<polygon fill="white" stroke="black" points="990,-728.5 990,-758.5 1083,-758.5 1083,-728.5 990,-728.5"/>
<text text-anchor="start" x="998" y="-746.5" font-family="Helvetica,sans-Serif" font-size="10.00">mom_error_handler::</text>
<text text-anchor="middle" x="1036.5" y="-735.5" font-family="Helvetica,sans-Serif" font-size="10.00">is_root_pe</text>
</a>
</g>
</g>
<!-- Node350&#45;&gt;Node351 -->
<g id="edge3" class="edge"><title>Node350&#45;&gt;Node351</title>
<path fill="none" stroke="midnightblue" d="M953.67,-743.5C962.093,-743.5 970.975,-743.5 979.658,-743.5"/>
<polygon fill="midnightblue" stroke="midnightblue" points="979.72,-747 989.72,-743.5 979.72,-740 979.72,-747"/>
</g>
<!-- Node352&#45;&gt;Node350 -->
<g id="edge6" class="edge"><title>Node352&#45;&gt;Node350</title>
<path fill="none" stroke="midnightblue" d="M183.095,-469.376C200.709,-399.406 284.632,-110.5 469.5,-110.5 469.5,-110.5 469.5,-110.5 619,-110.5 890.776,-110.5 906.486,-600.497 906.337,-718.271"/>
<polygon fill="midnightblue" stroke="midnightblue" points="902.836,-718.458 906.281,-728.477 909.836,-718.496 902.836,-718.458"/>
</g>
<!-- Node353&#45;&gt;Node349 -->
<g id="edge8" class="edge"><title>Node353&#45;&gt;Node349</title>
<path fill="none" stroke="midnightblue" d="M205.334,-910.635C221.508,-920.007 242.844,-932.181 262,-942.5 268.185,-945.832 274.782,-949.284 281.24,-952.608"/>
<polygon fill="midnightblue" stroke="midnightblue" points="280.041,-955.926 290.539,-957.358 283.225,-949.692 280.041,-955.926"/>
</g>
<!-- Node353&#45;&gt;Node350 -->
<g id="edge10" class="edge"><title>Node353&#45;&gt;Node350</title>
<path fill="none" stroke="midnightblue" d="M226.026,-904.084C283.153,-913.862 383.104,-928.5 469.5,-928.5 469.5,-928.5 469.5,-928.5 619,-928.5 717.296,-928.5 745.11,-904.138 824,-845.5 852.849,-824.057 877.358,-790.163 891.873,-767.396"/>
<polygon fill="midnightblue" stroke="midnightblue" points="894.983,-769.022 897.289,-758.681 889.038,-765.327 894.983,-769.022"/>
</g>
<!-- Node354 -->
<g id="node7" class="node"><title>Node354</title>
<g id="a_node7"><a xlink:href="../../d9/d06/namespacemom__diag__mediator.html#a27fa63c9ff62b660bf457adbb8645bdf" target="_top" xlink:title="mom_diag_mediator::\lis_u_axes">
<polygon fill="white" stroke="black" points="274.5,-869.5 274.5,-899.5 369.5,-899.5 369.5,-869.5 274.5,-869.5"/>
<text text-anchor="start" x="282.5" y="-887.5" font-family="Helvetica,sans-Serif" font-size="10.00">mom_diag_mediator::</text>
<text text-anchor="middle" x="322" y="-876.5" font-family="Helvetica,sans-Serif" font-size="10.00">is_u_axes</text>
</a>
</g>
</g>
<!-- Node353&#45;&gt;Node354 -->
<g id="edge9" class="edge"><title>Node353&#45;&gt;Node354</title>
<path fill="none" stroke="midnightblue" d="M226.225,-891.868C238.42,-890.92 251.697,-889.888 264.347,-888.904"/>
<polygon fill="midnightblue" stroke="midnightblue" points="264.626,-892.393 274.325,-888.128 264.083,-885.414 264.626,-892.393"/>
</g>
<!-- Node355 -->
<g id="node8" class="node"><title>Node355</title>
<g id="a_node8"><a xlink:href="../../d6/d75/namespacemom__remapping.html#a6d1533ffa647f3305aba055e2685b095" target="_top" xlink:title="Remaps column of values u0 on grid h0 to grid h1 assuming the top edge is aligned. ">
<polygon fill="white" stroke="black" points="262,-771.5 262,-801.5 382,-801.5 382,-771.5 262,-771.5"/>
<text text-anchor="start" x="270" y="-789.5" font-family="Helvetica,sans-Serif" font-size="10.00">mom_remapping::remapping</text>
<text text-anchor="middle" x="322" y="-778.5" font-family="Helvetica,sans-Serif" font-size="10.00">_core_h</text>
</a>
</g>
</g>
<!-- Node353&#45;&gt;Node355 -->
<g id="edge11" class="edge"><title>Node353&#45;&gt;Node355</title>
<path fill="none" stroke="midnightblue" d="M190.846,-880.439C205.513,-861.849 232.674,-830.277 262,-810.5 264.243,-808.987 266.597,-807.544 269.019,-806.172"/>
<polygon fill="midnightblue" stroke="midnightblue" points="270.746,-809.219 278.015,-801.511 267.526,-803.003 270.746,-809.219"/>
</g>
<!-- Node380 -->
<g id="node33" class="node"><title>Node380</title>
<g id="a_node33"><a xlink:href="../../d9/d06/namespacemom__diag__mediator.html#a9a30d653d812713d6fcff94f6f1fc3e6" target="_top" xlink:title="mom_diag_mediator::\lis_v_axes">
<polygon fill="white" stroke="black" points="274.5,-820.5 274.5,-850.5 369.5,-850.5 369.5,-820.5 274.5,-820.5"/>
<text text-anchor="start" x="282.5" y="-838.5" font-family="Helvetica,sans-Serif" font-size="10.00">mom_diag_mediator::</text>
<text text-anchor="middle" x="322" y="-827.5" font-family="Helvetica,sans-Serif" font-size="10.00">is_v_axes</text>
</a>
</g>
</g>
<!-- Node353&#45;&gt;Node380 -->
<g id="edge55" class="edge"><title>Node353&#45;&gt;Node380</title>
<path fill="none" stroke="midnightblue" d="M213.535,-880.419C228.382,-873.9 246.016,-866.237 262,-859.5 265.898,-857.857 269.948,-856.169 274.018,-854.487"/>
<polygon fill="midnightblue" stroke="midnightblue" points="275.569,-857.633 283.488,-850.594 272.908,-851.159 275.569,-857.633"/>
</g>
<!-- Node355&#45;&gt;Node350 -->
<g id="edge54" class="edge"><title>Node355&#45;&gt;Node350</title>
<path fill="none" stroke="midnightblue" d="M362.38,-801.611C369.001,-804.409 375.749,-807.425 382,-810.5 398.621,-818.677 400.931,-824.304 418,-831.5 525.267,-876.72 564.302,-899.658 677,-870.5 756.508,-849.929 837.838,-795.149 878.826,-764.684"/>
<polygon fill="midnightblue" stroke="midnightblue" points="881.06,-767.383 886.945,-758.573 876.85,-761.79 881.06,-767.383"/>
</g>
<!-- Node356 -->
<g id="node9" class="node"><title>Node356</title>
<g id="a_node9"><a xlink:href="../../d6/d75/namespacemom__remapping.html#a07d7276310f329f56560a1290bcb8b0a" target="_top" xlink:title="Creates polynomial reconstructions of u0 on the source grid h0. ">
<polygon fill="white" stroke="black" points="421.5,-384.5 421.5,-414.5 519.5,-414.5 519.5,-384.5 421.5,-384.5"/>
<text text-anchor="start" x="429.5" y="-402.5" font-family="Helvetica,sans-Serif" font-size="10.00">mom_remapping::build</text>
<text text-anchor="middle" x="470.5" y="-391.5" font-family="Helvetica,sans-Serif" font-size="10.00">_reconstructions_1d</text>
</a>
</g>
</g>
<!-- Node355&#45;&gt;Node356 -->
<g id="edge12" class="edge"><title>Node355&#45;&gt;Node356</title>
<path fill="none" stroke="midnightblue" d="M328.743,-771.329C351.08,-712.323 432.303,-497.761 460.097,-424.339"/>
<polygon fill="midnightblue" stroke="midnightblue" points="463.53,-425.157 463.797,-414.566 456.983,-422.679 463.53,-425.157"/>
</g>
<!-- Node375 -->
<g id="node28" class="node"><title>Node375</title>
<g id="a_node28"><a xlink:href="../../d6/d75/namespacemom__remapping.html#a62666b08a892ba9e9ab5a4731a07b942" target="_top" xlink:title="Checks that edge values and reconstructions satisfy bounds. ">
<polygon fill="white" stroke="black" points="419.5,-676.5 419.5,-706.5 521.5,-706.5 521.5,-676.5 419.5,-676.5"/>
<text text-anchor="start" x="427.5" y="-694.5" font-family="Helvetica,sans-Serif" font-size="10.00">mom_remapping::check</text>
<text text-anchor="middle" x="470.5" y="-683.5" font-family="Helvetica,sans-Serif" font-size="10.00">_reconstructions_1d</text>
</a>
</g>
</g>
<!-- Node355&#45;&gt;Node375 -->
<g id="edge44" class="edge"><title>Node355&#45;&gt;Node375</title>
<path fill="none" stroke="midnightblue" d="M346.213,-771.447C370.821,-755.49 409.859,-730.175 437.404,-712.313"/>
<polygon fill="midnightblue" stroke="midnightblue" points="439.424,-715.175 445.91,-706.797 435.615,-709.301 439.424,-715.175"/>
</g>
<!-- Node376 -->
<g id="node29" class="node"><title>Node376</title>
<g id="a_node29"><a xlink:href="../../d6/d75/namespacemom__remapping.html#aac27eb299cd36293b458a51b60ac771f" target="_top" xlink:title="Remaps column of n0 values u0 on grid h0 to grid h1 with n1 cells by calculating the n0+n1+1 sub&#45;inte...">
<polygon fill="white" stroke="black" points="418,-738.5 418,-768.5 523,-768.5 523,-738.5 418,-738.5"/>
<text text-anchor="start" x="426" y="-756.5" font-family="Helvetica,sans-Serif" font-size="10.00">mom_remapping::remap</text>
<text text-anchor="middle" x="470.5" y="-745.5" font-family="Helvetica,sans-Serif" font-size="10.00">_via_sub_cells</text>
</a>
</g>
</g>
<!-- Node355&#45;&gt;Node376 -->
<g id="edge46" class="edge"><title>Node355&#45;&gt;Node376</title>
<path fill="none" stroke="midnightblue" d="M382.165,-773.173C390.612,-771.27 399.32,-769.309 407.814,-767.395"/>
<polygon fill="midnightblue" stroke="midnightblue" points="408.673,-770.789 417.66,-765.177 407.135,-763.961 408.673,-770.789"/>
</g>
<!-- Node378 -->
<g id="node31" class="node"><title>Node378</title>
<g id="a_node31"><a xlink:href="../../d6/d75/namespacemom__remapping.html#afe0efe65edb680f96fc5efe3d29a9217" target="_top" xlink:title="Measure totals and bounds on source grid. ">
<polygon fill="white" stroke="black" points="561.5,-831.5 561.5,-861.5 674.5,-861.5 674.5,-831.5 561.5,-831.5"/>
<text text-anchor="start" x="569.5" y="-849.5" font-family="Helvetica,sans-Serif" font-size="10.00">mom_remapping::measure</text>
<text text-anchor="middle" x="618" y="-838.5" font-family="Helvetica,sans-Serif" font-size="10.00">_input_bounds</text>
</a>
</g>
</g>
<!-- Node355&#45;&gt;Node378 -->
<g id="edge52" class="edge"><title>Node355&#45;&gt;Node378</title>
<path fill="none" stroke="midnightblue" d="M382.021,-799.013C393.928,-801.513 406.361,-804.105 418,-806.5 462.359,-815.627 512.332,-825.671 551.103,-833.411"/>
<polygon fill="midnightblue" stroke="midnightblue" points="550.725,-836.905 561.217,-835.429 552.095,-830.04 550.725,-836.905"/>
</g>
<!-- Node379 -->
<g id="node32" class="node"><title>Node379</title>
<g id="a_node32"><a xlink:href="../../d6/d75/namespacemom__remapping.html#a5453aeefe69feaff159b67f3a4bd2366" target="_top" xlink:title="Measure totals and bounds on destination grid. ">
<polygon fill="white" stroke="black" points="561.5,-782.5 561.5,-812.5 674.5,-812.5 674.5,-782.5 561.5,-782.5"/>
<text text-anchor="start" x="569.5" y="-800.5" font-family="Helvetica,sans-Serif" font-size="10.00">mom_remapping::measure</text>
<text text-anchor="middle" x="618" y="-789.5" font-family="Helvetica,sans-Serif" font-size="10.00">_output_bounds</text>
</a>
</g>
</g>
<!-- Node355&#45;&gt;Node379 -->
<g id="edge53" class="edge"><title>Node355&#45;&gt;Node379</title>
<path fill="none" stroke="midnightblue" d="M382.142,-788.713C431.086,-790.544 500.556,-793.143 551.241,-795.04"/>
<polygon fill="midnightblue" stroke="midnightblue" points="551.312,-798.545 561.436,-795.421 551.574,-791.55 551.312,-798.545"/>
</g>
<!-- Node356&#45;&gt;Node350 -->
<g id="edge43" class="edge"><title>Node356&#45;&gt;Node350</title>
<path fill="none" stroke="midnightblue" d="M472.739,-414.568C476.883,-454.669 493.936,-564.669 559,-619.5 651.051,-697.074 715.621,-623.107 824,-675.5 847.112,-686.673 869.268,-705.721 884.71,-720.819"/>
<polygon fill="midnightblue" stroke="midnightblue" points="882.609,-723.67 892.143,-728.292 887.572,-718.734 882.609,-723.67"/>
</g>
<!-- Node357 -->
<g id="node10" class="node"><title>Node357</title>
<g id="a_node10"><a xlink:href="../../d5/d6c/namespacepcm__functions.html#a273c33619766b17e1bea2f9bbc1d5e1b" target="_top" xlink:title="pcm_functions::pcm\l_reconstruction">
<polygon fill="white" stroke="black" points="574.5,-335.5 574.5,-365.5 661.5,-365.5 661.5,-335.5 574.5,-335.5"/>
<text text-anchor="start" x="582.5" y="-353.5" font-family="Helvetica,sans-Serif" font-size="10.00">pcm_functions::pcm</text>
<text text-anchor="middle" x="618" y="-342.5" font-family="Helvetica,sans-Serif" font-size="10.00">_reconstruction</text>
</a>
</g>
</g>
<!-- Node356&#45;&gt;Node357 -->
<g id="edge13" class="edge"><title>Node356&#45;&gt;Node357</title>
<path fill="none" stroke="midnightblue" d="M516.342,-384.399C531.554,-379.275 548.686,-373.506 564.444,-368.199"/>
<polygon fill="midnightblue" stroke="midnightblue" points="565.689,-371.473 574.049,-364.964 563.455,-364.839 565.689,-371.473"/>
</g>
<!-- Node358 -->
<g id="node11" class="node"><title>Node358</title>
<g id="a_node11"><a xlink:href="../../d5/dc0/namespaceplm__functions.html#abf6acfcb1bef51f0c1f8682de53782c4" target="_top" xlink:title="plm_functions::plm\l_reconstruction">
<polygon fill="white" stroke="black" points="576.5,-286.5 576.5,-316.5 659.5,-316.5 659.5,-286.5 576.5,-286.5"/>
<text text-anchor="start" x="584.5" y="-304.5" font-family="Helvetica,sans-Serif" font-size="10.00">plm_functions::plm</text>
<text text-anchor="middle" x="618" y="-293.5" font-family="Helvetica,sans-Serif" font-size="10.00">_reconstruction</text>
</a>
</g>
</g>
<!-- Node356&#45;&gt;Node358 -->
<g id="edge14" class="edge"><title>Node356&#45;&gt;Node358</title>
<path fill="none" stroke="midnightblue" d="M486.484,-384.275C503.062,-368.071 531.136,-342.475 559,-325.5 561.615,-323.907 564.354,-322.375 567.159,-320.909"/>
<polygon fill="midnightblue" stroke="midnightblue" points="568.819,-323.994 576.269,-316.461 565.748,-317.703 568.819,-323.994"/>
</g>
<!-- Node359 -->
<g id="node12" class="node"><title>Node359</title>
<g id="a_node12"><a xlink:href="../../d5/dc0/namespaceplm__functions.html#a66dd52e70d72fb5830f9c4fb16efb2e8" target="_top" xlink:title="plm_functions::plm\l_boundary_extrapolation">
<polygon fill="white" stroke="black" points="565.5,-237.5 565.5,-267.5 670.5,-267.5 670.5,-237.5 565.5,-237.5"/>
<text text-anchor="start" x="573.5" y="-255.5" font-family="Helvetica,sans-Serif" font-size="10.00">plm_functions::plm</text>
<text text-anchor="middle" x="618" y="-244.5" font-family="Helvetica,sans-Serif" font-size="10.00">_boundary_extrapolation</text>
</a>
</g>
</g>
<!-- Node356&#45;&gt;Node359 -->
<g id="edge15" class="edge"><title>Node356&#45;&gt;Node359</title>
<path fill="none" stroke="midnightblue" d="M478.788,-384.163C491.645,-358.585 520.662,-307.024 559,-276.5 560.599,-275.227 562.274,-274.012 564.007,-272.853"/>
<polygon fill="midnightblue" stroke="midnightblue" points="566.218,-275.613 573.054,-267.518 562.662,-269.583 566.218,-275.613"/>
</g>
<!-- Node360 -->
<g id="node13" class="node"><title>Node360</title>
<g id="a_node13"><a xlink:href="../../d1/de6/namespaceppm__functions.html#a97e2144c7499aacd90858788f1312432" target="_top" xlink:title="Builds quadratic polynomials coefficients from cell mean and edge values. ">
<polygon fill="white" stroke="black" points="573.5,-139.5 573.5,-169.5 662.5,-169.5 662.5,-139.5 573.5,-139.5"/>
<text text-anchor="start" x="581.5" y="-157.5" font-family="Helvetica,sans-Serif" font-size="10.00">ppm_functions::ppm</text>
<text text-anchor="middle" x="618" y="-146.5" font-family="Helvetica,sans-Serif" font-size="10.00">_reconstruction</text>
</a>
</g>
</g>
<!-- Node356&#45;&gt;Node360 -->
<g id="edge16" class="edge"><title>Node356&#45;&gt;Node360</title>
<path fill="none" stroke="midnightblue" d="M473.384,-384.433C479.042,-345.262 499.354,-239.069 559,-178.5 560.806,-176.666 562.773,-174.965 564.856,-173.39"/>
<polygon fill="midnightblue" stroke="midnightblue" points="566.85,-176.269 573.366,-167.915 563.062,-170.383 566.85,-176.269"/>
</g>
<!-- Node364 -->
<g id="node17" class="node"><title>Node364</title>
<g id="a_node17"><a xlink:href="../../d1/de6/namespaceppm__functions.html#aaf88d77ece3a30843c730fd2d57c517f" target="_top" xlink:title="ppm_functions::ppm\l_boundary_extrapolation">
<polygon fill="white" stroke="black" points="565.5,-188.5 565.5,-218.5 670.5,-218.5 670.5,-188.5 565.5,-188.5"/>
<text text-anchor="start" x="573.5" y="-206.5" font-family="Helvetica,sans-Serif" font-size="10.00">ppm_functions::ppm</text>
<text text-anchor="middle" x="618" y="-195.5" font-family="Helvetica,sans-Serif" font-size="10.00">_boundary_extrapolation</text>
</a>
</g>
</g>
<!-- Node356&#45;&gt;Node364 -->
<g id="edge20" class="edge"><title>Node356&#45;&gt;Node364</title>
<path fill="none" stroke="midnightblue" d="M475.301,-384.448C484.328,-351.59 510.048,-272.763 559,-227.5 560.265,-226.33 561.595,-225.213 562.978,-224.147"/>
<polygon fill="midnightblue" stroke="midnightblue" points="564.972,-227.024 571.375,-218.584 561.106,-221.189 564.972,-227.024"/>
</g>
<!-- Node365 -->
<g id="node18" class="node"><title>Node365</title>
<g id="a_node18"><a xlink:href="../../df/d50/namespaceregrid__edge__values.html#a2c2460b31b6de501eed3cb7db07a4be5" target="_top" xlink:title="regrid_edge_values\l::edge_values_implicit_h4">
<polygon fill="white" stroke="black" points="564.5,-384.5 564.5,-414.5 671.5,-414.5 671.5,-384.5 564.5,-384.5"/>
<text text-anchor="start" x="572.5" y="-402.5" font-family="Helvetica,sans-Serif" font-size="10.00">regrid_edge_values</text>
<text text-anchor="middle" x="618" y="-391.5" font-family="Helvetica,sans-Serif" font-size="10.00">::edge_values_implicit_h4</text>
</a>
</g>
</g>
<!-- Node356&#45;&gt;Node365 -->
<g id="edge21" class="edge"><title>Node356&#45;&gt;Node365</title>
<path fill="none" stroke="midnightblue" d="M519.545,-399.5C530.685,-399.5 542.702,-399.5 554.365,-399.5"/>
<polygon fill="midnightblue" stroke="midnightblue" points="554.492,-403 564.492,-399.5 554.492,-396 554.492,-403"/>
</g>
<!-- Node369 -->
<g id="node22" class="node"><title>Node369</title>
<g id="a_node22"><a xlink:href="../../da/d9a/namespaceregrid__edge__slopes.html#a378dcb603968664e58d65e8ed892ec69" target="_top" xlink:title="regrid_edge_slopes\l::edge_slopes_implicit_h3">
<polygon fill="white" stroke="black" points="564.5,-580.5 564.5,-610.5 671.5,-610.5 671.5,-580.5 564.5,-580.5"/>
<text text-anchor="start" x="572.5" y="-598.5" font-family="Helvetica,sans-Serif" font-size="10.00">regrid_edge_slopes</text>
<text text-anchor="middle" x="618" y="-587.5" font-family="Helvetica,sans-Serif" font-size="10.00">::edge_slopes_implicit_h3</text>
</a>
</g>
</g>
<!-- Node356&#45;&gt;Node369 -->
<g id="edge26" class="edge"><title>Node356&#45;&gt;Node369</title>
<path fill="none" stroke="midnightblue" d="M475.516,-414.906C484.814,-447.76 510.795,-525.376 559,-570.5 560.659,-572.053 562.429,-573.518 564.281,-574.899"/>
<polygon fill="midnightblue" stroke="midnightblue" points="562.544,-577.944 572.842,-580.433 566.344,-572.065 562.544,-577.944"/>
</g>
<!-- Node370 -->
<g id="node23" class="node"><title>Node370</title>
<g id="a_node23"><a xlink:href="../../dc/d94/namespacepqm__functions.html#ada7e1a8d9d70b5b78b5e2dfddb5ffa43" target="_top" xlink:title="pqm_functions::pqm\l_reconstruction">
<polygon fill="white" stroke="black" points="573.5,-26.5 573.5,-56.5 662.5,-56.5 662.5,-26.5 573.5,-26.5"/>
<text text-anchor="start" x="581.5" y="-44.5" font-family="Helvetica,sans-Serif" font-size="10.00">pqm_functions::pqm</text>
<text text-anchor="middle" x="618" y="-33.5" font-family="Helvetica,sans-Serif" font-size="10.00">_reconstruction</text>
</a>
</g>
</g>
<!-- Node356&#45;&gt;Node370 -->
<g id="edge30" class="edge"><title>Node356&#45;&gt;Node370</title>
<path fill="none" stroke="midnightblue" d="M474.892,-384.326C484.586,-342.383 514.598,-221.875 559,-129.5 570.138,-106.328 586.522,-82.0829 599.038,-64.9229"/>
<polygon fill="midnightblue" stroke="midnightblue" points="602.036,-66.7554 605.182,-56.6383 596.414,-62.5855 602.036,-66.7554"/>
</g>
<!-- Node372 -->
<g id="node25" class="node"><title>Node372</title>
<g id="a_node25"><a xlink:href="../../dc/d94/namespacepqm__functions.html#ae2c3bd1b82cddbe1bbb0e93e83d93e48" target="_top" xlink:title="pqm_functions::pqm\l_boundary_extrapolation_v1">
<polygon fill="white" stroke="black" points="559,-482.5 559,-512.5 677,-512.5 677,-482.5 559,-482.5"/>
<text text-anchor="start" x="567" y="-500.5" font-family="Helvetica,sans-Serif" font-size="10.00">pqm_functions::pqm</text>
<text text-anchor="middle" x="618" y="-489.5" font-family="Helvetica,sans-Serif" font-size="10.00">_boundary_extrapolation_v1</text>
</a>
</g>
</g>
<!-- Node356&#45;&gt;Node372 -->
<g id="edge34" class="edge"><title>Node356&#45;&gt;Node372</title>
<path fill="none" stroke="midnightblue" d="M486.876,-414.717C503.566,-430.636 531.528,-455.614 559,-472.5 562.126,-474.422 565.427,-476.268 568.802,-478.026"/>
<polygon fill="midnightblue" stroke="midnightblue" points="567.325,-481.2 577.844,-482.465 570.409,-474.916 567.325,-481.2"/>
</g>
<!-- Node373 -->
<g id="node26" class="node"><title>Node373</title>
<g id="a_node26"><a xlink:href="../../df/d50/namespaceregrid__edge__values.html#a6c14843c556353d86f2efb4c7c74c9f5" target="_top" xlink:title="regrid_edge_values\l::edge_values_implicit_h6">
<polygon fill="white" stroke="black" points="564.5,-531.5 564.5,-561.5 671.5,-561.5 671.5,-531.5 564.5,-531.5"/>
<text text-anchor="start" x="572.5" y="-549.5" font-family="Helvetica,sans-Serif" font-size="10.00">regrid_edge_values</text>
<text text-anchor="middle" x="618" y="-538.5" font-family="Helvetica,sans-Serif" font-size="10.00">::edge_values_implicit_h6</text>
</a>
</g>
</g>
<!-- Node356&#45;&gt;Node373 -->
<g id="edge35" class="edge"><title>Node356&#45;&gt;Node373</title>
<path fill="none" stroke="midnightblue" d="M478.869,-414.65C491.844,-439.927 521.032,-490.936 559,-521.5 561.055,-523.155 563.237,-524.719 565.502,-526.195"/>
<polygon fill="midnightblue" stroke="midnightblue" points="564.164,-529.465 574.569,-531.46 567.679,-523.412 564.164,-529.465"/>
</g>
<!-- Node374 -->
<g id="node27" class="node"><title>Node374</title>
<g id="a_node27"><a xlink:href="../../da/d9a/namespaceregrid__edge__slopes.html#a32fc906bf14cfb859703b4a1a7c46a9c" target="_top" xlink:title="regrid_edge_slopes\l::edge_slopes_implicit_h5">
<polygon fill="white" stroke="black" points="564.5,-433.5 564.5,-463.5 671.5,-463.5 671.5,-433.5 564.5,-433.5"/>
<text text-anchor="start" x="572.5" y="-451.5" font-family="Helvetica,sans-Serif" font-size="10.00">regrid_edge_slopes</text>
<text text-anchor="middle" x="618" y="-440.5" font-family="Helvetica,sans-Serif" font-size="10.00">::edge_slopes_implicit_h5</text>
</a>
</g>
</g>
<!-- Node356&#45;&gt;Node374 -->
<g id="edge39" class="edge"><title>Node356&#45;&gt;Node374</title>
<path fill="none" stroke="midnightblue" d="M516.342,-414.601C530.931,-419.515 547.286,-425.022 562.502,-430.147"/>
<polygon fill="midnightblue" stroke="midnightblue" points="561.712,-433.574 572.306,-433.448 563.946,-426.94 561.712,-433.574"/>
</g>
<!-- Node361 -->
<g id="node14" class="node"><title>Node361</title>
<g id="a_node14"><a xlink:href="../../d1/de6/namespaceppm__functions.html#a89920c90b84f0b241c5a6d65fe2870b9" target="_top" xlink:title="Adjusts edge values using the standard PPM limiter (Colella &amp; Woodward, JCP 1984) after first checkin...">
<polygon fill="white" stroke="black" points="724,-51.5 724,-81.5 813,-81.5 813,-51.5 724,-51.5"/>
<text text-anchor="start" x="732" y="-69.5" font-family="Helvetica,sans-Serif" font-size="10.00">ppm_functions::ppm</text>
<text text-anchor="middle" x="768.5" y="-58.5" font-family="Helvetica,sans-Serif" font-size="10.00">_limiter_standard</text>
</a>
</g>
</g>
<!-- Node360&#45;&gt;Node361 -->
<g id="edge17" class="edge"><title>Node360&#45;&gt;Node361</title>
<path fill="none" stroke="midnightblue" d="M644.528,-139.372C668.965,-124.891 706.009,-102.939 733.053,-86.9131"/>
<polygon fill="midnightblue" stroke="midnightblue" points="734.989,-89.8339 741.808,-81.7248 731.421,-83.8119 734.989,-89.8339"/>
</g>
<!-- Node362 -->
<g id="node15" class="node"><title>Node362</title>
<g id="a_node15"><a xlink:href="../../df/d50/namespaceregrid__edge__values.html#aa204fe78ee22cae62f2b7f1bc76151a9" target="_top" xlink:title="regrid_edge_values\l::bound_edge_values">
<polygon fill="white" stroke="black" points="860.5,-0.5 860.5,-30.5 953.5,-30.5 953.5,-0.5 860.5,-0.5"/>
<text text-anchor="start" x="868.5" y="-18.5" font-family="Helvetica,sans-Serif" font-size="10.00">regrid_edge_values</text>
<text text-anchor="middle" x="907" y="-7.5" font-family="Helvetica,sans-Serif" font-size="10.00">::bound_edge_values</text>
</a>
</g>
</g>
<!-- Node361&#45;&gt;Node362 -->
<g id="edge18" class="edge"><title>Node361&#45;&gt;Node362</title>
<path fill="none" stroke="midnightblue" d="M809.716,-51.4742C824.166,-46.0752 840.646,-39.918 855.837,-34.2422"/>
<polygon fill="midnightblue" stroke="midnightblue" points="857.457,-37.3733 865.6,-30.5947 855.007,-30.8161 857.457,-37.3733"/>
</g>
<!-- Node363 -->
<g id="node16" class="node"><title>Node363</title>
<g id="a_node16"><a xlink:href="../../df/d50/namespaceregrid__edge__values.html#acbdacbbf7212e538bb52a9729fc949a7" target="_top" xlink:title="regrid_edge_values\l::check_discontinuous\l_edge_values">
<polygon fill="white" stroke="black" points="860,-49 860,-90 954,-90 954,-49 860,-49"/>
<text text-anchor="start" x="868" y="-78" font-family="Helvetica,sans-Serif" font-size="10.00">regrid_edge_values</text>
<text text-anchor="start" x="868" y="-67" font-family="Helvetica,sans-Serif" font-size="10.00">::check_discontinuous</text>
<text text-anchor="middle" x="907" y="-56" font-family="Helvetica,sans-Serif" font-size="10.00">_edge_values</text>
</a>
</g>
</g>
<!-- Node361&#45;&gt;Node363 -->
<g id="edge19" class="edge"><title>Node361&#45;&gt;Node363</title>
<path fill="none" stroke="midnightblue" d="M813.065,-67.4575C824.646,-67.712 837.324,-67.9906 849.488,-68.258"/>
<polygon fill="midnightblue" stroke="midnightblue" points="849.476,-71.7585 859.551,-68.4791 849.63,-64.7602 849.476,-71.7585"/>
</g>
<!-- Node366 -->
<g id="node19" class="node"><title>Node366</title>
<g id="a_node19"><a xlink:href="../../de/db3/namespaceregrid__solvers.html#a8130a338b59de62b00f68da4204568ad" target="_top" xlink:title="regrid_solvers::solve\l_linear_system">
<polygon fill="white" stroke="black" points="724,-482.5 724,-512.5 813,-512.5 813,-482.5 724,-482.5"/>
<text text-anchor="start" x="732" y="-500.5" font-family="Helvetica,sans-Serif" font-size="10.00">regrid_solvers::solve</text>
<text text-anchor="middle" x="768.5" y="-489.5" font-family="Helvetica,sans-Serif" font-size="10.00">_linear_system</text>
</a>
</g>
</g>
<!-- Node365&#45;&gt;Node366 -->
<g id="edge22" class="edge"><title>Node365&#45;&gt;Node366</title>
<path fill="none" stroke="midnightblue" d="M662.896,-414.582C667.886,-417.175 672.711,-420.139 677,-423.5 698.269,-440.17 692.049,-455.432 713,-472.5 715.013,-474.14 717.15,-475.697 719.37,-477.173"/>
<polygon fill="midnightblue" stroke="midnightblue" points="717.86,-480.347 728.242,-482.46 721.443,-474.334 717.86,-480.347"/>
</g>
<!-- Node367 -->
<g id="node20" class="node"><title>Node367</title>
<g id="a_node20"><a xlink:href="../../d8/d08/namespacepolynomial__functions.html#aed77465c5ca9937dab06fdb5f94eba39" target="_top" xlink:title="polynomial_functions\l::evaluation_polynomial">
<polygon fill="white" stroke="black" points="719,-531.5 719,-561.5 818,-561.5 818,-531.5 719,-531.5"/>
<text text-anchor="start" x="727" y="-549.5" font-family="Helvetica,sans-Serif" font-size="10.00">polynomial_functions</text>
<text text-anchor="middle" x="768.5" y="-538.5" font-family="Helvetica,sans-Serif" font-size="10.00">::evaluation_polynomial</text>
</a>
</g>
</g>
<!-- Node365&#45;&gt;Node367 -->
<g id="edge24" class="edge"><title>Node365&#45;&gt;Node367</title>
<path fill="none" stroke="midnightblue" d="M665.615,-414.502C669.785,-417.064 673.678,-420.042 677,-423.5 709.143,-456.965 681.494,-487.434 713,-521.5 714.215,-522.814 715.512,-524.063 716.876,-525.252"/>
<polygon fill="midnightblue" stroke="midnightblue" points="715.153,-528.329 725.29,-531.411 719.288,-522.681 715.153,-528.329"/>
</g>
<!-- Node368 -->
<g id="node21" class="node"><title>Node368</title>
<g id="a_node21"><a xlink:href="../../de/db3/namespaceregrid__solvers.html#a0d5c3cff8f31429b0a2c6d267e8b345d" target="_top" xlink:title="regrid_solvers::solve\l_tridiagonal_system">
<polygon fill="white" stroke="black" points="724,-433.5 724,-463.5 813,-463.5 813,-433.5 724,-433.5"/>
<text text-anchor="start" x="732" y="-451.5" font-family="Helvetica,sans-Serif" font-size="10.00">regrid_solvers::solve</text>
<text text-anchor="middle" x="768.5" y="-440.5" font-family="Helvetica,sans-Serif" font-size="10.00">_tridiagonal_system</text>
</a>
</g>
</g>
<!-- Node365&#45;&gt;Node368 -->
<g id="edge25" class="edge"><title>Node365&#45;&gt;Node368</title>
<path fill="none" stroke="midnightblue" d="M664.767,-414.601C680.363,-419.748 697.936,-425.546 714.08,-430.873"/>
<polygon fill="midnightblue" stroke="midnightblue" points="713.323,-434.309 723.916,-434.119 715.517,-427.662 713.323,-434.309"/>
</g>
<!-- Node366&#45;&gt;Node350 -->
<g id="edge23" class="edge"><title>Node366&#45;&gt;Node350</title>
<path fill="none" stroke="midnightblue" d="M813.043,-512.63C817.061,-515.173 820.812,-518.112 824,-521.5 877.578,-578.45 896.813,-673.412 903.157,-718.398"/>
<polygon fill="midnightblue" stroke="midnightblue" points="899.705,-718.997 904.475,-728.457 906.646,-718.087 899.705,-718.997"/>
</g>
<!-- Node369&#45;&gt;Node366 -->
<g id="edge27" class="edge"><title>Node369&#45;&gt;Node366</title>
<path fill="none" stroke="midnightblue" d="M661.391,-580.41C666.912,-577.55 672.281,-574.255 677,-570.5 698.147,-553.675 691.919,-538.408 713,-521.5 714.573,-520.239 716.222,-519.03 717.927,-517.874"/>
<polygon fill="midnightblue" stroke="midnightblue" points="720.057,-520.677 726.822,-512.524 716.448,-514.679 720.057,-520.677"/>
</g>
<!-- Node369&#45;&gt;Node367 -->
<g id="edge28" class="edge"><title>Node369&#45;&gt;Node367</title>
<path fill="none" stroke="midnightblue" d="M664.767,-580.399C679.799,-575.438 696.667,-569.873 712.321,-564.707"/>
<polygon fill="midnightblue" stroke="midnightblue" points="713.485,-568.009 721.885,-561.552 711.291,-561.361 713.485,-568.009"/>
</g>
<!-- Node369&#45;&gt;Node368 -->
<g id="edge29" class="edge"><title>Node369&#45;&gt;Node368</title>
<path fill="none" stroke="midnightblue" d="M664.482,-580.377C669.082,-577.59 673.382,-574.322 677,-570.5 708.897,-536.801 681.235,-506.324 713,-472.5 713.896,-471.546 714.836,-470.628 715.815,-469.744"/>
<polygon fill="midnightblue" stroke="midnightblue" points="718.063,-472.433 723.951,-463.624 713.855,-466.839 718.063,-472.433"/>
</g>
<!-- Node371 -->
<g id="node24" class="node"><title>Node371</title>
<g id="a_node24"><a xlink:href="../../dc/d94/namespacepqm__functions.html#a0ce0d64922453de1312adec7b8746544" target="_top" xlink:title="pqm_functions::pqm\l_limiter">
<polygon fill="white" stroke="black" points="724,-2.5 724,-32.5 813,-32.5 813,-2.5 724,-2.5"/>
<text text-anchor="start" x="732" y="-20.5" font-family="Helvetica,sans-Serif" font-size="10.00">pqm_functions::pqm</text>
<text text-anchor="middle" x="768.5" y="-9.5" font-family="Helvetica,sans-Serif" font-size="10.00">_limiter</text>
</a>
</g>
</g>
<!-- Node370&#45;&gt;Node371 -->
<g id="edge31" class="edge"><title>Node370&#45;&gt;Node371</title>
<path fill="none" stroke="midnightblue" d="M662.752,-34.429C678.693,-31.8527 696.904,-28.9094 713.622,-26.2076"/>
<polygon fill="midnightblue" stroke="midnightblue" points="714.491,-29.6126 723.805,-24.5619 713.374,-22.7023 714.491,-29.6126"/>
</g>
<!-- Node371&#45;&gt;Node362 -->
<g id="edge32" class="edge"><title>Node371&#45;&gt;Node362</title>
<path fill="none" stroke="midnightblue" d="M813.065,-16.8617C824.89,-16.6884 837.858,-16.4984 850.256,-16.3168"/>
<polygon fill="midnightblue" stroke="midnightblue" points="850.551,-19.8129 860.499,-16.1667 850.448,-12.8137 850.551,-19.8129"/>
</g>
<!-- Node371&#45;&gt;Node363 -->
<g id="edge33" class="edge"><title>Node371&#45;&gt;Node363</title>
<path fill="none" stroke="midnightblue" d="M808.981,-32.5406C821.904,-37.4635 836.511,-43.0281 850.395,-48.3172"/>
<polygon fill="midnightblue" stroke="midnightblue" points="849.271,-51.6342 859.862,-51.9235 851.763,-45.0928 849.271,-51.6342"/>
</g>
<!-- Node373&#45;&gt;Node366 -->
<g id="edge36" class="edge"><title>Node373&#45;&gt;Node366</title>
<path fill="none" stroke="midnightblue" d="M664.767,-531.399C680.363,-526.252 697.936,-520.454 714.08,-515.127"/>
<polygon fill="midnightblue" stroke="midnightblue" points="715.517,-518.338 723.916,-511.881 713.323,-511.691 715.517,-518.338"/>
</g>
<!-- Node373&#45;&gt;Node367 -->
<g id="edge37" class="edge"><title>Node373&#45;&gt;Node367</title>
<path fill="none" stroke="midnightblue" d="M671.774,-546.5C683.757,-546.5 696.558,-546.5 708.772,-546.5"/>
<polygon fill="midnightblue" stroke="midnightblue" points="708.863,-550 718.863,-546.5 708.863,-543 708.863,-550"/>
</g>
<!-- Node373&#45;&gt;Node368 -->
<g id="edge38" class="edge"><title>Node373&#45;&gt;Node368</title>
<path fill="none" stroke="midnightblue" d="M661.391,-531.41C666.912,-528.55 672.281,-525.255 677,-521.5 698.147,-504.675 691.919,-489.408 713,-472.5 714.573,-471.239 716.222,-470.03 717.927,-468.874"/>
<polygon fill="midnightblue" stroke="midnightblue" points="720.057,-471.677 726.822,-463.524 716.448,-465.679 720.057,-471.677"/>
</g>
<!-- Node374&#45;&gt;Node366 -->
<g id="edge40" class="edge"><title>Node374&#45;&gt;Node366</title>
<path fill="none" stroke="midnightblue" d="M664.767,-463.601C680.363,-468.748 697.936,-474.546 714.08,-479.873"/>
<polygon fill="midnightblue" stroke="midnightblue" points="713.323,-483.309 723.916,-483.119 715.517,-476.662 713.323,-483.309"/>
</g>
<!-- Node374&#45;&gt;Node367 -->
<g id="edge41" class="edge"><title>Node374&#45;&gt;Node367</title>
<path fill="none" stroke="midnightblue" d="M662.896,-463.582C667.886,-466.175 672.711,-469.139 677,-472.5 698.269,-489.17 692.049,-504.432 713,-521.5 715.013,-523.14 717.15,-524.697 719.37,-526.173"/>
<polygon fill="midnightblue" stroke="midnightblue" points="717.86,-529.347 728.242,-531.46 721.443,-523.334 717.86,-529.347"/>
</g>
<!-- Node374&#45;&gt;Node368 -->
<g id="edge42" class="edge"><title>Node374&#45;&gt;Node368</title>
<path fill="none" stroke="midnightblue" d="M671.774,-448.5C685.326,-448.5 699.922,-448.5 713.534,-448.5"/>
<polygon fill="midnightblue" stroke="midnightblue" points="713.717,-452 723.717,-448.5 713.717,-445 713.717,-452"/>
</g>
<!-- Node375&#45;&gt;Node350 -->
<g id="edge45" class="edge"><title>Node375&#45;&gt;Node350</title>
<path fill="none" stroke="midnightblue" d="M521.638,-684.459C591.004,-676.449 719.516,-667.884 824,-696.5 843.315,-701.79 862.851,-712.718 878.007,-722.707"/>
<polygon fill="midnightblue" stroke="midnightblue" points="876.157,-725.682 886.39,-728.429 880.104,-719.901 876.157,-725.682"/>
</g>
<!-- Node376&#45;&gt;Node350 -->
<g id="edge49" class="edge"><title>Node376&#45;&gt;Node350</title>
<path fill="none" stroke="midnightblue" d="M523.168,-752.355C591.864,-750.826 717.059,-748.018 824,-745.5 832.493,-745.3 841.48,-745.085 850.271,-744.872"/>
<polygon fill="midnightblue" stroke="midnightblue" points="850.546,-748.366 860.458,-744.624 850.376,-741.368 850.546,-748.366"/>
</g>
<!-- Node377 -->
<g id="node30" class="node"><title>Node377</title>
<g id="a_node30"><a xlink:href="../../d6/d75/namespacemom__remapping.html#ac97371127053406c84be732a19eb6f9d" target="_top" xlink:title="Returns the average value of a reconstruction within a single source cell, i0, between the non&#45;dimens...">
<polygon fill="white" stroke="black" points="713,-706.5 713,-736.5 824,-736.5 824,-706.5 713,-706.5"/>
<text text-anchor="start" x="721" y="-724.5" font-family="Helvetica,sans-Serif" font-size="10.00">mom_remapping::average</text>
<text text-anchor="middle" x="768.5" y="-713.5" font-family="Helvetica,sans-Serif" font-size="10.00">_value_ppoly</text>
</a>
</g>
</g>
<!-- Node376&#45;&gt;Node377 -->
<g id="edge47" class="edge"><title>Node376&#45;&gt;Node377</title>
<path fill="none" stroke="midnightblue" d="M523.232,-744.586C534.969,-742.741 547.395,-740.927 559,-739.5 607.037,-733.591 661.537,-728.958 702.767,-725.873"/>
<polygon fill="midnightblue" stroke="midnightblue" points="703.235,-729.348 712.951,-725.122 702.72,-722.367 703.235,-729.348"/>
</g>
<!-- Node376&#45;&gt;Node378 -->
<g id="edge50" class="edge"><title>Node376&#45;&gt;Node378</title>
<path fill="none" stroke="midnightblue" d="M488.325,-768.686C505.29,-783.473 532.666,-805.935 559,-821.5 562.209,-823.397 565.589,-825.231 569.038,-826.985"/>
<polygon fill="midnightblue" stroke="midnightblue" points="567.73,-830.24 578.257,-831.432 570.771,-823.935 567.73,-830.24"/>
</g>
<!-- Node376&#45;&gt;Node379 -->
<g id="edge51" class="edge"><title>Node376&#45;&gt;Node379</title>
<path fill="none" stroke="midnightblue" d="M521.166,-768.519C532.743,-772.02 545.19,-775.784 557.156,-779.403"/>
<polygon fill="midnightblue" stroke="midnightblue" points="556.479,-782.855 567.064,-782.399 558.505,-776.154 556.479,-782.855"/>
</g>
<!-- Node377&#45;&gt;Node350 -->
<g id="edge48" class="edge"><title>Node377&#45;&gt;Node350</title>
<path fill="none" stroke="midnightblue" d="M824.233,-730.321C832.87,-731.713 841.807,-733.154 850.461,-734.549"/>
<polygon fill="midnightblue" stroke="midnightblue" points="850.026,-738.024 860.456,-736.16 851.14,-731.113 850.026,-738.024"/>
</g>
</g>
</svg>
        <g id="navigator" transform="translate(0 0)" fill="#404254">
                <rect fill="#f2f5e9" fill-opacity="0.5" stroke="#606060" stroke-width=".5" x="0" y="0" width="60" height="60"/>
                <use id="zoomplus" xlink:href="#zoomPlus" x="17" y="9" onmousedown="handleZoom(evt,'in')"/>
                <use id="zoomminus" xlink:href="#zoomMin" x="42" y="9" onmousedown="handleZoom(evt,'out')"/>
                <use id="reset" xlink:href="#resetDef" x="30" y="36" onmousedown="handleReset()"/>
                <g id="arrowUp" xlink:href="#dirArrow" transform="translate(30 24)" onmousedown="handlePan(0,-1)">
                  <use xlink:href="#rim" fill="#404040">
                        <set attributeName="fill" to="#808080" begin="arrowUp.mouseover" end="arrowUp.mouseout"/>
                  </use>
                  <path fill="none" stroke="white" stroke-width="1.5" d="M0,-3.0v7 M-2.5,-0.5L0,-3.0L2.5,-0.5"/>
                </g>
                <g id="arrowRight" xlink:href="#dirArrow" transform="rotate(90) translate(36 -43)" onmousedown="handlePan(1,0)">
                  <use xlink:href="#rim" fill="#404040">
                        <set attributeName="fill" to="#808080" begin="arrowRight.mouseover" end="arrowRight.mouseout"/>
                  </use>
                  <path fill="none" stroke="white" stroke-width="1.5" d="M0,-3.0v7 M-2.5,-0.5L0,-3.0L2.5,-0.5"/>
                </g>
                <g id="arrowDown" xlink:href="#dirArrow" transform="rotate(180) translate(-30 -48)" onmousedown="handlePan(0,1)">
                  <use xlink:href="#rim" fill="#404040">
                        <set attributeName="fill" to="#808080" begin="arrowDown.mouseover" end="arrowDown.mouseout"/>
                  </use>
                  <path fill="none" stroke="white" stroke-width="1.5" d="M0,-3.0v7 M-2.5,-0.5L0,-3.0L2.5,-0.5"/>
                </g>
                <g id="arrowLeft" xlink:href="#dirArrow" transform="rotate(270) translate(-36 17)" onmousedown="handlePan(-1,0)">
                  <use xlink:href="#rim" fill="#404040">
                        <set attributeName="fill" to="#808080" begin="arrowLeft.mouseover" end="arrowLeft.mouseout"/>
                  </use>
                  <path fill="none" stroke="white" stroke-width="1.5" d="M0,-3.0v7 M-2.5,-0.5L0,-3.0L2.5,-0.5"/>
                </g>
        </g>
        <svg viewBox="0 0 15 15" width="100%" height="30px" preserveAspectRatio="xMaxYMin meet">
         <g id="arrow_out" transform="scale(0.3 0.3)">
          <a xlink:href="namespacemom__diag__mediator_adb1030a0216c52dd0d25bd67a5b31868_cgraph_org.svg" target="_base">
           <rect id="button" ry="5" rx="5" y="6" x="6" height="38" width="38"
                fill="#f2f5e9" fill-opacity="0.5" stroke="#606060" stroke-width="1.0"/>
           <path id="arrow"
             d="M 11.500037,31.436501 C 11.940474,20.09759 22.043105,11.32322 32.158766,21.979434 L 37.068811,17.246167 C 37.068811,17.246167 37.088388,32 37.088388,32 L 22.160133,31.978069 C 22.160133,31.978069 26.997745,27.140456 26.997745,27.140456 C 18.528582,18.264221 13.291696,25.230495 11.500037,31.436501 z"
             style="fill:#404040;"/>
          </a>
         </g>
        </svg>
</svg>
