<?xml version="1.0" encoding="UTF-8" standalone="no"?>
<!DOCTYPE svg PUBLIC "-//W3C//DTD SVG 1.1//EN"
 "http://www.w3.org/Graphics/SVG/1.1/DTD/svg11.dtd">
<!-- Generated by graphviz version 2.38.0 (20140413.2041)
 -->
<!-- Title: mom_diag_mediator::diag_mediator_end Pages: 1 -->
<svg width="250pt" height="116pt"
 viewBox="0.00 0.00 250.00 116.00" xmlns="http://www.w3.org/2000/svg" xmlns:xlink="http://www.w3.org/1999/xlink">
<g id="graph0" class="graph" transform="scale(1 1) rotate(0) translate(4 112)">
<title>mom_diag_mediator::diag_mediator_end</title>
<polygon fill="white" stroke="none" points="-4,4 -4,-112 246,-112 246,4 -4,4"/>
<!-- Node132 -->
<g id="node1" class="node"><title>Node132</title>
<polygon fill="#bfbfbf" stroke="black" points="0,-39 0,-69 95,-69 95,-39 0,-39"/>
<text text-anchor="start" x="8" y="-57" font-family="Helvetica,sans-Serif" font-size="10.00">mom_diag_mediator::</text>
<text text-anchor="middle" x="47.5" y="-46" font-family="Helvetica,sans-Serif" font-size="10.00">diag_mediator_end</text>
</g>
<!-- Node133 -->
<g id="node2" class="node"><title>Node133</title>
<g id="a_node2"><a xlink:href="../../de/dbc/MOM__driver_8F90.html#a08fffeb2d8e8acbf9ed4609be6d258c6" target="_top" xlink:title="mom_main">
<polygon fill="white" stroke="black" points="158.5,-88.5 158.5,-107.5 214.5,-107.5 214.5,-88.5 158.5,-88.5"/>
<text text-anchor="middle" x="186.5" y="-95.5" font-family="Helvetica,sans-Serif" font-size="10.00">mom_main</text>
</a>
</g>
</g>
<!-- Node132&#45;&gt;Node133 -->
<g id="edge1" class="edge"><title>Node132&#45;&gt;Node133</title>
<path fill="none" stroke="midnightblue" d="M105.008,-72.1486C123.352,-78.04 142.879,-84.3116 158.107,-89.2021"/>
<polygon fill="midnightblue" stroke="midnightblue" points="105.856,-68.7448 95.2645,-69.0192 103.715,-75.4095 105.856,-68.7448"/>
</g>
<!-- Node134 -->
<g id="node3" class="node"><title>Node134</title>
<g id="a_node3"><a xlink:href="../../d5/dd4/namespaceocean__model__mod.html#a276959acb69502491d4b3a5a83e596b8" target="_top" xlink:title="ocean_model_mod::ocean\l_model_end">
<polygon fill="white" stroke="black" points="131,-39 131,-69 242,-69 242,-39 131,-39"/>
<text text-anchor="start" x="139" y="-57" font-family="Helvetica,sans-Serif" font-size="10.00">ocean_model_mod::ocean</text>
<text text-anchor="middle" x="186.5" y="-46" font-family="Helvetica,sans-Serif" font-size="10.00">_model_end</text>
</a>
</g>
</g>
<!-- Node132&#45;&gt;Node134 -->
<g id="edge2" class="edge"><title>Node132&#45;&gt;Node134</title>
<path fill="none" stroke="midnightblue" d="M105.405,-54C113.846,-54 122.528,-54 130.92,-54"/>
<polygon fill="midnightblue" stroke="midnightblue" points="105.264,-50.5001 95.2645,-54 105.264,-57.5001 105.264,-50.5001"/>
</g>
<!-- Node135 -->
<g id="node4" class="node"><title>Node135</title>
<g id="a_node4"><a xlink:href="../../d5/d6d/ice__shelf__driver_8F90.html#aec5bef92f0dad343f545cd8d62e378d8" target="_top" xlink:title="shelf_main">
<polygon fill="white" stroke="black" points="159,-0.5 159,-19.5 214,-19.5 214,-0.5 159,-0.5"/>
<text text-anchor="middle" x="186.5" y="-7.5" font-family="Helvetica,sans-Serif" font-size="10.00">shelf_main</text>
</a>
</g>
</g>
<!-- Node132&#45;&gt;Node135 -->
<g id="edge3" class="edge"><title>Node132&#45;&gt;Node135</title>
<path fill="none" stroke="midnightblue" d="M104.897,-35.887C123.594,-29.8824 143.532,-23.4788 158.901,-18.5428"/>
<polygon fill="midnightblue" stroke="midnightblue" points="103.715,-32.5905 95.2645,-38.9808 105.856,-39.2552 103.715,-32.5905"/>
</g>
</g>
</svg>
