<?xml version="1.0" encoding="UTF-8" standalone="no"?>
<!DOCTYPE svg PUBLIC "-//W3C//DTD SVG 1.1//EN"
 "http://www.w3.org/Graphics/SVG/1.1/DTD/svg11.dtd">
<!-- Generated by graphviz version 2.38.0 (20140413.2041)
 -->
<!-- Title: mom_diag_mediator::query_averaging_enabled Pages: 1 -->
<svg width="507pt" height="323pt"
 viewBox="0.00 0.00 507.00 322.50" xmlns="http://www.w3.org/2000/svg" xmlns:xlink="http://www.w3.org/1999/xlink">
<g id="graph0" class="graph" transform="scale(1 1) rotate(0) translate(4 318.5)">
<title>mom_diag_mediator::query_averaging_enabled</title>
<polygon fill="white" stroke="none" points="-4,4 -4,-318.5 503,-318.5 503,4 -4,4"/>
<!-- Node388 -->
<g id="node1" class="node"><title>Node388</title>
<polygon fill="#bfbfbf" stroke="black" points="0,-131.5 0,-161.5 110,-161.5 110,-131.5 0,-131.5"/>
<text text-anchor="start" x="8" y="-149.5" font-family="Helvetica,sans-Serif" font-size="10.00">mom_diag_mediator::</text>
<text text-anchor="middle" x="55" y="-138.5" font-family="Helvetica,sans-Serif" font-size="10.00">query_averaging_enabled</text>
</g>
<!-- Node389 -->
<g id="node2" class="node"><title>Node389</title>
<g id="a_node2"><a xlink:href="../../d0/d86/namespacemom__lateral__mixing__coeffs.html#af206bc656869b4fc27d4d7e8a15d438e" target="_top" xlink:title="mom_lateral_mixing\l_coeffs::calc_resoln\l_function">
<polygon fill="white" stroke="black" points="157.5,-273 157.5,-314 245.5,-314 245.5,-273 157.5,-273"/>
<text text-anchor="start" x="165.5" y="-302" font-family="Helvetica,sans-Serif" font-size="10.00">mom_lateral_mixing</text>
<text text-anchor="start" x="165.5" y="-291" font-family="Helvetica,sans-Serif" font-size="10.00">_coeffs::calc_resoln</text>
<text text-anchor="middle" x="201.5" y="-280" font-family="Helvetica,sans-Serif" font-size="10.00">_function</text>
</a>
</g>
</g>
<!-- Node388&#45;&gt;Node389 -->
<g id="edge1" class="edge"><title>Node388&#45;&gt;Node389</title>
<path fill="none" stroke="midnightblue" d="M71.5277,-170.058C88.1064,-194.094 116.066,-231.583 146,-258.5 151.686,-263.613 158.196,-268.479 164.692,-272.869"/>
<polygon fill="midnightblue" stroke="midnightblue" points="74.2656,-167.86 65.7507,-161.556 68.4755,-171.794 74.2656,-167.86"/>
</g>
<!-- Node392 -->
<g id="node5" class="node"><title>Node392</title>
<g id="a_node5"><a xlink:href="../../d0/d86/namespacemom__lateral__mixing__coeffs.html#a8abf768b636e96aafa9544287624523e" target="_top" xlink:title="Calculates functions of isopycnal slopes. ">
<polygon fill="white" stroke="black" points="306,-202 306,-243 394,-243 394,-202 306,-202"/>
<text text-anchor="start" x="314" y="-231" font-family="Helvetica,sans-Serif" font-size="10.00">mom_lateral_mixing</text>
<text text-anchor="start" x="314" y="-220" font-family="Helvetica,sans-Serif" font-size="10.00">_coeffs::calc_slope</text>
<text text-anchor="middle" x="350" y="-209" font-family="Helvetica,sans-Serif" font-size="10.00">_functions</text>
</a>
</g>
</g>
<!-- Node388&#45;&gt;Node392 -->
<g id="edge4" class="edge"><title>Node388&#45;&gt;Node392</title>
<path fill="none" stroke="midnightblue" d="M73.7688,-169.412C90.1567,-188.515 116.378,-214.343 146,-225.5 198.281,-245.191 263.641,-239.349 305.842,-232.043"/>
<polygon fill="midnightblue" stroke="midnightblue" points="76.4465,-167.158 67.3662,-161.699 71.0605,-171.629 76.4465,-167.158"/>
</g>
<!-- Node393 -->
<g id="node6" class="node"><title>Node393</title>
<g id="a_node6"><a xlink:href="../../d0/d86/namespacemom__lateral__mixing__coeffs.html#ae625fee7e36d68e290b3af57697d0afe" target="_top" xlink:title="Calculates diffusivity coefficients similar to Visbeck et al. ">
<polygon fill="white" stroke="black" points="156.5,-175 156.5,-216 246.5,-216 246.5,-175 156.5,-175"/>
<text text-anchor="start" x="164.5" y="-204" font-family="Helvetica,sans-Serif" font-size="10.00">mom_lateral_mixing</text>
<text text-anchor="start" x="164.5" y="-193" font-family="Helvetica,sans-Serif" font-size="10.00">_coeffs::calc_visbeck</text>
<text text-anchor="middle" x="201.5" y="-182" font-family="Helvetica,sans-Serif" font-size="10.00">_coeffs</text>
</a>
</g>
</g>
<!-- Node388&#45;&gt;Node393 -->
<g id="edge5" class="edge"><title>Node388&#45;&gt;Node393</title>
<path fill="none" stroke="midnightblue" d="M110.324,-164.921C125.516,-170.073 141.837,-175.607 156.362,-180.533"/>
<polygon fill="midnightblue" stroke="midnightblue" points="111.128,-161.498 100.534,-161.601 108.88,-168.128 111.128,-161.498"/>
</g>
<!-- Node394 -->
<g id="node7" class="node"><title>Node394</title>
<g id="a_node7"><a xlink:href="../../d8/df3/namespacemom__diabatic__driver.html#a61e57d3902367aa46aa3c2d949ee900f" target="_top" xlink:title="This subroutine imposes the diapycnal mass fluxes and the accompanying diapycnal advection of momentu...">
<polygon fill="white" stroke="black" points="304.5,-131.5 304.5,-161.5 395.5,-161.5 395.5,-131.5 304.5,-131.5"/>
<text text-anchor="start" x="312.5" y="-149.5" font-family="Helvetica,sans-Serif" font-size="10.00">mom_diabatic_driver</text>
<text text-anchor="middle" x="350" y="-138.5" font-family="Helvetica,sans-Serif" font-size="10.00">::diabatic</text>
</a>
</g>
</g>
<!-- Node388&#45;&gt;Node394 -->
<g id="edge7" class="edge"><title>Node388&#45;&gt;Node394</title>
<path fill="none" stroke="midnightblue" d="M120.206,-146.5C175.958,-146.5 255.247,-146.5 304.339,-146.5"/>
<polygon fill="midnightblue" stroke="midnightblue" points="120.082,-143 110.082,-146.5 120.082,-150 120.082,-143"/>
</g>
<!-- Node395 -->
<g id="node8" class="node"><title>Node395</title>
<g id="a_node8"><a xlink:href="../../dd/dc3/namespacemom__forcing__type.html#aa685fdcd5863af264335aa60b5b4c210" target="_top" xlink:title="Offer buoyancy forcing fields for diagnostics for those fields registered as part of register_forcing...">
<polygon fill="white" stroke="black" points="146,-49.5 146,-79.5 257,-79.5 257,-49.5 146,-49.5"/>
<text text-anchor="start" x="154" y="-67.5" font-family="Helvetica,sans-Serif" font-size="10.00">mom_forcing_type::forcing</text>
<text text-anchor="middle" x="201.5" y="-56.5" font-family="Helvetica,sans-Serif" font-size="10.00">_diagnostics</text>
</a>
</g>
</g>
<!-- Node388&#45;&gt;Node395 -->
<g id="edge8" class="edge"><title>Node388&#45;&gt;Node395</title>
<path fill="none" stroke="midnightblue" d="M86.5465,-125.711C103.685,-114.418 125.652,-100.545 146,-89.5 152.313,-86.0733 159.182,-82.6776 165.849,-79.5452"/>
<polygon fill="midnightblue" stroke="midnightblue" points="84.449,-122.903 78.0587,-131.353 88.3242,-128.732 84.449,-122.903"/>
</g>
<!-- Node397 -->
<g id="node10" class="node"><title>Node397</title>
<g id="a_node10"><a xlink:href="../../dd/dc3/namespacemom__forcing__type.html#ab19017105329a14ad5130e2f2aa8e475" target="_top" xlink:title="Offer mechanical forcing fields for diagnostics for those fields registered as part of register_forci...">
<polygon fill="white" stroke="black" points="148,-0.5 148,-30.5 255,-30.5 255,-0.5 148,-0.5"/>
<text text-anchor="start" x="156" y="-18.5" font-family="Helvetica,sans-Serif" font-size="10.00">mom_forcing_type::mech</text>
<text text-anchor="middle" x="201.5" y="-7.5" font-family="Helvetica,sans-Serif" font-size="10.00">_forcing_diags</text>
</a>
</g>
</g>
<!-- Node388&#45;&gt;Node397 -->
<g id="edge11" class="edge"><title>Node388&#45;&gt;Node397</title>
<path fill="none" stroke="midnightblue" d="M70.9484,-123.083C87.0615,-99.3886 114.653,-62.9932 146,-39.5 150.385,-36.2139 155.29,-33.2597 160.312,-30.6409"/>
<polygon fill="midnightblue" stroke="midnightblue" points="67.9805,-121.225 65.3511,-131.488 73.8069,-125.105 67.9805,-121.225"/>
</g>
<!-- Node398 -->
<g id="node11" class="node"><title>Node398</title>
<g id="a_node11"><a xlink:href="../../d2/db1/namespacemom__opacity.html#aefadc7465f74c0cab731cf1adf5f3a57" target="_top" xlink:title="mom_opacity::set_opacity">
<polygon fill="white" stroke="black" points="147.5,-99 147.5,-118 255.5,-118 255.5,-99 147.5,-99"/>
<text text-anchor="middle" x="201.5" y="-106" font-family="Helvetica,sans-Serif" font-size="10.00">mom_opacity::set_opacity</text>
</a>
</g>
</g>
<!-- Node388&#45;&gt;Node398 -->
<g id="edge14" class="edge"><title>Node388&#45;&gt;Node398</title>
<path fill="none" stroke="midnightblue" d="M120.013,-129.666C135.068,-125.707 150.606,-121.621 163.967,-118.107"/>
<polygon fill="midnightblue" stroke="midnightblue" points="118.999,-126.314 110.218,-132.242 120.779,-133.084 118.999,-126.314"/>
</g>
<!-- Node390 -->
<g id="node3" class="node"><title>Node390</title>
<g id="a_node3"><a xlink:href="../../da/d01/namespacemom.html#a4c8332b095c6d295084089aa6b3b678a" target="_top" xlink:title="This subroutine orchestrates the time stepping of MOM. The adiabatic dynamics are stepped by calls to...">
<polygon fill="white" stroke="black" points="311.5,-273 311.5,-292 388.5,-292 388.5,-273 311.5,-273"/>
<text text-anchor="middle" x="350" y="-280" font-family="Helvetica,sans-Serif" font-size="10.00">mom::step_mom</text>
</a>
</g>
</g>
<!-- Node389&#45;&gt;Node390 -->
<g id="edge2" class="edge"><title>Node389&#45;&gt;Node390</title>
<path fill="none" stroke="midnightblue" d="M255.648,-289.509C274.02,-288.13 294.221,-286.613 311.118,-285.344"/>
<polygon fill="midnightblue" stroke="midnightblue" points="255.372,-286.02 245.662,-290.259 255.896,-293 255.372,-286.02"/>
</g>
<!-- Node391 -->
<g id="node4" class="node"><title>Node391</title>
<g id="a_node4"><a xlink:href="../../de/dbc/MOM__driver_8F90.html#a08fffeb2d8e8acbf9ed4609be6d258c6" target="_top" xlink:title="mom_main">
<polygon fill="white" stroke="black" points="443,-93 443,-112 499,-112 499,-93 443,-93"/>
<text text-anchor="middle" x="471" y="-100" font-family="Helvetica,sans-Serif" font-size="10.00">mom_main</text>
</a>
</g>
</g>
<!-- Node390&#45;&gt;Node391 -->
<g id="edge3" class="edge"><title>Node390&#45;&gt;Node391</title>
<path fill="none" stroke="midnightblue" d="M386.57,-268.163C394.009,-263.949 401.311,-258.752 407,-252.5 446.351,-209.257 463.255,-137.872 468.284,-112.13"/>
<polygon fill="midnightblue" stroke="midnightblue" points="384.483,-265.3 377.185,-272.98 387.68,-271.528 384.483,-265.3"/>
</g>
<!-- Node393&#45;&gt;Node392 -->
<g id="edge6" class="edge"><title>Node393&#45;&gt;Node392</title>
<path fill="none" stroke="midnightblue" d="M256.727,-205.494C272.911,-208.477 290.427,-211.705 305.805,-214.539"/>
<polygon fill="midnightblue" stroke="midnightblue" points="257.321,-202.045 246.852,-203.674 256.052,-208.929 257.321,-202.045"/>
</g>
<!-- Node395&#45;&gt;Node391 -->
<g id="edge10" class="edge"><title>Node395&#45;&gt;Node391</title>
<path fill="none" stroke="midnightblue" d="M267.404,-78.09C275.992,-79.6882 284.695,-81.2072 293,-82.5 345.863,-90.7289 408.111,-96.9695 442.918,-100.151"/>
<polygon fill="midnightblue" stroke="midnightblue" points="267.884,-74.6186 257.406,-76.1863 266.575,-81.495 267.884,-74.6186"/>
</g>
<!-- Node396 -->
<g id="node9" class="node"><title>Node396</title>
<g id="a_node9"><a xlink:href="../../d5/dd4/namespaceocean__model__mod.html#ac9dc1795fc4799d6682f462857b42d62" target="_top" xlink:title="ocean_model_mod::update\l_ocean_model">
<polygon fill="white" stroke="black" points="293,-43.5 293,-73.5 407,-73.5 407,-43.5 293,-43.5"/>
<text text-anchor="start" x="301" y="-61.5" font-family="Helvetica,sans-Serif" font-size="10.00">ocean_model_mod::update</text>
<text text-anchor="middle" x="350" y="-50.5" font-family="Helvetica,sans-Serif" font-size="10.00">_ocean_model</text>
</a>
</g>
</g>
<!-- Node395&#45;&gt;Node396 -->
<g id="edge9" class="edge"><title>Node395&#45;&gt;Node396</title>
<path fill="none" stroke="midnightblue" d="M267.069,-61.8556C275.69,-61.5024 284.475,-61.1427 292.935,-60.7962"/>
<polygon fill="midnightblue" stroke="midnightblue" points="266.9,-58.3594 257.051,-62.2658 267.186,-65.3536 266.9,-58.3594"/>
</g>
<!-- Node397&#45;&gt;Node391 -->
<g id="edge13" class="edge"><title>Node397&#45;&gt;Node391</title>
<path fill="none" stroke="midnightblue" d="M265.438,-9.5255C307.59,-8.21031 363.173,-11.8235 407,-33.5 434.045,-46.8759 455.047,-77.2396 464.511,-92.8446"/>
<polygon fill="midnightblue" stroke="midnightblue" points="265.147,-6.03445 255.3,-9.94397 265.435,-13.0285 265.147,-6.03445"/>
</g>
<!-- Node397&#45;&gt;Node396 -->
<g id="edge12" class="edge"><title>Node397&#45;&gt;Node396</title>
<path fill="none" stroke="midnightblue" d="M263.544,-33.4173C274.85,-36.736 286.556,-40.1718 297.543,-43.3965"/>
<polygon fill="midnightblue" stroke="midnightblue" points="264.32,-29.9974 253.739,-30.5393 262.348,-36.7141 264.32,-29.9974"/>
</g>
<!-- Node398&#45;&gt;Node394 -->
<g id="edge15" class="edge"><title>Node398&#45;&gt;Node394</title>
<path fill="none" stroke="midnightblue" d="M249.532,-120.699C267.145,-125.268 287.087,-130.441 304.467,-134.949"/>
<polygon fill="midnightblue" stroke="midnightblue" points="250.027,-117.212 239.468,-118.089 248.269,-123.988 250.027,-117.212"/>
</g>
</g>
</svg>
