<?xml version="1.0" encoding="UTF-8" standalone="no"?>
<!DOCTYPE svg PUBLIC "-//W3C//DTD SVG 1.1//EN"
 "http://www.w3.org/Graphics/SVG/1.1/DTD/svg11.dtd">
<!-- Generated by graphviz version 2.38.0 (20140413.2041)
 -->
<!-- Title: mom_diag_mediator::get_new_diag_id Pages: 1 -->
<svg width="804pt" height="568pt"
 viewBox="0.00 0.00 804.00 567.50" xmlns="http://www.w3.org/2000/svg" xmlns:xlink="http://www.w3.org/1999/xlink">
<g id="graph0" class="graph" transform="scale(1 1) rotate(0) translate(4 563.5)">
<title>mom_diag_mediator::get_new_diag_id</title>
<polygon fill="white" stroke="none" points="-4,4 -4,-563.5 800,-563.5 800,4 -4,4"/>
<!-- Node183 -->
<g id="node1" class="node"><title>Node183</title>
<polygon fill="#bfbfbf" stroke="black" points="0,-109.5 0,-139.5 95,-139.5 95,-109.5 0,-109.5"/>
<text text-anchor="start" x="8" y="-127.5" font-family="Helvetica,sans-Serif" font-size="10.00">mom_diag_mediator::</text>
<text text-anchor="middle" x="47.5" y="-116.5" font-family="Helvetica,sans-Serif" font-size="10.00">get_new_diag_id</text>
</g>
<!-- Node184 -->
<g id="node2" class="node"><title>Node184</title>
<g id="a_node2"><a xlink:href="../../d9/d06/namespacemom__diag__mediator.html#a3fd333aff691a76b05dd8d5bdc315bbb" target="_top" xlink:title="mom_diag_mediator::\lregister_diag_field">
<polygon fill="white" stroke="black" points="284,-210.5 284,-240.5 379,-240.5 379,-210.5 284,-210.5"/>
<text text-anchor="start" x="292" y="-228.5" font-family="Helvetica,sans-Serif" font-size="10.00">mom_diag_mediator::</text>
<text text-anchor="middle" x="331.5" y="-217.5" font-family="Helvetica,sans-Serif" font-size="10.00">register_diag_field</text>
</a>
</g>
</g>
<!-- Node183&#45;&gt;Node184 -->
<g id="edge1" class="edge"><title>Node183&#45;&gt;Node184</title>
<path fill="none" stroke="midnightblue" d="M100.15,-142.999C154.229,-162.367 238.132,-192.418 288.356,-210.406"/>
<polygon fill="midnightblue" stroke="midnightblue" points="101.008,-139.589 90.4137,-139.512 98.648,-146.179 101.008,-139.589"/>
</g>
<!-- Node199 -->
<g id="node17" class="node"><title>Node199</title>
<g id="a_node17"><a xlink:href="../../d9/d06/namespacemom__diag__mediator.html#a60caf99cd0670e8ae1d7d0c1230b72a5" target="_top" xlink:title="mom_diag_mediator::\lregister_scalar_field">
<polygon fill="white" stroke="black" points="131,-109.5 131,-139.5 226,-139.5 226,-109.5 131,-109.5"/>
<text text-anchor="start" x="139" y="-127.5" font-family="Helvetica,sans-Serif" font-size="10.00">mom_diag_mediator::</text>
<text text-anchor="middle" x="178.5" y="-116.5" font-family="Helvetica,sans-Serif" font-size="10.00">register_scalar_field</text>
</a>
</g>
</g>
<!-- Node183&#45;&gt;Node199 -->
<g id="edge17" class="edge"><title>Node183&#45;&gt;Node199</title>
<path fill="none" stroke="midnightblue" d="M105.101,-124.5C113.752,-124.5 122.596,-124.5 130.996,-124.5"/>
<polygon fill="midnightblue" stroke="midnightblue" points="105.072,-121 95.072,-124.5 105.072,-128 105.072,-121"/>
</g>
<!-- Node200 -->
<g id="node18" class="node"><title>Node200</title>
<g id="a_node18"><a xlink:href="../../d9/d06/namespacemom__diag__mediator.html#ae4619c5022663fcc3c0f2216fcc42176" target="_top" xlink:title="Registers a static diagnostic, returning an integer handle. ">
<polygon fill="white" stroke="black" points="131,-49.5 131,-79.5 226,-79.5 226,-49.5 131,-49.5"/>
<text text-anchor="start" x="139" y="-67.5" font-family="Helvetica,sans-Serif" font-size="10.00">mom_diag_mediator::</text>
<text text-anchor="middle" x="178.5" y="-56.5" font-family="Helvetica,sans-Serif" font-size="10.00">register_static_field</text>
</a>
</g>
</g>
<!-- Node183&#45;&gt;Node200 -->
<g id="edge18" class="edge"><title>Node183&#45;&gt;Node200</title>
<path fill="none" stroke="midnightblue" d="M90.5627,-104.936C108.229,-96.7192 128.46,-87.3093 144.958,-79.6357"/>
<polygon fill="midnightblue" stroke="midnightblue" points="88.6433,-101.969 81.0521,-109.359 91.5954,-108.316 88.6433,-101.969"/>
</g>
<!-- Node185 -->
<g id="node3" class="node"><title>Node185</title>
<g id="a_node3"><a xlink:href="../../d7/d73/namespacemom__ale.html#a994efb3c62fc5f63da2617f29cbd6be1" target="_top" xlink:title="Initialize diagnostics for the ALE module. ">
<polygon fill="white" stroke="black" points="454.5,-284.5 454.5,-314.5 550.5,-314.5 550.5,-284.5 454.5,-284.5"/>
<text text-anchor="start" x="462.5" y="-302.5" font-family="Helvetica,sans-Serif" font-size="10.00">mom_ale::ale_register</text>
<text text-anchor="middle" x="502.5" y="-291.5" font-family="Helvetica,sans-Serif" font-size="10.00">_diags</text>
</a>
</g>
</g>
<!-- Node184&#45;&gt;Node185 -->
<g id="edge2" class="edge"><title>Node184&#45;&gt;Node185</title>
<path fill="none" stroke="midnightblue" d="M372.466,-245.027C391.815,-254.278 415.467,-265.291 437,-274.5 444.84,-277.853 453.293,-281.269 461.415,-284.455"/>
<polygon fill="midnightblue" stroke="midnightblue" points="373.871,-241.819 363.341,-240.643 370.839,-248.128 373.871,-241.819"/>
</g>
<!-- Node188 -->
<g id="node6" class="node"><title>Node188</title>
<g id="a_node6"><a xlink:href="../../d8/dd2/namespacemom__coriolisadv.html#ad3ce07f23ce7b484a5a9e0c0abe8b1cd" target="_top" xlink:title="mom_coriolisadv::coriolisadv_init">
<polygon fill="white" stroke="black" points="437,-415 437,-434 568,-434 568,-415 437,-415"/>
<text text-anchor="middle" x="502.5" y="-422" font-family="Helvetica,sans-Serif" font-size="10.00">mom_coriolisadv::coriolisadv_init</text>
</a>
</g>
</g>
<!-- Node184&#45;&gt;Node188 -->
<g id="edge5" class="edge"><title>Node184&#45;&gt;Node188</title>
<path fill="none" stroke="midnightblue" d="M346.593,-249.348C365.164,-279.732 399.852,-333.033 437,-372.5 452.675,-389.154 473.76,-405.18 487.488,-414.934"/>
<polygon fill="midnightblue" stroke="midnightblue" points="349.531,-247.442 341.362,-240.695 343.54,-251.064 349.531,-247.442"/>
</g>
<!-- Node193 -->
<g id="node11" class="node"><title>Node193</title>
<g id="a_node11"><a xlink:href="../../d9/d06/namespacemom__diag__mediator.html#a21267e25d12fa3e5d2540d2a299d2d2c" target="_top" xlink:title="Registers a diagnostic using the information encapsulated in the vardesc type argument and returns an...">
<polygon fill="white" stroke="black" points="455,-333.5 455,-363.5 550,-363.5 550,-333.5 455,-333.5"/>
<text text-anchor="start" x="463" y="-351.5" font-family="Helvetica,sans-Serif" font-size="10.00">mom_diag_mediator::</text>
<text text-anchor="middle" x="502.5" y="-340.5" font-family="Helvetica,sans-Serif" font-size="10.00">ocean_register_diag</text>
</a>
</g>
</g>
<!-- Node184&#45;&gt;Node193 -->
<g id="edge10" class="edge"><title>Node184&#45;&gt;Node193</title>
<path fill="none" stroke="midnightblue" d="M351.896,-248.17C371.512,-269.93 403.625,-302.504 437,-323.5 442.896,-327.209 449.431,-330.521 456.013,-333.425"/>
<polygon fill="midnightblue" stroke="midnightblue" points="354.51,-245.842 345.255,-240.684 349.273,-250.487 354.51,-245.842"/>
</g>
<!-- Node195 -->
<g id="node13" class="node"><title>Node195</title>
<g id="a_node13"><a xlink:href="../../d6/d07/namespacemom__diffconvection.html#ac36d9d7fd69e4422e7de01242094ff34" target="_top" xlink:title="mom_diffconvection\l::diffconvection_init">
<polygon fill="white" stroke="black" points="459,-235.5 459,-265.5 546,-265.5 546,-235.5 459,-235.5"/>
<text text-anchor="start" x="467" y="-253.5" font-family="Helvetica,sans-Serif" font-size="10.00">mom_diffconvection</text>
<text text-anchor="middle" x="502.5" y="-242.5" font-family="Helvetica,sans-Serif" font-size="10.00">::diffconvection_init</text>
</a>
</g>
</g>
<!-- Node184&#45;&gt;Node195 -->
<g id="edge12" class="edge"><title>Node184&#45;&gt;Node195</title>
<path fill="none" stroke="midnightblue" d="M389.32,-233.905C412.021,-237.264 437.72,-241.065 458.787,-244.181"/>
<polygon fill="midnightblue" stroke="midnightblue" points="389.532,-230.399 379.127,-232.398 388.508,-237.323 389.532,-230.399"/>
</g>
<!-- Node196 -->
<g id="node14" class="node"><title>Node196</title>
<g id="a_node14"><a xlink:href="../../d0/d77/namespacemom__int__tide__input.html#a29a707637da633ccee155b53557b5f17" target="_top" xlink:title="mom_int_tide_input\l::int_tide_input_init">
<polygon fill="white" stroke="black" points="459.5,-186.5 459.5,-216.5 545.5,-216.5 545.5,-186.5 459.5,-186.5"/>
<text text-anchor="start" x="467.5" y="-204.5" font-family="Helvetica,sans-Serif" font-size="10.00">mom_int_tide_input</text>
<text text-anchor="middle" x="502.5" y="-193.5" font-family="Helvetica,sans-Serif" font-size="10.00">::int_tide_input_init</text>
</a>
</g>
</g>
<!-- Node184&#45;&gt;Node196 -->
<g id="edge13" class="edge"><title>Node184&#45;&gt;Node196</title>
<path fill="none" stroke="midnightblue" d="M389.092,-217.463C412.055,-214.202 438.115,-210.501 459.357,-207.485"/>
<polygon fill="midnightblue" stroke="midnightblue" points="388.536,-214.007 379.127,-218.878 389.52,-220.937 388.536,-214.007"/>
</g>
<!-- Node197 -->
<g id="node15" class="node"><title>Node197</title>
<g id="a_node15"><a xlink:href="../../d5/d08/namespacemom__kpp.html#a9c834424b6e067e280928db3700ec77e" target="_top" xlink:title="Initialize the CVmix KPP module and set up diagnostics Returns True if KPP is to be used...">
<polygon fill="white" stroke="black" points="461,-148 461,-167 544,-167 544,-148 461,-148"/>
<text text-anchor="middle" x="502.5" y="-155" font-family="Helvetica,sans-Serif" font-size="10.00">mom_kpp::kpp_init</text>
</a>
</g>
</g>
<!-- Node184&#45;&gt;Node197 -->
<g id="edge14" class="edge"><title>Node184&#45;&gt;Node197</title>
<path fill="none" stroke="midnightblue" d="M370.874,-205.794C390.372,-196.223 414.619,-184.987 437,-176.5 446.06,-173.064 456.025,-169.859 465.356,-167.096"/>
<polygon fill="midnightblue" stroke="midnightblue" points="369.114,-202.759 361.712,-210.339 372.226,-209.03 369.114,-202.759"/>
</g>
<!-- Node198 -->
<g id="node16" class="node"><title>Node198</title>
<g id="a_node16"><a xlink:href="../../d8/da4/namespacemom__neutral__diffusion.html#a87cf821c52ac1111493d4168f0a91d17" target="_top" xlink:title="Diagnostic handles for neutral diffusion tendencies. ">
<polygon fill="white" stroke="black" points="446,-98.5 446,-128.5 559,-128.5 559,-98.5 446,-98.5"/>
<text text-anchor="start" x="454" y="-116.5" font-family="Helvetica,sans-Serif" font-size="10.00">mom_neutral_diffusion</text>
<text text-anchor="middle" x="502.5" y="-105.5" font-family="Helvetica,sans-Serif" font-size="10.00">::neutral_diffusion_diag_init</text>
</a>
</g>
</g>
<!-- Node184&#45;&gt;Node198 -->
<g id="edge15" class="edge"><title>Node184&#45;&gt;Node198</title>
<path fill="none" stroke="midnightblue" d="M354.979,-203.044C375.099,-183.904 406.109,-156.683 437,-138.5 443.21,-134.845 450.052,-131.53 456.889,-128.596"/>
<polygon fill="midnightblue" stroke="midnightblue" points="352.331,-200.735 347.568,-210.199 357.193,-205.771 352.331,-200.735"/>
</g>
<!-- Node186 -->
<g id="node4" class="node"><title>Node186</title>
<g id="a_node4"><a xlink:href="../../da/d01/namespacemom.html#afebdc0103ad9cbe0ed4a54e522dc4104" target="_top" xlink:title="This subroutine initializes MOM. ">
<polygon fill="white" stroke="black" points="609.5,-104 609.5,-123 698.5,-123 698.5,-104 609.5,-104"/>
<text text-anchor="middle" x="654" y="-111" font-family="Helvetica,sans-Serif" font-size="10.00">mom::initialize_mom</text>
</a>
</g>
</g>
<!-- Node185&#45;&gt;Node186 -->
<g id="edge3" class="edge"><title>Node185&#45;&gt;Node186</title>
<path fill="none" stroke="midnightblue" d="M559.447,-280.93C562.482,-278.985 565.364,-276.847 568,-274.5 617.341,-230.574 642.771,-151.062 650.446,-123.346"/>
<polygon fill="midnightblue" stroke="midnightblue" points="557.569,-277.971 550.562,-285.918 560.996,-284.075 557.569,-277.971"/>
</g>
<!-- Node187 -->
<g id="node5" class="node"><title>Node187</title>
<g id="a_node5"><a xlink:href="../../de/dbc/MOM__driver_8F90.html#a08fffeb2d8e8acbf9ed4609be6d258c6" target="_top" xlink:title="mom_main">
<polygon fill="white" stroke="black" points="740,-104 740,-123 796,-123 796,-104 740,-104"/>
<text text-anchor="middle" x="768" y="-111" font-family="Helvetica,sans-Serif" font-size="10.00">mom_main</text>
</a>
</g>
</g>
<!-- Node186&#45;&gt;Node187 -->
<g id="edge4" class="edge"><title>Node186&#45;&gt;Node187</title>
<path fill="none" stroke="midnightblue" d="M708.845,-113.5C719.594,-113.5 730.449,-113.5 739.823,-113.5"/>
<polygon fill="midnightblue" stroke="midnightblue" points="708.623,-110 698.623,-113.5 708.623,-117 708.623,-110"/>
</g>
<!-- Node189 -->
<g id="node7" class="node"><title>Node189</title>
<g id="a_node7"><a xlink:href="../../db/dd4/namespacemom__dynamics__legacy__split.html#aef55fe2e12672940edbd2dc5d7e72fd7" target="_top" xlink:title="mom_dynamics_legacy\l_split::initialize_dyn\l_legacy_split">
<polygon fill="white" stroke="black" points="604.5,-518 604.5,-559 703.5,-559 703.5,-518 604.5,-518"/>
<text text-anchor="start" x="612.5" y="-547" font-family="Helvetica,sans-Serif" font-size="10.00">mom_dynamics_legacy</text>
<text text-anchor="start" x="612.5" y="-536" font-family="Helvetica,sans-Serif" font-size="10.00">_split::initialize_dyn</text>
<text text-anchor="middle" x="654" y="-525" font-family="Helvetica,sans-Serif" font-size="10.00">_legacy_split</text>
</a>
</g>
</g>
<!-- Node188&#45;&gt;Node189 -->
<g id="edge6" class="edge"><title>Node188&#45;&gt;Node189</title>
<path fill="none" stroke="midnightblue" d="M521.508,-440.941C541.132,-458.521 573.777,-486.796 604,-508.5 608.456,-511.7 613.259,-514.91 618.055,-517.977"/>
<polygon fill="midnightblue" stroke="midnightblue" points="523.709,-438.212 513.94,-434.112 519.019,-443.409 523.709,-438.212"/>
</g>
<!-- Node190 -->
<g id="node8" class="node"><title>Node190</title>
<g id="a_node8"><a xlink:href="../../d1/dc3/namespacemom__dynamics__split__rk2.html#a3bae09afc9136333ab281704dc9d9415" target="_top" xlink:title="This subroutine initializes all of the variables that are used by this dynamic core, including diagnostics and the cpu clocks. ">
<polygon fill="white" stroke="black" points="609,-458 609,-499 699,-499 699,-458 609,-458"/>
<text text-anchor="start" x="617" y="-487" font-family="Helvetica,sans-Serif" font-size="10.00">mom_dynamics_split</text>
<text text-anchor="start" x="617" y="-476" font-family="Helvetica,sans-Serif" font-size="10.00">_rk2::initialize_dyn</text>
<text text-anchor="middle" x="654" y="-465" font-family="Helvetica,sans-Serif" font-size="10.00">_split_rk2</text>
</a>
</g>
</g>
<!-- Node188&#45;&gt;Node190 -->
<g id="edge7" class="edge"><title>Node188&#45;&gt;Node190</title>
<path fill="none" stroke="midnightblue" d="M539.322,-437.439C560.158,-444.965 586.591,-454.513 608.723,-462.507"/>
<polygon fill="midnightblue" stroke="midnightblue" points="540.478,-434.135 529.883,-434.03 538.1,-440.719 540.478,-434.135"/>
</g>
<!-- Node191 -->
<g id="node9" class="node"><title>Node191</title>
<g id="a_node9"><a xlink:href="../../d7/d44/namespacemom__dynamics__unsplit.html#ac557a7a55605cba7a17074f6375107f6" target="_top" xlink:title="mom_dynamics_unsplit\l::initialize_dyn_unsplit">
<polygon fill="white" stroke="black" points="604.5,-409.5 604.5,-439.5 703.5,-439.5 703.5,-409.5 604.5,-409.5"/>
<text text-anchor="start" x="612.5" y="-427.5" font-family="Helvetica,sans-Serif" font-size="10.00">mom_dynamics_unsplit</text>
<text text-anchor="middle" x="654" y="-416.5" font-family="Helvetica,sans-Serif" font-size="10.00">::initialize_dyn_unsplit</text>
</a>
</g>
</g>
<!-- Node188&#45;&gt;Node191 -->
<g id="edge8" class="edge"><title>Node188&#45;&gt;Node191</title>
<path fill="none" stroke="midnightblue" d="M578.226,-424.5C587.128,-424.5 596.03,-424.5 604.428,-424.5"/>
<polygon fill="midnightblue" stroke="midnightblue" points="578.203,-421 568.203,-424.5 578.203,-428 578.203,-421"/>
</g>
<!-- Node192 -->
<g id="node10" class="node"><title>Node192</title>
<g id="a_node10"><a xlink:href="../../d7/da4/namespacemom__dynamics__unsplit__rk2.html#a7be251effa3bf4a236ea3feda6fc6d91" target="_top" xlink:title="mom_dynamics_unsplit\l_rk2::initialize_dyn\l_unsplit_rk2">
<polygon fill="white" stroke="black" points="604.5,-350 604.5,-391 703.5,-391 703.5,-350 604.5,-350"/>
<text text-anchor="start" x="612.5" y="-379" font-family="Helvetica,sans-Serif" font-size="10.00">mom_dynamics_unsplit</text>
<text text-anchor="start" x="612.5" y="-368" font-family="Helvetica,sans-Serif" font-size="10.00">_rk2::initialize_dyn</text>
<text text-anchor="middle" x="654" y="-357" font-family="Helvetica,sans-Serif" font-size="10.00">_unsplit_rk2</text>
</a>
</g>
</g>
<!-- Node188&#45;&gt;Node192 -->
<g id="edge9" class="edge"><title>Node188&#45;&gt;Node192</title>
<path fill="none" stroke="midnightblue" d="M539.551,-411.478C558.956,-404.469 583.166,-395.724 604.232,-388.115"/>
<polygon fill="midnightblue" stroke="midnightblue" points="538.1,-408.281 529.883,-414.97 540.478,-414.865 538.1,-408.281"/>
</g>
<!-- Node194 -->
<g id="node12" class="node"><title>Node194</title>
<g id="a_node12"><a xlink:href="../../d0/dbf/namespacemom__diag__to__z.html#a90526b2f59f94c6af2f525a221029772" target="_top" xlink:title="mom_diag_to_z::ocean\l_register_diag_with_z">
<polygon fill="white" stroke="black" points="604,-301.5 604,-331.5 704,-331.5 704,-301.5 604,-301.5"/>
<text text-anchor="start" x="612" y="-319.5" font-family="Helvetica,sans-Serif" font-size="10.00">mom_diag_to_z::ocean</text>
<text text-anchor="middle" x="654" y="-308.5" font-family="Helvetica,sans-Serif" font-size="10.00">_register_diag_with_z</text>
</a>
</g>
</g>
<!-- Node193&#45;&gt;Node194 -->
<g id="edge11" class="edge"><title>Node193&#45;&gt;Node194</title>
<path fill="none" stroke="midnightblue" d="M560.187,-336.366C574.596,-333.282 589.957,-329.994 603.95,-326.999"/>
<polygon fill="midnightblue" stroke="midnightblue" points="559.438,-332.947 550.393,-338.463 560.904,-339.792 559.438,-332.947"/>
</g>
<!-- Node198&#45;&gt;Node186 -->
<g id="edge16" class="edge"><title>Node198&#45;&gt;Node186</title>
<path fill="none" stroke="midnightblue" d="M569.423,-113.5C582.971,-113.5 596.913,-113.5 609.432,-113.5"/>
<polygon fill="midnightblue" stroke="midnightblue" points="569.168,-110 559.168,-113.5 569.168,-117 569.168,-110"/>
</g>
<!-- Node201 -->
<g id="node19" class="node"><title>Node201</title>
<g id="a_node19"><a xlink:href="../../df/d1a/namespacemom__obsolete__diagnostics.html#a137ff7cb882b715d0ccf915fef52386c" target="_top" xlink:title="Fakes a register of a diagnostic to find out if an obsolete parameter appears in the diag_table...">
<polygon fill="white" stroke="black" points="275,-49.5 275,-79.5 388,-79.5 388,-49.5 275,-49.5"/>
<text text-anchor="start" x="283" y="-67.5" font-family="Helvetica,sans-Serif" font-size="10.00">mom_obsolete_diagnostics</text>
<text text-anchor="middle" x="331.5" y="-56.5" font-family="Helvetica,sans-Serif" font-size="10.00">::found_in_diagtable</text>
</a>
</g>
</g>
<!-- Node200&#45;&gt;Node201 -->
<g id="edge19" class="edge"><title>Node200&#45;&gt;Node201</title>
<path fill="none" stroke="midnightblue" d="M236.399,-64.5C248.98,-64.5 262.296,-64.5 274.828,-64.5"/>
<polygon fill="midnightblue" stroke="midnightblue" points="236.037,-61.0001 226.037,-64.5 236.037,-68.0001 236.037,-61.0001"/>
</g>
<!-- Node203 -->
<g id="node21" class="node"><title>Node203</title>
<g id="a_node21"><a xlink:href="../../de/d5f/namespacemom__geothermal.html#a0abbb7953860e3357bbd3d35f46fd851" target="_top" xlink:title="mom_geothermal::geothermal_init">
<polygon fill="white" stroke="black" points="262,-9 262,-28 401,-28 401,-9 262,-9"/>
<text text-anchor="middle" x="331.5" y="-16" font-family="Helvetica,sans-Serif" font-size="10.00">mom_geothermal::geothermal_init</text>
</a>
</g>
</g>
<!-- Node200&#45;&gt;Node203 -->
<g id="edge22" class="edge"><title>Node200&#45;&gt;Node203</title>
<path fill="none" stroke="midnightblue" d="M235.709,-47.3769C257.158,-40.8425 280.835,-33.6297 299.16,-28.0474"/>
<polygon fill="midnightblue" stroke="midnightblue" points="234.583,-44.0608 226.037,-50.3231 236.623,-50.757 234.583,-44.0608"/>
</g>
<!-- Node202 -->
<g id="node20" class="node"><title>Node202</title>
<g id="a_node20"><a xlink:href="../../df/d1a/namespacemom__obsolete__diagnostics.html#ad5e890c09abd2c650beb9ac36bbb49b4" target="_top" xlink:title="Scan through the diag_table searching for obsolete parameters and issue informational messages and op...">
<polygon fill="white" stroke="black" points="439.5,-49.5 439.5,-79.5 565.5,-79.5 565.5,-49.5 439.5,-49.5"/>
<text text-anchor="start" x="447.5" y="-67.5" font-family="Helvetica,sans-Serif" font-size="10.00">mom_obsolete_diagnostics</text>
<text text-anchor="middle" x="502.5" y="-56.5" font-family="Helvetica,sans-Serif" font-size="10.00">::register_obsolete_diagnostics</text>
</a>
</g>
</g>
<!-- Node201&#45;&gt;Node202 -->
<g id="edge20" class="edge"><title>Node201&#45;&gt;Node202</title>
<path fill="none" stroke="midnightblue" d="M398.442,-64.5C411.898,-64.5 426.015,-64.5 439.334,-64.5"/>
<polygon fill="midnightblue" stroke="midnightblue" points="398.305,-61.0001 388.305,-64.5 398.305,-68.0001 398.305,-61.0001"/>
</g>
<!-- Node202&#45;&gt;Node186 -->
<g id="edge21" class="edge"><title>Node202&#45;&gt;Node186</title>
<path fill="none" stroke="midnightblue" d="M559.14,-82.7364C581.094,-89.9322 605.406,-97.9008 623.785,-103.925"/>
<polygon fill="midnightblue" stroke="midnightblue" points="560.168,-79.3902 549.575,-79.6014 557.987,-86.042 560.168,-79.3902"/>
</g>
<!-- Node204 -->
<g id="node22" class="node"><title>Node204</title>
<g id="a_node22"><a xlink:href="../../d8/df3/namespacemom__diabatic__driver.html#afa0b30bd6f0e080bcacbd6dcb15ff990" target="_top" xlink:title="This routine initializes the diabatic driver module. ">
<polygon fill="white" stroke="black" points="457,-0.5 457,-30.5 548,-30.5 548,-0.5 457,-0.5"/>
<text text-anchor="start" x="465" y="-18.5" font-family="Helvetica,sans-Serif" font-size="10.00">mom_diabatic_driver</text>
<text text-anchor="middle" x="502.5" y="-7.5" font-family="Helvetica,sans-Serif" font-size="10.00">::diabatic_driver_init</text>
</a>
</g>
</g>
<!-- Node203&#45;&gt;Node204 -->
<g id="edge23" class="edge"><title>Node203&#45;&gt;Node204</title>
<path fill="none" stroke="midnightblue" d="M411.369,-17.1C426.873,-16.8247 442.632,-16.545 456.544,-16.298"/>
<polygon fill="midnightblue" stroke="midnightblue" points="411.175,-13.6028 401.239,-17.2798 411.299,-20.6017 411.175,-13.6028"/>
</g>
</g>
</svg>
