<?xml version="1.0" encoding="UTF-8" standalone="no"?>
<!DOCTYPE svg PUBLIC "-//W3C//DTD SVG 1.1//EN"
 "http://www.w3.org/Graphics/SVG/1.1/DTD/svg11.dtd">
<!-- Generated by graphviz version 2.38.0 (20140413.2041)
 -->
<!-- Title: mom_diag_mediator::diag_mediator_init Pages: 1 -->
<svg width="472pt" height="88pt"
 viewBox="0.00 0.00 472.00 87.50" xmlns="http://www.w3.org/2000/svg" xmlns:xlink="http://www.w3.org/1999/xlink">
<g id="graph0" class="graph" transform="scale(1 1) rotate(0) translate(4 83.5)">
<title>mom_diag_mediator::diag_mediator_init</title>
<polygon fill="white" stroke="none" points="-4,4 -4,-83.5 468,-83.5 468,4 -4,4"/>
<!-- Node138 -->
<g id="node1" class="node"><title>Node138</title>
<polygon fill="#bfbfbf" stroke="black" points="0,-33 0,-63 95,-63 95,-33 0,-33"/>
<text text-anchor="start" x="8" y="-51" font-family="Helvetica,sans-Serif" font-size="10.00">mom_diag_mediator::</text>
<text text-anchor="middle" x="47.5" y="-40" font-family="Helvetica,sans-Serif" font-size="10.00">diag_mediator_init</text>
</g>
<!-- Node139 -->
<g id="node2" class="node"><title>Node139</title>
<g id="a_node2"><a xlink:href="../../d0/de6/namespacemom__error__handler.html#ad5f00a53059c72fe2332d1436c80ca71" target="_top" xlink:title="mom_error_handler::\lis_root_pe">
<polygon fill="white" stroke="black" points="371,-49 371,-79 464,-79 464,-49 371,-49"/>
<text text-anchor="start" x="379" y="-67" font-family="Helvetica,sans-Serif" font-size="10.00">mom_error_handler::</text>
<text text-anchor="middle" x="417.5" y="-56" font-family="Helvetica,sans-Serif" font-size="10.00">is_root_pe</text>
</a>
</g>
</g>
<!-- Node138&#45;&gt;Node139 -->
<g id="edge1" class="edge"><title>Node138&#45;&gt;Node139</title>
<path fill="none" stroke="midnightblue" d="M95.1188,-54.7916C106.815,-56.3368 119.352,-57.8576 131,-59 221.287,-67.8552 244.287,-67.1129 335,-66 343.341,-65.8977 352.161,-65.7365 360.798,-65.5489"/>
<polygon fill="midnightblue" stroke="midnightblue" points="360.896,-69.0477 370.813,-65.3185 360.735,-62.0495 360.896,-69.0477"/>
</g>
<!-- Node140 -->
<g id="node3" class="node"><title>Node140</title>
<g id="a_node3"><a xlink:href="../../d0/de6/namespacemom__error__handler.html#a460cfb79a06c29fc249952c2a3710d67" target="_top" xlink:title="mom_error_handler::\lmom_error">
<polygon fill="white" stroke="black" points="242,-27 242,-57 335,-57 335,-27 242,-27"/>
<text text-anchor="start" x="250" y="-45" font-family="Helvetica,sans-Serif" font-size="10.00">mom_error_handler::</text>
<text text-anchor="middle" x="288.5" y="-34" font-family="Helvetica,sans-Serif" font-size="10.00">mom_error</text>
</a>
</g>
</g>
<!-- Node138&#45;&gt;Node140 -->
<g id="edge2" class="edge"><title>Node138&#45;&gt;Node140</title>
<path fill="none" stroke="midnightblue" d="M95.149,-46.8289C134.222,-45.848 190.098,-44.4452 231.567,-43.4042"/>
<polygon fill="midnightblue" stroke="midnightblue" points="231.872,-46.8977 241.781,-43.1478 231.696,-39.8999 231.872,-46.8977"/>
</g>
<!-- Node141 -->
<g id="node4" class="node"><title>Node141</title>
<g id="a_node4"><a xlink:href="../../d5/d89/namespacemom__io.html#ae7dd72cf77d5179d387ba16153af1b80" target="_top" xlink:title="Returns a directory name that is terminated with a &quot;/&quot; or &quot;./&quot; if the argument is an empty string...">
<polygon fill="white" stroke="black" points="131,-0.5 131,-19.5 206,-19.5 206,-0.5 131,-0.5"/>
<text text-anchor="middle" x="168.5" y="-7.5" font-family="Helvetica,sans-Serif" font-size="10.00">mom_io::slasher</text>
</a>
</g>
</g>
<!-- Node138&#45;&gt;Node141 -->
<g id="edge4" class="edge"><title>Node138&#45;&gt;Node141</title>
<path fill="none" stroke="midnightblue" d="M95.1904,-33.0905C106.046,-29.6239 117.499,-25.9666 128.009,-22.6104"/>
<polygon fill="midnightblue" stroke="midnightblue" points="129.286,-25.8771 137.747,-19.5009 127.156,-19.2088 129.286,-25.8771"/>
</g>
<!-- Node140&#45;&gt;Node139 -->
<g id="edge3" class="edge"><title>Node140&#45;&gt;Node139</title>
<path fill="none" stroke="midnightblue" d="M335.35,-49.9425C343.623,-51.3756 352.33,-52.8839 360.846,-54.3591"/>
<polygon fill="midnightblue" stroke="midnightblue" points="360.267,-57.8108 370.717,-56.0692 361.462,-50.9136 360.267,-57.8108"/>
</g>
<!-- Node141&#45;&gt;Node140 -->
<g id="edge5" class="edge"><title>Node141&#45;&gt;Node140</title>
<path fill="none" stroke="midnightblue" d="M204.584,-19.5144C213.257,-21.8663 222.759,-24.4432 232.138,-26.9867"/>
<polygon fill="midnightblue" stroke="midnightblue" points="231.26,-30.375 241.828,-29.6144 233.093,-23.619 231.26,-30.375"/>
</g>
</g>
</svg>
