<?xml version="1.0" encoding="UTF-8" standalone="no"?>
<!DOCTYPE svg PUBLIC "-//W3C//DTD SVG 1.1//EN"
 "http://www.w3.org/Graphics/SVG/1.1/DTD/svg11.dtd">
<!-- Generated by graphviz version 2.38.0 (20140413.2041)
 -->
<!-- Title: mom_diag_mediator::is_b_axes Pages: 1 -->
<!--zoomable 467 -->
<svg id="main" version="1.1" xmlns="http://www.w3.org/2000/svg" xmlns:xlink="http://www.w3.org/1999/xlink" xml:space="preserve" onload="init(evt)">
<style type="text/css"><![CDATA[
.edge:hover path { stroke: red; }
.edge:hover polygon { stroke: red; fill: red; }
]]></style>
<script type="text/javascript"><![CDATA[
var edges = document.getElementsByTagName('g');
if (edges && edges.length) {
  for (var i=0;i<edges.length;i++) {
    if (edges[i].id.substr(0,4)=='edge') {
      edges[i].setAttribute('class','edge');
    }
  }
}
]]></script>
        <defs>
                <circle id="rim" cx="0" cy="0" r="7"/>
                <circle id="rim2" cx="0" cy="0" r="3.5"/>
                <g id="zoomPlus">
                        <use xlink:href="#rim" fill="#404040">
                                <set attributeName="fill" to="#808080" begin="zoomplus.mouseover" end="zoomplus.mouseout"/>
                        </use>
                        <path d="M-4,0h8M0,-4v8" fill="none" stroke="white" stroke-width="1.5" pointer-events="none"/>
                </g>
                <g id="zoomMin">
                        <use xlink:href="#rim" fill="#404040">
                                <set attributeName="fill" to="#808080" begin="zoomminus.mouseover" end="zoomminus.mouseout"/>
                        </use>
                        <path d="M-4,0h8" fill="none" stroke="white" stroke-width="1.5" pointer-events="none"/>
                </g>
                <g id="dirArrow">
                        <path fill="none" stroke="white" stroke-width="1.5" d="M0,-3.0v7 M-2.5,-0.5L0,-3.0L2.5,-0.5"/>
                </g>
               <g id="resetDef">
                       <use xlink:href="#rim2" fill="#404040">
                               <set attributeName="fill" to="#808080" begin="reset.mouseover" end="reset.mouseout"/>
                       </use>
               </g>
        </defs>

<script type="text/javascript">
var viewWidth = 629;
var viewHeight = 467;
var sectionId = 'dynsection-20';
</script>
<script xlink:href="../../svgpan.js"/>
<svg id="graph" class="graph">
<g id="viewport">
<title>mom_diag_mediator::is_b_axes</title>
<polygon fill="white" stroke="none" points="-4,4 -4,-463 625,-463 625,4 -4,4"/>
<!-- Node212 -->
<g id="node1" class="node"><title>Node212</title>
<polygon fill="#bfbfbf" stroke="black" points="0,-137.5 0,-167.5 95,-167.5 95,-137.5 0,-137.5"/>
<text text-anchor="start" x="8" y="-155.5" font-family="Helvetica,sans-Serif" font-size="10.00">mom_diag_mediator::</text>
<text text-anchor="middle" x="47.5" y="-144.5" font-family="Helvetica,sans-Serif" font-size="10.00">is_b_axes</text>
</g>
<!-- Node213 -->
<g id="node2" class="node"><title>Node213</title>
<g id="a_node2"><a xlink:href="../../d9/d06/namespacemom__diag__mediator.html#a3fd333aff691a76b05dd8d5bdc315bbb" target="_top" xlink:title="mom_diag_mediator::\lregister_diag_field">
<polygon fill="white" stroke="black" points="131,-137.5 131,-167.5 226,-167.5 226,-137.5 131,-137.5"/>
<text text-anchor="start" x="139" y="-155.5" font-family="Helvetica,sans-Serif" font-size="10.00">mom_diag_mediator::</text>
<text text-anchor="middle" x="178.5" y="-144.5" font-family="Helvetica,sans-Serif" font-size="10.00">register_diag_field</text>
</a>
</g>
</g>
<!-- Node212&#45;&gt;Node213 -->
<g id="edge1" class="edge"><title>Node212&#45;&gt;Node213</title>
<path fill="none" stroke="midnightblue" d="M105.101,-152.5C113.752,-152.5 122.596,-152.5 130.996,-152.5"/>
<polygon fill="midnightblue" stroke="midnightblue" points="105.072,-149 95.072,-152.5 105.072,-156 105.072,-149"/>
</g>
<!-- Node214 -->
<g id="node3" class="node"><title>Node214</title>
<g id="a_node3"><a xlink:href="../../d7/d73/namespacemom__ale.html#a994efb3c62fc5f63da2617f29cbd6be1" target="_top" xlink:title="Initialize diagnostics for the ALE module. ">
<polygon fill="white" stroke="black" points="279.5,-186.5 279.5,-216.5 375.5,-216.5 375.5,-186.5 279.5,-186.5"/>
<text text-anchor="start" x="287.5" y="-204.5" font-family="Helvetica,sans-Serif" font-size="10.00">mom_ale::ale_register</text>
<text text-anchor="middle" x="327.5" y="-193.5" font-family="Helvetica,sans-Serif" font-size="10.00">_diags</text>
</a>
</g>
</g>
<!-- Node213&#45;&gt;Node214 -->
<g id="edge2" class="edge"><title>Node213&#45;&gt;Node214</title>
<path fill="none" stroke="midnightblue" d="M234.716,-170.905C250.097,-176.032 266.618,-181.539 281.345,-186.448"/>
<polygon fill="midnightblue" stroke="midnightblue" points="235.398,-167.443 224.804,-167.601 233.184,-174.084 235.398,-167.443"/>
</g>
<!-- Node217 -->
<g id="node6" class="node"><title>Node217</title>
<g id="a_node6"><a xlink:href="../../d8/dd2/namespacemom__coriolisadv.html#ad3ce07f23ce7b484a5a9e0c0abe8b1cd" target="_top" xlink:title="mom_coriolisadv::coriolisadv_init">
<polygon fill="white" stroke="black" points="262,-320 262,-339 393,-339 393,-320 262,-320"/>
<text text-anchor="middle" x="327.5" y="-327" font-family="Helvetica,sans-Serif" font-size="10.00">mom_coriolisadv::coriolisadv_init</text>
</a>
</g>
</g>
<!-- Node213&#45;&gt;Node217 -->
<g id="edge5" class="edge"><title>Node213&#45;&gt;Node217</title>
<path fill="none" stroke="midnightblue" d="M193.011,-176.392C208.09,-202.028 234.068,-243.267 262,-274.5 277.892,-292.271 299.5,-309.575 313.226,-319.887"/>
<polygon fill="midnightblue" stroke="midnightblue" points="196.012,-174.592 187.964,-167.701 189.959,-178.106 196.012,-174.592"/>
</g>
<!-- Node222 -->
<g id="node11" class="node"><title>Node222</title>
<g id="a_node11"><a xlink:href="../../d9/d06/namespacemom__diag__mediator.html#a21267e25d12fa3e5d2540d2a299d2d2c" target="_top" xlink:title="Registers a diagnostic using the information encapsulated in the vardesc type argument and returns an...">
<polygon fill="white" stroke="black" points="280,-235.5 280,-265.5 375,-265.5 375,-235.5 280,-235.5"/>
<text text-anchor="start" x="288" y="-253.5" font-family="Helvetica,sans-Serif" font-size="10.00">mom_diag_mediator::</text>
<text text-anchor="middle" x="327.5" y="-242.5" font-family="Helvetica,sans-Serif" font-size="10.00">ocean_register_diag</text>
</a>
</g>
</g>
<!-- Node213&#45;&gt;Node222 -->
<g id="edge10" class="edge"><title>Node213&#45;&gt;Node222</title>
<path fill="none" stroke="midnightblue" d="M200.566,-174.987C216.301,-190.77 238.98,-211.479 262,-225.5 268.052,-229.186 274.74,-232.501 281.45,-235.42"/>
<polygon fill="midnightblue" stroke="midnightblue" points="202.921,-172.39 193.428,-167.686 197.916,-177.283 202.921,-172.39"/>
</g>
<!-- Node224 -->
<g id="node13" class="node"><title>Node224</title>
<g id="a_node13"><a xlink:href="../../d6/d07/namespacemom__diffconvection.html#ac36d9d7fd69e4422e7de01242094ff34" target="_top" xlink:title="mom_diffconvection\l::diffconvection_init">
<polygon fill="white" stroke="black" points="284,-137.5 284,-167.5 371,-167.5 371,-137.5 284,-137.5"/>
<text text-anchor="start" x="292" y="-155.5" font-family="Helvetica,sans-Serif" font-size="10.00">mom_diffconvection</text>
<text text-anchor="middle" x="327.5" y="-144.5" font-family="Helvetica,sans-Serif" font-size="10.00">::diffconvection_init</text>
</a>
</g>
</g>
<!-- Node213&#45;&gt;Node224 -->
<g id="edge12" class="edge"><title>Node213&#45;&gt;Node224</title>
<path fill="none" stroke="midnightblue" d="M236.211,-152.5C252.021,-152.5 268.927,-152.5 283.784,-152.5"/>
<polygon fill="midnightblue" stroke="midnightblue" points="236.012,-149 226.012,-152.5 236.012,-156 236.012,-149"/>
</g>
<!-- Node225 -->
<g id="node14" class="node"><title>Node225</title>
<g id="a_node14"><a xlink:href="../../d0/d77/namespacemom__int__tide__input.html#a29a707637da633ccee155b53557b5f17" target="_top" xlink:title="mom_int_tide_input\l::int_tide_input_init">
<polygon fill="white" stroke="black" points="284.5,-88.5 284.5,-118.5 370.5,-118.5 370.5,-88.5 284.5,-88.5"/>
<text text-anchor="start" x="292.5" y="-106.5" font-family="Helvetica,sans-Serif" font-size="10.00">mom_int_tide_input</text>
<text text-anchor="middle" x="327.5" y="-95.5" font-family="Helvetica,sans-Serif" font-size="10.00">::int_tide_input_init</text>
</a>
</g>
</g>
<!-- Node213&#45;&gt;Node225 -->
<g id="edge13" class="edge"><title>Node213&#45;&gt;Node225</title>
<path fill="none" stroke="midnightblue" d="M234.314,-134.229C250.775,-128.742 268.576,-122.808 284.105,-117.632"/>
<polygon fill="midnightblue" stroke="midnightblue" points="233.184,-130.916 224.804,-137.399 235.398,-137.557 233.184,-130.916"/>
</g>
<!-- Node226 -->
<g id="node15" class="node"><title>Node226</title>
<g id="a_node15"><a xlink:href="../../d5/d08/namespacemom__kpp.html#a9c834424b6e067e280928db3700ec77e" target="_top" xlink:title="Initialize the CVmix KPP module and set up diagnostics Returns True if KPP is to be used...">
<polygon fill="white" stroke="black" points="286,-50 286,-69 369,-69 369,-50 286,-50"/>
<text text-anchor="middle" x="327.5" y="-57" font-family="Helvetica,sans-Serif" font-size="10.00">mom_kpp::kpp_init</text>
</a>
</g>
</g>
<!-- Node213&#45;&gt;Node226 -->
<g id="edge14" class="edge"><title>Node213&#45;&gt;Node226</title>
<path fill="none" stroke="midnightblue" d="M199.599,-129.69C215.155,-113.319 238.029,-91.8707 262,-78.5 269.34,-74.4056 277.654,-71.1114 285.812,-68.4911"/>
<polygon fill="midnightblue" stroke="midnightblue" points="196.811,-127.549 192.578,-137.261 201.944,-132.309 196.811,-127.549"/>
</g>
<!-- Node227 -->
<g id="node16" class="node"><title>Node227</title>
<g id="a_node16"><a xlink:href="../../d8/da4/namespacemom__neutral__diffusion.html#a87cf821c52ac1111493d4168f0a91d17" target="_top" xlink:title="Diagnostic handles for neutral diffusion tendencies. ">
<polygon fill="white" stroke="black" points="271,-0.5 271,-30.5 384,-30.5 384,-0.5 271,-0.5"/>
<text text-anchor="start" x="279" y="-18.5" font-family="Helvetica,sans-Serif" font-size="10.00">mom_neutral_diffusion</text>
<text text-anchor="middle" x="327.5" y="-7.5" font-family="Helvetica,sans-Serif" font-size="10.00">::neutral_diffusion_diag_init</text>
</a>
</g>
</g>
<!-- Node213&#45;&gt;Node227 -->
<g id="edge15" class="edge"><title>Node213&#45;&gt;Node227</title>
<path fill="none" stroke="midnightblue" d="M191.832,-128.436C205.786,-103.354 230.7,-64.435 262,-40.5 266.961,-36.7065 272.567,-33.4226 278.353,-30.5978"/>
<polygon fill="midnightblue" stroke="midnightblue" points="188.711,-126.85 187.03,-137.311 194.867,-130.181 188.711,-126.85"/>
</g>
<!-- Node215 -->
<g id="node4" class="node"><title>Node215</title>
<g id="a_node4"><a xlink:href="../../da/d01/namespacemom.html#afebdc0103ad9cbe0ed4a54e522dc4104" target="_top" xlink:title="This subroutine initializes MOM. ">
<polygon fill="white" stroke="black" points="434.5,-66 434.5,-85 523.5,-85 523.5,-66 434.5,-66"/>
<text text-anchor="middle" x="479" y="-73" font-family="Helvetica,sans-Serif" font-size="10.00">mom::initialize_mom</text>
</a>
</g>
</g>
<!-- Node214&#45;&gt;Node215 -->
<g id="edge3" class="edge"><title>Node214&#45;&gt;Node215</title>
<path fill="none" stroke="midnightblue" d="M384.666,-181.802C387.563,-180.151 390.362,-178.385 393,-176.5 429.546,-150.382 459.956,-105.053 472.204,-85.2396"/>
<polygon fill="midnightblue" stroke="midnightblue" points="383.023,-178.711 375.746,-186.411 386.236,-184.93 383.023,-178.711"/>
</g>
<!-- Node216 -->
<g id="node5" class="node"><title>Node216</title>
<g id="a_node5"><a xlink:href="../../de/dbc/MOM__driver_8F90.html#a08fffeb2d8e8acbf9ed4609be6d258c6" target="_top" xlink:title="mom_main">
<polygon fill="white" stroke="black" points="565,-66 565,-85 621,-85 621,-66 565,-66"/>
<text text-anchor="middle" x="593" y="-73" font-family="Helvetica,sans-Serif" font-size="10.00">mom_main</text>
</a>
</g>
</g>
<!-- Node215&#45;&gt;Node216 -->
<g id="edge4" class="edge"><title>Node215&#45;&gt;Node216</title>
<path fill="none" stroke="midnightblue" d="M533.845,-75.5C544.594,-75.5 555.449,-75.5 564.823,-75.5"/>
<polygon fill="midnightblue" stroke="midnightblue" points="533.623,-72.0001 523.623,-75.5 533.623,-79.0001 533.623,-72.0001"/>
</g>
<!-- Node218 -->
<g id="node7" class="node"><title>Node218</title>
<g id="a_node7"><a xlink:href="../../db/dd4/namespacemom__dynamics__legacy__split.html#aef55fe2e12672940edbd2dc5d7e72fd7" target="_top" xlink:title="mom_dynamics_legacy\l_split::initialize_dyn\l_legacy_split">
<polygon fill="white" stroke="black" points="429.5,-309 429.5,-350 528.5,-350 528.5,-309 429.5,-309"/>
<text text-anchor="start" x="437.5" y="-338" font-family="Helvetica,sans-Serif" font-size="10.00">mom_dynamics_legacy</text>
<text text-anchor="start" x="437.5" y="-327" font-family="Helvetica,sans-Serif" font-size="10.00">_split::initialize_dyn</text>
<text text-anchor="middle" x="479" y="-316" font-family="Helvetica,sans-Serif" font-size="10.00">_legacy_split</text>
</a>
</g>
</g>
<!-- Node217&#45;&gt;Node218 -->
<g id="edge6" class="edge"><title>Node217&#45;&gt;Node218</title>
<path fill="none" stroke="midnightblue" d="M403.226,-329.5C412.128,-329.5 421.03,-329.5 429.428,-329.5"/>
<polygon fill="midnightblue" stroke="midnightblue" points="403.203,-326 393.203,-329.5 403.203,-333 403.203,-326"/>
</g>
<!-- Node219 -->
<g id="node8" class="node"><title>Node219</title>
<g id="a_node8"><a xlink:href="../../d1/dc3/namespacemom__dynamics__split__rk2.html#a3bae09afc9136333ab281704dc9d9415" target="_top" xlink:title="This subroutine initializes all of the variables that are used by this dynamic core, including diagnostics and the cpu clocks. ">
<polygon fill="white" stroke="black" points="434,-249 434,-290 524,-290 524,-249 434,-249"/>
<text text-anchor="start" x="442" y="-278" font-family="Helvetica,sans-Serif" font-size="10.00">mom_dynamics_split</text>
<text text-anchor="start" x="442" y="-267" font-family="Helvetica,sans-Serif" font-size="10.00">_rk2::initialize_dyn</text>
<text text-anchor="middle" x="479" y="-256" font-family="Helvetica,sans-Serif" font-size="10.00">_split_rk2</text>
</a>
</g>
</g>
<!-- Node217&#45;&gt;Node219 -->
<g id="edge7" class="edge"><title>Node217&#45;&gt;Node219</title>
<path fill="none" stroke="midnightblue" d="M361.755,-316.154C383.022,-307.618 410.85,-296.45 433.946,-287.181"/>
<polygon fill="midnightblue" stroke="midnightblue" points="360.166,-313.02 352.189,-319.993 362.773,-319.516 360.166,-313.02"/>
</g>
<!-- Node220 -->
<g id="node9" class="node"><title>Node220</title>
<g id="a_node9"><a xlink:href="../../d7/d44/namespacemom__dynamics__unsplit.html#ac557a7a55605cba7a17074f6375107f6" target="_top" xlink:title="mom_dynamics_unsplit\l::initialize_dyn_unsplit">
<polygon fill="white" stroke="black" points="429.5,-428.5 429.5,-458.5 528.5,-458.5 528.5,-428.5 429.5,-428.5"/>
<text text-anchor="start" x="437.5" y="-446.5" font-family="Helvetica,sans-Serif" font-size="10.00">mom_dynamics_unsplit</text>
<text text-anchor="middle" x="479" y="-435.5" font-family="Helvetica,sans-Serif" font-size="10.00">::initialize_dyn_unsplit</text>
</a>
</g>
</g>
<!-- Node217&#45;&gt;Node220 -->
<g id="edge8" class="edge"><title>Node217&#45;&gt;Node220</title>
<path fill="none" stroke="midnightblue" d="M344.438,-346.343C363.334,-365.674 396.392,-397.531 429,-419.5 433.714,-422.676 438.909,-425.681 444.102,-428.422"/>
<polygon fill="midnightblue" stroke="midnightblue" points="346.935,-343.891 337.472,-339.126 341.898,-348.752 346.935,-343.891"/>
</g>
<!-- Node221 -->
<g id="node10" class="node"><title>Node221</title>
<g id="a_node10"><a xlink:href="../../d7/da4/namespacemom__dynamics__unsplit__rk2.html#a7be251effa3bf4a236ea3feda6fc6d91" target="_top" xlink:title="mom_dynamics_unsplit\l_rk2::initialize_dyn\l_unsplit_rk2">
<polygon fill="white" stroke="black" points="429.5,-369 429.5,-410 528.5,-410 528.5,-369 429.5,-369"/>
<text text-anchor="start" x="437.5" y="-398" font-family="Helvetica,sans-Serif" font-size="10.00">mom_dynamics_unsplit</text>
<text text-anchor="start" x="437.5" y="-387" font-family="Helvetica,sans-Serif" font-size="10.00">_rk2::initialize_dyn</text>
<text text-anchor="middle" x="479" y="-376" font-family="Helvetica,sans-Serif" font-size="10.00">_unsplit_rk2</text>
</a>
</g>
</g>
<!-- Node217&#45;&gt;Node221 -->
<g id="edge9" class="edge"><title>Node217&#45;&gt;Node221</title>
<path fill="none" stroke="midnightblue" d="M361.73,-342.836C381.612,-350.816 407.233,-361.099 429.362,-369.98"/>
<polygon fill="midnightblue" stroke="midnightblue" points="362.773,-339.484 352.189,-339.007 360.166,-345.98 362.773,-339.484"/>
</g>
<!-- Node223 -->
<g id="node12" class="node"><title>Node223</title>
<g id="a_node12"><a xlink:href="../../d0/dbf/namespacemom__diag__to__z.html#a90526b2f59f94c6af2f525a221029772" target="_top" xlink:title="mom_diag_to_z::ocean\l_register_diag_with_z">
<polygon fill="white" stroke="black" points="429,-200.5 429,-230.5 529,-230.5 529,-200.5 429,-200.5"/>
<text text-anchor="start" x="437" y="-218.5" font-family="Helvetica,sans-Serif" font-size="10.00">mom_diag_to_z::ocean</text>
<text text-anchor="middle" x="479" y="-207.5" font-family="Helvetica,sans-Serif" font-size="10.00">_register_diag_with_z</text>
</a>
</g>
</g>
<!-- Node222&#45;&gt;Node223 -->
<g id="edge11" class="edge"><title>Node222&#45;&gt;Node223</title>
<path fill="none" stroke="midnightblue" d="M385.187,-237.229C399.596,-233.855 414.957,-230.259 428.95,-226.983"/>
<polygon fill="midnightblue" stroke="midnightblue" points="384.331,-233.834 375.393,-239.522 385.927,-240.65 384.331,-233.834"/>
</g>
<!-- Node227&#45;&gt;Node215 -->
<g id="edge16" class="edge"><title>Node227&#45;&gt;Node215</title>
<path fill="none" stroke="midnightblue" d="M377.276,-34.2813C382.589,-36.364 387.912,-38.4666 393,-40.5 414.044,-48.9097 437.895,-58.7586 454.964,-65.8626"/>
<polygon fill="midnightblue" stroke="midnightblue" points="378.365,-30.9492 367.777,-30.5733 375.819,-37.4701 378.365,-30.9492"/>
</g>
</g>
</svg>
        <g id="navigator" transform="translate(0 0)" fill="#404254">
                <rect fill="#f2f5e9" fill-opacity="0.5" stroke="#606060" stroke-width=".5" x="0" y="0" width="60" height="60"/>
                <use id="zoomplus" xlink:href="#zoomPlus" x="17" y="9" onmousedown="handleZoom(evt,'in')"/>
                <use id="zoomminus" xlink:href="#zoomMin" x="42" y="9" onmousedown="handleZoom(evt,'out')"/>
                <use id="reset" xlink:href="#resetDef" x="30" y="36" onmousedown="handleReset()"/>
                <g id="arrowUp" xlink:href="#dirArrow" transform="translate(30 24)" onmousedown="handlePan(0,-1)">
                  <use xlink:href="#rim" fill="#404040">
                        <set attributeName="fill" to="#808080" begin="arrowUp.mouseover" end="arrowUp.mouseout"/>
                  </use>
                  <path fill="none" stroke="white" stroke-width="1.5" d="M0,-3.0v7 M-2.5,-0.5L0,-3.0L2.5,-0.5"/>
                </g>
                <g id="arrowRight" xlink:href="#dirArrow" transform="rotate(90) translate(36 -43)" onmousedown="handlePan(1,0)">
                  <use xlink:href="#rim" fill="#404040">
                        <set attributeName="fill" to="#808080" begin="arrowRight.mouseover" end="arrowRight.mouseout"/>
                  </use>
                  <path fill="none" stroke="white" stroke-width="1.5" d="M0,-3.0v7 M-2.5,-0.5L0,-3.0L2.5,-0.5"/>
                </g>
                <g id="arrowDown" xlink:href="#dirArrow" transform="rotate(180) translate(-30 -48)" onmousedown="handlePan(0,1)">
                  <use xlink:href="#rim" fill="#404040">
                        <set attributeName="fill" to="#808080" begin="arrowDown.mouseover" end="arrowDown.mouseout"/>
                  </use>
                  <path fill="none" stroke="white" stroke-width="1.5" d="M0,-3.0v7 M-2.5,-0.5L0,-3.0L2.5,-0.5"/>
                </g>
                <g id="arrowLeft" xlink:href="#dirArrow" transform="rotate(270) translate(-36 17)" onmousedown="handlePan(-1,0)">
                  <use xlink:href="#rim" fill="#404040">
                        <set attributeName="fill" to="#808080" begin="arrowLeft.mouseover" end="arrowLeft.mouseout"/>
                  </use>
                  <path fill="none" stroke="white" stroke-width="1.5" d="M0,-3.0v7 M-2.5,-0.5L0,-3.0L2.5,-0.5"/>
                </g>
        </g>
        <svg viewBox="0 0 15 15" width="100%" height="30px" preserveAspectRatio="xMaxYMin meet">
         <g id="arrow_out" transform="scale(0.3 0.3)">
          <a xlink:href="namespacemom__diag__mediator_a4b739f107cebe1ece8d29056c1144bff_icgraph_org.svg" target="_base">
           <rect id="button" ry="5" rx="5" y="6" x="6" height="38" width="38"
                fill="#f2f5e9" fill-opacity="0.5" stroke="#606060" stroke-width="1.0"/>
           <path id="arrow"
             d="M 11.500037,31.436501 C 11.940474,20.09759 22.043105,11.32322 32.158766,21.979434 L 37.068811,17.246167 C 37.068811,17.246167 37.088388,32 37.088388,32 L 22.160133,31.978069 C 22.160133,31.978069 26.997745,27.140456 26.997745,27.140456 C 18.528582,18.264221 13.291696,25.230495 11.500037,31.436501 z"
             style="fill:#404040;"/>
          </a>
         </g>
        </svg>
</svg>
