<?xml version="1.0" encoding="UTF-8" standalone="no"?>
<!DOCTYPE svg PUBLIC "-//W3C//DTD SVG 1.1//EN"
 "http://www.w3.org/Graphics/SVG/1.1/DTD/svg11.dtd">
<!-- Generated by graphviz version 2.38.0 (20140413.2041)
 -->
<!-- Title: mom_diag_mediator::register_static_field Pages: 1 -->
<svg width="623pt" height="215pt"
 viewBox="0.00 0.00 623.00 215.00" xmlns="http://www.w3.org/2000/svg" xmlns:xlink="http://www.w3.org/1999/xlink">
<g id="graph0" class="graph" transform="scale(1 1) rotate(0) translate(4 211)">
<title>mom_diag_mediator::register_static_field</title>
<polygon fill="white" stroke="none" points="-4,4 -4,-211 619,-211 619,4 -4,4"/>
<!-- Node438 -->
<g id="node1" class="node"><title>Node438</title>
<polygon fill="#bfbfbf" stroke="black" points="0,-88.5 0,-118.5 95,-118.5 95,-88.5 0,-88.5"/>
<text text-anchor="start" x="8" y="-106.5" font-family="Helvetica,sans-Serif" font-size="10.00">mom_diag_mediator::</text>
<text text-anchor="middle" x="47.5" y="-95.5" font-family="Helvetica,sans-Serif" font-size="10.00">register_static_field</text>
</g>
<!-- Node439 -->
<g id="node2" class="node"><title>Node439</title>
<g id="a_node2"><a xlink:href="../../d9/d06/namespacemom__diag__mediator.html#a1b0bed2113a0c268eafd1bafbb48bd4f" target="_top" xlink:title="mom_diag_mediator::\lalloc_diag_with_id">
<polygon fill="white" stroke="black" points="131,-176.5 131,-206.5 226,-206.5 226,-176.5 131,-176.5"/>
<text text-anchor="start" x="139" y="-194.5" font-family="Helvetica,sans-Serif" font-size="10.00">mom_diag_mediator::</text>
<text text-anchor="middle" x="178.5" y="-183.5" font-family="Helvetica,sans-Serif" font-size="10.00">alloc_diag_with_id</text>
</a>
</g>
</g>
<!-- Node438&#45;&gt;Node439 -->
<g id="edge1" class="edge"><title>Node438&#45;&gt;Node439</title>
<path fill="none" stroke="midnightblue" d="M69.3637,-118.512C85.9478,-130.361 109.8,-147.218 131,-161.5 135.581,-164.587 140.451,-167.8 145.247,-170.928"/>
<polygon fill="midnightblue" stroke="midnightblue" points="143.429,-173.92 153.725,-176.419 147.235,-168.045 143.429,-173.92"/>
</g>
<!-- Node440 -->
<g id="node3" class="node"><title>Node440</title>
<g id="a_node3"><a xlink:href="../../d9/d06/namespacemom__diag__mediator.html#a6e11afe7a97bf8e3333d33b0aebd6f6e" target="_top" xlink:title="mom_diag_mediator::\lassert">
<polygon fill="white" stroke="black" points="262,-88.5 262,-118.5 357,-118.5 357,-88.5 262,-88.5"/>
<text text-anchor="start" x="270" y="-106.5" font-family="Helvetica,sans-Serif" font-size="10.00">mom_diag_mediator::</text>
<text text-anchor="middle" x="309.5" y="-95.5" font-family="Helvetica,sans-Serif" font-size="10.00">assert</text>
</a>
</g>
</g>
<!-- Node438&#45;&gt;Node440 -->
<g id="edge2" class="edge"><title>Node438&#45;&gt;Node440</title>
<path fill="none" stroke="midnightblue" d="M89.5021,-118.518C102.579,-122.603 117.232,-126.46 131,-128.5 172.766,-134.689 184.234,-134.689 226,-128.5 236.434,-126.954 247.375,-124.364 257.754,-121.423"/>
<polygon fill="midnightblue" stroke="midnightblue" points="258.915,-124.729 267.498,-118.518 256.915,-118.021 258.915,-124.729"/>
</g>
<!-- Node442 -->
<g id="node5" class="node"><title>Node442</title>
<g id="a_node5"><a xlink:href="../../d0/de6/namespacemom__error__handler.html#ad5f00a53059c72fe2332d1436c80ca71" target="_top" xlink:title="mom_error_handler::\lis_root_pe">
<polygon fill="white" stroke="black" points="522,-66.5 522,-96.5 615,-96.5 615,-66.5 522,-66.5"/>
<text text-anchor="start" x="530" y="-84.5" font-family="Helvetica,sans-Serif" font-size="10.00">mom_error_handler::</text>
<text text-anchor="middle" x="568.5" y="-73.5" font-family="Helvetica,sans-Serif" font-size="10.00">is_root_pe</text>
</a>
</g>
</g>
<!-- Node438&#45;&gt;Node442 -->
<g id="edge7" class="edge"><title>Node438&#45;&gt;Node442</title>
<path fill="none" stroke="midnightblue" d="M89.5021,-88.4823C102.579,-84.3975 117.232,-80.5403 131,-78.5 266.65,-58.3983 428.622,-68.2131 511.929,-75.6951"/>
<polygon fill="midnightblue" stroke="midnightblue" points="511.656,-79.1847 521.935,-76.6168 512.299,-72.2142 511.656,-79.1847"/>
</g>
<!-- Node443 -->
<g id="node6" class="node"><title>Node443</title>
<g id="a_node6"><a xlink:href="../../d9/d06/namespacemom__diag__mediator.html#a3f7442639213320f7429e2288a79fda2" target="_top" xlink:title="mom_diag_mediator::\lget_new_diag_id">
<polygon fill="white" stroke="black" points="131,-88.5 131,-118.5 226,-118.5 226,-88.5 131,-88.5"/>
<text text-anchor="start" x="139" y="-106.5" font-family="Helvetica,sans-Serif" font-size="10.00">mom_diag_mediator::</text>
<text text-anchor="middle" x="178.5" y="-95.5" font-family="Helvetica,sans-Serif" font-size="10.00">get_new_diag_id</text>
</a>
</g>
</g>
<!-- Node438&#45;&gt;Node443 -->
<g id="edge5" class="edge"><title>Node438&#45;&gt;Node443</title>
<path fill="none" stroke="midnightblue" d="M95.072,-103.5C103.475,-103.5 112.319,-103.5 120.969,-103.5"/>
<polygon fill="midnightblue" stroke="midnightblue" points="120.996,-107 130.996,-103.5 120.996,-100 120.996,-107"/>
</g>
<!-- Node444 -->
<g id="node7" class="node"><title>Node444</title>
<g id="a_node7"><a xlink:href="../../d9/d06/namespacemom__diag__mediator.html#a65fe8d329cf5dbfd08c98874a7a64407" target="_top" xlink:title="Log a diagnostic to the available diagnostics file. ">
<polygon fill="white" stroke="black" points="131,-0.5 131,-30.5 226,-30.5 226,-0.5 131,-0.5"/>
<text text-anchor="start" x="139" y="-18.5" font-family="Helvetica,sans-Serif" font-size="10.00">mom_diag_mediator::</text>
<text text-anchor="middle" x="178.5" y="-7.5" font-family="Helvetica,sans-Serif" font-size="10.00">log_available_diag</text>
</a>
</g>
</g>
<!-- Node438&#45;&gt;Node444 -->
<g id="edge8" class="edge"><title>Node438&#45;&gt;Node444</title>
<path fill="none" stroke="midnightblue" d="M69.3637,-88.4878C85.9478,-76.6389 109.8,-59.7825 131,-45.5 135.581,-42.4135 140.451,-39.2 145.247,-36.0723"/>
<polygon fill="midnightblue" stroke="midnightblue" points="147.235,-38.9551 153.725,-30.581 143.429,-33.0799 147.235,-38.9551"/>
</g>
<!-- Node441 -->
<g id="node4" class="node"><title>Node441</title>
<g id="a_node4"><a xlink:href="../../d0/de6/namespacemom__error__handler.html#a460cfb79a06c29fc249952c2a3710d67" target="_top" xlink:title="mom_error_handler::\lmom_error">
<polygon fill="white" stroke="black" points="393,-88.5 393,-118.5 486,-118.5 486,-88.5 393,-88.5"/>
<text text-anchor="start" x="401" y="-106.5" font-family="Helvetica,sans-Serif" font-size="10.00">mom_error_handler::</text>
<text text-anchor="middle" x="439.5" y="-95.5" font-family="Helvetica,sans-Serif" font-size="10.00">mom_error</text>
</a>
</g>
</g>
<!-- Node440&#45;&gt;Node441 -->
<g id="edge3" class="edge"><title>Node440&#45;&gt;Node441</title>
<path fill="none" stroke="midnightblue" d="M357.073,-103.5C365.306,-103.5 373.955,-103.5 382.416,-103.5"/>
<polygon fill="midnightblue" stroke="midnightblue" points="382.604,-107 392.604,-103.5 382.604,-100 382.604,-107"/>
</g>
<!-- Node441&#45;&gt;Node442 -->
<g id="edge4" class="edge"><title>Node441&#45;&gt;Node442</title>
<path fill="none" stroke="midnightblue" d="M486.35,-95.5575C494.623,-94.1244 503.33,-92.6161 511.846,-91.1409"/>
<polygon fill="midnightblue" stroke="midnightblue" points="512.462,-94.5864 521.717,-89.4308 511.267,-87.6892 512.462,-94.5864"/>
</g>
<!-- Node443&#45;&gt;Node440 -->
<g id="edge6" class="edge"><title>Node443&#45;&gt;Node440</title>
<path fill="none" stroke="midnightblue" d="M226.072,-103.5C234.475,-103.5 243.319,-103.5 251.969,-103.5"/>
<polygon fill="midnightblue" stroke="midnightblue" points="251.996,-107 261.996,-103.5 251.996,-100 251.996,-107"/>
</g>
<!-- Node445 -->
<g id="node8" class="node"><title>Node445</title>
<g id="a_node8"><a xlink:href="../../d9/d06/namespacemom__diag__mediator.html#ae002ca447acba252bf7bdc042e75a01e" target="_top" xlink:title="mom_diag_mediator::\ldescribe_option">
<polygon fill="white" stroke="black" points="262,-0.5 262,-30.5 357,-30.5 357,-0.5 262,-0.5"/>
<text text-anchor="start" x="270" y="-18.5" font-family="Helvetica,sans-Serif" font-size="10.00">mom_diag_mediator::</text>
<text text-anchor="middle" x="309.5" y="-7.5" font-family="Helvetica,sans-Serif" font-size="10.00">describe_option</text>
</a>
</g>
</g>
<!-- Node444&#45;&gt;Node445 -->
<g id="edge9" class="edge"><title>Node444&#45;&gt;Node445</title>
<path fill="none" stroke="midnightblue" d="M226.072,-15.5C234.475,-15.5 243.319,-15.5 251.969,-15.5"/>
<polygon fill="midnightblue" stroke="midnightblue" points="251.996,-19.0001 261.996,-15.5 251.996,-12.0001 251.996,-19.0001"/>
</g>
</g>
</svg>
