<?xml version="1.0" encoding="UTF-8" standalone="no"?>
<!DOCTYPE svg PUBLIC "-//W3C//DTD SVG 1.1//EN"
 "http://www.w3.org/Graphics/SVG/1.1/DTD/svg11.dtd">
<!-- Generated by graphviz version 2.38.0 (20140413.2041)
 -->
<!-- Title: mom_diag_mediator::assert Pages: 1 -->
<svg width="962pt" height="1010pt"
 viewBox="0.00 0.00 962.00 1010.07" xmlns="http://www.w3.org/2000/svg" xmlns:xlink="http://www.w3.org/1999/xlink">
<g id="graph0" class="graph" transform="scale(1 1) rotate(0) translate(4 1006.07)">
<title>mom_diag_mediator::assert</title>
<polygon fill="white" stroke="none" points="-4,4 -4,-1006.07 958,-1006.07 958,4 -4,4"/>
<!-- Node26 -->
<g id="node1" class="node"><title>Node26</title>
<polygon fill="#bfbfbf" stroke="black" points="0,-228.572 0,-258.572 95,-258.572 95,-228.572 0,-228.572"/>
<text text-anchor="start" x="8" y="-246.572" font-family="Helvetica,sans-Serif" font-size="10.00">mom_diag_mediator::</text>
<text text-anchor="middle" x="47.5" y="-235.572" font-family="Helvetica,sans-Serif" font-size="10.00">assert</text>
</g>
<!-- Node27 -->
<g id="node2" class="node"><title>Node27</title>
<g id="a_node2"><a xlink:href="../../d9/d06/namespacemom__diag__mediator.html#a67a9077037d7bf86f7415ca1ad672295" target="_top" xlink:title="Build/update target vertical grids for diagnostic remapping. ">
<polygon fill="white" stroke="black" points="131,-789.572 131,-819.572 239,-819.572 239,-789.572 131,-789.572"/>
<text text-anchor="start" x="139" y="-807.572" font-family="Helvetica,sans-Serif" font-size="10.00">mom_diag_mediator::</text>
<text text-anchor="middle" x="185" y="-796.572" font-family="Helvetica,sans-Serif" font-size="10.00">diag_update_target_grids</text>
</a>
</g>
</g>
<!-- Node26&#45;&gt;Node27 -->
<g id="edge1" class="edge"><title>Node26&#45;&gt;Node27</title>
<path fill="none" stroke="midnightblue" d="M54.4767,-268.317C77.7333,-364.604 161.82,-712.741 180.364,-789.52"/>
<polygon fill="midnightblue" stroke="midnightblue" points="57.8744,-267.476 52.1243,-258.577 51.07,-269.12 57.8744,-267.476"/>
</g>
<!-- Node39 -->
<g id="node14" class="node"><title>Node39</title>
<g id="a_node14"><a xlink:href="../../d9/d06/namespacemom__diag__mediator.html#a3f7442639213320f7429e2288a79fda2" target="_top" xlink:title="mom_diag_mediator::\lget_new_diag_id">
<polygon fill="white" stroke="black" points="137.5,-316.572 137.5,-346.572 232.5,-346.572 232.5,-316.572 137.5,-316.572"/>
<text text-anchor="start" x="145.5" y="-334.572" font-family="Helvetica,sans-Serif" font-size="10.00">mom_diag_mediator::</text>
<text text-anchor="middle" x="185" y="-323.572" font-family="Helvetica,sans-Serif" font-size="10.00">get_new_diag_id</text>
</a>
</g>
</g>
<!-- Node26&#45;&gt;Node39 -->
<g id="edge14" class="edge"><title>Node26&#45;&gt;Node39</title>
<path fill="none" stroke="midnightblue" d="M77.0359,-264.667C92.7116,-275.99 112.647,-289.965 131,-301.572 139.043,-306.658 147.981,-311.876 156.191,-316.504"/>
<polygon fill="midnightblue" stroke="midnightblue" points="78.9489,-261.731 68.8025,-258.681 74.8325,-267.392 78.9489,-261.731"/>
</g>
<!-- Node40 -->
<g id="node15" class="node"><title>Node40</title>
<g id="a_node15"><a xlink:href="../../d9/d06/namespacemom__diag__mediator.html#a3fd333aff691a76b05dd8d5bdc315bbb" target="_top" xlink:title="mom_diag_mediator::\lregister_diag_field">
<polygon fill="white" stroke="black" points="290,-449.572 290,-479.572 385,-479.572 385,-449.572 290,-449.572"/>
<text text-anchor="start" x="298" y="-467.572" font-family="Helvetica,sans-Serif" font-size="10.00">mom_diag_mediator::</text>
<text text-anchor="middle" x="337.5" y="-456.572" font-family="Helvetica,sans-Serif" font-size="10.00">register_diag_field</text>
</a>
</g>
</g>
<!-- Node26&#45;&gt;Node40 -->
<g id="edge42" class="edge"><title>Node26&#45;&gt;Node40</title>
<path fill="none" stroke="midnightblue" d="M58.2573,-268.554C70.9608,-298.171 95.7785,-347.316 131,-377.572 177.434,-417.459 244.83,-441.251 289.626,-453.621"/>
<polygon fill="midnightblue" stroke="midnightblue" points="61.3391,-266.848 54.2719,-258.955 54.8742,-269.533 61.3391,-266.848"/>
</g>
<!-- Node54 -->
<g id="node29" class="node"><title>Node54</title>
<g id="a_node29"><a xlink:href="../../d9/d06/namespacemom__diag__mediator.html#a60caf99cd0670e8ae1d7d0c1230b72a5" target="_top" xlink:title="mom_diag_mediator::\lregister_scalar_field">
<polygon fill="white" stroke="black" points="290,-269.572 290,-299.572 385,-299.572 385,-269.572 290,-269.572"/>
<text text-anchor="start" x="298" y="-287.572" font-family="Helvetica,sans-Serif" font-size="10.00">mom_diag_mediator::</text>
<text text-anchor="middle" x="337.5" y="-276.572" font-family="Helvetica,sans-Serif" font-size="10.00">register_scalar_field</text>
</a>
</g>
</g>
<!-- Node26&#45;&gt;Node54 -->
<g id="edge43" class="edge"><title>Node26&#45;&gt;Node54</title>
<path fill="none" stroke="midnightblue" d="M104.241,-261.424C113.121,-263.793 122.261,-265.956 131,-267.572 184.86,-277.53 247.743,-281.657 289.626,-283.366"/>
<polygon fill="midnightblue" stroke="midnightblue" points="104.931,-257.983 94.3594,-258.68 103.058,-264.728 104.931,-257.983"/>
</g>
<!-- Node55 -->
<g id="node30" class="node"><title>Node55</title>
<g id="a_node30"><a xlink:href="../../d9/d06/namespacemom__diag__mediator.html#ae4619c5022663fcc3c0f2216fcc42176" target="_top" xlink:title="Registers a static diagnostic, returning an integer handle. ">
<polygon fill="white" stroke="black" points="290,-318.572 290,-348.572 385,-348.572 385,-318.572 290,-318.572"/>
<text text-anchor="start" x="298" y="-336.572" font-family="Helvetica,sans-Serif" font-size="10.00">mom_diag_mediator::</text>
<text text-anchor="middle" x="337.5" y="-325.572" font-family="Helvetica,sans-Serif" font-size="10.00">register_static_field</text>
</a>
</g>
</g>
<!-- Node26&#45;&gt;Node55 -->
<g id="edge44" class="edge"><title>Node26&#45;&gt;Node55</title>
<path fill="none" stroke="midnightblue" d="M58.3318,-267.961C70.7378,-295.04 94.9108,-337.333 131,-355.572 185.44,-383.086 258.198,-364.357 300.939,-348.668"/>
<polygon fill="midnightblue" stroke="midnightblue" points="61.5129,-266.5 54.2933,-258.746 55.1015,-269.31 61.5129,-266.5"/>
</g>
<!-- Node60 -->
<g id="node35" class="node"><title>Node60</title>
<g id="a_node35"><a xlink:href="../../d9/d06/namespacemom__diag__mediator.html#ae9c5ccc56095fb87b2c6512c82922705" target="_top" xlink:title="mom_diag_mediator::\lpost_data_0d">
<polygon fill="white" stroke="black" points="137.5,-179.572 137.5,-209.572 232.5,-209.572 232.5,-179.572 137.5,-179.572"/>
<text text-anchor="start" x="145.5" y="-197.572" font-family="Helvetica,sans-Serif" font-size="10.00">mom_diag_mediator::</text>
<text text-anchor="middle" x="185" y="-186.572" font-family="Helvetica,sans-Serif" font-size="10.00">post_data_0d</text>
</a>
</g>
</g>
<!-- Node26&#45;&gt;Node60 -->
<g id="edge38" class="edge"><title>Node26&#45;&gt;Node60</title>
<path fill="none" stroke="midnightblue" d="M99.7564,-225.037C113.75,-219.976 128.743,-214.554 142.145,-209.708"/>
<polygon fill="midnightblue" stroke="midnightblue" points="98.4738,-221.778 90.2601,-228.471 100.854,-228.361 98.4738,-221.778"/>
</g>
<!-- Node61 -->
<g id="node36" class="node"><title>Node61</title>
<g id="a_node36"><a xlink:href="../../d9/d06/namespacemom__diag__mediator.html#ab5b75b68fa1742ce312c371f4b2c6ac1" target="_top" xlink:title="mom_diag_mediator::\lpost_data_1d_k">
<polygon fill="white" stroke="black" points="137.5,-130.572 137.5,-160.572 232.5,-160.572 232.5,-130.572 137.5,-130.572"/>
<text text-anchor="start" x="145.5" y="-148.572" font-family="Helvetica,sans-Serif" font-size="10.00">mom_diag_mediator::</text>
<text text-anchor="middle" x="185" y="-137.572" font-family="Helvetica,sans-Serif" font-size="10.00">post_data_1d_k</text>
</a>
</g>
</g>
<!-- Node26&#45;&gt;Node61 -->
<g id="edge39" class="edge"><title>Node26&#45;&gt;Node61</title>
<path fill="none" stroke="midnightblue" d="M69.7542,-221.144C85.5808,-205.322 108.29,-184.391 131,-169.572 135.906,-166.37 141.31,-163.388 146.734,-160.689"/>
<polygon fill="midnightblue" stroke="midnightblue" points="67.0842,-218.867 62.5678,-228.451 72.0751,-223.775 67.0842,-218.867"/>
</g>
<!-- Node62 -->
<g id="node37" class="node"><title>Node62</title>
<g id="a_node37"><a xlink:href="../../d9/d06/namespacemom__diag__mediator.html#a2b87038d2cfd2f6709ecb9f4481e0e75" target="_top" xlink:title="mom_diag_mediator::\lpost_data_2d">
<polygon fill="white" stroke="black" points="137.5,-81.5721 137.5,-111.572 232.5,-111.572 232.5,-81.5721 137.5,-81.5721"/>
<text text-anchor="start" x="145.5" y="-99.5721" font-family="Helvetica,sans-Serif" font-size="10.00">mom_diag_mediator::</text>
<text text-anchor="middle" x="185" y="-88.5721" font-family="Helvetica,sans-Serif" font-size="10.00">post_data_2d</text>
</a>
</g>
</g>
<!-- Node26&#45;&gt;Node62 -->
<g id="edge40" class="edge"><title>Node26&#45;&gt;Node62</title>
<path fill="none" stroke="midnightblue" d="M59.7086,-219.15C73.2425,-191.971 98.3182,-148.245 131,-120.572 134.931,-117.243 139.4,-114.288 144.035,-111.69"/>
<polygon fill="midnightblue" stroke="midnightblue" points="56.4598,-217.828 55.2519,-228.354 62.7601,-220.879 56.4598,-217.828"/>
</g>
<!-- Node63 -->
<g id="node38" class="node"><title>Node63</title>
<g id="a_node38"><a xlink:href="../../d9/d06/namespacemom__diag__mediator.html#adb1030a0216c52dd0d25bd67a5b31868" target="_top" xlink:title="mom_diag_mediator::\lpost_data_3d">
<polygon fill="white" stroke="black" points="290,-10.5721 290,-40.5721 385,-40.5721 385,-10.5721 290,-10.5721"/>
<text text-anchor="start" x="298" y="-28.5721" font-family="Helvetica,sans-Serif" font-size="10.00">mom_diag_mediator::</text>
<text text-anchor="middle" x="337.5" y="-17.5721" font-family="Helvetica,sans-Serif" font-size="10.00">post_data_3d</text>
</a>
</g>
</g>
<!-- Node26&#45;&gt;Node63 -->
<g id="edge41" class="edge"><title>Node26&#45;&gt;Node63</title>
<path fill="none" stroke="midnightblue" d="M49.234,-218.172C52.1544,-170.333 66.0776,-67.6349 131,-22.5721 177.459,9.67547 245.164,0.841472 289.997,-10.5652"/>
<polygon fill="midnightblue" stroke="midnightblue" points="45.7314,-218.139 48.7329,-228.3 52.7229,-218.485 45.7314,-218.139"/>
</g>
<!-- Node64 -->
<g id="node39" class="node"><title>Node64</title>
<g id="a_node39"><a xlink:href="../../d9/d06/namespacemom__diag__mediator.html#ab5e628e0b8acd96234fab33d0fae2161" target="_top" xlink:title="Remap diagnostic field to z&#45;star vertical grid. ">
<polygon fill="white" stroke="black" points="137.5,-32.5721 137.5,-62.5721 232.5,-62.5721 232.5,-32.5721 137.5,-32.5721"/>
<text text-anchor="start" x="145.5" y="-50.5721" font-family="Helvetica,sans-Serif" font-size="10.00">mom_diag_mediator::</text>
<text text-anchor="middle" x="185" y="-39.5721" font-family="Helvetica,sans-Serif" font-size="10.00">remap_diag_to_z</text>
</a>
</g>
</g>
<!-- Node26&#45;&gt;Node64 -->
<g id="edge45" class="edge"><title>Node26&#45;&gt;Node64</title>
<path fill="none" stroke="midnightblue" d="M54.6929,-218.246C64.8558,-181.517 88.3354,-113.307 131,-71.5721 134.466,-68.1817 138.495,-65.219 142.755,-62.6428"/>
<polygon fill="midnightblue" stroke="midnightblue" points="51.2476,-217.584 52.0669,-228.147 58.0136,-219.379 51.2476,-217.584"/>
</g>
<!-- Node65 -->
<g id="node40" class="node"><title>Node65</title>
<g id="a_node40"><a xlink:href="../../d9/d06/namespacemom__diag__mediator.html#a4d8d23e602166167b393e19453ded5bf" target="_top" xlink:title="Sets up diagnostics axes. ">
<polygon fill="white" stroke="black" points="137.5,-228.572 137.5,-258.572 232.5,-258.572 232.5,-228.572 137.5,-228.572"/>
<text text-anchor="start" x="145.5" y="-246.572" font-family="Helvetica,sans-Serif" font-size="10.00">mom_diag_mediator::</text>
<text text-anchor="middle" x="185" y="-235.572" font-family="Helvetica,sans-Serif" font-size="10.00">set_axes_info</text>
</a>
</g>
</g>
<!-- Node26&#45;&gt;Node65 -->
<g id="edge47" class="edge"><title>Node26&#45;&gt;Node65</title>
<path fill="none" stroke="midnightblue" d="M105.219,-243.572C115.898,-243.572 126.952,-243.572 137.283,-243.572"/>
<polygon fill="midnightblue" stroke="midnightblue" points="105.131,-240.072 95.1314,-243.572 105.131,-247.072 105.131,-240.072"/>
</g>
<!-- Node28 -->
<g id="node3" class="node"><title>Node28</title>
<g id="a_node3"><a xlink:href="../../db/dd4/namespacemom__dynamics__legacy__split.html#ae34fe0561f87dc05c2fad64bf6d5a1ee" target="_top" xlink:title="mom_dynamics_legacy\l_split::step_mom_dyn\l_legacy_split">
<polygon fill="white" stroke="black" points="288,-912.072 288,-953.072 387,-953.072 387,-912.072 288,-912.072"/>
<text text-anchor="start" x="296" y="-941.072" font-family="Helvetica,sans-Serif" font-size="10.00">mom_dynamics_legacy</text>
<text text-anchor="start" x="296" y="-930.072" font-family="Helvetica,sans-Serif" font-size="10.00">_split::step_mom_dyn</text>
<text text-anchor="middle" x="337.5" y="-919.072" font-family="Helvetica,sans-Serif" font-size="10.00">_legacy_split</text>
</a>
</g>
</g>
<!-- Node27&#45;&gt;Node28 -->
<g id="edge2" class="edge"><title>Node27&#45;&gt;Node28</title>
<path fill="none" stroke="midnightblue" d="M202.53,-827.763C218.96,-849.528 245.86,-881.895 275,-903.572 279.073,-906.602 283.512,-909.432 288.081,-912.044"/>
<polygon fill="midnightblue" stroke="midnightblue" points="205.325,-825.656 196.559,-819.705 199.701,-829.823 205.325,-825.656"/>
</g>
<!-- Node29 -->
<g id="node4" class="node"><title>Node29</title>
<g id="a_node4"><a xlink:href="../../d1/dc3/namespacemom__dynamics__split__rk2.html#a81cce65643a8cf94979d68354a9a1979" target="_top" xlink:title="RK2 splitting for time stepping MOM adiabatic dynamics. ">
<polygon fill="white" stroke="black" points="275,-863.572 275,-893.572 400,-893.572 400,-863.572 275,-863.572"/>
<text text-anchor="start" x="283" y="-881.572" font-family="Helvetica,sans-Serif" font-size="10.00">mom_dynamics_split</text>
<text text-anchor="middle" x="337.5" y="-870.572" font-family="Helvetica,sans-Serif" font-size="10.00">_rk2::step_mom_dyn_split_rk2</text>
</a>
</g>
</g>
<!-- Node27&#45;&gt;Node29 -->
<g id="edge3" class="edge"><title>Node27&#45;&gt;Node29</title>
<path fill="none" stroke="midnightblue" d="M219.527,-824.874C235.959,-834.443 256.212,-845.682 275,-854.572 281.527,-857.66 288.566,-860.682 295.47,-863.483"/>
<polygon fill="midnightblue" stroke="midnightblue" points="221.218,-821.808 210.824,-819.755 217.669,-827.842 221.218,-821.808"/>
</g>
<!-- Node30 -->
<g id="node5" class="node"><title>Node30</title>
<g id="a_node5"><a xlink:href="../../d7/d44/namespacemom__dynamics__unsplit.html#a53a72861e61f049479fdec46ea11227b" target="_top" xlink:title="mom_dynamics_unsplit\l::step_mom_dyn_unsplit">
<polygon fill="white" stroke="black" points="286,-814.572 286,-844.572 389,-844.572 389,-814.572 286,-814.572"/>
<text text-anchor="start" x="294" y="-832.572" font-family="Helvetica,sans-Serif" font-size="10.00">mom_dynamics_unsplit</text>
<text text-anchor="middle" x="337.5" y="-821.572" font-family="Helvetica,sans-Serif" font-size="10.00">::step_mom_dyn_unsplit</text>
</a>
</g>
</g>
<!-- Node27&#45;&gt;Node30 -->
<g id="edge4" class="edge"><title>Node27&#45;&gt;Node30</title>
<path fill="none" stroke="midnightblue" d="M249.219,-815.074C261.47,-817.109 274.158,-819.216 285.938,-821.173"/>
<polygon fill="midnightblue" stroke="midnightblue" points="249.499,-811.572 239.061,-813.386 248.352,-818.478 249.499,-811.572"/>
</g>
<!-- Node31 -->
<g id="node6" class="node"><title>Node31</title>
<g id="a_node6"><a xlink:href="../../d4/de7/namespacemom__mixed__layer__restrat.html#a8c3660ca67ff94ff55449ce75e362e32" target="_top" xlink:title="This subroutine does interface depth diffusion. The fluxes are limited to give positive definiteness...">
<polygon fill="white" stroke="black" points="278,-765.572 278,-795.572 397,-795.572 397,-765.572 278,-765.572"/>
<text text-anchor="start" x="286" y="-783.572" font-family="Helvetica,sans-Serif" font-size="10.00">mom_mixed_layer_restrat</text>
<text text-anchor="middle" x="337.5" y="-772.572" font-family="Helvetica,sans-Serif" font-size="10.00">::mixedlayer_restrat_general</text>
</a>
</g>
</g>
<!-- Node27&#45;&gt;Node31 -->
<g id="edge5" class="edge"><title>Node27&#45;&gt;Node31</title>
<path fill="none" stroke="midnightblue" d="M249.203,-794.493C258.671,-792.983 268.401,-791.432 277.771,-789.938"/>
<polygon fill="midnightblue" stroke="midnightblue" points="248.385,-791.079 239.061,-796.111 249.487,-797.992 248.385,-791.079"/>
</g>
<!-- Node33 -->
<g id="node8" class="node"><title>Node33</title>
<g id="a_node8"><a xlink:href="../../d4/de7/namespacemom__mixed__layer__restrat.html#aa7bc0bffcb1f179da48339460555c343" target="_top" xlink:title="This subroutine does interface depth diffusion. The fluxes are limited to give positive definiteness...">
<polygon fill="white" stroke="black" points="282.5,-971.572 282.5,-1001.57 392.5,-1001.57 392.5,-971.572 282.5,-971.572"/>
<text text-anchor="start" x="290.5" y="-989.572" font-family="Helvetica,sans-Serif" font-size="10.00">mom_mixed_layer_restrat</text>
<text text-anchor="middle" x="337.5" y="-978.572" font-family="Helvetica,sans-Serif" font-size="10.00">::mixedlayer_restrat_bml</text>
</a>
</g>
</g>
<!-- Node27&#45;&gt;Node33 -->
<g id="edge7" class="edge"><title>Node27&#45;&gt;Node33</title>
<path fill="none" stroke="midnightblue" d="M194.044,-829.624C206.297,-864.06 232.772,-925.912 275,-962.572 278.895,-965.953 283.32,-968.887 287.97,-971.427"/>
<polygon fill="midnightblue" stroke="midnightblue" points="197.254,-828.196 190.696,-819.875 190.634,-830.47 197.254,-828.196"/>
</g>
<!-- Node34 -->
<g id="node9" class="node"><title>Node34</title>
<g id="a_node9"><a xlink:href="../../d1/d75/namespacemom__thickness__diffuse.html#a9506f374762ce6d5d12424a9314fad2f" target="_top" xlink:title="mom_thickness_diffuse\l::thickness_diffuse">
<polygon fill="white" stroke="black" points="288,-716.572 288,-746.572 387,-746.572 387,-716.572 288,-716.572"/>
<text text-anchor="start" x="296" y="-734.572" font-family="Helvetica,sans-Serif" font-size="10.00">mom_thickness_diffuse</text>
<text text-anchor="middle" x="337.5" y="-723.572" font-family="Helvetica,sans-Serif" font-size="10.00">::thickness_diffuse</text>
</a>
</g>
</g>
<!-- Node27&#45;&gt;Node34 -->
<g id="edge9" class="edge"><title>Node27&#45;&gt;Node34</title>
<path fill="none" stroke="midnightblue" d="M221.195,-784.451C237.375,-775.497 256.946,-765.08 275,-756.572 282.194,-753.182 289.978,-749.803 297.511,-746.676"/>
<polygon fill="midnightblue" stroke="midnightblue" points="219.124,-781.598 212.097,-789.528 222.535,-787.711 219.124,-781.598"/>
</g>
<!-- Node37 -->
<g id="node12" class="node"><title>Node37</title>
<g id="a_node12"><a xlink:href="../../d1/da1/namespacemom__bulk__mixed__layer.html#a9c3a37aae75b52453efad11d8c8abbe6" target="_top" xlink:title="mom_bulk_mixed_layer\l::bulkmixedlayer">
<polygon fill="white" stroke="black" points="287,-667.572 287,-697.572 388,-697.572 388,-667.572 287,-667.572"/>
<text text-anchor="start" x="295" y="-685.572" font-family="Helvetica,sans-Serif" font-size="10.00">mom_bulk_mixed_layer</text>
<text text-anchor="middle" x="337.5" y="-674.572" font-family="Helvetica,sans-Serif" font-size="10.00">::bulkmixedlayer</text>
</a>
</g>
</g>
<!-- Node27&#45;&gt;Node37 -->
<g id="edge12" class="edge"><title>Node27&#45;&gt;Node37</title>
<path fill="none" stroke="midnightblue" d="M202.589,-781.229C218.924,-759.666 245.637,-727.974 275,-707.572 280.395,-703.823 286.437,-700.505 292.569,-697.61"/>
<polygon fill="midnightblue" stroke="midnightblue" points="199.593,-779.393 196.448,-789.51 205.216,-783.562 199.593,-779.393"/>
</g>
<!-- Node32 -->
<g id="node7" class="node"><title>Node32</title>
<g id="a_node7"><a xlink:href="../../d4/de7/namespacemom__mixed__layer__restrat.html#a27efc1d26cdf8b66108c3dad047bbb91" target="_top" xlink:title="This subroutine does interface depth diffusion. The fluxes are limited to give positive definiteness...">
<polygon fill="white" stroke="black" points="450.5,-868.572 450.5,-898.572 560.5,-898.572 560.5,-868.572 450.5,-868.572"/>
<text text-anchor="start" x="458.5" y="-886.572" font-family="Helvetica,sans-Serif" font-size="10.00">mom_mixed_layer_restrat</text>
<text text-anchor="middle" x="505.5" y="-875.572" font-family="Helvetica,sans-Serif" font-size="10.00">::mixedlayer_restrat</text>
</a>
</g>
</g>
<!-- Node31&#45;&gt;Node32 -->
<g id="edge6" class="edge"><title>Node31&#45;&gt;Node32</title>
<path fill="none" stroke="midnightblue" d="M389.187,-799.952C392.9,-801.742 396.542,-803.621 400,-805.572 432.731,-824.038 466.953,-851.352 486.97,-868.276"/>
<polygon fill="midnightblue" stroke="midnightblue" points="390.426,-796.669 379.876,-795.692 387.513,-803.035 390.426,-796.669"/>
</g>
<!-- Node33&#45;&gt;Node32 -->
<g id="edge8" class="edge"><title>Node33&#45;&gt;Node32</title>
<path fill="none" stroke="midnightblue" d="M390.677,-967.392C393.876,-965.854 397.008,-964.244 400,-962.572 433.154,-944.041 467.522,-916.068 487.412,-898.859"/>
<polygon fill="midnightblue" stroke="midnightblue" points="389.209,-964.214 381.546,-971.53 392.099,-970.589 389.209,-964.214"/>
</g>
<!-- Node35 -->
<g id="node10" class="node"><title>Node35</title>
<g id="a_node10"><a xlink:href="../../da/d01/namespacemom.html#a4c8332b095c6d295084089aa6b3b678a" target="_top" xlink:title="This subroutine orchestrates the time stepping of MOM. The adiabatic dynamics are stepped by calls to...">
<polygon fill="white" stroke="black" points="779,-556.072 779,-575.072 856,-575.072 856,-556.072 779,-556.072"/>
<text text-anchor="middle" x="817.5" y="-563.072" font-family="Helvetica,sans-Serif" font-size="10.00">mom::step_mom</text>
</a>
</g>
</g>
<!-- Node34&#45;&gt;Node35 -->
<g id="edge10" class="edge"><title>Node34&#45;&gt;Node35</title>
<path fill="none" stroke="midnightblue" d="M397.103,-745.483C479.798,-761.647 632.308,-778.404 737,-712.572 788.334,-680.293 808.837,-602.741 814.636,-575.353"/>
<polygon fill="midnightblue" stroke="midnightblue" points="397.624,-742.017 387.129,-743.469 396.238,-748.879 397.624,-742.017"/>
</g>
<!-- Node36 -->
<g id="node11" class="node"><title>Node36</title>
<g id="a_node11"><a xlink:href="../../de/dbc/MOM__driver_8F90.html#a08fffeb2d8e8acbf9ed4609be6d258c6" target="_top" xlink:title="mom_main">
<polygon fill="white" stroke="black" points="898,-454.072 898,-473.072 954,-473.072 954,-454.072 898,-454.072"/>
<text text-anchor="middle" x="926" y="-461.072" font-family="Helvetica,sans-Serif" font-size="10.00">mom_main</text>
</a>
</g>
</g>
<!-- Node35&#45;&gt;Node36 -->
<g id="edge11" class="edge"><title>Node35&#45;&gt;Node36</title>
<path fill="none" stroke="midnightblue" d="M835.95,-548.859C858.457,-527.303 896.857,-490.526 914.975,-473.174"/>
<polygon fill="midnightblue" stroke="midnightblue" points="833.513,-546.347 828.712,-555.792 838.355,-551.403 833.513,-546.347"/>
</g>
<!-- Node38 -->
<g id="node13" class="node"><title>Node38</title>
<g id="a_node13"><a xlink:href="../../d8/df3/namespacemom__diabatic__driver.html#a61e57d3902367aa46aa3c2d949ee900f" target="_top" xlink:title="This subroutine imposes the diapycnal mass fluxes and the accompanying diapycnal advection of momentu...">
<polygon fill="white" stroke="black" points="460,-667.572 460,-697.572 551,-697.572 551,-667.572 460,-667.572"/>
<text text-anchor="start" x="468" y="-685.572" font-family="Helvetica,sans-Serif" font-size="10.00">mom_diabatic_driver</text>
<text text-anchor="middle" x="505.5" y="-674.572" font-family="Helvetica,sans-Serif" font-size="10.00">::diabatic</text>
</a>
</g>
</g>
<!-- Node37&#45;&gt;Node38 -->
<g id="edge13" class="edge"><title>Node37&#45;&gt;Node38</title>
<path fill="none" stroke="midnightblue" d="M398.384,-682.572C418.657,-682.572 440.93,-682.572 459.814,-682.572"/>
<polygon fill="midnightblue" stroke="midnightblue" points="398.306,-679.072 388.305,-682.572 398.305,-686.072 398.306,-679.072"/>
</g>
<!-- Node39&#45;&gt;Node40 -->
<g id="edge15" class="edge"><title>Node39&#45;&gt;Node40</title>
<path fill="none" stroke="midnightblue" d="M210.966,-353.635C241.654,-380.755 292.912,-426.053 319.437,-449.493"/>
<polygon fill="midnightblue" stroke="midnightblue" points="213.075,-350.828 203.264,-346.829 208.44,-356.074 213.075,-350.828"/>
</g>
<!-- Node39&#45;&gt;Node54 -->
<g id="edge31" class="edge"><title>Node39&#45;&gt;Node54</title>
<path fill="none" stroke="midnightblue" d="M242.386,-313.963C258.078,-309.063 274.939,-303.797 289.993,-299.096"/>
<polygon fill="midnightblue" stroke="midnightblue" points="241.296,-310.637 232.794,-316.959 243.383,-317.319 241.296,-310.637"/>
</g>
<!-- Node39&#45;&gt;Node55 -->
<g id="edge32" class="edge"><title>Node39&#45;&gt;Node55</title>
<path fill="none" stroke="midnightblue" d="M242.831,-332.327C258.396,-332.534 275.081,-332.756 289.993,-332.954"/>
<polygon fill="midnightblue" stroke="midnightblue" points="242.84,-328.827 232.794,-332.194 242.747,-335.827 242.84,-328.827"/>
</g>
<!-- Node41 -->
<g id="node16" class="node"><title>Node41</title>
<g id="a_node16"><a xlink:href="../../d7/d73/namespacemom__ale.html#a994efb3c62fc5f63da2617f29cbd6be1" target="_top" xlink:title="Initialize diagnostics for the ALE module. ">
<polygon fill="white" stroke="black" points="626,-346.572 626,-376.572 722,-376.572 722,-346.572 626,-346.572"/>
<text text-anchor="start" x="634" y="-364.572" font-family="Helvetica,sans-Serif" font-size="10.00">mom_ale::ale_register</text>
<text text-anchor="middle" x="674" y="-353.572" font-family="Helvetica,sans-Serif" font-size="10.00">_diags</text>
</a>
</g>
</g>
<!-- Node40&#45;&gt;Node41 -->
<g id="edge16" class="edge"><title>Node40&#45;&gt;Node41</title>
<path fill="none" stroke="midnightblue" d="M360.404,-442.444C378.871,-425.244 406.882,-402.388 436,-390.572 498.225,-365.322 576.604,-360.416 625.773,-360.217"/>
<polygon fill="midnightblue" stroke="midnightblue" points="357.913,-439.983 353.098,-449.42 362.748,-445.045 357.913,-439.983"/>
</g>
<!-- Node43 -->
<g id="node18" class="node"><title>Node43</title>
<g id="a_node18"><a xlink:href="../../d8/dd2/namespacemom__coriolisadv.html#ad3ce07f23ce7b484a5a9e0c0abe8b1cd" target="_top" xlink:title="mom_coriolisadv::coriolisadv_init">
<polygon fill="white" stroke="black" points="440,-455.072 440,-474.072 571,-474.072 571,-455.072 440,-455.072"/>
<text text-anchor="middle" x="505.5" y="-462.072" font-family="Helvetica,sans-Serif" font-size="10.00">mom_coriolisadv::coriolisadv_init</text>
</a>
</g>
</g>
<!-- Node40&#45;&gt;Node43 -->
<g id="edge19" class="edge"><title>Node40&#45;&gt;Node43</title>
<path fill="none" stroke="midnightblue" d="M395.388,-464.572C409.724,-464.572 425.217,-464.572 439.901,-464.572"/>
<polygon fill="midnightblue" stroke="midnightblue" points="395.182,-461.072 385.182,-464.572 395.182,-468.072 395.182,-461.072"/>
</g>
<!-- Node48 -->
<g id="node23" class="node"><title>Node48</title>
<g id="a_node23"><a xlink:href="../../d9/d06/namespacemom__diag__mediator.html#a21267e25d12fa3e5d2540d2a299d2d2c" target="_top" xlink:title="Registers a diagnostic using the information encapsulated in the vardesc type argument and returns an...">
<polygon fill="white" stroke="black" points="458,-400.572 458,-430.572 553,-430.572 553,-400.572 458,-400.572"/>
<text text-anchor="start" x="466" y="-418.572" font-family="Helvetica,sans-Serif" font-size="10.00">mom_diag_mediator::</text>
<text text-anchor="middle" x="505.5" y="-407.572" font-family="Helvetica,sans-Serif" font-size="10.00">ocean_register_diag</text>
</a>
</g>
</g>
<!-- Node40&#45;&gt;Node48 -->
<g id="edge24" class="edge"><title>Node40&#45;&gt;Node48</title>
<path fill="none" stroke="midnightblue" d="M395.013,-447.89C415.485,-441.848 438.357,-435.096 457.881,-429.333"/>
<polygon fill="midnightblue" stroke="midnightblue" points="393.782,-444.605 385.182,-450.792 395.764,-451.318 393.782,-444.605"/>
</g>
<!-- Node50 -->
<g id="node25" class="node"><title>Node50</title>
<g id="a_node25"><a xlink:href="../../d6/d07/namespacemom__diffconvection.html#ac36d9d7fd69e4422e7de01242094ff34" target="_top" xlink:title="mom_diffconvection\l::diffconvection_init">
<polygon fill="white" stroke="black" points="462,-618.572 462,-648.572 549,-648.572 549,-618.572 462,-618.572"/>
<text text-anchor="start" x="470" y="-636.572" font-family="Helvetica,sans-Serif" font-size="10.00">mom_diffconvection</text>
<text text-anchor="middle" x="505.5" y="-625.572" font-family="Helvetica,sans-Serif" font-size="10.00">::diffconvection_init</text>
</a>
</g>
</g>
<!-- Node40&#45;&gt;Node50 -->
<g id="edge26" class="edge"><title>Node40&#45;&gt;Node50</title>
<path fill="none" stroke="midnightblue" d="M348.976,-489.156C363.837,-521.237 393.981,-577.101 436,-609.572 443.578,-615.428 452.694,-619.922 461.766,-623.347"/>
<polygon fill="midnightblue" stroke="midnightblue" points="351.987,-487.318 344.692,-479.635 345.604,-490.191 351.987,-487.318"/>
</g>
<!-- Node51 -->
<g id="node26" class="node"><title>Node51</title>
<g id="a_node26"><a xlink:href="../../d0/d77/namespacemom__int__tide__input.html#a29a707637da633ccee155b53557b5f17" target="_top" xlink:title="mom_int_tide_input\l::int_tide_input_init">
<polygon fill="white" stroke="black" points="462.5,-569.572 462.5,-599.572 548.5,-599.572 548.5,-569.572 462.5,-569.572"/>
<text text-anchor="start" x="470.5" y="-587.572" font-family="Helvetica,sans-Serif" font-size="10.00">mom_int_tide_input</text>
<text text-anchor="middle" x="505.5" y="-576.572" font-family="Helvetica,sans-Serif" font-size="10.00">::int_tide_input_init</text>
</a>
</g>
</g>
<!-- Node40&#45;&gt;Node51 -->
<g id="edge27" class="edge"><title>Node40&#45;&gt;Node51</title>
<path fill="none" stroke="midnightblue" d="M357.13,-487.648C375.312,-508.864 404.735,-539.919 436,-559.572 444.039,-564.625 453.246,-568.863 462.248,-572.33"/>
<polygon fill="midnightblue" stroke="midnightblue" points="359.621,-485.171 350.506,-479.769 354.263,-489.676 359.621,-485.171"/>
</g>
<!-- Node52 -->
<g id="node27" class="node"><title>Node52</title>
<g id="a_node27"><a xlink:href="../../d5/d08/namespacemom__kpp.html#a9c834424b6e067e280928db3700ec77e" target="_top" xlink:title="Initialize the CVmix KPP module and set up diagnostics Returns True if KPP is to be used...">
<polygon fill="white" stroke="black" points="464,-531.072 464,-550.072 547,-550.072 547,-531.072 464,-531.072"/>
<text text-anchor="middle" x="505.5" y="-538.072" font-family="Helvetica,sans-Serif" font-size="10.00">mom_kpp::kpp_init</text>
</a>
</g>
</g>
<!-- Node40&#45;&gt;Node52 -->
<g id="edge28" class="edge"><title>Node40&#45;&gt;Node52</title>
<path fill="none" stroke="midnightblue" d="M372.909,-484.586C391.294,-494.851 414.509,-507.143 436,-516.572 448.232,-521.939 462.078,-526.976 474.105,-531.037"/>
<polygon fill="midnightblue" stroke="midnightblue" points="374.465,-481.445 364.036,-479.58 371.026,-487.542 374.465,-481.445"/>
</g>
<!-- Node53 -->
<g id="node28" class="node"><title>Node53</title>
<g id="a_node28"><a xlink:href="../../d8/da4/namespacemom__neutral__diffusion.html#a87cf821c52ac1111493d4168f0a91d17" target="_top" xlink:title="Diagnostic handles for neutral diffusion tendencies. ">
<polygon fill="white" stroke="black" points="617.5,-672.572 617.5,-702.572 730.5,-702.572 730.5,-672.572 617.5,-672.572"/>
<text text-anchor="start" x="625.5" y="-690.572" font-family="Helvetica,sans-Serif" font-size="10.00">mom_neutral_diffusion</text>
<text text-anchor="middle" x="674" y="-679.572" font-family="Helvetica,sans-Serif" font-size="10.00">::neutral_diffusion_diag_init</text>
</a>
</g>
</g>
<!-- Node40&#45;&gt;Node53 -->
<g id="edge29" class="edge"><title>Node40&#45;&gt;Node53</title>
<path fill="none" stroke="midnightblue" d="M395.339,-476.73C463.225,-491.478 568.517,-515.166 575,-521.572 621.309,-567.338 567.831,-614.834 611,-663.572 614.061,-667.028 617.679,-669.99 621.606,-672.528"/>
<polygon fill="midnightblue" stroke="midnightblue" points="395.713,-473.23 385.198,-474.533 394.231,-480.071 395.713,-473.23"/>
</g>
<!-- Node42 -->
<g id="node17" class="node"><title>Node42</title>
<g id="a_node17"><a xlink:href="../../da/d01/namespacemom.html#afebdc0103ad9cbe0ed4a54e522dc4104" target="_top" xlink:title="This subroutine initializes MOM. ">
<polygon fill="white" stroke="black" points="773,-352.072 773,-371.072 862,-371.072 862,-352.072 773,-352.072"/>
<text text-anchor="middle" x="817.5" y="-359.072" font-family="Helvetica,sans-Serif" font-size="10.00">mom::initialize_mom</text>
</a>
</g>
</g>
<!-- Node41&#45;&gt;Node42 -->
<g id="edge17" class="edge"><title>Node41&#45;&gt;Node42</title>
<path fill="none" stroke="midnightblue" d="M732.314,-361.572C745.867,-361.572 760.103,-361.572 772.933,-361.572"/>
<polygon fill="midnightblue" stroke="midnightblue" points="732.117,-358.072 722.117,-361.572 732.117,-365.072 732.117,-358.072"/>
</g>
<!-- Node42&#45;&gt;Node36 -->
<g id="edge18" class="edge"><title>Node42&#45;&gt;Node36</title>
<path fill="none" stroke="midnightblue" d="M835.95,-378.285C858.457,-399.841 896.857,-436.618 914.975,-453.97"/>
<polygon fill="midnightblue" stroke="midnightblue" points="838.355,-375.741 828.712,-371.352 833.513,-380.797 838.355,-375.741"/>
</g>
<!-- Node44 -->
<g id="node19" class="node"><title>Node44</title>
<g id="a_node19"><a xlink:href="../../db/dd4/namespacemom__dynamics__legacy__split.html#aef55fe2e12672940edbd2dc5d7e72fd7" target="_top" xlink:title="mom_dynamics_legacy\l_split::initialize_dyn\l_legacy_split">
<polygon fill="white" stroke="black" points="624.5,-504.072 624.5,-545.072 723.5,-545.072 723.5,-504.072 624.5,-504.072"/>
<text text-anchor="start" x="632.5" y="-533.072" font-family="Helvetica,sans-Serif" font-size="10.00">mom_dynamics_legacy</text>
<text text-anchor="start" x="632.5" y="-522.072" font-family="Helvetica,sans-Serif" font-size="10.00">_split::initialize_dyn</text>
<text text-anchor="middle" x="674" y="-511.072" font-family="Helvetica,sans-Serif" font-size="10.00">_legacy_split</text>
</a>
</g>
</g>
<!-- Node43&#45;&gt;Node44 -->
<g id="edge20" class="edge"><title>Node43&#45;&gt;Node44</title>
<path fill="none" stroke="midnightblue" d="M543.639,-477.47C553.817,-481.036 564.843,-484.928 575,-488.572 591.122,-494.357 608.696,-500.777 624.452,-506.574"/>
<polygon fill="midnightblue" stroke="midnightblue" points="544.792,-474.165 534.197,-474.17 542.482,-480.773 544.792,-474.165"/>
</g>
<!-- Node45 -->
<g id="node20" class="node"><title>Node45</title>
<g id="a_node20"><a xlink:href="../../d1/dc3/namespacemom__dynamics__split__rk2.html#a3bae09afc9136333ab281704dc9d9415" target="_top" xlink:title="This subroutine initializes all of the variables that are used by this dynamic core, including diagnostics and the cpu clocks. ">
<polygon fill="white" stroke="black" points="629,-444.072 629,-485.072 719,-485.072 719,-444.072 629,-444.072"/>
<text text-anchor="start" x="637" y="-473.072" font-family="Helvetica,sans-Serif" font-size="10.00">mom_dynamics_split</text>
<text text-anchor="start" x="637" y="-462.072" font-family="Helvetica,sans-Serif" font-size="10.00">_rk2::initialize_dyn</text>
<text text-anchor="middle" x="674" y="-451.072" font-family="Helvetica,sans-Serif" font-size="10.00">_split_rk2</text>
</a>
</g>
</g>
<!-- Node43&#45;&gt;Node45 -->
<g id="edge21" class="edge"><title>Node43&#45;&gt;Node45</title>
<path fill="none" stroke="midnightblue" d="M581.384,-464.572C597.625,-464.572 614.295,-464.572 628.888,-464.572"/>
<polygon fill="midnightblue" stroke="midnightblue" points="581.35,-461.072 571.35,-464.572 581.35,-468.072 581.35,-461.072"/>
</g>
<!-- Node46 -->
<g id="node21" class="node"><title>Node46</title>
<g id="a_node21"><a xlink:href="../../d7/d44/namespacemom__dynamics__unsplit.html#ac557a7a55605cba7a17074f6375107f6" target="_top" xlink:title="mom_dynamics_unsplit\l::initialize_dyn_unsplit">
<polygon fill="white" stroke="black" points="624.5,-623.572 624.5,-653.572 723.5,-653.572 723.5,-623.572 624.5,-623.572"/>
<text text-anchor="start" x="632.5" y="-641.572" font-family="Helvetica,sans-Serif" font-size="10.00">mom_dynamics_unsplit</text>
<text text-anchor="middle" x="674" y="-630.572" font-family="Helvetica,sans-Serif" font-size="10.00">::initialize_dyn_unsplit</text>
</a>
</g>
</g>
<!-- Node43&#45;&gt;Node46 -->
<g id="edge22" class="edge"><title>Node43&#45;&gt;Node46</title>
<path fill="none" stroke="midnightblue" d="M562.446,-478.765C567.076,-481.481 571.365,-484.717 575,-488.572 614.956,-530.945 571.734,-571.558 611,-614.572 614.813,-618.749 619.438,-622.206 624.424,-625.066"/>
<polygon fill="midnightblue" stroke="midnightblue" points="563.716,-475.487 553.205,-474.155 560.591,-481.751 563.716,-475.487"/>
</g>
<!-- Node47 -->
<g id="node22" class="node"><title>Node47</title>
<g id="a_node22"><a xlink:href="../../d7/da4/namespacemom__dynamics__unsplit__rk2.html#a7be251effa3bf4a236ea3feda6fc6d91" target="_top" xlink:title="mom_dynamics_unsplit\l_rk2::initialize_dyn\l_unsplit_rk2">
<polygon fill="white" stroke="black" points="624.5,-564.072 624.5,-605.072 723.5,-605.072 723.5,-564.072 624.5,-564.072"/>
<text text-anchor="start" x="632.5" y="-593.072" font-family="Helvetica,sans-Serif" font-size="10.00">mom_dynamics_unsplit</text>
<text text-anchor="start" x="632.5" y="-582.072" font-family="Helvetica,sans-Serif" font-size="10.00">_rk2::initialize_dyn</text>
<text text-anchor="middle" x="674" y="-571.072" font-family="Helvetica,sans-Serif" font-size="10.00">_unsplit_rk2</text>
</a>
</g>
</g>
<!-- Node43&#45;&gt;Node47 -->
<g id="edge23" class="edge"><title>Node43&#45;&gt;Node47</title>
<path fill="none" stroke="midnightblue" d="M558.669,-478.169C564.541,-481.019 570.147,-484.449 575,-488.572 600.465,-510.205 586.805,-531.527 611,-554.572 614.983,-558.366 619.536,-561.765 624.327,-564.788"/>
<polygon fill="midnightblue" stroke="midnightblue" points="559.861,-474.872 549.291,-474.15 557.104,-481.306 559.861,-474.872"/>
</g>
<!-- Node49 -->
<g id="node24" class="node"><title>Node49</title>
<g id="a_node24"><a xlink:href="../../d0/dbf/namespacemom__diag__to__z.html#a90526b2f59f94c6af2f525a221029772" target="_top" xlink:title="mom_diag_to_z::ocean\l_register_diag_with_z">
<polygon fill="white" stroke="black" points="624,-395.572 624,-425.572 724,-425.572 724,-395.572 624,-395.572"/>
<text text-anchor="start" x="632" y="-413.572" font-family="Helvetica,sans-Serif" font-size="10.00">mom_diag_to_z::ocean</text>
<text text-anchor="middle" x="674" y="-402.572" font-family="Helvetica,sans-Serif" font-size="10.00">_register_diag_with_z</text>
</a>
</g>
</g>
<!-- Node48&#45;&gt;Node49 -->
<g id="edge25" class="edge"><title>Node48&#45;&gt;Node49</title>
<path fill="none" stroke="midnightblue" d="M563.385,-413.864C583.059,-413.273 604.924,-412.616 623.918,-412.046"/>
<polygon fill="midnightblue" stroke="midnightblue" points="563.213,-410.367 553.323,-414.166 563.423,-417.364 563.213,-410.367"/>
</g>
<!-- Node53&#45;&gt;Node42 -->
<g id="edge30" class="edge"><title>Node53&#45;&gt;Node42</title>
<path fill="none" stroke="midnightblue" d="M734.278,-666.362C735.226,-665.47 736.135,-664.54 737,-663.572 747.298,-652.052 802.313,-421.502 814.224,-371.207"/>
<polygon fill="midnightblue" stroke="midnightblue" points="732.12,-663.606 726.361,-672.498 736.409,-669.139 732.12,-663.606"/>
</g>
<!-- Node56 -->
<g id="node31" class="node"><title>Node56</title>
<g id="a_node31"><a xlink:href="../../df/d1a/namespacemom__obsolete__diagnostics.html#a137ff7cb882b715d0ccf915fef52386c" target="_top" xlink:title="Fakes a register of a diagnostic to find out if an obsolete parameter appears in the diag_table...">
<polygon fill="white" stroke="black" points="449,-302.572 449,-332.572 562,-332.572 562,-302.572 449,-302.572"/>
<text text-anchor="start" x="457" y="-320.572" font-family="Helvetica,sans-Serif" font-size="10.00">mom_obsolete_diagnostics</text>
<text text-anchor="middle" x="505.5" y="-309.572" font-family="Helvetica,sans-Serif" font-size="10.00">::found_in_diagtable</text>
</a>
</g>
</g>
<!-- Node55&#45;&gt;Node56 -->
<g id="edge33" class="edge"><title>Node55&#45;&gt;Node56</title>
<path fill="none" stroke="midnightblue" d="M395.155,-328.111C412.472,-326.442 431.497,-324.609 448.754,-322.945"/>
<polygon fill="midnightblue" stroke="midnightblue" points="394.8,-324.629 385.182,-329.073 395.472,-331.597 394.8,-324.629"/>
</g>
<!-- Node58 -->
<g id="node33" class="node"><title>Node58</title>
<g id="a_node33"><a xlink:href="../../de/d5f/namespacemom__geothermal.html#a0abbb7953860e3357bbd3d35f46fd851" target="_top" xlink:title="mom_geothermal::geothermal_init">
<polygon fill="white" stroke="black" points="436,-259.072 436,-278.072 575,-278.072 575,-259.072 436,-259.072"/>
<text text-anchor="middle" x="505.5" y="-266.072" font-family="Helvetica,sans-Serif" font-size="10.00">mom_geothermal::geothermal_init</text>
</a>
</g>
</g>
<!-- Node55&#45;&gt;Node58 -->
<g id="edge36" class="edge"><title>Node55&#45;&gt;Node58</title>
<path fill="none" stroke="midnightblue" d="M385.412,-314.684C390.347,-312.643 395.282,-310.579 400,-308.572 416.112,-301.719 419.724,-299.028 436,-292.572 448.885,-287.461 463.344,-282.312 475.646,-278.1"/>
<polygon fill="midnightblue" stroke="midnightblue" points="383.9,-311.522 375.98,-318.56 386.56,-317.996 383.9,-311.522"/>
</g>
<!-- Node57 -->
<g id="node32" class="node"><title>Node57</title>
<g id="a_node32"><a xlink:href="../../df/d1a/namespacemom__obsolete__diagnostics.html#ad5e890c09abd2c650beb9ac36bbb49b4" target="_top" xlink:title="Scan through the diag_table searching for obsolete parameters and issue informational messages and op...">
<polygon fill="white" stroke="black" points="611,-297.572 611,-327.572 737,-327.572 737,-297.572 611,-297.572"/>
<text text-anchor="start" x="619" y="-315.572" font-family="Helvetica,sans-Serif" font-size="10.00">mom_obsolete_diagnostics</text>
<text text-anchor="middle" x="674" y="-304.572" font-family="Helvetica,sans-Serif" font-size="10.00">::register_obsolete_diagnostics</text>
</a>
</g>
</g>
<!-- Node56&#45;&gt;Node57 -->
<g id="edge34" class="edge"><title>Node56&#45;&gt;Node57</title>
<path fill="none" stroke="midnightblue" d="M572.438,-315.592C585.127,-315.211 598.378,-314.813 610.94,-314.436"/>
<polygon fill="midnightblue" stroke="midnightblue" points="572.296,-312.095 562.405,-315.893 572.506,-319.091 572.296,-312.095"/>
</g>
<!-- Node57&#45;&gt;Node42 -->
<g id="edge35" class="edge"><title>Node57&#45;&gt;Node42</title>
<path fill="none" stroke="midnightblue" d="M728.222,-331.002C748.854,-338.147 771.609,-346.027 788.849,-351.997"/>
<polygon fill="midnightblue" stroke="midnightblue" points="729.204,-327.639 718.609,-327.674 726.913,-334.253 729.204,-327.639"/>
</g>
<!-- Node59 -->
<g id="node34" class="node"><title>Node59</title>
<g id="a_node34"><a xlink:href="../../d8/df3/namespacemom__diabatic__driver.html#afa0b30bd6f0e080bcacbd6dcb15ff990" target="_top" xlink:title="This routine initializes the diabatic driver module. ">
<polygon fill="white" stroke="black" points="628.5,-248.572 628.5,-278.572 719.5,-278.572 719.5,-248.572 628.5,-248.572"/>
<text text-anchor="start" x="636.5" y="-266.572" font-family="Helvetica,sans-Serif" font-size="10.00">mom_diabatic_driver</text>
<text text-anchor="middle" x="674" y="-255.572" font-family="Helvetica,sans-Serif" font-size="10.00">::diabatic_driver_init</text>
</a>
</g>
</g>
<!-- Node58&#45;&gt;Node59 -->
<g id="edge37" class="edge"><title>Node58&#45;&gt;Node59</title>
<path fill="none" stroke="midnightblue" d="M585.336,-266.205C600.077,-265.762 615.003,-265.314 628.258,-264.916"/>
<polygon fill="midnightblue" stroke="midnightblue" points="585.074,-262.711 575.183,-266.51 585.284,-269.708 585.074,-262.711"/>
</g>
<!-- Node64&#45;&gt;Node63 -->
<g id="edge46" class="edge"><title>Node64&#45;&gt;Node63</title>
<path fill="none" stroke="midnightblue" d="M242.831,-39.2646C258.396,-36.9893 275.081,-34.5503 289.993,-32.3704"/>
<polygon fill="midnightblue" stroke="midnightblue" points="242.183,-35.8221 232.794,-40.7318 243.195,-42.7484 242.183,-35.8221"/>
</g>
<!-- Node65&#45;&gt;Node42 -->
<g id="edge48" class="edge"><title>Node65&#45;&gt;Node42</title>
<path fill="none" stroke="midnightblue" d="M242.55,-226.131C347.428,-197.268 576.04,-150.953 737,-238.572 782.781,-263.493 806.22,-327.375 813.742,-351.839"/>
<polygon fill="midnightblue" stroke="midnightblue" points="241.478,-222.797 232.793,-228.865 243.367,-229.537 241.478,-222.797"/>
</g>
</g>
</svg>
