<?xml version="1.0" encoding="UTF-8" standalone="no"?>
<!DOCTYPE svg PUBLIC "-//W3C//DTD SVG 1.1//EN"
 "http://www.w3.org/Graphics/SVG/1.1/DTD/svg11.dtd">
<!-- Generated by graphviz version 2.38.0 (20140413.2041)
 -->
<!-- Title: mom_diag_mediator::post_data_0d Pages: 1 -->
<svg width="492pt" height="39pt"
 viewBox="0.00 0.00 492.00 39.00" xmlns="http://www.w3.org/2000/svg" xmlns:xlink="http://www.w3.org/1999/xlink">
<g id="graph0" class="graph" transform="scale(1 1) rotate(0) translate(4 35)">
<title>mom_diag_mediator::post_data_0d</title>
<polygon fill="white" stroke="none" points="-4,4 -4,-35 488,-35 488,4 -4,4"/>
<!-- Node327 -->
<g id="node1" class="node"><title>Node327</title>
<polygon fill="#bfbfbf" stroke="black" points="0,-0.5 0,-30.5 95,-30.5 95,-0.5 0,-0.5"/>
<text text-anchor="start" x="8" y="-18.5" font-family="Helvetica,sans-Serif" font-size="10.00">mom_diag_mediator::</text>
<text text-anchor="middle" x="47.5" y="-7.5" font-family="Helvetica,sans-Serif" font-size="10.00">post_data_0d</text>
</g>
<!-- Node328 -->
<g id="node2" class="node"><title>Node328</title>
<g id="a_node2"><a xlink:href="../../d9/d06/namespacemom__diag__mediator.html#a6e11afe7a97bf8e3333d33b0aebd6f6e" target="_top" xlink:title="mom_diag_mediator::\lassert">
<polygon fill="white" stroke="black" points="131,-0.5 131,-30.5 226,-30.5 226,-0.5 131,-0.5"/>
<text text-anchor="start" x="139" y="-18.5" font-family="Helvetica,sans-Serif" font-size="10.00">mom_diag_mediator::</text>
<text text-anchor="middle" x="178.5" y="-7.5" font-family="Helvetica,sans-Serif" font-size="10.00">assert</text>
</a>
</g>
</g>
<!-- Node327&#45;&gt;Node328 -->
<g id="edge1" class="edge"><title>Node327&#45;&gt;Node328</title>
<path fill="none" stroke="midnightblue" d="M95.072,-15.5C103.475,-15.5 112.319,-15.5 120.969,-15.5"/>
<polygon fill="midnightblue" stroke="midnightblue" points="120.996,-19.0001 130.996,-15.5 120.996,-12.0001 120.996,-19.0001"/>
</g>
<!-- Node329 -->
<g id="node3" class="node"><title>Node329</title>
<g id="a_node3"><a xlink:href="../../d0/de6/namespacemom__error__handler.html#a460cfb79a06c29fc249952c2a3710d67" target="_top" xlink:title="mom_error_handler::\lmom_error">
<polygon fill="white" stroke="black" points="262,-0.5 262,-30.5 355,-30.5 355,-0.5 262,-0.5"/>
<text text-anchor="start" x="270" y="-18.5" font-family="Helvetica,sans-Serif" font-size="10.00">mom_error_handler::</text>
<text text-anchor="middle" x="308.5" y="-7.5" font-family="Helvetica,sans-Serif" font-size="10.00">mom_error</text>
</a>
</g>
</g>
<!-- Node328&#45;&gt;Node329 -->
<g id="edge2" class="edge"><title>Node328&#45;&gt;Node329</title>
<path fill="none" stroke="midnightblue" d="M226.073,-15.5C234.306,-15.5 242.955,-15.5 251.416,-15.5"/>
<polygon fill="midnightblue" stroke="midnightblue" points="251.604,-19.0001 261.604,-15.5 251.604,-12.0001 251.604,-19.0001"/>
</g>
<!-- Node330 -->
<g id="node4" class="node"><title>Node330</title>
<g id="a_node4"><a xlink:href="../../d0/de6/namespacemom__error__handler.html#ad5f00a53059c72fe2332d1436c80ca71" target="_top" xlink:title="mom_error_handler::\lis_root_pe">
<polygon fill="white" stroke="black" points="391,-0.5 391,-30.5 484,-30.5 484,-0.5 391,-0.5"/>
<text text-anchor="start" x="399" y="-18.5" font-family="Helvetica,sans-Serif" font-size="10.00">mom_error_handler::</text>
<text text-anchor="middle" x="437.5" y="-7.5" font-family="Helvetica,sans-Serif" font-size="10.00">is_root_pe</text>
</a>
</g>
</g>
<!-- Node329&#45;&gt;Node330 -->
<g id="edge3" class="edge"><title>Node329&#45;&gt;Node330</title>
<path fill="none" stroke="midnightblue" d="M355.35,-15.5C363.533,-15.5 372.141,-15.5 380.568,-15.5"/>
<polygon fill="midnightblue" stroke="midnightblue" points="380.717,-19.0001 390.717,-15.5 380.717,-12.0001 380.717,-19.0001"/>
</g>
</g>
</svg>
