<?xml version="1.0" encoding="UTF-8" standalone="no"?>
<!DOCTYPE svg PUBLIC "-//W3C//DTD SVG 1.1//EN"
 "http://www.w3.org/Graphics/SVG/1.1/DTD/svg11.dtd">
<!-- Generated by graphviz version 2.38.0 (20140413.2041)
 -->
<!-- Title: mom_diag_mediator::register_diag_field Pages: 1 -->
<svg width="498pt" height="402pt"
 viewBox="0.00 0.00 498.00 402.00" xmlns="http://www.w3.org/2000/svg" xmlns:xlink="http://www.w3.org/1999/xlink">
<g id="graph0" class="graph" transform="scale(1 1) rotate(0) translate(4 398)">
<title>mom_diag_mediator::register_diag_field</title>
<polygon fill="white" stroke="none" points="-4,4 -4,-398 494,-398 494,4 -4,4"/>
<!-- Node414 -->
<g id="node1" class="node"><title>Node414</title>
<polygon fill="#bfbfbf" stroke="black" points="0,-137.5 0,-167.5 95,-167.5 95,-137.5 0,-137.5"/>
<text text-anchor="start" x="8" y="-155.5" font-family="Helvetica,sans-Serif" font-size="10.00">mom_diag_mediator::</text>
<text text-anchor="middle" x="47.5" y="-144.5" font-family="Helvetica,sans-Serif" font-size="10.00">register_diag_field</text>
</g>
<!-- Node415 -->
<g id="node2" class="node"><title>Node415</title>
<g id="a_node2"><a xlink:href="../../d7/d73/namespacemom__ale.html#a994efb3c62fc5f63da2617f29cbd6be1" target="_top" xlink:title="Initialize diagnostics for the ALE module. ">
<polygon fill="white" stroke="black" points="148.5,-235.5 148.5,-265.5 244.5,-265.5 244.5,-235.5 148.5,-235.5"/>
<text text-anchor="start" x="156.5" y="-253.5" font-family="Helvetica,sans-Serif" font-size="10.00">mom_ale::ale_register</text>
<text text-anchor="middle" x="196.5" y="-242.5" font-family="Helvetica,sans-Serif" font-size="10.00">_diags</text>
</a>
</g>
</g>
<!-- Node414&#45;&gt;Node415 -->
<g id="edge1" class="edge"><title>Node414&#45;&gt;Node415</title>
<path fill="none" stroke="midnightblue" d="M69.5658,-174.987C85.3014,-190.77 107.98,-211.479 131,-225.5 137.052,-229.186 143.74,-232.501 150.45,-235.42"/>
<polygon fill="midnightblue" stroke="midnightblue" points="71.9211,-172.39 62.4277,-167.686 66.9157,-177.283 71.9211,-172.39"/>
</g>
<!-- Node418 -->
<g id="node5" class="node"><title>Node418</title>
<g id="a_node5"><a xlink:href="../../d8/dd2/namespacemom__coriolisadv.html#ad3ce07f23ce7b484a5a9e0c0abe8b1cd" target="_top" xlink:title="mom_coriolisadv::coriolisadv_init">
<polygon fill="white" stroke="black" points="131,-285 131,-304 262,-304 262,-285 131,-285"/>
<text text-anchor="middle" x="196.5" y="-292" font-family="Helvetica,sans-Serif" font-size="10.00">mom_coriolisadv::coriolisadv_init</text>
</a>
</g>
</g>
<!-- Node414&#45;&gt;Node418 -->
<g id="edge4" class="edge"><title>Node414&#45;&gt;Node418</title>
<path fill="none" stroke="midnightblue" d="M58.9459,-177.04C71.9211,-204.658 96.6211,-248.987 131,-274.5 136.837,-278.832 143.63,-282.238 150.573,-284.914"/>
<polygon fill="midnightblue" stroke="midnightblue" points="62.0206,-175.346 54.6997,-167.687 55.6466,-178.24 62.0206,-175.346"/>
</g>
<!-- Node423 -->
<g id="node10" class="node"><title>Node423</title>
<g id="a_node10"><a xlink:href="../../d6/d07/namespacemom__diffconvection.html#ac36d9d7fd69e4422e7de01242094ff34" target="_top" xlink:title="mom_diffconvection\l::diffconvection_init">
<polygon fill="white" stroke="black" points="153,-186.5 153,-216.5 240,-216.5 240,-186.5 153,-186.5"/>
<text text-anchor="start" x="161" y="-204.5" font-family="Helvetica,sans-Serif" font-size="10.00">mom_diffconvection</text>
<text text-anchor="middle" x="196.5" y="-193.5" font-family="Helvetica,sans-Serif" font-size="10.00">::diffconvection_init</text>
</a>
</g>
</g>
<!-- Node414&#45;&gt;Node423 -->
<g id="edge9" class="edge"><title>Node414&#45;&gt;Node423</title>
<path fill="none" stroke="midnightblue" d="M103.685,-170.895C119.867,-176.289 137.313,-182.104 152.606,-187.202"/>
<polygon fill="midnightblue" stroke="midnightblue" points="104.398,-167.443 93.8043,-167.601 102.184,-174.084 104.398,-167.443"/>
</g>
<!-- Node424 -->
<g id="node11" class="node"><title>Node424</title>
<g id="a_node11"><a xlink:href="../../d0/d77/namespacemom__int__tide__input.html#a29a707637da633ccee155b53557b5f17" target="_top" xlink:title="mom_int_tide_input\l::int_tide_input_init">
<polygon fill="white" stroke="black" points="153.5,-137.5 153.5,-167.5 239.5,-167.5 239.5,-137.5 153.5,-137.5"/>
<text text-anchor="start" x="161.5" y="-155.5" font-family="Helvetica,sans-Serif" font-size="10.00">mom_int_tide_input</text>
<text text-anchor="middle" x="196.5" y="-144.5" font-family="Helvetica,sans-Serif" font-size="10.00">::int_tide_input_init</text>
</a>
</g>
</g>
<!-- Node414&#45;&gt;Node424 -->
<g id="edge10" class="edge"><title>Node414&#45;&gt;Node424</title>
<path fill="none" stroke="midnightblue" d="M105.305,-152.5C121.264,-152.5 138.331,-152.5 153.277,-152.5"/>
<polygon fill="midnightblue" stroke="midnightblue" points="105.012,-149 95.0117,-152.5 105.012,-156 105.012,-149"/>
</g>
<!-- Node425 -->
<g id="node12" class="node"><title>Node425</title>
<g id="a_node12"><a xlink:href="../../d5/d08/namespacemom__kpp.html#a9c834424b6e067e280928db3700ec77e" target="_top" xlink:title="Initialize the CVmix KPP module and set up diagnostics Returns True if KPP is to be used...">
<polygon fill="white" stroke="black" points="155,-99 155,-118 238,-118 238,-99 155,-99"/>
<text text-anchor="middle" x="196.5" y="-106" font-family="Helvetica,sans-Serif" font-size="10.00">mom_kpp::kpp_init</text>
</a>
</g>
</g>
<!-- Node414&#45;&gt;Node425 -->
<g id="edge11" class="edge"><title>Node414&#45;&gt;Node425</title>
<path fill="none" stroke="midnightblue" d="M104.91,-135.343C113.642,-132.705 122.561,-130.022 131,-127.5 141.402,-124.392 152.759,-121.035 163.003,-118.019"/>
<polygon fill="midnightblue" stroke="midnightblue" points="103.724,-132.045 95.1654,-138.29 105.75,-138.745 103.724,-132.045"/>
</g>
<!-- Node426 -->
<g id="node13" class="node"><title>Node426</title>
<g id="a_node13"><a xlink:href="../../d8/da4/namespacemom__neutral__diffusion.html#a87cf821c52ac1111493d4168f0a91d17" target="_top" xlink:title="Diagnostic handles for neutral diffusion tendencies. ">
<polygon fill="white" stroke="black" points="140,-49.5 140,-79.5 253,-79.5 253,-49.5 140,-49.5"/>
<text text-anchor="start" x="148" y="-67.5" font-family="Helvetica,sans-Serif" font-size="10.00">mom_neutral_diffusion</text>
<text text-anchor="middle" x="196.5" y="-56.5" font-family="Helvetica,sans-Serif" font-size="10.00">::neutral_diffusion_diag_init</text>
</a>
</g>
</g>
<!-- Node414&#45;&gt;Node426 -->
<g id="edge12" class="edge"><title>Node414&#45;&gt;Node426</title>
<path fill="none" stroke="midnightblue" d="M72.9107,-130.916C88.6922,-117.729 110.117,-101.207 131,-89.5 137.495,-85.8587 144.627,-82.5149 151.707,-79.5379"/>
<polygon fill="midnightblue" stroke="midnightblue" points="70.5585,-128.322 65.2052,-137.464 75.0916,-133.655 70.5585,-128.322"/>
</g>
<!-- Node427 -->
<g id="node14" class="node"><title>Node427</title>
<g id="a_node14"><a xlink:href="../../d9/d06/namespacemom__diag__mediator.html#a21267e25d12fa3e5d2540d2a299d2d2c" target="_top" xlink:title="Registers a diagnostic using the information encapsulated in the vardesc type argument and returns an...">
<polygon fill="white" stroke="black" points="149,-0.5 149,-30.5 244,-30.5 244,-0.5 149,-0.5"/>
<text text-anchor="start" x="157" y="-18.5" font-family="Helvetica,sans-Serif" font-size="10.00">mom_diag_mediator::</text>
<text text-anchor="middle" x="196.5" y="-7.5" font-family="Helvetica,sans-Serif" font-size="10.00">ocean_register_diag</text>
</a>
</g>
</g>
<!-- Node414&#45;&gt;Node427 -->
<g id="edge14" class="edge"><title>Node414&#45;&gt;Node427</title>
<path fill="none" stroke="midnightblue" d="M60.7166,-128.133C74.5738,-102.755 99.4071,-63.427 131,-39.5 136.334,-35.4604 142.421,-32.0397 148.675,-29.1604"/>
<polygon fill="midnightblue" stroke="midnightblue" points="57.546,-126.642 55.9519,-137.116 63.7299,-129.922 57.546,-126.642"/>
</g>
<!-- Node416 -->
<g id="node3" class="node"><title>Node416</title>
<g id="a_node3"><a xlink:href="../../da/d01/namespacemom.html#afebdc0103ad9cbe0ed4a54e522dc4104" target="_top" xlink:title="This subroutine initializes MOM. ">
<polygon fill="white" stroke="black" points="303.5,-100 303.5,-119 392.5,-119 392.5,-100 303.5,-100"/>
<text text-anchor="middle" x="348" y="-107" font-family="Helvetica,sans-Serif" font-size="10.00">mom::initialize_mom</text>
</a>
</g>
</g>
<!-- Node415&#45;&gt;Node416 -->
<g id="edge2" class="edge"><title>Node415&#45;&gt;Node416</title>
<path fill="none" stroke="midnightblue" d="M253.705,-231.162C256.609,-229.417 259.397,-227.533 262,-225.5 283.868,-208.425 281.647,-196.914 298,-174.5 312.493,-154.635 329.921,-131.746 339.599,-119.12"/>
<polygon fill="midnightblue" stroke="midnightblue" points="251.876,-228.171 244.719,-235.984 255.186,-234.339 251.876,-228.171"/>
</g>
<!-- Node417 -->
<g id="node4" class="node"><title>Node417</title>
<g id="a_node4"><a xlink:href="../../de/dbc/MOM__driver_8F90.html#a08fffeb2d8e8acbf9ed4609be6d258c6" target="_top" xlink:title="mom_main">
<polygon fill="white" stroke="black" points="434,-100 434,-119 490,-119 490,-100 434,-100"/>
<text text-anchor="middle" x="462" y="-107" font-family="Helvetica,sans-Serif" font-size="10.00">mom_main</text>
</a>
</g>
</g>
<!-- Node416&#45;&gt;Node417 -->
<g id="edge3" class="edge"><title>Node416&#45;&gt;Node417</title>
<path fill="none" stroke="midnightblue" d="M402.845,-109.5C413.594,-109.5 424.449,-109.5 433.823,-109.5"/>
<polygon fill="midnightblue" stroke="midnightblue" points="402.623,-106 392.623,-109.5 402.623,-113 402.623,-106"/>
</g>
<!-- Node419 -->
<g id="node6" class="node"><title>Node419</title>
<g id="a_node6"><a xlink:href="../../db/dd4/namespacemom__dynamics__legacy__split.html#aef55fe2e12672940edbd2dc5d7e72fd7" target="_top" xlink:title="mom_dynamics_legacy\l_split::initialize_dyn\l_legacy_split">
<polygon fill="white" stroke="black" points="298.5,-244 298.5,-285 397.5,-285 397.5,-244 298.5,-244"/>
<text text-anchor="start" x="306.5" y="-273" font-family="Helvetica,sans-Serif" font-size="10.00">mom_dynamics_legacy</text>
<text text-anchor="start" x="306.5" y="-262" font-family="Helvetica,sans-Serif" font-size="10.00">_split::initialize_dyn</text>
<text text-anchor="middle" x="348" y="-251" font-family="Helvetica,sans-Serif" font-size="10.00">_legacy_split</text>
</a>
</g>
</g>
<!-- Node418&#45;&gt;Node419 -->
<g id="edge5" class="edge"><title>Node418&#45;&gt;Node419</title>
<path fill="none" stroke="midnightblue" d="M255.393,-282.883C269.625,-280.027 284.717,-276.998 298.456,-274.241"/>
<polygon fill="midnightblue" stroke="midnightblue" points="254.33,-279.526 245.214,-284.925 255.707,-286.389 254.33,-279.526"/>
</g>
<!-- Node420 -->
<g id="node7" class="node"><title>Node420</title>
<g id="a_node7"><a xlink:href="../../d1/dc3/namespacemom__dynamics__split__rk2.html#a3bae09afc9136333ab281704dc9d9415" target="_top" xlink:title="This subroutine initializes all of the variables that are used by this dynamic core, including diagnostics and the cpu clocks. ">
<polygon fill="white" stroke="black" points="303,-184 303,-225 393,-225 393,-184 303,-184"/>
<text text-anchor="start" x="311" y="-213" font-family="Helvetica,sans-Serif" font-size="10.00">mom_dynamics_split</text>
<text text-anchor="start" x="311" y="-202" font-family="Helvetica,sans-Serif" font-size="10.00">_rk2::initialize_dyn</text>
<text text-anchor="middle" x="348" y="-191" font-family="Helvetica,sans-Serif" font-size="10.00">_split_rk2</text>
</a>
</g>
</g>
<!-- Node418&#45;&gt;Node420 -->
<g id="edge6" class="edge"><title>Node418&#45;&gt;Node420</title>
<path fill="none" stroke="midnightblue" d="M249.208,-281.266C253.679,-279.296 258.013,-277.052 262,-274.5 282.145,-261.607 279.61,-249.792 298,-234.5 301.911,-231.247 306.209,-228.1 310.584,-225.145"/>
<polygon fill="midnightblue" stroke="midnightblue" points="247.92,-278.012 239.901,-284.937 250.488,-284.524 247.92,-278.012"/>
</g>
<!-- Node421 -->
<g id="node8" class="node"><title>Node421</title>
<g id="a_node8"><a xlink:href="../../d7/d44/namespacemom__dynamics__unsplit.html#ac557a7a55605cba7a17074f6375107f6" target="_top" xlink:title="mom_dynamics_unsplit\l::initialize_dyn_unsplit">
<polygon fill="white" stroke="black" points="298.5,-363.5 298.5,-393.5 397.5,-393.5 397.5,-363.5 298.5,-363.5"/>
<text text-anchor="start" x="306.5" y="-381.5" font-family="Helvetica,sans-Serif" font-size="10.00">mom_dynamics_unsplit</text>
<text text-anchor="middle" x="348" y="-370.5" font-family="Helvetica,sans-Serif" font-size="10.00">::initialize_dyn_unsplit</text>
</a>
</g>
</g>
<!-- Node418&#45;&gt;Node421 -->
<g id="edge7" class="edge"><title>Node418&#45;&gt;Node421</title>
<path fill="none" stroke="midnightblue" d="M221.131,-309.363C241.296,-321.863 271.2,-339.969 298,-354.5 303.496,-357.48 309.415,-360.519 315.174,-363.388"/>
<polygon fill="midnightblue" stroke="midnightblue" points="222.935,-306.364 212.597,-304.047 219.234,-312.305 222.935,-306.364"/>
</g>
<!-- Node422 -->
<g id="node9" class="node"><title>Node422</title>
<g id="a_node9"><a xlink:href="../../d7/da4/namespacemom__dynamics__unsplit__rk2.html#a7be251effa3bf4a236ea3feda6fc6d91" target="_top" xlink:title="mom_dynamics_unsplit\l_rk2::initialize_dyn\l_unsplit_rk2">
<polygon fill="white" stroke="black" points="298.5,-304 298.5,-345 397.5,-345 397.5,-304 298.5,-304"/>
<text text-anchor="start" x="306.5" y="-333" font-family="Helvetica,sans-Serif" font-size="10.00">mom_dynamics_unsplit</text>
<text text-anchor="start" x="306.5" y="-322" font-family="Helvetica,sans-Serif" font-size="10.00">_rk2::initialize_dyn</text>
<text text-anchor="middle" x="348" y="-311" font-family="Helvetica,sans-Serif" font-size="10.00">_unsplit_rk2</text>
</a>
</g>
</g>
<!-- Node418&#45;&gt;Node422 -->
<g id="edge8" class="edge"><title>Node418&#45;&gt;Node422</title>
<path fill="none" stroke="midnightblue" d="M255.393,-306.117C269.625,-308.973 284.717,-312.002 298.456,-314.759"/>
<polygon fill="midnightblue" stroke="midnightblue" points="255.707,-302.611 245.214,-304.075 254.33,-309.474 255.707,-302.611"/>
</g>
<!-- Node426&#45;&gt;Node416 -->
<g id="edge13" class="edge"><title>Node426&#45;&gt;Node416</title>
<path fill="none" stroke="midnightblue" d="M257.315,-82.5045C277.2,-88.4901 298.556,-94.9181 315.438,-99.9996"/>
<polygon fill="midnightblue" stroke="midnightblue" points="258.282,-79.1404 247.697,-79.6095 256.264,-85.8434 258.282,-79.1404"/>
</g>
<!-- Node428 -->
<g id="node15" class="node"><title>Node428</title>
<g id="a_node15"><a xlink:href="../../d0/dbf/namespacemom__diag__to__z.html#a90526b2f59f94c6af2f525a221029772" target="_top" xlink:title="mom_diag_to_z::ocean\l_register_diag_with_z">
<polygon fill="white" stroke="black" points="298,-0.5 298,-30.5 398,-30.5 398,-0.5 298,-0.5"/>
<text text-anchor="start" x="306" y="-18.5" font-family="Helvetica,sans-Serif" font-size="10.00">mom_diag_to_z::ocean</text>
<text text-anchor="middle" x="348" y="-7.5" font-family="Helvetica,sans-Serif" font-size="10.00">_register_diag_with_z</text>
</a>
</g>
</g>
<!-- Node427&#45;&gt;Node428 -->
<g id="edge15" class="edge"><title>Node427&#45;&gt;Node428</title>
<path fill="none" stroke="midnightblue" d="M254.603,-15.5C268.891,-15.5 284.092,-15.5 297.95,-15.5"/>
<polygon fill="midnightblue" stroke="midnightblue" points="254.393,-12.0001 244.393,-15.5 254.393,-19.0001 254.393,-12.0001"/>
</g>
</g>
</svg>
