<?xml version="1.0" encoding="UTF-8" standalone="no"?>
<!DOCTYPE svg PUBLIC "-//W3C//DTD SVG 1.1//EN"
 "http://www.w3.org/Graphics/SVG/1.1/DTD/svg11.dtd">
<!-- Generated by graphviz version 2.38.0 (20140413.2041)
 -->
<!-- Title: mom_diag_mediator::disable_averaging Pages: 1 -->
<svg width="322pt" height="144pt"
 viewBox="0.00 0.00 322.00 143.71" xmlns="http://www.w3.org/2000/svg" xmlns:xlink="http://www.w3.org/1999/xlink">
<g id="graph0" class="graph" transform="scale(1 1) rotate(0) translate(4 139.712)">
<title>mom_diag_mediator::disable_averaging</title>
<polygon fill="white" stroke="none" points="-4,4 -4,-139.712 318,-139.712 318,4 -4,4"/>
<!-- Node164 -->
<g id="node1" class="node"><title>Node164</title>
<polygon fill="#bfbfbf" stroke="black" points="0,-66.5 0,-96.5 95,-96.5 95,-66.5 0,-66.5"/>
<text text-anchor="start" x="8" y="-84.5" font-family="Helvetica,sans-Serif" font-size="10.00">mom_diag_mediator::</text>
<text text-anchor="middle" x="47.5" y="-73.5" font-family="Helvetica,sans-Serif" font-size="10.00">disable_averaging</text>
</g>
<!-- Node165 -->
<g id="node2" class="node"><title>Node165</title>
<g id="a_node2"><a xlink:href="../../de/dbc/MOM__driver_8F90.html#a08fffeb2d8e8acbf9ed4609be6d258c6" target="_top" xlink:title="mom_main">
<polygon fill="white" stroke="black" points="258,-116 258,-135 314,-135 314,-116 258,-116"/>
<text text-anchor="middle" x="286" y="-123" font-family="Helvetica,sans-Serif" font-size="10.00">mom_main</text>
</a>
</g>
</g>
<!-- Node164&#45;&gt;Node165 -->
<g id="edge1" class="edge"><title>Node164&#45;&gt;Node165</title>
<path fill="none" stroke="midnightblue" d="M76.6515,-102.407C91.8966,-112.427 111.552,-123.349 131,-128.5 174.169,-139.934 226.551,-135.174 257.755,-130.482"/>
<polygon fill="midnightblue" stroke="midnightblue" points="78.4549,-99.4008 68.22,-96.6626 74.5134,-105.186 78.4549,-99.4008"/>
</g>
<!-- Node166 -->
<g id="node3" class="node"><title>Node166</title>
<g id="a_node3"><a xlink:href="../../df/da2/namespacemom__ice__shelf.html#a3b0e0cc9f36c5197236cc05867b780df" target="_top" xlink:title="mom_ice_shelf::shelf\l_calc_flux">
<polygon fill="white" stroke="black" points="131,-88.5 131,-118.5 222,-118.5 222,-88.5 131,-88.5"/>
<text text-anchor="start" x="139" y="-106.5" font-family="Helvetica,sans-Serif" font-size="10.00">mom_ice_shelf::shelf</text>
<text text-anchor="middle" x="176.5" y="-95.5" font-family="Helvetica,sans-Serif" font-size="10.00">_calc_flux</text>
</a>
</g>
</g>
<!-- Node164&#45;&gt;Node166 -->
<g id="edge2" class="edge"><title>Node164&#45;&gt;Node166</title>
<path fill="none" stroke="midnightblue" d="M105.02,-91.2909C113.597,-92.7766 122.345,-94.2921 130.63,-95.7272"/>
<polygon fill="midnightblue" stroke="midnightblue" points="105.52,-87.8254 95.069,-89.5671 104.325,-94.7227 105.52,-87.8254"/>
</g>
<!-- Node167 -->
<g id="node4" class="node"><title>Node167</title>
<g id="a_node4"><a xlink:href="../../d5/d6d/ice__shelf__driver_8F90.html#aec5bef92f0dad343f545cd8d62e378d8" target="_top" xlink:title="shelf_main">
<polygon fill="white" stroke="black" points="258.5,-28 258.5,-47 313.5,-47 313.5,-28 258.5,-28"/>
<text text-anchor="middle" x="286" y="-35" font-family="Helvetica,sans-Serif" font-size="10.00">shelf_main</text>
</a>
</g>
</g>
<!-- Node164&#45;&gt;Node167 -->
<g id="edge4" class="edge"><title>Node164&#45;&gt;Node167</title>
<path fill="none" stroke="midnightblue" d="M105.258,-70.9403C153.721,-61.9241 221.274,-49.356 258.226,-42.4812"/>
<polygon fill="midnightblue" stroke="midnightblue" points="104.416,-67.5369 95.2248,-72.807 105.696,-74.4188 104.416,-67.5369"/>
</g>
<!-- Node168 -->
<g id="node5" class="node"><title>Node168</title>
<g id="a_node5"><a xlink:href="../../df/da2/namespacemom__ice__shelf.html#ac084bdc5be4e708e3263488e9574a3c9" target="_top" xlink:title="mom_ice_shelf::solo\l_time_step">
<polygon fill="white" stroke="black" points="132,-0.5 132,-30.5 221,-30.5 221,-0.5 132,-0.5"/>
<text text-anchor="start" x="140" y="-18.5" font-family="Helvetica,sans-Serif" font-size="10.00">mom_ice_shelf::solo</text>
<text text-anchor="middle" x="176.5" y="-7.5" font-family="Helvetica,sans-Serif" font-size="10.00">_time_step</text>
</a>
</g>
</g>
<!-- Node164&#45;&gt;Node168 -->
<g id="edge5" class="edge"><title>Node164&#45;&gt;Node168</title>
<path fill="none" stroke="midnightblue" d="M86.7217,-61.6368C105.91,-51.665 128.778,-39.7807 146.499,-30.5713"/>
<polygon fill="midnightblue" stroke="midnightblue" points="84.8957,-58.6412 77.6364,-66.3583 88.1237,-64.8525 84.8957,-58.6412"/>
</g>
<!-- Node166&#45;&gt;Node165 -->
<g id="edge3" class="edge"><title>Node166&#45;&gt;Node165</title>
<path fill="none" stroke="midnightblue" d="M232.183,-114.691C241.098,-116.515 249.979,-118.333 257.844,-119.942"/>
<polygon fill="midnightblue" stroke="midnightblue" points="232.654,-111.215 222.156,-112.639 231.251,-118.073 232.654,-111.215"/>
</g>
<!-- Node168&#45;&gt;Node167 -->
<g id="edge6" class="edge"><title>Node168&#45;&gt;Node167</title>
<path fill="none" stroke="midnightblue" d="M231.037,-26.4564C240.504,-28.3938 249.979,-30.333 258.289,-32.0335"/>
<polygon fill="midnightblue" stroke="midnightblue" points="231.723,-23.0243 221.224,-24.4482 230.32,-29.8822 231.723,-23.0243"/>
</g>
</g>
</svg>
