<?xml version="1.0" encoding="UTF-8" standalone="no"?>
<!DOCTYPE svg PUBLIC "-//W3C//DTD SVG 1.1//EN"
 "http://www.w3.org/Graphics/SVG/1.1/DTD/svg11.dtd">
<!-- Generated by graphviz version 2.38.0 (20140413.2041)
 -->
<!-- Title: user_surface_forcing::user_wind_forcing Pages: 1 -->
<svg width="379pt" height="88pt"
 viewBox="0.00 0.00 379.00 88.00" xmlns="http://www.w3.org/2000/svg" xmlns:xlink="http://www.w3.org/1999/xlink">
<g id="graph0" class="graph" transform="scale(1 1) rotate(0) translate(4 84)">
<title>user_surface_forcing::user_wind_forcing</title>
<polygon fill="white" stroke="none" points="-4,4 -4,-84 375,-84 375,4 -4,4"/>
<!-- Node14 -->
<g id="node1" class="node"><title>Node14</title>
<polygon fill="#bfbfbf" stroke="black" points="0,-24.5 0,-54.5 92,-54.5 92,-24.5 0,-24.5"/>
<text text-anchor="start" x="8" y="-42.5" font-family="Helvetica,sans-Serif" font-size="10.00">user_surface_forcing</text>
<text text-anchor="middle" x="46" y="-31.5" font-family="Helvetica,sans-Serif" font-size="10.00">::user_wind_forcing</text>
</g>
<!-- Node15 -->
<g id="node2" class="node"><title>Node15</title>
<g id="a_node2"><a xlink:href="../../dd/dc3/namespacemom__forcing__type.html#a765fdabc0bc35293aba97b957d579919" target="_top" xlink:title="Conditionally allocate fields within the forcing type. ">
<polygon fill="white" stroke="black" points="128,-49.5 128,-79.5 242,-79.5 242,-49.5 128,-49.5"/>
<text text-anchor="start" x="136" y="-67.5" font-family="Helvetica,sans-Serif" font-size="10.00">mom_forcing_type::allocate</text>
<text text-anchor="middle" x="185" y="-56.5" font-family="Helvetica,sans-Serif" font-size="10.00">_forcing_type</text>
</a>
</g>
</g>
<!-- Node14&#45;&gt;Node15 -->
<g id="edge1" class="edge"><title>Node14&#45;&gt;Node15</title>
<path fill="none" stroke="midnightblue" d="M92.2386,-47.7552C100.417,-49.2477 109.098,-50.8318 117.732,-52.4072"/>
<polygon fill="midnightblue" stroke="midnightblue" points="117.346,-55.8946 127.812,-54.2467 118.603,-49.0083 117.346,-55.8946"/>
</g>
<!-- Node17 -->
<g id="node4" class="node"><title>Node17</title>
<g id="a_node4"><a xlink:href="../../d0/de6/namespacemom__error__handler.html#a460cfb79a06c29fc249952c2a3710d67" target="_top" xlink:title="mom_error_handler::\lmom_error">
<polygon fill="white" stroke="black" points="138.5,-0.5 138.5,-30.5 231.5,-30.5 231.5,-0.5 138.5,-0.5"/>
<text text-anchor="start" x="146.5" y="-18.5" font-family="Helvetica,sans-Serif" font-size="10.00">mom_error_handler::</text>
<text text-anchor="middle" x="185" y="-7.5" font-family="Helvetica,sans-Serif" font-size="10.00">mom_error</text>
</a>
</g>
</g>
<!-- Node14&#45;&gt;Node17 -->
<g id="edge3" class="edge"><title>Node14&#45;&gt;Node17</title>
<path fill="none" stroke="midnightblue" d="M92.2386,-31.575C103.808,-29.5483 116.381,-27.3456 128.405,-25.2393"/>
<polygon fill="midnightblue" stroke="midnightblue" points="129.095,-28.6718 138.341,-23.4987 127.887,-21.7768 129.095,-28.6718"/>
</g>
<!-- Node16 -->
<g id="node3" class="node"><title>Node16</title>
<g id="a_node3"><a xlink:href="../../d5/ded/MOM__forcing__type_8F90.html#aede7c3d8c91ec3e8a8a3b68824a5e9e8" target="_top" xlink:title="myalloc">
<polygon fill="white" stroke="black" points="303,-55 303,-74 346,-74 346,-55 303,-55"/>
<text text-anchor="middle" x="324.5" y="-62" font-family="Helvetica,sans-Serif" font-size="10.00">myalloc</text>
</a>
</g>
</g>
<!-- Node15&#45;&gt;Node16 -->
<g id="edge2" class="edge"><title>Node15&#45;&gt;Node16</title>
<path fill="none" stroke="midnightblue" d="M242.323,-64.5C259.511,-64.5 277.771,-64.5 292.61,-64.5"/>
<polygon fill="midnightblue" stroke="midnightblue" points="292.747,-68.0001 302.747,-64.5 292.747,-61.0001 292.747,-68.0001"/>
</g>
<!-- Node18 -->
<g id="node5" class="node"><title>Node18</title>
<g id="a_node5"><a xlink:href="../../d0/de6/namespacemom__error__handler.html#ad5f00a53059c72fe2332d1436c80ca71" target="_top" xlink:title="mom_error_handler::\lis_root_pe">
<polygon fill="white" stroke="black" points="278,-0.5 278,-30.5 371,-30.5 371,-0.5 278,-0.5"/>
<text text-anchor="start" x="286" y="-18.5" font-family="Helvetica,sans-Serif" font-size="10.00">mom_error_handler::</text>
<text text-anchor="middle" x="324.5" y="-7.5" font-family="Helvetica,sans-Serif" font-size="10.00">is_root_pe</text>
</a>
</g>
</g>
<!-- Node17&#45;&gt;Node18 -->
<g id="edge4" class="edge"><title>Node17&#45;&gt;Node18</title>
<path fill="none" stroke="midnightblue" d="M231.786,-15.5C243.266,-15.5 255.711,-15.5 267.622,-15.5"/>
<polygon fill="midnightblue" stroke="midnightblue" points="267.914,-19.0001 277.914,-15.5 267.914,-12.0001 267.914,-19.0001"/>
</g>
</g>
</svg>
