<?xml version="1.0" encoding="UTF-8" standalone="no"?>
<!DOCTYPE svg PUBLIC "-//W3C//DTD SVG 1.1//EN"
 "http://www.w3.org/Graphics/SVG/1.1/DTD/svg11.dtd">
<!-- Generated by graphviz version 2.38.0 (20140413.2041)
 -->
<!-- Title: mom_tracer_initialization_from_z::fill_boundaries_real Pages: 1 -->
<svg width="277pt" height="39pt"
 viewBox="0.00 0.00 277.00 39.00" xmlns="http://www.w3.org/2000/svg" xmlns:xlink="http://www.w3.org/1999/xlink">
<g id="graph0" class="graph" transform="scale(1 1) rotate(0) translate(4 35)">
<title>mom_tracer_initialization_from_z::fill_boundaries_real</title>
<polygon fill="white" stroke="none" points="-4,4 -4,-35 273,-35 273,4 -4,4"/>
<!-- Node9 -->
<g id="node1" class="node"><title>Node9</title>
<polygon fill="#bfbfbf" stroke="black" points="0,-0.5 0,-30.5 119,-30.5 119,-0.5 0,-0.5"/>
<text text-anchor="start" x="8" y="-18.5" font-family="Helvetica,sans-Serif" font-size="10.00">mom_tracer_initialization</text>
<text text-anchor="middle" x="59.5" y="-7.5" font-family="Helvetica,sans-Serif" font-size="10.00">_from_z::fill_boundaries_real</text>
</g>
<!-- Node10 -->
<g id="node2" class="node"><title>Node10</title>
<g id="a_node2"><a xlink:href="../../d8/d8a/namespacemom__tracer__initialization__from__z.html#ac1bab238be25f7ac14dea2f063198596" target="_top" xlink:title="mom_tracer_initialization\l_from_z::fill_boundaries_int">
<polygon fill="white" stroke="black" points="155,-0.5 155,-30.5 269,-30.5 269,-0.5 155,-0.5"/>
<text text-anchor="start" x="163" y="-18.5" font-family="Helvetica,sans-Serif" font-size="10.00">mom_tracer_initialization</text>
<text text-anchor="middle" x="212" y="-7.5" font-family="Helvetica,sans-Serif" font-size="10.00">_from_z::fill_boundaries_int</text>
</a>
</g>
</g>
<!-- Node9&#45;&gt;Node10 -->
<g id="edge1" class="edge"><title>Node9&#45;&gt;Node10</title>
<path fill="none" stroke="midnightblue" d="M129.394,-15.5C137.887,-15.5 146.489,-15.5 154.762,-15.5"/>
<polygon fill="midnightblue" stroke="midnightblue" points="129.118,-12.0001 119.118,-15.5 129.118,-19.0001 129.118,-12.0001"/>
</g>
</g>
</svg>
