<?xml version="1.0" encoding="UTF-8" standalone="no"?>
<!DOCTYPE svg PUBLIC "-//W3C//DTD SVG 1.1//EN"
 "http://www.w3.org/Graphics/SVG/1.1/DTD/svg11.dtd">
<!-- Generated by graphviz version 2.38.0 (20140413.2041)
 -->
<!-- Title: mom_tracer_initialization_from_z::tracer_z_init Pages: 1 -->
<svg width="261pt" height="88pt"
 viewBox="0.00 0.00 261.00 88.00" xmlns="http://www.w3.org/2000/svg" xmlns:xlink="http://www.w3.org/1999/xlink">
<g id="graph0" class="graph" transform="scale(1 1) rotate(0) translate(4 84)">
<title>mom_tracer_initialization_from_z::tracer_z_init</title>
<polygon fill="white" stroke="none" points="-4,4 -4,-84 257,-84 257,4 -4,4"/>
<!-- Node51 -->
<g id="node1" class="node"><title>Node51</title>
<polygon fill="#bfbfbf" stroke="black" points="0,-24.5 0,-54.5 104,-54.5 104,-24.5 0,-24.5"/>
<text text-anchor="start" x="8" y="-42.5" font-family="Helvetica,sans-Serif" font-size="10.00">mom_tracer_initialization</text>
<text text-anchor="middle" x="52" y="-31.5" font-family="Helvetica,sans-Serif" font-size="10.00">_from_z::tracer_z_init</text>
</g>
<!-- Node52 -->
<g id="node2" class="node"><title>Node52</title>
<g id="a_node2"><a xlink:href="../../d8/d8a/namespacemom__tracer__initialization__from__z.html#adceea06bf114896a35b4de9b31e71974" target="_top" xlink:title="mom_tracer_initialization\l_from_z::find_limited_slope">
<polygon fill="white" stroke="black" points="140,-49.5 140,-79.5 253,-79.5 253,-49.5 140,-49.5"/>
<text text-anchor="start" x="148" y="-67.5" font-family="Helvetica,sans-Serif" font-size="10.00">mom_tracer_initialization</text>
<text text-anchor="middle" x="196.5" y="-56.5" font-family="Helvetica,sans-Serif" font-size="10.00">_from_z::find_limited_slope</text>
</a>
</g>
</g>
<!-- Node51&#45;&gt;Node52 -->
<g id="edge1" class="edge"><title>Node51&#45;&gt;Node52</title>
<path fill="none" stroke="midnightblue" d="M104.043,-48.455C112.424,-49.9252 121.211,-51.4668 129.886,-52.9887"/>
<polygon fill="midnightblue" stroke="midnightblue" points="129.532,-56.4801 139.987,-54.7608 130.742,-49.5854 129.532,-56.4801"/>
</g>
<!-- Node53 -->
<g id="node3" class="node"><title>Node53</title>
<g id="a_node3"><a xlink:href="../../d8/d8a/namespacemom__tracer__initialization__from__z.html#acf01c1f25ee61c15914c59c1b5ce3d58" target="_top" xlink:title="mom_tracer_initialization\l_from_z::find_overlap">
<polygon fill="white" stroke="black" points="144.5,-0.5 144.5,-30.5 248.5,-30.5 248.5,-0.5 144.5,-0.5"/>
<text text-anchor="start" x="152.5" y="-18.5" font-family="Helvetica,sans-Serif" font-size="10.00">mom_tracer_initialization</text>
<text text-anchor="middle" x="196.5" y="-7.5" font-family="Helvetica,sans-Serif" font-size="10.00">_from_z::find_overlap</text>
</a>
</g>
</g>
<!-- Node51&#45;&gt;Node53 -->
<g id="edge2" class="edge"><title>Node51&#45;&gt;Node53</title>
<path fill="none" stroke="midnightblue" d="M104.043,-30.9032C113.866,-29.2489 124.248,-27.5004 134.353,-25.7985"/>
<polygon fill="midnightblue" stroke="midnightblue" points="135.054,-29.2297 144.334,-24.1174 133.892,-22.3269 135.054,-29.2297"/>
</g>
</g>
</svg>
