<?xml version="1.0" encoding="UTF-8" standalone="no"?>
<!DOCTYPE svg PUBLIC "-//W3C//DTD SVG 1.1//EN"
 "http://www.w3.org/Graphics/SVG/1.1/DTD/svg11.dtd">
<!-- Generated by graphviz version 2.38.0 (20140413.2041)
 -->
<!-- Title: mom_write_cputime::write_cputime Pages: 1 -->
<svg width="359pt" height="61pt"
 viewBox="0.00 0.00 359.00 61.00" xmlns="http://www.w3.org/2000/svg" xmlns:xlink="http://www.w3.org/1999/xlink">
<g id="graph0" class="graph" transform="scale(1 1) rotate(0) translate(4 57)">
<title>mom_write_cputime::write_cputime</title>
<polygon fill="white" stroke="none" points="-4,4 -4,-57 355,-57 355,4 -4,4"/>
<!-- Node6 -->
<g id="node1" class="node"><title>Node6</title>
<polygon fill="#bfbfbf" stroke="black" points="0,-22.5 0,-52.5 93,-52.5 93,-22.5 0,-22.5"/>
<text text-anchor="start" x="8" y="-40.5" font-family="Helvetica,sans-Serif" font-size="10.00">mom_write_cputime::</text>
<text text-anchor="middle" x="46.5" y="-29.5" font-family="Helvetica,sans-Serif" font-size="10.00">write_cputime</text>
</g>
<!-- Node7 -->
<g id="node2" class="node"><title>Node7</title>
<g id="a_node2"><a xlink:href="../../d0/de6/namespacemom__error__handler.html#ad5f00a53059c72fe2332d1436c80ca71" target="_top" xlink:title="mom_error_handler::\lis_root_pe">
<polygon fill="white" stroke="black" points="258,-22.5 258,-52.5 351,-52.5 351,-22.5 258,-22.5"/>
<text text-anchor="start" x="266" y="-40.5" font-family="Helvetica,sans-Serif" font-size="10.00">mom_error_handler::</text>
<text text-anchor="middle" x="304.5" y="-29.5" font-family="Helvetica,sans-Serif" font-size="10.00">is_root_pe</text>
</a>
</g>
</g>
<!-- Node6&#45;&gt;Node7 -->
<g id="edge1" class="edge"><title>Node6&#45;&gt;Node7</title>
<path fill="none" stroke="midnightblue" d="M93.1829,-39.4778C104.858,-39.9019 117.392,-40.2864 129,-40.5 170.326,-41.2603 180.674,-41.2603 222,-40.5 230.343,-40.3465 239.165,-40.1047 247.802,-39.8233"/>
<polygon fill="midnightblue" stroke="midnightblue" points="247.944,-43.3206 257.817,-39.4778 247.702,-36.3248 247.944,-43.3206"/>
</g>
<!-- Node8 -->
<g id="node3" class="node"><title>Node8</title>
<g id="a_node3"><a xlink:href="../../d0/de6/namespacemom__error__handler.html#a460cfb79a06c29fc249952c2a3710d67" target="_top" xlink:title="mom_error_handler::\lmom_error">
<polygon fill="white" stroke="black" points="129,-0.5 129,-30.5 222,-30.5 222,-0.5 129,-0.5"/>
<text text-anchor="start" x="137" y="-18.5" font-family="Helvetica,sans-Serif" font-size="10.00">mom_error_handler::</text>
<text text-anchor="middle" x="175.5" y="-7.5" font-family="Helvetica,sans-Serif" font-size="10.00">mom_error</text>
</a>
</g>
</g>
<!-- Node6&#45;&gt;Node8 -->
<g id="edge2" class="edge"><title>Node6&#45;&gt;Node8</title>
<path fill="none" stroke="midnightblue" d="M93.3499,-29.5575C101.623,-28.1244 110.33,-26.6161 118.846,-25.1409"/>
<polygon fill="midnightblue" stroke="midnightblue" points="119.462,-28.5864 128.717,-23.4308 118.267,-21.6892 119.462,-28.5864"/>
</g>
<!-- Node8&#45;&gt;Node7 -->
<g id="edge3" class="edge"><title>Node8&#45;&gt;Node7</title>
<path fill="none" stroke="midnightblue" d="M222.35,-23.4425C230.623,-24.8756 239.33,-26.3839 247.846,-27.8591"/>
<polygon fill="midnightblue" stroke="midnightblue" points="247.267,-31.3108 257.717,-29.5692 248.462,-24.4136 247.267,-31.3108"/>
</g>
</g>
</svg>
