<?xml version="1.0" encoding="UTF-8" standalone="no"?>
<!DOCTYPE svg PUBLIC "-//W3C//DTD SVG 1.1//EN"
 "http://www.w3.org/Graphics/SVG/1.1/DTD/svg11.dtd">
<!-- Generated by graphviz version 2.38.0 (20140413.2041)
 -->
<!-- Title: mom_mixed_layer_restrat::mixedlayer_restrat_bml Pages: 1 -->
<svg width="652pt" height="162pt"
 viewBox="0.00 0.00 652.00 162.00" xmlns="http://www.w3.org/2000/svg" xmlns:xlink="http://www.w3.org/1999/xlink">
<g id="graph0" class="graph" transform="scale(1 1) rotate(0) translate(4 158.003)">
<title>mom_mixed_layer_restrat::mixedlayer_restrat_bml</title>
<polygon fill="white" stroke="none" points="-4,4 -4,-158.003 648,-158.003 648,4 -4,4"/>
<!-- Node10 -->
<g id="node1" class="node"><title>Node10</title>
<polygon fill="#bfbfbf" stroke="black" points="0,-15.5031 0,-45.5031 110,-45.5031 110,-15.5031 0,-15.5031"/>
<text text-anchor="start" x="8" y="-33.5031" font-family="Helvetica,sans-Serif" font-size="10.00">mom_mixed_layer_restrat</text>
<text text-anchor="middle" x="55" y="-22.5031" font-family="Helvetica,sans-Serif" font-size="10.00">::mixedlayer_restrat_bml</text>
</g>
<!-- Node11 -->
<g id="node2" class="node"><title>Node11</title>
<g id="a_node2"><a xlink:href="../../d9/d06/namespacemom__diag__mediator.html#a67a9077037d7bf86f7415ca1ad672295" target="_top" xlink:title="Build/update target vertical grids for diagnostic remapping. ">
<polygon fill="white" stroke="black" points="146,-49.5031 146,-79.5031 254,-79.5031 254,-49.5031 146,-49.5031"/>
<text text-anchor="start" x="154" y="-67.5031" font-family="Helvetica,sans-Serif" font-size="10.00">mom_diag_mediator::</text>
<text text-anchor="middle" x="200" y="-56.5031" font-family="Helvetica,sans-Serif" font-size="10.00">diag_update_target_grids</text>
</a>
</g>
</g>
<!-- Node10&#45;&gt;Node11 -->
<g id="edge1" class="edge"><title>Node10&#45;&gt;Node11</title>
<path fill="none" stroke="midnightblue" d="M110.062,-43.357C118.476,-45.3574 127.232,-47.4394 135.826,-49.4827"/>
<polygon fill="midnightblue" stroke="midnightblue" points="135.271,-52.9482 145.809,-51.8563 136.89,-46.138 135.271,-52.9482"/>
</g>
<!-- Node13 -->
<g id="node4" class="node"><title>Node13</title>
<g id="a_node4"><a xlink:href="../../d0/de6/namespacemom__error__handler.html#a460cfb79a06c29fc249952c2a3710d67" target="_top" xlink:title="mom_error_handler::\lmom_error">
<polygon fill="white" stroke="black" points="422,-52.5031 422,-82.5031 515,-82.5031 515,-52.5031 422,-52.5031"/>
<text text-anchor="start" x="430" y="-70.5031" font-family="Helvetica,sans-Serif" font-size="10.00">mom_error_handler::</text>
<text text-anchor="middle" x="468.5" y="-59.5031" font-family="Helvetica,sans-Serif" font-size="10.00">mom_error</text>
</a>
</g>
</g>
<!-- Node10&#45;&gt;Node13 -->
<g id="edge7" class="edge"><title>Node10&#45;&gt;Node13</title>
<path fill="none" stroke="midnightblue" d="M110.139,-17.4936C176.581,-3.90412 291.995,11.9319 386,-15.5031 406.663,-21.5336 427.078,-34.5727 442.307,-46.0845"/>
<polygon fill="midnightblue" stroke="midnightblue" points="440.171,-48.8579 450.202,-52.2686 444.488,-43.347 440.171,-48.8579"/>
</g>
<!-- Node12 -->
<g id="node3" class="node"><title>Node12</title>
<g id="a_node3"><a xlink:href="../../d9/d06/namespacemom__diag__mediator.html#a6e11afe7a97bf8e3333d33b0aebd6f6e" target="_top" xlink:title="mom_diag_mediator::\lassert">
<polygon fill="white" stroke="black" points="290.5,-123.503 290.5,-153.503 385.5,-153.503 385.5,-123.503 290.5,-123.503"/>
<text text-anchor="start" x="298.5" y="-141.503" font-family="Helvetica,sans-Serif" font-size="10.00">mom_diag_mediator::</text>
<text text-anchor="middle" x="338" y="-130.503" font-family="Helvetica,sans-Serif" font-size="10.00">assert</text>
</a>
</g>
</g>
<!-- Node11&#45;&gt;Node12 -->
<g id="edge2" class="edge"><title>Node11&#45;&gt;Node12</title>
<path fill="none" stroke="midnightblue" d="M227.33,-79.6571C244.965,-89.7176 268.756,-103.117 290,-114.503 292.66,-115.929 295.413,-117.385 298.192,-118.84"/>
<polygon fill="midnightblue" stroke="midnightblue" points="296.583,-121.948 307.071,-123.445 299.806,-115.734 296.583,-121.948"/>
</g>
<!-- Node15 -->
<g id="node6" class="node"><title>Node15</title>
<g id="a_node6"><a xlink:href="../../d7/d1b/namespacemom__regridding.html#a1fe77f09d8e5ea5eae1a0cff087d5464" target="_top" xlink:title="Builds a z* coordinate with a minimum thickness. ">
<polygon fill="white" stroke="black" points="290,-74.5031 290,-104.503 386,-104.503 386,-74.5031 290,-74.5031"/>
<text text-anchor="start" x="298" y="-92.5031" font-family="Helvetica,sans-Serif" font-size="10.00">mom_regridding::build</text>
<text text-anchor="middle" x="338" y="-81.5031" font-family="Helvetica,sans-Serif" font-size="10.00">_zstar_column</text>
</a>
</g>
</g>
<!-- Node11&#45;&gt;Node15 -->
<g id="edge5" class="edge"><title>Node11&#45;&gt;Node15</title>
<path fill="none" stroke="midnightblue" d="M254.36,-74.312C262.811,-75.8655 271.579,-77.4771 280.107,-79.0448"/>
<polygon fill="midnightblue" stroke="midnightblue" points="279.507,-82.493 289.975,-80.8587 280.772,-75.6084 279.507,-82.493"/>
</g>
<!-- Node16 -->
<g id="node7" class="node"><title>Node16</title>
<g id="a_node7"><a xlink:href="../../d7/d1b/namespacemom__regridding.html#ac384596d1d07e413bbed37c71e0571e0" target="_top" xlink:title="This subroutine can be used to set many of the parameters for MOM_regridding. ">
<polygon fill="white" stroke="black" points="293,-25.5031 293,-55.5031 383,-55.5031 383,-25.5031 293,-25.5031"/>
<text text-anchor="start" x="301" y="-43.5031" font-family="Helvetica,sans-Serif" font-size="10.00">mom_regridding::set</text>
<text text-anchor="middle" x="338" y="-32.5031" font-family="Helvetica,sans-Serif" font-size="10.00">_regrid_params</text>
</a>
</g>
</g>
<!-- Node11&#45;&gt;Node16 -->
<g id="edge6" class="edge"><title>Node11&#45;&gt;Node16</title>
<path fill="none" stroke="midnightblue" d="M254.36,-55.0865C263.651,-53.447 273.324,-51.74 282.641,-50.0959"/>
<polygon fill="midnightblue" stroke="midnightblue" points="283.336,-53.5273 292.576,-48.3426 282.12,-46.6338 283.336,-53.5273"/>
</g>
<!-- Node12&#45;&gt;Node13 -->
<g id="edge3" class="edge"><title>Node12&#45;&gt;Node13</title>
<path fill="none" stroke="midnightblue" d="M368.956,-123.495C374.643,-120.564 380.525,-117.477 386,-114.503 401.689,-105.981 418.84,-96.1668 433.343,-87.7184"/>
<polygon fill="midnightblue" stroke="midnightblue" points="435.13,-90.7282 441.994,-82.6583 431.595,-84.6858 435.13,-90.7282"/>
</g>
<!-- Node14 -->
<g id="node5" class="node"><title>Node14</title>
<g id="a_node5"><a xlink:href="../../d0/de6/namespacemom__error__handler.html#ad5f00a53059c72fe2332d1436c80ca71" target="_top" xlink:title="mom_error_handler::\lis_root_pe">
<polygon fill="white" stroke="black" points="551,-52.5031 551,-82.5031 644,-82.5031 644,-52.5031 551,-52.5031"/>
<text text-anchor="start" x="559" y="-70.5031" font-family="Helvetica,sans-Serif" font-size="10.00">mom_error_handler::</text>
<text text-anchor="middle" x="597.5" y="-59.5031" font-family="Helvetica,sans-Serif" font-size="10.00">is_root_pe</text>
</a>
</g>
</g>
<!-- Node13&#45;&gt;Node14 -->
<g id="edge4" class="edge"><title>Node13&#45;&gt;Node14</title>
<path fill="none" stroke="midnightblue" d="M515.35,-67.5031C523.533,-67.5031 532.141,-67.5031 540.568,-67.5031"/>
<polygon fill="midnightblue" stroke="midnightblue" points="540.717,-71.0032 550.717,-67.5031 540.717,-64.0032 540.717,-71.0032"/>
</g>
</g>
</svg>
