<?xml version="1.0" encoding="UTF-8" standalone="no"?>
<!DOCTYPE svg PUBLIC "-//W3C//DTD SVG 1.1//EN"
 "http://www.w3.org/Graphics/SVG/1.1/DTD/svg11.dtd">
<!-- Generated by graphviz version 2.38.0 (20140413.2041)
 -->
<!-- Title: mom_dynamics_unsplit::initialize_dyn_unsplit Pages: 1 -->
<!--zoomable 1190 -->
<svg id="main" version="1.1" xmlns="http://www.w3.org/2000/svg" xmlns:xlink="http://www.w3.org/1999/xlink" xml:space="preserve" onload="init(evt)">
<style type="text/css"><![CDATA[
.edge:hover path { stroke: red; }
.edge:hover polygon { stroke: red; fill: red; }
]]></style>
<script type="text/javascript"><![CDATA[
var edges = document.getElementsByTagName('g');
if (edges && edges.length) {
  for (var i=0;i<edges.length;i++) {
    if (edges[i].id.substr(0,4)=='edge') {
      edges[i].setAttribute('class','edge');
    }
  }
}
]]></script>
        <defs>
                <circle id="rim" cx="0" cy="0" r="7"/>
                <circle id="rim2" cx="0" cy="0" r="3.5"/>
                <g id="zoomPlus">
                        <use xlink:href="#rim" fill="#404040">
                                <set attributeName="fill" to="#808080" begin="zoomplus.mouseover" end="zoomplus.mouseout"/>
                        </use>
                        <path d="M-4,0h8M0,-4v8" fill="none" stroke="white" stroke-width="1.5" pointer-events="none"/>
                </g>
                <g id="zoomMin">
                        <use xlink:href="#rim" fill="#404040">
                                <set attributeName="fill" to="#808080" begin="zoomminus.mouseover" end="zoomminus.mouseout"/>
                        </use>
                        <path d="M-4,0h8" fill="none" stroke="white" stroke-width="1.5" pointer-events="none"/>
                </g>
                <g id="dirArrow">
                        <path fill="none" stroke="white" stroke-width="1.5" d="M0,-3.0v7 M-2.5,-0.5L0,-3.0L2.5,-0.5"/>
                </g>
               <g id="resetDef">
                       <use xlink:href="#rim2" fill="#404040">
                               <set attributeName="fill" to="#808080" begin="reset.mouseover" end="reset.mouseout"/>
                       </use>
               </g>
        </defs>

<script type="text/javascript">
var viewWidth = 946;
var viewHeight = 1190;
var sectionId = 'dynsection-0';
</script>
<script xlink:href="../../svgpan.js"/>
<svg id="graph" class="graph">
<g id="viewport">
<title>mom_dynamics_unsplit::initialize_dyn_unsplit</title>
<polygon fill="white" stroke="none" points="-4,4 -4,-1185.5 942,-1185.5 942,4 -4,4"/>
<!-- Node2 -->
<g id="node1" class="node"><title>Node2</title>
<polygon fill="#bfbfbf" stroke="black" points="0,-486.5 0,-516.5 99,-516.5 99,-486.5 0,-486.5"/>
<text text-anchor="start" x="8" y="-504.5" font-family="Helvetica,sans-Serif" font-size="10.00">mom_dynamics_unsplit</text>
<text text-anchor="middle" x="49.5" y="-493.5" font-family="Helvetica,sans-Serif" font-size="10.00">::initialize_dyn_unsplit</text>
</g>
<!-- Node3 -->
<g id="node2" class="node"><title>Node3</title>
<g id="a_node2"><a xlink:href="../../dd/da4/namespacemom__continuity.html#aa08c4a80c95080ec4649e366f5bd3ae8" target="_top" xlink:title="mom_continuity::continuity_init">
<polygon fill="white" stroke="black" points="138.5,-468 138.5,-487 262.5,-487 262.5,-468 138.5,-468"/>
<text text-anchor="middle" x="200.5" y="-475" font-family="Helvetica,sans-Serif" font-size="10.00">mom_continuity::continuity_init</text>
</a>
</g>
</g>
<!-- Node2&#45;&gt;Node3 -->
<g id="edge1" class="edge"><title>Node2&#45;&gt;Node3</title>
<path fill="none" stroke="midnightblue" d="M99.2882,-493.642C109.257,-492.036 119.927,-490.317 130.45,-488.622"/>
<polygon fill="midnightblue" stroke="midnightblue" points="131.151,-492.054 140.467,-487.009 130.038,-485.143 131.151,-492.054"/>
</g>
<!-- Node6 -->
<g id="node5" class="node"><title>Node6</title>
<g id="a_node5"><a xlink:href="../../d0/de6/namespacemom__error__handler.html#a460cfb79a06c29fc249952c2a3710d67" target="_top" xlink:title="mom_error_handler::\lmom_error">
<polygon fill="white" stroke="black" points="716,-796.5 716,-826.5 809,-826.5 809,-796.5 716,-796.5"/>
<text text-anchor="start" x="724" y="-814.5" font-family="Helvetica,sans-Serif" font-size="10.00">mom_error_handler::</text>
<text text-anchor="middle" x="762.5" y="-803.5" font-family="Helvetica,sans-Serif" font-size="10.00">mom_error</text>
</a>
</g>
</g>
<!-- Node2&#45;&gt;Node6 -->
<g id="edge36" class="edge"><title>Node2&#45;&gt;Node6</title>
<path fill="none" stroke="midnightblue" d="M62.4705,-486.222C96.0091,-444.33 195.436,-326.266 302,-258.5 444.81,-167.685 554.231,-99.2558 680,-212.5 723.499,-251.667 753.076,-677.455 759.962,-786.287"/>
<polygon fill="midnightblue" stroke="midnightblue" points="756.474,-786.588 760.591,-796.35 763.46,-786.151 756.474,-786.588"/>
</g>
<!-- Node9 -->
<g id="node8" class="node"><title>Node9</title>
<g id="a_node8"><a xlink:href="../../d8/dd2/namespacemom__coriolisadv.html#ad3ce07f23ce7b484a5a9e0c0abe8b1cd" target="_top" xlink:title="mom_coriolisadv::coriolisadv_init">
<polygon fill="white" stroke="black" points="135,-512 135,-531 266,-531 266,-512 135,-512"/>
<text text-anchor="middle" x="200.5" y="-519" font-family="Helvetica,sans-Serif" font-size="10.00">mom_coriolisadv::coriolisadv_init</text>
</a>
</g>
</g>
<!-- Node2&#45;&gt;Node9 -->
<g id="edge9" class="edge"><title>Node2&#45;&gt;Node9</title>
<path fill="none" stroke="midnightblue" d="M99.2882,-508.049C107.462,-509.146 116.107,-510.306 124.757,-511.467"/>
<polygon fill="midnightblue" stroke="midnightblue" points="124.508,-514.965 134.884,-512.827 125.439,-508.027 124.508,-514.965"/>
</g>
<!-- Node23 -->
<g id="node22" class="node"><title>Node23</title>
<g id="a_node22"><a xlink:href="../../d6/dad/namespacemom__verticalgrid.html#af027c312e660a932b3f430f4c7a9675d" target="_top" xlink:title="Returns the model&#39;s thickness flux units, usually m^3/s or kg/s. ">
<polygon fill="white" stroke="black" points="154,-49.5 154,-79.5 247,-79.5 247,-49.5 154,-49.5"/>
<text text-anchor="start" x="162" y="-67.5" font-family="Helvetica,sans-Serif" font-size="10.00">mom_verticalgrid::get</text>
<text text-anchor="middle" x="200.5" y="-56.5" font-family="Helvetica,sans-Serif" font-size="10.00">_flux_units</text>
</a>
</g>
</g>
<!-- Node2&#45;&gt;Node23 -->
<g id="edge32" class="edge"><title>Node2&#45;&gt;Node23</title>
<path fill="none" stroke="midnightblue" d="M51.8592,-486.098C57.9974,-419.593 85.0272,-157.567 135,-94.5 137.882,-90.8626 141.308,-87.6467 145.056,-84.8068"/>
<polygon fill="midnightblue" stroke="midnightblue" points="147.227,-87.5694 153.689,-79.173 143.401,-81.7072 147.227,-87.5694"/>
</g>
<!-- Node24 -->
<g id="node23" class="node"><title>Node24</title>
<g id="a_node23"><a xlink:href="../../df/d8e/namespacemom__hor__visc.html#a15121289da182e9ecb4561f10de335a5" target="_top" xlink:title="mom_hor_visc::hor_visc_init">
<polygon fill="white" stroke="black" points="433,-1162 433,-1181 549,-1181 549,-1162 433,-1162"/>
<text text-anchor="middle" x="491" y="-1169" font-family="Helvetica,sans-Serif" font-size="10.00">mom_hor_visc::hor_visc_init</text>
</a>
</g>
</g>
<!-- Node2&#45;&gt;Node24 -->
<g id="edge33" class="edge"><title>Node2&#45;&gt;Node24</title>
<path fill="none" stroke="midnightblue" d="M51.0349,-516.552C53.5388,-573.041 67.0613,-776.822 135,-926.5 185.3,-1037.32 197.082,-1081.83 302,-1143.5 338.146,-1164.74 384.721,-1171.8 422.47,-1173.51"/>
<polygon fill="midnightblue" stroke="midnightblue" points="422.755,-1177.03 432.867,-1173.86 422.99,-1170.03 422.755,-1177.03"/>
</g>
<!-- Node25 -->
<g id="node24" class="node"><title>Node25</title>
<g id="a_node24"><a xlink:href="../../d6/d5c/namespacemom__pressureforce.html#ab0d856d60f21ad22c3c99f65af8daa92" target="_top" xlink:title="mom_pressureforce::\lpressureforce_init">
<polygon fill="white" stroke="black" points="303,-949.5 303,-979.5 396,-979.5 396,-949.5 303,-949.5"/>
<text text-anchor="start" x="311" y="-967.5" font-family="Helvetica,sans-Serif" font-size="10.00">mom_pressureforce::</text>
<text text-anchor="middle" x="349.5" y="-956.5" font-family="Helvetica,sans-Serif" font-size="10.00">pressureforce_init</text>
</a>
</g>
</g>
<!-- Node2&#45;&gt;Node25 -->
<g id="edge37" class="edge"><title>Node2&#45;&gt;Node25</title>
<path fill="none" stroke="midnightblue" d="M52.0365,-516.636C58.7095,-579.686 87.0176,-820.816 135,-877.5 174.836,-924.56 244.035,-946.486 292.836,-956.486"/>
<polygon fill="midnightblue" stroke="midnightblue" points="292.438,-959.974 302.922,-958.444 293.772,-953.103 292.438,-959.974"/>
</g>
<!-- Node28 -->
<g id="node27" class="node"><title>Node28</title>
<g id="a_node27"><a xlink:href="../../d5/daa/namespacemom__tidal__forcing.html#aee336a2affeebc78b75845bc6f78a320" target="_top" xlink:title="mom_tidal_forcing::\ltidal_forcing_init">
<polygon fill="white" stroke="black" points="448,-856.5 448,-886.5 534,-886.5 534,-856.5 448,-856.5"/>
<text text-anchor="start" x="456" y="-874.5" font-family="Helvetica,sans-Serif" font-size="10.00">mom_tidal_forcing::</text>
<text text-anchor="middle" x="491" y="-863.5" font-family="Helvetica,sans-Serif" font-size="10.00">tidal_forcing_init</text>
</a>
</g>
</g>
<!-- Node2&#45;&gt;Node28 -->
<g id="edge46" class="edge"><title>Node2&#45;&gt;Node28</title>
<path fill="none" stroke="midnightblue" d="M57.2053,-516.685C81.4671,-569.728 170.252,-748.052 302,-831.5 342.844,-857.371 397.676,-866.77 437.578,-870.056"/>
<polygon fill="midnightblue" stroke="midnightblue" points="437.414,-873.553 447.64,-870.782 437.918,-866.571 437.414,-873.553"/>
</g>
<!-- Node30 -->
<g id="node29" class="node"><title>Node30</title>
<g id="a_node29"><a xlink:href="../../d9/dcb/namespacemom__vert__friction.html#a02be81324ab60dcbcf3c1ecf3aa0da17" target="_top" xlink:title="Initialise the vertical friction module. ">
<polygon fill="white" stroke="black" points="158,-0.5 158,-30.5 243,-30.5 243,-0.5 158,-0.5"/>
<text text-anchor="start" x="166" y="-18.5" font-family="Helvetica,sans-Serif" font-size="10.00">mom_vert_friction::</text>
<text text-anchor="middle" x="200.5" y="-7.5" font-family="Helvetica,sans-Serif" font-size="10.00">vertvisc_init</text>
</a>
</g>
</g>
<!-- Node2&#45;&gt;Node30 -->
<g id="edge51" class="edge"><title>Node2&#45;&gt;Node30</title>
<path fill="none" stroke="midnightblue" d="M51.2972,-486.389C55.3608,-414.759 75.9329,-109.95 135,-39.5 138.836,-34.925 143.632,-31.2216 148.866,-28.2239"/>
<polygon fill="midnightblue" stroke="midnightblue" points="150.515,-31.3148 157.999,-23.8158 147.472,-25.0108 150.515,-31.3148"/>
</g>
<!-- Node4 -->
<g id="node3" class="node"><title>Node4</title>
<g id="a_node3"><a xlink:href="../../d9/def/namespacemom__file__parser.html#a17c0ef1bb1912f02faa0aaa1e0f64210" target="_top" xlink:title="mom_file_parser::log\l_version">
<polygon fill="white" stroke="black" points="586.5,-1042.5 586.5,-1072.5 678.5,-1072.5 678.5,-1042.5 586.5,-1042.5"/>
<text text-anchor="start" x="594.5" y="-1060.5" font-family="Helvetica,sans-Serif" font-size="10.00">mom_file_parser::log</text>
<text text-anchor="middle" x="632.5" y="-1049.5" font-family="Helvetica,sans-Serif" font-size="10.00">_version</text>
</a>
</g>
</g>
<!-- Node3&#45;&gt;Node4 -->
<g id="edge2" class="edge"><title>Node3&#45;&gt;Node4</title>
<path fill="none" stroke="midnightblue" d="M245.918,-487.062C253.705,-490.673 260.926,-495.647 266,-502.5 330.58,-589.709 243.88,-897.859 302,-989.5 358.211,-1078.13 497.84,-1075.84 576.096,-1066.6"/>
<polygon fill="midnightblue" stroke="midnightblue" points="576.768,-1070.05 586.252,-1065.32 575.893,-1063.1 576.768,-1070.05"/>
</g>
<!-- Node3&#45;&gt;Node6 -->
<g id="edge4" class="edge"><title>Node3&#45;&gt;Node6</title>
<path fill="none" stroke="midnightblue" d="M206.889,-467.97C228.891,-430.173 316.315,-290.492 433,-241.5 535.409,-198.502 606.742,-196.015 680,-279.5 747.507,-356.432 759.159,-691.294 761.116,-786.291"/>
<polygon fill="midnightblue" stroke="midnightblue" points="757.619,-786.484 761.305,-796.416 764.617,-786.352 757.619,-786.484"/>
</g>
<!-- Node7 -->
<g id="node6" class="node"><title>Node7</title>
<g id="a_node6"><a xlink:href="../../d0/de6/namespacemom__error__handler.html#a1c462df7b61f1296407b4af51dfeceab" target="_top" xlink:title="mom_error_handler::\lmom_mesg">
<polygon fill="white" stroke="black" points="303,-413.5 303,-443.5 396,-443.5 396,-413.5 303,-413.5"/>
<text text-anchor="start" x="311" y="-431.5" font-family="Helvetica,sans-Serif" font-size="10.00">mom_error_handler::</text>
<text text-anchor="middle" x="349.5" y="-420.5" font-family="Helvetica,sans-Serif" font-size="10.00">mom_mesg</text>
</a>
</g>
</g>
<!-- Node3&#45;&gt;Node7 -->
<g id="edge6" class="edge"><title>Node3&#45;&gt;Node7</title>
<path fill="none" stroke="midnightblue" d="M230.192,-467.936C248.234,-461.922 272.1,-453.967 293.67,-446.777"/>
<polygon fill="midnightblue" stroke="midnightblue" points="295.009,-450.02 303.389,-443.537 292.795,-443.379 295.009,-450.02"/>
</g>
<!-- Node8 -->
<g id="node7" class="node"><title>Node8</title>
<g id="a_node7"><a xlink:href="../../df/d46/namespacemom__string__functions.html#aca148baf726de2f028b7e7baad3c85d4" target="_top" xlink:title="mom_string_functions\l::uppercase">
<polygon fill="white" stroke="black" points="302,-462.5 302,-492.5 397,-492.5 397,-462.5 302,-462.5"/>
<text text-anchor="start" x="310" y="-480.5" font-family="Helvetica,sans-Serif" font-size="10.00">mom_string_functions</text>
<text text-anchor="middle" x="349.5" y="-469.5" font-family="Helvetica,sans-Serif" font-size="10.00">::uppercase</text>
</a>
</g>
</g>
<!-- Node3&#45;&gt;Node8 -->
<g id="edge8" class="edge"><title>Node3&#45;&gt;Node8</title>
<path fill="none" stroke="midnightblue" d="M262.564,-477.5C272.18,-477.5 282.089,-477.5 291.606,-477.5"/>
<polygon fill="midnightblue" stroke="midnightblue" points="291.747,-481 301.747,-477.5 291.747,-474 291.747,-481"/>
</g>
<!-- Node5 -->
<g id="node4" class="node"><title>Node5</title>
<g id="a_node4"><a xlink:href="../../d0/de6/namespacemom__error__handler.html#ad5f00a53059c72fe2332d1436c80ca71" target="_top" xlink:title="mom_error_handler::\lis_root_pe">
<polygon fill="white" stroke="black" points="845,-501.5 845,-531.5 938,-531.5 938,-501.5 845,-501.5"/>
<text text-anchor="start" x="853" y="-519.5" font-family="Helvetica,sans-Serif" font-size="10.00">mom_error_handler::</text>
<text text-anchor="middle" x="891.5" y="-508.5" font-family="Helvetica,sans-Serif" font-size="10.00">is_root_pe</text>
</a>
</g>
</g>
<!-- Node4&#45;&gt;Node5 -->
<g id="edge3" class="edge"><title>Node4&#45;&gt;Node5</title>
<path fill="none" stroke="midnightblue" d="M649.711,-1042.33C684.566,-1008.75 766.887,-924.163 809,-836.5 858.456,-733.553 880.295,-597.043 887.549,-541.551"/>
<polygon fill="midnightblue" stroke="midnightblue" points="891.03,-541.926 888.81,-531.567 884.085,-541.05 891.03,-541.926"/>
</g>
<!-- Node6&#45;&gt;Node5 -->
<g id="edge5" class="edge"><title>Node6&#45;&gt;Node5</title>
<path fill="none" stroke="midnightblue" d="M769.973,-796.465C790.567,-748.628 854.707,-599.641 880.048,-540.778"/>
<polygon fill="midnightblue" stroke="midnightblue" points="883.301,-542.073 884.04,-531.504 876.871,-539.305 883.301,-542.073"/>
</g>
<!-- Node7&#45;&gt;Node5 -->
<g id="edge7" class="edge"><title>Node7&#45;&gt;Node5</title>
<path fill="none" stroke="midnightblue" d="M350.647,-413.331C351.973,-371.429 362.124,-253.926 433,-204.5 523.211,-141.59 576.726,-181.684 680,-219.5 744.705,-243.193 765.903,-251.735 809,-305.5 854.979,-362.861 877.294,-449.162 885.968,-491.403"/>
<polygon fill="midnightblue" stroke="midnightblue" points="882.566,-492.248 887.929,-501.385 889.435,-490.898 882.566,-492.248"/>
</g>
<!-- Node9&#45;&gt;Node4 -->
<g id="edge10" class="edge"><title>Node9&#45;&gt;Node4</title>
<path fill="none" stroke="midnightblue" d="M201.54,-531.137C202.052,-601.139 208.988,-1031.04 302,-1109.5 385.909,-1180.28 446.085,-1147.7 549,-1109.5 568.795,-1102.15 567.196,-1089.85 585,-1078.5 585.514,-1078.17 586.033,-1077.85 586.558,-1077.53"/>
<polygon fill="midnightblue" stroke="midnightblue" points="588.413,-1080.5 595.41,-1072.54 584.979,-1074.4 588.413,-1080.5"/>
</g>
<!-- Node9&#45;&gt;Node6 -->
<g id="edge11" class="edge"><title>Node9&#45;&gt;Node6</title>
<path fill="none" stroke="midnightblue" d="M206.436,-531.201C227.32,-571.074 312.893,-723.082 433,-783.5 520.424,-827.478 637.598,-825.202 705.789,-818.839"/>
<polygon fill="midnightblue" stroke="midnightblue" points="706.29,-822.307 715.893,-817.833 705.596,-815.342 706.29,-822.307"/>
</g>
<!-- Node9&#45;&gt;Node7 -->
<g id="edge12" class="edge"><title>Node9&#45;&gt;Node7</title>
<path fill="none" stroke="midnightblue" d="M235.651,-511.975C245.974,-508.149 256.958,-503.057 266,-496.5 286.455,-481.667 282.365,-468.403 302,-452.5 303.359,-451.399 304.777,-450.328 306.236,-449.289"/>
<polygon fill="midnightblue" stroke="midnightblue" points="308.421,-452.045 314.941,-443.694 304.636,-446.157 308.421,-452.045"/>
</g>
<!-- Node9&#45;&gt;Node8 -->
<g id="edge31" class="edge"><title>Node9&#45;&gt;Node8</title>
<path fill="none" stroke="midnightblue" d="M233.397,-511.953C250.595,-506.805 272.325,-500.301 292.259,-494.334"/>
<polygon fill="midnightblue" stroke="midnightblue" points="293.297,-497.677 301.873,-491.456 291.289,-490.971 293.297,-497.677"/>
</g>
<!-- Node10 -->
<g id="node9" class="node"><title>Node10</title>
<g id="a_node9"><a xlink:href="../../d9/d06/namespacemom__diag__mediator.html#a3fd333aff691a76b05dd8d5bdc315bbb" target="_top" xlink:title="mom_diag_mediator::\lregister_diag_field">
<polygon fill="white" stroke="black" points="302,-511.5 302,-541.5 397,-541.5 397,-511.5 302,-511.5"/>
<text text-anchor="start" x="310" y="-529.5" font-family="Helvetica,sans-Serif" font-size="10.00">mom_diag_mediator::</text>
<text text-anchor="middle" x="349.5" y="-518.5" font-family="Helvetica,sans-Serif" font-size="10.00">register_diag_field</text>
</a>
</g>
</g>
<!-- Node9&#45;&gt;Node10 -->
<g id="edge13" class="edge"><title>Node9&#45;&gt;Node10</title>
<path fill="none" stroke="midnightblue" d="M266.404,-523.708C274.732,-523.991 283.21,-524.279 291.401,-524.558"/>
<polygon fill="midnightblue" stroke="midnightblue" points="291.477,-528.062 301.59,-524.904 291.715,-521.066 291.477,-528.062"/>
</g>
<!-- Node10&#45;&gt;Node5 -->
<g id="edge23" class="edge"><title>Node10&#45;&gt;Node5</title>
<path fill="none" stroke="midnightblue" d="M387.289,-511.298C391.016,-508.509 394.384,-505.263 397,-501.5 463.594,-405.718 345.035,-318.124 433,-241.5 586.357,-107.914 813.003,-405.472 874.574,-493.13"/>
<polygon fill="midnightblue" stroke="midnightblue" points="871.739,-495.184 880.324,-501.393 877.485,-491.186 871.739,-495.184"/>
</g>
<!-- Node10&#45;&gt;Node6 -->
<g id="edge28" class="edge"><title>Node10&#45;&gt;Node6</title>
<path fill="none" stroke="midnightblue" d="M351.786,-541.64C355.874,-579.303 372.156,-677.353 433,-721.5 522.173,-786.202 578.254,-700.239 680,-742.5 704.424,-752.645 726.936,-772.91 742.082,-788.866"/>
<polygon fill="midnightblue" stroke="midnightblue" points="739.559,-791.293 748.902,-796.289 744.714,-786.557 739.559,-791.293"/>
</g>
<!-- Node11 -->
<g id="node10" class="node"><title>Node11</title>
<g id="a_node10"><a xlink:href="../../d9/d06/namespacemom__diag__mediator.html#a1b0bed2113a0c268eafd1bafbb48bd4f" target="_top" xlink:title="mom_diag_mediator::\lalloc_diag_with_id">
<polygon fill="white" stroke="black" points="443.5,-535.5 443.5,-565.5 538.5,-565.5 538.5,-535.5 443.5,-535.5"/>
<text text-anchor="start" x="451.5" y="-553.5" font-family="Helvetica,sans-Serif" font-size="10.00">mom_diag_mediator::</text>
<text text-anchor="middle" x="491" y="-542.5" font-family="Helvetica,sans-Serif" font-size="10.00">alloc_diag_with_id</text>
</a>
</g>
</g>
<!-- Node10&#45;&gt;Node11 -->
<g id="edge14" class="edge"><title>Node10&#45;&gt;Node11</title>
<path fill="none" stroke="midnightblue" d="M397.34,-534.558C408.726,-536.517 421.03,-538.634 432.835,-540.665"/>
<polygon fill="midnightblue" stroke="midnightblue" points="432.598,-544.176 443.047,-542.422 433.785,-537.277 432.598,-544.176"/>
</g>
<!-- Node12 -->
<g id="node11" class="node"><title>Node12</title>
<g id="a_node11"><a xlink:href="../../d9/d06/namespacemom__diag__mediator.html#a6e11afe7a97bf8e3333d33b0aebd6f6e" target="_top" xlink:title="mom_diag_mediator::\lassert">
<polygon fill="white" stroke="black" points="585,-664.5 585,-694.5 680,-694.5 680,-664.5 585,-664.5"/>
<text text-anchor="start" x="593" y="-682.5" font-family="Helvetica,sans-Serif" font-size="10.00">mom_diag_mediator::</text>
<text text-anchor="middle" x="632.5" y="-671.5" font-family="Helvetica,sans-Serif" font-size="10.00">assert</text>
</a>
</g>
</g>
<!-- Node10&#45;&gt;Node12 -->
<g id="edge15" class="edge"><title>Node10&#45;&gt;Node12</title>
<path fill="none" stroke="midnightblue" d="M386.587,-511.448C390.533,-508.616 394.146,-505.317 397,-501.5 443.761,-438.945 372.381,-378.745 433,-329.5 473.016,-296.993 508.579,-297.499 549,-329.5 600.562,-370.321 623.132,-581.009 629.507,-654.319"/>
<polygon fill="midnightblue" stroke="midnightblue" points="626.036,-654.811 630.362,-664.482 633.011,-654.223 626.036,-654.811"/>
</g>
<!-- Node13 -->
<g id="node12" class="node"><title>Node13</title>
<g id="a_node12"><a xlink:href="../../d9/d06/namespacemom__diag__mediator.html#a93abbf0b9659019bed9a2129ab292752" target="_top" xlink:title="Attaches &quot;cell_methods&quot; attribute to a variable based on defaults for axes_grp or optional arguments...">
<polygon fill="white" stroke="black" points="585,-752.5 585,-782.5 680,-782.5 680,-752.5 585,-752.5"/>
<text text-anchor="start" x="593" y="-770.5" font-family="Helvetica,sans-Serif" font-size="10.00">mom_diag_mediator::</text>
<text text-anchor="middle" x="632.5" y="-759.5" font-family="Helvetica,sans-Serif" font-size="10.00">attach_cell_methods</text>
</a>
</g>
</g>
<!-- Node10&#45;&gt;Node13 -->
<g id="edge17" class="edge"><title>Node10&#45;&gt;Node13</title>
<path fill="none" stroke="midnightblue" d="M350.682,-541.772C352.102,-584 362.471,-702.692 433,-755.5 473.169,-785.576 531.713,-785.368 574.817,-779.569"/>
<polygon fill="midnightblue" stroke="midnightblue" points="575.49,-783.008 584.869,-778.08 574.464,-776.084 575.49,-783.008"/>
</g>
<!-- Node14 -->
<g id="node13" class="node"><title>Node14</title>
<g id="a_node13"><a xlink:href="../../d9/d06/namespacemom__diag__mediator.html#a3f7442639213320f7429e2288a79fda2" target="_top" xlink:title="mom_diag_mediator::\lget_new_diag_id">
<polygon fill="white" stroke="black" points="443.5,-682.5 443.5,-712.5 538.5,-712.5 538.5,-682.5 443.5,-682.5"/>
<text text-anchor="start" x="451.5" y="-700.5" font-family="Helvetica,sans-Serif" font-size="10.00">mom_diag_mediator::</text>
<text text-anchor="middle" x="491" y="-689.5" font-family="Helvetica,sans-Serif" font-size="10.00">get_new_diag_id</text>
</a>
</g>
</g>
<!-- Node10&#45;&gt;Node14 -->
<g id="edge19" class="edge"><title>Node10&#45;&gt;Node14</title>
<path fill="none" stroke="midnightblue" d="M355.456,-541.829C365.591,-570.974 391.312,-634.824 433,-672.5 434.694,-674.031 436.496,-675.479 438.377,-676.848"/>
<polygon fill="midnightblue" stroke="midnightblue" points="436.724,-679.944 447.042,-682.353 440.478,-674.036 436.724,-679.944"/>
</g>
<!-- Node15 -->
<g id="node14" class="node"><title>Node15</title>
<g id="a_node14"><a xlink:href="../../d9/d06/namespacemom__diag__mediator.html#a4b739f107cebe1ece8d29056c1144bff" target="_top" xlink:title="mom_diag_mediator::\lis_b_axes">
<polygon fill="white" stroke="black" points="443.5,-486.5 443.5,-516.5 538.5,-516.5 538.5,-486.5 443.5,-486.5"/>
<text text-anchor="start" x="451.5" y="-504.5" font-family="Helvetica,sans-Serif" font-size="10.00">mom_diag_mediator::</text>
<text text-anchor="middle" x="491" y="-493.5" font-family="Helvetica,sans-Serif" font-size="10.00">is_b_axes</text>
</a>
</g>
</g>
<!-- Node10&#45;&gt;Node15 -->
<g id="edge21" class="edge"><title>Node10&#45;&gt;Node15</title>
<path fill="none" stroke="midnightblue" d="M397.34,-518.106C408.841,-516.045 421.278,-513.816 433.193,-511.68"/>
<polygon fill="midnightblue" stroke="midnightblue" points="433.821,-515.124 443.047,-509.915 432.586,-508.234 433.821,-515.124"/>
</g>
<!-- Node16 -->
<g id="node15" class="node"><title>Node16</title>
<g id="a_node15"><a xlink:href="../../d9/d06/namespacemom__diag__mediator.html#a84370fa96e03622edbfd5e343bcd9718" target="_top" xlink:title="mom_diag_mediator::\lis_layer_axes">
<polygon fill="white" stroke="black" points="443.5,-437.5 443.5,-467.5 538.5,-467.5 538.5,-437.5 443.5,-437.5"/>
<text text-anchor="start" x="451.5" y="-455.5" font-family="Helvetica,sans-Serif" font-size="10.00">mom_diag_mediator::</text>
<text text-anchor="middle" x="491" y="-444.5" font-family="Helvetica,sans-Serif" font-size="10.00">is_layer_axes</text>
</a>
</g>
</g>
<!-- Node10&#45;&gt;Node16 -->
<g id="edge22" class="edge"><title>Node10&#45;&gt;Node16</title>
<path fill="none" stroke="midnightblue" d="M379.81,-511.398C385.576,-508.243 391.531,-504.854 397,-501.5 413.605,-491.316 415.931,-485.886 433,-476.5 435.87,-474.922 438.865,-473.379 441.914,-471.886"/>
<polygon fill="midnightblue" stroke="midnightblue" points="443.578,-474.972 451.157,-467.568 440.615,-468.63 443.578,-474.972"/>
</g>
<!-- Node17 -->
<g id="node16" class="node"><title>Node17</title>
<g id="a_node16"><a xlink:href="../../d9/d06/namespacemom__diag__mediator.html#a27fa63c9ff62b660bf457adbb8645bdf" target="_top" xlink:title="mom_diag_mediator::\lis_u_axes">
<polygon fill="white" stroke="black" points="443.5,-388.5 443.5,-418.5 538.5,-418.5 538.5,-388.5 443.5,-388.5"/>
<text text-anchor="start" x="451.5" y="-406.5" font-family="Helvetica,sans-Serif" font-size="10.00">mom_diag_mediator::</text>
<text text-anchor="middle" x="491" y="-395.5" font-family="Helvetica,sans-Serif" font-size="10.00">is_u_axes</text>
</a>
</g>
</g>
<!-- Node10&#45;&gt;Node17 -->
<g id="edge24" class="edge"><title>Node10&#45;&gt;Node17</title>
<path fill="none" stroke="midnightblue" d="M384.789,-511.344C389.22,-508.481 393.445,-505.202 397,-501.5 422.333,-475.119 406.446,-452.651 433,-427.5 434.121,-426.439 435.295,-425.421 436.514,-424.445"/>
<polygon fill="midnightblue" stroke="midnightblue" points="438.804,-427.12 445.099,-418.597 434.864,-421.334 438.804,-427.12"/>
</g>
<!-- Node18 -->
<g id="node17" class="node"><title>Node18</title>
<g id="a_node17"><a xlink:href="../../d9/d06/namespacemom__diag__mediator.html#a9a30d653d812713d6fcff94f6f1fc3e6" target="_top" xlink:title="mom_diag_mediator::\lis_v_axes">
<polygon fill="white" stroke="black" points="443.5,-339.5 443.5,-369.5 538.5,-369.5 538.5,-339.5 443.5,-339.5"/>
<text text-anchor="start" x="451.5" y="-357.5" font-family="Helvetica,sans-Serif" font-size="10.00">mom_diag_mediator::</text>
<text text-anchor="middle" x="491" y="-346.5" font-family="Helvetica,sans-Serif" font-size="10.00">is_v_axes</text>
</a>
</g>
</g>
<!-- Node10&#45;&gt;Node18 -->
<g id="edge25" class="edge"><title>Node10&#45;&gt;Node18</title>
<path fill="none" stroke="midnightblue" d="M386.307,-511.229C390.298,-508.433 393.999,-505.203 397,-501.5 432.865,-457.249 395.079,-421.002 433,-378.5 433.865,-377.531 434.775,-376.6 435.724,-375.706"/>
<polygon fill="midnightblue" stroke="midnightblue" points="437.913,-378.437 443.668,-369.541 433.622,-372.907 437.913,-378.437"/>
</g>
<!-- Node19 -->
<g id="node18" class="node"><title>Node19</title>
<g id="a_node18"><a xlink:href="../../d9/d06/namespacemom__diag__mediator.html#a65fe8d329cf5dbfd08c98874a7a64407" target="_top" xlink:title="Log a diagnostic to the available diagnostics file. ">
<polygon fill="white" stroke="black" points="443.5,-251.5 443.5,-281.5 538.5,-281.5 538.5,-251.5 443.5,-251.5"/>
<text text-anchor="start" x="451.5" y="-269.5" font-family="Helvetica,sans-Serif" font-size="10.00">mom_diag_mediator::</text>
<text text-anchor="middle" x="491" y="-258.5" font-family="Helvetica,sans-Serif" font-size="10.00">log_available_diag</text>
</a>
</g>
</g>
<!-- Node10&#45;&gt;Node19 -->
<g id="edge26" class="edge"><title>Node10&#45;&gt;Node19</title>
<path fill="none" stroke="midnightblue" d="M387.158,-511.205C390.907,-508.432 394.316,-505.215 397,-501.5 451.175,-426.518 378.495,-371.243 433,-296.5 435.414,-293.189 438.305,-290.212 441.487,-287.54"/>
<polygon fill="midnightblue" stroke="midnightblue" points="443.803,-290.185 449.888,-281.512 439.723,-284.498 443.803,-290.185"/>
</g>
<!-- Node21 -->
<g id="node20" class="node"><title>Node21</title>
<g id="a_node20"><a xlink:href="../../d9/d06/namespacemom__diag__mediator.html#a085f313357879a914af6450f2ab8ec79" target="_top" xlink:title="mom_diag_mediator::\lset_diag_mask">
<polygon fill="white" stroke="black" points="443.5,-633.5 443.5,-663.5 538.5,-663.5 538.5,-633.5 443.5,-633.5"/>
<text text-anchor="start" x="451.5" y="-651.5" font-family="Helvetica,sans-Serif" font-size="10.00">mom_diag_mediator::</text>
<text text-anchor="middle" x="491" y="-640.5" font-family="Helvetica,sans-Serif" font-size="10.00">set_diag_mask</text>
</a>
</g>
</g>
<!-- Node10&#45;&gt;Node21 -->
<g id="edge29" class="edge"><title>Node10&#45;&gt;Node21</title>
<path fill="none" stroke="midnightblue" d="M360.252,-541.838C374.186,-562.714 401.606,-600.142 433,-623.5 435.436,-625.312 438.023,-627.028 440.7,-628.646"/>
<polygon fill="midnightblue" stroke="midnightblue" points="439.028,-631.721 449.476,-633.482 442.407,-625.59 439.028,-631.721"/>
</g>
<!-- Node22 -->
<g id="node21" class="node"><title>Node22</title>
<g id="a_node21"><a xlink:href="../../d9/d06/namespacemom__diag__mediator.html#a5d1e1aa53cdd6bb335a6f841eded4f46" target="_top" xlink:title="mom_diag_mediator::\lset_diag_remap_axes">
<polygon fill="white" stroke="black" points="443.5,-584.5 443.5,-614.5 538.5,-614.5 538.5,-584.5 443.5,-584.5"/>
<text text-anchor="start" x="451.5" y="-602.5" font-family="Helvetica,sans-Serif" font-size="10.00">mom_diag_mediator::</text>
<text text-anchor="middle" x="491" y="-591.5" font-family="Helvetica,sans-Serif" font-size="10.00">set_diag_remap_axes</text>
</a>
</g>
</g>
<!-- Node10&#45;&gt;Node22 -->
<g id="edge30" class="edge"><title>Node10&#45;&gt;Node22</title>
<path fill="none" stroke="midnightblue" d="M374.644,-541.523C390.881,-551.382 412.909,-564.291 433,-574.5 436.739,-576.4 440.654,-578.298 444.607,-580.152"/>
<polygon fill="midnightblue" stroke="midnightblue" points="443.282,-583.395 453.831,-584.376 446.196,-577.03 443.282,-583.395"/>
</g>
<!-- Node12&#45;&gt;Node6 -->
<g id="edge16" class="edge"><title>Node12&#45;&gt;Node6</title>
<path fill="none" stroke="midnightblue" d="M660.157,-694.603C666.948,-699 674.012,-704.089 680,-709.5 706.311,-733.275 730.901,-766.084 746.047,-788.007"/>
<polygon fill="midnightblue" stroke="midnightblue" points="743.234,-790.094 751.75,-796.397 749.023,-786.159 743.234,-790.094"/>
</g>
<!-- Node13&#45;&gt;Node6 -->
<g id="edge18" class="edge"><title>Node13&#45;&gt;Node6</title>
<path fill="none" stroke="midnightblue" d="M677.192,-782.519C687.071,-785.915 697.67,-789.559 707.905,-793.077"/>
<polygon fill="midnightblue" stroke="midnightblue" points="706.975,-796.458 717.57,-796.399 709.251,-789.838 706.975,-796.458"/>
</g>
<!-- Node14&#45;&gt;Node12 -->
<g id="edge20" class="edge"><title>Node14&#45;&gt;Node12</title>
<path fill="none" stroke="midnightblue" d="M538.84,-691.456C550.226,-689.987 562.53,-688.399 574.335,-686.876"/>
<polygon fill="midnightblue" stroke="midnightblue" points="575.077,-690.31 584.547,-685.559 574.181,-683.367 575.077,-690.31"/>
</g>
<!-- Node20 -->
<g id="node19" class="node"><title>Node20</title>
<g id="a_node19"><a xlink:href="../../d9/d06/namespacemom__diag__mediator.html#ae002ca447acba252bf7bdc042e75a01e" target="_top" xlink:title="mom_diag_mediator::\ldescribe_option">
<polygon fill="white" stroke="black" points="585,-289.5 585,-319.5 680,-319.5 680,-289.5 585,-289.5"/>
<text text-anchor="start" x="593" y="-307.5" font-family="Helvetica,sans-Serif" font-size="10.00">mom_diag_mediator::</text>
<text text-anchor="middle" x="632.5" y="-296.5" font-family="Helvetica,sans-Serif" font-size="10.00">describe_option</text>
</a>
</g>
</g>
<!-- Node19&#45;&gt;Node20 -->
<g id="edge27" class="edge"><title>Node19&#45;&gt;Node20</title>
<path fill="none" stroke="midnightblue" d="M538.84,-279.259C550.341,-282.392 562.778,-285.78 574.693,-289.026"/>
<polygon fill="midnightblue" stroke="midnightblue" points="573.978,-292.458 584.547,-291.71 575.818,-285.705 573.978,-292.458"/>
</g>
<!-- Node24&#45;&gt;Node4 -->
<g id="edge35" class="edge"><title>Node24&#45;&gt;Node4</title>
<path fill="none" stroke="midnightblue" d="M521.382,-1161.93C530.661,-1158.19 540.661,-1153.37 549,-1147.5 575.265,-1129 599.349,-1100.86 614.627,-1080.97"/>
<polygon fill="midnightblue" stroke="midnightblue" points="617.599,-1082.85 620.81,-1072.75 612.004,-1078.64 617.599,-1082.85"/>
</g>
<!-- Node24&#45;&gt;Node6 -->
<g id="edge34" class="edge"><title>Node24&#45;&gt;Node6</title>
<path fill="none" stroke="midnightblue" d="M535.76,-1161.96C578.607,-1150.38 642.726,-1126.65 680,-1082.5 742.286,-1008.73 756.971,-888.517 760.433,-836.642"/>
<polygon fill="midnightblue" stroke="midnightblue" points="763.927,-836.837 761.014,-826.65 756.939,-836.43 763.927,-836.837"/>
</g>
<!-- Node25&#45;&gt;Node4 -->
<g id="edge39" class="edge"><title>Node25&#45;&gt;Node4</title>
<path fill="none" stroke="midnightblue" d="M362.291,-979.806C376.806,-997.374 403.221,-1025.44 433,-1038.5 478.303,-1058.37 534.875,-1061.98 576.023,-1061.29"/>
<polygon fill="midnightblue" stroke="midnightblue" points="576.229,-1064.78 586.135,-1061.02 576.048,-1057.78 576.229,-1064.78"/>
</g>
<!-- Node25&#45;&gt;Node6 -->
<g id="edge38" class="edge"><title>Node25&#45;&gt;Node6</title>
<path fill="none" stroke="midnightblue" d="M396.369,-949.444C408.195,-946.037 420.979,-942.762 433,-940.5 487.156,-930.311 635.525,-951.036 680,-918.5 710.96,-895.851 690.794,-866.989 715.874,-834.553"/>
<polygon fill="midnightblue" stroke="midnightblue" points="718.828,-836.495 722.828,-826.684 713.583,-831.86 718.828,-836.495"/>
</g>
<!-- Node26 -->
<g id="node25" class="node"><title>Node26</title>
<g id="a_node25"><a xlink:href="../../d3/d77/namespacemom__pressureforce__afv.html#a443f95a60b35b33a872264f6bacf4554" target="_top" xlink:title="mom_pressureforce_afv\l::pressureforce_afv_init">
<polygon fill="white" stroke="black" points="439,-998.5 439,-1028.5 543,-1028.5 543,-998.5 439,-998.5"/>
<text text-anchor="start" x="447" y="-1016.5" font-family="Helvetica,sans-Serif" font-size="10.00">mom_pressureforce_afv</text>
<text text-anchor="middle" x="491" y="-1005.5" font-family="Helvetica,sans-Serif" font-size="10.00">::pressureforce_afv_init</text>
</a>
</g>
</g>
<!-- Node25&#45;&gt;Node26 -->
<g id="edge40" class="edge"><title>Node25&#45;&gt;Node26</title>
<path fill="none" stroke="midnightblue" d="M393.493,-979.601C407.282,-984.445 422.717,-989.866 437.128,-994.928"/>
<polygon fill="midnightblue" stroke="midnightblue" points="436.314,-998.352 446.909,-998.364 438.634,-991.748 436.314,-998.352"/>
</g>
<!-- Node27 -->
<g id="node26" class="node"><title>Node27</title>
<g id="a_node26"><a xlink:href="../../d9/dc4/namespacemom__pressureforce__mont.html#a560267f015d03452d92aca82f6a46b14" target="_top" xlink:title="mom_pressureforce_mont\l::pressureforce_mont_init">
<polygon fill="white" stroke="black" points="435.5,-949.5 435.5,-979.5 546.5,-979.5 546.5,-949.5 435.5,-949.5"/>
<text text-anchor="start" x="443.5" y="-967.5" font-family="Helvetica,sans-Serif" font-size="10.00">mom_pressureforce_mont</text>
<text text-anchor="middle" x="491" y="-956.5" font-family="Helvetica,sans-Serif" font-size="10.00">::pressureforce_mont_init</text>
</a>
</g>
</g>
<!-- Node25&#45;&gt;Node27 -->
<g id="edge43" class="edge"><title>Node25&#45;&gt;Node27</title>
<path fill="none" stroke="midnightblue" d="M396.178,-964.5C405.496,-964.5 415.467,-964.5 425.304,-964.5"/>
<polygon fill="midnightblue" stroke="midnightblue" points="425.473,-968 435.473,-964.5 425.473,-961 425.473,-968"/>
</g>
<!-- Node26&#45;&gt;Node4 -->
<g id="edge42" class="edge"><title>Node26&#45;&gt;Node4</title>
<path fill="none" stroke="midnightblue" d="M539.618,-1028.52C551.576,-1032.29 564.502,-1036.37 576.776,-1040.24"/>
<polygon fill="midnightblue" stroke="midnightblue" points="575.859,-1043.62 586.449,-1043.29 577.965,-1036.94 575.859,-1043.62"/>
</g>
<!-- Node26&#45;&gt;Node6 -->
<g id="edge41" class="edge"><title>Node26&#45;&gt;Node6</title>
<path fill="none" stroke="midnightblue" d="M543.272,-1015.28C584.176,-1014.11 640.902,-1006.42 680,-976.5 725.956,-941.334 747.68,-873.335 756.456,-836.565"/>
<polygon fill="midnightblue" stroke="midnightblue" points="759.906,-837.175 758.688,-826.651 753.077,-835.638 759.906,-837.175"/>
</g>
<!-- Node27&#45;&gt;Node4 -->
<g id="edge45" class="edge"><title>Node27&#45;&gt;Node4</title>
<path fill="none" stroke="midnightblue" d="M530.455,-979.622C536.804,-982.609 543.201,-985.934 549,-989.5 570.408,-1002.66 592.248,-1020.93 608.076,-1035.21"/>
<polygon fill="midnightblue" stroke="midnightblue" points="606.035,-1038.09 615.77,-1042.27 610.767,-1032.93 606.035,-1038.09"/>
</g>
<!-- Node27&#45;&gt;Node6 -->
<g id="edge44" class="edge"><title>Node27&#45;&gt;Node6</title>
<path fill="none" stroke="midnightblue" d="M546.749,-973.618C586.642,-977.358 640.409,-976.119 680,-951.5 722.024,-925.368 744.782,-869.019 754.905,-836.337"/>
<polygon fill="midnightblue" stroke="midnightblue" points="758.297,-837.207 757.756,-826.626 751.58,-835.235 758.297,-837.207"/>
</g>
<!-- Node28&#45;&gt;Node4 -->
<g id="edge48" class="edge"><title>Node28&#45;&gt;Node4</title>
<path fill="none" stroke="midnightblue" d="M505.018,-886.577C516.798,-900.377 534.475,-921.484 549,-940.5 573.214,-972.2 599.494,-1010.14 615.731,-1034.03"/>
<polygon fill="midnightblue" stroke="midnightblue" points="612.933,-1036.14 621.437,-1042.46 618.729,-1032.22 612.933,-1036.14"/>
</g>
<!-- Node28&#45;&gt;Node6 -->
<g id="edge47" class="edge"><title>Node28&#45;&gt;Node6</title>
<path fill="none" stroke="midnightblue" d="M534.109,-862.125C580.326,-851.836 654.722,-835.272 705.751,-823.912"/>
<polygon fill="midnightblue" stroke="midnightblue" points="706.63,-827.302 715.63,-821.712 705.109,-820.469 706.63,-827.302"/>
</g>
<!-- Node29 -->
<g id="node28" class="node"><title>Node29</title>
<g id="a_node28"><a xlink:href="../../d5/daa/namespacemom__tidal__forcing.html#aba9bdb9c6510bac9f65e674bd5583f39" target="_top" xlink:title="mom_tidal_forcing::\lfind_in_files">
<polygon fill="white" stroke="black" points="589.5,-878.5 589.5,-908.5 675.5,-908.5 675.5,-878.5 589.5,-878.5"/>
<text text-anchor="start" x="597.5" y="-896.5" font-family="Helvetica,sans-Serif" font-size="10.00">mom_tidal_forcing::</text>
<text text-anchor="middle" x="632.5" y="-885.5" font-family="Helvetica,sans-Serif" font-size="10.00">find_in_files</text>
</a>
</g>
</g>
<!-- Node28&#45;&gt;Node29 -->
<g id="edge49" class="edge"><title>Node28&#45;&gt;Node29</title>
<path fill="none" stroke="midnightblue" d="M534.233,-878.16C548.437,-880.4 564.454,-882.927 579.33,-885.273"/>
<polygon fill="midnightblue" stroke="midnightblue" points="578.987,-888.762 589.41,-886.862 580.078,-881.847 578.987,-888.762"/>
</g>
<!-- Node29&#45;&gt;Node6 -->
<g id="edge50" class="edge"><title>Node29&#45;&gt;Node6</title>
<path fill="none" stroke="midnightblue" d="M656.977,-878.46C677.239,-865.48 706.705,-846.603 729.191,-832.198"/>
<polygon fill="midnightblue" stroke="midnightblue" points="731.206,-835.064 737.738,-826.722 727.43,-829.17 731.206,-835.064"/>
</g>
</g>
</svg>
        <g id="navigator" transform="translate(0 0)" fill="#404254">
                <rect fill="#f2f5e9" fill-opacity="0.5" stroke="#606060" stroke-width=".5" x="0" y="0" width="60" height="60"/>
                <use id="zoomplus" xlink:href="#zoomPlus" x="17" y="9" onmousedown="handleZoom(evt,'in')"/>
                <use id="zoomminus" xlink:href="#zoomMin" x="42" y="9" onmousedown="handleZoom(evt,'out')"/>
                <use id="reset" xlink:href="#resetDef" x="30" y="36" onmousedown="handleReset()"/>
                <g id="arrowUp" xlink:href="#dirArrow" transform="translate(30 24)" onmousedown="handlePan(0,-1)">
                  <use xlink:href="#rim" fill="#404040">
                        <set attributeName="fill" to="#808080" begin="arrowUp.mouseover" end="arrowUp.mouseout"/>
                  </use>
                  <path fill="none" stroke="white" stroke-width="1.5" d="M0,-3.0v7 M-2.5,-0.5L0,-3.0L2.5,-0.5"/>
                </g>
                <g id="arrowRight" xlink:href="#dirArrow" transform="rotate(90) translate(36 -43)" onmousedown="handlePan(1,0)">
                  <use xlink:href="#rim" fill="#404040">
                        <set attributeName="fill" to="#808080" begin="arrowRight.mouseover" end="arrowRight.mouseout"/>
                  </use>
                  <path fill="none" stroke="white" stroke-width="1.5" d="M0,-3.0v7 M-2.5,-0.5L0,-3.0L2.5,-0.5"/>
                </g>
                <g id="arrowDown" xlink:href="#dirArrow" transform="rotate(180) translate(-30 -48)" onmousedown="handlePan(0,1)">
                  <use xlink:href="#rim" fill="#404040">
                        <set attributeName="fill" to="#808080" begin="arrowDown.mouseover" end="arrowDown.mouseout"/>
                  </use>
                  <path fill="none" stroke="white" stroke-width="1.5" d="M0,-3.0v7 M-2.5,-0.5L0,-3.0L2.5,-0.5"/>
                </g>
                <g id="arrowLeft" xlink:href="#dirArrow" transform="rotate(270) translate(-36 17)" onmousedown="handlePan(-1,0)">
                  <use xlink:href="#rim" fill="#404040">
                        <set attributeName="fill" to="#808080" begin="arrowLeft.mouseover" end="arrowLeft.mouseout"/>
                  </use>
                  <path fill="none" stroke="white" stroke-width="1.5" d="M0,-3.0v7 M-2.5,-0.5L0,-3.0L2.5,-0.5"/>
                </g>
        </g>
        <svg viewBox="0 0 15 15" width="100%" height="30px" preserveAspectRatio="xMaxYMin meet">
         <g id="arrow_out" transform="scale(0.3 0.3)">
          <a xlink:href="namespacemom__dynamics__unsplit_ac557a7a55605cba7a17074f6375107f6_cgraph_org.svg" target="_base">
           <rect id="button" ry="5" rx="5" y="6" x="6" height="38" width="38"
                fill="#f2f5e9" fill-opacity="0.5" stroke="#606060" stroke-width="1.0"/>
           <path id="arrow"
             d="M 11.500037,31.436501 C 11.940474,20.09759 22.043105,11.32322 32.158766,21.979434 L 37.068811,17.246167 C 37.068811,17.246167 37.088388,32 37.088388,32 L 22.160133,31.978069 C 22.160133,31.978069 26.997745,27.140456 26.997745,27.140456 C 18.528582,18.264221 13.291696,25.230495 11.500037,31.436501 z"
             style="fill:#404040;"/>
          </a>
         </g>
        </svg>
</svg>
