<?xml version="1.0" encoding="UTF-8" standalone="no"?>
<!DOCTYPE svg PUBLIC "-//W3C//DTD SVG 1.1//EN"
 "http://www.w3.org/Graphics/SVG/1.1/DTD/svg11.dtd">
<!-- Generated by graphviz version 2.38.0 (20140413.2041)
 -->
<!-- Title: mom_meke::meke_alloc_register_restart Pages: 1 -->
<svg width="774pt" height="154pt"
 viewBox="0.00 0.00 774.00 153.50" xmlns="http://www.w3.org/2000/svg" xmlns:xlink="http://www.w3.org/1999/xlink">
<g id="graph0" class="graph" transform="scale(1 1) rotate(0) translate(4 149.5)">
<title>mom_meke::meke_alloc_register_restart</title>
<polygon fill="white" stroke="none" points="-4,4 -4,-149.5 770,-149.5 770,4 -4,4"/>
<!-- Node0 -->
<g id="node1" class="node"><title>Node0</title>
<polygon fill="#bfbfbf" stroke="black" points="0,-44.5 0,-74.5 103,-74.5 103,-44.5 0,-44.5"/>
<text text-anchor="start" x="8" y="-62.5" font-family="Helvetica,sans-Serif" font-size="10.00">mom_meke::meke_alloc</text>
<text text-anchor="middle" x="51.5" y="-51.5" font-family="Helvetica,sans-Serif" font-size="10.00">_register_restart</text>
</g>
<!-- Node1 -->
<g id="node2" class="node"><title>Node1</title>
<g id="a_node2"><a xlink:href="../../d0/de6/namespacemom__error__handler.html#a460cfb79a06c29fc249952c2a3710d67" target="_top" xlink:title="mom_error_handler::\lmom_error">
<polygon fill="white" stroke="black" points="544,-44.5 544,-74.5 637,-74.5 637,-44.5 544,-44.5"/>
<text text-anchor="start" x="552" y="-62.5" font-family="Helvetica,sans-Serif" font-size="10.00">mom_error_handler::</text>
<text text-anchor="middle" x="590.5" y="-51.5" font-family="Helvetica,sans-Serif" font-size="10.00">mom_error</text>
</a>
</g>
</g>
<!-- Node0&#45;&gt;Node1 -->
<g id="edge1" class="edge"><title>Node0&#45;&gt;Node1</title>
<path fill="none" stroke="midnightblue" d="M103.02,-59.5C203.712,-59.5 428.726,-59.5 533.646,-59.5"/>
<polygon fill="midnightblue" stroke="midnightblue" points="533.718,-63.0001 543.718,-59.5 533.718,-56.0001 533.718,-63.0001"/>
</g>
<!-- Node3 -->
<g id="node4" class="node"><title>Node3</title>
<g id="a_node4"><a xlink:href="../../d0/de6/namespacemom__error__handler.html#a1c462df7b61f1296407b4af51dfeceab" target="_top" xlink:title="mom_error_handler::\lmom_mesg">
<polygon fill="white" stroke="black" points="263,-0.5 263,-30.5 356,-30.5 356,-0.5 263,-0.5"/>
<text text-anchor="start" x="271" y="-18.5" font-family="Helvetica,sans-Serif" font-size="10.00">mom_error_handler::</text>
<text text-anchor="middle" x="309.5" y="-7.5" font-family="Helvetica,sans-Serif" font-size="10.00">mom_mesg</text>
</a>
</g>
</g>
<!-- Node0&#45;&gt;Node3 -->
<g id="edge3" class="edge"><title>Node0&#45;&gt;Node3</title>
<path fill="none" stroke="midnightblue" d="M103.077,-50.807C146.201,-43.3951 208.106,-32.7553 252.671,-25.0955"/>
<polygon fill="midnightblue" stroke="midnightblue" points="253.491,-28.5062 262.753,-23.3627 252.305,-21.6073 253.491,-28.5062"/>
</g>
<!-- Node4 -->
<g id="node5" class="node"><title>Node4</title>
<g id="a_node5"><a xlink:href="../../d5/d89/namespacemom__io.html#a39c3ccc06bb1a6e446af2ee9010eba16" target="_top" xlink:title="Returns a vardesc type whose elements have been filled with the provided fields. The argument name is...">
<polygon fill="white" stroke="black" points="139,-88 139,-107 221,-107 221,-88 139,-88"/>
<text text-anchor="middle" x="180" y="-95" font-family="Helvetica,sans-Serif" font-size="10.00">mom_io::var_desc</text>
</a>
</g>
</g>
<!-- Node0&#45;&gt;Node4 -->
<g id="edge5" class="edge"><title>Node0&#45;&gt;Node4</title>
<path fill="none" stroke="midnightblue" d="M102.496,-74.5186C114.023,-77.9811 126.164,-81.6284 137.295,-84.972"/>
<polygon fill="midnightblue" stroke="midnightblue" points="136.602,-88.4182 147.186,-87.9432 138.616,-81.7141 136.602,-88.4182"/>
</g>
<!-- Node2 -->
<g id="node3" class="node"><title>Node2</title>
<g id="a_node3"><a xlink:href="../../d0/de6/namespacemom__error__handler.html#ad5f00a53059c72fe2332d1436c80ca71" target="_top" xlink:title="mom_error_handler::\lis_root_pe">
<polygon fill="white" stroke="black" points="673,-22.5 673,-52.5 766,-52.5 766,-22.5 673,-22.5"/>
<text text-anchor="start" x="681" y="-40.5" font-family="Helvetica,sans-Serif" font-size="10.00">mom_error_handler::</text>
<text text-anchor="middle" x="719.5" y="-29.5" font-family="Helvetica,sans-Serif" font-size="10.00">is_root_pe</text>
</a>
</g>
</g>
<!-- Node1&#45;&gt;Node2 -->
<g id="edge2" class="edge"><title>Node1&#45;&gt;Node2</title>
<path fill="none" stroke="midnightblue" d="M637.35,-51.5575C645.623,-50.1244 654.33,-48.6161 662.846,-47.1409"/>
<polygon fill="midnightblue" stroke="midnightblue" points="663.462,-50.5864 672.717,-45.4308 662.267,-43.6892 663.462,-50.5864"/>
</g>
<!-- Node3&#45;&gt;Node2 -->
<g id="edge4" class="edge"><title>Node3&#45;&gt;Node2</title>
<path fill="none" stroke="midnightblue" d="M356.115,-17.9596C431.394,-22.0188 581.389,-30.1068 662.808,-34.497"/>
<polygon fill="midnightblue" stroke="midnightblue" points="662.693,-37.9958 672.867,-35.0394 663.07,-31.0059 662.693,-37.9958"/>
</g>
<!-- Node5 -->
<g id="node6" class="node"><title>Node5</title>
<g id="a_node6"><a xlink:href="../../d5/d89/namespacemom__io.html#af96b29cb8410d557e8e452b81586223b" target="_top" xlink:title="This routine modifies the named elements of a vardesc type. All arguments are optional, except the vardesc type to be modified. ">
<polygon fill="white" stroke="black" points="257,-126 257,-145 362,-145 362,-126 257,-126"/>
<text text-anchor="middle" x="309.5" y="-133" font-family="Helvetica,sans-Serif" font-size="10.00">mom_io::modify_vardesc</text>
</a>
</g>
</g>
<!-- Node4&#45;&gt;Node5 -->
<g id="edge6" class="edge"><title>Node4&#45;&gt;Node5</title>
<path fill="none" stroke="midnightblue" d="M213.174,-107.089C229.331,-111.904 249.108,-117.799 266.452,-122.968"/>
<polygon fill="midnightblue" stroke="midnightblue" points="265.754,-126.412 276.337,-125.914 267.753,-119.704 265.754,-126.412"/>
</g>
<!-- Node6 -->
<g id="node7" class="node"><title>Node6</title>
<g id="a_node7"><a xlink:href="../../d5/d89/namespacemom__io.html#ac4bc408e8b38dbd669842753f26ebf88" target="_top" xlink:title="Copies a string. ">
<polygon fill="white" stroke="black" points="398,-88 398,-107 508,-107 508,-88 398,-88"/>
<text text-anchor="middle" x="453" y="-95" font-family="Helvetica,sans-Serif" font-size="10.00">mom_io::safe_string_copy</text>
</a>
</g>
</g>
<!-- Node4&#45;&gt;Node6 -->
<g id="edge9" class="edge"><title>Node4&#45;&gt;Node6</title>
<path fill="none" stroke="midnightblue" d="M221.279,-97.5C265.236,-97.5 336.228,-97.5 387.867,-97.5"/>
<polygon fill="midnightblue" stroke="midnightblue" points="387.923,-101 397.923,-97.5 387.923,-94.0001 387.923,-101"/>
</g>
<!-- Node5&#45;&gt;Node6 -->
<g id="edge7" class="edge"><title>Node5&#45;&gt;Node6</title>
<path fill="none" stroke="midnightblue" d="M346.206,-125.911C364.473,-121.006 386.908,-114.98 406.411,-109.743"/>
<polygon fill="midnightblue" stroke="midnightblue" points="407.555,-113.06 416.305,-107.086 405.739,-106.299 407.555,-113.06"/>
</g>
<!-- Node6&#45;&gt;Node1 -->
<g id="edge8" class="edge"><title>Node6&#45;&gt;Node1</title>
<path fill="none" stroke="midnightblue" d="M488.192,-87.911C502.02,-84.0333 518.342,-79.4559 533.799,-75.1209"/>
<polygon fill="midnightblue" stroke="midnightblue" points="535.114,-78.3874 543.797,-72.3171 533.223,-71.6474 535.114,-78.3874"/>
</g>
</g>
</svg>
