<?xml version="1.0" encoding="UTF-8" standalone="no"?>
<!DOCTYPE svg PUBLIC "-//W3C//DTD SVG 1.1//EN"
 "http://www.w3.org/Graphics/SVG/1.1/DTD/svg11.dtd">
<!-- Generated by graphviz version 2.38.0 (20140413.2041)
 -->
<!-- Title: mom_meke::meke_alloc_register_restart Pages: 1 -->
<svg width="328pt" height="39pt"
 viewBox="0.00 0.00 328.00 39.00" xmlns="http://www.w3.org/2000/svg" xmlns:xlink="http://www.w3.org/1999/xlink">
<g id="graph0" class="graph" transform="scale(1 1) rotate(0) translate(4 35)">
<title>mom_meke::meke_alloc_register_restart</title>
<polygon fill="white" stroke="none" points="-4,4 -4,-35 324,-35 324,4 -4,4"/>
<!-- Node7 -->
<g id="node1" class="node"><title>Node7</title>
<polygon fill="#bfbfbf" stroke="black" points="0,-0.5 0,-30.5 103,-30.5 103,-0.5 0,-0.5"/>
<text text-anchor="start" x="8" y="-18.5" font-family="Helvetica,sans-Serif" font-size="10.00">mom_meke::meke_alloc</text>
<text text-anchor="middle" x="51.5" y="-7.5" font-family="Helvetica,sans-Serif" font-size="10.00">_register_restart</text>
</g>
<!-- Node8 -->
<g id="node2" class="node"><title>Node8</title>
<g id="a_node2"><a xlink:href="../../da/d01/namespacemom.html#afebdc0103ad9cbe0ed4a54e522dc4104" target="_top" xlink:title="This subroutine initializes MOM. ">
<polygon fill="white" stroke="black" points="139,-6 139,-25 228,-25 228,-6 139,-6"/>
<text text-anchor="middle" x="183.5" y="-13" font-family="Helvetica,sans-Serif" font-size="10.00">mom::initialize_mom</text>
</a>
</g>
</g>
<!-- Node7&#45;&gt;Node8 -->
<g id="edge1" class="edge"><title>Node7&#45;&gt;Node8</title>
<path fill="none" stroke="midnightblue" d="M113.24,-15.5C121.922,-15.5 130.704,-15.5 138.966,-15.5"/>
<polygon fill="midnightblue" stroke="midnightblue" points="113.134,-12.0001 103.134,-15.5 113.134,-19.0001 113.134,-12.0001"/>
</g>
<!-- Node9 -->
<g id="node3" class="node"><title>Node9</title>
<g id="a_node3"><a xlink:href="../../de/dbc/MOM__driver_8F90.html#a08fffeb2d8e8acbf9ed4609be6d258c6" target="_top" xlink:title="mom_main">
<polygon fill="white" stroke="black" points="264,-6 264,-25 320,-25 320,-6 264,-6"/>
<text text-anchor="middle" x="292" y="-13" font-family="Helvetica,sans-Serif" font-size="10.00">mom_main</text>
</a>
</g>
</g>
<!-- Node8&#45;&gt;Node9 -->
<g id="edge2" class="edge"><title>Node8&#45;&gt;Node9</title>
<path fill="none" stroke="midnightblue" d="M238.407,-15.5C247.206,-15.5 255.981,-15.5 263.771,-15.5"/>
<polygon fill="midnightblue" stroke="midnightblue" points="238.125,-12.0001 228.125,-15.5 238.125,-19.0001 238.125,-12.0001"/>
</g>
</g>
</svg>
