<?xml version="1.0" encoding="UTF-8" standalone="no"?>
<!DOCTYPE svg PUBLIC "-//W3C//DTD SVG 1.1//EN"
 "http://www.w3.org/Graphics/SVG/1.1/DTD/svg11.dtd">
<!-- Generated by graphviz version 2.38.0 (20140413.2041)
 -->
<!-- Title: mom_string_functions::stringfunctionsunittests Pages: 1 -->
<!--zoomable 253 -->
<svg id="main" version="1.1" xmlns="http://www.w3.org/2000/svg" xmlns:xlink="http://www.w3.org/1999/xlink" xml:space="preserve" onload="init(evt)">
<style type="text/css"><![CDATA[
.edge:hover path { stroke: red; }
.edge:hover polygon { stroke: red; fill: red; }
]]></style>
<script type="text/javascript"><![CDATA[
var edges = document.getElementsByTagName('g');
if (edges && edges.length) {
  for (var i=0;i<edges.length;i++) {
    if (edges[i].id.substr(0,4)=='edge') {
      edges[i].setAttribute('class','edge');
    }
  }
}
]]></script>
        <defs>
                <circle id="rim" cx="0" cy="0" r="7"/>
                <circle id="rim2" cx="0" cy="0" r="3.5"/>
                <g id="zoomPlus">
                        <use xlink:href="#rim" fill="#404040">
                                <set attributeName="fill" to="#808080" begin="zoomplus.mouseover" end="zoomplus.mouseout"/>
                        </use>
                        <path d="M-4,0h8M0,-4v8" fill="none" stroke="white" stroke-width="1.5" pointer-events="none"/>
                </g>
                <g id="zoomMin">
                        <use xlink:href="#rim" fill="#404040">
                                <set attributeName="fill" to="#808080" begin="zoomminus.mouseover" end="zoomminus.mouseout"/>
                        </use>
                        <path d="M-4,0h8" fill="none" stroke="white" stroke-width="1.5" pointer-events="none"/>
                </g>
                <g id="dirArrow">
                        <path fill="none" stroke="white" stroke-width="1.5" d="M0,-3.0v7 M-2.5,-0.5L0,-3.0L2.5,-0.5"/>
                </g>
               <g id="resetDef">
                       <use xlink:href="#rim2" fill="#404040">
                               <set attributeName="fill" to="#808080" begin="reset.mouseover" end="reset.mouseout"/>
                       </use>
               </g>
        </defs>

<script type="text/javascript">
var viewWidth = 509;
var viewHeight = 253;
var sectionId = 'dynsection-11';
</script>
<script xlink:href="../../svgpan.js"/>
<svg id="graph" class="graph">
<g id="viewport">
<title>mom_string_functions::stringfunctionsunittests</title>
<polygon fill="white" stroke="none" points="-4,4 -4,-248.5 505,-248.5 505,4 -4,4"/>
<!-- Node83 -->
<g id="node1" class="node"><title>Node83</title>
<polygon fill="#bfbfbf" stroke="black" points="0,-77 0,-107 101,-107 101,-77 0,-77"/>
<text text-anchor="start" x="8" y="-95" font-family="Helvetica,sans-Serif" font-size="10.00">mom_string_functions</text>
<text text-anchor="middle" x="50.5" y="-84" font-family="Helvetica,sans-Serif" font-size="10.00">::stringfunctionsunittests</text>
</g>
<!-- Node84 -->
<g id="node2" class="node"><title>Node84</title>
<g id="a_node2"><a xlink:href="../../df/d46/namespacemom__string__functions.html#a7bfdab6bba33230cc94ed625e95022c9" target="_top" xlink:title="mom_string_functions\l::extractword">
<polygon fill="white" stroke="black" points="137,-214 137,-244 232,-244 232,-214 137,-214"/>
<text text-anchor="start" x="145" y="-232" font-family="Helvetica,sans-Serif" font-size="10.00">mom_string_functions</text>
<text text-anchor="middle" x="184.5" y="-221" font-family="Helvetica,sans-Serif" font-size="10.00">::extractword</text>
</a>
</g>
</g>
<!-- Node83&#45;&gt;Node84 -->
<g id="edge1" class="edge"><title>Node83&#45;&gt;Node84</title>
<path fill="none" stroke="midnightblue" d="M61.2356,-107.105C75.8742,-129.063 105.243,-170.304 137,-199 140.555,-202.212 144.49,-205.312 148.522,-208.22"/>
<polygon fill="midnightblue" stroke="midnightblue" points="146.61,-211.153 156.843,-213.897 150.555,-205.37 146.61,-211.153"/>
</g>
<!-- Node85 -->
<g id="node3" class="node"><title>Node85</title>
<g id="a_node3"><a xlink:href="../../df/d46/namespacemom__string__functions.html#ae6b4260129cce257d834cc9b32e847f3" target="_top" xlink:title="mom_string_functions\l::left_int">
<polygon fill="white" stroke="black" points="268,-126 268,-156 363,-156 363,-126 268,-126"/>
<text text-anchor="start" x="276" y="-144" font-family="Helvetica,sans-Serif" font-size="10.00">mom_string_functions</text>
<text text-anchor="middle" x="315.5" y="-133" font-family="Helvetica,sans-Serif" font-size="10.00">::left_int</text>
</a>
</g>
</g>
<!-- Node83&#45;&gt;Node85 -->
<g id="edge2" class="edge"><title>Node83&#45;&gt;Node85</title>
<path fill="none" stroke="midnightblue" d="M63.1147,-107.18C77.9624,-125.198 105.544,-154.278 137,-166 179.915,-181.992 232.147,-171.336 268.802,-159.385"/>
<polygon fill="midnightblue" stroke="midnightblue" points="270.376,-162.546 278.707,-156.001 268.113,-155.922 270.376,-162.546"/>
</g>
<!-- Node86 -->
<g id="node4" class="node"><title>Node86</title>
<g id="a_node4"><a xlink:href="../../df/d46/namespacemom__string__functions.html#a0db6538cb622d0f20a577b07cb545f2e" target="_top" xlink:title="mom_string_functions\l::left_ints">
<polygon fill="white" stroke="black" points="137,-126 137,-156 232,-156 232,-126 137,-126"/>
<text text-anchor="start" x="145" y="-144" font-family="Helvetica,sans-Serif" font-size="10.00">mom_string_functions</text>
<text text-anchor="middle" x="184.5" y="-133" font-family="Helvetica,sans-Serif" font-size="10.00">::left_ints</text>
</a>
</g>
</g>
<!-- Node83&#45;&gt;Node86 -->
<g id="edge3" class="edge"><title>Node83&#45;&gt;Node86</title>
<path fill="none" stroke="midnightblue" d="M92.1814,-107.101C105.104,-111.899 119.553,-117.262 133.077,-122.282"/>
<polygon fill="midnightblue" stroke="midnightblue" points="132.133,-125.665 142.726,-125.864 134.569,-119.103 132.133,-125.665"/>
</g>
<!-- Node87 -->
<g id="node5" class="node"><title>Node87</title>
<g id="a_node5"><a xlink:href="../../df/d46/namespacemom__string__functions.html#ab56b89fb51a387279afc68c85d30dca2" target="_top" xlink:title="mom_string_functions\l::left_real">
<polygon fill="white" stroke="black" points="268,-55 268,-85 363,-85 363,-55 268,-55"/>
<text text-anchor="start" x="276" y="-73" font-family="Helvetica,sans-Serif" font-size="10.00">mom_string_functions</text>
<text text-anchor="middle" x="315.5" y="-62" font-family="Helvetica,sans-Serif" font-size="10.00">::left_real</text>
</a>
</g>
</g>
<!-- Node83&#45;&gt;Node87 -->
<g id="edge5" class="edge"><title>Node83&#45;&gt;Node87</title>
<path fill="none" stroke="midnightblue" d="M94.0311,-76.9805C107.586,-72.8956 122.763,-69.0388 137,-67 177.125,-61.2541 222.87,-62.2038 257.87,-64.486"/>
<polygon fill="midnightblue" stroke="midnightblue" points="257.683,-67.9814 267.905,-65.1956 258.177,-60.9988 257.683,-67.9814"/>
</g>
<!-- Node89 -->
<g id="node7" class="node"><title>Node89</title>
<g id="a_node7"><a xlink:href="../../df/d46/namespacemom__string__functions.html#a07fa1b92ce5c4c4336bb45c5a89fa548" target="_top" xlink:title="mom_string_functions\l::left_reals">
<polygon fill="white" stroke="black" points="137,-77 137,-107 232,-107 232,-77 137,-77"/>
<text text-anchor="start" x="145" y="-95" font-family="Helvetica,sans-Serif" font-size="10.00">mom_string_functions</text>
<text text-anchor="middle" x="184.5" y="-84" font-family="Helvetica,sans-Serif" font-size="10.00">::left_reals</text>
</a>
</g>
</g>
<!-- Node83&#45;&gt;Node89 -->
<g id="edge7" class="edge"><title>Node83&#45;&gt;Node89</title>
<path fill="none" stroke="midnightblue" d="M101.027,-92C109.349,-92 118.044,-92 126.535,-92"/>
<polygon fill="midnightblue" stroke="midnightblue" points="126.753,-95.5001 136.753,-92 126.753,-88.5001 126.753,-95.5001"/>
</g>
<!-- Node90 -->
<g id="node8" class="node"><title>Node90</title>
<g id="a_node8"><a xlink:href="../../df/ddf/MOM__string__functions_8F90.html#a47946f75196556f8fa9e3fbdee46dea6" target="_top" xlink:title="localtest">
<polygon fill="white" stroke="black" points="162,-0.5 162,-19.5 207,-19.5 207,-0.5 162,-0.5"/>
<text text-anchor="middle" x="184.5" y="-7.5" font-family="Helvetica,sans-Serif" font-size="10.00">localtest</text>
</a>
</g>
</g>
<!-- Node83&#45;&gt;Node90 -->
<g id="edge10" class="edge"><title>Node83&#45;&gt;Node90</title>
<path fill="none" stroke="midnightblue" d="M63.6582,-76.9465C79.9705,-62.2523 110.017,-41.0377 137,-25 141.979,-22.0409 147.361,-19.0673 152.638,-16.4089"/>
<polygon fill="midnightblue" stroke="midnightblue" points="154.36,-19.4666 161.911,-12.0353 151.374,-13.1354 154.36,-19.4666"/>
</g>
<!-- Node86&#45;&gt;Node85 -->
<g id="edge4" class="edge"><title>Node86&#45;&gt;Node85</title>
<path fill="none" stroke="midnightblue" d="M232.072,-141C240.475,-141 249.319,-141 257.969,-141"/>
<polygon fill="midnightblue" stroke="midnightblue" points="257.996,-144.5 267.996,-141 257.996,-137.5 257.996,-144.5"/>
</g>
<!-- Node88 -->
<g id="node6" class="node"><title>Node88</title>
<g id="a_node6"><a xlink:href="../../df/d46/namespacemom__string__functions.html#aec369a6ac0badc1dbd782a1668d2c7c3" target="_top" xlink:title="mom_string_functions\l::isformattedfloatequalto">
<polygon fill="white" stroke="black" points="399,-55 399,-85 501,-85 501,-55 399,-55"/>
<text text-anchor="start" x="407" y="-73" font-family="Helvetica,sans-Serif" font-size="10.00">mom_string_functions</text>
<text text-anchor="middle" x="450" y="-62" font-family="Helvetica,sans-Serif" font-size="10.00">::isformattedfloatequalto</text>
</a>
</g>
</g>
<!-- Node87&#45;&gt;Node88 -->
<g id="edge6" class="edge"><title>Node87&#45;&gt;Node88</title>
<path fill="none" stroke="midnightblue" d="M363.215,-70C371.372,-70 379.963,-70 388.43,-70"/>
<polygon fill="midnightblue" stroke="midnightblue" points="388.658,-73.5001 398.658,-70 388.658,-66.5001 388.658,-73.5001"/>
</g>
<!-- Node89&#45;&gt;Node85 -->
<g id="edge8" class="edge"><title>Node89&#45;&gt;Node85</title>
<path fill="none" stroke="midnightblue" d="M225.257,-107.101C237.886,-111.899 252.007,-117.262 265.223,-122.282"/>
<polygon fill="midnightblue" stroke="midnightblue" points="264.061,-125.585 274.652,-125.864 266.547,-119.041 264.061,-125.585"/>
</g>
<!-- Node89&#45;&gt;Node87 -->
<g id="edge9" class="edge"><title>Node89&#45;&gt;Node87</title>
<path fill="none" stroke="midnightblue" d="M232.072,-84.0575C240.475,-82.6244 249.319,-81.1161 257.969,-79.6409"/>
<polygon fill="midnightblue" stroke="midnightblue" points="258.727,-83.0623 267.996,-77.9308 257.55,-76.1619 258.727,-83.0623"/>
</g>
<!-- Node90&#45;&gt;Node83 -->
<g id="edge11" class="edge"><title>Node90&#45;&gt;Node83</title>
<path fill="none" stroke="midnightblue" d="M176.105,-19.7479C166.806,-26.9268 150.432,-35.0164 137,-43 122.06,-51.8794 106.182,-62.3458 92.2153,-71.438"/>
<polygon fill="midnightblue" stroke="midnightblue" points="90.2814,-68.5205 83.7916,-76.8951 94.0874,-74.3954 90.2814,-68.5205"/>
</g>
</g>
</svg>
        <g id="navigator" transform="translate(0 0)" fill="#404254">
                <rect fill="#f2f5e9" fill-opacity="0.5" stroke="#606060" stroke-width=".5" x="0" y="0" width="60" height="60"/>
                <use id="zoomplus" xlink:href="#zoomPlus" x="17" y="9" onmousedown="handleZoom(evt,'in')"/>
                <use id="zoomminus" xlink:href="#zoomMin" x="42" y="9" onmousedown="handleZoom(evt,'out')"/>
                <use id="reset" xlink:href="#resetDef" x="30" y="36" onmousedown="handleReset()"/>
                <g id="arrowUp" xlink:href="#dirArrow" transform="translate(30 24)" onmousedown="handlePan(0,-1)">
                  <use xlink:href="#rim" fill="#404040">
                        <set attributeName="fill" to="#808080" begin="arrowUp.mouseover" end="arrowUp.mouseout"/>
                  </use>
                  <path fill="none" stroke="white" stroke-width="1.5" d="M0,-3.0v7 M-2.5,-0.5L0,-3.0L2.5,-0.5"/>
                </g>
                <g id="arrowRight" xlink:href="#dirArrow" transform="rotate(90) translate(36 -43)" onmousedown="handlePan(1,0)">
                  <use xlink:href="#rim" fill="#404040">
                        <set attributeName="fill" to="#808080" begin="arrowRight.mouseover" end="arrowRight.mouseout"/>
                  </use>
                  <path fill="none" stroke="white" stroke-width="1.5" d="M0,-3.0v7 M-2.5,-0.5L0,-3.0L2.5,-0.5"/>
                </g>
                <g id="arrowDown" xlink:href="#dirArrow" transform="rotate(180) translate(-30 -48)" onmousedown="handlePan(0,1)">
                  <use xlink:href="#rim" fill="#404040">
                        <set attributeName="fill" to="#808080" begin="arrowDown.mouseover" end="arrowDown.mouseout"/>
                  </use>
                  <path fill="none" stroke="white" stroke-width="1.5" d="M0,-3.0v7 M-2.5,-0.5L0,-3.0L2.5,-0.5"/>
                </g>
                <g id="arrowLeft" xlink:href="#dirArrow" transform="rotate(270) translate(-36 17)" onmousedown="handlePan(-1,0)">
                  <use xlink:href="#rim" fill="#404040">
                        <set attributeName="fill" to="#808080" begin="arrowLeft.mouseover" end="arrowLeft.mouseout"/>
                  </use>
                  <path fill="none" stroke="white" stroke-width="1.5" d="M0,-3.0v7 M-2.5,-0.5L0,-3.0L2.5,-0.5"/>
                </g>
        </g>
        <svg viewBox="0 0 15 15" width="100%" height="30px" preserveAspectRatio="xMaxYMin meet">
         <g id="arrow_out" transform="scale(0.3 0.3)">
          <a xlink:href="namespacemom__string__functions_a0437bd522d041c26aa7175c20ca09fe5_cgraph_org.svg" target="_base">
           <rect id="button" ry="5" rx="5" y="6" x="6" height="38" width="38"
                fill="#f2f5e9" fill-opacity="0.5" stroke="#606060" stroke-width="1.0"/>
           <path id="arrow"
             d="M 11.500037,31.436501 C 11.940474,20.09759 22.043105,11.32322 32.158766,21.979434 L 37.068811,17.246167 C 37.068811,17.246167 37.088388,32 37.088388,32 L 22.160133,31.978069 C 22.160133,31.978069 26.997745,27.140456 26.997745,27.140456 C 18.528582,18.264221 13.291696,25.230495 11.500037,31.436501 z"
             style="fill:#404040;"/>
          </a>
         </g>
        </svg>
</svg>
