<?xml version="1.0" encoding="UTF-8" standalone="no"?>
<!DOCTYPE svg PUBLIC "-//W3C//DTD SVG 1.1//EN"
 "http://www.w3.org/Graphics/SVG/1.1/DTD/svg11.dtd">
<!-- Generated by graphviz version 2.38.0 (20140413.2041)
 -->
<!-- Title: mom_meke::meke_init Pages: 1 -->
<svg width="363pt" height="137pt"
 viewBox="0.00 0.00 363.00 137.00" xmlns="http://www.w3.org/2000/svg" xmlns:xlink="http://www.w3.org/1999/xlink">
<g id="graph0" class="graph" transform="scale(1 1) rotate(0) translate(4 133)">
<title>mom_meke::meke_init</title>
<polygon fill="white" stroke="none" points="-4,4 -4,-133 359,-133 359,4 -4,4"/>
<!-- Node18 -->
<g id="node1" class="node"><title>Node18</title>
<polygon fill="#bfbfbf" stroke="black" points="0,-55 0,-74 97,-74 97,-55 0,-55"/>
<text text-anchor="middle" x="48.5" y="-62" font-family="Helvetica,sans-Serif" font-size="10.00">mom_meke::meke_init</text>
</g>
<!-- Node19 -->
<g id="node2" class="node"><title>Node19</title>
<g id="a_node2"><a xlink:href="../../d9/def/namespacemom__file__parser.html#a17c0ef1bb1912f02faa0aaa1e0f64210" target="_top" xlink:title="mom_file_parser::log\l_version">
<polygon fill="white" stroke="black" points="133.5,-98.5 133.5,-128.5 225.5,-128.5 225.5,-98.5 133.5,-98.5"/>
<text text-anchor="start" x="141.5" y="-116.5" font-family="Helvetica,sans-Serif" font-size="10.00">mom_file_parser::log</text>
<text text-anchor="middle" x="179.5" y="-105.5" font-family="Helvetica,sans-Serif" font-size="10.00">_version</text>
</a>
</g>
</g>
<!-- Node18&#45;&gt;Node19 -->
<g id="edge1" class="edge"><title>Node18&#45;&gt;Node19</title>
<path fill="none" stroke="midnightblue" d="M74.6787,-74.064C90.2261,-79.9696 110.702,-87.7474 129.359,-94.8339"/>
<polygon fill="midnightblue" stroke="midnightblue" points="128.322,-98.184 138.913,-98.463 130.807,-91.6401 128.322,-98.184"/>
</g>
<!-- Node21 -->
<g id="node4" class="node"><title>Node21</title>
<g id="a_node4"><a xlink:href="../../d0/de6/namespacemom__error__handler.html#a460cfb79a06c29fc249952c2a3710d67" target="_top" xlink:title="mom_error_handler::\lmom_error">
<polygon fill="white" stroke="black" points="133,-49.5 133,-79.5 226,-79.5 226,-49.5 133,-49.5"/>
<text text-anchor="start" x="141" y="-67.5" font-family="Helvetica,sans-Serif" font-size="10.00">mom_error_handler::</text>
<text text-anchor="middle" x="179.5" y="-56.5" font-family="Helvetica,sans-Serif" font-size="10.00">mom_error</text>
</a>
</g>
</g>
<!-- Node18&#45;&gt;Node21 -->
<g id="edge3" class="edge"><title>Node18&#45;&gt;Node21</title>
<path fill="none" stroke="midnightblue" d="M97.1683,-64.5C105.434,-64.5 114.097,-64.5 122.56,-64.5"/>
<polygon fill="midnightblue" stroke="midnightblue" points="122.743,-68.0001 132.743,-64.5 122.743,-61.0001 122.743,-68.0001"/>
</g>
<!-- Node22 -->
<g id="node5" class="node"><title>Node22</title>
<g id="a_node5"><a xlink:href="../../d0/de6/namespacemom__error__handler.html#a1c462df7b61f1296407b4af51dfeceab" target="_top" xlink:title="mom_error_handler::\lmom_mesg">
<polygon fill="white" stroke="black" points="133,-0.5 133,-30.5 226,-30.5 226,-0.5 133,-0.5"/>
<text text-anchor="start" x="141" y="-18.5" font-family="Helvetica,sans-Serif" font-size="10.00">mom_error_handler::</text>
<text text-anchor="middle" x="179.5" y="-7.5" font-family="Helvetica,sans-Serif" font-size="10.00">mom_mesg</text>
</a>
</g>
</g>
<!-- Node18&#45;&gt;Node22 -->
<g id="edge5" class="edge"><title>Node18&#45;&gt;Node22</title>
<path fill="none" stroke="midnightblue" d="M74.6787,-54.936C90.2261,-49.0304 110.702,-41.2526 129.359,-34.1661"/>
<polygon fill="midnightblue" stroke="midnightblue" points="130.807,-37.3599 138.913,-30.537 128.322,-30.816 130.807,-37.3599"/>
</g>
<!-- Node20 -->
<g id="node3" class="node"><title>Node20</title>
<g id="a_node3"><a xlink:href="../../d0/de6/namespacemom__error__handler.html#ad5f00a53059c72fe2332d1436c80ca71" target="_top" xlink:title="mom_error_handler::\lis_root_pe">
<polygon fill="white" stroke="black" points="262,-49.5 262,-79.5 355,-79.5 355,-49.5 262,-49.5"/>
<text text-anchor="start" x="270" y="-67.5" font-family="Helvetica,sans-Serif" font-size="10.00">mom_error_handler::</text>
<text text-anchor="middle" x="308.5" y="-56.5" font-family="Helvetica,sans-Serif" font-size="10.00">is_root_pe</text>
</a>
</g>
</g>
<!-- Node19&#45;&gt;Node20 -->
<g id="edge2" class="edge"><title>Node19&#45;&gt;Node20</title>
<path fill="none" stroke="midnightblue" d="M219.64,-98.3986C231.953,-93.6481 245.706,-88.3419 258.608,-83.364"/>
<polygon fill="midnightblue" stroke="midnightblue" points="260.2,-86.501 268.27,-79.6359 257.681,-79.9702 260.2,-86.501"/>
</g>
<!-- Node21&#45;&gt;Node20 -->
<g id="edge4" class="edge"><title>Node21&#45;&gt;Node20</title>
<path fill="none" stroke="midnightblue" d="M226.35,-64.5C234.533,-64.5 243.141,-64.5 251.568,-64.5"/>
<polygon fill="midnightblue" stroke="midnightblue" points="251.717,-68.0001 261.717,-64.5 251.717,-61.0001 251.717,-68.0001"/>
</g>
<!-- Node22&#45;&gt;Node20 -->
<g id="edge6" class="edge"><title>Node22&#45;&gt;Node20</title>
<path fill="none" stroke="midnightblue" d="M219.64,-30.6014C231.953,-35.3519 245.706,-40.6581 258.608,-45.636"/>
<polygon fill="midnightblue" stroke="midnightblue" points="257.681,-49.0298 268.27,-49.3641 260.2,-42.499 257.681,-49.0298"/>
</g>
</g>
</svg>
