<?xml version="1.0" encoding="UTF-8" standalone="no"?>
<!DOCTYPE svg PUBLIC "-//W3C//DTD SVG 1.1//EN"
 "http://www.w3.org/Graphics/SVG/1.1/DTD/svg11.dtd">
<!-- Generated by graphviz version 2.38.0 (20140413.2041)
 -->
<!-- Title: mom_string_functions::isformattedfloatequalto Pages: 1 -->
<svg width="854pt" height="148pt"
 viewBox="0.00 0.00 854.00 147.50" xmlns="http://www.w3.org/2000/svg" xmlns:xlink="http://www.w3.org/1999/xlink">
<g id="graph0" class="graph" transform="scale(1 1) rotate(0) translate(4 143.5)">
<title>mom_string_functions::isformattedfloatequalto</title>
<polygon fill="white" stroke="none" points="-4,4 -4,-143.5 850,-143.5 850,4 -4,4"/>
<!-- Node10 -->
<g id="node1" class="node"><title>Node10</title>
<polygon fill="#bfbfbf" stroke="black" points="0,-58 0,-88 102,-88 102,-58 0,-58"/>
<text text-anchor="start" x="8" y="-76" font-family="Helvetica,sans-Serif" font-size="10.00">mom_string_functions</text>
<text text-anchor="middle" x="51" y="-65" font-family="Helvetica,sans-Serif" font-size="10.00">::isformattedfloatequalto</text>
</g>
<!-- Node11 -->
<g id="node2" class="node"><title>Node11</title>
<g id="a_node2"><a xlink:href="../../df/d46/namespacemom__string__functions.html#ab56b89fb51a387279afc68c85d30dca2" target="_top" xlink:title="mom_string_functions\l::left_real">
<polygon fill="white" stroke="black" points="138,-58 138,-88 233,-88 233,-58 138,-58"/>
<text text-anchor="start" x="146" y="-76" font-family="Helvetica,sans-Serif" font-size="10.00">mom_string_functions</text>
<text text-anchor="middle" x="185.5" y="-65" font-family="Helvetica,sans-Serif" font-size="10.00">::left_real</text>
</a>
</g>
</g>
<!-- Node10&#45;&gt;Node11 -->
<g id="edge1" class="edge"><title>Node10&#45;&gt;Node11</title>
<path fill="none" stroke="midnightblue" d="M112.121,-73C120.749,-73 129.517,-73 137.832,-73"/>
<polygon fill="midnightblue" stroke="midnightblue" points="112.093,-69.5001 102.093,-73 112.093,-76.5001 112.093,-69.5001"/>
</g>
<!-- Node12 -->
<g id="node3" class="node"><title>Node12</title>
<g id="a_node3"><a xlink:href="../../d9/def/namespacemom__file__parser.html#aeb1b4f822e409456cd341f552542bfc2" target="_top" xlink:title="mom_file_parser::log\l_param_real">
<polygon fill="white" stroke="black" points="270.5,-108 270.5,-138 362.5,-138 362.5,-108 270.5,-108"/>
<text text-anchor="start" x="278.5" y="-126" font-family="Helvetica,sans-Serif" font-size="10.00">mom_file_parser::log</text>
<text text-anchor="middle" x="316.5" y="-115" font-family="Helvetica,sans-Serif" font-size="10.00">_param_real</text>
</a>
</g>
</g>
<!-- Node11&#45;&gt;Node12 -->
<g id="edge2" class="edge"><title>Node11&#45;&gt;Node12</title>
<path fill="none" stroke="midnightblue" d="M234.544,-91.6218C248.333,-96.9661 263.196,-102.727 276.377,-107.836"/>
<polygon fill="midnightblue" stroke="midnightblue" points="235.793,-88.3523 225.204,-88.0016 233.263,-94.8791 235.793,-88.3523"/>
</g>
<!-- Node14 -->
<g id="node5" class="node"><title>Node14</title>
<g id="a_node5"><a xlink:href="../../df/d46/namespacemom__string__functions.html#a07fa1b92ce5c4c4336bb45c5a89fa548" target="_top" xlink:title="mom_string_functions\l::left_reals">
<polygon fill="white" stroke="black" points="269,-58 269,-88 364,-88 364,-58 269,-58"/>
<text text-anchor="start" x="277" y="-76" font-family="Helvetica,sans-Serif" font-size="10.00">mom_string_functions</text>
<text text-anchor="middle" x="316.5" y="-65" font-family="Helvetica,sans-Serif" font-size="10.00">::left_reals</text>
</a>
</g>
</g>
<!-- Node11&#45;&gt;Node14 -->
<g id="edge4" class="edge"><title>Node11&#45;&gt;Node14</title>
<path fill="none" stroke="midnightblue" d="M243.101,-73C251.752,-73 260.596,-73 268.996,-73"/>
<polygon fill="midnightblue" stroke="midnightblue" points="243.072,-69.5001 233.072,-73 243.072,-76.5001 243.072,-69.5001"/>
</g>
<!-- Node17 -->
<g id="node8" class="node"><title>Node17</title>
<g id="a_node8"><a xlink:href="../../df/d46/namespacemom__string__functions.html#a0437bd522d041c26aa7175c20ca09fe5" target="_top" xlink:title="mom_string_functions\l::stringfunctionsunittests">
<polygon fill="white" stroke="black" points="400,-11 400,-41 501,-41 501,-11 400,-11"/>
<text text-anchor="start" x="408" y="-29" font-family="Helvetica,sans-Serif" font-size="10.00">mom_string_functions</text>
<text text-anchor="middle" x="450.5" y="-18" font-family="Helvetica,sans-Serif" font-size="10.00">::stringfunctionsunittests</text>
</a>
</g>
</g>
<!-- Node11&#45;&gt;Node17 -->
<g id="edge13" class="edge"><title>Node11&#45;&gt;Node17</title>
<path fill="none" stroke="midnightblue" d="M240.7,-55.1241C250.066,-52.4533 259.762,-49.9475 269,-48 312.709,-38.786 363.245,-33.0365 399.706,-29.7366"/>
<polygon fill="midnightblue" stroke="midnightblue" points="239.698,-51.7705 231.092,-57.9504 241.674,-58.486 239.698,-51.7705"/>
</g>
<!-- Node13 -->
<g id="node4" class="node"><title>Node13</title>
<g id="a_node4"><a xlink:href="../../d9/def/namespacemom__file__parser.html#ad3ab0b86ed8dbac8c4ae556c24a6dd07" target="_top" xlink:title="mom_file_parser::get\l_param_real">
<polygon fill="white" stroke="black" points="404.5,-109 404.5,-139 496.5,-139 496.5,-109 404.5,-109"/>
<text text-anchor="start" x="412.5" y="-127" font-family="Helvetica,sans-Serif" font-size="10.00">mom_file_parser::get</text>
<text text-anchor="middle" x="450.5" y="-116" font-family="Helvetica,sans-Serif" font-size="10.00">_param_real</text>
</a>
</g>
</g>
<!-- Node12&#45;&gt;Node13 -->
<g id="edge3" class="edge"><title>Node12&#45;&gt;Node13</title>
<path fill="none" stroke="midnightblue" d="M372.843,-123.419C383.29,-123.498 394.103,-123.58 404.197,-123.657"/>
<polygon fill="midnightblue" stroke="midnightblue" points="372.584,-119.917 362.558,-123.341 372.531,-126.917 372.584,-119.917"/>
</g>
<!-- Node15 -->
<g id="node6" class="node"><title>Node15</title>
<g id="a_node6"><a xlink:href="../../d9/def/namespacemom__file__parser.html#aa368e3cc6595a4f7b84560e1ffbb3ac6" target="_top" xlink:title="mom_file_parser::log\l_param_real_array">
<polygon fill="white" stroke="black" points="404.5,-60 404.5,-90 496.5,-90 496.5,-60 404.5,-60"/>
<text text-anchor="start" x="412.5" y="-78" font-family="Helvetica,sans-Serif" font-size="10.00">mom_file_parser::log</text>
<text text-anchor="middle" x="450.5" y="-67" font-family="Helvetica,sans-Serif" font-size="10.00">_param_real_array</text>
</a>
</g>
</g>
<!-- Node14&#45;&gt;Node15 -->
<g id="edge5" class="edge"><title>Node14&#45;&gt;Node15</title>
<path fill="none" stroke="midnightblue" d="M374.325,-73.861C384.335,-74.0126 394.631,-74.1687 404.269,-74.3147"/>
<polygon fill="midnightblue" stroke="midnightblue" points="374.09,-70.3571 364.038,-73.7051 373.984,-77.3563 374.09,-70.3571"/>
</g>
<!-- Node14&#45;&gt;Node17 -->
<g id="edge7" class="edge"><title>Node14&#45;&gt;Node17</title>
<path fill="none" stroke="midnightblue" d="M369.126,-54.618C381.778,-50.1132 395.17,-45.3447 407.319,-41.019"/>
<polygon fill="midnightblue" stroke="midnightblue" points="367.875,-51.3481 359.629,-57.9997 370.223,-57.9425 367.875,-51.3481"/>
</g>
<!-- Node16 -->
<g id="node7" class="node"><title>Node16</title>
<g id="a_node7"><a xlink:href="../../d9/def/namespacemom__file__parser.html#af43ea79dcb7ced6a6bf49d438d105f76" target="_top" xlink:title="mom_file_parser::get\l_param_real_array">
<polygon fill="white" stroke="black" points="537,-77 537,-107 629,-107 629,-77 537,-77"/>
<text text-anchor="start" x="545" y="-95" font-family="Helvetica,sans-Serif" font-size="10.00">mom_file_parser::get</text>
<text text-anchor="middle" x="583" y="-84" font-family="Helvetica,sans-Serif" font-size="10.00">_param_real_array</text>
</a>
</g>
</g>
<!-- Node15&#45;&gt;Node16 -->
<g id="edge6" class="edge"><title>Node15&#45;&gt;Node16</title>
<path fill="none" stroke="midnightblue" d="M506.989,-82.2285C516.935,-83.5242 527.191,-84.8601 536.804,-86.1124"/>
<polygon fill="midnightblue" stroke="midnightblue" points="507.145,-78.7192 496.776,-80.8981 506.24,-85.6606 507.145,-78.7192"/>
</g>
<!-- Node18 -->
<g id="node9" class="node"><title>Node18</title>
<g id="a_node9"><a xlink:href="../../da/d01/namespacemom.html#a6cfc2cd88d60f051fe90e68c2f16b46b" target="_top" xlink:title="This s/r calls unit tests for other modules. These are NOT normally invoked and so we provide the mod...">
<polygon fill="white" stroke="black" points="549,-38.5 549,-57.5 617,-57.5 617,-38.5 549,-38.5"/>
<text text-anchor="middle" x="583" y="-45.5" font-family="Helvetica,sans-Serif" font-size="10.00">mom::unittests</text>
</a>
</g>
</g>
<!-- Node17&#45;&gt;Node18 -->
<g id="edge8" class="edge"><title>Node17&#45;&gt;Node18</title>
<path fill="none" stroke="midnightblue" d="M511.082,-36.0445C524.116,-38.2418 537.454,-40.4903 548.994,-42.4358"/>
<polygon fill="midnightblue" stroke="midnightblue" points="511.651,-32.5912 501.209,-34.38 510.488,-39.4938 511.651,-32.5912"/>
</g>
<!-- Node21 -->
<g id="node12" class="node"><title>Node21</title>
<g id="a_node12"><a xlink:href="../../df/ddf/MOM__string__functions_8F90.html#a47946f75196556f8fa9e3fbdee46dea6" target="_top" xlink:title="localtest">
<polygon fill="white" stroke="black" points="560.5,-0.5 560.5,-19.5 605.5,-19.5 605.5,-0.5 560.5,-0.5"/>
<text text-anchor="middle" x="583" y="-7.5" font-family="Helvetica,sans-Serif" font-size="10.00">localtest</text>
</a>
</g>
</g>
<!-- Node17&#45;&gt;Node21 -->
<g id="edge11" class="edge"><title>Node17&#45;&gt;Node21</title>
<path fill="none" stroke="midnightblue" d="M511.413,-11.9244C528.912,-9.6469 546.925,-7.95735 560.375,-7.47843"/>
<polygon fill="midnightblue" stroke="midnightblue" points="510.638,-8.498 501.209,-13.3286 511.593,-15.4327 510.638,-8.498"/>
</g>
<!-- Node19 -->
<g id="node10" class="node"><title>Node19</title>
<g id="a_node10"><a xlink:href="../../da/d01/namespacemom.html#afebdc0103ad9cbe0ed4a54e522dc4104" target="_top" xlink:title="This subroutine initializes MOM. ">
<polygon fill="white" stroke="black" points="665,-38.5 665,-57.5 754,-57.5 754,-38.5 665,-38.5"/>
<text text-anchor="middle" x="709.5" y="-45.5" font-family="Helvetica,sans-Serif" font-size="10.00">mom::initialize_mom</text>
</a>
</g>
</g>
<!-- Node18&#45;&gt;Node19 -->
<g id="edge9" class="edge"><title>Node18&#45;&gt;Node19</title>
<path fill="none" stroke="midnightblue" d="M627.405,-48C639.574,-48 652.805,-48 664.981,-48"/>
<polygon fill="midnightblue" stroke="midnightblue" points="627.037,-44.5001 617.037,-48 627.037,-51.5001 627.037,-44.5001"/>
</g>
<!-- Node20 -->
<g id="node11" class="node"><title>Node20</title>
<g id="a_node11"><a xlink:href="../../de/dbc/MOM__driver_8F90.html#a08fffeb2d8e8acbf9ed4609be6d258c6" target="_top" xlink:title="mom_main">
<polygon fill="white" stroke="black" points="790,-38.5 790,-57.5 846,-57.5 846,-38.5 790,-38.5"/>
<text text-anchor="middle" x="818" y="-45.5" font-family="Helvetica,sans-Serif" font-size="10.00">mom_main</text>
</a>
</g>
</g>
<!-- Node19&#45;&gt;Node20 -->
<g id="edge10" class="edge"><title>Node19&#45;&gt;Node20</title>
<path fill="none" stroke="midnightblue" d="M764.407,-48C773.206,-48 781.981,-48 789.771,-48"/>
<polygon fill="midnightblue" stroke="midnightblue" points="764.125,-44.5001 754.125,-48 764.125,-51.5001 764.125,-44.5001"/>
</g>
<!-- Node21&#45;&gt;Node17 -->
<g id="edge12" class="edge"><title>Node21&#45;&gt;Node17</title>
<path fill="none" stroke="midnightblue" d="M550.265,-19.7773C535.532,-22.4172 517.67,-24.8373 501.209,-26.4823"/>
<polygon fill="midnightblue" stroke="midnightblue" points="551.221,-23.1575 560.375,-17.8242 549.893,-16.2846 551.221,-23.1575"/>
</g>
</g>
</svg>
