<?xml version="1.0" encoding="UTF-8" standalone="no"?>
<!DOCTYPE svg PUBLIC "-//W3C//DTD SVG 1.1//EN"
 "http://www.w3.org/Graphics/SVG/1.1/DTD/svg11.dtd">
<!-- Generated by graphviz version 2.38.0 (20140413.2041)
 -->
<!-- Title: mom_string_functions::lowercase Pages: 1 -->
<svg width="597pt" height="137pt"
 viewBox="0.00 0.00 597.00 137.00" xmlns="http://www.w3.org/2000/svg" xmlns:xlink="http://www.w3.org/1999/xlink">
<g id="graph0" class="graph" transform="scale(1 1) rotate(0) translate(4 133)">
<title>mom_string_functions::lowercase</title>
<polygon fill="white" stroke="none" points="-4,4 -4,-133 593,-133 593,4 -4,4"/>
<!-- Node67 -->
<g id="node1" class="node"><title>Node67</title>
<polygon fill="#bfbfbf" stroke="black" points="0,-71.5 0,-101.5 95,-101.5 95,-71.5 0,-71.5"/>
<text text-anchor="start" x="8" y="-89.5" font-family="Helvetica,sans-Serif" font-size="10.00">mom_string_functions</text>
<text text-anchor="middle" x="47.5" y="-78.5" font-family="Helvetica,sans-Serif" font-size="10.00">::lowercase</text>
</g>
<!-- Node68 -->
<g id="node2" class="node"><title>Node68</title>
<g id="a_node2"><a xlink:href="../../d5/d89/namespacemom__io.html#a79952045e028c6882f5b04ea5a1a83f7" target="_top" xlink:title="This function determines how many time levels a variable has. ">
<polygon fill="white" stroke="black" points="131,-99 131,-118 235,-118 235,-99 131,-99"/>
<text text-anchor="middle" x="183" y="-106" font-family="Helvetica,sans-Serif" font-size="10.00">mom_io::num_timelevels</text>
</a>
</g>
</g>
<!-- Node67&#45;&gt;Node68 -->
<g id="edge1" class="edge"><title>Node67&#45;&gt;Node68</title>
<path fill="none" stroke="midnightblue" d="M105.283,-95.8575C113.673,-97.2402 122.279,-98.6583 130.553,-100.022"/>
<polygon fill="midnightblue" stroke="midnightblue" points="105.628,-92.3672 95.1918,-94.1945 104.49,-99.274 105.628,-92.3672"/>
</g>
<!-- Node69 -->
<g id="node3" class="node"><title>Node69</title>
<g id="a_node3"><a xlink:href="../../d1/d85/namespacemom__restart.html#aec60d8a437fc858db4a020f9985b449d" target="_top" xlink:title="mom_restart::restore\l_state">
<polygon fill="white" stroke="black" points="137,-49.5 137,-79.5 229,-79.5 229,-49.5 137,-49.5"/>
<text text-anchor="start" x="145" y="-67.5" font-family="Helvetica,sans-Serif" font-size="10.00">mom_restart::restore</text>
<text text-anchor="middle" x="183" y="-56.5" font-family="Helvetica,sans-Serif" font-size="10.00">_state</text>
</a>
</g>
</g>
<!-- Node67&#45;&gt;Node69 -->
<g id="edge2" class="edge"><title>Node67&#45;&gt;Node69</title>
<path fill="none" stroke="midnightblue" d="M105.203,-77.1557C115.792,-75.4106 126.727,-73.6087 136.908,-71.9309"/>
<polygon fill="midnightblue" stroke="midnightblue" points="104.49,-73.726 95.1918,-78.8055 105.628,-80.6328 104.49,-73.726"/>
</g>
<!-- Node70 -->
<g id="node4" class="node"><title>Node70</title>
<g id="a_node4"><a xlink:href="../../df/da2/namespacemom__ice__shelf.html#ae315e8464ef8a20062e3bccb61886755" target="_top" xlink:title="mom_ice_shelf::initialize\l_ice_shelf">
<polygon fill="white" stroke="black" points="271,-98.5 271,-128.5 372,-128.5 372,-98.5 271,-98.5"/>
<text text-anchor="start" x="279" y="-116.5" font-family="Helvetica,sans-Serif" font-size="10.00">mom_ice_shelf::initialize</text>
<text text-anchor="middle" x="321.5" y="-105.5" font-family="Helvetica,sans-Serif" font-size="10.00">_ice_shelf</text>
</a>
</g>
</g>
<!-- Node69&#45;&gt;Node70 -->
<g id="edge3" class="edge"><title>Node69&#45;&gt;Node70</title>
<path fill="none" stroke="midnightblue" d="M235.635,-83.0355C249.731,-88.0959 264.835,-93.5177 278.336,-98.3641"/>
<polygon fill="midnightblue" stroke="midnightblue" points="236.663,-79.686 226.068,-79.6014 234.298,-86.2743 236.663,-79.686"/>
</g>
<!-- Node73 -->
<g id="node7" class="node"><title>Node73</title>
<g id="a_node7"><a xlink:href="../../d6/d62/namespacemom__state__initialization.html#af4e854627c6572332ba3fd895f169321" target="_top" xlink:title="mom_state_initialization\l::mom_initialize_state">
<polygon fill="white" stroke="black" points="271,-49.5 271,-79.5 372,-79.5 372,-49.5 271,-49.5"/>
<text text-anchor="start" x="279" y="-67.5" font-family="Helvetica,sans-Serif" font-size="10.00">mom_state_initialization</text>
<text text-anchor="middle" x="321.5" y="-56.5" font-family="Helvetica,sans-Serif" font-size="10.00">::mom_initialize_state</text>
</a>
</g>
</g>
<!-- Node69&#45;&gt;Node73 -->
<g id="edge6" class="edge"><title>Node69&#45;&gt;Node73</title>
<path fill="none" stroke="midnightblue" d="M239.305,-64.5C249.714,-64.5 260.539,-64.5 270.765,-64.5"/>
<polygon fill="midnightblue" stroke="midnightblue" points="239.074,-61.0001 229.074,-64.5 239.073,-68.0001 239.074,-61.0001"/>
</g>
<!-- Node75 -->
<g id="node9" class="node"><title>Node75</title>
<g id="a_node9"><a xlink:href="../../dc/ded/namespacemom__surface__forcing.html#ad01961191fdfc928f233901e285f4beb" target="_top" xlink:title="mom_surface_forcing\l::surface_forcing_init">
<polygon fill="white" stroke="black" points="274.5,-0.5 274.5,-30.5 368.5,-30.5 368.5,-0.5 274.5,-0.5"/>
<text text-anchor="start" x="282.5" y="-18.5" font-family="Helvetica,sans-Serif" font-size="10.00">mom_surface_forcing</text>
<text text-anchor="middle" x="321.5" y="-7.5" font-family="Helvetica,sans-Serif" font-size="10.00">::surface_forcing_init</text>
</a>
</g>
</g>
<!-- Node69&#45;&gt;Node75 -->
<g id="edge9" class="edge"><title>Node69&#45;&gt;Node75</title>
<path fill="none" stroke="midnightblue" d="M235.635,-45.9645C249.731,-40.9041 264.835,-35.4823 278.336,-30.6359"/>
<polygon fill="midnightblue" stroke="midnightblue" points="234.298,-42.7257 226.068,-49.3986 236.663,-49.314 234.298,-42.7257"/>
</g>
<!-- Node71 -->
<g id="node5" class="node"><title>Node71</title>
<g id="a_node5"><a xlink:href="../../de/dbc/MOM__driver_8F90.html#a08fffeb2d8e8acbf9ed4609be6d258c6" target="_top" xlink:title="mom_main">
<polygon fill="white" stroke="black" points="533,-93 533,-112 589,-112 589,-93 533,-93"/>
<text text-anchor="middle" x="561" y="-100" font-family="Helvetica,sans-Serif" font-size="10.00">mom_main</text>
</a>
</g>
</g>
<!-- Node70&#45;&gt;Node71 -->
<g id="edge4" class="edge"><title>Node70&#45;&gt;Node71</title>
<path fill="none" stroke="midnightblue" d="M382.211,-121.874C416.047,-125.213 459.071,-127.095 497,-121.5 509.545,-119.649 523.055,-115.832 534.335,-112.1"/>
<polygon fill="midnightblue" stroke="midnightblue" points="382.333,-118.368 372.02,-120.798 381.597,-125.329 382.333,-118.368"/>
</g>
<!-- Node72 -->
<g id="node6" class="node"><title>Node72</title>
<g id="a_node6"><a xlink:href="../../d5/d6d/ice__shelf__driver_8F90.html#aec5bef92f0dad343f545cd8d62e378d8" target="_top" xlink:title="shelf_main">
<polygon fill="white" stroke="black" points="425,-93 425,-112 480,-112 480,-93 425,-93"/>
<text text-anchor="middle" x="452.5" y="-100" font-family="Helvetica,sans-Serif" font-size="10.00">shelf_main</text>
</a>
</g>
</g>
<!-- Node70&#45;&gt;Node72 -->
<g id="edge5" class="edge"><title>Node70&#45;&gt;Node72</title>
<path fill="none" stroke="midnightblue" d="M382.21,-108.408C397.086,-107.14 412.303,-105.842 424.673,-104.788"/>
<polygon fill="midnightblue" stroke="midnightblue" points="381.672,-104.942 372.006,-109.279 382.267,-111.916 381.672,-104.942"/>
</g>
<!-- Node74 -->
<g id="node8" class="node"><title>Node74</title>
<g id="a_node8"><a xlink:href="../../da/d01/namespacemom.html#afebdc0103ad9cbe0ed4a54e522dc4104" target="_top" xlink:title="This subroutine initializes MOM. ">
<polygon fill="white" stroke="black" points="408,-55 408,-74 497,-74 497,-55 408,-55"/>
<text text-anchor="middle" x="452.5" y="-62" font-family="Helvetica,sans-Serif" font-size="10.00">mom::initialize_mom</text>
</a>
</g>
</g>
<!-- Node73&#45;&gt;Node74 -->
<g id="edge7" class="edge"><title>Node73&#45;&gt;Node74</title>
<path fill="none" stroke="midnightblue" d="M382.088,-64.5C390.755,-64.5 399.541,-64.5 407.815,-64.5"/>
<polygon fill="midnightblue" stroke="midnightblue" points="382.006,-61.0001 372.006,-64.5 382.006,-68.0001 382.006,-61.0001"/>
</g>
<!-- Node74&#45;&gt;Node71 -->
<g id="edge8" class="edge"><title>Node74&#45;&gt;Node71</title>
<path fill="none" stroke="midnightblue" d="M489.855,-77.4718C504.044,-82.5344 520.018,-88.2341 533.134,-92.9141"/>
<polygon fill="midnightblue" stroke="midnightblue" points="490.969,-74.1532 480.374,-74.089 488.617,-80.7461 490.969,-74.1532"/>
</g>
</g>
</svg>
