<?xml version="1.0" encoding="UTF-8" standalone="no"?>
<!DOCTYPE svg PUBLIC "-//W3C//DTD SVG 1.1//EN"
 "http://www.w3.org/Graphics/SVG/1.1/DTD/svg11.dtd">
<!-- Generated by graphviz version 2.38.0 (20140413.2041)
 -->
<!-- Title: mom_continuity_ppm::merid_flux_layer Pages: 1 -->
<!--zoomable 95 -->
<svg id="main" version="1.1" xmlns="http://www.w3.org/2000/svg" xmlns:xlink="http://www.w3.org/1999/xlink" xml:space="preserve" onload="init(evt)">
<style type="text/css"><![CDATA[
.edge:hover path { stroke: red; }
.edge:hover polygon { stroke: red; fill: red; }
]]></style>
<script type="text/javascript"><![CDATA[
var edges = document.getElementsByTagName('g');
if (edges && edges.length) {
  for (var i=0;i<edges.length;i++) {
    if (edges[i].id.substr(0,4)=='edge') {
      edges[i].setAttribute('class','edge');
    }
  }
}
]]></script>
        <defs>
                <circle id="rim" cx="0" cy="0" r="7"/>
                <circle id="rim2" cx="0" cy="0" r="3.5"/>
                <g id="zoomPlus">
                        <use xlink:href="#rim" fill="#404040">
                                <set attributeName="fill" to="#808080" begin="zoomplus.mouseover" end="zoomplus.mouseout"/>
                        </use>
                        <path d="M-4,0h8M0,-4v8" fill="none" stroke="white" stroke-width="1.5" pointer-events="none"/>
                </g>
                <g id="zoomMin">
                        <use xlink:href="#rim" fill="#404040">
                                <set attributeName="fill" to="#808080" begin="zoomminus.mouseover" end="zoomminus.mouseout"/>
                        </use>
                        <path d="M-4,0h8" fill="none" stroke="white" stroke-width="1.5" pointer-events="none"/>
                </g>
                <g id="dirArrow">
                        <path fill="none" stroke="white" stroke-width="1.5" d="M0,-3.0v7 M-2.5,-0.5L0,-3.0L2.5,-0.5"/>
                </g>
               <g id="resetDef">
                       <use xlink:href="#rim2" fill="#404040">
                               <set attributeName="fill" to="#808080" begin="reset.mouseover" end="reset.mouseout"/>
                       </use>
               </g>
        </defs>

<script type="text/javascript">
var viewWidth = 626;
var viewHeight = 95;
var sectionId = 'dynsection-3';
</script>
<script xlink:href="../../svgpan.js"/>
<svg id="graph" class="graph">
<g id="viewport">
<title>mom_continuity_ppm::merid_flux_layer</title>
<polygon fill="white" stroke="none" points="-4,4 -4,-91.1451 622,-91.1451 622,4 -4,4"/>
<!-- Node29 -->
<g id="node1" class="node"><title>Node29</title>
<polygon fill="#bfbfbf" stroke="black" points="0,-12.6451 0,-42.6451 92,-42.6451 92,-12.6451 0,-12.6451"/>
<text text-anchor="start" x="8" y="-30.6451" font-family="Helvetica,sans-Serif" font-size="10.00">mom_continuity_ppm</text>
<text text-anchor="middle" x="46" y="-19.6451" font-family="Helvetica,sans-Serif" font-size="10.00">::merid_flux_layer</text>
</g>
<!-- Node30 -->
<g id="node2" class="node"><title>Node30</title>
<g id="a_node2"><a xlink:href="../../df/de5/namespacemom__continuity__ppm.html#a907d6aa1ca0fdac3d64dfce973be6058" target="_top" xlink:title="mom_continuity_ppm\l::meridional_flux_adjust">
<polygon fill="white" stroke="black" points="128,-56.6451 128,-86.6451 228,-86.6451 228,-56.6451 128,-56.6451"/>
<text text-anchor="start" x="136" y="-74.6451" font-family="Helvetica,sans-Serif" font-size="10.00">mom_continuity_ppm</text>
<text text-anchor="middle" x="178" y="-63.6451" font-family="Helvetica,sans-Serif" font-size="10.00">::meridional_flux_adjust</text>
</a>
</g>
</g>
<!-- Node29&#45;&gt;Node30 -->
<g id="edge1" class="edge"><title>Node29&#45;&gt;Node30</title>
<path fill="none" stroke="midnightblue" d="M100.862,-45.8752C111.349,-49.4248 122.235,-53.1093 132.384,-56.5442"/>
<polygon fill="midnightblue" stroke="midnightblue" points="101.969,-42.5551 91.375,-42.6644 99.7251,-49.1856 101.969,-42.5551"/>
</g>
<!-- Node31 -->
<g id="node3" class="node"><title>Node31</title>
<g id="a_node3"><a xlink:href="../../df/de5/namespacemom__continuity__ppm.html#ae326b8319da257f423f73a32a984b641" target="_top" xlink:title="mom_continuity_ppm\l::meridional_mass_flux">
<polygon fill="white" stroke="black" points="392,-15.6451 392,-45.6451 490,-45.6451 490,-15.6451 392,-15.6451"/>
<text text-anchor="start" x="400" y="-33.6451" font-family="Helvetica,sans-Serif" font-size="10.00">mom_continuity_ppm</text>
<text text-anchor="middle" x="441" y="-22.6451" font-family="Helvetica,sans-Serif" font-size="10.00">::meridional_mass_flux</text>
</a>
</g>
</g>
<!-- Node29&#45;&gt;Node31 -->
<g id="edge6" class="edge"><title>Node29&#45;&gt;Node31</title>
<path fill="none" stroke="midnightblue" d="M102.219,-16.5839C164.242,-5.81193 267.776,7.20489 356,-5.64511 370.003,-7.68464 384.917,-11.5417 398.233,-15.6265"/>
<polygon fill="midnightblue" stroke="midnightblue" points="101.488,-13.1589 92.2566,-18.3572 102.715,-20.0506 101.488,-13.1589"/>
</g>
<!-- Node33 -->
<g id="node5" class="node"><title>Node33</title>
<g id="a_node5"><a xlink:href="../../df/de5/namespacemom__continuity__ppm.html#a052efa0436beec510a387083885085a5" target="_top" xlink:title="mom_continuity_ppm\l::set_merid_bt_cont">
<polygon fill="white" stroke="black" points="264,-15.6451 264,-45.6451 356,-45.6451 356,-15.6451 264,-15.6451"/>
<text text-anchor="start" x="272" y="-33.6451" font-family="Helvetica,sans-Serif" font-size="10.00">mom_continuity_ppm</text>
<text text-anchor="middle" x="310" y="-22.6451" font-family="Helvetica,sans-Serif" font-size="10.00">::set_merid_bt_cont</text>
</a>
</g>
</g>
<!-- Node29&#45;&gt;Node33 -->
<g id="edge7" class="edge"><title>Node29&#45;&gt;Node33</title>
<path fill="none" stroke="midnightblue" d="M102.25,-28.2777C150.228,-28.8271 218.86,-29.613 263.672,-30.1261"/>
<polygon fill="midnightblue" stroke="midnightblue" points="102.079,-24.7757 92.0394,-28.1608 101.999,-31.7752 102.079,-24.7757"/>
</g>
<!-- Node30&#45;&gt;Node31 -->
<g id="edge2" class="edge"><title>Node30&#45;&gt;Node31</title>
<path fill="none" stroke="midnightblue" d="M238.558,-68.6431C273.076,-66.2278 317.241,-61.9797 356,-54.6451 368.071,-52.3608 380.913,-49.1194 392.829,-45.7551"/>
<polygon fill="midnightblue" stroke="midnightblue" points="237.917,-65.178 228.172,-69.3353 238.383,-72.1625 237.917,-65.178"/>
</g>
<!-- Node30&#45;&gt;Node33 -->
<g id="edge4" class="edge"><title>Node30&#45;&gt;Node33</title>
<path fill="none" stroke="midnightblue" d="M236.227,-53.5966C245.504,-50.6706 254.996,-47.6771 263.931,-44.8591"/>
<polygon fill="midnightblue" stroke="midnightblue" points="235.153,-50.2652 226.669,-56.611 237.259,-56.9411 235.153,-50.2652"/>
</g>
<!-- Node32 -->
<g id="node4" class="node"><title>Node32</title>
<g id="a_node4"><a xlink:href="../../df/de5/namespacemom__continuity__ppm.html#a59586aae1668f03f3a78d58f5712cc0f" target="_top" xlink:title="mom_continuity_ppm\l::continuity_ppm">
<polygon fill="white" stroke="black" points="526,-15.6451 526,-45.6451 618,-45.6451 618,-15.6451 526,-15.6451"/>
<text text-anchor="start" x="534" y="-33.6451" font-family="Helvetica,sans-Serif" font-size="10.00">mom_continuity_ppm</text>
<text text-anchor="middle" x="572" y="-22.6451" font-family="Helvetica,sans-Serif" font-size="10.00">::continuity_ppm</text>
</a>
</g>
</g>
<!-- Node31&#45;&gt;Node32 -->
<g id="edge3" class="edge"><title>Node31&#45;&gt;Node32</title>
<path fill="none" stroke="midnightblue" d="M500.095,-30.6451C508.757,-30.6451 517.575,-30.6451 525.916,-30.6451"/>
<polygon fill="midnightblue" stroke="midnightblue" points="500.035,-27.1452 490.035,-30.6451 500.035,-34.1452 500.035,-27.1452"/>
</g>
<!-- Node33&#45;&gt;Node31 -->
<g id="edge5" class="edge"><title>Node33&#45;&gt;Node31</title>
<path fill="none" stroke="midnightblue" d="M366.259,-30.6451C374.694,-30.6451 383.344,-30.6451 391.615,-30.6451"/>
<polygon fill="midnightblue" stroke="midnightblue" points="366.118,-27.1452 356.118,-30.6451 366.118,-34.1452 366.118,-27.1452"/>
</g>
</g>
</svg>
        <g id="navigator" transform="translate(0 0)" fill="#404254">
                <rect fill="#f2f5e9" fill-opacity="0.5" stroke="#606060" stroke-width=".5" x="0" y="0" width="60" height="60"/>
                <use id="zoomplus" xlink:href="#zoomPlus" x="17" y="9" onmousedown="handleZoom(evt,'in')"/>
                <use id="zoomminus" xlink:href="#zoomMin" x="42" y="9" onmousedown="handleZoom(evt,'out')"/>
                <use id="reset" xlink:href="#resetDef" x="30" y="36" onmousedown="handleReset()"/>
                <g id="arrowUp" xlink:href="#dirArrow" transform="translate(30 24)" onmousedown="handlePan(0,-1)">
                  <use xlink:href="#rim" fill="#404040">
                        <set attributeName="fill" to="#808080" begin="arrowUp.mouseover" end="arrowUp.mouseout"/>
                  </use>
                  <path fill="none" stroke="white" stroke-width="1.5" d="M0,-3.0v7 M-2.5,-0.5L0,-3.0L2.5,-0.5"/>
                </g>
                <g id="arrowRight" xlink:href="#dirArrow" transform="rotate(90) translate(36 -43)" onmousedown="handlePan(1,0)">
                  <use xlink:href="#rim" fill="#404040">
                        <set attributeName="fill" to="#808080" begin="arrowRight.mouseover" end="arrowRight.mouseout"/>
                  </use>
                  <path fill="none" stroke="white" stroke-width="1.5" d="M0,-3.0v7 M-2.5,-0.5L0,-3.0L2.5,-0.5"/>
                </g>
                <g id="arrowDown" xlink:href="#dirArrow" transform="rotate(180) translate(-30 -48)" onmousedown="handlePan(0,1)">
                  <use xlink:href="#rim" fill="#404040">
                        <set attributeName="fill" to="#808080" begin="arrowDown.mouseover" end="arrowDown.mouseout"/>
                  </use>
                  <path fill="none" stroke="white" stroke-width="1.5" d="M0,-3.0v7 M-2.5,-0.5L0,-3.0L2.5,-0.5"/>
                </g>
                <g id="arrowLeft" xlink:href="#dirArrow" transform="rotate(270) translate(-36 17)" onmousedown="handlePan(-1,0)">
                  <use xlink:href="#rim" fill="#404040">
                        <set attributeName="fill" to="#808080" begin="arrowLeft.mouseover" end="arrowLeft.mouseout"/>
                  </use>
                  <path fill="none" stroke="white" stroke-width="1.5" d="M0,-3.0v7 M-2.5,-0.5L0,-3.0L2.5,-0.5"/>
                </g>
        </g>
        <svg viewBox="0 0 15 15" width="100%" height="30px" preserveAspectRatio="xMaxYMin meet">
         <g id="arrow_out" transform="scale(0.3 0.3)">
          <a xlink:href="namespacemom__continuity__ppm_ac8b4ab18f30986ba50bc30504976d1a6_icgraph_org.svg" target="_base">
           <rect id="button" ry="5" rx="5" y="6" x="6" height="38" width="38"
                fill="#f2f5e9" fill-opacity="0.5" stroke="#606060" stroke-width="1.0"/>
           <path id="arrow"
             d="M 11.500037,31.436501 C 11.940474,20.09759 22.043105,11.32322 32.158766,21.979434 L 37.068811,17.246167 C 37.068811,17.246167 37.088388,32 37.088388,32 L 22.160133,31.978069 C 22.160133,31.978069 26.997745,27.140456 26.997745,27.140456 C 18.528582,18.264221 13.291696,25.230495 11.500037,31.436501 z"
             style="fill:#404040;"/>
          </a>
         </g>
        </svg>
</svg>
