<?xml version="1.0" encoding="UTF-8" standalone="no"?>
<!DOCTYPE svg PUBLIC "-//W3C//DTD SVG 1.1//EN"
 "http://www.w3.org/Graphics/SVG/1.1/DTD/svg11.dtd">
<!-- Generated by graphviz version 2.38.0 (20140413.2041)
 -->
<!-- Title: mom_continuity_ppm::ratio_max Pages: 1 -->
<svg width="362pt" height="88pt"
 viewBox="0.00 0.00 362.00 88.00" xmlns="http://www.w3.org/2000/svg" xmlns:xlink="http://www.w3.org/1999/xlink">
<g id="graph0" class="graph" transform="scale(1 1) rotate(0) translate(4 84)">
<title>mom_continuity_ppm::ratio_max</title>
<polygon fill="white" stroke="none" points="-4,4 -4,-84 358,-84 358,4 -4,4"/>
<!-- Node78 -->
<g id="node1" class="node"><title>Node78</title>
<polygon fill="#bfbfbf" stroke="black" points="0,-24.5 0,-54.5 92,-54.5 92,-24.5 0,-24.5"/>
<text text-anchor="start" x="8" y="-42.5" font-family="Helvetica,sans-Serif" font-size="10.00">mom_continuity_ppm</text>
<text text-anchor="middle" x="46" y="-31.5" font-family="Helvetica,sans-Serif" font-size="10.00">::ratio_max</text>
</g>
<!-- Node79 -->
<g id="node2" class="node"><title>Node79</title>
<g id="a_node2"><a xlink:href="../../df/de5/namespacemom__continuity__ppm.html#ae326b8319da257f423f73a32a984b641" target="_top" xlink:title="mom_continuity_ppm\l::meridional_mass_flux">
<polygon fill="white" stroke="black" points="128,-49.5 128,-79.5 226,-79.5 226,-49.5 128,-49.5"/>
<text text-anchor="start" x="136" y="-67.5" font-family="Helvetica,sans-Serif" font-size="10.00">mom_continuity_ppm</text>
<text text-anchor="middle" x="177" y="-56.5" font-family="Helvetica,sans-Serif" font-size="10.00">::meridional_mass_flux</text>
</a>
</g>
</g>
<!-- Node78&#45;&gt;Node79 -->
<g id="edge1" class="edge"><title>Node78&#45;&gt;Node79</title>
<path fill="none" stroke="midnightblue" d="M101.981,-50.1553C110.504,-51.8069 119.253,-53.5024 127.615,-55.1231"/>
<polygon fill="midnightblue" stroke="midnightblue" points="102.601,-46.7104 92.1179,-48.2438 101.269,-53.5825 102.601,-46.7104"/>
</g>
<!-- Node81 -->
<g id="node4" class="node"><title>Node81</title>
<g id="a_node4"><a xlink:href="../../df/de5/namespacemom__continuity__ppm.html#aaee3d916bed27d4884d9473218c20fc9" target="_top" xlink:title="mom_continuity_ppm\l::zonal_mass_flux">
<polygon fill="white" stroke="black" points="131,-0.5 131,-30.5 223,-30.5 223,-0.5 131,-0.5"/>
<text text-anchor="start" x="139" y="-18.5" font-family="Helvetica,sans-Serif" font-size="10.00">mom_continuity_ppm</text>
<text text-anchor="middle" x="177" y="-7.5" font-family="Helvetica,sans-Serif" font-size="10.00">::zonal_mass_flux</text>
</a>
</g>
</g>
<!-- Node78&#45;&gt;Node81 -->
<g id="edge3" class="edge"><title>Node78&#45;&gt;Node81</title>
<path fill="none" stroke="midnightblue" d="M101.96,-29.2748C111.54,-27.4926 121.406,-25.657 130.689,-23.9299"/>
<polygon fill="midnightblue" stroke="midnightblue" points="101.309,-25.8358 92.1179,-31.106 102.589,-32.7178 101.309,-25.8358"/>
</g>
<!-- Node80 -->
<g id="node3" class="node"><title>Node80</title>
<g id="a_node3"><a xlink:href="../../df/de5/namespacemom__continuity__ppm.html#a59586aae1668f03f3a78d58f5712cc0f" target="_top" xlink:title="mom_continuity_ppm\l::continuity_ppm">
<polygon fill="white" stroke="black" points="262,-24.5 262,-54.5 354,-54.5 354,-24.5 262,-24.5"/>
<text text-anchor="start" x="270" y="-42.5" font-family="Helvetica,sans-Serif" font-size="10.00">mom_continuity_ppm</text>
<text text-anchor="middle" x="308" y="-31.5" font-family="Helvetica,sans-Serif" font-size="10.00">::continuity_ppm</text>
</a>
</g>
</g>
<!-- Node79&#45;&gt;Node80 -->
<g id="edge2" class="edge"><title>Node79&#45;&gt;Node80</title>
<path fill="none" stroke="midnightblue" d="M236.095,-53.2414C244.757,-51.5626 253.575,-49.8536 261.916,-48.2372"/>
<polygon fill="midnightblue" stroke="midnightblue" points="235.186,-49.8522 226.035,-55.1909 236.518,-56.7243 235.186,-49.8522"/>
</g>
<!-- Node81&#45;&gt;Node80 -->
<g id="edge4" class="edge"><title>Node81&#45;&gt;Node80</title>
<path fill="none" stroke="midnightblue" d="M232.96,-25.7252C242.54,-27.5074 252.406,-29.343 261.689,-31.0701"/>
<polygon fill="midnightblue" stroke="midnightblue" points="233.589,-22.2822 223.118,-23.894 232.309,-29.1642 233.589,-22.2822"/>
</g>
</g>
</svg>
