<?xml version="1.0" encoding="UTF-8" standalone="no"?>
<!DOCTYPE svg PUBLIC "-//W3C//DTD SVG 1.1//EN"
 "http://www.w3.org/Graphics/SVG/1.1/DTD/svg11.dtd">
<!-- Generated by graphviz version 2.38.0 (20140413.2041)
 -->
<!-- Title: mom_continuity_ppm::meridional_mass_flux Pages: 1 -->
<svg width="506pt" height="264pt"
 viewBox="0.00 0.00 506.00 264.00" xmlns="http://www.w3.org/2000/svg" xmlns:xlink="http://www.w3.org/1999/xlink">
<g id="graph0" class="graph" transform="scale(1 1) rotate(0) translate(4 260)">
<title>mom_continuity_ppm::meridional_mass_flux</title>
<polygon fill="white" stroke="none" points="-4,4 -4,-260 502,-260 502,4 -4,4"/>
<!-- Node40 -->
<g id="node1" class="node"><title>Node40</title>
<polygon fill="#bfbfbf" stroke="black" points="0,-115.5 0,-145.5 98,-145.5 98,-115.5 0,-115.5"/>
<text text-anchor="start" x="8" y="-133.5" font-family="Helvetica,sans-Serif" font-size="10.00">mom_continuity_ppm</text>
<text text-anchor="middle" x="49" y="-122.5" font-family="Helvetica,sans-Serif" font-size="10.00">::meridional_mass_flux</text>
</g>
<!-- Node41 -->
<g id="node2" class="node"><title>Node41</title>
<g id="a_node2"><a xlink:href="../../df/de5/namespacemom__continuity__ppm.html#a17fab122a23e34b40ccf9d87e361f80f" target="_top" xlink:title="mom_continuity_ppm\l::merid_face_thickness">
<polygon fill="white" stroke="black" points="135,-225.5 135,-255.5 233,-255.5 233,-225.5 135,-225.5"/>
<text text-anchor="start" x="143" y="-243.5" font-family="Helvetica,sans-Serif" font-size="10.00">mom_continuity_ppm</text>
<text text-anchor="middle" x="184" y="-232.5" font-family="Helvetica,sans-Serif" font-size="10.00">::merid_face_thickness</text>
</a>
</g>
</g>
<!-- Node40&#45;&gt;Node41 -->
<g id="edge1" class="edge"><title>Node40&#45;&gt;Node41</title>
<path fill="none" stroke="midnightblue" d="M64.0174,-145.658C80.0419,-162.54 107.492,-190.13 134,-210.5 138.193,-213.722 142.751,-216.896 147.343,-219.904"/>
<polygon fill="midnightblue" stroke="midnightblue" points="145.804,-223.072 156.128,-225.453 149.542,-217.153 145.804,-223.072"/>
</g>
<!-- Node42 -->
<g id="node3" class="node"><title>Node42</title>
<g id="a_node3"><a xlink:href="../../df/de5/namespacemom__continuity__ppm.html#ac8b4ab18f30986ba50bc30504976d1a6" target="_top" xlink:title="mom_continuity_ppm\l::merid_flux_layer">
<polygon fill="white" stroke="black" points="406,-39.5 406,-69.5 498,-69.5 498,-39.5 406,-39.5"/>
<text text-anchor="start" x="414" y="-57.5" font-family="Helvetica,sans-Serif" font-size="10.00">mom_continuity_ppm</text>
<text text-anchor="middle" x="452" y="-46.5" font-family="Helvetica,sans-Serif" font-size="10.00">::merid_flux_layer</text>
</a>
</g>
</g>
<!-- Node40&#45;&gt;Node42 -->
<g id="edge2" class="edge"><title>Node40&#45;&gt;Node42</title>
<path fill="none" stroke="midnightblue" d="M70.5088,-145.574C86.7971,-156.56 110.644,-170.524 134,-176.5 235.615,-202.501 277.569,-226.08 370,-176.5 408.279,-155.967 431.542,-108.499 442.783,-79.1957"/>
<polygon fill="midnightblue" stroke="midnightblue" points="446.122,-80.256 446.262,-69.662 439.546,-77.8561 446.122,-80.256"/>
</g>
<!-- Node43 -->
<g id="node4" class="node"><title>Node43</title>
<g id="a_node4"><a xlink:href="../../df/de5/namespacemom__continuity__ppm.html#a907d6aa1ca0fdac3d64dfce973be6058" target="_top" xlink:title="mom_continuity_ppm\l::meridional_flux_adjust">
<polygon fill="white" stroke="black" points="270,-39.5 270,-69.5 370,-69.5 370,-39.5 270,-39.5"/>
<text text-anchor="start" x="278" y="-57.5" font-family="Helvetica,sans-Serif" font-size="10.00">mom_continuity_ppm</text>
<text text-anchor="middle" x="320" y="-46.5" font-family="Helvetica,sans-Serif" font-size="10.00">::meridional_flux_adjust</text>
</a>
</g>
</g>
<!-- Node40&#45;&gt;Node43 -->
<g id="edge3" class="edge"><title>Node40&#45;&gt;Node43</title>
<path fill="none" stroke="midnightblue" d="M98.1994,-121.641C135.639,-114.247 188.646,-102.652 234,-88.5 247.674,-84.2332 262.255,-78.7568 275.41,-73.4511"/>
<polygon fill="midnightblue" stroke="midnightblue" points="276.78,-76.6721 284.703,-69.6378 274.123,-70.1961 276.78,-76.6721"/>
</g>
<!-- Node44 -->
<g id="node5" class="node"><title>Node44</title>
<g id="a_node5"><a xlink:href="../../df/de5/namespacemom__continuity__ppm.html#adeae3b92ba337db0294a4947ca52889d" target="_top" xlink:title="mom_continuity_ppm\l::ppm_reconstruction_y">
<polygon fill="white" stroke="black" points="134,-137.5 134,-167.5 234,-167.5 234,-137.5 134,-137.5"/>
<text text-anchor="start" x="142" y="-155.5" font-family="Helvetica,sans-Serif" font-size="10.00">mom_continuity_ppm</text>
<text text-anchor="middle" x="184" y="-144.5" font-family="Helvetica,sans-Serif" font-size="10.00">::ppm_reconstruction_y</text>
</a>
</g>
</g>
<!-- Node40&#45;&gt;Node44 -->
<g id="edge5" class="edge"><title>Node40&#45;&gt;Node44</title>
<path fill="none" stroke="midnightblue" d="M98.0161,-138.443C106.359,-139.823 115.123,-141.272 123.725,-142.695"/>
<polygon fill="midnightblue" stroke="midnightblue" points="123.275,-146.168 133.712,-144.347 124.417,-139.262 123.275,-146.168"/>
</g>
<!-- Node47 -->
<g id="node8" class="node"><title>Node47</title>
<g id="a_node8"><a xlink:href="../../df/de5/namespacemom__continuity__ppm.html#adf02002cf5951d7610b8643d2d401585" target="_top" xlink:title="mom_continuity_ppm\l::ratio_max">
<polygon fill="white" stroke="black" points="138,-49.5 138,-79.5 230,-79.5 230,-49.5 138,-49.5"/>
<text text-anchor="start" x="146" y="-67.5" font-family="Helvetica,sans-Serif" font-size="10.00">mom_continuity_ppm</text>
<text text-anchor="middle" x="184" y="-56.5" font-family="Helvetica,sans-Serif" font-size="10.00">::ratio_max</text>
</a>
</g>
</g>
<!-- Node40&#45;&gt;Node47 -->
<g id="edge8" class="edge"><title>Node40&#45;&gt;Node47</title>
<path fill="none" stroke="midnightblue" d="M80.5129,-115.358C99.1831,-106.093 123.269,-94.1409 143.4,-84.1513"/>
<polygon fill="midnightblue" stroke="midnightblue" points="145.227,-87.1517 152.629,-79.5713 142.116,-80.8813 145.227,-87.1517"/>
</g>
<!-- Node48 -->
<g id="node9" class="node"><title>Node48</title>
<g id="a_node9"><a xlink:href="../../df/de5/namespacemom__continuity__ppm.html#a052efa0436beec510a387083885085a5" target="_top" xlink:title="mom_continuity_ppm\l::set_merid_bt_cont">
<polygon fill="white" stroke="black" points="138,-0.5 138,-30.5 230,-30.5 230,-0.5 138,-0.5"/>
<text text-anchor="start" x="146" y="-18.5" font-family="Helvetica,sans-Serif" font-size="10.00">mom_continuity_ppm</text>
<text text-anchor="middle" x="184" y="-7.5" font-family="Helvetica,sans-Serif" font-size="10.00">::set_merid_bt_cont</text>
</a>
</g>
</g>
<!-- Node40&#45;&gt;Node48 -->
<g id="edge9" class="edge"><title>Node40&#45;&gt;Node48</title>
<path fill="none" stroke="midnightblue" d="M61.1007,-115.352C75.9768,-95.8603 104.002,-61.854 134,-39.5 135.624,-38.2902 137.318,-37.115 139.059,-35.9772"/>
<polygon fill="midnightblue" stroke="midnightblue" points="141.259,-38.7404 148.054,-30.6118 137.673,-32.7286 141.259,-38.7404"/>
</g>
<!-- Node43&#45;&gt;Node42 -->
<g id="edge4" class="edge"><title>Node43&#45;&gt;Node42</title>
<path fill="none" stroke="midnightblue" d="M370.147,-54.5C378.428,-54.5 387.075,-54.5 395.504,-54.5"/>
<polygon fill="midnightblue" stroke="midnightblue" points="395.638,-58.0001 405.638,-54.5 395.638,-51.0001 395.638,-58.0001"/>
</g>
<!-- Node45 -->
<g id="node6" class="node"><title>Node45</title>
<g id="a_node6"><a xlink:href="../../df/de5/namespacemom__continuity__ppm.html#a34b317cf72069f41b2a504e54878d459" target="_top" xlink:title="mom_continuity_ppm\l::ppm_limit_cw84">
<polygon fill="white" stroke="black" points="274,-88.5 274,-118.5 366,-118.5 366,-88.5 274,-88.5"/>
<text text-anchor="start" x="282" y="-106.5" font-family="Helvetica,sans-Serif" font-size="10.00">mom_continuity_ppm</text>
<text text-anchor="middle" x="320" y="-95.5" font-family="Helvetica,sans-Serif" font-size="10.00">::ppm_limit_cw84</text>
</a>
</g>
</g>
<!-- Node44&#45;&gt;Node45 -->
<g id="edge6" class="edge"><title>Node44&#45;&gt;Node45</title>
<path fill="none" stroke="midnightblue" d="M226.298,-137.399C239.544,-132.555 254.369,-127.134 268.213,-122.072"/>
<polygon fill="midnightblue" stroke="midnightblue" points="269.418,-125.357 277.608,-118.636 267.014,-118.783 269.418,-125.357"/>
</g>
<!-- Node46 -->
<g id="node7" class="node"><title>Node46</title>
<g id="a_node7"><a xlink:href="../../df/de5/namespacemom__continuity__ppm.html#a870edb0c5b2cb0464899430b6651260c" target="_top" xlink:title="mom_continuity_ppm\l::ppm_limit_pos">
<polygon fill="white" stroke="black" points="274,-137.5 274,-167.5 366,-167.5 366,-137.5 274,-137.5"/>
<text text-anchor="start" x="282" y="-155.5" font-family="Helvetica,sans-Serif" font-size="10.00">mom_continuity_ppm</text>
<text text-anchor="middle" x="320" y="-144.5" font-family="Helvetica,sans-Serif" font-size="10.00">::ppm_limit_pos</text>
</a>
</g>
</g>
<!-- Node44&#45;&gt;Node46 -->
<g id="edge7" class="edge"><title>Node44&#45;&gt;Node46</title>
<path fill="none" stroke="midnightblue" d="M234.136,-152.5C243.782,-152.5 253.961,-152.5 263.79,-152.5"/>
<polygon fill="midnightblue" stroke="midnightblue" points="263.87,-156 273.87,-152.5 263.87,-149 263.87,-156"/>
</g>
<!-- Node48&#45;&gt;Node42 -->
<g id="edge11" class="edge"><title>Node48&#45;&gt;Node42</title>
<path fill="none" stroke="midnightblue" d="M230.228,-16.1055C267.913,-17.2811 322.848,-20.5564 370,-29.5 379.444,-31.2912 389.341,-33.7957 398.846,-36.533"/>
<polygon fill="midnightblue" stroke="midnightblue" points="397.989,-39.93 408.573,-39.4495 400,-33.2249 397.989,-39.93"/>
</g>
<!-- Node48&#45;&gt;Node43 -->
<g id="edge10" class="edge"><title>Node48&#45;&gt;Node43</title>
<path fill="none" stroke="midnightblue" d="M230.366,-28.7036C239.819,-31.4548 249.916,-34.3934 259.784,-37.2654"/>
<polygon fill="midnightblue" stroke="midnightblue" points="258.964,-40.6719 269.543,-40.1059 260.92,-33.9508 258.964,-40.6719"/>
</g>
</g>
</svg>
