<?xml version="1.0" encoding="UTF-8" standalone="no"?>
<!DOCTYPE svg PUBLIC "-//W3C//DTD SVG 1.1//EN"
 "http://www.w3.org/Graphics/SVG/1.1/DTD/svg11.dtd">
<!-- Generated by graphviz version 2.38.0 (20140413.2041)
 -->
<!-- Title: mom_continuity_ppm::zonal_mass_flux Pages: 1 -->
<svg width="492pt" height="288pt"
 viewBox="0.00 0.00 492.00 288.00" xmlns="http://www.w3.org/2000/svg" xmlns:xlink="http://www.w3.org/1999/xlink">
<g id="graph0" class="graph" transform="scale(1 1) rotate(0) translate(4 284)">
<title>mom_continuity_ppm::zonal_mass_flux</title>
<polygon fill="white" stroke="none" points="-4,4 -4,-284 488,-284 488,4 -4,4"/>
<!-- Node110 -->
<g id="node1" class="node"><title>Node110</title>
<polygon fill="#bfbfbf" stroke="black" points="0,-110.5 0,-140.5 92,-140.5 92,-110.5 0,-110.5"/>
<text text-anchor="start" x="8" y="-128.5" font-family="Helvetica,sans-Serif" font-size="10.00">mom_continuity_ppm</text>
<text text-anchor="middle" x="46" y="-117.5" font-family="Helvetica,sans-Serif" font-size="10.00">::zonal_mass_flux</text>
</g>
<!-- Node111 -->
<g id="node2" class="node"><title>Node111</title>
<g id="a_node2"><a xlink:href="../../df/de5/namespacemom__continuity__ppm.html#a1d9af02b6b6c620e254df2196bc3a469" target="_top" xlink:title="mom_continuity_ppm\l::ppm_reconstruction_x">
<polygon fill="white" stroke="black" points="128,-225.5 128,-255.5 228,-255.5 228,-225.5 128,-225.5"/>
<text text-anchor="start" x="136" y="-243.5" font-family="Helvetica,sans-Serif" font-size="10.00">mom_continuity_ppm</text>
<text text-anchor="middle" x="178" y="-232.5" font-family="Helvetica,sans-Serif" font-size="10.00">::ppm_reconstruction_x</text>
</a>
</g>
</g>
<!-- Node110&#45;&gt;Node111 -->
<g id="edge1" class="edge"><title>Node110&#45;&gt;Node111</title>
<path fill="none" stroke="midnightblue" d="M57.5863,-140.678C71.8036,-160.202 98.6904,-194.244 128,-216.5 129.613,-217.724 131.297,-218.912 133.031,-220.06"/>
<polygon fill="midnightblue" stroke="midnightblue" points="131.628,-223.3 142.001,-225.459 135.238,-217.303 131.628,-223.3"/>
</g>
<!-- Node114 -->
<g id="node5" class="node"><title>Node114</title>
<g id="a_node5"><a xlink:href="../../df/de5/namespacemom__continuity__ppm.html#adf02002cf5951d7610b8643d2d401585" target="_top" xlink:title="mom_continuity_ppm\l::ratio_max">
<polygon fill="white" stroke="black" points="132,-176.5 132,-206.5 224,-206.5 224,-176.5 132,-176.5"/>
<text text-anchor="start" x="140" y="-194.5" font-family="Helvetica,sans-Serif" font-size="10.00">mom_continuity_ppm</text>
<text text-anchor="middle" x="178" y="-183.5" font-family="Helvetica,sans-Serif" font-size="10.00">::ratio_max</text>
</a>
</g>
</g>
<!-- Node110&#45;&gt;Node114 -->
<g id="edge4" class="edge"><title>Node110&#45;&gt;Node114</title>
<path fill="none" stroke="midnightblue" d="M76.8246,-140.642C95.0737,-149.907 118.616,-161.859 138.293,-171.849"/>
<polygon fill="midnightblue" stroke="midnightblue" points="136.813,-175.023 147.314,-176.429 139.982,-168.781 136.813,-175.023"/>
</g>
<!-- Node115 -->
<g id="node6" class="node"><title>Node115</title>
<g id="a_node6"><a xlink:href="../../df/de5/namespacemom__continuity__ppm.html#ab39a68ed435a7581f955bd83bb91bc5f" target="_top" xlink:title="mom_continuity_ppm\l::set_zonal_bt_cont">
<polygon fill="white" stroke="black" points="132,-88.5 132,-118.5 224,-118.5 224,-88.5 132,-88.5"/>
<text text-anchor="start" x="140" y="-106.5" font-family="Helvetica,sans-Serif" font-size="10.00">mom_continuity_ppm</text>
<text text-anchor="middle" x="178" y="-95.5" font-family="Helvetica,sans-Serif" font-size="10.00">::set_zonal_bt_cont</text>
</a>
</g>
</g>
<!-- Node110&#45;&gt;Node115 -->
<g id="edge5" class="edge"><title>Node110&#45;&gt;Node115</title>
<path fill="none" stroke="midnightblue" d="M92.1029,-117.867C101.682,-116.246 111.899,-114.517 121.806,-112.841"/>
<polygon fill="midnightblue" stroke="midnightblue" points="122.701,-116.239 131.977,-111.119 121.533,-109.337 122.701,-116.239"/>
</g>
<!-- Node116 -->
<g id="node7" class="node"><title>Node116</title>
<g id="a_node7"><a xlink:href="../../df/de5/namespacemom__continuity__ppm.html#ab462dd32327fb127335bbad9cce94420" target="_top" xlink:title="mom_continuity_ppm\l::zonal_flux_adjust">
<polygon fill="white" stroke="black" points="264,-129.5 264,-159.5 356,-159.5 356,-129.5 264,-129.5"/>
<text text-anchor="start" x="272" y="-147.5" font-family="Helvetica,sans-Serif" font-size="10.00">mom_continuity_ppm</text>
<text text-anchor="middle" x="310" y="-136.5" font-family="Helvetica,sans-Serif" font-size="10.00">::zonal_flux_adjust</text>
</a>
</g>
</g>
<!-- Node110&#45;&gt;Node116 -->
<g id="edge10" class="edge"><title>Node110&#45;&gt;Node116</title>
<path fill="none" stroke="midnightblue" d="M92.0394,-128.766C136.748,-132.008 205.373,-136.985 253.44,-140.471"/>
<polygon fill="midnightblue" stroke="midnightblue" points="253.445,-143.98 263.672,-141.213 253.951,-136.999 253.445,-143.98"/>
</g>
<!-- Node117 -->
<g id="node8" class="node"><title>Node117</title>
<g id="a_node8"><a xlink:href="../../df/de5/namespacemom__continuity__ppm.html#a090efe4126d31ece50aa6c1e76da7e33" target="_top" xlink:title="mom_continuity_ppm\l::zonal_flux_layer">
<polygon fill="white" stroke="black" points="392,-85.5 392,-115.5 484,-115.5 484,-85.5 392,-85.5"/>
<text text-anchor="start" x="400" y="-103.5" font-family="Helvetica,sans-Serif" font-size="10.00">mom_continuity_ppm</text>
<text text-anchor="middle" x="438" y="-92.5" font-family="Helvetica,sans-Serif" font-size="10.00">::zonal_flux_layer</text>
</a>
</g>
</g>
<!-- Node110&#45;&gt;Node117 -->
<g id="edge11" class="edge"><title>Node110&#45;&gt;Node117</title>
<path fill="none" stroke="midnightblue" d="M66.692,-110.433C82.3532,-99.4507 105.328,-85.4885 128,-79.5 214.548,-56.6392 319.21,-72.3933 381.823,-86.2064"/>
<polygon fill="midnightblue" stroke="midnightblue" points="381.352,-89.6885 391.878,-88.4883 382.901,-82.862 381.352,-89.6885"/>
</g>
<!-- Node118 -->
<g id="node9" class="node"><title>Node118</title>
<g id="a_node9"><a xlink:href="../../df/de5/namespacemom__continuity__ppm.html#af900bc5f2f0a16a71f25ff0573d63bcc" target="_top" xlink:title="mom_continuity_ppm\l::zonal_face_thickness">
<polygon fill="white" stroke="black" points="130,-0.5 130,-30.5 226,-30.5 226,-0.5 130,-0.5"/>
<text text-anchor="start" x="138" y="-18.5" font-family="Helvetica,sans-Serif" font-size="10.00">mom_continuity_ppm</text>
<text text-anchor="middle" x="178" y="-7.5" font-family="Helvetica,sans-Serif" font-size="10.00">::zonal_face_thickness</text>
</a>
</g>
</g>
<!-- Node110&#45;&gt;Node118 -->
<g id="edge9" class="edge"><title>Node110&#45;&gt;Node118</title>
<path fill="none" stroke="midnightblue" d="M60.416,-110.289C75.7779,-93.3599 102.167,-65.7271 128,-45.5 132.116,-42.2774 136.6,-39.1169 141.129,-36.1283"/>
<polygon fill="midnightblue" stroke="midnightblue" points="143.24,-38.934 149.81,-30.6216 139.49,-33.0231 143.24,-38.934"/>
</g>
<!-- Node112 -->
<g id="node3" class="node"><title>Node112</title>
<g id="a_node3"><a xlink:href="../../df/de5/namespacemom__continuity__ppm.html#a34b317cf72069f41b2a504e54878d459" target="_top" xlink:title="mom_continuity_ppm\l::ppm_limit_cw84">
<polygon fill="white" stroke="black" points="264,-249.5 264,-279.5 356,-279.5 356,-249.5 264,-249.5"/>
<text text-anchor="start" x="272" y="-267.5" font-family="Helvetica,sans-Serif" font-size="10.00">mom_continuity_ppm</text>
<text text-anchor="middle" x="310" y="-256.5" font-family="Helvetica,sans-Serif" font-size="10.00">::ppm_limit_cw84</text>
</a>
</g>
</g>
<!-- Node111&#45;&gt;Node112 -->
<g id="edge2" class="edge"><title>Node111&#45;&gt;Node112</title>
<path fill="none" stroke="midnightblue" d="M228.147,-249.573C236.519,-251.119 245.265,-252.734 253.782,-254.306"/>
<polygon fill="midnightblue" stroke="midnightblue" points="253.169,-257.752 263.638,-256.125 254.439,-250.868 253.169,-257.752"/>
</g>
<!-- Node113 -->
<g id="node4" class="node"><title>Node113</title>
<g id="a_node4"><a xlink:href="../../df/de5/namespacemom__continuity__ppm.html#a870edb0c5b2cb0464899430b6651260c" target="_top" xlink:title="mom_continuity_ppm\l::ppm_limit_pos">
<polygon fill="white" stroke="black" points="264,-200.5 264,-230.5 356,-230.5 356,-200.5 264,-200.5"/>
<text text-anchor="start" x="272" y="-218.5" font-family="Helvetica,sans-Serif" font-size="10.00">mom_continuity_ppm</text>
<text text-anchor="middle" x="310" y="-207.5" font-family="Helvetica,sans-Serif" font-size="10.00">::ppm_limit_pos</text>
</a>
</g>
</g>
<!-- Node111&#45;&gt;Node113 -->
<g id="edge3" class="edge"><title>Node111&#45;&gt;Node113</title>
<path fill="none" stroke="midnightblue" d="M228.147,-231.049C236.519,-229.439 245.265,-227.757 253.782,-226.119"/>
<polygon fill="midnightblue" stroke="midnightblue" points="254.479,-229.549 263.638,-224.223 253.157,-222.675 254.479,-229.549"/>
</g>
<!-- Node115&#45;&gt;Node116 -->
<g id="edge6" class="edge"><title>Node115&#45;&gt;Node116</title>
<path fill="none" stroke="midnightblue" d="M224.103,-117.725C233.884,-120.81 244.33,-124.104 254.431,-127.29"/>
<polygon fill="midnightblue" stroke="midnightblue" points="253.387,-130.63 263.977,-130.3 255.493,-123.955 253.387,-130.63"/>
</g>
<!-- Node115&#45;&gt;Node117 -->
<g id="edge8" class="edge"><title>Node115&#45;&gt;Node117</title>
<path fill="none" stroke="midnightblue" d="M224.235,-102.974C268.128,-102.464 334.814,-101.688 381.807,-101.142"/>
<polygon fill="midnightblue" stroke="midnightblue" points="381.858,-104.642 391.817,-101.025 381.776,-97.642 381.858,-104.642"/>
</g>
<!-- Node116&#45;&gt;Node117 -->
<g id="edge7" class="edge"><title>Node116&#45;&gt;Node117</title>
<path fill="none" stroke="midnightblue" d="M354.01,-129.481C363.734,-126.085 374.168,-122.441 384.242,-118.923"/>
<polygon fill="midnightblue" stroke="midnightblue" points="385.469,-122.202 393.756,-115.601 383.162,-115.594 385.469,-122.202"/>
</g>
</g>
</svg>
