<?xml version="1.0" encoding="UTF-8" standalone="no"?>
<!DOCTYPE svg PUBLIC "-//W3C//DTD SVG 1.1//EN"
 "http://www.w3.org/Graphics/SVG/1.1/DTD/svg11.dtd">
<!-- Generated by graphviz version 2.38.0 (20140413.2041)
 -->
<!-- Title: mom_continuity_ppm::meridional_flux_adjust Pages: 1 -->
<svg width="498pt" height="61pt"
 viewBox="0.00 0.00 498.00 61.00" xmlns="http://www.w3.org/2000/svg" xmlns:xlink="http://www.w3.org/1999/xlink">
<g id="graph0" class="graph" transform="scale(1 1) rotate(0) translate(4 57)">
<title>mom_continuity_ppm::meridional_flux_adjust</title>
<polygon fill="white" stroke="none" points="-4,4 -4,-57 494,-57 494,4 -4,4"/>
<!-- Node36 -->
<g id="node1" class="node"><title>Node36</title>
<polygon fill="#bfbfbf" stroke="black" points="0,-22.5 0,-52.5 100,-52.5 100,-22.5 0,-22.5"/>
<text text-anchor="start" x="8" y="-40.5" font-family="Helvetica,sans-Serif" font-size="10.00">mom_continuity_ppm</text>
<text text-anchor="middle" x="50" y="-29.5" font-family="Helvetica,sans-Serif" font-size="10.00">::meridional_flux_adjust</text>
</g>
<!-- Node37 -->
<g id="node2" class="node"><title>Node37</title>
<g id="a_node2"><a xlink:href="../../df/de5/namespacemom__continuity__ppm.html#ae326b8319da257f423f73a32a984b641" target="_top" xlink:title="mom_continuity_ppm\l::meridional_mass_flux">
<polygon fill="white" stroke="black" points="264,-22.5 264,-52.5 362,-52.5 362,-22.5 264,-22.5"/>
<text text-anchor="start" x="272" y="-40.5" font-family="Helvetica,sans-Serif" font-size="10.00">mom_continuity_ppm</text>
<text text-anchor="middle" x="313" y="-29.5" font-family="Helvetica,sans-Serif" font-size="10.00">::meridional_mass_flux</text>
</a>
</g>
</g>
<!-- Node36&#45;&gt;Node37 -->
<g id="edge1" class="edge"><title>Node36&#45;&gt;Node37</title>
<path fill="none" stroke="midnightblue" d="M110.69,-39.8728C119.184,-40.1329 127.813,-40.3556 136,-40.5 176.883,-41.2212 187.118,-41.2298 228,-40.5 239.526,-40.2942 251.938,-39.9298 263.591,-39.5242"/>
<polygon fill="midnightblue" stroke="midnightblue" points="110.542,-36.3662 100.433,-39.5395 110.315,-43.3625 110.542,-36.3662"/>
</g>
<!-- Node39 -->
<g id="node4" class="node"><title>Node39</title>
<g id="a_node4"><a xlink:href="../../df/de5/namespacemom__continuity__ppm.html#a052efa0436beec510a387083885085a5" target="_top" xlink:title="mom_continuity_ppm\l::set_merid_bt_cont">
<polygon fill="white" stroke="black" points="136,-0.5 136,-30.5 228,-30.5 228,-0.5 136,-0.5"/>
<text text-anchor="start" x="144" y="-18.5" font-family="Helvetica,sans-Serif" font-size="10.00">mom_continuity_ppm</text>
<text text-anchor="middle" x="182" y="-7.5" font-family="Helvetica,sans-Serif" font-size="10.00">::set_merid_bt_cont</text>
</a>
</g>
</g>
<!-- Node36&#45;&gt;Node39 -->
<g id="edge3" class="edge"><title>Node36&#45;&gt;Node39</title>
<path fill="none" stroke="midnightblue" d="M110.111,-27.4966C118.683,-26.0459 127.393,-24.5719 135.638,-23.1767"/>
<polygon fill="midnightblue" stroke="midnightblue" points="109.423,-24.0631 100.147,-29.1827 110.591,-30.965 109.423,-24.0631"/>
</g>
<!-- Node38 -->
<g id="node3" class="node"><title>Node38</title>
<g id="a_node3"><a xlink:href="../../df/de5/namespacemom__continuity__ppm.html#a59586aae1668f03f3a78d58f5712cc0f" target="_top" xlink:title="mom_continuity_ppm\l::continuity_ppm">
<polygon fill="white" stroke="black" points="398,-22.5 398,-52.5 490,-52.5 490,-22.5 398,-22.5"/>
<text text-anchor="start" x="406" y="-40.5" font-family="Helvetica,sans-Serif" font-size="10.00">mom_continuity_ppm</text>
<text text-anchor="middle" x="444" y="-29.5" font-family="Helvetica,sans-Serif" font-size="10.00">::continuity_ppm</text>
</a>
</g>
</g>
<!-- Node37&#45;&gt;Node38 -->
<g id="edge2" class="edge"><title>Node37&#45;&gt;Node38</title>
<path fill="none" stroke="midnightblue" d="M372.095,-37.5C380.757,-37.5 389.575,-37.5 397.916,-37.5"/>
<polygon fill="midnightblue" stroke="midnightblue" points="372.035,-34.0001 362.035,-37.5 372.035,-41.0001 372.035,-34.0001"/>
</g>
<!-- Node39&#45;&gt;Node37 -->
<g id="edge4" class="edge"><title>Node39&#45;&gt;Node37</title>
<path fill="none" stroke="midnightblue" d="M237.981,-24.8767C246.504,-26.3301 255.253,-27.8222 263.615,-29.2484"/>
<polygon fill="midnightblue" stroke="midnightblue" points="238.564,-21.4256 228.118,-23.1945 237.387,-28.326 238.564,-21.4256"/>
</g>
</g>
</svg>
