<?xml version="1.0" encoding="UTF-8" standalone="no"?>
<!DOCTYPE svg PUBLIC "-//W3C//DTD SVG 1.1//EN"
 "http://www.w3.org/Graphics/SVG/1.1/DTD/svg11.dtd">
<!-- Generated by graphviz version 2.38.0 (20140413.2041)
 -->
<!-- Title: mom_continuity_ppm::ppm_reconstruction_y Pages: 1 -->
<svg width="236pt" height="88pt"
 viewBox="0.00 0.00 236.00 88.00" xmlns="http://www.w3.org/2000/svg" xmlns:xlink="http://www.w3.org/1999/xlink">
<g id="graph0" class="graph" transform="scale(1 1) rotate(0) translate(4 84)">
<title>mom_continuity_ppm::ppm_reconstruction_y</title>
<polygon fill="white" stroke="none" points="-4,4 -4,-84 232,-84 232,4 -4,4"/>
<!-- Node71 -->
<g id="node1" class="node"><title>Node71</title>
<polygon fill="#bfbfbf" stroke="black" points="0,-24.5 0,-54.5 100,-54.5 100,-24.5 0,-24.5"/>
<text text-anchor="start" x="8" y="-42.5" font-family="Helvetica,sans-Serif" font-size="10.00">mom_continuity_ppm</text>
<text text-anchor="middle" x="50" y="-31.5" font-family="Helvetica,sans-Serif" font-size="10.00">::ppm_reconstruction_y</text>
</g>
<!-- Node72 -->
<g id="node2" class="node"><title>Node72</title>
<g id="a_node2"><a xlink:href="../../df/de5/namespacemom__continuity__ppm.html#a34b317cf72069f41b2a504e54878d459" target="_top" xlink:title="mom_continuity_ppm\l::ppm_limit_cw84">
<polygon fill="white" stroke="black" points="136,-49.5 136,-79.5 228,-79.5 228,-49.5 136,-49.5"/>
<text text-anchor="start" x="144" y="-67.5" font-family="Helvetica,sans-Serif" font-size="10.00">mom_continuity_ppm</text>
<text text-anchor="middle" x="182" y="-56.5" font-family="Helvetica,sans-Serif" font-size="10.00">::ppm_limit_cw84</text>
</a>
</g>
</g>
<!-- Node71&#45;&gt;Node72 -->
<g id="edge1" class="edge"><title>Node71&#45;&gt;Node72</title>
<path fill="none" stroke="midnightblue" d="M100.147,-48.9514C108.519,-50.5614 117.265,-52.2433 125.782,-53.8811"/>
<polygon fill="midnightblue" stroke="midnightblue" points="125.157,-57.325 135.638,-55.7765 126.479,-50.4509 125.157,-57.325"/>
</g>
<!-- Node73 -->
<g id="node3" class="node"><title>Node73</title>
<g id="a_node3"><a xlink:href="../../df/de5/namespacemom__continuity__ppm.html#a870edb0c5b2cb0464899430b6651260c" target="_top" xlink:title="mom_continuity_ppm\l::ppm_limit_pos">
<polygon fill="white" stroke="black" points="136,-0.5 136,-30.5 228,-30.5 228,-0.5 136,-0.5"/>
<text text-anchor="start" x="144" y="-18.5" font-family="Helvetica,sans-Serif" font-size="10.00">mom_continuity_ppm</text>
<text text-anchor="middle" x="182" y="-7.5" font-family="Helvetica,sans-Serif" font-size="10.00">::ppm_limit_pos</text>
</a>
</g>
</g>
<!-- Node71&#45;&gt;Node73 -->
<g id="edge2" class="edge"><title>Node71&#45;&gt;Node73</title>
<path fill="none" stroke="midnightblue" d="M100.147,-30.4266C108.519,-28.881 117.265,-27.2664 125.782,-25.6941"/>
<polygon fill="midnightblue" stroke="midnightblue" points="126.439,-29.1319 135.638,-23.8746 125.169,-22.2483 126.439,-29.1319"/>
</g>
</g>
</svg>
