<?xml version="1.0" encoding="UTF-8" standalone="no"?>
<!DOCTYPE svg PUBLIC "-//W3C//DTD SVG 1.1//EN"
 "http://www.w3.org/Graphics/SVG/1.1/DTD/svg11.dtd">
<!-- Generated by graphviz version 2.38.0 (20140413.2041)
 -->
<!-- Title: mom_variables::ocean_internal_state Pages: 1 -->
<svg width="105pt" height="238pt"
 viewBox="0.00 0.00 105.00 238.00" xmlns="http://www.w3.org/2000/svg" xmlns:xlink="http://www.w3.org/1999/xlink">
<g id="graph0" class="graph" transform="scale(1 1) rotate(0) translate(4 234)">
<title>mom_variables::ocean_internal_state</title>
<polygon fill="white" stroke="none" points="-4,4 -4,-234 101,-234 101,4 -4,4"/>
<!-- Node1 -->
<g id="node1" class="node"><title>Node1</title>
<polygon fill="#bfbfbf" stroke="black" points="-7.10543e-15,-0.5 -7.10543e-15,-30.5 97,-30.5 97,-0.5 -7.10543e-15,-0.5"/>
<text text-anchor="start" x="8" y="-18.5" font-family="Helvetica,sans-Serif" font-size="10.00">mom_variables::ocean</text>
<text text-anchor="middle" x="48.5" y="-7.5" font-family="Helvetica,sans-Serif" font-size="10.00">_internal_state</text>
</g>
<!-- Node2 -->
<g id="node2" class="node"><title>Node2</title>
<polygon fill="white" stroke="#bfbfbf" points="33.5,-210.5 33.5,-229.5 63.5,-229.5 63.5,-210.5 33.5,-210.5"/>
<text text-anchor="middle" x="48.5" y="-217.5" font-family="Helvetica,sans-Serif" font-size="10.00">real</text>
</g>
<!-- Node2&#45;&gt;Node1 -->
<g id="edge1" class="edge"><title>Node2&#45;&gt;Node1</title>
<path fill="none" stroke="#9a32cd" stroke-dasharray="5,2" d="M48.5,-200.287C48.5,-160.16 48.5,-66.581 48.5,-30.7797"/>
<polygon fill="#9a32cd" stroke="#9a32cd" points="45.0001,-200.299 48.5,-210.299 52.0001,-200.299 45.0001,-200.299"/>
<text text-anchor="middle" x="62.5" y="-184" font-family="Helvetica,sans-Serif" font-size="10.00"> cau</text>
<text text-anchor="middle" x="62.5" y="-173" font-family="Helvetica,sans-Serif" font-size="10.00">cav</text>
<text text-anchor="middle" x="62.5" y="-162" font-family="Helvetica,sans-Serif" font-size="10.00">h</text>
<text text-anchor="middle" x="62.5" y="-151" font-family="Helvetica,sans-Serif" font-size="10.00">vh</text>
<text text-anchor="middle" x="62.5" y="-140" font-family="Helvetica,sans-Serif" font-size="10.00">uh</text>
<text text-anchor="middle" x="62.5" y="-129" font-family="Helvetica,sans-Serif" font-size="10.00">pbce</text>
<text text-anchor="start" x="48.5" y="-118" font-family="Helvetica,sans-Serif" font-size="10.00">v_accel</text>
<text text-anchor="middle" x="62.5" y="-107" font-family="Helvetica,sans-Serif" font-size="10.00">_bt</text>
<text text-anchor="middle" x="62.5" y="-96" font-family="Helvetica,sans-Serif" font-size="10.00">pfu</text>
<text text-anchor="start" x="48.5" y="-85" font-family="Helvetica,sans-Serif" font-size="10.00">u_accel</text>
<text text-anchor="middle" x="62.5" y="-74" font-family="Helvetica,sans-Serif" font-size="10.00">_bt</text>
<text text-anchor="middle" x="62.5" y="-63" font-family="Helvetica,sans-Serif" font-size="10.00">pfv</text>
<text text-anchor="middle" x="62.5" y="-52" font-family="Helvetica,sans-Serif" font-size="10.00">...</text>
</g>
</g>
</svg>
