<?xml version="1.0" encoding="UTF-8" standalone="no"?>
<!DOCTYPE svg PUBLIC "-//W3C//DTD SVG 1.1//EN"
 "http://www.w3.org/Graphics/SVG/1.1/DTD/svg11.dtd">
<!-- Generated by graphviz version 2.38.0 (20140413.2041)
 -->
<!-- Title: mom_int_tide_input::int_tide_input_cs Pages: 1 -->
<svg width="357pt" height="128pt"
 viewBox="0.00 0.00 357.00 128.00" xmlns="http://www.w3.org/2000/svg" xmlns:xlink="http://www.w3.org/1999/xlink">
<g id="graph0" class="graph" transform="scale(1 1) rotate(0) translate(4 124)">
<title>mom_int_tide_input::int_tide_input_cs</title>
<polygon fill="white" stroke="none" points="-4,4 -4,-124 353,-124 353,4 -4,4"/>
<!-- Node1 -->
<g id="node1" class="node"><title>Node1</title>
<polygon fill="#bfbfbf" stroke="black" points="140,-0.5 140,-30.5 226,-30.5 226,-0.5 140,-0.5"/>
<text text-anchor="start" x="148" y="-18.5" font-family="Helvetica,sans-Serif" font-size="10.00">mom_int_tide_input</text>
<text text-anchor="middle" x="183" y="-7.5" font-family="Helvetica,sans-Serif" font-size="10.00">::int_tide_input_cs</text>
</g>
<!-- Node2 -->
<g id="node2" class="node"><title>Node2</title>
<polygon fill="white" stroke="#bfbfbf" points="0,-100.5 0,-119.5 38,-119.5 38,-100.5 0,-100.5"/>
<text text-anchor="middle" x="19" y="-107.5" font-family="Helvetica,sans-Serif" font-size="10.00">logical</text>
</g>
<!-- Node2&#45;&gt;Node1 -->
<g id="edge1" class="edge"><title>Node2&#45;&gt;Node1</title>
<path fill="none" stroke="#9a32cd" stroke-dasharray="5,2" d="M35.3092,-93.0551C49.5672,-79.815 71.3279,-61.2342 93,-49 107.467,-40.8334 124.364,-34.0878 139.586,-28.8993"/>
<polygon fill="#9a32cd" stroke="#9a32cd" points="32.6826,-90.7225 27.8387,-100.145 37.5014,-95.7999 32.6826,-90.7225"/>
<text text-anchor="middle" x="105.5" y="-63" font-family="Helvetica,sans-Serif" font-size="10.00"> debug</text>
</g>
<!-- Node3 -->
<g id="node3" class="node"><title>Node3</title>
<polygon fill="white" stroke="#bfbfbf" points="56.5,-100.5 56.5,-119.5 141.5,-119.5 141.5,-100.5 56.5,-100.5"/>
<text text-anchor="middle" x="99" y="-107.5" font-family="Helvetica,sans-Serif" font-size="10.00">character(len=200)</text>
</g>
<!-- Node3&#45;&gt;Node1 -->
<g id="edge2" class="edge"><title>Node3&#45;&gt;Node1</title>
<path fill="none" stroke="#9a32cd" stroke-dasharray="5,2" d="M112.551,-92.2653C122.614,-80.0368 136.82,-63.1832 150,-49 155.693,-42.874 162.206,-36.3616 167.935,-30.7878"/>
<polygon fill="#9a32cd" stroke="#9a32cd" points="109.646,-90.2891 106.03,-100.248 115.067,-94.7177 109.646,-90.2891"/>
<text text-anchor="middle" x="164.5" y="-63" font-family="Helvetica,sans-Serif" font-size="10.00"> inputdir</text>
</g>
<!-- Node4 -->
<g id="node4" class="node"><title>Node4</title>
<polygon fill="white" stroke="#bfbfbf" points="159.5,-100.5 159.5,-119.5 206.5,-119.5 206.5,-100.5 159.5,-100.5"/>
<text text-anchor="middle" x="183" y="-107.5" font-family="Helvetica,sans-Serif" font-size="10.00">diag_ctrl</text>
</g>
<!-- Node4&#45;&gt;Node1 -->
<g id="edge3" class="edge"><title>Node4&#45;&gt;Node1</title>
<path fill="none" stroke="#9a32cd" stroke-dasharray="5,2" d="M183,-90.2869C183,-72.6698 183,-46.6699 183,-30.6999"/>
<polygon fill="#9a32cd" stroke="#9a32cd" points="179.5,-90.4636 183,-100.464 186.5,-90.4637 179.5,-90.4636"/>
<text text-anchor="middle" x="192" y="-63" font-family="Helvetica,sans-Serif" font-size="10.00"> diag</text>
</g>
<!-- Node5 -->
<g id="node5" class="node"><title>Node5</title>
<polygon fill="white" stroke="#bfbfbf" points="224.5,-100.5 224.5,-119.5 265.5,-119.5 265.5,-100.5 224.5,-100.5"/>
<text text-anchor="middle" x="245" y="-107.5" font-family="Helvetica,sans-Serif" font-size="10.00">integer</text>
</g>
<!-- Node5&#45;&gt;Node1 -->
<g id="edge4" class="edge"><title>Node5&#45;&gt;Node1</title>
<path fill="none" stroke="#9a32cd" stroke-dasharray="5,2" d="M233.631,-91.8769C225.643,-79.8629 214.695,-63.432 205,-49 200.973,-43.0048 196.508,-36.4024 192.66,-30.7234"/>
<polygon fill="#9a32cd" stroke="#9a32cd" points="230.873,-94.0504 239.322,-100.442 236.703,-90.1764 230.873,-94.0504"/>
<text text-anchor="middle" x="248" y="-74" font-family="Helvetica,sans-Serif" font-size="10.00"> id_nb</text>
<text text-anchor="middle" x="248" y="-63" font-family="Helvetica,sans-Serif" font-size="10.00">id_tke_itidal</text>
<text text-anchor="middle" x="248" y="-52" font-family="Helvetica,sans-Serif" font-size="10.00">id_n2_bot</text>
</g>
<!-- Node6 -->
<g id="node6" class="node"><title>Node6</title>
<polygon fill="white" stroke="#bfbfbf" points="289,-100.5 289,-119.5 319,-119.5 319,-100.5 289,-100.5"/>
<text text-anchor="middle" x="304" y="-107.5" font-family="Helvetica,sans-Serif" font-size="10.00">real</text>
</g>
<!-- Node6&#45;&gt;Node1 -->
<g id="edge5" class="edge"><title>Node6&#45;&gt;Node1</title>
<path fill="none" stroke="#9a32cd" stroke-dasharray="5,2" d="M298.497,-90.4872C293.705,-77.2863 285.531,-59.9956 273,-49 259.889,-37.4953 242.392,-29.9607 226.313,-25.0748"/>
<polygon fill="#9a32cd" stroke="#9a32cd" points="295.302,-91.9772 301.747,-100.386 301.953,-89.7933 295.302,-91.9772"/>
<text text-anchor="middle" x="322.5" y="-68.5" font-family="Helvetica,sans-Serif" font-size="10.00"> tke_itidal_coef</text>
<text text-anchor="middle" x="322.5" y="-57.5" font-family="Helvetica,sans-Serif" font-size="10.00">tke_itide_max</text>
</g>
</g>
</svg>
