<?xml version="1.0" encoding="UTF-8" standalone="no"?>
<!DOCTYPE svg PUBLIC "-//W3C//DTD SVG 1.1//EN"
 "http://www.w3.org/Graphics/SVG/1.1/DTD/svg11.dtd">
<!-- Generated by graphviz version 2.38.0 (20140413.2041)
 -->
<!-- Title: mom_wave_speed::wave_speed Pages: 1 -->
<svg width="469pt" height="99pt"
 viewBox="0.00 0.00 469.00 98.50" xmlns="http://www.w3.org/2000/svg" xmlns:xlink="http://www.w3.org/1999/xlink">
<g id="graph0" class="graph" transform="scale(1 1) rotate(0) translate(4 94.5)">
<title>mom_wave_speed::wave_speed</title>
<polygon fill="white" stroke="none" points="-4,4 -4,-94.5 465,-94.5 465,4 -4,4"/>
<!-- Node13 -->
<g id="node1" class="node"><title>Node13</title>
<polygon fill="#bfbfbf" stroke="black" points="0,-27.5 0,-57.5 107,-57.5 107,-27.5 0,-27.5"/>
<text text-anchor="start" x="8" y="-45.5" font-family="Helvetica,sans-Serif" font-size="10.00">mom_wave_speed::wave</text>
<text text-anchor="middle" x="53.5" y="-34.5" font-family="Helvetica,sans-Serif" font-size="10.00">_speed</text>
</g>
<!-- Node14 -->
<g id="node2" class="node"><title>Node14</title>
<g id="a_node2"><a xlink:href="../../d0/d86/namespacemom__lateral__mixing__coeffs.html#af206bc656869b4fc27d4d7e8a15d438e" target="_top" xlink:title="mom_lateral_mixing\l_coeffs::calc_resoln\l_function">
<polygon fill="white" stroke="black" points="155.5,-49 155.5,-90 243.5,-90 243.5,-49 155.5,-49"/>
<text text-anchor="start" x="163.5" y="-78" font-family="Helvetica,sans-Serif" font-size="10.00">mom_lateral_mixing</text>
<text text-anchor="start" x="163.5" y="-67" font-family="Helvetica,sans-Serif" font-size="10.00">_coeffs::calc_resoln</text>
<text text-anchor="middle" x="199.5" y="-56" font-family="Helvetica,sans-Serif" font-size="10.00">_function</text>
</a>
</g>
</g>
<!-- Node13&#45;&gt;Node14 -->
<g id="edge1" class="edge"><title>Node13&#45;&gt;Node14</title>
<path fill="none" stroke="midnightblue" d="M117.403,-54.2944C130.14,-56.6825 143.263,-59.1431 155.143,-61.3705"/>
<polygon fill="midnightblue" stroke="midnightblue" points="117.776,-50.8034 107.303,-52.4005 116.486,-57.6835 117.776,-50.8034"/>
</g>
<!-- Node17 -->
<g id="node5" class="node"><title>Node17</title>
<g id="a_node5"><a xlink:href="../../d9/d8b/namespacemom__diagnostics.html#abb6644248c28ab2e952361bfec436063" target="_top" xlink:title="mom_diagnostics::calculate\l_diagnostic_fields">
<polygon fill="white" stroke="black" points="143,-0.5 143,-30.5 256,-30.5 256,-0.5 143,-0.5"/>
<text text-anchor="start" x="151" y="-18.5" font-family="Helvetica,sans-Serif" font-size="10.00">mom_diagnostics::calculate</text>
<text text-anchor="middle" x="199.5" y="-7.5" font-family="Helvetica,sans-Serif" font-size="10.00">_diagnostic_fields</text>
</a>
</g>
</g>
<!-- Node13&#45;&gt;Node17 -->
<g id="edge4" class="edge"><title>Node13&#45;&gt;Node17</title>
<path fill="none" stroke="midnightblue" d="M117.195,-30.7447C125.716,-29.147 134.414,-27.5162 142.8,-25.9437"/>
<polygon fill="midnightblue" stroke="midnightblue" points="116.486,-27.3165 107.303,-32.5995 117.776,-34.1966 116.486,-27.3165"/>
</g>
<!-- Node15 -->
<g id="node3" class="node"><title>Node15</title>
<g id="a_node3"><a xlink:href="../../da/d01/namespacemom.html#a4c8332b095c6d295084089aa6b3b678a" target="_top" xlink:title="This subroutine orchestrates the time stepping of MOM. The adiabatic dynamics are stepped by calls to...">
<polygon fill="white" stroke="black" points="292,-60 292,-79 369,-79 369,-60 292,-60"/>
<text text-anchor="middle" x="330.5" y="-67" font-family="Helvetica,sans-Serif" font-size="10.00">mom::step_mom</text>
</a>
</g>
</g>
<!-- Node14&#45;&gt;Node15 -->
<g id="edge2" class="edge"><title>Node14&#45;&gt;Node15</title>
<path fill="none" stroke="midnightblue" d="M253.84,-69.5C266.55,-69.5 279.856,-69.5 291.703,-69.5"/>
<polygon fill="midnightblue" stroke="midnightblue" points="253.814,-66.0001 243.814,-69.5 253.814,-73.0001 253.814,-66.0001"/>
</g>
<!-- Node16 -->
<g id="node4" class="node"><title>Node16</title>
<g id="a_node4"><a xlink:href="../../de/dbc/MOM__driver_8F90.html#a08fffeb2d8e8acbf9ed4609be6d258c6" target="_top" xlink:title="mom_main">
<polygon fill="white" stroke="black" points="405,-60 405,-79 461,-79 461,-60 405,-60"/>
<text text-anchor="middle" x="433" y="-67" font-family="Helvetica,sans-Serif" font-size="10.00">mom_main</text>
</a>
</g>
</g>
<!-- Node15&#45;&gt;Node16 -->
<g id="edge3" class="edge"><title>Node15&#45;&gt;Node16</title>
<path fill="none" stroke="midnightblue" d="M379.342,-69.5C388.067,-69.5 396.888,-69.5 404.751,-69.5"/>
<polygon fill="midnightblue" stroke="midnightblue" points="379.208,-66.0001 369.208,-69.5 379.208,-73.0001 379.208,-66.0001"/>
</g>
</g>
</svg>
