<?xml version="1.0" encoding="UTF-8" standalone="no"?>
<!DOCTYPE svg PUBLIC "-//W3C//DTD SVG 1.1//EN"
 "http://www.w3.org/Graphics/SVG/1.1/DTD/svg11.dtd">
<!-- Generated by graphviz version 2.38.0 (20140413.2041)
 -->
<!-- Title: mom_controlled_forcing::ctrl_forcing_cs Pages: 1 -->
<svg width="278pt" height="216pt"
 viewBox="0.00 0.00 278.00 216.00" xmlns="http://www.w3.org/2000/svg" xmlns:xlink="http://www.w3.org/1999/xlink">
<g id="graph0" class="graph" transform="scale(1 1) rotate(0) translate(4 212)">
<title>mom_controlled_forcing::ctrl_forcing_cs</title>
<polygon fill="white" stroke="none" points="-4,4 -4,-212 274,-212 274,4 -4,4"/>
<!-- Node1 -->
<g id="node1" class="node"><title>Node1</title>
<polygon fill="#bfbfbf" stroke="black" points="77,-0.5 77,-30.5 179,-30.5 179,-0.5 77,-0.5"/>
<text text-anchor="start" x="85" y="-18.5" font-family="Helvetica,sans-Serif" font-size="10.00">mom_controlled_forcing</text>
<text text-anchor="middle" x="128" y="-7.5" font-family="Helvetica,sans-Serif" font-size="10.00">::ctrl_forcing_cs</text>
</g>
<!-- Node2 -->
<g id="node2" class="node"><title>Node2</title>
<polygon fill="white" stroke="#bfbfbf" points="0,-188.5 0,-207.5 38,-207.5 38,-188.5 0,-188.5"/>
<text text-anchor="middle" x="19" y="-195.5" font-family="Helvetica,sans-Serif" font-size="10.00">logical</text>
</g>
<!-- Node2&#45;&gt;Node1 -->
<g id="edge1" class="edge"><title>Node2&#45;&gt;Node1</title>
<path fill="none" stroke="#9a32cd" stroke-dasharray="5,2" d="M15.0072,-177.969C9.73926,-147.285 4.29858,-86.5312 34,-49 44.5012,-35.7305 60.7377,-27.8578 76.7794,-23.1945"/>
<polygon fill="#9a32cd" stroke="#9a32cd" points="11.636,-178.977 16.944,-188.146 18.5126,-177.668 11.636,-178.977"/>
<text text-anchor="middle" x="65" y="-112.5" font-family="Helvetica,sans-Serif" font-size="10.00"> do_integrated</text>
<text text-anchor="middle" x="65" y="-101.5" font-family="Helvetica,sans-Serif" font-size="10.00">use_temperature</text>
</g>
<!-- Node3 -->
<g id="node3" class="node"><title>Node3</title>
<polygon fill="white" stroke="#bfbfbf" points="76.5,-188.5 76.5,-207.5 123.5,-207.5 123.5,-188.5 76.5,-188.5"/>
<text text-anchor="middle" x="100" y="-195.5" font-family="Helvetica,sans-Serif" font-size="10.00">diag_ctrl</text>
</g>
<!-- Node3&#45;&gt;Node1 -->
<g id="edge2" class="edge"><title>Node3&#45;&gt;Node1</title>
<path fill="none" stroke="#9a32cd" stroke-dasharray="5,2" d="M99.6053,-178.391C99.4532,-149.991 100.936,-94.3495 113,-49 114.662,-42.7543 117.449,-36.2195 120.173,-30.6612"/>
<polygon fill="#9a32cd" stroke="#9a32cd" points="96.1067,-178.527 99.7378,-188.48 103.106,-178.435 96.1067,-178.527"/>
<text text-anchor="middle" x="122" y="-107" font-family="Helvetica,sans-Serif" font-size="10.00"> diag</text>
</g>
<!-- Node4 -->
<g id="node4" class="node"><title>Node4</title>
<polygon fill="white" stroke="#bfbfbf" points="142,-188.5 142,-207.5 172,-207.5 172,-188.5 142,-188.5"/>
<text text-anchor="middle" x="157" y="-195.5" font-family="Helvetica,sans-Serif" font-size="10.00">real</text>
</g>
<!-- Node4&#45;&gt;Node1 -->
<g id="edge3" class="edge"><title>Node4&#45;&gt;Node1</title>
<path fill="none" stroke="#9a32cd" stroke-dasharray="5,2" d="M153.962,-178.09C148.115,-141.701 135.422,-62.6941 130.256,-30.5391"/>
<polygon fill="#9a32cd" stroke="#9a32cd" points="150.559,-178.976 155.601,-188.294 157.471,-177.865 150.559,-178.976"/>
<text text-anchor="middle" x="179" y="-162" font-family="Helvetica,sans-Serif" font-size="10.00"> len2</text>
<text text-anchor="middle" x="179" y="-151" font-family="Helvetica,sans-Serif" font-size="10.00">lam_heat</text>
<text text-anchor="middle" x="179" y="-140" font-family="Helvetica,sans-Serif" font-size="10.00">heat_0</text>
<text text-anchor="middle" x="179" y="-129" font-family="Helvetica,sans-Serif" font-size="10.00">avg_sss</text>
<text text-anchor="middle" x="179" y="-118" font-family="Helvetica,sans-Serif" font-size="10.00">heat_cyc_rate</text>
<text text-anchor="middle" x="179" y="-107" font-family="Helvetica,sans-Serif" font-size="10.00">heat_int_rate</text>
<text text-anchor="middle" x="179" y="-96" font-family="Helvetica,sans-Serif" font-size="10.00">heat_cyc</text>
<text text-anchor="middle" x="179" y="-85" font-family="Helvetica,sans-Serif" font-size="10.00">precip_0</text>
<text text-anchor="middle" x="179" y="-74" font-family="Helvetica,sans-Serif" font-size="10.00">lam_cyc_prec</text>
<text text-anchor="middle" x="179" y="-63" font-family="Helvetica,sans-Serif" font-size="10.00">avg_sst_anom</text>
<text text-anchor="middle" x="179" y="-52" font-family="Helvetica,sans-Serif" font-size="10.00">...</text>
</g>
<!-- Node5 -->
<g id="node5" class="node"><title>Node5</title>
<polygon fill="white" stroke="#bfbfbf" points="207.5,-188.5 207.5,-207.5 248.5,-207.5 248.5,-188.5 207.5,-188.5"/>
<text text-anchor="middle" x="228" y="-195.5" font-family="Helvetica,sans-Serif" font-size="10.00">integer</text>
</g>
<!-- Node5&#45;&gt;Node1 -->
<g id="edge4" class="edge"><title>Node5&#45;&gt;Node1</title>
<path fill="none" stroke="#9a32cd" stroke-dasharray="5,2" d="M230.66,-178.071C233.864,-147.531 235.584,-86.9784 206,-49 199.148,-40.2044 189.49,-33.7668 179.296,-29.0623"/>
<polygon fill="#9a32cd" stroke="#9a32cd" points="227.162,-177.846 229.421,-188.197 234.11,-178.696 227.162,-177.846"/>
<text text-anchor="middle" x="251" y="-112.5" font-family="Helvetica,sans-Serif" font-size="10.00"> id_heat_0</text>
<text text-anchor="middle" x="251" y="-101.5" font-family="Helvetica,sans-Serif" font-size="10.00">num_cycle</text>
</g>
</g>
</svg>
