<?xml version="1.0" encoding="UTF-8" standalone="no"?>
<!DOCTYPE svg PUBLIC "-//W3C//DTD SVG 1.1//EN"
 "http://www.w3.org/Graphics/SVG/1.1/DTD/svg11.dtd">
<!-- Generated by graphviz version 2.38.0 (20140413.2041)
 -->
<!-- Title: mom_isopycnal_slopes::calc_isoneutral_slopes Pages: 1 -->
<svg width="525pt" height="186pt"
 viewBox="0.00 0.00 525.00 186.00" xmlns="http://www.w3.org/2000/svg" xmlns:xlink="http://www.w3.org/1999/xlink">
<g id="graph0" class="graph" transform="scale(1 1) rotate(0) translate(4 182)">
<title>mom_isopycnal_slopes::calc_isoneutral_slopes</title>
<polygon fill="white" stroke="none" points="-4,4 -4,-182 521,-182 521,4 -4,4"/>
<!-- Node0 -->
<g id="node1" class="node"><title>Node0</title>
<polygon fill="#bfbfbf" stroke="black" points="0,-48.5 0,-78.5 101,-78.5 101,-48.5 0,-48.5"/>
<text text-anchor="start" x="8" y="-66.5" font-family="Helvetica,sans-Serif" font-size="10.00">mom_isopycnal_slopes</text>
<text text-anchor="middle" x="50.5" y="-55.5" font-family="Helvetica,sans-Serif" font-size="10.00">::calc_isoneutral_slopes</text>
</g>
<!-- Node1 -->
<g id="node2" class="node"><title>Node1</title>
<g id="a_node2"><a xlink:href="../../d1/d01/namespacemom__eos.html#a204529f8434a0322314e6ce2a9762436" target="_top" xlink:title="Calls the appropriate subroutine to calculate density derivatives for 1&#45;D array inputs. ">
<polygon fill="white" stroke="black" points="142.5,-73.5 142.5,-103.5 229.5,-103.5 229.5,-73.5 142.5,-73.5"/>
<text text-anchor="start" x="150.5" y="-91.5" font-family="Helvetica,sans-Serif" font-size="10.00">mom_eos::calculate</text>
<text text-anchor="middle" x="186" y="-80.5" font-family="Helvetica,sans-Serif" font-size="10.00">_density_derivs</text>
</a>
</g>
</g>
<!-- Node0&#45;&gt;Node1 -->
<g id="edge1" class="edge"><title>Node0&#45;&gt;Node1</title>
<path fill="none" stroke="midnightblue" d="M101.21,-72.8091C111.33,-74.704 122.009,-76.7039 132.23,-78.6179"/>
<polygon fill="midnightblue" stroke="midnightblue" points="131.787,-82.0958 142.261,-80.4964 133.076,-75.2154 131.787,-82.0958"/>
</g>
<!-- Node7 -->
<g id="node8" class="node"><title>Node7</title>
<g id="a_node8"><a xlink:href="../../d6/d4c/namespacemom__isopycnal__slopes.html#a4a5a4ea71140c8e115264614305840c9" target="_top" xlink:title="mom_isopycnal_slopes\l::vert_fill_ts">
<polygon fill="white" stroke="black" points="137,-24.5 137,-54.5 235,-54.5 235,-24.5 137,-24.5"/>
<text text-anchor="start" x="145" y="-42.5" font-family="Helvetica,sans-Serif" font-size="10.00">mom_isopycnal_slopes</text>
<text text-anchor="middle" x="186" y="-31.5" font-family="Helvetica,sans-Serif" font-size="10.00">::vert_fill_ts</text>
</a>
</g>
</g>
<!-- Node0&#45;&gt;Node7 -->
<g id="edge7" class="edge"><title>Node0&#45;&gt;Node7</title>
<path fill="none" stroke="midnightblue" d="M101.21,-54.5633C109.523,-53.069 118.213,-51.5067 126.716,-49.978"/>
<polygon fill="midnightblue" stroke="midnightblue" points="127.356,-53.4191 136.579,-48.2048 126.118,-46.5295 127.356,-53.4191"/>
</g>
<!-- Node2 -->
<g id="node3" class="node"><title>Node2</title>
<g id="a_node3"><a xlink:href="../../d5/de6/namespacemom__eos__linear.html#a73d8a625582247379092adf1aeeb55e0" target="_top" xlink:title="mom_eos_linear::calculate\l_density_derivs_linear">
<polygon fill="white" stroke="black" points="274,-147.5 274,-177.5 385,-177.5 385,-147.5 274,-147.5"/>
<text text-anchor="start" x="282" y="-165.5" font-family="Helvetica,sans-Serif" font-size="10.00">mom_eos_linear::calculate</text>
<text text-anchor="middle" x="329.5" y="-154.5" font-family="Helvetica,sans-Serif" font-size="10.00">_density_derivs_linear</text>
</a>
</g>
</g>
<!-- Node1&#45;&gt;Node2 -->
<g id="edge2" class="edge"><title>Node1&#45;&gt;Node2</title>
<path fill="none" stroke="midnightblue" d="M210.394,-103.641C226.973,-114.068 249.927,-127.897 271,-138.5 274.139,-140.079 277.407,-141.644 280.721,-143.173"/>
<polygon fill="midnightblue" stroke="midnightblue" points="279.555,-146.486 290.113,-147.368 282.41,-140.094 279.555,-146.486"/>
</g>
<!-- Node3 -->
<g id="node4" class="node"><title>Node3</title>
<g id="a_node4"><a xlink:href="../../dd/d6b/namespacemom__eos__unesco.html#af8666837abadea54c016bf59838f96cc" target="_top" xlink:title="mom_eos_unesco::calculate\l_density_derivs_unesco">
<polygon fill="white" stroke="black" points="271,-98.5 271,-128.5 388,-128.5 388,-98.5 271,-98.5"/>
<text text-anchor="start" x="279" y="-116.5" font-family="Helvetica,sans-Serif" font-size="10.00">mom_eos_unesco::calculate</text>
<text text-anchor="middle" x="329.5" y="-105.5" font-family="Helvetica,sans-Serif" font-size="10.00">_density_derivs_unesco</text>
</a>
</g>
</g>
<!-- Node1&#45;&gt;Node3 -->
<g id="edge3" class="edge"><title>Node1&#45;&gt;Node3</title>
<path fill="none" stroke="midnightblue" d="M229.839,-96.0687C239.64,-97.8003 250.292,-99.6823 260.852,-101.548"/>
<polygon fill="midnightblue" stroke="midnightblue" points="260.461,-105.033 270.917,-103.326 261.679,-98.1398 260.461,-105.033"/>
</g>
<!-- Node4 -->
<g id="node5" class="node"><title>Node4</title>
<g id="a_node5"><a xlink:href="../../de/d76/namespacemom__eos__wright.html#ad7748e85ddacb33ad90ec3a9017e6e72" target="_top" xlink:title="mom_eos_wright::calculate\l_density_derivs_wright">
<polygon fill="white" stroke="black" points="273,-49.5 273,-79.5 386,-79.5 386,-49.5 273,-49.5"/>
<text text-anchor="start" x="281" y="-67.5" font-family="Helvetica,sans-Serif" font-size="10.00">mom_eos_wright::calculate</text>
<text text-anchor="middle" x="329.5" y="-56.5" font-family="Helvetica,sans-Serif" font-size="10.00">_density_derivs_wright</text>
</a>
</g>
</g>
<!-- Node1&#45;&gt;Node4 -->
<g id="edge4" class="edge"><title>Node1&#45;&gt;Node4</title>
<path fill="none" stroke="midnightblue" d="M229.839,-81.2341C240.239,-79.4701 251.598,-77.5435 262.787,-75.6456"/>
<polygon fill="midnightblue" stroke="midnightblue" points="263.71,-79.0392 272.984,-73.9161 262.539,-72.1377 263.71,-79.0392"/>
</g>
<!-- Node5 -->
<g id="node6" class="node"><title>Node5</title>
<g id="a_node6"><a xlink:href="../../d0/de6/namespacemom__error__handler.html#a460cfb79a06c29fc249952c2a3710d67" target="_top" xlink:title="mom_error_handler::\lmom_error">
<polygon fill="white" stroke="black" points="283,-0.5 283,-30.5 376,-30.5 376,-0.5 283,-0.5"/>
<text text-anchor="start" x="291" y="-18.5" font-family="Helvetica,sans-Serif" font-size="10.00">mom_error_handler::</text>
<text text-anchor="middle" x="329.5" y="-7.5" font-family="Helvetica,sans-Serif" font-size="10.00">mom_error</text>
</a>
</g>
</g>
<!-- Node1&#45;&gt;Node5 -->
<g id="edge5" class="edge"><title>Node1&#45;&gt;Node5</title>
<path fill="none" stroke="midnightblue" d="M218.541,-73.4322C224.09,-70.583 229.762,-67.5397 235,-64.5 251.632,-54.8481 254.116,-49.7034 271,-40.5 274.502,-38.5911 278.179,-36.7165 281.91,-34.9055"/>
<polygon fill="midnightblue" stroke="midnightblue" points="283.648,-37.9567 291.225,-30.5514 280.684,-31.6153 283.648,-37.9567"/>
</g>
<!-- Node6 -->
<g id="node7" class="node"><title>Node6</title>
<g id="a_node7"><a xlink:href="../../d0/de6/namespacemom__error__handler.html#ad5f00a53059c72fe2332d1436c80ca71" target="_top" xlink:title="mom_error_handler::\lis_root_pe">
<polygon fill="white" stroke="black" points="424,-0.5 424,-30.5 517,-30.5 517,-0.5 424,-0.5"/>
<text text-anchor="start" x="432" y="-18.5" font-family="Helvetica,sans-Serif" font-size="10.00">mom_error_handler::</text>
<text text-anchor="middle" x="470.5" y="-7.5" font-family="Helvetica,sans-Serif" font-size="10.00">is_root_pe</text>
</a>
</g>
</g>
<!-- Node5&#45;&gt;Node6 -->
<g id="edge6" class="edge"><title>Node5&#45;&gt;Node6</title>
<path fill="none" stroke="midnightblue" d="M376.014,-15.5C388.014,-15.5 401.102,-15.5 413.581,-15.5"/>
<polygon fill="midnightblue" stroke="midnightblue" points="413.884,-19.0001 423.884,-15.5 413.884,-12.0001 413.884,-19.0001"/>
</g>
</g>
</svg>
