<?xml version="1.0" encoding="UTF-8" standalone="no"?>
<!DOCTYPE svg PUBLIC "-//W3C//DTD SVG 1.1//EN"
 "http://www.w3.org/Graphics/SVG/1.1/DTD/svg11.dtd">
<!-- Generated by graphviz version 2.38.0 (20140413.2041)
 -->
<!-- Title: mom_ocmip2_cfc::ocmip2_cfc_cs Pages: 1 -->
<svg width="390pt" height="638pt"
 viewBox="0.00 0.00 390.00 638.00" xmlns="http://www.w3.org/2000/svg" xmlns:xlink="http://www.w3.org/1999/xlink">
<g id="graph0" class="graph" transform="scale(1 1) rotate(0) translate(4 634)">
<title>mom_ocmip2_cfc::ocmip2_cfc_cs</title>
<polygon fill="white" stroke="none" points="-4,4 -4,-634 386,-634 386,4 -4,4"/>
<!-- Node1 -->
<g id="node1" class="node"><title>Node1</title>
<polygon fill="#bfbfbf" stroke="black" points="273,-286 273,-316 382,-316 382,-286 273,-286"/>
<text text-anchor="start" x="281" y="-304" font-family="Helvetica,sans-Serif" font-size="10.00">mom_ocmip2_cfc::ocmip2</text>
<text text-anchor="middle" x="327.5" y="-293" font-family="Helvetica,sans-Serif" font-size="10.00">_cfc_cs</text>
</g>
<!-- Node2 -->
<g id="node2" class="node"><title>Node2</title>
<polygon fill="white" stroke="#bfbfbf" points="81.5,-595.5 81.5,-614.5 161.5,-614.5 161.5,-595.5 81.5,-595.5"/>
<text text-anchor="middle" x="121.5" y="-602.5" font-family="Helvetica,sans-Serif" font-size="10.00">character(len=16)</text>
</g>
<!-- Node2&#45;&gt;Node1 -->
<g id="edge1" class="edge"><title>Node2&#45;&gt;Node1</title>
<path fill="none" stroke="#9a32cd" stroke-dasharray="5,2" d="M171.9,-609.158C199.607,-608.752 232.931,-603.294 255,-583 295.339,-545.907 318.665,-369.075 324.836,-316.058"/>
<polygon fill="#9a32cd" stroke="#9a32cd" points="171.616,-605.656 161.592,-609.087 171.567,-612.656 171.616,-605.656"/>
<text text-anchor="middle" x="221.5" y="-622" font-family="Helvetica,sans-Serif" font-size="10.00"> cfc11_name</text>
<text text-anchor="middle" x="221.5" y="-611" font-family="Helvetica,sans-Serif" font-size="10.00">cfc12_name</text>
</g>
<!-- Node3 -->
<g id="node3" class="node"><title>Node3</title>
<polygon fill="white" stroke="#bfbfbf" points="102.5,-541.5 102.5,-560.5 140.5,-560.5 140.5,-541.5 102.5,-541.5"/>
<text text-anchor="middle" x="121.5" y="-548.5" font-family="Helvetica,sans-Serif" font-size="10.00">logical</text>
</g>
<!-- Node3&#45;&gt;Node1 -->
<g id="edge2" class="edge"><title>Node3&#45;&gt;Node1</title>
<path fill="none" stroke="#9a32cd" stroke-dasharray="5,2" d="M151.061,-551.258C180.735,-549.978 226.709,-543.417 255,-517 314.475,-461.465 324.53,-355.442 326.189,-316.145"/>
<polygon fill="#9a32cd" stroke="#9a32cd" points="150.836,-547.763 140.929,-551.518 151.015,-554.761 150.836,-547.763"/>
<text text-anchor="middle" x="221.5" y="-571" font-family="Helvetica,sans-Serif" font-size="10.00"> z_ic_file</text>
<text text-anchor="middle" x="221.5" y="-560" font-family="Helvetica,sans-Serif" font-size="10.00">tracers_may_reinit</text>
<text text-anchor="middle" x="221.5" y="-549" font-family="Helvetica,sans-Serif" font-size="10.00">mask_tracers</text>
</g>
<!-- Node4 -->
<g id="node4" class="node"><title>Node4</title>
<polygon fill="white" stroke="#bfbfbf" points="96,-503.5 96,-522.5 147,-522.5 147,-503.5 96,-503.5"/>
<text text-anchor="middle" x="121.5" y="-510.5" font-family="Helvetica,sans-Serif" font-size="10.00">time_type</text>
</g>
<!-- Node4&#45;&gt;Node1 -->
<g id="edge3" class="edge"><title>Node4&#45;&gt;Node1</title>
<path fill="none" stroke="#9a32cd" stroke-dasharray="5,2" d="M157.265,-509.421C186.599,-504.711 228.011,-493.868 255,-469 301.156,-426.471 318.686,-349.23 324.26,-316.414"/>
<polygon fill="#9a32cd" stroke="#9a32cd" points="156.452,-506.002 147.053,-510.893 157.45,-512.93 156.452,-506.002"/>
<text text-anchor="middle" x="221.5" y="-505" font-family="Helvetica,sans-Serif" font-size="10.00"> time</text>
</g>
<!-- Node5 -->
<g id="node5" class="node"><title>Node5</title>
<polygon fill="white" stroke="#bfbfbf" points="77.5,-465.5 77.5,-484.5 165.5,-484.5 165.5,-465.5 77.5,-465.5"/>
<text text-anchor="middle" x="121.5" y="-472.5" font-family="Helvetica,sans-Serif" font-size="10.00">tracer_registry_type</text>
</g>
<!-- Node5&#45;&gt;Node1 -->
<g id="edge4" class="edge"><title>Node5&#45;&gt;Node1</title>
<path fill="none" stroke="#9a32cd" stroke-dasharray="5,2" d="M167.723,-462.204C195.343,-452.649 230.03,-437.348 255,-415 287.032,-386.333 309.955,-339.982 320.315,-316.177"/>
<polygon fill="#9a32cd" stroke="#9a32cd" points="166.286,-458.994 157.899,-465.467 168.492,-465.637 166.286,-458.994"/>
<text text-anchor="middle" x="221.5" y="-457" font-family="Helvetica,sans-Serif" font-size="10.00"> tr_reg</text>
</g>
<!-- Node6 -->
<g id="node6" class="node"><title>Node6</title>
<polygon fill="white" stroke="#bfbfbf" points="79,-427.5 79,-446.5 164,-446.5 164,-427.5 79,-427.5"/>
<text text-anchor="middle" x="121.5" y="-434.5" font-family="Helvetica,sans-Serif" font-size="10.00">character(len=200)</text>
</g>
<!-- Node6&#45;&gt;Node1 -->
<g id="edge5" class="edge"><title>Node6&#45;&gt;Node1</title>
<path fill="none" stroke="#9a32cd" stroke-dasharray="5,2" d="M152.306,-422.822C158.258,-419.745 164.399,-416.392 170,-413 221.729,-381.675 278.543,-338.657 307.393,-316.14"/>
<polygon fill="#9a32cd" stroke="#9a32cd" points="150.575,-419.774 143.213,-427.393 153.719,-426.028 150.575,-419.774"/>
<text text-anchor="middle" x="221.5" y="-403" font-family="Helvetica,sans-Serif" font-size="10.00"> ic_file</text>
</g>
<!-- Node7 -->
<g id="node7" class="node"><title>Node7</title>
<g id="a_node7"><a xlink:href="../../de/d7c/structmom__ocmip2__cfc_1_1p3d.html" target="_top" xlink:title="mom_ocmip2_cfc::p3d">
<polygon fill="white" stroke="black" points="73,-232.5 73,-251.5 170,-251.5 170,-232.5 73,-232.5"/>
<text text-anchor="middle" x="121.5" y="-239.5" font-family="Helvetica,sans-Serif" font-size="10.00">mom_ocmip2_cfc::p3d</text>
</a>
</g>
</g>
<!-- Node7&#45;&gt;Node1 -->
<g id="edge6" class="edge"><title>Node7&#45;&gt;Node1</title>
<path fill="none" stroke="#9a32cd" stroke-dasharray="5,2" d="M180.407,-234.216C204.152,-233.107 231.518,-234.573 255,-243 278.77,-251.53 300.435,-271.624 313.538,-285.759"/>
<polygon fill="#9a32cd" stroke="#9a32cd" points="179.888,-230.742 170.128,-234.863 180.328,-237.728 179.888,-230.742"/>
<text text-anchor="middle" x="221.5" y="-279" font-family="Helvetica,sans-Serif" font-size="10.00"> tr_adx</text>
<text text-anchor="middle" x="221.5" y="-268" font-family="Helvetica,sans-Serif" font-size="10.00">tr_dfx</text>
<text text-anchor="middle" x="221.5" y="-257" font-family="Helvetica,sans-Serif" font-size="10.00">tr_ady</text>
<text text-anchor="middle" x="221.5" y="-246" font-family="Helvetica,sans-Serif" font-size="10.00">tr_dfy</text>
</g>
<!-- Node8 -->
<g id="node8" class="node"><title>Node8</title>
<polygon fill="white" stroke="#bfbfbf" points="0,-260.5 0,-279.5 30,-279.5 30,-260.5 0,-260.5"/>
<text text-anchor="middle" x="15" y="-267.5" font-family="Helvetica,sans-Serif" font-size="10.00">real</text>
</g>
<!-- Node8&#45;&gt;Node1 -->
<g id="edge12" class="edge"><title>Node8&#45;&gt;Node1</title>
<path fill="none" stroke="#9a32cd" stroke-dasharray="5,2" d="M40.0391,-273.078C42.7236,-273.4 45.4194,-273.714 48,-274 126.095,-282.665 216.685,-291.159 272.804,-296.239"/>
<polygon fill="#9a32cd" stroke="#9a32cd" points="40.3633,-269.591 30.0091,-271.836 39.5035,-276.538 40.3633,-269.591"/>
<text text-anchor="middle" x="121.5" y="-400" font-family="Helvetica,sans-Serif" font-size="10.00"> cfc12_land_val</text>
<text text-anchor="middle" x="121.5" y="-389" font-family="Helvetica,sans-Serif" font-size="10.00">a4_11</text>
<text text-anchor="middle" x="121.5" y="-378" font-family="Helvetica,sans-Serif" font-size="10.00">cfc11_ic_val</text>
<text text-anchor="middle" x="121.5" y="-367" font-family="Helvetica,sans-Serif" font-size="10.00">a4_12</text>
<text text-anchor="middle" x="121.5" y="-356" font-family="Helvetica,sans-Serif" font-size="10.00">a3_11</text>
<text text-anchor="middle" x="121.5" y="-345" font-family="Helvetica,sans-Serif" font-size="10.00">a3_12</text>
<text text-anchor="middle" x="121.5" y="-334" font-family="Helvetica,sans-Serif" font-size="10.00">a2_11</text>
<text text-anchor="middle" x="121.5" y="-323" font-family="Helvetica,sans-Serif" font-size="10.00">cfc12_ic_val</text>
<text text-anchor="middle" x="121.5" y="-312" font-family="Helvetica,sans-Serif" font-size="10.00">d4_11</text>
<text text-anchor="middle" x="121.5" y="-301" font-family="Helvetica,sans-Serif" font-size="10.00">a2_12</text>
<text text-anchor="middle" x="121.5" y="-290" font-family="Helvetica,sans-Serif" font-size="10.00">...</text>
</g>
<!-- Node8&#45;&gt;Node7 -->
<g id="edge7" class="edge"><title>Node8&#45;&gt;Node7</title>
<path fill="none" stroke="#9a32cd" stroke-dasharray="5,2" d="M39.8646,-263.606C53.1127,-260.056 69.8566,-255.57 84.649,-251.606"/>
<polygon fill="#9a32cd" stroke="#9a32cd" points="38.8467,-260.255 30.0933,-266.224 40.6585,-267.016 38.8467,-260.255"/>
<text text-anchor="middle" x="51.5" y="-264" font-family="Helvetica,sans-Serif" font-size="10.00"> p</text>
</g>
<!-- Node9 -->
<g id="node9" class="node"><title>Node9</title>
<polygon fill="white" stroke="#bfbfbf" points="99.5,-194.5 99.5,-213.5 143.5,-213.5 143.5,-194.5 99.5,-194.5"/>
<text text-anchor="middle" x="121.5" y="-201.5" font-family="Helvetica,sans-Serif" font-size="10.00">vardesc</text>
</g>
<!-- Node9&#45;&gt;Node1 -->
<g id="edge8" class="edge"><title>Node9&#45;&gt;Node1</title>
<path fill="none" stroke="#9a32cd" stroke-dasharray="5,2" d="M153.656,-197.736C181.751,-193.699 223.387,-191.831 255,-208 287.638,-224.693 309.727,-263.889 319.966,-285.691"/>
<polygon fill="#9a32cd" stroke="#9a32cd" points="152.917,-194.31 143.601,-199.356 154.03,-201.22 152.917,-194.31"/>
<text text-anchor="middle" x="221.5" y="-222" font-family="Helvetica,sans-Serif" font-size="10.00"> cfc12_desc</text>
<text text-anchor="middle" x="221.5" y="-211" font-family="Helvetica,sans-Serif" font-size="10.00">cfc11_desc</text>
</g>
<!-- Node10 -->
<g id="node10" class="node"><title>Node10</title>
<polygon fill="white" stroke="#bfbfbf" points="74,-145 74,-175 169,-175 169,-145 74,-145"/>
<text text-anchor="start" x="82" y="-163" font-family="Helvetica,sans-Serif" font-size="10.00">type(mom_restart_cs)</text>
<text text-anchor="middle" x="121.5" y="-152" font-family="Helvetica,sans-Serif" font-size="10.00">, pointer</text>
</g>
<!-- Node10&#45;&gt;Node1 -->
<g id="edge9" class="edge"><title>Node10&#45;&gt;Node1</title>
<path fill="none" stroke="#9a32cd" stroke-dasharray="5,2" d="M179.401,-157.952C204.425,-159.598 233.049,-165.192 255,-180 293.232,-205.79 313.984,-259.451 322.227,-285.774"/>
<polygon fill="#9a32cd" stroke="#9a32cd" points="179.442,-154.45 169.29,-157.483 179.117,-161.443 179.442,-154.45"/>
<text text-anchor="middle" x="221.5" y="-183" font-family="Helvetica,sans-Serif" font-size="10.00"> restart_csp</text>
</g>
<!-- Node11 -->
<g id="node11" class="node"><title>Node11</title>
<polygon fill="white" stroke="#bfbfbf" points="98,-106.5 98,-125.5 145,-125.5 145,-106.5 98,-106.5"/>
<text text-anchor="middle" x="121.5" y="-113.5" font-family="Helvetica,sans-Serif" font-size="10.00">diag_ctrl</text>
</g>
<!-- Node11&#45;&gt;Node1 -->
<g id="edge10" class="edge"><title>Node11&#45;&gt;Node1</title>
<path fill="none" stroke="#9a32cd" stroke-dasharray="5,2" d="M155.344,-115.004C184.498,-115.812 226.737,-121.338 255,-144 301.032,-180.91 318.559,-253.985 324.192,-285.708"/>
<polygon fill="#9a32cd" stroke="#9a32cd" points="155.282,-111.504 145.246,-114.897 155.208,-118.503 155.282,-111.504"/>
<text text-anchor="middle" x="221.5" y="-147" font-family="Helvetica,sans-Serif" font-size="10.00"> diag</text>
</g>
<!-- Node12 -->
<g id="node12" class="node"><title>Node12</title>
<polygon fill="white" stroke="#bfbfbf" points="101,-0.5 101,-19.5 142,-19.5 142,-0.5 101,-0.5"/>
<text text-anchor="middle" x="121.5" y="-7.5" font-family="Helvetica,sans-Serif" font-size="10.00">integer</text>
</g>
<!-- Node12&#45;&gt;Node1 -->
<g id="edge11" class="edge"><title>Node12&#45;&gt;Node1</title>
<path fill="none" stroke="#9a32cd" stroke-dasharray="5,2" d="M152.474,-4.78911C182.132,-1.45107 227.032,-1.55443 255,-26 295.206,-61.143 318.545,-233.529 324.79,-285.889"/>
<polygon fill="#9a32cd" stroke="#9a32cd" points="151.751,-1.35419 142.297,-6.13591 152.67,-8.29369 151.751,-1.35419"/>
<text text-anchor="middle" x="221.5" y="-106" font-family="Helvetica,sans-Serif" font-size="10.00"> ind_cfc_11_flux</text>
<text text-anchor="middle" x="221.5" y="-95" font-family="Helvetica,sans-Serif" font-size="10.00">id_tr_dfx</text>
<text text-anchor="middle" x="221.5" y="-84" font-family="Helvetica,sans-Serif" font-size="10.00">ind_cfc_12_flux</text>
<text text-anchor="middle" x="221.5" y="-73" font-family="Helvetica,sans-Serif" font-size="10.00">id_tr_dfy</text>
<text text-anchor="middle" x="221.5" y="-62" font-family="Helvetica,sans-Serif" font-size="10.00">id_cfc11</text>
<text text-anchor="middle" x="221.5" y="-51" font-family="Helvetica,sans-Serif" font-size="10.00">id_cfc12</text>
<text text-anchor="middle" x="221.5" y="-40" font-family="Helvetica,sans-Serif" font-size="10.00">id_tr_adx</text>
<text text-anchor="middle" x="221.5" y="-29" font-family="Helvetica,sans-Serif" font-size="10.00">id_tr_ady</text>
</g>
</g>
</svg>
