<?xml version="1.0" encoding="UTF-8" standalone="no"?>
<!DOCTYPE svg PUBLIC "-//W3C//DTD SVG 1.1//EN"
 "http://www.w3.org/Graphics/SVG/1.1/DTD/svg11.dtd">
<!-- Generated by graphviz version 2.38.0 (20140413.2041)
 -->
<!-- Title: midas_vertmap::fill_boundaries_int Pages: 1 -->
<svg width="210pt" height="39pt"
 viewBox="0.00 0.00 210.00 39.00" xmlns="http://www.w3.org/2000/svg" xmlns:xlink="http://www.w3.org/1999/xlink">
<g id="graph0" class="graph" transform="scale(1 1) rotate(0) translate(4 35)">
<title>midas_vertmap::fill_boundaries_int</title>
<polygon fill="white" stroke="none" points="-4,4 -4,-35 206,-35 206,4 -4,4"/>
<!-- Node11 -->
<g id="node1" class="node"><title>Node11</title>
<polygon fill="#bfbfbf" stroke="black" points="0,-0.5 0,-30.5 83,-30.5 83,-0.5 0,-0.5"/>
<text text-anchor="start" x="8" y="-18.5" font-family="Helvetica,sans-Serif" font-size="10.00">midas_vertmap::fill</text>
<text text-anchor="middle" x="41.5" y="-7.5" font-family="Helvetica,sans-Serif" font-size="10.00">_boundaries_int</text>
</g>
<!-- Node12 -->
<g id="node2" class="node"><title>Node12</title>
<g id="a_node2"><a xlink:href="../../d1/da5/namespacemidas__vertmap.html#a0873fd458e5725420ebf74c8d8ee2f41" target="_top" xlink:title="midas_vertmap::fill\l_boundaries_real">
<polygon fill="white" stroke="black" points="119,-0.5 119,-30.5 202,-30.5 202,-0.5 119,-0.5"/>
<text text-anchor="start" x="127" y="-18.5" font-family="Helvetica,sans-Serif" font-size="10.00">midas_vertmap::fill</text>
<text text-anchor="middle" x="160.5" y="-7.5" font-family="Helvetica,sans-Serif" font-size="10.00">_boundaries_real</text>
</a>
</g>
</g>
<!-- Node11&#45;&gt;Node12 -->
<g id="edge1" class="edge"><title>Node11&#45;&gt;Node12</title>
<path fill="none" stroke="midnightblue" d="M83.0926,-15.5C91.3509,-15.5 100.136,-15.5 108.698,-15.5"/>
<polygon fill="midnightblue" stroke="midnightblue" points="108.979,-19.0001 118.979,-15.5 108.979,-12.0001 108.979,-19.0001"/>
</g>
</g>
</svg>
