<?xml version="1.0" encoding="UTF-8" standalone="no"?>
<!DOCTYPE svg PUBLIC "-//W3C//DTD SVG 1.1//EN"
 "http://www.w3.org/Graphics/SVG/1.1/DTD/svg11.dtd">
<!-- Generated by graphviz version 2.38.0 (20140413.2041)
 -->
<!-- Title: midas_vertmap::tracer_z_init Pages: 1 -->
<svg width="230pt" height="88pt"
 viewBox="0.00 0.00 230.00 88.00" xmlns="http://www.w3.org/2000/svg" xmlns:xlink="http://www.w3.org/1999/xlink">
<g id="graph0" class="graph" transform="scale(1 1) rotate(0) translate(4 84)">
<title>midas_vertmap::tracer_z_init</title>
<polygon fill="white" stroke="none" points="-4,4 -4,-84 226,-84 226,4 -4,4"/>
<!-- Node30 -->
<g id="node1" class="node"><title>Node30</title>
<polygon fill="#bfbfbf" stroke="black" points="0,-24.5 0,-54.5 97,-54.5 97,-24.5 0,-24.5"/>
<text text-anchor="start" x="8" y="-42.5" font-family="Helvetica,sans-Serif" font-size="10.00">midas_vertmap::tracer</text>
<text text-anchor="middle" x="48.5" y="-31.5" font-family="Helvetica,sans-Serif" font-size="10.00">_z_init</text>
</g>
<!-- Node31 -->
<g id="node2" class="node"><title>Node31</title>
<g id="a_node2"><a xlink:href="../../d1/da5/namespacemidas__vertmap.html#a65b6c7e2215379bd5e2fb6630e652ff8" target="_top" xlink:title="midas_vertmap::find\l_limited_slope">
<polygon fill="white" stroke="black" points="133,-49.5 133,-79.5 222,-79.5 222,-49.5 133,-49.5"/>
<text text-anchor="start" x="141" y="-67.5" font-family="Helvetica,sans-Serif" font-size="10.00">midas_vertmap::find</text>
<text text-anchor="middle" x="177.5" y="-56.5" font-family="Helvetica,sans-Serif" font-size="10.00">_limited_slope</text>
</a>
</g>
</g>
<!-- Node30&#45;&gt;Node31 -->
<g id="edge1" class="edge"><title>Node30&#45;&gt;Node31</title>
<path fill="none" stroke="midnightblue" d="M97.1514,-48.8802C105.549,-50.5333 114.342,-52.2642 122.89,-53.9468"/>
<polygon fill="midnightblue" stroke="midnightblue" points="122.285,-57.3949 132.773,-55.8923 123.637,-50.5267 122.285,-57.3949"/>
</g>
<!-- Node32 -->
<g id="node3" class="node"><title>Node32</title>
<g id="a_node3"><a xlink:href="../../d1/da5/namespacemidas__vertmap.html#aaa0d59b5f40df5de2452235c40499e17" target="_top" xlink:title="midas_vertmap::find\l_overlap">
<polygon fill="white" stroke="black" points="133,-0.5 133,-30.5 222,-30.5 222,-0.5 133,-0.5"/>
<text text-anchor="start" x="141" y="-18.5" font-family="Helvetica,sans-Serif" font-size="10.00">midas_vertmap::find</text>
<text text-anchor="middle" x="177.5" y="-7.5" font-family="Helvetica,sans-Serif" font-size="10.00">_overlap</text>
</a>
</g>
</g>
<!-- Node30&#45;&gt;Node32 -->
<g id="edge2" class="edge"><title>Node30&#45;&gt;Node32</title>
<path fill="none" stroke="midnightblue" d="M97.1514,-30.495C105.549,-28.908 114.342,-27.2464 122.89,-25.6311"/>
<polygon fill="midnightblue" stroke="midnightblue" points="123.597,-29.0595 132.773,-23.7634 122.297,-22.1812 123.597,-29.0595"/>
</g>
</g>
</svg>
