<?xml version="1.0" encoding="UTF-8" standalone="no"?>
<!DOCTYPE svg PUBLIC "-//W3C//DTD SVG 1.1//EN"
 "http://www.w3.org/Graphics/SVG/1.1/DTD/svg11.dtd">
<!-- Generated by graphviz version 2.38.0 (20140413.2041)
 -->
<!-- Title: midas_vertmap::find_overlap Pages: 1 -->
<svg width="230pt" height="39pt"
 viewBox="0.00 0.00 230.00 39.00" xmlns="http://www.w3.org/2000/svg" xmlns:xlink="http://www.w3.org/1999/xlink">
<g id="graph0" class="graph" transform="scale(1 1) rotate(0) translate(4 35)">
<title>midas_vertmap::find_overlap</title>
<polygon fill="white" stroke="none" points="-4,4 -4,-35 226,-35 226,4 -4,4"/>
<!-- Node24 -->
<g id="node1" class="node"><title>Node24</title>
<polygon fill="#bfbfbf" stroke="black" points="0,-0.5 0,-30.5 89,-30.5 89,-0.5 0,-0.5"/>
<text text-anchor="start" x="8" y="-18.5" font-family="Helvetica,sans-Serif" font-size="10.00">midas_vertmap::find</text>
<text text-anchor="middle" x="44.5" y="-7.5" font-family="Helvetica,sans-Serif" font-size="10.00">_overlap</text>
</g>
<!-- Node25 -->
<g id="node2" class="node"><title>Node25</title>
<g id="a_node2"><a xlink:href="../../d1/da5/namespacemidas__vertmap.html#a6fc99abf8494224d21a6e15fb962ee16" target="_top" xlink:title="midas_vertmap::tracer\l_z_init">
<polygon fill="white" stroke="black" points="125,-0.5 125,-30.5 222,-30.5 222,-0.5 125,-0.5"/>
<text text-anchor="start" x="133" y="-18.5" font-family="Helvetica,sans-Serif" font-size="10.00">midas_vertmap::tracer</text>
<text text-anchor="middle" x="173.5" y="-7.5" font-family="Helvetica,sans-Serif" font-size="10.00">_z_init</text>
</a>
</g>
</g>
<!-- Node24&#45;&gt;Node25 -->
<g id="edge1" class="edge"><title>Node24&#45;&gt;Node25</title>
<path fill="none" stroke="midnightblue" d="M99.3605,-15.5C107.814,-15.5 116.501,-15.5 124.803,-15.5"/>
<polygon fill="midnightblue" stroke="midnightblue" points="99.2062,-12.0001 89.2062,-15.5 99.2062,-19.0001 99.2062,-12.0001"/>
</g>
</g>
</svg>
