<?xml version="1.0" encoding="UTF-8" standalone="no"?>
<!DOCTYPE svg PUBLIC "-//W3C//DTD SVG 1.1//EN"
 "http://www.w3.org/Graphics/SVG/1.1/DTD/svg11.dtd">
<!-- Generated by graphviz version 2.38.0 (20140413.2041)
 -->
<!-- Title: mom_entrain_diffusive::determine_ea_kb Pages: 1 -->
<svg width="496pt" height="61pt"
 viewBox="0.00 0.00 496.00 61.00" xmlns="http://www.w3.org/2000/svg" xmlns:xlink="http://www.w3.org/1999/xlink">
<g id="graph0" class="graph" transform="scale(1 1) rotate(0) translate(4 57)">
<title>mom_entrain_diffusive::determine_ea_kb</title>
<polygon fill="white" stroke="none" points="-4,4 -4,-57 492,-57 492,4 -4,4"/>
<!-- Node8 -->
<g id="node1" class="node"><title>Node8</title>
<polygon fill="#bfbfbf" stroke="black" points="0,-0.5 0,-30.5 97,-30.5 97,-0.5 0,-0.5"/>
<text text-anchor="start" x="8" y="-18.5" font-family="Helvetica,sans-Serif" font-size="10.00">mom_entrain_diffusive</text>
<text text-anchor="middle" x="48.5" y="-7.5" font-family="Helvetica,sans-Serif" font-size="10.00">::determine_ea_kb</text>
</g>
<!-- Node9 -->
<g id="node2" class="node"><title>Node9</title>
<g id="a_node2"><a xlink:href="../../da/d32/namespacemom__entrain__diffusive.html#aa2d2f462912ba1e201b1b73e62a905f3" target="_top" xlink:title="mom_entrain_diffusive\l::determine_dskb">
<polygon fill="white" stroke="black" points="133,-22.5 133,-52.5 230,-52.5 230,-22.5 133,-22.5"/>
<text text-anchor="start" x="141" y="-40.5" font-family="Helvetica,sans-Serif" font-size="10.00">mom_entrain_diffusive</text>
<text text-anchor="middle" x="181.5" y="-29.5" font-family="Helvetica,sans-Serif" font-size="10.00">::determine_dskb</text>
</a>
</g>
</g>
<!-- Node8&#45;&gt;Node9 -->
<g id="edge1" class="edge"><title>Node8&#45;&gt;Node9</title>
<path fill="none" stroke="midnightblue" d="M97.1646,-23.5047C105.472,-24.8999 114.195,-26.3647 122.739,-27.7996"/>
<polygon fill="midnightblue" stroke="midnightblue" points="122.21,-31.2597 132.651,-29.4644 123.369,-24.3564 122.21,-31.2597"/>
</g>
<!-- Node10 -->
<g id="node3" class="node"><title>Node10</title>
<g id="a_node3"><a xlink:href="../../d0/de6/namespacemom__error__handler.html#a460cfb79a06c29fc249952c2a3710d67" target="_top" xlink:title="mom_error_handler::\lmom_error">
<polygon fill="white" stroke="black" points="266,-0.5 266,-30.5 359,-30.5 359,-0.5 266,-0.5"/>
<text text-anchor="start" x="274" y="-18.5" font-family="Helvetica,sans-Serif" font-size="10.00">mom_error_handler::</text>
<text text-anchor="middle" x="312.5" y="-7.5" font-family="Helvetica,sans-Serif" font-size="10.00">mom_error</text>
</a>
</g>
</g>
<!-- Node8&#45;&gt;Node10 -->
<g id="edge4" class="edge"><title>Node8&#45;&gt;Node10</title>
<path fill="none" stroke="midnightblue" d="M97.1855,-14.1608C108.896,-13.8863 121.4,-13.6389 133,-13.5 176.108,-12.9838 186.892,-12.9711 230,-13.5 238.341,-13.6023 247.161,-13.7635 255.798,-13.9511"/>
<polygon fill="midnightblue" stroke="midnightblue" points="255.735,-17.4505 265.813,-14.1815 255.896,-10.4523 255.735,-17.4505"/>
</g>
<!-- Node9&#45;&gt;Node10 -->
<g id="edge2" class="edge"><title>Node9&#45;&gt;Node10</title>
<path fill="none" stroke="midnightblue" d="M230.168,-29.3705C238.525,-27.9453 247.288,-26.451 255.839,-24.9926"/>
<polygon fill="midnightblue" stroke="midnightblue" points="256.474,-28.435 265.743,-23.3036 255.297,-21.5346 256.474,-28.435"/>
</g>
<!-- Node11 -->
<g id="node4" class="node"><title>Node11</title>
<g id="a_node4"><a xlink:href="../../d0/de6/namespacemom__error__handler.html#ad5f00a53059c72fe2332d1436c80ca71" target="_top" xlink:title="mom_error_handler::\lis_root_pe">
<polygon fill="white" stroke="black" points="395,-0.5 395,-30.5 488,-30.5 488,-0.5 395,-0.5"/>
<text text-anchor="start" x="403" y="-18.5" font-family="Helvetica,sans-Serif" font-size="10.00">mom_error_handler::</text>
<text text-anchor="middle" x="441.5" y="-7.5" font-family="Helvetica,sans-Serif" font-size="10.00">is_root_pe</text>
</a>
</g>
</g>
<!-- Node10&#45;&gt;Node11 -->
<g id="edge3" class="edge"><title>Node10&#45;&gt;Node11</title>
<path fill="none" stroke="midnightblue" d="M359.35,-15.5C367.533,-15.5 376.141,-15.5 384.568,-15.5"/>
<polygon fill="midnightblue" stroke="midnightblue" points="384.717,-19.0001 394.717,-15.5 384.717,-12.0001 384.717,-19.0001"/>
</g>
</g>
</svg>
