<?xml version="1.0" encoding="UTF-8" standalone="no"?>
<!DOCTYPE svg PUBLIC "-//W3C//DTD SVG 1.1//EN"
 "http://www.w3.org/Graphics/SVG/1.1/DTD/svg11.dtd">
<!-- Generated by graphviz version 2.38.0 (20140413.2041)
 -->
<!-- Title: mom_entrain_diffusive::entrain_diffusive_init Pages: 1 -->
<svg width="363pt" height="88pt"
 viewBox="0.00 0.00 363.00 88.00" xmlns="http://www.w3.org/2000/svg" xmlns:xlink="http://www.w3.org/1999/xlink">
<g id="graph0" class="graph" transform="scale(1 1) rotate(0) translate(4 84)">
<title>mom_entrain_diffusive::entrain_diffusive_init</title>
<polygon fill="white" stroke="none" points="-4,4 -4,-84 359,-84 359,4 -4,4"/>
<!-- Node17 -->
<g id="node1" class="node"><title>Node17</title>
<polygon fill="#bfbfbf" stroke="black" points="0,-24.5 0,-54.5 97,-54.5 97,-24.5 0,-24.5"/>
<text text-anchor="start" x="8" y="-42.5" font-family="Helvetica,sans-Serif" font-size="10.00">mom_entrain_diffusive</text>
<text text-anchor="middle" x="48.5" y="-31.5" font-family="Helvetica,sans-Serif" font-size="10.00">::entrain_diffusive_init</text>
</g>
<!-- Node18 -->
<g id="node2" class="node"><title>Node18</title>
<g id="a_node2"><a xlink:href="../../d9/def/namespacemom__file__parser.html#a17c0ef1bb1912f02faa0aaa1e0f64210" target="_top" xlink:title="mom_file_parser::log\l_version">
<polygon fill="white" stroke="black" points="133.5,-49.5 133.5,-79.5 225.5,-79.5 225.5,-49.5 133.5,-49.5"/>
<text text-anchor="start" x="141.5" y="-67.5" font-family="Helvetica,sans-Serif" font-size="10.00">mom_file_parser::log</text>
<text text-anchor="middle" x="179.5" y="-56.5" font-family="Helvetica,sans-Serif" font-size="10.00">_version</text>
</a>
</g>
</g>
<!-- Node17&#45;&gt;Node18 -->
<g id="edge1" class="edge"><title>Node17&#45;&gt;Node18</title>
<path fill="none" stroke="midnightblue" d="M97.1683,-48.738C105.628,-50.3776 114.504,-52.0977 123.155,-53.7743"/>
<polygon fill="midnightblue" stroke="midnightblue" points="122.686,-57.2485 133.17,-55.715 124.018,-50.3763 122.686,-57.2485"/>
</g>
<!-- Node20 -->
<g id="node4" class="node"><title>Node20</title>
<g id="a_node4"><a xlink:href="../../d0/de6/namespacemom__error__handler.html#a460cfb79a06c29fc249952c2a3710d67" target="_top" xlink:title="mom_error_handler::\lmom_error">
<polygon fill="white" stroke="black" points="133,-0.5 133,-30.5 226,-30.5 226,-0.5 133,-0.5"/>
<text text-anchor="start" x="141" y="-18.5" font-family="Helvetica,sans-Serif" font-size="10.00">mom_error_handler::</text>
<text text-anchor="middle" x="179.5" y="-7.5" font-family="Helvetica,sans-Serif" font-size="10.00">mom_error</text>
</a>
</g>
</g>
<!-- Node17&#45;&gt;Node20 -->
<g id="edge3" class="edge"><title>Node17&#45;&gt;Node20</title>
<path fill="none" stroke="midnightblue" d="M97.1683,-30.6315C105.525,-29.0767 114.288,-27.4465 122.839,-25.8556"/>
<polygon fill="midnightblue" stroke="midnightblue" points="123.552,-29.2831 132.743,-24.013 122.271,-22.4012 123.552,-29.2831"/>
</g>
<!-- Node19 -->
<g id="node3" class="node"><title>Node19</title>
<g id="a_node3"><a xlink:href="../../d0/de6/namespacemom__error__handler.html#ad5f00a53059c72fe2332d1436c80ca71" target="_top" xlink:title="mom_error_handler::\lis_root_pe">
<polygon fill="white" stroke="black" points="262,-24.5 262,-54.5 355,-54.5 355,-24.5 262,-24.5"/>
<text text-anchor="start" x="270" y="-42.5" font-family="Helvetica,sans-Serif" font-size="10.00">mom_error_handler::</text>
<text text-anchor="middle" x="308.5" y="-31.5" font-family="Helvetica,sans-Serif" font-size="10.00">is_root_pe</text>
</a>
</g>
</g>
<!-- Node18&#45;&gt;Node19 -->
<g id="edge2" class="edge"><title>Node18&#45;&gt;Node19</title>
<path fill="none" stroke="midnightblue" d="M225.633,-55.6155C234.037,-53.9612 242.911,-52.2144 251.592,-50.5055"/>
<polygon fill="midnightblue" stroke="midnightblue" points="252.52,-53.8901 261.656,-48.5245 251.168,-47.0219 252.52,-53.8901"/>
</g>
<!-- Node20&#45;&gt;Node19 -->
<g id="edge4" class="edge"><title>Node20&#45;&gt;Node19</title>
<path fill="none" stroke="midnightblue" d="M226.35,-24.1646C234.623,-25.7279 243.33,-27.3734 251.846,-28.9827"/>
<polygon fill="midnightblue" stroke="midnightblue" points="251.241,-32.4303 261.717,-30.8482 252.541,-25.5521 251.241,-32.4303"/>
</g>
</g>
</svg>
