<?xml version="1.0" encoding="UTF-8" standalone="no"?>
<!DOCTYPE svg PUBLIC "-//W3C//DTD SVG 1.1//EN"
 "http://www.w3.org/Graphics/SVG/1.1/DTD/svg11.dtd">
<!-- Generated by graphviz version 2.38.0 (20140413.2041)
 -->
<!-- Title: mom_entrain_diffusive::f_kb_to_ea_kb Pages: 1 -->
<svg width="238pt" height="39pt"
 viewBox="0.00 0.00 238.00 39.00" xmlns="http://www.w3.org/2000/svg" xmlns:xlink="http://www.w3.org/1999/xlink">
<g id="graph0" class="graph" transform="scale(1 1) rotate(0) translate(4 35)">
<title>mom_entrain_diffusive::f_kb_to_ea_kb</title>
<polygon fill="white" stroke="none" points="-4,4 -4,-35 234,-35 234,4 -4,4"/>
<!-- Node41 -->
<g id="node1" class="node"><title>Node41</title>
<polygon fill="#bfbfbf" stroke="black" points="0,-0.5 0,-30.5 97,-30.5 97,-0.5 0,-0.5"/>
<text text-anchor="start" x="8" y="-18.5" font-family="Helvetica,sans-Serif" font-size="10.00">mom_entrain_diffusive</text>
<text text-anchor="middle" x="48.5" y="-7.5" font-family="Helvetica,sans-Serif" font-size="10.00">::f_kb_to_ea_kb</text>
</g>
<!-- Node42 -->
<g id="node2" class="node"><title>Node42</title>
<g id="a_node2"><a xlink:href="../../da/d32/namespacemom__entrain__diffusive.html#acf36bae78e6175d37c3de0d61b0ac32f" target="_top" xlink:title="mom_entrain_diffusive\l::entrainment_diffusive">
<polygon fill="white" stroke="black" points="133,-0.5 133,-30.5 230,-30.5 230,-0.5 133,-0.5"/>
<text text-anchor="start" x="141" y="-18.5" font-family="Helvetica,sans-Serif" font-size="10.00">mom_entrain_diffusive</text>
<text text-anchor="middle" x="181.5" y="-7.5" font-family="Helvetica,sans-Serif" font-size="10.00">::entrainment_diffusive</text>
</a>
</g>
</g>
<!-- Node41&#45;&gt;Node42 -->
<g id="edge1" class="edge"><title>Node41&#45;&gt;Node42</title>
<path fill="none" stroke="midnightblue" d="M107.351,-15.5C115.803,-15.5 124.428,-15.5 132.651,-15.5"/>
<polygon fill="midnightblue" stroke="midnightblue" points="107.165,-12.0001 97.1646,-15.5 107.165,-19.0001 107.165,-12.0001"/>
</g>
</g>
</svg>
