<?xml version="1.0" encoding="UTF-8" standalone="no"?>
<!DOCTYPE svg PUBLIC "-//W3C//DTD SVG 1.1//EN"
 "http://www.w3.org/Graphics/SVG/1.1/DTD/svg11.dtd">
<!-- Generated by graphviz version 2.38.0 (20140413.2041)
 -->
<!-- Title: cvmix_put_get::cvmix_put_int Pages: 1 -->
<svg width="342pt" height="61pt"
 viewBox="0.00 0.00 342.00 61.00" xmlns="http://www.w3.org/2000/svg" xmlns:xlink="http://www.w3.org/1999/xlink">
<g id="graph0" class="graph" transform="scale(1 1) rotate(0) translate(4 57)">
<title>cvmix_put_get::cvmix_put_int</title>
<polygon fill="white" stroke="none" points="-4,4 -4,-57 338,-57 338,4 -4,4"/>
<!-- Node4 -->
<g id="node1" class="node"><title>Node4</title>
<polygon fill="#bfbfbf" stroke="black" points="0,-22.5 0,-52.5 92,-52.5 92,-22.5 0,-22.5"/>
<text text-anchor="start" x="8" y="-40.5" font-family="Helvetica,sans-Serif" font-size="10.00">cvmix_put_get::cvmix</text>
<text text-anchor="middle" x="46" y="-29.5" font-family="Helvetica,sans-Serif" font-size="10.00">_put_int</text>
</g>
<!-- Node5 -->
<g id="node2" class="node"><title>Node5</title>
<g id="a_node2"><a xlink:href="../../d9/d40/namespacecvmix__utils.html#add0750ac42bed558a35e18f4c8aa07cd" target="_top" xlink:title="cvmix_utils::cvmix\l_att_name">
<polygon fill="white" stroke="black" points="256,-22.5 256,-52.5 334,-52.5 334,-22.5 256,-22.5"/>
<text text-anchor="start" x="264" y="-40.5" font-family="Helvetica,sans-Serif" font-size="10.00">cvmix_utils::cvmix</text>
<text text-anchor="middle" x="295" y="-29.5" font-family="Helvetica,sans-Serif" font-size="10.00">_att_name</text>
</a>
</g>
</g>
<!-- Node4&#45;&gt;Node5 -->
<g id="edge1" class="edge"><title>Node4&#45;&gt;Node5</title>
<path fill="none" stroke="midnightblue" d="M92.4025,-39.4778C104.006,-39.9019 116.463,-40.2864 128,-40.5 168.882,-41.2568 179.12,-41.3283 220,-40.5 228.317,-40.3315 237.156,-40.0566 245.722,-39.7397"/>
<polygon fill="midnightblue" stroke="midnightblue" points="246.128,-43.2266 255.983,-39.3369 245.853,-36.232 246.128,-43.2266"/>
</g>
<!-- Node6 -->
<g id="node3" class="node"><title>Node6</title>
<g id="a_node3"><a xlink:href="../../dd/d5e/namespacecvmix__put__get.html#a775dc2c3c937a04e8f22d89b2cf3894f" target="_top" xlink:title="cvmix_put_get::cvmix\l_put_real">
<polygon fill="white" stroke="black" points="128,-0.5 128,-30.5 220,-30.5 220,-0.5 128,-0.5"/>
<text text-anchor="start" x="136" y="-18.5" font-family="Helvetica,sans-Serif" font-size="10.00">cvmix_put_get::cvmix</text>
<text text-anchor="middle" x="174" y="-7.5" font-family="Helvetica,sans-Serif" font-size="10.00">_put_real</text>
</a>
</g>
</g>
<!-- Node4&#45;&gt;Node6 -->
<g id="edge2" class="edge"><title>Node4&#45;&gt;Node6</title>
<path fill="none" stroke="midnightblue" d="M92.133,-29.6196C100.457,-28.1663 109.234,-26.6338 117.815,-25.1355"/>
<polygon fill="midnightblue" stroke="midnightblue" points="118.51,-28.5672 127.759,-23.3993 117.306,-21.6715 118.51,-28.5672"/>
</g>
<!-- Node6&#45;&gt;Node5 -->
<g id="edge3" class="edge"><title>Node6&#45;&gt;Node5</title>
<path fill="none" stroke="midnightblue" d="M220.328,-23.88C228.64,-25.4167 237.344,-27.0257 245.738,-28.5776"/>
<polygon fill="midnightblue" stroke="midnightblue" points="245.306,-32.057 255.776,-30.4334 246.579,-25.1737 245.306,-32.057"/>
</g>
</g>
</svg>
