<?xml version="1.0" encoding="UTF-8" standalone="no"?>
<!DOCTYPE svg PUBLIC "-//W3C//DTD SVG 1.1//EN"
 "http://www.w3.org/Graphics/SVG/1.1/DTD/svg11.dtd">
<!-- Generated by graphviz version 2.38.0 (20140413.2041)
 -->
<!-- Title: mom_barotropic::barotropic_init Pages: 1 -->
<svg width="544pt" height="263pt"
 viewBox="0.00 0.00 544.00 263.00" xmlns="http://www.w3.org/2000/svg" xmlns:xlink="http://www.w3.org/1999/xlink">
<g id="graph0" class="graph" transform="scale(1 1) rotate(0) translate(4 259)">
<title>mom_barotropic::barotropic_init</title>
<polygon fill="white" stroke="none" points="-4,4 -4,-259 540,-259 540,4 -4,4"/>
<!-- Node13 -->
<g id="node1" class="node"><title>Node13</title>
<polygon fill="#bfbfbf" stroke="black" points="0,-126 0,-145 130,-145 130,-126 0,-126"/>
<text text-anchor="middle" x="65" y="-133" font-family="Helvetica,sans-Serif" font-size="10.00">mom_barotropic::barotropic_init</text>
</g>
<!-- Node14 -->
<g id="node2" class="node"><title>Node14</title>
<g id="a_node2"><a xlink:href="../../d5/d7c/namespacemom__barotropic.html#a67277af6e92e3a6824edbbcc85ff9308" target="_top" xlink:title="mom_barotropic::btcalc">
<polygon fill="white" stroke="black" points="170,-192 170,-211 270,-211 270,-192 170,-192"/>
<text text-anchor="middle" x="220" y="-199" font-family="Helvetica,sans-Serif" font-size="10.00">mom_barotropic::btcalc</text>
</a>
</g>
</g>
<!-- Node13&#45;&gt;Node14 -->
<g id="edge1" class="edge"><title>Node13&#45;&gt;Node14</title>
<path fill="none" stroke="midnightblue" d="M85.7397,-145.079C105.78,-154.686 137.79,-169.706 166,-181.5 171.522,-183.809 177.414,-186.15 183.188,-188.378"/>
<polygon fill="midnightblue" stroke="midnightblue" points="182.116,-191.715 192.707,-191.995 184.602,-185.171 182.116,-191.715"/>
</g>
<!-- Node15 -->
<g id="node3" class="node"><title>Node15</title>
<g id="a_node3"><a xlink:href="../../d0/de6/namespacemom__error__handler.html#a460cfb79a06c29fc249952c2a3710d67" target="_top" xlink:title="mom_error_handler::\lmom_error">
<polygon fill="white" stroke="black" points="312,-224.5 312,-254.5 405,-254.5 405,-224.5 312,-224.5"/>
<text text-anchor="start" x="320" y="-242.5" font-family="Helvetica,sans-Serif" font-size="10.00">mom_error_handler::</text>
<text text-anchor="middle" x="358.5" y="-231.5" font-family="Helvetica,sans-Serif" font-size="10.00">mom_error</text>
</a>
</g>
</g>
<!-- Node13&#45;&gt;Node15 -->
<g id="edge7" class="edge"><title>Node13&#45;&gt;Node15</title>
<path fill="none" stroke="midnightblue" d="M73.5962,-145.001C88.8652,-163.315 125.315,-203.217 166,-220.5 209.047,-238.786 262.279,-242.755 301.685,-242.597"/>
<polygon fill="midnightblue" stroke="midnightblue" points="301.947,-246.093 311.9,-242.462 301.855,-239.094 301.947,-246.093"/>
</g>
<!-- Node17 -->
<g id="node5" class="node"><title>Node17</title>
<g id="a_node5"><a xlink:href="../../d5/d7c/namespacemom__barotropic.html#a75ff2563aedd553f2799c1cfc320129e" target="_top" xlink:title="mom_barotropic::find\l_face_areas">
<polygon fill="white" stroke="black" points="312.5,-38.5 312.5,-68.5 404.5,-68.5 404.5,-38.5 312.5,-38.5"/>
<text text-anchor="start" x="320.5" y="-56.5" font-family="Helvetica,sans-Serif" font-size="10.00">mom_barotropic::find</text>
<text text-anchor="middle" x="358.5" y="-45.5" font-family="Helvetica,sans-Serif" font-size="10.00">_face_areas</text>
</a>
</g>
</g>
<!-- Node13&#45;&gt;Node17 -->
<g id="edge4" class="edge"><title>Node13&#45;&gt;Node17</title>
<path fill="none" stroke="midnightblue" d="M86.2922,-125.927C106.224,-116.826 137.678,-103.261 166,-94.5 211.173,-80.5262 263.781,-69.635 302.415,-62.6011"/>
<polygon fill="midnightblue" stroke="midnightblue" points="303.195,-66.017 312.422,-60.8083 301.961,-59.1267 303.195,-66.017"/>
</g>
<!-- Node18 -->
<g id="node6" class="node"><title>Node18</title>
<g id="a_node6"><a xlink:href="../../d9/def/namespacemom__file__parser.html#a17c0ef1bb1912f02faa0aaa1e0f64210" target="_top" xlink:title="mom_file_parser::log\l_version">
<polygon fill="white" stroke="black" points="174,-142.5 174,-172.5 266,-172.5 266,-142.5 174,-142.5"/>
<text text-anchor="start" x="182" y="-160.5" font-family="Helvetica,sans-Serif" font-size="10.00">mom_file_parser::log</text>
<text text-anchor="middle" x="220" y="-149.5" font-family="Helvetica,sans-Serif" font-size="10.00">_version</text>
</a>
</g>
</g>
<!-- Node13&#45;&gt;Node18 -->
<g id="edge5" class="edge"><title>Node13&#45;&gt;Node18</title>
<path fill="none" stroke="midnightblue" d="M130.442,-144.766C141.459,-146.35 152.817,-147.983 163.573,-149.53"/>
<polygon fill="midnightblue" stroke="midnightblue" points="163.273,-153.023 173.669,-150.982 164.269,-146.094 163.273,-153.023"/>
</g>
<!-- Node19 -->
<g id="node7" class="node"><title>Node19</title>
<g id="a_node7"><a xlink:href="../../d0/de6/namespacemom__error__handler.html#a1c462df7b61f1296407b4af51dfeceab" target="_top" xlink:title="mom_error_handler::\lmom_mesg">
<polygon fill="white" stroke="black" points="173.5,-0.5 173.5,-30.5 266.5,-30.5 266.5,-0.5 173.5,-0.5"/>
<text text-anchor="start" x="181.5" y="-18.5" font-family="Helvetica,sans-Serif" font-size="10.00">mom_error_handler::</text>
<text text-anchor="middle" x="220" y="-7.5" font-family="Helvetica,sans-Serif" font-size="10.00">mom_mesg</text>
</a>
</g>
</g>
<!-- Node13&#45;&gt;Node19 -->
<g id="edge8" class="edge"><title>Node13&#45;&gt;Node19</title>
<path fill="none" stroke="midnightblue" d="M76.4522,-125.88C94.2743,-109.646 131.927,-76.0845 166,-50.5 172.448,-45.6584 179.537,-40.727 186.374,-36.1522"/>
<polygon fill="midnightblue" stroke="midnightblue" points="188.406,-39.0047 194.833,-30.5816 184.556,-33.1584 188.406,-39.0047"/>
</g>
<!-- Node20 -->
<g id="node8" class="node"><title>Node20</title>
<g id="a_node8"><a xlink:href="../../d5/d7c/namespacemom__barotropic.html#a5bbc20372a46408b8e61cbc1fd49e8e0" target="_top" xlink:title="mom_barotropic::set_dtbt">
<polygon fill="white" stroke="black" points="166,-104 166,-123 274,-123 274,-104 166,-104"/>
<text text-anchor="middle" x="220" y="-111" font-family="Helvetica,sans-Serif" font-size="10.00">mom_barotropic::set_dtbt</text>
</a>
</g>
</g>
<!-- Node13&#45;&gt;Node20 -->
<g id="edge10" class="edge"><title>Node13&#45;&gt;Node20</title>
<path fill="none" stroke="midnightblue" d="M130.442,-126.234C138.803,-125.032 147.361,-123.801 155.703,-122.602"/>
<polygon fill="midnightblue" stroke="midnightblue" points="156.343,-126.046 165.743,-121.158 155.347,-119.117 156.343,-126.046"/>
</g>
<!-- Node14&#45;&gt;Node15 -->
<g id="edge2" class="edge"><title>Node14&#45;&gt;Node15</title>
<path fill="none" stroke="midnightblue" d="M255.445,-211.089C269.637,-215.04 286.439,-219.718 302.271,-224.125"/>
<polygon fill="midnightblue" stroke="midnightblue" points="301.398,-227.515 311.97,-226.825 303.275,-220.771 301.398,-227.515"/>
</g>
<!-- Node16 -->
<g id="node4" class="node"><title>Node16</title>
<g id="a_node4"><a xlink:href="../../d0/de6/namespacemom__error__handler.html#ad5f00a53059c72fe2332d1436c80ca71" target="_top" xlink:title="mom_error_handler::\lis_root_pe">
<polygon fill="white" stroke="black" points="443,-180.5 443,-210.5 536,-210.5 536,-180.5 443,-180.5"/>
<text text-anchor="start" x="451" y="-198.5" font-family="Helvetica,sans-Serif" font-size="10.00">mom_error_handler::</text>
<text text-anchor="middle" x="489.5" y="-187.5" font-family="Helvetica,sans-Serif" font-size="10.00">is_root_pe</text>
</a>
</g>
</g>
<!-- Node15&#45;&gt;Node16 -->
<g id="edge3" class="edge"><title>Node15&#45;&gt;Node16</title>
<path fill="none" stroke="midnightblue" d="M403.534,-224.481C413.49,-221.085 424.172,-217.441 434.486,-213.923"/>
<polygon fill="midnightblue" stroke="midnightblue" points="435.892,-217.142 444.227,-210.601 433.632,-210.517 435.892,-217.142"/>
</g>
<!-- Node18&#45;&gt;Node16 -->
<g id="edge6" class="edge"><title>Node18&#45;&gt;Node16</title>
<path fill="none" stroke="midnightblue" d="M266.138,-167.43C280.148,-170.296 295.672,-173.253 310,-175.5 350.937,-181.92 397.47,-187.064 432.76,-190.527"/>
<polygon fill="midnightblue" stroke="midnightblue" points="432.575,-194.025 442.865,-191.503 433.248,-187.058 432.575,-194.025"/>
</g>
<!-- Node19&#45;&gt;Node16 -->
<g id="edge9" class="edge"><title>Node19&#45;&gt;Node16</title>
<path fill="none" stroke="midnightblue" d="M266.763,-6.72287C307.137,-1.58041 365.803,-0.720023 407,-28.5 455.69,-61.3325 476.344,-131.909 484.215,-169.953"/>
<polygon fill="midnightblue" stroke="midnightblue" points="480.86,-171.042 486.186,-180.201 487.734,-169.72 480.86,-171.042"/>
</g>
<!-- Node20&#45;&gt;Node15 -->
<g id="edge11" class="edge"><title>Node20&#45;&gt;Node15</title>
<path fill="none" stroke="midnightblue" d="M256.332,-123.001C262.534,-125.531 268.693,-128.662 274,-132.5 282.385,-138.564 318.577,-186.685 340.468,-216.292"/>
<polygon fill="midnightblue" stroke="midnightblue" points="337.74,-218.489 346.492,-224.46 343.373,-214.334 337.74,-218.489"/>
</g>
<!-- Node20&#45;&gt;Node17 -->
<g id="edge13" class="edge"><title>Node20&#45;&gt;Node17</title>
<path fill="none" stroke="midnightblue" d="M242.629,-103.993C261.742,-95.5915 290.199,-83.0828 314.007,-72.6178"/>
<polygon fill="midnightblue" stroke="midnightblue" points="315.463,-75.801 323.209,-68.5728 312.646,-69.3927 315.463,-75.801"/>
</g>
<!-- Node21 -->
<g id="node9" class="node"><title>Node21</title>
<g id="a_node9"><a xlink:href="../../d5/d7c/namespacemom__barotropic.html#a69af48d24759b679d0431f09dc9da503" target="_top" xlink:title="mom_barotropic::bt\l_cont_to_face_areas">
<polygon fill="white" stroke="black" points="312.5,-136.5 312.5,-166.5 404.5,-166.5 404.5,-136.5 312.5,-136.5"/>
<text text-anchor="start" x="320.5" y="-154.5" font-family="Helvetica,sans-Serif" font-size="10.00">mom_barotropic::bt</text>
<text text-anchor="middle" x="358.5" y="-143.5" font-family="Helvetica,sans-Serif" font-size="10.00">_cont_to_face_areas</text>
</a>
</g>
</g>
<!-- Node20&#45;&gt;Node21 -->
<g id="edge12" class="edge"><title>Node20&#45;&gt;Node21</title>
<path fill="none" stroke="midnightblue" d="M255.445,-123.089C269.768,-127.076 286.749,-131.804 302.708,-136.247"/>
<polygon fill="midnightblue" stroke="midnightblue" points="301.907,-139.657 312.48,-138.967 303.785,-132.913 301.907,-139.657"/>
</g>
<!-- Node22 -->
<g id="node10" class="node"><title>Node22</title>
<g id="a_node10"><a xlink:href="../../d5/daa/namespacemom__tidal__forcing.html#a0a1564c68489a35802c626a07f4629d7" target="_top" xlink:title="mom_tidal_forcing::\ltidal_forcing_sensitivity">
<polygon fill="white" stroke="black" points="310,-87.5 310,-117.5 407,-117.5 407,-87.5 310,-87.5"/>
<text text-anchor="start" x="318" y="-105.5" font-family="Helvetica,sans-Serif" font-size="10.00">mom_tidal_forcing::</text>
<text text-anchor="middle" x="358.5" y="-94.5" font-family="Helvetica,sans-Serif" font-size="10.00">tidal_forcing_sensitivity</text>
</a>
</g>
</g>
<!-- Node20&#45;&gt;Node22 -->
<g id="edge14" class="edge"><title>Node20&#45;&gt;Node22</title>
<path fill="none" stroke="midnightblue" d="M274.165,-109.216C282.467,-108.547 291.083,-107.852 299.487,-107.175"/>
<polygon fill="midnightblue" stroke="midnightblue" points="299.911,-110.652 309.597,-106.36 299.348,-103.675 299.911,-110.652"/>
</g>
</g>
</svg>
