<?xml version="1.0" encoding="UTF-8" standalone="no"?>
<!DOCTYPE svg PUBLIC "-//W3C//DTD SVG 1.1//EN"
 "http://www.w3.org/Graphics/SVG/1.1/DTD/svg11.dtd">
<!-- Generated by graphviz version 2.38.0 (20140413.2041)
 -->
<!-- Title: mom_barotropic::apply_velocity_obcs Pages: 1 -->
<svg width="255pt" height="66pt"
 viewBox="0.00 0.00 255.00 66.00" xmlns="http://www.w3.org/2000/svg" xmlns:xlink="http://www.w3.org/1999/xlink">
<g id="graph0" class="graph" transform="scale(1 1) rotate(0) translate(4 62)">
<title>mom_barotropic::apply_velocity_obcs</title>
<polygon fill="white" stroke="none" points="-4,4 -4,-62 251,-62 251,4 -4,4"/>
<!-- Node6 -->
<g id="node1" class="node"><title>Node6</title>
<polygon fill="#bfbfbf" stroke="black" points="0,-14 0,-44 98,-44 98,-14 0,-14"/>
<text text-anchor="start" x="8" y="-32" font-family="Helvetica,sans-Serif" font-size="10.00">mom_barotropic::apply</text>
<text text-anchor="middle" x="49" y="-21" font-family="Helvetica,sans-Serif" font-size="10.00">_velocity_obcs</text>
</g>
<!-- Node7 -->
<g id="node2" class="node"><title>Node7</title>
<g id="a_node2"><a xlink:href="../../d5/d7c/namespacemom__barotropic.html#a8ad2b12e885746401a97fd65ad189722" target="_top" xlink:title="mom_barotropic::find_uhbt">
<polygon fill="white" stroke="black" points="134,-38.5 134,-57.5 247,-57.5 247,-38.5 134,-38.5"/>
<text text-anchor="middle" x="190.5" y="-45.5" font-family="Helvetica,sans-Serif" font-size="10.00">mom_barotropic::find_uhbt</text>
</a>
</g>
</g>
<!-- Node6&#45;&gt;Node7 -->
<g id="edge1" class="edge"><title>Node6&#45;&gt;Node7</title>
<path fill="none" stroke="midnightblue" d="M98.008,-35.5387C106.278,-36.6652 115.002,-37.8533 123.646,-39.0306"/>
<polygon fill="midnightblue" stroke="midnightblue" points="123.343,-42.5216 133.724,-40.4032 124.288,-35.5856 123.343,-42.5216"/>
</g>
<!-- Node8 -->
<g id="node3" class="node"><title>Node8</title>
<g id="a_node3"><a xlink:href="../../d5/d7c/namespacemom__barotropic.html#ae96b701027f6f77feed0f68515b31e55" target="_top" xlink:title="mom_barotropic::find_vhbt">
<polygon fill="white" stroke="black" points="134.5,-0.5 134.5,-19.5 246.5,-19.5 246.5,-0.5 134.5,-0.5"/>
<text text-anchor="middle" x="190.5" y="-7.5" font-family="Helvetica,sans-Serif" font-size="10.00">mom_barotropic::find_vhbt</text>
</a>
</g>
</g>
<!-- Node6&#45;&gt;Node8 -->
<g id="edge2" class="edge"><title>Node6&#45;&gt;Node8</title>
<path fill="none" stroke="midnightblue" d="M98.008,-22.4613C106.483,-21.307 115.434,-20.0879 124.286,-18.8821"/>
<polygon fill="midnightblue" stroke="midnightblue" points="124.773,-22.3482 134.209,-17.5306 123.828,-15.4123 124.773,-22.3482"/>
</g>
</g>
</svg>
