<?xml version="1.0" encoding="UTF-8" standalone="no"?>
<!DOCTYPE svg PUBLIC "-//W3C//DTD SVG 1.1//EN"
 "http://www.w3.org/Graphics/SVG/1.1/DTD/svg11.dtd">
<!-- Generated by graphviz version 2.38.0 (20140413.2041)
 -->
<!-- Title: mom_barotropic::set_dtbt Pages: 1 -->
<svg width="378pt" height="186pt"
 viewBox="0.00 0.00 378.00 186.00" xmlns="http://www.w3.org/2000/svg" xmlns:xlink="http://www.w3.org/1999/xlink">
<g id="graph0" class="graph" transform="scale(1 1) rotate(0) translate(4 182)">
<title>mom_barotropic::set_dtbt</title>
<polygon fill="white" stroke="none" points="-4,4 -4,-182 374,-182 374,4 -4,4"/>
<!-- Node86 -->
<g id="node1" class="node"><title>Node86</title>
<polygon fill="#bfbfbf" stroke="black" points="0,-79 0,-98 108,-98 108,-79 0,-79"/>
<text text-anchor="middle" x="54" y="-86" font-family="Helvetica,sans-Serif" font-size="10.00">mom_barotropic::set_dtbt</text>
</g>
<!-- Node87 -->
<g id="node2" class="node"><title>Node87</title>
<g id="a_node2"><a xlink:href="../../d5/d7c/namespacemom__barotropic.html#a69af48d24759b679d0431f09dc9da503" target="_top" xlink:title="mom_barotropic::bt\l_cont_to_face_areas">
<polygon fill="white" stroke="black" points="146.5,-147.5 146.5,-177.5 238.5,-177.5 238.5,-147.5 146.5,-147.5"/>
<text text-anchor="start" x="154.5" y="-165.5" font-family="Helvetica,sans-Serif" font-size="10.00">mom_barotropic::bt</text>
<text text-anchor="middle" x="192.5" y="-154.5" font-family="Helvetica,sans-Serif" font-size="10.00">_cont_to_face_areas</text>
</a>
</g>
</g>
<!-- Node86&#45;&gt;Node87 -->
<g id="edge1" class="edge"><title>Node86&#45;&gt;Node87</title>
<path fill="none" stroke="midnightblue" d="M71.6106,-98.1204C89.3977,-108.354 118.509,-124.908 144,-138.5 146.685,-139.932 149.466,-141.392 152.273,-142.851"/>
<polygon fill="midnightblue" stroke="midnightblue" points="150.75,-146.003 161.244,-147.463 153.951,-139.778 150.75,-146.003"/>
</g>
<!-- Node88 -->
<g id="node3" class="node"><title>Node88</title>
<g id="a_node3"><a xlink:href="../../d5/d7c/namespacemom__barotropic.html#a75ff2563aedd553f2799c1cfc320129e" target="_top" xlink:title="mom_barotropic::find\l_face_areas">
<polygon fill="white" stroke="black" points="146.5,-98.5 146.5,-128.5 238.5,-128.5 238.5,-98.5 146.5,-98.5"/>
<text text-anchor="start" x="154.5" y="-116.5" font-family="Helvetica,sans-Serif" font-size="10.00">mom_barotropic::find</text>
<text text-anchor="middle" x="192.5" y="-105.5" font-family="Helvetica,sans-Serif" font-size="10.00">_face_areas</text>
</a>
</g>
</g>
<!-- Node86&#45;&gt;Node88 -->
<g id="edge2" class="edge"><title>Node86&#45;&gt;Node88</title>
<path fill="none" stroke="midnightblue" d="M106.994,-98.0227C116.612,-99.7842 126.687,-101.63 136.394,-103.407"/>
<polygon fill="midnightblue" stroke="midnightblue" points="135.874,-106.87 146.341,-105.229 137.135,-99.9847 135.874,-106.87"/>
</g>
<!-- Node89 -->
<g id="node4" class="node"><title>Node89</title>
<g id="a_node4"><a xlink:href="../../d0/de6/namespacemom__error__handler.html#a460cfb79a06c29fc249952c2a3710d67" target="_top" xlink:title="mom_error_handler::\lmom_error">
<polygon fill="white" stroke="black" points="146,-49.5 146,-79.5 239,-79.5 239,-49.5 146,-49.5"/>
<text text-anchor="start" x="154" y="-67.5" font-family="Helvetica,sans-Serif" font-size="10.00">mom_error_handler::</text>
<text text-anchor="middle" x="192.5" y="-56.5" font-family="Helvetica,sans-Serif" font-size="10.00">mom_error</text>
</a>
</g>
</g>
<!-- Node86&#45;&gt;Node89 -->
<g id="edge3" class="edge"><title>Node86&#45;&gt;Node89</title>
<path fill="none" stroke="midnightblue" d="M108.165,-79.1523C117.194,-77.5648 126.593,-75.9122 135.687,-74.3132"/>
<polygon fill="midnightblue" stroke="midnightblue" points="136.547,-77.7159 145.789,-72.537 135.334,-70.8217 136.547,-77.7159"/>
</g>
<!-- Node91 -->
<g id="node6" class="node"><title>Node91</title>
<g id="a_node6"><a xlink:href="../../d5/daa/namespacemom__tidal__forcing.html#a0a1564c68489a35802c626a07f4629d7" target="_top" xlink:title="mom_tidal_forcing::\ltidal_forcing_sensitivity">
<polygon fill="white" stroke="black" points="144,-0.5 144,-30.5 241,-30.5 241,-0.5 144,-0.5"/>
<text text-anchor="start" x="152" y="-18.5" font-family="Helvetica,sans-Serif" font-size="10.00">mom_tidal_forcing::</text>
<text text-anchor="middle" x="192.5" y="-7.5" font-family="Helvetica,sans-Serif" font-size="10.00">tidal_forcing_sensitivity</text>
</a>
</g>
</g>
<!-- Node86&#45;&gt;Node91 -->
<g id="edge5" class="edge"><title>Node86&#45;&gt;Node91</title>
<path fill="none" stroke="midnightblue" d="M72.7021,-78.8846C90.6423,-69.1559 119.211,-53.7079 144,-40.5 147.233,-38.7773 150.594,-36.9942 153.966,-35.2098"/>
<polygon fill="midnightblue" stroke="midnightblue" points="155.632,-38.2881 162.841,-30.524 152.363,-32.098 155.632,-38.2881"/>
</g>
<!-- Node90 -->
<g id="node5" class="node"><title>Node90</title>
<g id="a_node5"><a xlink:href="../../d0/de6/namespacemom__error__handler.html#ad5f00a53059c72fe2332d1436c80ca71" target="_top" xlink:title="mom_error_handler::\lis_root_pe">
<polygon fill="white" stroke="black" points="277,-49.5 277,-79.5 370,-79.5 370,-49.5 277,-49.5"/>
<text text-anchor="start" x="285" y="-67.5" font-family="Helvetica,sans-Serif" font-size="10.00">mom_error_handler::</text>
<text text-anchor="middle" x="323.5" y="-56.5" font-family="Helvetica,sans-Serif" font-size="10.00">is_root_pe</text>
</a>
</g>
</g>
<!-- Node89&#45;&gt;Node90 -->
<g id="edge4" class="edge"><title>Node89&#45;&gt;Node90</title>
<path fill="none" stroke="midnightblue" d="M239.344,-64.5C248.183,-64.5 257.534,-64.5 266.651,-64.5"/>
<polygon fill="midnightblue" stroke="midnightblue" points="266.804,-68.0001 276.804,-64.5 266.804,-61.0001 266.804,-68.0001"/>
</g>
</g>
</svg>
