<?xml version="1.0" encoding="UTF-8" standalone="no"?>
<!DOCTYPE svg PUBLIC "-//W3C//DTD SVG 1.1//EN"
 "http://www.w3.org/Graphics/SVG/1.1/DTD/svg11.dtd">
<!-- Generated by graphviz version 2.38.0 (20140413.2041)
 -->
<!-- Title: mom_barotropic::set_up_bt_obc Pages: 1 -->
<svg width="358pt" height="137pt"
 viewBox="0.00 0.00 358.00 137.00" xmlns="http://www.w3.org/2000/svg" xmlns:xlink="http://www.w3.org/1999/xlink">
<g id="graph0" class="graph" transform="scale(1 1) rotate(0) translate(4 133)">
<title>mom_barotropic::set_up_bt_obc</title>
<polygon fill="white" stroke="none" points="-4,4 -4,-133 354,-133 354,4 -4,4"/>
<!-- Node99 -->
<g id="node1" class="node"><title>Node99</title>
<polygon fill="#bfbfbf" stroke="black" points="0,-49.5 0,-79.5 90,-79.5 90,-49.5 0,-49.5"/>
<text text-anchor="start" x="8" y="-67.5" font-family="Helvetica,sans-Serif" font-size="10.00">mom_barotropic::set</text>
<text text-anchor="middle" x="45" y="-56.5" font-family="Helvetica,sans-Serif" font-size="10.00">_up_bt_obc</text>
</g>
<!-- Node100 -->
<g id="node2" class="node"><title>Node100</title>
<g id="a_node2"><a xlink:href="../../d0/de6/namespacemom__error__handler.html#a460cfb79a06c29fc249952c2a3710d67" target="_top" xlink:title="mom_error_handler::\lmom_error">
<polygon fill="white" stroke="black" points="127,-98.5 127,-128.5 220,-128.5 220,-98.5 127,-98.5"/>
<text text-anchor="start" x="135" y="-116.5" font-family="Helvetica,sans-Serif" font-size="10.00">mom_error_handler::</text>
<text text-anchor="middle" x="173.5" y="-105.5" font-family="Helvetica,sans-Serif" font-size="10.00">mom_error</text>
</a>
</g>
</g>
<!-- Node99&#45;&gt;Node100 -->
<g id="edge1" class="edge"><title>Node99&#45;&gt;Node100</title>
<path fill="none" stroke="midnightblue" d="M84.9864,-79.6014C97.2504,-84.3519 110.949,-89.6581 123.8,-94.636"/>
<polygon fill="midnightblue" stroke="midnightblue" points="122.835,-98.0157 133.425,-98.3641 125.364,-91.4883 122.835,-98.0157"/>
</g>
<!-- Node102 -->
<g id="node4" class="node"><title>Node102</title>
<g id="a_node4"><a xlink:href="../../d5/d7c/namespacemom__barotropic.html#a0311f0f3d4e27f4017582d6a8c01298c" target="_top" xlink:title="mom_barotropic::uhbt\l_to_ubt">
<polygon fill="white" stroke="black" points="126,-49.5 126,-79.5 221,-79.5 221,-49.5 126,-49.5"/>
<text text-anchor="start" x="134" y="-67.5" font-family="Helvetica,sans-Serif" font-size="10.00">mom_barotropic::uhbt</text>
<text text-anchor="middle" x="173.5" y="-56.5" font-family="Helvetica,sans-Serif" font-size="10.00">_to_ubt</text>
</a>
</g>
</g>
<!-- Node99&#45;&gt;Node102 -->
<g id="edge3" class="edge"><title>Node99&#45;&gt;Node102</title>
<path fill="none" stroke="midnightblue" d="M90.2436,-64.5C98.4493,-64.5 107.126,-64.5 115.645,-64.5"/>
<polygon fill="midnightblue" stroke="midnightblue" points="115.918,-68.0001 125.918,-64.5 115.918,-61.0001 115.918,-68.0001"/>
</g>
<!-- Node103 -->
<g id="node5" class="node"><title>Node103</title>
<g id="a_node5"><a xlink:href="../../d5/d7c/namespacemom__barotropic.html#aeed3e618781611b448105a122e1a358c" target="_top" xlink:title="mom_barotropic::vhbt\l_to_vbt">
<polygon fill="white" stroke="black" points="126,-0.5 126,-30.5 221,-30.5 221,-0.5 126,-0.5"/>
<text text-anchor="start" x="134" y="-18.5" font-family="Helvetica,sans-Serif" font-size="10.00">mom_barotropic::vhbt</text>
<text text-anchor="middle" x="173.5" y="-7.5" font-family="Helvetica,sans-Serif" font-size="10.00">_to_vbt</text>
</a>
</g>
</g>
<!-- Node99&#45;&gt;Node103 -->
<g id="edge4" class="edge"><title>Node99&#45;&gt;Node103</title>
<path fill="none" stroke="midnightblue" d="M84.9864,-49.3986C97.2504,-44.6481 110.949,-39.3419 123.8,-34.364"/>
<polygon fill="midnightblue" stroke="midnightblue" points="125.364,-37.5117 133.425,-30.6359 122.835,-30.9843 125.364,-37.5117"/>
</g>
<!-- Node101 -->
<g id="node3" class="node"><title>Node101</title>
<g id="a_node3"><a xlink:href="../../d0/de6/namespacemom__error__handler.html#ad5f00a53059c72fe2332d1436c80ca71" target="_top" xlink:title="mom_error_handler::\lis_root_pe">
<polygon fill="white" stroke="black" points="257,-98.5 257,-128.5 350,-128.5 350,-98.5 257,-98.5"/>
<text text-anchor="start" x="265" y="-116.5" font-family="Helvetica,sans-Serif" font-size="10.00">mom_error_handler::</text>
<text text-anchor="middle" x="303.5" y="-105.5" font-family="Helvetica,sans-Serif" font-size="10.00">is_root_pe</text>
</a>
</g>
</g>
<!-- Node100&#45;&gt;Node101 -->
<g id="edge2" class="edge"><title>Node100&#45;&gt;Node101</title>
<path fill="none" stroke="midnightblue" d="M220.349,-113.5C228.908,-113.5 237.939,-113.5 246.758,-113.5"/>
<polygon fill="midnightblue" stroke="midnightblue" points="246.971,-117 256.971,-113.5 246.971,-110 246.971,-117"/>
</g>
</g>
</svg>
