<?xml version="1.0" encoding="UTF-8" standalone="no"?>
<!DOCTYPE svg PUBLIC "-//W3C//DTD SVG 1.1//EN"
 "http://www.w3.org/Graphics/SVG/1.1/DTD/svg11.dtd">
<!-- Generated by graphviz version 2.38.0 (20140413.2041)
 -->
<!-- Title: mom_barotropic::set_dtbt Pages: 1 -->
<svg width="282pt" height="78pt"
 viewBox="0.00 0.00 282.00 77.50" xmlns="http://www.w3.org/2000/svg" xmlns:xlink="http://www.w3.org/1999/xlink">
<g id="graph0" class="graph" transform="scale(1 1) rotate(0) translate(4 73.5)">
<title>mom_barotropic::set_dtbt</title>
<polygon fill="white" stroke="none" points="-4,4 -4,-73.5 278,-73.5 278,4 -4,4"/>
<!-- Node92 -->
<g id="node1" class="node"><title>Node92</title>
<polygon fill="#bfbfbf" stroke="black" points="0,-28 0,-47 108,-47 108,-28 0,-28"/>
<text text-anchor="middle" x="54" y="-35" font-family="Helvetica,sans-Serif" font-size="10.00">mom_barotropic::set_dtbt</text>
</g>
<!-- Node93 -->
<g id="node2" class="node"><title>Node93</title>
<g id="a_node2"><a xlink:href="../../d5/d7c/namespacemom__barotropic.html#a8bf1849bbd33dbc234b6eeae40392ded" target="_top" xlink:title="mom_barotropic::barotropic_init">
<polygon fill="white" stroke="black" points="144,-50 144,-69 274,-69 274,-50 144,-50"/>
<text text-anchor="middle" x="209" y="-57" font-family="Helvetica,sans-Serif" font-size="10.00">mom_barotropic::barotropic_init</text>
</a>
</g>
</g>
<!-- Node92&#45;&gt;Node93 -->
<g id="edge1" class="edge"><title>Node92&#45;&gt;Node93</title>
<path fill="none" stroke="midnightblue" d="M118.002,-46.559C126.565,-47.7904 135.362,-49.0553 143.944,-50.2893"/>
<polygon fill="midnightblue" stroke="midnightblue" points="118.479,-43.0918 108.083,-45.1328 117.483,-50.0205 118.479,-43.0918"/>
</g>
<!-- Node94 -->
<g id="node3" class="node"><title>Node94</title>
<g id="a_node3"><a xlink:href="../../d1/dc3/namespacemom__dynamics__split__rk2.html#a81cce65643a8cf94979d68354a9a1979" target="_top" xlink:title="RK2 splitting for time stepping MOM adiabatic dynamics. ">
<polygon fill="white" stroke="black" points="146.5,-0.5 146.5,-30.5 271.5,-30.5 271.5,-0.5 146.5,-0.5"/>
<text text-anchor="start" x="154.5" y="-18.5" font-family="Helvetica,sans-Serif" font-size="10.00">mom_dynamics_split</text>
<text text-anchor="middle" x="209" y="-7.5" font-family="Helvetica,sans-Serif" font-size="10.00">_rk2::step_mom_dyn_split_rk2</text>
</a>
</g>
</g>
<!-- Node92&#45;&gt;Node94 -->
<g id="edge2" class="edge"><title>Node92&#45;&gt;Node94</title>
<path fill="none" stroke="midnightblue" d="M118.081,-28.4296C127.42,-27.0867 137.034,-25.7042 146.343,-24.3656"/>
<polygon fill="midnightblue" stroke="midnightblue" points="117.483,-24.9795 108.083,-29.8672 118.479,-31.9082 117.483,-24.9795"/>
</g>
</g>
</svg>
