<?xml version="1.0" encoding="UTF-8" standalone="no"?>
<!DOCTYPE svg PUBLIC "-//W3C//DTD SVG 1.1//EN"
 "http://www.w3.org/Graphics/SVG/1.1/DTD/svg11.dtd">
<!-- Generated by graphviz version 2.38.0 (20140413.2041)
 -->
<!-- Title: p3m_functions::build_cubic_interpolant Pages: 1 -->
<svg width="363pt" height="88pt"
 viewBox="0.00 0.00 363.00 88.00" xmlns="http://www.w3.org/2000/svg" xmlns:xlink="http://www.w3.org/1999/xlink">
<g id="graph0" class="graph" transform="scale(1 1) rotate(0) translate(4 84)">
<title>p3m_functions::build_cubic_interpolant</title>
<polygon fill="white" stroke="none" points="-4,4 -4,-84 359,-84 359,4 -4,4"/>
<!-- Node1 -->
<g id="node1" class="node"><title>Node1</title>
<polygon fill="#bfbfbf" stroke="black" points="0,-24.5 0,-54.5 89,-54.5 89,-24.5 0,-24.5"/>
<text text-anchor="start" x="8" y="-42.5" font-family="Helvetica,sans-Serif" font-size="10.00">p3m_functions::build</text>
<text text-anchor="middle" x="44.5" y="-31.5" font-family="Helvetica,sans-Serif" font-size="10.00">_cubic_interpolant</text>
</g>
<!-- Node2 -->
<g id="node2" class="node"><title>Node2</title>
<g id="a_node2"><a xlink:href="../../d6/d65/namespacep3m__functions.html#a1c48a9ed2f3ee6a192f99cbded1298ce" target="_top" xlink:title="p3m_functions::p3m\l_boundary_extrapolation">
<polygon fill="white" stroke="black" points="125,-49.5 125,-79.5 230,-79.5 230,-49.5 125,-49.5"/>
<text text-anchor="start" x="133" y="-67.5" font-family="Helvetica,sans-Serif" font-size="10.00">p3m_functions::p3m</text>
<text text-anchor="middle" x="177.5" y="-56.5" font-family="Helvetica,sans-Serif" font-size="10.00">_boundary_extrapolation</text>
</a>
</g>
</g>
<!-- Node1&#45;&gt;Node2 -->
<g id="edge1" class="edge"><title>Node1&#45;&gt;Node2</title>
<path fill="none" stroke="midnightblue" d="M98.9954,-49.709C107.549,-51.3413 116.385,-53.0276 124.893,-54.6513"/>
<polygon fill="midnightblue" stroke="midnightblue" points="99.6,-46.2613 89.1211,-47.8246 98.2877,-53.1372 99.6,-46.2613"/>
</g>
<!-- Node3 -->
<g id="node3" class="node"><title>Node3</title>
<g id="a_node3"><a xlink:href="../../d6/d65/namespacep3m__functions.html#a377fa3f7b5caf101d47fa0d4c9b84f64" target="_top" xlink:title="p3m_functions::p3m\l_limiter">
<polygon fill="white" stroke="black" points="133,-0.5 133,-30.5 222,-30.5 222,-0.5 133,-0.5"/>
<text text-anchor="start" x="141" y="-18.5" font-family="Helvetica,sans-Serif" font-size="10.00">p3m_functions::p3m</text>
<text text-anchor="middle" x="177.5" y="-7.5" font-family="Helvetica,sans-Serif" font-size="10.00">_limiter</text>
</a>
</g>
</g>
<!-- Node1&#45;&gt;Node3 -->
<g id="edge2" class="edge"><title>Node1&#45;&gt;Node3</title>
<path fill="none" stroke="midnightblue" d="M99.1693,-29.6675C110.297,-27.6288 121.896,-25.5039 132.623,-23.5386"/>
<polygon fill="midnightblue" stroke="midnightblue" points="98.3266,-26.2635 89.1211,-31.5083 99.5881,-33.1489 98.3266,-26.2635"/>
</g>
<!-- Node4 -->
<g id="node4" class="node"><title>Node4</title>
<g id="a_node4"><a xlink:href="../../d6/d65/namespacep3m__functions.html#a1769b4b4ced88bbd9f28e348a7bdeabc" target="_top" xlink:title="p3m_functions::p3m\l_interpolation">
<polygon fill="white" stroke="black" points="266,-0.5 266,-30.5 355,-30.5 355,-0.5 266,-0.5"/>
<text text-anchor="start" x="274" y="-18.5" font-family="Helvetica,sans-Serif" font-size="10.00">p3m_functions::p3m</text>
<text text-anchor="middle" x="310.5" y="-7.5" font-family="Helvetica,sans-Serif" font-size="10.00">_interpolation</text>
</a>
</g>
</g>
<!-- Node3&#45;&gt;Node4 -->
<g id="edge3" class="edge"><title>Node3&#45;&gt;Node4</title>
<path fill="none" stroke="midnightblue" d="M232.169,-15.5C243.297,-15.5 254.896,-15.5 265.623,-15.5"/>
<polygon fill="midnightblue" stroke="midnightblue" points="232.121,-12.0001 222.121,-15.5 232.121,-19.0001 232.121,-12.0001"/>
</g>
</g>
</svg>
