<?xml version="1.0" encoding="UTF-8" standalone="no"?>
<!DOCTYPE svg PUBLIC "-//W3C//DTD SVG 1.1//EN"
 "http://www.w3.org/Graphics/SVG/1.1/DTD/svg11.dtd">
<!-- Generated by graphviz version 2.38.0 (20140413.2041)
 -->
<!-- Title: p3m_functions::p3m_limiter Pages: 1 -->
<svg width="247pt" height="246pt"
 viewBox="0.00 0.00 247.00 245.50" xmlns="http://www.w3.org/2000/svg" xmlns:xlink="http://www.w3.org/1999/xlink">
<g id="graph0" class="graph" transform="scale(1 1) rotate(0) translate(4 241.5)">
<title>p3m_functions::p3m_limiter</title>
<polygon fill="white" stroke="none" points="-4,4 -4,-241.5 243,-241.5 243,4 -4,4"/>
<!-- Node28 -->
<g id="node1" class="node"><title>Node28</title>
<polygon fill="#bfbfbf" stroke="black" points="0,-98.5 0,-128.5 89,-128.5 89,-98.5 0,-98.5"/>
<text text-anchor="start" x="8" y="-116.5" font-family="Helvetica,sans-Serif" font-size="10.00">p3m_functions::p3m</text>
<text text-anchor="middle" x="44.5" y="-105.5" font-family="Helvetica,sans-Serif" font-size="10.00">_limiter</text>
</g>
<!-- Node29 -->
<g id="node2" class="node"><title>Node29</title>
<g id="a_node2"><a xlink:href="../../df/d50/namespaceregrid__edge__values.html#a2d51073fc6e6639040566f966041fc06" target="_top" xlink:title="regrid_edge_values\l::average_discontinuous\l_edge_values">
<polygon fill="white" stroke="black" points="130.5,-196 130.5,-237 233.5,-237 233.5,-196 130.5,-196"/>
<text text-anchor="start" x="138.5" y="-225" font-family="Helvetica,sans-Serif" font-size="10.00">regrid_edge_values</text>
<text text-anchor="start" x="138.5" y="-214" font-family="Helvetica,sans-Serif" font-size="10.00">::average_discontinuous</text>
<text text-anchor="middle" x="182" y="-203" font-family="Helvetica,sans-Serif" font-size="10.00">_edge_values</text>
</a>
</g>
</g>
<!-- Node28&#45;&gt;Node29 -->
<g id="edge1" class="edge"><title>Node28&#45;&gt;Node29</title>
<path fill="none" stroke="midnightblue" d="M59.4045,-128.694C74.5138,-144.639 99.8733,-169.799 125,-187.5 126.446,-188.519 127.933,-189.524 129.449,-190.514"/>
<polygon fill="midnightblue" stroke="midnightblue" points="128.028,-193.749 138.381,-195.999 131.691,-187.784 128.028,-193.749"/>
</g>
<!-- Node30 -->
<g id="node3" class="node"><title>Node30</title>
<g id="a_node3"><a xlink:href="../../df/d50/namespaceregrid__edge__values.html#aa204fe78ee22cae62f2b7f1bc76151a9" target="_top" xlink:title="regrid_edge_values\l::bound_edge_values">
<polygon fill="white" stroke="black" points="135.5,-147.5 135.5,-177.5 228.5,-177.5 228.5,-147.5 135.5,-147.5"/>
<text text-anchor="start" x="143.5" y="-165.5" font-family="Helvetica,sans-Serif" font-size="10.00">regrid_edge_values</text>
<text text-anchor="middle" x="182" y="-154.5" font-family="Helvetica,sans-Serif" font-size="10.00">::bound_edge_values</text>
</a>
</g>
</g>
<!-- Node28&#45;&gt;Node30 -->
<g id="edge2" class="edge"><title>Node28&#45;&gt;Node30</title>
<path fill="none" stroke="midnightblue" d="M87.2601,-128.601C100.654,-133.445 115.646,-138.866 129.644,-143.928"/>
<polygon fill="midnightblue" stroke="midnightblue" points="128.55,-147.255 139.145,-147.364 130.931,-140.672 128.55,-147.255"/>
</g>
<!-- Node31 -->
<g id="node4" class="node"><title>Node31</title>
<g id="a_node4"><a xlink:href="../../d6/d65/namespacep3m__functions.html#a073c1f3e8fabe99bdae91ef37e5161ee" target="_top" xlink:title="p3m_functions::build\l_cubic_interpolant">
<polygon fill="white" stroke="black" points="137.5,-98.5 137.5,-128.5 226.5,-128.5 226.5,-98.5 137.5,-98.5"/>
<text text-anchor="start" x="145.5" y="-116.5" font-family="Helvetica,sans-Serif" font-size="10.00">p3m_functions::build</text>
<text text-anchor="middle" x="182" y="-105.5" font-family="Helvetica,sans-Serif" font-size="10.00">_cubic_interpolant</text>
</a>
</g>
</g>
<!-- Node28&#45;&gt;Node31 -->
<g id="edge3" class="edge"><title>Node28&#45;&gt;Node31</title>
<path fill="none" stroke="midnightblue" d="M89.1189,-113.5C101.328,-113.5 114.74,-113.5 127.453,-113.5"/>
<polygon fill="midnightblue" stroke="midnightblue" points="127.463,-117 137.463,-113.5 127.463,-110 127.463,-117"/>
</g>
<!-- Node32 -->
<g id="node5" class="node"><title>Node32</title>
<g id="a_node5"><a xlink:href="../../d6/d65/namespacep3m__functions.html#a7c194c12772ac968650dc2072d5b32ba" target="_top" xlink:title="p3m_functions::is_cubic\l_monotonic">
<polygon fill="white" stroke="black" points="131.5,-49.5 131.5,-79.5 232.5,-79.5 232.5,-49.5 131.5,-49.5"/>
<text text-anchor="start" x="139.5" y="-67.5" font-family="Helvetica,sans-Serif" font-size="10.00">p3m_functions::is_cubic</text>
<text text-anchor="middle" x="182" y="-56.5" font-family="Helvetica,sans-Serif" font-size="10.00">_monotonic</text>
</a>
</g>
</g>
<!-- Node28&#45;&gt;Node32 -->
<g id="edge4" class="edge"><title>Node28&#45;&gt;Node32</title>
<path fill="none" stroke="midnightblue" d="M87.2601,-98.3986C100.654,-93.5549 115.646,-88.1336 129.644,-83.0715"/>
<polygon fill="midnightblue" stroke="midnightblue" points="130.931,-86.3281 139.145,-79.6359 128.55,-79.7453 130.931,-86.3281"/>
</g>
<!-- Node33 -->
<g id="node6" class="node"><title>Node33</title>
<g id="a_node6"><a xlink:href="../../d6/d65/namespacep3m__functions.html#adb96651fe725f11e90dec2b8509989b0" target="_top" xlink:title="p3m_functions::monotonize\l_cubic">
<polygon fill="white" stroke="black" points="125,-0.5 125,-30.5 239,-30.5 239,-0.5 125,-0.5"/>
<text text-anchor="start" x="133" y="-18.5" font-family="Helvetica,sans-Serif" font-size="10.00">p3m_functions::monotonize</text>
<text text-anchor="middle" x="182" y="-7.5" font-family="Helvetica,sans-Serif" font-size="10.00">_cubic</text>
</a>
</g>
</g>
<!-- Node28&#45;&gt;Node33 -->
<g id="edge5" class="edge"><title>Node28&#45;&gt;Node33</title>
<path fill="none" stroke="midnightblue" d="M59.2465,-98.2382C74.2238,-82.2813 99.4742,-57.2726 125,-40.5 127.758,-38.6875 130.67,-36.9474 133.657,-35.2887"/>
<polygon fill="midnightblue" stroke="midnightblue" points="135.5,-38.2755 142.768,-30.5659 132.279,-32.0609 135.5,-38.2755"/>
</g>
</g>
</svg>
