<?xml version="1.0" encoding="UTF-8" standalone="no"?>
<!DOCTYPE svg PUBLIC "-//W3C//DTD SVG 1.1//EN"
 "http://www.w3.org/Graphics/SVG/1.1/DTD/svg11.dtd">
<!-- Generated by graphviz version 2.38.0 (20140413.2041)
 -->
<!-- Title: mom_int_tide_input::find_n2_bottom Pages: 1 -->
<svg width="216pt" height="39pt"
 viewBox="0.00 0.00 216.00 39.00" xmlns="http://www.w3.org/2000/svg" xmlns:xlink="http://www.w3.org/1999/xlink">
<g id="graph0" class="graph" transform="scale(1 1) rotate(0) translate(4 35)">
<title>mom_int_tide_input::find_n2_bottom</title>
<polygon fill="white" stroke="none" points="-4,4 -4,-35 212,-35 212,4 -4,4"/>
<!-- Node7 -->
<g id="node1" class="node"><title>Node7</title>
<polygon fill="#bfbfbf" stroke="black" points="0,-0.5 0,-30.5 86,-30.5 86,-0.5 0,-0.5"/>
<text text-anchor="start" x="8" y="-18.5" font-family="Helvetica,sans-Serif" font-size="10.00">mom_int_tide_input</text>
<text text-anchor="middle" x="43" y="-7.5" font-family="Helvetica,sans-Serif" font-size="10.00">::find_n2_bottom</text>
</g>
<!-- Node8 -->
<g id="node2" class="node"><title>Node8</title>
<g id="a_node2"><a xlink:href="../../d0/d77/namespacemom__int__tide__input.html#a085f75d081e7a3091ad5bdfe91858714" target="_top" xlink:title="mom_int_tide_input\l::set_int_tide_input">
<polygon fill="white" stroke="black" points="122,-0.5 122,-30.5 208,-30.5 208,-0.5 122,-0.5"/>
<text text-anchor="start" x="130" y="-18.5" font-family="Helvetica,sans-Serif" font-size="10.00">mom_int_tide_input</text>
<text text-anchor="middle" x="165" y="-7.5" font-family="Helvetica,sans-Serif" font-size="10.00">::set_int_tide_input</text>
</a>
</g>
</g>
<!-- Node7&#45;&gt;Node8 -->
<g id="edge1" class="edge"><title>Node7&#45;&gt;Node8</title>
<path fill="none" stroke="midnightblue" d="M96.447,-15.5C104.879,-15.5 113.514,-15.5 121.67,-15.5"/>
<polygon fill="midnightblue" stroke="midnightblue" points="96.3075,-12.0001 86.3075,-15.5 96.3075,-19.0001 96.3075,-12.0001"/>
</g>
</g>
</svg>
