<?xml version="1.0" encoding="UTF-8" standalone="no"?>
<!DOCTYPE svg PUBLIC "-//W3C//DTD SVG 1.1//EN"
 "http://www.w3.org/Graphics/SVG/1.1/DTD/svg11.dtd">
<!-- Generated by graphviz version 2.38.0 (20140413.2041)
 -->
<!-- Title: mom_neutral_diffusion::neutral_diffusion_cs Pages: 1 -->
<svg width="219pt" height="293pt"
 viewBox="0.00 0.00 218.50 293.00" xmlns="http://www.w3.org/2000/svg" xmlns:xlink="http://www.w3.org/1999/xlink">
<g id="graph0" class="graph" transform="scale(1 1) rotate(0) translate(4 289)">
<title>mom_neutral_diffusion::neutral_diffusion_cs</title>
<polygon fill="white" stroke="none" points="-4,4 -4,-289 214.5,-289 214.5,4 -4,4"/>
<!-- Node1 -->
<g id="node1" class="node"><title>Node1</title>
<polygon fill="#bfbfbf" stroke="black" points="31.5,-0.5 31.5,-30.5 129.5,-30.5 129.5,-0.5 31.5,-0.5"/>
<text text-anchor="start" x="39.5" y="-18.5" font-family="Helvetica,sans-Serif" font-size="10.00">mom_neutral_diffusion</text>
<text text-anchor="middle" x="80.5" y="-7.5" font-family="Helvetica,sans-Serif" font-size="10.00">::neutral_diffusion_cs</text>
</g>
<!-- Node2 -->
<g id="node2" class="node"><title>Node2</title>
<polygon fill="white" stroke="#bfbfbf" points="0,-265.5 0,-284.5 47,-284.5 47,-265.5 0,-265.5"/>
<text text-anchor="middle" x="23.5" y="-272.5" font-family="Helvetica,sans-Serif" font-size="10.00">diag_ctrl</text>
</g>
<!-- Node2&#45;&gt;Node1 -->
<g id="edge1" class="edge"><title>Node2&#45;&gt;Node1</title>
<path fill="none" stroke="#9a32cd" stroke-dasharray="5,2" d="M23.6773,-255.252C24.6315,-215.723 29.9858,-121.505 58.5,-49 61.0435,-42.5324 65.0528,-36.0592 68.9559,-30.6116"/>
<polygon fill="#9a32cd" stroke="#9a32cd" points="20.1739,-255.426 23.5034,-265.484 27.1729,-255.545 20.1739,-255.426"/>
<text text-anchor="middle" x="67.5" y="-145.5" font-family="Helvetica,sans-Serif" font-size="10.00"> diag</text>
</g>
<!-- Node3 -->
<g id="node3" class="node"><title>Node3</title>
<polygon fill="white" stroke="#bfbfbf" points="65.5,-265.5 65.5,-284.5 95.5,-284.5 95.5,-265.5 65.5,-265.5"/>
<text text-anchor="middle" x="80.5" y="-272.5" font-family="Helvetica,sans-Serif" font-size="10.00">real</text>
</g>
<!-- Node3&#45;&gt;Node1 -->
<g id="edge2" class="edge"><title>Node3&#45;&gt;Node1</title>
<path fill="none" stroke="#9a32cd" stroke-dasharray="5,2" d="M80.5,-255.306C80.5,-206.198 80.5,-74.3352 80.5,-30.7226"/>
<polygon fill="#9a32cd" stroke="#9a32cd" points="77.0001,-255.432 80.5,-265.433 84.0001,-255.433 77.0001,-255.432"/>
<text text-anchor="middle" x="90" y="-178.5" font-family="Helvetica,sans-Serif" font-size="10.00"> vpol</text>
<text text-anchor="middle" x="90" y="-167.5" font-family="Helvetica,sans-Serif" font-size="10.00">upol</text>
<text text-anchor="middle" x="90" y="-156.5" font-family="Helvetica,sans-Serif" font-size="10.00">uheff</text>
<text text-anchor="middle" x="90" y="-145.5" font-family="Helvetica,sans-Serif" font-size="10.00">vheff</text>
<text text-anchor="middle" x="90" y="-134.5" font-family="Helvetica,sans-Serif" font-size="10.00">c_p</text>
<text text-anchor="middle" x="90" y="-123.5" font-family="Helvetica,sans-Serif" font-size="10.00">vpor</text>
<text text-anchor="middle" x="90" y="-112.5" font-family="Helvetica,sans-Serif" font-size="10.00">upor</text>
</g>
<!-- Node4 -->
<g id="node4" class="node"><title>Node4</title>
<polygon fill="white" stroke="#bfbfbf" points="114,-265.5 114,-284.5 155,-284.5 155,-265.5 114,-265.5"/>
<text text-anchor="middle" x="134.5" y="-272.5" font-family="Helvetica,sans-Serif" font-size="10.00">integer</text>
</g>
<!-- Node4&#45;&gt;Node1 -->
<g id="edge3" class="edge"><title>Node4&#45;&gt;Node1</title>
<path fill="none" stroke="#9a32cd" stroke-dasharray="5,2" d="M134.869,-255.215C135.021,-215.616 132.064,-121.272 103.5,-49 100.908,-42.443 96.7307,-35.9516 92.6422,-30.5145"/>
<polygon fill="#9a32cd" stroke="#9a32cd" points="131.366,-255.426 134.751,-265.466 138.366,-255.507 131.366,-255.426"/>
<text text-anchor="middle" x="172.5" y="-239" font-family="Helvetica,sans-Serif" font-size="10.00"> nkp1x2</text>
<text text-anchor="middle" x="172.5" y="-228" font-family="Helvetica,sans-Serif" font-size="10.00">nkp1</text>
<text text-anchor="middle" x="172.5" y="-217" font-family="Helvetica,sans-Serif" font-size="10.00">vkol</text>
<text text-anchor="start" x="134.5" y="-206" font-family="Helvetica,sans-Serif" font-size="10.00">id_neutral</text>
<text text-anchor="start" x="134.5" y="-195" font-family="Helvetica,sans-Serif" font-size="10.00">_diff_tracer</text>
<text text-anchor="middle" x="172.5" y="-184" font-family="Helvetica,sans-Serif" font-size="10.00">_cont_tend</text>
<text text-anchor="middle" x="172.5" y="-173" font-family="Helvetica,sans-Serif" font-size="10.00">ukol</text>
<text text-anchor="start" x="134.5" y="-162" font-family="Helvetica,sans-Serif" font-size="10.00">id_neutral</text>
<text text-anchor="start" x="134.5" y="-151" font-family="Helvetica,sans-Serif" font-size="10.00">_diff_tracer</text>
<text text-anchor="middle" x="172.5" y="-140" font-family="Helvetica,sans-Serif" font-size="10.00">_cont_tend_2d</text>
<text text-anchor="start" x="134.5" y="-129" font-family="Helvetica,sans-Serif" font-size="10.00">id_neutral_diff</text>
<text text-anchor="middle" x="172.5" y="-118" font-family="Helvetica,sans-Serif" font-size="10.00">_tracer_conc_tend</text>
<text text-anchor="start" x="134.5" y="-107" font-family="Helvetica,sans-Serif" font-size="10.00">id_neutral_diff</text>
<text text-anchor="middle" x="172.5" y="-96" font-family="Helvetica,sans-Serif" font-size="10.00">_tracer_trans_x_2d</text>
<text text-anchor="start" x="134.5" y="-85" font-family="Helvetica,sans-Serif" font-size="10.00">id_neutral_diff_tracer</text>
<text text-anchor="middle" x="172.5" y="-74" font-family="Helvetica,sans-Serif" font-size="10.00">_trans_y_2d</text>
<text text-anchor="middle" x="172.5" y="-63" font-family="Helvetica,sans-Serif" font-size="10.00">vkor</text>
<text text-anchor="middle" x="172.5" y="-52" font-family="Helvetica,sans-Serif" font-size="10.00">...</text>
</g>
</g>
</svg>
