<?xml version="1.0" encoding="UTF-8" standalone="no"?>
<!DOCTYPE svg PUBLIC "-//W3C//DTD SVG 1.1//EN"
 "http://www.w3.org/Graphics/SVG/1.1/DTD/svg11.dtd">
<!-- Generated by graphviz version 2.38.0 (20140413.2041)
 -->
<!-- Title: pqm_functions::pqm_reconstruction Pages: 1 -->
<!--zoomable 225 -->
<svg id="main" version="1.1" xmlns="http://www.w3.org/2000/svg" xmlns:xlink="http://www.w3.org/1999/xlink" xml:space="preserve" onload="init(evt)">
<style type="text/css"><![CDATA[
.edge:hover path { stroke: red; }
.edge:hover polygon { stroke: red; fill: red; }
]]></style>
<script type="text/javascript"><![CDATA[
var edges = document.getElementsByTagName('g');
if (edges && edges.length) {
  for (var i=0;i<edges.length;i++) {
    if (edges[i].id.substr(0,4)=='edge') {
      edges[i].setAttribute('class','edge');
    }
  }
}
]]></script>
        <defs>
                <circle id="rim" cx="0" cy="0" r="7"/>
                <circle id="rim2" cx="0" cy="0" r="3.5"/>
                <g id="zoomPlus">
                        <use xlink:href="#rim" fill="#404040">
                                <set attributeName="fill" to="#808080" begin="zoomplus.mouseover" end="zoomplus.mouseout"/>
                        </use>
                        <path d="M-4,0h8M0,-4v8" fill="none" stroke="white" stroke-width="1.5" pointer-events="none"/>
                </g>
                <g id="zoomMin">
                        <use xlink:href="#rim" fill="#404040">
                                <set attributeName="fill" to="#808080" begin="zoomminus.mouseover" end="zoomminus.mouseout"/>
                        </use>
                        <path d="M-4,0h8" fill="none" stroke="white" stroke-width="1.5" pointer-events="none"/>
                </g>
                <g id="dirArrow">
                        <path fill="none" stroke="white" stroke-width="1.5" d="M0,-3.0v7 M-2.5,-0.5L0,-3.0L2.5,-0.5"/>
                </g>
               <g id="resetDef">
                       <use xlink:href="#rim2" fill="#404040">
                               <set attributeName="fill" to="#808080" begin="reset.mouseover" end="reset.mouseout"/>
                       </use>
               </g>
        </defs>

<script type="text/javascript">
var viewWidth = 1063;
var viewHeight = 225;
var sectionId = 'dynsection-4';
</script>
<script xlink:href="../../svgpan.js"/>
<svg id="graph" class="graph">
<g id="viewport">
<title>pqm_functions::pqm_reconstruction</title>
<polygon fill="white" stroke="none" points="-4,4 -4,-220.5 1059,-220.5 1059,4 -4,4"/>
<!-- Node43 -->
<g id="node1" class="node"><title>Node43</title>
<polygon fill="#bfbfbf" stroke="black" points="0,-47 0,-77 89,-77 89,-47 0,-47"/>
<text text-anchor="start" x="8" y="-65" font-family="Helvetica,sans-Serif" font-size="10.00">pqm_functions::pqm</text>
<text text-anchor="middle" x="44.5" y="-54" font-family="Helvetica,sans-Serif" font-size="10.00">_reconstruction</text>
</g>
<!-- Node44 -->
<g id="node2" class="node"><title>Node44</title>
<g id="a_node2"><a xlink:href="../../d6/d75/namespacemom__remapping.html#a07d7276310f329f56560a1290bcb8b0a" target="_top" xlink:title="Creates polynomial reconstructions of u0 on the source grid h0. ">
<polygon fill="white" stroke="black" points="125,-47 125,-77 223,-77 223,-47 125,-47"/>
<text text-anchor="start" x="133" y="-65" font-family="Helvetica,sans-Serif" font-size="10.00">mom_remapping::build</text>
<text text-anchor="middle" x="174" y="-54" font-family="Helvetica,sans-Serif" font-size="10.00">_reconstructions_1d</text>
</a>
</g>
</g>
<!-- Node43&#45;&gt;Node44 -->
<g id="edge1" class="edge"><title>Node43&#45;&gt;Node44</title>
<path fill="none" stroke="midnightblue" d="M99.2364,-62C107.744,-62 116.496,-62 124.866,-62"/>
<polygon fill="midnightblue" stroke="midnightblue" points="99.0217,-58.5001 89.0217,-62 99.0216,-65.5001 99.0217,-58.5001"/>
</g>
<!-- Node45 -->
<g id="node3" class="node"><title>Node45</title>
<g id="a_node3"><a xlink:href="../../d6/d75/namespacemom__remapping.html#a6d1533ffa647f3305aba055e2685b095" target="_top" xlink:title="Remaps column of values u0 on grid h0 to grid h1 assuming the top edge is aligned. ">
<polygon fill="white" stroke="black" points="259,-77 259,-107 379,-107 379,-77 259,-77"/>
<text text-anchor="start" x="267" y="-95" font-family="Helvetica,sans-Serif" font-size="10.00">mom_remapping::remapping</text>
<text text-anchor="middle" x="319" y="-84" font-family="Helvetica,sans-Serif" font-size="10.00">_core_h</text>
</a>
</g>
</g>
<!-- Node44&#45;&gt;Node45 -->
<g id="edge2" class="edge"><title>Node44&#45;&gt;Node45</title>
<path fill="none" stroke="midnightblue" d="M232.922,-74.1515C241.494,-75.9499 250.337,-77.8049 258.932,-79.6081"/>
<polygon fill="midnightblue" stroke="midnightblue" points="233.52,-70.7009 223.015,-72.073 232.083,-77.5517 233.52,-70.7009"/>
</g>
<!-- Node56 -->
<g id="node14" class="node"><title>Node56</title>
<g id="a_node14"><a xlink:href="../../d6/d75/namespacemom__remapping.html#a8b967872b8db2ac7d538991f7f255e56" target="_top" xlink:title="Remaps column of values u0 on grid h0 to implied grid h1 where the interfaces of h1 differ from those...">
<polygon fill="white" stroke="black" points="259,-17 259,-47 379,-47 379,-17 259,-17"/>
<text text-anchor="start" x="267" y="-35" font-family="Helvetica,sans-Serif" font-size="10.00">mom_remapping::remapping</text>
<text text-anchor="middle" x="319" y="-24" font-family="Helvetica,sans-Serif" font-size="10.00">_core_w</text>
</a>
</g>
</g>
<!-- Node44&#45;&gt;Node56 -->
<g id="edge13" class="edge"><title>Node44&#45;&gt;Node56</title>
<path fill="none" stroke="midnightblue" d="M232.922,-49.8485C241.494,-48.0501 250.337,-46.1951 258.932,-44.3919"/>
<polygon fill="midnightblue" stroke="midnightblue" points="232.083,-46.4483 223.015,-51.927 233.52,-53.2991 232.083,-46.4483"/>
</g>
<!-- Node46 -->
<g id="node4" class="node"><title>Node46</title>
<g id="a_node4"><a xlink:href="../../de/dd7/namespacemom__ale__sponge.html#a8f6e6db99f860b048a58e97e58c101a6" target="_top" xlink:title="This subroutine applies damping to the layers thicknesses, temp, salt and a variety of tracers for ev...">
<polygon fill="white" stroke="black" points="437.5,-161 437.5,-191 541.5,-191 541.5,-161 437.5,-161"/>
<text text-anchor="start" x="445.5" y="-179" font-family="Helvetica,sans-Serif" font-size="10.00">mom_ale_sponge::apply</text>
<text text-anchor="middle" x="489.5" y="-168" font-family="Helvetica,sans-Serif" font-size="10.00">_ale_sponge</text>
</a>
</g>
</g>
<!-- Node45&#45;&gt;Node46 -->
<g id="edge3" class="edge"><title>Node45&#45;&gt;Node46</title>
<path fill="none" stroke="midnightblue" d="M359.132,-111.508C389.381,-126.587 430.636,-147.154 458.353,-160.971"/>
<polygon fill="midnightblue" stroke="midnightblue" points="360.636,-108.347 350.124,-107.018 357.512,-114.611 360.636,-108.347"/>
</g>
<!-- Node48 -->
<g id="node6" class="node"><title>Node48</title>
<g id="a_node6"><a xlink:href="../../d6/d62/namespacemom__state__initialization.html#a71ee3c056ca59c1c3529a4ec22e09fe3" target="_top" xlink:title="Adjust the layer thicknesses by cutting away the top at the depth where the hydrostatic pressure matc...">
<polygon fill="white" stroke="black" points="439,-88 439,-118 540,-118 540,-88 439,-88"/>
<text text-anchor="start" x="447" y="-106" font-family="Helvetica,sans-Serif" font-size="10.00">mom_state_initialization</text>
<text text-anchor="middle" x="489.5" y="-95" font-family="Helvetica,sans-Serif" font-size="10.00">::cut_off_column_top</text>
</a>
</g>
</g>
<!-- Node45&#45;&gt;Node48 -->
<g id="edge5" class="edge"><title>Node45&#45;&gt;Node48</title>
<path fill="none" stroke="midnightblue" d="M389.57,-96.5417C406.092,-97.6203 423.391,-98.7496 438.819,-99.7568"/>
<polygon fill="midnightblue" stroke="midnightblue" points="389.614,-93.0371 379.407,-95.8782 389.158,-100.022 389.614,-93.0371"/>
</g>
<!-- Node54 -->
<g id="node12" class="node"><title>Node54</title>
<g id="a_node12"><a xlink:href="../../d9/d06/namespacemom__diag__mediator.html#ab5e628e0b8acd96234fab33d0fae2161" target="_top" xlink:title="Remap diagnostic field to z&#45;star vertical grid. ">
<polygon fill="white" stroke="black" points="442,-39 442,-69 537,-69 537,-39 442,-39"/>
<text text-anchor="start" x="450" y="-57" font-family="Helvetica,sans-Serif" font-size="10.00">mom_diag_mediator::</text>
<text text-anchor="middle" x="489.5" y="-46" font-family="Helvetica,sans-Serif" font-size="10.00">remap_diag_to_z</text>
</a>
</g>
</g>
<!-- Node45&#45;&gt;Node54 -->
<g id="edge11" class="edge"><title>Node45&#45;&gt;Node54</title>
<path fill="none" stroke="midnightblue" d="M389.629,-76.2972C407.204,-72.3338 425.655,-68.1729 441.794,-64.5331"/>
<polygon fill="midnightblue" stroke="midnightblue" points="388.392,-72.9883 379.407,-78.6026 389.932,-79.8169 388.392,-72.9883"/>
</g>
<!-- Node47 -->
<g id="node5" class="node"><title>Node47</title>
<g id="a_node5"><a xlink:href="../../d8/df3/namespacemom__diabatic__driver.html#a61e57d3902367aa46aa3c2d949ee900f" target="_top" xlink:title="This subroutine imposes the diapycnal mass fluxes and the accompanying diapycnal advection of momentu...">
<polygon fill="white" stroke="black" points="605,-186 605,-216 696,-216 696,-186 605,-186"/>
<text text-anchor="start" x="613" y="-204" font-family="Helvetica,sans-Serif" font-size="10.00">mom_diabatic_driver</text>
<text text-anchor="middle" x="650.5" y="-193" font-family="Helvetica,sans-Serif" font-size="10.00">::diabatic</text>
</a>
</g>
</g>
<!-- Node46&#45;&gt;Node47 -->
<g id="edge4" class="edge"><title>Node46&#45;&gt;Node47</title>
<path fill="none" stroke="midnightblue" d="M551.894,-185.653C569.529,-188.426 588.42,-191.396 604.839,-193.978"/>
<polygon fill="midnightblue" stroke="midnightblue" points="552.106,-182.144 541.684,-184.048 551.019,-189.059 552.106,-182.144"/>
</g>
<!-- Node49 -->
<g id="node7" class="node"><title>Node49</title>
<g id="a_node7"><a xlink:href="../../d6/d62/namespacemom__state__initialization.html#a5c77bf2b0ea9d28e28b661a2a42d3f88" target="_top" xlink:title="Run simple unit tests. ">
<polygon fill="white" stroke="black" points="600,-137 600,-167 701,-167 701,-137 600,-137"/>
<text text-anchor="start" x="608" y="-155" font-family="Helvetica,sans-Serif" font-size="10.00">mom_state_initialization</text>
<text text-anchor="middle" x="650.5" y="-144" font-family="Helvetica,sans-Serif" font-size="10.00">::mom_state_init_tests</text>
</a>
</g>
</g>
<!-- Node48&#45;&gt;Node49 -->
<g id="edge6" class="edge"><title>Node48&#45;&gt;Node49</title>
<path fill="none" stroke="midnightblue" d="M549.275,-121.113C566.178,-126.322 584.426,-131.946 600.659,-136.948"/>
<polygon fill="midnightblue" stroke="midnightblue" points="550.09,-117.702 539.503,-118.101 548.028,-124.391 550.09,-117.702"/>
</g>
<!-- Node50 -->
<g id="node8" class="node"><title>Node50</title>
<g id="a_node8"><a xlink:href="../../d6/d62/namespacemom__state__initialization.html#acc1029776c1bdda2862ed0f95c8dc640" target="_top" xlink:title="Adjust the layer thicknesses by cutting away the top of each model column at the depth where the hydr...">
<polygon fill="white" stroke="black" points="600,-88 600,-118 701,-118 701,-88 600,-88"/>
<text text-anchor="start" x="608" y="-106" font-family="Helvetica,sans-Serif" font-size="10.00">mom_state_initialization</text>
<text text-anchor="middle" x="650.5" y="-95" font-family="Helvetica,sans-Serif" font-size="10.00">::trim_for_ice</text>
</a>
</g>
</g>
<!-- Node48&#45;&gt;Node50 -->
<g id="edge7" class="edge"><title>Node48&#45;&gt;Node50</title>
<path fill="none" stroke="midnightblue" d="M550.807,-103C566.979,-103 584.279,-103 599.805,-103"/>
<polygon fill="midnightblue" stroke="midnightblue" points="550.372,-99.5001 540.372,-103 550.372,-106.5 550.372,-99.5001"/>
</g>
<!-- Node51 -->
<g id="node9" class="node"><title>Node51</title>
<g id="a_node9"><a xlink:href="../../d6/d62/namespacemom__state__initialization.html#af4e854627c6572332ba3fd895f169321" target="_top" xlink:title="mom_state_initialization\l::mom_initialize_state">
<polygon fill="white" stroke="black" points="737,-75 737,-105 838,-105 838,-75 737,-75"/>
<text text-anchor="start" x="745" y="-93" font-family="Helvetica,sans-Serif" font-size="10.00">mom_state_initialization</text>
<text text-anchor="middle" x="787.5" y="-82" font-family="Helvetica,sans-Serif" font-size="10.00">::mom_initialize_state</text>
</a>
</g>
</g>
<!-- Node50&#45;&gt;Node51 -->
<g id="edge8" class="edge"><title>Node50&#45;&gt;Node51</title>
<path fill="none" stroke="midnightblue" d="M711.207,-97.2504C719.67,-96.4355 728.299,-95.6045 736.552,-94.8098"/>
<polygon fill="midnightblue" stroke="midnightblue" points="710.621,-93.7906 701.002,-98.2331 711.292,-100.758 710.621,-93.7906"/>
</g>
<!-- Node52 -->
<g id="node10" class="node"><title>Node52</title>
<g id="a_node10"><a xlink:href="../../da/d01/namespacemom.html#afebdc0103ad9cbe0ed4a54e522dc4104" target="_top" xlink:title="This subroutine initializes MOM. ">
<polygon fill="white" stroke="black" points="874,-52.5 874,-71.5 963,-71.5 963,-52.5 874,-52.5"/>
<text text-anchor="middle" x="918.5" y="-59.5" font-family="Helvetica,sans-Serif" font-size="10.00">mom::initialize_mom</text>
</a>
</g>
</g>
<!-- Node51&#45;&gt;Node52 -->
<g id="edge9" class="edge"><title>Node51&#45;&gt;Node52</title>
<path fill="none" stroke="midnightblue" d="M847.805,-77.1275C856.564,-75.2264 865.451,-73.2974 873.815,-71.482"/>
<polygon fill="midnightblue" stroke="midnightblue" points="847.036,-73.713 838.006,-79.2545 848.521,-80.5537 847.036,-73.713"/>
</g>
<!-- Node53 -->
<g id="node11" class="node"><title>Node53</title>
<g id="a_node11"><a xlink:href="../../de/dbc/MOM__driver_8F90.html#a08fffeb2d8e8acbf9ed4609be6d258c6" target="_top" xlink:title="mom_main">
<polygon fill="white" stroke="black" points="999,-52.5 999,-71.5 1055,-71.5 1055,-52.5 999,-52.5"/>
<text text-anchor="middle" x="1027" y="-59.5" font-family="Helvetica,sans-Serif" font-size="10.00">mom_main</text>
</a>
</g>
</g>
<!-- Node52&#45;&gt;Node53 -->
<g id="edge10" class="edge"><title>Node52&#45;&gt;Node53</title>
<path fill="none" stroke="midnightblue" d="M973.407,-62C982.206,-62 990.981,-62 998.771,-62"/>
<polygon fill="midnightblue" stroke="midnightblue" points="973.125,-58.5001 963.125,-62 973.125,-65.5001 973.125,-58.5001"/>
</g>
<!-- Node55 -->
<g id="node13" class="node"><title>Node55</title>
<g id="a_node13"><a xlink:href="../../d9/d06/namespacemom__diag__mediator.html#adb1030a0216c52dd0d25bd67a5b31868" target="_top" xlink:title="mom_diag_mediator::\lpost_data_3d">
<polygon fill="white" stroke="black" points="603,-39 603,-69 698,-69 698,-39 603,-39"/>
<text text-anchor="start" x="611" y="-57" font-family="Helvetica,sans-Serif" font-size="10.00">mom_diag_mediator::</text>
<text text-anchor="middle" x="650.5" y="-46" font-family="Helvetica,sans-Serif" font-size="10.00">post_data_3d</text>
</a>
</g>
</g>
<!-- Node54&#45;&gt;Node55 -->
<g id="edge12" class="edge"><title>Node54&#45;&gt;Node55</title>
<path fill="none" stroke="midnightblue" d="M547.538,-54C565.732,-54 585.635,-54 602.99,-54"/>
<polygon fill="midnightblue" stroke="midnightblue" points="547.345,-50.5001 537.345,-54 547.345,-57.5001 547.345,-50.5001"/>
</g>
<!-- Node57 -->
<g id="node15" class="node"><title>Node57</title>
<g id="a_node15"><a xlink:href="../../d6/d75/namespacemom__remapping.html#aad5ec4e3f91e936e34113503d05deeeb" target="_top" xlink:title="Runs unit tests on remapping functions. Should only be called from a single/root thread Returns True ...">
<polygon fill="white" stroke="black" points="415,-0.5 415,-19.5 564,-19.5 564,-0.5 415,-0.5"/>
<text text-anchor="middle" x="489.5" y="-7.5" font-family="Helvetica,sans-Serif" font-size="10.00">mom_remapping::remappingunittests</text>
</a>
</g>
</g>
<!-- Node56&#45;&gt;Node57 -->
<g id="edge14" class="edge"><title>Node56&#45;&gt;Node57</title>
<path fill="none" stroke="midnightblue" d="M389.383,-22.9411C397.984,-21.8181 406.798,-20.6673 415.452,-19.5374"/>
<polygon fill="midnightblue" stroke="midnightblue" points="388.869,-19.4783 379.407,-24.2436 389.776,-26.4194 388.869,-19.4783"/>
</g>
<!-- Node58 -->
<g id="node16" class="node"><title>Node58</title>
<g id="a_node16"><a xlink:href="../../da/d01/namespacemom.html#a6cfc2cd88d60f051fe90e68c2f16b46b" target="_top" xlink:title="This s/r calls unit tests for other modules. These are NOT normally invoked and so we provide the mod...">
<polygon fill="white" stroke="black" points="753.5,-24.5 753.5,-43.5 821.5,-43.5 821.5,-24.5 753.5,-24.5"/>
<text text-anchor="middle" x="787.5" y="-31.5" font-family="Helvetica,sans-Serif" font-size="10.00">mom::unittests</text>
</a>
</g>
</g>
<!-- Node57&#45;&gt;Node58 -->
<g id="edge15" class="edge"><title>Node57&#45;&gt;Node58</title>
<path fill="none" stroke="midnightblue" d="M574.185,-16.7853C633.641,-21.606 710.289,-27.8207 753.339,-31.3112"/>
<polygon fill="midnightblue" stroke="midnightblue" points="574.299,-13.2831 564.049,-15.9634 573.733,-20.2602 574.299,-13.2831"/>
</g>
<!-- Node58&#45;&gt;Node52 -->
<g id="edge16" class="edge"><title>Node58&#45;&gt;Node52</title>
<path fill="none" stroke="midnightblue" d="M831.729,-43.3831C845.235,-46.3145 860.141,-49.55 873.686,-52.49"/>
<polygon fill="midnightblue" stroke="midnightblue" points="832.236,-39.9116 821.721,-41.2107 830.751,-46.7523 832.236,-39.9116"/>
</g>
</g>
</svg>
        <g id="navigator" transform="translate(0 0)" fill="#404254">
                <rect fill="#f2f5e9" fill-opacity="0.5" stroke="#606060" stroke-width=".5" x="0" y="0" width="60" height="60"/>
                <use id="zoomplus" xlink:href="#zoomPlus" x="17" y="9" onmousedown="handleZoom(evt,'in')"/>
                <use id="zoomminus" xlink:href="#zoomMin" x="42" y="9" onmousedown="handleZoom(evt,'out')"/>
                <use id="reset" xlink:href="#resetDef" x="30" y="36" onmousedown="handleReset()"/>
                <g id="arrowUp" xlink:href="#dirArrow" transform="translate(30 24)" onmousedown="handlePan(0,-1)">
                  <use xlink:href="#rim" fill="#404040">
                        <set attributeName="fill" to="#808080" begin="arrowUp.mouseover" end="arrowUp.mouseout"/>
                  </use>
                  <path fill="none" stroke="white" stroke-width="1.5" d="M0,-3.0v7 M-2.5,-0.5L0,-3.0L2.5,-0.5"/>
                </g>
                <g id="arrowRight" xlink:href="#dirArrow" transform="rotate(90) translate(36 -43)" onmousedown="handlePan(1,0)">
                  <use xlink:href="#rim" fill="#404040">
                        <set attributeName="fill" to="#808080" begin="arrowRight.mouseover" end="arrowRight.mouseout"/>
                  </use>
                  <path fill="none" stroke="white" stroke-width="1.5" d="M0,-3.0v7 M-2.5,-0.5L0,-3.0L2.5,-0.5"/>
                </g>
                <g id="arrowDown" xlink:href="#dirArrow" transform="rotate(180) translate(-30 -48)" onmousedown="handlePan(0,1)">
                  <use xlink:href="#rim" fill="#404040">
                        <set attributeName="fill" to="#808080" begin="arrowDown.mouseover" end="arrowDown.mouseout"/>
                  </use>
                  <path fill="none" stroke="white" stroke-width="1.5" d="M0,-3.0v7 M-2.5,-0.5L0,-3.0L2.5,-0.5"/>
                </g>
                <g id="arrowLeft" xlink:href="#dirArrow" transform="rotate(270) translate(-36 17)" onmousedown="handlePan(-1,0)">
                  <use xlink:href="#rim" fill="#404040">
                        <set attributeName="fill" to="#808080" begin="arrowLeft.mouseover" end="arrowLeft.mouseout"/>
                  </use>
                  <path fill="none" stroke="white" stroke-width="1.5" d="M0,-3.0v7 M-2.5,-0.5L0,-3.0L2.5,-0.5"/>
                </g>
        </g>
        <svg viewBox="0 0 15 15" width="100%" height="30px" preserveAspectRatio="xMaxYMin meet">
         <g id="arrow_out" transform="scale(0.3 0.3)">
          <a xlink:href="namespacepqm__functions_ada7e1a8d9d70b5b78b5e2dfddb5ffa43_icgraph_org.svg" target="_base">
           <rect id="button" ry="5" rx="5" y="6" x="6" height="38" width="38"
                fill="#f2f5e9" fill-opacity="0.5" stroke="#606060" stroke-width="1.0"/>
           <path id="arrow"
             d="M 11.500037,31.436501 C 11.940474,20.09759 22.043105,11.32322 32.158766,21.979434 L 37.068811,17.246167 C 37.068811,17.246167 37.088388,32 37.088388,32 L 22.160133,31.978069 C 22.160133,31.978069 26.997745,27.140456 26.997745,27.140456 C 18.528582,18.264221 13.291696,25.230495 11.500037,31.436501 z"
             style="fill:#404040;"/>
          </a>
         </g>
        </svg>
</svg>
