<?xml version="1.0" encoding="UTF-8" standalone="no"?>
<!DOCTYPE svg PUBLIC "-//W3C//DTD SVG 1.1//EN"
 "http://www.w3.org/Graphics/SVG/1.1/DTD/svg11.dtd">
<!-- Generated by graphviz version 2.38.0 (20140413.2041)
 -->
<!-- Title: mom_dynamics_unsplit::mom_dyn_unsplit_cs Pages: 1 -->
<!--zoomable 798 -->
<svg id="main" version="1.1" xmlns="http://www.w3.org/2000/svg" xmlns:xlink="http://www.w3.org/1999/xlink" xml:space="preserve" onload="init(evt)">
<style type="text/css"><![CDATA[
.edge:hover path { stroke: red; }
.edge:hover polygon { stroke: red; fill: red; }
]]></style>
<script type="text/javascript"><![CDATA[
var edges = document.getElementsByTagName('g');
if (edges && edges.length) {
  for (var i=0;i<edges.length;i++) {
    if (edges[i].id.substr(0,4)=='edge') {
      edges[i].setAttribute('class','edge');
    }
  }
}
]]></script>
        <defs>
                <circle id="rim" cx="0" cy="0" r="7"/>
                <circle id="rim2" cx="0" cy="0" r="3.5"/>
                <g id="zoomPlus">
                        <use xlink:href="#rim" fill="#404040">
                                <set attributeName="fill" to="#808080" begin="zoomplus.mouseover" end="zoomplus.mouseout"/>
                        </use>
                        <path d="M-4,0h8M0,-4v8" fill="none" stroke="white" stroke-width="1.5" pointer-events="none"/>
                </g>
                <g id="zoomMin">
                        <use xlink:href="#rim" fill="#404040">
                                <set attributeName="fill" to="#808080" begin="zoomminus.mouseover" end="zoomminus.mouseout"/>
                        </use>
                        <path d="M-4,0h8" fill="none" stroke="white" stroke-width="1.5" pointer-events="none"/>
                </g>
                <g id="dirArrow">
                        <path fill="none" stroke="white" stroke-width="1.5" d="M0,-3.0v7 M-2.5,-0.5L0,-3.0L2.5,-0.5"/>
                </g>
               <g id="resetDef">
                       <use xlink:href="#rim2" fill="#404040">
                               <set attributeName="fill" to="#808080" begin="reset.mouseover" end="reset.mouseout"/>
                       </use>
               </g>
        </defs>

<script type="text/javascript">
var viewWidth = 315;
var viewHeight = 798;
var sectionId = 'dynsection-0';
</script>
<script xlink:href="../../svgpan.js"/>
<svg id="graph" class="graph">
<g id="viewport">
<title>mom_dynamics_unsplit::mom_dyn_unsplit_cs</title>
<polygon fill="white" stroke="none" points="-4,4 -4,-794.419 311,-794.419 311,4 -4,4"/>
<!-- Node1 -->
<g id="node1" class="node"><title>Node1</title>
<polygon fill="#bfbfbf" stroke="black" points="208,-417.419 208,-447.419 307,-447.419 307,-417.419 208,-417.419"/>
<text text-anchor="start" x="216" y="-435.419" font-family="Helvetica,sans-Serif" font-size="10.00">mom_dynamics_unsplit</text>
<text text-anchor="middle" x="257.5" y="-424.419" font-family="Helvetica,sans-Serif" font-size="10.00">::mom_dyn_unsplit_cs</text>
</g>
<!-- Node2 -->
<g id="node2" class="node"><title>Node2</title>
<polygon fill="white" stroke="#bfbfbf" points="3.5,-767.919 3.5,-786.919 92.5,-786.919 92.5,-767.919 3.5,-767.919"/>
<text text-anchor="middle" x="48" y="-774.919" font-family="Helvetica,sans-Serif" font-size="10.00">type(ale_cs), pointer</text>
</g>
<!-- Node2&#45;&gt;Node1 -->
<g id="edge1" class="edge"><title>Node2&#45;&gt;Node1</title>
<path fill="none" stroke="#9a32cd" stroke-dasharray="5,2" d="M102.775,-781.107C132.252,-780.132 167.305,-773.594 190,-751.419 234.308,-708.126 251.474,-505.452 255.511,-447.771"/>
<polygon fill="#9a32cd" stroke="#9a32cd" points="102.565,-777.61 92.6106,-781.237 102.654,-784.609 102.565,-777.61"/>
<text text-anchor="middle" x="152" y="-782.419" font-family="Helvetica,sans-Serif" font-size="10.00"> ale_csp</text>
</g>
<!-- Node3 -->
<g id="node3" class="node"><title>Node3</title>
<polygon fill="white" stroke="#bfbfbf" points="29,-726.919 29,-745.919 67,-745.919 67,-726.919 29,-726.919"/>
<text text-anchor="middle" x="48" y="-733.919" font-family="Helvetica,sans-Serif" font-size="10.00">logical</text>
</g>
<!-- Node3&#45;&gt;Node1 -->
<g id="edge2" class="edge"><title>Node3&#45;&gt;Node1</title>
<path fill="none" stroke="#9a32cd" stroke-dasharray="5,2" d="M77.0409,-732.701C113.484,-727.308 174.322,-716.203 190,-700.419 226.401,-663.771 248.641,-498.913 254.767,-447.668"/>
<polygon fill="#9a32cd" stroke="#9a32cd" points="76.4339,-729.252 67.029,-734.13 77.4232,-736.182 76.4339,-729.252"/>
<text text-anchor="middle" x="152" y="-739.419" font-family="Helvetica,sans-Serif" font-size="10.00"> debug</text>
<text text-anchor="middle" x="152" y="-728.419" font-family="Helvetica,sans-Serif" font-size="10.00">module_is_initialized</text>
</g>
<!-- Node4 -->
<g id="node4" class="node"><title>Node4</title>
<polygon fill="white" stroke="#bfbfbf" points="0,-677.419 0,-707.419 96,-707.419 96,-677.419 0,-677.419"/>
<text text-anchor="start" x="8" y="-695.419" font-family="Helvetica,sans-Serif" font-size="10.00">type(ocean_obc_type)</text>
<text text-anchor="middle" x="48" y="-684.419" font-family="Helvetica,sans-Serif" font-size="10.00">, pointer</text>
</g>
<!-- Node4&#45;&gt;Node1 -->
<g id="edge3" class="edge"><title>Node4&#45;&gt;Node1</title>
<path fill="none" stroke="#9a32cd" stroke-dasharray="5,2" d="M106.21,-688.008C134.778,-682.967 167.875,-672.399 190,-650.419 247.827,-592.971 255.649,-486.819 256.498,-447.544"/>
<polygon fill="#9a32cd" stroke="#9a32cd" points="105.651,-684.553 96.3192,-689.57 106.743,-691.467 105.651,-684.553"/>
<text text-anchor="middle" x="152" y="-688.419" font-family="Helvetica,sans-Serif" font-size="10.00"> obc</text>
</g>
<!-- Node5 -->
<g id="node5" class="node"><title>Node5</title>
<polygon fill="white" stroke="#bfbfbf" points="2.5,-628.419 2.5,-658.419 93.5,-658.419 93.5,-628.419 2.5,-628.419"/>
<text text-anchor="start" x="10.5" y="-646.419" font-family="Helvetica,sans-Serif" font-size="10.00">type(open_boundary</text>
<text text-anchor="middle" x="48" y="-635.419" font-family="Helvetica,sans-Serif" font-size="10.00">_cs), pointer</text>
</g>
<!-- Node5&#45;&gt;Node1 -->
<g id="edge4" class="edge"><title>Node5&#45;&gt;Node1</title>
<path fill="none" stroke="#9a32cd" stroke-dasharray="5,2" d="M103.652,-637.729C132.433,-632.165 166.524,-621.164 190,-599.419 235.331,-557.429 250.321,-480.492 254.787,-447.785"/>
<polygon fill="#9a32cd" stroke="#9a32cd" points="102.961,-634.297 93.7198,-639.479 104.175,-641.191 102.961,-634.297"/>
<text text-anchor="middle" x="152" y="-638.419" font-family="Helvetica,sans-Serif" font-size="10.00"> open_boundary_csp</text>
</g>
<!-- Node6 -->
<g id="node6" class="node"><title>Node6</title>
<polygon fill="white" stroke="#bfbfbf" points="8,-579.419 8,-609.419 88,-609.419 88,-579.419 8,-579.419"/>
<text text-anchor="start" x="16" y="-597.419" font-family="Helvetica,sans-Serif" font-size="10.00">type(set_visc_cs),</text>
<text text-anchor="middle" x="48" y="-586.419" font-family="Helvetica,sans-Serif" font-size="10.00"> pointer</text>
</g>
<!-- Node6&#45;&gt;Node1 -->
<g id="edge5" class="edge"><title>Node6&#45;&gt;Node1</title>
<path fill="none" stroke="#9a32cd" stroke-dasharray="5,2" d="M98.2719,-587.457C127.496,-581.257 163.821,-569.71 190,-548.419 223.497,-521.175 243.424,-472.284 251.816,-447.584"/>
<polygon fill="#9a32cd" stroke="#9a32cd" points="97.392,-584.063 88.2595,-589.435 98.7482,-590.931 97.392,-584.063"/>
<text text-anchor="middle" x="152" y="-587.419" font-family="Helvetica,sans-Serif" font-size="10.00"> set_visc_csp</text>
</g>
<!-- Node7 -->
<g id="node7" class="node"><title>Node7</title>
<polygon fill="white" stroke="#bfbfbf" points="9,-530.419 9,-560.419 87,-560.419 87,-530.419 9,-530.419"/>
<text text-anchor="start" x="17" y="-548.419" font-family="Helvetica,sans-Serif" font-size="10.00">type(vertvisc_cs),</text>
<text text-anchor="middle" x="48" y="-537.419" font-family="Helvetica,sans-Serif" font-size="10.00"> pointer</text>
</g>
<!-- Node7&#45;&gt;Node1 -->
<g id="edge6" class="edge"><title>Node7&#45;&gt;Node1</title>
<path fill="none" stroke="#9a32cd" stroke-dasharray="5,2" d="M97.2589,-537.138C125.763,-530.729 161.691,-519.913 190,-502.419 213.386,-487.968 234.1,-463.304 245.968,-447.443"/>
<polygon fill="#9a32cd" stroke="#9a32cd" points="96.1692,-533.791 87.1212,-539.304 97.6319,-540.637 96.1692,-533.791"/>
<text text-anchor="middle" x="152" y="-536.419" font-family="Helvetica,sans-Serif" font-size="10.00"> vertvisc_csp</text>
</g>
<!-- Node8 -->
<g id="node8" class="node"><title>Node8</title>
<polygon fill="white" stroke="#bfbfbf" points="13.5,-491.919 13.5,-510.919 82.5,-510.919 82.5,-491.919 13.5,-491.919"/>
<text text-anchor="middle" x="48" y="-498.919" font-family="Helvetica,sans-Serif" font-size="10.00">cont_diag_ptrs</text>
</g>
<!-- Node8&#45;&gt;Node1 -->
<g id="edge7" class="edge"><title>Node8&#45;&gt;Node1</title>
<path fill="none" stroke="#9a32cd" stroke-dasharray="5,2" d="M92.5568,-492.267C120.764,-485.787 158.058,-476.171 190,-464.419 202.866,-459.685 216.594,-453.318 228.216,-447.51"/>
<polygon fill="#9a32cd" stroke="#9a32cd" points="91.5879,-488.898 82.6023,-494.511 93.1272,-495.727 91.5879,-488.898"/>
<text text-anchor="middle" x="152" y="-490.419" font-family="Helvetica,sans-Serif" font-size="10.00"> cdp</text>
</g>
<!-- Node9 -->
<g id="node9" class="node"><title>Node9</title>
<polygon fill="white" stroke="#bfbfbf" points="7.5,-442.419 7.5,-472.419 88.5,-472.419 88.5,-442.419 7.5,-442.419"/>
<text text-anchor="start" x="15.5" y="-460.419" font-family="Helvetica,sans-Serif" font-size="10.00">type(hor_visc_cs),</text>
<text text-anchor="middle" x="48" y="-449.419" font-family="Helvetica,sans-Serif" font-size="10.00"> pointer</text>
</g>
<!-- Node9&#45;&gt;Node1 -->
<g id="edge8" class="edge"><title>Node9&#45;&gt;Node1</title>
<path fill="none" stroke="#9a32cd" stroke-dasharray="5,2" d="M98.4518,-451.461C131.601,-447.467 175.049,-442.232 207.999,-438.262"/>
<polygon fill="#9a32cd" stroke="#9a32cd" points="98.0271,-447.987 88.5176,-452.658 98.8645,-454.936 98.0271,-447.987"/>
<text text-anchor="middle" x="152" y="-452.419" font-family="Helvetica,sans-Serif" font-size="10.00"> hor_visc_csp</text>
</g>
<!-- Node10 -->
<g id="node10" class="node"><title>Node10</title>
<polygon fill="white" stroke="#bfbfbf" points="6.5,-393.419 6.5,-423.419 89.5,-423.419 89.5,-393.419 6.5,-393.419"/>
<text text-anchor="start" x="14.5" y="-411.419" font-family="Helvetica,sans-Serif" font-size="10.00">type(continuity_cs)</text>
<text text-anchor="middle" x="48" y="-400.419" font-family="Helvetica,sans-Serif" font-size="10.00">, pointer</text>
</g>
<!-- Node10&#45;&gt;Node1 -->
<g id="edge9" class="edge"><title>Node10&#45;&gt;Node1</title>
<path fill="none" stroke="#9a32cd" stroke-dasharray="5,2" d="M99.6735,-414.086C126.524,-417.109 160.057,-420.919 190,-424.419 195.775,-425.094 201.831,-425.81 207.837,-426.526"/>
<polygon fill="#9a32cd" stroke="#9a32cd" points="100.06,-410.607 89.7316,-412.967 99.2778,-417.563 100.06,-410.607"/>
<text text-anchor="middle" x="152" y="-427.419" font-family="Helvetica,sans-Serif" font-size="10.00"> continuity_csp</text>
</g>
<!-- Node11 -->
<g id="node11" class="node"><title>Node11</title>
<polygon fill="white" stroke="#bfbfbf" points="5,-344.419 5,-374.419 91,-374.419 91,-344.419 5,-344.419"/>
<text text-anchor="start" x="13" y="-362.419" font-family="Helvetica,sans-Serif" font-size="10.00">type(coriolisadv_cs)</text>
<text text-anchor="middle" x="48" y="-351.419" font-family="Helvetica,sans-Serif" font-size="10.00">, pointer</text>
</g>
<!-- Node11&#45;&gt;Node1 -->
<g id="edge10" class="edge"><title>Node11&#45;&gt;Node1</title>
<path fill="none" stroke="#9a32cd" stroke-dasharray="5,2" d="M101.148,-372.981C128.006,-380.46 161.098,-390.445 190,-401.419 202.147,-406.031 215.171,-411.889 226.445,-417.268"/>
<polygon fill="#9a32cd" stroke="#9a32cd" points="101.751,-369.517 91.1807,-370.24 99.895,-376.266 101.751,-369.517"/>
<text text-anchor="middle" x="152" y="-404.419" font-family="Helvetica,sans-Serif" font-size="10.00"> coriolisadv_csp</text>
</g>
<!-- Node12 -->
<g id="node12" class="node"><title>Node12</title>
<polygon fill="white" stroke="#bfbfbf" points="24.5,-305.919 24.5,-324.919 71.5,-324.919 71.5,-305.919 24.5,-305.919"/>
<text text-anchor="middle" x="48" y="-312.919" font-family="Helvetica,sans-Serif" font-size="10.00">diag_ctrl</text>
</g>
<!-- Node12&#45;&gt;Node1 -->
<g id="edge11" class="edge"><title>Node12&#45;&gt;Node1</title>
<path fill="none" stroke="#9a32cd" stroke-dasharray="5,2" d="M81.6101,-321.874C111.5,-328.829 156.125,-341.898 190,-363.419 212.749,-377.872 233.336,-401.664 245.388,-417.188"/>
<polygon fill="#9a32cd" stroke="#9a32cd" points="82.2157,-318.423 71.6939,-319.665 80.6936,-325.256 82.2157,-318.423"/>
<text text-anchor="middle" x="152" y="-366.419" font-family="Helvetica,sans-Serif" font-size="10.00"> diag</text>
</g>
<!-- Node13 -->
<g id="node13" class="node"><title>Node13</title>
<polygon fill="white" stroke="#bfbfbf" points="9.5,-256.419 9.5,-286.419 86.5,-286.419 86.5,-256.419 9.5,-256.419"/>
<text text-anchor="start" x="17.5" y="-274.419" font-family="Helvetica,sans-Serif" font-size="10.00">type(tidal_forcing</text>
<text text-anchor="middle" x="48" y="-263.419" font-family="Helvetica,sans-Serif" font-size="10.00">_cs), pointer</text>
</g>
<!-- Node13&#45;&gt;Node1 -->
<g id="edge12" class="edge"><title>Node13&#45;&gt;Node1</title>
<path fill="none" stroke="#9a32cd" stroke-dasharray="5,2" d="M96.7724,-277.688C126.24,-283.585 163.361,-294.894 190,-316.419 223.584,-343.555 243.471,-392.494 251.836,-417.229"/>
<polygon fill="#9a32cd" stroke="#9a32cd" points="97.1689,-274.202 86.6984,-275.821 95.8927,-281.085 97.1689,-274.202"/>
<text text-anchor="middle" x="152" y="-319.419" font-family="Helvetica,sans-Serif" font-size="10.00"> tides_csp</text>
</g>
<!-- Node14 -->
<g id="node14" class="node"><title>Node14</title>
<polygon fill="white" stroke="#bfbfbf" points="6,-207.419 6,-237.419 90,-237.419 90,-207.419 6,-207.419"/>
<text text-anchor="start" x="14" y="-225.419" font-family="Helvetica,sans-Serif" font-size="10.00">type(pressureforce</text>
<text text-anchor="middle" x="48" y="-214.419" font-family="Helvetica,sans-Serif" font-size="10.00">_cs), pointer</text>
</g>
<!-- Node14&#45;&gt;Node1 -->
<g id="edge13" class="edge"><title>Node14&#45;&gt;Node1</title>
<path fill="none" stroke="#9a32cd" stroke-dasharray="5,2" d="M100.256,-227.912C129.704,-233.492 165.575,-244.742 190,-267.419 234.815,-309.027 250.087,-384.976 254.707,-417.255"/>
<polygon fill="#9a32cd" stroke="#9a32cd" points="100.587,-224.417 90.1375,-226.165 99.3963,-231.315 100.587,-224.417"/>
<text text-anchor="middle" x="152" y="-270.419" font-family="Helvetica,sans-Serif" font-size="10.00"> pressureforce_csp</text>
</g>
<!-- Node15 -->
<g id="node15" class="node"><title>Node15</title>
<polygon fill="white" stroke="#bfbfbf" points="27.5,-153.919 27.5,-172.919 68.5,-172.919 68.5,-153.919 27.5,-153.919"/>
<text text-anchor="middle" x="48" y="-160.919" font-family="Helvetica,sans-Serif" font-size="10.00">integer</text>
</g>
<!-- Node15&#45;&gt;Node1 -->
<g id="edge14" class="edge"><title>Node15&#45;&gt;Node1</title>
<path fill="none" stroke="#9a32cd" stroke-dasharray="5,2" d="M78.5777,-153.152C109.716,-144.385 158.501,-136.715 190,-161.419 231.264,-193.782 250.296,-365.229 255.186,-417.366"/>
<polygon fill="#9a32cd" stroke="#9a32cd" points="77.3058,-149.88 68.7449,-156.121 79.3298,-156.581 77.3058,-149.88"/>
<text text-anchor="middle" x="152" y="-219.419" font-family="Helvetica,sans-Serif" font-size="10.00"> id_vh</text>
<text text-anchor="middle" x="152" y="-208.419" font-family="Helvetica,sans-Serif" font-size="10.00">id_cau</text>
<text text-anchor="middle" x="152" y="-197.419" font-family="Helvetica,sans-Serif" font-size="10.00">id_uh</text>
<text text-anchor="middle" x="152" y="-186.419" font-family="Helvetica,sans-Serif" font-size="10.00">id_cav</text>
<text text-anchor="middle" x="152" y="-175.419" font-family="Helvetica,sans-Serif" font-size="10.00">id_pfu</text>
<text text-anchor="middle" x="152" y="-164.419" font-family="Helvetica,sans-Serif" font-size="10.00">id_pfv</text>
</g>
<!-- Node16 -->
<g id="node16" class="node"><title>Node16</title>
<polygon fill="white" stroke="#bfbfbf" points="33,-42.9189 33,-61.9189 63,-61.9189 63,-42.9189 33,-42.9189"/>
<text text-anchor="middle" x="48" y="-49.9189" font-family="Helvetica,sans-Serif" font-size="10.00">real</text>
</g>
<!-- Node16&#45;&gt;Node1 -->
<g id="edge15" class="edge"><title>Node16&#45;&gt;Node1</title>
<path fill="none" stroke="#9a32cd" stroke-dasharray="5,2" d="M73.3684,-44.1234C104.311,-35.2845 157.565,-25.9831 190,-53.4189 246.742,-101.416 255.085,-352.279 256.297,-417.113"/>
<polygon fill="#9a32cd" stroke="#9a32cd" points="71.961,-40.8939 63.4248,-47.1695 74.0114,-47.5869 71.961,-40.8939"/>
<text text-anchor="middle" x="152" y="-133.419" font-family="Helvetica,sans-Serif" font-size="10.00"> cau</text>
<text text-anchor="middle" x="152" y="-122.419" font-family="Helvetica,sans-Serif" font-size="10.00">cav</text>
<text text-anchor="middle" x="152" y="-111.419" font-family="Helvetica,sans-Serif" font-size="10.00">pfu</text>
<text text-anchor="middle" x="152" y="-100.419" font-family="Helvetica,sans-Serif" font-size="10.00">pfv</text>
<text text-anchor="middle" x="152" y="-89.4189" font-family="Helvetica,sans-Serif" font-size="10.00">diffu</text>
<text text-anchor="middle" x="152" y="-78.4189" font-family="Helvetica,sans-Serif" font-size="10.00">diffv</text>
<text text-anchor="middle" x="152" y="-67.4189" font-family="Helvetica,sans-Serif" font-size="10.00">taux_bot</text>
<text text-anchor="middle" x="152" y="-56.4189" font-family="Helvetica,sans-Serif" font-size="10.00">tauy_bot</text>
</g>
<!-- Node17 -->
<g id="node17" class="node"><title>Node17</title>
<polygon fill="white" stroke="#bfbfbf" points="12,-4.91888 12,-23.9189 84,-23.9189 84,-4.91888 12,-4.91888"/>
<text text-anchor="middle" x="48" y="-11.9189" font-family="Helvetica,sans-Serif" font-size="10.00">accel_diag_ptrs</text>
</g>
<!-- Node17&#45;&gt;Node1 -->
<g id="edge16" class="edge"><title>Node17&#45;&gt;Node1</title>
<path fill="none" stroke="#9a32cd" stroke-dasharray="5,2" d="M93.4244,-3.02593C124.253,2.02474 164.252,2.46873 190,-20.4189 250.65,-74.331 256.077,-349.334 256.486,-417.243"/>
<polygon fill="#9a32cd" stroke="#9a32cd" points="92.5517,0.372097 83.355,-4.88832 93.8248,-6.51116 92.5517,0.372097"/>
<text text-anchor="middle" x="152" y="-23.4189" font-family="Helvetica,sans-Serif" font-size="10.00"> adp</text>
</g>
</g>
</svg>
        <g id="navigator" transform="translate(0 0)" fill="#404254">
                <rect fill="#f2f5e9" fill-opacity="0.5" stroke="#606060" stroke-width=".5" x="0" y="0" width="60" height="60"/>
                <use id="zoomplus" xlink:href="#zoomPlus" x="17" y="9" onmousedown="handleZoom(evt,'in')"/>
                <use id="zoomminus" xlink:href="#zoomMin" x="42" y="9" onmousedown="handleZoom(evt,'out')"/>
                <use id="reset" xlink:href="#resetDef" x="30" y="36" onmousedown="handleReset()"/>
                <g id="arrowUp" xlink:href="#dirArrow" transform="translate(30 24)" onmousedown="handlePan(0,-1)">
                  <use xlink:href="#rim" fill="#404040">
                        <set attributeName="fill" to="#808080" begin="arrowUp.mouseover" end="arrowUp.mouseout"/>
                  </use>
                  <path fill="none" stroke="white" stroke-width="1.5" d="M0,-3.0v7 M-2.5,-0.5L0,-3.0L2.5,-0.5"/>
                </g>
                <g id="arrowRight" xlink:href="#dirArrow" transform="rotate(90) translate(36 -43)" onmousedown="handlePan(1,0)">
                  <use xlink:href="#rim" fill="#404040">
                        <set attributeName="fill" to="#808080" begin="arrowRight.mouseover" end="arrowRight.mouseout"/>
                  </use>
                  <path fill="none" stroke="white" stroke-width="1.5" d="M0,-3.0v7 M-2.5,-0.5L0,-3.0L2.5,-0.5"/>
                </g>
                <g id="arrowDown" xlink:href="#dirArrow" transform="rotate(180) translate(-30 -48)" onmousedown="handlePan(0,1)">
                  <use xlink:href="#rim" fill="#404040">
                        <set attributeName="fill" to="#808080" begin="arrowDown.mouseover" end="arrowDown.mouseout"/>
                  </use>
                  <path fill="none" stroke="white" stroke-width="1.5" d="M0,-3.0v7 M-2.5,-0.5L0,-3.0L2.5,-0.5"/>
                </g>
                <g id="arrowLeft" xlink:href="#dirArrow" transform="rotate(270) translate(-36 17)" onmousedown="handlePan(-1,0)">
                  <use xlink:href="#rim" fill="#404040">
                        <set attributeName="fill" to="#808080" begin="arrowLeft.mouseover" end="arrowLeft.mouseout"/>
                  </use>
                  <path fill="none" stroke="white" stroke-width="1.5" d="M0,-3.0v7 M-2.5,-0.5L0,-3.0L2.5,-0.5"/>
                </g>
        </g>
        <svg viewBox="0 0 15 15" width="100%" height="30px" preserveAspectRatio="xMaxYMin meet">
         <g id="arrow_out" transform="scale(0.3 0.3)">
          <a xlink:href="structmom__dynamics__unsplit_1_1mom__dyn__unsplit__cs__coll__graph_org.svg" target="_base">
           <rect id="button" ry="5" rx="5" y="6" x="6" height="38" width="38"
                fill="#f2f5e9" fill-opacity="0.5" stroke="#606060" stroke-width="1.0"/>
           <path id="arrow"
             d="M 11.500037,31.436501 C 11.940474,20.09759 22.043105,11.32322 32.158766,21.979434 L 37.068811,17.246167 C 37.068811,17.246167 37.088388,32 37.088388,32 L 22.160133,31.978069 C 22.160133,31.978069 26.997745,27.140456 26.997745,27.140456 C 18.528582,18.264221 13.291696,25.230495 11.500037,31.436501 z"
             style="fill:#404040;"/>
          </a>
         </g>
        </svg>
</svg>
