<?xml version="1.0" encoding="UTF-8" standalone="no"?>
<!DOCTYPE svg PUBLIC "-//W3C//DTD SVG 1.1//EN"
 "http://www.w3.org/Graphics/SVG/1.1/DTD/svg11.dtd">
<!-- Generated by graphviz version 2.38.0 (20140413.2041)
 -->
<!-- Title: mom_dynamics_legacy_split::mom_dyn_legacy_split_cs Pages: 1 -->
<!--zoomable 1051 -->
<svg id="main" version="1.1" xmlns="http://www.w3.org/2000/svg" xmlns:xlink="http://www.w3.org/1999/xlink" xml:space="preserve" onload="init(evt)">
<style type="text/css"><![CDATA[
.edge:hover path { stroke: red; }
.edge:hover polygon { stroke: red; fill: red; }
]]></style>
<script type="text/javascript"><![CDATA[
var edges = document.getElementsByTagName('g');
if (edges && edges.length) {
  for (var i=0;i<edges.length;i++) {
    if (edges[i].id.substr(0,4)=='edge') {
      edges[i].setAttribute('class','edge');
    }
  }
}
]]></script>
        <defs>
                <circle id="rim" cx="0" cy="0" r="7"/>
                <circle id="rim2" cx="0" cy="0" r="3.5"/>
                <g id="zoomPlus">
                        <use xlink:href="#rim" fill="#404040">
                                <set attributeName="fill" to="#808080" begin="zoomplus.mouseover" end="zoomplus.mouseout"/>
                        </use>
                        <path d="M-4,0h8M0,-4v8" fill="none" stroke="white" stroke-width="1.5" pointer-events="none"/>
                </g>
                <g id="zoomMin">
                        <use xlink:href="#rim" fill="#404040">
                                <set attributeName="fill" to="#808080" begin="zoomminus.mouseover" end="zoomminus.mouseout"/>
                        </use>
                        <path d="M-4,0h8" fill="none" stroke="white" stroke-width="1.5" pointer-events="none"/>
                </g>
                <g id="dirArrow">
                        <path fill="none" stroke="white" stroke-width="1.5" d="M0,-3.0v7 M-2.5,-0.5L0,-3.0L2.5,-0.5"/>
                </g>
               <g id="resetDef">
                       <use xlink:href="#rim2" fill="#404040">
                               <set attributeName="fill" to="#808080" begin="reset.mouseover" end="reset.mouseout"/>
                       </use>
               </g>
        </defs>

<script type="text/javascript">
var viewWidth = 319;
var viewHeight = 1051;
var sectionId = 'dynsection-0';
</script>
<script xlink:href="../../svgpan.js"/>
<svg id="graph" class="graph">
<g id="viewport">
<title>mom_dynamics_legacy_split::mom_dyn_legacy_split_cs</title>
<polygon fill="white" stroke="none" points="-4,4 -4,-1047.32 315,-1047.32 315,4 -4,4"/>
<!-- Node1 -->
<g id="node1" class="node"><title>Node1</title>
<polygon fill="#bfbfbf" stroke="black" points="210,-548.823 210,-589.823 311,-589.823 311,-548.823 210,-548.823"/>
<text text-anchor="start" x="218" y="-577.823" font-family="Helvetica,sans-Serif" font-size="10.00">mom_dynamics_legacy</text>
<text text-anchor="start" x="218" y="-566.823" font-family="Helvetica,sans-Serif" font-size="10.00">_split::mom_dyn_legacy</text>
<text text-anchor="middle" x="260.5" y="-555.823" font-family="Helvetica,sans-Serif" font-size="10.00">_split_cs</text>
</g>
<!-- Node2 -->
<g id="node2" class="node"><title>Node2</title>
<polygon fill="white" stroke="#bfbfbf" points="4.5,-1018.82 4.5,-1037.82 93.5,-1037.82 93.5,-1018.82 4.5,-1018.82"/>
<text text-anchor="middle" x="49" y="-1025.82" font-family="Helvetica,sans-Serif" font-size="10.00">type(ale_cs), pointer</text>
</g>
<!-- Node2&#45;&gt;Node1 -->
<g id="edge1" class="edge"><title>Node2&#45;&gt;Node1</title>
<path fill="none" stroke="#9a32cd" stroke-dasharray="5,2" d="M103.887,-1033.41C133.821,-1033.14 169.459,-1027.17 192,-1004.32 250.841,-944.683 258.405,-668.128 259.364,-589.955"/>
<polygon fill="#9a32cd" stroke="#9a32cd" points="103.609,-1029.91 93.5678,-1033.29 103.525,-1036.91 103.609,-1029.91"/>
<text text-anchor="middle" x="154" y="-1035.32" font-family="Helvetica,sans-Serif" font-size="10.00"> ale_csp</text>
</g>
<!-- Node3 -->
<g id="node3" class="node"><title>Node3</title>
<polygon fill="white" stroke="#bfbfbf" points="30,-912.823 30,-931.823 68,-931.823 68,-912.823 30,-912.823"/>
<text text-anchor="middle" x="49" y="-919.823" font-family="Helvetica,sans-Serif" font-size="10.00">logical</text>
</g>
<!-- Node3&#45;&gt;Node1 -->
<g id="edge2" class="edge"><title>Node3&#45;&gt;Node1</title>
<path fill="none" stroke="#9a32cd" stroke-dasharray="5,2" d="M78.3094,-918.918C115.09,-913.913 176.449,-903.387 192,-887.323 233.708,-844.237 252.684,-653.569 257.928,-590.016"/>
<polygon fill="#9a32cd" stroke="#9a32cd" points="77.6657,-915.473 68.2037,-920.239 78.5729,-922.414 77.6657,-915.473"/>
<text text-anchor="middle" x="154" y="-992.323" font-family="Helvetica,sans-Serif" font-size="10.00"> flux_bt_coupling</text>
<text text-anchor="middle" x="154" y="-981.323" font-family="Helvetica,sans-Serif" font-size="10.00">calc_dtbt</text>
<text text-anchor="middle" x="154" y="-970.323" font-family="Helvetica,sans-Serif" font-size="10.00">bt_use_layer_fluxes</text>
<text text-anchor="middle" x="154" y="-959.323" font-family="Helvetica,sans-Serif" font-size="10.00">readjust_velocity</text>
<text text-anchor="middle" x="154" y="-948.323" font-family="Helvetica,sans-Serif" font-size="10.00">readjust_bt_trans</text>
<text text-anchor="middle" x="154" y="-937.323" font-family="Helvetica,sans-Serif" font-size="10.00">split_bottom_stress</text>
<text text-anchor="middle" x="154" y="-926.323" font-family="Helvetica,sans-Serif" font-size="10.00">debug</text>
<text text-anchor="middle" x="154" y="-915.323" font-family="Helvetica,sans-Serif" font-size="10.00">module_is_initialized</text>
</g>
<!-- Node4 -->
<g id="node4" class="node"><title>Node4</title>
<polygon fill="white" stroke="#bfbfbf" points="0,-863.323 0,-893.323 98,-893.323 98,-863.323 0,-863.323"/>
<text text-anchor="start" x="8" y="-881.323" font-family="Helvetica,sans-Serif" font-size="10.00">type(legacy_barotropic</text>
<text text-anchor="middle" x="49" y="-870.323" font-family="Helvetica,sans-Serif" font-size="10.00">_cs), pointer</text>
</g>
<!-- Node4&#45;&gt;Node1 -->
<g id="edge3" class="edge"><title>Node4&#45;&gt;Node1</title>
<path fill="none" stroke="#9a32cd" stroke-dasharray="5,2" d="M108.035,-874.899C136.922,-870.22 170.229,-859.855 192,-837.323 226.757,-801.351 249.673,-646.2 256.981,-589.863"/>
<polygon fill="#9a32cd" stroke="#9a32cd" points="107.434,-871.449 98.0285,-876.328 108.423,-878.379 107.434,-871.449"/>
<text text-anchor="middle" x="154" y="-875.323" font-family="Helvetica,sans-Serif" font-size="10.00"> barotropic_csp</text>
</g>
<!-- Node5 -->
<g id="node5" class="node"><title>Node5</title>
<polygon fill="white" stroke="#bfbfbf" points="1,-814.323 1,-844.323 97,-844.323 97,-814.323 1,-814.323"/>
<text text-anchor="start" x="9" y="-832.323" font-family="Helvetica,sans-Serif" font-size="10.00">type(ocean_obc_type)</text>
<text text-anchor="middle" x="49" y="-821.323" font-family="Helvetica,sans-Serif" font-size="10.00">, pointer</text>
</g>
<!-- Node5&#45;&gt;Node1 -->
<g id="edge4" class="edge"><title>Node5&#45;&gt;Node1</title>
<path fill="none" stroke="#9a32cd" stroke-dasharray="5,2" d="M107.266,-824.579C136.099,-819.361 169.595,-808.56 192,-786.323 247.166,-731.571 257.4,-632.583 259.187,-589.864"/>
<polygon fill="#9a32cd" stroke="#9a32cd" points="106.596,-821.142 97.2877,-826.201 107.72,-828.051 106.596,-821.142"/>
<text text-anchor="middle" x="154" y="-825.323" font-family="Helvetica,sans-Serif" font-size="10.00"> obc</text>
</g>
<!-- Node6 -->
<g id="node6" class="node"><title>Node6</title>
<polygon fill="white" stroke="#bfbfbf" points="3.5,-765.323 3.5,-795.323 94.5,-795.323 94.5,-765.323 3.5,-765.323"/>
<text text-anchor="start" x="11.5" y="-783.323" font-family="Helvetica,sans-Serif" font-size="10.00">type(open_boundary</text>
<text text-anchor="middle" x="49" y="-772.323" font-family="Helvetica,sans-Serif" font-size="10.00">_cs), pointer</text>
</g>
<!-- Node6&#45;&gt;Node1 -->
<g id="edge5" class="edge"><title>Node6&#45;&gt;Node1</title>
<path fill="none" stroke="#9a32cd" stroke-dasharray="5,2" d="M104.677,-773.854C133.711,-767.879 168.207,-756.394 192,-734.323 234.545,-694.857 250.978,-624.689 256.726,-589.965"/>
<polygon fill="#9a32cd" stroke="#9a32cd" points="103.838,-770.45 94.6615,-775.746 105.137,-777.329 103.838,-770.45"/>
<text text-anchor="middle" x="154" y="-774.323" font-family="Helvetica,sans-Serif" font-size="10.00"> open_boundary_csp</text>
</g>
<!-- Node7 -->
<g id="node7" class="node"><title>Node7</title>
<polygon fill="white" stroke="#bfbfbf" points="9,-716.323 9,-746.323 89,-746.323 89,-716.323 9,-716.323"/>
<text text-anchor="start" x="17" y="-734.323" font-family="Helvetica,sans-Serif" font-size="10.00">type(set_visc_cs),</text>
<text text-anchor="middle" x="49" y="-723.323" font-family="Helvetica,sans-Serif" font-size="10.00"> pointer</text>
</g>
<!-- Node7&#45;&gt;Node1 -->
<g id="edge6" class="edge"><title>Node7&#45;&gt;Node1</title>
<path fill="none" stroke="#9a32cd" stroke-dasharray="5,2" d="M99.2484,-724.018C128.704,-717.604 165.445,-705.79 192,-684.323 222.966,-659.29 242.792,-615.982 252.469,-590.257"/>
<polygon fill="#9a32cd" stroke="#9a32cd" points="98.2643,-720.646 89.162,-726.069 99.6588,-727.506 98.2643,-720.646"/>
<text text-anchor="middle" x="154" y="-722.323" font-family="Helvetica,sans-Serif" font-size="10.00"> set_visc_csp</text>
</g>
<!-- Node8 -->
<g id="node8" class="node"><title>Node8</title>
<polygon fill="white" stroke="#bfbfbf" points="10,-667.323 10,-697.323 88,-697.323 88,-667.323 10,-667.323"/>
<text text-anchor="start" x="18" y="-685.323" font-family="Helvetica,sans-Serif" font-size="10.00">type(vertvisc_cs),</text>
<text text-anchor="middle" x="49" y="-674.323" font-family="Helvetica,sans-Serif" font-size="10.00"> pointer</text>
</g>
<!-- Node8&#45;&gt;Node1 -->
<g id="edge7" class="edge"><title>Node8&#45;&gt;Node1</title>
<path fill="none" stroke="#9a32cd" stroke-dasharray="5,2" d="M97.836,-673.711C126.614,-667.067 163.138,-655.956 192,-638.323 212.735,-625.655 231.637,-605.201 244.129,-589.845"/>
<polygon fill="#9a32cd" stroke="#9a32cd" points="97.017,-670.308 88.0052,-675.879 98.5242,-677.144 97.017,-670.308"/>
<text text-anchor="middle" x="154" y="-672.323" font-family="Helvetica,sans-Serif" font-size="10.00"> vertvisc_csp</text>
</g>
<!-- Node9 -->
<g id="node9" class="node"><title>Node9</title>
<polygon fill="white" stroke="#bfbfbf" points="14.5,-628.823 14.5,-647.823 83.5,-647.823 83.5,-628.823 14.5,-628.823"/>
<text text-anchor="middle" x="49" y="-635.823" font-family="Helvetica,sans-Serif" font-size="10.00">cont_diag_ptrs</text>
</g>
<!-- Node9&#45;&gt;Node1 -->
<g id="edge8" class="edge"><title>Node9&#45;&gt;Node1</title>
<path fill="none" stroke="#9a32cd" stroke-dasharray="5,2" d="M93.5637,-629.207C121.996,-622.714 159.695,-613.071 192,-601.323 201.019,-598.043 210.464,-593.985 219.335,-589.874"/>
<polygon fill="#9a32cd" stroke="#9a32cd" points="92.5274,-625.852 83.535,-631.454 94.0584,-632.682 92.5274,-625.852"/>
<text text-anchor="middle" x="154" y="-626.323" font-family="Helvetica,sans-Serif" font-size="10.00"> cdp</text>
</g>
<!-- Node10 -->
<g id="node10" class="node"><title>Node10</title>
<polygon fill="white" stroke="#bfbfbf" points="8.5,-579.323 8.5,-609.323 89.5,-609.323 89.5,-579.323 8.5,-579.323"/>
<text text-anchor="start" x="16.5" y="-597.323" font-family="Helvetica,sans-Serif" font-size="10.00">type(hor_visc_cs),</text>
<text text-anchor="middle" x="49" y="-586.323" font-family="Helvetica,sans-Serif" font-size="10.00"> pointer</text>
</g>
<!-- Node10&#45;&gt;Node1 -->
<g id="edge9" class="edge"><title>Node10&#45;&gt;Node1</title>
<path fill="none" stroke="#9a32cd" stroke-dasharray="5,2" d="M99.8566,-588.373C133.079,-584.409 176.57,-579.219 209.767,-575.258"/>
<polygon fill="#9a32cd" stroke="#9a32cd" points="99.4133,-584.901 89.8985,-589.562 100.243,-591.852 99.4133,-584.901"/>
<text text-anchor="middle" x="154" y="-589.323" font-family="Helvetica,sans-Serif" font-size="10.00"> hor_visc_csp</text>
</g>
<!-- Node11 -->
<g id="node11" class="node"><title>Node11</title>
<polygon fill="white" stroke="#bfbfbf" points="7.5,-530.323 7.5,-560.323 90.5,-560.323 90.5,-530.323 7.5,-530.323"/>
<text text-anchor="start" x="15.5" y="-548.323" font-family="Helvetica,sans-Serif" font-size="10.00">type(continuity_cs)</text>
<text text-anchor="middle" x="49" y="-537.323" font-family="Helvetica,sans-Serif" font-size="10.00">, pointer</text>
</g>
<!-- Node11&#45;&gt;Node1 -->
<g id="edge10" class="edge"><title>Node11&#45;&gt;Node1</title>
<path fill="none" stroke="#9a32cd" stroke-dasharray="5,2" d="M100.738,-550.968C127.827,-554 161.734,-557.824 192,-561.323 197.744,-561.987 203.762,-562.69 209.739,-563.392"/>
<polygon fill="#9a32cd" stroke="#9a32cd" points="101.038,-547.48 90.7113,-549.847 100.26,-554.437 101.038,-547.48"/>
<text text-anchor="middle" x="154" y="-564.323" font-family="Helvetica,sans-Serif" font-size="10.00"> continuity_csp</text>
</g>
<!-- Node12 -->
<g id="node12" class="node"><title>Node12</title>
<polygon fill="white" stroke="#bfbfbf" points="6,-481.323 6,-511.323 92,-511.323 92,-481.323 6,-481.323"/>
<text text-anchor="start" x="14" y="-499.323" font-family="Helvetica,sans-Serif" font-size="10.00">type(bt_cont_type),</text>
<text text-anchor="middle" x="49" y="-488.323" font-family="Helvetica,sans-Serif" font-size="10.00"> pointer</text>
</g>
<!-- Node12&#45;&gt;Node1 -->
<g id="edge11" class="edge"><title>Node12&#45;&gt;Node1</title>
<path fill="none" stroke="#9a32cd" stroke-dasharray="5,2" d="M101.842,-509.737C129.001,-517.244 162.632,-527.3 192,-538.323 200.21,-541.404 208.821,-545.036 217.04,-548.708"/>
<polygon fill="#9a32cd" stroke="#9a32cd" points="102.717,-506.348 92.1486,-507.089 100.873,-513.1 102.717,-506.348"/>
<text text-anchor="middle" x="154" y="-541.323" font-family="Helvetica,sans-Serif" font-size="10.00"> bt_cont</text>
</g>
<!-- Node13 -->
<g id="node13" class="node"><title>Node13</title>
<polygon fill="white" stroke="#bfbfbf" points="6,-432.323 6,-462.323 92,-462.323 92,-432.323 6,-432.323"/>
<text text-anchor="start" x="14" y="-450.323" font-family="Helvetica,sans-Serif" font-size="10.00">type(coriolisadv_cs)</text>
<text text-anchor="middle" x="49" y="-439.323" font-family="Helvetica,sans-Serif" font-size="10.00">, pointer</text>
</g>
<!-- Node13&#45;&gt;Node1 -->
<g id="edge12" class="edge"><title>Node13&#45;&gt;Node1</title>
<path fill="none" stroke="#9a32cd" stroke-dasharray="5,2" d="M101.679,-460.614C129.798,-469.279 164.378,-482.351 192,-500.323 212.227,-513.483 231.056,-533.67 243.66,-548.815"/>
<polygon fill="#9a32cd" stroke="#9a32cd" points="102.608,-457.239 92.0243,-457.732 100.605,-463.946 102.608,-457.239"/>
<text text-anchor="middle" x="154" y="-503.323" font-family="Helvetica,sans-Serif" font-size="10.00"> coriolisadv_csp</text>
</g>
<!-- Node14 -->
<g id="node14" class="node"><title>Node14</title>
<polygon fill="white" stroke="#bfbfbf" points="25.5,-393.823 25.5,-412.823 72.5,-412.823 72.5,-393.823 25.5,-393.823"/>
<text text-anchor="middle" x="49" y="-400.823" font-family="Helvetica,sans-Serif" font-size="10.00">diag_ctrl</text>
</g>
<!-- Node14&#45;&gt;Node1 -->
<g id="edge13" class="edge"><title>Node14&#45;&gt;Node1</title>
<path fill="none" stroke="#9a32cd" stroke-dasharray="5,2" d="M82.4648,-407.54C113.528,-413.016 160.227,-425.175 192,-451.323 223.709,-477.418 243.497,-522.553 252.92,-548.79"/>
<polygon fill="#9a32cd" stroke="#9a32cd" points="83.0064,-404.083 72.5737,-405.929 81.8809,-410.992 83.0064,-404.083"/>
<text text-anchor="middle" x="154" y="-454.323" font-family="Helvetica,sans-Serif" font-size="10.00"> diag</text>
</g>
<!-- Node15 -->
<g id="node15" class="node"><title>Node15</title>
<polygon fill="white" stroke="#bfbfbf" points="10.5,-344.323 10.5,-374.323 87.5,-374.323 87.5,-344.323 10.5,-344.323"/>
<text text-anchor="start" x="18.5" y="-362.323" font-family="Helvetica,sans-Serif" font-size="10.00">type(tidal_forcing</text>
<text text-anchor="middle" x="49" y="-351.323" font-family="Helvetica,sans-Serif" font-size="10.00">_cs), pointer</text>
</g>
<!-- Node15&#45;&gt;Node1 -->
<g id="edge14" class="edge"><title>Node15&#45;&gt;Node1</title>
<path fill="none" stroke="#9a32cd" stroke-dasharray="5,2" d="M97.5274,-362.494C127.865,-366.84 166.198,-376.955 192,-400.323 236.142,-440.301 251.875,-513.033 257.103,-548.609"/>
<polygon fill="#9a32cd" stroke="#9a32cd" points="97.9366,-359.018 87.5754,-361.23 97.0549,-365.962 97.9366,-359.018"/>
<text text-anchor="middle" x="154" y="-403.323" font-family="Helvetica,sans-Serif" font-size="10.00"> tides_csp</text>
</g>
<!-- Node16 -->
<g id="node16" class="node"><title>Node16</title>
<polygon fill="white" stroke="#bfbfbf" points="7,-295.323 7,-325.323 91,-325.323 91,-295.323 7,-295.323"/>
<text text-anchor="start" x="15" y="-313.323" font-family="Helvetica,sans-Serif" font-size="10.00">type(pressureforce</text>
<text text-anchor="middle" x="49" y="-302.323" font-family="Helvetica,sans-Serif" font-size="10.00">_cs), pointer</text>
</g>
<!-- Node16&#45;&gt;Node1 -->
<g id="edge15" class="edge"><title>Node16&#45;&gt;Node1</title>
<path fill="none" stroke="#9a32cd" stroke-dasharray="5,2" d="M101.336,-319.814C136.465,-327.276 178.954,-338.525 192,-351.323 247.717,-405.982 257.654,-505.612 259.275,-548.632"/>
<polygon fill="#9a32cd" stroke="#9a32cd" points="101.684,-316.312 91.1831,-317.717 100.268,-323.167 101.684,-316.312"/>
<text text-anchor="middle" x="154" y="-354.323" font-family="Helvetica,sans-Serif" font-size="10.00"> pressureforce_csp</text>
</g>
<!-- Node17 -->
<g id="node17" class="node"><title>Node17</title>
<polygon fill="white" stroke="#bfbfbf" points="28.5,-186.823 28.5,-205.823 69.5,-205.823 69.5,-186.823 28.5,-186.823"/>
<text text-anchor="middle" x="49" y="-193.823" font-family="Helvetica,sans-Serif" font-size="10.00">integer</text>
</g>
<!-- Node17&#45;&gt;Node1 -->
<g id="edge16" class="edge"><title>Node17&#45;&gt;Node1</title>
<path fill="none" stroke="#9a32cd" stroke-dasharray="5,2" d="M79.6396,-186.851C111.29,-178.758 161.06,-172.132 192,-198.323 246.091,-244.11 256.969,-477.797 259.038,-548.821"/>
<polygon fill="#9a32cd" stroke="#9a32cd" points="78.3625,-183.573 69.6539,-189.607 80.2246,-190.321 78.3625,-183.573"/>
<text text-anchor="middle" x="154" y="-311.323" font-family="Helvetica,sans-Serif" font-size="10.00"> id_vh</text>
<text text-anchor="middle" x="154" y="-300.323" font-family="Helvetica,sans-Serif" font-size="10.00">id_cau</text>
<text text-anchor="middle" x="154" y="-289.323" font-family="Helvetica,sans-Serif" font-size="10.00">id_uh</text>
<text text-anchor="middle" x="154" y="-278.323" font-family="Helvetica,sans-Serif" font-size="10.00">id_du_adj</text>
<text text-anchor="middle" x="154" y="-267.323" font-family="Helvetica,sans-Serif" font-size="10.00">id_cav</text>
<text text-anchor="middle" x="154" y="-256.323" font-family="Helvetica,sans-Serif" font-size="10.00">id_dv_adj</text>
<text text-anchor="middle" x="154" y="-245.323" font-family="Helvetica,sans-Serif" font-size="10.00">id_uav</text>
<text text-anchor="middle" x="154" y="-234.323" font-family="Helvetica,sans-Serif" font-size="10.00">id_dv_adj2</text>
<text text-anchor="middle" x="154" y="-223.323" font-family="Helvetica,sans-Serif" font-size="10.00">id_vav</text>
<text text-anchor="middle" x="154" y="-212.323" font-family="Helvetica,sans-Serif" font-size="10.00">id_du_adj2</text>
<text text-anchor="middle" x="154" y="-201.323" font-family="Helvetica,sans-Serif" font-size="10.00">...</text>
</g>
<!-- Node18 -->
<g id="node18" class="node"><title>Node18</title>
<polygon fill="white" stroke="#bfbfbf" points="34,-42.8229 34,-61.8229 64,-61.8229 64,-42.8229 34,-42.8229"/>
<text text-anchor="middle" x="49" y="-49.8229" font-family="Helvetica,sans-Serif" font-size="10.00">real</text>
</g>
<!-- Node18&#45;&gt;Node1 -->
<g id="edge17" class="edge"><title>Node18&#45;&gt;Node1</title>
<path fill="none" stroke="#9a32cd" stroke-dasharray="5,2" d="M73.8955,-44.4137C105.185,-35.7175 159.828,-26.4924 192,-55.3229 229.535,-88.9592 253.063,-457.263 258.359,-548.814"/>
<polygon fill="#9a32cd" stroke="#9a32cd" points="72.8311,-41.0787 64.2456,-47.2868 74.8286,-47.7876 72.8311,-41.0787"/>
<text text-anchor="middle" x="154" y="-168.323" font-family="Helvetica,sans-Serif" font-size="10.00"> cau</text>
<text text-anchor="middle" x="154" y="-157.323" font-family="Helvetica,sans-Serif" font-size="10.00">cav</text>
<text text-anchor="middle" x="154" y="-146.323" font-family="Helvetica,sans-Serif" font-size="10.00">begw</text>
<text text-anchor="middle" x="154" y="-135.323" font-family="Helvetica,sans-Serif" font-size="10.00">be</text>
<text text-anchor="middle" x="154" y="-124.323" font-family="Helvetica,sans-Serif" font-size="10.00">eta_pf</text>
<text text-anchor="middle" x="154" y="-113.323" font-family="Helvetica,sans-Serif" font-size="10.00">vhbt</text>
<text text-anchor="middle" x="154" y="-102.323" font-family="Helvetica,sans-Serif" font-size="10.00">pbce</text>
<text text-anchor="middle" x="154" y="-91.3229" font-family="Helvetica,sans-Serif" font-size="10.00">uhbt</text>
<text text-anchor="middle" x="154" y="-80.3229" font-family="Helvetica,sans-Serif" font-size="10.00">uhbt_in</text>
<text text-anchor="middle" x="154" y="-69.3229" font-family="Helvetica,sans-Serif" font-size="10.00">vhbt_in</text>
<text text-anchor="middle" x="154" y="-58.3229" font-family="Helvetica,sans-Serif" font-size="10.00">...</text>
</g>
<!-- Node19 -->
<g id="node19" class="node"><title>Node19</title>
<polygon fill="white" stroke="#bfbfbf" points="13,-4.82288 13,-23.8229 85,-23.8229 85,-4.82288 13,-4.82288"/>
<text text-anchor="middle" x="49" y="-11.8229" font-family="Helvetica,sans-Serif" font-size="10.00">accel_diag_ptrs</text>
</g>
<!-- Node19&#45;&gt;Node1 -->
<g id="edge18" class="edge"><title>Node19&#45;&gt;Node1</title>
<path fill="none" stroke="#9a32cd" stroke-dasharray="5,2" d="M94.7503,-2.95508C125.986,2.08521 166.496,2.37721 192,-21.3229 231.499,-58.0274 253.708,-453.529 258.508,-548.777"/>
<polygon fill="#9a32cd" stroke="#9a32cd" points="93.7562,0.42132 84.5478,-4.81863 95.014,-6.46475 93.7562,0.42132"/>
<text text-anchor="middle" x="154" y="-24.3229" font-family="Helvetica,sans-Serif" font-size="10.00"> adp</text>
</g>
</g>
</svg>
        <g id="navigator" transform="translate(0 0)" fill="#404254">
                <rect fill="#f2f5e9" fill-opacity="0.5" stroke="#606060" stroke-width=".5" x="0" y="0" width="60" height="60"/>
                <use id="zoomplus" xlink:href="#zoomPlus" x="17" y="9" onmousedown="handleZoom(evt,'in')"/>
                <use id="zoomminus" xlink:href="#zoomMin" x="42" y="9" onmousedown="handleZoom(evt,'out')"/>
                <use id="reset" xlink:href="#resetDef" x="30" y="36" onmousedown="handleReset()"/>
                <g id="arrowUp" xlink:href="#dirArrow" transform="translate(30 24)" onmousedown="handlePan(0,-1)">
                  <use xlink:href="#rim" fill="#404040">
                        <set attributeName="fill" to="#808080" begin="arrowUp.mouseover" end="arrowUp.mouseout"/>
                  </use>
                  <path fill="none" stroke="white" stroke-width="1.5" d="M0,-3.0v7 M-2.5,-0.5L0,-3.0L2.5,-0.5"/>
                </g>
                <g id="arrowRight" xlink:href="#dirArrow" transform="rotate(90) translate(36 -43)" onmousedown="handlePan(1,0)">
                  <use xlink:href="#rim" fill="#404040">
                        <set attributeName="fill" to="#808080" begin="arrowRight.mouseover" end="arrowRight.mouseout"/>
                  </use>
                  <path fill="none" stroke="white" stroke-width="1.5" d="M0,-3.0v7 M-2.5,-0.5L0,-3.0L2.5,-0.5"/>
                </g>
                <g id="arrowDown" xlink:href="#dirArrow" transform="rotate(180) translate(-30 -48)" onmousedown="handlePan(0,1)">
                  <use xlink:href="#rim" fill="#404040">
                        <set attributeName="fill" to="#808080" begin="arrowDown.mouseover" end="arrowDown.mouseout"/>
                  </use>
                  <path fill="none" stroke="white" stroke-width="1.5" d="M0,-3.0v7 M-2.5,-0.5L0,-3.0L2.5,-0.5"/>
                </g>
                <g id="arrowLeft" xlink:href="#dirArrow" transform="rotate(270) translate(-36 17)" onmousedown="handlePan(-1,0)">
                  <use xlink:href="#rim" fill="#404040">
                        <set attributeName="fill" to="#808080" begin="arrowLeft.mouseover" end="arrowLeft.mouseout"/>
                  </use>
                  <path fill="none" stroke="white" stroke-width="1.5" d="M0,-3.0v7 M-2.5,-0.5L0,-3.0L2.5,-0.5"/>
                </g>
        </g>
        <svg viewBox="0 0 15 15" width="100%" height="30px" preserveAspectRatio="xMaxYMin meet">
         <g id="arrow_out" transform="scale(0.3 0.3)">
          <a xlink:href="structmom__dynamics__legacy__split_1_1mom__dyn__legacy__split__cs__coll__graph_org.svg" target="_base">
           <rect id="button" ry="5" rx="5" y="6" x="6" height="38" width="38"
                fill="#f2f5e9" fill-opacity="0.5" stroke="#606060" stroke-width="1.0"/>
           <path id="arrow"
             d="M 11.500037,31.436501 C 11.940474,20.09759 22.043105,11.32322 32.158766,21.979434 L 37.068811,17.246167 C 37.068811,17.246167 37.088388,32 37.088388,32 L 22.160133,31.978069 C 22.160133,31.978069 26.997745,27.140456 26.997745,27.140456 C 18.528582,18.264221 13.291696,25.230495 11.500037,31.436501 z"
             style="fill:#404040;"/>
          </a>
         </g>
        </svg>
</svg>
