<?xml version="1.0" encoding="UTF-8" standalone="no"?>
<!DOCTYPE svg PUBLIC "-//W3C//DTD SVG 1.1//EN"
 "http://www.w3.org/Graphics/SVG/1.1/DTD/svg11.dtd">
<!-- Generated by graphviz version 2.38.0 (20140413.2041)
 -->
<!-- Title: mom_regridding::regridding_memory_deallocation Pages: 1 -->
<svg width="253pt" height="39pt"
 viewBox="0.00 0.00 253.00 39.00" xmlns="http://www.w3.org/2000/svg" xmlns:xlink="http://www.w3.org/1999/xlink">
<g id="graph0" class="graph" transform="scale(1 1) rotate(0) translate(4 35)">
<title>mom_regridding::regridding_memory_deallocation</title>
<polygon fill="white" stroke="none" points="-4,4 -4,-35 249,-35 249,4 -4,4"/>
<!-- Node162 -->
<g id="node1" class="node"><title>Node162</title>
<polygon fill="#bfbfbf" stroke="black" points="0,-0.5 0,-30.5 116,-30.5 116,-0.5 0,-0.5"/>
<text text-anchor="start" x="8" y="-18.5" font-family="Helvetica,sans-Serif" font-size="10.00">mom_regridding::regridding</text>
<text text-anchor="middle" x="58" y="-7.5" font-family="Helvetica,sans-Serif" font-size="10.00">_memory_deallocation</text>
</g>
<!-- Node163 -->
<g id="node2" class="node"><title>Node163</title>
<g id="a_node2"><a xlink:href="../../d7/d1b/namespacemom__regridding.html#a9f55ab3a80ab1202b7664e9c65ebf08b" target="_top" xlink:title="Deallocation of regridding memory. ">
<polygon fill="white" stroke="black" points="152,-0.5 152,-30.5 245,-30.5 245,-0.5 152,-0.5"/>
<text text-anchor="start" x="160" y="-18.5" font-family="Helvetica,sans-Serif" font-size="10.00">mom_regridding::end</text>
<text text-anchor="middle" x="198.5" y="-7.5" font-family="Helvetica,sans-Serif" font-size="10.00">_regridding</text>
</a>
</g>
</g>
<!-- Node162&#45;&gt;Node163 -->
<g id="edge1" class="edge"><title>Node162&#45;&gt;Node163</title>
<path fill="none" stroke="midnightblue" d="M126.277,-15.5C134.962,-15.5 143.689,-15.5 151.91,-15.5"/>
<polygon fill="midnightblue" stroke="midnightblue" points="126.133,-12.0001 116.133,-15.5 126.133,-19.0001 126.133,-12.0001"/>
</g>
</g>
</svg>
