<?xml version="1.0" encoding="UTF-8" standalone="no"?>
<!DOCTYPE svg PUBLIC "-//W3C//DTD SVG 1.1//EN"
 "http://www.w3.org/Graphics/SVG/1.1/DTD/svg11.dtd">
<!-- Generated by graphviz version 2.38.0 (20140413.2041)
 -->
<!-- Title: mom_regridding::initialize_regridding Pages: 1 -->
<svg width="387pt" height="137pt"
 viewBox="0.00 0.00 387.00 137.00" xmlns="http://www.w3.org/2000/svg" xmlns:xlink="http://www.w3.org/1999/xlink">
<g id="graph0" class="graph" transform="scale(1 1) rotate(0) translate(4 133)">
<title>mom_regridding::initialize_regridding</title>
<polygon fill="white" stroke="none" points="-4,4 -4,-133 383,-133 383,4 -4,4"/>
<!-- Node122 -->
<g id="node1" class="node"><title>Node122</title>
<polygon fill="#bfbfbf" stroke="black" points="0,-49.5 0,-79.5 107,-79.5 107,-49.5 0,-49.5"/>
<text text-anchor="start" x="8" y="-67.5" font-family="Helvetica,sans-Serif" font-size="10.00">mom_regridding::initialize</text>
<text text-anchor="middle" x="53.5" y="-56.5" font-family="Helvetica,sans-Serif" font-size="10.00">_regridding</text>
</g>
<!-- Node123 -->
<g id="node2" class="node"><title>Node123</title>
<g id="a_node2"><a xlink:href="../../d7/d1b/namespacemom__regridding.html#a1e43d303ef28350aec4021c82d4a871c" target="_top" xlink:title="mom_regridding::allocate\l_regridding">
<polygon fill="white" stroke="black" points="143,-98.5 143,-128.5 250,-128.5 250,-98.5 143,-98.5"/>
<text text-anchor="start" x="151" y="-116.5" font-family="Helvetica,sans-Serif" font-size="10.00">mom_regridding::allocate</text>
<text text-anchor="middle" x="196.5" y="-105.5" font-family="Helvetica,sans-Serif" font-size="10.00">_regridding</text>
</a>
</g>
</g>
<!-- Node122&#45;&gt;Node123 -->
<g id="edge1" class="edge"><title>Node122&#45;&gt;Node123</title>
<path fill="none" stroke="midnightblue" d="M97.9552,-79.6014C112.027,-84.4917 127.793,-89.9707 142.479,-95.0744"/>
<polygon fill="midnightblue" stroke="midnightblue" points="141.351,-98.3875 151.946,-98.3641 143.649,-91.7753 141.351,-98.3875"/>
</g>
<!-- Node124 -->
<g id="node3" class="node"><title>Node124</title>
<g id="a_node3"><a xlink:href="../../d0/de6/namespacemom__error__handler.html#a460cfb79a06c29fc249952c2a3710d67" target="_top" xlink:title="mom_error_handler::\lmom_error">
<polygon fill="white" stroke="black" points="150,-49.5 150,-79.5 243,-79.5 243,-49.5 150,-49.5"/>
<text text-anchor="start" x="158" y="-67.5" font-family="Helvetica,sans-Serif" font-size="10.00">mom_error_handler::</text>
<text text-anchor="middle" x="196.5" y="-56.5" font-family="Helvetica,sans-Serif" font-size="10.00">mom_error</text>
</a>
</g>
</g>
<!-- Node122&#45;&gt;Node124 -->
<g id="edge2" class="edge"><title>Node122&#45;&gt;Node124</title>
<path fill="none" stroke="midnightblue" d="M107.003,-64.5C117.683,-64.5 128.954,-64.5 139.743,-64.5"/>
<polygon fill="midnightblue" stroke="midnightblue" points="139.904,-68.0001 149.904,-64.5 139.904,-61.0001 139.904,-68.0001"/>
</g>
<!-- Node126 -->
<g id="node5" class="node"><title>Node126</title>
<g id="a_node5"><a xlink:href="../../df/d46/namespacemom__string__functions.html#aca148baf726de2f028b7e7baad3c85d4" target="_top" xlink:title="mom_string_functions\l::uppercase">
<polygon fill="white" stroke="black" points="149,-0.5 149,-30.5 244,-30.5 244,-0.5 149,-0.5"/>
<text text-anchor="start" x="157" y="-18.5" font-family="Helvetica,sans-Serif" font-size="10.00">mom_string_functions</text>
<text text-anchor="middle" x="196.5" y="-7.5" font-family="Helvetica,sans-Serif" font-size="10.00">::uppercase</text>
</a>
</g>
</g>
<!-- Node122&#45;&gt;Node126 -->
<g id="edge4" class="edge"><title>Node122&#45;&gt;Node126</title>
<path fill="none" stroke="midnightblue" d="M97.9552,-49.3986C112.027,-44.5083 127.793,-39.0293 142.479,-33.9256"/>
<polygon fill="midnightblue" stroke="midnightblue" points="143.649,-37.2247 151.946,-30.6359 141.351,-30.6125 143.649,-37.2247"/>
</g>
<!-- Node125 -->
<g id="node4" class="node"><title>Node125</title>
<g id="a_node4"><a xlink:href="../../d0/de6/namespacemom__error__handler.html#ad5f00a53059c72fe2332d1436c80ca71" target="_top" xlink:title="mom_error_handler::\lis_root_pe">
<polygon fill="white" stroke="black" points="286,-49.5 286,-79.5 379,-79.5 379,-49.5 286,-49.5"/>
<text text-anchor="start" x="294" y="-67.5" font-family="Helvetica,sans-Serif" font-size="10.00">mom_error_handler::</text>
<text text-anchor="middle" x="332.5" y="-56.5" font-family="Helvetica,sans-Serif" font-size="10.00">is_root_pe</text>
</a>
</g>
</g>
<!-- Node124&#45;&gt;Node125 -->
<g id="edge3" class="edge"><title>Node124&#45;&gt;Node125</title>
<path fill="none" stroke="midnightblue" d="M243.24,-64.5C253.697,-64.5 264.925,-64.5 275.75,-64.5"/>
<polygon fill="midnightblue" stroke="midnightblue" points="275.966,-68.0001 285.966,-64.5 275.966,-61.0001 275.966,-68.0001"/>
</g>
</g>
</svg>
