<?xml version="1.0" encoding="UTF-8" standalone="no"?>
<!DOCTYPE svg PUBLIC "-//W3C//DTD SVG 1.1//EN"
 "http://www.w3.org/Graphics/SVG/1.1/DTD/svg11.dtd">
<!-- Generated by graphviz version 2.38.0 (20140413.2041)
 -->
<!-- Title: mom_regridding::old_inflate_layers_1d Pages: 1 -->
<svg width="408pt" height="88pt"
 viewBox="0.00 0.00 408.00 88.00" xmlns="http://www.w3.org/2000/svg" xmlns:xlink="http://www.w3.org/1999/xlink">
<g id="graph0" class="graph" transform="scale(1 1) rotate(0) translate(4 84)">
<title>mom_regridding::old_inflate_layers_1d</title>
<polygon fill="white" stroke="none" points="-4,4 -4,-84 404,-84 404,4 -4,4"/>
<!-- Node135 -->
<g id="node1" class="node"><title>Node135</title>
<polygon fill="#bfbfbf" stroke="black" points="0,-24.5 0,-54.5 90,-54.5 90,-24.5 0,-24.5"/>
<text text-anchor="start" x="8" y="-42.5" font-family="Helvetica,sans-Serif" font-size="10.00">mom_regridding::old</text>
<text text-anchor="middle" x="45" y="-31.5" font-family="Helvetica,sans-Serif" font-size="10.00">_inflate_layers_1d</text>
</g>
<!-- Node136 -->
<g id="node2" class="node"><title>Node136</title>
<g id="a_node2"><a xlink:href="../../d7/d1b/namespacemom__regridding.html#a58a19305bbdab26bfa4f336dfac8c4f8" target="_top" xlink:title="mom_regridding::build\l_rho_grid">
<polygon fill="white" stroke="black" points="128.5,-49.5 128.5,-79.5 224.5,-79.5 224.5,-49.5 128.5,-49.5"/>
<text text-anchor="start" x="136.5" y="-67.5" font-family="Helvetica,sans-Serif" font-size="10.00">mom_regridding::build</text>
<text text-anchor="middle" x="176.5" y="-56.5" font-family="Helvetica,sans-Serif" font-size="10.00">_rho_grid</text>
</a>
</g>
</g>
<!-- Node135&#45;&gt;Node136 -->
<g id="edge1" class="edge"><title>Node135&#45;&gt;Node136</title>
<path fill="none" stroke="midnightblue" d="M100.209,-49.9651C109.574,-51.773 119.241,-53.6392 128.398,-55.407"/>
<polygon fill="midnightblue" stroke="midnightblue" points="100.687,-46.4927 90.2044,-48.0337 99.3596,-53.3658 100.687,-46.4927"/>
</g>
<!-- Node138 -->
<g id="node4" class="node"><title>Node138</title>
<g id="a_node4"><a xlink:href="../../d7/d1b/namespacemom__regridding.html#aeb36a31003c4887ea1af82c11c627f2f" target="_top" xlink:title="mom_regridding::inflate\l_vanished_layers_old">
<polygon fill="white" stroke="black" points="126,-0.5 126,-30.5 227,-30.5 227,-0.5 126,-0.5"/>
<text text-anchor="start" x="134" y="-18.5" font-family="Helvetica,sans-Serif" font-size="10.00">mom_regridding::inflate</text>
<text text-anchor="middle" x="176.5" y="-7.5" font-family="Helvetica,sans-Serif" font-size="10.00">_vanished_layers_old</text>
</a>
</g>
</g>
<!-- Node135&#45;&gt;Node138 -->
<g id="edge3" class="edge"><title>Node135&#45;&gt;Node138</title>
<path fill="none" stroke="midnightblue" d="M100.038,-29.4852C108.546,-27.9085 117.307,-26.2848 125.713,-24.727"/>
<polygon fill="midnightblue" stroke="midnightblue" points="99.3991,-26.044 90.2044,-31.3077 100.675,-32.9268 99.3991,-26.044"/>
</g>
<!-- Node137 -->
<g id="node3" class="node"><title>Node137</title>
<g id="a_node3"><a xlink:href="../../d7/d1b/namespacemom__regridding.html#a1a4ef08eafeb47fe9c96d08d736b16b1" target="_top" xlink:title="mom_regridding::regridding_main">
<polygon fill="white" stroke="black" points="263,-55 263,-74 400,-74 400,-55 263,-55"/>
<text text-anchor="middle" x="331.5" y="-62" font-family="Helvetica,sans-Serif" font-size="10.00">mom_regridding::regridding_main</text>
</a>
</g>
</g>
<!-- Node136&#45;&gt;Node137 -->
<g id="edge2" class="edge"><title>Node136&#45;&gt;Node137</title>
<path fill="none" stroke="midnightblue" d="M234.822,-64.5C244.004,-64.5 253.58,-64.5 262.973,-64.5"/>
<polygon fill="midnightblue" stroke="midnightblue" points="234.654,-61.0001 224.653,-64.5 234.653,-68.0001 234.654,-61.0001"/>
</g>
</g>
</svg>
