<?xml version="1.0" encoding="UTF-8" standalone="no"?>
<!DOCTYPE svg PUBLIC "-//W3C//DTD SVG 1.1//EN"
 "http://www.w3.org/Graphics/SVG/1.1/DTD/svg11.dtd">
<!-- Generated by graphviz version 2.38.0 (20140413.2041)
 -->
<!-- Title: mom_regridding::regridding_set_ppolys Pages: 1 -->
<!--zoomable 132 -->
<svg id="main" version="1.1" xmlns="http://www.w3.org/2000/svg" xmlns:xlink="http://www.w3.org/1999/xlink" xml:space="preserve" onload="init(evt)">
<style type="text/css"><![CDATA[
.edge:hover path { stroke: red; }
.edge:hover polygon { stroke: red; fill: red; }
]]></style>
<script type="text/javascript"><![CDATA[
var edges = document.getElementsByTagName('g');
if (edges && edges.length) {
  for (var i=0;i<edges.length;i++) {
    if (edges[i].id.substr(0,4)=='edge') {
      edges[i].setAttribute('class','edge');
    }
  }
}
]]></script>
        <defs>
                <circle id="rim" cx="0" cy="0" r="7"/>
                <circle id="rim2" cx="0" cy="0" r="3.5"/>
                <g id="zoomPlus">
                        <use xlink:href="#rim" fill="#404040">
                                <set attributeName="fill" to="#808080" begin="zoomplus.mouseover" end="zoomplus.mouseout"/>
                        </use>
                        <path d="M-4,0h8M0,-4v8" fill="none" stroke="white" stroke-width="1.5" pointer-events="none"/>
                </g>
                <g id="zoomMin">
                        <use xlink:href="#rim" fill="#404040">
                                <set attributeName="fill" to="#808080" begin="zoomminus.mouseover" end="zoomminus.mouseout"/>
                        </use>
                        <path d="M-4,0h8" fill="none" stroke="white" stroke-width="1.5" pointer-events="none"/>
                </g>
                <g id="dirArrow">
                        <path fill="none" stroke="white" stroke-width="1.5" d="M0,-3.0v7 M-2.5,-0.5L0,-3.0L2.5,-0.5"/>
                </g>
               <g id="resetDef">
                       <use xlink:href="#rim2" fill="#404040">
                               <set attributeName="fill" to="#808080" begin="reset.mouseover" end="reset.mouseout"/>
                       </use>
               </g>
        </defs>

<script type="text/javascript">
var viewWidth = 561;
var viewHeight = 132;
var sectionId = 'dynsection-32';
</script>
<script xlink:href="../../svgpan.js"/>
<svg id="graph" class="graph">
<g id="viewport">
<title>mom_regridding::regridding_set_ppolys</title>
<polygon fill="white" stroke="none" points="-4,4 -4,-128 557,-128 557,4 -4,4"/>
<!-- Node165 -->
<g id="node1" class="node"><title>Node165</title>
<polygon fill="#bfbfbf" stroke="black" points="0,-49.5 0,-79.5 116,-79.5 116,-49.5 0,-49.5"/>
<text text-anchor="start" x="8" y="-67.5" font-family="Helvetica,sans-Serif" font-size="10.00">mom_regridding::regridding</text>
<text text-anchor="middle" x="58" y="-56.5" font-family="Helvetica,sans-Serif" font-size="10.00">_set_ppolys</text>
</g>
<!-- Node166 -->
<g id="node2" class="node"><title>Node166</title>
<g id="a_node2"><a xlink:href="../../d7/d1b/namespacemom__regridding.html#a3375da62433b875eed537feeba1ae1b3" target="_top" xlink:title="Builds a simple HyCOM&#45;like grid with the deepest location of potential density interpolated from the ...">
<polygon fill="white" stroke="black" points="284,-93.5 284,-123.5 380,-123.5 380,-93.5 284,-93.5"/>
<text text-anchor="start" x="292" y="-111.5" font-family="Helvetica,sans-Serif" font-size="10.00">mom_regridding::build</text>
<text text-anchor="middle" x="332" y="-100.5" font-family="Helvetica,sans-Serif" font-size="10.00">_grid_hycom1</text>
</a>
</g>
</g>
<!-- Node165&#45;&gt;Node166 -->
<g id="edge1" class="edge"><title>Node165&#45;&gt;Node166</title>
<path fill="none" stroke="midnightblue" d="M121.765,-81.98C131.824,-84.4101 142.16,-86.69 152,-88.5 196.285,-96.6461 247.387,-101.956 283.623,-105.043"/>
<polygon fill="midnightblue" stroke="midnightblue" points="122.376,-78.5253 111.827,-79.5116 120.688,-85.3189 122.376,-78.5253"/>
</g>
<!-- Node168 -->
<g id="node4" class="node"><title>Node168</title>
<g id="a_node4"><a xlink:href="../../d7/d1b/namespacemom__regridding.html#a58a19305bbdab26bfa4f336dfac8c4f8" target="_top" xlink:title="mom_regridding::build\l_rho_grid">
<polygon fill="white" stroke="black" points="152,-49.5 152,-79.5 248,-79.5 248,-49.5 152,-49.5"/>
<text text-anchor="start" x="160" y="-67.5" font-family="Helvetica,sans-Serif" font-size="10.00">mom_regridding::build</text>
<text text-anchor="middle" x="200" y="-56.5" font-family="Helvetica,sans-Serif" font-size="10.00">_rho_grid</text>
</a>
</g>
</g>
<!-- Node165&#45;&gt;Node168 -->
<g id="edge3" class="edge"><title>Node165&#45;&gt;Node168</title>
<path fill="none" stroke="midnightblue" d="M126.373,-64.5C134.961,-64.5 143.601,-64.5 151.776,-64.5"/>
<polygon fill="midnightblue" stroke="midnightblue" points="126.347,-61.0001 116.347,-64.5 126.347,-68.0001 126.347,-61.0001"/>
</g>
<!-- Node169 -->
<g id="node5" class="node"><title>Node169</title>
<g id="a_node5"><a xlink:href="../../d7/d1b/namespacemom__regridding.html#aacf680ddf88e9c41a340dd426272906d" target="_top" xlink:title="Finds the new interface locations in a column of water that match the prescribed target densities...">
<polygon fill="white" stroke="black" points="154,-0.5 154,-30.5 246,-30.5 246,-0.5 154,-0.5"/>
<text text-anchor="start" x="162" y="-18.5" font-family="Helvetica,sans-Serif" font-size="10.00">mom_regridding::rho</text>
<text text-anchor="middle" x="200" y="-7.5" font-family="Helvetica,sans-Serif" font-size="10.00">_interfaces_col</text>
</a>
</g>
</g>
<!-- Node165&#45;&gt;Node169 -->
<g id="edge5" class="edge"><title>Node165&#45;&gt;Node169</title>
<path fill="none" stroke="midnightblue" d="M111.959,-45.9645C126.417,-40.9041 141.908,-35.4823 155.755,-30.6359"/>
<polygon fill="midnightblue" stroke="midnightblue" points="110.429,-42.7915 102.147,-49.3986 112.742,-49.3985 110.429,-42.7915"/>
</g>
<!-- Node167 -->
<g id="node3" class="node"><title>Node167</title>
<g id="a_node3"><a xlink:href="../../d7/d1b/namespacemom__regridding.html#a1a4ef08eafeb47fe9c96d08d736b16b1" target="_top" xlink:title="mom_regridding::regridding_main">
<polygon fill="white" stroke="black" points="416,-55 416,-74 553,-74 553,-55 416,-55"/>
<text text-anchor="middle" x="484.5" y="-62" font-family="Helvetica,sans-Serif" font-size="10.00">mom_regridding::regridding_main</text>
</a>
</g>
</g>
<!-- Node166&#45;&gt;Node167 -->
<g id="edge2" class="edge"><title>Node166&#45;&gt;Node167</title>
<path fill="none" stroke="midnightblue" d="M389.812,-91.8905C410.397,-85.8724 432.943,-79.2809 450.758,-74.0723"/>
<polygon fill="midnightblue" stroke="midnightblue" points="388.822,-88.5333 380.206,-94.6988 390.787,-95.252 388.822,-88.5333"/>
</g>
<!-- Node168&#45;&gt;Node167 -->
<g id="edge4" class="edge"><title>Node168&#45;&gt;Node167</title>
<path fill="none" stroke="midnightblue" d="M258.303,-64.5C303.91,-64.5 367.843,-64.5 415.941,-64.5"/>
<polygon fill="midnightblue" stroke="midnightblue" points="258.284,-61.0001 248.284,-64.5 258.284,-68.0001 258.284,-61.0001"/>
</g>
<!-- Node170 -->
<g id="node6" class="node"><title>Node170</title>
<g id="a_node6"><a xlink:href="../../d7/d1b/namespacemom__regridding.html#adbdde4ab6606ab76f64f57b7ee5dfdeb" target="_top" xlink:title="Builds a grid that tracks density interfaces for water that is denser than the surface density plus a...">
<polygon fill="white" stroke="black" points="284,-3.5 284,-33.5 380,-33.5 380,-3.5 284,-3.5"/>
<text text-anchor="start" x="292" y="-21.5" font-family="Helvetica,sans-Serif" font-size="10.00">mom_regridding::build</text>
<text text-anchor="middle" x="332" y="-10.5" font-family="Helvetica,sans-Serif" font-size="10.00">_grid_slight</text>
</a>
</g>
</g>
<!-- Node169&#45;&gt;Node170 -->
<g id="edge6" class="edge"><title>Node169&#45;&gt;Node170</title>
<path fill="none" stroke="midnightblue" d="M256.28,-16.7757C265.429,-16.9868 274.84,-17.204 283.767,-17.41"/>
<polygon fill="midnightblue" stroke="midnightblue" points="256.181,-13.2726 246.103,-16.5408 256.019,-20.2707 256.181,-13.2726"/>
</g>
<!-- Node170&#45;&gt;Node167 -->
<g id="edge7" class="edge"><title>Node170&#45;&gt;Node167</title>
<path fill="none" stroke="midnightblue" d="M390.033,-35.9319C411.096,-42.3698 434.185,-49.427 452.145,-54.9164"/>
<polygon fill="midnightblue" stroke="midnightblue" points="390.793,-32.5044 380.206,-32.9285 388.746,-39.1987 390.793,-32.5044"/>
</g>
</g>
</svg>
        <g id="navigator" transform="translate(0 0)" fill="#404254">
                <rect fill="#f2f5e9" fill-opacity="0.5" stroke="#606060" stroke-width=".5" x="0" y="0" width="60" height="60"/>
                <use id="zoomplus" xlink:href="#zoomPlus" x="17" y="9" onmousedown="handleZoom(evt,'in')"/>
                <use id="zoomminus" xlink:href="#zoomMin" x="42" y="9" onmousedown="handleZoom(evt,'out')"/>
                <use id="reset" xlink:href="#resetDef" x="30" y="36" onmousedown="handleReset()"/>
                <g id="arrowUp" xlink:href="#dirArrow" transform="translate(30 24)" onmousedown="handlePan(0,-1)">
                  <use xlink:href="#rim" fill="#404040">
                        <set attributeName="fill" to="#808080" begin="arrowUp.mouseover" end="arrowUp.mouseout"/>
                  </use>
                  <path fill="none" stroke="white" stroke-width="1.5" d="M0,-3.0v7 M-2.5,-0.5L0,-3.0L2.5,-0.5"/>
                </g>
                <g id="arrowRight" xlink:href="#dirArrow" transform="rotate(90) translate(36 -43)" onmousedown="handlePan(1,0)">
                  <use xlink:href="#rim" fill="#404040">
                        <set attributeName="fill" to="#808080" begin="arrowRight.mouseover" end="arrowRight.mouseout"/>
                  </use>
                  <path fill="none" stroke="white" stroke-width="1.5" d="M0,-3.0v7 M-2.5,-0.5L0,-3.0L2.5,-0.5"/>
                </g>
                <g id="arrowDown" xlink:href="#dirArrow" transform="rotate(180) translate(-30 -48)" onmousedown="handlePan(0,1)">
                  <use xlink:href="#rim" fill="#404040">
                        <set attributeName="fill" to="#808080" begin="arrowDown.mouseover" end="arrowDown.mouseout"/>
                  </use>
                  <path fill="none" stroke="white" stroke-width="1.5" d="M0,-3.0v7 M-2.5,-0.5L0,-3.0L2.5,-0.5"/>
                </g>
                <g id="arrowLeft" xlink:href="#dirArrow" transform="rotate(270) translate(-36 17)" onmousedown="handlePan(-1,0)">
                  <use xlink:href="#rim" fill="#404040">
                        <set attributeName="fill" to="#808080" begin="arrowLeft.mouseover" end="arrowLeft.mouseout"/>
                  </use>
                  <path fill="none" stroke="white" stroke-width="1.5" d="M0,-3.0v7 M-2.5,-0.5L0,-3.0L2.5,-0.5"/>
                </g>
        </g>
        <svg viewBox="0 0 15 15" width="100%" height="30px" preserveAspectRatio="xMaxYMin meet">
         <g id="arrow_out" transform="scale(0.3 0.3)">
          <a xlink:href="namespacemom__regridding_a580e775df53e4bb61f118fcab44a3f92_icgraph_org.svg" target="_base">
           <rect id="button" ry="5" rx="5" y="6" x="6" height="38" width="38"
                fill="#f2f5e9" fill-opacity="0.5" stroke="#606060" stroke-width="1.0"/>
           <path id="arrow"
             d="M 11.500037,31.436501 C 11.940474,20.09759 22.043105,11.32322 32.158766,21.979434 L 37.068811,17.246167 C 37.068811,17.246167 37.088388,32 37.088388,32 L 22.160133,31.978069 C 22.160133,31.978069 26.997745,27.140456 26.997745,27.140456 C 18.528582,18.264221 13.291696,25.230495 11.500037,31.436501 z"
             style="fill:#404040;"/>
          </a>
         </g>
        </svg>
</svg>
