<?xml version="1.0" encoding="UTF-8" standalone="no"?>
<!DOCTYPE svg PUBLIC "-//W3C//DTD SVG 1.1//EN"
 "http://www.w3.org/Graphics/SVG/1.1/DTD/svg11.dtd">
<!-- Generated by graphviz version 2.38.0 (20140413.2041)
 -->
<!-- Title: mom_regridding::get_polynomial_coordinate Pages: 1 -->
<svg width="585pt" height="88pt"
 viewBox="0.00 0.00 585.00 88.00" xmlns="http://www.w3.org/2000/svg" xmlns:xlink="http://www.w3.org/1999/xlink">
<g id="graph0" class="graph" transform="scale(1 1) rotate(0) translate(4 84)">
<title>mom_regridding::get_polynomial_coordinate</title>
<polygon fill="white" stroke="none" points="-4,4 -4,-84 581,-84 581,4 -4,4"/>
<!-- Node103 -->
<g id="node1" class="node"><title>Node103</title>
<polygon fill="#bfbfbf" stroke="black" points="0,-24.5 0,-54.5 101,-54.5 101,-24.5 0,-24.5"/>
<text text-anchor="start" x="8" y="-42.5" font-family="Helvetica,sans-Serif" font-size="10.00">mom_regridding::get</text>
<text text-anchor="middle" x="50.5" y="-31.5" font-family="Helvetica,sans-Serif" font-size="10.00">_polynomial_coordinate</text>
</g>
<!-- Node104 -->
<g id="node2" class="node"><title>Node104</title>
<g id="a_node2"><a xlink:href="../../d7/d1b/namespacemom__regridding.html#a12dff5ec4c479e77db1813a8d53db7c2" target="_top" xlink:title="mom_regridding::interpolate_grid">
<polygon fill="white" stroke="black" points="137,-30 137,-49 272,-49 272,-30 137,-30"/>
<text text-anchor="middle" x="204.5" y="-37" font-family="Helvetica,sans-Serif" font-size="10.00">mom_regridding::interpolate_grid</text>
</a>
</g>
</g>
<!-- Node103&#45;&gt;Node104 -->
<g id="edge1" class="edge"><title>Node103&#45;&gt;Node104</title>
<path fill="none" stroke="midnightblue" d="M111.3,-39.5C119.658,-39.5 128.289,-39.5 136.765,-39.5"/>
<polygon fill="midnightblue" stroke="midnightblue" points="111.271,-36.0001 101.27,-39.5 111.27,-43.0001 111.271,-36.0001"/>
</g>
<!-- Node105 -->
<g id="node3" class="node"><title>Node105</title>
<g id="a_node3"><a xlink:href="../../d7/d1b/namespacemom__regridding.html#a58a19305bbdab26bfa4f336dfac8c4f8" target="_top" xlink:title="mom_regridding::build\l_rho_grid">
<polygon fill="white" stroke="black" points="308,-49.5 308,-79.5 404,-79.5 404,-49.5 308,-49.5"/>
<text text-anchor="start" x="316" y="-67.5" font-family="Helvetica,sans-Serif" font-size="10.00">mom_regridding::build</text>
<text text-anchor="middle" x="356" y="-56.5" font-family="Helvetica,sans-Serif" font-size="10.00">_rho_grid</text>
</a>
</g>
</g>
<!-- Node104&#45;&gt;Node105 -->
<g id="edge2" class="edge"><title>Node104&#45;&gt;Node105</title>
<path fill="none" stroke="midnightblue" d="M272.42,-50.6907C284.403,-52.6945 296.657,-54.7437 307.933,-56.6292"/>
<polygon fill="midnightblue" stroke="midnightblue" points="272.886,-47.2201 262.446,-49.0227 271.732,-54.1242 272.886,-47.2201"/>
</g>
<!-- Node107 -->
<g id="node5" class="node"><title>Node107</title>
<g id="a_node5"><a xlink:href="../../d7/d1b/namespacemom__regridding.html#a3375da62433b875eed537feeba1ae1b3" target="_top" xlink:title="Builds a simple HyCOM&#45;like grid with the deepest location of potential density interpolated from the ...">
<polygon fill="white" stroke="black" points="308,-0.5 308,-30.5 404,-30.5 404,-0.5 308,-0.5"/>
<text text-anchor="start" x="316" y="-18.5" font-family="Helvetica,sans-Serif" font-size="10.00">mom_regridding::build</text>
<text text-anchor="middle" x="356" y="-7.5" font-family="Helvetica,sans-Serif" font-size="10.00">_grid_hycom1</text>
</a>
</g>
</g>
<!-- Node104&#45;&gt;Node107 -->
<g id="edge4" class="edge"><title>Node104&#45;&gt;Node107</title>
<path fill="none" stroke="midnightblue" d="M275.076,-28.3306C286.107,-26.5598 297.288,-24.7648 307.654,-23.1007"/>
<polygon fill="midnightblue" stroke="midnightblue" points="274.335,-24.9047 265.016,-29.9456 275.444,-31.8162 274.335,-24.9047"/>
</g>
<!-- Node106 -->
<g id="node4" class="node"><title>Node106</title>
<g id="a_node4"><a xlink:href="../../d7/d1b/namespacemom__regridding.html#a1a4ef08eafeb47fe9c96d08d736b16b1" target="_top" xlink:title="mom_regridding::regridding_main">
<polygon fill="white" stroke="black" points="440,-30 440,-49 577,-49 577,-30 440,-30"/>
<text text-anchor="middle" x="508.5" y="-37" font-family="Helvetica,sans-Serif" font-size="10.00">mom_regridding::regridding_main</text>
</a>
</g>
</g>
<!-- Node105&#45;&gt;Node106 -->
<g id="edge3" class="edge"><title>Node105&#45;&gt;Node106</title>
<path fill="none" stroke="midnightblue" d="M414.329,-54.9769C426.065,-53.0274 438.418,-50.9755 450.154,-49.026"/>
<polygon fill="midnightblue" stroke="midnightblue" points="413.497,-51.567 404.206,-56.6584 414.645,-58.4724 413.497,-51.567"/>
</g>
<!-- Node107&#45;&gt;Node106 -->
<g id="edge5" class="edge"><title>Node107&#45;&gt;Node106</title>
<path fill="none" stroke="midnightblue" d="M414.117,-24.6083C425.108,-26.3611 436.648,-28.2014 447.721,-29.9672"/>
<polygon fill="midnightblue" stroke="midnightblue" points="414.633,-21.1464 404.206,-23.0279 413.53,-28.0591 414.633,-21.1464"/>
</g>
</g>
</svg>
