<?xml version="1.0" encoding="UTF-8" standalone="no"?>
<!DOCTYPE svg PUBLIC "-//W3C//DTD SVG 1.1//EN"
 "http://www.w3.org/Graphics/SVG/1.1/DTD/svg11.dtd">
<!-- Generated by graphviz version 2.38.0 (20140413.2041)
 -->
<!-- Title: mom_regridding::build_rho_grid Pages: 1 -->
<!--zoomable 214 -->
<svg id="main" version="1.1" xmlns="http://www.w3.org/2000/svg" xmlns:xlink="http://www.w3.org/1999/xlink" xml:space="preserve" onload="init(evt)">
<style type="text/css"><![CDATA[
.edge:hover path { stroke: red; }
.edge:hover polygon { stroke: red; fill: red; }
]]></style>
<script type="text/javascript"><![CDATA[
var edges = document.getElementsByTagName('g');
if (edges && edges.length) {
  for (var i=0;i<edges.length;i++) {
    if (edges[i].id.substr(0,4)=='edge') {
      edges[i].setAttribute('class','edge');
    }
  }
}
]]></script>
        <defs>
                <circle id="rim" cx="0" cy="0" r="7"/>
                <circle id="rim2" cx="0" cy="0" r="3.5"/>
                <g id="zoomPlus">
                        <use xlink:href="#rim" fill="#404040">
                                <set attributeName="fill" to="#808080" begin="zoomplus.mouseover" end="zoomplus.mouseout"/>
                        </use>
                        <path d="M-4,0h8M0,-4v8" fill="none" stroke="white" stroke-width="1.5" pointer-events="none"/>
                </g>
                <g id="zoomMin">
                        <use xlink:href="#rim" fill="#404040">
                                <set attributeName="fill" to="#808080" begin="zoomminus.mouseover" end="zoomminus.mouseout"/>
                        </use>
                        <path d="M-4,0h8" fill="none" stroke="white" stroke-width="1.5" pointer-events="none"/>
                </g>
                <g id="dirArrow">
                        <path fill="none" stroke="white" stroke-width="1.5" d="M0,-3.0v7 M-2.5,-0.5L0,-3.0L2.5,-0.5"/>
                </g>
               <g id="resetDef">
                       <use xlink:href="#rim2" fill="#404040">
                               <set attributeName="fill" to="#808080" begin="reset.mouseover" end="reset.mouseout"/>
                       </use>
               </g>
        </defs>

<script type="text/javascript">
var viewWidth = 541;
var viewHeight = 214;
var sectionId = 'dynsection-7';
</script>
<script xlink:href="../../svgpan.js"/>
<svg id="graph" class="graph">
<g id="viewport">
<title>mom_regridding::build_rho_grid</title>
<polygon fill="white" stroke="none" points="-4,4 -4,-210 537,-210 537,4 -4,4"/>
<!-- Node31 -->
<g id="node1" class="node"><title>Node31</title>
<polygon fill="#bfbfbf" stroke="black" points="0,-93.5 0,-123.5 96,-123.5 96,-93.5 0,-93.5"/>
<text text-anchor="start" x="8" y="-111.5" font-family="Helvetica,sans-Serif" font-size="10.00">mom_regridding::build</text>
<text text-anchor="middle" x="48" y="-100.5" font-family="Helvetica,sans-Serif" font-size="10.00">_rho_grid</text>
</g>
<!-- Node32 -->
<g id="node2" class="node"><title>Node32</title>
<g id="a_node2"><a xlink:href="../../d7/d1b/namespacemom__regridding.html#a9dddf53999f90d1a4edc79179c5b5da4" target="_top" xlink:title="Returns the change in interface position motion after filtering and assuming the top and bottom inter...">
<polygon fill="white" stroke="black" points="147.5,-175.5 147.5,-205.5 251.5,-205.5 251.5,-175.5 147.5,-175.5"/>
<text text-anchor="start" x="155.5" y="-193.5" font-family="Helvetica,sans-Serif" font-size="10.00">mom_regridding::filtered</text>
<text text-anchor="middle" x="199.5" y="-182.5" font-family="Helvetica,sans-Serif" font-size="10.00">_grid_motion</text>
</a>
</g>
</g>
<!-- Node31&#45;&gt;Node32 -->
<g id="edge1" class="edge"><title>Node31&#45;&gt;Node32</title>
<path fill="none" stroke="midnightblue" d="M71.4045,-123.699C87.8326,-134.555 110.865,-149.18 132,-160.5 138.908,-164.2 146.362,-167.864 153.694,-171.294"/>
<polygon fill="midnightblue" stroke="midnightblue" points="152.316,-174.512 162.865,-175.497 155.233,-168.149 152.316,-174.512"/>
</g>
<!-- Node33 -->
<g id="node3" class="node"><title>Node33</title>
<g id="a_node3"><a xlink:href="../../d0/de6/namespacemom__error__handler.html#a460cfb79a06c29fc249952c2a3710d67" target="_top" xlink:title="mom_error_handler::\lmom_error">
<polygon fill="white" stroke="black" points="307,-158.5 307,-188.5 400,-188.5 400,-158.5 307,-158.5"/>
<text text-anchor="start" x="315" y="-176.5" font-family="Helvetica,sans-Serif" font-size="10.00">mom_error_handler::</text>
<text text-anchor="middle" x="353.5" y="-165.5" font-family="Helvetica,sans-Serif" font-size="10.00">mom_error</text>
</a>
</g>
</g>
<!-- Node31&#45;&gt;Node33 -->
<g id="edge6" class="edge"><title>Node31&#45;&gt;Node33</title>
<path fill="none" stroke="midnightblue" d="M96.368,-119.51C108.009,-122.17 120.447,-124.973 132,-127.5 187.997,-139.749 252.16,-153.052 296.778,-162.186"/>
<polygon fill="midnightblue" stroke="midnightblue" points="296.338,-165.669 306.836,-164.243 297.74,-158.81 296.338,-165.669"/>
</g>
<!-- Node35 -->
<g id="node5" class="node"><title>Node35</title>
<g id="a_node5"><a xlink:href="../../d7/d1b/namespacemom__regridding.html#a12dff5ec4c479e77db1813a8d53db7c2" target="_top" xlink:title="mom_regridding::interpolate_grid">
<polygon fill="white" stroke="black" points="132,-99 132,-118 267,-118 267,-99 132,-99"/>
<text text-anchor="middle" x="199.5" y="-106" font-family="Helvetica,sans-Serif" font-size="10.00">mom_regridding::interpolate_grid</text>
</a>
</g>
</g>
<!-- Node31&#45;&gt;Node35 -->
<g id="edge4" class="edge"><title>Node31&#45;&gt;Node35</title>
<path fill="none" stroke="midnightblue" d="M96.3027,-108.5C104.419,-108.5 113.036,-108.5 121.69,-108.5"/>
<polygon fill="midnightblue" stroke="midnightblue" points="121.839,-112 131.839,-108.5 121.839,-105 121.839,-112"/>
</g>
<!-- Node37 -->
<g id="node7" class="node"><title>Node37</title>
<g id="a_node7"><a xlink:href="../../d7/d1b/namespacemom__regridding.html#a392230123ef4347e6fe6c0b847be60bc" target="_top" xlink:title="mom_regridding::old\l_inflate_layers_1d">
<polygon fill="white" stroke="black" points="154.5,-49.5 154.5,-79.5 244.5,-79.5 244.5,-49.5 154.5,-49.5"/>
<text text-anchor="start" x="162.5" y="-67.5" font-family="Helvetica,sans-Serif" font-size="10.00">mom_regridding::old</text>
<text text-anchor="middle" x="199.5" y="-56.5" font-family="Helvetica,sans-Serif" font-size="10.00">_inflate_layers_1d</text>
</a>
</g>
</g>
<!-- Node31&#45;&gt;Node37 -->
<g id="edge7" class="edge"><title>Node31&#45;&gt;Node37</title>
<path fill="none" stroke="midnightblue" d="M96.3027,-94.5781C111.675,-90.0537 128.847,-85 144.66,-80.3459"/>
<polygon fill="midnightblue" stroke="midnightblue" points="145.697,-83.6891 154.302,-77.508 143.721,-76.9739 145.697,-83.6891"/>
</g>
<!-- Node38 -->
<g id="node8" class="node"><title>Node38</title>
<g id="a_node8"><a xlink:href="../../d7/d1b/namespacemom__regridding.html#a580e775df53e4bb61f118fcab44a3f92" target="_top" xlink:title="Given the set of target values and cell densities, this routine builds an interpolated profile for th...">
<polygon fill="white" stroke="black" points="141.5,-0.5 141.5,-30.5 257.5,-30.5 257.5,-0.5 141.5,-0.5"/>
<text text-anchor="start" x="149.5" y="-18.5" font-family="Helvetica,sans-Serif" font-size="10.00">mom_regridding::regridding</text>
<text text-anchor="middle" x="199.5" y="-7.5" font-family="Helvetica,sans-Serif" font-size="10.00">_set_ppolys</text>
</a>
</g>
</g>
<!-- Node31&#45;&gt;Node38 -->
<g id="edge8" class="edge"><title>Node31&#45;&gt;Node38</title>
<path fill="none" stroke="midnightblue" d="M64.3684,-93.2648C80.2123,-78.2277 106.179,-55.3869 132,-40.5 135.606,-38.4208 139.418,-36.4554 143.317,-34.6097"/>
<polygon fill="midnightblue" stroke="midnightblue" points="144.801,-37.7803 152.521,-30.5237 141.961,-31.3824 144.801,-37.7803"/>
</g>
<!-- Node32&#45;&gt;Node33 -->
<g id="edge2" class="edge"><title>Node32&#45;&gt;Node33</title>
<path fill="none" stroke="midnightblue" d="M251.537,-184.792C266.112,-183.162 282.066,-181.378 296.899,-179.718"/>
<polygon fill="midnightblue" stroke="midnightblue" points="297.41,-183.183 306.959,-178.593 296.632,-176.227 297.41,-183.183"/>
</g>
<!-- Node34 -->
<g id="node4" class="node"><title>Node34</title>
<g id="a_node4"><a xlink:href="../../d0/de6/namespacemom__error__handler.html#ad5f00a53059c72fe2332d1436c80ca71" target="_top" xlink:title="mom_error_handler::\lis_root_pe">
<polygon fill="white" stroke="black" points="440,-158.5 440,-188.5 533,-188.5 533,-158.5 440,-158.5"/>
<text text-anchor="start" x="448" y="-176.5" font-family="Helvetica,sans-Serif" font-size="10.00">mom_error_handler::</text>
<text text-anchor="middle" x="486.5" y="-165.5" font-family="Helvetica,sans-Serif" font-size="10.00">is_root_pe</text>
</a>
</g>
</g>
<!-- Node33&#45;&gt;Node34 -->
<g id="edge3" class="edge"><title>Node33&#45;&gt;Node34</title>
<path fill="none" stroke="midnightblue" d="M400.317,-173.5C409.846,-173.5 419.987,-173.5 429.825,-173.5"/>
<polygon fill="midnightblue" stroke="midnightblue" points="429.93,-177 439.93,-173.5 429.93,-170 429.93,-177"/>
</g>
<!-- Node36 -->
<g id="node6" class="node"><title>Node36</title>
<g id="a_node6"><a xlink:href="../../d7/d1b/namespacemom__regridding.html#a6ec0dea34ca979892fcaf54a2c676c5e" target="_top" xlink:title="mom_regridding::get\l_polynomial_coordinate">
<polygon fill="white" stroke="black" points="303,-93.5 303,-123.5 404,-123.5 404,-93.5 303,-93.5"/>
<text text-anchor="start" x="311" y="-111.5" font-family="Helvetica,sans-Serif" font-size="10.00">mom_regridding::get</text>
<text text-anchor="middle" x="353.5" y="-100.5" font-family="Helvetica,sans-Serif" font-size="10.00">_polynomial_coordinate</text>
</a>
</g>
</g>
<!-- Node35&#45;&gt;Node36 -->
<g id="edge5" class="edge"><title>Node35&#45;&gt;Node36</title>
<path fill="none" stroke="midnightblue" d="M267.169,-108.5C275.676,-108.5 284.34,-108.5 292.728,-108.5"/>
<polygon fill="midnightblue" stroke="midnightblue" points="292.794,-112 302.794,-108.5 292.794,-105 292.794,-112"/>
</g>
</g>
</svg>
        <g id="navigator" transform="translate(0 0)" fill="#404254">
                <rect fill="#f2f5e9" fill-opacity="0.5" stroke="#606060" stroke-width=".5" x="0" y="0" width="60" height="60"/>
                <use id="zoomplus" xlink:href="#zoomPlus" x="17" y="9" onmousedown="handleZoom(evt,'in')"/>
                <use id="zoomminus" xlink:href="#zoomMin" x="42" y="9" onmousedown="handleZoom(evt,'out')"/>
                <use id="reset" xlink:href="#resetDef" x="30" y="36" onmousedown="handleReset()"/>
                <g id="arrowUp" xlink:href="#dirArrow" transform="translate(30 24)" onmousedown="handlePan(0,-1)">
                  <use xlink:href="#rim" fill="#404040">
                        <set attributeName="fill" to="#808080" begin="arrowUp.mouseover" end="arrowUp.mouseout"/>
                  </use>
                  <path fill="none" stroke="white" stroke-width="1.5" d="M0,-3.0v7 M-2.5,-0.5L0,-3.0L2.5,-0.5"/>
                </g>
                <g id="arrowRight" xlink:href="#dirArrow" transform="rotate(90) translate(36 -43)" onmousedown="handlePan(1,0)">
                  <use xlink:href="#rim" fill="#404040">
                        <set attributeName="fill" to="#808080" begin="arrowRight.mouseover" end="arrowRight.mouseout"/>
                  </use>
                  <path fill="none" stroke="white" stroke-width="1.5" d="M0,-3.0v7 M-2.5,-0.5L0,-3.0L2.5,-0.5"/>
                </g>
                <g id="arrowDown" xlink:href="#dirArrow" transform="rotate(180) translate(-30 -48)" onmousedown="handlePan(0,1)">
                  <use xlink:href="#rim" fill="#404040">
                        <set attributeName="fill" to="#808080" begin="arrowDown.mouseover" end="arrowDown.mouseout"/>
                  </use>
                  <path fill="none" stroke="white" stroke-width="1.5" d="M0,-3.0v7 M-2.5,-0.5L0,-3.0L2.5,-0.5"/>
                </g>
                <g id="arrowLeft" xlink:href="#dirArrow" transform="rotate(270) translate(-36 17)" onmousedown="handlePan(-1,0)">
                  <use xlink:href="#rim" fill="#404040">
                        <set attributeName="fill" to="#808080" begin="arrowLeft.mouseover" end="arrowLeft.mouseout"/>
                  </use>
                  <path fill="none" stroke="white" stroke-width="1.5" d="M0,-3.0v7 M-2.5,-0.5L0,-3.0L2.5,-0.5"/>
                </g>
        </g>
        <svg viewBox="0 0 15 15" width="100%" height="30px" preserveAspectRatio="xMaxYMin meet">
         <g id="arrow_out" transform="scale(0.3 0.3)">
          <a xlink:href="namespacemom__regridding_a58a19305bbdab26bfa4f336dfac8c4f8_cgraph_org.svg" target="_base">
           <rect id="button" ry="5" rx="5" y="6" x="6" height="38" width="38"
                fill="#f2f5e9" fill-opacity="0.5" stroke="#606060" stroke-width="1.0"/>
           <path id="arrow"
             d="M 11.500037,31.436501 C 11.940474,20.09759 22.043105,11.32322 32.158766,21.979434 L 37.068811,17.246167 C 37.068811,17.246167 37.088388,32 37.088388,32 L 22.160133,31.978069 C 22.160133,31.978069 26.997745,27.140456 26.997745,27.140456 C 18.528582,18.264221 13.291696,25.230495 11.500037,31.436501 z"
             style="fill:#404040;"/>
          </a>
         </g>
        </svg>
</svg>
