<?xml version="1.0" encoding="UTF-8" standalone="no"?>
<!DOCTYPE svg PUBLIC "-//W3C//DTD SVG 1.1//EN"
 "http://www.w3.org/Graphics/SVG/1.1/DTD/svg11.dtd">
<!-- Generated by graphviz version 2.38.0 (20140413.2041)
 -->
<!-- Title: mom_regridding::interpolate_grid Pages: 1 -->
<svg width="448pt" height="88pt"
 viewBox="0.00 0.00 448.00 88.00" xmlns="http://www.w3.org/2000/svg" xmlns:xlink="http://www.w3.org/1999/xlink">
<g id="graph0" class="graph" transform="scale(1 1) rotate(0) translate(4 84)">
<title>mom_regridding::interpolate_grid</title>
<polygon fill="white" stroke="none" points="-4,4 -4,-84 444,-84 444,4 -4,4"/>
<!-- Node130 -->
<g id="node1" class="node"><title>Node130</title>
<polygon fill="#bfbfbf" stroke="black" points="0,-30 0,-49 135,-49 135,-30 0,-30"/>
<text text-anchor="middle" x="67.5" y="-37" font-family="Helvetica,sans-Serif" font-size="10.00">mom_regridding::interpolate_grid</text>
</g>
<!-- Node131 -->
<g id="node2" class="node"><title>Node131</title>
<g id="a_node2"><a xlink:href="../../d7/d1b/namespacemom__regridding.html#a3375da62433b875eed537feeba1ae1b3" target="_top" xlink:title="Builds a simple HyCOM&#45;like grid with the deepest location of potential density interpolated from the ...">
<polygon fill="white" stroke="black" points="171,-49.5 171,-79.5 267,-79.5 267,-49.5 171,-49.5"/>
<text text-anchor="start" x="179" y="-67.5" font-family="Helvetica,sans-Serif" font-size="10.00">mom_regridding::build</text>
<text text-anchor="middle" x="219" y="-56.5" font-family="Helvetica,sans-Serif" font-size="10.00">_grid_hycom1</text>
</a>
</g>
</g>
<!-- Node130&#45;&gt;Node131 -->
<g id="edge1" class="edge"><title>Node130&#45;&gt;Node131</title>
<path fill="none" stroke="midnightblue" d="M135.42,-50.6907C147.403,-52.6945 159.657,-54.7437 170.933,-56.6292"/>
<polygon fill="midnightblue" stroke="midnightblue" points="135.886,-47.2201 125.446,-49.0227 134.732,-54.1242 135.886,-47.2201"/>
</g>
<!-- Node133 -->
<g id="node4" class="node"><title>Node133</title>
<g id="a_node4"><a xlink:href="../../d7/d1b/namespacemom__regridding.html#a58a19305bbdab26bfa4f336dfac8c4f8" target="_top" xlink:title="mom_regridding::build\l_rho_grid">
<polygon fill="white" stroke="black" points="171,-0.5 171,-30.5 267,-30.5 267,-0.5 171,-0.5"/>
<text text-anchor="start" x="179" y="-18.5" font-family="Helvetica,sans-Serif" font-size="10.00">mom_regridding::build</text>
<text text-anchor="middle" x="219" y="-7.5" font-family="Helvetica,sans-Serif" font-size="10.00">_rho_grid</text>
</a>
</g>
</g>
<!-- Node130&#45;&gt;Node133 -->
<g id="edge3" class="edge"><title>Node130&#45;&gt;Node133</title>
<path fill="none" stroke="midnightblue" d="M138.076,-28.3306C149.107,-26.5598 160.288,-24.7648 170.654,-23.1007"/>
<polygon fill="midnightblue" stroke="midnightblue" points="137.335,-24.9047 128.016,-29.9456 138.444,-31.8162 137.335,-24.9047"/>
</g>
<!-- Node132 -->
<g id="node3" class="node"><title>Node132</title>
<g id="a_node3"><a xlink:href="../../d7/d1b/namespacemom__regridding.html#a1a4ef08eafeb47fe9c96d08d736b16b1" target="_top" xlink:title="mom_regridding::regridding_main">
<polygon fill="white" stroke="black" points="303,-30 303,-49 440,-49 440,-30 303,-30"/>
<text text-anchor="middle" x="371.5" y="-37" font-family="Helvetica,sans-Serif" font-size="10.00">mom_regridding::regridding_main</text>
</a>
</g>
</g>
<!-- Node131&#45;&gt;Node132 -->
<g id="edge2" class="edge"><title>Node131&#45;&gt;Node132</title>
<path fill="none" stroke="midnightblue" d="M277.329,-54.9769C289.065,-53.0274 301.418,-50.9755 313.154,-49.026"/>
<polygon fill="midnightblue" stroke="midnightblue" points="276.497,-51.567 267.206,-56.6584 277.645,-58.4724 276.497,-51.567"/>
</g>
<!-- Node133&#45;&gt;Node132 -->
<g id="edge4" class="edge"><title>Node133&#45;&gt;Node132</title>
<path fill="none" stroke="midnightblue" d="M277.117,-24.6083C288.108,-26.3611 299.648,-28.2014 310.721,-29.9672"/>
<polygon fill="midnightblue" stroke="midnightblue" points="277.633,-21.1464 267.206,-23.0279 276.53,-28.0591 277.633,-21.1464"/>
</g>
</g>
</svg>
