<?xml version="1.0" encoding="UTF-8" standalone="no"?>
<!DOCTYPE svg PUBLIC "-//W3C//DTD SVG 1.1//EN"
 "http://www.w3.org/Graphics/SVG/1.1/DTD/svg11.dtd">
<!-- Generated by graphviz version 2.38.0 (20140413.2041)
 -->
<!-- Title: mom_file_parser::closemultilinecomment Pages: 1 -->
<svg width="815pt" height="215pt"
 viewBox="0.00 0.00 815.00 214.50" xmlns="http://www.w3.org/2000/svg" xmlns:xlink="http://www.w3.org/1999/xlink">
<g id="graph0" class="graph" transform="scale(1 1) rotate(0) translate(4 210.5)">
<title>mom_file_parser::closemultilinecomment</title>
<polygon fill="white" stroke="none" points="-4,4 -4,-210.5 811,-210.5 811,4 -4,4"/>
<!-- Node12 -->
<g id="node1" class="node"><title>Node12</title>
<polygon fill="#bfbfbf" stroke="black" points="0,-110.5 0,-129.5 161,-129.5 161,-110.5 0,-110.5"/>
<text text-anchor="middle" x="80.5" y="-117.5" font-family="Helvetica,sans-Serif" font-size="10.00">mom_file_parser::closemultilinecomment</text>
</g>
<!-- Node13 -->
<g id="node2" class="node"><title>Node13</title>
<g id="a_node2"><a xlink:href="../../d9/def/namespacemom__file__parser.html#a7abfd98d7f0831fc0d1f3747a68f1be9" target="_top" xlink:title="mom_file_parser::populate\l_param_data">
<polygon fill="white" stroke="black" points="197,-105 197,-135 309,-135 309,-105 197,-105"/>
<text text-anchor="start" x="205" y="-123" font-family="Helvetica,sans-Serif" font-size="10.00">mom_file_parser::populate</text>
<text text-anchor="middle" x="253" y="-112" font-family="Helvetica,sans-Serif" font-size="10.00">_param_data</text>
</a>
</g>
</g>
<!-- Node12&#45;&gt;Node13 -->
<g id="edge1" class="edge"><title>Node12&#45;&gt;Node13</title>
<path fill="none" stroke="midnightblue" d="M171.364,-120C179.965,-120 188.503,-120 196.627,-120"/>
<polygon fill="midnightblue" stroke="midnightblue" points="171.259,-116.5 161.259,-120 171.259,-123.5 171.259,-116.5"/>
</g>
<!-- Node14 -->
<g id="node3" class="node"><title>Node14</title>
<g id="a_node3"><a xlink:href="../../d9/def/namespacemom__file__parser.html#abecae1b9386aafa17aec927af1f8c448" target="_top" xlink:title="mom_file_parser::open\l_param_file">
<polygon fill="white" stroke="black" points="345,-105 345,-135 444,-135 444,-105 345,-105"/>
<text text-anchor="start" x="353" y="-123" font-family="Helvetica,sans-Serif" font-size="10.00">mom_file_parser::open</text>
<text text-anchor="middle" x="394.5" y="-112" font-family="Helvetica,sans-Serif" font-size="10.00">_param_file</text>
</a>
</g>
</g>
<!-- Node13&#45;&gt;Node14 -->
<g id="edge2" class="edge"><title>Node13&#45;&gt;Node14</title>
<path fill="none" stroke="midnightblue" d="M319.135,-120C327.718,-120 336.395,-120 344.642,-120"/>
<polygon fill="midnightblue" stroke="midnightblue" points="319.134,-116.5 309.134,-120 319.134,-123.5 319.134,-116.5"/>
</g>
<!-- Node15 -->
<g id="node4" class="node"><title>Node15</title>
<g id="a_node4"><a xlink:href="../../d6/d48/MOM__sum__driver_8F90.html#a08fffeb2d8e8acbf9ed4609be6d258c6" target="_top" xlink:title="mom_main">
<polygon fill="white" stroke="black" points="496,-132.5 496,-151.5 552,-151.5 552,-132.5 496,-132.5"/>
<text text-anchor="middle" x="524" y="-139.5" font-family="Helvetica,sans-Serif" font-size="10.00">mom_main</text>
</a>
</g>
</g>
<!-- Node14&#45;&gt;Node15 -->
<g id="edge3" class="edge"><title>Node14&#45;&gt;Node15</title>
<path fill="none" stroke="midnightblue" d="M454.097,-130.111C468.725,-132.635 483.718,-135.222 495.967,-137.335"/>
<polygon fill="midnightblue" stroke="midnightblue" points="454.516,-126.631 444.066,-128.38 453.325,-133.529 454.516,-126.631"/>
</g>
<!-- Node16 -->
<g id="node5" class="node"><title>Node16</title>
<g id="a_node5"><a xlink:href="../../d9/d7f/namespacemom__get__input.html#a299c5b9476662ef1a382e23a8d078143" target="_top" xlink:title="mom_get_input::get\l_mom_input">
<polygon fill="white" stroke="black" points="480,-83 480,-113 568,-113 568,-83 480,-83"/>
<text text-anchor="start" x="488" y="-101" font-family="Helvetica,sans-Serif" font-size="10.00">mom_get_input::get</text>
<text text-anchor="middle" x="524" y="-90" font-family="Helvetica,sans-Serif" font-size="10.00">_mom_input</text>
</a>
</g>
</g>
<!-- Node14&#45;&gt;Node16 -->
<g id="edge4" class="edge"><title>Node14&#45;&gt;Node16</title>
<path fill="none" stroke="midnightblue" d="M454.178,-109.875C462.875,-108.375 471.698,-106.852 479.995,-105.42"/>
<polygon fill="midnightblue" stroke="midnightblue" points="453.325,-106.471 444.066,-111.62 454.516,-113.369 453.325,-106.471"/>
</g>
<!-- Node17 -->
<g id="node6" class="node"><title>Node17</title>
<g id="a_node6"><a xlink:href="../../dc/ded/namespacemom__surface__forcing.html#ad01961191fdfc928f233901e285f4beb" target="_top" xlink:title="mom_surface_forcing\l::surface_forcing_init">
<polygon fill="white" stroke="black" points="612.5,-176 612.5,-206 706.5,-206 706.5,-176 612.5,-176"/>
<text text-anchor="start" x="620.5" y="-194" font-family="Helvetica,sans-Serif" font-size="10.00">mom_surface_forcing</text>
<text text-anchor="middle" x="659.5" y="-183" font-family="Helvetica,sans-Serif" font-size="10.00">::surface_forcing_init</text>
</a>
</g>
</g>
<!-- Node16&#45;&gt;Node17 -->
<g id="edge5" class="edge"><title>Node16&#45;&gt;Node17</title>
<path fill="none" stroke="midnightblue" d="M562.622,-118.752C564.486,-120.125 566.291,-121.544 568,-123 587.23,-139.39 583.884,-151.71 604,-167 608.362,-170.316 613.254,-173.287 618.27,-175.915"/>
<polygon fill="midnightblue" stroke="midnightblue" points="564.428,-115.748 554.183,-113.044 560.505,-121.546 564.428,-115.748"/>
</g>
<!-- Node18 -->
<g id="node7" class="node"><title>Node18</title>
<g id="a_node7"><a xlink:href="../../d5/dd4/namespaceocean__model__mod.html#a6b00b9a33be391bb23668abbfa4d99c6" target="_top" xlink:title="ocean_model_mod::ocean\l_model_flux_init">
<polygon fill="white" stroke="black" points="604,-127 604,-157 715,-157 715,-127 604,-127"/>
<text text-anchor="start" x="612" y="-145" font-family="Helvetica,sans-Serif" font-size="10.00">ocean_model_mod::ocean</text>
<text text-anchor="middle" x="659.5" y="-134" font-family="Helvetica,sans-Serif" font-size="10.00">_model_flux_init</text>
</a>
</g>
</g>
<!-- Node16&#45;&gt;Node18 -->
<g id="edge6" class="edge"><title>Node16&#45;&gt;Node18</title>
<path fill="none" stroke="midnightblue" d="M578.181,-115.528C589.577,-119.284 601.524,-123.222 612.617,-126.877"/>
<polygon fill="midnightblue" stroke="midnightblue" points="578.937,-112.092 568.344,-112.286 576.745,-118.74 578.937,-112.092"/>
</g>
<!-- Node19 -->
<g id="node8" class="node"><title>Node19</title>
<g id="a_node8"><a xlink:href="../../d5/d6d/ice__shelf__driver_8F90.html#aec5bef92f0dad343f545cd8d62e378d8" target="_top" xlink:title="shelf_main">
<polygon fill="white" stroke="black" points="751.5,-64.5 751.5,-83.5 806.5,-83.5 806.5,-64.5 751.5,-64.5"/>
<text text-anchor="middle" x="779" y="-71.5" font-family="Helvetica,sans-Serif" font-size="10.00">shelf_main</text>
</a>
</g>
</g>
<!-- Node16&#45;&gt;Node19 -->
<g id="edge7" class="edge"><title>Node16&#45;&gt;Node19</title>
<path fill="none" stroke="midnightblue" d="M578.434,-92.9312C631.407,-87.9061 710.393,-80.4133 751.297,-76.5331"/>
<polygon fill="midnightblue" stroke="midnightblue" points="577.83,-89.4727 568.205,-93.9015 578.491,-96.4414 577.83,-89.4727"/>
</g>
<!-- Node20 -->
<g id="node9" class="node"><title>Node20</title>
<g id="a_node9"><a xlink:href="../../da/d01/namespacemom.html#afebdc0103ad9cbe0ed4a54e522dc4104" target="_top" xlink:title="This subroutine initializes MOM. ">
<polygon fill="white" stroke="black" points="615,-0.5 615,-19.5 704,-19.5 704,-0.5 615,-0.5"/>
<text text-anchor="middle" x="659.5" y="-7.5" font-family="Helvetica,sans-Serif" font-size="10.00">mom::initialize_mom</text>
</a>
</g>
</g>
<!-- Node16&#45;&gt;Node20 -->
<g id="edge8" class="edge"><title>Node16&#45;&gt;Node20</title>
<path fill="none" stroke="midnightblue" d="M546.049,-75.5712C561.031,-60.683 582.283,-41.6279 604,-29 610.41,-25.2726 617.668,-22.1126 624.749,-19.5033"/>
<polygon fill="midnightblue" stroke="midnightblue" points="543.336,-73.3382 538.817,-82.9209 548.325,-78.248 543.336,-73.3382"/>
</g>
<!-- Node22 -->
<g id="node11" class="node"><title>Node22</title>
<g id="a_node11"><a xlink:href="../../df/da2/namespacemom__ice__shelf.html#ae315e8464ef8a20062e3bccb61886755" target="_top" xlink:title="mom_ice_shelf::initialize\l_ice_shelf">
<polygon fill="white" stroke="black" points="609,-39 609,-69 710,-69 710,-39 609,-39"/>
<text text-anchor="start" x="617" y="-57" font-family="Helvetica,sans-Serif" font-size="10.00">mom_ice_shelf::initialize</text>
<text text-anchor="middle" x="659.5" y="-46" font-family="Helvetica,sans-Serif" font-size="10.00">_ice_shelf</text>
</a>
</g>
</g>
<!-- Node16&#45;&gt;Node22 -->
<g id="edge10" class="edge"><title>Node16&#45;&gt;Node22</title>
<path fill="none" stroke="midnightblue" d="M578.181,-80.4721C589.577,-76.7161 601.524,-72.7785 612.617,-69.1226"/>
<polygon fill="midnightblue" stroke="midnightblue" points="576.745,-77.26 568.344,-83.7145 578.937,-83.9083 576.745,-77.26"/>
</g>
<!-- Node21 -->
<g id="node10" class="node"><title>Node21</title>
<g id="a_node10"><a xlink:href="../../de/dbc/MOM__driver_8F90.html#a08fffeb2d8e8acbf9ed4609be6d258c6" target="_top" xlink:title="mom_main">
<polygon fill="white" stroke="black" points="751,-23.5 751,-42.5 807,-42.5 807,-23.5 751,-23.5"/>
<text text-anchor="middle" x="779" y="-30.5" font-family="Helvetica,sans-Serif" font-size="10.00">mom_main</text>
</a>
</g>
</g>
<!-- Node20&#45;&gt;Node21 -->
<g id="edge9" class="edge"><title>Node20&#45;&gt;Node21</title>
<path fill="none" stroke="midnightblue" d="M714.32,-20.5349C727.012,-23.0194 740.014,-25.5644 750.932,-27.7017"/>
<polygon fill="midnightblue" stroke="midnightblue" points="714.739,-17.0506 704.253,-18.5644 713.394,-23.9202 714.739,-17.0506"/>
</g>
<!-- Node22&#45;&gt;Node19 -->
<g id="edge11" class="edge"><title>Node22&#45;&gt;Node19</title>
<path fill="none" stroke="midnightblue" d="M720.343,-64.186C731.277,-66.0471 742.16,-67.8996 751.477,-69.4855"/>
<polygon fill="midnightblue" stroke="midnightblue" points="720.776,-60.7095 710.331,-62.4818 719.601,-67.6103 720.776,-60.7095"/>
</g>
<!-- Node22&#45;&gt;Node21 -->
<g id="edge12" class="edge"><title>Node22&#45;&gt;Node21</title>
<path fill="none" stroke="midnightblue" d="M720.494,-43.2777C731.124,-41.3778 741.7,-39.4877 750.829,-37.8562"/>
<polygon fill="midnightblue" stroke="midnightblue" points="719.559,-39.8893 710.331,-45.0941 720.79,-46.7801 719.559,-39.8893"/>
</g>
</g>
</svg>
