<?xml version="1.0" encoding="UTF-8" standalone="no"?>
<!DOCTYPE svg PUBLIC "-//W3C//DTD SVG 1.1//EN"
 "http://www.w3.org/Graphics/SVG/1.1/DTD/svg11.dtd">
<!-- Generated by graphviz version 2.38.0 (20140413.2041)
 -->
<!-- Title: mom_file_parser::pushblocklevel Pages: 1 -->
<svg width="1012pt" height="521pt"
 viewBox="0.00 0.00 1012.00 520.50" xmlns="http://www.w3.org/2000/svg" xmlns:xlink="http://www.w3.org/1999/xlink">
<g id="graph0" class="graph" transform="scale(1 1) rotate(0) translate(4 516.5)">
<title>mom_file_parser::pushblocklevel</title>
<polygon fill="white" stroke="none" points="-4,4 -4,-516.5 1008,-516.5 1008,4 -4,4"/>
<!-- Node440 -->
<g id="node1" class="node"><title>Node440</title>
<polygon fill="#bfbfbf" stroke="black" points="0,-191.5 0,-210.5 132,-210.5 132,-191.5 0,-191.5"/>
<text text-anchor="middle" x="66" y="-198.5" font-family="Helvetica,sans-Serif" font-size="10.00">mom_file_parser::pushblocklevel</text>
</g>
<!-- Node441 -->
<g id="node2" class="node"><title>Node441</title>
<g id="a_node2"><a xlink:href="../../d9/def/namespacemom__file__parser.html#af883df6020543889b25986d6ee9701f7" target="_top" xlink:title="mom_file_parser::get\l_variable_line">
<polygon fill="white" stroke="black" points="199.5,-286 199.5,-316 291.5,-316 291.5,-286 199.5,-286"/>
<text text-anchor="start" x="207.5" y="-304" font-family="Helvetica,sans-Serif" font-size="10.00">mom_file_parser::get</text>
<text text-anchor="middle" x="245.5" y="-293" font-family="Helvetica,sans-Serif" font-size="10.00">_variable_line</text>
</a>
</g>
</g>
<!-- Node440&#45;&gt;Node441 -->
<g id="edge1" class="edge"><title>Node440&#45;&gt;Node441</title>
<path fill="none" stroke="midnightblue" d="M92.7369,-215.5C126.094,-234.292 183.977,-266.903 217.799,-285.957"/>
<polygon fill="midnightblue" stroke="midnightblue" points="94.4499,-212.448 84.0194,-210.588 91.014,-218.546 94.4499,-212.448"/>
</g>
<!-- Node458 -->
<g id="node19" class="node"><title>Node458</title>
<g id="a_node19"><a xlink:href="../../d9/def/namespacemom__file__parser.html#a363628fcd8540de780ebeacf24012229" target="_top" xlink:title="mom_file_parser::openparameterblock">
<polygon fill="white" stroke="black" points="168,-68.5 168,-87.5 323,-87.5 323,-68.5 168,-68.5"/>
<text text-anchor="middle" x="245.5" y="-75.5" font-family="Helvetica,sans-Serif" font-size="10.00">mom_file_parser::openparameterblock</text>
</a>
</g>
</g>
<!-- Node440&#45;&gt;Node458 -->
<g id="edge18" class="edge"><title>Node440&#45;&gt;Node458</title>
<path fill="none" stroke="midnightblue" d="M89.5767,-185.355C126.835,-159.537 200.108,-108.762 230.637,-87.6068"/>
<polygon fill="midnightblue" stroke="midnightblue" points="87.1541,-182.776 80.9281,-191.348 91.1411,-188.529 87.1541,-182.776"/>
</g>
<!-- Node442 -->
<g id="node3" class="node"><title>Node442</title>
<g id="a_node3"><a xlink:href="../../d9/def/namespacemom__file__parser.html#a14c84db15e417656105f7303ad0ac2a2" target="_top" xlink:title="mom_file_parser::read\l_param_char">
<polygon fill="white" stroke="black" points="368,-482 368,-512 466,-512 466,-482 368,-482"/>
<text text-anchor="start" x="376" y="-500" font-family="Helvetica,sans-Serif" font-size="10.00">mom_file_parser::read</text>
<text text-anchor="middle" x="417" y="-489" font-family="Helvetica,sans-Serif" font-size="10.00">_param_char</text>
</a>
</g>
</g>
<!-- Node441&#45;&gt;Node442 -->
<g id="edge2" class="edge"><title>Node441&#45;&gt;Node442</title>
<path fill="none" stroke="midnightblue" d="M256.791,-325.443C273.345,-362.1 309.152,-431.434 359,-473 363.041,-476.369 367.623,-479.328 372.391,-481.91"/>
<polygon fill="midnightblue" stroke="midnightblue" points="259.874,-323.759 252.637,-316.021 253.469,-326.583 259.874,-323.759"/>
</g>
<!-- Node444 -->
<g id="node5" class="node"><title>Node444</title>
<g id="a_node5"><a xlink:href="../../d9/def/namespacemom__file__parser.html#a67808253e247b2542d0810e7c7f598f4" target="_top" xlink:title="mom_file_parser::read\l_param_char_array">
<polygon fill="white" stroke="black" points="368,-433 368,-463 466,-463 466,-433 368,-433"/>
<text text-anchor="start" x="376" y="-451" font-family="Helvetica,sans-Serif" font-size="10.00">mom_file_parser::read</text>
<text text-anchor="middle" x="417" y="-440" font-family="Helvetica,sans-Serif" font-size="10.00">_param_char_array</text>
</a>
</g>
</g>
<!-- Node441&#45;&gt;Node444 -->
<g id="edge4" class="edge"><title>Node441&#45;&gt;Node444</title>
<path fill="none" stroke="midnightblue" d="M262.893,-324.321C282.919,-351.376 319.094,-395.857 359,-424 363.738,-427.342 369.014,-430.341 374.389,-432.995"/>
<polygon fill="midnightblue" stroke="midnightblue" points="265.69,-322.217 256.974,-316.193 260.031,-326.337 265.69,-322.217"/>
</g>
<!-- Node446 -->
<g id="node7" class="node"><title>Node446</title>
<g id="a_node7"><a xlink:href="../../d9/def/namespacemom__file__parser.html#a28352549cebdb1f8ed8db3655258d502" target="_top" xlink:title="mom_file_parser::read\l_param_int">
<polygon fill="white" stroke="black" points="368,-384 368,-414 466,-414 466,-384 368,-384"/>
<text text-anchor="start" x="376" y="-402" font-family="Helvetica,sans-Serif" font-size="10.00">mom_file_parser::read</text>
<text text-anchor="middle" x="417" y="-391" font-family="Helvetica,sans-Serif" font-size="10.00">_param_int</text>
</a>
</g>
</g>
<!-- Node441&#45;&gt;Node446 -->
<g id="edge6" class="edge"><title>Node441&#45;&gt;Node446</title>
<path fill="none" stroke="midnightblue" d="M275.251,-322.032C297.462,-337.749 329.321,-359.163 359,-375 364.873,-378.134 371.245,-381.158 377.529,-383.941"/>
<polygon fill="midnightblue" stroke="midnightblue" points="277.116,-319.062 266.943,-316.1 273.048,-324.759 277.116,-319.062"/>
</g>
<!-- Node448 -->
<g id="node9" class="node"><title>Node448</title>
<g id="a_node9"><a xlink:href="../../d9/def/namespacemom__file__parser.html#a9f3cacd113743a19df607293b6c30ec7" target="_top" xlink:title="mom_file_parser::read\l_param_int_array">
<polygon fill="white" stroke="black" points="368,-335 368,-365 466,-365 466,-335 368,-335"/>
<text text-anchor="start" x="376" y="-353" font-family="Helvetica,sans-Serif" font-size="10.00">mom_file_parser::read</text>
<text text-anchor="middle" x="417" y="-342" font-family="Helvetica,sans-Serif" font-size="10.00">_param_int_array</text>
</a>
</g>
</g>
<!-- Node441&#45;&gt;Node448 -->
<g id="edge8" class="edge"><title>Node441&#45;&gt;Node448</title>
<path fill="none" stroke="midnightblue" d="M301.799,-316.986C323.089,-323.141 347.21,-330.114 367.781,-336.06"/>
<polygon fill="midnightblue" stroke="midnightblue" points="302.502,-313.546 291.923,-314.131 300.558,-320.271 302.502,-313.546"/>
</g>
<!-- Node450 -->
<g id="node11" class="node"><title>Node450</title>
<g id="a_node11"><a xlink:href="../../d9/def/namespacemom__file__parser.html#ae12cfb8a4de90b0454683ba5810c79a2" target="_top" xlink:title="mom_file_parser::read\l_param_logical">
<polygon fill="white" stroke="black" points="368,-286 368,-316 466,-316 466,-286 368,-286"/>
<text text-anchor="start" x="376" y="-304" font-family="Helvetica,sans-Serif" font-size="10.00">mom_file_parser::read</text>
<text text-anchor="middle" x="417" y="-293" font-family="Helvetica,sans-Serif" font-size="10.00">_param_logical</text>
</a>
</g>
</g>
<!-- Node441&#45;&gt;Node450 -->
<g id="edge10" class="edge"><title>Node441&#45;&gt;Node450</title>
<path fill="none" stroke="midnightblue" d="M302.089,-301C323.307,-301 347.303,-301 367.781,-301"/>
<polygon fill="midnightblue" stroke="midnightblue" points="301.923,-297.5 291.923,-301 301.923,-304.5 301.923,-297.5"/>
</g>
<!-- Node452 -->
<g id="node13" class="node"><title>Node452</title>
<g id="a_node13"><a xlink:href="../../d9/def/namespacemom__file__parser.html#ae390a91e4e858aa5dd3f88569aa9585e" target="_top" xlink:title="mom_file_parser::read\l_param_real">
<polygon fill="white" stroke="black" points="368,-237 368,-267 466,-267 466,-237 368,-237"/>
<text text-anchor="start" x="376" y="-255" font-family="Helvetica,sans-Serif" font-size="10.00">mom_file_parser::read</text>
<text text-anchor="middle" x="417" y="-244" font-family="Helvetica,sans-Serif" font-size="10.00">_param_real</text>
</a>
</g>
</g>
<!-- Node441&#45;&gt;Node452 -->
<g id="edge12" class="edge"><title>Node441&#45;&gt;Node452</title>
<path fill="none" stroke="midnightblue" d="M301.799,-285.014C323.089,-278.859 347.21,-271.886 367.781,-265.94"/>
<polygon fill="midnightblue" stroke="midnightblue" points="300.558,-281.729 291.923,-287.869 302.502,-288.454 300.558,-281.729"/>
</g>
<!-- Node454 -->
<g id="node15" class="node"><title>Node454</title>
<g id="a_node15"><a xlink:href="../../d9/def/namespacemom__file__parser.html#aea75f399368c1aa2215ba703f0639726" target="_top" xlink:title="mom_file_parser::read\l_param_real_array">
<polygon fill="white" stroke="black" points="368,-188 368,-218 466,-218 466,-188 368,-188"/>
<text text-anchor="start" x="376" y="-206" font-family="Helvetica,sans-Serif" font-size="10.00">mom_file_parser::read</text>
<text text-anchor="middle" x="417" y="-195" font-family="Helvetica,sans-Serif" font-size="10.00">_param_real_array</text>
</a>
</g>
</g>
<!-- Node441&#45;&gt;Node454 -->
<g id="edge14" class="edge"><title>Node441&#45;&gt;Node454</title>
<path fill="none" stroke="midnightblue" d="M275.77,-280.127C298.018,-264.731 329.69,-243.802 359,-228 365.468,-224.513 372.521,-221.115 379.393,-218.004"/>
<polygon fill="midnightblue" stroke="midnightblue" points="273.635,-277.349 267.436,-285.941 277.64,-283.09 273.635,-277.349"/>
</g>
<!-- Node456 -->
<g id="node17" class="node"><title>Node456</title>
<g id="a_node17"><a xlink:href="../../d9/def/namespacemom__file__parser.html#a3003acf92ea172d12a44d86ef62560c2" target="_top" xlink:title="mom_file_parser::read\l_param_time">
<polygon fill="white" stroke="black" points="368,-139 368,-169 466,-169 466,-139 368,-139"/>
<text text-anchor="start" x="376" y="-157" font-family="Helvetica,sans-Serif" font-size="10.00">mom_file_parser::read</text>
<text text-anchor="middle" x="417" y="-146" font-family="Helvetica,sans-Serif" font-size="10.00">_param_time</text>
</a>
</g>
</g>
<!-- Node441&#45;&gt;Node456 -->
<g id="edge16" class="edge"><title>Node441&#45;&gt;Node456</title>
<path fill="none" stroke="midnightblue" d="M263.332,-277.549C283.53,-250.78 319.633,-207.081 359,-179 364.19,-175.298 370.016,-171.974 375.908,-169.051"/>
<polygon fill="midnightblue" stroke="midnightblue" points="260.502,-275.489 257.349,-285.604 266.121,-279.663 260.502,-275.489"/>
</g>
<!-- Node443 -->
<g id="node4" class="node"><title>Node443</title>
<g id="a_node4"><a xlink:href="../../d9/def/namespacemom__file__parser.html#a73ba84992b53a7898e3ea651da1847ed" target="_top" xlink:title="mom_file_parser::get\l_param_char">
<polygon fill="white" stroke="black" points="534.5,-482 534.5,-512 626.5,-512 626.5,-482 534.5,-482"/>
<text text-anchor="start" x="542.5" y="-500" font-family="Helvetica,sans-Serif" font-size="10.00">mom_file_parser::get</text>
<text text-anchor="middle" x="580.5" y="-489" font-family="Helvetica,sans-Serif" font-size="10.00">_param_char</text>
</a>
</g>
</g>
<!-- Node442&#45;&gt;Node443 -->
<g id="edge3" class="edge"><title>Node442&#45;&gt;Node443</title>
<path fill="none" stroke="midnightblue" d="M476.155,-497C495.34,-497 516.376,-497 534.432,-497"/>
<polygon fill="midnightblue" stroke="midnightblue" points="476.018,-493.5 466.018,-497 476.018,-500.5 476.018,-493.5"/>
</g>
<!-- Node445 -->
<g id="node6" class="node"><title>Node445</title>
<g id="a_node6"><a xlink:href="../../d9/def/namespacemom__file__parser.html#aa3f8a251fb4f7bbae28b136ebc17a8f3" target="_top" xlink:title="mom_file_parser::get\l_param_char_array">
<polygon fill="white" stroke="black" points="534.5,-433 534.5,-463 626.5,-463 626.5,-433 534.5,-433"/>
<text text-anchor="start" x="542.5" y="-451" font-family="Helvetica,sans-Serif" font-size="10.00">mom_file_parser::get</text>
<text text-anchor="middle" x="580.5" y="-440" font-family="Helvetica,sans-Serif" font-size="10.00">_param_char_array</text>
</a>
</g>
</g>
<!-- Node444&#45;&gt;Node445 -->
<g id="edge5" class="edge"><title>Node444&#45;&gt;Node445</title>
<path fill="none" stroke="midnightblue" d="M476.155,-448C495.34,-448 516.376,-448 534.432,-448"/>
<polygon fill="midnightblue" stroke="midnightblue" points="476.018,-444.5 466.018,-448 476.018,-451.5 476.018,-444.5"/>
</g>
<!-- Node447 -->
<g id="node8" class="node"><title>Node447</title>
<g id="a_node8"><a xlink:href="../../d9/def/namespacemom__file__parser.html#a797f8bbed6aae6cc7338c658cca42386" target="_top" xlink:title="mom_file_parser::get\l_param_int">
<polygon fill="white" stroke="black" points="534.5,-384 534.5,-414 626.5,-414 626.5,-384 534.5,-384"/>
<text text-anchor="start" x="542.5" y="-402" font-family="Helvetica,sans-Serif" font-size="10.00">mom_file_parser::get</text>
<text text-anchor="middle" x="580.5" y="-391" font-family="Helvetica,sans-Serif" font-size="10.00">_param_int</text>
</a>
</g>
</g>
<!-- Node446&#45;&gt;Node447 -->
<g id="edge7" class="edge"><title>Node446&#45;&gt;Node447</title>
<path fill="none" stroke="midnightblue" d="M476.155,-399C495.34,-399 516.376,-399 534.432,-399"/>
<polygon fill="midnightblue" stroke="midnightblue" points="476.018,-395.5 466.018,-399 476.018,-402.5 476.018,-395.5"/>
</g>
<!-- Node449 -->
<g id="node10" class="node"><title>Node449</title>
<g id="a_node10"><a xlink:href="../../d9/def/namespacemom__file__parser.html#a6044e9a5add3d31c9c953a8a713fbb78" target="_top" xlink:title="mom_file_parser::get\l_param_int_array">
<polygon fill="white" stroke="black" points="534.5,-335 534.5,-365 626.5,-365 626.5,-335 534.5,-335"/>
<text text-anchor="start" x="542.5" y="-353" font-family="Helvetica,sans-Serif" font-size="10.00">mom_file_parser::get</text>
<text text-anchor="middle" x="580.5" y="-342" font-family="Helvetica,sans-Serif" font-size="10.00">_param_int_array</text>
</a>
</g>
</g>
<!-- Node448&#45;&gt;Node449 -->
<g id="edge9" class="edge"><title>Node448&#45;&gt;Node449</title>
<path fill="none" stroke="midnightblue" d="M476.155,-350C495.34,-350 516.376,-350 534.432,-350"/>
<polygon fill="midnightblue" stroke="midnightblue" points="476.018,-346.5 466.018,-350 476.018,-353.5 476.018,-346.5"/>
</g>
<!-- Node451 -->
<g id="node12" class="node"><title>Node451</title>
<g id="a_node12"><a xlink:href="../../d9/def/namespacemom__file__parser.html#a94ff881b3a1fd1f0a013f52f0220810a" target="_top" xlink:title="mom_file_parser::get\l_param_logical">
<polygon fill="white" stroke="black" points="534.5,-286 534.5,-316 626.5,-316 626.5,-286 534.5,-286"/>
<text text-anchor="start" x="542.5" y="-304" font-family="Helvetica,sans-Serif" font-size="10.00">mom_file_parser::get</text>
<text text-anchor="middle" x="580.5" y="-293" font-family="Helvetica,sans-Serif" font-size="10.00">_param_logical</text>
</a>
</g>
</g>
<!-- Node450&#45;&gt;Node451 -->
<g id="edge11" class="edge"><title>Node450&#45;&gt;Node451</title>
<path fill="none" stroke="midnightblue" d="M476.155,-301C495.34,-301 516.376,-301 534.432,-301"/>
<polygon fill="midnightblue" stroke="midnightblue" points="476.018,-297.5 466.018,-301 476.018,-304.5 476.018,-297.5"/>
</g>
<!-- Node453 -->
<g id="node14" class="node"><title>Node453</title>
<g id="a_node14"><a xlink:href="../../d9/def/namespacemom__file__parser.html#ad3ab0b86ed8dbac8c4ae556c24a6dd07" target="_top" xlink:title="mom_file_parser::get\l_param_real">
<polygon fill="white" stroke="black" points="534.5,-237 534.5,-267 626.5,-267 626.5,-237 534.5,-237"/>
<text text-anchor="start" x="542.5" y="-255" font-family="Helvetica,sans-Serif" font-size="10.00">mom_file_parser::get</text>
<text text-anchor="middle" x="580.5" y="-244" font-family="Helvetica,sans-Serif" font-size="10.00">_param_real</text>
</a>
</g>
</g>
<!-- Node452&#45;&gt;Node453 -->
<g id="edge13" class="edge"><title>Node452&#45;&gt;Node453</title>
<path fill="none" stroke="midnightblue" d="M476.155,-252C495.34,-252 516.376,-252 534.432,-252"/>
<polygon fill="midnightblue" stroke="midnightblue" points="476.018,-248.5 466.018,-252 476.018,-255.5 476.018,-248.5"/>
</g>
<!-- Node455 -->
<g id="node16" class="node"><title>Node455</title>
<g id="a_node16"><a xlink:href="../../d9/def/namespacemom__file__parser.html#af43ea79dcb7ced6a6bf49d438d105f76" target="_top" xlink:title="mom_file_parser::get\l_param_real_array">
<polygon fill="white" stroke="black" points="534.5,-188 534.5,-218 626.5,-218 626.5,-188 534.5,-188"/>
<text text-anchor="start" x="542.5" y="-206" font-family="Helvetica,sans-Serif" font-size="10.00">mom_file_parser::get</text>
<text text-anchor="middle" x="580.5" y="-195" font-family="Helvetica,sans-Serif" font-size="10.00">_param_real_array</text>
</a>
</g>
</g>
<!-- Node454&#45;&gt;Node455 -->
<g id="edge15" class="edge"><title>Node454&#45;&gt;Node455</title>
<path fill="none" stroke="midnightblue" d="M476.155,-203C495.34,-203 516.376,-203 534.432,-203"/>
<polygon fill="midnightblue" stroke="midnightblue" points="476.018,-199.5 466.018,-203 476.018,-206.5 476.018,-199.5"/>
</g>
<!-- Node457 -->
<g id="node18" class="node"><title>Node457</title>
<g id="a_node18"><a xlink:href="../../d9/def/namespacemom__file__parser.html#a19c106405699f68f8a165ca3456d8314" target="_top" xlink:title="mom_file_parser::get\l_param_time">
<polygon fill="white" stroke="black" points="534.5,-139 534.5,-169 626.5,-169 626.5,-139 534.5,-139"/>
<text text-anchor="start" x="542.5" y="-157" font-family="Helvetica,sans-Serif" font-size="10.00">mom_file_parser::get</text>
<text text-anchor="middle" x="580.5" y="-146" font-family="Helvetica,sans-Serif" font-size="10.00">_param_time</text>
</a>
</g>
</g>
<!-- Node456&#45;&gt;Node457 -->
<g id="edge17" class="edge"><title>Node456&#45;&gt;Node457</title>
<path fill="none" stroke="midnightblue" d="M476.155,-154C495.34,-154 516.376,-154 534.432,-154"/>
<polygon fill="midnightblue" stroke="midnightblue" points="476.018,-150.5 466.018,-154 476.018,-157.5 476.018,-150.5"/>
</g>
<!-- Node459 -->
<g id="node20" class="node"><title>Node459</title>
<g id="a_node20"><a xlink:href="../../d8/d50/namespacebaroclinic__zone__initialization.html#a72863008aadad2118278f5e0978fd99b" target="_top" xlink:title="Reads the parameters unique to this module. ">
<polygon fill="white" stroke="black" points="359,-88 359,-118 475,-118 475,-88 359,-88"/>
<text text-anchor="start" x="367" y="-106" font-family="Helvetica,sans-Serif" font-size="10.00">baroclinic_zone_initialization</text>
<text text-anchor="middle" x="417" y="-95" font-family="Helvetica,sans-Serif" font-size="10.00">::bcz_params</text>
</a>
</g>
</g>
<!-- Node458&#45;&gt;Node459 -->
<g id="edge19" class="edge"><title>Node458&#45;&gt;Node459</title>
<path fill="none" stroke="midnightblue" d="M321.12,-89.0059C333.767,-90.8712 346.72,-92.7817 358.829,-94.5677"/>
<polygon fill="midnightblue" stroke="midnightblue" points="321.468,-85.5194 311.064,-87.5227 320.446,-92.4445 321.468,-85.5194"/>
</g>
<!-- Node464 -->
<g id="node25" class="node"><title>Node464</title>
<g id="a_node25"><a xlink:href="../../d6/d07/namespacemom__diffconvection.html#ac36d9d7fd69e4422e7de01242094ff34" target="_top" xlink:title="mom_diffconvection\l::diffconvection_init">
<polygon fill="white" stroke="black" points="373.5,-39 373.5,-69 460.5,-69 460.5,-39 373.5,-39"/>
<text text-anchor="start" x="381.5" y="-57" font-family="Helvetica,sans-Serif" font-size="10.00">mom_diffconvection</text>
<text text-anchor="middle" x="417" y="-46" font-family="Helvetica,sans-Serif" font-size="10.00">::diffconvection_init</text>
</a>
</g>
</g>
<!-- Node458&#45;&gt;Node464 -->
<g id="edge24" class="edge"><title>Node458&#45;&gt;Node464</title>
<path fill="none" stroke="midnightblue" d="M323.88,-67.0436C340.81,-64.6464 358.135,-62.1933 373.125,-60.0708"/>
<polygon fill="midnightblue" stroke="midnightblue" points="323.388,-63.5781 313.978,-68.4456 324.37,-70.509 323.388,-63.5781"/>
</g>
<!-- Node465 -->
<g id="node26" class="node"><title>Node465</title>
<g id="a_node26"><a xlink:href="../../d5/d08/namespacemom__kpp.html#a9c834424b6e067e280928db3700ec77e" target="_top" xlink:title="Initialize the CVmix KPP module and set up diagnostics Returns True if KPP is to be used...">
<polygon fill="white" stroke="black" points="375.5,-0.5 375.5,-19.5 458.5,-19.5 458.5,-0.5 375.5,-0.5"/>
<text text-anchor="middle" x="417" y="-7.5" font-family="Helvetica,sans-Serif" font-size="10.00">mom_kpp::kpp_init</text>
</a>
</g>
</g>
<!-- Node458&#45;&gt;Node465 -->
<g id="edge25" class="edge"><title>Node458&#45;&gt;Node465</title>
<path fill="none" stroke="midnightblue" d="M276.348,-64.1338C298.849,-53.8933 330.585,-39.8993 359,-29 367.571,-25.7126 376.984,-22.4402 385.649,-19.5609"/>
<polygon fill="midnightblue" stroke="midnightblue" points="274.642,-61.0658 267.006,-68.4113 277.556,-67.4304 274.642,-61.0658"/>
</g>
<!-- Node460 -->
<g id="node21" class="node"><title>Node460</title>
<g id="a_node21"><a xlink:href="../../d8/d50/namespacebaroclinic__zone__initialization.html#a2f99c7b0ea7981ef7b2c342fbc8c00c1" target="_top" xlink:title="Initialization of temperature and salinity with the baroclinic zone initial conditions. ">
<polygon fill="white" stroke="black" points="511,-79.5 511,-120.5 650,-120.5 650,-79.5 511,-79.5"/>
<text text-anchor="start" x="519" y="-108.5" font-family="Helvetica,sans-Serif" font-size="10.00">baroclinic_zone_initialization</text>
<text text-anchor="start" x="519" y="-97.5" font-family="Helvetica,sans-Serif" font-size="10.00">::baroclinic_zone_init_temperature</text>
<text text-anchor="middle" x="580.5" y="-86.5" font-family="Helvetica,sans-Serif" font-size="10.00">_salinity</text>
</a>
</g>
</g>
<!-- Node459&#45;&gt;Node460 -->
<g id="edge20" class="edge"><title>Node459&#45;&gt;Node460</title>
<path fill="none" stroke="midnightblue" d="M485.527,-101.746C493.935,-101.589 502.54,-101.43 510.964,-101.273"/>
<polygon fill="midnightblue" stroke="midnightblue" points="485.327,-98.2486 475.394,-101.934 485.457,-105.247 485.327,-98.2486"/>
</g>
<!-- Node461 -->
<g id="node22" class="node"><title>Node461</title>
<g id="a_node22"><a xlink:href="../../d6/d62/namespacemom__state__initialization.html#af4e854627c6572332ba3fd895f169321" target="_top" xlink:title="mom_state_initialization\l::mom_initialize_state">
<polygon fill="white" stroke="black" points="686,-85 686,-115 787,-115 787,-85 686,-85"/>
<text text-anchor="start" x="694" y="-103" font-family="Helvetica,sans-Serif" font-size="10.00">mom_state_initialization</text>
<text text-anchor="middle" x="736.5" y="-92" font-family="Helvetica,sans-Serif" font-size="10.00">::mom_initialize_state</text>
</a>
</g>
</g>
<!-- Node460&#45;&gt;Node461 -->
<g id="edge21" class="edge"><title>Node460&#45;&gt;Node461</title>
<path fill="none" stroke="midnightblue" d="M660.429,-100C668.988,-100 677.515,-100 685.587,-100"/>
<polygon fill="midnightblue" stroke="midnightblue" points="660.392,-96.5001 650.392,-100 660.392,-103.5 660.392,-96.5001"/>
</g>
<!-- Node462 -->
<g id="node23" class="node"><title>Node462</title>
<g id="a_node23"><a xlink:href="../../da/d01/namespacemom.html#afebdc0103ad9cbe0ed4a54e522dc4104" target="_top" xlink:title="This subroutine initializes MOM. ">
<polygon fill="white" stroke="black" points="823,-90.5 823,-109.5 912,-109.5 912,-90.5 823,-90.5"/>
<text text-anchor="middle" x="867.5" y="-97.5" font-family="Helvetica,sans-Serif" font-size="10.00">mom::initialize_mom</text>
</a>
</g>
</g>
<!-- Node461&#45;&gt;Node462 -->
<g id="edge22" class="edge"><title>Node461&#45;&gt;Node462</title>
<path fill="none" stroke="midnightblue" d="M797.088,-100C805.755,-100 814.541,-100 822.815,-100"/>
<polygon fill="midnightblue" stroke="midnightblue" points="797.006,-96.5001 787.006,-100 797.006,-103.5 797.006,-96.5001"/>
</g>
<!-- Node463 -->
<g id="node24" class="node"><title>Node463</title>
<g id="a_node24"><a xlink:href="../../de/dbc/MOM__driver_8F90.html#a08fffeb2d8e8acbf9ed4609be6d258c6" target="_top" xlink:title="mom_main">
<polygon fill="white" stroke="black" points="948,-90.5 948,-109.5 1004,-109.5 1004,-90.5 948,-90.5"/>
<text text-anchor="middle" x="976" y="-97.5" font-family="Helvetica,sans-Serif" font-size="10.00">mom_main</text>
</a>
</g>
</g>
<!-- Node462&#45;&gt;Node463 -->
<g id="edge23" class="edge"><title>Node462&#45;&gt;Node463</title>
<path fill="none" stroke="midnightblue" d="M922.407,-100C931.206,-100 939.981,-100 947.771,-100"/>
<polygon fill="midnightblue" stroke="midnightblue" points="922.125,-96.5001 912.125,-100 922.125,-103.5 922.125,-96.5001"/>
</g>
</g>
</svg>
