<?xml version="1.0" encoding="UTF-8" standalone="no"?>
<!DOCTYPE svg PUBLIC "-//W3C//DTD SVG 1.1//EN"
 "http://www.w3.org/Graphics/SVG/1.1/DTD/svg11.dtd">
<!-- Generated by graphviz version 2.38.0 (20140413.2041)
 -->
<!-- Title: mom_file_parser::openmultilinecomment Pages: 1 -->
<!--zoomable 215 -->
<svg id="main" version="1.1" xmlns="http://www.w3.org/2000/svg" xmlns:xlink="http://www.w3.org/1999/xlink" xml:space="preserve" onload="init(evt)">
<style type="text/css"><![CDATA[
.edge:hover path { stroke: red; }
.edge:hover polygon { stroke: red; fill: red; }
]]></style>
<script type="text/javascript"><![CDATA[
var edges = document.getElementsByTagName('g');
if (edges && edges.length) {
  for (var i=0;i<edges.length;i++) {
    if (edges[i].id.substr(0,4)=='edge') {
      edges[i].setAttribute('class','edge');
    }
  }
}
]]></script>
        <defs>
                <circle id="rim" cx="0" cy="0" r="7"/>
                <circle id="rim2" cx="0" cy="0" r="3.5"/>
                <g id="zoomPlus">
                        <use xlink:href="#rim" fill="#404040">
                                <set attributeName="fill" to="#808080" begin="zoomplus.mouseover" end="zoomplus.mouseout"/>
                        </use>
                        <path d="M-4,0h8M0,-4v8" fill="none" stroke="white" stroke-width="1.5" pointer-events="none"/>
                </g>
                <g id="zoomMin">
                        <use xlink:href="#rim" fill="#404040">
                                <set attributeName="fill" to="#808080" begin="zoomminus.mouseover" end="zoomminus.mouseout"/>
                        </use>
                        <path d="M-4,0h8" fill="none" stroke="white" stroke-width="1.5" pointer-events="none"/>
                </g>
                <g id="dirArrow">
                        <path fill="none" stroke="white" stroke-width="1.5" d="M0,-3.0v7 M-2.5,-0.5L0,-3.0L2.5,-0.5"/>
                </g>
               <g id="resetDef">
                       <use xlink:href="#rim2" fill="#404040">
                               <set attributeName="fill" to="#808080" begin="reset.mouseover" end="reset.mouseout"/>
                       </use>
               </g>
        </defs>

<script type="text/javascript">
var viewWidth = 815;
var viewHeight = 215;
var sectionId = 'dynsection-39';
</script>
<script xlink:href="../../svgpan.js"/>
<svg id="graph" class="graph">
<g id="viewport">
<title>mom_file_parser::openmultilinecomment</title>
<polygon fill="white" stroke="none" points="-4,4 -4,-210.5 811,-210.5 811,4 -4,4"/>
<!-- Node346 -->
<g id="node1" class="node"><title>Node346</title>
<polygon fill="#bfbfbf" stroke="black" points="0,-66.5 0,-85.5 161,-85.5 161,-66.5 0,-66.5"/>
<text text-anchor="middle" x="80.5" y="-73.5" font-family="Helvetica,sans-Serif" font-size="10.00">mom_file_parser::openmultilinecomment</text>
</g>
<!-- Node347 -->
<g id="node2" class="node"><title>Node347</title>
<g id="a_node2"><a xlink:href="../../d9/def/namespacemom__file__parser.html#a7abfd98d7f0831fc0d1f3747a68f1be9" target="_top" xlink:title="mom_file_parser::populate\l_param_data">
<polygon fill="white" stroke="black" points="197,-61 197,-91 309,-91 309,-61 197,-61"/>
<text text-anchor="start" x="205" y="-79" font-family="Helvetica,sans-Serif" font-size="10.00">mom_file_parser::populate</text>
<text text-anchor="middle" x="253" y="-68" font-family="Helvetica,sans-Serif" font-size="10.00">_param_data</text>
</a>
</g>
</g>
<!-- Node346&#45;&gt;Node347 -->
<g id="edge1" class="edge"><title>Node346&#45;&gt;Node347</title>
<path fill="none" stroke="midnightblue" d="M171.364,-76C179.965,-76 188.503,-76 196.627,-76"/>
<polygon fill="midnightblue" stroke="midnightblue" points="171.259,-72.5001 161.259,-76 171.259,-79.5001 171.259,-72.5001"/>
</g>
<!-- Node348 -->
<g id="node3" class="node"><title>Node348</title>
<g id="a_node3"><a xlink:href="../../d9/def/namespacemom__file__parser.html#abecae1b9386aafa17aec927af1f8c448" target="_top" xlink:title="mom_file_parser::open\l_param_file">
<polygon fill="white" stroke="black" points="345,-61 345,-91 444,-91 444,-61 345,-61"/>
<text text-anchor="start" x="353" y="-79" font-family="Helvetica,sans-Serif" font-size="10.00">mom_file_parser::open</text>
<text text-anchor="middle" x="394.5" y="-68" font-family="Helvetica,sans-Serif" font-size="10.00">_param_file</text>
</a>
</g>
</g>
<!-- Node347&#45;&gt;Node348 -->
<g id="edge2" class="edge"><title>Node347&#45;&gt;Node348</title>
<path fill="none" stroke="midnightblue" d="M319.135,-76C327.718,-76 336.395,-76 344.642,-76"/>
<polygon fill="midnightblue" stroke="midnightblue" points="319.134,-72.5001 309.134,-76 319.134,-79.5001 319.134,-72.5001"/>
</g>
<!-- Node349 -->
<g id="node4" class="node"><title>Node349</title>
<g id="a_node4"><a xlink:href="../../d9/d7f/namespacemom__get__input.html#a299c5b9476662ef1a382e23a8d078143" target="_top" xlink:title="mom_get_input::get\l_mom_input">
<polygon fill="white" stroke="black" points="480,-83 480,-113 568,-113 568,-83 480,-83"/>
<text text-anchor="start" x="488" y="-101" font-family="Helvetica,sans-Serif" font-size="10.00">mom_get_input::get</text>
<text text-anchor="middle" x="524" y="-90" font-family="Helvetica,sans-Serif" font-size="10.00">_mom_input</text>
</a>
</g>
</g>
<!-- Node348&#45;&gt;Node349 -->
<g id="edge3" class="edge"><title>Node348&#45;&gt;Node349</title>
<path fill="none" stroke="midnightblue" d="M454.178,-86.1248C462.875,-87.6254 471.698,-89.1479 479.995,-90.5796"/>
<polygon fill="midnightblue" stroke="midnightblue" points="454.516,-82.6314 444.066,-84.38 453.325,-89.5295 454.516,-82.6314"/>
</g>
<!-- Node356 -->
<g id="node11" class="node"><title>Node356</title>
<g id="a_node11"><a xlink:href="../../d6/d48/MOM__sum__driver_8F90.html#a08fffeb2d8e8acbf9ed4609be6d258c6" target="_top" xlink:title="mom_main">
<polygon fill="white" stroke="black" points="496,-44.5 496,-63.5 552,-63.5 552,-44.5 496,-44.5"/>
<text text-anchor="middle" x="524" y="-51.5" font-family="Helvetica,sans-Serif" font-size="10.00">mom_main</text>
</a>
</g>
</g>
<!-- Node348&#45;&gt;Node356 -->
<g id="edge12" class="edge"><title>Node348&#45;&gt;Node356</title>
<path fill="none" stroke="midnightblue" d="M454.097,-65.8892C468.725,-63.3651 483.718,-60.7781 495.967,-58.6646"/>
<polygon fill="midnightblue" stroke="midnightblue" points="453.325,-62.4705 444.066,-67.62 454.516,-69.3686 453.325,-62.4705"/>
</g>
<!-- Node350 -->
<g id="node5" class="node"><title>Node350</title>
<g id="a_node5"><a xlink:href="../../dc/ded/namespacemom__surface__forcing.html#ad01961191fdfc928f233901e285f4beb" target="_top" xlink:title="mom_surface_forcing\l::surface_forcing_init">
<polygon fill="white" stroke="black" points="612.5,-176 612.5,-206 706.5,-206 706.5,-176 612.5,-176"/>
<text text-anchor="start" x="620.5" y="-194" font-family="Helvetica,sans-Serif" font-size="10.00">mom_surface_forcing</text>
<text text-anchor="middle" x="659.5" y="-183" font-family="Helvetica,sans-Serif" font-size="10.00">::surface_forcing_init</text>
</a>
</g>
</g>
<!-- Node349&#45;&gt;Node350 -->
<g id="edge4" class="edge"><title>Node349&#45;&gt;Node350</title>
<path fill="none" stroke="midnightblue" d="M546.943,-120.43C562.034,-135 583.063,-153.687 604,-167 609.06,-170.218 614.625,-173.209 620.206,-175.912"/>
<polygon fill="midnightblue" stroke="midnightblue" points="549.209,-117.75 539.624,-113.237 544.302,-122.742 549.209,-117.75"/>
</g>
<!-- Node351 -->
<g id="node6" class="node"><title>Node351</title>
<g id="a_node6"><a xlink:href="../../d5/dd4/namespaceocean__model__mod.html#a6b00b9a33be391bb23668abbfa4d99c6" target="_top" xlink:title="ocean_model_mod::ocean\l_model_flux_init">
<polygon fill="white" stroke="black" points="604,-127 604,-157 715,-157 715,-127 604,-127"/>
<text text-anchor="start" x="612" y="-145" font-family="Helvetica,sans-Serif" font-size="10.00">ocean_model_mod::ocean</text>
<text text-anchor="middle" x="659.5" y="-134" font-family="Helvetica,sans-Serif" font-size="10.00">_model_flux_init</text>
</a>
</g>
</g>
<!-- Node349&#45;&gt;Node351 -->
<g id="edge5" class="edge"><title>Node349&#45;&gt;Node351</title>
<path fill="none" stroke="midnightblue" d="M578.181,-115.528C589.577,-119.284 601.524,-123.222 612.617,-126.877"/>
<polygon fill="midnightblue" stroke="midnightblue" points="578.937,-112.092 568.344,-112.286 576.745,-118.74 578.937,-112.092"/>
</g>
<!-- Node352 -->
<g id="node7" class="node"><title>Node352</title>
<g id="a_node7"><a xlink:href="../../d5/d6d/ice__shelf__driver_8F90.html#aec5bef92f0dad343f545cd8d62e378d8" target="_top" xlink:title="shelf_main">
<polygon fill="white" stroke="black" points="751.5,-64.5 751.5,-83.5 806.5,-83.5 806.5,-64.5 751.5,-64.5"/>
<text text-anchor="middle" x="779" y="-71.5" font-family="Helvetica,sans-Serif" font-size="10.00">shelf_main</text>
</a>
</g>
</g>
<!-- Node349&#45;&gt;Node352 -->
<g id="edge6" class="edge"><title>Node349&#45;&gt;Node352</title>
<path fill="none" stroke="midnightblue" d="M578.434,-92.9312C631.407,-87.9061 710.393,-80.4133 751.297,-76.5331"/>
<polygon fill="midnightblue" stroke="midnightblue" points="577.83,-89.4727 568.205,-93.9015 578.491,-96.4414 577.83,-89.4727"/>
</g>
<!-- Node353 -->
<g id="node8" class="node"><title>Node353</title>
<g id="a_node8"><a xlink:href="../../da/d01/namespacemom.html#afebdc0103ad9cbe0ed4a54e522dc4104" target="_top" xlink:title="This subroutine initializes MOM. ">
<polygon fill="white" stroke="black" points="615,-0.5 615,-19.5 704,-19.5 704,-0.5 615,-0.5"/>
<text text-anchor="middle" x="659.5" y="-7.5" font-family="Helvetica,sans-Serif" font-size="10.00">mom::initialize_mom</text>
</a>
</g>
</g>
<!-- Node349&#45;&gt;Node353 -->
<g id="edge7" class="edge"><title>Node349&#45;&gt;Node353</title>
<path fill="none" stroke="midnightblue" d="M562.622,-77.248C564.486,-75.8748 566.291,-74.4564 568,-73 587.23,-56.6099 583.294,-43.48 604,-29 609.42,-25.21 615.667,-22.1113 621.956,-19.5995"/>
<polygon fill="midnightblue" stroke="midnightblue" points="560.505,-74.4539 554.183,-82.9559 564.428,-80.252 560.505,-74.4539"/>
</g>
<!-- Node355 -->
<g id="node10" class="node"><title>Node355</title>
<g id="a_node10"><a xlink:href="../../df/da2/namespacemom__ice__shelf.html#ae315e8464ef8a20062e3bccb61886755" target="_top" xlink:title="mom_ice_shelf::initialize\l_ice_shelf">
<polygon fill="white" stroke="black" points="609,-39 609,-69 710,-69 710,-39 609,-39"/>
<text text-anchor="start" x="617" y="-57" font-family="Helvetica,sans-Serif" font-size="10.00">mom_ice_shelf::initialize</text>
<text text-anchor="middle" x="659.5" y="-46" font-family="Helvetica,sans-Serif" font-size="10.00">_ice_shelf</text>
</a>
</g>
</g>
<!-- Node349&#45;&gt;Node355 -->
<g id="edge9" class="edge"><title>Node349&#45;&gt;Node355</title>
<path fill="none" stroke="midnightblue" d="M578.181,-80.4721C589.577,-76.7161 601.524,-72.7785 612.617,-69.1226"/>
<polygon fill="midnightblue" stroke="midnightblue" points="576.745,-77.26 568.344,-83.7145 578.937,-83.9083 576.745,-77.26"/>
</g>
<!-- Node354 -->
<g id="node9" class="node"><title>Node354</title>
<g id="a_node9"><a xlink:href="../../de/dbc/MOM__driver_8F90.html#a08fffeb2d8e8acbf9ed4609be6d258c6" target="_top" xlink:title="mom_main">
<polygon fill="white" stroke="black" points="751,-23.5 751,-42.5 807,-42.5 807,-23.5 751,-23.5"/>
<text text-anchor="middle" x="779" y="-30.5" font-family="Helvetica,sans-Serif" font-size="10.00">mom_main</text>
</a>
</g>
</g>
<!-- Node353&#45;&gt;Node354 -->
<g id="edge8" class="edge"><title>Node353&#45;&gt;Node354</title>
<path fill="none" stroke="midnightblue" d="M714.32,-20.5349C727.012,-23.0194 740.014,-25.5644 750.932,-27.7017"/>
<polygon fill="midnightblue" stroke="midnightblue" points="714.739,-17.0506 704.253,-18.5644 713.394,-23.9202 714.739,-17.0506"/>
</g>
<!-- Node355&#45;&gt;Node352 -->
<g id="edge10" class="edge"><title>Node355&#45;&gt;Node352</title>
<path fill="none" stroke="midnightblue" d="M720.343,-64.186C731.277,-66.0471 742.16,-67.8996 751.477,-69.4855"/>
<polygon fill="midnightblue" stroke="midnightblue" points="720.776,-60.7095 710.331,-62.4818 719.601,-67.6103 720.776,-60.7095"/>
</g>
<!-- Node355&#45;&gt;Node354 -->
<g id="edge11" class="edge"><title>Node355&#45;&gt;Node354</title>
<path fill="none" stroke="midnightblue" d="M720.494,-43.2777C731.124,-41.3778 741.7,-39.4877 750.829,-37.8562"/>
<polygon fill="midnightblue" stroke="midnightblue" points="719.559,-39.8893 710.331,-45.0941 720.79,-46.7801 719.559,-39.8893"/>
</g>
</g>
</svg>
        <g id="navigator" transform="translate(0 0)" fill="#404254">
                <rect fill="#f2f5e9" fill-opacity="0.5" stroke="#606060" stroke-width=".5" x="0" y="0" width="60" height="60"/>
                <use id="zoomplus" xlink:href="#zoomPlus" x="17" y="9" onmousedown="handleZoom(evt,'in')"/>
                <use id="zoomminus" xlink:href="#zoomMin" x="42" y="9" onmousedown="handleZoom(evt,'out')"/>
                <use id="reset" xlink:href="#resetDef" x="30" y="36" onmousedown="handleReset()"/>
                <g id="arrowUp" xlink:href="#dirArrow" transform="translate(30 24)" onmousedown="handlePan(0,-1)">
                  <use xlink:href="#rim" fill="#404040">
                        <set attributeName="fill" to="#808080" begin="arrowUp.mouseover" end="arrowUp.mouseout"/>
                  </use>
                  <path fill="none" stroke="white" stroke-width="1.5" d="M0,-3.0v7 M-2.5,-0.5L0,-3.0L2.5,-0.5"/>
                </g>
                <g id="arrowRight" xlink:href="#dirArrow" transform="rotate(90) translate(36 -43)" onmousedown="handlePan(1,0)">
                  <use xlink:href="#rim" fill="#404040">
                        <set attributeName="fill" to="#808080" begin="arrowRight.mouseover" end="arrowRight.mouseout"/>
                  </use>
                  <path fill="none" stroke="white" stroke-width="1.5" d="M0,-3.0v7 M-2.5,-0.5L0,-3.0L2.5,-0.5"/>
                </g>
                <g id="arrowDown" xlink:href="#dirArrow" transform="rotate(180) translate(-30 -48)" onmousedown="handlePan(0,1)">
                  <use xlink:href="#rim" fill="#404040">
                        <set attributeName="fill" to="#808080" begin="arrowDown.mouseover" end="arrowDown.mouseout"/>
                  </use>
                  <path fill="none" stroke="white" stroke-width="1.5" d="M0,-3.0v7 M-2.5,-0.5L0,-3.0L2.5,-0.5"/>
                </g>
                <g id="arrowLeft" xlink:href="#dirArrow" transform="rotate(270) translate(-36 17)" onmousedown="handlePan(-1,0)">
                  <use xlink:href="#rim" fill="#404040">
                        <set attributeName="fill" to="#808080" begin="arrowLeft.mouseover" end="arrowLeft.mouseout"/>
                  </use>
                  <path fill="none" stroke="white" stroke-width="1.5" d="M0,-3.0v7 M-2.5,-0.5L0,-3.0L2.5,-0.5"/>
                </g>
        </g>
        <svg viewBox="0 0 15 15" width="100%" height="30px" preserveAspectRatio="xMaxYMin meet">
         <g id="arrow_out" transform="scale(0.3 0.3)">
          <a xlink:href="namespacemom__file__parser_a476a2649ce161e38088588e07f7df130_icgraph_org.svg" target="_base">
           <rect id="button" ry="5" rx="5" y="6" x="6" height="38" width="38"
                fill="#f2f5e9" fill-opacity="0.5" stroke="#606060" stroke-width="1.0"/>
           <path id="arrow"
             d="M 11.500037,31.436501 C 11.940474,20.09759 22.043105,11.32322 32.158766,21.979434 L 37.068811,17.246167 C 37.068811,17.246167 37.088388,32 37.088388,32 L 22.160133,31.978069 C 22.160133,31.978069 26.997745,27.140456 26.997745,27.140456 C 18.528582,18.264221 13.291696,25.230495 11.500037,31.436501 z"
             style="fill:#404040;"/>
          </a>
         </g>
        </svg>
</svg>
