<?xml version="1.0" encoding="UTF-8" standalone="no"?>
<!DOCTYPE svg PUBLIC "-//W3C//DTD SVG 1.1//EN"
 "http://www.w3.org/Graphics/SVG/1.1/DTD/svg11.dtd">
<!-- Generated by graphviz version 2.38.0 (20140413.2041)
 -->
<!-- Title: mom_file_parser::get_variable_line Pages: 1 -->
<svg width="457pt" height="192pt"
 viewBox="0.00 0.00 457.00 191.50" xmlns="http://www.w3.org/2000/svg" xmlns:xlink="http://www.w3.org/1999/xlink">
<g id="graph0" class="graph" transform="scale(1 1) rotate(0) translate(4 187.5)">
<title>mom_file_parser::get_variable_line</title>
<polygon fill="white" stroke="none" points="-4,4 -4,-187.5 453,-187.5 453,4 -4,4"/>
<!-- Node146 -->
<g id="node1" class="node"><title>Node146</title>
<polygon fill="#bfbfbf" stroke="black" points="0,-71 0,-101 92,-101 92,-71 0,-71"/>
<text text-anchor="start" x="8" y="-89" font-family="Helvetica,sans-Serif" font-size="10.00">mom_file_parser::get</text>
<text text-anchor="middle" x="46" y="-78" font-family="Helvetica,sans-Serif" font-size="10.00">_variable_line</text>
</g>
<!-- Node147 -->
<g id="node2" class="node"><title>Node147</title>
<g id="a_node2"><a xlink:href="../../d9/def/namespacemom__file__parser.html#a7803aabff129cc7f56d4516bc24613f0" target="_top" xlink:title="mom_file_parser::flag\l_line_as_read">
<polygon fill="white" stroke="black" points="177,-153 177,-183 271,-183 271,-153 177,-153"/>
<text text-anchor="start" x="185" y="-171" font-family="Helvetica,sans-Serif" font-size="10.00">mom_file_parser::flag</text>
<text text-anchor="middle" x="224" y="-160" font-family="Helvetica,sans-Serif" font-size="10.00">_line_as_read</text>
</a>
</g>
</g>
<!-- Node146&#45;&gt;Node147 -->
<g id="edge1" class="edge"><title>Node146&#45;&gt;Node147</title>
<path fill="none" stroke="midnightblue" d="M67.1044,-101.051C82.9874,-112.4 106.06,-127.717 128,-138 140.23,-143.732 153.839,-148.759 166.848,-152.977"/>
<polygon fill="midnightblue" stroke="midnightblue" points="166.056,-156.397 176.645,-156.044 168.147,-149.716 166.056,-156.397"/>
</g>
<!-- Node148 -->
<g id="node3" class="node"><title>Node148</title>
<g id="a_node3"><a xlink:href="../../d0/de6/namespacemom__error__handler.html#ad5f00a53059c72fe2332d1436c80ca71" target="_top" xlink:title="mom_error_handler::\lis_root_pe">
<polygon fill="white" stroke="black" points="356,-71 356,-101 449,-101 449,-71 356,-71"/>
<text text-anchor="start" x="364" y="-89" font-family="Helvetica,sans-Serif" font-size="10.00">mom_error_handler::</text>
<text text-anchor="middle" x="402.5" y="-78" font-family="Helvetica,sans-Serif" font-size="10.00">is_root_pe</text>
</a>
</g>
</g>
<!-- Node146&#45;&gt;Node148 -->
<g id="edge2" class="edge"><title>Node146&#45;&gt;Node148</title>
<path fill="none" stroke="midnightblue" d="M92.0857,-98.5138C103.695,-101.2 116.234,-103.639 128,-105 212.768,-114.809 235.226,-114.751 320,-105 328.403,-104.033 337.199,-102.524 345.775,-100.768"/>
<polygon fill="midnightblue" stroke="midnightblue" points="346.675,-104.155 355.704,-98.6121 345.189,-97.3139 346.675,-104.155"/>
</g>
<!-- Node149 -->
<g id="node4" class="node"><title>Node149</title>
<g id="a_node4"><a xlink:href="../../d9/def/namespacemom__file__parser.html#a0c9bb1e76b09bc09bae5402e63bd0f99" target="_top" xlink:title="mom_file_parser::overridewarninghasbeenissued">
<polygon fill="white" stroke="black" points="128,-76.5 128,-95.5 320,-95.5 320,-76.5 128,-76.5"/>
<text text-anchor="middle" x="224" y="-83.5" font-family="Helvetica,sans-Serif" font-size="10.00">mom_file_parser::overridewarninghasbeenissued</text>
</a>
</g>
</g>
<!-- Node146&#45;&gt;Node149 -->
<g id="edge3" class="edge"><title>Node146&#45;&gt;Node149</title>
<path fill="none" stroke="midnightblue" d="M92.3244,-86C100.316,-86 108.928,-86 117.782,-86"/>
<polygon fill="midnightblue" stroke="midnightblue" points="117.861,-89.5001 127.861,-86 117.861,-82.5001 117.861,-89.5001"/>
</g>
<!-- Node150 -->
<g id="node5" class="node"><title>Node150</title>
<g id="a_node5"><a xlink:href="../../d9/def/namespacemom__file__parser.html#a73b11b969d303b1fc0ba5235c812fd05" target="_top" xlink:title="mom_file_parser::popblocklevel">
<polygon fill="white" stroke="black" points="160,-38.5 160,-57.5 288,-57.5 288,-38.5 160,-38.5"/>
<text text-anchor="middle" x="224" y="-45.5" font-family="Helvetica,sans-Serif" font-size="10.00">mom_file_parser::popblocklevel</text>
</a>
</g>
</g>
<!-- Node146&#45;&gt;Node150 -->
<g id="edge4" class="edge"><title>Node146&#45;&gt;Node150</title>
<path fill="none" stroke="midnightblue" d="M92.351,-75.0839C103.956,-72.3671 116.426,-69.5142 128,-67 139.557,-64.4896 151.932,-61.9249 163.804,-59.5251"/>
<polygon fill="midnightblue" stroke="midnightblue" points="164.513,-62.9526 173.629,-57.5529 163.136,-56.0895 164.513,-62.9526"/>
</g>
<!-- Node151 -->
<g id="node6" class="node"><title>Node151</title>
<g id="a_node6"><a xlink:href="../../d9/def/namespacemom__file__parser.html#a58777b0faf747d59a793b4e238919dc6" target="_top" xlink:title="mom_file_parser::pushblocklevel">
<polygon fill="white" stroke="black" points="158,-0.5 158,-19.5 290,-19.5 290,-0.5 158,-0.5"/>
<text text-anchor="middle" x="224" y="-7.5" font-family="Helvetica,sans-Serif" font-size="10.00">mom_file_parser::pushblocklevel</text>
</a>
</g>
</g>
<!-- Node146&#45;&gt;Node151 -->
<g id="edge6" class="edge"><title>Node146&#45;&gt;Node151</title>
<path fill="none" stroke="midnightblue" d="M64.044,-70.7812C79.612,-57.7074 103.823,-39.3735 128,-29 134.283,-26.3042 140.966,-23.9855 147.763,-21.9921"/>
<polygon fill="midnightblue" stroke="midnightblue" points="149.024,-25.2773 157.771,-19.2982 147.205,-18.5179 149.024,-25.2773"/>
</g>
<!-- Node150&#45;&gt;Node148 -->
<g id="edge5" class="edge"><title>Node150&#45;&gt;Node148</title>
<path fill="none" stroke="midnightblue" d="M274.368,-57.5656C289.071,-60.4975 305.205,-63.7968 320,-67 328.369,-68.8119 337.204,-70.7966 345.847,-72.7785"/>
<polygon fill="midnightblue" stroke="midnightblue" points="345.335,-76.2523 355.866,-75.0932 346.911,-69.4319 345.335,-76.2523"/>
</g>
</g>
</svg>
