<?xml version="1.0" encoding="UTF-8" standalone="no"?>
<!DOCTYPE svg PUBLIC "-//W3C//DTD SVG 1.1//EN"
 "http://www.w3.org/Graphics/SVG/1.1/DTD/svg11.dtd">
<!-- Generated by graphviz version 2.38.0 (20140413.2041)
 -->
<!-- Title: mom_file_parser::flag_line_as_read Pages: 1 -->
<svg width="492pt" height="382pt"
 viewBox="0.00 0.00 492.00 382.00" xmlns="http://www.w3.org/2000/svg" xmlns:xlink="http://www.w3.org/1999/xlink">
<g id="graph0" class="graph" transform="scale(1 1) rotate(0) translate(4 378)">
<title>mom_file_parser::flag_line_as_read</title>
<polygon fill="white" stroke="none" points="-4,4 -4,-378 488,-378 488,4 -4,4"/>
<!-- Node40 -->
<g id="node1" class="node"><title>Node40</title>
<polygon fill="#bfbfbf" stroke="black" points="0,-171.5 0,-201.5 94,-201.5 94,-171.5 0,-171.5"/>
<text text-anchor="start" x="8" y="-189.5" font-family="Helvetica,sans-Serif" font-size="10.00">mom_file_parser::flag</text>
<text text-anchor="middle" x="47" y="-178.5" font-family="Helvetica,sans-Serif" font-size="10.00">_line_as_read</text>
</g>
<!-- Node41 -->
<g id="node2" class="node"><title>Node41</title>
<g id="a_node2"><a xlink:href="../../d9/def/namespacemom__file__parser.html#af883df6020543889b25986d6ee9701f7" target="_top" xlink:title="mom_file_parser::get\l_variable_line">
<polygon fill="white" stroke="black" points="130,-171.5 130,-201.5 222,-201.5 222,-171.5 130,-171.5"/>
<text text-anchor="start" x="138" y="-189.5" font-family="Helvetica,sans-Serif" font-size="10.00">mom_file_parser::get</text>
<text text-anchor="middle" x="176" y="-178.5" font-family="Helvetica,sans-Serif" font-size="10.00">_variable_line</text>
</a>
</g>
</g>
<!-- Node40&#45;&gt;Node41 -->
<g id="edge1" class="edge"><title>Node40&#45;&gt;Node41</title>
<path fill="none" stroke="midnightblue" d="M104.464,-186.5C112.975,-186.5 121.656,-186.5 129.887,-186.5"/>
<polygon fill="midnightblue" stroke="midnightblue" points="104.209,-183 94.2092,-186.5 104.209,-190 104.209,-183"/>
</g>
<!-- Node42 -->
<g id="node3" class="node"><title>Node42</title>
<g id="a_node3"><a xlink:href="../../d9/def/namespacemom__file__parser.html#a28352549cebdb1f8ed8db3655258d502" target="_top" xlink:title="mom_file_parser::read\l_param_int">
<polygon fill="white" stroke="black" points="258,-343.5 258,-373.5 356,-373.5 356,-343.5 258,-343.5"/>
<text text-anchor="start" x="266" y="-361.5" font-family="Helvetica,sans-Serif" font-size="10.00">mom_file_parser::read</text>
<text text-anchor="middle" x="307" y="-350.5" font-family="Helvetica,sans-Serif" font-size="10.00">_param_int</text>
</a>
</g>
</g>
<!-- Node41&#45;&gt;Node42 -->
<g id="edge2" class="edge"><title>Node41&#45;&gt;Node42</title>
<path fill="none" stroke="midnightblue" d="M185.28,-211.358C197.026,-243.375 221.267,-299.105 258,-334.5 261.489,-337.862 265.541,-340.848 269.783,-343.472"/>
<polygon fill="midnightblue" stroke="midnightblue" points="188.55,-210.104 181.906,-201.851 181.953,-212.446 188.55,-210.104"/>
</g>
<!-- Node44 -->
<g id="node5" class="node"><title>Node44</title>
<g id="a_node5"><a xlink:href="../../d9/def/namespacemom__file__parser.html#a9f3cacd113743a19df607293b6c30ec7" target="_top" xlink:title="mom_file_parser::read\l_param_int_array">
<polygon fill="white" stroke="black" points="258,-294.5 258,-324.5 356,-324.5 356,-294.5 258,-294.5"/>
<text text-anchor="start" x="266" y="-312.5" font-family="Helvetica,sans-Serif" font-size="10.00">mom_file_parser::read</text>
<text text-anchor="middle" x="307" y="-301.5" font-family="Helvetica,sans-Serif" font-size="10.00">_param_int_array</text>
</a>
</g>
</g>
<!-- Node41&#45;&gt;Node44 -->
<g id="edge4" class="edge"><title>Node41&#45;&gt;Node44</title>
<path fill="none" stroke="midnightblue" d="M191.91,-209.929C206.643,-231.655 230.863,-263.807 258,-285.5 262.075,-288.758 266.665,-291.739 271.348,-294.408"/>
<polygon fill="midnightblue" stroke="midnightblue" points="194.825,-207.992 186.377,-201.597 188.993,-211.864 194.825,-207.992"/>
</g>
<!-- Node46 -->
<g id="node7" class="node"><title>Node46</title>
<g id="a_node7"><a xlink:href="../../d9/def/namespacemom__file__parser.html#ae390a91e4e858aa5dd3f88569aa9585e" target="_top" xlink:title="mom_file_parser::read\l_param_real">
<polygon fill="white" stroke="black" points="258,-245.5 258,-275.5 356,-275.5 356,-245.5 258,-245.5"/>
<text text-anchor="start" x="266" y="-263.5" font-family="Helvetica,sans-Serif" font-size="10.00">mom_file_parser::read</text>
<text text-anchor="middle" x="307" y="-252.5" font-family="Helvetica,sans-Serif" font-size="10.00">_param_real</text>
</a>
</g>
</g>
<!-- Node41&#45;&gt;Node46 -->
<g id="edge6" class="edge"><title>Node41&#45;&gt;Node46</title>
<path fill="none" stroke="midnightblue" d="M208.818,-207.052C223.592,-216.358 241.502,-227.308 258,-236.5 263.372,-239.493 269.164,-242.538 274.803,-245.409"/>
<polygon fill="midnightblue" stroke="midnightblue" points="210.385,-203.902 200.065,-201.501 206.636,-209.813 210.385,-203.902"/>
</g>
<!-- Node48 -->
<g id="node9" class="node"><title>Node48</title>
<g id="a_node9"><a xlink:href="../../d9/def/namespacemom__file__parser.html#aea75f399368c1aa2215ba703f0639726" target="_top" xlink:title="mom_file_parser::read\l_param_real_array">
<polygon fill="white" stroke="black" points="258,-196.5 258,-226.5 356,-226.5 356,-196.5 258,-196.5"/>
<text text-anchor="start" x="266" y="-214.5" font-family="Helvetica,sans-Serif" font-size="10.00">mom_file_parser::read</text>
<text text-anchor="middle" x="307" y="-203.5" font-family="Helvetica,sans-Serif" font-size="10.00">_param_real_array</text>
</a>
</g>
</g>
<!-- Node41&#45;&gt;Node48 -->
<g id="edge8" class="edge"><title>Node41&#45;&gt;Node48</title>
<path fill="none" stroke="midnightblue" d="M231.981,-197.155C240.504,-198.807 249.253,-200.502 257.615,-202.123"/>
<polygon fill="midnightblue" stroke="midnightblue" points="232.601,-193.71 222.118,-195.244 231.269,-200.583 232.601,-193.71"/>
</g>
<!-- Node50 -->
<g id="node11" class="node"><title>Node50</title>
<g id="a_node11"><a xlink:href="../../d9/def/namespacemom__file__parser.html#a14c84db15e417656105f7303ad0ac2a2" target="_top" xlink:title="mom_file_parser::read\l_param_char">
<polygon fill="white" stroke="black" points="258,-147.5 258,-177.5 356,-177.5 356,-147.5 258,-147.5"/>
<text text-anchor="start" x="266" y="-165.5" font-family="Helvetica,sans-Serif" font-size="10.00">mom_file_parser::read</text>
<text text-anchor="middle" x="307" y="-154.5" font-family="Helvetica,sans-Serif" font-size="10.00">_param_char</text>
</a>
</g>
</g>
<!-- Node41&#45;&gt;Node50 -->
<g id="edge10" class="edge"><title>Node41&#45;&gt;Node50</title>
<path fill="none" stroke="midnightblue" d="M231.981,-176.271C240.504,-174.685 249.253,-173.058 257.615,-171.502"/>
<polygon fill="midnightblue" stroke="midnightblue" points="231.309,-172.836 222.118,-178.106 232.589,-179.718 231.309,-172.836"/>
</g>
<!-- Node52 -->
<g id="node13" class="node"><title>Node52</title>
<g id="a_node13"><a xlink:href="../../d9/def/namespacemom__file__parser.html#a67808253e247b2542d0810e7c7f598f4" target="_top" xlink:title="mom_file_parser::read\l_param_char_array">
<polygon fill="white" stroke="black" points="258,-98.5 258,-128.5 356,-128.5 356,-98.5 258,-98.5"/>
<text text-anchor="start" x="266" y="-116.5" font-family="Helvetica,sans-Serif" font-size="10.00">mom_file_parser::read</text>
<text text-anchor="middle" x="307" y="-105.5" font-family="Helvetica,sans-Serif" font-size="10.00">_param_char_array</text>
</a>
</g>
</g>
<!-- Node41&#45;&gt;Node52 -->
<g id="edge12" class="edge"><title>Node41&#45;&gt;Node52</title>
<path fill="none" stroke="midnightblue" d="M210.272,-166.227C224.819,-157.509 242.148,-147.317 258,-138.5 263.912,-135.212 270.296,-131.796 276.418,-128.584"/>
<polygon fill="midnightblue" stroke="midnightblue" points="208.375,-163.284 201.612,-171.44 211.985,-169.282 208.375,-163.284"/>
</g>
<!-- Node54 -->
<g id="node15" class="node"><title>Node54</title>
<g id="a_node15"><a xlink:href="../../d9/def/namespacemom__file__parser.html#ae12cfb8a4de90b0454683ba5810c79a2" target="_top" xlink:title="mom_file_parser::read\l_param_logical">
<polygon fill="white" stroke="black" points="258,-49.5 258,-79.5 356,-79.5 356,-49.5 258,-49.5"/>
<text text-anchor="start" x="266" y="-67.5" font-family="Helvetica,sans-Serif" font-size="10.00">mom_file_parser::read</text>
<text text-anchor="middle" x="307" y="-56.5" font-family="Helvetica,sans-Serif" font-size="10.00">_param_logical</text>
</a>
</g>
</g>
<!-- Node41&#45;&gt;Node54 -->
<g id="edge14" class="edge"><title>Node41&#45;&gt;Node54</title>
<path fill="none" stroke="midnightblue" d="M192.54,-163.022C207.44,-141.832 231.528,-110.803 258,-89.5 262.538,-85.8478 267.694,-82.4983 272.902,-79.5191"/>
<polygon fill="midnightblue" stroke="midnightblue" points="189.529,-161.224 186.737,-171.445 195.293,-165.196 189.529,-161.224"/>
</g>
<!-- Node56 -->
<g id="node17" class="node"><title>Node56</title>
<g id="a_node17"><a xlink:href="../../d9/def/namespacemom__file__parser.html#a3003acf92ea172d12a44d86ef62560c2" target="_top" xlink:title="mom_file_parser::read\l_param_time">
<polygon fill="white" stroke="black" points="258,-0.5 258,-30.5 356,-30.5 356,-0.5 258,-0.5"/>
<text text-anchor="start" x="266" y="-18.5" font-family="Helvetica,sans-Serif" font-size="10.00">mom_file_parser::read</text>
<text text-anchor="middle" x="307" y="-7.5" font-family="Helvetica,sans-Serif" font-size="10.00">_param_time</text>
</a>
</g>
</g>
<!-- Node41&#45;&gt;Node56 -->
<g id="edge16" class="edge"><title>Node41&#45;&gt;Node56</title>
<path fill="none" stroke="midnightblue" d="M185.611,-161.662C197.603,-130.114 221.994,-75.5699 258,-40.5 261.769,-36.8287 266.186,-33.5674 270.787,-30.7122"/>
<polygon fill="midnightblue" stroke="midnightblue" points="182.19,-160.824 182.021,-171.418 188.759,-163.242 182.19,-160.824"/>
</g>
<!-- Node43 -->
<g id="node4" class="node"><title>Node43</title>
<g id="a_node4"><a xlink:href="../../d9/def/namespacemom__file__parser.html#a797f8bbed6aae6cc7338c658cca42386" target="_top" xlink:title="mom_file_parser::get\l_param_int">
<polygon fill="white" stroke="black" points="392,-343.5 392,-373.5 484,-373.5 484,-343.5 392,-343.5"/>
<text text-anchor="start" x="400" y="-361.5" font-family="Helvetica,sans-Serif" font-size="10.00">mom_file_parser::get</text>
<text text-anchor="middle" x="438" y="-350.5" font-family="Helvetica,sans-Serif" font-size="10.00">_param_int</text>
</a>
</g>
</g>
<!-- Node42&#45;&gt;Node43 -->
<g id="edge3" class="edge"><title>Node42&#45;&gt;Node43</title>
<path fill="none" stroke="midnightblue" d="M366.095,-358.5C374.757,-358.5 383.575,-358.5 391.916,-358.5"/>
<polygon fill="midnightblue" stroke="midnightblue" points="366.035,-355 356.035,-358.5 366.035,-362 366.035,-355"/>
</g>
<!-- Node45 -->
<g id="node6" class="node"><title>Node45</title>
<g id="a_node6"><a xlink:href="../../d9/def/namespacemom__file__parser.html#a6044e9a5add3d31c9c953a8a713fbb78" target="_top" xlink:title="mom_file_parser::get\l_param_int_array">
<polygon fill="white" stroke="black" points="392,-294.5 392,-324.5 484,-324.5 484,-294.5 392,-294.5"/>
<text text-anchor="start" x="400" y="-312.5" font-family="Helvetica,sans-Serif" font-size="10.00">mom_file_parser::get</text>
<text text-anchor="middle" x="438" y="-301.5" font-family="Helvetica,sans-Serif" font-size="10.00">_param_int_array</text>
</a>
</g>
</g>
<!-- Node44&#45;&gt;Node45 -->
<g id="edge5" class="edge"><title>Node44&#45;&gt;Node45</title>
<path fill="none" stroke="midnightblue" d="M366.095,-309.5C374.757,-309.5 383.575,-309.5 391.916,-309.5"/>
<polygon fill="midnightblue" stroke="midnightblue" points="366.035,-306 356.035,-309.5 366.035,-313 366.035,-306"/>
</g>
<!-- Node47 -->
<g id="node8" class="node"><title>Node47</title>
<g id="a_node8"><a xlink:href="../../d9/def/namespacemom__file__parser.html#ad3ab0b86ed8dbac8c4ae556c24a6dd07" target="_top" xlink:title="mom_file_parser::get\l_param_real">
<polygon fill="white" stroke="black" points="392,-245.5 392,-275.5 484,-275.5 484,-245.5 392,-245.5"/>
<text text-anchor="start" x="400" y="-263.5" font-family="Helvetica,sans-Serif" font-size="10.00">mom_file_parser::get</text>
<text text-anchor="middle" x="438" y="-252.5" font-family="Helvetica,sans-Serif" font-size="10.00">_param_real</text>
</a>
</g>
</g>
<!-- Node46&#45;&gt;Node47 -->
<g id="edge7" class="edge"><title>Node46&#45;&gt;Node47</title>
<path fill="none" stroke="midnightblue" d="M366.095,-260.5C374.757,-260.5 383.575,-260.5 391.916,-260.5"/>
<polygon fill="midnightblue" stroke="midnightblue" points="366.035,-257 356.035,-260.5 366.035,-264 366.035,-257"/>
</g>
<!-- Node49 -->
<g id="node10" class="node"><title>Node49</title>
<g id="a_node10"><a xlink:href="../../d9/def/namespacemom__file__parser.html#af43ea79dcb7ced6a6bf49d438d105f76" target="_top" xlink:title="mom_file_parser::get\l_param_real_array">
<polygon fill="white" stroke="black" points="392,-196.5 392,-226.5 484,-226.5 484,-196.5 392,-196.5"/>
<text text-anchor="start" x="400" y="-214.5" font-family="Helvetica,sans-Serif" font-size="10.00">mom_file_parser::get</text>
<text text-anchor="middle" x="438" y="-203.5" font-family="Helvetica,sans-Serif" font-size="10.00">_param_real_array</text>
</a>
</g>
</g>
<!-- Node48&#45;&gt;Node49 -->
<g id="edge9" class="edge"><title>Node48&#45;&gt;Node49</title>
<path fill="none" stroke="midnightblue" d="M366.095,-211.5C374.757,-211.5 383.575,-211.5 391.916,-211.5"/>
<polygon fill="midnightblue" stroke="midnightblue" points="366.035,-208 356.035,-211.5 366.035,-215 366.035,-208"/>
</g>
<!-- Node51 -->
<g id="node12" class="node"><title>Node51</title>
<g id="a_node12"><a xlink:href="../../d9/def/namespacemom__file__parser.html#a73ba84992b53a7898e3ea651da1847ed" target="_top" xlink:title="mom_file_parser::get\l_param_char">
<polygon fill="white" stroke="black" points="392,-147.5 392,-177.5 484,-177.5 484,-147.5 392,-147.5"/>
<text text-anchor="start" x="400" y="-165.5" font-family="Helvetica,sans-Serif" font-size="10.00">mom_file_parser::get</text>
<text text-anchor="middle" x="438" y="-154.5" font-family="Helvetica,sans-Serif" font-size="10.00">_param_char</text>
</a>
</g>
</g>
<!-- Node50&#45;&gt;Node51 -->
<g id="edge11" class="edge"><title>Node50&#45;&gt;Node51</title>
<path fill="none" stroke="midnightblue" d="M366.095,-162.5C374.757,-162.5 383.575,-162.5 391.916,-162.5"/>
<polygon fill="midnightblue" stroke="midnightblue" points="366.035,-159 356.035,-162.5 366.035,-166 366.035,-159"/>
</g>
<!-- Node53 -->
<g id="node14" class="node"><title>Node53</title>
<g id="a_node14"><a xlink:href="../../d9/def/namespacemom__file__parser.html#aa3f8a251fb4f7bbae28b136ebc17a8f3" target="_top" xlink:title="mom_file_parser::get\l_param_char_array">
<polygon fill="white" stroke="black" points="392,-98.5 392,-128.5 484,-128.5 484,-98.5 392,-98.5"/>
<text text-anchor="start" x="400" y="-116.5" font-family="Helvetica,sans-Serif" font-size="10.00">mom_file_parser::get</text>
<text text-anchor="middle" x="438" y="-105.5" font-family="Helvetica,sans-Serif" font-size="10.00">_param_char_array</text>
</a>
</g>
</g>
<!-- Node52&#45;&gt;Node53 -->
<g id="edge13" class="edge"><title>Node52&#45;&gt;Node53</title>
<path fill="none" stroke="midnightblue" d="M366.095,-113.5C374.757,-113.5 383.575,-113.5 391.916,-113.5"/>
<polygon fill="midnightblue" stroke="midnightblue" points="366.035,-110 356.035,-113.5 366.035,-117 366.035,-110"/>
</g>
<!-- Node55 -->
<g id="node16" class="node"><title>Node55</title>
<g id="a_node16"><a xlink:href="../../d9/def/namespacemom__file__parser.html#a94ff881b3a1fd1f0a013f52f0220810a" target="_top" xlink:title="mom_file_parser::get\l_param_logical">
<polygon fill="white" stroke="black" points="392,-49.5 392,-79.5 484,-79.5 484,-49.5 392,-49.5"/>
<text text-anchor="start" x="400" y="-67.5" font-family="Helvetica,sans-Serif" font-size="10.00">mom_file_parser::get</text>
<text text-anchor="middle" x="438" y="-56.5" font-family="Helvetica,sans-Serif" font-size="10.00">_param_logical</text>
</a>
</g>
</g>
<!-- Node54&#45;&gt;Node55 -->
<g id="edge15" class="edge"><title>Node54&#45;&gt;Node55</title>
<path fill="none" stroke="midnightblue" d="M366.095,-64.5C374.757,-64.5 383.575,-64.5 391.916,-64.5"/>
<polygon fill="midnightblue" stroke="midnightblue" points="366.035,-61.0001 356.035,-64.5 366.035,-68.0001 366.035,-61.0001"/>
</g>
<!-- Node57 -->
<g id="node18" class="node"><title>Node57</title>
<g id="a_node18"><a xlink:href="../../d9/def/namespacemom__file__parser.html#a19c106405699f68f8a165ca3456d8314" target="_top" xlink:title="mom_file_parser::get\l_param_time">
<polygon fill="white" stroke="black" points="392,-0.5 392,-30.5 484,-30.5 484,-0.5 392,-0.5"/>
<text text-anchor="start" x="400" y="-18.5" font-family="Helvetica,sans-Serif" font-size="10.00">mom_file_parser::get</text>
<text text-anchor="middle" x="438" y="-7.5" font-family="Helvetica,sans-Serif" font-size="10.00">_param_time</text>
</a>
</g>
</g>
<!-- Node56&#45;&gt;Node57 -->
<g id="edge17" class="edge"><title>Node56&#45;&gt;Node57</title>
<path fill="none" stroke="midnightblue" d="M366.095,-15.5C374.757,-15.5 383.575,-15.5 391.916,-15.5"/>
<polygon fill="midnightblue" stroke="midnightblue" points="366.035,-12.0001 356.035,-15.5 366.035,-19.0001 366.035,-12.0001"/>
</g>
</g>
</svg>
