<?xml version="1.0" encoding="UTF-8" standalone="no"?>
<!DOCTYPE svg PUBLIC "-//W3C//DTD SVG 1.1//EN"
 "http://www.w3.org/Graphics/SVG/1.1/DTD/svg11.dtd">
<!-- Generated by graphviz version 2.38.0 (20140413.2041)
 -->
<!-- Title: mom_file_parser::populate_param_data Pages: 1 -->
<!--zoomable 256 -->
<svg id="main" version="1.1" xmlns="http://www.w3.org/2000/svg" xmlns:xlink="http://www.w3.org/1999/xlink" xml:space="preserve" onload="init(evt)">
<style type="text/css"><![CDATA[
.edge:hover path { stroke: red; }
.edge:hover polygon { stroke: red; fill: red; }
]]></style>
<script type="text/javascript"><![CDATA[
var edges = document.getElementsByTagName('g');
if (edges && edges.length) {
  for (var i=0;i<edges.length;i++) {
    if (edges[i].id.substr(0,4)=='edge') {
      edges[i].setAttribute('class','edge');
    }
  }
}
]]></script>
        <defs>
                <circle id="rim" cx="0" cy="0" r="7"/>
                <circle id="rim2" cx="0" cy="0" r="3.5"/>
                <g id="zoomPlus">
                        <use xlink:href="#rim" fill="#404040">
                                <set attributeName="fill" to="#808080" begin="zoomplus.mouseover" end="zoomplus.mouseout"/>
                        </use>
                        <path d="M-4,0h8M0,-4v8" fill="none" stroke="white" stroke-width="1.5" pointer-events="none"/>
                </g>
                <g id="zoomMin">
                        <use xlink:href="#rim" fill="#404040">
                                <set attributeName="fill" to="#808080" begin="zoomminus.mouseover" end="zoomminus.mouseout"/>
                        </use>
                        <path d="M-4,0h8" fill="none" stroke="white" stroke-width="1.5" pointer-events="none"/>
                </g>
                <g id="dirArrow">
                        <path fill="none" stroke="white" stroke-width="1.5" d="M0,-3.0v7 M-2.5,-0.5L0,-3.0L2.5,-0.5"/>
                </g>
               <g id="resetDef">
                       <use xlink:href="#rim2" fill="#404040">
                               <set attributeName="fill" to="#808080" begin="reset.mouseover" end="reset.mouseout"/>
                       </use>
               </g>
        </defs>

<script type="text/javascript">
var viewWidth = 719;
var viewHeight = 256;
var sectionId = 'dynsection-45';
</script>
<script xlink:href="../../svgpan.js"/>
<svg id="graph" class="graph">
<g id="viewport">
<title>mom_file_parser::populate_param_data</title>
<polygon fill="white" stroke="none" points="-4,4 -4,-252 715,-252 715,4 -4,4"/>
<!-- Node420 -->
<g id="node1" class="node"><title>Node420</title>
<polygon fill="#bfbfbf" stroke="black" points="0,-109 0,-139 112,-139 112,-109 0,-109"/>
<text text-anchor="start" x="8" y="-127" font-family="Helvetica,sans-Serif" font-size="10.00">mom_file_parser::populate</text>
<text text-anchor="middle" x="56" y="-116" font-family="Helvetica,sans-Serif" font-size="10.00">_param_data</text>
</g>
<!-- Node421 -->
<g id="node2" class="node"><title>Node421</title>
<g id="a_node2"><a xlink:href="../../d9/def/namespacemom__file__parser.html#a99c426fd23fc4df0c4d05e33039e0a66" target="_top" xlink:title="mom_file_parser::closemultilinecomment">
<polygon fill="white" stroke="black" points="148,-228.5 148,-247.5 309,-247.5 309,-228.5 148,-228.5"/>
<text text-anchor="middle" x="228.5" y="-235.5" font-family="Helvetica,sans-Serif" font-size="10.00">mom_file_parser::closemultilinecomment</text>
</a>
</g>
</g>
<!-- Node420&#45;&gt;Node421 -->
<g id="edge1" class="edge"><title>Node420&#45;&gt;Node421</title>
<path fill="none" stroke="midnightblue" d="M68.2586,-139.018C83.9805,-158.967 114.388,-194.01 148,-214 155.563,-218.498 164.038,-222.215 172.561,-225.268"/>
<polygon fill="midnightblue" stroke="midnightblue" points="171.564,-228.625 182.157,-228.44 173.761,-221.978 171.564,-228.625"/>
</g>
<!-- Node422 -->
<g id="node3" class="node"><title>Node422</title>
<g id="a_node3"><a xlink:href="../../d0/de6/namespacemom__error__handler.html#ad5f00a53059c72fe2332d1436c80ca71" target="_top" xlink:title="mom_error_handler::\lis_root_pe">
<polygon fill="white" stroke="black" points="384.5,-128 384.5,-158 477.5,-158 477.5,-128 384.5,-128"/>
<text text-anchor="start" x="392.5" y="-146" font-family="Helvetica,sans-Serif" font-size="10.00">mom_error_handler::</text>
<text text-anchor="middle" x="431" y="-135" font-family="Helvetica,sans-Serif" font-size="10.00">is_root_pe</text>
</a>
</g>
</g>
<!-- Node420&#45;&gt;Node422 -->
<g id="edge2" class="edge"><title>Node420&#45;&gt;Node422</title>
<path fill="none" stroke="midnightblue" d="M112.056,-137.391C123.845,-139.725 136.281,-141.79 148,-143 226.167,-151.073 317.173,-149.023 374.19,-146.37"/>
<polygon fill="midnightblue" stroke="midnightblue" points="374.612,-149.853 384.43,-145.87 374.271,-142.862 374.612,-149.853"/>
</g>
<!-- Node423 -->
<g id="node4" class="node"><title>Node423</title>
<g id="a_node4"><a xlink:href="../../d9/def/namespacemom__file__parser.html#ab4b89d9420e174185db1c6aa3feb948b" target="_top" xlink:title="mom_file_parser::lastnoncommentnonblank">
<polygon fill="white" stroke="black" points="345,-76.5 345,-95.5 517,-95.5 517,-76.5 345,-76.5"/>
<text text-anchor="middle" x="431" y="-83.5" font-family="Helvetica,sans-Serif" font-size="10.00">mom_file_parser::lastnoncommentnonblank</text>
</a>
</g>
</g>
<!-- Node420&#45;&gt;Node423 -->
<g id="edge3" class="edge"><title>Node420&#45;&gt;Node423</title>
<path fill="none" stroke="midnightblue" d="M112.128,-111.212C123.913,-108.838 136.328,-106.604 148,-105 209.896,-96.4949 279.981,-91.75 334.798,-89.1289"/>
<polygon fill="midnightblue" stroke="midnightblue" points="335.023,-92.6223 344.85,-88.6637 334.699,-85.6298 335.023,-92.6223"/>
</g>
<!-- Node425 -->
<g id="node6" class="node"><title>Node425</title>
<g id="a_node6"><a xlink:href="../../d9/def/namespacemom__file__parser.html#a476a2649ce161e38088588e07f7df130" target="_top" xlink:title="mom_file_parser::openmultilinecomment">
<polygon fill="white" stroke="black" points="350.5,-183.5 350.5,-202.5 511.5,-202.5 511.5,-183.5 350.5,-183.5"/>
<text text-anchor="middle" x="431" y="-190.5" font-family="Helvetica,sans-Serif" font-size="10.00">mom_file_parser::openmultilinecomment</text>
</a>
</g>
</g>
<!-- Node420&#45;&gt;Node425 -->
<g id="edge5" class="edge"><title>Node420&#45;&gt;Node425</title>
<path fill="none" stroke="midnightblue" d="M90.4954,-139.169C107.414,-146.238 128.452,-154.142 148,-159 211.187,-174.703 284.208,-183.252 340.112,-187.85"/>
<polygon fill="midnightblue" stroke="midnightblue" points="340.099,-191.36 350.345,-188.663 340.654,-184.382 340.099,-191.36"/>
</g>
<!-- Node426 -->
<g id="node7" class="node"><title>Node426</title>
<g id="a_node7"><a xlink:href="../../d9/def/namespacemom__file__parser.html#ae0b982cc161173a401291757a6677373" target="_top" xlink:title="mom_file_parser::removecomments">
<polygon fill="white" stroke="black" points="156,-0.5 156,-19.5 301,-19.5 301,-0.5 156,-0.5"/>
<text text-anchor="middle" x="228.5" y="-7.5" font-family="Helvetica,sans-Serif" font-size="10.00">mom_file_parser::removecomments</text>
</a>
</g>
</g>
<!-- Node420&#45;&gt;Node426 -->
<g id="edge7" class="edge"><title>Node420&#45;&gt;Node426</title>
<path fill="none" stroke="midnightblue" d="M67.1208,-108.907C82.1764,-87.6818 112.537,-49.3398 148,-29 151.914,-26.755 156.082,-24.7746 160.381,-23.0277"/>
<polygon fill="midnightblue" stroke="midnightblue" points="161.741,-26.258 169.953,-19.5643 159.359,-19.6757 161.741,-26.258"/>
</g>
<!-- Node427 -->
<g id="node8" class="node"><title>Node427</title>
<g id="a_node8"><a xlink:href="../../d9/def/namespacemom__file__parser.html#a9813087789e0924f363d7f67768c7f42" target="_top" xlink:title="mom_file_parser::replacetabs">
<polygon fill="white" stroke="black" points="167.5,-38.5 167.5,-57.5 289.5,-57.5 289.5,-38.5 167.5,-38.5"/>
<text text-anchor="middle" x="228.5" y="-45.5" font-family="Helvetica,sans-Serif" font-size="10.00">mom_file_parser::replacetabs</text>
</a>
</g>
</g>
<!-- Node420&#45;&gt;Node427 -->
<g id="edge9" class="edge"><title>Node420&#45;&gt;Node427</title>
<path fill="none" stroke="midnightblue" d="M80.1914,-108.794C98.1453,-97.5114 123.929,-82.3523 148,-72 158.14,-67.6389 169.326,-63.7397 180.025,-60.4162"/>
<polygon fill="midnightblue" stroke="midnightblue" points="181.093,-63.7499 189.669,-57.5291 179.086,-57.0439 181.093,-63.7499"/>
</g>
<!-- Node428 -->
<g id="node9" class="node"><title>Node428</title>
<g id="a_node9"><a xlink:href="../../d9/def/namespacemom__file__parser.html#a3ad322925f44e8cb48c4e652634f6f93" target="_top" xlink:title="mom_file_parser::simplifywhitespace">
<polygon fill="white" stroke="black" points="155.5,-114.5 155.5,-133.5 301.5,-133.5 301.5,-114.5 155.5,-114.5"/>
<text text-anchor="middle" x="228.5" y="-121.5" font-family="Helvetica,sans-Serif" font-size="10.00">mom_file_parser::simplifywhitespace</text>
</a>
</g>
</g>
<!-- Node420&#45;&gt;Node428 -->
<g id="edge10" class="edge"><title>Node420&#45;&gt;Node428</title>
<path fill="none" stroke="midnightblue" d="M112.356,-124C122.853,-124 134.043,-124 145.166,-124"/>
<polygon fill="midnightblue" stroke="midnightblue" points="145.34,-127.5 155.34,-124 145.34,-120.5 145.34,-127.5"/>
</g>
<!-- Node424 -->
<g id="node5" class="node"><title>Node424</title>
<g id="a_node5"><a xlink:href="../../d9/def/namespacemom__file__parser.html#a000fd0a0681f9e73481ef2663154df78" target="_top" xlink:title="mom_file_parser::lastnoncommentindex">
<polygon fill="white" stroke="black" points="553,-129.5 553,-148.5 711,-148.5 711,-129.5 553,-129.5"/>
<text text-anchor="middle" x="632" y="-136.5" font-family="Helvetica,sans-Serif" font-size="10.00">mom_file_parser::lastnoncommentindex</text>
</a>
</g>
</g>
<!-- Node423&#45;&gt;Node424 -->
<g id="edge4" class="edge"><title>Node423&#45;&gt;Node424</title>
<path fill="none" stroke="midnightblue" d="M468.037,-95.5979C501.003,-104.378 549.921,-117.406 585.556,-126.897"/>
<polygon fill="midnightblue" stroke="midnightblue" points="584.667,-130.282 595.231,-129.474 586.468,-123.518 584.667,-130.282"/>
</g>
<!-- Node425&#45;&gt;Node424 -->
<g id="edge6" class="edge"><title>Node425&#45;&gt;Node424</title>
<path fill="none" stroke="midnightblue" d="M467.119,-183.47C500.266,-174.475 550.119,-160.948 586.133,-151.175"/>
<polygon fill="midnightblue" stroke="midnightblue" points="587.163,-154.522 595.898,-148.525 585.33,-147.766 587.163,-154.522"/>
</g>
<!-- Node426&#45;&gt;Node423 -->
<g id="edge8" class="edge"><title>Node426&#45;&gt;Node423</title>
<path fill="none" stroke="midnightblue" d="M276.627,-19.5716C287.389,-22.2224 298.689,-25.3826 309,-29 342.658,-40.8085 379.49,-58.9684 403.567,-71.6061"/>
<polygon fill="midnightblue" stroke="midnightblue" points="401.971,-74.7211 412.445,-76.319 405.253,-68.5384 401.971,-74.7211"/>
</g>
<!-- Node428&#45;&gt;Node422 -->
<g id="edge11" class="edge"><title>Node428&#45;&gt;Node422</title>
<path fill="none" stroke="midnightblue" d="M301.602,-130.833C325.552,-133.102 351.834,-135.593 374.348,-137.726"/>
<polygon fill="midnightblue" stroke="midnightblue" points="374.119,-141.22 384.405,-138.679 374.779,-134.251 374.119,-141.22"/>
</g>
</g>
</svg>
        <g id="navigator" transform="translate(0 0)" fill="#404254">
                <rect fill="#f2f5e9" fill-opacity="0.5" stroke="#606060" stroke-width=".5" x="0" y="0" width="60" height="60"/>
                <use id="zoomplus" xlink:href="#zoomPlus" x="17" y="9" onmousedown="handleZoom(evt,'in')"/>
                <use id="zoomminus" xlink:href="#zoomMin" x="42" y="9" onmousedown="handleZoom(evt,'out')"/>
                <use id="reset" xlink:href="#resetDef" x="30" y="36" onmousedown="handleReset()"/>
                <g id="arrowUp" xlink:href="#dirArrow" transform="translate(30 24)" onmousedown="handlePan(0,-1)">
                  <use xlink:href="#rim" fill="#404040">
                        <set attributeName="fill" to="#808080" begin="arrowUp.mouseover" end="arrowUp.mouseout"/>
                  </use>
                  <path fill="none" stroke="white" stroke-width="1.5" d="M0,-3.0v7 M-2.5,-0.5L0,-3.0L2.5,-0.5"/>
                </g>
                <g id="arrowRight" xlink:href="#dirArrow" transform="rotate(90) translate(36 -43)" onmousedown="handlePan(1,0)">
                  <use xlink:href="#rim" fill="#404040">
                        <set attributeName="fill" to="#808080" begin="arrowRight.mouseover" end="arrowRight.mouseout"/>
                  </use>
                  <path fill="none" stroke="white" stroke-width="1.5" d="M0,-3.0v7 M-2.5,-0.5L0,-3.0L2.5,-0.5"/>
                </g>
                <g id="arrowDown" xlink:href="#dirArrow" transform="rotate(180) translate(-30 -48)" onmousedown="handlePan(0,1)">
                  <use xlink:href="#rim" fill="#404040">
                        <set attributeName="fill" to="#808080" begin="arrowDown.mouseover" end="arrowDown.mouseout"/>
                  </use>
                  <path fill="none" stroke="white" stroke-width="1.5" d="M0,-3.0v7 M-2.5,-0.5L0,-3.0L2.5,-0.5"/>
                </g>
                <g id="arrowLeft" xlink:href="#dirArrow" transform="rotate(270) translate(-36 17)" onmousedown="handlePan(-1,0)">
                  <use xlink:href="#rim" fill="#404040">
                        <set attributeName="fill" to="#808080" begin="arrowLeft.mouseover" end="arrowLeft.mouseout"/>
                  </use>
                  <path fill="none" stroke="white" stroke-width="1.5" d="M0,-3.0v7 M-2.5,-0.5L0,-3.0L2.5,-0.5"/>
                </g>
        </g>
        <svg viewBox="0 0 15 15" width="100%" height="30px" preserveAspectRatio="xMaxYMin meet">
         <g id="arrow_out" transform="scale(0.3 0.3)">
          <a xlink:href="namespacemom__file__parser_a7abfd98d7f0831fc0d1f3747a68f1be9_cgraph_org.svg" target="_base">
           <rect id="button" ry="5" rx="5" y="6" x="6" height="38" width="38"
                fill="#f2f5e9" fill-opacity="0.5" stroke="#606060" stroke-width="1.0"/>
           <path id="arrow"
             d="M 11.500037,31.436501 C 11.940474,20.09759 22.043105,11.32322 32.158766,21.979434 L 37.068811,17.246167 C 37.068811,17.246167 37.088388,32 37.088388,32 L 22.160133,31.978069 C 22.160133,31.978069 26.997745,27.140456 26.997745,27.140456 C 18.528582,18.264221 13.291696,25.230495 11.500037,31.436501 z"
             style="fill:#404040;"/>
          </a>
         </g>
        </svg>
</svg>
