<?xml version="1.0" encoding="UTF-8" standalone="no"?>
<!DOCTYPE svg PUBLIC "-//W3C//DTD SVG 1.1//EN"
 "http://www.w3.org/Graphics/SVG/1.1/DTD/svg11.dtd">
<!-- Generated by graphviz version 2.38.0 (20140413.2041)
 -->
<!-- Title: mom_file_parser::get_param_int Pages: 1 -->
<svg width="719pt" height="218pt"
 viewBox="0.00 0.00 719.00 217.50" xmlns="http://www.w3.org/2000/svg" xmlns:xlink="http://www.w3.org/1999/xlink">
<g id="graph0" class="graph" transform="scale(1 1) rotate(0) translate(4 213.5)">
<title>mom_file_parser::get_param_int</title>
<polygon fill="white" stroke="none" points="-4,4 -4,-213.5 715,-213.5 715,4 -4,4"/>
<!-- Node80 -->
<g id="node1" class="node"><title>Node80</title>
<polygon fill="#bfbfbf" stroke="black" points="0,-119 0,-149 92,-149 92,-119 0,-119"/>
<text text-anchor="start" x="8" y="-137" font-family="Helvetica,sans-Serif" font-size="10.00">mom_file_parser::get</text>
<text text-anchor="middle" x="46" y="-126" font-family="Helvetica,sans-Serif" font-size="10.00">_param_int</text>
</g>
<!-- Node81 -->
<g id="node2" class="node"><title>Node81</title>
<g id="a_node2"><a xlink:href="../../d9/def/namespacemom__file__parser.html#aecd6fb26b3d450092a76de8a4cf54183" target="_top" xlink:title="mom_file_parser::log\l_param_int">
<polygon fill="white" stroke="black" points="262,-179 262,-209 354,-209 354,-179 262,-179"/>
<text text-anchor="start" x="270" y="-197" font-family="Helvetica,sans-Serif" font-size="10.00">mom_file_parser::log</text>
<text text-anchor="middle" x="308" y="-186" font-family="Helvetica,sans-Serif" font-size="10.00">_param_int</text>
</a>
</g>
</g>
<!-- Node80&#45;&gt;Node81 -->
<g id="edge1" class="edge"><title>Node80&#45;&gt;Node81</title>
<path fill="none" stroke="midnightblue" d="M92.2885,-144.451C136.705,-154.701 204.489,-170.344 251.984,-181.304"/>
<polygon fill="midnightblue" stroke="midnightblue" points="251.264,-184.73 261.795,-183.568 252.838,-177.909 251.264,-184.73"/>
</g>
<!-- Node83 -->
<g id="node4" class="node"><title>Node83</title>
<g id="a_node4"><a xlink:href="../../d9/def/namespacemom__file__parser.html#a28352549cebdb1f8ed8db3655258d502" target="_top" xlink:title="mom_file_parser::read\l_param_int">
<polygon fill="white" stroke="black" points="128,-97 128,-127 226,-127 226,-97 128,-97"/>
<text text-anchor="start" x="136" y="-115" font-family="Helvetica,sans-Serif" font-size="10.00">mom_file_parser::read</text>
<text text-anchor="middle" x="177" y="-104" font-family="Helvetica,sans-Serif" font-size="10.00">_param_int</text>
</a>
</g>
</g>
<!-- Node80&#45;&gt;Node83 -->
<g id="edge3" class="edge"><title>Node80&#45;&gt;Node83</title>
<path fill="none" stroke="midnightblue" d="M92.1179,-126.305C100.369,-124.898 109.086,-123.412 117.658,-121.95"/>
<polygon fill="midnightblue" stroke="midnightblue" points="118.346,-125.383 127.615,-120.252 117.169,-118.483 118.346,-125.383"/>
</g>
<!-- Node82 -->
<g id="node3" class="node"><title>Node82</title>
<g id="a_node3"><a xlink:href="../../d0/de6/namespacemom__error__handler.html#ad5f00a53059c72fe2332d1436c80ca71" target="_top" xlink:title="mom_error_handler::\lis_root_pe">
<polygon fill="white" stroke="black" points="618,-159 618,-189 711,-189 711,-159 618,-159"/>
<text text-anchor="start" x="626" y="-177" font-family="Helvetica,sans-Serif" font-size="10.00">mom_error_handler::</text>
<text text-anchor="middle" x="664.5" y="-166" font-family="Helvetica,sans-Serif" font-size="10.00">is_root_pe</text>
</a>
</g>
</g>
<!-- Node81&#45;&gt;Node82 -->
<g id="edge2" class="edge"><title>Node81&#45;&gt;Node82</title>
<path fill="none" stroke="midnightblue" d="M354.047,-195.047C408.267,-195.838 502.015,-195.706 582,-188 590.422,-187.189 599.286,-186.009 607.942,-184.673"/>
<polygon fill="midnightblue" stroke="midnightblue" points="608.659,-188.103 617.969,-183.046 607.538,-181.193 608.659,-188.103"/>
</g>
<!-- Node84 -->
<g id="node5" class="node"><title>Node84</title>
<g id="a_node5"><a xlink:href="../../d9/def/namespacemom__file__parser.html#af883df6020543889b25986d6ee9701f7" target="_top" xlink:title="mom_file_parser::get\l_variable_line">
<polygon fill="white" stroke="black" points="262,-95 262,-125 354,-125 354,-95 262,-95"/>
<text text-anchor="start" x="270" y="-113" font-family="Helvetica,sans-Serif" font-size="10.00">mom_file_parser::get</text>
<text text-anchor="middle" x="308" y="-102" font-family="Helvetica,sans-Serif" font-size="10.00">_variable_line</text>
</a>
</g>
</g>
<!-- Node83&#45;&gt;Node84 -->
<g id="edge4" class="edge"><title>Node83&#45;&gt;Node84</title>
<path fill="none" stroke="midnightblue" d="M226.035,-111.255C234.387,-111.126 243.134,-110.99 251.662,-110.858"/>
<polygon fill="midnightblue" stroke="midnightblue" points="251.972,-114.354 261.916,-110.699 251.863,-107.355 251.972,-114.354"/>
</g>
<!-- Node84&#45;&gt;Node82 -->
<g id="edge5" class="edge"><title>Node84&#45;&gt;Node82</title>
<path fill="none" stroke="midnightblue" d="M330.186,-125.181C345.89,-135.556 368.253,-148.552 390,-155 463.032,-176.653 551.64,-178.658 607.807,-177.12"/>
<polygon fill="midnightblue" stroke="midnightblue" points="608.023,-180.615 617.906,-176.795 607.798,-173.618 608.023,-180.615"/>
</g>
<!-- Node85 -->
<g id="node6" class="node"><title>Node85</title>
<g id="a_node6"><a xlink:href="../../d9/def/namespacemom__file__parser.html#a58777b0faf747d59a793b4e238919dc6" target="_top" xlink:title="mom_file_parser::pushblocklevel">
<polygon fill="white" stroke="black" points="420,-126.5 420,-145.5 552,-145.5 552,-126.5 420,-126.5"/>
<text text-anchor="middle" x="486" y="-133.5" font-family="Helvetica,sans-Serif" font-size="10.00">mom_file_parser::pushblocklevel</text>
</a>
</g>
</g>
<!-- Node84&#45;&gt;Node85 -->
<g id="edge6" class="edge"><title>Node84&#45;&gt;Node85</title>
<path fill="none" stroke="midnightblue" d="M354.324,-116.696C371.497,-119.233 391.531,-122.192 410.679,-125.021"/>
<polygon fill="midnightblue" stroke="midnightblue" points="410.188,-128.486 420.592,-126.485 411.211,-121.561 410.188,-128.486"/>
</g>
<!-- Node86 -->
<g id="node7" class="node"><title>Node86</title>
<g id="a_node7"><a xlink:href="../../d9/def/namespacemom__file__parser.html#a7803aabff129cc7f56d4516bc24613f0" target="_top" xlink:title="mom_file_parser::flag\l_line_as_read">
<polygon fill="white" stroke="black" points="439,-77 439,-107 533,-107 533,-77 439,-77"/>
<text text-anchor="start" x="447" y="-95" font-family="Helvetica,sans-Serif" font-size="10.00">mom_file_parser::flag</text>
<text text-anchor="middle" x="486" y="-84" font-family="Helvetica,sans-Serif" font-size="10.00">_line_as_read</text>
</a>
</g>
</g>
<!-- Node84&#45;&gt;Node86 -->
<g id="edge7" class="edge"><title>Node84&#45;&gt;Node86</title>
<path fill="none" stroke="midnightblue" d="M354.324,-105.365C377.05,-103.04 404.785,-100.204 428.848,-97.7428"/>
<polygon fill="midnightblue" stroke="midnightblue" points="429.319,-101.213 438.911,-96.7137 428.607,-94.2493 429.319,-101.213"/>
</g>
<!-- Node87 -->
<g id="node8" class="node"><title>Node87</title>
<g id="a_node8"><a xlink:href="../../d9/def/namespacemom__file__parser.html#a73b11b969d303b1fc0ba5235c812fd05" target="_top" xlink:title="mom_file_parser::popblocklevel">
<polygon fill="white" stroke="black" points="422,-38.5 422,-57.5 550,-57.5 550,-38.5 422,-38.5"/>
<text text-anchor="middle" x="486" y="-45.5" font-family="Helvetica,sans-Serif" font-size="10.00">mom_file_parser::popblocklevel</text>
</a>
</g>
</g>
<!-- Node84&#45;&gt;Node87 -->
<g id="edge8" class="edge"><title>Node84&#45;&gt;Node87</title>
<path fill="none" stroke="midnightblue" d="M332.964,-94.8953C348.655,-85.6147 369.906,-74.1693 390,-67 397.602,-64.2876 405.692,-61.9245 413.821,-59.875"/>
<polygon fill="midnightblue" stroke="midnightblue" points="414.8,-63.2398 423.724,-57.5282 413.186,-56.4285 414.8,-63.2398"/>
</g>
<!-- Node88 -->
<g id="node9" class="node"><title>Node88</title>
<g id="a_node9"><a xlink:href="../../d9/def/namespacemom__file__parser.html#a0c9bb1e76b09bc09bae5402e63bd0f99" target="_top" xlink:title="mom_file_parser::overridewarninghasbeenissued">
<polygon fill="white" stroke="black" points="390,-0.5 390,-19.5 582,-19.5 582,-0.5 390,-0.5"/>
<text text-anchor="middle" x="486" y="-7.5" font-family="Helvetica,sans-Serif" font-size="10.00">mom_file_parser::overridewarninghasbeenissued</text>
</a>
</g>
</g>
<!-- Node84&#45;&gt;Node88 -->
<g id="edge10" class="edge"><title>Node84&#45;&gt;Node88</title>
<path fill="none" stroke="midnightblue" d="M319.698,-94.7736C333.644,-76.1569 359.841,-45.1405 390,-29 394.314,-26.691 398.875,-24.6614 403.571,-22.8775"/>
<polygon fill="midnightblue" stroke="midnightblue" points="405.02,-26.0817 413.362,-19.5503 402.768,-19.4539 405.02,-26.0817"/>
</g>
<!-- Node87&#45;&gt;Node82 -->
<g id="edge9" class="edge"><title>Node87&#45;&gt;Node82</title>
<path fill="none" stroke="midnightblue" d="M550.259,-54.0101C561.383,-56.8792 572.444,-61.0271 582,-67 614.165,-87.1045 638.325,-124.776 651.688,-149.626"/>
<polygon fill="midnightblue" stroke="midnightblue" points="648.721,-151.508 656.432,-158.774 654.935,-148.285 648.721,-151.508"/>
</g>
</g>
</svg>
