<?xml version="1.0" encoding="UTF-8" standalone="no"?>
<!DOCTYPE svg PUBLIC "-//W3C//DTD SVG 1.1//EN"
 "http://www.w3.org/Graphics/SVG/1.1/DTD/svg11.dtd">
<!-- Generated by graphviz version 2.38.0 (20140413.2041)
 -->
<!-- Title: mom_file_parser::closeparameterblock Pages: 1 -->
<svg width="844pt" height="132pt"
 viewBox="0.00 0.00 844.00 132.00" xmlns="http://www.w3.org/2000/svg" xmlns:xlink="http://www.w3.org/1999/xlink">
<g id="graph0" class="graph" transform="scale(1 1) rotate(0) translate(4 128)">
<title>mom_file_parser::closeparameterblock</title>
<polygon fill="white" stroke="none" points="-4,4 -4,-128 840,-128 840,4 -4,4"/>
<!-- Node31 -->
<g id="node1" class="node"><title>Node31</title>
<polygon fill="#bfbfbf" stroke="black" points="0,-44.5 0,-63.5 155,-63.5 155,-44.5 0,-44.5"/>
<text text-anchor="middle" x="77.5" y="-51.5" font-family="Helvetica,sans-Serif" font-size="10.00">mom_file_parser::closeparameterblock</text>
</g>
<!-- Node32 -->
<g id="node2" class="node"><title>Node32</title>
<g id="a_node2"><a xlink:href="../../d8/d50/namespacebaroclinic__zone__initialization.html#a72863008aadad2118278f5e0978fd99b" target="_top" xlink:title="Reads the parameters unique to this module. ">
<polygon fill="white" stroke="black" points="191,-88 191,-118 307,-118 307,-88 191,-88"/>
<text text-anchor="start" x="199" y="-106" font-family="Helvetica,sans-Serif" font-size="10.00">baroclinic_zone_initialization</text>
<text text-anchor="middle" x="249" y="-95" font-family="Helvetica,sans-Serif" font-size="10.00">::bcz_params</text>
</a>
</g>
</g>
<!-- Node31&#45;&gt;Node32 -->
<g id="edge1" class="edge"><title>Node31&#45;&gt;Node32</title>
<path fill="none" stroke="midnightblue" d="M121.275,-66.3657C143.97,-72.9265 172.037,-81.0403 195.984,-87.963"/>
<polygon fill="midnightblue" stroke="midnightblue" points="122.162,-62.9789 111.584,-63.564 120.218,-69.7036 122.162,-62.9789"/>
</g>
<!-- Node37 -->
<g id="node7" class="node"><title>Node37</title>
<g id="a_node7"><a xlink:href="../../d6/d07/namespacemom__diffconvection.html#ac36d9d7fd69e4422e7de01242094ff34" target="_top" xlink:title="mom_diffconvection\l::diffconvection_init">
<polygon fill="white" stroke="black" points="205.5,-39 205.5,-69 292.5,-69 292.5,-39 205.5,-39"/>
<text text-anchor="start" x="213.5" y="-57" font-family="Helvetica,sans-Serif" font-size="10.00">mom_diffconvection</text>
<text text-anchor="middle" x="249" y="-46" font-family="Helvetica,sans-Serif" font-size="10.00">::diffconvection_init</text>
</a>
</g>
</g>
<!-- Node31&#45;&gt;Node37 -->
<g id="edge6" class="edge"><title>Node31&#45;&gt;Node37</title>
<path fill="none" stroke="midnightblue" d="M165.403,-54C179.269,-54 193.057,-54 205.283,-54"/>
<polygon fill="midnightblue" stroke="midnightblue" points="165.315,-50.5001 155.315,-54 165.315,-57.5001 165.315,-50.5001"/>
</g>
<!-- Node38 -->
<g id="node8" class="node"><title>Node38</title>
<g id="a_node8"><a xlink:href="../../d5/d08/namespacemom__kpp.html#a9c834424b6e067e280928db3700ec77e" target="_top" xlink:title="Initialize the CVmix KPP module and set up diagnostics Returns True if KPP is to be used...">
<polygon fill="white" stroke="black" points="207.5,-0.5 207.5,-19.5 290.5,-19.5 290.5,-0.5 207.5,-0.5"/>
<text text-anchor="middle" x="249" y="-7.5" font-family="Helvetica,sans-Serif" font-size="10.00">mom_kpp::kpp_init</text>
</a>
</g>
</g>
<!-- Node31&#45;&gt;Node38 -->
<g id="edge7" class="edge"><title>Node31&#45;&gt;Node38</title>
<path fill="none" stroke="midnightblue" d="M124.965,-41.9383C152.15,-34.8815 185.988,-26.0976 211.293,-19.5287"/>
<polygon fill="midnightblue" stroke="midnightblue" points="124.079,-38.5523 115.279,-44.4527 125.838,-45.3277 124.079,-38.5523"/>
</g>
<!-- Node33 -->
<g id="node3" class="node"><title>Node33</title>
<g id="a_node3"><a xlink:href="../../d8/d50/namespacebaroclinic__zone__initialization.html#a2f99c7b0ea7981ef7b2c342fbc8c00c1" target="_top" xlink:title="Initialization of temperature and salinity with the baroclinic zone initial conditions. ">
<polygon fill="white" stroke="black" points="343,-82.5 343,-123.5 482,-123.5 482,-82.5 343,-82.5"/>
<text text-anchor="start" x="351" y="-111.5" font-family="Helvetica,sans-Serif" font-size="10.00">baroclinic_zone_initialization</text>
<text text-anchor="start" x="351" y="-100.5" font-family="Helvetica,sans-Serif" font-size="10.00">::baroclinic_zone_init_temperature</text>
<text text-anchor="middle" x="412.5" y="-89.5" font-family="Helvetica,sans-Serif" font-size="10.00">_salinity</text>
</a>
</g>
</g>
<!-- Node32&#45;&gt;Node33 -->
<g id="edge2" class="edge"><title>Node32&#45;&gt;Node33</title>
<path fill="none" stroke="midnightblue" d="M317.527,-103C325.935,-103 334.54,-103 342.964,-103"/>
<polygon fill="midnightblue" stroke="midnightblue" points="317.394,-99.5001 307.394,-103 317.394,-106.5 317.394,-99.5001"/>
</g>
<!-- Node34 -->
<g id="node4" class="node"><title>Node34</title>
<g id="a_node4"><a xlink:href="../../d6/d62/namespacemom__state__initialization.html#af4e854627c6572332ba3fd895f169321" target="_top" xlink:title="mom_state_initialization\l::mom_initialize_state">
<polygon fill="white" stroke="black" points="518,-88 518,-118 619,-118 619,-88 518,-88"/>
<text text-anchor="start" x="526" y="-106" font-family="Helvetica,sans-Serif" font-size="10.00">mom_state_initialization</text>
<text text-anchor="middle" x="568.5" y="-95" font-family="Helvetica,sans-Serif" font-size="10.00">::mom_initialize_state</text>
</a>
</g>
</g>
<!-- Node33&#45;&gt;Node34 -->
<g id="edge3" class="edge"><title>Node33&#45;&gt;Node34</title>
<path fill="none" stroke="midnightblue" d="M492.429,-103C500.988,-103 509.515,-103 517.587,-103"/>
<polygon fill="midnightblue" stroke="midnightblue" points="492.392,-99.5001 482.392,-103 492.392,-106.5 492.392,-99.5001"/>
</g>
<!-- Node35 -->
<g id="node5" class="node"><title>Node35</title>
<g id="a_node5"><a xlink:href="../../da/d01/namespacemom.html#afebdc0103ad9cbe0ed4a54e522dc4104" target="_top" xlink:title="This subroutine initializes MOM. ">
<polygon fill="white" stroke="black" points="655,-93.5 655,-112.5 744,-112.5 744,-93.5 655,-93.5"/>
<text text-anchor="middle" x="699.5" y="-100.5" font-family="Helvetica,sans-Serif" font-size="10.00">mom::initialize_mom</text>
</a>
</g>
</g>
<!-- Node34&#45;&gt;Node35 -->
<g id="edge4" class="edge"><title>Node34&#45;&gt;Node35</title>
<path fill="none" stroke="midnightblue" d="M629.088,-103C637.755,-103 646.541,-103 654.815,-103"/>
<polygon fill="midnightblue" stroke="midnightblue" points="629.006,-99.5001 619.006,-103 629.006,-106.5 629.006,-99.5001"/>
</g>
<!-- Node36 -->
<g id="node6" class="node"><title>Node36</title>
<g id="a_node6"><a xlink:href="../../de/dbc/MOM__driver_8F90.html#a08fffeb2d8e8acbf9ed4609be6d258c6" target="_top" xlink:title="mom_main">
<polygon fill="white" stroke="black" points="780,-93.5 780,-112.5 836,-112.5 836,-93.5 780,-93.5"/>
<text text-anchor="middle" x="808" y="-100.5" font-family="Helvetica,sans-Serif" font-size="10.00">mom_main</text>
</a>
</g>
</g>
<!-- Node35&#45;&gt;Node36 -->
<g id="edge5" class="edge"><title>Node35&#45;&gt;Node36</title>
<path fill="none" stroke="midnightblue" d="M754.407,-103C763.206,-103 771.981,-103 779.771,-103"/>
<polygon fill="midnightblue" stroke="midnightblue" points="754.125,-99.5001 744.125,-103 754.125,-106.5 754.125,-99.5001"/>
</g>
</g>
</svg>
