<?xml version="1.0" encoding="UTF-8" standalone="no"?>
<!DOCTYPE svg PUBLIC "-//W3C//DTD SVG 1.1//EN"
 "http://www.w3.org/Graphics/SVG/1.1/DTD/svg11.dtd">
<!-- Generated by graphviz version 2.38.0 (20140413.2041)
 -->
<!-- Title: mom_file_parser::lastnoncommentindex Pages: 1 -->
<!--zoomable 215 -->
<svg id="main" version="1.1" xmlns="http://www.w3.org/2000/svg" xmlns:xlink="http://www.w3.org/1999/xlink" xml:space="preserve" onload="init(evt)">
<style type="text/css"><![CDATA[
.edge:hover path { stroke: red; }
.edge:hover polygon { stroke: red; fill: red; }
]]></style>
<script type="text/javascript"><![CDATA[
var edges = document.getElementsByTagName('g');
if (edges && edges.length) {
  for (var i=0;i<edges.length;i++) {
    if (edges[i].id.substr(0,4)=='edge') {
      edges[i].setAttribute('class','edge');
    }
  }
}
]]></script>
        <defs>
                <circle id="rim" cx="0" cy="0" r="7"/>
                <circle id="rim2" cx="0" cy="0" r="3.5"/>
                <g id="zoomPlus">
                        <use xlink:href="#rim" fill="#404040">
                                <set attributeName="fill" to="#808080" begin="zoomplus.mouseover" end="zoomplus.mouseout"/>
                        </use>
                        <path d="M-4,0h8M0,-4v8" fill="none" stroke="white" stroke-width="1.5" pointer-events="none"/>
                </g>
                <g id="zoomMin">
                        <use xlink:href="#rim" fill="#404040">
                                <set attributeName="fill" to="#808080" begin="zoomminus.mouseover" end="zoomminus.mouseout"/>
                        </use>
                        <path d="M-4,0h8" fill="none" stroke="white" stroke-width="1.5" pointer-events="none"/>
                </g>
                <g id="dirArrow">
                        <path fill="none" stroke="white" stroke-width="1.5" d="M0,-3.0v7 M-2.5,-0.5L0,-3.0L2.5,-0.5"/>
                </g>
               <g id="resetDef">
                       <use xlink:href="#rim2" fill="#404040">
                               <set attributeName="fill" to="#808080" begin="reset.mouseover" end="reset.mouseout"/>
                       </use>
               </g>
        </defs>

<script type="text/javascript">
var viewWidth = 1217;
var viewHeight = 215;
var sectionId = 'dynsection-17';
</script>
<script xlink:href="../../svgpan.js"/>
<svg id="graph" class="graph">
<g id="viewport">
<title>mom_file_parser::lastnoncommentindex</title>
<polygon fill="white" stroke="none" points="-4,4 -4,-210.5 1213,-210.5 1213,4 -4,4"/>
<!-- Node170 -->
<g id="node1" class="node"><title>Node170</title>
<polygon fill="#bfbfbf" stroke="black" points="0,-91.5 0,-110.5 158,-110.5 158,-91.5 0,-91.5"/>
<text text-anchor="middle" x="79" y="-98.5" font-family="Helvetica,sans-Serif" font-size="10.00">mom_file_parser::lastnoncommentindex</text>
</g>
<!-- Node171 -->
<g id="node2" class="node"><title>Node171</title>
<g id="a_node2"><a xlink:href="../../d9/def/namespacemom__file__parser.html#ab4b89d9420e174185db1c6aa3feb948b" target="_top" xlink:title="mom_file_parser::lastnoncommentnonblank">
<polygon fill="white" stroke="black" points="194,-110.5 194,-129.5 366,-129.5 366,-110.5 194,-110.5"/>
<text text-anchor="middle" x="280" y="-117.5" font-family="Helvetica,sans-Serif" font-size="10.00">mom_file_parser::lastnoncommentnonblank</text>
</a>
</g>
</g>
<!-- Node170&#45;&gt;Node171 -->
<g id="edge1" class="edge"><title>Node170&#45;&gt;Node171</title>
<path fill="none" stroke="midnightblue" d="M168.085,-109.41C176.667,-110.23 185.364,-111.06 193.916,-111.876"/>
<polygon fill="midnightblue" stroke="midnightblue" points="168.366,-105.921 158.079,-108.455 167.701,-112.889 168.366,-105.921"/>
</g>
<!-- Node183 -->
<g id="node14" class="node"><title>Node183</title>
<g id="a_node14"><a xlink:href="../../d9/def/namespacemom__file__parser.html#a476a2649ce161e38088588e07f7df130" target="_top" xlink:title="mom_file_parser::openmultilinecomment">
<polygon fill="white" stroke="black" points="402,-72.5 402,-91.5 563,-91.5 563,-72.5 402,-72.5"/>
<text text-anchor="middle" x="482.5" y="-79.5" font-family="Helvetica,sans-Serif" font-size="10.00">mom_file_parser::openmultilinecomment</text>
</a>
</g>
</g>
<!-- Node170&#45;&gt;Node183 -->
<g id="edge16" class="edge"><title>Node170&#45;&gt;Node183</title>
<path fill="none" stroke="midnightblue" d="M168.457,-96.814C238.209,-93.5131 334.624,-88.9505 401.959,-85.7641"/>
<polygon fill="midnightblue" stroke="midnightblue" points="168.19,-93.3226 158.366,-97.2915 168.521,-100.315 168.19,-93.3226"/>
</g>
<!-- Node172 -->
<g id="node3" class="node"><title>Node172</title>
<g id="a_node3"><a xlink:href="../../d9/def/namespacemom__file__parser.html#a7abfd98d7f0831fc0d1f3747a68f1be9" target="_top" xlink:title="mom_file_parser::populate\l_param_data">
<polygon fill="white" stroke="black" points="599,-105 599,-135 711,-135 711,-105 599,-105"/>
<text text-anchor="start" x="607" y="-123" font-family="Helvetica,sans-Serif" font-size="10.00">mom_file_parser::populate</text>
<text text-anchor="middle" x="655" y="-112" font-family="Helvetica,sans-Serif" font-size="10.00">_param_data</text>
</a>
</g>
</g>
<!-- Node171&#45;&gt;Node172 -->
<g id="edge2" class="edge"><title>Node171&#45;&gt;Node172</title>
<path fill="none" stroke="midnightblue" d="M340.25,-131.19C359.832,-134.383 381.781,-137.422 402,-139 473.339,-144.567 491.823,-146.351 563,-139 574.719,-137.79 587.155,-135.725 598.944,-133.391"/>
<polygon fill="midnightblue" stroke="midnightblue" points="340.688,-127.715 330.247,-129.513 339.53,-134.618 340.688,-127.715"/>
</g>
<!-- Node182 -->
<g id="node13" class="node"><title>Node182</title>
<g id="a_node13"><a xlink:href="../../d9/def/namespacemom__file__parser.html#ae0b982cc161173a401291757a6677373" target="_top" xlink:title="mom_file_parser::removecomments">
<polygon fill="white" stroke="black" points="410,-110.5 410,-129.5 555,-129.5 555,-110.5 410,-110.5"/>
<text text-anchor="middle" x="482.5" y="-117.5" font-family="Helvetica,sans-Serif" font-size="10.00">mom_file_parser::removecomments</text>
</a>
</g>
</g>
<!-- Node171&#45;&gt;Node182 -->
<g id="edge14" class="edge"><title>Node171&#45;&gt;Node182</title>
<path fill="none" stroke="midnightblue" d="M376.368,-120C387.667,-120 399.05,-120 409.94,-120"/>
<polygon fill="midnightblue" stroke="midnightblue" points="376.03,-116.5 366.03,-120 376.03,-123.5 376.03,-116.5"/>
</g>
<!-- Node173 -->
<g id="node4" class="node"><title>Node173</title>
<g id="a_node4"><a xlink:href="../../d9/def/namespacemom__file__parser.html#abecae1b9386aafa17aec927af1f8c448" target="_top" xlink:title="mom_file_parser::open\l_param_file">
<polygon fill="white" stroke="black" points="747,-105 747,-135 846,-135 846,-105 747,-105"/>
<text text-anchor="start" x="755" y="-123" font-family="Helvetica,sans-Serif" font-size="10.00">mom_file_parser::open</text>
<text text-anchor="middle" x="796.5" y="-112" font-family="Helvetica,sans-Serif" font-size="10.00">_param_file</text>
</a>
</g>
</g>
<!-- Node172&#45;&gt;Node173 -->
<g id="edge3" class="edge"><title>Node172&#45;&gt;Node173</title>
<path fill="none" stroke="midnightblue" d="M721.135,-120C729.718,-120 738.395,-120 746.642,-120"/>
<polygon fill="midnightblue" stroke="midnightblue" points="721.134,-116.5 711.134,-120 721.134,-123.5 721.134,-116.5"/>
</g>
<!-- Node174 -->
<g id="node5" class="node"><title>Node174</title>
<g id="a_node5"><a xlink:href="../../d6/d48/MOM__sum__driver_8F90.html#a08fffeb2d8e8acbf9ed4609be6d258c6" target="_top" xlink:title="mom_main">
<polygon fill="white" stroke="black" points="898,-132.5 898,-151.5 954,-151.5 954,-132.5 898,-132.5"/>
<text text-anchor="middle" x="926" y="-139.5" font-family="Helvetica,sans-Serif" font-size="10.00">mom_main</text>
</a>
</g>
</g>
<!-- Node173&#45;&gt;Node174 -->
<g id="edge4" class="edge"><title>Node173&#45;&gt;Node174</title>
<path fill="none" stroke="midnightblue" d="M856.097,-130.111C870.725,-132.635 885.718,-135.222 897.967,-137.335"/>
<polygon fill="midnightblue" stroke="midnightblue" points="856.516,-126.631 846.066,-128.38 855.325,-133.529 856.516,-126.631"/>
</g>
<!-- Node175 -->
<g id="node6" class="node"><title>Node175</title>
<g id="a_node6"><a xlink:href="../../d9/d7f/namespacemom__get__input.html#a299c5b9476662ef1a382e23a8d078143" target="_top" xlink:title="mom_get_input::get\l_mom_input">
<polygon fill="white" stroke="black" points="882,-83 882,-113 970,-113 970,-83 882,-83"/>
<text text-anchor="start" x="890" y="-101" font-family="Helvetica,sans-Serif" font-size="10.00">mom_get_input::get</text>
<text text-anchor="middle" x="926" y="-90" font-family="Helvetica,sans-Serif" font-size="10.00">_mom_input</text>
</a>
</g>
</g>
<!-- Node173&#45;&gt;Node175 -->
<g id="edge5" class="edge"><title>Node173&#45;&gt;Node175</title>
<path fill="none" stroke="midnightblue" d="M856.178,-109.875C864.875,-108.375 873.698,-106.852 881.995,-105.42"/>
<polygon fill="midnightblue" stroke="midnightblue" points="855.325,-106.471 846.066,-111.62 856.516,-113.369 855.325,-106.471"/>
</g>
<!-- Node176 -->
<g id="node7" class="node"><title>Node176</title>
<g id="a_node7"><a xlink:href="../../dc/ded/namespacemom__surface__forcing.html#ad01961191fdfc928f233901e285f4beb" target="_top" xlink:title="mom_surface_forcing\l::surface_forcing_init">
<polygon fill="white" stroke="black" points="1014.5,-176 1014.5,-206 1108.5,-206 1108.5,-176 1014.5,-176"/>
<text text-anchor="start" x="1022.5" y="-194" font-family="Helvetica,sans-Serif" font-size="10.00">mom_surface_forcing</text>
<text text-anchor="middle" x="1061.5" y="-183" font-family="Helvetica,sans-Serif" font-size="10.00">::surface_forcing_init</text>
</a>
</g>
</g>
<!-- Node175&#45;&gt;Node176 -->
<g id="edge6" class="edge"><title>Node175&#45;&gt;Node176</title>
<path fill="none" stroke="midnightblue" d="M964.622,-118.752C966.486,-120.125 968.291,-121.544 970,-123 989.23,-139.39 985.884,-151.71 1006,-167 1010.36,-170.316 1015.25,-173.287 1020.27,-175.915"/>
<polygon fill="midnightblue" stroke="midnightblue" points="966.428,-115.748 956.183,-113.044 962.505,-121.546 966.428,-115.748"/>
</g>
<!-- Node177 -->
<g id="node8" class="node"><title>Node177</title>
<g id="a_node8"><a xlink:href="../../d5/dd4/namespaceocean__model__mod.html#a6b00b9a33be391bb23668abbfa4d99c6" target="_top" xlink:title="ocean_model_mod::ocean\l_model_flux_init">
<polygon fill="white" stroke="black" points="1006,-127 1006,-157 1117,-157 1117,-127 1006,-127"/>
<text text-anchor="start" x="1014" y="-145" font-family="Helvetica,sans-Serif" font-size="10.00">ocean_model_mod::ocean</text>
<text text-anchor="middle" x="1061.5" y="-134" font-family="Helvetica,sans-Serif" font-size="10.00">_model_flux_init</text>
</a>
</g>
</g>
<!-- Node175&#45;&gt;Node177 -->
<g id="edge7" class="edge"><title>Node175&#45;&gt;Node177</title>
<path fill="none" stroke="midnightblue" d="M980.181,-115.528C991.577,-119.284 1003.52,-123.222 1014.62,-126.877"/>
<polygon fill="midnightblue" stroke="midnightblue" points="980.937,-112.092 970.344,-112.286 978.745,-118.74 980.937,-112.092"/>
</g>
<!-- Node178 -->
<g id="node9" class="node"><title>Node178</title>
<g id="a_node9"><a xlink:href="../../d5/d6d/ice__shelf__driver_8F90.html#aec5bef92f0dad343f545cd8d62e378d8" target="_top" xlink:title="shelf_main">
<polygon fill="white" stroke="black" points="1153.5,-64.5 1153.5,-83.5 1208.5,-83.5 1208.5,-64.5 1153.5,-64.5"/>
<text text-anchor="middle" x="1181" y="-71.5" font-family="Helvetica,sans-Serif" font-size="10.00">shelf_main</text>
</a>
</g>
</g>
<!-- Node175&#45;&gt;Node178 -->
<g id="edge8" class="edge"><title>Node175&#45;&gt;Node178</title>
<path fill="none" stroke="midnightblue" d="M980.434,-92.9312C1033.41,-87.9061 1112.39,-80.4133 1153.3,-76.5331"/>
<polygon fill="midnightblue" stroke="midnightblue" points="979.83,-89.4727 970.205,-93.9015 980.491,-96.4414 979.83,-89.4727"/>
</g>
<!-- Node179 -->
<g id="node10" class="node"><title>Node179</title>
<g id="a_node10"><a xlink:href="../../da/d01/namespacemom.html#afebdc0103ad9cbe0ed4a54e522dc4104" target="_top" xlink:title="This subroutine initializes MOM. ">
<polygon fill="white" stroke="black" points="1017,-0.5 1017,-19.5 1106,-19.5 1106,-0.5 1017,-0.5"/>
<text text-anchor="middle" x="1061.5" y="-7.5" font-family="Helvetica,sans-Serif" font-size="10.00">mom::initialize_mom</text>
</a>
</g>
</g>
<!-- Node175&#45;&gt;Node179 -->
<g id="edge9" class="edge"><title>Node175&#45;&gt;Node179</title>
<path fill="none" stroke="midnightblue" d="M948.049,-75.5712C963.031,-60.683 984.283,-41.6279 1006,-29 1012.41,-25.2726 1019.67,-22.1126 1026.75,-19.5033"/>
<polygon fill="midnightblue" stroke="midnightblue" points="945.336,-73.3382 940.817,-82.9209 950.325,-78.248 945.336,-73.3382"/>
</g>
<!-- Node181 -->
<g id="node12" class="node"><title>Node181</title>
<g id="a_node12"><a xlink:href="../../df/da2/namespacemom__ice__shelf.html#ae315e8464ef8a20062e3bccb61886755" target="_top" xlink:title="mom_ice_shelf::initialize\l_ice_shelf">
<polygon fill="white" stroke="black" points="1011,-39 1011,-69 1112,-69 1112,-39 1011,-39"/>
<text text-anchor="start" x="1019" y="-57" font-family="Helvetica,sans-Serif" font-size="10.00">mom_ice_shelf::initialize</text>
<text text-anchor="middle" x="1061.5" y="-46" font-family="Helvetica,sans-Serif" font-size="10.00">_ice_shelf</text>
</a>
</g>
</g>
<!-- Node175&#45;&gt;Node181 -->
<g id="edge11" class="edge"><title>Node175&#45;&gt;Node181</title>
<path fill="none" stroke="midnightblue" d="M980.181,-80.4721C991.577,-76.7161 1003.52,-72.7785 1014.62,-69.1226"/>
<polygon fill="midnightblue" stroke="midnightblue" points="978.745,-77.26 970.344,-83.7145 980.937,-83.9083 978.745,-77.26"/>
</g>
<!-- Node180 -->
<g id="node11" class="node"><title>Node180</title>
<g id="a_node11"><a xlink:href="../../de/dbc/MOM__driver_8F90.html#a08fffeb2d8e8acbf9ed4609be6d258c6" target="_top" xlink:title="mom_main">
<polygon fill="white" stroke="black" points="1153,-23.5 1153,-42.5 1209,-42.5 1209,-23.5 1153,-23.5"/>
<text text-anchor="middle" x="1181" y="-30.5" font-family="Helvetica,sans-Serif" font-size="10.00">mom_main</text>
</a>
</g>
</g>
<!-- Node179&#45;&gt;Node180 -->
<g id="edge10" class="edge"><title>Node179&#45;&gt;Node180</title>
<path fill="none" stroke="midnightblue" d="M1116.32,-20.5349C1129.01,-23.0194 1142.01,-25.5644 1152.93,-27.7017"/>
<polygon fill="midnightblue" stroke="midnightblue" points="1116.74,-17.0506 1106.25,-18.5644 1115.39,-23.9202 1116.74,-17.0506"/>
</g>
<!-- Node181&#45;&gt;Node178 -->
<g id="edge12" class="edge"><title>Node181&#45;&gt;Node178</title>
<path fill="none" stroke="midnightblue" d="M1122.34,-64.186C1133.28,-66.0471 1144.16,-67.8996 1153.48,-69.4855"/>
<polygon fill="midnightblue" stroke="midnightblue" points="1122.78,-60.7095 1112.33,-62.4818 1121.6,-67.6103 1122.78,-60.7095"/>
</g>
<!-- Node181&#45;&gt;Node180 -->
<g id="edge13" class="edge"><title>Node181&#45;&gt;Node180</title>
<path fill="none" stroke="midnightblue" d="M1122.49,-43.2777C1133.12,-41.3778 1143.7,-39.4877 1152.83,-37.8562"/>
<polygon fill="midnightblue" stroke="midnightblue" points="1121.56,-39.8893 1112.33,-45.0941 1122.79,-46.7801 1121.56,-39.8893"/>
</g>
<!-- Node182&#45;&gt;Node172 -->
<g id="edge15" class="edge"><title>Node182&#45;&gt;Node172</title>
<path fill="none" stroke="midnightblue" d="M565.617,-120C576.885,-120 588.225,-120 598.85,-120"/>
<polygon fill="midnightblue" stroke="midnightblue" points="565.313,-116.5 555.313,-120 565.313,-123.5 565.313,-116.5"/>
</g>
<!-- Node183&#45;&gt;Node172 -->
<g id="edge17" class="edge"><title>Node183&#45;&gt;Node172</title>
<path fill="none" stroke="midnightblue" d="M536.307,-93.7692C556.121,-98.1853 578.684,-103.214 598.717,-107.679"/>
<polygon fill="midnightblue" stroke="midnightblue" points="537.046,-90.3483 526.524,-91.589 535.523,-97.1806 537.046,-90.3483"/>
</g>
</g>
</svg>
        <g id="navigator" transform="translate(0 0)" fill="#404254">
                <rect fill="#f2f5e9" fill-opacity="0.5" stroke="#606060" stroke-width=".5" x="0" y="0" width="60" height="60"/>
                <use id="zoomplus" xlink:href="#zoomPlus" x="17" y="9" onmousedown="handleZoom(evt,'in')"/>
                <use id="zoomminus" xlink:href="#zoomMin" x="42" y="9" onmousedown="handleZoom(evt,'out')"/>
                <use id="reset" xlink:href="#resetDef" x="30" y="36" onmousedown="handleReset()"/>
                <g id="arrowUp" xlink:href="#dirArrow" transform="translate(30 24)" onmousedown="handlePan(0,-1)">
                  <use xlink:href="#rim" fill="#404040">
                        <set attributeName="fill" to="#808080" begin="arrowUp.mouseover" end="arrowUp.mouseout"/>
                  </use>
                  <path fill="none" stroke="white" stroke-width="1.5" d="M0,-3.0v7 M-2.5,-0.5L0,-3.0L2.5,-0.5"/>
                </g>
                <g id="arrowRight" xlink:href="#dirArrow" transform="rotate(90) translate(36 -43)" onmousedown="handlePan(1,0)">
                  <use xlink:href="#rim" fill="#404040">
                        <set attributeName="fill" to="#808080" begin="arrowRight.mouseover" end="arrowRight.mouseout"/>
                  </use>
                  <path fill="none" stroke="white" stroke-width="1.5" d="M0,-3.0v7 M-2.5,-0.5L0,-3.0L2.5,-0.5"/>
                </g>
                <g id="arrowDown" xlink:href="#dirArrow" transform="rotate(180) translate(-30 -48)" onmousedown="handlePan(0,1)">
                  <use xlink:href="#rim" fill="#404040">
                        <set attributeName="fill" to="#808080" begin="arrowDown.mouseover" end="arrowDown.mouseout"/>
                  </use>
                  <path fill="none" stroke="white" stroke-width="1.5" d="M0,-3.0v7 M-2.5,-0.5L0,-3.0L2.5,-0.5"/>
                </g>
                <g id="arrowLeft" xlink:href="#dirArrow" transform="rotate(270) translate(-36 17)" onmousedown="handlePan(-1,0)">
                  <use xlink:href="#rim" fill="#404040">
                        <set attributeName="fill" to="#808080" begin="arrowLeft.mouseover" end="arrowLeft.mouseout"/>
                  </use>
                  <path fill="none" stroke="white" stroke-width="1.5" d="M0,-3.0v7 M-2.5,-0.5L0,-3.0L2.5,-0.5"/>
                </g>
        </g>
        <svg viewBox="0 0 15 15" width="100%" height="30px" preserveAspectRatio="xMaxYMin meet">
         <g id="arrow_out" transform="scale(0.3 0.3)">
          <a xlink:href="namespacemom__file__parser_a000fd0a0681f9e73481ef2663154df78_icgraph_org.svg" target="_base">
           <rect id="button" ry="5" rx="5" y="6" x="6" height="38" width="38"
                fill="#f2f5e9" fill-opacity="0.5" stroke="#606060" stroke-width="1.0"/>
           <path id="arrow"
             d="M 11.500037,31.436501 C 11.940474,20.09759 22.043105,11.32322 32.158766,21.979434 L 37.068811,17.246167 C 37.068811,17.246167 37.088388,32 37.088388,32 L 22.160133,31.978069 C 22.160133,31.978069 26.997745,27.140456 26.997745,27.140456 C 18.528582,18.264221 13.291696,25.230495 11.500037,31.436501 z"
             style="fill:#404040;"/>
          </a>
         </g>
        </svg>
</svg>
