<?xml version="1.0" encoding="UTF-8" standalone="no"?>
<!DOCTYPE svg PUBLIC "-//W3C//DTD SVG 1.1//EN"
 "http://www.w3.org/Graphics/SVG/1.1/DTD/svg11.dtd">
<!-- Generated by graphviz version 2.38.0 (20140413.2041)
 -->
<!-- Title: mom_file_parser::read_param_real_array Pages: 1 -->
<!--zoomable 192 -->
<svg id="main" version="1.1" xmlns="http://www.w3.org/2000/svg" xmlns:xlink="http://www.w3.org/1999/xlink" xml:space="preserve" onload="init(evt)">
<style type="text/css"><![CDATA[
.edge:hover path { stroke: red; }
.edge:hover polygon { stroke: red; fill: red; }
]]></style>
<script type="text/javascript"><![CDATA[
var edges = document.getElementsByTagName('g');
if (edges && edges.length) {
  for (var i=0;i<edges.length;i++) {
    if (edges[i].id.substr(0,4)=='edge') {
      edges[i].setAttribute('class','edge');
    }
  }
}
]]></script>
        <defs>
                <circle id="rim" cx="0" cy="0" r="7"/>
                <circle id="rim2" cx="0" cy="0" r="3.5"/>
                <g id="zoomPlus">
                        <use xlink:href="#rim" fill="#404040">
                                <set attributeName="fill" to="#808080" begin="zoomplus.mouseover" end="zoomplus.mouseout"/>
                        </use>
                        <path d="M-4,0h8M0,-4v8" fill="none" stroke="white" stroke-width="1.5" pointer-events="none"/>
                </g>
                <g id="zoomMin">
                        <use xlink:href="#rim" fill="#404040">
                                <set attributeName="fill" to="#808080" begin="zoomminus.mouseover" end="zoomminus.mouseout"/>
                        </use>
                        <path d="M-4,0h8" fill="none" stroke="white" stroke-width="1.5" pointer-events="none"/>
                </g>
                <g id="dirArrow">
                        <path fill="none" stroke="white" stroke-width="1.5" d="M0,-3.0v7 M-2.5,-0.5L0,-3.0L2.5,-0.5"/>
                </g>
               <g id="resetDef">
                       <use xlink:href="#rim2" fill="#404040">
                               <set attributeName="fill" to="#808080" begin="reset.mouseover" end="reset.mouseout"/>
                       </use>
               </g>
        </defs>

<script type="text/javascript">
var viewWidth = 591;
var viewHeight = 192;
var sectionId = 'dynsection-60';
</script>
<script xlink:href="../../svgpan.js"/>
<svg id="graph" class="graph">
<g id="viewport">
<title>mom_file_parser::read_param_real_array</title>
<polygon fill="white" stroke="none" points="-4,4 -4,-187.5 587,-187.5 587,4 -4,4"/>
<!-- Node522 -->
<g id="node1" class="node"><title>Node522</title>
<polygon fill="#bfbfbf" stroke="black" points="0,-71 0,-101 98,-101 98,-71 0,-71"/>
<text text-anchor="start" x="8" y="-89" font-family="Helvetica,sans-Serif" font-size="10.00">mom_file_parser::read</text>
<text text-anchor="middle" x="49" y="-78" font-family="Helvetica,sans-Serif" font-size="10.00">_param_real_array</text>
</g>
<!-- Node523 -->
<g id="node2" class="node"><title>Node523</title>
<g id="a_node2"><a xlink:href="../../d9/def/namespacemom__file__parser.html#af883df6020543889b25986d6ee9701f7" target="_top" xlink:title="mom_file_parser::get\l_variable_line">
<polygon fill="white" stroke="black" points="134,-71 134,-101 226,-101 226,-71 134,-71"/>
<text text-anchor="start" x="142" y="-89" font-family="Helvetica,sans-Serif" font-size="10.00">mom_file_parser::get</text>
<text text-anchor="middle" x="180" y="-78" font-family="Helvetica,sans-Serif" font-size="10.00">_variable_line</text>
</a>
</g>
</g>
<!-- Node522&#45;&gt;Node523 -->
<g id="edge1" class="edge"><title>Node522&#45;&gt;Node523</title>
<path fill="none" stroke="midnightblue" d="M98.0348,-86C106.387,-86 115.134,-86 123.662,-86"/>
<polygon fill="midnightblue" stroke="midnightblue" points="123.916,-89.5001 133.916,-86 123.916,-82.5001 123.916,-89.5001"/>
</g>
<!-- Node524 -->
<g id="node3" class="node"><title>Node524</title>
<g id="a_node3"><a xlink:href="../../d9/def/namespacemom__file__parser.html#a7803aabff129cc7f56d4516bc24613f0" target="_top" xlink:title="mom_file_parser::flag\l_line_as_read">
<polygon fill="white" stroke="black" points="311,-153 311,-183 405,-183 405,-153 311,-153"/>
<text text-anchor="start" x="319" y="-171" font-family="Helvetica,sans-Serif" font-size="10.00">mom_file_parser::flag</text>
<text text-anchor="middle" x="358" y="-160" font-family="Helvetica,sans-Serif" font-size="10.00">_line_as_read</text>
</a>
</g>
</g>
<!-- Node523&#45;&gt;Node524 -->
<g id="edge2" class="edge"><title>Node523&#45;&gt;Node524</title>
<path fill="none" stroke="midnightblue" d="M201.104,-101.051C216.987,-112.4 240.06,-127.717 262,-138 274.23,-143.732 287.839,-148.759 300.848,-152.977"/>
<polygon fill="midnightblue" stroke="midnightblue" points="300.056,-156.397 310.645,-156.044 302.147,-149.716 300.056,-156.397"/>
</g>
<!-- Node525 -->
<g id="node4" class="node"><title>Node525</title>
<g id="a_node4"><a xlink:href="../../d0/de6/namespacemom__error__handler.html#ad5f00a53059c72fe2332d1436c80ca71" target="_top" xlink:title="mom_error_handler::\lis_root_pe">
<polygon fill="white" stroke="black" points="490,-71 490,-101 583,-101 583,-71 490,-71"/>
<text text-anchor="start" x="498" y="-89" font-family="Helvetica,sans-Serif" font-size="10.00">mom_error_handler::</text>
<text text-anchor="middle" x="536.5" y="-78" font-family="Helvetica,sans-Serif" font-size="10.00">is_root_pe</text>
</a>
</g>
</g>
<!-- Node523&#45;&gt;Node525 -->
<g id="edge3" class="edge"><title>Node523&#45;&gt;Node525</title>
<path fill="none" stroke="midnightblue" d="M226.086,-98.5138C237.695,-101.2 250.234,-103.639 262,-105 346.768,-114.809 369.226,-114.751 454,-105 462.403,-104.033 471.199,-102.524 479.775,-100.768"/>
<polygon fill="midnightblue" stroke="midnightblue" points="480.675,-104.155 489.704,-98.6121 479.189,-97.3139 480.675,-104.155"/>
</g>
<!-- Node526 -->
<g id="node5" class="node"><title>Node526</title>
<g id="a_node5"><a xlink:href="../../d9/def/namespacemom__file__parser.html#a0c9bb1e76b09bc09bae5402e63bd0f99" target="_top" xlink:title="mom_file_parser::overridewarninghasbeenissued">
<polygon fill="white" stroke="black" points="262,-76.5 262,-95.5 454,-95.5 454,-76.5 262,-76.5"/>
<text text-anchor="middle" x="358" y="-83.5" font-family="Helvetica,sans-Serif" font-size="10.00">mom_file_parser::overridewarninghasbeenissued</text>
</a>
</g>
</g>
<!-- Node523&#45;&gt;Node526 -->
<g id="edge4" class="edge"><title>Node523&#45;&gt;Node526</title>
<path fill="none" stroke="midnightblue" d="M226.324,-86C234.316,-86 242.928,-86 251.782,-86"/>
<polygon fill="midnightblue" stroke="midnightblue" points="251.861,-89.5001 261.861,-86 251.861,-82.5001 251.861,-89.5001"/>
</g>
<!-- Node527 -->
<g id="node6" class="node"><title>Node527</title>
<g id="a_node6"><a xlink:href="../../d9/def/namespacemom__file__parser.html#a73b11b969d303b1fc0ba5235c812fd05" target="_top" xlink:title="mom_file_parser::popblocklevel">
<polygon fill="white" stroke="black" points="294,-38.5 294,-57.5 422,-57.5 422,-38.5 294,-38.5"/>
<text text-anchor="middle" x="358" y="-45.5" font-family="Helvetica,sans-Serif" font-size="10.00">mom_file_parser::popblocklevel</text>
</a>
</g>
</g>
<!-- Node523&#45;&gt;Node527 -->
<g id="edge5" class="edge"><title>Node523&#45;&gt;Node527</title>
<path fill="none" stroke="midnightblue" d="M226.351,-75.0839C237.956,-72.3671 250.426,-69.5142 262,-67 273.557,-64.4896 285.932,-61.9249 297.804,-59.5251"/>
<polygon fill="midnightblue" stroke="midnightblue" points="298.513,-62.9526 307.629,-57.5529 297.136,-56.0895 298.513,-62.9526"/>
</g>
<!-- Node528 -->
<g id="node7" class="node"><title>Node528</title>
<g id="a_node7"><a xlink:href="../../d9/def/namespacemom__file__parser.html#a58777b0faf747d59a793b4e238919dc6" target="_top" xlink:title="mom_file_parser::pushblocklevel">
<polygon fill="white" stroke="black" points="292,-0.5 292,-19.5 424,-19.5 424,-0.5 292,-0.5"/>
<text text-anchor="middle" x="358" y="-7.5" font-family="Helvetica,sans-Serif" font-size="10.00">mom_file_parser::pushblocklevel</text>
</a>
</g>
</g>
<!-- Node523&#45;&gt;Node528 -->
<g id="edge7" class="edge"><title>Node523&#45;&gt;Node528</title>
<path fill="none" stroke="midnightblue" d="M198.044,-70.7812C213.612,-57.7074 237.823,-39.3735 262,-29 268.283,-26.3042 274.966,-23.9855 281.763,-21.9921"/>
<polygon fill="midnightblue" stroke="midnightblue" points="283.024,-25.2773 291.771,-19.2982 281.205,-18.5179 283.024,-25.2773"/>
</g>
<!-- Node527&#45;&gt;Node525 -->
<g id="edge6" class="edge"><title>Node527&#45;&gt;Node525</title>
<path fill="none" stroke="midnightblue" d="M408.368,-57.5656C423.071,-60.4975 439.205,-63.7968 454,-67 462.369,-68.8119 471.204,-70.7966 479.847,-72.7785"/>
<polygon fill="midnightblue" stroke="midnightblue" points="479.335,-76.2523 489.866,-75.0932 480.911,-69.4319 479.335,-76.2523"/>
</g>
</g>
</svg>
        <g id="navigator" transform="translate(0 0)" fill="#404254">
                <rect fill="#f2f5e9" fill-opacity="0.5" stroke="#606060" stroke-width=".5" x="0" y="0" width="60" height="60"/>
                <use id="zoomplus" xlink:href="#zoomPlus" x="17" y="9" onmousedown="handleZoom(evt,'in')"/>
                <use id="zoomminus" xlink:href="#zoomMin" x="42" y="9" onmousedown="handleZoom(evt,'out')"/>
                <use id="reset" xlink:href="#resetDef" x="30" y="36" onmousedown="handleReset()"/>
                <g id="arrowUp" xlink:href="#dirArrow" transform="translate(30 24)" onmousedown="handlePan(0,-1)">
                  <use xlink:href="#rim" fill="#404040">
                        <set attributeName="fill" to="#808080" begin="arrowUp.mouseover" end="arrowUp.mouseout"/>
                  </use>
                  <path fill="none" stroke="white" stroke-width="1.5" d="M0,-3.0v7 M-2.5,-0.5L0,-3.0L2.5,-0.5"/>
                </g>
                <g id="arrowRight" xlink:href="#dirArrow" transform="rotate(90) translate(36 -43)" onmousedown="handlePan(1,0)">
                  <use xlink:href="#rim" fill="#404040">
                        <set attributeName="fill" to="#808080" begin="arrowRight.mouseover" end="arrowRight.mouseout"/>
                  </use>
                  <path fill="none" stroke="white" stroke-width="1.5" d="M0,-3.0v7 M-2.5,-0.5L0,-3.0L2.5,-0.5"/>
                </g>
                <g id="arrowDown" xlink:href="#dirArrow" transform="rotate(180) translate(-30 -48)" onmousedown="handlePan(0,1)">
                  <use xlink:href="#rim" fill="#404040">
                        <set attributeName="fill" to="#808080" begin="arrowDown.mouseover" end="arrowDown.mouseout"/>
                  </use>
                  <path fill="none" stroke="white" stroke-width="1.5" d="M0,-3.0v7 M-2.5,-0.5L0,-3.0L2.5,-0.5"/>
                </g>
                <g id="arrowLeft" xlink:href="#dirArrow" transform="rotate(270) translate(-36 17)" onmousedown="handlePan(-1,0)">
                  <use xlink:href="#rim" fill="#404040">
                        <set attributeName="fill" to="#808080" begin="arrowLeft.mouseover" end="arrowLeft.mouseout"/>
                  </use>
                  <path fill="none" stroke="white" stroke-width="1.5" d="M0,-3.0v7 M-2.5,-0.5L0,-3.0L2.5,-0.5"/>
                </g>
        </g>
        <svg viewBox="0 0 15 15" width="100%" height="30px" preserveAspectRatio="xMaxYMin meet">
         <g id="arrow_out" transform="scale(0.3 0.3)">
          <a xlink:href="namespacemom__file__parser_aea75f399368c1aa2215ba703f0639726_cgraph_org.svg" target="_base">
           <rect id="button" ry="5" rx="5" y="6" x="6" height="38" width="38"
                fill="#f2f5e9" fill-opacity="0.5" stroke="#606060" stroke-width="1.0"/>
           <path id="arrow"
             d="M 11.500037,31.436501 C 11.940474,20.09759 22.043105,11.32322 32.158766,21.979434 L 37.068811,17.246167 C 37.068811,17.246167 37.088388,32 37.088388,32 L 22.160133,31.978069 C 22.160133,31.978069 26.997745,27.140456 26.997745,27.140456 C 18.528582,18.264221 13.291696,25.230495 11.500037,31.436501 z"
             style="fill:#404040;"/>
          </a>
         </g>
        </svg>
</svg>
