<?xml version="1.0" encoding="UTF-8" standalone="no"?>
<!DOCTYPE svg PUBLIC "-//W3C//DTD SVG 1.1//EN"
 "http://www.w3.org/Graphics/SVG/1.1/DTD/svg11.dtd">
<!-- Generated by graphviz version 2.38.0 (20140413.2041)
 -->
<!-- Title: mom_file_parser::openparameterblock Pages: 1 -->
<svg width="916pt" height="186pt"
 viewBox="0.00 0.00 916.00 185.75" xmlns="http://www.w3.org/2000/svg" xmlns:xlink="http://www.w3.org/1999/xlink">
<g id="graph0" class="graph" transform="scale(1 1) rotate(0) translate(4 181.754)">
<title>mom_file_parser::openparameterblock</title>
<polygon fill="white" stroke="none" points="-4,4 -4,-181.754 912,-181.754 912,4 -4,4"/>
<!-- Node357 -->
<g id="node1" class="node"><title>Node357</title>
<polygon fill="#bfbfbf" stroke="black" points="0,-38.5 0,-57.5 155,-57.5 155,-38.5 0,-38.5"/>
<text text-anchor="middle" x="77.5" y="-45.5" font-family="Helvetica,sans-Serif" font-size="10.00">mom_file_parser::openparameterblock</text>
</g>
<!-- Node358 -->
<g id="node2" class="node"><title>Node358</title>
<g id="a_node2"><a xlink:href="../../d5/d38/namespacemom__document.html#ada55c6a65638e04d2b550f419aafa929" target="_top" xlink:title="mom_document::doc_openblock">
<polygon fill="white" stroke="black" points="191,-98.5 191,-117.5 323,-117.5 323,-98.5 191,-98.5"/>
<text text-anchor="middle" x="257" y="-105.5" font-family="Helvetica,sans-Serif" font-size="10.00">mom_document::doc_openblock</text>
</a>
</g>
</g>
<!-- Node357&#45;&gt;Node358 -->
<g id="edge1" class="edge"><title>Node357&#45;&gt;Node358</title>
<path fill="none" stroke="midnightblue" d="M106.625,-57.5072C136.657,-67.6588 184.43,-83.8074 217.841,-95.1011"/>
<polygon fill="midnightblue" stroke="midnightblue" points="217.119,-98.5515 227.713,-98.4382 219.36,-91.9201 217.119,-98.5515"/>
</g>
<!-- Node359 -->
<g id="node3" class="node"><title>Node359</title>
<g id="a_node3"><a xlink:href="../../d0/de6/namespacemom__error__handler.html#ad5f00a53059c72fe2332d1436c80ca71" target="_top" xlink:title="mom_error_handler::\lis_root_pe">
<polygon fill="white" stroke="black" points="815,-96 815,-126 908,-126 908,-96 815,-96"/>
<text text-anchor="start" x="823" y="-114" font-family="Helvetica,sans-Serif" font-size="10.00">mom_error_handler::</text>
<text text-anchor="middle" x="861.5" y="-103" font-family="Helvetica,sans-Serif" font-size="10.00">is_root_pe</text>
</a>
</g>
</g>
<!-- Node357&#45;&gt;Node359 -->
<g id="edge9" class="edge"><title>Node357&#45;&gt;Node359</title>
<path fill="none" stroke="midnightblue" d="M155.077,-48C227.662,-48 339.751,-48 437,-48 437,-48 437,-48 602.5,-48 678.087,-48 762.665,-73.8346 813.724,-92.4164"/>
<polygon fill="midnightblue" stroke="midnightblue" points="812.573,-95.7227 823.166,-95.9099 815.002,-89.1575 812.573,-95.7227"/>
</g>
<!-- Node364 -->
<g id="node8" class="node"><title>Node364</title>
<g id="a_node8"><a xlink:href="../../d9/def/namespacemom__file__parser.html#a58777b0faf747d59a793b4e238919dc6" target="_top" xlink:title="mom_file_parser::pushblocklevel">
<polygon fill="white" stroke="black" points="191,-0.5 191,-19.5 323,-19.5 323,-0.5 191,-0.5"/>
<text text-anchor="middle" x="257" y="-7.5" font-family="Helvetica,sans-Serif" font-size="10.00">mom_file_parser::pushblocklevel</text>
</a>
</g>
</g>
<!-- Node357&#45;&gt;Node364 -->
<g id="edge10" class="edge"><title>Node357&#45;&gt;Node364</title>
<path fill="none" stroke="midnightblue" d="M123.291,-38.411C147.03,-33.3287 176.384,-27.0446 201.444,-21.6797"/>
<polygon fill="midnightblue" stroke="midnightblue" points="202.486,-25.036 211.531,-19.5201 201.02,-18.1911 202.486,-25.036"/>
</g>
<!-- Node358&#45;&gt;Node359 -->
<g id="edge2" class="edge"><title>Node358&#45;&gt;Node359</title>
<path fill="none" stroke="midnightblue" d="M272.996,-117.539C292.092,-129.067 326.52,-147.813 359,-155 541.444,-195.371 596.725,-177.131 779,-136 787.706,-134.035 796.833,-131.609 805.7,-129.048"/>
<polygon fill="midnightblue" stroke="midnightblue" points="806.975,-132.32 815.563,-126.116 804.98,-125.61 806.975,-132.32"/>
</g>
<!-- Node360 -->
<g id="node4" class="node"><title>Node360</title>
<g id="a_node4"><a xlink:href="../../d5/d38/namespacemom__document.html#aab976b6c6c9c01833438d217fca228a4" target="_top" xlink:title="mom_document::open\l_doc_file">
<polygon fill="white" stroke="black" points="389.5,-115 389.5,-145 486.5,-145 486.5,-115 389.5,-115"/>
<text text-anchor="start" x="397.5" y="-133" font-family="Helvetica,sans-Serif" font-size="10.00">mom_document::open</text>
<text text-anchor="middle" x="438" y="-122" font-family="Helvetica,sans-Serif" font-size="10.00">_doc_file</text>
</a>
</g>
</g>
<!-- Node358&#45;&gt;Node360 -->
<g id="edge3" class="edge"><title>Node358&#45;&gt;Node360</title>
<path fill="none" stroke="midnightblue" d="M323.129,-116.005C341.515,-118.264 361.386,-120.707 379.302,-122.909"/>
<polygon fill="midnightblue" stroke="midnightblue" points="378.963,-126.393 389.315,-124.139 379.817,-119.445 378.963,-126.393"/>
</g>
<!-- Node363 -->
<g id="node7" class="node"><title>Node363</title>
<g id="a_node7"><a xlink:href="../../d5/d38/namespacemom__document.html#a22d84550b1affd1037328c5117496a65" target="_top" xlink:title="mom_document::writemessageanddesc">
<polygon fill="white" stroke="black" points="359,-76.5 359,-95.5 517,-95.5 517,-76.5 359,-76.5"/>
<text text-anchor="middle" x="438" y="-83.5" font-family="Helvetica,sans-Serif" font-size="10.00">mom_document::writemessageanddesc</text>
</a>
</g>
</g>
<!-- Node358&#45;&gt;Node363 -->
<g id="edge8" class="edge"><title>Node358&#45;&gt;Node363</title>
<path fill="none" stroke="midnightblue" d="M323.129,-99.9953C331.7,-98.9419 340.593,-97.849 349.46,-96.7591"/>
<polygon fill="midnightblue" stroke="midnightblue" points="349.943,-100.226 359.442,-95.5323 349.089,-93.2784 349.943,-100.226"/>
</g>
<!-- Node361 -->
<g id="node5" class="node"><title>Node361</title>
<g id="a_node5"><a xlink:href="../../d5/d38/namespacemom__document.html#a5f2661445a72a7d0f774677e91366db5" target="_top" xlink:title="mom_document::find\l_unused_unit_number">
<polygon fill="white" stroke="black" points="553,-115 553,-145 650,-145 650,-115 553,-115"/>
<text text-anchor="start" x="561" y="-133" font-family="Helvetica,sans-Serif" font-size="10.00">mom_document::find</text>
<text text-anchor="middle" x="601.5" y="-122" font-family="Helvetica,sans-Serif" font-size="10.00">_unused_unit_number</text>
</a>
</g>
</g>
<!-- Node360&#45;&gt;Node361 -->
<g id="edge4" class="edge"><title>Node360&#45;&gt;Node361</title>
<path fill="none" stroke="midnightblue" d="M486.582,-130C504.246,-130 524.472,-130 542.933,-130"/>
<polygon fill="midnightblue" stroke="midnightblue" points="542.979,-133.5 552.979,-130 542.979,-126.5 542.979,-133.5"/>
</g>
<!-- Node362 -->
<g id="node6" class="node"><title>Node362</title>
<g id="a_node6"><a xlink:href="../../d0/de6/namespacemom__error__handler.html#a460cfb79a06c29fc249952c2a3710d67" target="_top" xlink:title="mom_error_handler::\lmom_error">
<polygon fill="white" stroke="black" points="686,-96 686,-126 779,-126 779,-96 686,-96"/>
<text text-anchor="start" x="694" y="-114" font-family="Helvetica,sans-Serif" font-size="10.00">mom_error_handler::</text>
<text text-anchor="middle" x="732.5" y="-103" font-family="Helvetica,sans-Serif" font-size="10.00">mom_error</text>
</a>
</g>
</g>
<!-- Node360&#45;&gt;Node362 -->
<g id="edge7" class="edge"><title>Node360&#45;&gt;Node362</title>
<path fill="none" stroke="midnightblue" d="M486.63,-117.67C506.931,-113.016 530.972,-108.294 553,-106 595.879,-101.535 606.909,-104.679 650,-106 658.351,-106.256 667.177,-106.659 675.816,-107.128"/>
<polygon fill="midnightblue" stroke="midnightblue" points="675.647,-110.624 685.832,-107.704 676.049,-103.636 675.647,-110.624"/>
</g>
<!-- Node361&#45;&gt;Node362 -->
<g id="edge5" class="edge"><title>Node361&#45;&gt;Node362</title>
<path fill="none" stroke="midnightblue" d="M650.168,-122.979C658.525,-121.748 667.288,-120.458 675.839,-119.198"/>
<polygon fill="midnightblue" stroke="midnightblue" points="676.36,-122.659 685.743,-117.739 675.34,-115.734 676.36,-122.659"/>
</g>
<!-- Node362&#45;&gt;Node359 -->
<g id="edge6" class="edge"><title>Node362&#45;&gt;Node359</title>
<path fill="none" stroke="midnightblue" d="M779.35,-111C787.533,-111 796.141,-111 804.568,-111"/>
<polygon fill="midnightblue" stroke="midnightblue" points="804.717,-114.5 814.717,-111 804.717,-107.5 804.717,-114.5"/>
</g>
</g>
</svg>
