<?xml version="1.0" encoding="UTF-8" standalone="no"?>
<!DOCTYPE svg PUBLIC "-//W3C//DTD SVG 1.1//EN"
 "http://www.w3.org/Graphics/SVG/1.1/DTD/svg11.dtd">
<!-- Generated by graphviz version 2.38.0 (20140413.2041)
 -->
<!-- Title: mom_file_parser::log_param_real Pages: 1 -->
<svg width="369pt" height="88pt"
 viewBox="0.00 0.00 369.00 88.00" xmlns="http://www.w3.org/2000/svg" xmlns:xlink="http://www.w3.org/1999/xlink">
<g id="graph0" class="graph" transform="scale(1 1) rotate(0) translate(4 84)">
<title>mom_file_parser::log_param_real</title>
<polygon fill="white" stroke="none" points="-4,4 -4,-84 365,-84 365,4 -4,4"/>
<!-- Node215 -->
<g id="node1" class="node"><title>Node215</title>
<polygon fill="#bfbfbf" stroke="black" points="0,-24.5 0,-54.5 92,-54.5 92,-24.5 0,-24.5"/>
<text text-anchor="start" x="8" y="-42.5" font-family="Helvetica,sans-Serif" font-size="10.00">mom_file_parser::log</text>
<text text-anchor="middle" x="46" y="-31.5" font-family="Helvetica,sans-Serif" font-size="10.00">_param_real</text>
</g>
<!-- Node216 -->
<g id="node2" class="node"><title>Node216</title>
<g id="a_node2"><a xlink:href="../../d0/de6/namespacemom__error__handler.html#ad5f00a53059c72fe2332d1436c80ca71" target="_top" xlink:title="mom_error_handler::\lis_root_pe">
<polygon fill="white" stroke="black" points="129,-49.5 129,-79.5 222,-79.5 222,-49.5 129,-49.5"/>
<text text-anchor="start" x="137" y="-67.5" font-family="Helvetica,sans-Serif" font-size="10.00">mom_error_handler::</text>
<text text-anchor="middle" x="175.5" y="-56.5" font-family="Helvetica,sans-Serif" font-size="10.00">is_root_pe</text>
</a>
</g>
</g>
<!-- Node215&#45;&gt;Node216 -->
<g id="edge1" class="edge"><title>Node215&#45;&gt;Node216</title>
<path fill="none" stroke="midnightblue" d="M92.3107,-48.3845C100.944,-50.0772 110.07,-51.8666 118.978,-53.6134"/>
<polygon fill="midnightblue" stroke="midnightblue" points="118.419,-57.0703 128.906,-55.5599 119.766,-50.2011 118.419,-57.0703"/>
</g>
<!-- Node217 -->
<g id="node3" class="node"><title>Node217</title>
<g id="a_node3"><a xlink:href="../../df/d46/namespacemom__string__functions.html#ab56b89fb51a387279afc68c85d30dca2" target="_top" xlink:title="mom_string_functions\l::left_real">
<polygon fill="white" stroke="black" points="128,-0.5 128,-30.5 223,-30.5 223,-0.5 128,-0.5"/>
<text text-anchor="start" x="136" y="-18.5" font-family="Helvetica,sans-Serif" font-size="10.00">mom_string_functions</text>
<text text-anchor="middle" x="175.5" y="-7.5" font-family="Helvetica,sans-Serif" font-size="10.00">::left_real</text>
</a>
</g>
</g>
<!-- Node215&#45;&gt;Node217 -->
<g id="edge2" class="edge"><title>Node215&#45;&gt;Node217</title>
<path fill="none" stroke="midnightblue" d="M92.3107,-30.9709C100.542,-29.4215 109.222,-27.7876 117.734,-26.1854"/>
<polygon fill="midnightblue" stroke="midnightblue" points="118.432,-29.6155 127.612,-24.326 117.137,-22.7363 118.432,-29.6155"/>
</g>
<!-- Node218 -->
<g id="node4" class="node"><title>Node218</title>
<g id="a_node4"><a xlink:href="../../df/d46/namespacemom__string__functions.html#aec369a6ac0badc1dbd782a1668d2c7c3" target="_top" xlink:title="mom_string_functions\l::isformattedfloatequalto">
<polygon fill="white" stroke="black" points="259,-0.5 259,-30.5 361,-30.5 361,-0.5 259,-0.5"/>
<text text-anchor="start" x="267" y="-18.5" font-family="Helvetica,sans-Serif" font-size="10.00">mom_string_functions</text>
<text text-anchor="middle" x="310" y="-7.5" font-family="Helvetica,sans-Serif" font-size="10.00">::isformattedfloatequalto</text>
</a>
</g>
</g>
<!-- Node217&#45;&gt;Node218 -->
<g id="edge3" class="edge"><title>Node217&#45;&gt;Node218</title>
<path fill="none" stroke="midnightblue" d="M223.215,-15.5C231.372,-15.5 239.963,-15.5 248.43,-15.5"/>
<polygon fill="midnightblue" stroke="midnightblue" points="248.658,-19.0001 258.658,-15.5 248.658,-12.0001 248.658,-19.0001"/>
</g>
</g>
</svg>
