<?xml version="1.0" encoding="UTF-8" standalone="no"?>
<!DOCTYPE svg PUBLIC "-//W3C//DTD SVG 1.1//EN"
 "http://www.w3.org/Graphics/SVG/1.1/DTD/svg11.dtd">
<!-- Generated by graphviz version 2.38.0 (20140413.2041)
 -->
<!-- Title: mom_file_parser::lastnoncommentnonblank Pages: 1 -->
<svg width="1007pt" height="215pt"
 viewBox="0.00 0.00 1007.00 214.50" xmlns="http://www.w3.org/2000/svg" xmlns:xlink="http://www.w3.org/1999/xlink">
<g id="graph0" class="graph" transform="scale(1 1) rotate(0) translate(4 210.5)">
<title>mom_file_parser::lastnoncommentnonblank</title>
<polygon fill="white" stroke="none" points="-4,4 -4,-210.5 1003,-210.5 1003,4 -4,4"/>
<!-- Node186 -->
<g id="node1" class="node"><title>Node186</title>
<polygon fill="#bfbfbf" stroke="black" points="0,-110.5 0,-129.5 172,-129.5 172,-110.5 0,-110.5"/>
<text text-anchor="middle" x="86" y="-117.5" font-family="Helvetica,sans-Serif" font-size="10.00">mom_file_parser::lastnoncommentnonblank</text>
</g>
<!-- Node187 -->
<g id="node2" class="node"><title>Node187</title>
<g id="a_node2"><a xlink:href="../../d9/def/namespacemom__file__parser.html#a7abfd98d7f0831fc0d1f3747a68f1be9" target="_top" xlink:title="mom_file_parser::populate\l_param_data">
<polygon fill="white" stroke="black" points="389,-105 389,-135 501,-135 501,-105 389,-105"/>
<text text-anchor="start" x="397" y="-123" font-family="Helvetica,sans-Serif" font-size="10.00">mom_file_parser::populate</text>
<text text-anchor="middle" x="445" y="-112" font-family="Helvetica,sans-Serif" font-size="10.00">_param_data</text>
</a>
</g>
</g>
<!-- Node186&#45;&gt;Node187 -->
<g id="edge1" class="edge"><title>Node186&#45;&gt;Node187</title>
<path fill="none" stroke="midnightblue" d="M182.059,-120C248.06,-120 333.699,-120 388.761,-120"/>
<polygon fill="midnightblue" stroke="midnightblue" points="182.057,-116.5 172.057,-120 182.057,-123.5 182.057,-116.5"/>
</g>
<!-- Node197 -->
<g id="node12" class="node"><title>Node197</title>
<g id="a_node12"><a xlink:href="../../d9/def/namespacemom__file__parser.html#ae0b982cc161173a401291757a6677373" target="_top" xlink:title="mom_file_parser::removecomments">
<polygon fill="white" stroke="black" points="208,-91.5 208,-110.5 353,-110.5 353,-91.5 208,-91.5"/>
<text text-anchor="middle" x="280.5" y="-98.5" font-family="Helvetica,sans-Serif" font-size="10.00">mom_file_parser::removecomments</text>
</a>
</g>
</g>
<!-- Node186&#45;&gt;Node197 -->
<g id="edge13" class="edge"><title>Node186&#45;&gt;Node197</title>
<path fill="none" stroke="midnightblue" d="M182.324,-110.591C190.903,-109.745 199.491,-108.897 207.817,-108.075"/>
<polygon fill="midnightblue" stroke="midnightblue" points="181.882,-107.118 172.274,-111.583 182.569,-114.084 181.882,-107.118"/>
</g>
<!-- Node188 -->
<g id="node3" class="node"><title>Node188</title>
<g id="a_node3"><a xlink:href="../../d9/def/namespacemom__file__parser.html#abecae1b9386aafa17aec927af1f8c448" target="_top" xlink:title="mom_file_parser::open\l_param_file">
<polygon fill="white" stroke="black" points="537,-105 537,-135 636,-135 636,-105 537,-105"/>
<text text-anchor="start" x="545" y="-123" font-family="Helvetica,sans-Serif" font-size="10.00">mom_file_parser::open</text>
<text text-anchor="middle" x="586.5" y="-112" font-family="Helvetica,sans-Serif" font-size="10.00">_param_file</text>
</a>
</g>
</g>
<!-- Node187&#45;&gt;Node188 -->
<g id="edge2" class="edge"><title>Node187&#45;&gt;Node188</title>
<path fill="none" stroke="midnightblue" d="M511.135,-120C519.718,-120 528.395,-120 536.642,-120"/>
<polygon fill="midnightblue" stroke="midnightblue" points="511.134,-116.5 501.134,-120 511.134,-123.5 511.134,-116.5"/>
</g>
<!-- Node189 -->
<g id="node4" class="node"><title>Node189</title>
<g id="a_node4"><a xlink:href="../../d6/d48/MOM__sum__driver_8F90.html#a08fffeb2d8e8acbf9ed4609be6d258c6" target="_top" xlink:title="mom_main">
<polygon fill="white" stroke="black" points="688,-132.5 688,-151.5 744,-151.5 744,-132.5 688,-132.5"/>
<text text-anchor="middle" x="716" y="-139.5" font-family="Helvetica,sans-Serif" font-size="10.00">mom_main</text>
</a>
</g>
</g>
<!-- Node188&#45;&gt;Node189 -->
<g id="edge3" class="edge"><title>Node188&#45;&gt;Node189</title>
<path fill="none" stroke="midnightblue" d="M646.097,-130.111C660.725,-132.635 675.718,-135.222 687.967,-137.335"/>
<polygon fill="midnightblue" stroke="midnightblue" points="646.516,-126.631 636.066,-128.38 645.325,-133.529 646.516,-126.631"/>
</g>
<!-- Node190 -->
<g id="node5" class="node"><title>Node190</title>
<g id="a_node5"><a xlink:href="../../d9/d7f/namespacemom__get__input.html#a299c5b9476662ef1a382e23a8d078143" target="_top" xlink:title="mom_get_input::get\l_mom_input">
<polygon fill="white" stroke="black" points="672,-83 672,-113 760,-113 760,-83 672,-83"/>
<text text-anchor="start" x="680" y="-101" font-family="Helvetica,sans-Serif" font-size="10.00">mom_get_input::get</text>
<text text-anchor="middle" x="716" y="-90" font-family="Helvetica,sans-Serif" font-size="10.00">_mom_input</text>
</a>
</g>
</g>
<!-- Node188&#45;&gt;Node190 -->
<g id="edge4" class="edge"><title>Node188&#45;&gt;Node190</title>
<path fill="none" stroke="midnightblue" d="M646.178,-109.875C654.875,-108.375 663.698,-106.852 671.995,-105.42"/>
<polygon fill="midnightblue" stroke="midnightblue" points="645.325,-106.471 636.066,-111.62 646.516,-113.369 645.325,-106.471"/>
</g>
<!-- Node191 -->
<g id="node6" class="node"><title>Node191</title>
<g id="a_node6"><a xlink:href="../../dc/ded/namespacemom__surface__forcing.html#ad01961191fdfc928f233901e285f4beb" target="_top" xlink:title="mom_surface_forcing\l::surface_forcing_init">
<polygon fill="white" stroke="black" points="804.5,-176 804.5,-206 898.5,-206 898.5,-176 804.5,-176"/>
<text text-anchor="start" x="812.5" y="-194" font-family="Helvetica,sans-Serif" font-size="10.00">mom_surface_forcing</text>
<text text-anchor="middle" x="851.5" y="-183" font-family="Helvetica,sans-Serif" font-size="10.00">::surface_forcing_init</text>
</a>
</g>
</g>
<!-- Node190&#45;&gt;Node191 -->
<g id="edge5" class="edge"><title>Node190&#45;&gt;Node191</title>
<path fill="none" stroke="midnightblue" d="M754.622,-118.752C756.486,-120.125 758.291,-121.544 760,-123 779.23,-139.39 775.884,-151.71 796,-167 800.362,-170.316 805.254,-173.287 810.27,-175.915"/>
<polygon fill="midnightblue" stroke="midnightblue" points="756.428,-115.748 746.183,-113.044 752.505,-121.546 756.428,-115.748"/>
</g>
<!-- Node192 -->
<g id="node7" class="node"><title>Node192</title>
<g id="a_node7"><a xlink:href="../../d5/dd4/namespaceocean__model__mod.html#a6b00b9a33be391bb23668abbfa4d99c6" target="_top" xlink:title="ocean_model_mod::ocean\l_model_flux_init">
<polygon fill="white" stroke="black" points="796,-127 796,-157 907,-157 907,-127 796,-127"/>
<text text-anchor="start" x="804" y="-145" font-family="Helvetica,sans-Serif" font-size="10.00">ocean_model_mod::ocean</text>
<text text-anchor="middle" x="851.5" y="-134" font-family="Helvetica,sans-Serif" font-size="10.00">_model_flux_init</text>
</a>
</g>
</g>
<!-- Node190&#45;&gt;Node192 -->
<g id="edge6" class="edge"><title>Node190&#45;&gt;Node192</title>
<path fill="none" stroke="midnightblue" d="M770.181,-115.528C781.577,-119.284 793.524,-123.222 804.617,-126.877"/>
<polygon fill="midnightblue" stroke="midnightblue" points="770.937,-112.092 760.344,-112.286 768.745,-118.74 770.937,-112.092"/>
</g>
<!-- Node193 -->
<g id="node8" class="node"><title>Node193</title>
<g id="a_node8"><a xlink:href="../../d5/d6d/ice__shelf__driver_8F90.html#aec5bef92f0dad343f545cd8d62e378d8" target="_top" xlink:title="shelf_main">
<polygon fill="white" stroke="black" points="943.5,-64.5 943.5,-83.5 998.5,-83.5 998.5,-64.5 943.5,-64.5"/>
<text text-anchor="middle" x="971" y="-71.5" font-family="Helvetica,sans-Serif" font-size="10.00">shelf_main</text>
</a>
</g>
</g>
<!-- Node190&#45;&gt;Node193 -->
<g id="edge7" class="edge"><title>Node190&#45;&gt;Node193</title>
<path fill="none" stroke="midnightblue" d="M770.434,-92.9312C823.407,-87.9061 902.393,-80.4133 943.297,-76.5331"/>
<polygon fill="midnightblue" stroke="midnightblue" points="769.83,-89.4727 760.205,-93.9015 770.491,-96.4414 769.83,-89.4727"/>
</g>
<!-- Node194 -->
<g id="node9" class="node"><title>Node194</title>
<g id="a_node9"><a xlink:href="../../da/d01/namespacemom.html#afebdc0103ad9cbe0ed4a54e522dc4104" target="_top" xlink:title="This subroutine initializes MOM. ">
<polygon fill="white" stroke="black" points="807,-0.5 807,-19.5 896,-19.5 896,-0.5 807,-0.5"/>
<text text-anchor="middle" x="851.5" y="-7.5" font-family="Helvetica,sans-Serif" font-size="10.00">mom::initialize_mom</text>
</a>
</g>
</g>
<!-- Node190&#45;&gt;Node194 -->
<g id="edge8" class="edge"><title>Node190&#45;&gt;Node194</title>
<path fill="none" stroke="midnightblue" d="M738.049,-75.5712C753.031,-60.683 774.283,-41.6279 796,-29 802.41,-25.2726 809.668,-22.1126 816.749,-19.5033"/>
<polygon fill="midnightblue" stroke="midnightblue" points="735.336,-73.3382 730.817,-82.9209 740.325,-78.248 735.336,-73.3382"/>
</g>
<!-- Node196 -->
<g id="node11" class="node"><title>Node196</title>
<g id="a_node11"><a xlink:href="../../df/da2/namespacemom__ice__shelf.html#ae315e8464ef8a20062e3bccb61886755" target="_top" xlink:title="mom_ice_shelf::initialize\l_ice_shelf">
<polygon fill="white" stroke="black" points="801,-39 801,-69 902,-69 902,-39 801,-39"/>
<text text-anchor="start" x="809" y="-57" font-family="Helvetica,sans-Serif" font-size="10.00">mom_ice_shelf::initialize</text>
<text text-anchor="middle" x="851.5" y="-46" font-family="Helvetica,sans-Serif" font-size="10.00">_ice_shelf</text>
</a>
</g>
</g>
<!-- Node190&#45;&gt;Node196 -->
<g id="edge10" class="edge"><title>Node190&#45;&gt;Node196</title>
<path fill="none" stroke="midnightblue" d="M770.181,-80.4721C781.577,-76.7161 793.524,-72.7785 804.617,-69.1226"/>
<polygon fill="midnightblue" stroke="midnightblue" points="768.745,-77.26 760.344,-83.7145 770.937,-83.9083 768.745,-77.26"/>
</g>
<!-- Node195 -->
<g id="node10" class="node"><title>Node195</title>
<g id="a_node10"><a xlink:href="../../de/dbc/MOM__driver_8F90.html#a08fffeb2d8e8acbf9ed4609be6d258c6" target="_top" xlink:title="mom_main">
<polygon fill="white" stroke="black" points="943,-23.5 943,-42.5 999,-42.5 999,-23.5 943,-23.5"/>
<text text-anchor="middle" x="971" y="-30.5" font-family="Helvetica,sans-Serif" font-size="10.00">mom_main</text>
</a>
</g>
</g>
<!-- Node194&#45;&gt;Node195 -->
<g id="edge9" class="edge"><title>Node194&#45;&gt;Node195</title>
<path fill="none" stroke="midnightblue" d="M906.32,-20.5349C919.012,-23.0194 932.014,-25.5644 942.932,-27.7017"/>
<polygon fill="midnightblue" stroke="midnightblue" points="906.739,-17.0506 896.253,-18.5644 905.394,-23.9202 906.739,-17.0506"/>
</g>
<!-- Node196&#45;&gt;Node193 -->
<g id="edge11" class="edge"><title>Node196&#45;&gt;Node193</title>
<path fill="none" stroke="midnightblue" d="M912.343,-64.186C923.277,-66.0471 934.16,-67.8996 943.477,-69.4855"/>
<polygon fill="midnightblue" stroke="midnightblue" points="912.776,-60.7095 902.331,-62.4818 911.601,-67.6103 912.776,-60.7095"/>
</g>
<!-- Node196&#45;&gt;Node195 -->
<g id="edge12" class="edge"><title>Node196&#45;&gt;Node195</title>
<path fill="none" stroke="midnightblue" d="M912.494,-43.2777C923.124,-41.3778 933.7,-39.4877 942.829,-37.8562"/>
<polygon fill="midnightblue" stroke="midnightblue" points="911.559,-39.8893 902.331,-45.0941 912.79,-46.7801 911.559,-39.8893"/>
</g>
<!-- Node197&#45;&gt;Node187 -->
<g id="edge14" class="edge"><title>Node197&#45;&gt;Node187</title>
<path fill="none" stroke="midnightblue" d="M363.333,-110.568C371.941,-111.575 380.54,-112.58 388.744,-113.539"/>
<polygon fill="midnightblue" stroke="midnightblue" points="363.587,-107.074 353.248,-109.389 362.774,-114.027 363.587,-107.074"/>
</g>
</g>
</svg>
