<?xml version="1.0" encoding="UTF-8" standalone="no"?>
<!DOCTYPE svg PUBLIC "-//W3C//DTD SVG 1.1//EN"
 "http://www.w3.org/Graphics/SVG/1.1/DTD/svg11.dtd">
<!-- Generated by graphviz version 2.38.0 (20140413.2041)
 -->
<!-- Title: mom_set_visc::set_visc_cs Pages: 1 -->
<svg width="308pt" height="205pt"
 viewBox="0.00 0.00 308.00 205.00" xmlns="http://www.w3.org/2000/svg" xmlns:xlink="http://www.w3.org/1999/xlink">
<g id="graph0" class="graph" transform="scale(1 1) rotate(0) translate(4 201)">
<title>mom_set_visc::set_visc_cs</title>
<polygon fill="white" stroke="none" points="-4,4 -4,-201 304,-201 304,4 -4,4"/>
<!-- Node1 -->
<g id="node1" class="node"><title>Node1</title>
<polygon fill="#bfbfbf" stroke="black" points="84.5,-0.5 84.5,-19.5 195.5,-19.5 195.5,-0.5 84.5,-0.5"/>
<text text-anchor="middle" x="140" y="-7.5" font-family="Helvetica,sans-Serif" font-size="10.00">mom_set_visc::set_visc_cs</text>
</g>
<!-- Node2 -->
<g id="node2" class="node"><title>Node2</title>
<polygon fill="white" stroke="#bfbfbf" points="0,-177.5 0,-196.5 38,-196.5 38,-177.5 0,-177.5"/>
<text text-anchor="middle" x="19" y="-184.5" font-family="Helvetica,sans-Serif" font-size="10.00">logical</text>
</g>
<!-- Node2&#45;&gt;Node1 -->
<g id="edge1" class="edge"><title>Node2&#45;&gt;Node1</title>
<path fill="none" stroke="#9a32cd" stroke-dasharray="5,2" d="M14.6579,-167.54C8.5939,-136.739 1.57306,-74.6395 33,-38 40.1098,-29.711 62.1058,-23.4502 84.3202,-19.055"/>
<polygon fill="#9a32cd" stroke="#9a32cd" points="11.2473,-168.328 16.7757,-177.366 18.0902,-166.853 11.2473,-168.328"/>
<text text-anchor="middle" x="69.5" y="-134.5" font-family="Helvetica,sans-Serif" font-size="10.00"> bbl_use_eos</text>
<text text-anchor="middle" x="69.5" y="-123.5" font-family="Helvetica,sans-Serif" font-size="10.00">dynamic_viscous_ml</text>
<text text-anchor="middle" x="69.5" y="-112.5" font-family="Helvetica,sans-Serif" font-size="10.00">bottomdraglaw</text>
<text text-anchor="middle" x="69.5" y="-101.5" font-family="Helvetica,sans-Serif" font-size="10.00">linear_drag</text>
<text text-anchor="middle" x="69.5" y="-90.5" font-family="Helvetica,sans-Serif" font-size="10.00">use_omega</text>
<text text-anchor="middle" x="69.5" y="-79.5" font-family="Helvetica,sans-Serif" font-size="10.00">channel_drag</text>
<text text-anchor="middle" x="69.5" y="-68.5" font-family="Helvetica,sans-Serif" font-size="10.00">debug</text>
<text text-anchor="middle" x="69.5" y="-57.5" font-family="Helvetica,sans-Serif" font-size="10.00">rino_mix</text>
</g>
<!-- Node3 -->
<g id="node3" class="node"><title>Node3</title>
<polygon fill="white" stroke="#bfbfbf" points="85.5,-177.5 85.5,-196.5 132.5,-196.5 132.5,-177.5 85.5,-177.5"/>
<text text-anchor="middle" x="109" y="-184.5" font-family="Helvetica,sans-Serif" font-size="10.00">diag_ctrl</text>
</g>
<!-- Node3&#45;&gt;Node1 -->
<g id="edge2" class="edge"><title>Node3&#45;&gt;Node1</title>
<path fill="none" stroke="#9a32cd" stroke-dasharray="5,2" d="M108.995,-167.304C109.462,-138.79 112.258,-83.0029 126,-38 127.974,-31.536 131.474,-24.786 134.48,-19.652"/>
<polygon fill="#9a32cd" stroke="#9a32cd" points="105.494,-167.408 108.912,-177.437 112.494,-167.466 105.494,-167.408"/>
<text text-anchor="middle" x="135" y="-96" font-family="Helvetica,sans-Serif" font-size="10.00"> diag</text>
</g>
<!-- Node4 -->
<g id="node4" class="node"><title>Node4</title>
<polygon fill="white" stroke="#bfbfbf" points="150.5,-177.5 150.5,-196.5 191.5,-196.5 191.5,-177.5 150.5,-177.5"/>
<text text-anchor="middle" x="171" y="-184.5" font-family="Helvetica,sans-Serif" font-size="10.00">integer</text>
</g>
<!-- Node4&#45;&gt;Node1 -->
<g id="edge3" class="edge"><title>Node4&#45;&gt;Node1</title>
<path fill="none" stroke="#9a32cd" stroke-dasharray="5,2" d="M167.626,-166.951C160.955,-129.297 146.316,-46.6537 141.54,-19.6932"/>
<polygon fill="#9a32cd" stroke="#9a32cd" points="164.229,-167.845 169.42,-177.081 171.122,-166.624 164.229,-167.845"/>
<text text-anchor="middle" x="193" y="-134.5" font-family="Helvetica,sans-Serif" font-size="10.00"> id_kv_bbl_u</text>
<text text-anchor="middle" x="193" y="-123.5" font-family="Helvetica,sans-Serif" font-size="10.00">id_nkml_visc_u</text>
<text text-anchor="middle" x="193" y="-112.5" font-family="Helvetica,sans-Serif" font-size="10.00">id_kv_bbl_v</text>
<text text-anchor="middle" x="193" y="-101.5" font-family="Helvetica,sans-Serif" font-size="10.00">id_nkml_visc_v</text>
<text text-anchor="middle" x="193" y="-90.5" font-family="Helvetica,sans-Serif" font-size="10.00">id_ray_u</text>
<text text-anchor="middle" x="193" y="-79.5" font-family="Helvetica,sans-Serif" font-size="10.00">id_ray_v</text>
<text text-anchor="middle" x="193" y="-68.5" font-family="Helvetica,sans-Serif" font-size="10.00">id_bbl_thick_u</text>
<text text-anchor="middle" x="193" y="-57.5" font-family="Helvetica,sans-Serif" font-size="10.00">id_bbl_thick_v</text>
</g>
<!-- Node5 -->
<g id="node5" class="node"><title>Node5</title>
<polygon fill="white" stroke="#bfbfbf" points="228,-177.5 228,-196.5 258,-196.5 258,-177.5 228,-177.5"/>
<text text-anchor="middle" x="243" y="-184.5" font-family="Helvetica,sans-Serif" font-size="10.00">real</text>
</g>
<!-- Node5&#45;&gt;Node1 -->
<g id="edge4" class="edge"><title>Node5&#45;&gt;Node1</title>
<path fill="none" stroke="#9a32cd" stroke-dasharray="5,2" d="M245.92,-167.26C249.596,-136.506 252.099,-75.0493 221,-38 213.852,-29.4848 203.941,-23.6416 193.498,-19.6356"/>
<polygon fill="#9a32cd" stroke="#9a32cd" points="242.417,-167.045 244.521,-177.429 249.352,-167.999 242.417,-167.045"/>
<text text-anchor="middle" x="274" y="-151" font-family="Helvetica,sans-Serif" font-size="10.00"> kv_bbl_min</text>
<text text-anchor="middle" x="274" y="-140" font-family="Helvetica,sans-Serif" font-size="10.00">cdrag</text>
<text text-anchor="middle" x="274" y="-129" font-family="Helvetica,sans-Serif" font-size="10.00">drag_bg_vel</text>
<text text-anchor="middle" x="274" y="-118" font-family="Helvetica,sans-Serif" font-size="10.00">kv_tbl_min</text>
<text text-anchor="middle" x="274" y="-107" font-family="Helvetica,sans-Serif" font-size="10.00">bbl_thick_min</text>
<text text-anchor="middle" x="274" y="-96" font-family="Helvetica,sans-Serif" font-size="10.00">hbbl</text>
<text text-anchor="middle" x="274" y="-85" font-family="Helvetica,sans-Serif" font-size="10.00">tke_decay</text>
<text text-anchor="middle" x="274" y="-74" font-family="Helvetica,sans-Serif" font-size="10.00">bulk_ri_ml</text>
<text text-anchor="middle" x="274" y="-63" font-family="Helvetica,sans-Serif" font-size="10.00">htbl_shelf</text>
<text text-anchor="middle" x="274" y="-52" font-family="Helvetica,sans-Serif" font-size="10.00">htbl_shelf_min</text>
<text text-anchor="middle" x="274" y="-41" font-family="Helvetica,sans-Serif" font-size="10.00">...</text>
</g>
</g>
</svg>
