<?xml version="1.0" encoding="UTF-8" standalone="no"?>
<!DOCTYPE svg PUBLIC "-//W3C//DTD SVG 1.1//EN"
 "http://www.w3.org/Graphics/SVG/1.1/DTD/svg11.dtd">
<!-- Generated by graphviz version 2.38.0 (20140413.2041)
 -->
<!-- Title: mom_ice_shelf::update_od_ffrac_uncoupled Pages: 1 -->
<svg width="336pt" height="137pt"
 viewBox="0.00 0.00 336.00 137.00" xmlns="http://www.w3.org/2000/svg" xmlns:xlink="http://www.w3.org/1999/xlink">
<g id="graph0" class="graph" transform="scale(1 1) rotate(0) translate(4 133)">
<title>mom_ice_shelf::update_od_ffrac_uncoupled</title>
<polygon fill="white" stroke="none" points="-4,4 -4,-133 332,-133 332,4 -4,4"/>
<!-- Node510 -->
<g id="node1" class="node"><title>Node510</title>
<polygon fill="#bfbfbf" stroke="black" points="0,-49.5 0,-79.5 99,-79.5 99,-49.5 0,-49.5"/>
<text text-anchor="start" x="8" y="-67.5" font-family="Helvetica,sans-Serif" font-size="10.00">mom_ice_shelf::update</text>
<text text-anchor="middle" x="49.5" y="-56.5" font-family="Helvetica,sans-Serif" font-size="10.00">_od_ffrac_uncoupled</text>
</g>
<!-- Node511 -->
<g id="node2" class="node"><title>Node511</title>
<g id="a_node2"><a xlink:href="../../df/da2/namespacemom__ice__shelf.html#ae315e8464ef8a20062e3bccb61886755" target="_top" xlink:title="mom_ice_shelf::initialize\l_ice_shelf">
<polygon fill="white" stroke="black" points="135,-49.5 135,-79.5 236,-79.5 236,-49.5 135,-49.5"/>
<text text-anchor="start" x="143" y="-67.5" font-family="Helvetica,sans-Serif" font-size="10.00">mom_ice_shelf::initialize</text>
<text text-anchor="middle" x="185.5" y="-56.5" font-family="Helvetica,sans-Serif" font-size="10.00">_ice_shelf</text>
</a>
</g>
</g>
<!-- Node510&#45;&gt;Node511 -->
<g id="edge1" class="edge"><title>Node510&#45;&gt;Node511</title>
<path fill="none" stroke="midnightblue" d="M109.409,-64.5C117.832,-64.5 126.429,-64.5 134.655,-64.5"/>
<polygon fill="midnightblue" stroke="midnightblue" points="109.256,-61.0001 99.2561,-64.5 109.256,-68.0001 109.256,-61.0001"/>
</g>
<!-- Node514 -->
<g id="node5" class="node"><title>Node514</title>
<g id="a_node5"><a xlink:href="../../df/da2/namespacemom__ice__shelf.html#a3b0e0cc9f36c5197236cc05867b780df" target="_top" xlink:title="mom_ice_shelf::shelf\l_calc_flux">
<polygon fill="white" stroke="black" points="140,-98.5 140,-128.5 231,-128.5 231,-98.5 140,-98.5"/>
<text text-anchor="start" x="148" y="-116.5" font-family="Helvetica,sans-Serif" font-size="10.00">mom_ice_shelf::shelf</text>
<text text-anchor="middle" x="185.5" y="-105.5" font-family="Helvetica,sans-Serif" font-size="10.00">_calc_flux</text>
</a>
</g>
</g>
<!-- Node510&#45;&gt;Node514 -->
<g id="edge4" class="edge"><title>Node510&#45;&gt;Node514</title>
<path fill="none" stroke="midnightblue" d="M101.588,-83.1816C115.312,-88.2001 129.982,-93.5643 143.108,-98.3641"/>
<polygon fill="midnightblue" stroke="midnightblue" points="102.392,-79.7487 91.7978,-79.6014 99.9876,-86.3229 102.392,-79.7487"/>
</g>
<!-- Node515 -->
<g id="node6" class="node"><title>Node515</title>
<g id="a_node6"><a xlink:href="../../df/da2/namespacemom__ice__shelf.html#ac084bdc5be4e708e3263488e9574a3c9" target="_top" xlink:title="mom_ice_shelf::solo\l_time_step">
<polygon fill="white" stroke="black" points="141,-0.5 141,-30.5 230,-30.5 230,-0.5 141,-0.5"/>
<text text-anchor="start" x="149" y="-18.5" font-family="Helvetica,sans-Serif" font-size="10.00">mom_ice_shelf::solo</text>
<text text-anchor="middle" x="185.5" y="-7.5" font-family="Helvetica,sans-Serif" font-size="10.00">_time_step</text>
</a>
</g>
</g>
<!-- Node510&#45;&gt;Node515 -->
<g id="edge6" class="edge"><title>Node510&#45;&gt;Node515</title>
<path fill="none" stroke="midnightblue" d="M101.588,-45.8184C115.312,-40.7999 129.982,-35.4357 143.108,-30.6359"/>
<polygon fill="midnightblue" stroke="midnightblue" points="99.9876,-42.6771 91.7978,-49.3986 102.392,-49.2513 99.9876,-42.6771"/>
</g>
<!-- Node512 -->
<g id="node3" class="node"><title>Node512</title>
<g id="a_node3"><a xlink:href="../../de/dbc/MOM__driver_8F90.html#a08fffeb2d8e8acbf9ed4609be6d258c6" target="_top" xlink:title="mom_main">
<polygon fill="white" stroke="black" points="272,-76 272,-95 328,-95 328,-76 272,-76"/>
<text text-anchor="middle" x="300" y="-83" font-family="Helvetica,sans-Serif" font-size="10.00">mom_main</text>
</a>
</g>
</g>
<!-- Node511&#45;&gt;Node512 -->
<g id="edge2" class="edge"><title>Node511&#45;&gt;Node512</title>
<path fill="none" stroke="midnightblue" d="M246.261,-75.6554C255.196,-77.3232 264.012,-78.9689 271.803,-80.4232"/>
<polygon fill="midnightblue" stroke="midnightblue" points="246.644,-72.1665 236.172,-73.772 245.36,-79.0477 246.644,-72.1665"/>
</g>
<!-- Node513 -->
<g id="node4" class="node"><title>Node513</title>
<g id="a_node4"><a xlink:href="../../d5/d6d/ice__shelf__driver_8F90.html#aec5bef92f0dad343f545cd8d62e378d8" target="_top" xlink:title="shelf_main">
<polygon fill="white" stroke="black" points="272.5,-33 272.5,-52 327.5,-52 327.5,-33 272.5,-33"/>
<text text-anchor="middle" x="300" y="-40" font-family="Helvetica,sans-Serif" font-size="10.00">shelf_main</text>
</a>
</g>
</g>
<!-- Node511&#45;&gt;Node513 -->
<g id="edge3" class="edge"><title>Node511&#45;&gt;Node513</title>
<path fill="none" stroke="midnightblue" d="M246.161,-52.8329C255.367,-51.0328 264.45,-49.2565 272.419,-47.698"/>
<polygon fill="midnightblue" stroke="midnightblue" points="245.314,-49.4322 236.172,-54.7864 246.657,-56.3021 245.314,-49.4322"/>
</g>
<!-- Node514&#45;&gt;Node512 -->
<g id="edge5" class="edge"><title>Node514&#45;&gt;Node512</title>
<path fill="none" stroke="midnightblue" d="M241.049,-99.9233C251.754,-97.2591 262.54,-94.5744 271.857,-92.2557"/>
<polygon fill="midnightblue" stroke="midnightblue" points="240.145,-96.5415 231.286,-102.353 241.836,-103.334 240.145,-96.5415"/>
</g>
<!-- Node515&#45;&gt;Node513 -->
<g id="edge7" class="edge"><title>Node515&#45;&gt;Node513</title>
<path fill="none" stroke="midnightblue" d="M240.089,-28.3612C251.3,-31.0519 262.652,-33.7765 272.359,-36.1062"/>
<polygon fill="midnightblue" stroke="midnightblue" points="240.858,-24.9467 230.318,-26.0162 239.225,-31.7534 240.858,-24.9467"/>
</g>
</g>
</svg>
