<?xml version="1.0" encoding="UTF-8" standalone="no"?>
<!DOCTYPE svg PUBLIC "-//W3C//DTD SVG 1.1//EN"
 "http://www.w3.org/Graphics/SVG/1.1/DTD/svg11.dtd">
<!-- Generated by graphviz version 2.38.0 (20140413.2041)
 -->
<!-- Title: mom_ice_shelf::calc_shelf_visc_bilinear Pages: 1 -->
<svg width="445pt" height="186pt"
 viewBox="0.00 0.00 445.00 186.00" xmlns="http://www.w3.org/2000/svg" xmlns:xlink="http://www.w3.org/1999/xlink">
<g id="graph0" class="graph" transform="scale(1 1) rotate(0) translate(4 182)">
<title>mom_ice_shelf::calc_shelf_visc_bilinear</title>
<polygon fill="white" stroke="none" points="-4,4 -4,-182 441,-182 441,4 -4,4"/>
<!-- Node60 -->
<g id="node1" class="node"><title>Node60</title>
<polygon fill="#bfbfbf" stroke="black" points="0,-73.5 0,-103.5 88,-103.5 88,-73.5 0,-73.5"/>
<text text-anchor="start" x="8" y="-91.5" font-family="Helvetica,sans-Serif" font-size="10.00">mom_ice_shelf::calc</text>
<text text-anchor="middle" x="44" y="-80.5" font-family="Helvetica,sans-Serif" font-size="10.00">_shelf_visc_bilinear</text>
</g>
<!-- Node61 -->
<g id="node2" class="node"><title>Node61</title>
<g id="a_node2"><a xlink:href="../../df/da2/namespacemom__ice__shelf.html#a5d64b696412c0bfd8ded2e2eacaa917c" target="_top" xlink:title="mom_ice_shelf::ice\l_shelf_solve_outer">
<polygon fill="white" stroke="black" points="124,-73.5 124,-103.5 208,-103.5 208,-73.5 124,-73.5"/>
<text text-anchor="start" x="132" y="-91.5" font-family="Helvetica,sans-Serif" font-size="10.00">mom_ice_shelf::ice</text>
<text text-anchor="middle" x="166" y="-80.5" font-family="Helvetica,sans-Serif" font-size="10.00">_shelf_solve_outer</text>
</a>
</g>
</g>
<!-- Node60&#45;&gt;Node61 -->
<g id="edge1" class="edge"><title>Node60&#45;&gt;Node61</title>
<path fill="none" stroke="midnightblue" d="M98.5146,-88.5C106.979,-88.5 115.617,-88.5 123.745,-88.5"/>
<polygon fill="midnightblue" stroke="midnightblue" points="98.3228,-85.0001 88.3228,-88.5 98.3227,-92.0001 98.3228,-85.0001"/>
</g>
<!-- Node62 -->
<g id="node3" class="node"><title>Node62</title>
<g id="a_node3"><a xlink:href="../../df/da2/namespacemom__ice__shelf.html#a3b0e0cc9f36c5197236cc05867b780df" target="_top" xlink:title="mom_ice_shelf::shelf\l_calc_flux">
<polygon fill="white" stroke="black" points="249,-147.5 249,-177.5 340,-177.5 340,-147.5 249,-147.5"/>
<text text-anchor="start" x="257" y="-165.5" font-family="Helvetica,sans-Serif" font-size="10.00">mom_ice_shelf::shelf</text>
<text text-anchor="middle" x="294.5" y="-154.5" font-family="Helvetica,sans-Serif" font-size="10.00">_calc_flux</text>
</a>
</g>
</g>
<!-- Node61&#45;&gt;Node62 -->
<g id="edge2" class="edge"><title>Node61&#45;&gt;Node62</title>
<path fill="none" stroke="midnightblue" d="M197.08,-109.274C211.09,-118.626 228.135,-129.549 244,-138.5 249.407,-141.55 255.259,-144.599 260.982,-147.45"/>
<polygon fill="midnightblue" stroke="midnightblue" points="199.036,-106.372 188.787,-103.687 195.125,-112.177 199.036,-106.372"/>
</g>
<!-- Node64 -->
<g id="node5" class="node"><title>Node64</title>
<g id="a_node5"><a xlink:href="../../df/da2/namespacemom__ice__shelf.html#ae315e8464ef8a20062e3bccb61886755" target="_top" xlink:title="mom_ice_shelf::initialize\l_ice_shelf">
<polygon fill="white" stroke="black" points="244,-98.5 244,-128.5 345,-128.5 345,-98.5 244,-98.5"/>
<text text-anchor="start" x="252" y="-116.5" font-family="Helvetica,sans-Serif" font-size="10.00">mom_ice_shelf::initialize</text>
<text text-anchor="middle" x="294.5" y="-105.5" font-family="Helvetica,sans-Serif" font-size="10.00">_ice_shelf</text>
</a>
</g>
</g>
<!-- Node61&#45;&gt;Node64 -->
<g id="edge4" class="edge"><title>Node61&#45;&gt;Node64</title>
<path fill="none" stroke="midnightblue" d="M217.91,-98.5613C226.448,-100.249 235.297,-101.997 243.803,-103.678"/>
<polygon fill="midnightblue" stroke="midnightblue" points="218.56,-95.1221 208.071,-96.6168 217.203,-101.989 218.56,-95.1221"/>
</g>
<!-- Node66 -->
<g id="node7" class="node"><title>Node66</title>
<g id="a_node7"><a xlink:href="../../df/da2/namespacemom__ice__shelf.html#ae7611e3515ecf0eae0c5d6d17330fd6f" target="_top" xlink:title="mom_ice_shelf::initialize\l_diagnostic_fields">
<polygon fill="white" stroke="black" points="244,-49.5 244,-79.5 345,-79.5 345,-49.5 244,-49.5"/>
<text text-anchor="start" x="252" y="-67.5" font-family="Helvetica,sans-Serif" font-size="10.00">mom_ice_shelf::initialize</text>
<text text-anchor="middle" x="294.5" y="-56.5" font-family="Helvetica,sans-Serif" font-size="10.00">_diagnostic_fields</text>
</a>
</g>
</g>
<!-- Node61&#45;&gt;Node66 -->
<g id="edge7" class="edge"><title>Node61&#45;&gt;Node66</title>
<path fill="none" stroke="midnightblue" d="M217.91,-78.8411C226.448,-77.2214 235.297,-75.5425 243.803,-73.9287"/>
<polygon fill="midnightblue" stroke="midnightblue" points="217.243,-75.4052 208.071,-80.7079 218.548,-82.2825 217.243,-75.4052"/>
</g>
<!-- Node67 -->
<g id="node8" class="node"><title>Node67</title>
<g id="a_node8"><a xlink:href="../../df/da2/namespacemom__ice__shelf.html#ac084bdc5be4e708e3263488e9574a3c9" target="_top" xlink:title="mom_ice_shelf::solo\l_time_step">
<polygon fill="white" stroke="black" points="250,-0.5 250,-30.5 339,-30.5 339,-0.5 250,-0.5"/>
<text text-anchor="start" x="258" y="-18.5" font-family="Helvetica,sans-Serif" font-size="10.00">mom_ice_shelf::solo</text>
<text text-anchor="middle" x="294.5" y="-7.5" font-family="Helvetica,sans-Serif" font-size="10.00">_time_step</text>
</a>
</g>
</g>
<!-- Node61&#45;&gt;Node67 -->
<g id="edge8" class="edge"><title>Node61&#45;&gt;Node67</title>
<path fill="none" stroke="midnightblue" d="M198.555,-67.9388C212.338,-59.1909 228.797,-49.0551 244,-40.5 249.957,-37.1478 256.418,-33.732 262.644,-30.5458"/>
<polygon fill="midnightblue" stroke="midnightblue" points="196.464,-65.1213 189.924,-73.4565 200.234,-71.0191 196.464,-65.1213"/>
</g>
<!-- Node63 -->
<g id="node4" class="node"><title>Node63</title>
<g id="a_node4"><a xlink:href="../../de/dbc/MOM__driver_8F90.html#a08fffeb2d8e8acbf9ed4609be6d258c6" target="_top" xlink:title="mom_main">
<polygon fill="white" stroke="black" points="381,-128 381,-147 437,-147 437,-128 381,-128"/>
<text text-anchor="middle" x="409" y="-135" font-family="Helvetica,sans-Serif" font-size="10.00">mom_main</text>
</a>
</g>
</g>
<!-- Node62&#45;&gt;Node63 -->
<g id="edge3" class="edge"><title>Node62&#45;&gt;Node63</title>
<path fill="none" stroke="midnightblue" d="M350.049,-150.378C360.754,-147.999 371.54,-145.602 380.857,-143.532"/>
<polygon fill="midnightblue" stroke="midnightblue" points="349.289,-146.961 340.286,-152.548 350.807,-153.795 349.289,-146.961"/>
</g>
<!-- Node64&#45;&gt;Node63 -->
<g id="edge6" class="edge"><title>Node64&#45;&gt;Node63</title>
<path fill="none" stroke="midnightblue" d="M354.973,-126.188C364.006,-128.115 372.928,-130.018 380.803,-131.698"/>
<polygon fill="midnightblue" stroke="midnightblue" points="355.682,-122.76 345.172,-124.097 354.221,-129.606 355.682,-122.76"/>
</g>
<!-- Node65 -->
<g id="node6" class="node"><title>Node65</title>
<g id="a_node6"><a xlink:href="../../d5/d6d/ice__shelf__driver_8F90.html#aec5bef92f0dad343f545cd8d62e378d8" target="_top" xlink:title="shelf_main">
<polygon fill="white" stroke="black" points="381.5,-60 381.5,-79 436.5,-79 436.5,-60 381.5,-60"/>
<text text-anchor="middle" x="409" y="-67" font-family="Helvetica,sans-Serif" font-size="10.00">shelf_main</text>
</a>
</g>
</g>
<!-- Node64&#45;&gt;Node65 -->
<g id="edge5" class="edge"><title>Node64&#45;&gt;Node65</title>
<path fill="none" stroke="midnightblue" d="M343.335,-94.791C357.184,-89.3746 371.729,-83.6858 383.51,-79.0783"/>
<polygon fill="midnightblue" stroke="midnightblue" points="341.94,-91.5787 333.901,-98.4808 344.489,-98.0978 341.94,-91.5787"/>
</g>
<!-- Node67&#45;&gt;Node65 -->
<g id="edge9" class="edge"><title>Node67&#45;&gt;Node65</title>
<path fill="none" stroke="midnightblue" d="M335.875,-34.8798C353.637,-43.4059 373.7,-53.0361 388.148,-59.9712"/>
<polygon fill="midnightblue" stroke="midnightblue" points="337.367,-31.714 326.838,-30.542 334.338,-38.0247 337.367,-31.714"/>
</g>
</g>
</svg>
