<?xml version="1.0" encoding="UTF-8" standalone="no"?>
<!DOCTYPE svg PUBLIC "-//W3C//DTD SVG 1.1//EN"
 "http://www.w3.org/Graphics/SVG/1.1/DTD/svg11.dtd">
<!-- Generated by graphviz version 2.38.0 (20140413.2041)
 -->
<!-- Title: mom_ice_shelf::initialize_diagnostic_fields Pages: 1 -->
<svg width="829pt" height="632pt"
 viewBox="0.00 0.00 829.00 631.90" xmlns="http://www.w3.org/2000/svg" xmlns:xlink="http://www.w3.org/1999/xlink">
<g id="graph0" class="graph" transform="scale(1 1) rotate(0) translate(4 627.898)">
<title>mom_ice_shelf::initialize_diagnostic_fields</title>
<polygon fill="white" stroke="none" points="-4,4 -4,-627.898 825,-627.898 825,4 -4,4"/>
<!-- Node243 -->
<g id="node1" class="node"><title>Node243</title>
<polygon fill="#bfbfbf" stroke="black" points="0,-284.5 0,-314.5 101,-314.5 101,-284.5 0,-284.5"/>
<text text-anchor="start" x="8" y="-302.5" font-family="Helvetica,sans-Serif" font-size="10.00">mom_ice_shelf::initialize</text>
<text text-anchor="middle" x="50.5" y="-291.5" font-family="Helvetica,sans-Serif" font-size="10.00">_diagnostic_fields</text>
</g>
<!-- Node244 -->
<g id="node2" class="node"><title>Node244</title>
<g id="a_node2"><a xlink:href="../../df/da2/namespacemom__ice__shelf.html#a5d64b696412c0bfd8ded2e2eacaa917c" target="_top" xlink:title="mom_ice_shelf::ice\l_shelf_solve_outer">
<polygon fill="white" stroke="black" points="137,-284.5 137,-314.5 221,-314.5 221,-284.5 137,-284.5"/>
<text text-anchor="start" x="145" y="-302.5" font-family="Helvetica,sans-Serif" font-size="10.00">mom_ice_shelf::ice</text>
<text text-anchor="middle" x="179" y="-291.5" font-family="Helvetica,sans-Serif" font-size="10.00">_shelf_solve_outer</text>
</a>
</g>
</g>
<!-- Node243&#45;&gt;Node244 -->
<g id="edge1" class="edge"><title>Node243&#45;&gt;Node244</title>
<path fill="none" stroke="midnightblue" d="M101.133,-299.5C109.499,-299.5 118.198,-299.5 126.607,-299.5"/>
<polygon fill="midnightblue" stroke="midnightblue" points="126.679,-303 136.679,-299.5 126.679,-296 126.679,-303"/>
</g>
<!-- Node245 -->
<g id="node3" class="node"><title>Node245</title>
<g id="a_node3"><a xlink:href="../../df/da2/namespacemom__ice__shelf.html#a5d534895698ad80a68be9a1b992c4d0b" target="_top" xlink:title="mom_ice_shelf::apply\l_boundary_values_bilinear">
<polygon fill="white" stroke="black" points="406,-404.5 406,-434.5 518,-434.5 518,-404.5 406,-404.5"/>
<text text-anchor="start" x="414" y="-422.5" font-family="Helvetica,sans-Serif" font-size="10.00">mom_ice_shelf::apply</text>
<text text-anchor="middle" x="462" y="-411.5" font-family="Helvetica,sans-Serif" font-size="10.00">_boundary_values_bilinear</text>
</a>
</g>
</g>
<!-- Node244&#45;&gt;Node245 -->
<g id="edge2" class="edge"><title>Node244&#45;&gt;Node245</title>
<path fill="none" stroke="midnightblue" d="M193.574,-314.575C207.92,-329.611 231.905,-352.317 257,-365.5 300.446,-388.323 354.281,-402.047 395.736,-409.945"/>
<polygon fill="midnightblue" stroke="midnightblue" points="395.257,-413.415 405.726,-411.781 396.523,-406.531 395.257,-413.415"/>
</g>
<!-- Node246 -->
<g id="node4" class="node"><title>Node246</title>
<g id="a_node4"><a xlink:href="../../df/da2/namespacemom__ice__shelf.html#a9f77faf4c64078c8bce0546bb024f34e" target="_top" xlink:title="mom_ice_shelf::bilinear\l_shape_functions">
<polygon fill="white" stroke="black" points="563.5,-477.5 563.5,-507.5 663.5,-507.5 663.5,-477.5 563.5,-477.5"/>
<text text-anchor="start" x="571.5" y="-495.5" font-family="Helvetica,sans-Serif" font-size="10.00">mom_ice_shelf::bilinear</text>
<text text-anchor="middle" x="613.5" y="-484.5" font-family="Helvetica,sans-Serif" font-size="10.00">_shape_functions</text>
</a>
</g>
</g>
<!-- Node244&#45;&gt;Node246 -->
<g id="edge7" class="edge"><title>Node244&#45;&gt;Node246</title>
<path fill="none" stroke="midnightblue" d="M180.78,-314.701C183.658,-355.277 196.924,-467.406 257,-531.5 338.694,-618.658 417.725,-654.855 519,-591.5 550.007,-572.103 528.592,-542.805 555,-517.5 556.628,-515.94 558.37,-514.468 560.195,-513.081"/>
<polygon fill="midnightblue" stroke="midnightblue" points="562.211,-515.945 568.648,-507.53 558.368,-510.094 562.211,-515.945"/>
</g>
<!-- Node249 -->
<g id="node7" class="node"><title>Node249</title>
<g id="a_node7"><a xlink:href="../../df/da2/namespacemom__ice__shelf.html#a6d1174213d77aef09d2eaae2fd138edd" target="_top" xlink:title="mom_ice_shelf::apply\l_boundary_values_triangle">
<polygon fill="white" stroke="black" points="405.5,-551.5 405.5,-581.5 518.5,-581.5 518.5,-551.5 405.5,-551.5"/>
<text text-anchor="start" x="413.5" y="-569.5" font-family="Helvetica,sans-Serif" font-size="10.00">mom_ice_shelf::apply</text>
<text text-anchor="middle" x="462" y="-558.5" font-family="Helvetica,sans-Serif" font-size="10.00">_boundary_values_triangle</text>
</a>
</g>
</g>
<!-- Node244&#45;&gt;Node249 -->
<g id="edge6" class="edge"><title>Node244&#45;&gt;Node249</title>
<path fill="none" stroke="midnightblue" d="M182.046,-314.761C187.569,-350.146 205.973,-438.567 257,-488.5 294.667,-525.359 351.565,-545.186 395.71,-555.611"/>
<polygon fill="midnightblue" stroke="midnightblue" points="394.968,-559.032 405.493,-557.819 396.509,-552.203 394.968,-559.032"/>
</g>
<!-- Node250 -->
<g id="node8" class="node"><title>Node250</title>
<g id="a_node8"><a xlink:href="../../df/da2/namespacemom__ice__shelf.html#a4714299e786f7e62fa2c82916dac2316" target="_top" xlink:title="mom_ice_shelf::bilinear\l_shape_functions_subgrid">
<polygon fill="white" stroke="black" points="258,-284.5 258,-314.5 368,-314.5 368,-284.5 258,-284.5"/>
<text text-anchor="start" x="266" y="-302.5" font-family="Helvetica,sans-Serif" font-size="10.00">mom_ice_shelf::bilinear</text>
<text text-anchor="middle" x="313" y="-291.5" font-family="Helvetica,sans-Serif" font-size="10.00">_shape_functions_subgrid</text>
</a>
</g>
</g>
<!-- Node244&#45;&gt;Node250 -->
<g id="edge8" class="edge"><title>Node244&#45;&gt;Node250</title>
<path fill="none" stroke="midnightblue" d="M221.042,-299.5C229.51,-299.5 238.621,-299.5 247.689,-299.5"/>
<polygon fill="midnightblue" stroke="midnightblue" points="247.873,-303 257.873,-299.5 247.873,-296 247.873,-303"/>
</g>
<!-- Node251 -->
<g id="node9" class="node"><title>Node251</title>
<g id="a_node9"><a xlink:href="../../df/da2/namespacemom__ice__shelf.html#a9ccd473e87beaec693c8d90e7d68ed8f" target="_top" xlink:title="mom_ice_shelf::calc\l_shelf_driving_stress">
<polygon fill="white" stroke="black" points="267.5,-235.5 267.5,-265.5 358.5,-265.5 358.5,-235.5 267.5,-235.5"/>
<text text-anchor="start" x="275.5" y="-253.5" font-family="Helvetica,sans-Serif" font-size="10.00">mom_ice_shelf::calc</text>
<text text-anchor="middle" x="313" y="-242.5" font-family="Helvetica,sans-Serif" font-size="10.00">_shelf_driving_stress</text>
</a>
</g>
</g>
<!-- Node244&#45;&gt;Node251 -->
<g id="edge9" class="edge"><title>Node244&#45;&gt;Node251</title>
<path fill="none" stroke="midnightblue" d="M220.681,-284.399C233.604,-279.601 248.053,-274.238 261.577,-269.218"/>
<polygon fill="midnightblue" stroke="midnightblue" points="263.069,-272.397 271.226,-265.636 260.633,-265.835 263.069,-272.397"/>
</g>
<!-- Node252 -->
<g id="node10" class="node"><title>Node252</title>
<g id="a_node10"><a xlink:href="../../df/da2/namespacemom__ice__shelf.html#a55464f46b7f452abe25f8dde166cee51" target="_top" xlink:title="mom_ice_shelf::savearray2">
<polygon fill="white" stroke="black" points="405,-219 405,-238 519,-238 519,-219 405,-219"/>
<text text-anchor="middle" x="462" y="-226" font-family="Helvetica,sans-Serif" font-size="10.00">mom_ice_shelf::savearray2</text>
</a>
</g>
</g>
<!-- Node244&#45;&gt;Node252 -->
<g id="edge27" class="edge"><title>Node244&#45;&gt;Node252</title>
<path fill="none" stroke="midnightblue" d="M190.382,-284.246C203.501,-266.483 227.911,-238.097 257,-226.5 305.478,-207.173 365.735,-210.757 408.15,-217.281"/>
<polygon fill="midnightblue" stroke="midnightblue" points="407.826,-220.775 418.262,-218.943 408.962,-213.867 407.826,-220.775"/>
</g>
<!-- Node253 -->
<g id="node11" class="node"><title>Node253</title>
<g id="a_node11"><a xlink:href="../../df/da2/namespacemom__ice__shelf.html#ac7bf50703bb671dbde1016061a04e3c9" target="_top" xlink:title="mom_ice_shelf::calc\l_shelf_visc_bilinear">
<polygon fill="white" stroke="black" points="269,-147.5 269,-177.5 357,-177.5 357,-147.5 269,-147.5"/>
<text text-anchor="start" x="277" y="-165.5" font-family="Helvetica,sans-Serif" font-size="10.00">mom_ice_shelf::calc</text>
<text text-anchor="middle" x="313" y="-154.5" font-family="Helvetica,sans-Serif" font-size="10.00">_shelf_visc_bilinear</text>
</a>
</g>
</g>
<!-- Node244&#45;&gt;Node253 -->
<g id="edge11" class="edge"><title>Node244&#45;&gt;Node253</title>
<path fill="none" stroke="midnightblue" d="M187.958,-284.388C200.311,-262.051 225.944,-219.914 257,-192.5 260.926,-189.035 265.32,-185.812 269.867,-182.863"/>
<polygon fill="midnightblue" stroke="midnightblue" points="271.954,-185.692 278.719,-177.538 268.346,-179.694 271.954,-185.692"/>
</g>
<!-- Node254 -->
<g id="node12" class="node"><title>Node254</title>
<g id="a_node12"><a xlink:href="../../df/da2/namespacemom__ice__shelf.html#a69286817781f164a0af096b050e3ccc4" target="_top" xlink:title="mom_ice_shelf::calc\l_shelf_visc_triangular">
<polygon fill="white" stroke="black" points="266.5,-98.5 266.5,-128.5 359.5,-128.5 359.5,-98.5 266.5,-98.5"/>
<text text-anchor="start" x="274.5" y="-116.5" font-family="Helvetica,sans-Serif" font-size="10.00">mom_ice_shelf::calc</text>
<text text-anchor="middle" x="313" y="-105.5" font-family="Helvetica,sans-Serif" font-size="10.00">_shelf_visc_triangular</text>
</a>
</g>
</g>
<!-- Node244&#45;&gt;Node254 -->
<g id="edge12" class="edge"><title>Node244&#45;&gt;Node254</title>
<path fill="none" stroke="midnightblue" d="M183.561,-284.121C191.54,-252.807 213.643,-181.021 257,-138.5 258.46,-137.068 260.017,-135.709 261.648,-134.42"/>
<polygon fill="midnightblue" stroke="midnightblue" points="263.992,-137.059 270.304,-128.549 260.063,-131.266 263.992,-137.059"/>
</g>
<!-- Node255 -->
<g id="node13" class="node"><title>Node255</title>
<g id="a_node13"><a xlink:href="../../df/da2/namespacemom__ice__shelf.html#a08bef308dd58f20b81330c5706f71e1f" target="_top" xlink:title="mom_ice_shelf::cg_action\l_bilinear">
<polygon fill="white" stroke="black" points="408,-355.5 408,-385.5 516,-385.5 516,-355.5 408,-355.5"/>
<text text-anchor="start" x="416" y="-373.5" font-family="Helvetica,sans-Serif" font-size="10.00">mom_ice_shelf::cg_action</text>
<text text-anchor="middle" x="462" y="-362.5" font-family="Helvetica,sans-Serif" font-size="10.00">_bilinear</text>
</a>
</g>
</g>
<!-- Node244&#45;&gt;Node255 -->
<g id="edge13" class="edge"><title>Node244&#45;&gt;Node255</title>
<path fill="none" stroke="midnightblue" d="M203.329,-314.645C218.13,-323.551 238.009,-334.256 257,-340.5 302.771,-355.549 356.803,-363.066 397.757,-366.812"/>
<polygon fill="midnightblue" stroke="midnightblue" points="397.611,-370.312 407.875,-367.685 398.213,-363.338 397.611,-370.312"/>
</g>
<!-- Node256 -->
<g id="node14" class="node"><title>Node256</title>
<g id="a_node14"><a xlink:href="../../df/da2/namespacemom__ice__shelf.html#a0ad3713e3c3ee71d987d6cd82c45181e" target="_top" xlink:title="mom_ice_shelf::cg_action\l_triangular">
<polygon fill="white" stroke="black" points="408,-306.5 408,-336.5 516,-336.5 516,-306.5 408,-306.5"/>
<text text-anchor="start" x="416" y="-324.5" font-family="Helvetica,sans-Serif" font-size="10.00">mom_ice_shelf::cg_action</text>
<text text-anchor="middle" x="462" y="-313.5" font-family="Helvetica,sans-Serif" font-size="10.00">_triangular</text>
</a>
</g>
</g>
<!-- Node244&#45;&gt;Node256 -->
<g id="edge15" class="edge"><title>Node244&#45;&gt;Node256</title>
<path fill="none" stroke="midnightblue" d="M218.195,-314.514C230.397,-318.599 244.09,-322.457 257,-324.5 303.765,-331.902 357.313,-330.756 397.81,-327.97"/>
<polygon fill="midnightblue" stroke="midnightblue" points="398.097,-331.459 407.812,-327.231 397.581,-324.478 398.097,-331.459"/>
</g>
<!-- Node257 -->
<g id="node15" class="node"><title>Node257</title>
<g id="a_node15"><a xlink:href="../../df/da2/namespacemom__ice__shelf.html#a95d21b019a635ad3a8ef060d765362e1" target="_top" xlink:title="mom_ice_shelf::ice\l_shelf_solve_inner">
<polygon fill="white" stroke="black" points="271,-448.5 271,-478.5 355,-478.5 355,-448.5 271,-448.5"/>
<text text-anchor="start" x="279" y="-466.5" font-family="Helvetica,sans-Serif" font-size="10.00">mom_ice_shelf::ice</text>
<text text-anchor="middle" x="313" y="-455.5" font-family="Helvetica,sans-Serif" font-size="10.00">_shelf_solve_inner</text>
</a>
</g>
</g>
<!-- Node244&#45;&gt;Node257 -->
<g id="edge16" class="edge"><title>Node244&#45;&gt;Node257</title>
<path fill="none" stroke="midnightblue" d="M185.448,-314.52C195.793,-341.308 220.554,-397.855 257,-433.5 260.509,-436.932 264.49,-440.086 268.667,-442.954"/>
<polygon fill="midnightblue" stroke="midnightblue" points="267.095,-446.099 277.429,-448.435 270.807,-440.164 267.095,-446.099"/>
</g>
<!-- Node261 -->
<g id="node19" class="node"><title>Node261</title>
<g id="a_node19"><a xlink:href="../../df/da2/namespacemom__ice__shelf.html#a8fc399c376152f2d639b506ff8a7ee24" target="_top" xlink:title="mom_ice_shelf::interpolate\l_h_to_b">
<polygon fill="white" stroke="black" points="257,-49.5 257,-79.5 369,-79.5 369,-49.5 257,-49.5"/>
<text text-anchor="start" x="265" y="-67.5" font-family="Helvetica,sans-Serif" font-size="10.00">mom_ice_shelf::interpolate</text>
<text text-anchor="middle" x="313" y="-56.5" font-family="Helvetica,sans-Serif" font-size="10.00">_h_to_b</text>
</a>
</g>
</g>
<!-- Node244&#45;&gt;Node261 -->
<g id="edge25" class="edge"><title>Node244&#45;&gt;Node261</title>
<path fill="none" stroke="midnightblue" d="M181.538,-284.492C186.137,-246.932 202.998,-147.723 257,-89.5 258.337,-88.0581 259.774,-86.6933 261.288,-85.402"/>
<polygon fill="midnightblue" stroke="midnightblue" points="263.344,-88.2341 269.403,-79.5422 259.246,-82.5591 263.344,-88.2341"/>
</g>
<!-- Node262 -->
<g id="node20" class="node"><title>Node262</title>
<g id="a_node20"><a xlink:href="../../d0/de6/namespacemom__error__handler.html#ad5f00a53059c72fe2332d1436c80ca71" target="_top" xlink:title="mom_error_handler::\lis_root_pe">
<polygon fill="white" stroke="black" points="266.5,-0.5 266.5,-30.5 359.5,-30.5 359.5,-0.5 266.5,-0.5"/>
<text text-anchor="start" x="274.5" y="-18.5" font-family="Helvetica,sans-Serif" font-size="10.00">mom_error_handler::</text>
<text text-anchor="middle" x="313" y="-7.5" font-family="Helvetica,sans-Serif" font-size="10.00">is_root_pe</text>
</a>
</g>
</g>
<!-- Node244&#45;&gt;Node262 -->
<g id="edge26" class="edge"><title>Node244&#45;&gt;Node262</title>
<path fill="none" stroke="midnightblue" d="M180.31,-284.304C181.983,-240.877 192.451,-114.607 257,-40.5 258.16,-39.1678 259.406,-37.9027 260.721,-36.7016"/>
<polygon fill="midnightblue" stroke="midnightblue" points="263.043,-39.3334 268.895,-30.5012 258.812,-33.7564 263.043,-39.3334"/>
</g>
<!-- Node245&#45;&gt;Node246 -->
<g id="edge3" class="edge"><title>Node245&#45;&gt;Node246</title>
<path fill="none" stroke="midnightblue" d="M497.49,-434.543C504.634,-437.758 512.088,-441.186 519,-444.5 537.603,-453.419 558.011,-463.823 575.002,-472.66"/>
<polygon fill="midnightblue" stroke="midnightblue" points="573.572,-475.862 584.056,-477.389 576.813,-469.657 573.572,-475.862"/>
</g>
<!-- Node248 -->
<g id="node6" class="node"><title>Node248</title>
<g id="a_node6"><a xlink:href="../../df/da2/namespacemom__ice__shelf.html#a925d19b978b5368c3b0d5cae3b542bfe" target="_top" xlink:title="mom_ice_shelf::cg_action\l_subgrid_basal_bilinear">
<polygon fill="white" stroke="black" points="559.5,-379.5 559.5,-409.5 667.5,-409.5 667.5,-379.5 559.5,-379.5"/>
<text text-anchor="start" x="567.5" y="-397.5" font-family="Helvetica,sans-Serif" font-size="10.00">mom_ice_shelf::cg_action</text>
<text text-anchor="middle" x="613.5" y="-386.5" font-family="Helvetica,sans-Serif" font-size="10.00">_subgrid_basal_bilinear</text>
</a>
</g>
</g>
<!-- Node245&#45;&gt;Node248 -->
<g id="edge5" class="edge"><title>Node245&#45;&gt;Node248</title>
<path fill="none" stroke="midnightblue" d="M518.244,-410.262C528.455,-408.554 539.188,-406.759 549.607,-405.017"/>
<polygon fill="midnightblue" stroke="midnightblue" points="550.186,-408.469 559.471,-403.368 549.031,-401.565 550.186,-408.469"/>
</g>
<!-- Node247 -->
<g id="node5" class="node"><title>Node247</title>
<g id="a_node5"><a xlink:href="../../df/da2/namespacemom__ice__shelf.html#a43bcb4adfaabc54cd57ad8d96b71c224" target="_top" xlink:title="mom_ice_shelf::quad_area">
<polygon fill="white" stroke="black" points="708,-483 708,-502 821,-502 821,-483 708,-483"/>
<text text-anchor="middle" x="764.5" y="-490" font-family="Helvetica,sans-Serif" font-size="10.00">mom_ice_shelf::quad_area</text>
</a>
</g>
</g>
<!-- Node246&#45;&gt;Node247 -->
<g id="edge4" class="edge"><title>Node246&#45;&gt;Node247</title>
<path fill="none" stroke="midnightblue" d="M663.701,-492.5C674.539,-492.5 686.188,-492.5 697.567,-492.5"/>
<polygon fill="midnightblue" stroke="midnightblue" points="697.91,-496 707.909,-492.5 697.909,-489 697.91,-496"/>
</g>
<!-- Node251&#45;&gt;Node252 -->
<g id="edge10" class="edge"><title>Node251&#45;&gt;Node252</title>
<path fill="none" stroke="midnightblue" d="M358.504,-243.84C369.925,-242.13 382.459,-240.254 394.722,-238.419"/>
<polygon fill="midnightblue" stroke="midnightblue" points="395.557,-241.833 404.928,-236.892 394.52,-234.91 395.557,-241.833"/>
</g>
<!-- Node255&#45;&gt;Node248 -->
<g id="edge14" class="edge"><title>Node255&#45;&gt;Node248</title>
<path fill="none" stroke="midnightblue" d="M516.129,-379.029C526.86,-380.752 538.241,-382.579 549.279,-384.351"/>
<polygon fill="midnightblue" stroke="midnightblue" points="548.862,-387.829 559.29,-385.958 549.972,-380.917 548.862,-387.829"/>
</g>
<!-- Node257&#45;&gt;Node245 -->
<g id="edge17" class="edge"><title>Node257&#45;&gt;Node245</title>
<path fill="none" stroke="midnightblue" d="M355.339,-451.126C369.48,-446.894 385.6,-442.069 400.915,-437.485"/>
<polygon fill="midnightblue" stroke="midnightblue" points="402.258,-440.736 410.834,-434.516 400.25,-434.03 402.258,-440.736"/>
</g>
<!-- Node257&#45;&gt;Node249 -->
<g id="edge18" class="edge"><title>Node257&#45;&gt;Node249</title>
<path fill="none" stroke="midnightblue" d="M328.614,-478.777C345.691,-495.979 375.396,-523.944 405,-542.5 407.437,-544.027 409.987,-545.501 412.6,-546.915"/>
<polygon fill="midnightblue" stroke="midnightblue" points="411.146,-550.101 421.65,-551.485 414.301,-543.853 411.146,-550.101"/>
</g>
<!-- Node257&#45;&gt;Node255 -->
<g id="edge19" class="edge"><title>Node257&#45;&gt;Node255</title>
<path fill="none" stroke="midnightblue" d="M331.646,-448.447C349.402,-433.761 377.957,-411.375 405,-395.5 408.171,-393.639 411.505,-391.825 414.901,-390.079"/>
<polygon fill="midnightblue" stroke="midnightblue" points="416.528,-393.179 423.964,-385.633 413.445,-386.895 416.528,-393.179"/>
</g>
<!-- Node257&#45;&gt;Node256 -->
<g id="edge20" class="edge"><title>Node257&#45;&gt;Node256</title>
<path fill="none" stroke="midnightblue" d="M322.47,-448.27C336.694,-423.892 367.532,-375.869 405,-346.5 407.09,-344.862 409.304,-343.306 411.598,-341.831"/>
<polygon fill="midnightblue" stroke="midnightblue" points="413.841,-344.578 420.751,-336.547 410.341,-338.516 413.841,-344.578"/>
</g>
<!-- Node258 -->
<g id="node16" class="node"><title>Node258</title>
<g id="a_node16"><a xlink:href="../../df/da2/namespacemom__ice__shelf.html#a0fa0e5e0225816e5e5e87994371f11f1" target="_top" xlink:title="mom_ice_shelf::matrix\l_diagonal_bilinear">
<polygon fill="white" stroke="black" points="414,-502.5 414,-532.5 510,-532.5 510,-502.5 414,-502.5"/>
<text text-anchor="start" x="422" y="-520.5" font-family="Helvetica,sans-Serif" font-size="10.00">mom_ice_shelf::matrix</text>
<text text-anchor="middle" x="462" y="-509.5" font-family="Helvetica,sans-Serif" font-size="10.00">_diagonal_bilinear</text>
</a>
</g>
</g>
<!-- Node257&#45;&gt;Node258 -->
<g id="edge21" class="edge"><title>Node257&#45;&gt;Node258</title>
<path fill="none" stroke="midnightblue" d="M354.948,-478.542C372.158,-484.864 392.353,-492.283 410.476,-498.94"/>
<polygon fill="midnightblue" stroke="midnightblue" points="409.424,-502.282 420.017,-502.445 411.837,-495.712 409.424,-502.282"/>
</g>
<!-- Node260 -->
<g id="node18" class="node"><title>Node260</title>
<g id="a_node18"><a xlink:href="../../df/da2/namespacemom__ice__shelf.html#abc77d7c18a2919c9308c39aa26f916bf" target="_top" xlink:title="mom_ice_shelf::matrix\l_diagonal_triangle">
<polygon fill="white" stroke="black" points="414,-453.5 414,-483.5 510,-483.5 510,-453.5 414,-453.5"/>
<text text-anchor="start" x="422" y="-471.5" font-family="Helvetica,sans-Serif" font-size="10.00">mom_ice_shelf::matrix</text>
<text text-anchor="middle" x="462" y="-460.5" font-family="Helvetica,sans-Serif" font-size="10.00">_diagonal_triangle</text>
</a>
</g>
</g>
<!-- Node257&#45;&gt;Node260 -->
<g id="edge24" class="edge"><title>Node257&#45;&gt;Node260</title>
<path fill="none" stroke="midnightblue" d="M355.339,-464.906C370.246,-465.413 387.352,-465.995 403.397,-466.541"/>
<polygon fill="midnightblue" stroke="midnightblue" points="403.64,-470.051 413.754,-466.893 403.878,-463.055 403.64,-470.051"/>
</g>
<!-- Node258&#45;&gt;Node246 -->
<g id="edge22" class="edge"><title>Node258&#45;&gt;Node246</title>
<path fill="none" stroke="midnightblue" d="M510.303,-509.59C523.932,-507.311 538.976,-504.795 553.233,-502.411"/>
<polygon fill="midnightblue" stroke="midnightblue" points="554.159,-505.805 563.445,-500.703 553.004,-498.901 554.159,-505.805"/>
</g>
<!-- Node259 -->
<g id="node17" class="node"><title>Node259</title>
<g id="a_node17"><a xlink:href="../../df/da2/namespacemom__ice__shelf.html#af109d5577049ff4ded3b07d5ab25a771" target="_top" xlink:title="mom_ice_shelf::cg_diagonal\l_subgrid_basal_bilinear">
<polygon fill="white" stroke="black" points="555,-526.5 555,-556.5 672,-556.5 672,-526.5 555,-526.5"/>
<text text-anchor="start" x="563" y="-544.5" font-family="Helvetica,sans-Serif" font-size="10.00">mom_ice_shelf::cg_diagonal</text>
<text text-anchor="middle" x="613.5" y="-533.5" font-family="Helvetica,sans-Serif" font-size="10.00">_subgrid_basal_bilinear</text>
</a>
</g>
</g>
<!-- Node258&#45;&gt;Node259 -->
<g id="edge23" class="edge"><title>Node258&#45;&gt;Node259</title>
<path fill="none" stroke="midnightblue" d="M510.303,-525.094C521.22,-526.846 533.044,-528.744 544.644,-530.607"/>
<polygon fill="midnightblue" stroke="midnightblue" points="544.324,-534.1 554.753,-532.23 545.434,-527.189 544.324,-534.1"/>
</g>
</g>
</svg>
