<?xml version="1.0" encoding="UTF-8" standalone="no"?>
<!DOCTYPE svg PUBLIC "-//W3C//DTD SVG 1.1//EN"
 "http://www.w3.org/Graphics/SVG/1.1/DTD/svg11.dtd">
<!-- Generated by graphviz version 2.38.0 (20140413.2041)
 -->
<!-- Title: mom_ice_shelf::ice_shelf_advect_temp_x Pages: 1 -->
<svg width="233pt" height="39pt"
 viewBox="0.00 0.00 233.00 39.00" xmlns="http://www.w3.org/2000/svg" xmlns:xlink="http://www.w3.org/1999/xlink">
<g id="graph0" class="graph" transform="scale(1 1) rotate(0) translate(4 35)">
<title>mom_ice_shelf::ice_shelf_advect_temp_x</title>
<polygon fill="white" stroke="none" points="-4,4 -4,-35 229,-35 229,4 -4,4"/>
<!-- Node142 -->
<g id="node1" class="node"><title>Node142</title>
<polygon fill="#bfbfbf" stroke="black" points="0,-0.5 0,-30.5 96,-30.5 96,-0.5 0,-0.5"/>
<text text-anchor="start" x="8" y="-18.5" font-family="Helvetica,sans-Serif" font-size="10.00">mom_ice_shelf::ice</text>
<text text-anchor="middle" x="48" y="-7.5" font-family="Helvetica,sans-Serif" font-size="10.00">_shelf_advect_temp_x</text>
</g>
<!-- Node143 -->
<g id="node2" class="node"><title>Node143</title>
<g id="a_node2"><a xlink:href="../../df/da2/namespacemom__ice__shelf.html#ac30ce29228457ec8a19679f25960ef21" target="_top" xlink:title="mom_ice_shelf::slope\l_limiter">
<polygon fill="white" stroke="black" points="132,-0.5 132,-30.5 225,-30.5 225,-0.5 132,-0.5"/>
<text text-anchor="start" x="140" y="-18.5" font-family="Helvetica,sans-Serif" font-size="10.00">mom_ice_shelf::slope</text>
<text text-anchor="middle" x="178.5" y="-7.5" font-family="Helvetica,sans-Serif" font-size="10.00">_limiter</text>
</a>
</g>
</g>
<!-- Node142&#45;&gt;Node143 -->
<g id="edge1" class="edge"><title>Node142&#45;&gt;Node143</title>
<path fill="none" stroke="midnightblue" d="M96.119,-15.5C104.369,-15.5 113.025,-15.5 121.487,-15.5"/>
<polygon fill="midnightblue" stroke="midnightblue" points="121.673,-19.0001 131.673,-15.5 121.673,-12.0001 121.673,-19.0001"/>
</g>
</g>
</svg>
