<?xml version="1.0" encoding="UTF-8" standalone="no"?>
<!DOCTYPE svg PUBLIC "-//W3C//DTD SVG 1.1//EN"
 "http://www.w3.org/Graphics/SVG/1.1/DTD/svg11.dtd">
<!-- Generated by graphviz version 2.38.0 (20140413.2041)
 -->
<!-- Title: mom_ice_shelf::ice_shelf_solve_outer Pages: 1 -->
<svg width="321pt" height="186pt"
 viewBox="0.00 0.00 321.00 186.00" xmlns="http://www.w3.org/2000/svg" xmlns:xlink="http://www.w3.org/1999/xlink">
<g id="graph0" class="graph" transform="scale(1 1) rotate(0) translate(4 182)">
<title>mom_ice_shelf::ice_shelf_solve_outer</title>
<polygon fill="white" stroke="none" points="-4,4 -4,-182 317,-182 317,4 -4,4"/>
<!-- Node227 -->
<g id="node1" class="node"><title>Node227</title>
<polygon fill="#bfbfbf" stroke="black" points="0,-73.5 0,-103.5 84,-103.5 84,-73.5 0,-73.5"/>
<text text-anchor="start" x="8" y="-91.5" font-family="Helvetica,sans-Serif" font-size="10.00">mom_ice_shelf::ice</text>
<text text-anchor="middle" x="42" y="-80.5" font-family="Helvetica,sans-Serif" font-size="10.00">_shelf_solve_outer</text>
</g>
<!-- Node228 -->
<g id="node2" class="node"><title>Node228</title>
<g id="a_node2"><a xlink:href="../../df/da2/namespacemom__ice__shelf.html#ae7611e3515ecf0eae0c5d6d17330fd6f" target="_top" xlink:title="mom_ice_shelf::initialize\l_diagnostic_fields">
<polygon fill="white" stroke="black" points="120,-147.5 120,-177.5 221,-177.5 221,-147.5 120,-147.5"/>
<text text-anchor="start" x="128" y="-165.5" font-family="Helvetica,sans-Serif" font-size="10.00">mom_ice_shelf::initialize</text>
<text text-anchor="middle" x="170.5" y="-154.5" font-family="Helvetica,sans-Serif" font-size="10.00">_diagnostic_fields</text>
</a>
</g>
</g>
<!-- Node227&#45;&gt;Node228 -->
<g id="edge1" class="edge"><title>Node227&#45;&gt;Node228</title>
<path fill="none" stroke="midnightblue" d="M73.0802,-109.274C87.0903,-118.626 104.135,-129.549 120,-138.5 125.407,-141.55 131.259,-144.599 136.982,-147.45"/>
<polygon fill="midnightblue" stroke="midnightblue" points="75.0359,-106.372 64.7868,-103.687 71.1246,-112.177 75.0359,-106.372"/>
</g>
<!-- Node229 -->
<g id="node3" class="node"><title>Node229</title>
<g id="a_node3"><a xlink:href="../../df/da2/namespacemom__ice__shelf.html#ae315e8464ef8a20062e3bccb61886755" target="_top" xlink:title="mom_ice_shelf::initialize\l_ice_shelf">
<polygon fill="white" stroke="black" points="120,-49.5 120,-79.5 221,-79.5 221,-49.5 120,-49.5"/>
<text text-anchor="start" x="128" y="-67.5" font-family="Helvetica,sans-Serif" font-size="10.00">mom_ice_shelf::initialize</text>
<text text-anchor="middle" x="170.5" y="-56.5" font-family="Helvetica,sans-Serif" font-size="10.00">_ice_shelf</text>
</a>
</g>
</g>
<!-- Node227&#45;&gt;Node229 -->
<g id="edge2" class="edge"><title>Node227&#45;&gt;Node229</title>
<path fill="none" stroke="midnightblue" d="M93.9103,-78.8411C102.448,-77.2214 111.297,-75.5425 119.803,-73.9287"/>
<polygon fill="midnightblue" stroke="midnightblue" points="93.2432,-75.4052 84.0709,-80.7079 94.5481,-82.2825 93.2432,-75.4052"/>
</g>
<!-- Node232 -->
<g id="node6" class="node"><title>Node232</title>
<g id="a_node6"><a xlink:href="../../df/da2/namespacemom__ice__shelf.html#a3b0e0cc9f36c5197236cc05867b780df" target="_top" xlink:title="mom_ice_shelf::shelf\l_calc_flux">
<polygon fill="white" stroke="black" points="125,-0.5 125,-30.5 216,-30.5 216,-0.5 125,-0.5"/>
<text text-anchor="start" x="133" y="-18.5" font-family="Helvetica,sans-Serif" font-size="10.00">mom_ice_shelf::shelf</text>
<text text-anchor="middle" x="170.5" y="-7.5" font-family="Helvetica,sans-Serif" font-size="10.00">_calc_flux</text>
</a>
</g>
</g>
<!-- Node227&#45;&gt;Node232 -->
<g id="edge5" class="edge"><title>Node227&#45;&gt;Node232</title>
<path fill="none" stroke="midnightblue" d="M74.5547,-67.9388C88.3379,-59.1909 104.797,-49.0551 120,-40.5 125.957,-37.1478 132.418,-33.732 138.644,-30.5458"/>
<polygon fill="midnightblue" stroke="midnightblue" points="72.4639,-65.1213 65.9237,-73.4565 76.2343,-71.0191 72.4639,-65.1213"/>
</g>
<!-- Node233 -->
<g id="node7" class="node"><title>Node233</title>
<g id="a_node7"><a xlink:href="../../df/da2/namespacemom__ice__shelf.html#ac084bdc5be4e708e3263488e9574a3c9" target="_top" xlink:title="mom_ice_shelf::solo\l_time_step">
<polygon fill="white" stroke="black" points="126,-98.5 126,-128.5 215,-128.5 215,-98.5 126,-98.5"/>
<text text-anchor="start" x="134" y="-116.5" font-family="Helvetica,sans-Serif" font-size="10.00">mom_ice_shelf::solo</text>
<text text-anchor="middle" x="170.5" y="-105.5" font-family="Helvetica,sans-Serif" font-size="10.00">_time_step</text>
</a>
</g>
</g>
<!-- Node227&#45;&gt;Node233 -->
<g id="edge7" class="edge"><title>Node227&#45;&gt;Node233</title>
<path fill="none" stroke="midnightblue" d="M93.9385,-98.5669C104.422,-100.639 115.375,-102.803 125.584,-104.821"/>
<polygon fill="midnightblue" stroke="midnightblue" points="94.5598,-95.1221 84.0709,-96.6168 93.2026,-101.989 94.5598,-95.1221"/>
</g>
<!-- Node230 -->
<g id="node4" class="node"><title>Node230</title>
<g id="a_node4"><a xlink:href="../../d5/d6d/ice__shelf__driver_8F90.html#aec5bef92f0dad343f545cd8d62e378d8" target="_top" xlink:title="shelf_main">
<polygon fill="white" stroke="black" points="257.5,-76 257.5,-95 312.5,-95 312.5,-76 257.5,-76"/>
<text text-anchor="middle" x="285" y="-83" font-family="Helvetica,sans-Serif" font-size="10.00">shelf_main</text>
</a>
</g>
</g>
<!-- Node229&#45;&gt;Node230 -->
<g id="edge3" class="edge"><title>Node229&#45;&gt;Node230</title>
<path fill="none" stroke="midnightblue" d="M231.161,-75.6368C240.367,-77.3551 249.45,-79.0506 257.419,-80.5383"/>
<polygon fill="midnightblue" stroke="midnightblue" points="231.644,-72.1665 221.172,-73.772 230.36,-79.0477 231.644,-72.1665"/>
</g>
<!-- Node231 -->
<g id="node5" class="node"><title>Node231</title>
<g id="a_node5"><a xlink:href="../../de/dbc/MOM__driver_8F90.html#a08fffeb2d8e8acbf9ed4609be6d258c6" target="_top" xlink:title="mom_main">
<polygon fill="white" stroke="black" points="257,-33 257,-52 313,-52 313,-33 257,-33"/>
<text text-anchor="middle" x="285" y="-40" font-family="Helvetica,sans-Serif" font-size="10.00">mom_main</text>
</a>
</g>
</g>
<!-- Node229&#45;&gt;Node231 -->
<g id="edge4" class="edge"><title>Node229&#45;&gt;Node231</title>
<path fill="none" stroke="midnightblue" d="M231.261,-52.8134C240.196,-51.0662 249.012,-49.3422 256.803,-47.8186"/>
<polygon fill="midnightblue" stroke="midnightblue" points="230.314,-49.4322 221.172,-54.7864 231.657,-56.3021 230.314,-49.4322"/>
</g>
<!-- Node232&#45;&gt;Node231 -->
<g id="edge6" class="edge"><title>Node232&#45;&gt;Node231</title>
<path fill="none" stroke="midnightblue" d="M226.049,-28.5918C236.754,-31.1609 247.54,-33.7497 256.857,-35.9856"/>
<polygon fill="midnightblue" stroke="midnightblue" points="226.827,-25.1791 216.286,-26.2487 225.193,-31.9859 226.827,-25.1791"/>
</g>
<!-- Node233&#45;&gt;Node230 -->
<g id="edge8" class="edge"><title>Node233&#45;&gt;Node230</title>
<path fill="none" stroke="midnightblue" d="M225.089,-100.162C236.3,-97.3721 247.652,-94.5466 257.359,-92.1306"/>
<polygon fill="midnightblue" stroke="midnightblue" points="224.176,-96.7826 215.318,-102.594 225.867,-103.575 224.176,-96.7826"/>
</g>
</g>
</svg>
