<?xml version="1.0" encoding="UTF-8" standalone="no"?>
<!DOCTYPE svg PUBLIC "-//W3C//DTD SVG 1.1//EN"
 "http://www.w3.org/Graphics/SVG/1.1/DTD/svg11.dtd">
<!-- Generated by graphviz version 2.38.0 (20140413.2041)
 -->
<!-- Title: mom_ice_shelf::apply_boundary_values_bilinear Pages: 1 -->
<svg width="413pt" height="88pt"
 viewBox="0.00 0.00 413.00 88.00" xmlns="http://www.w3.org/2000/svg" xmlns:xlink="http://www.w3.org/1999/xlink">
<g id="graph0" class="graph" transform="scale(1 1) rotate(0) translate(4 84)">
<title>mom_ice_shelf::apply_boundary_values_bilinear</title>
<polygon fill="white" stroke="none" points="-4,4 -4,-84 409,-84 409,4 -4,4"/>
<!-- Node4 -->
<g id="node1" class="node"><title>Node4</title>
<polygon fill="#bfbfbf" stroke="black" points="0,-24.5 0,-54.5 112,-54.5 112,-24.5 0,-24.5"/>
<text text-anchor="start" x="8" y="-42.5" font-family="Helvetica,sans-Serif" font-size="10.00">mom_ice_shelf::apply</text>
<text text-anchor="middle" x="56" y="-31.5" font-family="Helvetica,sans-Serif" font-size="10.00">_boundary_values_bilinear</text>
</g>
<!-- Node5 -->
<g id="node2" class="node"><title>Node5</title>
<g id="a_node2"><a xlink:href="../../df/da2/namespacemom__ice__shelf.html#a9f77faf4c64078c8bce0546bb024f34e" target="_top" xlink:title="mom_ice_shelf::bilinear\l_shape_functions">
<polygon fill="white" stroke="black" points="152,-49.5 152,-79.5 252,-79.5 252,-49.5 152,-49.5"/>
<text text-anchor="start" x="160" y="-67.5" font-family="Helvetica,sans-Serif" font-size="10.00">mom_ice_shelf::bilinear</text>
<text text-anchor="middle" x="202" y="-56.5" font-family="Helvetica,sans-Serif" font-size="10.00">_shape_functions</text>
</a>
</g>
</g>
<!-- Node4&#45;&gt;Node5 -->
<g id="edge1" class="edge"><title>Node4&#45;&gt;Node5</title>
<path fill="none" stroke="midnightblue" d="M112.262,-49.0942C121.916,-50.7702 131.995,-52.52 141.752,-54.2138"/>
<polygon fill="midnightblue" stroke="midnightblue" points="141.319,-57.6911 151.771,-55.9532 142.517,-50.7942 141.319,-57.6911"/>
</g>
<!-- Node7 -->
<g id="node4" class="node"><title>Node7</title>
<g id="a_node4"><a xlink:href="../../df/da2/namespacemom__ice__shelf.html#a925d19b978b5368c3b0d5cae3b542bfe" target="_top" xlink:title="mom_ice_shelf::cg_action\l_subgrid_basal_bilinear">
<polygon fill="white" stroke="black" points="148,-0.5 148,-30.5 256,-30.5 256,-0.5 148,-0.5"/>
<text text-anchor="start" x="156" y="-18.5" font-family="Helvetica,sans-Serif" font-size="10.00">mom_ice_shelf::cg_action</text>
<text text-anchor="middle" x="202" y="-7.5" font-family="Helvetica,sans-Serif" font-size="10.00">_subgrid_basal_bilinear</text>
</a>
</g>
</g>
<!-- Node4&#45;&gt;Node7 -->
<g id="edge3" class="edge"><title>Node4&#45;&gt;Node7</title>
<path fill="none" stroke="midnightblue" d="M112.262,-30.2896C120.495,-28.9175 129.036,-27.4939 137.424,-26.0961"/>
<polygon fill="midnightblue" stroke="midnightblue" points="138.257,-29.5055 147.546,-24.409 137.107,-22.6007 138.257,-29.5055"/>
</g>
<!-- Node6 -->
<g id="node3" class="node"><title>Node6</title>
<g id="a_node3"><a xlink:href="../../df/da2/namespacemom__ice__shelf.html#a43bcb4adfaabc54cd57ad8d96b71c224" target="_top" xlink:title="mom_ice_shelf::quad_area">
<polygon fill="white" stroke="black" points="292,-55 292,-74 405,-74 405,-55 292,-55"/>
<text text-anchor="middle" x="348.5" y="-62" font-family="Helvetica,sans-Serif" font-size="10.00">mom_ice_shelf::quad_area</text>
</a>
</g>
</g>
<!-- Node5&#45;&gt;Node6 -->
<g id="edge2" class="edge"><title>Node5&#45;&gt;Node6</title>
<path fill="none" stroke="midnightblue" d="M252.325,-64.5C261.791,-64.5 271.843,-64.5 281.731,-64.5"/>
<polygon fill="midnightblue" stroke="midnightblue" points="281.946,-68.0001 291.946,-64.5 281.946,-61.0001 281.946,-68.0001"/>
</g>
</g>
</svg>
