<?xml version="1.0" encoding="UTF-8" standalone="no"?>
<!DOCTYPE svg PUBLIC "-//W3C//DTD SVG 1.1//EN"
 "http://www.w3.org/Graphics/SVG/1.1/DTD/svg11.dtd">
<!-- Generated by graphviz version 2.38.0 (20140413.2041)
 -->
<!-- Title: mom_ice_shelf::ice_shelf_advect_thickness_y Pages: 1 -->
<svg width="457pt" height="88pt"
 viewBox="0.00 0.00 457.00 88.00" xmlns="http://www.w3.org/2000/svg" xmlns:xlink="http://www.w3.org/1999/xlink">
<g id="graph0" class="graph" transform="scale(1 1) rotate(0) translate(4 84)">
<title>mom_ice_shelf::ice_shelf_advect_thickness_y</title>
<polygon fill="white" stroke="none" points="-4,4 -4,-84 453,-84 453,4 -4,4"/>
<!-- Node164 -->
<g id="node1" class="node"><title>Node164</title>
<polygon fill="#bfbfbf" stroke="black" points="0,-24.5 0,-54.5 110,-54.5 110,-24.5 0,-24.5"/>
<text text-anchor="start" x="8" y="-42.5" font-family="Helvetica,sans-Serif" font-size="10.00">mom_ice_shelf::ice</text>
<text text-anchor="middle" x="55" y="-31.5" font-family="Helvetica,sans-Serif" font-size="10.00">_shelf_advect_thickness_y</text>
</g>
<!-- Node165 -->
<g id="node2" class="node"><title>Node165</title>
<g id="a_node2"><a xlink:href="../../df/da2/namespacemom__ice__shelf.html#a6a07543d5e828b759f18def33ca4feda" target="_top" xlink:title="mom_ice_shelf::ice\l_shelf_advect">
<polygon fill="white" stroke="black" points="146,-24.5 146,-54.5 230,-54.5 230,-24.5 146,-24.5"/>
<text text-anchor="start" x="154" y="-42.5" font-family="Helvetica,sans-Serif" font-size="10.00">mom_ice_shelf::ice</text>
<text text-anchor="middle" x="188" y="-31.5" font-family="Helvetica,sans-Serif" font-size="10.00">_shelf_advect</text>
</a>
</g>
</g>
<!-- Node164&#45;&gt;Node165 -->
<g id="edge1" class="edge"><title>Node164&#45;&gt;Node165</title>
<path fill="none" stroke="midnightblue" d="M120.237,-39.5C128.967,-39.5 137.727,-39.5 145.896,-39.5"/>
<polygon fill="midnightblue" stroke="midnightblue" points="120.039,-36.0001 110.039,-39.5 120.039,-43.0001 120.039,-36.0001"/>
</g>
<!-- Node166 -->
<g id="node3" class="node"><title>Node166</title>
<g id="a_node3"><a xlink:href="../../df/da2/namespacemom__ice__shelf.html#a3b0e0cc9f36c5197236cc05867b780df" target="_top" xlink:title="mom_ice_shelf::shelf\l_calc_flux">
<polygon fill="white" stroke="black" points="266,-49.5 266,-79.5 357,-79.5 357,-49.5 266,-49.5"/>
<text text-anchor="start" x="274" y="-67.5" font-family="Helvetica,sans-Serif" font-size="10.00">mom_ice_shelf::shelf</text>
<text text-anchor="middle" x="311.5" y="-56.5" font-family="Helvetica,sans-Serif" font-size="10.00">_calc_flux</text>
</a>
</g>
</g>
<!-- Node165&#45;&gt;Node166 -->
<g id="edge2" class="edge"><title>Node165&#45;&gt;Node166</title>
<path fill="none" stroke="midnightblue" d="M239.981,-49.99C248.508,-51.7445 257.299,-53.5532 265.657,-55.273"/>
<polygon fill="midnightblue" stroke="midnightblue" points="240.635,-46.5511 230.134,-47.9639 239.224,-53.4075 240.635,-46.5511"/>
</g>
<!-- Node168 -->
<g id="node5" class="node"><title>Node168</title>
<g id="a_node5"><a xlink:href="../../df/da2/namespacemom__ice__shelf.html#ac084bdc5be4e708e3263488e9574a3c9" target="_top" xlink:title="mom_ice_shelf::solo\l_time_step">
<polygon fill="white" stroke="black" points="267,-0.5 267,-30.5 356,-30.5 356,-0.5 267,-0.5"/>
<text text-anchor="start" x="275" y="-18.5" font-family="Helvetica,sans-Serif" font-size="10.00">mom_ice_shelf::solo</text>
<text text-anchor="middle" x="311.5" y="-7.5" font-family="Helvetica,sans-Serif" font-size="10.00">_time_step</text>
</a>
</g>
</g>
<!-- Node165&#45;&gt;Node168 -->
<g id="edge4" class="edge"><title>Node165&#45;&gt;Node168</title>
<path fill="none" stroke="midnightblue" d="M240.055,-29.4151C248.988,-27.6506 258.207,-25.8294 266.915,-24.1095"/>
<polygon fill="midnightblue" stroke="midnightblue" points="239.267,-26.0031 230.134,-31.3747 240.623,-32.8704 239.267,-26.0031"/>
</g>
<!-- Node167 -->
<g id="node4" class="node"><title>Node167</title>
<g id="a_node4"><a xlink:href="../../de/dbc/MOM__driver_8F90.html#a08fffeb2d8e8acbf9ed4609be6d258c6" target="_top" xlink:title="mom_main">
<polygon fill="white" stroke="black" points="393,-55 393,-74 449,-74 449,-55 393,-55"/>
<text text-anchor="middle" x="421" y="-62" font-family="Helvetica,sans-Serif" font-size="10.00">mom_main</text>
</a>
</g>
</g>
<!-- Node166&#45;&gt;Node167 -->
<g id="edge3" class="edge"><title>Node166&#45;&gt;Node167</title>
<path fill="none" stroke="midnightblue" d="M367.183,-64.5C376.098,-64.5 384.979,-64.5 392.844,-64.5"/>
<polygon fill="midnightblue" stroke="midnightblue" points="367.156,-61.0001 357.156,-64.5 367.156,-68.0001 367.156,-61.0001"/>
</g>
<!-- Node169 -->
<g id="node6" class="node"><title>Node169</title>
<g id="a_node6"><a xlink:href="../../d5/d6d/ice__shelf__driver_8F90.html#aec5bef92f0dad343f545cd8d62e378d8" target="_top" xlink:title="shelf_main">
<polygon fill="white" stroke="black" points="393.5,-6 393.5,-25 448.5,-25 448.5,-6 393.5,-6"/>
<text text-anchor="middle" x="421" y="-13" font-family="Helvetica,sans-Serif" font-size="10.00">shelf_main</text>
</a>
</g>
</g>
<!-- Node168&#45;&gt;Node169 -->
<g id="edge5" class="edge"><title>Node168&#45;&gt;Node169</title>
<path fill="none" stroke="midnightblue" d="M366.336,-15.5C375.703,-15.5 385.067,-15.5 393.289,-15.5"/>
<polygon fill="midnightblue" stroke="midnightblue" points="366.224,-12.0001 356.224,-15.5 366.224,-19.0001 366.224,-12.0001"/>
</g>
</g>
</svg>
