<?xml version="1.0" encoding="UTF-8" standalone="no"?>
<!DOCTYPE svg PUBLIC "-//W3C//DTD SVG 1.1//EN"
 "http://www.w3.org/Graphics/SVG/1.1/DTD/svg11.dtd">
<!-- Generated by graphviz version 2.38.0 (20140413.2041)
 -->
<!-- Title: mom_ice_shelf::bilinear_shape_functions_subgrid Pages: 1 -->
<svg width="467pt" height="186pt"
 viewBox="0.00 0.00 467.00 186.00" xmlns="http://www.w3.org/2000/svg" xmlns:xlink="http://www.w3.org/1999/xlink">
<g id="graph0" class="graph" transform="scale(1 1) rotate(0) translate(4 182)">
<title>mom_ice_shelf::bilinear_shape_functions_subgrid</title>
<polygon fill="white" stroke="none" points="-4,4 -4,-182 463,-182 463,4 -4,4"/>
<!-- Node41 -->
<g id="node1" class="node"><title>Node41</title>
<polygon fill="#bfbfbf" stroke="black" points="0,-73.5 0,-103.5 110,-103.5 110,-73.5 0,-73.5"/>
<text text-anchor="start" x="8" y="-91.5" font-family="Helvetica,sans-Serif" font-size="10.00">mom_ice_shelf::bilinear</text>
<text text-anchor="middle" x="55" y="-80.5" font-family="Helvetica,sans-Serif" font-size="10.00">_shape_functions_subgrid</text>
</g>
<!-- Node42 -->
<g id="node2" class="node"><title>Node42</title>
<g id="a_node2"><a xlink:href="../../df/da2/namespacemom__ice__shelf.html#a5d64b696412c0bfd8ded2e2eacaa917c" target="_top" xlink:title="mom_ice_shelf::ice\l_shelf_solve_outer">
<polygon fill="white" stroke="black" points="146,-73.5 146,-103.5 230,-103.5 230,-73.5 146,-73.5"/>
<text text-anchor="start" x="154" y="-91.5" font-family="Helvetica,sans-Serif" font-size="10.00">mom_ice_shelf::ice</text>
<text text-anchor="middle" x="188" y="-80.5" font-family="Helvetica,sans-Serif" font-size="10.00">_shelf_solve_outer</text>
</a>
</g>
</g>
<!-- Node41&#45;&gt;Node42 -->
<g id="edge1" class="edge"><title>Node41&#45;&gt;Node42</title>
<path fill="none" stroke="midnightblue" d="M120.237,-88.5C128.967,-88.5 137.727,-88.5 145.896,-88.5"/>
<polygon fill="midnightblue" stroke="midnightblue" points="120.039,-85.0001 110.039,-88.5 120.039,-92.0001 120.039,-85.0001"/>
</g>
<!-- Node43 -->
<g id="node3" class="node"><title>Node43</title>
<g id="a_node3"><a xlink:href="../../df/da2/namespacemom__ice__shelf.html#a3b0e0cc9f36c5197236cc05867b780df" target="_top" xlink:title="mom_ice_shelf::shelf\l_calc_flux">
<polygon fill="white" stroke="black" points="271,-147.5 271,-177.5 362,-177.5 362,-147.5 271,-147.5"/>
<text text-anchor="start" x="279" y="-165.5" font-family="Helvetica,sans-Serif" font-size="10.00">mom_ice_shelf::shelf</text>
<text text-anchor="middle" x="316.5" y="-154.5" font-family="Helvetica,sans-Serif" font-size="10.00">_calc_flux</text>
</a>
</g>
</g>
<!-- Node42&#45;&gt;Node43 -->
<g id="edge2" class="edge"><title>Node42&#45;&gt;Node43</title>
<path fill="none" stroke="midnightblue" d="M219.08,-109.274C233.09,-118.626 250.135,-129.549 266,-138.5 271.407,-141.55 277.259,-144.599 282.982,-147.45"/>
<polygon fill="midnightblue" stroke="midnightblue" points="221.036,-106.372 210.787,-103.687 217.125,-112.177 221.036,-106.372"/>
</g>
<!-- Node45 -->
<g id="node5" class="node"><title>Node45</title>
<g id="a_node5"><a xlink:href="../../df/da2/namespacemom__ice__shelf.html#ae315e8464ef8a20062e3bccb61886755" target="_top" xlink:title="mom_ice_shelf::initialize\l_ice_shelf">
<polygon fill="white" stroke="black" points="266,-98.5 266,-128.5 367,-128.5 367,-98.5 266,-98.5"/>
<text text-anchor="start" x="274" y="-116.5" font-family="Helvetica,sans-Serif" font-size="10.00">mom_ice_shelf::initialize</text>
<text text-anchor="middle" x="316.5" y="-105.5" font-family="Helvetica,sans-Serif" font-size="10.00">_ice_shelf</text>
</a>
</g>
</g>
<!-- Node42&#45;&gt;Node45 -->
<g id="edge4" class="edge"><title>Node42&#45;&gt;Node45</title>
<path fill="none" stroke="midnightblue" d="M239.91,-98.5613C248.448,-100.249 257.297,-101.997 265.803,-103.678"/>
<polygon fill="midnightblue" stroke="midnightblue" points="240.56,-95.1221 230.071,-96.6168 239.203,-101.989 240.56,-95.1221"/>
</g>
<!-- Node47 -->
<g id="node7" class="node"><title>Node47</title>
<g id="a_node7"><a xlink:href="../../df/da2/namespacemom__ice__shelf.html#ae7611e3515ecf0eae0c5d6d17330fd6f" target="_top" xlink:title="mom_ice_shelf::initialize\l_diagnostic_fields">
<polygon fill="white" stroke="black" points="266,-49.5 266,-79.5 367,-79.5 367,-49.5 266,-49.5"/>
<text text-anchor="start" x="274" y="-67.5" font-family="Helvetica,sans-Serif" font-size="10.00">mom_ice_shelf::initialize</text>
<text text-anchor="middle" x="316.5" y="-56.5" font-family="Helvetica,sans-Serif" font-size="10.00">_diagnostic_fields</text>
</a>
</g>
</g>
<!-- Node42&#45;&gt;Node47 -->
<g id="edge7" class="edge"><title>Node42&#45;&gt;Node47</title>
<path fill="none" stroke="midnightblue" d="M239.91,-78.8411C248.448,-77.2214 257.297,-75.5425 265.803,-73.9287"/>
<polygon fill="midnightblue" stroke="midnightblue" points="239.243,-75.4052 230.071,-80.7079 240.548,-82.2825 239.243,-75.4052"/>
</g>
<!-- Node48 -->
<g id="node8" class="node"><title>Node48</title>
<g id="a_node8"><a xlink:href="../../df/da2/namespacemom__ice__shelf.html#ac084bdc5be4e708e3263488e9574a3c9" target="_top" xlink:title="mom_ice_shelf::solo\l_time_step">
<polygon fill="white" stroke="black" points="272,-0.5 272,-30.5 361,-30.5 361,-0.5 272,-0.5"/>
<text text-anchor="start" x="280" y="-18.5" font-family="Helvetica,sans-Serif" font-size="10.00">mom_ice_shelf::solo</text>
<text text-anchor="middle" x="316.5" y="-7.5" font-family="Helvetica,sans-Serif" font-size="10.00">_time_step</text>
</a>
</g>
</g>
<!-- Node42&#45;&gt;Node48 -->
<g id="edge8" class="edge"><title>Node42&#45;&gt;Node48</title>
<path fill="none" stroke="midnightblue" d="M220.555,-67.9388C234.338,-59.1909 250.797,-49.0551 266,-40.5 271.957,-37.1478 278.418,-33.732 284.644,-30.5458"/>
<polygon fill="midnightblue" stroke="midnightblue" points="218.464,-65.1213 211.924,-73.4565 222.234,-71.0191 218.464,-65.1213"/>
</g>
<!-- Node44 -->
<g id="node4" class="node"><title>Node44</title>
<g id="a_node4"><a xlink:href="../../de/dbc/MOM__driver_8F90.html#a08fffeb2d8e8acbf9ed4609be6d258c6" target="_top" xlink:title="mom_main">
<polygon fill="white" stroke="black" points="403,-128 403,-147 459,-147 459,-128 403,-128"/>
<text text-anchor="middle" x="431" y="-135" font-family="Helvetica,sans-Serif" font-size="10.00">mom_main</text>
</a>
</g>
</g>
<!-- Node43&#45;&gt;Node44 -->
<g id="edge3" class="edge"><title>Node43&#45;&gt;Node44</title>
<path fill="none" stroke="midnightblue" d="M372.049,-150.378C382.754,-147.999 393.54,-145.602 402.857,-143.532"/>
<polygon fill="midnightblue" stroke="midnightblue" points="371.289,-146.961 362.286,-152.548 372.807,-153.795 371.289,-146.961"/>
</g>
<!-- Node45&#45;&gt;Node44 -->
<g id="edge6" class="edge"><title>Node45&#45;&gt;Node44</title>
<path fill="none" stroke="midnightblue" d="M376.973,-126.188C386.006,-128.115 394.928,-130.018 402.803,-131.698"/>
<polygon fill="midnightblue" stroke="midnightblue" points="377.682,-122.76 367.172,-124.097 376.221,-129.606 377.682,-122.76"/>
</g>
<!-- Node46 -->
<g id="node6" class="node"><title>Node46</title>
<g id="a_node6"><a xlink:href="../../d5/d6d/ice__shelf__driver_8F90.html#aec5bef92f0dad343f545cd8d62e378d8" target="_top" xlink:title="shelf_main">
<polygon fill="white" stroke="black" points="403.5,-60 403.5,-79 458.5,-79 458.5,-60 403.5,-60"/>
<text text-anchor="middle" x="431" y="-67" font-family="Helvetica,sans-Serif" font-size="10.00">shelf_main</text>
</a>
</g>
</g>
<!-- Node45&#45;&gt;Node46 -->
<g id="edge5" class="edge"><title>Node45&#45;&gt;Node46</title>
<path fill="none" stroke="midnightblue" d="M365.335,-94.791C379.184,-89.3746 393.729,-83.6858 405.51,-79.0783"/>
<polygon fill="midnightblue" stroke="midnightblue" points="363.94,-91.5787 355.901,-98.4808 366.489,-98.0978 363.94,-91.5787"/>
</g>
<!-- Node48&#45;&gt;Node46 -->
<g id="edge9" class="edge"><title>Node48&#45;&gt;Node46</title>
<path fill="none" stroke="midnightblue" d="M357.875,-34.8798C375.637,-43.4059 395.7,-53.0361 410.148,-59.9712"/>
<polygon fill="midnightblue" stroke="midnightblue" points="359.367,-31.714 348.838,-30.542 356.338,-38.0247 359.367,-31.714"/>
</g>
</g>
</svg>
