<?xml version="1.0" encoding="UTF-8" standalone="no"?>
<!DOCTYPE svg PUBLIC "-//W3C//DTD SVG 1.1//EN"
 "http://www.w3.org/Graphics/SVG/1.1/DTD/svg11.dtd">
<!-- Generated by graphviz version 2.38.0 (20140413.2041)
 -->
<!-- Title: mom_ice_shelf::shelf_calc_flux Pages: 1 -->
<!--zoomable 902 -->
<svg id="main" version="1.1" xmlns="http://www.w3.org/2000/svg" xmlns:xlink="http://www.w3.org/1999/xlink" xml:space="preserve" onload="init(evt)">
<style type="text/css"><![CDATA[
.edge:hover path { stroke: red; }
.edge:hover polygon { stroke: red; fill: red; }
]]></style>
<script type="text/javascript"><![CDATA[
var edges = document.getElementsByTagName('g');
if (edges && edges.length) {
  for (var i=0;i<edges.length;i++) {
    if (edges[i].id.substr(0,4)=='edge') {
      edges[i].setAttribute('class','edge');
    }
  }
}
]]></script>
        <defs>
                <circle id="rim" cx="0" cy="0" r="7"/>
                <circle id="rim2" cx="0" cy="0" r="3.5"/>
                <g id="zoomPlus">
                        <use xlink:href="#rim" fill="#404040">
                                <set attributeName="fill" to="#808080" begin="zoomplus.mouseover" end="zoomplus.mouseout"/>
                        </use>
                        <path d="M-4,0h8M0,-4v8" fill="none" stroke="white" stroke-width="1.5" pointer-events="none"/>
                </g>
                <g id="zoomMin">
                        <use xlink:href="#rim" fill="#404040">
                                <set attributeName="fill" to="#808080" begin="zoomminus.mouseover" end="zoomminus.mouseout"/>
                        </use>
                        <path d="M-4,0h8" fill="none" stroke="white" stroke-width="1.5" pointer-events="none"/>
                </g>
                <g id="dirArrow">
                        <path fill="none" stroke="white" stroke-width="1.5" d="M0,-3.0v7 M-2.5,-0.5L0,-3.0L2.5,-0.5"/>
                </g>
               <g id="resetDef">
                       <use xlink:href="#rim2" fill="#404040">
                               <set attributeName="fill" to="#808080" begin="reset.mouseover" end="reset.mouseout"/>
                       </use>
               </g>
        </defs>

<script type="text/javascript">
var viewWidth = 836;
var viewHeight = 902;
var sectionId = 'dynsection-49';
</script>
<script xlink:href="../../svgpan.js"/>
<svg id="graph" class="graph">
<g id="viewport">
<title>mom_ice_shelf::shelf_calc_flux</title>
<polygon fill="white" stroke="none" points="-4,4 -4,-898.493 832,-898.493 832,4 -4,4"/>
<!-- Node419 -->
<g id="node1" class="node"><title>Node419</title>
<polygon fill="#bfbfbf" stroke="black" points="0,-552.993 0,-582.993 91,-582.993 91,-552.993 0,-552.993"/>
<text text-anchor="start" x="8" y="-570.993" font-family="Helvetica,sans-Serif" font-size="10.00">mom_ice_shelf::shelf</text>
<text text-anchor="middle" x="45.5" y="-559.993" font-family="Helvetica,sans-Serif" font-size="10.00">_calc_flux</text>
</g>
<!-- Node420 -->
<g id="node2" class="node"><title>Node420</title>
<g id="a_node2"><a xlink:href="../../df/da2/namespacemom__ice__shelf.html#a2ca397210116eed3aeeb2fd533aad3ad" target="_top" xlink:title="mom_ice_shelf::add\l_shelf_flux">
<polygon fill="white" stroke="black" points="132.5,-790.993 132.5,-820.993 220.5,-820.993 220.5,-790.993 132.5,-790.993"/>
<text text-anchor="start" x="140.5" y="-808.993" font-family="Helvetica,sans-Serif" font-size="10.00">mom_ice_shelf::add</text>
<text text-anchor="middle" x="176.5" y="-797.993" font-family="Helvetica,sans-Serif" font-size="10.00">_shelf_flux</text>
</a>
</g>
</g>
<!-- Node419&#45;&gt;Node420 -->
<g id="edge1" class="edge"><title>Node419&#45;&gt;Node420</title>
<path fill="none" stroke="midnightblue" d="M48.3499,-583.183C53.7162,-621.218 72.5326,-721.805 127,-781.993 127.756,-782.829 128.549,-783.64 129.371,-784.425"/>
<polygon fill="midnightblue" stroke="midnightblue" points="127.454,-787.371 137.468,-790.83 131.797,-781.881 127.454,-787.371"/>
</g>
<!-- Node421 -->
<g id="node3" class="node"><title>Node421</title>
<g id="a_node3"><a xlink:href="../../d9/d06/namespacemom__diag__mediator.html#a1761df399ba39742e34ab989469da0f2" target="_top" xlink:title="mom_diag_mediator::\ldisable_averaging">
<polygon fill="white" stroke="black" points="129,-741.993 129,-771.993 224,-771.993 224,-741.993 129,-741.993"/>
<text text-anchor="start" x="137" y="-759.993" font-family="Helvetica,sans-Serif" font-size="10.00">mom_diag_mediator::</text>
<text text-anchor="middle" x="176.5" y="-748.993" font-family="Helvetica,sans-Serif" font-size="10.00">disable_averaging</text>
</a>
</g>
</g>
<!-- Node419&#45;&gt;Node421 -->
<g id="edge2" class="edge"><title>Node419&#45;&gt;Node421</title>
<path fill="none" stroke="midnightblue" d="M50.3015,-583.151C58.9218,-614.761 82.7253,-688.47 127,-732.993 127.932,-733.93 128.907,-734.837 129.919,-735.713"/>
<polygon fill="midnightblue" stroke="midnightblue" points="128.133,-738.744 138.262,-741.853 132.282,-733.106 128.133,-738.744"/>
</g>
<!-- Node422 -->
<g id="node4" class="node"><title>Node422</title>
<g id="a_node4"><a xlink:href="../../d9/d06/namespacemom__diag__mediator.html#a91244f765f2964dfb11f8787f65042f1" target="_top" xlink:title="mom_diag_mediator::\lenable_averaging">
<polygon fill="white" stroke="black" points="129,-692.993 129,-722.993 224,-722.993 224,-692.993 129,-692.993"/>
<text text-anchor="start" x="137" y="-710.993" font-family="Helvetica,sans-Serif" font-size="10.00">mom_diag_mediator::</text>
<text text-anchor="middle" x="176.5" y="-699.993" font-family="Helvetica,sans-Serif" font-size="10.00">enable_averaging</text>
</a>
</g>
</g>
<!-- Node419&#45;&gt;Node422 -->
<g id="edge3" class="edge"><title>Node419&#45;&gt;Node422</title>
<path fill="none" stroke="midnightblue" d="M53.9169,-583.368C66.2033,-607.495 92.8484,-654.531 127,-683.993 128.32,-685.133 129.704,-686.233 131.136,-687.293"/>
<polygon fill="midnightblue" stroke="midnightblue" points="129.457,-690.378 139.738,-692.936 133.296,-684.525 129.457,-690.378"/>
</g>
<!-- Node423 -->
<g id="node5" class="node"><title>Node423</title>
<g id="a_node5"><a xlink:href="../../df/da2/namespacemom__ice__shelf.html#a6a07543d5e828b759f18def33ca4feda" target="_top" xlink:title="mom_ice_shelf::ice\l_shelf_advect">
<polygon fill="white" stroke="black" points="134.5,-643.993 134.5,-673.993 218.5,-673.993 218.5,-643.993 134.5,-643.993"/>
<text text-anchor="start" x="142.5" y="-661.993" font-family="Helvetica,sans-Serif" font-size="10.00">mom_ice_shelf::ice</text>
<text text-anchor="middle" x="176.5" y="-650.993" font-family="Helvetica,sans-Serif" font-size="10.00">_shelf_advect</text>
</a>
</g>
</g>
<!-- Node419&#45;&gt;Node423 -->
<g id="edge4" class="edge"><title>Node419&#45;&gt;Node423</title>
<path fill="none" stroke="midnightblue" d="M67.8017,-583.02C89.0891,-598.037 121.995,-621.249 145.833,-638.065"/>
<polygon fill="midnightblue" stroke="midnightblue" points="143.978,-641.04 154.167,-643.944 148.013,-635.32 143.978,-641.04"/>
</g>
<!-- Node430 -->
<g id="node12" class="node"><title>Node430</title>
<g id="a_node12"><a xlink:href="../../d0/de6/namespacemom__error__handler.html#ad5f00a53059c72fe2332d1436c80ca71" target="_top" xlink:title="mom_error_handler::\lis_root_pe">
<polygon fill="white" stroke="black" points="422.5,-555.993 422.5,-585.993 515.5,-585.993 515.5,-555.993 422.5,-555.993"/>
<text text-anchor="start" x="430.5" y="-573.993" font-family="Helvetica,sans-Serif" font-size="10.00">mom_error_handler::</text>
<text text-anchor="middle" x="469" y="-562.993" font-family="Helvetica,sans-Serif" font-size="10.00">is_root_pe</text>
</a>
</g>
</g>
<!-- Node419&#45;&gt;Node430 -->
<g id="edge41" class="edge"><title>Node419&#45;&gt;Node430</title>
<path fill="none" stroke="midnightblue" d="M91.2084,-569.125C102.86,-569.414 115.4,-569.72 127,-569.993 237.644,-572.597 265.332,-574.196 376,-572.993 387.614,-572.867 400.052,-572.651 411.909,-572.407"/>
<polygon fill="midnightblue" stroke="midnightblue" points="412.221,-575.901 422.143,-572.186 412.07,-568.903 412.221,-575.901"/>
</g>
<!-- Node432 -->
<g id="node14" class="node"><title>Node432</title>
<g id="a_node14"><a xlink:href="../../df/da2/namespacemom__ice__shelf.html#a5d64b696412c0bfd8ded2e2eacaa917c" target="_top" xlink:title="mom_ice_shelf::ice\l_shelf_solve_outer">
<polygon fill="white" stroke="black" points="134.5,-318.993 134.5,-348.993 218.5,-348.993 218.5,-318.993 134.5,-318.993"/>
<text text-anchor="start" x="142.5" y="-336.993" font-family="Helvetica,sans-Serif" font-size="10.00">mom_ice_shelf::ice</text>
<text text-anchor="middle" x="176.5" y="-325.993" font-family="Helvetica,sans-Serif" font-size="10.00">_shelf_solve_outer</text>
</a>
</g>
</g>
<!-- Node419&#45;&gt;Node432 -->
<g id="edge14" class="edge"><title>Node419&#45;&gt;Node432</title>
<path fill="none" stroke="midnightblue" d="M54.9641,-552.64C76.9297,-512.795 135.882,-405.858 162.336,-357.873"/>
<polygon fill="midnightblue" stroke="midnightblue" points="165.41,-359.546 167.172,-349.099 159.28,-356.167 165.41,-359.546"/>
</g>
<!-- Node450 -->
<g id="node32" class="node"><title>Node450</title>
<g id="a_node32"><a xlink:href="../../d0/de6/namespacemom__error__handler.html#a460cfb79a06c29fc249952c2a3710d67" target="_top" xlink:title="mom_error_handler::\lmom_error">
<polygon fill="white" stroke="black" points="130,-530.993 130,-560.993 223,-560.993 223,-530.993 130,-530.993"/>
<text text-anchor="start" x="138" y="-548.993" font-family="Helvetica,sans-Serif" font-size="10.00">mom_error_handler::</text>
<text text-anchor="middle" x="176.5" y="-537.993" font-family="Helvetica,sans-Serif" font-size="10.00">mom_error</text>
</a>
</g>
</g>
<!-- Node419&#45;&gt;Node450 -->
<g id="edge42" class="edge"><title>Node419&#45;&gt;Node450</title>
<path fill="none" stroke="midnightblue" d="M91.2559,-560.361C100.545,-558.776 110.44,-557.089 120.06,-555.448"/>
<polygon fill="midnightblue" stroke="midnightblue" points="120.679,-558.893 129.949,-553.762 119.502,-551.993 120.679,-558.893"/>
</g>
<!-- Node451 -->
<g id="node33" class="node"><title>Node451</title>
<g id="a_node33"><a xlink:href="../../df/da2/namespacemom__ice__shelf.html#aca580e99d6c95cb541ca3f5568b22105" target="_top" xlink:title="mom_ice_shelf::update\l_od_ffrac">
<polygon fill="white" stroke="black" points="127,-269.993 127,-299.993 226,-299.993 226,-269.993 127,-269.993"/>
<text text-anchor="start" x="135" y="-287.993" font-family="Helvetica,sans-Serif" font-size="10.00">mom_ice_shelf::update</text>
<text text-anchor="middle" x="176.5" y="-276.993" font-family="Helvetica,sans-Serif" font-size="10.00">_od_ffrac</text>
</a>
</g>
</g>
<!-- Node419&#45;&gt;Node451 -->
<g id="edge44" class="edge"><title>Node419&#45;&gt;Node451</title>
<path fill="none" stroke="midnightblue" d="M47.1658,-552.89C49.8289,-509.712 62.9745,-384.041 127,-308.993 127.614,-308.274 128.254,-307.575 128.918,-306.894"/>
<polygon fill="midnightblue" stroke="midnightblue" points="131.367,-309.408 136.797,-300.31 126.879,-304.036 131.367,-309.408"/>
</g>
<!-- Node452 -->
<g id="node34" class="node"><title>Node452</title>
<g id="a_node34"><a xlink:href="../../df/da2/namespacemom__ice__shelf.html#a1a323e884141c533e729dc44c6bbf91d" target="_top" xlink:title="mom_ice_shelf::update\l_od_ffrac_uncoupled">
<polygon fill="white" stroke="black" points="127,-220.993 127,-250.993 226,-250.993 226,-220.993 127,-220.993"/>
<text text-anchor="start" x="135" y="-238.993" font-family="Helvetica,sans-Serif" font-size="10.00">mom_ice_shelf::update</text>
<text text-anchor="middle" x="176.5" y="-227.993" font-family="Helvetica,sans-Serif" font-size="10.00">_od_ffrac_uncoupled</text>
</a>
</g>
</g>
<!-- Node419&#45;&gt;Node452 -->
<g id="edge45" class="edge"><title>Node419&#45;&gt;Node452</title>
<path fill="none" stroke="midnightblue" d="M46.2583,-552.911C46.269,-504.596 52.4863,-351.488 127,-259.993 127.597,-259.26 128.222,-258.548 128.872,-257.856"/>
<polygon fill="midnightblue" stroke="midnightblue" points="131.337,-260.352 136.644,-251.183 126.777,-255.041 131.337,-260.352"/>
</g>
<!-- Node453 -->
<g id="node35" class="node"><title>Node453</title>
<g id="a_node35"><a xlink:href="../../df/da2/namespacemom__ice__shelf.html#a48c0df7f308ad8f93910fed95e28ea14" target="_top" xlink:title="mom_ice_shelf::update\l_shelf_mass">
<polygon fill="white" stroke="black" points="127,-171.993 127,-201.993 226,-201.993 226,-171.993 127,-171.993"/>
<text text-anchor="start" x="135" y="-189.993" font-family="Helvetica,sans-Serif" font-size="10.00">mom_ice_shelf::update</text>
<text text-anchor="middle" x="176.5" y="-178.993" font-family="Helvetica,sans-Serif" font-size="10.00">_shelf_mass</text>
</a>
</g>
</g>
<!-- Node419&#45;&gt;Node453 -->
<g id="edge46" class="edge"><title>Node419&#45;&gt;Node453</title>
<path fill="none" stroke="midnightblue" d="M48.1686,-552.893C55.1382,-492.138 83.5939,-266.174 127,-210.993 127.584,-210.25 128.198,-209.529 128.837,-208.828"/>
<polygon fill="midnightblue" stroke="midnightblue" points="131.313,-211.312 136.529,-202.09 126.7,-206.047 131.313,-211.312"/>
</g>
<!-- Node424 -->
<g id="node6" class="node"><title>Node424</title>
<g id="a_node6"><a xlink:href="../../df/da2/namespacemom__ice__shelf.html#ae577f1cfafb12ba9b009523fcf43cda7" target="_top" xlink:title="mom_ice_shelf::calve\l_to_mask">
<polygon fill="white" stroke="black" points="273,-716.993 273,-746.993 365,-746.993 365,-716.993 273,-716.993"/>
<text text-anchor="start" x="281" y="-734.993" font-family="Helvetica,sans-Serif" font-size="10.00">mom_ice_shelf::calve</text>
<text text-anchor="middle" x="319" y="-723.993" font-family="Helvetica,sans-Serif" font-size="10.00">_to_mask</text>
</a>
</g>
</g>
<!-- Node423&#45;&gt;Node424 -->
<g id="edge5" class="edge"><title>Node423&#45;&gt;Node424</title>
<path fill="none" stroke="midnightblue" d="M208.054,-674.081C214.07,-677.237 220.285,-680.63 226,-683.993 242.572,-693.747 245.092,-698.834 262,-707.993 264.883,-709.555 267.889,-711.091 270.946,-712.583"/>
<polygon fill="midnightblue" stroke="midnightblue" points="269.657,-715.844 280.197,-716.916 272.626,-709.505 269.657,-715.844"/>
</g>
<!-- Node425 -->
<g id="node7" class="node"><title>Node425</title>
<g id="a_node7"><a xlink:href="../../df/da2/namespacemom__ice__shelf.html#a8bd6d78f530289dc90ffbdb0b80e7883" target="_top" xlink:title="mom_ice_shelf::ice\l_shelf_advect_thickness_x">
<polygon fill="white" stroke="black" points="264,-667.993 264,-697.993 374,-697.993 374,-667.993 264,-667.993"/>
<text text-anchor="start" x="272" y="-685.993" font-family="Helvetica,sans-Serif" font-size="10.00">mom_ice_shelf::ice</text>
<text text-anchor="middle" x="319" y="-674.993" font-family="Helvetica,sans-Serif" font-size="10.00">_shelf_advect_thickness_x</text>
</a>
</g>
</g>
<!-- Node423&#45;&gt;Node425 -->
<g id="edge6" class="edge"><title>Node423&#45;&gt;Node425</title>
<path fill="none" stroke="midnightblue" d="M218.516,-666C229.59,-667.891 241.843,-669.984 253.857,-672.037"/>
<polygon fill="midnightblue" stroke="midnightblue" points="253.414,-675.512 263.86,-673.745 254.593,-668.611 253.414,-675.512"/>
</g>
<!-- Node427 -->
<g id="node9" class="node"><title>Node427</title>
<g id="a_node9"><a xlink:href="../../df/da2/namespacemom__ice__shelf.html#a0663fa04e4a2df8b6676a0c5364ac8ee" target="_top" xlink:title="mom_ice_shelf::ice\l_shelf_advect_thickness_y">
<polygon fill="white" stroke="black" points="264,-814.993 264,-844.993 374,-844.993 374,-814.993 264,-814.993"/>
<text text-anchor="start" x="272" y="-832.993" font-family="Helvetica,sans-Serif" font-size="10.00">mom_ice_shelf::ice</text>
<text text-anchor="middle" x="319" y="-821.993" font-family="Helvetica,sans-Serif" font-size="10.00">_shelf_advect_thickness_y</text>
</a>
</g>
</g>
<!-- Node423&#45;&gt;Node427 -->
<g id="edge8" class="edge"><title>Node423&#45;&gt;Node427</title>
<path fill="none" stroke="midnightblue" d="M214.83,-674.086C218.996,-676.912 222.861,-680.197 226,-683.993 262.025,-727.562 224.45,-763.731 262,-805.993 262.755,-806.843 263.546,-807.664 264.367,-808.457"/>
<polygon fill="midnightblue" stroke="midnightblue" points="262.464,-811.414 272.483,-814.859 266.799,-805.918 262.464,-811.414"/>
</g>
<!-- Node428 -->
<g id="node10" class="node"><title>Node428</title>
<g id="a_node10"><a xlink:href="../../df/da2/namespacemom__ice__shelf.html#a850dc882bb94f5b3eacdfdbf25cb19b8" target="_top" xlink:title="mom_ice_shelf::ice\l_shelf_min_thickness_calve">
<polygon fill="white" stroke="black" points="262,-863.993 262,-893.993 376,-893.993 376,-863.993 262,-863.993"/>
<text text-anchor="start" x="270" y="-881.993" font-family="Helvetica,sans-Serif" font-size="10.00">mom_ice_shelf::ice</text>
<text text-anchor="middle" x="319" y="-870.993" font-family="Helvetica,sans-Serif" font-size="10.00">_shelf_min_thickness_calve</text>
</a>
</g>
</g>
<!-- Node423&#45;&gt;Node428 -->
<g id="edge10" class="edge"><title>Node423&#45;&gt;Node428</title>
<path fill="none" stroke="midnightblue" d="M215.595,-674.187C219.53,-676.977 223.129,-680.226 226,-683.993 273.075,-745.767 212.761,-794.931 262,-854.993 262.704,-855.852 263.445,-856.681 264.218,-857.481"/>
<polygon fill="midnightblue" stroke="midnightblue" points="262.012,-860.199 271.932,-863.922 266.499,-854.826 262.012,-860.199"/>
</g>
<!-- Node429 -->
<g id="node11" class="node"><title>Node429</title>
<g id="a_node11"><a xlink:href="../../df/da2/namespacemom__ice__shelf.html#aafa24b7ba297a29d9897576939282815" target="_top" xlink:title="mom_ice_shelf::shelf\l_advance_front">
<polygon fill="white" stroke="black" points="273.5,-618.993 273.5,-648.993 364.5,-648.993 364.5,-618.993 273.5,-618.993"/>
<text text-anchor="start" x="281.5" y="-636.993" font-family="Helvetica,sans-Serif" font-size="10.00">mom_ice_shelf::shelf</text>
<text text-anchor="middle" x="319" y="-625.993" font-family="Helvetica,sans-Serif" font-size="10.00">_advance_front</text>
</a>
</g>
</g>
<!-- Node423&#45;&gt;Node429 -->
<g id="edge11" class="edge"><title>Node423&#45;&gt;Node429</title>
<path fill="none" stroke="midnightblue" d="M218.516,-651.695C232.468,-649.213 248.292,-646.397 263.15,-643.753"/>
<polygon fill="midnightblue" stroke="midnightblue" points="264.014,-647.155 273.246,-641.957 262.788,-640.263 264.014,-647.155"/>
</g>
<!-- Node431 -->
<g id="node13" class="node"><title>Node431</title>
<g id="a_node13"><a xlink:href="../../df/da2/namespacemom__ice__shelf.html#ae71447bb7b63b4313070abc27e0a7208" target="_top" xlink:title="mom_ice_shelf::update\l_velocity_masks">
<polygon fill="white" stroke="black" points="269.5,-765.993 269.5,-795.993 368.5,-795.993 368.5,-765.993 269.5,-765.993"/>
<text text-anchor="start" x="277.5" y="-783.993" font-family="Helvetica,sans-Serif" font-size="10.00">mom_ice_shelf::update</text>
<text text-anchor="middle" x="319" y="-772.993" font-family="Helvetica,sans-Serif" font-size="10.00">_velocity_masks</text>
</a>
</g>
</g>
<!-- Node423&#45;&gt;Node431 -->
<g id="edge13" class="edge"><title>Node423&#45;&gt;Node431</title>
<path fill="none" stroke="midnightblue" d="M213.246,-673.999C217.87,-676.884 222.282,-680.209 226,-683.993 251.351,-709.8 235.748,-732.104 262,-756.993 263.127,-758.062 264.31,-759.088 265.537,-760.071"/>
<polygon fill="midnightblue" stroke="midnightblue" points="263.949,-763.224 274.183,-765.963 267.891,-757.439 263.949,-763.224"/>
</g>
<!-- Node426 -->
<g id="node8" class="node"><title>Node426</title>
<g id="a_node8"><a xlink:href="../../df/da2/namespacemom__ice__shelf.html#ac30ce29228457ec8a19679f25960ef21" target="_top" xlink:title="mom_ice_shelf::slope\l_limiter">
<polygon fill="white" stroke="black" points="422.5,-740.993 422.5,-770.993 515.5,-770.993 515.5,-740.993 422.5,-740.993"/>
<text text-anchor="start" x="430.5" y="-758.993" font-family="Helvetica,sans-Serif" font-size="10.00">mom_ice_shelf::slope</text>
<text text-anchor="middle" x="469" y="-747.993" font-family="Helvetica,sans-Serif" font-size="10.00">_limiter</text>
</a>
</g>
</g>
<!-- Node425&#45;&gt;Node426 -->
<g id="edge7" class="edge"><title>Node425&#45;&gt;Node426</title>
<path fill="none" stroke="midnightblue" d="M354.507,-698.001C361.65,-701.219 369.099,-704.656 376,-707.993 394.338,-716.86 414.423,-727.258 431.135,-736.104"/>
<polygon fill="midnightblue" stroke="midnightblue" points="429.567,-739.235 440.04,-740.84 432.854,-733.054 429.567,-739.235"/>
</g>
<!-- Node427&#45;&gt;Node426 -->
<g id="edge9" class="edge"><title>Node427&#45;&gt;Node426</title>
<path fill="none" stroke="midnightblue" d="M356.372,-814.989C362.953,-812.109 369.718,-809.039 376,-805.993 395.047,-796.761 415.8,-785.583 432.767,-776.14"/>
<polygon fill="midnightblue" stroke="midnightblue" points="434.756,-779.037 441.768,-771.095 431.334,-772.931 434.756,-779.037"/>
</g>
<!-- Node429&#45;&gt;Node430 -->
<g id="edge12" class="edge"><title>Node429&#45;&gt;Node430</title>
<path fill="none" stroke="midnightblue" d="M355.45,-618.903C375.786,-610.247 401.512,-599.296 423.234,-590.049"/>
<polygon fill="midnightblue" stroke="midnightblue" points="424.753,-593.207 432.583,-586.069 422.011,-586.766 424.753,-593.207"/>
</g>
<!-- Node432&#45;&gt;Node430 -->
<g id="edge39" class="edge"><title>Node432&#45;&gt;Node430</title>
<path fill="none" stroke="midnightblue" d="M182.985,-349.394C193.888,-378.041 220.838,-439.964 262,-476.993 305.429,-516.061 367.848,-541.446 412.579,-555.87"/>
<polygon fill="midnightblue" stroke="midnightblue" points="411.536,-559.211 422.125,-558.869 413.634,-552.532 411.536,-559.211"/>
</g>
<!-- Node433 -->
<g id="node15" class="node"><title>Node433</title>
<g id="a_node15"><a xlink:href="../../df/da2/namespacemom__ice__shelf.html#a5d534895698ad80a68be9a1b992c4d0b" target="_top" xlink:title="mom_ice_shelf::apply\l_boundary_values_bilinear">
<polygon fill="white" stroke="black" points="413,-225.993 413,-255.993 525,-255.993 525,-225.993 413,-225.993"/>
<text text-anchor="start" x="421" y="-243.993" font-family="Helvetica,sans-Serif" font-size="10.00">mom_ice_shelf::apply</text>
<text text-anchor="middle" x="469" y="-232.993" font-family="Helvetica,sans-Serif" font-size="10.00">_boundary_values_bilinear</text>
</a>
</g>
</g>
<!-- Node432&#45;&gt;Node433 -->
<g id="edge15" class="edge"><title>Node432&#45;&gt;Node433</title>
<path fill="none" stroke="midnightblue" d="M213.983,-318.907C218.389,-316.059 222.545,-312.766 226,-308.993 254.543,-277.833 226.916,-244.547 262,-220.993 310.777,-188.247 381.279,-205.488 425.858,-222.222"/>
<polygon fill="midnightblue" stroke="midnightblue" points="424.645,-225.506 435.233,-225.878 427.188,-218.984 424.645,-225.506"/>
</g>
<!-- Node434 -->
<g id="node16" class="node"><title>Node434</title>
<g id="a_node16"><a xlink:href="../../df/da2/namespacemom__ice__shelf.html#a9f77faf4c64078c8bce0546bb024f34e" target="_top" xlink:title="mom_ice_shelf::bilinear\l_shape_functions">
<polygon fill="white" stroke="black" points="570.5,-102.993 570.5,-132.993 670.5,-132.993 670.5,-102.993 570.5,-102.993"/>
<text text-anchor="start" x="578.5" y="-120.993" font-family="Helvetica,sans-Serif" font-size="10.00">mom_ice_shelf::bilinear</text>
<text text-anchor="middle" x="620.5" y="-109.993" font-family="Helvetica,sans-Serif" font-size="10.00">_shape_functions</text>
</a>
</g>
</g>
<!-- Node432&#45;&gt;Node434 -->
<g id="edge20" class="edge"><title>Node432&#45;&gt;Node434</title>
<path fill="none" stroke="midnightblue" d="M216.389,-318.698C220.082,-315.942 223.407,-312.729 226,-308.993 264.538,-253.471 211.46,-51.8667 262,-6.99345 284.286,12.794 516.784,-15.5678 526,-19.9935 560.21,-36.4207 588.445,-71.0822 604.644,-94.4599"/>
<polygon fill="midnightblue" stroke="midnightblue" points="601.768,-96.4562 610.25,-102.806 607.579,-92.5529 601.768,-96.4562"/>
</g>
<!-- Node437 -->
<g id="node19" class="node"><title>Node437</title>
<g id="a_node19"><a xlink:href="../../df/da2/namespacemom__ice__shelf.html#a6d1174213d77aef09d2eaae2fd138edd" target="_top" xlink:title="mom_ice_shelf::apply\l_boundary_values_triangle">
<polygon fill="white" stroke="black" points="412.5,-29.9935 412.5,-59.9935 525.5,-59.9935 525.5,-29.9935 412.5,-29.9935"/>
<text text-anchor="start" x="420.5" y="-47.9935" font-family="Helvetica,sans-Serif" font-size="10.00">mom_ice_shelf::apply</text>
<text text-anchor="middle" x="469" y="-36.9935" font-family="Helvetica,sans-Serif" font-size="10.00">_boundary_values_triangle</text>
</a>
</g>
</g>
<!-- Node432&#45;&gt;Node437 -->
<g id="edge19" class="edge"><title>Node432&#45;&gt;Node437</title>
<path fill="none" stroke="midnightblue" d="M215.737,-318.906C219.647,-316.098 223.202,-312.815 226,-308.993 282.195,-232.231 197.574,-167.99 262,-97.9935 280.913,-77.445 349.388,-62.6766 402.257,-54.0313"/>
<polygon fill="midnightblue" stroke="midnightblue" points="402.942,-57.4663 412.267,-52.4361 401.841,-50.5535 402.942,-57.4663"/>
</g>
<!-- Node438 -->
<g id="node20" class="node"><title>Node438</title>
<g id="a_node20"><a xlink:href="../../df/da2/namespacemom__ice__shelf.html#a4714299e786f7e62fa2c82916dac2316" target="_top" xlink:title="mom_ice_shelf::bilinear\l_shape_functions_subgrid">
<polygon fill="white" stroke="black" points="264,-16.9935 264,-46.9935 374,-46.9935 374,-16.9935 264,-16.9935"/>
<text text-anchor="start" x="272" y="-34.9935" font-family="Helvetica,sans-Serif" font-size="10.00">mom_ice_shelf::bilinear</text>
<text text-anchor="middle" x="319" y="-23.9935" font-family="Helvetica,sans-Serif" font-size="10.00">_shape_functions_subgrid</text>
</a>
</g>
</g>
<!-- Node432&#45;&gt;Node438 -->
<g id="edge21" class="edge"><title>Node432&#45;&gt;Node438</title>
<path fill="none" stroke="midnightblue" d="M215.828,-318.971C219.722,-316.152 223.249,-312.849 226,-308.993 290.44,-218.69 198.279,-152.805 262,-61.9935 264.321,-58.6854 267.125,-55.7097 270.226,-53.039"/>
<polygon fill="midnightblue" stroke="midnightblue" points="272.448,-55.7502 278.44,-47.013 268.307,-50.1061 272.448,-55.7502"/>
</g>
<!-- Node439 -->
<g id="node21" class="node"><title>Node439</title>
<g id="a_node21"><a xlink:href="../../df/da2/namespacemom__ice__shelf.html#a9ccd473e87beaec693c8d90e7d68ed8f" target="_top" xlink:title="mom_ice_shelf::calc\l_shelf_driving_stress">
<polygon fill="white" stroke="black" points="273.5,-318.993 273.5,-348.993 364.5,-348.993 364.5,-318.993 273.5,-318.993"/>
<text text-anchor="start" x="281.5" y="-336.993" font-family="Helvetica,sans-Serif" font-size="10.00">mom_ice_shelf::calc</text>
<text text-anchor="middle" x="319" y="-325.993" font-family="Helvetica,sans-Serif" font-size="10.00">_shelf_driving_stress</text>
</a>
</g>
</g>
<!-- Node432&#45;&gt;Node439 -->
<g id="edge22" class="edge"><title>Node432&#45;&gt;Node439</title>
<path fill="none" stroke="midnightblue" d="M218.516,-333.993C232.468,-333.993 248.292,-333.993 263.15,-333.993"/>
<polygon fill="midnightblue" stroke="midnightblue" points="263.246,-337.494 273.246,-333.993 263.246,-330.494 263.246,-337.494"/>
</g>
<!-- Node440 -->
<g id="node22" class="node"><title>Node440</title>
<g id="a_node22"><a xlink:href="../../df/da2/namespacemom__ice__shelf.html#a55464f46b7f452abe25f8dde166cee51" target="_top" xlink:title="mom_ice_shelf::savearray2">
<polygon fill="white" stroke="black" points="412,-395.493 412,-414.493 526,-414.493 526,-395.493 412,-395.493"/>
<text text-anchor="middle" x="469" y="-402.493" font-family="Helvetica,sans-Serif" font-size="10.00">mom_ice_shelf::savearray2</text>
</a>
</g>
</g>
<!-- Node432&#45;&gt;Node440 -->
<g id="edge40" class="edge"><title>Node432&#45;&gt;Node440</title>
<path fill="none" stroke="midnightblue" d="M182.645,-349.179C192.826,-376.486 218.408,-433.159 262,-455.993 306.882,-479.503 326.947,-468.68 376,-455.993 402.348,-449.179 429.196,-433.016 447.034,-420.698"/>
<polygon fill="midnightblue" stroke="midnightblue" points="449.374,-423.328 455.49,-414.676 445.314,-417.626 449.374,-423.328"/>
</g>
<!-- Node441 -->
<g id="node23" class="node"><title>Node441</title>
<g id="a_node23"><a xlink:href="../../df/da2/namespacemom__ice__shelf.html#ac7bf50703bb671dbde1016061a04e3c9" target="_top" xlink:title="mom_ice_shelf::calc\l_shelf_visc_bilinear">
<polygon fill="white" stroke="black" points="275,-416.993 275,-446.993 363,-446.993 363,-416.993 275,-416.993"/>
<text text-anchor="start" x="283" y="-434.993" font-family="Helvetica,sans-Serif" font-size="10.00">mom_ice_shelf::calc</text>
<text text-anchor="middle" x="319" y="-423.993" font-family="Helvetica,sans-Serif" font-size="10.00">_shelf_visc_bilinear</text>
</a>
</g>
</g>
<!-- Node432&#45;&gt;Node441 -->
<g id="edge24" class="edge"><title>Node432&#45;&gt;Node441</title>
<path fill="none" stroke="midnightblue" d="M192.294,-349.185C208.366,-365.083 235.331,-390.042 262,-406.993 264.919,-408.849 267.999,-410.636 271.152,-412.342"/>
<polygon fill="midnightblue" stroke="midnightblue" points="269.658,-415.509 280.158,-416.926 272.833,-409.27 269.658,-415.509"/>
</g>
<!-- Node442 -->
<g id="node24" class="node"><title>Node442</title>
<g id="a_node24"><a xlink:href="../../df/da2/namespacemom__ice__shelf.html#a69286817781f164a0af096b050e3ccc4" target="_top" xlink:title="mom_ice_shelf::calc\l_shelf_visc_triangular">
<polygon fill="white" stroke="black" points="272.5,-367.993 272.5,-397.993 365.5,-397.993 365.5,-367.993 272.5,-367.993"/>
<text text-anchor="start" x="280.5" y="-385.993" font-family="Helvetica,sans-Serif" font-size="10.00">mom_ice_shelf::calc</text>
<text text-anchor="middle" x="319" y="-374.993" font-family="Helvetica,sans-Serif" font-size="10.00">_shelf_visc_triangular</text>
</a>
</g>
</g>
<!-- Node432&#45;&gt;Node442 -->
<g id="edge25" class="edge"><title>Node432&#45;&gt;Node442</title>
<path fill="none" stroke="midnightblue" d="M218.516,-348.298C233.139,-353.398 249.818,-359.215 265.285,-364.609"/>
<polygon fill="midnightblue" stroke="midnightblue" points="264.136,-367.915 274.73,-367.903 266.441,-361.305 264.136,-367.915"/>
</g>
<!-- Node443 -->
<g id="node25" class="node"><title>Node443</title>
<g id="a_node25"><a xlink:href="../../df/da2/namespacemom__ice__shelf.html#a08bef308dd58f20b81330c5706f71e1f" target="_top" xlink:title="mom_ice_shelf::cg_action\l_bilinear">
<polygon fill="white" stroke="black" points="415,-274.993 415,-304.993 523,-304.993 523,-274.993 415,-274.993"/>
<text text-anchor="start" x="423" y="-292.993" font-family="Helvetica,sans-Serif" font-size="10.00">mom_ice_shelf::cg_action</text>
<text text-anchor="middle" x="469" y="-281.993" font-family="Helvetica,sans-Serif" font-size="10.00">_bilinear</text>
</a>
</g>
</g>
<!-- Node432&#45;&gt;Node443 -->
<g id="edge26" class="edge"><title>Node432&#45;&gt;Node443</title>
<path fill="none" stroke="midnightblue" d="M218.791,-320.02C232.411,-315.885 247.727,-311.736 262,-308.993 309.309,-299.904 363.596,-295.124 404.56,-292.632"/>
<polygon fill="midnightblue" stroke="midnightblue" points="404.895,-296.118 414.676,-292.046 404.49,-289.13 404.895,-296.118"/>
</g>
<!-- Node444 -->
<g id="node26" class="node"><title>Node444</title>
<g id="a_node26"><a xlink:href="../../df/da2/namespacemom__ice__shelf.html#a0ad3713e3c3ee71d987d6cd82c45181e" target="_top" xlink:title="mom_ice_shelf::cg_action\l_triangular">
<polygon fill="white" stroke="black" points="415,-78.9935 415,-108.993 523,-108.993 523,-78.9935 415,-78.9935"/>
<text text-anchor="start" x="423" y="-96.9935" font-family="Helvetica,sans-Serif" font-size="10.00">mom_ice_shelf::cg_action</text>
<text text-anchor="middle" x="469" y="-85.9935" font-family="Helvetica,sans-Serif" font-size="10.00">_triangular</text>
</a>
</g>
</g>
<!-- Node432&#45;&gt;Node444 -->
<g id="edge28" class="edge"><title>Node432&#45;&gt;Node444</title>
<path fill="none" stroke="midnightblue" d="M215.616,-318.816C219.547,-316.023 223.14,-312.769 226,-308.993 274.212,-245.351 205.131,-189.035 262,-132.993 281.85,-113.432 351.661,-103.318 404.56,-98.3487"/>
<polygon fill="midnightblue" stroke="midnightblue" points="404.912,-101.831 414.559,-97.4508 404.286,-94.8593 404.912,-101.831"/>
</g>
<!-- Node445 -->
<g id="node27" class="node"><title>Node445</title>
<g id="a_node27"><a xlink:href="../../df/da2/namespacemom__ice__shelf.html#a95d21b019a635ad3a8ef060d765362e1" target="_top" xlink:title="mom_ice_shelf::ice\l_shelf_solve_inner">
<polygon fill="white" stroke="black" points="277,-142.993 277,-172.993 361,-172.993 361,-142.993 277,-142.993"/>
<text text-anchor="start" x="285" y="-160.993" font-family="Helvetica,sans-Serif" font-size="10.00">mom_ice_shelf::ice</text>
<text text-anchor="middle" x="319" y="-149.993" font-family="Helvetica,sans-Serif" font-size="10.00">_shelf_solve_inner</text>
</a>
</g>
</g>
<!-- Node432&#45;&gt;Node445 -->
<g id="edge29" class="edge"><title>Node432&#45;&gt;Node445</title>
<path fill="none" stroke="midnightblue" d="M214.822,-318.894C218.989,-316.07 222.857,-312.786 226,-308.993 261.802,-265.793 226.542,-231.477 262,-187.993 264.745,-184.628 267.97,-181.588 271.462,-178.853"/>
<polygon fill="midnightblue" stroke="midnightblue" points="273.72,-181.549 279.998,-173.015 269.768,-175.771 273.72,-181.549"/>
</g>
<!-- Node449 -->
<g id="node31" class="node"><title>Node449</title>
<g id="a_node31"><a xlink:href="../../df/da2/namespacemom__ice__shelf.html#a8fc399c376152f2d639b506ff8a7ee24" target="_top" xlink:title="mom_ice_shelf::interpolate\l_h_to_b">
<polygon fill="white" stroke="black" points="263,-230.993 263,-260.993 375,-260.993 375,-230.993 263,-230.993"/>
<text text-anchor="start" x="271" y="-248.993" font-family="Helvetica,sans-Serif" font-size="10.00">mom_ice_shelf::interpolate</text>
<text text-anchor="middle" x="319" y="-237.993" font-family="Helvetica,sans-Serif" font-size="10.00">_h_to_b</text>
</a>
</g>
</g>
<!-- Node432&#45;&gt;Node449 -->
<g id="edge38" class="edge"><title>Node432&#45;&gt;Node449</title>
<path fill="none" stroke="midnightblue" d="M209.773,-318.892C215.337,-315.861 220.949,-312.516 226,-308.993 243.804,-296.578 244.295,-288.55 262,-275.993 266.899,-272.519 272.247,-269.165 277.633,-266.038"/>
<polygon fill="midnightblue" stroke="midnightblue" points="279.627,-268.934 286.657,-261.008 276.219,-262.82 279.627,-268.934"/>
</g>
<!-- Node433&#45;&gt;Node434 -->
<g id="edge16" class="edge"><title>Node433&#45;&gt;Node434</title>
<path fill="none" stroke="midnightblue" d="M512.711,-225.839C517.528,-223.033 522.098,-219.769 526,-215.993 552.284,-190.56 535.407,-167.103 562,-141.993 563.131,-140.926 564.316,-139.903 565.545,-138.922"/>
<polygon fill="midnightblue" stroke="midnightblue" points="567.893,-141.559 574.206,-133.051 563.965,-135.765 567.893,-141.559"/>
</g>
<!-- Node436 -->
<g id="node18" class="node"><title>Node436</title>
<g id="a_node18"><a xlink:href="../../df/da2/namespacemom__ice__shelf.html#a925d19b978b5368c3b0d5cae3b542bfe" target="_top" xlink:title="mom_ice_shelf::cg_action\l_subgrid_basal_bilinear">
<polygon fill="white" stroke="black" points="566.5,-249.993 566.5,-279.993 674.5,-279.993 674.5,-249.993 566.5,-249.993"/>
<text text-anchor="start" x="574.5" y="-267.993" font-family="Helvetica,sans-Serif" font-size="10.00">mom_ice_shelf::cg_action</text>
<text text-anchor="middle" x="620.5" y="-256.993" font-family="Helvetica,sans-Serif" font-size="10.00">_subgrid_basal_bilinear</text>
</a>
</g>
</g>
<!-- Node433&#45;&gt;Node436 -->
<g id="edge18" class="edge"><title>Node433&#45;&gt;Node436</title>
<path fill="none" stroke="midnightblue" d="M525.244,-249.862C535.35,-251.484 545.967,-253.189 556.284,-254.845"/>
<polygon fill="midnightblue" stroke="midnightblue" points="556.043,-258.351 566.471,-256.48 557.153,-251.44 556.043,-258.351"/>
</g>
<!-- Node435 -->
<g id="node17" class="node"><title>Node435</title>
<g id="a_node17"><a xlink:href="../../df/da2/namespacemom__ice__shelf.html#a43bcb4adfaabc54cd57ad8d96b71c224" target="_top" xlink:title="mom_ice_shelf::quad_area">
<polygon fill="white" stroke="black" points="715,-108.493 715,-127.493 828,-127.493 828,-108.493 715,-108.493"/>
<text text-anchor="middle" x="771.5" y="-115.493" font-family="Helvetica,sans-Serif" font-size="10.00">mom_ice_shelf::quad_area</text>
</a>
</g>
</g>
<!-- Node434&#45;&gt;Node435 -->
<g id="edge17" class="edge"><title>Node434&#45;&gt;Node435</title>
<path fill="none" stroke="midnightblue" d="M670.701,-117.993C681.539,-117.993 693.188,-117.993 704.567,-117.993"/>
<polygon fill="midnightblue" stroke="midnightblue" points="704.91,-121.494 714.909,-117.993 704.909,-114.494 704.91,-121.494"/>
</g>
<!-- Node439&#45;&gt;Node440 -->
<g id="edge23" class="edge"><title>Node439&#45;&gt;Node440</title>
<path fill="none" stroke="midnightblue" d="M356.009,-349.001C362.69,-351.906 369.584,-354.984 376,-357.993 398.263,-368.436 423.067,-381.174 441.305,-390.754"/>
<polygon fill="midnightblue" stroke="midnightblue" points="439.718,-393.874 450.196,-395.446 442.986,-387.683 439.718,-393.874"/>
</g>
<!-- Node443&#45;&gt;Node436 -->
<g id="edge27" class="edge"><title>Node443&#45;&gt;Node436</title>
<path fill="none" stroke="midnightblue" d="M523.129,-281.109C533.86,-279.315 545.241,-277.411 556.279,-275.566"/>
<polygon fill="midnightblue" stroke="midnightblue" points="557.005,-278.993 566.29,-273.891 555.85,-272.089 557.005,-278.993"/>
</g>
<!-- Node445&#45;&gt;Node433 -->
<g id="edge30" class="edge"><title>Node445&#45;&gt;Node433</title>
<path fill="none" stroke="midnightblue" d="M350.475,-173.116C358.91,-177.624 367.955,-182.764 376,-187.993 392.995,-199.041 394.619,-205.564 412,-215.993 415.153,-217.885 418.474,-219.721 421.86,-221.483"/>
<polygon fill="midnightblue" stroke="midnightblue" points="420.392,-224.661 430.907,-225.957 423.495,-218.387 420.392,-224.661"/>
</g>
<!-- Node445&#45;&gt;Node437 -->
<g id="edge31" class="edge"><title>Node445&#45;&gt;Node437</title>
<path fill="none" stroke="midnightblue" d="M332.646,-142.707C349.227,-123.443 379.987,-90.2826 412,-68.9935 414.158,-67.5584 416.416,-66.1783 418.734,-64.8556"/>
<polygon fill="midnightblue" stroke="midnightblue" points="420.671,-67.7919 427.898,-60.0446 417.417,-61.5942 420.671,-67.7919"/>
</g>
<!-- Node445&#45;&gt;Node443 -->
<g id="edge32" class="edge"><title>Node445&#45;&gt;Node443</title>
<path fill="none" stroke="midnightblue" d="M333.755,-173.116C345.201,-185.784 361.85,-204.404 376,-220.993 392.397,-240.218 391.923,-249.653 412,-264.993 414.3,-266.751 416.743,-268.417 419.273,-269.992"/>
<polygon fill="midnightblue" stroke="midnightblue" points="417.698,-273.122 428.127,-274.99 421.14,-267.026 417.698,-273.122"/>
</g>
<!-- Node445&#45;&gt;Node444 -->
<g id="edge33" class="edge"><title>Node445&#45;&gt;Node444</title>
<path fill="none" stroke="midnightblue" d="M354.495,-142.945C371.754,-135.428 392.971,-126.208 412,-117.993 415.664,-116.412 419.465,-114.775 423.283,-113.133"/>
<polygon fill="midnightblue" stroke="midnightblue" points="424.931,-116.235 432.738,-109.072 422.168,-109.803 424.931,-116.235"/>
</g>
<!-- Node446 -->
<g id="node28" class="node"><title>Node446</title>
<g id="a_node28"><a xlink:href="../../df/da2/namespacemom__ice__shelf.html#a0fa0e5e0225816e5e5e87994371f11f1" target="_top" xlink:title="mom_ice_shelf::matrix\l_diagonal_bilinear">
<polygon fill="white" stroke="black" points="421,-127.993 421,-157.993 517,-157.993 517,-127.993 421,-127.993"/>
<text text-anchor="start" x="429" y="-145.993" font-family="Helvetica,sans-Serif" font-size="10.00">mom_ice_shelf::matrix</text>
<text text-anchor="middle" x="469" y="-134.993" font-family="Helvetica,sans-Serif" font-size="10.00">_diagonal_bilinear</text>
</a>
</g>
</g>
<!-- Node445&#45;&gt;Node446 -->
<g id="edge34" class="edge"><title>Node445&#45;&gt;Node446</title>
<path fill="none" stroke="midnightblue" d="M361.226,-153.815C376.596,-152.257 394.331,-150.46 410.876,-148.783"/>
<polygon fill="midnightblue" stroke="midnightblue" points="411.396,-152.248 420.992,-147.758 410.69,-145.284 411.396,-152.248"/>
</g>
<!-- Node448 -->
<g id="node30" class="node"><title>Node448</title>
<g id="a_node30"><a xlink:href="../../df/da2/namespacemom__ice__shelf.html#abc77d7c18a2919c9308c39aa26f916bf" target="_top" xlink:title="mom_ice_shelf::matrix\l_diagonal_triangle">
<polygon fill="white" stroke="black" points="421,-176.993 421,-206.993 517,-206.993 517,-176.993 421,-176.993"/>
<text text-anchor="start" x="429" y="-194.993" font-family="Helvetica,sans-Serif" font-size="10.00">mom_ice_shelf::matrix</text>
<text text-anchor="middle" x="469" y="-183.993" font-family="Helvetica,sans-Serif" font-size="10.00">_diagonal_triangle</text>
</a>
</g>
</g>
<!-- Node445&#45;&gt;Node448 -->
<g id="edge37" class="edge"><title>Node445&#45;&gt;Node448</title>
<path fill="none" stroke="midnightblue" d="M361.226,-167.464C376.596,-170.995 394.331,-175.069 410.876,-178.87"/>
<polygon fill="midnightblue" stroke="midnightblue" points="410.463,-182.366 420.992,-181.194 412.03,-175.544 410.463,-182.366"/>
</g>
<!-- Node446&#45;&gt;Node434 -->
<g id="edge35" class="edge"><title>Node446&#45;&gt;Node434</title>
<path fill="none" stroke="midnightblue" d="M517.303,-135.083C530.932,-132.804 545.976,-130.288 560.233,-127.904"/>
<polygon fill="midnightblue" stroke="midnightblue" points="561.159,-131.298 570.445,-126.197 560.004,-124.394 561.159,-131.298"/>
</g>
<!-- Node447 -->
<g id="node29" class="node"><title>Node447</title>
<g id="a_node29"><a xlink:href="../../df/da2/namespacemom__ice__shelf.html#af109d5577049ff4ded3b07d5ab25a771" target="_top" xlink:title="mom_ice_shelf::cg_diagonal\l_subgrid_basal_bilinear">
<polygon fill="white" stroke="black" points="562,-151.993 562,-181.993 679,-181.993 679,-151.993 562,-151.993"/>
<text text-anchor="start" x="570" y="-169.993" font-family="Helvetica,sans-Serif" font-size="10.00">mom_ice_shelf::cg_diagonal</text>
<text text-anchor="middle" x="620.5" y="-158.993" font-family="Helvetica,sans-Serif" font-size="10.00">_subgrid_basal_bilinear</text>
</a>
</g>
</g>
<!-- Node446&#45;&gt;Node447 -->
<g id="edge36" class="edge"><title>Node446&#45;&gt;Node447</title>
<path fill="none" stroke="midnightblue" d="M517.303,-150.587C528.22,-152.34 540.044,-154.238 551.644,-156.1"/>
<polygon fill="midnightblue" stroke="midnightblue" points="551.324,-159.594 561.753,-157.723 552.434,-152.682 551.324,-159.594"/>
</g>
<!-- Node450&#45;&gt;Node430 -->
<g id="edge43" class="edge"><title>Node450&#45;&gt;Node430</title>
<path fill="none" stroke="midnightblue" d="M223.21,-549.927C274.247,-554.319 356.876,-561.43 411.816,-566.158"/>
<polygon fill="midnightblue" stroke="midnightblue" points="411.814,-569.671 422.077,-567.041 412.414,-562.697 411.814,-569.671"/>
</g>
</g>
</svg>
        <g id="navigator" transform="translate(0 0)" fill="#404254">
                <rect fill="#f2f5e9" fill-opacity="0.5" stroke="#606060" stroke-width=".5" x="0" y="0" width="60" height="60"/>
                <use id="zoomplus" xlink:href="#zoomPlus" x="17" y="9" onmousedown="handleZoom(evt,'in')"/>
                <use id="zoomminus" xlink:href="#zoomMin" x="42" y="9" onmousedown="handleZoom(evt,'out')"/>
                <use id="reset" xlink:href="#resetDef" x="30" y="36" onmousedown="handleReset()"/>
                <g id="arrowUp" xlink:href="#dirArrow" transform="translate(30 24)" onmousedown="handlePan(0,-1)">
                  <use xlink:href="#rim" fill="#404040">
                        <set attributeName="fill" to="#808080" begin="arrowUp.mouseover" end="arrowUp.mouseout"/>
                  </use>
                  <path fill="none" stroke="white" stroke-width="1.5" d="M0,-3.0v7 M-2.5,-0.5L0,-3.0L2.5,-0.5"/>
                </g>
                <g id="arrowRight" xlink:href="#dirArrow" transform="rotate(90) translate(36 -43)" onmousedown="handlePan(1,0)">
                  <use xlink:href="#rim" fill="#404040">
                        <set attributeName="fill" to="#808080" begin="arrowRight.mouseover" end="arrowRight.mouseout"/>
                  </use>
                  <path fill="none" stroke="white" stroke-width="1.5" d="M0,-3.0v7 M-2.5,-0.5L0,-3.0L2.5,-0.5"/>
                </g>
                <g id="arrowDown" xlink:href="#dirArrow" transform="rotate(180) translate(-30 -48)" onmousedown="handlePan(0,1)">
                  <use xlink:href="#rim" fill="#404040">
                        <set attributeName="fill" to="#808080" begin="arrowDown.mouseover" end="arrowDown.mouseout"/>
                  </use>
                  <path fill="none" stroke="white" stroke-width="1.5" d="M0,-3.0v7 M-2.5,-0.5L0,-3.0L2.5,-0.5"/>
                </g>
                <g id="arrowLeft" xlink:href="#dirArrow" transform="rotate(270) translate(-36 17)" onmousedown="handlePan(-1,0)">
                  <use xlink:href="#rim" fill="#404040">
                        <set attributeName="fill" to="#808080" begin="arrowLeft.mouseover" end="arrowLeft.mouseout"/>
                  </use>
                  <path fill="none" stroke="white" stroke-width="1.5" d="M0,-3.0v7 M-2.5,-0.5L0,-3.0L2.5,-0.5"/>
                </g>
        </g>
        <svg viewBox="0 0 15 15" width="100%" height="30px" preserveAspectRatio="xMaxYMin meet">
         <g id="arrow_out" transform="scale(0.3 0.3)">
          <a xlink:href="namespacemom__ice__shelf_a3b0e0cc9f36c5197236cc05867b780df_cgraph_org.svg" target="_base">
           <rect id="button" ry="5" rx="5" y="6" x="6" height="38" width="38"
                fill="#f2f5e9" fill-opacity="0.5" stroke="#606060" stroke-width="1.0"/>
           <path id="arrow"
             d="M 11.500037,31.436501 C 11.940474,20.09759 22.043105,11.32322 32.158766,21.979434 L 37.068811,17.246167 C 37.068811,17.246167 37.088388,32 37.088388,32 L 22.160133,31.978069 C 22.160133,31.978069 26.997745,27.140456 26.997745,27.140456 C 18.528582,18.264221 13.291696,25.230495 11.500037,31.436501 z"
             style="fill:#404040;"/>
          </a>
         </g>
        </svg>
</svg>
