<?xml version="1.0" encoding="UTF-8" standalone="no"?>
<!DOCTYPE svg PUBLIC "-//W3C//DTD SVG 1.1//EN"
 "http://www.w3.org/Graphics/SVG/1.1/DTD/svg11.dtd">
<!-- Generated by graphviz version 2.38.0 (20140413.2041)
 -->
<!-- Title: mom_ice_shelf::ice_shelf_advect Pages: 1 -->
<svg width="371pt" height="284pt"
 viewBox="0.00 0.00 371.00 284.00" xmlns="http://www.w3.org/2000/svg" xmlns:xlink="http://www.w3.org/1999/xlink">
<g id="graph0" class="graph" transform="scale(1 1) rotate(0) translate(4 280)">
<title>mom_ice_shelf::ice_shelf_advect</title>
<polygon fill="white" stroke="none" points="-4,4 -4,-280 367,-280 367,4 -4,4"/>
<!-- Node128 -->
<g id="node1" class="node"><title>Node128</title>
<polygon fill="#bfbfbf" stroke="black" points="0,-122.5 0,-152.5 84,-152.5 84,-122.5 0,-122.5"/>
<text text-anchor="start" x="8" y="-140.5" font-family="Helvetica,sans-Serif" font-size="10.00">mom_ice_shelf::ice</text>
<text text-anchor="middle" x="42" y="-129.5" font-family="Helvetica,sans-Serif" font-size="10.00">_shelf_advect</text>
</g>
<!-- Node129 -->
<g id="node2" class="node"><title>Node129</title>
<g id="a_node2"><a xlink:href="../../df/da2/namespacemom__ice__shelf.html#ae577f1cfafb12ba9b009523fcf43cda7" target="_top" xlink:title="mom_ice_shelf::calve\l_to_mask">
<polygon fill="white" stroke="black" points="131,-245.5 131,-275.5 223,-275.5 223,-245.5 131,-245.5"/>
<text text-anchor="start" x="139" y="-263.5" font-family="Helvetica,sans-Serif" font-size="10.00">mom_ice_shelf::calve</text>
<text text-anchor="middle" x="177" y="-252.5" font-family="Helvetica,sans-Serif" font-size="10.00">_to_mask</text>
</a>
</g>
</g>
<!-- Node128&#45;&gt;Node129 -->
<g id="edge1" class="edge"><title>Node128&#45;&gt;Node129</title>
<path fill="none" stroke="midnightblue" d="M51.3337,-152.518C63.7933,-173.773 89.1456,-212.686 120,-236.5 121.769,-237.865 123.627,-239.169 125.548,-240.411"/>
<polygon fill="midnightblue" stroke="midnightblue" points="123.88,-243.489 134.288,-245.471 127.387,-237.431 123.88,-243.489"/>
</g>
<!-- Node130 -->
<g id="node3" class="node"><title>Node130</title>
<g id="a_node3"><a xlink:href="../../df/da2/namespacemom__ice__shelf.html#a8bd6d78f530289dc90ffbdb0b80e7883" target="_top" xlink:title="mom_ice_shelf::ice\l_shelf_advect_thickness_x">
<polygon fill="white" stroke="black" points="122,-196.5 122,-226.5 232,-226.5 232,-196.5 122,-196.5"/>
<text text-anchor="start" x="130" y="-214.5" font-family="Helvetica,sans-Serif" font-size="10.00">mom_ice_shelf::ice</text>
<text text-anchor="middle" x="177" y="-203.5" font-family="Helvetica,sans-Serif" font-size="10.00">_shelf_advect_thickness_x</text>
</a>
</g>
</g>
<!-- Node128&#45;&gt;Node130 -->
<g id="edge2" class="edge"><title>Node128&#45;&gt;Node130</title>
<path fill="none" stroke="midnightblue" d="M63.9766,-152.521C79.132,-163.022 100.315,-176.99 120,-187.5 123.031,-189.118 126.195,-190.712 129.408,-192.262"/>
<polygon fill="midnightblue" stroke="midnightblue" points="127.985,-195.46 138.529,-196.497 130.932,-189.111 127.985,-195.46"/>
</g>
<!-- Node132 -->
<g id="node5" class="node"><title>Node132</title>
<g id="a_node5"><a xlink:href="../../df/da2/namespacemom__ice__shelf.html#a0663fa04e4a2df8b6676a0c5364ac8ee" target="_top" xlink:title="mom_ice_shelf::ice\l_shelf_advect_thickness_y">
<polygon fill="white" stroke="black" points="122,-147.5 122,-177.5 232,-177.5 232,-147.5 122,-147.5"/>
<text text-anchor="start" x="130" y="-165.5" font-family="Helvetica,sans-Serif" font-size="10.00">mom_ice_shelf::ice</text>
<text text-anchor="middle" x="177" y="-154.5" font-family="Helvetica,sans-Serif" font-size="10.00">_shelf_advect_thickness_y</text>
</a>
</g>
</g>
<!-- Node128&#45;&gt;Node132 -->
<g id="edge4" class="edge"><title>Node128&#45;&gt;Node132</title>
<path fill="none" stroke="midnightblue" d="M84.353,-145.273C93.0889,-146.915 102.504,-148.685 111.857,-150.443"/>
<polygon fill="midnightblue" stroke="midnightblue" points="111.471,-153.932 121.946,-152.339 112.764,-147.052 111.471,-153.932"/>
</g>
<!-- Node133 -->
<g id="node6" class="node"><title>Node133</title>
<g id="a_node6"><a xlink:href="../../df/da2/namespacemom__ice__shelf.html#a850dc882bb94f5b3eacdfdbf25cb19b8" target="_top" xlink:title="mom_ice_shelf::ice\l_shelf_min_thickness_calve">
<polygon fill="white" stroke="black" points="120,-98.5 120,-128.5 234,-128.5 234,-98.5 120,-98.5"/>
<text text-anchor="start" x="128" y="-116.5" font-family="Helvetica,sans-Serif" font-size="10.00">mom_ice_shelf::ice</text>
<text text-anchor="middle" x="177" y="-105.5" font-family="Helvetica,sans-Serif" font-size="10.00">_shelf_min_thickness_calve</text>
</a>
</g>
</g>
<!-- Node128&#45;&gt;Node133 -->
<g id="edge6" class="edge"><title>Node128&#45;&gt;Node133</title>
<path fill="none" stroke="midnightblue" d="M84.353,-130.038C92.355,-128.594 100.927,-127.047 109.498,-125.5"/>
<polygon fill="midnightblue" stroke="midnightblue" points="110.307,-128.911 119.527,-123.691 109.064,-122.022 110.307,-128.911"/>
</g>
<!-- Node134 -->
<g id="node7" class="node"><title>Node134</title>
<g id="a_node7"><a xlink:href="../../df/da2/namespacemom__ice__shelf.html#aafa24b7ba297a29d9897576939282815" target="_top" xlink:title="mom_ice_shelf::shelf\l_advance_front">
<polygon fill="white" stroke="black" points="131.5,-49.5 131.5,-79.5 222.5,-79.5 222.5,-49.5 131.5,-49.5"/>
<text text-anchor="start" x="139.5" y="-67.5" font-family="Helvetica,sans-Serif" font-size="10.00">mom_ice_shelf::shelf</text>
<text text-anchor="middle" x="177" y="-56.5" font-family="Helvetica,sans-Serif" font-size="10.00">_advance_front</text>
</a>
</g>
</g>
<!-- Node128&#45;&gt;Node134 -->
<g id="edge7" class="edge"><title>Node128&#45;&gt;Node134</title>
<path fill="none" stroke="midnightblue" d="M65.426,-122.377C80.5344,-112.475 101.084,-99.5571 120,-89.5 123.547,-87.614 127.266,-85.7408 131.028,-83.9176"/>
<polygon fill="midnightblue" stroke="midnightblue" points="132.837,-86.9344 140.395,-79.51 129.857,-80.6005 132.837,-86.9344"/>
</g>
<!-- Node136 -->
<g id="node9" class="node"><title>Node136</title>
<g id="a_node9"><a xlink:href="../../df/da2/namespacemom__ice__shelf.html#ae71447bb7b63b4313070abc27e0a7208" target="_top" xlink:title="mom_ice_shelf::update\l_velocity_masks">
<polygon fill="white" stroke="black" points="127.5,-0.5 127.5,-30.5 226.5,-30.5 226.5,-0.5 127.5,-0.5"/>
<text text-anchor="start" x="135.5" y="-18.5" font-family="Helvetica,sans-Serif" font-size="10.00">mom_ice_shelf::update</text>
<text text-anchor="middle" x="177" y="-7.5" font-family="Helvetica,sans-Serif" font-size="10.00">_velocity_masks</text>
</a>
</g>
</g>
<!-- Node128&#45;&gt;Node136 -->
<g id="edge9" class="edge"><title>Node128&#45;&gt;Node136</title>
<path fill="none" stroke="midnightblue" d="M51.8823,-122.154C64.6331,-101.269 89.9319,-63.8292 120,-40.5 122.098,-38.8724 124.318,-37.3247 126.618,-35.8567"/>
<polygon fill="midnightblue" stroke="midnightblue" points="128.857,-38.6064 135.784,-30.5898 125.37,-32.5369 128.857,-38.6064"/>
</g>
<!-- Node131 -->
<g id="node4" class="node"><title>Node131</title>
<g id="a_node4"><a xlink:href="../../df/da2/namespacemom__ice__shelf.html#ac30ce29228457ec8a19679f25960ef21" target="_top" xlink:title="mom_ice_shelf::slope\l_limiter">
<polygon fill="white" stroke="black" points="270,-171.5 270,-201.5 363,-201.5 363,-171.5 270,-171.5"/>
<text text-anchor="start" x="278" y="-189.5" font-family="Helvetica,sans-Serif" font-size="10.00">mom_ice_shelf::slope</text>
<text text-anchor="middle" x="316.5" y="-178.5" font-family="Helvetica,sans-Serif" font-size="10.00">_limiter</text>
</a>
</g>
</g>
<!-- Node130&#45;&gt;Node131 -->
<g id="edge3" class="edge"><title>Node130&#45;&gt;Node131</title>
<path fill="none" stroke="midnightblue" d="M232.344,-201.619C241.397,-199.973 250.8,-198.264 259.885,-196.612"/>
<polygon fill="midnightblue" stroke="midnightblue" points="260.759,-200.01 269.971,-194.778 259.506,-193.123 260.759,-200.01"/>
</g>
<!-- Node132&#45;&gt;Node131 -->
<g id="edge5" class="edge"><title>Node132&#45;&gt;Node131</title>
<path fill="none" stroke="midnightblue" d="M232.344,-171.985C241.397,-173.566 250.8,-175.207 259.885,-176.793"/>
<polygon fill="midnightblue" stroke="midnightblue" points="259.518,-180.281 269.971,-178.553 260.722,-173.386 259.518,-180.281"/>
</g>
<!-- Node135 -->
<g id="node8" class="node"><title>Node135</title>
<g id="a_node8"><a xlink:href="../../d0/de6/namespacemom__error__handler.html#ad5f00a53059c72fe2332d1436c80ca71" target="_top" xlink:title="mom_error_handler::\lis_root_pe">
<polygon fill="white" stroke="black" points="270,-49.5 270,-79.5 363,-79.5 363,-49.5 270,-49.5"/>
<text text-anchor="start" x="278" y="-67.5" font-family="Helvetica,sans-Serif" font-size="10.00">mom_error_handler::</text>
<text text-anchor="middle" x="316.5" y="-56.5" font-family="Helvetica,sans-Serif" font-size="10.00">is_root_pe</text>
</a>
</g>
</g>
<!-- Node134&#45;&gt;Node135 -->
<g id="edge8" class="edge"><title>Node134&#45;&gt;Node135</title>
<path fill="none" stroke="midnightblue" d="M222.642,-64.5C234.405,-64.5 247.245,-64.5 259.522,-64.5"/>
<polygon fill="midnightblue" stroke="midnightblue" points="259.667,-68.0001 269.667,-64.5 259.667,-61.0001 259.667,-68.0001"/>
</g>
</g>
</svg>
